mtllib forest_nature_set_all_in.mtl
o forest_Mushroom_high_group_yellow_Cylinder_068
v -20.319529 0.081916 12.826868
v -20.319780 0.094034 12.826202
v -20.317820 0.087816 12.760434
v -20.317566 0.075698 12.761100
v -20.269827 0.085240 12.715219
v -20.269573 0.073122 12.715885
v -20.203915 0.087816 12.717045
v -20.203661 0.075698 12.717710
v -20.158693 0.094034 12.764842
v -20.158440 0.081916 12.765507
v -20.160656 0.100253 12.830610
v -20.160402 0.088135 12.831276
v -20.208649 0.102828 12.875825
v -20.208395 0.090711 12.876491
v -20.192278 0.150788 12.775935
v -20.218960 0.147119 12.747733
v -20.224129 0.202887 12.753599
v -20.202579 0.205851 12.776377
v -20.274561 0.100253 12.873999
v -20.274307 0.088135 12.874664
v -20.209858 0.070082 12.732773
v -20.263708 0.067978 12.731281
v -20.267576 0.080243 12.861006
v -20.304522 0.075163 12.821956
v -20.252314 0.063644 12.802793
v -20.244545 0.064713 12.811004
v -20.213726 0.082348 12.862497
v -20.174515 0.080243 12.825557
v -20.172913 0.075163 12.771823
v -20.302919 0.070082 12.768222
v -20.224638 0.063644 12.792251
v -20.230509 0.032633 12.793774
v -20.238724 0.031864 12.785093
v -20.232407 0.062576 12.784039
v -20.233221 0.065155 12.811317
v -20.224976 0.064713 12.803550
v -20.243731 0.062134 12.783726
v -20.251976 0.062576 12.791493
v -20.250700 0.031556 12.784762
v -20.259422 0.031864 12.792977
v -20.176956 0.118659 12.821283
v -20.215569 0.120732 12.857659
v -20.251564 0.033385 12.813604
v -20.239588 0.033700 12.813935
v -20.230865 0.033385 12.805721
v -20.259779 0.032633 12.804923
v -20.254202 -0.000000 12.823800
v -20.245003 0.000000 12.815119
v -20.244637 0.000000 12.802482
v -20.253317 0.000000 12.793291
v -20.265961 -0.000000 12.792931
v -20.275160 0.000000 12.801611
v -20.266846 0.000000 12.823439
v -20.275526 0.000000 12.814248
v -20.260080 0.000000 12.808365
v -20.211760 0.108653 12.729918
v -20.175379 0.113656 12.768372
v -20.268597 0.118659 12.856191
v -20.304976 0.113656 12.817738
v -20.264786 0.106581 12.728450
v -20.193436 0.154457 12.814741
v -20.221754 0.155977 12.841419
v -20.303398 0.108653 12.764826
v -20.257851 0.145599 12.746655
v -20.286169 0.147119 12.773335
v -20.278408 0.202887 12.774276
v -20.255537 0.201660 12.752729
v -20.260645 0.154457 12.840343
v -20.226385 0.210041 12.829265
v -20.257795 0.208814 12.828394
v -20.203514 0.208814 12.807717
v -20.279343 0.205851 12.805617
v -20.241688 0.241170 12.789090
v -20.287327 0.150788 12.812140
v -20.383333 0.112501 12.702322
v -20.382355 0.129143 12.702322
v -20.298906 0.120602 12.736992
v -20.299885 0.103960 12.736992
v -20.264341 0.117065 12.820691
v -20.265318 0.100423 12.820691
v -20.298906 0.120602 12.904390
v -20.299885 0.103960 12.904390
v -20.382355 0.129143 12.939059
v -20.383333 0.112501 12.939059
v -20.465803 0.137683 12.904390
v -20.466782 0.121041 12.904390
v -20.500368 0.141220 12.820691
v -20.501347 0.124578 12.820691
v -20.380173 0.207086 12.890533
v -20.330935 0.202047 12.870077
v -20.335938 0.278637 12.860577
v -20.375704 0.282707 12.877098
v -20.465803 0.137683 12.736992
v -20.466782 0.121041 12.736992
v -20.316185 0.096248 12.889073
v -20.287945 0.093358 12.820691
v -20.452543 0.110203 12.752308
v -20.384363 0.103225 12.723983
v -20.385294 0.087407 12.800355
v -20.399630 0.088874 12.806312
v -20.480783 0.113093 12.820691
v -20.452543 0.110203 12.889073
v -20.384363 0.103225 12.917398
v -20.316185 0.096248 12.752308
v -20.385294 0.087407 12.841026
v -20.381105 0.043773 12.842199
v -20.365948 0.042716 12.835899
v -20.370956 0.085939 12.835071
v -20.405569 0.089482 12.820691
v -20.399630 0.088874 12.835071
v -20.365019 0.085332 12.820691
v -20.370956 0.085939 12.806312
v -20.359669 0.042293 12.820691
v -20.365948 0.042716 12.805482
v -20.445864 0.162962 12.888028
v -20.473673 0.165808 12.820691
v -20.396263 0.044806 12.805482
v -20.402542 0.045238 12.820691
v -20.396263 0.044806 12.835899
v -20.381105 0.043773 12.799182
v -20.386600 -0.000000 12.832355
v -20.379957 0.000000 12.848405
v -20.363918 0.000000 12.855053
v -20.347878 0.000000 12.848405
v -20.341234 -0.000000 12.832355
v -20.347878 0.000000 12.816305
v -20.379957 0.000000 12.816305
v -20.363918 0.000000 12.809657
v -20.363918 0.000000 12.832355
v -20.311592 0.149220 12.888028
v -20.378729 0.156091 12.915920
v -20.445864 0.162962 12.753353
v -20.378729 0.156091 12.725461
v -20.283785 0.146374 12.820691
v -20.429411 0.212125 12.870077
v -20.449806 0.214212 12.820691
v -20.311592 0.149220 12.753353
v -20.310539 0.199959 12.820691
v -20.330935 0.202047 12.771305
v -20.335938 0.278637 12.780805
v -20.319466 0.276951 12.820691
v -20.429411 0.212125 12.771305
v -20.431942 0.288462 12.820691
v -20.415470 0.286776 12.780805
v -20.415470 0.286776 12.860577
v -20.375704 0.282707 12.764283
v -20.372902 0.331213 12.820691
v -20.380173 0.207086 12.750848
v -20.220707 0.062608 12.958571
v -20.221029 0.071869 12.959010
v -20.264071 0.067117 12.985018
v -20.263748 0.057855 12.984579
v -20.312998 0.065148 12.972947
v -20.312677 0.055887 12.972508
v -20.339153 0.067117 12.929871
v -20.338831 0.057855 12.929432
v -20.327211 0.071869 12.881020
v -20.326889 0.062608 12.880581
v -20.284170 0.076622 12.855012
v -20.283848 0.067361 12.854573
v -20.235241 0.078591 12.867083
v -20.234919 0.069329 12.866644
v -20.306166 0.115246 12.897985
v -20.313211 0.112441 12.926808
v -20.307302 0.155065 12.927694
v -20.301611 0.157330 12.904415
v -20.209087 0.076622 12.910160
v -20.208765 0.067361 12.909721
v -20.326590 0.053563 12.927166
v -20.305222 0.051955 12.962360
v -20.220325 0.061329 12.911062
v -20.230082 0.057446 12.950974
v -20.264030 0.048643 12.925396
v -20.261980 0.049459 12.917004
v -20.241693 0.062938 12.875868
v -20.281670 0.061329 12.866006
v -20.316833 0.057446 12.887255
v -20.265247 0.053563 12.972221
v -20.282272 0.048643 12.911998
v -20.284615 0.025562 12.910407
v -20.286783 0.024974 12.919281
v -20.284325 0.047826 12.920390
v -20.266472 0.049798 12.909603
v -20.274879 0.049459 12.907530
v -20.279831 0.047488 12.927791
v -20.271425 0.047826 12.929864
v -20.282030 0.024738 12.927108
v -20.273140 0.024974 12.929301
v -20.283400 0.090690 12.869346
v -20.244036 0.092274 12.879057
v -20.263153 0.026137 12.915705
v -20.267906 0.026377 12.907878
v -20.276796 0.026137 12.905684
v -20.265322 0.025562 12.924579
v -20.274080 -0.000000 12.892398
v -20.283468 0.000000 12.890090
v -20.291733 0.000000 12.895094
v -20.294035 0.000000 12.904478
v -20.289026 -0.000000 12.912745
v -20.279638 0.000000 12.915053
v -20.269070 0.000000 12.900665
v -20.271372 0.000000 12.910049
v -20.281553 0.000000 12.902572
v -20.327635 0.083043 12.929570
v -20.318027 0.086866 12.890269
v -20.222996 0.090690 12.913713
v -20.232601 0.086866 12.953013
v -20.306593 0.081459 12.964227
v -20.280769 0.118050 12.882639
v -20.251900 0.119212 12.889761
v -20.267229 0.083043 12.973937
v -20.297779 0.111280 12.952226
v -20.268909 0.112441 12.959348
v -20.271523 0.155065 12.953974
v -20.294838 0.154127 12.948222
v -20.236467 0.118050 12.915178
v -20.257784 0.160533 12.897774
v -20.245321 0.159595 12.918302
v -20.281101 0.159595 12.892021
v -20.251011 0.157330 12.941581
v -20.277235 0.184324 12.924254
v -20.243513 0.115246 12.944002
vt 0.453729 0.040907
vt 0.453929 0.073584
vt 0.470995 0.056815
vt 0.470795 0.024138
vt 0.478065 0.049869
vt 0.477864 0.017192
vt 0.470995 0.056815
vt 0.470795 0.024138
vt 0.453929 0.073584
vt 0.453729 0.040907
vt 0.436863 0.090353
vt 0.436663 0.057676
vt 0.429794 0.097299
vt 0.429594 0.064622
vt 0.454375 0.226628
vt 0.464445 0.216734
vt 0.463422 0.367121
vt 0.455289 0.375112
vt 0.436863 0.090353
vt 0.436663 0.057676
vt 0.882197 0.828363
vt 0.873611 0.846111
vt 0.866076 0.710552
vt 0.871722 0.698881
vt 0.838813 0.766906
vt 0.852444 0.738728
vt 0.852213 0.659362
vt 0.848652 0.666722
vt 0.832152 0.931809
vt 0.823566 0.949557
vt 0.833167 0.778577
vt 0.838813 0.766906
vt 0.852881 0.888961
vt 0.852444 0.738728
vt 0.832152 0.931809
vt 0.873611 0.846111
vt 0.866076 0.710552
vt 0.852881 0.888961
vt 0.852213 0.659362
vt 0.851926 0.527644
vt 0.856092 0.516946
vt 0.855775 0.651999
vt 0.847177 0.669772
vt 0.848652 0.666722
vt 0.857250 0.648951
vt 0.855775 0.651999
vt 0.857818 0.512513
vt 0.856092 0.516946
vt 0.440941 0.139989
vt 0.435253 0.145577
vt 0.847759 0.538345
vt 0.846033 0.542776
vt 0.847759 0.538345
vt 0.851926 0.527644
vt 0.846033 0.542776
vt 0.847759 0.538345
vt 0.851926 0.527644
vt 0.856092 0.516946
vt 0.857818 0.512513
vt 0.856092 0.516946
vt 0.847759 0.538345
vt 0.851926 0.527644
vt 0.851926 0.527644
vt 0.468401 0.113007
vt 0.454671 0.126497
vt 0.440941 0.139989
vt 0.454671 0.126497
vt 0.474088 0.107419
vt 0.444305 0.236523
vt 0.440134 0.240621
vt 0.468401 0.113007
vt 0.468616 0.212635
vt 0.464445 0.216734
vt 0.463422 0.367121
vt 0.466791 0.363811
vt 0.444305 0.236523
vt 0.443788 0.386413
vt 0.447156 0.383103
vt 0.447156 0.383103
vt 0.455289 0.375112
vt 0.455862 0.470355
vt 0.454375 0.226628
vt 0.453729 0.040907
vt 0.453929 0.073584
vt 0.470995 0.056815
vt 0.470795 0.024138
vt 0.478065 0.049869
vt 0.477864 0.017192
vt 0.470995 0.056815
vt 0.470795 0.024138
vt 0.453929 0.073584
vt 0.453729 0.040907
vt 0.436863 0.090353
vt 0.436663 0.057676
vt 0.429794 0.097299
vt 0.429594 0.064622
vt 0.454375 0.226628
vt 0.464445 0.216734
vt 0.463422 0.367121
vt 0.455289 0.375112
vt 0.436863 0.090353
vt 0.436663 0.057676
vt 0.882197 0.828363
vt 0.873611 0.846111
vt 0.866076 0.710552
vt 0.871722 0.698881
vt 0.838813 0.766906
vt 0.852444 0.738728
vt 0.852213 0.659362
vt 0.848652 0.666722
vt 0.832152 0.931809
vt 0.823566 0.949557
vt 0.833167 0.778577
vt 0.838813 0.766906
vt 0.852881 0.888961
vt 0.852444 0.738728
vt 0.832152 0.931809
vt 0.873611 0.846111
vt 0.866076 0.710552
vt 0.852881 0.888961
vt 0.852213 0.659362
vt 0.851926 0.527644
vt 0.856092 0.516946
vt 0.855775 0.651999
vt 0.847177 0.669772
vt 0.848652 0.666722
vt 0.857250 0.648951
vt 0.855775 0.651999
vt 0.857818 0.512513
vt 0.856092 0.516946
vt 0.440941 0.139989
vt 0.435253 0.145577
vt 0.847759 0.538345
vt 0.846033 0.542776
vt 0.847759 0.538345
vt 0.851926 0.527644
vt 0.846033 0.542776
vt 0.847759 0.538345
vt 0.851926 0.527644
vt 0.856092 0.516946
vt 0.857818 0.512513
vt 0.856092 0.516946
vt 0.847759 0.538345
vt 0.851926 0.527644
vt 0.851926 0.527644
vt 0.468401 0.113007
vt 0.454671 0.126497
vt 0.440941 0.139989
vt 0.454671 0.126497
vt 0.474088 0.107419
vt 0.444305 0.236523
vt 0.440134 0.240621
vt 0.468401 0.113007
vt 0.468616 0.212635
vt 0.464445 0.216734
vt 0.463422 0.367121
vt 0.466791 0.363811
vt 0.444305 0.236523
vt 0.443788 0.386413
vt 0.447156 0.383103
vt 0.447156 0.383103
vt 0.455289 0.375112
vt 0.455862 0.470355
vt 0.454375 0.226628
vt 0.453729 0.040907
vt 0.453929 0.073584
vt 0.470995 0.056815
vt 0.470795 0.024138
vt 0.478065 0.049869
vt 0.477864 0.017192
vt 0.470995 0.056815
vt 0.470795 0.024138
vt 0.453929 0.073584
vt 0.453729 0.040907
vt 0.436863 0.090353
vt 0.436663 0.057676
vt 0.429794 0.097299
vt 0.429594 0.064622
vt 0.454375 0.226628
vt 0.464445 0.216734
vt 0.463422 0.367121
vt 0.455289 0.375112
vt 0.436863 0.090353
vt 0.436663 0.057676
vt 0.882197 0.828363
vt 0.873611 0.846111
vt 0.866076 0.710552
vt 0.871722 0.698881
vt 0.838813 0.766906
vt 0.852444 0.738728
vt 0.852213 0.659362
vt 0.848652 0.666722
vt 0.832152 0.931809
vt 0.823566 0.949557
vt 0.833167 0.778577
vt 0.838813 0.766906
vt 0.852881 0.888961
vt 0.852444 0.738728
vt 0.832152 0.931809
vt 0.873611 0.846111
vt 0.866076 0.710552
vt 0.852881 0.888961
vt 0.852213 0.659362
vt 0.851926 0.527644
vt 0.856092 0.516946
vt 0.855775 0.651999
vt 0.847177 0.669772
vt 0.848652 0.666722
vt 0.857250 0.648951
vt 0.855775 0.651999
vt 0.857818 0.512513
vt 0.856092 0.516946
vt 0.440941 0.139989
vt 0.435253 0.145577
vt 0.847759 0.538345
vt 0.846033 0.542776
vt 0.847759 0.538345
vt 0.851926 0.527644
vt 0.846033 0.542776
vt 0.847759 0.538345
vt 0.851926 0.527644
vt 0.856092 0.516946
vt 0.857818 0.512513
vt 0.856092 0.516946
vt 0.847759 0.538345
vt 0.851926 0.527644
vt 0.851926 0.527644
vt 0.468401 0.113007
vt 0.454671 0.126497
vt 0.440941 0.139989
vt 0.454671 0.126497
vt 0.474088 0.107419
vt 0.444305 0.236523
vt 0.440134 0.240621
vt 0.468401 0.113007
vt 0.468616 0.212635
vt 0.464445 0.216734
vt 0.463422 0.367121
vt 0.466791 0.363811
vt 0.444305 0.236523
vt 0.443788 0.386413
vt 0.447156 0.383103
vt 0.447156 0.383103
vt 0.455289 0.375112
vt 0.455862 0.470355
vt 0.454375 0.226628
vn -0.9994 -0.0225 -0.0277
vn -0.6863 -0.0542 -0.7253
vn 0.0298 -0.0542 -0.9981
vn 0.7277 -0.0223 -0.6856
vn 0.9994 0.0227 0.0277
vn 0.6863 0.0542 0.7253
vn 0.7104 0.1384 -0.6901
vn -0.0298 0.0542 0.9981
vn -0.7277 0.0224 0.6856
vn 0.0460 -0.9420 -0.3323
vn -0.1235 -0.9624 0.2420
vn 0.3229 -0.8615 0.3919
vn 0.3402 -0.9183 -0.2024
vn 0.0196 -0.8615 0.5074
vn -0.2554 -0.9421 -0.2175
vn 0.4554 -0.8850 0.0973
vn -0.2753 -0.8849 0.3756
vn -0.3887 -0.9183 0.0752
vn 0.7249 -0.1710 -0.6673
vn 0.1839 -0.9508 0.2493
vn 0.1953 -0.9791 -0.0574
vn -0.1157 -0.9911 -0.0664
vn 0.0286 -0.9508 0.3085
vn 0.2532 -0.9624 0.0985
vn 0.0422 -0.9911 -0.1265
vn -0.1840 -0.9791 0.0871
vn -0.6768 0.1295 -0.7247
vn 0.5077 0.7024 0.4989
vn -0.0305 0.0892 0.9955
vn 0.9822 -0.1826 0.0436
vn 0.0290 -0.0403 -0.9988
vn -0.7205 0.2175 0.6584
vn 0.6817 -0.0776 0.7275
vn 0.6828 -0.0843 0.7258
vn 0.6581 -0.4511 -0.6028
vn -0.6779 0.1401 -0.7217
vn -0.0306 0.2942 0.9553
vn 0.9224 -0.3842 0.0389
vn 0.0303 -0.2631 -0.9643
vn -0.6487 0.4770 0.5931
vn -0.0000 -1.0000 -0.0000
vn 0.5536 0.5785 -0.5990
vn -0.0471 0.7024 0.7102
vn -0.5917 0.6513 0.4750
vn 0.0030 0.5264 -0.8502
vn 0.6364 0.4122 0.6520
vn -0.5679 0.5264 -0.6328
vn -0.6788 0.1068 -0.7265
vn -0.0355 0.2163 0.9757
vn 0.9829 0.1838 0.0119
vn 0.7578 0.6513 -0.0390
vn -0.9023 0.4293 -0.0400
vn -0.8119 0.5784 -0.0789
vn -0.7017 0.7070 -0.0878
vn -0.7259 0.1838 0.6628
vn -0.9895 0.1384 -0.0426
vn 0.0234 0.1067 -0.9940
vn 0.6756 0.2163 0.7048
vn -0.0062 0.6783 -0.7348
vn -0.0478 0.7807 0.6231
vn 0.6601 0.7494 -0.0512
vn -0.4842 0.6783 -0.5526
vn -0.5269 0.7494 0.4009
vn 0.4655 0.7071 -0.5324
vn 0.4503 0.7807 0.4334
vn -0.9716 0.2320 -0.0474
vn 0.0087 0.4216 -0.9068
vn -0.9050 0.4202 -0.0667
vn -0.6869 0.4163 0.5957
vn 0.9092 0.4163 -0.0122
vn -0.0413 0.4121 0.9102
vn -0.6097 0.4216 -0.6712
vn 0.6313 0.4201 -0.6519
vn 0.3816 -0.0225 -0.9240
vn 0.9221 -0.0541 -0.3831
vn 0.9221 -0.0541 0.3831
vn 0.3816 -0.0225 0.9241
vn -0.3816 0.0224 0.9241
vn -0.9221 0.0542 0.3831
vn 0.3920 0.1384 0.9095
vn -0.9221 0.0542 -0.3831
vn -0.3816 0.0224 -0.9240
vn 0.2941 -0.9421 0.1613
vn -0.1822 -0.9624 -0.2016
vn -0.4812 -0.8615 0.1623
vn 0.0680 -0.9183 0.3900
vn -0.4812 -0.8615 -0.1623
vn 0.2941 -0.9421 -0.1613
vn -0.2530 -0.8849 0.3910
vn -0.2530 -0.8849 -0.3910
vn 0.0680 -0.9183 -0.3900
vn 0.3874 0.0622 0.9198
vn -0.2985 -0.9508 0.0831
vn -0.0159 -0.9791 0.2030
vn 0.1032 -0.9911 -0.0845
vn -0.2985 -0.9508 -0.0831
vn -0.1822 -0.9624 0.2016
vn 0.1032 -0.9911 0.0845
vn -0.0159 -0.9791 -0.2030
vn 0.9197 0.1141 -0.3758
vn -0.6469 0.7024 0.2969
vn -0.9232 -0.0633 -0.3790
vn -0.3845 -0.0121 0.9231
vn 0.9197 0.1141 0.3757
vn -0.3846 -0.0121 -0.9230
vn -0.9232 -0.0633 0.3790
vn -0.9018 -0.2238 0.3697
vn 0.3636 0.3955 0.8435
vn 0.8872 0.2851 -0.3629
vn -0.8521 -0.3918 -0.3469
vn -0.3772 0.1203 0.9183
vn 0.8271 0.4507 0.3359
vn -0.3693 -0.3469 -0.8621
vn 0.3627 0.5785 0.7306
vn -0.6469 0.7024 -0.2968
vn -0.2333 0.6514 -0.7220
vn 0.7935 0.5263 0.3054
vn -0.8359 0.4121 0.3626
vn 0.7935 0.5264 -0.3054
vn 0.9206 0.1068 -0.3757
vn -0.8991 0.2163 -0.3805
vn -0.3610 0.1838 0.9143
vn -0.2333 0.6513 0.7220
vn 0.3802 -0.0721 -0.9221
vn 0.3627 0.5785 -0.7306
vn 0.3318 0.7070 -0.6245
vn -0.3610 0.1838 -0.9143
vn 0.3920 0.1384 -0.9095
vn 0.9206 0.1068 0.3757
vn -0.8991 0.2163 0.3805
vn 0.6888 0.6783 0.2558
vn -0.5653 0.7807 -0.2664
vn -0.1872 0.7494 0.6351
vn 0.6888 0.6783 -0.2558
vn -0.1872 0.7494 -0.6351
vn 0.3318 0.7070 0.6245
vn -0.5653 0.7807 0.2664
vn 0.3875 0.0622 -0.9198
vn 0.8443 0.4215 0.3308
vn 0.3845 0.4201 -0.8220
vn -0.3122 0.4163 -0.8540
vn -0.3122 0.4163 0.8540
vn -0.8359 0.4121 -0.3626
vn 0.8443 0.4215 -0.3308
vn 0.3845 0.4201 0.8220
vn 0.5189 -0.0224 0.8546
vn -0.2371 -0.0542 0.9700
vn -0.8546 -0.0543 0.5164
vn -0.9706 -0.0228 -0.2395
vn -0.5188 0.0224 -0.8546
vn 0.2371 0.0541 -0.9700
vn -0.9651 0.1384 -0.2224
vn 0.8546 0.0541 -0.5164
vn 0.9707 0.0222 0.2395
vn -0.3041 -0.9421 0.1416
vn 0.2703 -0.9624 -0.0276
vn 0.1540 -0.8615 -0.4838
vn -0.3546 -0.9183 -0.1760
vn 0.4156 -0.8615 -0.2917
vn -0.0441 -0.9420 0.3326
vn -0.1653 -0.8849 -0.4354
vn 0.4649 -0.8849 0.0276
vn 0.2740 -0.9183 0.2857
vn -0.9671 0.1144 -0.2271
vn 0.1097 -0.9508 -0.2897
vn -0.1542 -0.9791 -0.1329
vn 0.0070 -0.9911 0.1332
vn 0.2437 -0.9508 -0.1914
vn -0.0546 -0.9624 -0.2662
vn -0.1292 -0.9911 0.0332
vn 0.1730 -0.9791 0.1074
vn -0.2394 -0.0060 0.9709
vn 0.1437 0.7024 -0.6971
vn 0.8545 -0.0141 -0.5193
vn -0.5214 0.1106 -0.8461
vn -0.8517 0.0666 0.5198
vn 0.9707 -0.0621 0.2321
vn 0.2375 0.0571 -0.9697
vn 0.2066 0.4604 -0.8633
vn -0.9011 0.3803 -0.2084
vn -0.2088 -0.4445 0.8711
vn 0.8511 0.1031 -0.5148
vn -0.4485 0.5438 -0.7093
vn -0.8539 -0.0585 0.5172
vn 0.9176 -0.3349 0.2141
vn -0.8035 0.5786 -0.1401
vn 0.6222 0.7024 -0.3456
vn 0.7200 0.6514 0.2394
vn -0.7159 0.5264 0.4587
vn 0.2026 0.4121 -0.8883
vn -0.2235 0.5264 0.8203
vn -0.2422 0.1067 0.9643
vn 0.8389 0.2163 -0.4994
vn -0.5231 0.1838 -0.8322
vn -0.4438 0.6514 -0.6154
vn 0.4548 -0.5234 0.7205
vn 0.3741 0.5785 0.7248
vn 0.3068 0.7071 0.6371
vn 0.9506 0.1838 0.2502
vn 0.5009 0.1384 0.8543
vn -0.8477 0.1067 0.5196
vn 0.2256 0.2163 -0.9499
vn -0.6139 0.6783 0.4037
vn 0.5494 0.7807 -0.2979
vn -0.4011 0.7494 -0.5268
vn -0.2015 0.6783 0.7066
vn 0.6227 0.7494 0.2251
vn -0.6997 0.7071 -0.1023
vn 0.1200 0.7806 -0.6134
vn 0.5202 -0.0597 0.8519
vn -0.7664 0.4216 0.4846
vn 0.4349 0.4201 0.7965
vn 0.8731 0.4162 0.2539
vn -0.5035 0.4162 -0.7571
vn 0.7871 0.4121 -0.4590
vn -0.2331 0.4215 0.8763
vn -0.8901 0.4201 -0.1767
usemtl AllColors_Material
f 1/1/1 2/2/1 3/3/1 4/4/1
f 4/4/2 3/3/2 5/5/2 6/6/2
f 6/6/3 5/5/3 7/7/3 8/8/3
f 8/8/4 7/7/4 9/9/4 10/10/4
f 10/10/5 9/9/5 11/11/5 12/12/5
f 12/12/6 11/11/6 13/13/6 14/14/6
f 15/15/7 16/16/7 17/17/7 18/18/7
f 14/14/8 13/13/8 19/19/8 20/20/8
f 20/20/9 19/19/9 2/2/9 1/1/9
f 6/21/10 8/22/10 21/23/10 22/24/10
f 23/25/11 24/26/11 25/27/11 26/28/11
f 12/29/12 14/30/12 27/31/12 28/32/12
f 8/22/13 10/33/13 29/34/13 21/23/13
f 14/30/14 20/35/14 23/25/14 27/31/14
f 4/36/15 6/21/15 22/24/15 30/37/15
f 10/33/16 12/29/16 28/32/16 29/34/16
f 20/35/17 1/38/17 24/26/17 23/25/17
f 1/38/18 4/36/18 30/37/18 24/26/18
f 31/39/19 32/40/19 33/41/19 34/42/19
f 28/32/20 27/31/20 35/43/20 36/44/20
f 21/23/21 29/34/21 31/39/21 34/42/21
f 30/37/22 22/24/22 37/45/22 38/46/22
f 27/31/23 23/25/23 26/28/23 35/43/23
f 29/34/24 28/32/24 36/44/24 31/39/24
f 22/24/25 21/23/25 34/42/25 37/45/25
f 24/26/26 30/37/26 38/46/26 25/27/26
f 37/45/27 39/47/27 40/48/27 38/46/27
f 13/13/28 11/11/28 41/49/28 42/50/28
f 26/28/29 43/51/29 44/52/29 35/43/29
f 36/44/30 45/53/30 32/40/30 31/39/30
f 34/42/31 33/41/31 39/47/31 37/45/31
f 25/27/32 46/54/32 43/51/32 26/28/32
f 35/43/33 44/52/33 45/53/33 36/44/33
f 45/53/34 44/52/34 47/55/34 48/56/34
f 33/41/35 32/40/35 49/57/35 50/58/35
f 40/48/36 39/47/36 51/59/36 52/60/36
f 44/52/37 43/51/37 53/61/37 47/55/37
f 32/40/38 45/53/38 48/56/38 49/57/38
f 39/47/39 33/41/39 50/58/39 51/59/39
f 43/51/40 46/54/40 54/62/40 53/61/40
f 54/62/41 55/63/41 47/55/41 53/61/41
f 9/9/42 7/7/42 56/64/42 57/65/42
f 19/19/43 13/13/43 42/50/43 58/66/43
f 2/2/44 19/19/44 58/66/44 59/67/44
f 7/7/45 5/5/45 60/68/45 56/64/45
f 42/50/46 41/49/46 61/69/46 62/70/46
f 5/5/47 3/3/47 63/71/47 60/68/47
f 64/72/48 65/73/48 66/74/48 67/75/48
f 68/76/49 62/70/49 69/77/49 70/78/49
f 61/69/50 15/15/50 18/18/50 71/79/50
f 11/11/51 9/9/51 57/65/51 41/49/51
f 46/54/52 40/48/52 52/60/52 54/62/52
f 3/3/53 2/2/53 59/67/53 63/71/53
f 66/74/54 72/80/54 73/81/54
f 74/82/55 68/76/55 70/78/55 72/80/55
f 65/73/56 74/82/56 72/80/56 66/74/56
f 16/16/57 64/72/57 67/75/57 17/17/57
f 62/70/58 61/69/58 71/79/58 69/77/58
f 17/17/59 67/75/59 73/81/59
f 70/78/60 69/77/60 73/81/60
f 71/79/61 18/18/61 73/81/61
f 67/75/62 66/74/62 73/81/62
f 72/80/63 70/78/63 73/81/63
f 18/18/64 17/17/64 73/81/64
f 69/77/65 71/79/65 73/81/65
f 49/57/41 55/63/41 51/59/41 50/58/41
f 47/55/41 55/63/41 49/57/41 48/56/41
f 51/59/41 55/63/41 54/62/41 52/60/41
f 38/46/66 40/48/66 46/54/66 25/27/66
f 56/64/67 60/68/67 64/72/67 16/16/67
f 63/71/68 59/67/68 74/82/68 65/73/68
f 59/67/69 58/66/69 68/76/69 74/82/69
f 41/49/70 57/65/70 15/15/70 61/69/70
f 58/66/71 42/50/71 62/70/71 68/76/71
f 60/68/72 63/71/72 65/73/72 64/72/72
f 57/65/73 56/64/73 16/16/73 15/15/73
f 75/83/74 76/84/74 77/85/74 78/86/74
f 78/86/75 77/85/75 79/87/75 80/88/75
f 80/88/76 79/87/76 81/89/76 82/90/76
f 82/90/77 81/89/77 83/91/77 84/92/77
f 84/92/78 83/91/78 85/93/78 86/94/78
f 86/94/79 85/93/79 87/95/79 88/96/79
f 89/97/80 90/98/80 91/99/80 92/100/80
f 88/96/81 87/95/81 93/101/81 94/102/81
f 94/102/82 93/101/82 76/84/82 75/83/82
f 80/103/83 82/104/83 95/105/83 96/106/83
f 97/107/84 98/108/84 99/109/84 100/110/84
f 86/111/85 88/112/85 101/113/85 102/114/85
f 82/104/86 84/115/86 103/116/86 95/105/86
f 88/112/87 94/117/87 97/107/87 101/113/87
f 78/118/88 80/103/88 96/106/88 104/119/88
f 84/115/89 86/111/89 102/114/89 103/116/89
f 94/117/90 75/120/90 98/108/90 97/107/90
f 75/120/91 78/118/91 104/119/91 98/108/91
f 105/121/92 106/122/92 107/123/92 108/124/92
f 102/114/93 101/113/93 109/125/93 110/126/93
f 95/105/94 103/116/94 105/121/94 108/124/94
f 104/119/95 96/106/95 111/127/95 112/128/95
f 101/113/96 97/107/96 100/110/96 109/125/96
f 103/116/97 102/114/97 110/126/97 105/121/97
f 96/106/98 95/105/98 108/124/98 111/127/98
f 98/108/99 104/119/99 112/128/99 99/109/99
f 111/127/100 113/129/100 114/130/100 112/128/100
f 87/95/101 85/93/101 115/131/101 116/132/101
f 100/110/102 117/133/102 118/134/102 109/125/102
f 110/126/103 119/135/103 106/122/103 105/121/103
f 108/124/104 107/123/104 113/129/104 111/127/104
f 99/109/105 120/136/105 117/133/105 100/110/105
f 109/125/106 118/134/106 119/135/106 110/126/106
f 119/135/107 118/134/107 121/137/107 122/138/107
f 107/123/108 106/122/108 123/139/108 124/140/108
f 114/130/109 113/129/109 125/141/109 126/142/109
f 118/134/110 117/133/110 127/143/110 121/137/110
f 106/122/111 119/135/111 122/138/111 123/139/111
f 113/129/112 107/123/112 124/140/112 125/141/112
f 117/133/113 120/136/113 128/144/113 127/143/113
f 128/144/41 129/145/41 121/137/41 127/143/41
f 83/91/114 81/89/114 130/146/114 131/147/114
f 93/101/115 87/95/115 116/132/115 132/148/115
f 76/84/116 93/101/116 132/148/116 133/149/116
f 81/89/117 79/87/117 134/150/117 130/146/117
f 116/132/118 115/131/118 135/151/118 136/152/118
f 79/87/119 77/85/119 137/153/119 134/150/119
f 138/154/120 139/155/120 140/156/120 141/157/120
f 142/158/121 136/152/121 143/159/121 144/160/121
f 135/151/122 89/97/122 92/100/122 145/161/122
f 85/93/123 83/91/123 131/147/123 115/131/123
f 120/136/124 114/130/124 126/142/124 128/144/124
f 77/85/125 76/84/125 133/149/125 137/153/125
f 140/156/126 146/162/126 147/163/126
f 148/164/127 142/158/127 144/160/127 146/162/127
f 139/155/128 148/164/128 146/162/128 140/156/128
f 90/98/129 138/154/129 141/157/129 91/99/129
f 136/152/130 135/151/130 145/161/130 143/159/130
f 91/99/131 141/157/131 147/163/131
f 144/160/132 143/159/132 147/163/132
f 145/161/133 92/100/133 147/163/133
f 141/157/134 140/156/134 147/163/134
f 146/162/135 144/160/135 147/163/135
f 92/100/136 91/99/136 147/163/136
f 143/159/137 145/161/137 147/163/137
f 123/139/41 129/145/41 125/141/41 124/140/41
f 121/137/41 129/145/41 123/139/41 122/138/41
f 125/141/41 129/145/41 128/144/41 126/142/41
f 112/128/138 114/130/138 120/136/138 99/109/138
f 130/146/139 134/150/139 138/154/139 90/98/139
f 137/153/140 133/149/140 148/164/140 139/155/140
f 133/149/141 132/148/141 142/158/141 148/164/141
f 115/131/142 131/147/142 89/97/142 135/151/142
f 132/148/143 116/132/143 136/152/143 142/158/143
f 134/150/144 137/153/144 139/155/144 138/154/144
f 131/147/145 130/146/145 90/98/145 89/97/145
f 149/165/146 150/166/146 151/167/146 152/168/146
f 152/168/147 151/167/147 153/169/147 154/170/147
f 154/170/148 153/169/148 155/171/148 156/172/148
f 156/172/149 155/171/149 157/173/149 158/174/149
f 158/174/150 157/173/150 159/175/150 160/176/150
f 160/176/151 159/175/151 161/177/151 162/178/151
f 163/179/152 164/180/152 165/181/152 166/182/152
f 162/178/153 161/177/153 167/183/153 168/184/153
f 168/184/154 167/183/154 150/166/154 149/165/154
f 154/185/155 156/186/155 169/187/155 170/188/155
f 171/189/156 172/190/156 173/191/156 174/192/156
f 160/193/157 162/194/157 175/195/157 176/196/157
f 156/186/158 158/197/158 177/198/158 169/187/158
f 162/194/159 168/199/159 171/189/159 175/195/159
f 152/200/160 154/185/160 170/188/160 178/201/160
f 158/197/161 160/193/161 176/196/161 177/198/161
f 168/199/162 149/202/162 172/190/162 171/189/162
f 149/202/163 152/200/163 178/201/163 172/190/163
f 179/203/164 180/204/164 181/205/164 182/206/164
f 176/196/165 175/195/165 183/207/165 184/208/165
f 169/187/166 177/198/166 179/203/166 182/206/166
f 178/201/167 170/188/167 185/209/167 186/210/167
f 175/195/168 171/189/168 174/192/168 183/207/168
f 177/198/169 176/196/169 184/208/169 179/203/169
f 170/188/170 169/187/170 182/206/170 185/209/170
f 172/190/171 178/201/171 186/210/171 173/191/171
f 185/209/172 187/211/172 188/212/172 186/210/172
f 161/177/173 159/175/173 189/213/173 190/214/173
f 174/192/174 191/215/174 192/216/174 183/207/174
f 184/208/175 193/217/175 180/204/175 179/203/175
f 182/206/176 181/205/176 187/211/176 185/209/176
f 173/191/177 194/218/177 191/215/177 174/192/177
f 183/207/178 192/216/178 193/217/178 184/208/178
f 193/217/179 192/216/179 195/219/179 196/220/179
f 181/205/180 180/204/180 197/221/180 198/222/180
f 188/212/181 187/211/181 199/223/181 200/224/181
f 192/216/182 191/215/182 201/225/182 195/219/182
f 180/204/183 193/217/183 196/220/183 197/221/183
f 187/211/184 181/205/184 198/222/184 199/223/184
f 191/215/185 194/218/185 202/226/185 201/225/185
f 202/226/41 203/227/41 195/219/41 201/225/41
f 157/173/186 155/171/186 204/228/186 205/229/186
f 167/183/187 161/177/187 190/214/187 206/230/187
f 150/166/188 167/183/188 206/230/188 207/231/188
f 155/171/189 153/169/189 208/232/189 204/228/189
f 190/214/190 189/213/190 209/233/190 210/234/190
f 153/169/191 151/167/191 211/235/191 208/232/191
f 212/236/192 213/237/192 214/238/192 215/239/192
f 216/240/193 210/234/193 217/241/193 218/242/193
f 209/233/194 163/179/194 166/182/194 219/243/194
f 159/175/195 157/173/195 205/229/195 189/213/195
f 194/218/196 188/212/196 200/224/196 202/226/196
f 151/167/197 150/166/197 207/231/197 211/235/197
f 214/238/198 220/244/198 221/245/198
f 222/246/199 216/240/199 218/242/199 220/244/199
f 213/237/200 222/246/200 220/244/200 214/238/200
f 164/180/201 212/236/201 215/239/201 165/181/201
f 210/234/202 209/233/202 219/243/202 217/241/202
f 165/181/203 215/239/203 221/245/203
f 218/242/204 217/241/204 221/245/204
f 219/243/205 166/182/205 221/245/205
f 215/239/206 214/238/206 221/245/206
f 220/244/207 218/242/207 221/245/207
f 166/182/208 165/181/208 221/245/208
f 217/241/209 219/243/209 221/245/209
f 197/221/41 203/227/41 199/223/41 198/222/41
f 195/219/41 203/227/41 197/221/41 196/220/41
f 199/223/41 203/227/41 202/226/41 200/224/41
f 186/210/210 188/212/210 194/218/210 173/191/210
f 204/228/211 208/232/211 212/236/211 164/180/211
f 211/235/212 207/231/212 222/246/212 213/237/212
f 207/231/213 206/230/213 216/240/213 222/246/213
f 189/213/214 205/229/214 163/179/214 209/233/214
f 206/230/215 190/214/215 210/234/215 216/240/215
f 208/232/216 211/235/216 213/237/216 212/236/216
f 205/229/217 204/228/217 164/180/217 163/179/217
