mtllib forest_nature_set_all_in.mtl
o forest_Stump_average_flat_Cube_013
v -25.405903 0.017424 0.445833
v -25.302534 0.305998 0.433721
v -25.185932 0.311666 0.010998
v -25.524841 0.000000 -0.412389
v -24.067484 0.000000 -0.714473
v -24.147470 0.407201 -0.097437
v -23.845911 0.390443 0.056176
v -23.738522 0.000000 -0.045610
v -23.520918 0.010338 0.889264
v -23.595657 0.364294 0.868642
v -23.707726 0.402262 1.239470
v -23.215702 0.000000 1.682037
v -24.863026 0.000000 2.114678
v -24.756668 0.268684 1.678703
v -25.206810 0.307909 1.451803
v -25.310547 0.000000 1.481910
v -24.159231 0.000000 1.004520
v -24.198935 0.003561 1.619513
v -24.639482 0.411715 0.057752
v -24.557850 0.641778 0.162609
v -24.169683 0.641778 0.040583
v -23.735796 0.641778 0.838764
v -23.807144 0.641778 1.150731
v -24.262403 0.333902 1.527389
v -24.273706 0.641778 1.350518
v -25.903475 0.000000 1.550141
v -24.672745 0.000000 1.061406
v -24.680355 0.007506 -0.032332
v -24.042826 0.000000 0.433575
v -24.563465 0.000000 0.515996
v -23.715853 0.354816 0.363095
v -23.836607 0.641778 0.435246
v -24.651421 0.641778 1.425647
v -25.010216 0.641778 1.268715
v -25.002298 0.641778 0.190844
v -25.291607 0.408049 0.880004
v -25.123167 0.641778 0.854695
v -25.122334 0.641778 0.474942
v -23.926344 0.641778 0.175914
v -22.904716 0.000000 0.383859
v -24.607925 0.910293 1.341016
v -24.917528 0.910293 1.209636
v -23.891283 0.910293 0.463850
v -23.802277 0.910293 0.820112
v -23.865269 0.910293 1.095545
v -24.277193 0.910293 1.271936
v -23.970510 0.910293 0.234887
v -24.486771 0.910293 0.213613
v -24.176945 0.910293 0.113464
v -25.007130 0.910293 0.849247
v -24.969164 0.910293 0.500598
v -24.850533 0.910293 0.237822
v -24.887693 0.910293 0.522517
v -24.786209 0.910293 0.300471
v -24.184929 0.910293 0.188653
v -24.027309 0.910293 0.281390
v -23.873098 0.910293 0.820820
v -23.924603 0.910293 1.046022
v -24.601627 0.910293 1.269693
v -24.855551 0.910293 1.161891
v -24.463646 0.910293 0.279539
v -24.298203 0.910293 1.206001
v -24.931583 0.910293 0.852290
v -23.957373 0.910293 0.483498
v -24.382593 0.885031 0.734413
v -24.514299 0.898785 0.438646
v -24.364895 0.922710 1.043947
vt 0.535631 0.521699
vt 0.533175 0.620893
vt 0.537134 0.621597
vt 0.524359 0.519389
vt 0.558084 0.519388
vt 0.554495 0.633487
vt 0.560208 0.631401
vt 0.565350 0.519389
vt 0.566206 0.520760
vt 0.565151 0.628147
vt 0.562937 0.632872
vt 0.570855 0.519389
vt 0.541586 0.519389
vt 0.542242 0.616250
vt 0.533842 0.621131
vt 0.530415 0.519389
vt 0.554374 0.519389
vt 0.553707 0.519860
vt 0.546773 0.634047
vt 0.547757 0.731176
vt 0.553657 0.731176
vt 0.561348 0.731176
vt 0.560055 0.731176
vt 0.551980 0.624365
vt 0.551598 0.731177
vt 0.515848 0.519389
vt 0.543561 0.519389
vt 0.545546 0.520384
vt 0.556825 0.519389
vt 0.545862 0.519389
vt 0.562777 0.626968
vt 0.559521 0.731176
vt 0.544845 0.731177
vt 0.538798 0.731177
vt 0.541088 0.731176
vt 0.532841 0.633592
vt 0.537122 0.731176
vt 0.538345 0.731176
vt 0.557894 0.731176
vt 0.584431 0.519389
vt 0.543749 0.949102
vt 0.539258 0.949102
vt 0.554645 0.949102
vt 0.556002 0.949102
vt 0.555041 0.949102
vt 0.548762 0.949102
vt 0.553437 0.949102
vt 0.545911 0.949102
vt 0.550291 0.949102
vt 0.538014 0.949102
vt 0.538923 0.949102
vt 0.540959 0.949102
vt 0.539935 0.949103
vt 0.541639 0.949102
vt 0.550169 0.949102
vt 0.552572 0.949103
vt 0.554922 0.949103
vt 0.554137 0.949104
vt 0.543838 0.949102
vt 0.540157 0.949102
vt 0.546107 0.949102
vt 0.548442 0.949102
vt 0.539084 0.949101
vt 0.553638 0.949103
vt 0.119449 0.336161
vt 0.115949 0.190246
vt 0.149138 0.248510
vt 0.141009 0.374174
vt 0.171406 0.440687
vt 0.161527 0.480027
vt 0.144826 0.442672
vt 0.181072 0.211856
vt 0.150247 0.117203
vt 0.154427 0.048458
vt 0.177844 0.116323
vt 0.175790 0.354951
vt 0.126456 0.436036
vt 0.120362 0.061299
vt 0.135498 0.020839
vn -0.8037 0.5950 -0.0040
vn 0.6474 0.5885 -0.4843
vn 0.8332 0.5320 -0.1509
vn -0.5138 0.6447 0.5660
vn 0.0040 -1.0000 -0.0056
vn -0.2624 0.4732 -0.8410
vn 0.8683 0.4501 0.2082
vn 0.3559 0.4653 0.8105
vn 0.0000 -1.0000 0.0000
vn 0.0043 -1.0000 0.0027
vn 0.0867 0.6294 0.7723
vn 0.3617 0.6018 0.7120
vn 0.2213 0.4881 -0.8442
vn -0.4982 0.5559 -0.6654
vn -0.0091 -1.0000 -0.0037
vn -0.0081 -0.9999 0.0084
vn -0.0114 -0.9998 -0.0147
vn 0.8795 0.4229 -0.2182
vn -0.3216 0.5928 0.7383
vn -0.0303 0.4642 -0.8852
vn -0.8510 0.5224 -0.0541
vn 0.8519 0.4267 -0.3038
vn -0.7831 0.5831 0.2163
vn 0.0072 -0.9999 0.0145
vn 0.4759 0.6509 -0.5915
vn 0.5926 0.7568 0.2759
vn -0.2780 0.7991 0.5330
vn -0.7932 0.5416 -0.2785
vn -0.3743 0.3271 0.8677
vn 0.9468 0.2180 -0.2366
vn 0.3796 0.2644 0.8866
vn 0.9442 0.2488 0.2159
vn 0.9215 0.2216 -0.3189
vn -0.2938 0.2479 -0.9232
vn 0.4797 0.2523 -0.8404
vn -0.8922 0.4491 -0.0475
vn -0.0634 0.2045 -0.9768
vn 0.4194 0.4930 -0.7623
vn -0.8062 0.5287 -0.2657
vn 0.1809 0.5071 0.8427
vn -0.8963 0.3765 0.2344
vn -0.7947 0.4982 -0.3468
vn 0.1919 0.2723 0.9429
vn 0.0000 1.0000 -0.0000
vn 0.0433 0.9989 0.0159
vn -0.0002 0.9990 0.0457
vn 0.0280 0.9991 0.0309
vn -0.0407 0.9978 -0.0517
vn 0.0224 0.9990 0.0391
vn -0.0040 0.9987 0.0507
vn -0.0236 0.9990 0.0372
vn -0.0014 0.9982 -0.0605
usemtl AllColors_Material
f 1/1/1 2/2/1 3/3/1 4/4/1
f 5/5/2 6/6/2 7/7/2 8/8/2
f 9/9/3 10/10/3 11/11/3 12/12/3
f 13/13/4 14/14/4 15/15/4 16/16/4
f 17/17/5 9/9/5 12/12/5 18/18/5
f 6/6/6 19/19/6 20/20/6 21/21/6
f 11/11/7 10/10/7 22/22/7 23/23/7
f 24/24/8 11/11/8 23/23/8 25/25/8
f 26/26/9 27/27/9 13/13/9 16/16/9
f 27/27/10 17/17/10 18/18/10 13/13/10
f 12/12/11 11/11/11 24/24/11 18/18/11
f 18/18/12 24/24/12 14/14/12 13/13/12
f 4/4/13 3/3/13 19/19/13 28/28/13
f 28/28/14 19/19/14 6/6/14 5/5/14
f 28/28/15 5/5/15 29/29/15 30/30/15
f 30/30/9 29/29/9 17/17/9 27/27/9
f 4/4/16 28/28/16 30/30/16 1/1/16
f 1/1/17 30/30/17 27/27/17 26/26/17
f 10/10/18 31/31/18 32/32/18 22/22/18
f 15/15/19 14/14/19 33/33/19 34/34/19
f 19/19/20 3/3/20 35/35/20 20/20/20
f 2/2/21 36/36/21 37/37/21 38/38/21
f 31/31/22 7/7/22 39/39/22 32/32/22
f 36/36/23 15/15/23 34/34/23 37/37/23
f 5/5/9 8/8/9 40/40/9 29/29/9
f 29/29/24 40/40/24 9/9/24 17/17/24
f 8/8/25 7/7/25 31/31/25 40/40/25
f 40/40/26 31/31/26 10/10/26 9/9/26
f 16/16/27 15/15/27 36/36/27 26/26/27
f 26/26/28 36/36/28 2/2/28 1/1/28
f 34/34/29 33/33/29 41/41/29 42/42/29
f 22/22/30 32/32/30 43/43/30 44/44/30
f 25/25/31 23/23/31 45/45/31 46/46/31
f 23/23/32 22/22/32 44/44/32 45/45/32
f 32/32/33 39/39/33 47/47/33 43/43/33
f 21/21/34 20/20/34 48/48/34 49/49/34
f 39/39/35 21/21/35 49/49/35 47/47/35
f 38/38/36 37/37/36 50/50/36 51/51/36
f 20/20/37 35/35/37 52/52/37 48/48/37
f 7/7/38 6/6/38 21/21/38 39/39/38
f 3/3/39 2/2/39 38/38/39 35/35/39
f 14/14/40 24/24/40 25/25/40 33/33/40
f 37/37/41 34/34/41 42/42/41 50/50/41
f 35/35/42 38/38/42 51/51/42 52/52/42
f 33/33/43 25/25/43 46/46/43 41/41/43
f 53/53/44 54/54/44 52/52/44 51/51/44
f 55/55/44 56/56/44 47/47/44 49/49/44
f 57/57/44 58/58/44 45/45/44 44/44/44
f 59/59/44 60/60/44 42/42/44 41/41/44
f 54/54/44 61/61/44 48/48/44 52/52/44
f 61/61/44 55/55/44 49/49/44 48/48/44
f 58/58/44 62/62/44 46/46/44 45/45/44
f 62/62/44 59/59/44 41/41/44 46/46/44
f 60/60/44 63/63/44 50/50/44 42/42/44
f 63/63/44 53/53/44 51/51/44 50/50/44
f 56/56/44 64/64/44 43/43/44 47/47/44
f 64/64/44 57/57/44 44/44/44 43/43/44
f 53/65/45 63/66/45 65/67/45 66/68/45
f 56/69/46 55/70/46 61/71/46 66/68/46
f 57/72/47 67/73/47 62/74/47 58/75/47
f 64/76/48 65/67/48 67/73/48 57/72/48
f 66/68/49 61/71/49 54/77/49 53/65/49
f 62/74/50 67/73/50 60/78/50 59/79/50
f 66/68/51 65/67/51 64/76/51 56/69/51
f 67/73/52 65/67/52 63/66/52 60/78/52
