mtllib forest_nature_set_all_in.mtl
o forest_Stump_average_hollow_Cube_016
v -18.744213 0.017424 0.445833
v -18.640844 0.305998 0.433721
v -18.524242 0.311666 0.010998
v -18.863152 0.000000 -0.412389
v -17.405794 0.000000 -0.714473
v -17.485781 0.407201 -0.097437
v -17.184221 0.390443 0.056176
v -17.076832 0.000000 -0.045610
v -16.859228 0.010338 0.889264
v -16.933968 0.364294 0.868642
v -17.046036 0.402262 1.239470
v -16.554012 0.000000 1.682037
v -18.201336 0.000000 2.114678
v -18.094978 0.268684 1.678703
v -18.545120 0.307909 1.451803
v -18.648857 0.000000 1.481910
v -17.497541 0.000000 1.004520
v -17.537245 0.003561 1.619513
v -17.977793 0.411715 0.057752
v -17.896160 0.641778 0.162609
v -17.507994 0.641778 0.040583
v -17.074106 0.641778 0.838764
v -17.145454 0.641778 1.150731
v -17.600714 0.333902 1.527389
v -17.612017 0.641778 1.350518
v -19.241785 0.000000 1.550141
v -18.011055 0.000000 1.061406
v -18.018665 0.007506 -0.032332
v -17.381136 0.000000 0.433575
v -17.901775 0.000000 0.515996
v -17.054163 0.354816 0.363095
v -17.174917 0.641778 0.435246
v -17.989731 0.641778 1.425647
v -18.348526 0.641778 1.268715
v -18.340609 0.641778 0.190844
v -18.629917 0.408049 0.880004
v -18.461477 0.641778 0.854695
v -18.460644 0.641778 0.474942
v -17.264654 0.641778 0.175914
v -16.243027 0.000000 0.383859
v -17.946236 1.083666 1.341016
v -18.255838 0.910293 1.209636
v -17.203579 0.910293 1.095545
v -17.615503 1.083666 1.271936
v -17.140587 0.910293 0.820112
v -17.199739 0.680007 0.448232
v -17.193096 0.910293 0.609936
v -17.825081 0.771775 0.213613
v -17.515255 0.960794 0.113464
v -17.308821 0.910293 0.234887
v -18.188843 0.953680 0.237822
v -18.441252 0.688579 0.853745
v -18.334917 0.910293 0.752622
v -18.307474 0.910293 0.500598
v -18.226004 0.910293 0.522517
v -18.124519 0.953680 0.300471
v -17.523239 0.960794 0.188653
v -17.365620 0.910293 0.281390
v -17.211409 0.910293 0.820820
v -17.262913 0.910293 1.046022
v -17.939938 1.083666 1.269693
v -18.193861 0.910293 1.161891
v -17.801956 0.771775 0.279539
v -17.636513 1.083666 1.206001
v -18.257046 0.910293 0.755759
v -18.319534 0.682491 0.862099
v -18.329765 0.635540 0.864120
v -18.280903 0.635540 0.496981
v -18.245823 0.910293 0.950308
v -18.321068 0.910293 0.947277
v -17.259186 0.910293 0.629585
v -17.268637 0.679509 0.467459
v -17.245167 0.635540 0.453541
v -17.151344 0.635540 0.829085
v -17.344923 0.910293 0.341200
v -17.278833 0.910293 0.321551
v -17.208685 0.635540 1.079803
v -17.624617 0.635540 1.257910
v -17.808805 0.635540 0.226471
v -17.498508 0.635540 0.125287
v -17.323029 0.635540 0.228532
v -18.167917 0.635540 0.249775
v -17.070263 0.299362 1.170199
v -17.593414 0.299362 1.394218
v -18.480339 0.299362 0.898916
v -18.418880 0.299362 0.437134
v -16.998140 0.299362 0.854849
v -17.825085 0.299362 0.096891
v -17.434797 0.299362 -0.030377
v -18.245117 0.635540 1.208802
v -18.373869 0.299362 1.332450
v -17.214081 0.299362 0.099483
v -17.116150 0.299362 0.382496
v -18.276770 0.299362 0.126203
v -17.962421 0.635540 1.328818
v -18.493807 0.067724 0.899163
v -18.431273 0.067724 0.429296
v -16.985657 0.067724 0.854324
v -17.059042 0.067724 1.175195
v -17.827080 0.067724 0.083096
v -17.429958 0.067724 -0.046400
v -18.385473 0.067724 1.340288
v -17.205378 0.067724 0.085733
v -17.105732 0.067724 0.373701
v -18.286673 0.067724 0.112921
v -18.018301 0.299362 1.483405
v -17.591352 0.067724 1.403137
v -18.023678 0.067724 1.493886
v -17.702667 0.352621 0.613375
v -17.965311 0.213856 0.441913
v -17.638172 0.246583 0.981204
vt 0.532695 0.523966
vt 0.534729 0.647741
vt 0.537023 0.650172
vt 0.530355 0.516495
vt 0.559031 0.516495
vt 0.557457 0.691149
vt 0.563391 0.683960
vt 0.565504 0.516495
vt 0.569785 0.520928
vt 0.568315 0.672744
vt 0.566110 0.689029
vt 0.575791 0.516495
vt 0.543377 0.516495
vt 0.545470 0.631736
vt 0.536613 0.648560
vt 0.534571 0.516495
vt 0.557225 0.516495
vt 0.556444 0.518021
vt 0.547776 0.693083
vt 0.549382 0.791760
vt 0.557020 0.791760
vt 0.565557 0.791760
vt 0.564153 0.791760
vt 0.555195 0.659709
vt 0.554973 0.791760
vt 0.522905 0.516495
vt 0.547121 0.516495
vt 0.546971 0.519713
vt 0.559516 0.516495
vt 0.549272 0.516495
vt 0.565950 0.668679
vt 0.563574 0.791760
vt 0.547541 0.791760
vt 0.540481 0.791760
vt 0.540637 0.791760
vt 0.534944 0.691512
vt 0.538258 0.791760
vt 0.538275 0.791760
vt 0.561808 0.791760
vt 0.581910 0.516495
vt 0.548397 0.981293
vt 0.542305 0.906930
vt 0.563010 0.906930
vt 0.554904 0.981293
vt 0.564249 0.906930
vt 0.563085 0.808158
vt 0.563216 0.906930
vt 0.550781 0.847519
vt 0.556877 0.928591
vt 0.560939 0.906930
vt 0.543623 0.925540
vt 0.538656 0.811834
vt 0.540749 0.906930
vt 0.541289 0.906930
vt 0.542892 0.906930
vt 0.544889 0.925540
vt 0.556720 0.928591
vt 0.559821 0.906930
vt 0.562856 0.906930
vt 0.561842 0.906930
vt 0.548521 0.981293
vt 0.543524 0.906930
vt 0.551236 0.847519
vt 0.554491 0.981293
vt 0.542281 0.906930
vt 0.541051 0.809224
vt 0.540850 0.789085
vt 0.541811 0.789085
vt 0.542502 0.906930
vt 0.541021 0.906930
vt 0.561916 0.906930
vt 0.561730 0.807944
vt 0.562191 0.789085
vt 0.564038 0.789085
vt 0.560229 0.906930
vt 0.561529 0.906930
vt 0.562909 0.789085
vt 0.554725 0.789085
vt 0.551101 0.789085
vt 0.557206 0.789085
vt 0.560659 0.789085
vt 0.544035 0.789085
vt 0.565633 0.644895
vt 0.555339 0.644895
vt 0.537887 0.644895
vt 0.539097 0.644895
vt 0.567052 0.644895
vt 0.550781 0.644895
vt 0.558460 0.644895
vt 0.542516 0.789085
vt 0.539982 0.644895
vt 0.562803 0.644895
vt 0.564730 0.644895
vt 0.541893 0.644895
vt 0.548078 0.789085
vt 0.537622 0.545542
vt 0.538853 0.545542
vt 0.567298 0.545542
vt 0.565854 0.545542
vt 0.550741 0.545542
vt 0.558555 0.545542
vt 0.539754 0.545542
vt 0.562974 0.545542
vt 0.564935 0.545542
vt 0.541698 0.545542
vt 0.546979 0.644895
vt 0.555380 0.545542
vt 0.546873 0.545542
vt 0.115799 0.324165
vt 0.111697 0.181005
vt 0.150597 0.238169
vt 0.141068 0.361460
vt 0.176697 0.426718
vt 0.165117 0.465315
vt 0.145542 0.428665
vt 0.188025 0.202206
vt 0.151897 0.109340
vt 0.156796 0.041893
vt 0.184242 0.108477
vt 0.181834 0.342601
vt 0.124012 0.422155
vt 0.116869 0.054492
vt 0.134610 0.014796
vn -0.8037 0.5950 -0.0040
vn 0.6474 0.5885 -0.4843
vn 0.8332 0.5320 -0.1509
vn -0.5138 0.6447 0.5660
vn 0.0040 -1.0000 -0.0056
vn -0.2624 0.4732 -0.8410
vn 0.8683 0.4501 0.2082
vn 0.3559 0.4653 0.8105
vn 0.0000 -1.0000 0.0000
vn 0.0043 -1.0000 0.0027
vn 0.0867 0.6294 0.7723
vn 0.3617 0.6018 0.7120
vn 0.2213 0.4881 -0.8442
vn -0.4982 0.5559 -0.6654
vn -0.0091 -1.0000 -0.0037
vn -0.0081 -0.9999 0.0084
vn -0.0114 -0.9998 -0.0147
vn 0.8795 0.4229 -0.2182
vn -0.3216 0.5928 0.7383
vn -0.0303 0.4643 -0.8852
vn -0.8510 0.5224 -0.0541
vn 0.8518 0.4267 -0.3038
vn -0.7831 0.5831 0.2163
vn 0.0072 -0.9999 0.0145
vn 0.4759 0.6509 -0.5915
vn 0.5926 0.7568 0.2759
vn -0.2780 0.7991 0.5330
vn -0.7932 0.5416 -0.2785
vn -0.4383 0.2582 0.8609
vn 0.4190 0.2030 0.8850
vn 0.9442 0.2488 0.2159
vn 0.9360 0.2343 -0.2627
vn -0.3615 0.2954 -0.8844
vn 0.5018 0.2310 -0.8336
vn -0.0131 0.2228 -0.9748
vn 0.4194 0.4930 -0.7623
vn -0.8062 0.5287 -0.2657
vn 0.1809 0.5071 0.8427
vn -0.8892 0.4556 -0.0413
vn -0.8213 0.4717 -0.3210
vn 0.1966 0.1694 0.9657
vn -0.0811 0.9869 0.1398
vn 0.2055 0.9725 0.1094
vn 0.0000 1.0000 0.0000
vn -0.4298 0.8686 -0.2465
vn 0.4325 0.8523 -0.2941
vn -0.5265 0.8483 0.0565
vn 0.3142 0.9238 -0.2186
vn 0.9700 -0.2058 0.1291
vn -0.9400 -0.2168 0.2634
vn -0.4162 -0.1445 -0.8977
vn -0.8966 0.3749 0.2359
vn -0.9521 -0.2147 -0.2177
vn 0.3643 -0.2145 0.9062
vn -0.5192 -0.2183 0.8263
vn 0.9306 0.2449 -0.2721
vn 0.0037 -0.2230 0.9748
vn -0.3643 -0.3788 -0.8508
vn 0.9105 -0.3953 0.1212
vn -0.8852 -0.4189 -0.2024
vn 0.2897 -0.3564 0.8883
vn 0.8824 -0.4176 -0.2167
vn -0.4544 -0.4438 0.7724
vn -0.8934 -0.3900 0.2232
vn 0.0604 -0.3615 0.9304
vn 0.4319 -0.1739 -0.8850
vn 0.8981 -0.1993 0.3920
vn -0.2040 -0.1180 -0.9718
vn 0.9896 -0.0574 0.1317
vn -0.9735 -0.0520 -0.2226
vn 0.3095 -0.0592 0.9491
vn 0.9696 -0.0566 -0.2381
vn -0.5059 -0.0700 0.8598
vn -0.9688 -0.0528 0.2420
vn 0.0646 -0.0599 0.9961
vn -0.2053 -0.0395 -0.9779
vn 0.3512 -0.4387 -0.8272
vn -0.8676 -0.3964 0.3002
vn 0.8302 -0.4083 0.3795
vn -0.1897 -0.3840 -0.9036
vn -0.3414 0.9350 -0.0958
vn 0.0012 0.9584 -0.2855
vn 0.2138 0.9480 0.2359
vn 0.3577 0.9330 0.0388
vn -0.1550 0.9501 -0.2706
vn -0.0247 0.9495 0.3127
vn 0.1261 0.9177 -0.3766
vn -0.2174 0.9608 0.1724
vn -0.3933 -0.0389 -0.9186
vn 0.3903 -0.0507 -0.9193
vn -0.9436 -0.0548 0.3265
vn 0.9077 -0.0626 0.4149
vn -0.9354 -0.2297 0.2689
vn 0.9481 -0.2166 -0.2328
vn -0.0388 0.4307 0.9017
vn 0.0648 0.3499 -0.9345
vn 0.2334 0.5270 0.8172
vn -0.2303 0.5647 -0.7925
usemtl AllColors_Material
f 1/1/1 2/2/1 3/3/1 4/4/1
f 5/5/2 6/6/2 7/7/2 8/8/2
f 9/9/3 10/10/3 11/11/3 12/12/3
f 13/13/4 14/14/4 15/15/4 16/16/4
f 17/17/5 9/9/5 12/12/5 18/18/5
f 6/6/6 19/19/6 20/20/6 21/21/6
f 11/11/7 10/10/7 22/22/7 23/23/7
f 24/24/8 11/11/8 23/23/8 25/25/8
f 26/26/9 27/27/9 13/13/9 16/16/9
f 27/27/10 17/17/10 18/18/10 13/13/10
f 12/12/11 11/11/11 24/24/11 18/18/11
f 18/18/12 24/24/12 14/14/12 13/13/12
f 4/4/13 3/3/13 19/19/13 28/28/13
f 28/28/14 19/19/14 6/6/14 5/5/14
f 28/28/15 5/5/15 29/29/15 30/30/15
f 30/30/9 29/29/9 17/17/9 27/27/9
f 4/4/16 28/28/16 30/30/16 1/1/16
f 1/1/17 30/30/17 27/27/17 26/26/17
f 10/10/18 31/31/18 32/32/18 22/22/18
f 15/15/19 14/14/19 33/33/19 34/34/19
f 19/19/20 3/3/20 35/35/20 20/20/20
f 2/2/21 36/36/21 37/37/21 38/38/21
f 31/31/22 7/7/22 39/39/22 32/32/22
f 36/36/23 15/15/23 34/34/23 37/37/23
f 5/5/9 8/8/9 40/40/9 29/29/9
f 29/29/24 40/40/24 9/9/24 17/17/24
f 8/8/25 7/7/25 31/31/25 40/40/25
f 40/40/26 31/31/26 10/10/26 9/9/26
f 16/16/27 15/15/27 36/36/27 26/26/27
f 26/26/28 36/36/28 2/2/28 1/1/28
f 34/34/29 33/33/29 41/41/29 42/42/29
f 25/25/30 23/23/30 43/43/30 44/44/30
f 23/23/31 22/22/31 45/45/31 43/43/31
f 22/22/32 32/32/32 46/46/32 47/47/32 45/45/32
f 21/21/33 20/20/33 48/48/33 49/49/33
f 39/39/34 21/21/34 49/49/34 50/50/34
f 20/20/35 35/35/35 51/51/35 48/48/35
f 7/7/36 6/6/36 21/21/36 39/39/36
f 3/3/37 2/2/37 38/38/37 35/35/37
f 14/14/38 24/24/38 25/25/38 33/33/38
f 38/38/39 37/37/39 52/52/39 53/53/39 54/54/39
f 35/35/40 38/38/40 54/54/40 51/51/40
f 33/33/41 25/25/41 44/44/41 41/41/41
f 55/55/42 56/56/42 51/51/42 54/54/42
f 57/57/43 58/58/43 50/50/43 49/49/43
f 59/59/44 60/60/44 43/43/44 45/45/44
f 61/61/45 62/62/45 42/42/45 41/41/45
f 56/56/46 63/63/46 48/48/46 51/51/46
f 63/63/47 57/57/47 49/49/47 48/48/47
f 60/60/48 64/64/48 44/44/48 43/43/48
f 64/64/44 61/61/44 41/41/44 44/44/44
f 55/55/49 65/65/49 66/66/49 67/67/49 68/68/49
f 62/62/44 69/69/44 70/70/44 42/42/44
f 59/59/50 71/71/50 72/72/50 73/73/50 74/74/50
f 58/58/44 75/75/44 76/76/44 50/50/44
f 64/64/51 60/60/51 77/77/51 78/78/51
f 37/37/52 34/34/52 42/42/52 70/70/52 52/52/52
f 60/60/53 59/59/53 74/74/53 77/77/53
f 57/57/54 63/63/54 79/79/54 80/80/54
f 65/65/44 55/55/44 54/54/44 53/53/44
f 58/58/55 57/57/55 80/80/55 81/81/55
f 32/32/56 39/39/56 50/50/56 76/76/56 46/46/56
f 63/63/57 56/56/57 82/82/57 79/79/57
f 78/78/58 77/77/58 83/83/58 84/84/58
f 68/68/59 67/67/59 85/85/59 86/86/59
f 77/77/60 74/74/60 87/87/60 83/83/60
f 80/80/61 79/79/61 88/88/61 89/89/61
f 67/67/62 90/90/62 91/91/62 85/85/62
f 81/81/63 80/80/63 89/89/63 92/92/63
f 74/74/64 73/73/64 93/93/64 87/87/64
f 79/79/65 82/82/65 94/94/65 88/88/65
f 62/62/66 61/61/66 95/95/66 90/90/66
f 71/71/44 59/59/44 45/45/44 47/47/44
f 56/56/67 55/55/67 68/68/67 82/82/67
f 61/61/68 64/64/68 78/78/68 95/95/68
f 86/86/69 85/85/69 96/96/69 97/97/69
f 83/83/70 87/87/70 98/98/70 99/99/70
f 89/89/71 88/88/71 100/100/71 101/101/71
f 85/85/72 91/91/72 102/102/72 96/96/72
f 92/92/73 89/89/73 101/101/73 103/103/73
f 87/87/74 93/93/74 104/104/74 98/98/74
f 88/88/75 94/94/75 105/105/75 100/100/75
f 106/106/76 84/84/76 107/107/76 108/108/76
f 90/90/77 95/95/77 106/106/77 91/91/77
f 73/73/78 81/81/78 92/92/78 93/93/78
f 82/82/79 68/68/79 86/86/79 94/94/79
f 95/95/80 78/78/80 84/84/80 106/106/80
f 97/109/81 96/110/81 109/111/81 110/112/81
f 103/113/82 101/114/82 100/115/82 110/112/82
f 98/116/83 111/117/83 107/118/83 99/119/83
f 104/120/84 109/111/84 111/117/84 98/116/84
f 110/112/85 100/115/85 105/121/85 97/109/85
f 107/118/86 111/117/86 102/122/86 108/123/86
f 110/112/87 109/111/87 104/120/87 103/113/87
f 111/117/88 109/111/88 96/110/88 102/122/88
f 84/84/89 83/83/89 99/99/89 107/107/89
f 91/91/90 106/106/90 108/108/90 102/102/90
f 93/93/91 92/92/91 103/103/91 104/104/91
f 94/94/92 86/86/92 97/97/92 105/105/92
f 72/72/93 75/75/93 58/58/93 81/81/93 73/73/93
f 66/66/94 69/69/94 62/62/94 90/90/94 67/67/94
f 66/66/95 65/65/95 53/53/95 52/52/95
f 52/52/96 70/70/96 69/69/96 66/66/96
f 46/46/97 76/76/97 75/75/97 72/72/97
f 72/72/98 71/71/98 47/47/98 46/46/98
