mtllib forest_nature_set_all_in.mtl
o forest_Bush_average_Plane_001
v 1.661213 -0.000818 11.893846
v 1.596680 -0.000818 11.663785
v 1.869763 -0.000818 11.612696
v 1.904718 -0.000818 11.842757
v 2.754628 -0.000818 12.086852
v 2.770761 -0.000818 11.848725
v 3.008889 -0.000818 11.875614
v 3.006200 -0.000818 12.132564
v 1.936772 -0.000818 13.070721
v 1.926016 -0.000818 12.851416
v 2.196410 -0.000818 12.883682
v 2.158766 -0.000818 13.097610
v 1.739275 0.340568 11.487675
v 1.587612 0.461342 11.468312
v 1.858431 0.862290 11.377182
v 1.949920 0.818728 11.380345
v 3.121354 0.356553 12.031287
v 3.095156 0.280241 11.792707
v 3.121416 0.428649 11.656447
v 3.136052 0.505777 11.839204
v 2.110134 0.320306 13.177328
v 2.099781 0.326747 12.932423
v 2.391785 0.814781 12.875298
v 2.417975 0.831846 12.998997
v 2.874378 0.266766 11.787157
v 2.887422 0.325187 12.036189
v 1.856768 0.300558 12.928680
v 1.801459 0.349742 11.693125
v 1.567682 0.270171 11.766527
v 1.861074 0.297935 13.147416
v 1.490573 0.259864 11.560087
v 1.664655 0.482942 11.667707
v 1.022114 1.153002 11.380936
v 1.058206 1.159253 11.486555
v 1.500057 0.369955 11.743739
v 1.408859 0.343875 11.544561
v 0.967112 1.094291 11.528612
v 0.919353 1.080230 11.425182
v 1.987130 0.828052 11.485349
v 1.901506 0.879739 11.478855
v 1.993325 0.488907 13.226215
v 2.012501 0.455484 13.049993
v 1.598899 1.200629 13.126384
v 1.568191 1.215088 13.225060
v 1.798615 0.470234 13.190983
v 1.797203 0.421476 13.027741
v 1.985189 0.895602 12.568614
v 1.953666 0.938176 12.655131
v 1.465493 1.193171 13.202405
v 1.473781 1.173974 13.099016
v 1.858745 0.862514 12.574183
v 1.828897 0.899698 12.646998
v 2.336792 0.872280 12.938235
v 2.336134 0.898795 13.028268
v 2.901477 0.407562 11.668168
v 3.109463 1.101380 11.254559
v 3.224077 1.111522 11.250736
v 2.904387 0.468485 11.865149
v 3.442158 1.253750 12.221880
v 3.447208 1.201416 12.337256
v 3.114771 1.140282 11.362287
v 3.236798 1.153852 11.365999
v 3.327275 1.181397 12.354687
v 3.324463 1.233345 12.250518
v 2.297491 0.002453 12.421804
v 2.114577 0.002453 12.290440
v 2.285262 0.002453 12.120412
v 2.484950 0.002453 12.238759
v 2.487642 0.379296 12.170622
v 2.293840 0.321721 12.123466
v 2.211061 0.481595 12.047230
v 2.341637 0.544227 12.177887
v 2.126957 0.287172 12.317845
v 2.316918 0.325727 12.400299
v 2.056680 0.438872 12.258377
v 1.751804 1.101380 12.192446
v 1.816213 1.111522 12.097565
v 2.187981 0.475750 12.348348
v 2.563441 1.253750 12.382362
v 2.659662 1.201416 12.446227
v 1.841995 1.140282 12.251599
v 1.916859 1.153852 12.155164
v 2.603118 1.181397 12.553422
v 2.517273 1.233345 12.494348
v 3.289465 1.127406 11.426887
v 2.898469 0.657771 11.459754
v 2.696610 0.784935 10.924711
v 1.011376 1.602161 10.623782
v 1.683264 0.811247 11.026537
v 0.688615 0.880835 11.211042
v 1.162382 0.814433 11.823352
v 0.051177 1.406299 11.823927
v 3.227523 0.960270 12.276426
v 4.011852 1.057801 12.137589
v 3.720547 1.119581 11.150950
v 3.634797 1.234833 12.721707
v 2.352186 0.929974 12.564485
v 2.314694 1.177011 12.126328
v 3.188833 0.582398 13.310935
v 0.253713 1.599932 10.830772
v 2.610327 1.196856 10.286071
v 2.829404 1.737980 10.366218
v 3.399940 1.554364 10.866369
v 1.855410 1.014036 10.469440
v 2.290298 1.334960 10.056828
v 1.733565 1.983106 10.600321
v 3.877229 1.672019 11.156852
v 4.056622 2.288615 10.915628
v 4.203962 1.978577 11.623016
v 1.769526 0.835394 13.701051
v 1.068926 1.007075 13.790236
v 1.618714 0.818753 12.850574
v 2.677883 2.129701 9.941124
v 3.348240 2.137926 13.779338
v 3.959890 1.716864 13.314937
v 3.785608 2.886177 12.827634
v 1.415014 1.589739 13.852474
v 2.102684 1.841702 13.929132
v 0.405191 1.096903 13.533502
v 0.895333 2.087979 14.056145
v 0.072126 1.559976 13.438906
v 1.093498 2.737931 10.941082
v 1.496975 3.618400 10.886837
v 1.388850 2.687945 10.527882
v 1.973647 3.013274 10.016499
v 2.402706 3.620541 10.663825
v 2.499354 3.002092 10.016343
v 3.449119 3.053411 11.974124
v 3.015823 3.297807 11.768851
v 2.983040 3.669427 12.646908
v 2.357089 3.777716 12.452993
v 2.691447 2.970022 14.206153
v 2.026015 2.971886 14.331429
v 2.740102 2.971408 13.525372
v 0.616641 3.151915 13.093668
v 0.139513 2.486397 13.661648
v 0.343482 3.082252 12.670507
v 1.384224 3.277285 13.408700
v 1.381369 3.532823 12.663666
v 1.875226 3.560760 13.043677
v 1.533585 2.214932 14.422503
v 2.415073 3.775358 13.009242
v 3.517787 3.081429 13.056802
v 2.752055 3.419843 13.010789
v 2.773486 3.860814 11.527015
v 3.475131 3.109763 10.916177
v 2.260660 4.078709 11.655087
v 2.965137 3.720283 10.687959
v 3.191657 2.910946 10.349050
v 1.560674 3.639386 12.056651
v 2.024818 3.951248 11.134871
v 1.010440 3.380687 11.388690
v 0.822129 3.712555 12.096864
v 0.027069 2.791670 11.744074
v 2.971136 2.057445 13.783304
v 3.770599 3.038481 11.518928
v 3.460738 2.643290 10.667000
v 3.727291 2.889324 11.165849
v 3.816097 2.312146 10.649231
v -0.198943 1.799033 11.923244
v 0.151511 2.182086 11.625916
v 0.382184 2.408087 11.253063
v -0.045730 2.005750 12.775400
v 3.003608 0.887063 13.944140
v 2.771477 1.386351 13.981200
v 3.364194 1.515391 13.739838
v 2.776913 1.770283 14.095756
v 3.723038 2.783168 12.336205
v 4.216831 2.466073 12.567199
v 4.108145 2.344739 11.220156
v 0.132184 0.669182 12.740030
v -0.350764 1.478130 12.602426
v 2.367123 1.305487 13.083684
v 3.477015 0.955204 13.521557
v 4.051865 1.296410 12.526787
v 4.325471 1.146197 11.418772
v 0.719148 0.612212 12.401223
v 1.989645 0.772642 11.924913
v 2.358982 0.545779 10.522092
v 2.544532 1.772143 14.077667
v 1.412679 1.273576 10.427074
vt 0.439470 0.519913
vt 0.437431 0.519913
vt 0.446059 0.519913
vt 0.447164 0.519913
vt 0.463990 0.519913
vt 0.464499 0.519913
vt 0.472023 0.519913
vt 0.471938 0.519913
vt 0.446028 0.519913
vt 0.445688 0.519913
vt 0.454231 0.519913
vt 0.453042 0.519913
vt 0.441936 0.633476
vt 0.437144 0.673750
vt 0.445701 0.807447
vt 0.448592 0.792921
vt 0.475577 0.638806
vt 0.474749 0.613361
vt 0.475579 0.662848
vt 0.476041 0.688566
vt 0.451505 0.626721
vt 0.451178 0.628867
vt 0.460404 0.791604
vt 0.461232 0.797295
vt 0.467773 0.608867
vt 0.468185 0.628348
vt 0.443500 0.620136
vt 0.443901 0.636535
vt 0.436515 0.610003
vt 0.443636 0.619261
vt 0.434078 0.606565
vt 0.439579 0.680952
vt 0.419277 0.904386
vt 0.420417 0.906470
vt 0.434378 0.643276
vt 0.431496 0.634580
vt 0.417539 0.884809
vt 0.416030 0.880120
vt 0.449768 0.796030
vt 0.447062 0.813266
vt 0.447814 0.682941
vt 0.448420 0.671796
vt 0.435352 0.920268
vt 0.434382 0.925089
vt 0.441662 0.676715
vt 0.441618 0.660456
vt 0.447557 0.818555
vt 0.446561 0.832751
vt 0.431137 0.917781
vt 0.431399 0.911379
vt 0.443562 0.807522
vt 0.442619 0.819921
vt 0.458667 0.810778
vt 0.458646 0.819620
vt 0.468630 0.655816
vt 0.475201 0.887172
vt 0.478822 0.890555
vt 0.468722 0.676131
vt 0.485713 0.937981
vt 0.485873 0.920530
vt 0.475369 0.900145
vt 0.479224 0.904669
vt 0.482083 0.913855
vt 0.481994 0.931177
vt 0.463990 0.519913
vt 0.464499 0.519913
vt 0.472023 0.519913
vt 0.471938 0.519913
vt 0.475577 0.638806
vt 0.474749 0.613361
vt 0.475579 0.662848
vt 0.476041 0.688566
vt 0.467773 0.608867
vt 0.468185 0.628348
vt 0.468630 0.655816
vt 0.475201 0.887172
vt 0.478822 0.890555
vt 0.468722 0.676131
vt 0.485713 0.937981
vt 0.485873 0.920530
vt 0.475369 0.900145
vt 0.479224 0.904669
vt 0.482083 0.913855
vt 0.481994 0.931177
vt 0.168108 0.562817
vt 0.158422 0.551672
vt 0.155930 0.568487
vt 0.133986 0.721935
vt 0.139049 0.574947
vt 0.126432 0.646506
vt 0.128816 0.588616
vt 0.116830 0.731881
vt 0.164348 0.535225
vt 0.175414 0.531799
vt 0.173652 0.572405
vt 0.171303 0.513868
vt 0.146379 0.522054
vt 0.149606 0.536599
vt 0.160237 0.515958
vt 0.125702 0.749059
vt 0.156389 0.645917
vt 0.161255 0.689705
vt 0.170856 0.634388
vt 0.143193 0.609528
vt 0.151867 0.658520
vt 0.146835 0.749457
vt 0.178897 0.605728
vt 0.178925 0.671241
vt 0.181063 0.630436
vt 0.140883 0.601376
vt 0.130280 0.668766
vt 0.135812 0.563344
vt 0.160835 0.761284
vt 0.168220 0.695277
vt 0.174604 0.592719
vt 0.175085 0.733602
vt 0.132003 0.749395
vt 0.148010 0.711047
vt 0.122034 0.700246
vt 0.131730 0.817350
vt 0.119562 0.778998
vt 0.139715 0.864306
vt 0.149912 0.911066
vt 0.144829 0.845133
vt 0.153459 0.846366
vt 0.160879 0.898216
vt 0.160500 0.814167
vt 0.174462 0.811917
vt 0.171089 0.873713
vt 0.168238 0.880226
vt 0.162126 0.946558
vt 0.159903 0.815655
vt 0.152635 0.831450
vt 0.162174 0.842220
vt 0.135984 0.951233
vt 0.125398 0.856796
vt 0.129063 0.928788
vt 0.144154 0.937692
vt 0.146585 0.965406
vt 0.154359 0.948520
vt 0.143695 0.773947
vt 0.160106 0.937660
vt 0.171146 0.788992
vt 0.165824 0.869322
vt 0.166346 0.918293
vt 0.173298 0.811730
vt 0.159521 0.953054
vt 0.167872 0.870513
vt 0.169087 0.788970
vt 0.150844 0.946558
vt 0.155313 0.932883
vt 0.143458 0.917110
vt 0.137661 0.937093
vt 0.129472 0.901041
vt 0.161372 0.738902
vt 0.176518 0.793409
vt 0.172513 0.743955
vt 0.177819 0.761868
vt 0.175462 0.708747
vt 0.116377 0.827390
vt 0.124333 0.862712
vt 0.129235 0.856741
vt 0.118893 0.840745
vt 0.160484 0.540951
vt 0.160400 0.585911
vt 0.167391 0.590218
vt 0.158396 0.649706
vt 0.177656 0.728041
vt 0.178615 0.638156
vt 0.180834 0.695800
vt 0.117295 0.687414
vt 0.116302 0.783202
vt 0.149210 0.528687
vt 0.166160 0.521908
vt 0.177636 0.543183
vt 0.178114 0.552508
vt 0.121633 0.618946
vt 0.142563 0.527958
vt 0.149363 0.578032
vt 0.150931 0.643435
vt 0.138404 0.658402
vn 0.0000 -1.0000 0.0000
vn -0.0428 -0.1976 -0.9793
vn 0.9846 -0.1718 -0.0329
vn 0.8482 -0.5252 -0.0689
vn 0.0759 -0.2784 -0.9575
vn -0.9311 0.3615 -0.0493
vn 0.0577 0.2107 -0.9758
vn 0.1564 0.4429 0.8828
vn -0.9697 -0.2424 0.0319
vn -0.0971 0.2495 0.9635
vn 0.9478 0.2343 -0.2163
vn -0.1032 -0.2628 0.9593
vn 0.9537 -0.3006 0.0010
vn -0.1514 -0.4025 -0.9028
vn 0.9765 0.2066 0.0610
vn -0.9274 -0.2153 0.3060
vn 0.7479 0.5760 -0.3300
vn -0.7587 -0.5407 0.3633
vn -0.1627 -0.3430 -0.9251
vn 0.1779 0.3467 0.9210
vn -0.5340 0.8350 0.1331
vn -0.7856 -0.4535 0.4209
vn -0.2060 -0.2876 -0.9353
vn 0.1541 0.3830 0.9108
vn 0.4656 0.8364 -0.2892
vn -0.7801 0.5793 0.2361
vn 0.8626 -0.4398 -0.2500
vn 0.1541 0.3452 0.9258
vn 0.8681 0.4912 0.0720
vn -0.9102 -0.4094 0.0631
vn 0.9094 0.3313 0.2513
vn -0.1095 -0.3134 0.9433
vn -0.1639 0.9675 -0.1928
vn -0.9090 -0.4090 0.0808
vn 0.1157 0.1537 -0.9813
vn -0.1770 -0.0996 0.9792
vn -0.2316 0.8313 -0.5053
vn 0.0806 -0.5287 -0.8450
vn -0.9315 -0.1893 -0.3105
vn -0.1989 0.6121 0.7653
vn 0.5659 0.7920 -0.2291
vn -0.6016 0.2694 -0.7520
vn -0.7976 0.5730 -0.1884
vn 0.4302 0.0640 0.9005
vn 0.0080 -0.5127 -0.8585
vn -0.9889 0.1488 -0.0045
vn 0.0417 -0.6655 -0.7453
vn 0.9391 -0.3002 -0.1674
vn -0.0941 0.9378 -0.3340
vn -0.0360 0.5997 0.7994
vn 0.9858 -0.1664 -0.0238
vn -0.9648 0.2566 -0.0580
vn -0.0698 0.9001 0.4300
vn -0.2152 0.5222 -0.8252
vn -0.8979 0.3795 0.2230
vn 0.1140 -0.3872 0.9149
vn 0.4418 0.1225 -0.8887
vn -0.7351 0.0596 -0.6753
vn -0.4987 0.0177 0.8666
vn 0.7499 0.0606 0.6587
vn 0.3975 -0.0918 -0.9130
vn -0.7143 -0.3937 -0.5787
vn -0.4749 0.0114 0.8799
vn -0.6014 -0.5485 -0.5809
vn 0.3791 0.1866 -0.9063
vn -0.3254 0.9378 -0.1206
vn 0.6144 0.4335 0.6593
vn 0.4938 0.3443 -0.7985
vn -0.5164 -0.1499 0.8431
vn 0.3065 0.9001 0.3096
vn -0.8014 0.4060 -0.4392
vn -0.4534 0.0077 0.8913
vn 0.8118 -0.3425 0.4729
vn 0.6892 -0.6020 -0.4031
vn -0.1884 -0.5680 -0.8012
vn -0.4540 -0.8526 0.2588
vn 0.7642 -0.6411 -0.0704
vn 0.1066 -0.9899 -0.0934
vn 0.1814 -0.9025 0.3906
vn -0.1275 -0.8686 -0.4788
vn 0.7001 -0.6788 -0.2218
vn -0.2176 -0.5558 -0.8023
vn 0.6268 -0.1402 -0.7665
vn 0.0585 -0.8169 -0.5738
vn 0.5626 0.7587 -0.3284
vn 0.8555 -0.3845 -0.3467
vn -0.2304 -0.9713 0.0599
vn 0.8143 -0.2523 -0.5227
vn 0.7085 0.3589 0.6077
vn -0.0919 -0.0516 0.9944
vn -0.5066 -0.1927 0.8404
vn -0.7552 0.3105 -0.5773
vn 0.0152 0.7242 -0.6894
vn 0.5727 0.7624 -0.3013
vn 0.2678 0.8908 -0.3670
vn 0.1744 -0.3197 0.9313
vn 0.0032 1.0000 0.0023
vn -0.0390 0.6647 0.7461
vn -0.6389 0.7103 0.2955
vn -0.2768 0.9086 0.3127
vn 0.1017 0.7148 0.6919
vn -0.2003 0.9612 0.1896
vn -0.5433 0.4805 0.6885
vn 0.2019 0.9630 0.1783
vn -0.5129 0.4235 0.7467
vn -0.1415 0.4937 0.8581
vn 0.1747 0.9845 -0.0140
vn 0.2803 0.7204 0.6343
vn 0.7604 0.6462 -0.0649
vn 0.7718 0.5006 0.3920
vn 0.8085 0.4888 0.3277
vn 0.2841 0.8852 -0.3684
vn -0.1628 0.9664 -0.1990
vn 0.7543 0.6536 0.0628
vn 0.7413 0.4250 -0.5195
vn -0.3338 0.8680 0.3678
vn -0.1544 0.7696 -0.6196
vn -0.5381 0.8428 0.0142
vn -0.7183 0.3215 -0.6169
vn -0.4328 0.9015 0.0074
vn 0.1075 0.9733 0.2026
vn 0.0679 0.9102 -0.4085
vn -0.5724 0.6734 -0.4678
vn -0.7670 0.6386 0.0617
vn -0.2990 -0.6114 0.7327
vn 0.1703 -0.6814 0.7119
vn 0.9624 0.2628 0.0693
vn 0.2385 -0.3471 0.9070
vn 0.7398 0.3202 0.5917
vn 0.3125 0.9490 -0.0410
vn 0.5365 0.6072 -0.5861
vn 0.7866 0.2719 -0.5544
vn 0.7128 -0.1068 -0.6932
vn 0.4448 0.1669 -0.8799
vn -0.4563 -0.1589 -0.8755
vn -0.7696 0.6317 -0.0932
vn -0.8313 -0.0627 -0.5523
vn -0.6550 0.0127 -0.7556
vn -0.9145 0.3504 0.2024
vn -0.1845 -0.1578 0.9701
vn 0.3572 0.0971 0.9290
vn 0.4127 -0.2658 0.8712
vn 0.6009 0.7635 -0.2365
vn 0.4499 0.8447 0.2900
vn 0.7128 0.3577 0.6033
vn 0.6181 0.6950 -0.3673
vn 0.9020 0.4039 0.1526
vn 0.4072 0.4787 -0.7778
vn -0.7809 0.2198 -0.5847
vn 0.0172 -0.0939 -0.9954
vn -0.6923 0.0104 -0.7216
vn -0.9812 0.0254 0.1913
vn -0.9639 0.2402 0.1150
vn -0.7497 -0.5177 -0.4122
vn -0.8462 0.3605 0.3925
vn -0.3122 -0.7872 0.5318
vn -0.6559 -0.6025 0.4546
vn 0.3300 -0.7694 0.5470
vn -0.3102 -0.5874 -0.7475
vn 0.8034 -0.5934 -0.0490
vn 0.6704 -0.1483 0.7271
vn -0.0453 -0.9053 0.4223
vn 0.3386 -0.8173 0.4663
vn 0.0819 -0.9929 -0.0864
vn 0.7770 -0.5691 0.2690
vn 0.6990 0.2650 -0.6642
vn 0.5402 -0.1443 -0.8291
vn -0.3918 -0.7334 -0.5555
vn 0.0795 -0.9674 0.2404
vn -0.3908 -0.7333 -0.5564
vn -0.2011 -0.9674 -0.1540
vn 0.6755 -0.6446 -0.3579
vn -0.1619 -0.2805 -0.9461
vn 0.7972 -0.4526 -0.3996
vn 0.0270 -0.8692 0.4937
vn -0.5899 -0.6829 -0.4309
vn -0.9159 0.0782 -0.3937
vn -0.2749 -0.8603 0.4294
vn -0.0784 -0.9958 -0.0473
vn -0.1464 -0.9685 -0.2012
vn -0.0810 -0.9352 -0.3446
vn -0.7538 -0.5989 -0.2705
vn 0.5437 -0.4382 -0.7158
vn 0.5536 -0.7062 0.4413
vn 0.9712 -0.1435 0.1899
vn 0.0643 -0.2408 0.9684
vn 0.7222 0.5632 -0.4016
vn -0.2540 0.2772 -0.9266
vn 0.9822 0.0617 -0.1775
vn 0.2176 0.5876 -0.7793
vn 0.5884 -0.0362 0.8078
vn -0.3462 0.1061 0.9321
vn -0.0691 -0.4384 0.8961
vn -0.7518 0.3086 -0.5827
vn 0.3740 0.1985 0.9059
vn -0.2908 0.9047 0.3114
vn -0.3350 0.8000 0.4978
vn -0.3667 0.9294 0.0422
vn 0.6164 0.5865 0.5254
vn 0.5293 0.5046 0.6821
vn 0.2719 0.7044 0.6557
vn 0.4330 0.8594 0.2719
vn -0.5203 0.8535 0.0268
vn 0.3192 0.8768 -0.3595
vn -0.1620 0.7418 -0.6508
vn -0.2207 0.9697 0.1050
vn -0.1795 0.8728 0.4539
vn -0.6229 0.7297 0.2820
vn -0.5227 -0.1632 0.8367
vn -0.9400 0.3410 0.0115
vn 0.5349 -0.2509 0.8068
vn 0.2715 0.4563 0.8474
vn -0.5256 0.4410 -0.7275
vn 0.5560 0.8292 -0.0567
vn 0.3863 0.8896 0.2437
vn 0.7916 0.5220 -0.3176
vn 0.7833 0.5324 -0.3210
vn -0.0107 -0.4911 -0.8710
vn -0.8475 -0.1290 -0.5149
vn -0.5101 -0.3310 -0.7939
vn -0.0756 0.7685 0.6353
vn -0.5265 0.4580 -0.7163
vn 0.4972 -0.5076 -0.7037
vn -0.3315 -0.1028 0.9378
vn -0.1019 -0.2973 0.9493
vn -0.0767 -0.2841 0.9557
vn 0.9130 0.3714 0.1691
vn 0.8155 0.5368 -0.2163
vn 0.9882 -0.1414 0.0596
vn 0.9699 0.0857 0.2279
vn 0.8315 0.2416 -0.5003
vn 0.6155 -0.5102 -0.6008
vn 0.0527 -0.9961 0.0707
vn 0.1833 0.1542 -0.9709
vn -0.1966 0.3156 -0.9283
vn -0.8704 0.4909 0.0374
vn -0.8379 -0.4590 -0.2952
vn -0.7503 -0.4386 0.4946
vn -0.8005 -0.4024 0.4441
vn 0.5614 -0.8233 -0.0834
vn 0.5351 -0.6894 0.4882
vn -0.0164 -0.9428 -0.3328
vn 0.8684 -0.0182 0.4956
vn 0.4064 -0.1056 -0.9076
vn -0.3992 -0.6897 -0.6041
vn 0.0745 -0.9543 0.2895
vn -0.0471 -0.9985 -0.0268
vn -0.5806 -0.7502 -0.3165
vn 0.2786 -0.9529 -0.1198
vn 0.2998 -0.6074 0.7357
vn -0.0293 -0.9990 -0.0330
vn 0.8084 -0.4805 -0.3401
vn 0.6293 -0.6116 -0.4795
usemtl AllColors_Material
f 1/1/1 2/2/1 3/3/1 4/4/1
f 5/5/1 6/6/1 7/7/1 8/8/1
f 9/9/1 10/10/1 11/11/1 12/12/1
f 13/13/2 14/14/2 15/15/2 16/16/2
f 17/17/3 18/18/3 19/19/3 20/20/3
f 21/21/4 22/22/4 23/23/4 24/24/4
f 7/7/5 6/6/5 25/25/5 18/18/5
f 6/6/6 5/5/6 26/26/6 25/25/6
f 11/11/7 10/10/7 27/27/7 22/22/7
f 1/1/8 4/4/8 28/28/8 29/29/8
f 10/10/9 9/9/9 30/30/9 27/27/9
f 5/5/10 8/8/10 17/17/10 26/26/10
f 4/4/11 3/3/11 13/13/11 28/28/11
f 9/9/12 12/12/12 21/21/12 30/30/12
f 8/8/13 7/7/13 18/18/13 17/17/13
f 3/3/14 2/2/14 31/31/14 13/13/14
f 12/12/15 11/11/15 22/22/15 21/21/15
f 2/2/16 1/1/16 29/29/16 31/31/16
f 32/32/17 14/14/17 33/33/17 34/34/17
f 31/31/18 29/29/18 35/35/18 36/36/18
f 13/13/19 31/31/19 36/36/19 14/14/19
f 29/29/20 28/28/20 32/32/20 35/35/20
f 37/37/21 34/34/21 33/33/21 38/38/21
f 36/36/22 35/35/22 37/37/22 38/38/22
f 14/14/23 36/36/23 38/38/23 33/33/23
f 35/35/24 32/32/24 34/34/24 37/37/24
f 39/39/25 16/16/25 15/15/25 40/40/25
f 14/14/26 32/32/26 40/40/26 15/15/26
f 28/28/27 13/13/27 16/16/27 39/39/27
f 32/32/28 28/28/28 39/39/28 40/40/28
f 41/41/29 42/42/29 43/43/29 44/44/29
f 27/27/30 30/30/30 45/45/30 46/46/30
f 42/42/31 22/22/31 47/47/31 48/48/31
f 30/30/32 21/21/32 41/41/32 45/45/32
f 49/49/33 44/44/33 43/43/33 50/50/33
f 46/46/34 45/45/34 49/49/34 50/50/34
f 42/42/35 46/46/35 50/50/35 43/43/35
f 45/45/36 41/41/36 44/44/36 49/49/36
f 47/47/37 51/51/37 52/52/37 48/48/37
f 22/22/38 27/27/38 51/51/38 47/47/38
f 27/27/39 46/46/39 52/52/39 51/51/39
f 46/46/40 42/42/40 48/48/40 52/52/40
f 24/24/41 23/23/41 53/53/41 54/54/41
f 22/22/42 42/42/42 53/53/42 23/23/42
f 42/42/43 41/41/43 54/54/43 53/53/43
f 41/41/44 21/21/44 24/24/44 54/54/44
f 19/19/45 55/55/45 56/56/45 57/57/45
f 25/25/46 26/26/46 58/58/46 55/55/46
f 18/18/47 25/25/47 55/55/47 19/19/47
f 17/17/48 20/20/48 59/59/48 60/60/48
f 61/61/49 62/62/49 57/57/49 56/56/49
f 58/58/50 20/20/50 62/62/50 61/61/50
f 20/20/51 19/19/51 57/57/51 62/62/51
f 55/55/52 58/58/52 61/61/52 56/56/52
f 63/63/53 60/60/53 59/59/53 64/64/53
f 20/20/54 58/58/54 64/64/54 59/59/54
f 58/58/55 26/26/55 63/63/55 64/64/55
f 26/26/56 17/17/56 60/60/56 63/63/56
f 65/65/1 66/66/1 67/67/1 68/68/1
f 69/69/57 70/70/57 71/71/57 72/72/57
f 67/67/58 66/66/58 73/73/58 70/70/58
f 66/66/59 65/65/59 74/74/59 73/73/59
f 65/65/60 68/68/60 69/69/60 74/74/60
f 68/68/61 67/67/61 70/70/61 69/69/61
f 71/71/62 75/75/62 76/76/62 77/77/62
f 73/73/63 74/74/63 78/78/63 75/75/63
f 70/70/64 73/73/64 75/75/64 71/71/64
f 69/69/65 72/72/65 79/79/65 80/80/65
f 81/81/66 82/82/66 77/77/66 76/76/66
f 78/78/67 72/72/67 82/82/67 81/81/67
f 72/72/68 71/71/68 77/77/68 82/82/68
f 75/75/69 78/78/69 81/81/69 76/76/69
f 83/83/70 80/80/70 79/79/70 84/84/70
f 72/72/71 78/78/71 84/84/71 79/79/71
f 78/78/72 74/74/72 83/83/72 84/84/72
f 74/74/73 69/69/73 80/80/73 83/83/73
f 85/85/74 86/86/74 87/87/74
f 88/88/75 89/89/75 90/90/75
f 90/90/76 91/91/76 92/92/76
f 86/86/77 85/85/77 93/93/77
f 94/94/78 93/93/78 95/95/78
f 96/96/79 93/93/79 94/94/79
f 93/93/80 97/97/80 98/98/80
f 99/99/81 93/93/81 96/96/81
f 90/90/82 100/100/82 88/88/82
f 101/101/83 102/102/83 103/103/83
f 104/104/84 105/105/84 101/101/84
f 101/101/85 105/105/85 106/106/85
f 107/107/86 108/108/86 109/109/86
f 110/110/87 111/111/87 112/112/87
f 113/113/88 102/102/88 101/101/88
f 114/114/89 115/115/89 116/116/89
f 117/117/90 111/111/90 118/118/90
f 119/119/91 120/120/91 121/121/91
f 122/122/92 123/123/92 124/124/92
f 125/125/93 126/126/93 127/127/93
f 128/128/94 129/129/94 130/130/94
f 130/130/95 129/129/95 131/131/95
f 132/132/96 133/133/96 118/118/96
f 133/133/97 132/132/97 134/134/97
f 135/135/98 136/136/98 120/120/98
f 136/136/99 135/135/99 137/137/99
f 135/135/100 138/138/100 139/139/100
f 134/134/101 140/140/101 138/138/101
f 139/139/102 140/140/102 131/131/102
f 133/133/103 135/135/103 120/120/103
f 138/138/104 133/133/104 134/134/104
f 141/141/105 133/133/105 120/120/105
f 142/142/106 140/140/106 134/134/106
f 142/142/107 130/130/107 131/131/107
f 143/143/108 144/144/108 134/134/108
f 130/130/109 143/143/109 128/128/109
f 129/129/110 145/145/110 131/131/110
f 145/145/111 129/129/111 146/146/111
f 147/147/112 145/145/112 126/126/112
f 126/126/113 145/145/113 148/148/113
f 146/146/114 148/148/114 145/145/114
f 149/149/115 148/148/115 146/146/115
f 147/147/116 150/150/116 131/131/116
f 123/123/117 126/126/117 125/125/117
f 151/151/118 123/123/118 150/150/118
f 124/124/119 123/123/119 125/125/119
f 123/123/120 152/152/120 150/150/120
f 153/153/121 139/139/121 150/150/121
f 153/153/122 150/150/122 152/152/122
f 154/154/123 153/153/123 152/152/123
f 154/154/124 137/137/124 153/153/124
f 120/120/125 117/117/125 141/141/125
f 118/118/126 141/141/126 117/117/126
f 132/132/127 155/155/127 134/134/127
f 118/118/128 155/155/128 132/132/128
f 116/116/129 143/143/129 114/114/129
f 129/129/130 156/156/130 146/146/130
f 157/157/131 158/158/131 159/159/131
f 157/157/132 146/146/132 158/158/132
f 113/113/133 149/149/133 157/157/133
f 149/149/134 113/113/134 127/127/134
f 106/106/135 127/127/135 101/101/135
f 160/160/136 161/161/136 162/162/136
f 154/154/137 162/162/137 161/161/137
f 160/160/138 154/154/138 161/161/138
f 137/137/139 154/154/139 163/163/139
f 164/164/140 165/165/140 110/110/140
f 165/165/141 164/164/141 166/166/141
f 167/167/142 165/165/142 166/166/142
f 168/168/143 116/116/143 169/169/143
f 168/168/144 156/156/144 128/128/144
f 115/115/145 169/169/145 116/116/145
f 169/169/146 109/109/146 168/168/146
f 168/168/147 109/109/147 170/170/147
f 157/157/148 159/159/148 113/113/148
f 122/122/149 124/124/149 88/88/149
f 88/88/150 124/124/150 106/106/150
f 106/106/151 105/105/151 104/104/151
f 136/136/152 163/163/152 121/121/152
f 154/154/153 160/160/153 163/163/153
f 171/171/154 172/172/154 160/160/154
f 163/163/155 172/172/155 121/121/155
f 119/119/156 171/171/156 111/111/156
f 99/99/157 173/173/157 97/97/157
f 97/97/158 173/173/158 112/112/158
f 110/110/159 173/173/159 99/99/159
f 174/174/160 99/99/160 96/96/160
f 166/166/161 164/164/161 174/174/161
f 99/99/162 164/164/162 110/110/162
f 94/94/163 175/175/163 96/96/163
f 176/176/164 94/94/164 95/95/164
f 175/175/165 94/94/165 176/176/165
f 107/107/166 109/109/166 176/176/166
f 107/107/167 95/95/167 103/103/167
f 92/92/168 177/177/168 171/171/168
f 111/111/169 171/171/169 112/112/169
f 91/91/170 177/177/170 92/92/170
f 87/87/171 86/86/171 178/178/171
f 85/85/172 87/87/172 103/103/172
f 101/101/173 179/179/173 104/104/173
f 101/101/174 87/87/174 179/179/174
f 89/89/175 179/179/175 87/87/175
f 89/89/176 104/104/176 179/179/176
f 92/92/177 160/160/177 162/162/177 100/100/177
f 93/93/178 98/98/178 86/86/178
f 91/91/179 90/90/179 89/89/179
f 93/93/180 85/85/180 95/95/180
f 99/99/181 97/97/181 93/93/181
f 90/90/182 92/92/182 100/100/182
f 107/107/183 103/103/183 108/108/183
f 175/175/184 115/115/184 166/166/184
f 169/169/185 115/115/185 175/175/185
f 118/118/186 111/111/186 110/110/186
f 108/108/187 159/159/187 158/158/187 170/170/187
f 122/122/188 88/88/188 100/100/188
f 108/108/189 170/170/189 109/109/189
f 148/148/190 149/149/190 127/127/190 126/126/190
f 114/114/191 166/166/191 115/115/191
f 117/117/192 119/119/192 111/111/192
f 120/120/193 119/119/193 117/117/193
f 122/122/194 152/152/194 123/123/194
f 155/155/195 167/167/195 166/166/195 114/114/195
f 138/138/196 140/140/196 139/139/196
f 138/138/197 135/135/197 133/133/197
f 131/131/198 140/140/198 142/142/198
f 134/134/199 144/144/199 142/142/199
f 142/142/200 144/144/200 130/130/200
f 143/143/201 130/130/201 144/144/201
f 147/147/202 131/131/202 145/145/202
f 151/151/203 150/150/203 147/147/203
f 147/147/204 126/126/204 151/151/204
f 123/123/205 151/151/205 126/126/205
f 131/131/206 150/150/206 139/139/206
f 135/135/207 139/139/207 153/153/207
f 135/135/208 153/153/208 137/137/208
f 121/121/209 120/120/209 136/136/209
f 163/163/210 136/136/210 137/137/210
f 133/133/211 141/141/211 118/118/211
f 143/143/212 134/134/212 155/155/212 114/114/212
f 162/162/213 154/154/213 152/152/213 122/122/213
f 128/128/214 143/143/214 116/116/214
f 128/128/215 156/156/215 129/129/215
f 170/170/216 158/158/216 156/156/216
f 156/156/217 158/158/217 146/146/217
f 106/106/218 125/125/218 127/127/218
f 101/101/219 127/127/219 113/113/219
f 106/106/220 124/124/220 125/125/220
f 180/180/221 167/167/221 155/155/221 118/118/221
f 100/100/222 162/162/222 122/122/222
f 102/102/223 113/113/223 159/159/223 103/103/223
f 110/110/224 180/180/224 118/118/224
f 110/110/225 165/165/225 180/180/225
f 180/180/226 165/165/226 167/167/226
f 170/170/227 156/156/227 168/168/227
f 128/128/228 116/116/228 168/168/228
f 175/175/229 109/109/229 169/169/229
f 176/176/230 109/109/230 175/175/230
f 146/146/231 157/157/231 149/149/231
f 159/159/232 108/108/232 103/103/232
f 91/91/233 178/178/233 97/97/233 112/112/233
f 181/181/234 106/106/234 104/104/234
f 106/106/235 181/181/235 88/88/235
f 172/172/236 163/163/236 160/160/236
f 92/92/237 171/171/237 160/160/237
f 171/171/238 119/119/238 121/121/238
f 172/172/239 171/171/239 121/121/239
f 110/110/240 112/112/240 173/173/240
f 99/99/241 174/174/241 164/164/241
f 174/174/242 96/96/242 175/175/242
f 174/174/243 175/175/243 166/166/243
f 95/95/244 107/107/244 176/176/244
f 103/103/245 95/95/245 85/85/245
f 112/112/246 171/171/246 177/177/246
f 89/89/247 178/178/247 91/91/247
f 89/89/248 88/88/248 181/181/248 104/104/248
f 112/112/249 177/177/249 91/91/249
f 98/98/250 178/178/250 86/86/250
f 89/89/251 87/87/251 178/178/251
f 97/97/252 178/178/252 98/98/252
f 101/101/253 103/103/253 87/87/253
