mtllib forest_nature_set_all_in.mtl
o forest_Log_big_knotty_Cylinder_017
v -19.925051 0.821810 -5.588445
v -17.692642 0.847406 -5.732481
v -17.434502 -0.023602 -5.329319
v -19.767103 0.024547 -5.070074
v -17.692524 -0.028002 -4.324642
v -20.168533 -0.021758 -4.084352
v -17.709080 0.630729 -3.440838
v -19.890326 0.545556 -3.332172
v -20.182354 1.098159 -3.363186
v -17.741962 1.107388 -3.446304
v -17.536488 1.651483 -3.533122
v -20.237270 1.651350 -3.386761
v -17.711790 2.025115 -4.548650
v -20.183966 2.127913 -4.375652
v -15.380813 0.067561 -4.244283
v -15.134304 0.091729 -5.253181
v -14.420591 0.132971 -5.207936
v -14.663908 0.102539 -4.201732
v -17.693508 1.717195 -5.431816
v -19.970455 1.748127 -5.313477
v -20.087975 1.284857 -5.450992
v -17.692924 1.282301 -5.582379
v -19.776867 0.180229 -4.972303
v -20.165947 0.141086 -4.126916
v -20.025393 0.135106 -4.113177
v -19.653288 0.173986 -4.957898
v -14.651812 1.347731 -5.388428
v -14.639523 1.757716 -5.233202
v -12.098779 1.716302 -5.236690
v -11.987215 1.278029 -5.387897
v -15.408384 2.059067 -4.528443
v -15.195975 1.696801 -3.542744
v -14.481353 1.708396 -3.511261
v -14.696771 2.010697 -4.398652
v -15.381136 0.914688 -5.609819
v -14.664195 0.937448 -5.544709
v -15.381313 0.700059 -3.618515
v -14.664034 0.725876 -3.584086
v -14.365761 2.449924 -5.117074
v -14.678648 2.650163 -5.197334
v -15.289006 1.198243 -3.585071
v -14.572841 1.217098 -3.547930
v -15.366473 1.359453 -5.486978
v -15.351554 1.802876 -5.370802
v -12.128712 0.674447 -3.607361
v -12.130186 0.101336 -4.175239
v -12.251753 0.098691 -4.175693
v -12.250296 0.671802 -3.607864
v -12.126848 1.584671 -3.418924
v -12.035371 2.026615 -4.362977
v -12.128390 -0.042455 -4.120413
v -12.128305 0.616197 -3.467645
v -11.986765 0.839755 -5.537605
v -11.960064 0.020598 -5.093534
v -12.086301 1.100434 -3.443171
v -19.971224 0.845807 -5.404189
v -19.900133 0.621807 -3.485413
v -20.168068 1.085012 -3.511428
v -20.198444 1.953210 -4.372075
v -20.230371 1.548537 -3.534049
v -20.014887 1.629187 -5.172504
v -20.108662 1.237471 -5.287967
v -19.950293 1.232414 -5.272418
v -19.991207 1.512450 -4.410644
v -20.076735 1.948966 -4.355917
v -19.870394 1.624614 -5.156859
v -20.074440 1.543709 -3.518652
v -20.005314 1.079759 -3.494930
v -19.821859 0.840260 -5.388411
v -19.827158 1.074464 -4.476451
v -19.771849 0.616031 -3.468566
v -11.984695 0.853629 -5.386311
v -11.969330 0.155962 -5.007543
v -12.089508 1.086034 -3.586714
v -12.130272 1.497622 -3.565983
v -12.022905 1.875131 -4.373399
v -12.075256 1.607321 -5.127398
v -11.983773 1.230475 -5.257437
v -12.082905 0.153317 -5.007896
v -12.119093 0.850984 -5.387071
v -12.259058 1.060752 -4.573288
v -12.234624 1.494977 -3.566389
v -12.125844 1.872486 -4.373936
v -12.201469 1.604676 -5.127932
v -12.118046 1.227830 -5.257884
v -12.137406 1.466619 -4.474025
v -12.193981 1.083390 -3.587142
v -17.171852 1.298631 -5.585864
v -17.168703 1.734449 -5.440317
v -17.213718 1.122068 -3.517580
v -17.190493 0.652204 -3.524310
v -17.178501 2.030097 -4.582443
v -17.174362 -0.003495 -4.336486
v -16.920980 0.005240 -5.335335
v -17.174637 0.862837 -5.730275
v -17.018890 1.658768 -3.554032
v -14.344599 2.319921 -5.567637
v -14.660894 2.517676 -5.650510
v -13.804488 2.805418 -5.353331
v -16.841877 1.142398 -3.192824
v -16.795744 0.926273 -3.032787
v -17.112598 1.147556 -3.115442
v -17.063114 0.929958 -2.961405
vt 0.553641 0.529727
vt 0.553053 0.647103
vt 0.578277 0.661414
vt 0.576134 0.529727
vt 0.578405 0.647103
vt 0.577401 0.515415
vt 0.559477 0.647103
vt 0.561431 0.522571
vt 0.545831 0.520782
vt 0.544560 0.652469
vt 0.529644 0.657836
vt 0.530232 0.518993
vt 0.518946 0.647103
vt 0.516754 0.524956
vt 0.574952 0.769994
vt 0.574273 0.783507
vt 0.572976 0.823055
vt 0.573834 0.809801
vt 0.527863 0.647103
vt 0.527467 0.527342
vt 0.540554 0.528534
vt 0.540458 0.647103
vt 0.571708 0.529452
vt 0.572786 0.515797
vt 0.572935 0.523648
vt 0.571858 0.537303
vt 0.538694 0.809801
vt 0.527031 0.809801
vt 0.528458 0.954380
vt 0.540781 0.954380
vt 0.518815 0.769994
vt 0.528915 0.780129
vt 0.528679 0.819741
vt 0.518772 0.809801
vt 0.551016 0.769994
vt 0.550357 0.809801
vt 0.557082 0.769994
vt 0.556306 0.809801
vt 0.518772 0.809801
vt 0.518815 0.769994
vt 0.542999 0.775062
vt 0.542493 0.814771
vt 0.539125 0.769994
vt 0.527234 0.769994
vt 0.557751 0.954382
vt 0.573864 0.954305
vt 0.573938 0.947692
vt 0.557825 0.947769
vt 0.532159 0.964882
vt 0.519734 0.954380
vt 0.577906 0.954380
vt 0.559388 0.954380
vt 0.553103 0.954380
vt 0.576134 0.968383
vt 0.545773 0.959631
vt 0.552953 0.528945
vt 0.559262 0.523400
vt 0.546204 0.521506
vt 0.521724 0.524822
vt 0.533146 0.519613
vt 0.530853 0.526624
vt 0.541903 0.527785
vt 0.172797 0.290417
vt 0.145444 0.358178
vt 0.143274 0.464301
vt 0.169082 0.385631
vt 0.533295 0.527465
vt 0.546353 0.529358
vt 0.531003 0.534475
vt 0.521873 0.532673
vt 0.553101 0.536796
vt 0.147613 0.252055
vt 0.114701 0.140829
vt 0.115562 0.253352
vt 0.135674 0.024296
vt 0.176513 0.195203
vt 0.162841 0.033581
vt 0.542052 0.535636
vt 0.559412 0.531252
vt 0.552713 0.954524
vt 0.572328 0.967896
vt 0.546178 0.959548
vt 0.534606 0.964716
vt 0.523993 0.954678
vt 0.531523 0.954661
vt 0.542117 0.954592
vt 0.164768 0.028886
vt 0.177013 0.197912
vt 0.150734 0.248733
vt 0.137938 0.015653
vt 0.534681 0.958103
vt 0.524067 0.948065
vt 0.531597 0.948048
vt 0.542192 0.947979
vt 0.572402 0.961284
vt 0.119637 0.154501
vt 0.147534 0.347063
vt 0.172826 0.289212
vt 0.168640 0.380511
vt 0.144335 0.445394
vt 0.118968 0.254217
vt 0.118298 0.353934
vt 0.552787 0.947911
vt 0.546253 0.952936
vt 0.540158 0.674777
vt 0.527721 0.674777
vt 0.544209 0.680076
vt 0.558938 0.674777
vt 0.518917 0.674777
vt 0.577627 0.674776
vt 0.577375 0.688909
vt 0.552594 0.674777
vt 0.529480 0.685375
vt 0.527031 0.809801
vt 0.527234 0.769994
vt 0.527031 0.809801
vt 0.518772 0.809801
vt 0.527234 0.769994
vt 0.518815 0.769994
vt 0.544209 0.680076
vt 0.558938 0.674777
vt 0.116423 0.365874
vt 0.544560 0.652469
vt 0.559477 0.647103
vn -0.0788 -0.4970 -0.8642
vn -0.0144 -0.9994 -0.0302
vn 0.0580 -0.8033 0.5927
vn 0.0442 0.0940 0.9946
vn 0.0422 0.9207 0.3880
vn 0.0540 -0.9984 -0.0139
vn 0.0047 0.9357 -0.3528
vn -0.0582 0.2948 -0.9538
vn 0.0394 0.9972 0.0638
vn 0.0067 0.3404 -0.9402
vn -0.0139 0.9413 0.3372
vn 0.0879 -0.3679 -0.9257
vn -0.0083 -0.7036 0.7106
vn 0.0608 0.7785 0.6247
vn -0.0479 -0.0613 0.9970
vn 0.1675 0.2939 -0.9410
vn -0.0125 0.7038 -0.7103
vn 0.0103 0.9266 0.3759
vn -0.0629 -0.7025 0.7089
vn 0.0036 -0.4329 -0.9014
vn 0.0066 0.9497 -0.3132
vn -0.0464 -0.0557 0.9974
vn -0.0491 -0.9971 -0.0573
vn -0.9670 -0.2528 -0.0307
vn -0.9179 0.0476 -0.3940
vn -0.9546 0.1710 0.2440
vn -0.8673 -0.4845 -0.1143
vn -0.9988 0.0412 -0.0268
vn -0.9658 0.0710 -0.2494
vn -0.9640 0.2576 -0.0655
vn -0.9874 0.0254 -0.1561
vn 0.0984 -0.0357 -0.9945
vn -0.0737 -0.9305 0.3588
vn -0.0707 0.5285 0.8460
vn -0.9055 -0.3921 -0.1622
vn -0.9479 0.2671 0.1735
vn -0.9763 -0.0812 -0.2007
vn -0.1069 -0.3156 0.9429
vn 0.0200 -0.9003 -0.4349
vn 0.1047 0.7757 -0.6223
vn 0.9994 0.0329 0.0096
vn 0.9834 0.0188 0.1805
vn 1.0000 0.0049 -0.0062
vn 0.9941 0.0930 -0.0552
vn 0.9946 -0.0281 0.0997
vn 0.9898 0.0970 -0.1048
vn 0.9998 0.0059 -0.0189
vn 0.9790 0.1069 0.1736
vn 0.0251 -0.9069 -0.4206
vn 0.0030 -0.3255 0.9455
vn -0.0227 0.9979 0.0610
vn 1.0000 0.0046 -0.0072
vn 0.9909 0.1125 -0.0733
vn 0.9942 0.0197 0.1059
vn -0.0141 0.4769 0.8789
vn 0.0202 -0.9427 0.3331
vn 0.0030 0.0499 -0.9988
vn 0.0344 0.2845 -0.9581
vn 0.0447 -0.0446 0.9980
vn -0.0152 0.9509 -0.3092
vn 0.0249 -0.7444 0.6672
vn 0.0671 -0.3906 -0.9181
vn -0.0238 0.9379 0.3460
vn 0.0442 -0.9990 -0.0054
vn 0.3014 0.0840 -0.9498
vn 0.9062 -0.3870 0.1706
vn 0.0746 -0.4784 -0.8750
vn -0.7379 0.6336 -0.2326
vn 0.0068 0.9399 0.3414
vn 0.5909 -0.7673 0.2492
vn -0.2163 0.9348 -0.2818
vn 0.0739 0.4684 0.8804
vn 0.0518 -0.9986 0.0067
vn 0.0145 -0.4156 -0.9094
vn 0.0911 -0.7863 0.6111
vn -0.0329 0.9442 -0.3278
vn 0.7402 -0.0745 -0.6683
vn -0.0212 0.3220 -0.9465
vn -0.0110 0.3204 -0.9472
vn 0.0858 0.0815 0.9930
vn 0.0153 -0.0099 0.9998
vn 0.0492 0.2892 -0.9560
vn 0.0027 0.0506 -0.9987
vn 0.9772 -0.2040 -0.0598
vn 0.9688 -0.1961 0.1517
vn 0.0021 -0.3239 0.9461
vn 0.9727 0.2286 0.0398
vn 0.9957 -0.0889 -0.0265
vn -0.1071 -0.2592 0.9599
vn -0.9824 -0.1658 -0.0859
vn 0.1140 0.0055 -0.9935
vn -0.9351 -0.3461 0.0760
vn -0.9415 -0.2716 -0.1996
vn -0.9930 -0.1157 -0.0258
vn -0.0436 -0.0600 0.9972
vn 0.1058 0.3056 -0.9463
vn -0.0463 -0.0709 0.9964
vn 0.0120 0.3390 -0.9407
vn -0.0485 0.3108 -0.9492
vn 0.0404 0.0481 0.9980
vn 0.2217 0.6035 0.7659
vn -0.5553 0.1231 0.8225
vn 0.1034 -0.9011 0.4212
vn -0.0226 0.9981 -0.0576
usemtl AllColors_Material
f 1/1/1 2/2/1 3/3/1 4/4/1
f 4/4/2 3/3/2 5/5/2 6/6/2
f 6/6/3 5/5/3 7/7/3 8/8/3
f 9/9/4 10/10/4 11/11/4 12/12/4
f 12/12/5 11/11/5 13/13/5 14/14/5
f 15/15/6 16/16/6 17/17/6 18/18/6
f 14/14/7 13/13/7 19/19/7 20/20/7
f 21/21/8 22/22/8 2/2/8 1/1/8
f 23/23/9 24/24/9 25/25/9 26/26/9
f 27/27/10 28/28/10 29/29/10 30/30/10
f 31/31/11 32/32/11 33/33/11 34/34/11
f 16/16/12 35/35/12 36/36/12 17/17/12
f 37/37/13 15/15/13 18/18/13 38/38/13
f 31/31/14 34/34/14 39/39/14 40/40/14
f 41/41/15 37/37/15 38/38/15 42/42/15
f 43/43/16 44/44/16 28/28/16 27/27/16
f 45/45/17 46/46/17 47/47/17 48/48/17
f 34/34/18 33/33/18 49/49/18 50/50/18
f 38/38/19 18/18/19 51/51/19 52/52/19
f 17/17/20 36/36/20 53/53/20 54/54/20
f 28/28/21 34/34/21 50/50/21 29/29/21
f 42/42/22 38/38/22 52/52/22 55/55/22
f 18/18/23 17/17/23 54/54/23 51/51/23
f 23/23/24 56/56/24 1/1/24 4/4/24
f 24/24/25 23/23/25 4/4/25 6/6/25
f 57/57/26 24/24/26 6/6/26 8/8/26
f 58/58/27 57/57/27 8/8/27 9/9/27
f 59/59/28 60/60/28 12/12/28 14/14/28
f 61/61/29 59/59/29 14/14/29 20/20/29
f 62/62/30 61/61/30 20/20/30 21/21/30
f 63/63/31 64/64/31 65/65/31 66/66/31
f 58/58/32 60/60/32 67/67/32 68/68/32
f 59/59/33 61/61/33 66/69/33 65/70/33
f 56/56/34 23/23/34 26/26/34 69/71/34
f 64/64/35 70/72/35 71/73/35 68/74/35
f 71/73/36 70/72/36 25/75/36
f 70/72/37 69/76/37 26/77/37 25/75/37
f 62/62/38 56/56/38 69/71/38 63/78/38
f 60/60/39 59/59/39 65/70/39 67/67/39
f 24/24/40 57/57/40 71/79/40 25/25/40
f 72/80/41 73/81/41 54/54/41 53/53/41
f 73/81/42 46/46/42 51/51/42 54/54/42
f 46/46/43 45/45/43 52/52/43 51/51/43
f 74/82/44 75/83/44 49/49/44 55/55/44
f 75/83/45 76/84/45 50/50/45 49/49/45
f 76/84/46 77/85/46 29/29/46 50/50/46
f 78/86/47 72/80/47 53/53/47 30/30/47
f 79/87/48 80/88/48 81/89/48 47/90/48
f 76/84/49 75/83/49 82/91/49 83/92/49
f 78/86/50 77/85/50 84/93/50 85/94/50
f 46/46/51 73/81/51 79/95/51 47/47/51
f 47/90/52 81/89/52 48/96/52
f 86/97/53 85/98/53 84/99/53 83/100/53
f 87/101/54 86/97/54 83/100/54 82/102/54
f 73/81/55 72/80/55 80/103/55 79/95/55
f 77/85/56 76/84/56 83/92/56 84/93/56
f 74/82/57 45/45/57 48/48/57 87/104/57
f 88/105/58 89/106/58 44/44/58 43/43/58
f 90/107/59 91/108/59 37/37/59 41/41/59
f 89/106/60 92/109/60 31/31/60 44/44/60
f 91/108/61 93/110/61 15/15/61 37/37/61
f 94/111/62 95/112/62 35/35/62 16/16/62
f 92/109/63 96/113/63 32/32/63 31/31/63
f 93/110/64 94/111/64 16/16/64 15/15/64
f 97/114/65 98/115/65 99/116/65
f 34/34/66 28/28/66 97/114/66 39/39/66
f 28/28/67 44/44/67 98/115/67 97/114/67
f 44/44/68 31/31/68 40/40/68 98/115/68
f 13/13/69 11/11/69 96/113/69 92/109/69
f 39/39/70 97/114/70 99/117/70
f 98/115/71 40/40/71 99/118/71
f 40/40/72 39/39/72 99/119/72
f 5/5/73 3/3/73 94/111/73 93/110/73
f 3/3/74 2/2/74 95/112/74 94/111/74
f 7/7/75 5/5/75 93/110/75 91/108/75
f 19/19/76 13/13/76 92/109/76 89/106/76
f 91/108/77 90/107/77 100/120/77 101/121/77
f 22/22/78 19/19/78 89/106/78 88/105/78
f 2/2/79 22/22/79 88/105/79 95/112/79
f 11/11/80 10/10/80 90/107/80 96/113/80
f 96/113/81 90/107/81 41/41/81 32/32/81
f 95/112/82 88/105/82 43/43/82 35/35/82
f 75/83/83 74/82/83 87/104/83 82/91/83
f 48/96/84 81/89/84 86/97/84 87/101/84
f 81/89/85 80/88/85 85/98/85 86/97/85
f 72/80/86 78/86/86 85/94/86 80/103/86
f 77/85/87 78/86/87 30/30/87 29/29/87
f 45/45/88 74/82/88 55/55/88 52/52/88
f 61/61/89 62/62/89 63/78/89 66/69/89
f 65/65/90 64/64/90 68/74/90 67/122/90
f 57/57/91 58/58/91 68/68/91 71/79/91
f 69/76/92 70/72/92 64/64/92 63/63/92
f 56/56/93 62/62/93 21/21/93 1/1/93
f 60/60/94 58/58/94 9/9/94 12/12/94
f 33/33/95 42/42/95 55/55/95 49/49/95
f 35/35/96 43/43/96 27/27/96 36/36/96
f 32/32/97 41/41/97 42/42/97 33/33/97
f 36/36/98 27/27/98 30/30/98 53/53/98
f 20/20/99 19/19/99 22/22/99 21/21/99
f 8/8/100 7/7/100 10/10/100 9/9/100
f 102/123/101 103/124/101 101/121/101 100/120/101
f 10/10/102 7/7/102 103/124/102 102/123/102
f 7/7/103 91/108/103 101/121/103 103/124/103
f 90/107/104 10/10/104 102/123/104 100/120/104
