mtllib forest_nature_set_all_in.mtl
o forest_Tree_average_bare_Cube
v -15.196716 2.121952 -10.483774
v -14.698196 2.119678 -10.483774
v -14.879949 5.006559 -11.165358
v -15.223600 5.005632 -11.165395
v -15.104260 0.000000 -10.147363
v -15.695236 2.117199 -10.483774
v -16.225937 0.000000 -9.951056
v -16.507040 0.000000 -10.980276
v -15.695236 2.071967 -10.980276
v -15.695236 2.030479 -11.476778
v -16.225937 0.000000 -12.009497
v -15.466237 0.000000 -10.949363
v -14.282255 0.000000 -10.918448
v -13.982585 0.000000 -10.016608
v -14.698196 2.078737 -10.980276
v -15.172621 0.000000 -12.250021
v -15.196716 2.030022 -11.476778
v -14.698196 2.033062 -11.476778
v -14.295603 0.000000 -11.951393
v -15.700459 5.032079 -11.911242
v -15.248364 4.983826 -11.930633
v -15.665157 5.014277 -11.165488
v -15.669704 4.996691 -11.510625
v -14.878052 4.988214 -11.510504
v -15.659184 8.172002 -10.359002
v -15.419769 8.183159 -10.365749
v -15.462048 8.779413 -10.251410
v -15.682970 8.766841 -10.246000
v -15.668615 8.161290 -10.973129
v -15.672660 8.168709 -10.651332
v -15.698071 8.765690 -10.521341
v -15.691995 8.759411 -10.826475
v -15.111681 8.202483 -10.407919
v -15.125919 8.197274 -10.695722
v -11.858576 10.065758 -10.584652
v -11.851351 10.069540 -10.444828
v -15.428726 8.172198 -10.977902
v -15.470641 8.771749 -10.829220
v -14.905688 4.954937 -11.943537
v -15.289408 8.772096 -10.544860
v -15.278600 8.767859 -10.849627
v -14.918064 12.214273 -11.791071
v -14.916953 12.212611 -11.688808
v -15.127165 12.215418 -11.790442
v -15.021584 12.214566 -11.790910
v -15.272658 8.775571 -10.274609
v -14.918064 12.211552 -11.586214
v -15.116992 8.191580 -11.015988
v -12.013250 10.306081 -10.398726
v -12.021734 10.302775 -10.529191
v -15.194703 14.301105 -11.348688
v -15.126131 12.213777 -11.688168
v -15.127165 12.212695 -11.585585
v -15.021584 12.211844 -11.586053
v -15.490390 5.640782 -11.121440
v -15.281980 5.656501 -11.120439
v -15.466437 5.611723 -11.703565
v -15.496343 5.626494 -11.452218
v -14.944960 5.644416 -11.450787
v -14.908030 5.581510 -11.719250
v -15.245784 5.607056 -11.707569
v -14.944067 5.660364 -11.120070
v -10.327049 12.579068 -10.418861
v -12.018723 10.304641 -10.670648
v -11.856780 10.066644 -10.736391
v -15.990060 7.344874 -13.586612
v -16.181458 7.349397 -13.554814
v -19.351488 7.973593 -11.701495
v -19.334768 7.992052 -11.901036
v -16.447508 7.137386 -13.760042
v -16.209776 7.119892 -13.806849
v -19.054619 8.176037 -11.395743
v -19.294605 7.978080 -11.394492
v -18.989433 8.216336 -11.795380
v -19.437931 8.537477 -11.935643
v -19.241386 8.457958 -11.842604
v -19.012913 8.200557 -11.606195
v -19.261177 8.435596 -11.665973
v -19.455547 8.510890 -11.751843
v -19.581377 8.445608 -11.654597
v -17.988905 10.318376 -11.382648
v -17.972857 10.336824 -11.511781
v -19.281008 8.407342 -11.534273
v -17.715755 10.224509 -11.441382
v -17.724710 10.209898 -11.310676
v -20.323917 9.149313 -9.458387
v -20.117638 9.063371 -9.270761
v -21.802952 9.034164 -13.283295
v -21.812031 9.040275 -13.384451
v -17.712975 10.235640 -11.575936
v -17.961779 10.352778 -11.643723
v -17.370741 12.313603 -11.499986
v -21.230057 11.541982 -9.280644
v -20.303528 8.963582 -9.124492
v -20.555883 9.159810 -9.516031
v -21.518005 9.208580 -13.273912
v -21.522339 9.216023 -13.367172
v -22.413353 11.129961 -14.106997
v -16.469141 7.461028 -13.952968
v -16.327099 7.646947 -13.741647
v -16.505560 9.287643 -14.985003
v -16.606640 9.238776 -15.166896
v -16.217342 7.647469 -13.757874
v -16.119335 7.630760 -13.776881
v -16.327848 9.316494 -15.029350
v -16.435125 9.299047 -15.001301
v -15.956093 7.124027 -13.848600
v -16.298243 7.350600 -13.539095
v -16.355211 9.275958 -15.243425
v -17.028208 11.377887 -15.084459
v -16.245821 7.448875 -14.000548
v -16.463930 9.258183 -15.214409
v -16.093241 7.439558 -14.028701
v -14.369937 8.425112 -13.941994
v -14.534474 8.533103 -14.053255
v -14.463161 8.455031 -14.202934
v -13.438706 10.781001 -14.690627
v -14.285821 8.335466 -14.096508
vt 0.554350 0.611767
vt 0.556508 0.611767
vt 0.555721 0.700050
vt 0.554234 0.700021
vt 0.554751 0.547812
vt 0.552194 0.611767
vt 0.549897 0.547812
vt 0.548681 0.547812
vt 0.552194 0.610405
vt 0.552194 0.609042
vt 0.549897 0.547812
vt 0.553184 0.547812
vt 0.558307 0.547812
vt 0.559604 0.547812
vt 0.556508 0.610405
vt 0.554455 0.547812
vt 0.554350 0.609042
vt 0.556508 0.609042
vt 0.558250 0.547812
vt 0.552171 0.700826
vt 0.554127 0.699359
vt 0.552324 0.700284
vt 0.552304 0.699750
vt 0.555729 0.699492
vt 0.552350 0.796304
vt 0.553385 0.796643
vt 0.553203 0.814773
vt 0.552247 0.814391
vt 0.552309 0.795978
vt 0.552291 0.796203
vt 0.552181 0.814356
vt 0.552208 0.814165
vt 0.554718 0.797231
vt 0.554657 0.797072
vt 0.568794 0.853888
vt 0.568825 0.854003
vt 0.553347 0.796310
vt 0.553165 0.814540
vt 0.555610 0.698480
vt 0.553949 0.814551
vt 0.553996 0.814422
vt 0.555556 0.919220
vt 0.555561 0.919169
vt 0.554651 0.919254
vt 0.555108 0.919228
vt 0.554022 0.814657
vt 0.555556 0.919137
vt 0.554695 0.796899
vt 0.568125 0.861196
vt 0.568088 0.861095
vt 0.554359 0.982675
vt 0.554656 0.919205
vt 0.554651 0.919171
vt 0.555108 0.919145
vt 0.553080 0.719335
vt 0.553982 0.719813
vt 0.553183 0.718451
vt 0.553054 0.718900
vt 0.555440 0.719446
vt 0.555600 0.717533
vt 0.554138 0.718310
vt 0.555444 0.719931
vt 0.575421 0.930312
vt 0.568101 0.861152
vt 0.568802 0.853915
vt 0.550918 0.771153
vt 0.550090 0.771290
vt 0.536373 0.790271
vt 0.536446 0.790832
vt 0.548939 0.764843
vt 0.549967 0.764311
vt 0.537658 0.796426
vt 0.536619 0.790407
vt 0.537940 0.797652
vt 0.535999 0.807417
vt 0.536850 0.804999
vt 0.537838 0.797172
vt 0.536764 0.804319
vt 0.535923 0.806608
vt 0.535379 0.804623
vt 0.542269 0.861570
vt 0.542338 0.862131
vt 0.536678 0.803460
vt 0.543451 0.858715
vt 0.543412 0.858271
vt 0.532166 0.826021
vt 0.533058 0.823408
vt 0.525766 0.822520
vt 0.525727 0.822706
vt 0.543463 0.859054
vt 0.542386 0.862616
vt 0.544944 0.922240
vt 0.528245 0.898777
vt 0.532254 0.820374
vt 0.531162 0.826341
vt 0.526999 0.827824
vt 0.526980 0.828050
vt 0.523125 0.886248
vt 0.548845 0.774685
vt 0.549460 0.780338
vt 0.548687 0.830227
vt 0.548250 0.828742
vt 0.549934 0.780354
vt 0.550358 0.779845
vt 0.549456 0.831105
vt 0.548992 0.830574
vt 0.551065 0.764437
vt 0.549584 0.771327
vt 0.549338 0.829872
vt 0.546426 0.893787
vt 0.549811 0.774315
vt 0.548867 0.829332
vt 0.550471 0.774031
vt 0.557928 0.804000
vt 0.557216 0.807284
vt 0.557525 0.804909
vt 0.561957 0.875637
vt 0.558292 0.801274
vn 0.0003 0.2299 0.9732
vn 0.1176 0.1878 0.9751
vn -0.9278 0.3270 -0.1798
vn 0.0000 -1.0000 0.0000
vn 0.9503 0.2296 -0.2104
vn 0.2013 0.3068 -0.9302
vn 0.9804 0.1966 -0.0144
vn -0.9334 0.3198 0.1625
vn -0.0277 -0.1477 -0.9886
vn -0.9999 0.0105 0.0046
vn -0.1451 0.3193 -0.9365
vn -0.0790 0.1710 0.9821
vn 0.9981 0.0618 -0.0021
vn 0.0355 -0.1855 0.9820
vn -0.9992 -0.0372 -0.0153
vn 0.4967 -0.8679 -0.0067
vn -0.0278 0.2379 -0.9709
vn -0.0199 -0.1556 -0.9876
vn 0.0009 0.2295 0.9733
vn 0.9976 0.0603 -0.0348
vn -0.9994 0.0090 0.0342
vn 0.9948 -0.0985 0.0243
vn -0.0000 -0.2688 -0.9632
vn 0.9920 -0.1195 -0.0408
vn -0.0707 -0.2579 -0.9636
vn 0.1337 -0.1830 0.9740
vn -0.9974 -0.0515 0.0506
vn -0.1192 0.2377 -0.9640
vn -0.4244 0.9054 0.0114
vn 0.9915 0.1299 0.0121
vn -0.0009 0.2073 -0.9783
vn -0.9995 -0.0311 -0.0104
vn 0.0012 -0.1128 0.9936
vn -0.9873 0.1582 -0.0140
vn 0.0038 0.3619 0.9322
vn 0.0794 0.3504 0.9332
vn -0.9840 0.1743 0.0366
vn 0.0294 -0.2855 0.9579
vn -0.9968 -0.0570 -0.0568
vn 0.9959 0.0551 0.0712
vn -0.0220 0.2729 -0.9618
vn -0.0027 0.2071 -0.9783
vn 0.9911 0.1332 -0.0086
vn -0.9994 -0.0344 0.0096
vn 0.0035 -0.1126 0.9936
vn 0.0719 -0.2733 0.9592
vn -0.9964 -0.0780 0.0333
vn -0.0713 0.2611 -0.9627
vn 0.9967 0.0760 -0.0270
vn 0.1408 -0.0957 0.9854
vn -0.8024 0.5956 0.0371
vn -0.0630 0.2503 -0.9661
vn -0.4248 0.9051 -0.0180
vn 0.1136 -0.1716 0.9786
vn 0.4965 -0.8678 0.0201
vn 0.8544 -0.5187 -0.0301
vn -0.1133 0.1922 -0.9748
vn -0.8019 0.5974 -0.0092
vn 0.8537 -0.5207 0.0071
vn 0.9950 0.0998 -0.0036
vn 0.0964 0.7495 0.6550
vn -0.6283 -0.7760 -0.0549
vn -0.0001 -0.0690 0.9976
vn -0.1340 -0.6839 -0.7172
vn 0.9986 0.0526 0.0060
vn -0.0789 -0.0120 0.9968
vn -0.0009 -0.0694 0.9976
vn 0.3316 0.0517 -0.9420
vn 0.6640 0.7315 0.1548
vn 0.5893 0.8046 0.0733
vn -0.6313 -0.7708 0.0856
vn 0.5822 0.8113 0.0538
vn 0.1921 0.2331 -0.9533
vn -0.7342 0.6413 -0.2230
vn 0.7581 -0.6518 -0.0233
vn 0.5970 0.8021 -0.0118
vn -0.3467 -0.9341 -0.0851
vn 0.6323 0.7405 0.2279
vn -0.8866 -0.4106 -0.2130
vn 0.2596 -0.0075 -0.9657
vn 0.9866 -0.1627 0.0069
vn 0.7584 -0.6516 -0.0151
vn 0.2979 -0.1016 -0.9492
vn -0.2915 0.1218 0.9488
vn -0.7770 0.6293 0.0142
vn -0.2135 0.1231 0.9692
vn -0.9556 0.2913 -0.0450
vn 0.9856 -0.1614 0.0495
vn -0.9536 0.2909 -0.0770
vn 0.7071 0.3148 -0.6332
vn 0.6005 -0.5934 0.5360
vn -0.7378 -0.6711 -0.0732
vn 0.1703 0.9537 -0.2480
vn 0.5193 0.2364 0.8212
vn -0.8643 -0.2855 0.4140
vn 0.2449 0.1637 -0.9556
vn 0.9078 0.4192 -0.0087
vn 0.4922 -0.1479 -0.8578
vn 0.2280 0.9650 0.1295
vn -0.5095 0.1780 0.8418
vn 0.2157 -0.2631 -0.9404
vn -0.9648 -0.2530 0.0713
vn -0.2155 0.3022 0.9286
vn -0.8829 0.2175 0.4161
vn 0.1760 0.6039 0.7774
vn 0.9289 0.2134 -0.3026
vn 0.0522 0.7381 0.6727
vn -0.0948 -0.6816 -0.7256
vn -0.8507 0.1369 0.5074
vn 0.9331 0.3123 -0.1784
vn 0.2092 0.0986 0.9729
vn -0.1974 -0.5628 -0.8027
vn 0.1020 0.6074 0.7878
vn 0.9940 0.0971 -0.0510
vn -0.1594 -0.5618 -0.8118
vn -0.2565 -0.0090 -0.9665
vn 0.2354 0.1058 0.9661
vn -0.8371 -0.1848 0.5149
vn -0.3127 -0.0250 -0.9495
vn -0.1507 -0.5260 -0.8370
vn -0.1584 0.5230 0.8375
vn 0.1165 0.5684 0.8144
vn -0.2037 -0.5123 -0.8343
vn 0.1817 0.5842 0.7910
vn -0.8872 0.1946 0.4183
vn -0.8167 0.2507 -0.5198
vn -0.4794 0.6706 -0.5661
vn 0.1866 -0.4427 -0.8770
vn 0.5288 -0.6017 0.5985
vn -0.3191 0.3993 0.8595
vn 0.3153 -0.3258 -0.8913
vn 0.8270 -0.1552 0.5403
usemtl AllColors_Material
f 1/1/1 2/2/1 3/3/1 4/4/1
f 5/5/2 1/1/2 6/6/2 7/7/2
f 8/8/3 9/9/3 10/10/3 11/11/3
f 12/12/4 13/13/4 14/14/4 5/5/4
f 13/13/5 15/15/5 2/2/5 14/14/5
f 16/16/6 17/17/6 18/18/6 19/19/6
f 19/19/7 18/18/7 15/15/7 13/13/7
f 16/16/4 19/19/4 13/13/4 12/12/4
f 7/7/8 6/6/8 9/9/8 8/8/8
f 17/17/9 10/10/9 20/20/9 21/21/9
f 9/9/10 6/6/10 22/22/10 23/23/10
f 11/11/4 16/16/4 12/12/4 8/8/4
f 11/11/11 10/10/11 17/17/11 16/16/11
f 8/8/4 12/12/4 5/5/4 7/7/4
f 14/14/12 2/2/12 1/1/12 5/5/12
f 2/2/13 15/15/13 24/24/13 3/3/13
f 25/25/14 26/26/14 27/27/14 28/28/14
f 29/29/15 30/30/15 31/31/15 32/32/15
f 33/33/16 34/34/16 35/35/16 36/36/16
f 37/37/17 29/29/17 32/32/17 38/38/17
f 18/18/18 17/17/18 21/21/18 39/39/18
f 6/6/19 1/1/19 4/4/19 22/22/19
f 15/15/20 18/18/20 39/39/20 24/24/20
f 10/10/21 9/9/21 23/23/21 20/20/21
f 40/40/22 41/41/22 42/42/22 43/43/22
f 38/38/23 32/32/23 44/44/23 45/45/23
f 46/46/24 40/40/24 43/43/24 47/47/24
f 41/41/25 38/38/25 45/45/25 42/42/25
f 26/26/26 33/33/26 46/46/26 27/27/26
f 30/30/27 25/25/27 28/28/27 31/31/27
f 48/48/28 37/37/28 38/38/28 41/41/28
f 40/40/29 46/46/29 49/49/29 50/50/29
f 47/47/30 43/43/30 51/51/30
f 42/42/31 45/45/31 51/51/31
f 52/52/32 53/53/32 51/51/32
f 54/54/33 47/47/33 51/51/33
f 32/32/34 31/31/34 52/52/34 44/44/34
f 28/28/35 27/27/35 54/54/35 53/53/35
f 27/27/36 46/46/36 47/47/36 54/54/36
f 31/31/37 28/28/37 53/53/37 52/52/37
f 55/55/38 56/56/38 26/26/38 25/25/38
f 57/57/39 58/58/39 30/30/39 29/29/39
f 59/59/40 60/60/40 48/48/40 34/34/40
f 61/61/41 57/57/41 29/29/41 37/37/41
f 45/45/42 44/44/42 51/51/42
f 43/43/43 42/42/43 51/51/43
f 44/44/44 52/52/44 51/51/44
f 53/53/45 54/54/45 51/51/45
f 56/56/46 62/62/46 33/33/46 26/26/46
f 58/58/47 55/55/47 25/25/47 30/30/47
f 60/60/48 61/61/48 37/37/48 48/48/48
f 62/62/49 59/59/49 34/34/49 33/33/49
f 49/49/50 36/36/50 63/63/50
f 50/50/51 49/49/51 63/63/51
f 48/48/52 41/41/52 64/64/52 65/65/52
f 41/41/53 40/40/53 50/50/53 64/64/53
f 46/46/54 33/33/54 36/36/54 49/49/54
f 34/34/55 48/48/55 65/65/55 35/35/55
f 36/36/56 35/35/56 63/63/56
f 65/65/57 64/64/57 63/63/57
f 64/64/58 50/50/58 63/63/58
f 35/35/59 65/65/59 63/63/59
f 3/3/60 24/24/60 59/59/60 62/62/60
f 61/61/61 60/60/61 66/66/61 67/67/61
f 20/20/62 23/23/62 68/68/62 69/69/62
f 4/4/63 3/3/63 62/62/63 56/56/63
f 21/21/64 20/20/64 70/70/64 71/71/64
f 24/24/65 39/39/65 60/60/65 59/59/65
f 22/22/66 55/55/66 72/72/66 73/73/66
f 22/22/67 4/4/67 56/56/67 55/55/67
f 74/74/68 69/69/68 75/75/68 76/76/68
f 77/77/69 74/74/69 76/76/69 78/78/69
f 58/58/70 57/57/70 74/74/70 77/77/70
f 23/23/71 22/22/71 73/73/71 68/68/71
f 55/55/72 58/58/72 77/77/72 72/72/72
f 57/57/73 20/20/73 69/69/73 74/74/73
f 79/79/74 80/80/74 81/81/74 82/82/74
f 83/83/75 78/78/75 84/84/75 85/85/75
f 72/72/76 83/83/76 86/86/76 87/87/76
f 69/69/77 68/68/77 88/88/77 89/89/77
f 72/72/78 77/77/78 78/78/78 83/83/78
f 68/68/79 73/73/79 80/80/79 79/79/79
f 90/90/80 91/91/80 92/92/80
f 84/84/81 90/90/81 92/92/81
f 78/78/82 76/76/82 90/90/82 84/84/82
f 76/76/83 75/75/83 91/91/83 90/90/83
f 80/80/84 83/83/84 85/85/84 81/81/84
f 75/75/85 79/79/85 82/82/85 91/91/85
f 81/81/86 85/85/86 92/92/86
f 91/91/87 82/82/87 92/92/87
f 85/85/88 84/84/88 92/92/88
f 82/82/89 81/81/89 92/92/89
f 87/87/90 86/86/90 93/93/90
f 73/73/91 72/72/91 87/87/91 94/94/91
f 80/80/92 73/73/92 94/94/92 95/95/92
f 83/83/93 80/80/93 95/95/93 86/86/93
f 94/94/94 87/87/94 93/93/94
f 95/95/95 94/94/95 93/93/95
f 86/86/96 95/95/96 93/93/96
f 96/96/97 97/97/97 98/98/97
f 75/75/98 69/69/98 89/89/98 97/97/98
f 79/79/99 75/75/99 97/97/99 96/96/99
f 68/68/100 79/79/100 96/96/100 88/88/100
f 97/97/101 89/89/101 98/98/101
f 89/89/102 88/88/102 98/98/102
f 88/88/103 96/96/103 98/98/103
f 99/99/104 100/100/104 101/101/104 102/102/104
f 103/103/105 104/104/105 105/105/105 106/106/105
f 60/60/106 39/39/106 107/107/106 66/66/106
f 57/57/107 61/61/107 67/67/107 108/108/107
f 39/39/108 21/21/108 71/71/108 107/107/108
f 20/20/109 57/57/109 108/108/109 70/70/109
f 105/105/110 109/109/110 110/110/110
f 101/101/111 106/106/111 110/110/111
f 111/111/112 99/99/112 102/102/112 112/112/112
f 100/100/113 103/103/113 106/106/113 101/101/113
f 104/104/114 113/113/114 109/109/114 105/105/114
f 113/113/115 111/111/115 112/112/115 109/109/115
f 109/109/116 112/112/116 110/110/116
f 106/106/117 105/105/117 110/110/117
f 102/102/118 101/101/118 110/110/118
f 112/112/119 102/102/119 110/110/119
f 107/107/120 71/71/120 111/111/120 113/113/120
f 104/104/121 66/66/121 114/114/121 115/115/121
f 108/108/122 67/67/122 103/103/122 100/100/122
f 71/71/123 70/70/123 99/99/123 111/111/123
f 67/67/124 66/66/124 104/104/124 103/103/124
f 70/70/125 108/108/125 100/100/125 99/99/125
f 116/116/126 115/115/126 117/117/126
f 113/113/127 104/104/127 115/115/127 116/116/127
f 107/107/128 113/113/128 116/116/128 118/118/128
f 66/66/129 107/107/129 118/118/129 114/114/129
f 115/115/130 114/114/130 117/117/130
f 118/118/131 116/116/131 117/117/131
f 114/114/132 118/118/132 117/117/132
