mtllib forest_nature_set_all_in.mtl
o forest_Flower_bush_white_Plane_023
v -21.196903 0.444516 10.427775
v -21.294922 0.366610 10.655313
v -21.544453 0.415505 10.503862
v -21.259226 0.397724 10.645380
v -21.179081 0.460652 10.454995
v -20.996386 0.279032 10.671415
v -20.916288 0.307166 10.426670
v -20.949167 0.294926 10.391197
v -21.048277 0.260794 10.683669
v -20.804497 0.000000 10.608792
v -20.839151 0.000000 10.584569
v -20.850801 0.000000 10.636700
v -20.804396 0.000000 10.619882
v -20.797585 0.000000 10.602265
v -20.826462 0.000000 10.633148
v -20.837454 0.000000 10.631680
v -20.847544 0.000000 10.583364
v -20.638563 0.294926 10.515615
v -20.914091 0.260794 10.376161
v -20.815266 0.366610 10.147481
v -20.603867 0.444516 10.276677
v -20.678328 0.307166 10.543149
v -20.909294 0.279032 10.429264
v -20.810476 0.397724 10.184223
v -20.669498 0.415505 9.909086
v -20.633331 0.460652 10.290472
v -20.440878 0.444516 10.746208
v -20.350342 0.366610 10.515590
v -20.135746 0.415505 10.684924
v -20.385695 0.397724 10.526685
v -20.459579 0.460652 10.719584
v -20.653700 0.279032 10.546332
v -20.725760 0.307166 10.793563
v -20.691742 0.294926 10.827943
v -20.602236 0.260794 10.532391
v -20.847490 0.000000 10.614799
v -20.812061 0.000000 10.637877
v -20.802120 0.000000 10.585394
v -20.847952 0.000000 10.603719
v -20.852951 0.000000 10.624483
v -20.828638 0.000000 10.589892
v -20.835302 0.000000 10.582345
v -20.800852 0.000000 10.636271
v -21.027981 0.294926 10.722412
v -20.735771 0.260794 10.822291
v -20.829868 0.366610 11.064039
v -21.057146 0.444516 10.965423
v -20.992422 0.307166 10.689629
v -20.747889 0.279032 10.770368
v -20.839706 0.397724 11.028317
v -20.974957 0.415505 11.296913
v -21.029881 0.460652 10.947673
v -20.994263 0.538662 10.449688
v -21.007103 0.524963 10.431247
v -21.020134 0.534447 10.452053
v -20.854448 0.173679 10.632180
v -20.803770 0.173547 10.634171
v -20.906979 0.373253 10.538748
v -20.946827 0.368220 10.532090
v -20.826042 0.000000 10.587717
v -20.830330 0.178104 10.593029
v -20.805494 0.000000 10.623308
v -20.927790 0.380806 10.509722
v -20.846590 0.000000 10.623308
v -20.620998 0.546008 10.568461
v -20.641558 0.565963 10.562592
v -20.639711 0.554306 10.589352
v -20.809002 0.174285 10.642060
v -20.777935 0.173983 10.616727
v -20.705803 0.399161 10.586902
v -20.732267 0.395236 10.603074
v -20.825001 0.000000 10.589418
v -20.817019 0.177532 10.602995
v -20.787489 0.000000 10.606206
v -20.741858 0.406310 10.577323
v -20.820784 0.000000 10.630299
v -20.862270 0.524730 10.862304
v -20.882988 0.531103 10.846369
v -20.887184 0.517008 10.868896
v -20.840462 0.173976 10.640120
v -20.802177 0.173855 10.626206
v -20.821192 0.368864 10.729616
v -20.850805 0.364356 10.741343
v -20.832848 0.177707 10.599199
v -20.805761 0.000000 10.612166
v -20.845045 0.375461 10.710635
v -20.888340 0.544394 10.848751
v -20.881990 0.526474 10.879300
v -20.862635 0.534719 10.877989
v -20.848532 0.547368 10.831777
v -20.878611 0.498424 10.888082
v -20.910816 0.508285 10.854843
v -20.904432 0.488837 10.922682
v -20.906256 0.493621 10.925867
v -20.947496 0.460272 10.915070
v -20.899197 0.544717 10.824962
v -20.903723 0.579605 10.798270
v -20.901867 0.574733 10.795027
v -20.896292 0.537092 10.819885
v -20.850782 0.555034 10.837165
v -20.838243 0.592016 10.817093
v -20.836390 0.587143 10.813849
v -20.810425 0.592050 10.834084
v -20.795786 0.550905 10.904260
v -20.770647 0.563982 10.860478
v -20.808210 0.586234 10.830212
v -20.842047 0.528364 10.882223
v -20.838804 0.521642 10.875982
v -20.793570 0.545090 10.900389
v -20.814434 0.525387 10.918806
v -20.816406 0.530564 10.922253
v -20.821903 0.483144 10.952574
v -20.881584 0.506772 10.892033
v -20.877922 0.494742 10.940863
v -20.875952 0.489565 10.937416
v -20.864187 0.590814 10.766658
v -20.913527 0.515810 10.860181
v -20.953434 0.507009 10.878764
v -20.951612 0.502225 10.875580
v -20.963823 0.518967 10.855666
v -20.961742 0.513507 10.852031
v -20.932215 0.566197 10.802810
v -20.930138 0.560736 10.799174
v -20.979530 0.523647 10.801551
v -20.864908 0.548031 10.856694
v -20.897026 0.530379 10.864832
v -21.031870 0.539743 10.424716
v -21.009027 0.558107 10.458097
v -20.988562 0.556289 10.442128
v -20.993593 0.512652 10.398859
v -20.997147 0.548687 10.491325
v -21.049643 0.530035 10.473743
v -21.010935 0.585705 10.529016
v -21.012438 0.592478 10.526319
v -21.059299 0.572585 10.569599
v -21.054365 0.518674 10.415108
v -21.076107 0.514300 10.365306
v -21.074579 0.507403 10.368053
v -21.051971 0.507879 10.419407
v -20.995111 0.523603 10.394464
v -20.994762 0.522385 10.340277
v -20.993233 0.515488 10.343024
v -20.955633 0.531790 10.340064
v -20.903107 0.573970 10.416704
v -20.894482 0.529900 10.370567
v -20.953808 0.523558 10.343343
v -20.962109 0.550720 10.444164
v -20.959951 0.539195 10.446762
v -20.901278 0.565737 10.419983
v -20.914566 0.578418 10.457860
v -20.916193 0.585747 10.454942
v -20.902542 0.588949 10.523335
v -21.000204 0.558797 10.485675
v -20.973721 0.600363 10.523699
v -20.972095 0.593034 10.526618
v -21.045532 0.477388 10.322886
v -21.051689 0.540979 10.469625
v -21.088511 0.566125 10.502542
v -21.087008 0.559353 10.505239
v -21.111971 0.552869 10.480874
v -21.110254 0.545138 10.483953
v -21.104950 0.518863 10.391574
v -21.103235 0.511133 10.394653
v -21.153399 0.504792 10.451808
v -21.002132 0.543376 10.417266
v -21.032990 0.550040 10.451196
v -20.643213 0.576110 10.561072
v -20.620539 0.567146 10.592175
v -20.607117 0.556295 10.576745
v -20.633038 0.540558 10.531034
v -20.621891 0.547956 10.618362
v -20.665115 0.572192 10.602690
v -20.611492 0.572290 10.659095
v -20.608034 0.577864 10.658181
v -20.654173 0.586739 10.694603
v -20.669569 0.578858 10.549994
v -20.681404 0.598718 10.507357
v -20.684925 0.593042 10.508287
v -20.675079 0.569975 10.551451
v -20.626867 0.549013 10.529472
v -20.622282 0.557948 10.482307
v -20.625803 0.552272 10.483238
v -20.591570 0.539559 10.481578
v -20.539448 0.518938 10.552987
v -20.556669 0.495016 10.503874
v -20.595774 0.532785 10.482689
v -20.593885 0.536152 10.575798
v -20.599834 0.527278 10.575652
v -20.543648 0.512162 10.554096
v -20.547894 0.521233 10.590183
v -20.544153 0.527266 10.589195
v -20.539944 0.508295 10.648190
v -20.617096 0.557076 10.615643
v -20.578293 0.559237 10.655095
v -20.582033 0.553206 10.656084
v -20.680603 0.564932 10.461525
v -20.659309 0.580919 10.601398
v -20.670416 0.613090 10.637075
v -20.673872 0.607516 10.637989
v -20.691452 0.623427 10.617153
v -20.695396 0.617064 10.618196
v -20.699444 0.614550 10.532752
v -20.703390 0.608189 10.533795
v -20.744616 0.624879 10.585089
v -20.621344 0.561310 10.553518
v -20.640099 0.578278 10.586082
vt 0.140080 0.901813
vt 0.154854 0.896771
vt 0.120129 0.973542
vt 0.154419 0.902513
vt 0.142044 0.906403
vt 0.169594 0.759096
vt 0.150196 0.769955
vt 0.147026 0.765836
vt 0.170180 0.752425
vt 0.146223 0.572396
vt 0.142830 0.572396
vt 0.172761 0.572396
vt 0.171255 0.572396
vt 0.142830 0.572396
vt 0.146223 0.572396
vt 0.171255 0.572396
vt 0.172761 0.572396
vt 0.147026 0.765836
vt 0.170180 0.752425
vt 0.154854 0.896771
vt 0.140080 0.901813
vt 0.150196 0.769955
vt 0.169594 0.759096
vt 0.154419 0.902513
vt 0.120129 0.973542
vt 0.142044 0.906403
vt 0.140080 0.901813
vt 0.154854 0.896771
vt 0.120129 0.973542
vt 0.154419 0.902513
vt 0.142044 0.906403
vt 0.169594 0.759096
vt 0.150196 0.769955
vt 0.147026 0.765836
vt 0.170180 0.752425
vt 0.146223 0.572396
vt 0.142830 0.572396
vt 0.172761 0.572396
vt 0.171255 0.572396
vt 0.142830 0.572396
vt 0.146223 0.572396
vt 0.171255 0.572396
vt 0.172761 0.572396
vt 0.147026 0.765836
vt 0.170180 0.752425
vt 0.154854 0.896771
vt 0.140080 0.901813
vt 0.150196 0.769955
vt 0.169594 0.759096
vt 0.154419 0.902513
vt 0.120129 0.973542
vt 0.142044 0.906403
vt 0.140745 0.942775
vt 0.137810 0.946020
vt 0.135874 0.938845
vt 0.170144 0.659988
vt 0.178438 0.659929
vt 0.164502 0.817027
vt 0.156536 0.814117
vt 0.174582 0.522586
vt 0.173956 0.661997
vt 0.180599 0.522586
vt 0.160058 0.821393
vt 0.168565 0.522586
vt 0.140745 0.942775
vt 0.137810 0.946020
vt 0.135874 0.938845
vt 0.170144 0.659988
vt 0.178438 0.659929
vt 0.164502 0.817027
vt 0.156536 0.814117
vt 0.174582 0.522586
vt 0.173956 0.661997
vt 0.180599 0.522586
vt 0.160058 0.821393
vt 0.168565 0.522586
vt 0.140745 0.942775
vt 0.137810 0.946020
vt 0.135874 0.938845
vt 0.170144 0.659988
vt 0.178438 0.659929
vt 0.164502 0.817027
vt 0.156536 0.814117
vt 0.174582 0.522586
vt 0.173956 0.661997
vt 0.180599 0.522586
vt 0.160058 0.821393
vt 0.251434 0.468267
vt 0.241812 0.468267
vt 0.261056 0.468267
vt 0.283301 0.018833
vt 0.231739 0.018833
vt 0.219567 0.018833
vt 0.829879 0.645009
vt 0.829879 0.645009
vt 0.814756 0.687908
vt 0.850060 0.850223
vt 0.855831 0.938211
vt 0.855831 0.938211
vt 0.850060 0.850223
vt 0.862503 0.790464
vt 0.873379 0.853933
vt 0.862503 0.790464
vt 0.873379 0.853933
vt 0.876945 0.781375
vt 0.870242 0.645009
vt 0.885365 0.687908
vt 0.876945 0.781375
vt 0.857750 0.693772
vt 0.857750 0.693772
vt 0.870242 0.645009
vt 0.860905 0.600166
vt 0.860905 0.600166
vt 0.850060 0.518345
vt 0.842371 0.693772
vt 0.839215 0.600166
vt 0.842371 0.693772
vt 0.839215 0.600166
vt 0.871880 0.962267
vt 0.837618 0.790464
vt 0.823176 0.781375
vt 0.837618 0.790464
vt 0.823176 0.781375
vt 0.826742 0.853933
vt 0.826742 0.853933
vt 0.844290 0.938211
vt 0.844290 0.938211
vt 0.828241 0.962267
vt 0.267003 0.468267
vt 0.283301 0.250547
vt 0.251434 0.250547
vt 0.271129 0.250547
vt 0.231739 0.250547
vt 0.235865 0.468267
vt 0.219567 0.250547
vt 0.251434 0.018833
vt 0.271129 0.018833
vt 0.251434 0.468267
vt 0.241812 0.468267
vt 0.261056 0.468267
vt 0.283301 0.018833
vt 0.231739 0.018833
vt 0.219567 0.018833
vt 0.829879 0.645009
vt 0.829879 0.645009
vt 0.814756 0.687908
vt 0.850060 0.850223
vt 0.855831 0.938211
vt 0.855831 0.938211
vt 0.850060 0.850223
vt 0.862503 0.790464
vt 0.873379 0.853933
vt 0.862503 0.790464
vt 0.873379 0.853933
vt 0.876945 0.781375
vt 0.870242 0.645009
vt 0.885365 0.687908
vt 0.876945 0.781375
vt 0.857750 0.693772
vt 0.857750 0.693772
vt 0.870242 0.645009
vt 0.860905 0.600166
vt 0.860905 0.600166
vt 0.850060 0.518345
vt 0.842371 0.693772
vt 0.839215 0.600166
vt 0.842371 0.693772
vt 0.839215 0.600166
vt 0.871880 0.962267
vt 0.837618 0.790464
vt 0.823176 0.781375
vt 0.837618 0.790464
vt 0.823176 0.781375
vt 0.826742 0.853933
vt 0.826742 0.853933
vt 0.844290 0.938211
vt 0.844290 0.938211
vt 0.828241 0.962267
vt 0.267003 0.468267
vt 0.283301 0.250547
vt 0.251434 0.250547
vt 0.271129 0.250547
vt 0.231739 0.250547
vt 0.235865 0.468267
vt 0.219567 0.250547
vt 0.251434 0.018833
vt 0.271129 0.018833
vt 0.251434 0.468267
vt 0.241812 0.468267
vt 0.261056 0.468267
vt 0.283301 0.018833
vt 0.231739 0.018833
vt 0.219567 0.018833
vt 0.829879 0.645009
vt 0.829879 0.645009
vt 0.814756 0.687908
vt 0.850060 0.850223
vt 0.855831 0.938211
vt 0.855831 0.938211
vt 0.850060 0.850223
vt 0.862503 0.790464
vt 0.873379 0.853933
vt 0.862503 0.790464
vt 0.873379 0.853933
vt 0.876945 0.781375
vt 0.870242 0.645009
vt 0.885365 0.687908
vt 0.876945 0.781375
vt 0.857750 0.693772
vt 0.857750 0.693772
vt 0.870242 0.645009
vt 0.860905 0.600166
vt 0.860905 0.600166
vt 0.850060 0.518345
vt 0.842371 0.693772
vt 0.839215 0.600166
vt 0.842371 0.693772
vt 0.839215 0.600166
vt 0.871880 0.962267
vt 0.837618 0.790464
vt 0.823176 0.781375
vt 0.837618 0.790464
vt 0.823176 0.781375
vt 0.826742 0.853933
vt 0.826742 0.853933
vt 0.844290 0.938211
vt 0.844290 0.938211
vt 0.828241 0.962267
vt 0.267003 0.468267
vt 0.283301 0.250547
vt 0.251434 0.250547
vt 0.271129 0.250547
vt 0.231739 0.250547
vt 0.235865 0.468267
vt 0.219567 0.250547
vt 0.251434 0.018833
vt 0.271129 0.018833
vn 0.0089 -0.9472 -0.3205
vn -0.0804 0.9560 0.2821
vn -0.1664 0.8922 -0.4199
vn 0.4344 0.8361 0.3350
vn 0.3480 0.7158 -0.6054
vn 0.0482 0.3372 0.9402
vn -0.3237 0.6039 0.7283
vn 0.6690 -0.1999 -0.7158
vn 0.2790 0.0262 0.9599
vn -0.7960 -0.5214 -0.3075
vn 0.8147 0.4909 0.3087
vn -0.4354 -0.8318 -0.3443
vn 0.0000 -1.0000 0.0000
vn 0.3904 -0.8503 -0.3530
vn -0.4267 0.4476 0.7859
vn 0.4244 -0.4775 -0.7694
vn -0.9782 -0.1248 0.1660
vn 0.6346 -0.0989 0.7665
vn -0.7635 0.5385 -0.3564
vn -0.8795 0.4504 -0.1535
vn 0.5662 0.6575 0.4971
vn -0.3823 0.8528 0.3559
vn 0.4218 0.8949 -0.1459
vn -0.2875 0.9539 -0.0857
vn 0.3383 -0.9409 0.0139
vn -0.0281 -0.9503 0.3100
vn 0.1042 0.9566 -0.2721
vn 0.1693 0.8911 0.4211
vn -0.4739 0.8179 -0.3264
vn -0.2699 0.7625 0.5880
vn -0.1585 0.2105 -0.9647
vn 0.3702 0.6554 -0.6584
vn -0.6455 -0.1932 0.7390
vn -0.3093 0.0315 -0.9504
vn 0.8001 -0.5302 0.2806
vn -0.8191 0.4998 -0.2815
vn 0.4781 -0.8114 0.3364
vn -0.3296 -0.8673 0.3731
vn 0.3108 0.4512 -0.8366
vn -0.3133 -0.4805 0.8191
vn 0.9163 0.0183 -0.4000
vn -0.7180 -0.1836 -0.6714
vn 0.7270 0.6043 0.3261
vn 0.8490 0.5221 0.0813
vn -0.6444 0.6134 -0.4567
vn 0.3220 0.8683 -0.3773
vn -0.4114 0.8935 0.1802
vn 0.2828 0.9559 0.0791
vn -0.3232 -0.9463 -0.0027
vn -0.1836 0.8460 -0.5006
vn -0.1086 0.3979 0.9110
vn 0.8526 0.0302 -0.5217
vn -0.1163 0.4059 0.9065
vn 0.8031 0.1160 -0.5844
vn -0.0217 -0.0571 0.9981
vn -0.6021 -0.5535 -0.5754
vn 0.8295 0.1786 -0.5292
vn -0.8581 -0.0089 -0.5133
vn -0.6363 -0.5754 -0.5139
vn 0.6285 0.7280 0.2738
vn 0.5865 -0.0713 0.8068
vn 0.3716 0.0450 -0.9273
vn 0.5959 -0.2658 0.7578
vn 0.1654 -0.2043 -0.9648
vn 0.6065 -0.0877 0.7903
vn -0.8841 0.3441 0.3162
vn 0.2641 -0.2010 -0.9433
vn -0.9872 0.0444 0.1529
vn -0.7736 0.5026 0.3860
vn -0.1293 0.8513 0.5086
vn 0.3442 -0.4198 0.8398
vn 0.6872 0.0519 -0.7246
vn 0.3744 -0.5412 0.7530
vn 0.5920 0.6070 -0.5302
vn 0.3005 -0.0926 0.9493
vn -0.9837 0.0391 -0.1756
vn 0.6327 0.4097 -0.6571
vn -0.9738 0.0451 -0.2227
vn -0.9762 -0.0566 -0.2093
vn -0.3023 0.7934 0.5283
vn 0.3023 -0.7935 -0.5283
vn 0.1794 -0.4969 0.8491
vn -0.9533 -0.2515 -0.1674
vn -0.3199 0.5415 0.7775
vn 0.8760 -0.0438 0.4804
vn 0.3179 -0.4791 -0.8181
vn 0.3111 0.8467 0.4316
vn -0.4314 0.4093 -0.8040
vn -0.5620 0.6580 0.5012
vn -0.0640 -0.6432 0.7630
vn 0.5937 -0.6332 -0.4966
vn 0.9280 0.1184 0.3533
vn 0.6414 0.6336 -0.4326
vn -0.4284 0.8717 0.2377
vn -0.9411 -0.3379 -0.0113
vn 0.4534 -0.8726 -0.1814
vn -0.2089 0.9743 0.0842
vn 0.8083 -0.0245 0.5883
vn -0.0569 0.9439 0.3252
vn -0.4606 0.3844 -0.8001
vn -0.0029 -0.9613 -0.2753
vn 0.6947 0.5625 -0.4482
vn -0.1068 -0.5916 0.7991
vn 0.0123 0.7533 0.6576
vn 0.6803 0.5676 -0.4636
vn -0.0645 -0.7374 -0.6724
vn 0.7408 0.5440 -0.3940
vn -0.0627 0.5428 0.8375
vn -0.8596 -0.4663 0.2091
vn 0.8673 -0.0010 0.4978
vn -0.5561 0.4647 0.6891
vn 0.2414 -0.9461 -0.2158
vn -0.2809 -0.6037 0.7461
vn -0.6510 0.7164 0.2509
vn -0.1250 -0.8670 -0.4823
vn -0.9532 -0.2515 -0.1676
vn 0.1383 -0.6332 -0.7615
vn -0.3558 0.4203 -0.8347
vn 0.4940 -0.5697 -0.6568
vn 0.5524 -0.7580 -0.3469
vn -0.6468 0.2361 -0.7252
vn -0.2278 0.9628 0.1456
vn 0.1965 0.8539 0.4819
vn -0.0867 0.4936 0.8654
vn -0.5698 0.4325 0.6988
vn -0.6594 0.6953 0.2860
vn -0.3022 0.7935 0.5282
vn -0.3022 0.7934 0.5283
vn 0.3022 -0.7935 -0.5283
vn -0.2019 0.9099 -0.3624
vn 0.2019 -0.9099 0.3623
vn 0.5169 0.4133 0.7497
vn -0.9143 -0.0418 0.4029
vn -0.1025 0.9942 -0.0324
vn 0.9851 0.1720 0.0089
vn 0.0792 -0.9961 -0.0384
vn 0.3307 0.7126 -0.6188
vn -0.7256 -0.3606 -0.5860
vn -0.4365 0.8800 -0.1872
vn 0.2789 0.3251 0.9036
vn 0.4645 -0.8711 0.1593
vn 0.9703 0.1359 -0.2000
vn 0.3728 -0.1908 -0.9081
vn -0.4278 0.7374 -0.5227
vn -0.8394 0.0410 0.5420
vn 0.4703 -0.6969 0.5414
vn -0.2878 0.6100 -0.7383
vn 0.9561 0.2872 0.0584
vn -0.0607 0.7594 -0.6478
vn -0.7485 -0.3632 -0.5549
vn 0.0240 -0.7127 0.7010
vn 0.4257 -0.2518 -0.8691
vn 0.2448 0.3912 0.8872
vn 0.1402 0.9234 -0.3573
vn 0.4066 -0.2588 -0.8762
vn -0.1959 -0.9154 0.3515
vn 0.4895 -0.2268 -0.8420
vn 0.1574 0.9845 -0.0775
vn -0.6724 0.1400 0.7268
vn 0.9776 0.2098 -0.0179
vn -0.3432 0.9374 0.0592
vn 0.2700 -0.7128 0.6473
vn 0.0659 0.3818 0.9219
vn -0.6115 0.7223 -0.3231
vn -0.1718 -0.8086 0.5628
vn -0.9144 -0.0430 0.4024
vn -0.0499 -0.9846 0.1675
vn -0.6669 -0.3987 -0.6295
vn 0.3094 -0.9489 0.0619
vn 0.4923 -0.7999 0.3433
vn -0.8782 -0.3318 -0.3443
vn -0.2832 0.6597 -0.6961
vn 0.2399 0.7849 -0.5713
vn 0.1507 0.9884 -0.0166
vn -0.3487 0.9324 0.0948
vn -0.6048 0.7428 -0.2873
vn -0.2019 0.9099 -0.3623
vn -0.2020 0.9099 -0.3624
vn 0.2020 -0.9099 0.3624
vn 0.5219 0.8418 -0.1379
vn -0.5220 -0.8417 0.1379
vn 0.5759 -0.2279 0.7851
vn -0.7263 0.5234 0.4455
vn 0.6163 0.7630 0.1949
vn 0.8227 -0.5680 -0.0211
vn -0.6269 -0.7335 -0.2625
vn 0.7941 0.3883 -0.4675
vn -0.7063 0.3761 -0.5998
vn 0.3149 0.9482 0.0420
vn 0.3283 -0.1555 0.9317
vn -0.2858 -0.9558 -0.0691
vn 0.8096 -0.5394 -0.2314
vn 0.2313 -0.2041 -0.9512
vn 0.2583 0.9128 -0.3165
vn -0.6299 0.5004 0.5940
vn -0.2019 -0.9183 0.3407
vn 0.2934 0.7720 -0.5639
vn 0.8762 -0.4788 0.0546
vn 0.5494 0.6985 -0.4585
vn -0.7278 0.3836 -0.5685
vn -0.5492 -0.6517 0.5232
vn 0.2229 -0.2910 -0.9304
vn 0.3513 -0.0827 0.9326
vn 0.7756 0.6122 -0.1536
vn 0.2053 -0.2812 -0.9375
vn -0.8094 -0.5668 0.1535
vn 0.2830 -0.3234 -0.9029
vn 0.8005 0.5848 0.1310
vn -0.4616 0.4147 0.7842
vn 0.8464 -0.5312 -0.0382
vn 0.3952 0.8723 0.2880
vn -0.3674 -0.8117 0.4540
vn 0.2131 0.0279 0.9766
vn 0.0952 0.9890 -0.1130
vn -0.7408 -0.5532 0.3810
vn -0.7267 0.5234 0.4450
vn -0.7332 -0.6781 -0.0508
vn -0.6858 0.3178 -0.6547
vn -0.4402 -0.8816 -0.1704
vn -0.2362 -0.9638 0.1237
vn -0.8213 0.4523 -0.3479
vn 0.3264 0.7944 -0.5123
vn 0.7741 0.4914 -0.3991
vn 0.7920 0.5798 0.1915
vn 0.3840 0.8654 0.3219
vn 0.1103 0.9911 -0.0742
vn 0.5220 0.8417 -0.1380
vn 0.5221 0.8417 -0.1380
usemtl AllColors_Material
f 1/1/1 2/2/1 3/3/1
f 4/4/2 5/5/2 3/3/2
f 5/5/3 1/1/3 3/3/3
f 6/6/4 7/7/4 5/5/4 4/4/4
f 7/7/5 8/8/5 1/1/5 5/5/5
f 9/9/6 6/6/6 4/4/6 2/2/6
f 2/2/7 4/4/7 3/3/7
f 10/10/8 11/11/8 8/8/8 7/7/8
f 12/12/9 13/13/9 6/6/9 9/9/9
f 11/11/10 12/12/10 9/9/10 8/8/10
f 13/13/11 10/10/11 7/7/11 6/6/11
f 8/8/12 9/9/12 2/2/12 1/1/12
f 11/11/13 10/10/13 13/13/13 12/12/13
f 14/14/13 15/15/13 16/16/13 17/17/13
f 18/18/14 19/19/14 20/20/14 21/21/14
f 16/16/15 15/15/15 22/22/15 23/23/15
f 14/14/16 17/17/16 19/19/16 18/18/16
f 17/17/17 16/16/17 23/23/17 19/19/17
f 15/15/18 14/14/18 18/18/18 22/22/18
f 20/20/19 24/24/19 25/25/19
f 19/19/20 23/23/20 24/24/20 20/20/20
f 22/22/21 18/18/21 21/21/21 26/26/21
f 23/23/22 22/22/22 26/26/22 24/24/22
f 26/26/23 21/21/23 25/25/23
f 24/24/24 26/26/24 25/25/24
f 21/21/25 20/20/25 25/25/25
f 27/27/26 28/28/26 29/29/26
f 30/30/27 31/31/27 29/29/27
f 31/31/28 27/27/28 29/29/28
f 32/32/29 33/33/29 31/31/29 30/30/29
f 33/33/30 34/34/30 27/27/30 31/31/30
f 35/35/31 32/32/31 30/30/31 28/28/31
f 28/28/32 30/30/32 29/29/32
f 36/36/33 37/37/33 34/34/33 33/33/33
f 38/38/34 39/39/34 32/32/34 35/35/34
f 37/37/35 38/38/35 35/35/35 34/34/35
f 39/39/36 36/36/36 33/33/36 32/32/36
f 34/34/37 35/35/37 28/28/37 27/27/37
f 37/37/13 36/36/13 39/39/13 38/38/13
f 40/40/13 41/41/13 42/42/13 43/43/13
f 44/44/38 45/45/38 46/46/38 47/47/38
f 42/42/39 41/41/39 48/48/39 49/49/39
f 40/40/40 43/43/40 45/45/40 44/44/40
f 43/43/41 42/42/41 49/49/41 45/45/41
f 41/41/42 40/40/42 44/44/42 48/48/42
f 46/46/43 50/50/43 51/51/43
f 45/45/44 49/49/44 50/50/44 46/46/44
f 48/48/45 44/44/45 47/47/45 52/52/45
f 49/49/46 48/48/46 52/52/46 50/50/46
f 52/52/47 47/47/47 51/51/47
f 50/50/48 52/52/48 51/51/48
f 47/47/49 46/46/49 51/51/49
f 53/53/50 54/54/50 55/55/50
f 56/56/51 57/57/51 58/58/51 59/59/51
f 60/60/52 61/61/52 57/57/52 62/62/52
f 59/59/53 58/58/53 53/53/53 55/55/53
f 58/58/54 63/63/54 54/54/54 53/53/54
f 62/62/55 57/57/55 56/56/55 64/64/55
f 61/61/56 56/56/56 59/59/56 63/63/56
f 57/57/57 61/61/57 63/63/57 58/58/57
f 64/64/58 56/56/58 61/61/58 60/60/58
f 60/60/13 62/62/13 64/64/13
f 63/63/59 59/59/59 55/55/59 54/54/59
f 65/65/60 66/66/60 67/67/60
f 68/68/61 69/69/61 70/70/61 71/71/61
f 72/72/62 73/73/62 69/69/62 74/74/62
f 71/71/63 70/70/63 65/65/63 67/67/63
f 70/70/64 75/75/64 66/66/64 65/65/64
f 74/74/65 69/69/65 68/68/65 76/76/65
f 73/73/66 68/68/66 71/71/66 75/75/66
f 69/69/67 73/73/67 75/75/67 70/70/67
f 76/76/68 68/68/68 73/73/68 72/72/68
f 72/72/13 74/74/13 76/76/13
f 75/75/69 71/71/69 67/67/69 66/66/69
f 77/77/70 78/78/70 79/79/70
f 80/80/71 81/81/71 82/82/71 83/83/71
f 42/84/72 84/85/72 81/81/72 85/86/72
f 83/83/73 82/82/73 77/77/73 79/79/73
f 82/82/74 86/87/74 78/78/74 77/77/74
f 85/86/75 81/81/75 80/80/75 64/64/75
f 84/85/76 80/80/76 83/83/76 86/87/76
f 81/81/77 84/85/77 86/87/77 82/82/77
f 64/64/78 80/80/78 84/85/78 42/84/78
f 42/84/13 85/86/13 64/64/13
f 86/87/79 83/83/79 79/79/79 78/78/79
f 87/88/80 88/89/80 89/90/80
f 90/91/81 91/92/81 92/93/81
f 93/94/82 94/95/82 95/96/82
f 96/97/83 97/98/83 98/99/83 99/100/83
f 100/101/84 101/102/84 97/98/84 96/97/84
f 90/103/85 102/104/85 101/102/85 100/101/85
f 99/100/86 98/99/86 102/104/86 90/103/86
f 103/105/87 104/106/87 105/107/87
f 100/101/88 103/105/88 106/108/88 90/103/88
f 107/109/89 104/106/89 103/105/89 100/101/89
f 108/110/90 109/111/90 104/106/90 107/109/90
f 90/103/91 106/108/91 109/111/91 108/110/91
f 110/112/92 111/113/92 112/114/92
f 107/109/93 111/113/93 110/112/93 108/110/93
f 113/115/94 114/116/94 111/113/94 107/109/94
f 91/117/95 115/118/95 114/116/95 113/115/95
f 108/110/96 110/112/96 115/118/96 91/117/96
f 97/98/97 101/102/97 116/119/97
f 113/115/98 94/95/98 93/94/98 91/117/98
f 117/120/99 118/121/99 94/95/99 113/115/99
f 92/122/100 119/123/100 118/121/100 117/120/100
f 91/117/101 93/94/101 119/123/101 92/122/101
f 106/108/102 103/105/102 105/107/102
f 117/120/103 120/124/103 121/125/103 92/122/103
f 96/97/104 122/126/104 120/124/104 117/120/104
f 99/100/105 123/127/105 122/126/105 96/97/105
f 92/122/106 121/125/106 123/127/106 99/100/106
f 101/102/107 102/104/107 116/119/107
f 111/113/108 114/116/108 112/114/108
f 121/125/109 120/124/109 124/128/109
f 104/106/110 109/111/110 105/107/110
f 94/95/111 118/121/111 95/96/111
f 102/104/112 98/99/112 116/119/112
f 114/116/113 115/118/113 112/114/113
f 120/124/114 122/126/114 124/128/114
f 109/111/115 106/108/115 105/107/115
f 118/121/116 119/123/116 95/96/116
f 115/118/117 110/112/117 112/114/117
f 122/126/118 123/127/118 124/128/118
f 119/123/119 93/94/119 95/96/119
f 123/127/120 121/125/120 124/128/120
f 98/99/121 97/98/121 116/119/121
f 87/88/122 125/129/122 100/130/122 96/131/122
f 125/129/123 89/90/123 107/132/123 100/130/123
f 89/90/124 88/89/124 113/133/124 107/132/124
f 88/89/125 126/134/125 117/135/125 113/133/125
f 126/134/126 87/88/126 96/131/126 117/135/126
f 89/90/127 125/129/127 87/88/127
f 87/88/128 126/134/128 88/89/128
f 92/93/129 99/136/129 90/91/129
f 90/91/81 108/137/81 91/92/81
f 127/138/130 128/139/130 129/140/130
f 130/141/131 131/142/131 132/143/131
f 133/144/132 134/145/132 135/146/132
f 136/147/133 137/148/133 138/149/133 139/150/133
f 140/151/134 141/152/134 137/148/134 136/147/134
f 130/153/135 142/154/135 141/152/135 140/151/135
f 139/150/136 138/149/136 142/154/136 130/153/136
f 143/155/137 144/156/137 145/157/137
f 140/151/138 143/155/138 146/158/138 130/153/138
f 147/159/139 144/156/139 143/155/139 140/151/139
f 148/160/140 149/161/140 144/156/140 147/159/140
f 130/153/141 146/158/141 149/161/141 148/160/141
f 150/162/142 151/163/142 152/164/142
f 147/159/143 151/163/143 150/162/143 148/160/143
f 153/165/144 154/166/144 151/163/144 147/159/144
f 131/167/145 155/168/145 154/166/145 153/165/145
f 148/160/146 150/162/146 155/168/146 131/167/146
f 137/148/147 141/152/147 156/169/147
f 153/165/148 134/145/148 133/144/148 131/167/148
f 157/170/149 158/171/149 134/145/149 153/165/149
f 132/172/150 159/173/150 158/171/150 157/170/150
f 131/167/151 133/144/151 159/173/151 132/172/151
f 146/158/152 143/155/152 145/157/152
f 157/170/153 160/174/153 161/175/153 132/172/153
f 136/147/154 162/176/154 160/174/154 157/170/154
f 139/150/155 163/177/155 162/176/155 136/147/155
f 132/172/156 161/175/156 163/177/156 139/150/156
f 141/152/157 142/154/157 156/169/157
f 151/163/158 154/166/158 152/164/158
f 161/175/159 160/174/159 164/178/159
f 144/156/160 149/161/160 145/157/160
f 134/145/161 158/171/161 135/146/161
f 142/154/162 138/149/162 156/169/162
f 154/166/163 155/168/163 152/164/163
f 160/174/164 162/176/164 164/178/164
f 149/161/165 146/158/165 145/157/165
f 158/171/166 159/173/166 135/146/166
f 155/168/167 150/162/167 152/164/167
f 162/176/168 163/177/168 164/178/168
f 159/173/169 133/144/169 135/146/169
f 163/177/170 161/175/170 164/178/170
f 138/149/171 137/148/171 156/169/171
f 127/138/172 165/179/172 140/180/172 136/181/172
f 165/179/173 129/140/173 147/182/173 140/180/173
f 129/140/174 128/139/174 153/183/174 147/182/174
f 128/139/175 166/184/175 157/185/175 153/183/175
f 166/184/176 127/138/176 136/181/176 157/185/176
f 129/140/177 165/179/177 127/138/177
f 127/138/178 166/184/178 128/139/178
f 132/143/131 139/186/131 130/141/131
f 130/141/179 148/187/179 131/142/179
f 167/188/180 168/189/180 169/190/180
f 170/191/181 171/192/181 172/193/181
f 173/194/182 174/195/182 175/196/182
f 176/197/183 177/198/183 178/199/183 179/200/183
f 180/201/184 181/202/184 177/198/184 176/197/184
f 170/203/185 182/204/185 181/202/185 180/201/185
f 179/200/186 178/199/186 182/204/186 170/203/186
f 183/205/187 184/206/187 185/207/187
f 180/201/188 183/205/188 186/208/188 170/203/188
f 187/209/189 184/206/189 183/205/189 180/201/189
f 188/210/190 189/211/190 184/206/190 187/209/190
f 170/203/191 186/208/191 189/211/191 188/210/191
f 190/212/192 191/213/192 192/214/192
f 187/209/193 191/213/193 190/212/193 188/210/193
f 193/215/194 194/216/194 191/213/194 187/209/194
f 171/217/195 195/218/195 194/216/195 193/215/195
f 188/210/196 190/212/196 195/218/196 171/217/196
f 177/198/197 181/202/197 196/219/197
f 193/215/198 174/195/198 173/194/198 171/217/198
f 197/220/199 198/221/199 174/195/199 193/215/199
f 172/222/200 199/223/200 198/221/200 197/220/200
f 171/217/201 173/194/201 199/223/201 172/222/201
f 186/208/202 183/205/202 185/207/202
f 197/220/203 200/224/203 201/225/203 172/222/203
f 176/197/204 202/226/204 200/224/204 197/220/204
f 179/200/205 203/227/205 202/226/205 176/197/205
f 172/222/206 201/225/206 203/227/206 179/200/206
f 181/202/207 182/204/207 196/219/207
f 191/213/208 194/216/208 192/214/208
f 201/225/209 200/224/209 204/228/209
f 184/206/210 189/211/210 185/207/210
f 174/195/211 198/221/211 175/196/211
f 182/204/212 178/199/212 196/219/212
f 194/216/213 195/218/213 192/214/213
f 200/224/214 202/226/214 204/228/214
f 189/211/215 186/208/215 185/207/215
f 198/221/216 199/223/216 175/196/216
f 195/218/217 190/212/217 192/214/217
f 202/226/218 203/227/218 204/228/218
f 199/223/219 173/194/219 175/196/219
f 203/227/220 201/225/220 204/228/220
f 178/199/221 177/198/221 196/219/221
f 167/188/222 205/229/222 180/230/222 176/231/222
f 205/229/223 169/190/223 187/232/223 180/230/223
f 169/190/224 168/189/224 193/233/224 187/232/224
f 168/189/225 206/234/225 197/235/225 193/233/225
f 206/234/226 167/188/226 176/231/226 197/235/226
f 169/190/227 205/229/227 167/188/227
f 167/188/228 206/234/228 168/189/228
f 172/193/181 179/236/181 170/191/181
f 170/191/181 188/237/181 171/192/181
