mtllib forest_nature_set_all_in.mtl
o forest_Branch_average_bare_Cylinder_024
v -20.673325 0.330545 5.600100
v -20.686373 0.590094 5.347786
v -21.855587 0.487096 5.395163
v -21.826735 0.260589 5.613459
v -20.786415 0.459228 5.062384
v -21.901762 0.372890 5.120862
v -20.746939 0.077083 5.091814
v -21.893631 0.039392 5.145224
v -22.900360 0.151975 5.468419
v -23.224216 0.187879 5.562408
v -23.227394 0.440382 5.543224
v -22.903584 0.424062 5.447717
v -20.622297 0.036859 5.407822
v -21.848722 0.004289 5.447105
v -23.175018 0.360382 5.889625
v -24.566071 0.126592 5.921393
v -24.560804 0.004585 5.841688
v -23.190096 0.161301 5.768404
v -22.865751 0.123335 5.690714
v -23.197231 0.503702 5.699435
v -22.866440 0.511177 5.651688
v -22.844242 0.356626 5.856720
v -23.077572 0.777024 6.069031
v -23.107635 0.719532 6.217727
v -25.951038 0.270288 5.539503
v -24.552153 0.021295 5.710693
v -24.551346 0.180050 5.698494
v -24.559162 0.234417 5.816802
v -22.130423 0.289252 5.686063
v -22.152267 0.039820 5.519813
v -22.157290 0.494284 5.471726
v -22.182364 0.388163 5.266084
v -22.174543 0.072994 5.289059
v -23.288937 0.741922 6.027549
v -23.777292 1.005175 6.221930
v -23.652409 1.086624 6.276092
v -23.314342 0.689088 6.166056
v -24.415913 0.989015 6.361527
v -23.717470 1.051926 6.359378
v -23.840141 0.969445 6.300726
v -22.453403 0.007230 4.652488
v -22.465565 0.235405 4.639804
v -22.596563 0.245854 4.811761
v -23.388390 0.428891 4.599351
v -23.376530 0.271755 4.601751
v -22.585001 0.030220 4.823678
v -23.380478 0.421276 4.442023
v -24.263306 0.192613 4.773931
v -23.367943 0.255002 4.444637
vt 0.534457 0.516985
vt 0.543952 0.516196
vt 0.546009 0.618805
vt 0.537737 0.617952
vt 0.554972 0.522761
vt 0.556437 0.620744
vt 0.553740 0.519534
vt 0.555498 0.620219
vt 0.546689 0.710730
vt 0.544230 0.739770
vt 0.544959 0.739901
vt 0.547476 0.710853
vt 0.541493 0.511052
vt 0.544041 0.618602
vt 0.114387 0.252011
vt 0.138840 0.013353
vt 0.182771 0.356582
vt 0.146475 0.462928
vt 0.531809 0.737970
vt 0.535179 0.859859
vt 0.538148 0.858789
vt 0.536400 0.738362
vt 0.538248 0.709404
vt 0.539007 0.738458
vt 0.539712 0.709166
vt 0.531958 0.708793
vt 0.524769 0.730821
vt 0.519296 0.734588
vt 0.554025 0.978051
vt 0.543027 0.857030
vt 0.543481 0.856866
vt 0.539074 0.858455
vt 0.536012 0.645065
vt 0.542312 0.645703
vt 0.179028 0.046040
vt 0.544130 0.645774
vt 0.551916 0.646394
vt 0.551030 0.645886
vt 0.527016 0.748988
vt 0.521334 0.793181
vt 0.518896 0.782675
vt 0.521910 0.752269
vt 0.518197 0.850096
vt 0.515988 0.789001
vt 0.518588 0.799280
vt 0.575793 0.665401
vt 0.576308 0.666368
vt 0.570295 0.679139
vt 0.580848 0.746758
vt 0.580719 0.745739
vt 0.569810 0.678219
vt 0.586716 0.744863
vt 0.577175 0.824604
vt 0.586577 0.743786
vn -0.0328 0.6938 0.7195
vn -0.0939 0.9208 -0.3787
vn -0.0450 -0.0779 -0.9959
vn -0.2856 -0.0761 -0.9553
vn 0.0244 -0.9915 -0.1276
vn 0.0420 -0.5442 0.8379
vn 0.9786 0.0934 -0.1835
vn 0.1069 -0.5298 0.8414
vn -0.1399 -0.9846 -0.1045
vn -0.0692 0.9251 -0.3734
vn 0.1037 -0.5564 0.8244
vn 0.8950 0.3736 0.2438
vn -0.1576 -0.9782 -0.1352
vn -0.1013 -0.0763 -0.9919
vn -0.1028 0.7545 0.6482
vn 0.1070 -0.9851 -0.1346
vn -0.2157 0.9037 -0.3699
vn 0.1337 -0.5700 0.8107
vn 0.1049 0.9062 -0.4095
vn -0.2758 -0.5340 0.7992
vn 0.1076 -0.0767 -0.9912
vn -0.1232 0.6950 0.7084
vn 0.9310 0.0686 -0.3585
vn 0.1986 0.7554 0.6245
vn -0.0719 0.9062 -0.4166
vn -0.1394 -0.9833 -0.1167
vn -0.2471 -0.0765 -0.9660
vn 0.0202 0.5987 -0.8007
vn -0.9610 -0.2332 -0.1485
vn 0.0078 -0.6752 0.7376
vn -0.0705 0.8128 -0.5783
vn -0.0838 0.9414 0.3267
vn 0.5223 0.6971 0.4912
vn -0.5297 -0.6883 -0.4957
vn -0.0918 -0.5458 0.8329
vn -0.1555 -0.9821 -0.1063
vn -0.0789 -0.8827 -0.4632
vn 0.0596 -0.6359 0.7695
vn -0.1673 0.7108 -0.6832
vn 0.6570 -0.0260 -0.7535
vn -0.1172 0.9090 -0.3999
vn 0.2086 0.7057 0.6771
vn 0.1383 -0.5525 0.8219
vn -0.2593 0.0208 0.9656
vn -0.0908 0.9762 -0.1970
vn -0.7461 0.0165 0.6657
vn -0.0433 -0.9917 0.1214
vn -0.2714 0.9606 -0.0601
vn 0.2108 -0.0247 -0.9772
vn 0.2037 0.9785 0.0323
vn -0.2754 -0.9613 -0.0012
vn 0.1098 -0.9877 0.1113
vn 0.1880 0.0292 0.9817
vn -0.3424 -0.0406 -0.9387
usemtl AllColors_Material
f 1/1/1 2/2/1 3/3/1 4/4/1
f 2/2/2 5/5/2 6/6/2 3/3/2
f 5/5/3 7/7/3 8/8/3 6/6/3
f 9/9/4 10/10/4 11/11/4 12/12/4
f 7/7/5 13/13/5 14/14/5 8/8/5
f 13/13/6 1/1/6 4/4/6 14/14/6
f 1/15/7 13/16/7 5/17/7 2/18/7
f 15/19/8 16/20/8 17/21/8 18/22/8
f 19/23/9 18/22/9 10/10/9 9/9/9
f 12/12/10 11/11/10 20/24/10 21/25/10
f 22/26/11 15/19/11 18/22/11 19/23/11
f 21/25/12 23/27/12 24/28/12 22/26/12
f 17/21/13 25/29/13 26/30/13
f 10/10/14 26/30/14 27/31/14 11/11/14
f 20/24/15 28/32/15 16/20/15 15/19/15
f 18/22/16 17/21/16 26/30/16 10/10/16
f 11/11/17 27/31/17 28/32/17 20/24/17
f 29/33/18 22/26/18 19/23/18 30/34/18
f 27/31/19 25/29/19 28/32/19
f 16/20/20 25/29/20 17/21/20
f 26/30/21 25/29/21 27/31/21
f 28/32/22 25/29/22 16/20/22
f 13/16/23 7/35/23 5/17/23
f 31/36/24 21/25/24 22/26/24 29/33/24
f 32/37/25 12/12/25 21/25/25 31/36/25
f 30/34/26 19/23/26 9/9/26 33/38/26
f 33/38/27 9/9/27 12/12/27 32/37/27
f 34/39/28 35/40/28 36/41/28 23/27/28
f 15/19/29 37/42/29 34/39/29 20/24/29
f 22/26/30 24/28/30 37/42/30 15/19/30
f 20/24/31 34/39/31 23/27/31 21/25/31
f 36/41/32 38/43/32 39/44/32
f 23/27/33 36/41/33 39/44/33 24/28/33
f 37/42/34 40/45/34 35/40/34 34/39/34
f 24/28/35 39/44/35 40/45/35 37/42/35
f 14/14/36 30/34/36 33/38/36 8/8/36
f 40/45/37 38/43/37 35/40/37
f 39/44/38 38/43/38 40/45/38
f 35/40/39 38/43/39 36/41/39
f 8/8/40 41/46/40 42/47/40 6/6/40
f 6/6/41 32/37/41 31/36/41 3/3/41
f 3/3/42 31/36/42 29/33/42 4/4/42
f 4/4/43 29/33/43 30/34/43 14/14/43
f 43/48/44 44/49/44 45/50/44 46/51/44
f 6/6/45 42/47/45 43/48/45 32/37/45
f 32/37/46 43/48/46 46/51/46 33/38/46
f 33/38/47 46/51/47 41/46/47 8/8/47
f 47/52/48 48/53/48 44/49/48
f 41/46/49 49/54/49 47/52/49 42/47/49
f 42/47/50 47/52/50 44/49/50 43/48/50
f 46/51/51 45/50/51 49/54/51 41/46/51
f 45/50/52 48/53/52 49/54/52
f 44/49/53 48/53/53 45/50/53
f 49/54/54 48/53/54 47/52/54
