mtllib forest_nature_set_all_in.mtl
o forest_Mushroom_flat_group_white_Cylinder_046
v -21.740269 0.143485 12.990096
v -21.741823 0.153594 12.988280
v -21.763706 0.137777 12.918956
v -21.762152 0.127668 12.920771
v -21.729521 0.131225 12.853203
v -21.727964 0.121117 12.855019
v -21.659290 0.137777 12.829540
v -21.657736 0.127668 12.831356
v -21.594158 0.153594 12.861829
v -21.592604 0.143485 12.863644
v -21.572275 0.169411 12.931153
v -21.570721 0.159302 12.932969
v -21.606461 0.175962 12.996905
v -21.604906 0.165854 12.998721
v -21.666857 0.142429 12.926377
v -21.676691 0.169411 13.020568
v -21.675137 0.159302 13.022384
v -21.657917 0.114896 12.867328
v -21.704100 0.110588 12.882888
v -21.669359 0.135698 12.992946
v -21.712191 0.125297 12.971713
v -21.674845 0.115689 12.939693
v -21.663656 0.118406 12.945879
v -21.623178 0.140007 12.977386
v -21.600697 0.135698 12.934147
v -21.615088 0.125297 12.888560
v -21.726580 0.114896 12.926126
v -21.672731 0.111846 12.915939
v -21.660666 0.112971 12.911967
v -21.657877 0.099798 12.909079
v -21.672041 0.097493 12.913136
v -21.651590 0.119532 12.942320
v -21.645718 0.118406 12.930518
v -21.649477 0.115689 12.917969
v -21.678604 0.112971 12.927329
v -21.648077 0.102928 12.946452
v -21.662230 0.100706 12.949950
v -21.658337 0.071984 12.949727
v -21.639523 0.075344 12.945073
v -21.679178 0.096846 12.926503
v -21.675114 0.098184 12.941705
v -21.640930 0.103657 12.932526
v -21.644991 0.102358 12.917064
v -21.652222 0.073637 12.895358
v -21.635195 0.076556 12.906413
v -21.639317 0.065360 12.909698
v -21.651453 0.063528 12.901478
v -21.629934 0.077265 12.926994
v -21.671041 0.070228 12.900262
v -21.680624 0.068356 12.918090
v -21.675360 0.069088 12.938561
v -21.655836 0.061537 12.940852
v -21.667971 0.059730 12.932510
v -21.665979 0.032526 12.925395
v -21.653606 0.033628 12.932859
v -21.664875 0.061104 12.904831
v -21.671715 0.059547 12.917609
v -21.642420 0.063907 12.937751
v -21.635574 0.065517 12.924721
v -21.637421 0.036935 12.902195
v -21.633413 0.036745 12.916454
v -21.633070 0.000000 12.903878
v -21.637367 0.000000 12.890515
v -21.640120 0.035374 12.929163
v -21.649794 0.035828 12.894756
v -21.663282 0.034077 12.898479
v -21.669987 0.032711 12.911161
v -21.665514 0.000000 12.914619
v -21.651442 0.000000 12.902567
v -21.639534 0.000000 12.916472
v -21.652973 0.000000 12.920921
v -21.649910 0.000000 12.884213
v -21.663349 0.000000 12.888662
v -21.669813 0.000000 12.901257
v -21.745613 0.291576 12.611379
v -21.744001 0.312355 12.611379
v -21.606506 0.301692 12.668502
v -21.608118 0.280913 12.668502
v -21.549555 0.297275 12.806409
v -21.551167 0.276496 12.806409
v -21.606506 0.301692 12.944317
v -21.608118 0.280913 12.944317
v -21.744001 0.312355 13.001440
v -21.745613 0.291576 13.001440
v -21.881496 0.323018 12.944317
v -21.883106 0.302239 12.944317
v -21.938448 0.327435 12.806409
v -21.940060 0.306656 12.806409
v -21.744001 0.289682 12.806409
v -21.881496 0.323018 12.668502
v -21.883106 0.302239 12.668502
v -21.658096 0.247178 12.897096
v -21.620646 0.244274 12.806409
v -21.838926 0.261202 12.715723
v -21.748512 0.254190 12.678159
v -21.750042 0.234439 12.772903
v -21.773664 0.236271 12.782717
v -21.876377 0.264107 12.806409
v -21.838926 0.261202 12.897096
v -21.748512 0.254190 12.934659
v -21.658096 0.247178 12.715723
v -21.716619 0.231848 12.806409
v -21.726408 0.232607 12.830102
v -21.724815 0.199875 12.833364
v -21.713299 0.198772 12.805599
v -21.783449 0.237030 12.806409
v -21.773664 0.236271 12.830102
v -21.750042 0.234439 12.839915
v -21.726408 0.232607 12.782717
v -21.792500 0.206303 12.805599
v -21.780811 0.205200 12.777834
v -21.779686 0.142604 12.769023
v -21.795864 0.143283 12.805656
v -21.724815 0.199875 12.777834
v -21.752777 0.202538 12.766333
v -21.780811 0.205200 12.833364
v -21.752777 0.202538 12.844865
v -21.705591 0.147403 12.843795
v -21.743412 0.146684 12.858528
v -21.737476 0.127081 12.843571
v -21.710382 0.127181 12.832989
v -21.780806 0.144977 12.842731
v -21.689514 0.146711 12.807161
v -21.704472 0.145030 12.770087
v -21.741829 0.143328 12.754291
v -21.763756 0.125087 12.779830
v -21.736616 0.125192 12.769249
v -21.730928 0.067843 12.765898
v -21.757215 0.067843 12.776786
v -21.698965 0.126664 12.806837
v -21.709774 0.125845 12.780436
v -21.775288 0.125593 12.805981
v -21.764364 0.126423 12.832383
v -21.730928 0.067843 12.840248
v -21.757215 0.067843 12.829360
v -21.724936 0.000000 12.832696
v -21.698650 0.000000 12.843585
v -21.768103 0.067843 12.803073
v -21.704641 0.067843 12.829360
v -21.693752 0.067843 12.803073
v -21.704641 0.067843 12.776786
v -21.698650 0.000000 12.769234
v -21.698650 0.000000 12.806409
v -21.735825 0.000000 12.806409
v -21.724936 0.000000 12.780122
v -21.672363 0.000000 12.832696
v -21.661474 0.000000 12.806409
v -21.672363 0.000000 12.780122
v -21.517307 0.226698 13.000546
v -21.519724 0.242762 13.001210
v -21.634035 0.226175 12.986463
v -21.631618 0.210111 12.985797
v -21.705042 0.219305 12.894427
v -21.702625 0.203241 12.893762
v -21.691149 0.226175 12.779017
v -21.688732 0.210111 12.778352
v -21.600494 0.242762 12.707839
v -21.598078 0.226698 12.707174
v -21.486183 0.259349 12.722588
v -21.483767 0.243285 12.721922
v -21.415178 0.266220 12.814623
v -21.412762 0.250156 12.813957
v -21.558792 0.225128 12.854162
v -21.429071 0.259349 12.930033
v -21.426655 0.243285 12.929367
v -21.639515 0.186888 12.803010
v -21.648649 0.182370 12.878901
v -21.467175 0.208703 12.902315
v -21.526789 0.197796 12.949121
v -21.544109 0.182527 12.877231
v -21.528536 0.185376 12.865002
v -21.458038 0.213221 12.826424
v -21.504732 0.208703 12.765902
v -21.579901 0.197796 12.756204
v -21.601957 0.186888 12.939423
v -21.575947 0.178497 12.858885
v -21.573559 0.179677 12.839058
v -21.574167 0.153933 12.836014
v -21.576860 0.152431 12.859255
v -21.526148 0.186557 12.845175
v -21.538347 0.185376 12.829363
v -21.557985 0.182527 12.826830
v -21.563747 0.179677 12.874697
v -21.518560 0.161865 12.842967
v -21.521252 0.160362 12.866208
v -21.507898 0.111834 12.867621
v -21.504728 0.113330 12.836619
v -21.562475 0.153692 12.877726
v -21.539442 0.156977 12.880605
v -21.532944 0.160604 12.824497
v -21.555977 0.157319 12.821617
v -21.582476 0.115057 12.830297
v -21.557407 0.115599 12.810225
v -21.559381 0.100221 12.820695
v -21.577990 0.099774 12.834954
v -21.525236 0.114890 12.812845
v -21.585682 0.113568 12.861300
v -21.565138 0.112002 12.885073
v -21.532887 0.111278 12.887690
v -21.523508 0.097949 12.861738
v -21.542105 0.097500 12.875997
v -21.554701 0.050444 12.875108
v -21.536951 0.048962 12.860820
v -21.580614 0.098788 12.857057
v -21.565773 0.097850 12.874058
v -21.520830 0.098926 12.839633
v -21.535725 0.099873 12.822634
v -21.572128 0.050942 12.819789
v -21.549273 0.049313 12.821704
v -21.578266 0.000000 12.823722
v -21.600233 0.000000 12.820960
v -21.534698 0.048493 12.838699
v -21.589869 0.052423 12.834076
v -21.592110 0.052890 12.856195
v -21.577545 0.052071 12.873192
v -21.584837 0.000000 12.876880
v -21.592535 0.000000 12.848920
v -21.564657 0.000000 12.841245
v -21.567379 0.000000 12.863264
v -21.617689 0.000000 12.834576
v -21.620411 0.000000 12.856595
v -21.606802 0.000000 12.874118
vt 0.850805 0.654240
vt 0.851051 0.844717
vt 0.871994 0.746969
vt 0.871749 0.556492
vt 0.880670 0.706481
vt 0.880424 0.516004
vt 0.871994 0.746969
vt 0.871749 0.556492
vt 0.851051 0.844717
vt 0.850805 0.654240
vt 0.830107 0.942469
vt 0.829862 0.751993
vt 0.821432 0.982957
vt 0.821187 0.792480
vt 0.851051 0.636878
vt 0.830107 0.942469
vt 0.829862 0.751988
vt 0.779113 0.926474
vt 0.770496 0.933047
vt 0.762934 0.882841
vt 0.768600 0.878519
vt 0.735573 0.903712
vt 0.749253 0.893277
vt 0.749021 0.863883
vt 0.745447 0.866609
vt 0.728888 0.964785
vt 0.720270 0.971358
vt 0.729906 0.908035
vt 0.735573 0.903712
vt 0.749692 0.948916
vt 0.749253 0.893277
vt 0.728888 0.964785
vt 0.770496 0.933047
vt 0.762934 0.882841
vt 0.749692 0.948916
vt 0.754076 0.860027
vt 0.752595 0.861156
vt 0.752914 0.811138
vt 0.754646 0.809497
vt 0.743967 0.867738
vt 0.745447 0.866609
vt 0.749021 0.863883
vt 0.752595 0.861156
vt 0.742819 0.820704
vt 0.744551 0.819063
vt 0.742266 0.736034
vt 0.739965 0.738210
vt 0.752914 0.811138
vt 0.748733 0.815100
vt 0.744551 0.819063
vt 0.748733 0.815100
vt 0.753374 0.725526
vt 0.747820 0.730779
vt 0.747592 0.702698
vt 0.751554 0.699289
vt 0.742266 0.736034
vt 0.755675 0.723350
vt 0.753374 0.725526
vt 0.747820 0.730779
vt 0.743630 0.706107
vt 0.747592 0.702698
vt 0.747972 0.615947
vt 0.743995 0.615947
vt 0.753196 0.697877
vt 0.751554 0.699289
vt 0.741988 0.707518
vt 0.743630 0.706107
vt 0.747972 0.615947
vt 0.743995 0.615947
vt 0.745516 0.514981
vt 0.749493 0.514981
vt 0.742347 0.615947
vt 0.751950 0.615947
vt 0.753597 0.615947
vt 0.751950 0.615947
vt 0.749493 0.514981
vt 0.749493 0.514981
vt 0.743868 0.514981
vt 0.745516 0.514981
vt 0.753470 0.514981
vt 0.755118 0.514981
vt 0.753470 0.514981
vt 0.850805 0.654240
vt 0.851051 0.844717
vt 0.871994 0.746969
vt 0.871749 0.556492
vt 0.880670 0.706481
vt 0.880424 0.516004
vt 0.871994 0.746969
vt 0.871749 0.556492
vt 0.851051 0.844717
vt 0.850805 0.654240
vt 0.830107 0.942469
vt 0.829862 0.751993
vt 0.821432 0.982957
vt 0.821187 0.792480
vt 0.851051 0.636878
vt 0.830107 0.942469
vt 0.829862 0.751988
vt 0.779113 0.926474
vt 0.770496 0.933047
vt 0.762934 0.882841
vt 0.768600 0.878519
vt 0.735573 0.903712
vt 0.749253 0.893277
vt 0.749021 0.863883
vt 0.745447 0.866609
vt 0.728888 0.964785
vt 0.720270 0.971358
vt 0.729906 0.908035
vt 0.735573 0.903712
vt 0.749692 0.948916
vt 0.749253 0.893277
vt 0.728888 0.964785
vt 0.770496 0.933047
vt 0.762934 0.882841
vt 0.749692 0.948916
vt 0.754076 0.860027
vt 0.752595 0.861156
vt 0.752914 0.811138
vt 0.754646 0.809497
vt 0.743967 0.867738
vt 0.745447 0.866609
vt 0.749021 0.863883
vt 0.752595 0.861156
vt 0.742819 0.820704
vt 0.744551 0.819063
vt 0.742266 0.736034
vt 0.739965 0.738210
vt 0.752914 0.811138
vt 0.748733 0.815100
vt 0.744551 0.819063
vt 0.748733 0.815100
vt 0.753374 0.725526
vt 0.747820 0.730779
vt 0.747592 0.702698
vt 0.751554 0.699289
vt 0.742266 0.736034
vt 0.755675 0.723350
vt 0.753374 0.725526
vt 0.747820 0.730779
vt 0.743630 0.706107
vt 0.747592 0.702698
vt 0.747972 0.615947
vt 0.743995 0.615947
vt 0.753196 0.697877
vt 0.751554 0.699289
vt 0.741988 0.707518
vt 0.743630 0.706107
vt 0.747972 0.615947
vt 0.743995 0.615947
vt 0.745516 0.514981
vt 0.749493 0.514981
vt 0.742347 0.615947
vt 0.751950 0.615947
vt 0.753597 0.615947
vt 0.751950 0.615947
vt 0.749493 0.514981
vt 0.749493 0.514981
vt 0.743868 0.514981
vt 0.745516 0.514981
vt 0.753470 0.514981
vt 0.755118 0.514981
vt 0.753470 0.514981
vt 0.850805 0.654240
vt 0.851051 0.844717
vt 0.871994 0.746969
vt 0.871749 0.556492
vt 0.880670 0.706481
vt 0.880424 0.516004
vt 0.871994 0.746969
vt 0.871749 0.556492
vt 0.851051 0.844717
vt 0.850805 0.654240
vt 0.830107 0.942469
vt 0.829862 0.751993
vt 0.821432 0.982957
vt 0.821187 0.792480
vt 0.851051 0.636878
vt 0.830107 0.942469
vt 0.829862 0.751988
vt 0.779113 0.926474
vt 0.770496 0.933047
vt 0.762934 0.882841
vt 0.768600 0.878519
vt 0.735573 0.903712
vt 0.749253 0.893277
vt 0.749021 0.863883
vt 0.745447 0.866609
vt 0.728888 0.964785
vt 0.720270 0.971358
vt 0.729906 0.908035
vt 0.735573 0.903712
vt 0.749692 0.948916
vt 0.749253 0.893277
vt 0.728888 0.964785
vt 0.770496 0.933047
vt 0.762934 0.882841
vt 0.749692 0.948916
vt 0.754076 0.860027
vt 0.752595 0.861156
vt 0.752914 0.811138
vt 0.754646 0.809497
vt 0.743967 0.867738
vt 0.745447 0.866609
vt 0.749021 0.863883
vt 0.752595 0.861156
vt 0.742819 0.820704
vt 0.744551 0.819063
vt 0.742266 0.736034
vt 0.739965 0.738210
vt 0.752914 0.811138
vt 0.748733 0.815100
vt 0.744551 0.819063
vt 0.748733 0.815100
vt 0.753374 0.725526
vt 0.747820 0.730779
vt 0.747592 0.702698
vt 0.751554 0.699289
vt 0.742266 0.736034
vt 0.755675 0.723350
vt 0.753374 0.725526
vt 0.747820 0.730779
vt 0.743630 0.706107
vt 0.747592 0.702698
vt 0.747972 0.615947
vt 0.743995 0.615947
vt 0.753196 0.697877
vt 0.751554 0.699289
vt 0.741988 0.707518
vt 0.743630 0.706107
vt 0.747972 0.615947
vt 0.743995 0.615947
vt 0.745516 0.514981
vt 0.749493 0.514981
vt 0.742347 0.615947
vt 0.751950 0.615947
vt 0.753597 0.615947
vt 0.751950 0.615947
vt 0.749493 0.514981
vt 0.749493 0.514981
vt 0.743868 0.514981
vt 0.745516 0.514981
vt 0.753470 0.514981
vt 0.755118 0.514981
vt 0.753470 0.514981
vn -0.9440 -0.0883 0.3181
vn -0.8755 -0.2127 -0.4340
vn -0.2941 -0.2126 -0.9318
vn 0.4595 -0.0881 -0.8838
vn 0.9440 0.0881 -0.3181
vn 0.8755 0.2124 0.4340
vn -0.0346 0.9855 -0.1663
vn 0.2941 0.2125 0.9318
vn -0.4595 0.0881 0.8838
vn -0.0249 -0.9420 -0.3346
vn 0.0515 -0.9366 0.3466
vn 0.5826 -0.7212 0.3748
vn 0.3666 -0.8773 -0.3097
vn 0.2807 -0.7212 0.6333
vn -0.3268 -0.9420 -0.0760
vn 0.6182 -0.7859 -0.0158
vn -0.1107 -0.7859 0.6084
vn -0.3624 -0.8773 0.3146
vn -0.3077 0.1553 -0.9387
vn 0.3300 -0.9076 0.2596
vn 0.2484 -0.9683 -0.0262
vn -0.0418 -0.9961 0.0774
vn 0.2037 -0.9097 0.3620
vn 0.3486 -0.9318 0.1014
vn 0.0801 -0.9961 -0.0381
vn -0.0466 -0.9710 0.2344
vn 0.2361 0.0245 0.9714
vn -0.9627 0.0337 0.2683
vn -0.5302 0.1273 0.8382
vn 0.8506 0.3086 0.4257
vn 0.4462 0.2456 -0.8606
vn -0.8836 0.0522 -0.4653
vn 0.2205 0.2568 0.9410
vn 0.9105 0.2891 -0.2956
vn 0.5487 -0.4083 -0.7295
vn 0.8708 0.4241 -0.2488
vn -0.3039 0.3939 -0.8674
vn -0.9669 -0.0226 0.2542
vn -0.5320 -0.0826 0.8427
vn 0.8498 0.2483 0.4649
vn 0.4050 0.4842 -0.7756
vn -0.8730 0.1801 -0.4533
vn -0.5004 -0.2644 0.8245
vn -0.6460 -0.6386 -0.4181
vn 0.2867 -0.5733 0.7676
vn 0.8948 -0.3904 -0.2168
vn -0.1237 -0.5158 -0.8477
vn -0.6942 -0.6929 0.1947
vn -0.3363 -0.6681 0.6637
vn 0.8084 -0.4532 0.3756
vn 0.9531 0.0993 -0.2859
vn 0.8860 -0.0661 0.4589
vn 0.5016 0.2423 -0.8305
vn -0.8841 0.0558 -0.4640
vn 0.2731 -0.2509 0.9287
vn 0.9575 0.1377 -0.2533
vn -0.2788 0.2074 -0.9377
vn -0.9582 -0.1299 0.2549
vn -0.0000 -1.0000 -0.0000
vn -0.2957 0.2678 -0.9170
vn -0.9529 -0.1001 0.2862
vn -0.4518 -0.2964 0.8414
vn 0.8807 -0.1465 0.4505
vn 0.4575 0.2594 -0.8505
vn -0.8820 0.1321 -0.4523
vn 0.2935 -0.3167 0.9020
vn -0.1590 0.9855 -0.0598
vn -0.2614 0.9482 -0.1808
vn -0.1385 0.9482 -0.2861
vn 0.3815 -0.0296 -0.9239
vn 0.9211 -0.0716 -0.3827
vn 0.9211 -0.0715 0.3827
vn 0.3815 -0.0296 0.9239
vn -0.3815 0.0296 0.9239
vn -0.9211 0.0714 0.3827
vn -0.0049 0.9966 0.0819
vn -0.9211 0.0714 -0.3827
vn -0.3815 0.0296 -0.9239
vn 0.4123 -0.8891 0.1988
vn -0.1596 -0.9659 -0.2039
vn -0.5445 -0.8149 0.1988
vn 0.1321 -0.8674 0.4798
vn -0.5445 -0.8149 -0.1988
vn 0.4123 -0.8891 -0.1988
vn -0.2642 -0.8366 0.4798
vn -0.2642 -0.8366 -0.4799
vn 0.1321 -0.8674 -0.4798
vn 0.9218 0.0830 0.3787
vn -0.2787 -0.9566 0.0845
vn 0.0088 -0.9789 0.2039
vn 0.1279 -0.9882 -0.0845
vn -0.2787 -0.9566 -0.0845
vn -0.1596 -0.9659 0.2039
vn 0.1279 -0.9882 0.0845
vn 0.0088 -0.9789 -0.2039
vn -0.9164 0.0441 -0.3978
vn 0.3887 0.1541 -0.9084
vn -0.3555 0.2210 -0.9082
vn -0.8907 0.2486 0.3807
vn 0.3877 0.1094 0.9153
vn 0.9205 0.1014 -0.3775
vn -0.8858 0.2672 -0.3793
vn -0.3623 0.1763 0.9152
vn 0.3184 -0.5084 0.8001
vn -0.3788 0.1506 0.9132
vn 0.8501 0.3904 0.3534
vn 0.3758 0.2575 -0.8902
vn -0.3640 0.1220 -0.9234
vn -0.9232 0.0542 0.3804
vn 0.3617 0.2924 0.8853
vn 0.8573 0.3743 -0.3534
vn -0.3728 0.0120 -0.9278
vn 0.8526 -0.4050 -0.3302
vn -0.6270 -0.7333 -0.2629
vn -0.2777 -0.6387 0.7176
vn 0.8369 -0.3994 0.3742
vn 0.3456 -0.5272 -0.7763
vn -0.2643 -0.6629 -0.7005
vn -0.6296 -0.7222 0.2864
vn -0.3792 -0.1354 0.9154
vn -0.9151 -0.1322 0.3809
vn 0.3731 -0.0157 0.9276
vn 0.9189 0.1055 -0.3801
vn -0.9161 -0.0892 -0.3908
vn -0.3808 -0.0938 0.9199
vn 0.9187 0.0608 0.3902
vn 0.3811 0.0916 -0.9200
vn 0.8399 0.4167 0.3479
vn 0.3792 0.1354 -0.9154
vn -0.3732 -0.2218 -0.9009
vn -0.8516 -0.3878 0.3527
vn 0.3732 0.2218 0.9009
vn 0.8516 0.3878 -0.3528
vn -0.8399 -0.4167 -0.3479
vn -0.0049 0.9966 -0.0819
vn 0.1575 0.9842 -0.0809
vn 0.1575 0.9842 0.0809
vn -0.1193 -0.0590 0.9911
vn -0.7785 -0.1424 0.6113
vn -0.9817 -0.1425 -0.1267
vn -0.6098 -0.0589 -0.7904
vn 0.1193 0.0590 -0.9911
vn 0.7785 0.1423 -0.6113
vn -0.0914 0.9940 -0.0598
vn 0.9817 0.1424 0.1267
vn 0.6098 0.0590 0.7904
vn -0.3828 -0.9183 -0.1007
vn 0.2796 -0.9507 0.1345
vn 0.5314 -0.7703 -0.3524
vn -0.1897 -0.8750 -0.4455
vn 0.6369 -0.7703 0.0308
vn -0.2773 -0.9183 0.2825
vn 0.1890 -0.8137 -0.5497
vn 0.4437 -0.8137 0.3755
vn 0.0651 -0.8750 0.4798
vn -0.9928 0.0350 -0.1149
vn 0.3168 -0.9322 -0.1748
vn 0.0104 -0.9767 -0.2144
vn -0.0269 -0.9951 0.0950
vn 0.3617 -0.9322 -0.0120
vn 0.1713 -0.9506 -0.2587
vn -0.0717 -0.9951 -0.0679
vn 0.1187 -0.9767 0.1789
vn 0.9578 0.2622 0.1180
vn -0.1402 0.1061 0.9844
vn 0.5815 0.2087 0.7863
vn 0.7483 0.2823 -0.6003
vn -0.6278 0.1077 -0.7709
vn -0.7910 0.0344 0.6109
vn 0.9506 0.2819 0.1297
vn 0.0933 0.2101 -0.9732
vn -0.5599 -0.4031 -0.7239
vn 0.0838 0.2596 -0.9621
vn -0.9713 0.2185 -0.0936
vn -0.1049 0.1575 0.9819
vn 0.6006 0.1968 0.7749
vn 0.7399 0.2854 -0.6091
vn -0.6187 0.2340 -0.7499
vn -0.7573 0.1811 0.6275
vn 0.6046 -0.1785 0.7763
vn -0.6999 -0.4141 0.5820
vn 0.6633 -0.7474 0.0382
vn 0.0562 -0.5696 -0.8200
vn -0.9459 -0.3023 -0.1179
vn -0.0758 -0.6128 0.7866
vn 0.4348 -0.7275 0.5308
vn 0.5245 -0.6907 -0.4979
vn 0.1002 -0.0886 -0.9910
vn 0.7373 -0.1881 -0.6488
vn -0.6058 0.1687 -0.7775
vn -0.7401 0.1756 0.6492
vn 0.9586 -0.2653 0.1038
vn 0.0824 -0.0034 -0.9966
vn -0.9644 0.2436 -0.1032
vn -0.0824 0.0028 0.9966
vn -0.8781 0.4671 -0.1037
vn -0.1004 0.0843 0.9914
vn 0.5798 -0.3215 0.7487
vn 0.6895 -0.4424 -0.5735
vn -0.5840 0.3038 -0.7528
vn -0.7071 0.3951 0.5865
vn 0.8480 -0.5203 0.1011
vn -0.0479 0.9940 0.0982
vn -0.2033 0.9691 0.1399
vn -0.2462 0.9691 -0.0161
usemtl AllColors_Material
f 1/1/1 2/2/1 3/3/1 4/4/1
f 4/4/2 3/3/2 5/5/2 6/6/2
f 6/6/3 5/5/3 7/7/3 8/8/3
f 8/8/4 7/7/4 9/9/4 10/10/4
f 10/10/5 9/9/5 11/11/5 12/12/5
f 12/12/6 11/11/6 13/13/6 14/14/6
f 3/3/7 2/2/7 15/15/7 5/5/7
f 14/14/8 13/13/8 16/16/8 17/17/8
f 17/17/9 16/16/9 2/2/9 1/1/9
f 6/18/10 8/19/10 18/20/10 19/21/10
f 20/22/11 21/23/11 22/24/11 23/25/11
f 12/26/12 14/27/12 24/28/12 25/29/12
f 8/19/13 10/30/13 26/31/13 18/20/13
f 14/27/14 17/32/14 20/22/14 24/28/14
f 4/33/15 6/18/15 19/21/15 27/34/15
f 10/30/16 12/26/16 25/29/16 26/31/16
f 17/32/17 1/35/17 21/23/17 20/22/17
f 1/35/18 4/33/18 27/34/18 21/23/18
f 28/36/19 29/37/19 30/38/19 31/39/19
f 25/29/20 24/28/20 32/40/20 33/41/20
f 18/20/21 26/31/21 34/42/21 29/37/21
f 27/34/22 19/21/22 28/36/22 35/43/22
f 24/28/23 20/22/23 23/25/23 32/40/23
f 26/31/24 25/29/24 33/41/24 34/42/24
f 19/21/25 18/20/25 29/37/25 28/36/25
f 21/23/26 27/34/26 35/43/26 22/24/26
f 36/44/27 37/45/27 38/46/27 39/47/27
f 22/24/28 35/43/28 40/48/28 41/49/28
f 23/25/29 22/24/29 41/49/29 37/45/29
f 33/41/30 32/40/30 36/44/30 42/50/30
f 29/37/31 34/42/31 43/51/31 30/38/31
f 35/43/32 28/36/32 31/39/32 40/48/32
f 32/40/33 23/25/33 37/45/33 36/44/33
f 34/42/34 33/41/34 42/50/34 43/51/34
f 44/52/35 45/53/35 46/54/35 47/55/35
f 43/51/36 42/50/36 48/56/36 45/53/36
f 31/39/37 30/38/37 44/52/37 49/57/37
f 41/49/38 40/48/38 50/58/38 51/59/38
f 37/45/39 41/49/39 51/59/39 38/46/39
f 42/50/40 36/44/40 39/47/40 48/56/40
f 30/38/41 43/51/41 45/53/41 44/52/41
f 40/48/42 31/39/42 49/57/42 50/58/42
f 52/60/43 53/61/43 54/62/43 55/63/43
f 50/58/44 49/57/44 56/64/44 57/65/44
f 39/47/45 38/46/45 52/60/45 58/66/45
f 45/53/46 48/56/46 59/67/46 46/54/46
f 49/57/47 44/52/47 47/55/47 56/64/47
f 51/59/48 50/58/48 57/65/48 53/61/48
f 38/46/49 51/59/49 53/61/49 52/60/49
f 48/56/50 39/47/50 58/66/50 59/67/50
f 60/68/51 61/69/51 62/70/51 63/71/51
f 59/67/52 58/66/52 64/72/52 61/69/52
f 47/55/53 46/54/53 60/68/53 65/73/53
f 57/65/54 56/64/54 66/74/54 67/75/54
f 58/66/55 52/60/55 55/63/55 64/72/55
f 46/54/56 59/67/56 61/69/56 60/68/56
f 56/64/57 47/55/57 65/73/57 66/74/57
f 53/61/58 57/65/58 67/75/58 54/62/58
f 68/76/59 69/77/59 70/78/59 71/79/59
f 66/74/60 65/73/60 72/80/60 73/81/60
f 54/62/61 67/75/61 74/82/61 68/76/61
f 55/63/62 54/62/62 68/76/62 71/79/62
f 61/69/63 64/72/63 70/78/63 62/70/63
f 65/73/64 60/68/64 63/71/64 72/80/64
f 67/75/65 66/74/65 73/81/65 74/82/65
f 64/72/66 55/63/66 71/79/66 70/78/66
f 5/5/67 15/15/67 9/9/67 7/7/67
f 9/9/68 15/15/68 13/13/68 11/11/68
f 15/15/69 2/2/69 16/16/69 13/13/69
f 70/78/59 69/77/59 63/71/59 62/70/59
f 69/77/59 68/76/59 74/82/59 73/81/59
f 63/71/59 69/77/59 73/81/59 72/80/59
f 75/83/70 76/84/70 77/85/70 78/86/70
f 78/86/71 77/85/71 79/87/71 80/88/71
f 80/88/72 79/87/72 81/89/72 82/90/72
f 82/90/73 81/89/73 83/91/73 84/92/73
f 84/92/74 83/91/74 85/93/74 86/94/74
f 86/94/75 85/93/75 87/95/75 88/96/75
f 77/85/76 76/84/76 89/97/76 79/87/76
f 88/96/77 87/95/77 90/98/77 91/99/77
f 91/99/78 90/98/78 76/84/78 75/83/78
f 80/100/79 82/101/79 92/102/79 93/103/79
f 94/104/80 95/105/80 96/106/80 97/107/80
f 86/108/81 88/109/81 98/110/81 99/111/81
f 82/101/82 84/112/82 100/113/82 92/102/82
f 88/109/83 91/114/83 94/104/83 98/110/83
f 78/115/84 80/100/84 93/103/84 101/116/84
f 84/112/85 86/108/85 99/111/85 100/113/85
f 91/114/86 75/117/86 95/105/86 94/104/86
f 75/117/87 78/115/87 101/116/87 95/105/87
f 102/118/88 103/119/88 104/120/88 105/121/88
f 99/111/89 98/110/89 106/122/89 107/123/89
f 92/102/90 100/113/90 108/124/90 103/119/90
f 101/116/91 93/103/91 102/118/91 109/125/91
f 98/110/92 94/104/92 97/107/92 106/122/92
f 100/113/93 99/111/93 107/123/93 108/124/93
f 93/103/94 92/102/94 103/119/94 102/118/94
f 95/105/95 101/116/95 109/125/95 96/106/95
f 110/126/96 111/127/96 112/128/96 113/129/96
f 96/106/97 109/125/97 114/130/97 115/131/97
f 97/107/98 96/106/98 115/131/98 111/127/98
f 107/123/99 106/122/99 110/126/99 116/132/99
f 103/119/100 108/124/100 117/133/100 104/120/100
f 109/125/101 102/118/101 105/121/101 114/130/101
f 106/122/102 97/107/102 111/127/102 110/126/102
f 108/124/103 107/123/103 116/132/103 117/133/103
f 118/134/104 119/135/104 120/136/104 121/137/104
f 117/133/105 116/132/105 122/138/105 119/135/105
f 105/121/106 104/120/106 118/134/106 123/139/106
f 115/131/107 114/130/107 124/140/107 125/141/107
f 111/127/108 115/131/108 125/141/108 112/128/108
f 116/132/109 110/126/109 113/129/109 122/138/109
f 104/120/110 117/133/110 119/135/110 118/134/110
f 114/130/111 105/121/111 123/139/111 124/140/111
f 126/142/112 127/143/112 128/144/112 129/145/112
f 124/140/113 123/139/113 130/146/113 131/147/113
f 113/129/114 112/128/114 126/142/114 132/148/114
f 119/135/115 122/138/115 133/149/115 120/136/115
f 123/139/116 118/134/116 121/137/116 130/146/116
f 125/141/117 124/140/117 131/147/117 127/143/117
f 112/128/118 125/141/118 127/143/118 126/142/118
f 122/138/119 113/129/119 132/148/119 133/149/119
f 134/150/120 135/151/120 136/152/120 137/153/120
f 133/149/121 132/148/121 138/154/121 135/151/121
f 121/137/122 120/136/122 134/150/122 139/155/122
f 131/147/123 130/146/123 140/156/123 141/157/123
f 132/148/124 126/142/124 129/145/124 138/154/124
f 120/136/125 133/149/125 135/151/125 134/150/125
f 130/146/126 121/137/126 139/155/126 140/156/126
f 127/143/127 131/147/127 141/157/127 128/144/127
f 142/158/59 143/159/59 144/160/59 145/161/59
f 140/156/128 139/155/128 146/162/128 147/163/128
f 128/144/129 141/157/129 148/164/129 142/158/129
f 129/145/130 128/144/130 142/158/130 145/161/130
f 135/151/131 138/154/131 144/160/131 136/152/131
f 139/155/132 134/150/132 137/153/132 146/162/132
f 141/157/133 140/156/133 147/163/133 148/164/133
f 138/154/134 129/145/134 145/161/134 144/160/134
f 79/87/135 89/97/135 83/91/135 81/89/135
f 83/91/136 89/97/136 87/95/136 85/93/136
f 89/97/137 76/84/137 90/98/137 87/95/137
f 144/160/59 143/159/59 137/153/59 136/152/59
f 143/159/59 142/158/59 148/164/59 147/163/59
f 137/153/59 143/159/59 147/163/59 146/162/59
f 149/165/138 150/166/138 151/167/138 152/168/138
f 152/168/139 151/167/139 153/169/139 154/170/139
f 154/170/140 153/169/140 155/171/140 156/172/140
f 156/172/141 155/171/141 157/173/141 158/174/141
f 158/174/142 157/173/142 159/175/142 160/176/142
f 160/176/143 159/175/143 161/177/143 162/178/143
f 151/167/144 150/166/144 163/179/144 153/169/144
f 162/178/145 161/177/145 164/180/145 165/181/145
f 165/181/146 164/180/146 150/166/146 149/165/146
f 154/182/147 156/183/147 166/184/147 167/185/147
f 168/186/148 169/187/148 170/188/148 171/189/148
f 160/190/149 162/191/149 172/192/149 173/193/149
f 156/183/150 158/194/150 174/195/150 166/184/150
f 162/191/151 165/196/151 168/186/151 172/192/151
f 152/197/152 154/182/152 167/185/152 175/198/152
f 158/194/153 160/190/153 173/193/153 174/195/153
f 165/196/154 149/199/154 169/187/154 168/186/154
f 149/199/155 152/197/155 175/198/155 169/187/155
f 176/200/156 177/201/156 178/202/156 179/203/156
f 173/193/157 172/192/157 180/204/157 181/205/157
f 166/184/158 174/195/158 182/206/158 177/201/158
f 175/198/159 167/185/159 176/200/159 183/207/159
f 172/192/160 168/186/160 171/189/160 180/204/160
f 174/195/161 173/193/161 181/205/161 182/206/161
f 167/185/162 166/184/162 177/201/162 176/200/162
f 169/187/163 175/198/163 183/207/163 170/188/163
f 184/208/164 185/209/164 186/210/164 187/211/164
f 170/188/165 183/207/165 188/212/165 189/213/165
f 171/189/166 170/188/166 189/213/166 185/209/166
f 181/205/167 180/204/167 184/208/167 190/214/167
f 177/201/168 182/206/168 191/215/168 178/202/168
f 183/207/169 176/200/169 179/203/169 188/212/169
f 180/204/170 171/189/170 185/209/170 184/208/170
f 182/206/171 181/205/171 190/214/171 191/215/171
f 192/216/172 193/217/172 194/218/172 195/219/172
f 191/215/173 190/214/173 196/220/173 193/217/173
f 179/203/174 178/202/174 192/216/174 197/221/174
f 189/213/175 188/212/175 198/222/175 199/223/175
f 185/209/176 189/213/176 199/223/176 186/210/176
f 190/214/177 184/208/177 187/211/177 196/220/177
f 178/202/178 191/215/178 193/217/178 192/216/178
f 188/212/179 179/203/179 197/221/179 198/222/179
f 200/224/180 201/225/180 202/226/180 203/227/180
f 198/222/181 197/221/181 204/228/181 205/229/181
f 187/211/182 186/210/182 200/224/182 206/230/182
f 193/217/183 196/220/183 207/231/183 194/218/183
f 197/221/184 192/216/184 195/219/184 204/228/184
f 199/223/185 198/222/185 205/229/185 201/225/185
f 186/210/186 199/223/186 201/225/186 200/224/186
f 196/220/187 187/211/187 206/230/187 207/231/187
f 208/232/188 209/233/188 210/234/188 211/235/188
f 207/231/189 206/230/189 212/236/189 209/233/189
f 195/219/190 194/218/190 208/232/190 213/237/190
f 205/229/191 204/228/191 214/238/191 215/239/191
f 206/230/192 200/224/192 203/227/192 212/236/192
f 194/218/193 207/231/193 209/233/193 208/232/193
f 204/228/194 195/219/194 213/237/194 214/238/194
f 201/225/195 205/229/195 215/239/195 202/226/195
f 216/240/59 217/241/59 218/242/59 219/243/59
f 214/238/196 213/237/196 220/244/196 221/245/196
f 202/226/197 215/239/197 222/246/197 216/240/197
f 203/227/198 202/226/198 216/240/198 219/243/198
f 209/233/199 212/236/199 218/242/199 210/234/199
f 213/237/200 208/232/200 211/235/200 220/244/200
f 215/239/201 214/238/201 221/245/201 222/246/201
f 212/236/202 203/227/202 219/243/202 218/242/202
f 153/169/203 163/179/203 157/173/203 155/171/203
f 157/173/204 163/179/204 161/177/204 159/175/204
f 163/179/205 150/166/205 164/180/205 161/177/205
f 218/242/59 217/241/59 211/235/59 210/234/59
f 217/241/59 216/240/59 222/246/59 221/245/59
f 211/235/59 217/241/59 221/245/59 220/244/59
