mtllib LOW_POLY_set.mtl
o lp_conifer5_Cylinder_006
v 44.053955 5.663419 -13.581272
v 45.572189 5.656901 -14.213830
v 46.513786 4.960657 -13.388270
v 44.108177 5.432923 -12.400702
v 42.377731 5.960264 -17.688383
v 41.773586 6.230618 -15.840631
v 42.981201 8.125319 -15.741185
v 43.394188 7.952267 -16.582830
v 42.517807 5.403123 -17.382631
v 42.071495 5.413901 -15.714388
v 41.224350 4.891994 -16.226200
v 41.892708 4.472074 -18.157810
v 46.310345 5.532014 -15.729953
v 45.572617 5.523202 -17.241518
v 46.254360 5.083227 -18.112431
v 47.982716 4.954861 -15.754144
v 42.653603 5.530402 -14.202826
v 41.831177 4.917498 -13.369944
v 44.032055 5.485647 -17.863071
v 43.734695 4.850730 -18.922792
v 44.096180 4.870926 -19.081671
v 46.675545 4.893764 -13.738271
v 41.041325 4.922348 -15.728226
v 47.399815 7.272744 -15.765956
v 45.433582 7.948972 -15.741185
v 46.484459 8.348862 -15.953510
v 42.347652 6.118308 -13.953571
v 43.990345 6.185059 -13.217915
v 44.232479 7.979031 -14.550923
v 43.399113 8.002379 -14.899543
v 45.986660 5.924870 -13.820157
v 46.533688 6.368538 -15.856019
v 45.073067 7.971138 -14.899543
v 45.895885 5.902555 -17.752243
v 43.933826 5.908710 -18.471449
v 44.223858 7.919870 -16.931450
v 45.066597 7.930804 -16.582830
v 44.249649 8.792936 -18.092514
v 42.659111 8.931650 -17.475988
v 43.028091 10.364363 -16.720545
v 44.157330 10.112011 -17.128036
v 41.487854 7.896565 -16.040718
v 42.140942 7.679049 -17.683146
v 46.154972 7.094020 -13.799228
v 44.278942 7.843536 -18.644108
v 46.373604 7.251494 -18.039782
v 42.614368 7.644251 -17.997305
v 42.054424 7.553319 -13.897989
v 44.528301 7.554811 -12.970070
v 45.179752 9.757514 -14.761827
v 45.598927 9.800986 -15.743013
v 46.690746 9.151736 -15.576885
v 45.783955 9.384734 -14.169667
v 42.038853 8.855708 -15.893886
v 42.835159 8.828090 -14.407871
v 43.123650 10.078149 -14.759244
v 42.644344 10.349979 -15.739360
v 44.311604 8.246994 -13.678825
v 45.896046 8.222270 -14.343418
v 44.188057 9.820770 -14.354336
v 45.787766 8.560951 -17.460817
v 45.146015 9.913693 -16.723129
v 43.199966 11.015308 -16.693640
v 42.733181 11.087129 -15.589150
v 43.597321 12.175751 -15.754949
v 43.860691 12.045724 -16.380966
v 44.055450 9.422563 -17.975090
v 45.805355 9.503560 -17.328884
v 42.439182 10.068789 -17.312706
v 42.538963 9.935536 -14.153489
v 41.714966 9.797106 -15.729749
v 44.477791 9.230309 -13.602507
v 45.959858 9.466460 -16.984522
v 44.031578 9.284282 -13.591354
v 44.414127 11.837736 -14.875857
v 44.991356 11.575415 -15.137743
v 45.551296 11.078130 -14.516628
v 44.339916 11.700983 -14.008370
v 43.196777 10.771730 -14.489304
v 44.158516 10.193049 -14.053896
v 43.837040 12.089344 -15.131512
v 45.414288 10.033289 -14.463118
v 45.868492 10.099895 -15.578325
v 45.228809 11.448103 -15.763761
v 45.402172 10.301498 -16.704845
v 44.332973 10.595081 -17.155775
v 44.407642 11.766800 -16.642853
v 44.986412 11.524494 -16.387201
v 44.546478 12.522621 -16.778154
v 43.934525 12.606855 -16.606571
v 44.956783 14.218981 -15.741184
v 45.363754 11.206399 -16.941502
v 46.068676 10.886340 -15.904523
v 42.589355 11.928480 -15.714465
v 43.283016 11.888485 -16.899761
v 43.225800 11.789347 -14.504532
v 46.047649 10.895119 -15.464249
v 44.358902 11.261930 -17.437662
v 43.608490 11.705884 -17.067339
v 43.763790 12.986805 -15.839225
v 44.010662 12.897197 -15.209300
v 44.581890 12.615669 -14.968291
v 45.145443 12.314198 -15.257378
v 45.369183 12.162397 -15.907221
v 45.120289 12.246310 -16.537148
v 47.236015 7.225418 -16.291492
v 43.608070 6.323440 -15.741185
v 43.728279 6.310340 -15.441756
v 44.348621 6.273463 -15.441756
v 44.492298 6.275291 -15.741185
v 44.355785 6.291785 -16.040617
v 44.037399 6.313717 -16.164646
v 43.732422 6.325757 -16.040617
v 44.032192 6.291007 -15.317728
v 42.520210 7.449314 -13.592379
v 44.161625 3.856844 -16.216469
v 44.548691 3.881730 -16.118172
v 44.762821 3.973089 -15.809279
v 44.656147 3.885408 -15.465517
v 44.313015 3.866097 -15.269446
v 43.930153 3.831345 -15.349717
v 43.725243 3.808354 -15.659305
v 43.821640 3.821733 -16.036352
v 44.175121 0.144713 -16.183716
v 43.862560 2.260525 -15.978415
v 44.123310 2.290542 -16.043203
v 44.600056 0.144666 -16.367018
v 44.000450 0.144669 -15.741185
v 43.824234 2.242373 -15.589995
v 44.180584 0.144662 -15.298658
v 44.060806 2.258521 -15.299897
v 44.604668 0.144685 -15.115355
v 44.414154 2.294384 -15.107386
v 45.030304 0.144772 -15.298658
v 44.685371 2.332010 -15.350309
v 45.205711 0.144888 -15.741185
v 44.765266 2.274238 -15.713562
v 45.027279 0.144797 -16.183716
v 44.481754 2.328157 -15.995240
vt 0.955059 0.817585
vt 0.955420 0.817611
vt 0.955631 0.817419
vt 0.955047 0.817499
vt 0.954616 0.817629
vt 0.954461 0.817691
vt 0.954756 0.818143
vt 0.954860 0.818093
vt 0.954661 0.817515
vt 0.954548 0.817520
vt 0.954299 0.817369
vt 0.954471 0.817267
vt 0.955570 0.817610
vt 0.955420 0.817583
vt 0.955576 0.817450
vt 0.955908 0.817458
vt 0.954698 0.817548
vt 0.954457 0.817371
vt 0.955059 0.817545
vt 0.954957 0.817368
vt 0.955048 0.817370
vt 0.955666 0.817417
vt 0.954250 0.817373
vt 0.955779 0.817961
vt 0.955349 0.818113
vt 0.955584 0.818197
vt 0.954606 0.817666
vt 0.955029 0.817696
vt 0.955062 0.818142
vt 0.954860 0.818134
vt 0.955510 0.817655
vt 0.955615 0.817780
vt 0.955265 0.818134
vt 0.955491 0.817646
vt 0.955016 0.817621
vt 0.955062 0.818084
vt 0.955265 0.818093
vt 0.955056 0.818287
vt 0.954696 0.818315
vt 0.954820 0.818647
vt 0.955055 0.818641
vt 0.954397 0.818072
vt 0.954553 0.818020
vt 0.955522 0.817917
vt 0.955065 0.818059
vt 0.955564 0.817928
vt 0.954667 0.818011
vt 0.954532 0.818002
vt 0.955127 0.818032
vt 0.955289 0.818613
vt 0.955387 0.818617
vt 0.955640 0.818388
vt 0.955421 0.818488
vt 0.954540 0.818304
vt 0.954721 0.818337
vt 0.954820 0.818631
vt 0.954723 0.818642
vt 0.955073 0.818217
vt 0.955450 0.818192
vt 0.955055 0.818618
vt 0.955426 0.818231
vt 0.955289 0.818628
vt 0.954819 0.818789
vt 0.954710 0.818792
vt 0.954839 0.819073
vt 0.954901 0.819065
vt 0.955021 0.818447
vt 0.955431 0.818476
vt 0.954678 0.818557
vt 0.954678 0.818583
vt 0.954488 0.818502
vt 0.955109 0.818468
vt 0.955465 0.818468
vt 0.955006 0.818479
vt 0.955051 0.819103
vt 0.955201 0.819108
vt 0.955349 0.819014
vt 0.955029 0.819067
vt 0.954819 0.818782
vt 0.955051 0.818711
vt 0.954901 0.819088
vt 0.955346 0.818693
vt 0.955452 0.818715
vt 0.955263 0.819100
vt 0.955345 0.818758
vt 0.955082 0.818775
vt 0.955051 0.819070
vt 0.955201 0.819085
vt 0.955028 0.819253
vt 0.954872 0.819190
vt 0.955018 0.819685
vt 0.955296 0.819032
vt 0.955478 0.818988
vt 0.954609 0.818927
vt 0.954760 0.818963
vt 0.954768 0.818976
vt 0.955473 0.818988
vt 0.955058 0.818941
vt 0.954854 0.818962
vt 0.954818 0.819255
vt 0.954886 0.819271
vt 0.955042 0.819285
vt 0.955193 0.819290
vt 0.955252 0.819282
vt 0.955183 0.819267
vt 0.955745 0.817949
vt 0.954953 0.817744
vt 0.954983 0.817744
vt 0.955126 0.817744
vt 0.955156 0.817744
vt 0.955126 0.817744
vt 0.955055 0.817744
vt 0.954983 0.817744
vt 0.955055 0.817744
vt 0.954645 0.817984
vt 0.828495 0.447583
vt 0.828398 0.448450
vt 0.828519 0.448450
vt 0.828635 0.447609
vt 0.828569 0.448450
vt 0.828703 0.447651
vt 0.828519 0.448450
vt 0.828673 0.447614
vt 0.828398 0.448450
vt 0.828552 0.447591
vt 0.828278 0.448450
vt 0.828410 0.447564
vt 0.828228 0.448450
vt 0.828333 0.447550
vt 0.828278 0.448450
vt 0.828369 0.447558
vt 0.828220 0.445879
vt 0.828361 0.446883
vt 0.828479 0.446900
vt 0.828398 0.445879
vt 0.828146 0.445879
vt 0.828345 0.446875
vt 0.828220 0.445879
vt 0.828443 0.446883
vt 0.828398 0.445879
vt 0.828593 0.446900
vt 0.828577 0.445879
vt 0.828707 0.446917
vt 0.828651 0.445879
vt 0.828718 0.446887
vt 0.828577 0.445879
vt 0.828628 0.446917
vn -0.2391 -0.9212 -0.3069
vn -0.7504 0.5452 -0.3737
vn 0.5500 -0.7920 0.2650
vn -0.3308 -0.9259 0.1822
vn 0.2819 -0.9185 -0.2772
vn 0.3041 -0.7947 0.5253
vn -0.1170 -0.9028 0.4139
vn -0.3964 -0.8929 -0.2134
vn 0.4613 -0.8764 -0.1383
vn -0.0987 -0.2518 -0.9627
vn -0.3356 0.5786 0.7433
vn 0.7875 0.5237 0.3251
vn 0.2941 0.5592 -0.7751
vn -0.3280 0.5930 -0.7354
vn -0.7764 0.5378 0.3286
vn 0.3124 0.5439 0.7788
vn 0.7567 0.5372 -0.3727
vn -0.2302 0.5323 -0.8147
vn 0.0824 -0.9785 0.1892
vn -0.3647 -0.8946 -0.2584
vn -0.2328 -0.9638 0.1298
vn 0.1050 -0.9897 0.0973
vn 0.1780 -0.9616 -0.2089
vn -0.3076 -0.9085 -0.2829
vn -0.4478 -0.8760 -0.1791
vn -0.8306 0.3040 0.4665
vn 0.3644 0.3951 0.8432
vn 0.7929 0.5321 -0.2970
vn -0.8627 0.3880 -0.3242
vn -0.2865 0.3422 0.8949
vn 0.8161 0.4618 0.3476
vn 0.3866 0.5213 -0.7608
vn 0.3878 0.5276 -0.7558
vn 0.3933 0.5684 -0.7227
vn -0.7392 0.5581 -0.3770
vn -0.2372 -0.8162 0.5268
vn -0.0416 -0.8151 0.5778
vn 0.3330 -0.9175 -0.2176
vn -0.1756 -0.8517 -0.4937
vn -0.4933 -0.8652 0.0897
vn 0.4564 -0.8843 0.0985
vn -0.1200 -0.8619 -0.4926
vn -0.5013 -0.8429 -0.1954
vn -0.1366 0.4718 0.8710
vn 0.8525 0.4099 0.3243
vn 0.4628 0.3486 -0.8150
vn -0.2146 0.4049 -0.8888
vn -0.6993 0.5783 0.4202
vn 0.3952 0.4074 0.8233
vn 0.8782 0.3757 -0.2960
vn -0.1568 0.5424 -0.8253
vn -0.5406 -0.8342 0.1093
vn 0.1885 -0.9635 0.1900
vn -0.0562 -0.9511 -0.3037
vn -0.5603 -0.8224 -0.0991
vn -0.3569 -0.8336 0.4216
vn -0.2109 -0.8301 0.5162
vn 0.2274 -0.9474 -0.2252
vn -0.6848 0.6344 0.3586
vn 0.5463 0.2566 0.7973
vn 0.9183 0.2112 -0.3347
vn -0.6217 0.6381 -0.4543
vn -0.1450 0.4570 0.8776
vn 0.9437 0.1661 0.2861
vn 0.5031 0.3589 -0.7862
vn 0.4557 0.3827 -0.8037
vn 0.8296 0.4878 0.2717
vn -0.1660 0.6755 0.7184
vn -0.6141 0.6706 -0.4161
vn 0.6769 -0.3495 -0.6478
vn 0.5624 0.5388 0.6272
vn -0.6094 0.6964 0.3791
vn -0.1553 0.4834 -0.8615
vn 0.7521 0.6178 -0.2294
vn -0.7090 0.5938 0.3804
vn -0.0980 0.5914 -0.8004
vn 0.3349 0.5706 -0.7498
vn 0.7192 0.6012 0.3484
vn -0.1271 0.4594 0.8791
vn -0.7086 0.6538 -0.2654
vn 0.3784 0.4946 -0.7824
vn 0.7346 0.5314 0.4219
vn -0.8224 0.4527 -0.3446
vn 0.2427 -0.1270 0.9618
vn 0.4127 0.5871 0.6964
vn -0.7800 0.5213 0.3462
vn -0.3368 0.4091 -0.8481
vn 0.6789 0.5987 -0.4251
vn 0.3539 0.6336 0.6879
vn -0.8266 0.4888 0.2790
vn 0.9716 -0.0894 -0.2191
vn 0.3050 0.5068 -0.8063
vn -0.5461 -0.3028 0.7811
vn -0.3946 0.5874 0.7066
vn -0.8370 0.4144 -0.3575
vn 0.3029 0.9449 0.1242
vn 0.4889 -0.8609 -0.1405
vn -0.3660 -0.9235 -0.1152
vn -0.1622 -0.8914 0.4231
vn 0.1790 -0.8820 0.4360
vn 0.2156 -0.9100 -0.3542
vn -0.3811 -0.9068 0.1801
vn 0.4981 -0.8543 0.1481
vn -0.1480 -0.9326 -0.3292
vn -0.2227 0.5847 0.7801
vn 0.1280 -0.9470 -0.2946
vn -0.8457 -0.1748 0.5043
vn 0.6707 -0.1576 -0.7248
vn 0.6083 -0.0559 0.7917
vn -0.7807 -0.1763 -0.5995
vn -0.2082 0.1828 -0.9609
vn 0.4965 -0.3651 0.7876
vn -0.4110 0.4057 -0.8164
vn -0.9838 -0.1755 0.0368
vn 0.0735 -0.1261 -0.9893
vn -0.4954 -0.0466 0.8674
vn 0.6790 0.6230 0.3884
vn 0.6748 0.0388 -0.7369
vn -0.3239 -0.9340 0.1509
vn 0.7699 0.5471 -0.3287
vn 0.3084 0.5046 0.8064
vn -0.9551 -0.2282 0.1889
vn 0.9850 -0.0541 0.1639
vn -0.9458 0.2203 0.2384
vn 0.2552 0.1419 0.9564
vn 0.8326 0.4046 -0.3783
vn 0.1938 -0.2296 -0.9538
vn 0.3001 0.0449 -0.9529
vn 0.8567 0.0999 -0.5061
vn 0.9215 0.1063 0.3735
vn 0.4358 0.0578 0.8982
vn -0.2851 -0.0006 0.9585
vn -0.8812 -0.0399 0.4711
vn -0.9494 -0.0444 -0.3108
vn -0.4262 -0.0097 -0.9046
vn -0.3418 0.0532 -0.9383
vn -0.9642 -0.0908 -0.2491
vn -0.8658 -0.0784 0.4942
vn -0.4337 -0.0330 0.9004
vn 0.5175 0.0725 0.8526
vn 0.9424 0.1731 0.2862
vn 0.8304 0.2156 -0.5137
vn 0.2702 0.1758 -0.9466
vn -0.3702 -0.0688 -0.9264
vn -0.9832 -0.0511 -0.1752
vn -0.8036 -0.0363 0.5940
vn -0.3503 0.0372 0.9359
vn 0.5728 0.0961 0.8140
vn 0.9663 0.0260 0.2561
vn 0.7652 -0.0583 -0.6411
vn 0.1996 -0.0993 -0.9748
usemtl Material.008
f 1/1/1 2/2/1 3/3/1 4/4/1
f 5/5/2 6/6/2 7/7/2 8/8/2
f 9/9/3 10/10/3 11/11/3 12/12/3
f 13/13/4 14/14/4 15/15/4 16/16/4
f 17/17/5 1/1/5 4/4/5 18/18/5
f 19/19/6 9/9/6 12/12/6 20/20/6
f 14/14/7 19/19/7 21/21/7 15/15/7
f 2/2/8 13/13/8 16/16/8 22/22/8
f 10/10/9 17/17/9 18/18/9 23/23/9
f 24/24/10 25/25/10 26/26/10
f 27/27/11 28/28/11 29/29/11 30/30/11
f 31/31/12 32/32/12 25/25/12 33/33/12
f 34/34/13 35/35/13 36/36/13 37/37/13
f 35/35/14 5/5/14 8/8/14 36/36/14
f 6/6/15 27/27/15 30/30/15 7/7/15
f 28/28/16 31/31/16 33/33/16 29/29/16
f 32/32/17 34/34/17 37/37/17 25/25/17
f 38/38/18 39/39/18 40/40/18 41/41/18
f 8/8/19 7/7/19 42/42/19 43/43/19
f 33/33/20 25/25/20 24/24/20 44/44/20
f 37/37/21 36/36/21 45/45/21 46/46/21
f 36/36/22 8/8/22 47/47/22 45/45/22
f 7/7/23 30/30/23 48/48/23 42/42/23
f 29/29/24 33/33/24 44/44/24 49/49/24
f 50/50/25 51/51/25 52/52/25 53/53/25
f 54/54/26 55/55/26 56/56/26 57/57/26
f 58/58/27 59/59/27 50/50/27 60/60/27
f 26/26/28 61/61/28 62/62/28 51/51/28
f 39/39/29 54/54/29 57/57/29 40/40/29
f 55/55/30 58/58/30 60/60/30 56/56/30
f 59/59/31 26/26/31 51/51/31 50/50/31
f 61/61/32 38/38/33 41/41/34 62/62/34
f 63/63/35 64/64/35 65/65/35 66/66/35
f 62/62/36 41/41/36 67/67/36 68/68/36
f 41/41/37 40/40/37 69/69/37 67/67/37
f 57/57/38 56/56/38 70/70/38 71/71/38
f 60/60/39 50/50/39 53/53/39 72/72/39
f 51/51/40 62/62/40 73/73/40 52/52/40
f 40/40/41 57/57/41 71/71/41 69/69/41
f 56/56/42 60/60/42 74/74/42 70/70/42
f 75/75/43 76/76/43 77/77/43 78/78/43
f 79/79/44 80/80/44 75/75/44 81/81/44
f 82/82/45 83/83/45 84/84/45 76/76/45
f 85/85/46 86/86/46 87/87/46 88/88/46
f 86/86/47 63/63/47 66/66/47 87/87/47
f 64/64/48 79/79/48 81/81/48 65/65/48
f 80/80/49 82/82/49 76/76/49 75/75/49
f 83/83/50 85/85/50 88/88/50 84/84/50
f 89/89/51 90/90/51 91/91/51
f 84/84/52 88/88/52 92/92/52 93/93/52
f 66/66/53 65/65/53 94/94/53 95/95/53
f 81/81/54 75/75/54 78/78/54 96/96/54
f 76/76/55 84/84/55 97/97/55 77/77/55
f 88/88/56 87/87/56 98/98/56 92/92/56
f 87/87/57 66/66/57 99/99/57 98/98/57
f 65/65/58 81/81/58 96/96/58 94/94/58
f 100/100/59 101/101/59 91/91/59
f 102/102/60 103/103/60 91/91/60
f 104/104/61 105/105/61 91/91/61
f 90/90/62 100/100/62 91/91/62
f 101/101/63 102/102/63 91/91/63
f 103/103/64 104/104/64 91/91/64
f 105/105/65 89/89/65 91/91/65
f 92/92/66 98/98/66 89/89/66 105/105/66
f 77/77/67 97/97/67 104/104/67 103/103/67
f 96/96/68 78/78/68 102/102/68 101/101/68
f 95/95/69 94/94/69 100/100/69 90/90/69
f 66/66/70 95/95/70 90/90/70
f 78/78/71 77/77/71 103/103/71 102/102/71
f 94/94/72 96/96/72 101/101/72 100/100/72
f 98/98/73 99/99/73 90/90/73 89/89/73
f 52/52/74 73/73/74 85/85/74 83/83/74
f 71/71/75 70/70/75 79/79/75 64/64/75
f 67/67/76 69/69/76 63/63/76 86/86/76
f 68/68/77 67/67/77 86/86/77 85/85/77
f 53/53/78 52/52/78 83/83/78 82/82/78
f 70/70/79 74/74/79 80/80/79 79/79/79
f 69/69/80 71/71/80 64/64/80 63/63/80
f 46/46/81 45/45/81 38/38/33 61/61/32
f 44/44/82 24/24/82 26/26/82 59/59/82
f 43/43/83 42/42/83 54/54/83 39/39/83
f 26/26/84 25/25/84 106/106/84
f 49/49/85 44/44/85 59/59/85 58/58/85
f 42/42/86 48/48/86 55/55/86 54/54/86
f 45/45/87 47/47/87 39/39/87 38/38/87
f 16/16/88 15/15/88 34/34/88 32/32/88
f 4/4/89 3/3/89 31/31/89 28/28/89
f 23/23/90 18/18/90 27/27/90 6/6/90
f 19/19/91 20/20/91 35/35/91
f 15/15/92 21/21/92 35/35/92 34/34/92
f 2/2/93 22/22/93 31/31/93
f 18/18/94 4/4/94 28/28/94 27/27/94
f 12/12/95 11/11/95 6/6/95 5/5/95
f 85/85/96 86/86/96 63/63/96 64/64/96 79/79/96 80/80/96 82/82/96 83/83/96
f 107/107/97 108/108/97 17/17/97 10/10/97
f 109/109/98 110/110/98 13/13/98 2/2/98
f 111/111/99 112/112/99 19/19/99 14/14/99
f 112/112/100 113/113/100 9/9/100 19/19/100
f 108/108/101 114/114/101 1/1/101 17/17/101
f 110/110/102 111/111/102 14/14/102 13/13/102
f 113/113/103 107/107/103 10/10/103 9/9/103
f 114/114/104 109/109/104 2/2/104 1/1/104
f 55/55/105 115/115/105 49/49/105 58/58/105
f 115/115/106 30/30/106 29/29/106 49/49/106
f 47/47/107 8/8/107 39/39/107
f 8/8/108 43/43/108 39/39/108
f 30/30/109 55/55/109 48/48/109
f 55/55/110 30/30/110 115/115/110
f 73/73/111 62/62/111 85/85/111
f 68/68/112 85/85/112 62/62/112
f 35/35/113 20/20/113 12/12/113 5/5/113
f 35/35/114 21/21/114 19/19/114
f 6/6/115 10/10/115 23/23/115
f 10/10/116 6/6/116 11/11/116
f 31/31/117 22/22/117 16/16/117 32/32/117
f 3/3/118 2/2/118 31/31/118
f 106/106/119 25/25/119 37/37/119 46/46/119
f 26/26/120 106/106/120 46/46/120 61/61/120
f 80/80/121 72/72/121 53/53/121 82/82/121
f 60/60/122 72/72/122 80/80/122
f 80/80/123 74/74/123 60/60/123
f 99/99/124 66/66/124 90/90/124
f 104/104/125 84/84/125 93/93/125
f 104/104/126 93/93/126 92/92/126 105/105/126
f 84/84/127 104/104/127 97/97/127
usemtl Material.001
f 116/116/128 112/117/128 111/118/128 117/119/128
f 117/119/129 111/118/129 110/120/129 118/121/129
f 118/121/130 110/120/130 109/122/130 119/123/130
f 119/123/131 109/122/131 114/124/131 120/125/131
f 120/125/132 114/124/132 108/126/132 121/127/132
f 121/127/133 108/126/133 107/128/133 122/129/133
f 122/129/134 107/128/134 113/130/134 123/131/134
f 123/131/135 113/130/135 112/117/135 116/116/135
f 124/132/136 125/133/136 126/134/136 127/135/136
f 128/136/137 129/137/137 125/133/137 124/132/137
f 130/138/138 131/139/138 129/137/138 128/136/138
f 132/140/139 133/141/139 131/139/139 130/138/139
f 134/142/140 135/143/140 133/141/140 132/140/140
f 136/144/141 137/145/141 135/143/141 134/142/141
f 138/146/142 139/147/142 137/145/142 136/144/142
f 127/135/143 126/134/143 139/147/143 138/146/143
f 125/133/144 123/131/144 116/116/144 126/134/144
f 129/137/145 122/129/145 123/131/145 125/133/145
f 131/139/146 121/127/146 122/129/146 129/137/146
f 133/141/147 120/125/147 121/127/147 131/139/147
f 135/143/148 119/123/148 120/125/148 133/141/148
f 137/145/149 118/121/149 119/123/149 135/143/149
f 139/147/150 117/119/150 118/121/150 137/145/150
f 126/134/151 116/116/151 117/119/151 139/147/151
