mtllib LOW_POLY_set.mtl
o lp_Rock_Type1_04_mesh_001_Circle_011
v 6.667304 1.343612 32.923462
v 5.058107 1.343612 33.726719
v 5.482269 1.343612 33.933884
v 6.505116 1.343612 33.423313
v 6.142875 1.240832 32.651474
v 6.283406 1.343612 32.724358
v 6.667304 0.388467 32.923462
v 6.142875 0.388467 32.651474
v 6.460639 1.240832 33.560387
v 5.485132 1.240832 34.047325
v 5.485132 0.388467 34.047325
v 6.460639 0.388467 33.560387
v 4.944652 0.388467 33.783352
v 5.064409 0.388467 32.901886
v 4.944652 1.240832 33.783352
v 5.064409 1.240832 32.901886
v 5.158814 1.343612 32.985481
vt 0.227560 0.222930
vt 0.272440 0.222930
vt 0.272440 0.267811
vt 0.227560 0.267811
vt 0.250000 0.267811
vt 0.271342 0.252305
vt 0.263190 0.227216
vt 0.236810 0.227216
vt 0.228658 0.252305
vt 0.227560 0.222930
vt 0.272440 0.222930
vt 0.272440 0.267811
vt 0.227560 0.267811
vt 0.227560 0.222930
vt 0.272440 0.222930
vt 0.272440 0.267811
vt 0.227560 0.267811
vt 0.227560 0.222930
vt 0.272440 0.222930
vt 0.272440 0.267811
vt 0.227560 0.267811
vt 0.227560 0.222930
vt 0.272440 0.222930
vt 0.272440 0.267811
vt 0.227560 0.267811
vt 0.227560 0.222930
vt 0.272440 0.222930
vt 0.227560 0.267811
vt 0.227560 0.222930
vt 0.272440 0.222930
vt 0.227560 0.267811
vt 0.227560 0.222930
vt 0.272440 0.222930
vt 0.272440 0.267811
vt 0.227560 0.267811
vt 0.227560 0.222930
vt 0.272440 0.222930
vt 0.272440 0.267811
vt 0.227560 0.267811
vt 0.227560 0.222930
vt 0.272440 0.267811
vt 0.227560 0.267811
vt 0.227560 0.222930
vt 0.272440 0.222930
vt 0.272440 0.267811
vt 0.227560 0.267811
vt 0.227560 0.222930
vt 0.272440 0.267811
vt 0.227560 0.267811
vt 0.250000 0.267811
vt 0.271342 0.252305
vt 0.263190 0.227216
vt 0.236810 0.227216
vt 0.228658 0.252305
vn 0.0000 1.0000 0.0000
vn 0.4604 -0.0000 -0.8877
vn 0.4466 0.0000 0.8947
vn 0.0000 -1.0000 0.0000
vn -0.4389 0.0000 0.8986
vn -0.2262 0.0000 -0.9741
vn -0.9909 0.0000 -0.1346
vn 0.3158 0.7071 0.6327
vn -0.6938 0.7139 -0.0943
vn -0.1599 0.7071 -0.6888
vn -0.3135 0.6998 0.6419
vn 0.9512 0.0000 0.3086
usemtl color4
f 1/1/1 2/2/1 3/3/1 4/4/1
f 5/5/2 6/6/2 1/7/2 7/8/2 8/9/2
f 9/10/3 10/11/3 11/12/3 12/13/3
f 7/14/4 13/15/4 14/16/4 8/17/4
f 10/18/5 15/19/5 13/20/5 11/21/5
f 16/22/6 5/23/6 8/24/6 14/25/6
f 12/26/4 11/27/4 13/20/4 7/28/4
f 15/29/7 16/30/7 14/16/7 13/31/7
f 6/32/1 17/33/1 2/34/1 1/35/1
f 4/36/8 3/37/8 10/38/8 9/39/8
f 2/40/9 17/33/9 16/41/9 15/42/9
f 17/43/10 6/44/10 5/45/10 16/46/10
f 3/47/11 2/2/11 15/48/11 10/49/11
f 1/50/12 4/51/12 9/52/12 12/53/12 7/54/12
