mtllib LOW_POLY_set.mtl
o lp_Rock_Type4_04_mesh_001_Circle_015
v 41.552536 0.396253 33.929859
v 41.758621 0.396253 32.471424
v 43.024601 0.396253 33.879559
v 40.186447 0.396253 34.480602
v 40.152042 0.396253 33.473648
v 42.712532 0.396253 34.837555
v 41.857693 0.396253 35.370827
v 43.024601 0.822392 33.879559
v 41.758621 0.822392 32.471424
v 41.720135 1.232141 32.873787
v 42.666134 1.232141 33.926014
v 40.186447 0.822392 34.480602
v 41.857693 0.822392 35.370827
v 41.794167 1.232141 35.040359
v 40.545334 1.232141 34.375141
v 40.152042 0.822392 33.473648
v 40.519623 1.232141 33.622700
v 42.712532 0.822392 34.837555
v 42.432945 1.232141 34.641872
v 41.566135 1.232141 33.963600
vt 0.777972 0.223284
vt 0.807966 0.223284
vt 0.807966 0.253278
vt 0.807966 0.223284
vt 0.807966 0.253278
vt 0.807966 0.223284
vt 0.807966 0.253278
vt 0.807966 0.223284
vt 0.807966 0.253278
vt 0.807966 0.223284
vt 0.807966 0.253278
vt 0.807966 0.223284
vt 0.807966 0.253278
vt 0.777972 0.223284
vt 0.807966 0.223284
vt 0.807966 0.253278
vt 0.777972 0.253278
vt 0.777972 0.223284
vt 0.807966 0.223284
vt 0.807966 0.253278
vt 0.777972 0.253278
vt 0.777972 0.223284
vt 0.807966 0.223284
vt 0.807966 0.253278
vt 0.777972 0.253278
vt 0.777972 0.223284
vt 0.807966 0.223284
vt 0.807966 0.253278
vt 0.777972 0.253278
vt 0.777972 0.223284
vt 0.807966 0.223284
vt 0.807966 0.253278
vt 0.777972 0.253278
vt 0.777972 0.223284
vt 0.807966 0.223284
vt 0.807966 0.253278
vt 0.777972 0.253278
vt 0.777972 0.223284
vt 0.807966 0.253278
vt 0.777972 0.253278
vt 0.777972 0.223284
vt 0.807966 0.253278
vt 0.777972 0.253278
vt 0.777972 0.223284
vt 0.807966 0.253278
vt 0.777972 0.253278
vt 0.777972 0.223284
vt 0.807966 0.253278
vt 0.777972 0.253278
vt 0.777972 0.223284
vt 0.807966 0.253278
vt 0.777972 0.253278
vt 0.777972 0.223284
vt 0.807966 0.253278
vt 0.777972 0.253278
vt 0.777972 0.223284
vt 0.807966 0.223284
vt 0.807966 0.223284
vt 0.807966 0.223284
vt 0.807966 0.223284
vt 0.807966 0.223284
vt 0.807966 0.223284
vn 0.0000 -1.0000 0.0000
vn 0.6017 0.5877 -0.5409
vn -0.3962 0.5384 0.7437
vn -0.4166 0.6167 -0.6679
vn 0.4201 0.6083 0.6734
vn 0.7437 0.6231 0.2422
vn -0.7487 0.6624 0.0256
vn -0.5293 0.0000 -0.8484
vn -0.4701 0.0000 0.8826
vn 0.7436 0.0000 -0.6686
vn -0.9994 0.0000 0.0341
vn 0.9508 0.0000 0.3097
vn 0.5293 0.0000 0.8484
vn 0.0000 1.0000 0.0000
usemtl color4
f 1/1/1 2/2/1 3/3/1
f 1/1/1 4/4/1 5/5/1
f 1/1/1 5/6/1 2/7/1
f 1/1/1 6/8/1 7/9/1
f 1/1/1 3/10/1 6/11/1
f 1/1/1 7/12/1 4/13/1
f 8/14/2 9/15/2 10/16/2 11/17/2
f 12/18/3 13/19/3 14/20/3 15/21/3
f 9/22/4 16/23/4 17/24/4 10/25/4
f 13/26/5 18/27/5 19/28/5 14/29/5
f 18/30/6 8/31/6 11/32/6 19/33/6
f 16/34/7 12/35/7 15/36/7 17/37/7
f 2/38/8 5/6/8 16/39/8 9/40/8
f 4/41/9 7/12/9 13/42/9 12/43/9
f 3/44/10 2/2/10 9/45/10 8/46/10
f 5/47/11 4/4/11 12/48/11 16/49/11
f 6/50/12 3/10/12 8/51/12 18/52/12
f 7/53/13 6/8/13 18/54/13 13/55/13
f 20/56/14 11/57/14 10/16/14
f 20/56/14 17/58/14 15/36/14
f 20/56/14 10/59/14 17/24/14
f 20/56/14 14/60/14 19/28/14
f 20/56/14 19/61/14 11/32/14
f 20/56/14 15/62/14 14/20/14
