mtllib LOW_POLY_set.mtl
o lp_Rock_Type6_01_mesh_001_Plane_027
v -15.411423 0.216273 13.725689
v -14.229012 0.216273 13.696726
v -14.352066 0.216273 15.482643
v -15.820855 0.216273 15.351147
v -13.077727 0.216273 14.198696
v -13.487159 0.216273 15.824155
v -13.128579 1.187195 14.218536
v -14.235466 1.187195 13.735924
v -14.222166 2.386384 13.655149
v -13.023788 2.386384 14.177651
v -15.372279 1.187195 13.763769
v -15.765923 1.187195 15.326545
v -15.879123 2.386384 15.377243
v -15.452944 2.386384 13.685296
v -13.522222 1.187195 15.781311
v -14.353774 1.187195 15.452970
v -14.350253 2.386384 15.514118
v -13.449968 2.386384 15.869598
v -13.584594 2.720411 15.705098
v -14.356813 2.720411 15.400185
v -14.246947 2.720411 13.805653
v -13.219038 2.720411 14.253830
v -15.302647 2.720411 13.831511
v -15.668202 2.720411 15.282780
v -12.270976 0.216273 17.304152
v -13.407043 0.216273 17.633223
v -13.742771 0.216273 15.874835
v -12.288909 0.216273 15.628017
v -14.648193 0.216273 17.440935
v -14.666126 0.216273 15.764800
v -14.528751 1.667167 17.353951
v -13.417164 1.667167 17.526165
v -13.403076 2.703507 17.675173
v -14.694996 2.703507 17.475019
v -12.399692 1.667167 17.231445
v -12.415752 1.667167 15.730282
v -12.239206 2.703507 15.587945
v -12.220540 2.703507 17.332642
v -14.544812 1.667167 15.852786
v -13.717846 1.667167 15.951335
v -13.752538 2.703507 15.844859
v -14.713663 2.703507 15.730323
v -14.541589 3.037535 15.855124
v -13.717184 3.037535 15.953367
v -13.417433 3.037535 17.523319
v -14.525578 3.037535 17.351639
v -12.403112 3.037535 17.229513
v -12.419124 3.037535 15.733000
v -12.834206 1.212606 15.922243
v -13.436666 1.212606 15.786077
v -13.310456 0.046186 15.706402
v -12.913881 0.046186 15.796034
v -13.300500 1.212606 15.183619
v -13.220824 0.046186 15.309827
v -12.698041 1.212606 15.319783
v -12.824249 0.046186 15.399459
v -13.388885 1.540970 15.568492
v -13.296543 1.540970 15.159924
v -12.887975 1.540970 15.252267
v -12.980318 1.540970 15.660835
v -12.744925 1.046986 15.262951
v -13.270546 1.046986 15.201766
v -13.170279 0.047667 15.122408
v -12.824284 0.047667 15.162683
v -13.209361 1.046986 14.676145
v -13.130003 0.047667 14.776412
v -12.683740 1.046986 14.737329
v -12.784008 0.047667 14.816688
v -13.249640 1.328309 15.012059
v -13.208146 1.328309 14.655600
v -12.851686 1.328309 14.697093
v -12.893181 1.328309 15.053553
v -12.711425 0.789328 14.718789
v -13.159639 0.789328 14.767046
v -13.091299 -0.062001 14.682214
v -12.796257 -0.062001 14.650448
v -13.207897 0.789328 14.318831
v -13.123065 -0.062001 14.387172
v -12.759683 0.789328 14.270574
v -12.828023 -0.062001 14.355407
v -13.178034 1.028990 14.605498
v -13.210760 1.028990 14.301534
v -12.906796 1.028990 14.268807
v -12.874069 1.028990 14.572772
v -15.837175 0.159567 16.282185
v -15.723581 0.159567 15.418008
v -14.560969 0.159567 15.378808
v -14.622570 0.159567 16.021187
v -14.428120 0.159567 17.025932
v -15.590731 0.159567 17.065132
v -15.952356 0.962596 16.295755
v -15.820333 0.962596 15.291382
v -14.314709 0.962596 17.160158
v -15.665931 0.962596 17.205719
v -14.540706 0.962596 15.992414
v -14.469110 0.962596 15.245823
v -14.562723 1.221424 15.381347
v -14.624133 1.221424 16.021736
v -15.834977 1.221424 16.281925
v -15.721734 1.221424 15.420425
v -15.589295 1.221424 17.062447
v -14.430285 1.221424 17.023369
v -12.560840 0.179051 18.076996
v -13.053417 0.179051 18.149071
v -13.255908 0.179051 17.516273
v -12.893309 0.179051 17.450146
v -12.371428 0.179051 17.186909
v -12.168937 0.179051 17.819708
v -12.535456 0.637703 18.138180
v -13.107944 0.637703 18.221949
v -12.315315 0.637703 17.103695
v -12.079975 0.637703 17.839153
v -12.921862 0.637703 17.409636
v -13.343285 0.637703 17.486492
v -13.254240 0.785533 17.516842
v -12.892763 0.785533 17.450920
v -12.561324 0.785533 18.075829
v -13.052377 0.785533 18.147680
v -12.170635 0.785533 17.819336
v -12.372499 0.785533 17.188498
vt 0.678010 0.181916
vt 0.743865 0.181916
vt 0.743865 0.247772
vt 0.678010 0.247772
vt 0.678010 0.181916
vt 0.743865 0.181916
vt 0.743865 0.247772
vt 0.678010 0.247772
vt 0.678010 0.181916
vt 0.743865 0.181916
vt 0.743865 0.247772
vt 0.678010 0.247772
vt 0.678010 0.181916
vt 0.743865 0.181916
vt 0.743865 0.247772
vt 0.678010 0.247772
vt 0.678010 0.181916
vt 0.743865 0.247772
vt 0.678010 0.247772
vt 0.678010 0.181916
vt 0.743865 0.181916
vt 0.743865 0.247772
vt 0.678010 0.247772
vt 0.743865 0.181916
vt 0.743865 0.247772
vt 0.678010 0.247772
vt 0.678010 0.181916
vt 0.743865 0.181916
vt 0.743865 0.247772
vt 0.678010 0.247772
vt 0.678010 0.181916
vt 0.743865 0.247772
vt 0.678010 0.247772
vt 0.743865 0.181916
vt 0.743865 0.247772
vt 0.678010 0.247772
vt 0.678010 0.181916
vt 0.743865 0.181916
vt 0.743865 0.247772
vt 0.678010 0.247772
vt 0.678010 0.181916
vt 0.743865 0.181916
vt 0.743865 0.247772
vt 0.678010 0.247772
vt 0.678010 0.181916
vt 0.743865 0.181916
vt 0.743865 0.247772
vt 0.678010 0.247772
vt 0.678010 0.181916
vt 0.743865 0.181916
vt 0.743865 0.247772
vt 0.678010 0.247772
vt 0.678010 0.181916
vt 0.743865 0.181916
vt 0.743865 0.247772
vt 0.678010 0.247772
vt 0.678010 0.181916
vt 0.743865 0.181916
vt 0.743865 0.247772
vt 0.678010 0.247772
vt 0.678010 0.181916
vt 0.743865 0.181916
vt 0.743865 0.247772
vt 0.678010 0.247772
vt 0.678010 0.181916
vt 0.743865 0.181916
vt 0.678010 0.181916
vt 0.743865 0.181916
vt 0.743865 0.247772
vt 0.678010 0.181916
vt 0.743865 0.181916
vt 0.678010 0.247772
vt 0.678010 0.181916
vt 0.743865 0.181916
vt 0.743865 0.247772
vt 0.678010 0.247772
vt 0.678010 0.181916
vt 0.743865 0.181916
vt 0.743865 0.247772
vt 0.678010 0.247772
vt 0.236603 0.228791
vt 0.302459 0.228791
vt 0.302459 0.294647
vt 0.236603 0.294647
vt 0.236603 0.228791
vt 0.302459 0.228791
vt 0.302459 0.294647
vt 0.236603 0.294647
vt 0.236603 0.228791
vt 0.302459 0.228791
vt 0.302459 0.294647
vt 0.236603 0.294647
vt 0.236603 0.228791
vt 0.302459 0.228791
vt 0.302459 0.294647
vt 0.236603 0.294647
vt 0.236603 0.228791
vt 0.302459 0.294647
vt 0.236603 0.294647
vt 0.236603 0.228791
vt 0.302459 0.228791
vt 0.302459 0.294647
vt 0.236603 0.294647
vt 0.302459 0.228791
vt 0.302459 0.294647
vt 0.236603 0.294647
vt 0.236603 0.228791
vt 0.302459 0.228791
vt 0.302459 0.294647
vt 0.236603 0.294647
vt 0.236603 0.228791
vt 0.302459 0.294647
vt 0.236603 0.294647
vt 0.302459 0.228791
vt 0.302459 0.294647
vt 0.236603 0.294647
vt 0.236603 0.228791
vt 0.302459 0.228791
vt 0.302459 0.294647
vt 0.236603 0.294647
vt 0.236603 0.228791
vt 0.302459 0.228791
vt 0.302459 0.294647
vt 0.236603 0.294647
vt 0.236603 0.228791
vt 0.302459 0.228791
vt 0.302459 0.294647
vt 0.236603 0.294647
vt 0.236603 0.228791
vt 0.302459 0.228791
vt 0.302459 0.294647
vt 0.236603 0.294647
vt 0.236603 0.228791
vt 0.302459 0.228791
vt 0.302459 0.294647
vt 0.236603 0.294647
vt 0.236603 0.228791
vt 0.302459 0.228791
vt 0.302459 0.294647
vt 0.236603 0.294647
vt 0.236603 0.228791
vt 0.302459 0.228791
vt 0.302459 0.294647
vt 0.236603 0.294647
vt 0.236603 0.228791
vt 0.302459 0.228791
vt 0.236603 0.228791
vt 0.302459 0.228791
vt 0.302459 0.294647
vt 0.236603 0.228791
vt 0.302459 0.228791
vt 0.236603 0.294647
vt 0.236603 0.228791
vt 0.302459 0.228791
vt 0.302459 0.294647
vt 0.236603 0.294647
vt 0.236603 0.228791
vt 0.302459 0.228791
vt 0.302459 0.294647
vt 0.236603 0.294647
vt 0.217072 0.724885
vt 0.282928 0.724885
vt 0.282928 0.790740
vt 0.217072 0.790740
vt 0.217072 0.724885
vt 0.282928 0.724885
vt 0.282928 0.790740
vt 0.217072 0.790740
vt 0.217072 0.724885
vt 0.282928 0.724885
vt 0.282928 0.790740
vt 0.217072 0.790740
vt 0.217072 0.724885
vt 0.282928 0.724885
vt 0.282928 0.790740
vt 0.217072 0.790740
vt 0.217072 0.724885
vt 0.282928 0.724885
vt 0.282928 0.790740
vt 0.217072 0.790740
vt 0.217072 0.724885
vt 0.282928 0.724885
vt 0.217072 0.790740
vt 0.282928 0.790740
vt 0.217072 0.790740
vt 0.282928 0.790740
vt 0.217072 0.790740
vt 0.282928 0.790740
vt 0.217072 0.724885
vt 0.282928 0.724885
vt 0.282928 0.790740
vt 0.217072 0.790740
vt 0.217072 0.724885
vt 0.282928 0.724885
vt 0.282928 0.790740
vt 0.217072 0.790740
vt 0.217072 0.724885
vt 0.282928 0.724885
vt 0.282928 0.790740
vt 0.217072 0.790740
vt 0.217072 0.724885
vt 0.282928 0.724885
vt 0.282928 0.790740
vt 0.217072 0.790740
vt 0.217072 0.724885
vt 0.282928 0.724885
vt 0.282928 0.790740
vt 0.217072 0.790740
vt 0.217072 0.724885
vt 0.282928 0.724885
vt 0.217072 0.790740
vt 0.282928 0.790740
vt 0.217072 0.790740
vt 0.282928 0.790740
vt 0.217072 0.790740
vt 0.282928 0.790740
vt 0.217072 0.724885
vt 0.282928 0.724885
vt 0.282928 0.790740
vt 0.217072 0.790740
vt 0.217072 0.724885
vt 0.282928 0.724885
vt 0.282928 0.790740
vt 0.217072 0.790740
vt 0.217072 0.724885
vt 0.282928 0.724885
vt 0.282928 0.790740
vt 0.217072 0.790740
vt 0.217072 0.724885
vt 0.282928 0.724885
vt 0.282928 0.790740
vt 0.217072 0.790740
vt 0.217072 0.724885
vt 0.282928 0.724885
vt 0.282928 0.790740
vt 0.217072 0.790740
vt 0.217072 0.724885
vt 0.282928 0.724885
vt 0.217072 0.790740
vt 0.282928 0.790740
vt 0.217072 0.790740
vt 0.282928 0.790740
vt 0.217072 0.790740
vt 0.282928 0.790740
vt 0.222656 0.779022
vt 0.251173 0.762558
vt 0.251173 0.729630
vt 0.222656 0.713166
vt 0.194140 0.729630
vt 0.194140 0.762558
vt 0.189728 0.713166
vt 0.255584 0.713166
vt 0.255584 0.779022
vt 0.189728 0.779022
vt 0.189728 0.713166
vt 0.255584 0.713166
vt 0.255584 0.779022
vt 0.189728 0.779022
vt 0.189728 0.713166
vt 0.255584 0.713166
vt 0.255584 0.779022
vt 0.189728 0.779022
vt 0.189728 0.713166
vt 0.255584 0.713166
vt 0.255584 0.779022
vt 0.189728 0.779022
vt 0.189728 0.713166
vt 0.255584 0.713166
vt 0.255584 0.779022
vt 0.189728 0.779022
vt 0.189728 0.713166
vt 0.255584 0.713166
vt 0.255584 0.779022
vt 0.189728 0.779022
vt 0.189728 0.713166
vt 0.255584 0.713166
vt 0.255584 0.779022
vt 0.189728 0.779022
vt 0.189728 0.713166
vt 0.255584 0.713166
vt 0.255584 0.779022
vt 0.189728 0.779022
vt 0.189728 0.713166
vt 0.255584 0.713166
vt 0.255584 0.779022
vt 0.189728 0.779022
vt 0.189728 0.713166
vt 0.255584 0.713166
vt 0.189728 0.713166
vt 0.255584 0.713166
vt 0.255584 0.779022
vt 0.189728 0.713166
vt 0.255584 0.713166
vt 0.189728 0.779022
vt 0.189728 0.713166
vt 0.255584 0.713166
vt 0.255584 0.779022
vt 0.189728 0.779022
vt 0.189728 0.713166
vt 0.255584 0.713166
vt 0.255584 0.779022
vt 0.189728 0.779022
vt 0.769531 0.267303
vt 0.798048 0.250839
vt 0.798048 0.217911
vt 0.769531 0.201447
vt 0.741015 0.217911
vt 0.741015 0.250839
vt 0.736603 0.201447
vt 0.802459 0.201447
vt 0.802459 0.267303
vt 0.736603 0.267303
vt 0.736603 0.201447
vt 0.802459 0.201447
vt 0.802459 0.267303
vt 0.736603 0.267303
vt 0.736603 0.201447
vt 0.802459 0.201447
vt 0.802459 0.267303
vt 0.736603 0.267303
vt 0.736603 0.201447
vt 0.802459 0.201447
vt 0.802459 0.267303
vt 0.736603 0.267303
vt 0.736603 0.201447
vt 0.802459 0.201447
vt 0.802459 0.267303
vt 0.736603 0.267303
vt 0.736603 0.201447
vt 0.802459 0.201447
vt 0.802459 0.267303
vt 0.736603 0.267303
vt 0.736603 0.201447
vt 0.802459 0.201447
vt 0.802459 0.267303
vt 0.736603 0.267303
vt 0.736603 0.201447
vt 0.802459 0.201447
vt 0.802459 0.267303
vt 0.736603 0.267303
vt 0.736603 0.201447
vt 0.802459 0.201447
vt 0.802459 0.267303
vt 0.736603 0.267303
vt 0.736603 0.201447
vt 0.802459 0.201447
vt 0.736603 0.201447
vt 0.802459 0.201447
vt 0.802459 0.267303
vt 0.736603 0.201447
vt 0.802459 0.201447
vt 0.736603 0.267303
vt 0.736603 0.201447
vt 0.802459 0.201447
vt 0.802459 0.267303
vt 0.736603 0.267303
vt 0.736603 0.201447
vt 0.802459 0.201447
vt 0.802459 0.267303
vt 0.736603 0.267303
vn 0.0000 -1.0000 0.0000
vn 0.3988 -0.0660 -0.9147
vn -0.9665 -0.0809 -0.2435
vn 0.3994 0.0396 -0.9159
vn -0.3671 0.0278 0.9298
vn -0.0245 0.0402 -0.9989
vn -0.0891 0.0303 0.9956
vn 0.9687 0.0457 0.2440
vn -0.9686 0.0486 -0.2440
vn -0.3508 0.2961 0.8884
vn 0.3655 0.4048 -0.8382
vn -0.3669 -0.0463 0.9291
vn -0.0244 -0.0669 -0.9975
vn -0.0891 -0.0505 0.9947
vn 0.9669 -0.0762 0.2435
vn 0.0000 1.0000 0.0000
vn -0.0223 0.4093 -0.9121
vn -0.0845 0.3202 0.9436
vn 0.8635 0.4551 0.2175
vn -0.8521 0.4774 -0.2146
vn -0.1516 -0.1387 0.9787
vn 0.9855 -0.1693 -0.0105
vn -0.1527 0.0717 0.9857
vn 0.1182 0.0503 -0.9917
vn 0.2775 0.0726 0.9580
vn -0.1671 0.0548 -0.9844
vn -0.9965 0.0827 0.0107
vn 0.9961 0.0878 -0.0107
vn 0.1130 0.2961 -0.9484
vn -0.1400 0.4048 0.9036
vn 0.1178 -0.0976 -0.9882
vn 0.2755 -0.1405 0.9510
vn -0.1664 -0.1063 -0.9803
vn -0.9871 -0.1596 0.0106
vn 0.2538 0.4093 0.8764
vn -0.1586 0.3202 -0.9340
vn -0.8904 0.4551 0.0095
vn 0.8787 0.4774 -0.0094
vn -0.2196 -0.0901 0.9714
vn -0.9714 -0.0901 -0.2196
vn 0.2196 -0.0901 -0.9714
vn 0.9714 -0.0901 0.2196
vn -0.9754 -0.0042 -0.2205
vn 0.2199 -0.0728 -0.9728
vn -0.1824 0.5614 0.8072
vn 0.8329 0.5205 0.1882
vn -0.1152 -0.0901 0.9893
vn -0.9893 -0.0901 -0.1152
vn 0.1152 -0.0901 -0.9893
vn 0.9893 -0.0901 0.1152
vn -0.9933 -0.0042 -0.1156
vn 0.1153 -0.0728 -0.9907
vn -0.0957 0.5614 0.8220
vn 0.8482 0.5205 0.0987
vn 0.1066 -0.0901 0.9902
vn -0.9902 -0.0901 0.1066
vn -0.1066 -0.0901 -0.9902
vn 0.9902 -0.0901 -0.1066
vn -0.9942 -0.0042 0.1070
vn -0.1068 -0.0728 -0.9916
vn 0.0886 0.5614 0.8228
vn 0.8490 0.5205 -0.0914
vn -0.9819 -0.1387 -0.1291
vn 0.0332 -0.1693 0.9850
vn 0.9508 0.2961 0.0912
vn -0.9066 0.4048 -0.1192
vn 0.9907 -0.0976 0.0950
vn -0.9444 -0.1405 0.2973
vn 0.9762 -0.1063 -0.1889
vn -0.0333 -0.1596 -0.9866
vn -0.8703 0.4093 0.2739
vn 0.9301 0.3202 -0.1800
vn -0.0300 0.4551 -0.8899
vn 0.0296 0.4774 0.8782
vn 0.1434 -0.1387 0.9799
vn 0.9387 -0.1693 -0.3004
vn -0.1714 0.2961 -0.9396
vn 0.1324 0.4048 0.9048
vn -0.1786 -0.0976 -0.9791
vn 0.5434 -0.1405 0.8277
vn -0.4478 -0.1063 -0.8878
vn -0.9402 -0.1596 0.3009
vn 0.5007 0.4093 0.7627
vn -0.4266 0.3202 -0.8458
vn -0.8481 0.4551 0.2714
vn 0.8369 0.4774 -0.2678
usemtl color3
f 1/1/1 2/2/1 3/3/1 4/4/1
f 2/5/1 5/6/1 6/7/1 3/8/1
f 7/9/2 8/10/2 9/11/2 10/12/2
f 11/13/3 12/14/3 13/15/3 14/16/3
f 5/17/4 2/2/4 8/18/4 7/19/4
f 3/20/5 6/21/5 15/22/5 16/23/5
f 2/5/6 1/24/6 11/25/6 8/26/6
f 4/27/7 3/28/7 16/29/7 12/30/7
f 6/31/8 5/6/8 7/32/8 15/33/8
f 1/1/9 4/34/9 12/35/9 11/36/9
f 17/37/10 18/38/10 19/39/10 20/40/10
f 10/41/11 9/42/11 21/43/11 22/44/11
f 16/45/12 15/46/12 18/47/12 17/48/12
f 8/49/13 11/50/13 14/51/13 9/52/13
f 12/53/14 16/54/14 17/55/14 13/56/14
f 15/57/15 7/58/15 10/59/15 18/60/15
f 23/61/16 24/62/16 20/63/16 21/64/16
f 21/65/16 20/66/16 19/39/16 22/44/16
f 9/67/17 14/68/17 23/69/17 21/64/17
f 13/70/18 17/71/18 20/63/18 24/72/18
f 18/73/19 10/74/19 22/75/19 19/76/19
f 14/77/20 13/78/20 24/79/20 23/80/20
f 25/81/1 26/82/1 27/83/1 28/84/1
f 26/85/1 29/86/1 30/87/1 27/88/1
f 31/89/21 32/90/21 33/91/21 34/92/21
f 35/93/22 36/94/22 37/95/22 38/96/22
f 29/97/23 26/82/23 32/98/23 31/99/23
f 27/100/24 30/101/24 39/102/24 40/103/24
f 26/85/25 25/104/25 35/105/25 32/106/25
f 28/107/26 27/108/26 40/109/26 36/110/26
f 30/111/27 29/86/27 31/112/27 39/113/27
f 25/81/28 28/114/28 36/115/28 35/116/28
f 41/117/29 42/118/29 43/119/29 44/120/29
f 34/121/30 33/122/30 45/123/30 46/124/30
f 40/125/31 39/126/31 42/127/31 41/128/31
f 32/129/32 35/130/32 38/131/32 33/132/32
f 36/133/33 40/134/33 41/135/33 37/136/33
f 39/137/34 31/138/34 34/139/34 42/140/34
f 47/141/16 48/142/16 44/143/16 45/144/16
f 45/145/16 44/146/16 43/119/16 46/124/16
f 33/147/35 38/148/35 47/149/35 45/144/35
f 37/150/36 41/151/36 44/143/36 48/152/36
f 42/153/37 34/154/37 46/155/37 43/156/37
f 38/157/38 37/158/38 48/159/38 47/160/38
f 49/161/39 50/162/39 51/163/39 52/164/39
f 50/165/40 53/166/40 54/167/40 51/168/40
f 53/169/41 55/170/41 56/171/41 54/172/41
f 55/173/42 49/174/42 52/175/42 56/176/42
f 52/177/1 51/178/1 54/167/1 56/176/1
f 53/169/43 50/162/43 57/179/43 58/180/43
f 59/181/16 58/182/16 57/179/16 60/183/16
f 55/173/44 53/166/44 58/184/44 59/185/44
f 50/165/45 49/174/45 60/186/45 57/187/45
f 49/161/46 55/170/46 59/188/46 60/183/46
f 61/189/47 62/190/47 63/191/47 64/192/47
f 62/193/48 65/194/48 66/195/48 63/196/48
f 65/197/49 67/198/49 68/199/49 66/200/49
f 67/201/50 61/202/50 64/203/50 68/204/50
f 64/205/1 63/206/1 66/195/1 68/204/1
f 65/197/51 62/190/51 69/207/51 70/208/51
f 71/209/16 70/210/16 69/207/16 72/211/16
f 67/201/52 65/194/52 70/212/52 71/213/52
f 62/193/53 61/202/53 72/214/53 69/215/53
f 61/189/54 67/198/54 71/216/54 72/211/54
f 73/217/55 74/218/55 75/219/55 76/220/55
f 74/221/56 77/222/56 78/223/56 75/224/56
f 77/225/57 79/226/57 80/227/57 78/228/57
f 79/229/58 73/230/58 76/231/58 80/232/58
f 76/233/1 75/234/1 78/223/1 80/232/1
f 77/225/59 74/218/59 81/235/59 82/236/59
f 83/237/16 82/238/16 81/235/16 84/239/16
f 79/229/60 77/222/60 82/240/60 83/241/60
f 74/221/61 73/230/61 84/242/61 81/243/61
f 73/217/62 79/226/62 83/244/62 84/239/62
f 85/245/1 86/246/1 87/247/1 88/248/1 89/249/1 90/250/1
f 86/251/63 85/252/63 91/253/63 92/254/63
f 90/255/64 89/256/64 93/257/64 94/258/64
f 95/259/65 96/260/65 97/261/65 98/262/65
f 92/263/66 91/264/66 99/265/66 100/266/66
f 88/267/67 87/268/67 96/269/67 95/270/67
f 85/271/68 90/272/68 94/273/68 91/274/68
f 89/275/69 88/276/69 95/277/69 93/278/69
f 87/279/70 86/280/70 92/281/70 96/282/70
f 101/283/16 102/284/16 98/285/16 99/286/16
f 99/287/16 98/288/16 97/261/16 100/266/16
f 91/289/71 94/290/71 101/291/71 99/286/71
f 93/292/72 95/293/72 98/285/72 102/294/72
f 96/295/73 92/296/73 100/297/73 97/298/73
f 94/299/74 93/300/74 102/301/74 101/302/74
f 103/303/1 104/304/1 105/305/1 106/306/1 107/307/1 108/308/1
f 104/309/75 103/310/75 109/311/75 110/312/75
f 108/313/76 107/314/76 111/315/76 112/316/76
f 113/317/77 114/318/77 115/319/77 116/320/77
f 110/321/78 109/322/78 117/323/78 118/324/78
f 106/325/79 105/326/79 114/327/79 113/328/79
f 103/329/80 108/330/80 112/331/80 109/332/80
f 107/333/81 106/334/81 113/335/81 111/336/81
f 105/337/82 104/338/82 110/339/82 114/340/82
f 119/341/16 120/342/16 116/343/16 117/344/16
f 117/345/16 116/346/16 115/319/16 118/324/16
f 109/347/83 112/348/83 119/349/83 117/344/83
f 111/350/84 113/351/84 116/343/84 120/352/84
f 114/353/85 110/354/85 118/355/85 115/356/85
f 112/357/86 111/358/86 120/359/86 119/360/86
