mtllib LOW_POLY_set.mtl
o lp_Rock_Type6_03_mesh_001_Plane_029
v 3.923332 0.250189 17.616369
v 2.741374 0.250189 17.660049
v 2.842183 0.250189 15.872739
v 4.312496 0.250189 15.985939
v 1.583928 0.250189 17.172453
v 1.973092 0.250189 15.542022
v 1.634529 1.221111 17.151981
v 2.747339 1.221111 17.620775
v 2.735046 2.420300 17.701710
v 1.530256 2.420300 17.194166
v 3.883717 1.221111 17.578779
v 4.257873 1.221111 16.011223
v 4.370434 2.420300 15.959120
v 3.965352 2.420300 17.656242
v 1.535599 0.750717 17.692917
v 2.648409 0.750717 18.161713
v 2.008685 1.221111 15.584425
v 2.844261 1.221111 15.902389
v 3.824403 0.272678 18.157307
v 2.642444 0.272678 18.200987
v 2.839979 2.420300 15.841289
v 1.935338 2.420300 15.497045
v 2.072001 2.754327 15.659857
v 2.847957 2.754327 15.955132
v 2.757951 2.754327 17.550909
v 1.724542 2.754327 17.115564
v 3.813246 2.754327 17.511909
v 4.160706 2.754327 16.056202
v 1.237902 1.080903 16.112423
v 1.764244 1.080903 16.167059
v 1.664973 0.081583 16.247660
v 1.318502 0.081583 16.211695
v 1.709608 1.080903 16.693401
v 1.629007 0.081583 16.594130
v 1.183265 1.080903 16.638765
v 1.282537 0.081583 16.558165
v 1.745701 1.362225 16.357012
v 1.708648 1.362225 16.713961
v 1.351700 1.362225 16.676908
v 1.388753 1.362225 16.319960
v 1.211179 0.823244 16.656960
v 1.658758 0.823244 16.603127
v 1.591479 -0.028085 16.688803
v 1.296856 -0.028085 16.724239
v 1.712592 0.823244 17.050705
v 1.626916 -0.028085 16.983427
v 1.265013 0.823244 17.104538
v 1.332292 -0.028085 17.018862
v 1.679163 1.062906 16.764433
v 1.715671 1.062906 17.067966
v 1.412137 1.062906 17.104475
v 1.375629 1.062906 16.800940
v 1.484999 0.272678 17.713388
v 3.784788 0.750717 18.119715
vt 0.229467 0.209936
vt 0.270533 0.209936
vt 0.270533 0.251002
vt 0.229467 0.251002
vt 0.229467 0.209936
vt 0.270533 0.209936
vt 0.270533 0.251002
vt 0.229467 0.251002
vt 0.229467 0.209936
vt 0.270533 0.209936
vt 0.270533 0.251002
vt 0.229467 0.251002
vt 0.229467 0.209936
vt 0.270533 0.209936
vt 0.270533 0.251002
vt 0.229467 0.251002
vt 0.717748 0.198217
vt 0.758814 0.198217
vt 0.758814 0.239283
vt 0.717748 0.239283
vt 0.229467 0.209936
vt 0.270533 0.209936
vt 0.270533 0.251002
vt 0.229467 0.251002
vt 0.717748 0.198217
vt 0.758814 0.198217
vt 0.758814 0.239283
vt 0.717748 0.239283
vt 0.229467 0.209936
vt 0.270533 0.209936
vt 0.270533 0.251002
vt 0.229467 0.251002
vt 0.229467 0.209936
vt 0.270533 0.251002
vt 0.229467 0.251002
vt 0.270533 0.209936
vt 0.270533 0.251002
vt 0.229467 0.251002
vt 0.229467 0.209936
vt 0.270533 0.209936
vt 0.270533 0.251002
vt 0.229467 0.251002
vt 0.229467 0.209936
vt 0.270533 0.209936
vt 0.270533 0.251002
vt 0.229467 0.251002
vt 0.229467 0.209936
vt 0.270533 0.209936
vt 0.270533 0.251002
vt 0.229467 0.251002
vt 0.229467 0.209936
vt 0.270533 0.209936
vt 0.270533 0.251002
vt 0.229467 0.251002
vt 0.229467 0.209936
vt 0.270533 0.209936
vt 0.270533 0.251002
vt 0.229467 0.251002
vt 0.229467 0.209936
vt 0.270533 0.209936
vt 0.270533 0.251002
vt 0.229467 0.251002
vt 0.229467 0.209936
vt 0.270533 0.209936
vt 0.270533 0.251002
vt 0.229467 0.251002
vt 0.229467 0.209936
vt 0.270533 0.209936
vt 0.229467 0.209936
vt 0.270533 0.209936
vt 0.270533 0.251002
vt 0.229467 0.209936
vt 0.270533 0.209936
vt 0.229467 0.251002
vt 0.229467 0.209936
vt 0.270533 0.209936
vt 0.270533 0.251002
vt 0.229467 0.251002
vt 0.229467 0.209936
vt 0.270533 0.209936
vt 0.270533 0.251002
vt 0.229467 0.251002
vt 0.217748 0.733373
vt 0.258814 0.733373
vt 0.258814 0.774439
vt 0.217748 0.774439
vt 0.217748 0.733373
vt 0.258814 0.733373
vt 0.258814 0.774439
vt 0.217748 0.774439
vt 0.217748 0.733373
vt 0.258814 0.733373
vt 0.258814 0.774439
vt 0.217748 0.774439
vt 0.217748 0.733373
vt 0.258814 0.733373
vt 0.258814 0.774439
vt 0.217748 0.774439
vt 0.217748 0.733373
vt 0.258814 0.733373
vt 0.258814 0.774439
vt 0.217748 0.774439
vt 0.217748 0.733373
vt 0.258814 0.733373
vt 0.217748 0.774439
vt 0.258814 0.774439
vt 0.217748 0.774439
vt 0.258814 0.774439
vt 0.217748 0.774439
vt 0.258814 0.774439
vt 0.217748 0.733373
vt 0.258814 0.733373
vt 0.258814 0.774439
vt 0.217748 0.774439
vt 0.217748 0.733373
vt 0.258814 0.733373
vt 0.258814 0.774439
vt 0.217748 0.774439
vt 0.217748 0.733373
vt 0.258814 0.733373
vt 0.258814 0.774439
vt 0.217748 0.774439
vt 0.217748 0.733373
vt 0.258814 0.733373
vt 0.258814 0.774439
vt 0.217748 0.774439
vt 0.217748 0.733373
vt 0.258814 0.733373
vt 0.258814 0.774439
vt 0.217748 0.774439
vt 0.217748 0.733373
vt 0.258814 0.733373
vt 0.217748 0.774439
vt 0.258814 0.774439
vt 0.217748 0.774439
vt 0.258814 0.774439
vt 0.217748 0.774439
vt 0.258814 0.774439
vt 0.717748 0.198217
vt 0.758814 0.198217
vt 0.758814 0.239283
vt 0.717748 0.239283
vt 0.717748 0.198217
vt 0.758814 0.198217
vt 0.758814 0.239283
vt 0.717748 0.198217
vt 0.758814 0.198217
vt 0.717748 0.239283
vt 0.717748 0.198217
vt 0.758814 0.198217
vt 0.717748 0.239283
vt 0.717748 0.198217
vt 0.758814 0.198217
vt 0.758814 0.239283
vt 0.717748 0.198217
vt 0.758814 0.198217
vt 0.758814 0.239283
vt 0.717748 0.239283
vn 0.0000 -1.0000 0.0000
vn -0.3874 -0.0660 0.9196
vn 0.9695 -0.0809 0.2314
vn -0.2558 0.7522 0.6073
vn 0.3555 0.0278 -0.9343
vn 0.0015 -0.9991 0.0418
vn 0.0767 0.0303 -0.9966
vn -0.9717 0.0457 -0.2319
vn 0.9715 0.0486 0.2319
vn 0.3397 0.2961 -0.8927
vn -0.3550 0.4048 0.8427
vn 0.3553 -0.0463 -0.9336
vn 0.0368 -0.0669 0.9971
vn 0.0767 -0.0505 -0.9958
vn -0.9698 -0.0762 -0.2315
vn 0.0000 1.0000 0.0000
vn 0.0337 0.4093 0.9118
vn 0.0727 0.3202 -0.9446
vn -0.8661 0.4551 -0.2067
vn 0.8547 0.4774 0.2040
vn 0.1028 -0.0901 -0.9906
vn 0.9906 -0.0901 0.1028
vn -0.1028 -0.0901 0.9906
vn -0.9906 -0.0901 -0.1028
vn 0.9946 -0.0042 0.1032
vn -0.1030 -0.0728 0.9920
vn 0.0854 0.5614 -0.8231
vn -0.8493 0.5205 -0.0882
vn -0.1189 -0.0901 -0.9888
vn 0.9888 -0.0901 -0.1189
vn 0.1189 -0.0901 0.9888
vn -0.9888 -0.0901 0.1189
vn 0.9928 -0.0042 -0.1194
vn 0.1191 -0.0729 0.9902
vn -0.0988 0.5614 -0.8216
vn -0.8478 0.5205 0.1020
vn -0.3870 0.0803 0.9186
vn 0.0368 0.0814 0.9960
vn 0.9766 0.0640 0.2051
vn 0.0243 0.7522 0.6585
vn -0.9860 0.0645 -0.1536
vn -0.0162 -0.9991 0.0386
usemtl color1
f 1/1/1 2/2/1 3/3/1 4/4/1
f 2/5/1 5/6/1 6/7/1 3/8/1
f 7/9/2 8/10/2 9/11/2 10/12/2
f 11/13/3 12/14/3 13/15/3 14/16/3
f 8/17/4 7/18/4 15/19/4 16/20/4
f 3/21/5 6/22/5 17/23/5 18/24/5
f 2/25/6 1/26/6 19/27/6 20/28/6
f 4/29/7 3/30/7 18/31/7 12/32/7
f 6/33/8 5/6/8 7/34/8 17/35/8
f 1/1/9 4/36/9 12/37/9 11/38/9
f 21/39/10 22/40/10 23/41/10 24/42/10
f 10/43/11 9/44/11 25/45/11 26/46/11
f 18/47/12 17/48/12 22/49/12 21/50/12
f 8/51/13 11/52/13 14/53/13 9/54/13
f 12/55/14 18/56/14 21/57/14 13/58/14
f 17/59/15 7/60/15 10/61/15 22/62/15
f 27/63/16 28/64/16 24/65/16 25/66/16
f 25/67/16 24/68/16 23/41/16 26/46/16
f 9/69/17 14/70/17 27/71/17 25/66/17
f 13/72/18 21/73/18 24/65/18 28/74/18
f 22/75/19 10/76/19 26/77/19 23/78/19
f 14/79/20 13/80/20 28/81/20 27/82/20
f 29/83/21 30/84/21 31/85/21 32/86/21
f 30/87/22 33/88/22 34/89/22 31/90/22
f 33/91/23 35/92/23 36/93/23 34/94/23
f 35/95/24 29/96/24 32/97/24 36/98/24
f 32/99/1 31/100/1 34/89/1 36/98/1
f 33/91/25 30/84/25 37/101/25 38/102/25
f 39/103/16 38/104/16 37/101/16 40/105/16
f 35/95/26 33/88/26 38/106/26 39/107/26
f 30/87/27 29/96/27 40/108/27 37/109/27
f 29/83/28 35/92/28 39/110/28 40/105/28
f 41/111/29 42/112/29 43/113/29 44/114/29
f 42/115/30 45/116/30 46/117/30 43/118/30
f 45/119/31 47/120/31 48/121/31 46/122/31
f 47/123/32 41/124/32 44/125/32 48/126/32
f 44/127/1 43/128/1 46/117/1 48/126/1
f 45/119/33 42/112/33 49/129/33 50/130/33
f 51/131/16 50/132/16 49/129/16 52/133/16
f 47/123/34 45/116/34 50/134/34 51/135/34
f 42/115/35 41/124/35 52/136/35 49/137/35
f 41/111/36 47/120/36 51/138/36 52/133/36
f 53/139/37 20/140/37 16/141/37 15/142/37
f 20/143/38 19/144/38 54/145/38 16/20/38
f 1/146/39 11/147/39 54/145/39 19/148/39
f 11/149/40 8/150/40 16/141/40 54/151/40
f 7/152/41 5/153/41 53/154/41 15/142/41
f 5/155/42 2/156/42 20/157/42 53/158/42
