mtllib LOW_POLY_set.mtl
o lp_Rock_Type4_02_mesh_001_Circle_013
v -17.941942 0.376966 35.528908
v -17.436892 0.376966 33.001255
v -16.213608 0.376966 33.260319
v -18.840042 0.376966 34.833633
v -20.018574 0.376966 35.981205
v -19.037451 0.376966 37.384766
v -17.245417 0.376966 36.681026
v -16.274078 0.376966 36.633144
v -15.357437 0.376966 35.821674
v -16.283792 0.376966 34.490555
v -19.733471 0.376966 33.347420
v -18.781826 0.376966 32.104664
v -16.053623 0.376966 38.328297
v -17.123693 0.376966 39.501556
v -18.816996 0.376966 39.079918
v -14.986731 0.376966 32.893120
v -13.652819 0.376966 33.876106
v -14.130562 0.376966 35.454479
v -14.696481 0.376966 36.982040
v -15.168393 0.376966 37.399811
v -19.733471 0.884741 33.347420
v -18.840042 0.884741 34.833633
v -18.599596 1.308616 34.570766
v -19.266855 1.308616 33.460789
v -16.213608 0.884741 33.260319
v -17.436892 0.884741 33.001255
v -17.551653 1.308616 33.202255
v -16.638041 1.308616 33.395737
v -20.018574 0.884741 35.981205
v -19.037451 0.884741 37.384766
v -18.931267 1.254344 37.055977
v -19.664795 1.254344 36.006618
v -17.245417 0.884741 36.681026
v -17.591469 1.254344 36.529831
v -17.941942 0.884741 35.528908
v -18.783676 1.254344 35.148647
v -18.112221 1.254344 35.668465
v -16.274078 0.884741 36.633144
v -16.274078 1.313520 36.633144
v -17.245417 1.313520 36.681026
v -15.357437 0.884741 35.821674
v -15.357437 1.313520 35.821674
v -16.283792 0.884741 34.490555
v -16.283792 1.313520 34.490555
v -17.928850 1.308616 35.090034
v -16.690458 1.308616 34.314541
v -17.123693 0.884741 39.501556
v -16.053623 0.884741 38.328297
v -16.386396 1.391355 38.232822
v -17.196848 1.391355 39.121426
v -17.289038 1.391355 36.985210
v -16.553364 1.391355 36.948948
v -13.652819 0.884741 33.876106
v -14.986731 0.884741 32.893120
v -15.019689 1.453289 33.287800
v -14.060152 1.453289 33.994900
v -15.902229 1.453289 33.551941
v -15.996864 1.114799 36.656563
v -15.362569 1.114799 36.095043
v -18.816996 0.884741 39.079918
v -14.130562 0.884741 35.454479
v -14.696481 0.884741 36.982040
v -15.168393 0.884741 37.399811
v -18.781826 0.884741 32.104664
v -18.646290 1.391355 37.518211
v -18.479321 1.391355 38.802086
v -15.952716 1.453289 34.436897
v -15.286352 1.453289 35.394424
v -14.403811 1.453289 35.130287
v -18.556118 1.308616 32.532635
v -16.385479 1.674597 34.895351
v -15.738859 1.674597 35.824509
v -17.941942 1.313520 35.528908
v -17.056717 1.674597 36.424358
v -17.542912 1.674597 35.620152
v -16.378698 1.674597 36.390938
v -15.231754 1.114799 37.187077
v -14.905201 1.114799 36.897991
vt 0.220231 0.224137
vt 0.264144 0.224137
vt 0.264144 0.268050
vt 0.264144 0.224137
vt 0.264144 0.268050
vt 0.264144 0.224137
vt 0.264144 0.268050
vt 0.264144 0.224137
vt 0.264144 0.268050
vt 0.264144 0.224137
vt 0.264144 0.268050
vt 0.264144 0.224137
vt 0.264144 0.268050
vt 0.264144 0.224137
vt 0.264144 0.268050
vt 0.264144 0.224137
vt 0.264144 0.268050
vt 0.264144 0.224137
vt 0.264144 0.268050
vt 0.220231 0.224137
vt 0.264144 0.224137
vt 0.264144 0.268050
vt 0.220231 0.268050
vt 0.220231 0.224137
vt 0.264144 0.224137
vt 0.264144 0.268050
vt 0.220231 0.268050
vt 0.220231 0.224137
vt 0.264144 0.224137
vt 0.264144 0.268050
vt 0.220231 0.268050
vt 0.220231 0.224137
vt 0.264144 0.224137
vt 0.264144 0.268050
vt 0.220231 0.268050
vt 0.220231 0.224137
vt 0.264144 0.224137
vt 0.264144 0.268050
vt 0.220231 0.268050
vt 0.220231 0.224137
vt 0.264144 0.224137
vt 0.264144 0.268050
vt 0.220231 0.268050
vt 0.220231 0.224137
vt 0.264144 0.224137
vt 0.264144 0.268050
vt 0.220231 0.268050
vt 0.220231 0.224137
vt 0.264144 0.224137
vt 0.264144 0.268050
vt 0.220231 0.268050
vt 0.728044 0.196794
vt 0.771956 0.196794
vt 0.771956 0.240706
vt 0.728044 0.240706
vt 0.728044 0.196794
vt 0.771956 0.196794
vt 0.771956 0.240706
vt 0.728044 0.240706
vt 0.728044 0.196794
vt 0.771956 0.196794
vt 0.771956 0.240706
vt 0.728044 0.240706
vt 0.204606 0.724137
vt 0.248519 0.724137
vt 0.248519 0.768050
vt 0.204606 0.768050
vt 0.204606 0.724137
vt 0.248519 0.724137
vt 0.248519 0.768050
vt 0.204606 0.768050
vt 0.204606 0.724137
vt 0.248519 0.724137
vt 0.248519 0.768050
vt 0.204606 0.768050
vt 0.220231 0.224137
vt 0.264144 0.224137
vt 0.264144 0.268050
vt 0.220231 0.268050
vt 0.220231 0.224137
vt 0.264144 0.224137
vt 0.264144 0.268050
vt 0.220231 0.268050
vt 0.204606 0.724137
vt 0.248519 0.724137
vt 0.248519 0.768050
vt 0.204606 0.768050
vt 0.248519 0.724137
vt 0.248519 0.768050
vt 0.204606 0.768050
vt 0.728044 0.196794
vt 0.771956 0.196794
vt 0.771956 0.240706
vt 0.728044 0.240706
vt 0.728044 0.196794
vt 0.771956 0.196794
vt 0.771956 0.240706
vt 0.728044 0.240706
vt 0.220231 0.224137
vt 0.264144 0.224137
vt 0.264144 0.268050
vt 0.220231 0.268050
vt 0.204606 0.724137
vt 0.248519 0.724137
vt 0.248519 0.768050
vt 0.204606 0.768050
vt 0.728044 0.196794
vt 0.771956 0.196794
vt 0.771956 0.240706
vt 0.728044 0.240706
vt 0.728044 0.196794
vt 0.771956 0.196794
vt 0.771956 0.240706
vt 0.728044 0.240706
vt 0.204606 0.724137
vt 0.248519 0.724137
vt 0.248519 0.768050
vt 0.204606 0.768050
vt 0.264144 0.268050
vt 0.220231 0.268050
vt 0.728044 0.196794
vt 0.771956 0.196794
vt 0.771956 0.240706
vt 0.728044 0.240706
vt 0.220231 0.224137
vt 0.264144 0.268050
vt 0.220231 0.268050
vt 0.204606 0.724137
vt 0.248519 0.724137
vt 0.248519 0.768050
vt 0.204606 0.768050
vt 0.264144 0.224137
vt 0.264144 0.268050
vt 0.220231 0.268050
vt 0.204606 0.724137
vt 0.248519 0.724137
vt 0.248519 0.768050
vt 0.204606 0.768050
vt 0.220231 0.224137
vt 0.264144 0.268050
vt 0.220231 0.268050
vt 0.220231 0.224137
vt 0.264144 0.268050
vt 0.220231 0.268050
vt 0.728044 0.196794
vt 0.771956 0.196794
vt 0.771956 0.240706
vt 0.728044 0.240706
vt 0.220231 0.224137
vt 0.264144 0.224137
vt 0.264144 0.268050
vt 0.220231 0.268050
vt 0.728044 0.196794
vt 0.771956 0.196794
vt 0.771956 0.240706
vt 0.728044 0.240706
vt 0.728044 0.196794
vt 0.771956 0.196794
vt 0.771956 0.240706
vt 0.728044 0.240706
vt 0.220231 0.224137
vt 0.264144 0.268050
vt 0.220231 0.268050
vt 0.204606 0.724137
vt 0.248519 0.724137
vt 0.248519 0.768050
vt 0.204606 0.768050
vt 0.204606 0.724137
vt 0.248519 0.724137
vt 0.248519 0.768050
vt 0.248519 0.724137
vt 0.248519 0.768050
vt 0.204606 0.768050
vt 0.204606 0.724137
vt 0.248519 0.724137
vt 0.204606 0.768050
vt 0.204606 0.724137
vt 0.248519 0.724137
vt 0.204606 0.768050
vt 0.204606 0.724137
vt 0.248519 0.768050
vt 0.728044 0.196794
vt 0.771956 0.196794
vt 0.771956 0.240706
vt 0.728044 0.196794
vt 0.771956 0.196794
vt 0.771956 0.240706
vt 0.728044 0.196794
vt 0.771956 0.196794
vt 0.728044 0.240706
vt 0.728044 0.196794
vt 0.771956 0.196794
vt 0.771956 0.240706
vt 0.728044 0.240706
vt 0.728044 0.196794
vt 0.771956 0.196794
vt 0.771956 0.240706
vt 0.728044 0.240706
vt 0.728044 0.196794
vt 0.771956 0.196794
vt 0.728044 0.240706
vt 0.220231 0.224137
vt 0.264144 0.224137
vt 0.264144 0.224137
vt 0.264144 0.224137
vt 0.220231 0.224137
vt 0.264144 0.268050
vt 0.220231 0.224137
vt 0.264144 0.224137
vt 0.264144 0.268050
vt 0.220231 0.268050
vt 0.220231 0.224137
vt 0.264144 0.224137
vt 0.264144 0.268050
vt 0.220231 0.268050
vt 0.220231 0.224137
vt 0.264144 0.224137
vt 0.220231 0.268050
vt 0.728044 0.196794
vt 0.771956 0.196794
vt 0.771956 0.240706
vt 0.771956 0.196794
vt 0.771956 0.196794
vt 0.728044 0.196794
vt 0.771956 0.196794
vt 0.728044 0.240706
vt 0.728044 0.196794
vt 0.771956 0.196794
vt 0.771956 0.240706
vt 0.728044 0.240706
vt 0.204606 0.724137
vt 0.248519 0.724137
vt 0.248519 0.768050
vt 0.204606 0.768050
vt 0.204606 0.724137
vt 0.248519 0.724137
vt 0.248519 0.768050
vt 0.204606 0.768050
vt 0.204606 0.724137
vt 0.248519 0.724137
vt 0.248519 0.768050
vt 0.204606 0.768050
vt 0.204606 0.724137
vt 0.248519 0.724137
vt 0.248519 0.768050
vt 0.204606 0.768050
vt 0.204606 0.724137
vt 0.248519 0.768050
vt 0.204606 0.768050
vt 0.204606 0.724137
vt 0.248519 0.724137
vt 0.248519 0.768050
vt 0.248519 0.724137
vt 0.248519 0.768050
vt 0.248519 0.724137
vt 0.204606 0.724137
vt 0.248519 0.724137
vt 0.204606 0.768050
vt 0.204606 0.724137
vt 0.248519 0.724137
vt 0.204606 0.768050
vt 0.220231 0.224137
vt 0.264144 0.224137
vt 0.264144 0.268050
vt 0.220231 0.268050
vt 0.220231 0.224137
vt 0.264144 0.224137
vt 0.264144 0.268050
vt 0.220231 0.224137
vt 0.264144 0.224137
vt 0.264144 0.268050
vt 0.220231 0.268050
vt 0.220231 0.224137
vt 0.264144 0.224137
vt 0.220231 0.268050
vn 0.0000 -1.0000 0.0000
vn -0.6674 0.6274 0.4012
vn 0.1838 0.4614 -0.8680
vn -0.6572 0.5975 0.4594
vn 0.2962 0.5859 0.7543
vn 0.5294 0.5021 -0.6838
vn 0.0492 0.0000 0.9988
vn 0.6628 0.0000 0.7488
vn 0.8208 0.0000 -0.5712
vn -0.4693 0.6421 0.6062
vn 0.7125 0.7005 0.0406
vn 0.6301 0.5222 0.5747
vn -0.0423 0.5116 -0.8582
vn 0.5102 0.5102 -0.6924
vn -0.2406 0.5441 -0.8038
vn -0.4989 0.6585 -0.5635
vn -0.2416 0.0000 0.9704
vn -0.2867 0.0000 -0.9580
vn -0.8196 0.0000 0.5729
vn 0.7389 0.0000 0.6739
vn 0.2072 0.0000 -0.9783
vn 0.2867 0.0000 0.9580
vn 0.9916 0.0000 -0.1290
vn -0.5698 0.0000 0.8218
vn -0.9916 0.0000 0.1290
vn -0.7940 0.0000 -0.6080
vn 0.8689 0.0000 -0.4949
vn 0.9571 0.0000 0.2897
vn 0.5547 0.0000 -0.8321
vn 0.5932 0.0000 -0.8050
vn -0.6976 0.0000 -0.7165
vn -0.8571 0.0000 0.5152
vn 0.0000 1.0000 0.0000
vn -0.3233 0.4665 -0.8233
vn -0.8003 0.5905 0.1041
vn -0.1986 0.5697 0.7975
vn 0.8401 0.5313 -0.1093
vn 0.2367 0.5646 0.7907
vn -0.8651 0.4991 -0.0494
vn -0.7247 0.4696 0.5043
vn 0.8116 0.5301 0.2456
vn -0.5512 0.7197 -0.4221
vn 0.4022 0.6525 0.6422
vn 0.4871 0.4784 -0.7307
vn -0.5669 0.5827 -0.5822
vn 0.7372 0.5079 -0.4457
vn 0.6188 0.6570 -0.4306
vn -0.6634 0.6318 0.4010
vn -0.4143 0.6250 -0.6616
vn -0.5307 0.0000 -0.8475
vn -0.8558 0.0000 0.5174
vn 0.5445 0.5703 0.6150
vn 0.0406 0.5647 0.8243
vn 0.7426 0.5192 -0.4230
vn 0.4989 0.6585 0.5635
vn -0.4880 0.5164 0.7037
usemtl color2
f 1/1/1 2/2/1 3/3/1
f 1/1/1 4/4/1 2/5/1
f 1/1/1 5/6/1 4/7/1
f 1/1/1 6/8/1 5/9/1
f 1/1/1 7/10/1 6/11/1
f 1/1/1 8/12/1 7/13/1
f 1/1/1 9/14/1 8/15/1
f 1/1/1 10/16/1 9/17/1
f 1/1/1 3/18/1 10/19/1
f 4/20/1 11/21/1 12/22/1 2/23/1
f 8/24/1 13/25/1 14/26/1 7/27/1
f 7/28/1 14/29/1 15/30/1 6/31/1
f 3/32/1 16/33/1 17/34/1 10/35/1
f 10/36/1 17/37/1 18/38/1 9/39/1
f 9/40/1 19/41/1 20/42/1 8/43/1
f 21/44/2 22/45/2 23/46/2 24/47/2
f 25/48/3 26/49/3 27/50/3 28/51/3
f 29/52/4 30/53/4 31/54/4 32/55/4
f 30/56/5 33/57/5 34/58/5 31/59/5
f 35/60/6 22/61/6 36/62/6 37/63/6
f 33/64/7 38/65/7 39/66/7 40/67/7
f 38/68/8 41/69/8 42/70/8 39/71/8
f 41/72/9 43/73/9 44/74/9 42/75/9
f 22/76/10 35/77/10 45/78/10 23/79/10
f 43/80/11 25/81/11 28/82/11 46/83/11
f 47/84/12 48/85/12 49/86/12 50/87/12
f 38/68/13 33/88/13 51/89/13 52/90/13
f 53/91/14 54/92/14 55/93/14 56/94/14
f 54/95/15 25/96/15 57/97/15 55/98/15
f 41/99/16 38/100/16 58/101/16 59/102/16
f 15/103/17 14/104/17 47/105/17 60/106/17
f 16/107/18 3/108/18 25/109/18 54/110/18
f 5/111/19 6/112/19 30/113/19 29/114/19
f 14/115/20 13/116/20 48/117/20 47/118/20
f 3/32/21 2/2/21 26/119/21 25/120/21
f 9/121/22 18/122/22 61/123/22 41/124/22
f 20/125/8 19/41/8 62/126/8 63/127/8
f 13/128/23 8/129/23 38/130/23 48/131/23
f 8/24/24 20/132/24 63/133/24 38/134/24
f 6/135/25 15/136/25 60/137/25 30/138/25
f 12/139/26 11/21/26 21/140/26 64/141/26
f 19/142/27 9/14/27 41/143/27 62/144/27
f 18/145/28 17/146/28 53/147/28 61/148/28
f 2/149/29 12/150/29 64/151/29 26/152/29
f 17/153/30 16/154/30 54/155/30 53/156/30
f 4/157/31 5/158/31 29/159/31 22/160/31
f 11/161/32 4/4/32 22/162/32 21/163/32
f 52/164/33 51/165/33 50/166/33 49/167/33
f 51/168/33 65/169/33 66/170/33 50/87/33
f 33/64/34 30/171/34 65/172/34 51/173/34
f 30/174/35 60/175/35 66/170/35 65/176/35
f 60/177/36 47/178/36 50/166/36 66/179/36
f 48/180/37 38/65/37 52/181/37 49/167/37
f 57/182/33 67/183/33 56/184/33 55/98/33
f 67/185/33 68/186/33 69/187/33 56/94/33
f 41/188/38 61/189/38 69/187/38 68/190/38
f 25/191/39 43/192/39 67/193/39 57/194/39
f 43/195/40 41/196/40 68/197/40 67/198/40
f 61/199/41 53/200/41 56/184/41 69/201/41
f 45/202/33 28/203/33 27/50/33
f 45/202/33 27/204/33 23/46/33
f 45/202/33 46/205/33 28/82/33
f 23/206/33 27/204/33 70/207/33 24/47/33
f 64/208/42 21/209/42 24/210/42 70/211/42
f 35/212/43 43/213/43 46/214/43 45/215/43
f 26/216/44 64/217/44 70/207/44 27/218/44
f 37/219/33 36/220/33 32/221/33
f 37/219/33 32/222/33 31/54/33
f 37/219/33 31/223/33 34/58/33
f 22/224/45 29/225/45 32/221/45 36/226/45
f 33/227/46 35/228/46 37/229/46 34/230/46
f 42/231/47 44/232/47 71/233/47 72/234/47
f 73/235/48 40/236/48 74/237/48 75/238/48
f 44/239/49 73/240/49 75/241/49 71/242/49
f 43/243/50 35/244/50 73/245/50 44/246/50
f 35/247/51 33/88/51 40/248/51 73/249/51
f 75/250/33 74/251/33 76/252/33
f 75/250/33 76/253/33 72/254/33
f 75/250/33 72/255/33 71/233/33
f 39/256/52 42/257/52 72/254/52 76/258/52
f 40/259/53 39/260/53 76/252/53 74/261/53
f 59/262/33 58/263/33 77/264/33 78/265/33
f 62/266/54 41/267/54 59/268/54 78/265/54
f 63/269/55 62/270/55 78/271/55 77/272/55
f 38/273/56 63/274/56 77/264/56 58/275/56
