mtllib LOW_POLY_set.mtl
o lp_stone_5_001_Cube_020
v 116.175827 0.934111 31.425142
v 115.888023 1.077407 31.682890
v 116.210556 0.934111 31.814348
v 115.870659 0.750959 32.352272
v 115.859070 0.872123 32.291977
v 115.332893 0.808364 32.105705
v 115.300171 0.750959 32.160355
v 116.305893 0.750959 31.368908
v 116.280495 0.750959 31.855877
v 115.426086 0.934111 31.480280
v 115.304016 0.750959 31.373871
v 115.680153 0.934111 31.280619
v 115.594917 0.750959 31.155642
v 116.413368 0.750959 32.351723
v 116.481354 0.985177 32.292564
v 117.116676 0.825668 31.251934
v 117.082649 0.750959 31.192509
v 118.232681 0.871412 31.568567
v 118.279915 0.750959 31.485275
v 118.312836 1.105754 32.656715
v 118.355667 0.750959 32.688946
v 117.283356 0.750959 33.001717
v 117.272324 0.862866 32.958847
v 116.662148 1.155578 32.211746
v 117.261971 1.185620 31.598747
v 118.085236 1.185620 31.811455
v 118.227585 1.294964 32.501732
v 117.351280 1.159459 32.748188
v 117.722191 1.365623 32.173691
vt 0.601377 0.896637
vt 0.558133 0.939880
vt 0.601377 0.939880
vt 0.645821 0.896236
vt 0.602177 0.896236
vt 0.602177 0.939880
vt 0.645821 0.939880
vt 0.868043 0.718459
vt 0.824400 0.718459
vt 0.824400 0.762102
vt 0.868043 0.762102
vt 0.956932 0.540681
vt 0.913289 0.540681
vt 0.913289 0.628769
vt 0.956932 0.628769
vt 0.690266 0.896236
vt 0.646622 0.896236
vt 0.646622 0.939880
vt 0.690266 0.939880
vt 0.645821 0.850991
vt 0.645821 0.807348
vt 0.557733 0.807348
vt 0.557733 0.850991
vt 0.779154 0.762903
vt 0.735511 0.762903
vt 0.735511 0.850991
vt 0.779154 0.850991
vt 0.823599 0.895436
vt 0.823599 0.851792
vt 0.735511 0.851792
vt 0.735511 0.895436
vt 0.823599 0.647284
vt 0.823599 0.708176
vt 0.784487 0.717658
vt 0.735511 0.697155
vt 0.737155 0.647805
vt 0.799441 0.629570
vt 0.868043 0.540681
vt 0.824400 0.540681
vt 0.824400 0.717658
vt 0.868043 0.717658
vt 0.823599 0.762102
vt 0.823599 0.718459
vt 0.646622 0.718459
vt 0.646622 0.762102
vt 0.912488 0.540681
vt 0.868844 0.540681
vt 0.868844 0.628769
vt 0.912488 0.628769
vt 0.868043 0.850991
vt 0.868043 0.807348
vt 0.779955 0.807348
vt 0.779955 0.850991
vt 0.912488 0.629570
vt 0.868844 0.629570
vt 0.868844 0.717658
vt 0.912488 0.717658
vt 0.645821 0.895436
vt 0.645821 0.851792
vt 0.557733 0.851792
vt 0.557733 0.895436
vt 0.912488 0.718459
vt 0.868844 0.718459
vt 0.868844 0.806547
vt 0.912488 0.806547
vt 0.734710 0.895436
vt 0.734710 0.851792
vt 0.646622 0.851792
vt 0.646622 0.895436
vt 0.912488 0.807348
vt 0.868844 0.807348
vt 0.868844 0.895436
vt 0.912488 0.895436
vt 0.734710 0.683944
vt 0.621559 0.717658
vt 0.557733 0.619522
vt 0.631582 0.540681
vt 0.734710 0.553177
vt 0.734710 0.762903
vt 0.646622 0.762903
vt 0.646622 0.850991
vt 0.734710 0.850991
vt 0.868043 0.806547
vt 0.868043 0.762903
vt 0.779955 0.762903
vt 0.779955 0.806547
vt 0.735511 0.540681
vt 0.735511 0.628368
vt 0.823198 0.540681
vt 0.645821 0.718459
vt 0.557733 0.718459
vt 0.557733 0.806547
vt 0.645821 0.806547
vt 0.557733 0.896236
vt 0.557733 0.939480
vt 0.600976 0.896236
vt 0.868043 0.851792
vt 0.824400 0.851792
vt 0.824400 0.895436
vt 0.868043 0.895436
vn 0.4184 0.9075 -0.0373
vn -0.3021 0.5410 0.7849
vn 0.8775 0.4795 -0.0093
vn -0.8400 0.5425 -0.0094
vn -0.4646 0.6457 -0.6059
vn 0.7145 0.3865 0.5831
vn 0.2533 0.4537 -0.8544
vn -0.0302 0.9476 0.3179
vn 0.0000 -1.0000 0.0000
vn -0.8192 0.2709 -0.5055
vn 0.1953 0.5875 -0.7853
vn 0.9771 0.1945 -0.0864
vn -0.5746 0.3170 0.7545
vn 0.2554 0.1823 0.9495
vn -0.6035 0.6216 -0.4994
vn 0.1865 0.6472 -0.7392
vn 0.8770 0.4393 -0.1946
vn -0.4533 0.6396 0.6208
vn -0.1329 0.9571 0.2576
vn 0.1089 0.5987 0.7935
vn -0.1973 0.9695 -0.1456
vn 0.1705 0.9398 -0.2961
vn -0.3471 0.9281 0.1349
vn -0.0239 0.9456 -0.3245
usemtl STONE_1.003
f 1/1/1 2/2/1 3/3/1
f 4/4/2 5/5/2 6/6/2 7/7/2
f 8/8/3 1/9/3 3/10/3 9/11/3
f 7/12/4 6/13/4 10/14/4 11/15/4
f 11/16/5 10/17/5 12/18/5 13/19/5
f 9/20/6 3/21/6 5/22/6 4/23/6
f 13/24/7 12/25/7 1/26/7 8/27/7
f 6/28/8 5/29/8 3/30/8 2/31/8
f 13/32/9 8/33/9 9/34/9 4/35/9 7/36/9 11/37/9
f 14/38/10 15/39/10 16/40/10 17/41/10
f 17/42/11 16/43/11 18/44/11 19/45/11
f 19/46/12 18/47/12 20/48/12 21/49/12
f 22/50/13 23/51/13 15/52/13 14/53/13
f 21/54/14 20/55/14 23/56/14 22/57/14
f 15/58/15 24/59/15 25/60/15 16/61/15
f 16/62/16 25/63/16 26/64/16 18/65/16
f 18/66/17 26/67/17 27/68/17 20/69/17
f 23/70/18 28/71/18 24/72/18 15/73/18
f 17/74/9 19/75/9 21/76/9 22/77/9 14/78/9
f 27/79/19 29/80/19 24/81/19 28/82/19
f 20/83/20 27/84/20 28/85/20 23/86/20
f 25/87/21 24/88/21 29/89/21
f 26/90/22 25/91/22 29/92/22 27/93/22
f 10/94/23 6/95/23 2/96/23
f 12/97/24 10/98/24 2/99/24 1/100/24
