mtllib LOW_POLY_set.mtl
o lp_stone_2_001_Cube_027
v 100.706299 1.907244 33.324383
v 100.774101 2.036450 30.940737
v 100.691765 1.918550 30.861080
v 100.711983 1.615397 32.463749
v 102.568741 1.583605 30.814342
v 102.655495 1.171638 30.689734
v 101.703659 0.950761 29.991013
v 101.826248 1.583605 30.283640
v 103.055779 1.907244 30.961643
v 103.195297 1.907244 33.283291
v 103.287186 1.825551 33.372192
v 103.271393 1.765281 32.271217
v 103.386261 1.171638 31.528025
v 103.763733 1.765281 32.654022
v 103.878609 1.171638 31.910828
v 102.776573 2.040547 31.293558
v 102.803154 2.040547 32.903885
v 100.942421 2.040547 33.194466
v 102.857910 2.522588 32.775188
v 101.247581 2.522588 32.801773
v 101.065376 2.117961 31.382954
v 102.659981 2.522588 31.279789
v 102.565163 3.123516 31.621708
v 102.719666 2.884140 32.646843
v 101.415916 2.522588 31.269754
v 101.593925 2.884140 31.337116
v 101.508034 3.123516 32.615894
v 103.383163 0.750959 30.803131
v 103.237564 1.171638 30.872793
v 103.384506 0.750959 31.421589
v 99.753357 1.270378 30.562450
v 99.971970 1.264098 32.083488
v 100.360367 0.750959 33.710186
v 100.580818 1.171638 32.555725
v 100.354294 0.750959 32.652378
v 102.309288 1.500413 33.419559
v 102.130257 1.171638 33.520817
v 102.461586 1.171638 34.130474
v 102.540451 1.500413 34.030872
v 102.038620 0.750959 33.522331
v 103.876846 0.750959 31.804392
v 104.130562 0.930662 33.843060
v 103.998932 1.630634 33.715706
v 104.290123 0.750959 34.003181
v 102.392860 0.750959 34.223103
v 99.388084 0.961587 30.435669
v 99.746193 0.961587 32.096680
v 99.573883 0.750959 32.287392
v 102.708122 0.750959 30.609379
v 99.287392 0.750959 30.382301
v 101.973152 0.750959 29.973999
vt 0.706882 0.752282
vt 0.786081 0.752282
vt 0.786081 0.713082
vt 0.706882 0.713082
vt 0.906081 0.873082
vt 0.866882 0.873082
vt 0.866882 0.912282
vt 0.906081 0.912282
vt 0.746081 0.632282
vt 0.746081 0.553082
vt 0.706882 0.553082
vt 0.706882 0.632282
vt 0.906081 0.793082
vt 0.866882 0.793082
vt 0.866882 0.832282
vt 0.906081 0.832282
vt 0.626882 0.752282
vt 0.706081 0.752282
vt 0.706081 0.713082
vt 0.626882 0.713082
vt 0.786081 0.632282
vt 0.786081 0.553082
vt 0.746882 0.553082
vt 0.746882 0.632282
vt 0.546882 0.792282
vt 0.626081 0.792282
vt 0.626081 0.753082
vt 0.546882 0.753082
vt 0.786081 0.712282
vt 0.786081 0.633082
vt 0.746882 0.633082
vt 0.746882 0.712282
vt 0.626882 0.792282
vt 0.706081 0.792282
vt 0.706081 0.753082
vt 0.626882 0.753082
vt 0.826081 0.873082
vt 0.786882 0.873082
vt 0.786882 0.912282
vt 0.826081 0.912282
vt 0.826081 0.632282
vt 0.826081 0.553082
vt 0.786882 0.553082
vt 0.786882 0.632282
vt 0.706882 0.792282
vt 0.786081 0.792282
vt 0.786081 0.753082
vt 0.706882 0.753082
vt 0.826081 0.712282
vt 0.826081 0.633082
vt 0.786882 0.633082
vt 0.786882 0.712282
vt 0.547282 0.952282
vt 0.586081 0.952282
vt 0.586081 0.913483
vt 0.906081 0.713082
vt 0.866882 0.713082
vt 0.866882 0.752282
vt 0.906081 0.752282
vt 0.746081 0.873082
vt 0.706882 0.873082
vt 0.706882 0.912282
vt 0.746081 0.912282
vt 0.706081 0.873082
vt 0.666882 0.873082
vt 0.666882 0.912282
vt 0.706081 0.912282
vt 0.546882 0.913082
vt 0.585680 0.913082
vt 0.546882 0.951881
vt 0.906081 0.673082
vt 0.866882 0.673082
vt 0.866882 0.712282
vt 0.906081 0.712282
vt 0.626081 0.713483
vt 0.626081 0.752282
vt 0.547282 0.752282
vt 0.946081 0.553483
vt 0.907282 0.592282
vt 0.946081 0.592282
vt 0.906081 0.593082
vt 0.866882 0.593082
vt 0.866882 0.632282
vt 0.906081 0.632282
vt 0.546882 0.872282
vt 0.626081 0.872282
vt 0.626081 0.833082
vt 0.546882 0.833082
vt 0.866081 0.833082
vt 0.826882 0.833082
vt 0.826882 0.872282
vt 0.866081 0.872282
vt 0.906882 0.553082
vt 0.945680 0.553082
vt 0.906882 0.591881
vt 0.866081 0.793082
vt 0.826882 0.793082
vt 0.826882 0.832282
vt 0.866081 0.832282
vt 0.866081 0.713082
vt 0.826882 0.713082
vt 0.826882 0.792282
vt 0.866081 0.792282
vt 0.786081 0.872282
vt 0.786081 0.833082
vt 0.706882 0.833082
vt 0.706882 0.872282
vt 0.826081 0.793082
vt 0.786882 0.793082
vt 0.786882 0.872282
vt 0.826081 0.872282
vt 0.706081 0.872282
vt 0.706081 0.833082
vt 0.626882 0.833082
vt 0.626882 0.872282
vt 0.866081 0.633082
vt 0.826882 0.633082
vt 0.826882 0.712282
vt 0.866081 0.712282
vt 0.586081 0.873082
vt 0.546882 0.873082
vt 0.546882 0.912282
vt 0.586081 0.912282
vt 0.906081 0.553082
vt 0.866882 0.553082
vt 0.866882 0.592282
vt 0.906081 0.592282
vt 0.626081 0.873082
vt 0.586882 0.873082
vt 0.586882 0.912282
vt 0.626081 0.912282
vt 0.786081 0.832282
vt 0.786081 0.793082
vt 0.706882 0.793082
vt 0.706882 0.832282
vt 0.906081 0.633082
vt 0.866882 0.633082
vt 0.866882 0.672282
vt 0.906081 0.672282
vt 0.666081 0.873082
vt 0.626882 0.873082
vt 0.626882 0.912282
vt 0.666081 0.912282
vt 0.866081 0.632282
vt 0.866081 0.553082
vt 0.826882 0.553082
vt 0.826882 0.632282
vt 0.706081 0.832282
vt 0.706081 0.793082
vt 0.626882 0.793082
vt 0.626882 0.832282
vt 0.826081 0.713082
vt 0.786882 0.713082
vt 0.786882 0.792282
vt 0.826081 0.792282
vt 0.626081 0.832282
vt 0.626081 0.793082
vt 0.546882 0.793082
vt 0.546882 0.832282
vt 0.906081 0.753082
vt 0.866882 0.753082
vt 0.866882 0.792282
vt 0.906081 0.792282
vt 0.786081 0.873082
vt 0.746882 0.873082
vt 0.746882 0.912282
vt 0.786081 0.912282
vt 0.617704 0.578985
vt 0.635277 0.553082
vt 0.706081 0.553194
vt 0.706081 0.651379
vt 0.678934 0.674190
vt 0.668166 0.697257
vt 0.645686 0.693946
vt 0.629058 0.709459
vt 0.546882 0.712282
vt 0.549371 0.643294
vt 0.576790 0.634443
vt 0.579235 0.573456
vt 0.746081 0.712282
vt 0.746081 0.633082
vt 0.706882 0.633082
vt 0.706882 0.712282
vt 0.546882 0.751881
vt 0.625680 0.713082
vt 0.546882 0.713082
vt 0.906081 0.833082
vt 0.866882 0.833082
vt 0.866882 0.872282
vt 0.906081 0.872282
vt 0.866081 0.873082
vt 0.826882 0.873082
vt 0.826882 0.912282
vt 0.866081 0.912282
vn -0.9855 0.1693 0.0066
vn 0.5350 0.2974 -0.7908
vn 0.7124 0.7003 -0.0447
vn 0.4114 0.7421 -0.5292
vn 0.3700 0.9289 -0.0156
vn 0.0812 0.4505 0.8891
vn -0.3910 0.9200 0.0275
vn 0.0347 0.8898 0.4551
vn 0.0452 0.9624 -0.2678
vn 0.9602 0.2569 -0.1099
vn -0.0301 -0.1339 -0.9905
vn 0.9960 0.0533 -0.0720
vn -0.8182 0.5720 -0.0580
vn -0.1812 0.9644 -0.1927
vn -0.9092 0.3999 -0.1163
vn 0.0246 0.3074 0.9513
vn 0.0808 0.3841 -0.9197
vn 0.1852 0.9628 0.1969
vn 0.9749 0.1907 -0.1148
vn -0.5848 0.8064 0.0874
vn -0.8800 0.4750 0.0051
vn 0.9401 0.3051 -0.1523
vn -0.0070 0.3313 0.9435
vn -0.8175 0.4357 0.3766
vn 0.1112 -0.0207 0.9936
vn 0.6022 0.1935 -0.7745
vn 0.0254 0.3034 0.9525
vn 0.1921 0.2208 0.9562
vn 0.1555 0.4032 0.9018
vn 0.9606 0.2399 -0.1407
vn 0.9618 0.2432 -0.1260
vn -0.8652 0.2156 0.4527
vn -0.1282 0.9393 0.3183
vn 0.1500 0.9885 0.0166
vn -0.1749 0.4748 -0.8625
vn -0.4279 0.5842 0.6896
vn 0.2793 0.2319 -0.9318
vn 0.0407 0.4148 -0.9090
vn -0.1671 0.0995 -0.9809
vn -0.7248 0.6761 0.1327
vn -0.8078 0.5711 0.1460
vn 0.5372 0.3958 -0.7448
vn -0.5358 0.3637 0.7620
vn 0.0000 -1.0000 0.0000
vn -0.0417 0.8265 -0.5614
vn -0.4918 0.8544 0.1678
vn 0.2236 0.2286 -0.9475
vn -0.9614 0.2594 -0.0913
usemtl STONE_1.003
f 1/1/1 2/2/1 3/3/1 4/4/1
f 5/5/2 6/6/2 7/7/2 8/8/2
f 9/9/3 10/10/3 11/11/3 12/12/3
f 13/13/4 12/14/4 14/15/4 15/16/4
f 10/17/5 9/18/5 16/19/5 17/20/5
f 18/21/6 17/22/6 19/23/6 20/24/6
f 2/25/7 1/26/7 18/27/7 21/28/7
f 1/29/8 10/30/8 17/31/8 18/32/8
f 9/33/9 2/34/9 21/35/9 16/36/9
f 19/37/10 22/38/10 23/39/10 24/40/10
f 16/41/11 21/42/11 25/43/11 22/44/11
f 17/45/12 16/46/12 22/47/12 19/48/12
f 21/49/13 18/50/13 20/51/13 25/52/13
f 23/53/14 26/54/14 27/55/14
f 25/56/15 20/57/15 27/58/15 26/59/15
f 20/60/16 19/61/16 24/62/16 27/63/16
f 22/64/17 25/65/17 26/66/17 23/67/17
f 24/68/18 23/69/18 27/70/18
f 28/71/19 29/72/19 13/73/19 30/74/19
f 3/75/20 31/76/20 32/77/20
f 33/78/21 34/79/21 35/80/21
f 29/81/22 9/82/22 12/83/22 13/84/22
f 36/85/23 11/86/23 10/87/23 1/88/23
f 36/89/24 37/90/24 38/91/24 39/92/24
f 40/93/25 37/94/25 33/95/25
f 30/96/26 13/97/26 15/98/26 41/99/26
f 37/100/27 36/101/27 1/102/27 33/103/27
f 42/104/28 43/105/28 39/106/28 38/107/28
f 44/108/29 42/109/29 38/110/29 45/111/29
f 41/112/30 15/113/30 42/114/30 44/115/30
f 15/116/31 14/117/31 43/118/31 42/119/31
f 37/120/32 40/121/32 45/122/32 38/123/32
f 11/124/33 36/125/33 39/126/33 43/127/33
f 12/128/34 11/129/34 43/130/34 14/131/34
f 46/132/35 31/133/35 8/134/35 7/135/35
f 35/136/36 34/137/36 47/138/36 48/139/36
f 49/140/37 6/141/37 29/142/37 28/143/37
f 5/144/38 3/145/38 2/146/38 9/147/38
f 50/148/39 46/149/39 7/150/39 51/151/39
f 47/152/40 32/153/40 31/154/40 46/155/40
f 48/156/41 47/157/41 46/158/41 50/159/41
f 6/160/42 49/161/42 51/162/42 7/163/42
f 34/164/43 4/165/43 32/166/43 47/167/43
f 35/168/44 48/169/44 50/170/44 51/171/44 49/172/44 28/173/44 30/174/44 41/175/44 44/176/44 45/177/44 40/178/44 33/179/44
f 3/180/45 5/181/45 8/182/45 31/183/45
f 4/184/46 3/185/46 32/186/46
f 6/187/47 5/188/47 9/189/47 29/190/47
f 33/191/48 1/192/48 4/193/48 34/194/48
