mtllib LOW_POLY_set.mtl
o lp_tree6_Icosphere_006
v 30.089756 6.730423 -37.240276
v 29.912609 7.031205 -37.362381
v 29.788330 6.970162 -37.383499
v 29.942629 6.696770 -37.259243
v 29.722759 6.952447 -37.536697
v 29.882927 6.672513 -37.428322
v 30.071844 5.932226 -37.199768
v 30.136559 5.949582 -37.051880
v 30.296442 5.978606 -37.013817
v 30.274717 5.219911 -37.129757
v 30.343405 5.244583 -36.968525
v 30.513285 5.310485 -36.915524
v 30.450581 6.002570 -37.091522
v 30.270716 6.764471 -37.394924
v 30.685696 5.368403 -36.974854
v 30.700958 5.008675 -36.858967
v 30.914438 5.141024 -36.890186
v 30.536373 4.802560 -36.892139
v 30.499971 6.006433 -37.252354
v 30.751289 5.386924 -37.130363
v 30.946119 5.216204 -37.073860
v 31.260632 5.280455 -36.731403
v 31.144873 5.354056 -36.831039
v 31.079090 5.004946 -36.780991
v 30.886124 4.880247 -36.804523
v 31.133913 5.379459 -36.987984
v 31.453655 5.550907 -36.649162
v 31.352175 5.612483 -36.741528
v 31.346811 5.632194 -36.880810
v 31.216673 5.334864 -37.112267
v 30.979370 5.011011 -37.266926
v 31.430271 5.603672 -36.985920
v 31.807413 5.877054 -36.629765
v 31.805761 5.856209 -36.507214
v 31.880787 5.853801 -36.716221
v 32.327904 6.004573 -36.224842
v 32.331825 6.024193 -36.330772
v 32.395927 6.005054 -36.406052
v 32.633240 6.209223 -36.032093
v 32.637447 6.226121 -36.125900
v 32.695606 6.209482 -36.196438
v 32.813164 6.472400 -35.946560
v 32.816929 6.486117 -36.024380
v 32.865829 6.472430 -36.084686
v 32.935867 6.435895 -36.087227
v 32.779243 6.164811 -36.196198
v 32.986160 6.399347 -36.037971
v 32.839500 6.120045 -36.134342
v 32.982388 6.385633 -35.960152
v 32.835293 6.103161 -36.040565
v 32.556389 5.901650 -36.324261
v 32.488903 5.953435 -36.399124
v 32.552490 5.882063 -36.218388
v 32.488407 5.901239 -36.143162
v 32.777130 6.119809 -35.970062
v 32.933491 6.399322 -35.899849
v 32.395409 5.952821 -36.150036
v 32.693493 6.164471 -35.970268
v 32.863453 6.435856 -35.897305
v 31.887016 5.798092 -36.419613
v 31.996078 5.739533 -36.410519
v 31.582804 5.488798 -36.648865
v 31.401297 5.202131 -36.733711
v 31.666149 5.462805 -36.755264
v 31.495689 5.173860 -36.856525
v 32.069298 5.716660 -36.497353
v 31.664331 5.480475 -36.895977
v 32.071423 5.737092 -36.620316
v 31.491796 5.195574 -37.013538
v 31.563362 5.539182 -36.987068
v 31.990396 5.794768 -36.707535
v 31.373957 5.260569 -37.112663
v 31.372822 4.783636 -36.933228
v 31.373404 4.820977 -37.111877
v 31.252453 4.901827 -37.219910
v 31.273478 4.421987 -37.206837
v 31.202225 4.580213 -37.286358
v 31.034021 4.478237 -37.347046
v 31.133520 4.034733 -37.325085
v 31.283388 4.346319 -37.002090
v 31.301580 3.130635 -37.077911
v 31.174274 3.142703 -37.379822
v 30.864147 3.168672 -37.483730
v 30.768568 4.406419 -37.372856
v 31.127701 1.860556 -37.560261
v 30.772810 1.890331 -37.678532
v 31.272486 1.849917 -37.213963
v 31.151939 4.331884 -36.808632
v 31.199244 3.137448 -36.767498
v 31.154938 1.861776 -36.857559
v 31.098480 0.785820 -36.752735
v 31.250755 0.780088 -37.213127
v 31.063498 0.785820 -37.660431
v 31.242199 -0.010564 -37.119106
v 31.000088 -0.011508 -37.693390
v 31.045242 -0.011508 -36.521732
v 30.654070 0.866760 -36.565159
v 30.470470 -0.010831 -36.263557
v 30.196186 0.934255 -36.717957
v 29.878996 -0.011775 -36.450806
v 30.009356 0.955494 -37.165279
v 29.636415 -0.011124 -37.025257
v 30.161198 0.934255 -37.625656
v 29.833839 -0.011775 -37.622459
v 30.605967 0.866760 -37.813244
v 30.408302 -0.010831 -37.876644
v 30.428125 1.920500 -37.533295
v 30.562960 3.192744 -37.357780
v 30.310572 1.932352 -37.176891
v 30.459539 3.199805 -37.046795
v 30.455362 1.921737 -36.830597
v 30.585773 3.188015 -36.744278
v 30.810259 1.892017 -36.712322
v 30.896997 3.161807 -36.640976
v 30.578609 4.343128 -36.857006
v 30.863098 4.326916 -36.756821
v 30.872599 4.692075 -36.783993
v 31.213053 4.800640 -36.775841
v 30.467291 4.355060 -37.078976
v 30.406017 4.787060 -37.102329
v 30.543503 4.372145 -37.290833
v 30.472723 4.807641 -37.283871
v 30.338474 5.234821 -37.290333
v 30.123884 5.935108 -37.361992
v 30.275366 5.960054 -37.438301
v 30.515108 5.283998 -37.347805
v 30.677135 4.866155 -37.346233
v 30.432594 5.990060 -37.398846
v 30.695816 5.346800 -37.287060
v 30.151594 6.635073 -37.771664
v 29.949690 6.684324 -37.692780
v 30.295719 6.645323 -37.730560
v 30.347651 6.669598 -37.571777
v 30.329664 6.812533 -37.872345
v 30.357624 6.795541 -37.714596
v 30.343285 6.918015 -37.691650
v 30.244345 7.138571 -37.698750
v 30.080181 7.091386 -37.473045
v 30.427122 7.033029 -38.042931
v 30.416750 7.227139 -38.005478
v 30.321104 7.370939 -38.008205
v 30.103874 7.343258 -37.755096
v 29.810034 7.449287 -37.570232
v 29.986946 7.425461 -37.865131
v 29.742622 7.570416 -37.733078
v 30.194220 7.422363 -38.077530
v 30.746626 7.524206 -38.551029
v 30.670033 7.627661 -38.525341
v 30.554554 7.664854 -38.575710
v 31.009109 7.991036 -39.044178
v 30.901449 8.014093 -39.080086
v 31.083958 7.915209 -39.082050
v 30.747835 7.418198 -38.629547
v 31.089355 7.834733 -39.163719
v 30.661598 7.379713 -38.722443
v 31.011793 7.799270 -39.244598
v 30.339153 7.022267 -38.209248
v 31.175974 8.343857 -39.564507
v 31.245676 8.375887 -39.492050
v 31.235502 8.431721 -39.406364
v 31.161087 8.477811 -39.355854
v 31.059479 8.483859 -39.377190
v 30.823887 7.978566 -39.160858
v 30.989639 8.451723 -39.449615
v 30.829285 7.898153 -39.242634
v 30.999945 8.395992 -39.535332
v 30.904144 7.822393 -39.280609
v 31.074497 8.350009 -39.585880
v 30.465878 7.623877 -38.664375
v 30.468529 7.519683 -38.744911
v 30.546022 7.417345 -38.772472
v 30.203657 7.074494 -38.261494
v 30.098516 7.205196 -38.241203
v 30.207817 6.820654 -37.961388
v 30.043461 6.882991 -37.979729
v 29.894806 7.058212 -37.987278
v 29.788479 7.253930 -37.977352
v 30.041735 7.352848 -38.137886
v 29.746384 7.369275 -37.951138
v 29.868885 7.411243 -37.952885
v 29.661064 7.556034 -37.847698
v 29.558716 7.478213 -37.873585
v 29.535503 7.308675 -37.807060
v 29.132521 7.865930 -37.714935
v 29.232647 7.939767 -37.689434
v 29.062260 7.788620 -37.646965
v 29.518421 7.278260 -37.597355
v 29.040277 7.791765 -37.505161
v 29.756784 6.973820 -37.761414
v 28.550591 8.141487 -37.432426
v 28.567148 8.156635 -37.551109
v 28.641113 8.224247 -37.609818
v 28.732758 8.291705 -37.585838
v 29.289537 7.965793 -37.578022
v 28.783043 8.316616 -37.483803
v 29.276365 7.924701 -37.457905
v 28.768869 8.287931 -37.371441
v 29.152336 7.863511 -37.405758
v 28.678740 8.225119 -37.318142
v 29.652327 7.350914 -37.475468
v 29.568958 7.310812 -37.499756
v 29.081272 7.816232 -37.400223
v 28.588104 8.171769 -37.333355
vt 0.711934 0.451004
vt 0.711899 0.451180
vt 0.711830 0.451177
vt 0.711860 0.451011
vt 0.711749 0.451194
vt 0.711772 0.451030
vt 0.711783 0.450629
vt 0.711865 0.450617
vt 0.711948 0.450609
vt 0.711795 0.450233
vt 0.711888 0.450234
vt 0.711986 0.450247
vt 0.712035 0.450613
vt 0.712048 0.451022
vt 0.712084 0.450264
vt 0.712051 0.450071
vt 0.712173 0.450117
vt 0.711943 0.449985
vt 0.711424 0.450597
vt 0.711341 0.450584
vt 0.711302 0.450246
vt 0.711385 0.450232
vt 0.711244 0.450109
vt 0.711333 0.450108
vt 0.712270 0.450570
vt 0.712193 0.450567
vt 0.712138 0.450440
vt 0.712241 0.450418
vt 0.715269 0.452542
vt 0.715180 0.452459
vt 0.715279 0.452407
vt 0.715365 0.452477
vt 0.712823 0.450626
vt 0.712762 0.450583
vt 0.712810 0.450469
vt 0.712897 0.450499
vt 0.712275 0.450737
vt 0.712210 0.450713
vt 0.712761 0.450773
vt 0.712710 0.450734
vt 0.712693 0.450550
vt 0.712747 0.450352
vt 0.712650 0.450717
vt 0.712630 0.450991
vt 0.712678 0.451028
vt 0.712574 0.450982
vt 0.712603 0.451323
vt 0.712557 0.451293
vt 0.712506 0.451286
vt 0.712569 0.451533
vt 0.712523 0.451512
vt 0.712474 0.451503
vt 0.712527 0.451700
vt 0.712488 0.451686
vt 0.712448 0.451677
vt 0.712407 0.451675
vt 0.712426 0.451507
vt 0.712364 0.451675
vt 0.712382 0.451514
vt 0.712321 0.451673
vt 0.712340 0.451518
vt 0.712410 0.451333
vt 0.712457 0.451306
vt 0.712363 0.451345
vt 0.712319 0.451336
vt 0.712301 0.451513
vt 0.712279 0.451668
vt 0.712280 0.451306
vt 0.712261 0.451499
vt 0.712238 0.451659
vt 0.712198 0.451649
vt 0.712219 0.451480
vt 0.712238 0.451270
vt 0.712286 0.451011
vt 0.712335 0.451049
vt 0.712236 0.450970
vt 0.712347 0.450759
vt 0.712352 0.450567
vt 0.712427 0.450762
vt 0.712436 0.450563
vt 0.712395 0.451059
vt 0.712506 0.450745
vt 0.712458 0.451040
vt 0.712521 0.450552
vt 0.712580 0.450724
vt 0.712517 0.451005
vt 0.712608 0.450546
vt 0.712436 0.450353
vt 0.712522 0.450349
vt 0.712607 0.450354
vt 0.715616 0.452409
vt 0.715664 0.452223
vt 0.715714 0.452295
vt 0.715690 0.452438
vt 0.715811 0.452484
vt 0.715791 0.452249
vt 0.715755 0.452047
vt 0.715538 0.452393
vt 0.715566 0.452178
vt 0.715684 0.451595
vt 0.715837 0.451624
vt 0.714611 0.451976
vt 0.714566 0.451556
vt 0.714723 0.451543
vt 0.714794 0.452148
vt 0.714668 0.452181
vt 0.714469 0.450952
vt 0.714644 0.450909
vt 0.715835 0.450988
vt 0.716009 0.451034
vt 0.715448 0.452157
vt 0.715530 0.451577
vt 0.715648 0.450948
vt 0.715781 0.450402
vt 0.716006 0.450494
vt 0.716219 0.450578
vt 0.716125 0.450137
vt 0.716388 0.450252
vt 0.715863 0.450004
vt 0.715528 0.450350
vt 0.715590 0.449879
vt 0.715267 0.450320
vt 0.715302 0.449799
vt 0.715010 0.450328
vt 0.715002 0.449808
vt 0.714765 0.450363
vt 0.714710 0.449881
vt 0.714533 0.450417
vt 0.714438 0.450001
vt 0.714310 0.450477
vt 0.714177 0.450128
vt 0.714832 0.450880
vt 0.714886 0.451544
vt 0.715034 0.450874
vt 0.715052 0.451551
vt 0.715242 0.450886
vt 0.715215 0.451558
vt 0.715450 0.450913
vt 0.715374 0.451565
vt 0.715148 0.452133
vt 0.715300 0.452136
vt 0.715284 0.452314
vt 0.715112 0.452353
vt 0.715437 0.452389
vt 0.712331 0.450349
vt 0.715023 0.452135
vt 0.715001 0.452342
vt 0.711814 0.449994
vt 0.714910 0.452137
vt 0.714917 0.452345
vt 0.711712 0.449991
vt 0.711701 0.450233
vt 0.711694 0.450639
vt 0.711599 0.450635
vt 0.711595 0.450227
vt 0.711597 0.449985
vt 0.711508 0.450619
vt 0.711482 0.450221
vt 0.711418 0.449994
vt 0.711555 0.451014
vt 0.711644 0.451054
vt 0.711493 0.450992
vt 0.711423 0.450965
vt 0.711327 0.450983
vt 0.711480 0.451060
vt 0.711449 0.451033
vt 0.711428 0.451067
vt 0.711409 0.451142
vt 0.711302 0.451138
vt 0.711999 0.451197
vt 0.713524 0.450568
vt 0.713488 0.450380
vt 0.713542 0.450358
vt 0.713573 0.450426
vt 0.713423 0.450599
vt 0.713381 0.450424
vt 0.713332 0.450612
vt 0.713268 0.450460
vt 0.711413 0.451222
vt 0.711321 0.451321
vt 0.711440 0.451269
vt 0.711402 0.451377
vt 0.713252 0.450627
vt 0.713194 0.450494
vt 0.713435 0.450965
vt 0.713368 0.450963
vt 0.713301 0.450965
vt 0.713372 0.451327
vt 0.713313 0.451325
vt 0.713426 0.451329
vt 0.713501 0.450970
vt 0.713479 0.451330
vt 0.713566 0.450979
vt 0.713531 0.451333
vt 0.713609 0.450622
vt 0.713509 0.451640
vt 0.713456 0.451640
vt 0.713404 0.451636
vt 0.713353 0.451628
vt 0.713301 0.451620
vt 0.713254 0.451323
vt 0.713249 0.451614
vt 0.713634 0.451342
vt 0.713689 0.451351
vt 0.713665 0.451642
vt 0.713613 0.451638
vt 0.713583 0.451336
vt 0.713562 0.451638
vt 0.713759 0.451005
vt 0.713694 0.450996
vt 0.713630 0.450988
vt 0.713688 0.450638
vt 0.713772 0.450654
vt 0.713637 0.450453
vt 0.713720 0.450456
vt 0.713826 0.450489
vt 0.711532 0.451128
vt 0.711508 0.451086
vt 0.713929 0.450521
vt 0.713865 0.450658
vt 0.713987 0.450534
vt 0.713972 0.450594
vt 0.713164 0.450621
vt 0.713236 0.450971
vt 0.713129 0.450509
vt 0.711478 0.451293
vt 0.711466 0.451395
vt 0.711513 0.451314
vt 0.711528 0.451409
vt 0.711611 0.451371
vt 0.711528 0.451274
vt 0.711501 0.451721
vt 0.711433 0.451699
vt 0.711571 0.451740
vt 0.711717 0.451387
vt 0.711645 0.451776
vt 0.711648 0.451200
vt 0.711540 0.451199
vt 0.711582 0.452127
vt 0.711516 0.452106
vt 0.711455 0.452079
vt 0.711393 0.452052
vt 0.711364 0.451688
vt 0.711329 0.452038
vt 0.711295 0.451684
vt 0.711263 0.452038
vt 0.711757 0.451783
vt 0.711835 0.451764
vt 0.711770 0.452109
vt 0.711703 0.452122
vt 0.711837 0.451394
vt 0.711945 0.451408
vt 0.711782 0.451395
vt 0.711710 0.451787
vt 0.711644 0.452136
vt 0.714820 0.452363
vt 0.714677 0.452425
vn -0.2315 0.2677 0.9353
vn -0.8639 -0.3316 0.3790
vn -0.9177 -0.1258 0.3767
vn -0.2208 0.2162 0.9510
vn -0.8865 -0.2118 0.4114
vn -0.2771 0.0415 0.9600
vn -0.2753 0.0367 0.9606
vn -0.2770 0.0412 0.9600
vn 0.4758 0.3964 0.7852
vn 0.3173 0.2606 0.9118
vn 0.0704 0.3086 0.9486
vn -0.2736 0.0318 0.9613
vn 0.8538 0.3957 0.3383
vn 0.5694 0.7358 0.3666
vn -0.4767 0.2121 0.8531
vn -0.1879 0.3249 0.9269
vn -0.6907 0.7038 0.1658
vn -0.5837 0.1850 0.7906
vn -0.7902 0.5978 0.1346
vn -0.3798 0.6543 -0.6539
vn -0.4941 0.6583 -0.5679
vn -0.5227 0.8413 0.1377
vn -0.2316 0.8746 -0.4260
vn -0.3474 0.9248 0.1553
vn -0.0841 0.9440 -0.3189
vn -0.6029 0.7888 0.1197
vn -0.2736 0.8557 -0.4393
vn -0.8326 0.5507 0.0596
vn -0.5439 0.6021 -0.5846
vn 0.1449 0.3009 -0.9426
vn 0.6702 -0.0947 -0.7361
vn 0.8905 -0.4532 -0.0394
vn 0.6474 -0.1889 -0.7383
vn 0.6533 -0.7490 -0.1103
vn 0.3319 -0.8131 0.4782
vn 0.6122 -0.4957 0.6160
vn -0.2478 -0.3896 0.8870
vn -0.0907 -0.1998 0.9756
vn -0.6257 0.1848 0.7579
vn -0.6224 0.2337 0.7470
vn -0.3095 -0.4461 0.8398
vn -0.5214 0.4046 0.7513
vn -0.5658 0.2944 0.7702
vn -0.2432 -0.4117 0.8782
vn -0.1068 -0.2191 0.9698
vn 0.5908 -0.5516 0.5887
vn 0.2676 -0.8601 0.4343
vn 0.5828 -0.8043 -0.1155
vn 0.8689 -0.4883 -0.0813
vn 0.6223 -0.1903 -0.7593
vn 0.6309 -0.0719 -0.7725
vn 0.3967 -0.9060 -0.1480
vn 0.5708 -0.3353 -0.7495
vn 0.3346 0.4999 -0.7988
vn 0.2623 0.4638 -0.8462
vn 0.2786 0.4477 -0.8497
vn 0.9558 -0.2878 -0.0601
vn 0.6545 -0.0022 -0.7560
vn 0.2098 0.2522 -0.9447
vn 0.1485 0.3211 -0.9353
vn 0.7057 0.0116 -0.7084
vn 0.2364 0.1655 -0.9575
vn 0.5049 -0.0023 -0.8632
vn 0.9753 -0.2044 -0.0840
vn 0.9174 0.0114 -0.3978
vn 0.2455 0.0745 -0.9665
vn 0.3236 0.1201 -0.9385
vn 0.9221 0.0205 -0.3864
vn 0.9069 0.0186 0.4210
vn 0.9478 -0.0550 0.3141
vn 0.9492 -0.0191 0.3140
vn 0.9222 -0.0191 -0.3862
vn 0.9203 -0.0566 -0.3871
vn 0.9493 0.0272 0.3133
vn 0.4055 0.2244 0.8861
vn -0.2681 0.3532 0.8963
vn -0.8483 0.3838 0.3647
vn -0.9017 0.3074 -0.3041
vn -0.3859 0.1412 -0.9117
vn 0.3055 0.0072 -0.9522
vn -0.3629 0.1816 -0.9140
vn 0.3243 0.0699 -0.9434
vn -0.3699 0.1655 -0.9142
vn -0.9094 0.2760 -0.3111
vn -0.9384 0.1427 -0.3147
vn -0.9197 0.0684 0.3866
vn -0.8829 0.2759 0.3800
vn -0.3179 -0.0317 0.9476
vn -0.2915 0.1814 0.9392
vn 0.3960 0.0697 0.9156
vn 0.3805 -0.0780 0.9215
vn -0.3164 0.0875 0.9446
vn 0.2903 0.0735 0.9541
vn -0.3067 0.0596 0.9500
vn 0.0715 -0.0128 0.9974
vn -0.2602 0.0867 0.9617
vn -0.0773 0.0415 0.9961
vn 0.6618 -0.3588 0.6583
vn 0.7539 -0.1956 0.6272
vn -0.0951 -0.0824 0.9920
vn -0.8705 -0.0691 0.4873
vn -0.8406 -0.2548 0.4780
vn -0.9250 -0.1474 -0.3502
vn -0.8846 -0.2876 -0.3672
vn -0.8932 -0.2978 -0.3368
vn -0.3264 -0.2161 -0.9202
vn -0.2714 -0.1043 -0.9568
vn 0.2929 -0.0348 -0.9555
vn 0.2329 0.1099 -0.9663
vn -0.3841 -0.4550 -0.8034
vn 0.2860 -0.3831 -0.8783
vn 0.8705 0.2798 -0.4049
vn 0.9301 0.0230 -0.3666
vn 0.9116 0.3234 0.2538
vn 0.9097 -0.3513 -0.2215
vn 0.9506 0.1484 0.2728
vn 0.7267 0.4632 0.5073
vn 0.4373 0.4955 0.7505
vn 0.9754 -0.2142 0.0515
vn 0.8891 0.2044 0.4095
vn 0.6413 0.5287 0.5561
vn 0.5835 0.5808 0.5677
vn 0.5263 0.8127 0.2501
vn 0.2780 0.9120 0.3016
vn 0.6619 0.4024 0.6325
vn 0.0796 0.8714 0.4840
vn 0.0005 0.8205 0.5717
vn 0.6688 0.3285 0.6669
vn 0.8918 -0.1327 0.4325
vn 0.8916 -0.2765 0.3586
vn 0.5902 -0.7747 -0.2267
vn 0.5532 -0.8037 -0.2191
vn 0.7244 -0.4983 -0.4764
vn 0.9656 -0.1502 0.2122
vn 0.6414 0.2628 0.7207
vn -0.1440 0.5641 0.8131
vn -0.7161 0.5289 0.4554
vn -0.9527 0.1860 -0.2405
vn -0.6265 -0.2266 -0.7458
vn -0.8642 0.3104 -0.3959
vn -0.6504 -0.2995 -0.6981
vn 0.1537 -0.5331 -0.8320
vn 0.0226 -0.7881 -0.6152
vn -0.0508 -0.8088 -0.5860
vn -0.6377 -0.3600 -0.6810
vn -0.1390 -0.7571 -0.6384
vn -0.5788 -0.4519 -0.6788
vn 0.5380 -0.7223 -0.4345
vn -0.3174 -0.6870 -0.6537
vn 0.3223 -0.6907 -0.6474
vn -0.6524 -0.0608 -0.7554
vn -0.8269 0.1910 -0.5289
vn -0.4818 0.3698 -0.7945
vn -0.4603 0.8832 0.0902
vn -0.1401 0.9495 -0.2809
vn 0.3157 0.8454 -0.4309
vn -0.1346 0.4323 -0.8916
vn -0.5271 -0.1532 -0.8359
vn -0.0276 0.3536 -0.9350
vn -0.5252 -0.2451 -0.8149
vn -0.7325 -0.6676 -0.1332
vn -0.8175 -0.5527 -0.1621
vn -0.6261 -0.4304 -0.6502
vn -0.5982 -0.7915 -0.1250
vn -0.4149 -0.3287 -0.8484
vn 0.0195 0.3068 -0.9516
vn 0.4631 0.7811 -0.4189
vn 0.5847 0.7555 0.2955
vn 0.3256 0.2198 0.9196
vn 0.6774 0.6867 0.2638
vn 0.3578 0.2066 0.9106
vn -0.0174 -0.1804 0.9834
vn 0.0398 -0.1588 0.9865
vn -0.6013 -0.6559 0.4564
vn -0.4968 -0.7712 0.3981
vn -0.8029 -0.3910 0.4501
vn -0.2730 0.1326 0.9528
vn 0.2877 0.4820 0.8276
vn 0.5016 0.7446 -0.4404
vn -0.6108 -0.5433 -0.5760
vn -0.8025 -0.5608 -0.2034
vn -0.9095 -0.3210 -0.2643
vn -0.5561 0.8116 0.1791
vn -0.3144 -0.0214 -0.9490
vn 0.1341 0.1255 -0.9830
vn -0.3679 0.0508 -0.9285
vn -0.9457 0.0001 -0.3249
vn 0.6828 0.5771 -0.4481
vn -0.9102 0.0262 0.4134
vn 0.1200 -0.9315 0.3434
usemtl Material.001
f 1/1/1 2/2/1 3/3/1 4/4/1
f 4/4/2 3/3/2 5/5/2 6/6/2
f 6/6/3 7/7/3 8/8/3 4/4/3
f 8/8/4 9/9/4 1/1/4 4/4/4
f 8/8/5 7/7/5 10/10/5 11/11/5
f 9/9/6 8/8/6 11/11/7 12/12/8
f 1/1/9 9/9/9 13/13/9 14/14/9
f 13/13/10 9/9/10 12/12/10 15/15/10
f 16/16/11 17/17/11 15/15/11 12/12/11
f 18/18/12 16/16/12 12/12/8 11/11/7
f 19/19/13 13/20/13 15/21/13 20/22/13
f 17/23/14 21/24/14 20/22/14 15/21/14
f 22/25/15 23/26/15 17/27/15 24/28/15
f 17/29/16 16/30/16 25/31/16 24/32/16
f 23/33/17 26/34/17 21/35/17 17/36/17
f 27/37/18 28/38/18 23/26/18 22/25/18
f 28/39/19 29/40/19 26/34/19 23/33/19
f 26/34/20 30/41/20 31/42/20 21/35/20
f 29/40/21 32/43/21 30/41/21 26/34/21
f 33/44/22 29/40/22 28/39/22 34/45/22
f 35/46/23 32/43/23 29/40/23 33/44/23
f 33/44/24 34/45/24 36/47/24 37/48/24
f 35/46/25 33/44/25 37/48/25 38/49/25
f 37/48/26 36/47/26 39/50/26 40/51/26
f 38/49/27 37/48/27 40/51/27 41/52/27
f 42/53/28 43/54/28 40/51/28 39/50/28
f 43/54/29 44/55/29 41/52/29 40/51/29
f 44/55/30 45/56/30 46/57/30 41/52/30
f 45/56/31 47/58/31 48/59/31 46/57/31
f 47/58/32 49/60/32 50/61/32 48/59/32
f 51/62/33 52/63/33 46/57/33 48/59/33
f 53/64/34 51/62/34 48/59/34 50/61/34
f 54/65/35 53/64/35 50/61/35 55/66/35
f 49/60/36 56/67/36 55/66/36 50/61/36
f 57/68/37 54/65/37 55/66/37 58/69/37
f 56/67/38 59/70/38 58/69/38 55/66/38
f 59/70/39 42/71/39 39/72/39 58/69/39
f 36/73/40 57/68/40 58/69/40 39/72/40
f 60/74/41 61/75/41 54/65/41 57/68/41
f 34/76/42 60/74/42 57/68/42 36/73/42
f 34/76/43 28/38/43 27/37/43 60/74/43
f 60/74/44 27/37/44 62/77/44 61/75/44
f 62/77/45 27/37/45 22/25/45 63/78/45
f 64/79/46 62/77/46 63/78/46 65/80/46
f 61/75/47 62/77/47 64/79/47 66/81/47
f 66/81/48 64/79/48 67/82/48 68/83/48
f 67/82/49 64/79/49 65/80/49 69/84/49
f 67/82/50 70/85/50 71/86/50 68/83/50
f 70/85/51 67/82/51 69/84/51 72/87/51
f 66/81/52 68/83/52 51/62/52 53/64/52
f 68/83/53 71/86/53 52/63/53 51/62/53
f 71/86/54 35/46/54 38/49/54 52/63/54
f 71/86/55 70/85/55 32/43/55 35/46/55
f 52/63/56 38/49/56 41/52/56 46/57/56
f 69/84/57 65/80/57 73/88/57 74/89/57
f 72/87/58 69/84/58 74/89/58 75/90/58
f 30/41/59 72/87/59 75/90/59 31/42/59
f 32/43/60 70/85/60 72/87/60 30/41/60
f 74/91/61 76/92/61 77/93/61 75/94/61
f 31/95/62 75/94/62 77/93/62 78/96/62
f 79/97/63 78/96/63 77/93/63 76/92/63
f 74/91/64 73/98/64 80/99/64 76/92/64
f 80/99/65 81/100/65 82/101/65 79/97/65 76/92/65
f 79/102/66 82/103/66 83/104/66 84/105/66 78/106/66
f 85/107/67 86/108/67 83/104/67 82/103/67
f 81/100/68 87/109/68 85/110/68 82/101/68
f 88/111/69 89/112/69 81/100/69 80/99/69
f 89/112/70 90/113/70 87/109/70 81/100/70
f 87/109/71 90/113/71 91/114/71 92/115/71
f 85/110/72 87/109/72 92/115/72 93/116/72
f 93/116/73 92/115/73 94/117/73 95/118/73
f 92/115/74 91/114/74 96/119/74 94/117/74
f 91/114/75 97/120/75 98/121/75 96/119/75
f 97/120/76 99/122/76 100/123/76 98/121/76
f 99/122/77 101/124/77 102/125/77 100/123/77
f 101/124/78 103/126/78 104/127/78 102/125/78
f 103/126/79 105/128/79 106/129/79 104/127/79
f 105/128/80 93/130/80 95/131/80 106/129/80
f 107/132/81 86/108/81 105/128/81 103/126/81
f 86/108/82 85/107/82 93/130/82 105/128/82
f 83/104/83 86/108/83 107/132/83 108/133/83
f 109/134/84 107/132/84 103/126/84 101/124/84
f 108/133/85 107/132/85 109/134/85 110/135/85
f 110/135/86 109/134/86 111/136/86 112/137/86
f 111/136/87 109/134/87 101/124/87 99/122/87
f 112/137/88 111/136/88 113/138/88 114/139/88
f 113/138/89 111/136/89 99/122/89 97/120/89
f 90/113/90 113/138/90 97/120/90 91/114/90
f 114/139/91 113/138/91 90/113/91 89/112/91
f 115/140/92 112/137/92 114/139/92 116/141/92
f 116/141/93 114/139/93 89/112/93 88/111/93
f 117/142/94 18/143/94 115/140/94 116/141/94
f 118/144/95 117/142/95 116/141/95 88/111/95
f 18/143/96 117/142/96 25/31/96 16/30/96
f 118/144/97 24/32/97 25/31/97 117/142/97
f 65/80/98 63/78/98 118/145/98 73/88/98
f 73/98/99 118/144/99 88/111/99 80/99/99
f 63/78/100 22/25/100 24/28/100 118/145/100
f 119/146/101 115/140/101 18/143/101 120/147/101
f 120/148/102 18/18/102 11/11/102 10/10/102
f 121/149/103 119/146/103 120/147/103 122/150/103
f 122/151/104 120/148/104 10/10/104 123/152/104
f 7/7/105 124/153/105 123/152/105 10/10/105
f 124/153/106 125/154/106 126/155/106 123/152/106
f 127/156/107 122/151/107 123/152/107 126/155/107
f 125/154/108 128/157/108 129/158/108 126/155/108
f 31/159/109 127/156/109 126/155/109 129/158/109
f 130/160/110 125/154/110 124/153/110 131/161/110
f 132/162/111 128/157/111 125/154/111 130/160/111
f 128/157/112 19/19/112 20/22/112 129/158/112
f 133/163/113 19/19/113 128/157/113 132/162/113
f 14/164/114 13/20/114 19/19/114 133/163/114
f 132/162/115 134/165/115 135/166/115 133/163/115
f 14/164/116 133/163/116 135/166/116 136/167/116
f 136/167/117 137/168/117 138/169/117 14/164/117
f 14/14/118 138/170/118 2/2/118 1/1/118
f 139/171/119 136/172/119 135/173/119 134/174/119
f 139/171/120 140/175/120 137/176/120 136/172/120
f 140/175/121 141/177/121 142/178/121 137/176/121
f 137/168/122 142/179/122 143/180/122 138/169/122
f 142/179/123 144/181/123 145/182/123 143/180/123
f 141/177/124 146/183/124 144/184/124 142/178/124
f 141/177/125 140/175/125 147/185/125 148/186/125
f 146/183/126 141/177/126 148/186/126 149/187/126
f 148/186/127 150/188/127 151/189/127 149/187/127
f 147/185/128 152/190/128 150/188/128 148/186/128
f 140/175/129 139/171/129 153/191/129 147/185/129
f 153/191/130 154/192/130 152/190/130 147/185/130
f 155/193/131 156/194/131 154/192/131 153/191/131
f 139/171/132 157/195/132 155/193/132 153/191/132
f 154/192/133 156/194/133 158/196/133 159/197/133
f 152/190/134 154/192/134 159/197/134 160/198/134
f 150/188/135 152/190/135 160/198/135 161/199/135
f 151/189/136 150/188/136 161/199/136 162/200/136
f 163/201/137 151/189/137 162/200/137 164/202/137
f 165/203/138 163/204/138 164/205/138 166/206/138
f 167/207/139 165/203/139 166/206/139 168/208/139
f 169/209/140 163/204/140 165/203/140 170/210/140
f 170/210/141 165/203/141 167/207/141 171/211/141
f 156/194/142 167/207/142 168/208/142 158/196/142
f 171/211/143 167/207/143 156/194/143 155/193/143
f 157/195/144 172/212/144 171/211/144 155/193/144
f 172/212/145 173/213/145 170/210/145 171/211/145
f 174/214/146 175/215/146 172/212/146 157/195/146
f 172/212/147 175/215/147 176/216/147 173/213/147
f 134/174/148 174/214/148 157/195/148 139/171/148
f 130/160/149 131/161/149 175/217/149 174/218/149
f 132/162/150 130/160/150 174/218/150 134/165/150
f 173/213/151 176/216/151 177/219/151 178/220/151
f 173/213/152 178/220/152 169/209/152 170/210/152
f 178/220/153 177/219/153 179/221/153 180/222/153
f 178/223/154 146/183/154 149/187/154 169/224/154
f 146/183/155 178/223/155 180/225/155 144/184/155
f 144/181/156 180/226/156 181/227/156 145/182/156
f 181/227/157 180/226/157 179/228/157 182/229/157
f 183/230/158 182/229/158 179/228/158 177/231/158
f 181/227/159 182/229/159 184/232/159 185/233/159
f 182/229/160 183/230/160 186/234/160 184/232/160
f 183/230/161 187/235/161 188/236/161 186/234/161
f 5/5/162 187/235/162 183/230/162 189/237/162
f 176/238/163 189/237/163 183/230/163 177/231/163
f 186/234/164 188/236/164 190/239/164 191/240/164
f 184/232/165 186/234/165 191/240/165 192/241/165
f 185/233/166 184/232/166 192/241/166 193/242/166
f 194/243/167 185/233/167 193/242/167 195/244/167
f 196/245/168 194/243/168 195/244/168 197/246/168
f 198/247/169 196/248/169 197/249/169 199/250/169
f 143/180/170 145/182/170 194/243/170 196/245/170
f 200/251/171 143/252/171 196/248/171 198/247/171
f 201/253/172 200/251/172 198/247/172 202/254/172
f 202/254/173 198/247/173 199/250/173 203/255/173
f 187/235/174 201/253/174 202/254/174 188/236/174
f 188/236/175 202/254/175 203/255/175 190/239/175
f 3/3/176 201/253/176 187/235/176 5/5/176
f 2/2/177 200/251/177 201/253/177 3/3/177
f 138/170/178 143/252/178 200/251/178 2/2/178
f 145/182/179 181/227/179 185/233/179 194/243/179
f 175/217/180 131/161/180 189/237/180 176/238/180
f 6/6/181 5/5/181 189/237/181 131/161/181
f 131/161/182 124/153/182 7/7/182 6/6/182
f 149/187/183 151/189/183 163/201/183 169/224/183
f 127/256/184 84/105/184 121/149/184 122/150/184
f 31/257/185 78/106/185 84/105/185 127/256/185
f 84/105/186 83/104/186 108/133/186 121/149/186
f 121/149/187 108/133/187 110/135/187 119/146/187
f 21/24/188 31/159/188 129/158/188 20/22/188
f 119/146/189 110/135/189 112/137/189 115/140/189
f 61/75/190 66/81/190 53/64/190 54/65/190
