mtllib LOW_POLY_set.mtl
o lp_tree3_Icosphere_006_tree3_Icosphere_012
v 40.286232 11.932995 -34.752865
v 41.632797 12.221310 -34.740833
v 41.006935 11.319429 -34.059490
v 40.137131 10.625778 -33.142628
v 38.789711 11.438978 -34.180210
v 39.034653 12.053720 -35.990196
v 37.893192 12.150946 -35.237846
v 37.638645 11.935998 -33.659939
v 38.425583 10.747943 -32.600739
v 37.079494 12.733580 -34.374649
v 37.256371 12.235279 -32.585598
v 37.203743 13.304168 -33.541039
v 38.527027 11.455618 -31.559883
v 37.682194 12.891420 -32.019379
v 39.127251 12.988536 -31.563658
v 39.722321 10.752928 -32.040962
v 40.371883 11.863618 -31.585644
v 41.584015 11.621060 -32.519157
v 42.166634 13.222483 -32.722961
v 40.641037 13.461802 -31.973122
v 42.982044 12.743979 -33.929962
v 41.935135 11.676618 -33.649311
v 38.139336 13.979667 -32.892494
v 36.865948 8.848029 -39.987007
v 36.186001 9.526188 -38.909626
v 35.956356 9.156965 -39.936729
v 35.872978 9.026008 -41.241295
v 39.182495 9.406649 -40.695961
v 38.068966 8.960846 -41.659264
v 38.990234 9.969425 -42.042267
v 38.659164 9.707455 -37.599407
v 39.125565 9.507648 -38.883389
v 39.522846 10.117498 -38.075504
v 34.839622 10.486269 -38.924713
v 34.854191 11.112377 -39.216759
v 35.254143 10.552160 -40.474449
v 35.950806 9.436321 -41.784592
v 36.146553 10.984795 -41.786419
v 36.990509 10.009239 -42.424915
v 39.491245 10.787465 -41.361866
v 38.433151 10.441127 -37.006477
v 35.562531 12.090817 -40.231209
v 35.258762 12.235215 -38.718861
v 35.669350 12.726220 -39.994774
v 39.117302 10.436097 -37.175930
v 38.330505 11.156045 -36.840569
v 39.149254 10.865045 -37.419670
v 38.164249 10.984980 -42.592941
v 36.915031 11.252501 -42.226589
v 35.829891 11.407437 -41.007778
v 36.065617 12.172035 -41.168552
v 35.156460 11.320031 -40.136604
v 36.175743 10.648574 -37.047543
v 35.918575 11.824571 -36.383835
v 35.414211 11.097614 -37.410427
v 37.056984 11.651855 -36.308453
v 39.877728 9.897373 -39.214783
v 39.910904 10.300284 -39.362923
v 38.101387 9.541063 -42.673946
v 38.256004 9.198080 -42.338158
v 37.175198 9.041521 -42.326450
v 35.529613 10.434107 -41.239117
v 35.485382 9.656820 -40.831398
v 35.288895 10.598665 -37.663349
v 35.325272 10.143735 -38.231422
v 37.349751 10.116701 -37.358791
v 37.750454 9.571806 -38.053993
v 37.004227 9.458605 -38.574181
v 38.249237 9.149794 -38.920116
v 38.367317 8.983389 -40.146484
v 37.089489 8.676096 -41.155430
v 36.536358 8.825392 -41.778595
v 35.479897 9.683468 -39.134281
v 36.221424 9.883614 -38.143745
v 43.953751 11.678486 -39.089619
v 43.193085 11.733160 -40.391792
v 43.733994 13.695849 -40.190601
v 35.145927 12.315981 -37.258801
v 35.008976 12.575639 -35.904293
v 34.622459 13.295891 -36.831100
v 38.219227 12.221512 -42.631275
v 37.301163 13.068725 -42.391281
v 38.503674 12.791196 -42.873024
v 44.531624 12.888026 -38.346176
v 42.341152 14.489945 -32.902470
v 42.433796 15.614916 -32.957630
v 41.421810 15.260725 -31.928919
v 37.200962 15.010185 -32.913208
v 37.808784 15.885844 -32.229904
v 36.321949 15.634956 -33.527184
v 35.200481 13.122558 -38.899532
v 41.211464 17.594900 -41.365250
v 40.281395 17.799782 -40.713379
v 40.506870 19.267260 -40.160904
v 43.025345 18.547808 -36.178272
v 43.125076 18.919626 -37.600662
v 41.951801 19.618061 -36.368984
v 39.571239 18.209747 -33.236431
v 40.872433 18.582861 -34.044666
v 39.477180 19.019205 -33.865627
v 35.964321 17.500629 -36.389862
v 36.210930 18.294878 -35.616684
v 36.546829 18.557335 -36.990097
v 38.338676 19.130383 -38.587128
v 37.916439 19.405685 -37.357727
v 39.282593 20.302599 -36.845993
v 37.246132 17.291752 -39.859787
v 37.169754 17.934250 -38.931080
v 38.314808 19.753963 -36.353172
v 36.957268 18.439159 -38.076614
v 36.035648 16.477419 -40.135601
v 36.234703 17.129360 -38.896233
v 36.274754 17.524750 -37.716034
v 37.015457 19.051489 -35.980717
v 38.340057 19.320656 -34.844429
v 37.140858 18.578621 -34.785385
v 38.439625 18.540108 -33.838051
v 40.074196 20.392298 -36.220642
v 40.343571 19.456909 -34.568886
v 40.053200 20.470182 -37.361069
v 40.833317 20.378704 -36.840603
v 41.873741 18.693439 -35.352493
v 41.573563 20.022638 -37.792843
v 40.971401 19.836290 -39.010723
v 42.285851 18.825113 -39.674507
v 41.752151 18.251225 -40.955986
v 39.595387 19.346830 -39.760052
v 39.336899 19.984270 -38.014099
v 38.622349 18.414490 -39.700401
v 39.026615 17.331747 -40.663155
v 37.208935 16.543823 -41.171795
v 35.006138 14.340055 -38.510159
v 35.068016 14.299867 -40.084747
v 35.358658 15.720181 -39.659576
v 35.642700 15.966220 -38.157021
v 34.881203 14.779203 -36.502998
v 35.690430 15.875852 -36.496437
v 35.808468 16.691795 -35.205318
v 36.761917 16.939121 -33.408268
v 36.436417 17.734272 -34.848751
v 37.491390 17.871620 -33.722855
v 37.936256 17.257160 -32.532310
v 38.837448 17.777626 -32.790936
v 40.222069 17.613659 -32.415085
v 40.451252 16.851303 -31.871254
v 41.086720 17.906702 -32.923912
v 41.662270 17.120789 -32.648323
v 41.873165 18.146679 -34.210896
v 42.683975 17.062244 -33.960445
v 42.796871 17.700247 -35.346237
v 44.008858 16.960135 -36.686302
v 44.789307 14.835645 -37.765041
v 43.307003 17.203384 -38.868446
v 43.805237 14.822613 -39.365013
v 43.078323 16.845230 -40.956749
v 43.257034 14.094416 -41.723431
v 42.185627 16.174982 -42.233238
v 40.872177 15.911304 -42.756054
v 39.620300 13.738921 -43.203209
v 39.506321 15.784781 -42.544777
v 38.028790 13.781124 -42.409786
v 37.775982 15.680580 -41.764191
v 36.548485 14.206582 -42.368813
v 35.997719 15.314539 -41.581017
v 35.152676 15.457918 -35.264057
v 34.742111 13.902674 -35.434086
v 35.351318 14.827601 -34.476841
v 35.509346 13.231561 -34.792950
v 36.110237 14.288806 -34.092667
v 39.196686 15.529472 -31.723270
v 40.289215 14.845641 -31.659065
v 39.305370 14.091180 -32.242226
v 40.541481 14.048048 -32.277340
v 44.347530 15.948663 -35.345837
v 43.732750 15.218834 -33.956532
v 45.110313 13.853637 -36.299969
v 44.510052 12.975409 -34.642563
v 44.787586 11.893538 -37.010960
v 41.717274 13.880573 -42.859749
v 42.632618 12.426680 -42.082741
v 40.489388 12.712315 -43.354534
v 41.306728 10.862324 -41.640579
v 35.451893 14.220891 -41.459705
v 36.253479 13.176723 -42.042873
v 35.496853 13.229109 -40.818256
v 35.768604 12.328601 -35.390141
v 36.861809 12.439126 -35.079571
v 37.032444 14.023427 -33.896790
v 44.224514 11.337580 -35.588757
v 41.616035 11.418760 -36.245968
v 42.797459 10.981303 -37.003418
v 42.820213 11.885005 -34.919350
v 43.595253 10.956185 -37.966717
v 42.343319 10.660451 -39.196209
v 41.074940 10.893861 -38.639008
v 40.169205 10.806198 -41.370415
v 39.714771 11.820308 -37.474667
v 40.772308 12.270947 -35.218704
v 39.967205 12.090146 -36.258423
v 37.393906 13.609576 -33.929745
v 42.314358 13.740392 -33.200230
v 36.355225 12.596958 -41.233101
v 35.972801 12.612823 -40.598671
v 35.534992 12.653771 -38.852676
v 38.503407 11.721300 -37.678780
v 37.880173 11.832504 -36.926361
v 39.157726 11.489350 -38.648766
v 39.564079 11.042079 -39.289165
v 38.293892 11.695124 -42.195427
v 37.499668 12.084632 -42.089211
v 36.964565 12.314022 -41.832165
v 35.564972 12.010619 -37.341785
vt 0.842643 0.814010
vt 0.842757 0.813678
vt 0.842965 0.813968
vt 0.843108 0.814252
vt 0.842697 0.814446
vt 0.842263 0.814212
vt 0.842823 0.815479
vt 0.842805 0.815064
vt 0.843146 0.815168
vt 0.843091 0.814683
vt 0.842307 0.814523
vt 0.843173 0.815479
vt 0.843422 0.815066
vt 0.843433 0.815451
vt 0.843384 0.814671
vt 0.843658 0.815010
vt 0.843766 0.814611
vt 0.843262 0.814413
vt 0.843514 0.814297
vt 0.843407 0.813909
vt 0.843968 0.813682
vt 0.843997 0.814228
vt 0.843238 0.813057
vt 0.843794 0.813217
vt 0.843313 0.813524
vt 0.843128 0.813746
vt 0.844010 0.815394
vt 0.844127 0.815003
vt 0.844842 0.798372
vt 0.845187 0.798614
vt 0.844854 0.798623
vt 0.844497 0.798620
vt 0.844697 0.797786
vt 0.844448 0.798058
vt 0.844335 0.797678
vt 0.845486 0.797895
vt 0.845156 0.797795
vt 0.845377 0.797638
vt 0.845214 0.799075
vt 0.845122 0.799322
vt 0.844656 0.799132
vt 0.844377 0.798601
vt 0.843996 0.798775
vt 0.844098 0.798392
vt 0.844449 0.797385
vt 0.845753 0.797901
vt 0.844706 0.799710
vt 0.845283 0.799787
vt 0.844770 0.799942
vt 0.845671 0.797667
vt 0.845999 0.797913
vt 0.845820 0.797618
vt 0.845684 0.797506
vt 0.843897 0.797559
vt 0.843817 0.798594
vt 0.843680 0.798198
vt 0.844401 0.799483
vt 0.844339 0.799785
vt 0.844821 0.799413
vt 0.845877 0.798631
vt 0.846300 0.798743
vt 0.845937 0.798970
vt 0.846307 0.798374
vt 0.845117 0.797597
vt 0.845060 0.797525
vt 0.844118 0.798021
vt 0.844269 0.798007
vt 0.844305 0.798278
vt 0.843936 0.799038
vt 0.843668 0.799052
vt 0.844253 0.798922
vt 0.844413 0.799100
vt 0.844525 0.798818
vt 0.845658 0.798987
vt 0.845431 0.798953
vt 0.845700 0.798275
vt 0.845392 0.798155
vt 0.845286 0.798392
vt 0.845121 0.798034
vt 0.844816 0.797985
vt 0.844563 0.798309
vt 0.844431 0.798434
vt 0.845073 0.798846
vt 0.845478 0.798657
vt 0.840154 0.810481
vt 0.840155 0.810526
vt 0.840081 0.810517
vt 0.839365 0.810897
vt 0.839287 0.810829
vt 0.839364 0.810799
vt 0.840022 0.810742
vt 0.839985 0.810766
vt 0.840010 0.810722
vt 0.840120 0.810457
vt 0.840126 0.810280
vt 0.840091 0.810274
vt 0.840118 0.810230
vt 0.839399 0.810242
vt 0.839466 0.810200
vt 0.839423 0.810321
vt 0.839511 0.810891
vt 0.839921 0.810546
vt 0.839881 0.810551
vt 0.839869 0.810501
vt 0.839960 0.810350
vt 0.839942 0.810396
vt 0.839896 0.810337
vt 0.839668 0.810205
vt 0.839783 0.810201
vt 0.839705 0.810259
vt 0.839580 0.810481
vt 0.839602 0.810425
vt 0.839652 0.810478
vt 0.839769 0.810497
vt 0.839731 0.810449
vt 0.839783 0.810398
vt 0.839754 0.810625
vt 0.839723 0.810566
vt 0.839729 0.810401
vt 0.839697 0.810517
vt 0.839701 0.810699
vt 0.839668 0.810613
vt 0.839638 0.810545
vt 0.839652 0.810420
vt 0.839676 0.810334
vt 0.839620 0.810366
vt 0.839646 0.810283
vt 0.839805 0.810365
vt 0.839759 0.810263
vt 0.839809 0.810399
vt 0.839841 0.810384
vt 0.839886 0.810246
vt 0.839945 0.810299
vt 0.839876 0.810403
vt 0.839864 0.810450
vt 0.839922 0.810471
vt 0.839923 0.810518
vt 0.839838 0.810504
vt 0.839796 0.810439
vt 0.839804 0.810543
vt 0.839850 0.810591
vt 0.839818 0.810702
vt 0.839521 0.810788
vt 0.839628 0.810830
vt 0.839639 0.810722
vt 0.839566 0.810648
vt 0.839387 0.810684
vt 0.839390 0.810577
vt 0.839484 0.810546
vt 0.839507 0.810442
vt 0.839511 0.810305
vt 0.839566 0.810396
vt 0.839583 0.810305
vt 0.839548 0.810233
vt 0.839608 0.810213
vt 0.839643 0.810118
vt 0.839621 0.810062
vt 0.839724 0.810112
vt 0.839548 0.809917
vt 0.839718 0.810026
vt 0.839845 0.810154
vt 0.840044 0.810230
vt 0.840028 0.810286
vt 0.839984 0.810268
vt 0.839989 0.810321
vt 0.840018 0.810384
vt 0.840073 0.810433
vt 0.839982 0.810451
vt 0.840057 0.810482
vt 0.839979 0.810516
vt 0.840053 0.810566
vt 0.839978 0.810565
vt 0.839963 0.810604
vt 0.839998 0.810676
vt 0.839938 0.810637
vt 0.839963 0.810733
vt 0.839879 0.810692
vt 0.839841 0.810983
vt 0.839800 0.810891
vt 0.839905 0.810932
vt 0.839885 0.810762
vt 0.839757 0.810810
vt 0.839419 0.810465
vt 0.839286 0.810723
vt 0.839293 0.810515
vt 0.839360 0.810414
vt 0.839211 0.810769
vt 0.839229 0.810441
vt 0.839308 0.810355
vt 0.839473 0.810099
vt 0.839471 0.809994
vt 0.839366 0.810034
vt 0.839391 0.809954
vt 0.840176 0.810231
vt 0.840058 0.810358
vt 0.840087 0.810321
vt 0.840101 0.810403
vt 0.840134 0.810370
vt 0.840141 0.810426
vt 0.840026 0.810615
vt 0.840080 0.810609
vt 0.840030 0.810661
vt 0.840132 0.810585
vt 0.840114 0.810664
vt 0.839712 0.810872
vt 0.839762 0.810957
vt 0.839659 0.810932
vt 0.839224 0.810854
vt 0.839135 0.810890
vt 0.839284 0.810257
vt 0.840159 0.810399
vt 0.840219 0.810399
vt 0.840194 0.810426
vt 0.840182 0.810367
vt 0.840176 0.810449
vt 0.840205 0.810485
vt 0.840245 0.810469
vt 0.840191 0.810621
vt 0.840204 0.810668
vt 0.840108 0.810702
vt 0.840286 0.810424
vt 0.840215 0.810352
vt 0.840256 0.810345
vt 0.840241 0.810360
vt 0.840298 0.810377
vt 0.840275 0.810387
vt 0.843427 0.815581
vt 0.844106 0.813512
vt 0.844148 0.815384
vt 0.844104 0.814584
vt 0.844138 0.814307
vt 0.844148 0.813604
vt 0.844314 0.799921
vt 0.844539 0.799904
vt 0.845170 0.799950
vt 0.846288 0.797643
vt 0.846307 0.797971
vt 0.845679 0.797092
vt 0.845267 0.797166
vt 0.845064 0.797254
vt 0.843935 0.797285
vt 0.843664 0.797126
vt 0.843482 0.798611
vt 0.843504 0.798758
vt 0.843549 0.799043
vt 0.845744 0.799782
vt 0.846304 0.799086
vt 0.840026 0.810776
vt 0.840053 0.810746
vt 0.840017 0.810795
vt 0.839779 0.811045
vt 0.839698 0.811014
vt 0.839637 0.810998
vt 0.839587 0.810960
vt 0.839496 0.810929
vt 0.839357 0.810929
vt 0.839278 0.810922
vt 0.839102 0.810962
vt 0.839207 0.810963
vt 0.839099 0.810857
vt 0.839169 0.810295
vt 0.839249 0.810245
vt 0.839325 0.810152
vt 0.840146 0.810301
vt 0.840162 0.810336
vt 0.839195 0.811054
vt 0.839072 0.811057
vt 0.840200 0.810738
vt 0.840249 0.810724
vt 0.840238 0.810767
vt 0.840298 0.810750
vt 0.840261 0.810790
vt 0.840180 0.810723
vt 0.840105 0.810718
vn 0.1478 -0.6594 -0.7371
vn 0.0157 -0.7770 -0.6293
vn 0.1976 -0.9360 -0.2912
vn -0.4610 -0.8663 -0.1924
vn -0.5162 -0.7346 -0.4404
vn -0.1993 -0.8801 -0.4310
vn -0.3018 -0.8895 -0.3430
vn -0.7048 -0.6788 -0.2062
vn -0.7709 -0.6292 -0.0990
vn -0.9923 0.0517 0.1125
vn -0.7822 -0.6138 -0.1073
vn -0.6807 -0.1727 0.7120
vn -0.8939 0.2735 0.3553
vn -0.7013 -0.5559 0.4463
vn -0.3060 0.1221 0.9442
vn -0.2394 -0.7919 0.5617
vn 0.1077 -0.4304 0.8962
vn 0.0147 -0.0033 0.9999
vn 0.4386 -0.5484 0.7120
vn 0.4542 0.1369 0.8803
vn 0.1973 0.1995 0.9598
vn 0.5918 -0.1137 0.7980
vn 0.4632 -0.8436 0.2718
vn 0.5548 -0.6728 -0.4894
vn 0.7717 -0.2041 0.6023
vn 0.5007 -0.8654 -0.0181
vn -0.7004 0.6019 0.3835
vn -0.2641 0.6686 0.6951
vn -0.0393 -0.9942 0.0999
vn -0.2787 -0.8822 0.3795
vn -0.3138 -0.9425 0.1147
vn 0.6072 -0.6985 -0.3787
vn 0.5441 -0.7763 0.3184
vn 0.5435 -0.7765 0.3189
vn 0.5433 -0.7766 0.3190
vn -0.9602 -0.0994 -0.2611
vn -0.5503 0.0686 -0.8322
vn 0.9047 -0.3314 -0.2677
vn 0.5803 -0.3962 0.7115
vn -0.9475 0.2386 -0.2131
vn 0.2348 -0.1876 0.9538
vn 0.6207 0.3519 0.7007
vn 0.0838 -0.9268 0.3660
vn 0.9203 0.1392 0.3656
vn 0.6836 0.1714 -0.7094
vn -0.2515 0.1376 -0.9580
vn -0.5213 0.1035 -0.8471
vn -0.8740 0.1741 -0.4537
vn -0.8739 0.1740 -0.4539
vn -0.8751 0.1749 -0.4513
vn -0.7886 0.1608 -0.5935
vn -0.7618 0.3332 -0.5555
vn -0.8781 0.4394 -0.1894
vn -0.8837 0.4147 -0.2171
vn -0.9509 0.0150 -0.3091
vn -0.5933 -0.4901 0.6386
vn -0.1335 -0.5091 0.8503
vn 0.9559 0.0287 0.2922
vn 0.9558 -0.1675 -0.2415
vn 0.5431 -0.7767 0.3192
vn 0.4918 -0.8684 0.0638
vn 0.4828 -0.8734 0.0638
vn 0.4811 -0.8743 0.0638
vn 0.8885 -0.3447 -0.3028
vn 0.5724 0.0211 -0.8197
vn -0.1928 0.0633 -0.9792
vn 0.6496 -0.3618 -0.6687
vn 0.7308 -0.6816 -0.0368
vn 0.1339 -0.9464 -0.2938
vn 0.0900 -0.6757 -0.7316
vn -0.2758 -0.1492 -0.9496
vn -0.4450 -0.1743 -0.8784
vn -0.8752 0.1750 -0.4509
vn -0.7783 0.3620 -0.5130
vn -0.8617 0.3526 -0.3649
vn -0.7039 0.0881 -0.7048
vn -0.9011 -0.1601 -0.4030
vn -0.9401 -0.1149 -0.3209
vn -0.9547 -0.1423 -0.2614
vn -0.9339 0.2074 0.2912
vn -0.9427 0.1589 0.2935
vn -0.9417 0.0696 0.3292
vn -0.5390 -0.2692 0.7981
vn -0.8123 -0.4796 0.3320
vn -0.3545 -0.7408 0.5706
vn 0.3230 -0.1697 0.9311
vn -0.0403 -0.5694 0.8210
vn -0.0926 -0.5742 0.8135
vn -0.0585 -0.6383 0.7675
vn 0.0594 -0.9829 0.1745
vn -0.1231 -0.9182 0.3765
vn 0.2957 -0.7806 0.5506
vn -0.2099 -0.9713 0.1116
vn 0.3675 -0.9162 0.1597
vn 0.4934 -0.8674 0.0638
vn 0.1233 -0.9153 0.3835
vn 0.4222 -0.9038 -0.0698
vn 0.1059 -0.9807 0.1646
vn 0.2613 -0.9645 -0.0372
vn 0.1082 -0.9407 -0.3214
vn 0.1049 -0.9608 -0.2567
vn -0.2810 -0.9558 0.0869
vn -0.2774 -0.9606 0.0161
vn -0.4794 -0.4668 -0.7432
vn -0.6088 -0.5887 -0.5318
vn -0.8810 -0.3081 -0.3589
vn -0.8137 -0.5710 0.1093
vn -0.7351 -0.6779 0.0083
vn -0.7809 -0.6247 0.0073
vn -0.1543 -0.8189 0.5529
vn -0.2181 -0.8046 0.5524
vn -0.1991 -0.8237 0.5309
vn -0.2024 -0.8555 0.4766
vn -0.2441 -0.8744 0.4194
vn -0.2389 -0.8826 0.4048
vn -0.7397 -0.6423 0.2008
vn -0.3152 -0.8685 0.3827
vn -0.3212 -0.8524 0.4127
vn -0.2915 -0.8715 0.3943
vn -0.2828 -0.7921 0.5409
vn 0.8458 -0.1817 -0.5017
vn -0.8818 -0.4716 0.0012
vn -0.4014 -0.1806 -0.8979
vn 0.8827 -0.1474 -0.4463
vn 0.7169 -0.0249 0.6967
vn -0.6355 -0.1499 0.7574
vn -0.8972 -0.3839 -0.2185
vn -0.4760 0.3730 -0.7964
vn 0.6658 0.7092 0.2321
vn 0.2853 0.6086 0.7404
vn 0.2853 0.6090 0.7401
vn 0.2863 0.6138 0.7357
vn -0.8986 0.4156 -0.1404
vn -0.4264 0.8404 -0.3346
vn -0.5378 0.6720 -0.5091
vn -0.5241 0.8473 -0.0859
vn -0.6104 0.7020 -0.3668
vn -0.3620 0.7603 -0.5393
vn -0.5591 0.7746 -0.2955
vn -0.3775 0.7467 -0.5476
vn -0.6325 0.7227 -0.2786
vn -0.5688 0.6383 -0.5186
vn -0.8201 0.5504 -0.1566
vn -0.8106 0.4644 -0.3567
vn -0.9017 0.3811 -0.2041
vn -0.5492 0.8226 -0.1477
vn -0.3715 0.8907 0.2620
vn -0.4956 0.8625 -0.1025
vn -0.4008 0.8788 0.2591
vn -0.6923 0.7209 -0.0315
vn -0.5493 0.7557 0.3566
vn -0.4765 0.7993 0.3662
vn -0.4058 0.7023 0.5849
vn -0.3222 0.7323 0.5999
vn -0.2457 0.5769 0.7790
vn -0.3285 0.8999 0.2868
vn -0.1185 0.9019 0.4154
vn -0.1669 0.9835 0.0702
vn 0.0722 0.9952 0.0666
vn -0.1275 0.8540 0.5044
vn 0.3549 0.8372 0.4162
vn 0.3843 0.8236 0.4171
vn 0.2865 0.6143 0.7352
vn 0.5776 0.6476 0.4970
vn 0.5815 0.5791 0.5714
vn 0.5086 0.6171 0.6004
vn 0.5310 0.8417 0.0981
vn 0.2310 0.9565 -0.1781
vn 0.2082 0.9462 -0.2477
vn -0.1044 0.9075 -0.4068
vn -0.1037 0.9076 -0.4068
vn -0.1019 0.9079 -0.4066
vn 0.5709 0.8171 0.0805
vn 0.5799 0.7687 -0.2697
vn 0.4538 0.8196 -0.3498
vn 0.3543 0.7895 -0.5011
vn 0.3155 0.7937 -0.5201
vn -0.0638 0.5654 -0.8224
vn -0.0994 0.9083 -0.4063
vn -0.3681 0.8926 -0.2604
vn -0.5458 0.8017 -0.2438
vn -0.2711 0.8905 -0.3653
vn -0.6610 0.6680 -0.3418
vn -0.3212 0.7572 -0.5688
vn -0.4853 0.6739 -0.5570
vn -0.3452 0.3767 -0.8596
vn -0.2018 0.4474 -0.8713
vn -0.4933 0.4679 -0.7333
vn -0.0689 0.6484 -0.7582
vn -0.5505 0.7319 -0.4016
vn -0.4311 0.7891 -0.4376
vn -0.9886 -0.1466 -0.0351
vn -0.7873 0.5887 -0.1832
vn -0.9761 0.2128 -0.0438
vn -0.9330 0.3390 0.1209
vn -0.8659 0.4934 0.0829
vn -0.9114 0.3986 -0.1026
vn -0.9623 -0.0695 -0.2631
vn -0.9758 0.1930 -0.1030
vn -0.9110 0.3873 -0.1415
vn -0.8036 0.5926 0.0553
vn -0.9302 0.3641 0.0465
vn -0.9592 0.1762 -0.2213
vn -0.9659 0.2545 0.0467
vn -0.8684 0.2541 0.4258
vn -0.8150 0.3273 0.4782
vn -0.6583 0.5078 0.5556
vn -0.6560 0.5054 0.5606
vn -0.6558 0.5050 0.5612
vn -0.8404 0.3712 0.3948
vn -0.6012 0.6343 0.4860
vn -0.6587 0.5078 0.5552
vn -0.4136 0.6892 0.5950
vn -0.6642 0.1574 0.7308
vn -0.6209 0.2234 0.7513
vn -0.5684 0.6251 0.5350
vn -0.3078 0.7937 0.5247
vn -0.3926 0.6661 0.6342
vn -0.0939 0.7875 0.6091
vn 0.0923 0.8392 0.5359
vn 0.2377 0.6104 0.7555
vn 0.4792 0.2620 0.8377
vn 0.0124 0.8572 0.5148
vn 0.3682 0.5360 0.7597
vn 0.6125 0.6203 0.4899
vn 0.4209 0.8101 0.4082
vn 0.4215 0.8178 0.3919
vn 0.6655 0.1929 0.7211
vn 0.7651 0.2721 0.5836
vn 0.6472 0.5942 0.4775
vn 0.7138 0.6122 0.3400
vn 0.6952 0.6481 0.3108
vn 0.5432 0.5091 0.6677
vn 0.8609 0.4743 0.1843
vn 0.8695 0.4367 -0.2310
vn 0.8508 0.0437 -0.5237
vn 0.9195 0.2919 -0.2632
vn 0.8590 0.3600 -0.3640
vn 0.8176 0.2764 -0.5051
vn 0.9619 0.2316 -0.1451
vn 0.8700 0.4612 -0.1744
vn 0.6208 0.5859 -0.5209
vn 0.9292 0.1784 -0.3237
vn 0.9557 0.1323 -0.2630
vn 0.9556 0.1327 -0.2631
vn 0.9556 0.1327 -0.2630
vn 0.9550 0.1356 -0.2638
vn 0.7390 0.2250 -0.6350
vn 0.5489 0.5181 -0.6559
vn 0.0069 0.5250 -0.8511
vn -0.3425 0.6384 -0.6893
vn -0.1726 0.2930 -0.9404
vn -0.4325 0.2036 -0.8784
vn -0.1722 0.6980 -0.6951
vn -0.2880 0.7024 -0.6509
vn -0.4259 0.2556 -0.8679
vn -0.4110 0.2439 -0.8784
vn -0.3336 0.6847 -0.6480
vn -0.0114 0.5607 -0.8279
vn -0.2998 0.2826 -0.9112
vn -0.0272 0.0018 -0.9996
vn 0.0686 0.3292 -0.9418
vn -0.1905 0.5042 -0.8423
vn -0.1857 0.4702 -0.8628
vn -0.5080 0.6776 -0.5318
vn -0.9858 0.1672 -0.0155
vn -0.7954 0.5878 -0.1477
vn -0.9855 0.1695 0.0108
vn -0.8578 0.4662 -0.2162
vn -0.9661 0.2467 0.0766
vn -0.9020 0.1961 0.3846
vn -0.7722 0.3864 0.5043
vn -0.7888 0.3817 0.4817
vn -0.9463 -0.2589 0.1935
vn -0.7613 -0.3471 0.5476
vn -0.7260 -0.2021 0.6573
vn -0.5579 -0.2140 0.8019
vn -0.5690 -0.2408 0.7863
vn -0.6537 -0.2034 0.7289
vn -0.0777 0.7766 0.6252
vn -0.1138 0.5931 0.7971
vn -0.1601 0.5409 0.8257
vn -0.2127 0.2292 0.9499
vn -0.2459 0.3352 0.9095
vn 0.2006 0.0870 0.9758
vn -0.4218 -0.3574 0.8333
vn -0.3445 -0.3415 0.8745
vn 0.0011 -0.6124 0.7905
vn 0.3686 -0.4939 0.7875
vn 0.3912 -0.5051 0.7693
vn 0.7839 0.3143 0.5354
vn 0.7030 0.6225 0.3439
vn 0.6351 0.3628 0.6820
vn 0.7149 0.6330 0.2970
vn 0.9420 0.3350 0.0177
vn 0.9414 0.3370 0.0167
vn 0.9412 0.3373 0.0167
vn 0.7300 0.4165 0.5418
vn 0.8843 0.1160 0.4523
vn 0.9421 0.3348 0.0180
vn 0.9672 -0.0539 -0.2481
vn 0.6074 -0.0111 0.7943
vn 0.6131 -0.0290 0.7894
vn 0.8903 0.1806 0.4181
vn 0.9471 -0.2352 0.2184
vn 0.9682 -0.0725 -0.2396
vn 0.9121 -0.2252 -0.3426
vn 0.1877 0.6028 -0.7755
vn 0.5815 0.1017 -0.8071
vn 0.9001 -0.2620 -0.3482
vn 0.3311 0.1851 -0.9253
vn 0.1531 0.1138 -0.9816
vn 0.5976 -0.0514 -0.8001
vn 0.4895 -0.1508 -0.8588
vn 0.1391 0.2587 -0.9559
vn -0.2374 -0.0581 -0.9697
vn 0.8996 -0.2086 -0.3837
vn 0.6060 -0.6451 -0.4654
vn 0.3777 -0.5340 -0.7565
vn -0.0771 -0.6957 -0.7142
vn -0.2368 -0.2769 -0.9312
vn -0.7962 0.4815 -0.3665
vn -0.6200 0.2261 -0.7514
vn -0.3276 -0.1985 -0.9237
vn -0.8491 0.3835 -0.3634
vn -0.9231 0.2707 -0.2733
vn -0.6375 -0.0605 -0.7681
vn -0.8041 -0.3481 -0.4819
vn -0.9455 -0.2059 -0.2522
vn -0.9493 -0.2695 -0.1616
vn -0.5819 -0.5582 0.5914
vn -0.1687 -0.5770 0.7992
vn -0.2996 -0.4026 0.8649
vn -0.3312 -0.6372 0.6960
vn 0.9207 -0.3027 0.2462
vn -0.0837 -0.9139 0.3972
vn -0.1647 -0.9043 0.3939
vn 0.1154 -0.9859 0.1211
vn 0.1203 -0.9848 0.1252
vn 0.1210 -0.9846 0.1259
vn 0.6401 -0.7669 -0.0464
vn 0.7033 -0.6785 -0.2119
vn 0.5211 -0.7839 -0.3375
vn 0.5215 -0.7836 -0.3376
vn 0.1145 -0.9861 0.1206
vn -0.1904 -0.9490 0.2512
vn 0.5174 -0.7863 -0.3377
vn 0.5563 -0.7750 -0.2999
vn -0.1076 -0.9803 0.1657
vn -0.1462 -0.9860 0.0801
vn 0.0269 -0.9952 -0.0936
vn -0.1186 -0.7466 -0.6546
vn -0.3648 -0.8900 0.2735
vn -0.3670 -0.8878 0.2777
vn 0.1920 -0.8787 -0.4371
vn 0.1840 -0.9728 -0.1405
vn -0.9089 0.3946 -0.1346
vn 0.8468 0.2092 0.4891
vn -0.6690 0.7073 0.2284
vn -0.4536 0.5191 0.7244
vn 0.0615 0.4999 0.8639
vn 0.4561 0.5008 0.7357
vn -0.8068 0.3965 -0.4381
vn -0.8233 0.3143 -0.4727
vn -0.8423 0.5351 -0.0651
vn 0.6924 0.5239 0.4961
vn 0.5913 0.6068 0.5312
vn 0.7052 0.6302 0.3250
vn 0.9361 0.2637 0.2327
vn 0.8625 0.4488 0.2339
vn 0.6771 0.2615 -0.6879
vn 0.1132 0.4695 -0.8756
vn -0.2087 0.3003 -0.9308
vn -0.2817 0.3457 -0.8950
vn -0.5518 0.3130 -0.7730
vn -0.5939 0.3289 -0.7342
vn -0.9173 0.3066 0.2540
vn -0.9227 0.1249 0.3648
vn 0.8711 0.3759 0.3160
vn 0.8994 0.4289 -0.0843
vn 0.4842 0.4197 0.7677
vn -0.3645 -0.8902 0.2732
vn -0.3943 -0.6186 -0.6796
vn -0.3260 -0.8417 0.4305
vn -0.5222 -0.3448 -0.7800
vn -0.3220 -0.4666 -0.8237
vn -0.6679 -0.6423 -0.3760
vn -0.6670 -0.6428 -0.3767
vn -0.6678 -0.6415 -0.3776
vn -0.6606 -0.6469 -0.3810
vn -0.7241 -0.6456 -0.2426
vn -0.8165 -0.5582 -0.1475
vn -0.6890 -0.6564 -0.3073
vn -0.5989 -0.7966 0.0815
vn -0.1593 -0.8426 0.5145
vn -0.4887 -0.8056 0.3349
vn -0.0368 -0.8935 0.4476
vn -0.1821 -0.8860 0.4263
vn -0.3770 -0.8075 0.4537
vn -0.3350 -0.3380 0.8795
vn -0.5817 -0.5287 0.6181
vn -0.4251 -0.3705 0.8258
vn 0.3832 -0.3528 0.8537
vn 0.4337 -0.3334 0.8371
vn -0.1105 -0.7415 0.6618
vn 0.0169 -0.7564 0.6539
vn 0.4262 -0.5071 0.7492
vn -0.1759 -0.8678 0.4647
vn 0.1677 -0.9690 0.1815
vn 0.0360 -0.9662 0.2553
vn 0.0469 -0.9828 0.1787
vn 0.0947 -0.9758 0.1968
vn -0.2739 -0.8754 0.3982
vn -0.0845 -0.9925 0.0879
vn 0.0267 -0.6492 -0.7601
vn -0.0499 -0.7731 -0.6323
vn 0.4937 -0.7158 -0.4939
vn 0.7254 -0.6608 0.1929
vn 0.0071 0.1046 0.9945
usemtl Material.004
f 1/1/1 2/2/1 3/3/1
f 1/1/2 4/4/2 5/5/2
f 6/6/3 1/1/3 5/5/3
f 7/7/4 5/8/4 8/9/4
f 5/8/5 9/10/5 8/9/5
f 5/5/6 4/4/6 9/10/6
f 7/11/7 6/6/7 5/5/7
f 7/7/8 8/9/8 10/12/8
f 8/9/9 11/13/9 10/12/9
f 10/12/10 11/13/10 12/14/10
f 8/9/11 9/10/11 11/13/11
f 11/13/12 13/15/12 14/16/12
f 11/13/13 14/16/13 12/14/13
f 11/13/14 9/10/14 13/15/14
f 13/15/15 15/17/15 14/16/15
f 9/10/16 16/18/16 13/15/16
f 16/18/17 17/19/17 13/15/17
f 13/15/18 17/19/18 15/17/18
f 16/18/19 18/20/19 17/19/19
f 17/19/20 19/21/20 20/22/20
f 17/19/21 20/22/21 15/17/21
f 17/19/22 18/20/22 19/21/22
f 4/4/23 18/20/23 16/18/23
f 2/23/24 21/24/24 22/25/24
f 18/20/25 21/24/25 19/21/25
f 4/4/26 3/3/26 22/26/26 18/20/26
f 12/27/27 14/16/27 23/28/27
f 14/16/28 15/17/28 23/28/28
f 4/4/29 16/18/29 9/10/29
f 24/29/30 25/30/30 26/31/30
f 24/29/31 26/31/31 27/32/31
f 28/33/32 29/34/32 30/35/32
f 31/36/33 32/37/34 33/38/35
f 34/39/36 35/40/36 36/41/36
f 37/42/37 38/43/37 39/44/37
f 28/33/38 30/35/38 40/45/38
f 31/36/39 33/38/39 41/46/39
f 42/47/40 43/48/40 44/49/40
f 41/46/41 45/50/41 46/51/41
f 46/51/42 45/50/42 47/52/42
f 41/46/43 33/38/43 45/50/43
f 45/50/44 33/38/44 47/53/44
f 30/35/45 48/54/45 40/45/45
f 39/44/46 49/55/46 48/56/46
f 39/44/47 38/43/47 49/55/47
f 50/57/48 42/47/49 51/58/50
f 36/41/51 52/59/51 50/57/51
f 50/57/52 52/59/52 42/47/52
f 52/59/53 35/40/53 42/47/53
f 35/40/54 43/48/54 42/47/54
f 36/41/55 35/40/55 52/59/55
f 53/60/56 54/61/56 55/62/56
f 53/60/57 56/63/57 54/61/57
f 33/38/58 57/64/58 58/65/58
f 58/65/59 57/64/59 40/45/59
f 33/38/35 32/37/34 57/64/60
f 32/37/61 28/33/62 57/64/63
f 57/64/64 28/33/64 40/45/64
f 30/35/65 59/66/65 48/54/65
f 59/66/66 39/44/66 48/56/66
f 30/35/67 60/67/67 59/66/67
f 30/35/68 29/34/68 60/67/68
f 29/34/69 61/68/69 60/67/69
f 60/67/70 61/68/70 59/66/70
f 59/66/71 61/68/71 39/44/71
f 61/68/72 37/42/72 39/44/72
f 38/43/73 50/69/48 51/70/50
f 38/43/74 62/71/74 50/69/74
f 62/72/75 36/41/75 50/57/75
f 38/43/76 37/42/76 62/71/76
f 37/42/77 63/73/77 62/71/77
f 62/72/78 63/73/78 36/41/78
f 63/73/79 34/39/79 36/41/79
f 35/40/80 55/62/80 43/48/80
f 35/40/81 34/39/81 55/62/81
f 34/39/82 64/74/82 55/62/82
f 64/74/83 53/60/83 55/62/83
f 34/39/84 65/75/84 64/74/84
f 64/74/85 65/75/85 53/60/85
f 56/63/86 41/46/86 46/51/86
f 53/60/87 66/76/87 56/63/87
f 56/63/88 66/76/88 41/46/88
f 66/76/89 31/36/89 41/46/89
f 67/77/90 32/37/90 31/36/90
f 68/78/91 69/79/91 67/77/91
f 67/77/92 69/79/92 32/37/92
f 68/78/93 70/80/93 69/79/93
f 69/79/94 70/80/94 32/37/94
f 70/80/95 28/33/62 32/37/61
f 68/78/96 24/29/96 70/80/96
f 70/80/97 29/34/97 28/33/97
f 24/29/98 71/81/98 70/80/98
f 70/80/99 71/81/99 29/34/99
f 71/81/100 72/82/100 29/34/100
f 29/34/101 72/82/101 61/68/101
f 24/29/102 27/32/102 71/81/102
f 71/81/103 27/32/103 72/82/103
f 72/82/104 37/42/104 61/68/104
f 72/82/105 27/32/105 37/42/105
f 27/32/106 63/73/106 37/42/106
f 27/32/107 26/31/107 63/73/107
f 26/31/108 73/83/108 63/73/108
f 73/83/109 34/39/109 63/73/109
f 66/76/110 67/77/110 31/36/110
f 53/60/111 74/84/111 66/76/111
f 66/76/112 74/84/112 67/77/112
f 74/84/113 68/78/113 67/77/113
f 74/84/114 25/30/114 68/78/114
f 25/30/115 24/29/115 68/78/115
f 73/83/116 65/75/116 34/39/116
f 26/31/117 25/30/117 73/83/117
f 25/30/118 74/84/118 73/83/118
f 73/83/119 74/84/119 65/75/119
f 74/84/120 53/60/120 65/75/120
f 75/85/121 76/86/121 77/87/121
f 78/88/122 79/89/122 80/90/122
f 81/91/123 82/92/123 83/93/123
f 75/85/124 77/87/124 84/94/124
f 85/95/125 86/96/125 87/97/125
f 88/98/126 89/99/126 90/100/126
f 78/88/127 80/90/127 91/101/127
f 92/102/128 93/103/128 94/104/128
f 95/105/129 96/106/129 97/107/129
f 98/108/130 99/109/131 100/110/132
f 101/111/133 102/112/133 103/113/133
f 104/114/134 105/115/134 106/116/134
f 107/117/135 108/118/135 104/114/135
f 106/116/136 105/115/136 109/119/136
f 104/114/137 108/118/137 105/115/137
f 108/118/138 110/120/138 105/115/138
f 110/120/139 103/113/139 105/115/139
f 107/117/140 111/121/140 108/118/140
f 111/121/141 112/122/141 108/118/141
f 108/118/142 112/122/142 110/120/142
f 112/122/143 113/123/143 110/120/143
f 110/120/144 113/123/144 103/113/144
f 113/123/145 101/111/145 103/113/145
f 103/113/146 114/124/146 105/115/146
f 109/119/147 115/125/147 106/116/147
f 105/115/148 114/124/148 109/119/148
f 114/124/149 115/125/149 109/119/149
f 103/113/150 102/112/150 114/124/150
f 102/112/151 116/126/151 114/124/151
f 114/124/152 116/126/152 115/125/152
f 116/126/153 117/127/153 115/125/153
f 115/125/154 117/127/154 100/110/154
f 117/127/155 98/108/155 100/110/155
f 115/125/156 118/128/156 106/116/156
f 100/110/157 119/129/157 115/125/157
f 106/116/158 118/128/158 120/130/158
f 118/128/159 121/131/159 120/130/159
f 115/125/160 119/129/160 118/128/160
f 118/128/161 119/129/161 121/131/161
f 119/129/162 97/107/162 121/131/162
f 100/110/132 99/109/131 119/129/163
f 99/109/164 122/132/164 119/129/164
f 119/129/165 122/132/165 97/107/165
f 122/133/166 95/105/166 97/107/166
f 97/107/167 123/134/167 121/131/167
f 121/131/168 123/134/168 120/130/168
f 123/134/169 124/135/169 120/130/169
f 124/135/170 94/104/171 120/130/172
f 97/107/173 96/106/173 123/134/173
f 96/106/174 125/136/174 123/134/174
f 123/134/175 125/136/175 124/135/175
f 125/136/176 126/137/176 124/135/176
f 124/135/177 126/137/177 94/104/177
f 126/137/178 92/102/178 94/104/178
f 94/104/171 127/138/179 120/130/172
f 120/130/180 128/139/180 106/116/180
f 128/139/181 104/114/181 106/116/181
f 120/130/182 127/138/182 128/139/182
f 127/138/183 129/140/183 128/139/183
f 128/139/184 129/140/184 104/114/184
f 129/140/185 107/117/185 104/114/185
f 94/104/186 93/103/186 127/138/186
f 93/103/187 130/141/187 127/138/187
f 127/138/188 130/141/188 129/140/188
f 130/141/189 131/142/189 129/140/189
f 129/140/190 131/142/190 107/117/190
f 131/142/191 111/121/191 107/117/191
f 91/101/192 132/143/192 133/144/192
f 134/145/193 112/122/193 111/121/193
f 133/144/194 132/143/194 134/145/194
f 132/143/195 135/146/195 134/145/195
f 134/145/196 135/146/196 112/122/196
f 135/146/197 113/123/197 112/122/197
f 91/101/198 80/90/198 132/143/198
f 80/90/199 136/147/199 132/143/199
f 132/143/200 136/147/200 135/146/200
f 136/148/201 137/149/201 135/146/201
f 135/146/202 137/149/202 113/123/202
f 137/149/203 101/111/203 113/123/203
f 138/150/204 102/112/204 101/111/204
f 90/100/205 139/151/205 138/150/205
f 138/150/206 140/152/206 102/112/206
f 140/152/207 116/126/208 102/112/209
f 138/150/210 139/151/210 140/152/210
f 139/151/211 141/153/211 140/152/211
f 140/152/207 141/153/212 116/126/208
f 141/153/213 117/127/213 116/126/213
f 90/100/214 89/99/214 139/151/214
f 89/99/215 142/154/215 139/151/215
f 139/151/216 142/154/216 141/153/216
f 142/154/217 143/155/217 141/153/217
f 141/153/218 143/155/218 117/127/218
f 143/155/219 98/108/219 117/127/219
f 144/156/220 99/109/220 98/108/220
f 145/157/221 146/158/221 144/156/221
f 87/159/222 147/160/222 145/157/222
f 144/156/223 146/158/223 99/109/223
f 145/157/224 147/160/224 146/158/224
f 147/160/225 148/161/225 146/158/225
f 146/158/226 148/161/226 99/109/226
f 148/161/227 122/132/227 99/109/227
f 87/97/228 86/96/228 147/162/228
f 86/96/229 149/163/229 147/162/229
f 147/162/230 149/163/230 148/164/230
f 149/163/231 150/165/231 148/164/231
f 148/164/232 150/165/232 122/133/232
f 150/165/233 95/105/233 122/133/233
f 151/166/234 96/106/234 95/105/234
f 152/167/235 153/168/235 151/166/235
f 84/94/236 154/169/236 152/167/236
f 151/166/237 153/168/237 96/106/237
f 153/168/238 125/136/238 96/106/238
f 152/167/239 154/169/239 153/168/239
f 154/169/240 155/170/240 153/168/240
f 153/168/241 155/170/241 125/136/241
f 155/170/242 126/137/242 125/136/242
f 84/94/243 77/87/243 154/169/243
f 77/87/244 156/171/245 154/169/246
f 154/169/246 156/171/245 155/170/247
f 156/171/248 157/172/248 155/170/248
f 155/170/249 157/172/249 126/137/249
f 157/172/250 92/102/250 126/137/250
f 158/173/251 93/103/251 92/102/251
f 159/174/252 160/175/252 158/173/252
f 83/93/253 161/176/253 159/174/253
f 158/173/254 160/175/254 93/103/254
f 160/175/255 130/141/255 93/103/255
f 159/174/256 161/176/256 160/175/256
f 161/176/257 162/177/257 160/175/257
f 160/175/258 162/177/258 130/141/258
f 162/177/259 131/142/259 130/141/259
f 83/93/260 82/92/260 161/176/260
f 82/178/261 163/179/261 161/180/261
f 161/180/262 163/179/262 162/181/262
f 163/179/263 164/182/263 162/181/263
f 162/181/264 164/182/264 131/142/264
f 164/182/265 111/121/265 131/142/265
f 137/149/266 138/150/266 101/111/266
f 136/148/267 165/183/267 137/149/267
f 80/90/268 166/184/268 136/147/268
f 137/149/269 165/183/269 138/150/269
f 136/148/270 166/185/270 165/183/270
f 166/185/271 167/186/271 165/183/271
f 165/183/272 167/186/272 138/150/272
f 167/186/273 90/100/273 138/150/273
f 80/90/274 79/89/274 166/184/274
f 79/89/275 168/187/275 166/184/275
f 166/185/276 168/188/276 167/186/276
f 168/188/277 169/189/277 167/186/277
f 167/186/278 169/189/278 90/100/278
f 169/189/279 88/98/279 90/100/279
f 143/155/280 144/156/280 98/108/280
f 142/154/281 145/157/281 143/155/281
f 143/155/282 145/157/282 144/156/282
f 142/154/283 89/99/283 145/157/283
f 89/99/284 170/190/284 145/157/284
f 171/191/285 87/159/285 145/157/285
f 88/98/286 172/192/286 89/99/286
f 89/99/287 172/192/287 171/191/287 170/190/287
f 172/192/288 173/193/288 171/191/288
f 171/191/289 173/193/289 87/159/289
f 173/194/290 85/95/290 87/97/290
f 150/165/291 151/166/291 95/105/291
f 149/163/292 174/195/292 150/165/292
f 86/96/293 175/196/293 149/163/293
f 150/165/294 174/195/294 151/166/294
f 174/195/295 152/167/296 151/166/297
f 149/163/298 175/196/298 174/195/298
f 175/196/299 176/197/299 174/195/299
f 174/195/295 176/197/300 152/167/296
f 176/197/301 84/94/301 152/167/301
f 86/96/302 85/95/302 175/196/302
f 85/95/303 177/198/303 175/196/303
f 175/196/304 177/198/304 176/197/304
f 177/198/305 178/199/305 176/197/305
f 176/197/306 178/199/306 84/94/306
f 178/199/307 75/85/307 84/94/307
f 157/172/308 158/173/308 92/102/308
f 156/171/309 179/200/309 157/172/309
f 77/87/310 180/201/310 156/171/310
f 157/172/311 179/200/311 158/173/311
f 179/200/312 159/174/312 158/173/312
f 156/171/313 180/201/313 179/200/313
f 180/201/314 181/202/314 179/200/314
f 179/200/315 181/202/315 159/174/315
f 181/202/316 83/93/316 159/174/316
f 77/87/317 76/203/317 180/201/317
f 76/203/318 182/204/318 180/201/318
f 180/201/319 182/204/319 181/202/319
f 182/204/320 81/91/320 181/202/320
f 181/202/321 81/91/321 83/93/321
f 164/182/322 134/145/322 111/121/322
f 163/179/323 183/205/323 164/182/323
f 82/178/324 184/206/324 163/179/324
f 164/182/325 183/205/325 134/145/325
f 183/205/326 133/144/326 134/145/326
f 163/179/327 184/206/327 183/205/327
f 184/206/328 185/207/328 183/205/328
f 183/205/329 185/207/329 133/144/329
f 185/207/330 91/101/330 133/144/330
f 186/208/331 168/187/331 79/89/331
f 187/209/332 168/187/332 186/208/332
f 168/188/333 188/210/333 169/189/333
f 188/210/334 88/98/334 169/189/334
f 189/211/335 178/199/335 177/198/335
f 190/212/336 191/213/336 192/214/336
f 192/214/337 191/213/337 189/211/337
f 191/213/338 193/215/339 189/211/340
f 189/211/341 193/215/341 178/199/341
f 193/215/342 75/85/342 178/199/342
f 193/215/343 76/86/343 75/85/344
f 191/213/338 194/216/345 193/215/339
f 190/212/346 195/217/346 191/213/346
f 193/215/343 194/216/347 76/86/343
f 194/218/348 182/204/348 76/203/348
f 191/213/349 195/217/349 194/216/349
f 195/219/350 196/220/350 194/218/350
f 194/218/351 196/220/351 182/204/351
f 196/220/352 81/91/352 182/204/352
f 190/212/353 197/221/353 195/217/354
f 2/222/355 1/223/355 198/224/355
f 1/223/356 6/225/356 199/226/356 198/224/356
f 10/12/357 12/14/357 200/227/357
f 19/21/358 21/24/358 201/228/358
f 12/27/359 23/28/359 200/229/359
f 23/28/360 15/17/360 172/230/360
f 172/230/361 15/17/361 20/22/361 173/231/361
f 20/22/362 19/21/362 201/232/362 173/231/362
f 202/233/363 51/58/363 42/47/363 203/234/363
f 203/234/364 42/47/364 44/49/364
f 44/49/365 43/48/365 204/235/365
f 46/51/366 205/236/366 206/237/366
f 46/51/367 47/52/367 205/236/367
f 205/238/368 47/53/368 207/239/368
f 208/240/369 47/53/369 33/38/369
f 47/53/370 208/240/370 207/239/370
f 40/45/371 48/54/371 209/241/371
f 209/241/372 48/54/372 210/242/372
f 210/243/373 48/56/373 49/55/373
f 211/244/374 210/243/374 49/55/374
f 211/244/375 49/55/375 38/43/375
f 38/43/376 51/70/376 202/245/376 211/244/376
f 43/48/377 55/62/377 212/246/377 204/235/377
f 55/62/378 54/61/378 212/247/378
f 33/38/379 58/65/379 208/240/379
f 208/240/380 58/65/380 40/45/380
f 56/63/381 46/51/381 206/237/381
f 199/226/382 197/221/353 190/212/353
f 210/248/383 81/91/383 209/249/383
f 190/212/384 2/222/384 198/224/384 199/226/384
f 210/248/385 211/250/385 82/92/385 81/91/385
f 211/251/386 184/206/386 82/178/386
f 211/251/387 202/252/388 184/206/389
f 203/253/390 185/207/390 184/206/389 202/252/388
f 44/254/391 185/207/391 203/253/391
f 204/255/392 91/101/392 185/207/392 44/254/392
f 204/255/393 212/256/393 78/88/393 91/101/393
f 79/89/394 78/88/394 212/256/394 54/257/394
f 7/258/395 187/209/395 54/257/395 56/259/395
f 186/208/396 79/89/396 54/257/396
f 186/208/397 54/257/397 187/209/397
f 10/260/398 187/209/398 7/258/398
f 10/260/399 168/187/399 187/209/399
f 188/210/400 168/188/400 10/261/400 200/262/400
f 200/262/401 23/263/401 88/98/401 188/210/401
f 172/192/402 88/98/402 23/263/402
f 85/95/403 173/194/403 201/264/403
f 21/265/404 177/198/404 85/95/404 201/264/404
f 192/214/405 21/265/405 2/222/405
f 192/214/406 189/211/406 21/265/406
f 177/198/407 21/265/407 189/211/407
f 2/222/408 190/212/408 192/214/408
f 206/266/409 6/267/409 7/258/409 56/259/409
f 207/268/410 197/269/410 205/270/410
f 205/270/411 197/269/411 6/271/411 206/272/411
f 197/221/412 199/226/412 6/225/412
f 208/273/413 195/219/413 197/269/413 207/268/413
f 208/273/414 40/274/414 196/220/414 195/219/414
f 81/91/415 196/220/415 40/274/415 209/249/415
f 3/3/416 4/4/416 1/1/416
f 22/26/417 3/3/417 2/2/417
f 22/25/418 21/24/418 18/20/418
f 145/157/419 170/190/419 171/191/419
