mtllib LOW_POLY_set.mtl
o lp_tree2_Icosphere_007
v 23.086349 4.690632 -4.022741
v 23.904016 4.495337 -5.098811
v 23.705282 4.783941 -3.456459
v 24.965847 4.595209 -5.381216
v 23.924580 4.739651 -6.081925
v 22.856400 4.784039 -2.501264
v 22.251682 4.674815 -3.871486
v 22.930994 4.579772 -5.439015
v 21.583981 4.802026 -3.988728
v 21.889309 4.855052 -2.512420
v 21.579512 5.088068 -2.748635
v 22.712313 4.878517 -6.132770
v 21.902527 4.776267 -5.336268
v 22.021975 5.307878 -5.958861
v 21.363874 5.149466 -4.673317
v 23.748791 5.351461 -6.367430
v 23.281467 5.807333 -5.706398
v 21.454948 5.567562 -5.089494
v 22.526741 6.198648 -4.678364
v 22.486652 5.001571 -1.720922
v 24.715969 4.654619 -4.524683
v 28.769020 4.461730 -0.890199
v 27.421841 4.654143 1.476796
v 26.893976 4.660824 -0.460954
v 29.796665 4.257622 0.091550
v 28.018307 4.749867 -2.098282
v 29.854637 4.618052 -1.553461
v 30.605186 4.871452 -0.557268
v 30.429508 4.802762 -1.824540
v 29.352390 4.776906 -2.772122
v 30.320553 4.545129 0.671510
v 30.455379 5.587934 0.174649
v 30.678173 5.319360 -1.200364
v 30.076307 6.007130 -0.516015
v 30.017271 5.990554 -1.697281
v 30.059343 5.426797 -2.554602
v 28.709959 5.502594 -3.194857
v 29.335217 5.973785 -2.690590
v 27.935619 5.064728 -2.821163
v 26.385048 5.032337 -0.435943
v 26.823200 5.086440 -1.608808
v 26.557589 5.093309 0.973484
v 27.216938 4.905269 2.121406
v 28.651930 4.538886 1.893120
v 28.098013 5.090626 2.218059
v 30.022240 4.961466 1.292527
v 29.166883 5.885387 1.151578
v 29.511786 6.253702 0.564297
v 29.508785 6.394048 -0.245698
v 24.672396 5.539584 -6.287221
v 24.101799 6.003168 -5.489823
v 21.738976 5.903120 -4.194630
v 24.892656 4.963171 -5.931662
v 23.928579 4.925536 -3.162448
v 23.353554 4.970837 -2.223908
v 28.983313 5.984317 -2.653338
v 28.489826 5.639014 -2.982859
v 28.122322 5.731909 1.515784
v 27.447062 5.441630 1.676215
v 26.633129 5.167223 1.031150
v 26.494535 5.178962 -0.670212
v 27.146666 5.350947 1.669762
v 29.036240 6.454296 0.444320
v 29.073336 6.169313 0.807151
v 29.482063 6.176590 -1.928504
v 29.550659 6.208097 -1.080827
v 29.403505 6.339298 -0.776744
v 28.635544 5.850016 1.290384
v 23.638975 6.073905 -5.222827
v 21.828140 5.076381 -2.302940
v 27.761084 4.857722 -2.149210
v 27.082695 5.016742 -1.946995
v 24.912746 5.228967 -0.594947
v 25.123564 5.140036 -1.932887
v 26.215635 5.197576 -1.024778
v 25.732090 5.115479 0.433974
v 24.261612 5.252515 0.235015
v 23.862785 5.178816 -1.482673
v 27.505711 6.684916 3.061281
v 28.399403 6.278897 2.025520
v 28.216526 7.197330 2.375727
v 22.434088 6.412923 2.744035
v 23.359568 5.950982 3.149089
v 22.870377 7.428144 2.492894
v 21.023026 5.337547 -1.373589
v 20.815332 5.541220 -2.157450
v 26.840504 7.169070 3.012290
v 21.765131 7.345717 1.734513
v 26.997622 7.850623 -4.986224
v 25.999285 8.157246 -5.257291
v 26.897326 8.786474 -4.186133
v 28.110256 8.268064 -1.170377
v 28.259064 8.158227 -2.172080
v 27.537540 8.826147 -1.151383
v 24.962532 9.153168 1.834285
v 25.939655 9.124841 1.766765
v 24.929045 9.631269 1.097841
v 21.892122 8.756714 -1.500105
v 22.618792 8.912851 -0.949290
v 22.592695 9.074395 -1.745755
v 23.108105 7.818072 -5.120427
v 22.534220 7.719513 -4.741223
v 23.543262 8.544554 -4.165380
v 24.424582 9.663359 -2.182677
v 23.844475 10.129988 -1.648630
v 24.795860 9.947690 -1.653144
v 23.940933 9.336587 -3.044741
v 23.544752 9.611253 -2.193310
v 23.146904 8.657664 -3.353653
v 23.261185 9.596025 -1.617348
v 22.719625 8.823891 -2.544069
v 22.285564 7.809783 -3.859431
v 22.075924 8.314173 -2.392884
v 24.587238 10.268829 -1.002794
v 23.693172 9.987157 -0.956054
v 23.188354 9.300857 -0.994499
v 24.695669 10.100548 0.006123
v 23.629744 9.620249 -0.055480
v 22.926716 9.074766 -0.015370
v 23.833984 9.318283 1.047750
v 25.854477 9.746099 -1.206426
v 25.925249 10.074506 -0.205574
v 26.007107 9.705659 0.935236
v 26.887163 9.520081 -1.026213
v 26.909323 9.348680 0.023130
v 26.827358 8.878270 1.032359
v 27.540667 8.584142 -0.109662
v 25.695421 9.376297 -2.166188
v 26.757177 9.340998 -2.154344
v 27.532734 8.764736 -2.247736
v 26.489014 9.281415 -3.258735
v 27.363007 8.785860 -3.271040
v 28.192482 7.810265 -3.138634
v 27.705153 7.709933 -4.061449
v 25.182648 9.182169 -3.301511
v 25.861290 8.835790 -4.131940
v 24.553244 8.560083 -4.362999
v 24.722383 8.215916 -5.354780
v 23.801756 8.105223 -5.245770
v 22.455784 6.677376 -4.726865
v 21.886616 6.884459 -4.207165
v 21.274330 6.029909 -3.385675
v 21.655277 7.264381 -2.912223
v 20.851463 6.883949 -1.781732
v 21.317341 8.154684 -1.551956
v 21.715584 8.468050 -0.588957
v 21.653698 7.971402 0.522672
v 22.323029 8.557391 0.195586
v 22.327177 8.031563 1.527656
v 22.962809 8.752039 1.224575
v 23.481655 7.787137 2.461034
v 24.228367 8.647790 2.184158
v 25.492710 8.549074 2.374546
v 26.105881 7.847721 2.712641
v 26.542379 8.285132 1.841640
v 27.417770 7.652191 2.134011
v 27.573690 8.072538 0.875515
v 28.457458 7.355028 0.898225
v 28.305914 7.823643 -0.416166
v 28.791737 7.669762 -1.657511
v 29.588413 6.949685 -1.917507
v 29.086390 7.411915 -2.621057
v 29.199066 6.345801 -2.776501
v 28.527781 6.760979 -3.540175
v 28.377659 6.029383 -3.934629
v 27.790787 6.764640 -4.733531
v 26.387222 7.348096 -6.062063
v 25.755209 6.043535 -6.559944
v 25.112560 7.255080 -6.388562
v 25.948071 5.229692 -6.531905
v 23.977333 6.702816 -5.792253
v 23.326801 6.431854 -5.279709
v 20.790867 7.775103 -0.501798
v 20.518820 6.488536 -0.829855
v 20.932819 7.171796 0.656386
v 21.068241 5.996106 0.042442
v 21.711193 6.310990 1.607510
v 24.802275 7.966391 2.935408
v 24.068037 7.014208 3.275928
v 25.605742 7.207536 3.458763
v 24.940464 5.634787 3.493413
v 26.333982 5.831245 3.371194
v 29.162731 6.897023 -0.630454
v 27.503584 6.188068 -5.714939
v 28.245499 5.533111 -4.602630
v 26.863159 5.372271 -6.228932
v 27.918419 5.073264 -2.944668
v 27.776129 5.060564 -5.045982
v 26.222961 4.751843 -6.183165
v 25.078373 4.601812 -5.949993
v 22.967220 5.267124 -0.496841
v 21.776194 5.121574 -1.075576
v 22.167124 5.524290 0.963842
v 23.607826 5.167459 1.418442
v 22.527407 5.858915 2.498894
v 24.335472 5.080176 2.215912
v 25.113190 4.837530 1.395236
v 25.801279 4.987573 2.655702
v 26.631252 5.180669 1.625229
v 27.183208 5.777018 2.616100
v 24.126602 4.957830 -2.339711
v 25.125959 4.516538 -5.019058
v 25.406502 4.931234 -3.342083
v 24.355417 4.860817 -3.349552
v 27.350626 4.715991 -2.842288
v 26.540611 4.947966 -2.672931
v 26.623816 4.581363 -4.932477
v 21.340565 5.643936 -3.268370
vt 0.802653 0.806114
vt 0.802438 0.806072
vt 0.802694 0.805980
vt 0.802319 0.805940
vt 0.802298 0.806136
vt 0.802565 0.806563
vt 0.802677 0.806631
vt 0.802577 0.806797
vt 0.802458 0.806615
vt 0.802458 0.806380
vt 0.802370 0.806622
vt 0.802432 0.806820
vt 0.802351 0.806801
vt 0.802347 0.806317
vt 0.802354 0.806462
vt 0.802282 0.806405
vt 0.802306 0.806552
vt 0.802198 0.806205
vt 0.802123 0.806322
vt 0.802253 0.806517
vt 0.802080 0.806502
vt 0.802544 0.806934
vt 0.802454 0.806236
vt 0.802464 0.805910
vt 0.799173 0.802392
vt 0.799427 0.802683
vt 0.799124 0.802666
vt 0.799323 0.802345
vt 0.798957 0.802374
vt 0.799184 0.802235
vt 0.799319 0.802217
vt 0.799198 0.802162
vt 0.799044 0.802165
vt 0.799394 0.802321
vt 0.799442 0.802191
vt 0.799288 0.802131
vt 0.799439 0.802069
vt 0.799266 0.801973
vt 0.799119 0.802041
vt 0.798921 0.802066
vt 0.799061 0.801934
vt 0.798852 0.802247
vt 0.799086 0.802772
vt 0.798916 0.802615
vt 0.799348 0.802832
vt 0.799542 0.802734
vt 0.799482 0.802536
vt 0.799573 0.802606
vt 0.799470 0.802347
vt 0.799653 0.802334
vt 0.799621 0.802174
vt 0.799558 0.802020
vt 0.802103 0.806092
vt 0.802014 0.806247
vt 0.802175 0.806618
vt 0.802211 0.805998
vt 0.802727 0.806673
vt 0.802666 0.806833
vt 0.799003 0.801897
vt 0.798869 0.802036
vt 0.799719 0.802553
vt 0.799659 0.802716
vt 0.799367 0.802851
vt 0.799033 0.802784
vt 0.799574 0.802803
vt 0.799719 0.802110
vt 0.799713 0.802240
vt 0.799224 0.801872
vt 0.799404 0.801922
vt 0.799495 0.801925
vt 0.799714 0.802428
vt 0.802024 0.806334
vt 0.802412 0.806880
vt 0.802727 0.805919
vt 0.798910 0.802399
vt 0.798885 0.802539
vt 0.798073 0.812200
vt 0.797998 0.812094
vt 0.798133 0.812084
vt 0.798198 0.812216
vt 0.797158 0.809361
vt 0.797389 0.809282
vt 0.797264 0.809517
vt 0.796945 0.809505
vt 0.798296 0.809846
vt 0.798517 0.809761
vt 0.798442 0.809941
vt 0.797580 0.809972
vt 0.797657 0.809854
vt 0.797681 0.810105
vt 0.796619 0.810556
vt 0.796840 0.810280
vt 0.796839 0.810459
vt 0.798211 0.809947
vt 0.797530 0.810163
vt 0.797964 0.811351
vt 0.797824 0.811299
vt 0.797978 0.811148
vt 0.798349 0.810883
vt 0.798301 0.811028
vt 0.798235 0.810821
vt 0.797968 0.810346
vt 0.798089 0.810366
vt 0.797950 0.810450
vt 0.797500 0.810600
vt 0.797604 0.810565
vt 0.797583 0.810660
vt 0.797366 0.811155
vt 0.797294 0.811070
vt 0.797541 0.811019
vt 0.797795 0.810785
vt 0.797780 0.810691
vt 0.797858 0.810734
vt 0.797692 0.810864
vt 0.797706 0.810744
vt 0.797531 0.810888
vt 0.797695 0.810673
vt 0.797537 0.810761
vt 0.797303 0.810926
vt 0.797418 0.810712
vt 0.797862 0.810659
vt 0.797779 0.810628
vt 0.797682 0.810596
vt 0.797900 0.810569
vt 0.797781 0.810530
vt 0.797683 0.810483
vt 0.797827 0.810414
vt 0.797984 0.810736
vt 0.798013 0.810622
vt 0.798065 0.810496
vt 0.798112 0.810750
vt 0.798174 0.810624
vt 0.798262 0.810454
vt 0.798328 0.810688
vt 0.797931 0.810851
vt 0.798055 0.810888
vt 0.798171 0.810962
vt 0.797974 0.811004
vt 0.798084 0.811071
vt 0.798254 0.811181
vt 0.798138 0.811290
vt 0.797819 0.810962
vt 0.797857 0.811106
vt 0.797670 0.811103
vt 0.797645 0.811283
vt 0.797492 0.811205
vt 0.797050 0.811136
vt 0.796778 0.810964
vt 0.797071 0.810969
vt 0.796863 0.810746
vt 0.797187 0.810743
vt 0.797147 0.810511
vt 0.797387 0.810565
vt 0.797500 0.810484
vt 0.797506 0.810334
vt 0.797599 0.810420
vt 0.797624 0.810250
vt 0.797719 0.810344
vt 0.797766 0.810142
vt 0.797882 0.810259
vt 0.798041 0.810233
vt 0.798124 0.810098
vt 0.798224 0.810244
vt 0.798353 0.810078
vt 0.798493 0.810294
vt 0.798476 0.810557
vt 0.798660 0.810080
vt 0.798671 0.810665
vt 0.798481 0.810817
vt 0.798440 0.811023
vt 0.798561 0.811156
vt 0.798419 0.811175
vt 0.798541 0.811343
vt 0.798362 0.811376
vt 0.798397 0.811544
vt 0.798176 0.811510
vt 0.797834 0.811453
vt 0.797759 0.811615
vt 0.797701 0.811469
vt 0.797786 0.811701
vt 0.797657 0.811696
vt 0.797557 0.811531
vt 0.797240 0.811472
vt 0.797085 0.811357
vt 0.797363 0.810412
vt 0.797143 0.810333
vt 0.797376 0.810244
vt 0.797150 0.810120
vt 0.797418 0.810032
vt 0.797943 0.810117
vt 0.797816 0.809976
vt 0.798025 0.809961
vt 0.797843 0.809680
vt 0.798092 0.809693
vt 0.798663 0.810972
vt 0.798779 0.809787
vt 0.798038 0.811521
vt 0.798115 0.811640
vt 0.797935 0.811595
vt 0.798035 0.811680
vt 0.797858 0.811678
vt 0.798124 0.811816
vt 0.797969 0.811717
vt 0.797818 0.811742
vt 0.797747 0.811800
vt 0.797080 0.809706
vt 0.796779 0.809569
vt 0.796925 0.809896
vt 0.796854 0.810033
vt 0.797294 0.809893
vt 0.797418 0.809680
vt 0.797529 0.809902
vt 0.797581 0.809617
vt 0.797509 0.809448
vt 0.797759 0.809434
vt 0.798004 0.809456
vt 0.797654 0.809214
vt 0.798257 0.809372
vt 0.798281 0.809634
vt 0.797898 0.812129
vt 0.797942 0.812208
vt 0.797853 0.812188
vt 0.797792 0.811873
vt 0.797923 0.811979
vt 0.797847 0.812043
vt 0.798082 0.811876
vt 0.798043 0.811949
vt 0.797902 0.811801
vt 0.797750 0.811853
vt 0.797702 0.811781
vt 0.796763 0.810702
vt 0.798601 0.811409
vt 0.798675 0.811260
vt 0.797055 0.811562
vt 0.797012 0.811453
vt 0.798827 0.810845
vt 0.798759 0.811060
vt 0.798754 0.811128
vt 0.798176 0.811735
vt 0.796704 0.809851
vt 0.798358 0.809441
vt 0.798421 0.809487
vt 0.798554 0.809592
vt 0.798665 0.809663
vt 0.798317 0.809259
vt 0.797830 0.812085
vt 0.798130 0.811961
vt 0.798161 0.811895
vt 0.798577 0.811538
vt 0.798827 0.809874
vt 0.797543 0.811636
vt 0.798135 0.811825
vt 0.796921 0.811183
vt 0.796830 0.809746
vt 0.796615 0.809883
vt 0.797554 0.809172
vt 0.798176 0.812090
vt 0.798300 0.812196
vt 0.797795 0.811938
vt 0.798136 0.812003
vn -0.0089 -0.9851 0.1720
vn 0.0273 -0.9703 -0.2405
vn 0.0826 -0.9939 0.0735
vn 0.0309 -0.9974 0.0652
vn 0.0308 -0.9974 0.0659
vn 0.0325 -0.9967 0.0750
vn 0.0324 -0.9967 0.0745
vn -0.6700 -0.7239 0.1646
vn -0.5238 -0.5956 -0.6090
vn -0.9115 -0.4015 0.0893
vn -0.2307 0.0230 -0.9727
vn -0.2801 0.8107 -0.5142
vn -0.1699 0.7510 -0.6381
vn -0.2580 0.8666 -0.4271
vn -0.8403 -0.2794 -0.4646
vn -0.8132 -0.3562 -0.4602
vn -0.6790 -0.7193 -0.1468
vn -0.0108 -0.4254 -0.9049
vn -0.2089 -0.9204 -0.3305
vn -0.1898 -0.9816 -0.0227
vn -0.1900 -0.9815 -0.0227
vn -0.1832 -0.9828 -0.0244
vn -0.1830 -0.9828 -0.0245
vn -0.1995 -0.9769 0.0764
vn -0.0741 -0.9910 0.1117
vn -0.0739 -0.9691 0.2352
vn -0.0904 -0.9247 -0.3697
vn 0.0001 -0.9705 -0.2412
vn -0.1174 -0.9890 0.0903
vn 0.0650 -0.9815 0.1803
vn 0.1204 -0.9873 0.1036
vn -0.1002 -0.9947 0.0239
vn -0.1761 -0.9842 -0.0202
vn -0.1379 -0.9793 -0.1479
vn -0.0012 -0.9729 -0.2313
vn 0.0101 -0.9769 -0.2137
vn 0.3096 -0.9508 0.0086
vn 0.2078 -0.9553 -0.2102
vn -0.0374 -0.9928 -0.1140
vn 0.5075 -0.8453 -0.1673
vn 0.9752 -0.0211 0.2203
vn 0.5547 -0.8270 -0.0911
vn 0.9418 -0.3163 -0.1134
vn 0.9873 0.0537 0.1495
vn 0.7484 0.6632 -0.0083
vn 0.7286 0.6834 -0.0460
vn 0.9097 0.0587 -0.4110
vn 0.7824 0.5373 -0.3149
vn 0.6022 -0.4299 -0.6728
vn 0.4181 0.3446 -0.8405
vn 0.5958 0.6842 -0.4207
vn 0.4166 -0.1532 -0.8961
vn -0.0844 -0.5563 -0.8267
vn -0.5786 -0.7757 -0.2519
vn -0.3712 -0.8779 -0.3026
vn -0.5829 -0.8056 0.1062
vn 0.0102 -0.4999 0.8661
vn 0.4040 0.4917 0.7714
vn 0.4256 -0.1022 0.8991
vn -0.1901 -0.9337 0.3033
vn 0.2070 -0.9380 0.2780
vn 0.4680 -0.6135 0.6361
vn -0.1194 -0.9897 0.0787
vn 0.5045 0.5665 0.6516
vn 0.9165 0.0692 0.3939
vn 0.6207 0.5565 0.5523
vn 0.6088 0.7809 0.1399
vn 0.6016 0.7874 0.1345
vn 0.6014 0.7877 0.1339
vn 0.6011 0.7878 0.1343
vn 0.5501 0.8342 -0.0392
vn -0.5202 -0.8387 0.1614
vn -0.5107 -0.8489 0.1362
vn -0.1719 -0.9102 -0.3768
vn -0.0821 0.8157 -0.5727
vn -0.9204 0.3577 0.1580
vn -0.9165 0.3832 0.1149
vn 0.2235 -0.3587 -0.9063
vn 0.2577 -0.9417 0.2163
vn -0.0820 0.7648 -0.6390
vn -0.1571 0.7320 0.6630
vn -0.7390 0.6707 0.0633
vn -0.9284 0.1502 -0.3399
vn -0.2195 0.6771 0.7024
vn 0.1796 0.7825 0.5962
vn 0.3519 0.9339 -0.0632
vn -0.0178 0.9949 -0.0990
vn 0.1085 0.7813 0.6146
vn 0.2679 -0.7841 -0.5598
vn -0.4439 0.8762 -0.1877
vn -0.1044 0.9016 -0.4198
vn -0.7246 -0.5687 0.3893
vn -0.5425 -0.6517 0.5301
vn 0.1708 -0.4692 -0.8664
vn 0.1617 -0.9281 0.3353
vn 0.1973 -0.9334 0.2997
vn -0.5507 0.3136 -0.7736
vn -0.3020 -0.8862 -0.3514
vn -0.2873 -0.9531 -0.0951
vn -0.7689 0.3912 0.5057
vn 0.1267 0.7303 0.6713
vn 0.3495 0.9234 0.1587
vn 0.2406 0.9499 -0.1994
vn 0.2678 0.9170 -0.2956
vn -0.0081 -0.9978 0.0655
vn -0.0049 -0.9978 0.0656
vn -0.0023 -0.9978 0.0660
vn -0.0477 -0.9963 -0.0719
vn -0.0873 -0.9954 -0.0403
vn 0.0143 -0.9991 0.0396
vn 0.7304 -0.1115 0.6739
vn -0.2366 0.3279 0.9146
vn -0.5488 -0.8329 -0.0710
vn 0.3421 0.5473 0.7638
vn -0.5361 0.4126 0.7365
vn 0.3775 0.6248 -0.6835
vn 0.6981 0.7155 0.0252
vn 0.0617 0.8384 0.5415
vn -0.3466 0.9170 0.1973
vn -0.4109 0.8058 -0.4264
vn -0.4172 0.8048 -0.4221
vn 0.1547 0.8211 -0.5494
vn -0.0519 0.9431 -0.3284
vn -0.5205 0.7734 -0.3619
vn -0.0352 0.7333 -0.6790
vn -0.6523 0.6948 -0.3028
vn -0.4665 0.7551 -0.4606
vn -0.5225 0.7379 -0.4273
vn -0.5998 0.7513 -0.2754
vn -0.5409 0.7741 -0.3289
vn -0.4697 0.8136 -0.3427
vn -0.6020 0.7592 -0.2475
vn -0.4998 0.7579 -0.4194
vn -0.6323 0.7003 -0.3312
vn -0.6335 0.7034 -0.3223
vn -0.6317 0.7009 -0.3311
vn -0.6331 0.7041 -0.3216
vn -0.4957 0.7332 -0.4655
vn 0.1714 0.9041 -0.3915
vn -0.6751 0.7377 0.0047
vn -0.6238 0.7320 0.2740
vn -0.2916 0.9474 0.1317
vn -0.2862 0.9396 0.1875
vn -0.7972 0.5763 0.1799
vn -0.7973 0.5764 0.1793
vn -0.7973 0.5763 0.1795
vn -0.7973 0.5765 0.1787
vn -0.4045 0.8566 0.3205
vn -0.3910 0.8123 0.4328
vn -0.5434 0.8191 0.1839
vn -0.5603 0.8273 0.0413
vn -0.6122 0.7904 0.0189
vn -0.5709 0.7588 0.3134
vn -0.2748 0.9132 0.3008
vn -0.2548 0.8057 0.5347
vn 0.3119 0.8878 -0.3384
vn 0.0483 0.9861 0.1593
vn -0.0037 0.9184 0.3956
vn 0.3180 0.8939 -0.3158
vn 0.2553 0.9132 -0.3177
vn 0.0722 0.9505 0.3021
vn 0.5447 0.8086 0.2224
vn 0.5709 0.8121 0.1206
vn 0.7348 0.6717 0.0942
vn 0.0301 0.8183 0.5740
vn 0.5873 0.6404 0.4949
vn 0.6387 0.6763 0.3671
vn 0.7560 0.5677 0.3260
vn 0.7753 0.6158 0.1407
vn 0.6915 0.7041 0.1615
vn 0.3273 0.8623 -0.3865
vn 0.2401 0.9541 -0.1791
vn 0.7252 0.6872 -0.0417
vn 0.0350 0.9306 -0.3644
vn 0.0339 0.9975 -0.0620
vn 0.5702 0.7986 -0.1925
vn 0.5882 0.8047 -0.0809
vn 0.4848 0.8591 -0.1641
vn 0.4760 0.8456 -0.2417
vn 0.6431 0.7644 -0.0456
vn 0.6295 0.7163 -0.3012
vn 0.7645 0.6345 -0.1137
vn 0.7138 0.5477 -0.4365
vn 0.7588 0.5247 -0.3858
vn 0.7268 0.4896 -0.4816
vn 0.1889 0.8038 -0.5641
vn -0.0706 0.9880 -0.1371
vn 0.0178 0.8853 -0.4646
vn 0.2160 0.9415 -0.2586
vn 0.0382 0.9271 -0.3729
vn -0.0549 0.9048 -0.4223
vn -0.1059 0.8840 -0.4553
vn 0.0024 0.8621 -0.5067
vn -0.1193 0.8303 -0.5445
vn 0.0139 0.8570 -0.5151
vn 0.0782 0.8580 -0.5077
vn -0.1348 0.9288 -0.3453
vn -0.1524 0.9254 -0.3471
vn -0.0911 0.9147 -0.3937
vn -0.4107 0.8061 -0.4261
vn -0.5547 0.0303 -0.8315
vn -0.6538 0.0888 -0.7514
vn -0.6658 0.0398 -0.7451
vn -0.8371 0.4676 -0.2840
vn -0.8346 0.4722 -0.2836
vn -0.8371 0.4676 -0.2839
vn -0.8523 0.1217 -0.5086
vn -0.8865 0.3767 -0.2689
vn -0.8354 0.4693 -0.2861
vn -0.8342 0.4739 -0.2822
vn -0.9446 0.1118 -0.3085
vn -0.8021 0.4130 -0.4314
vn -0.8098 0.3780 -0.4486
vn -0.6789 0.5256 -0.5127
vn -0.6280 0.6380 -0.4455
vn -0.3599 0.9072 0.2177
vn -0.5304 0.7847 0.3210
vn -0.5350 0.7853 0.3115
vn -0.5301 0.7848 0.3211
vn -0.6483 0.6506 0.3955
vn -0.3735 0.9089 0.1857
vn -0.6336 0.7700 0.0754
vn -0.5351 0.7852 0.3116
vn -0.6594 0.6986 0.2778
vn -0.5895 0.7774 0.2195
vn -0.4965 0.8364 0.2321
vn -0.4856 0.5919 0.6433
vn -0.3673 0.6816 0.6328
vn -0.4014 0.6327 0.6622
vn -0.4501 0.6025 0.6591
vn -0.3666 0.7401 0.5639
vn -0.2738 0.7837 0.5575
vn 0.0695 0.6982 0.7125
vn 0.4609 0.6786 0.5718
vn 0.3773 0.6841 0.6243
vn 0.4925 0.4214 0.7614
vn 0.6293 0.5044 0.5913
vn 0.3571 0.7506 0.5559
vn 0.4778 0.8137 0.3310
vn 0.6485 0.4868 0.5852
vn 0.7301 0.6162 0.2953
vn 0.7289 0.6172 0.2961
vn 0.7288 0.6174 0.2962
vn 0.2572 0.7653 0.5900
vn 0.4493 0.8777 0.1669
vn 0.5921 0.7394 0.3203
vn 0.6143 0.7630 0.2012
vn 0.7304 0.6159 0.2954
vn 0.7241 0.6598 0.2010
vn 0.7289 0.6560 0.1960
vn 0.7296 0.6549 0.1966
vn 0.6677 0.7442 0.0161
vn 0.6718 0.7407 0.0068
vn 0.6666 0.7452 0.0173
vn 0.6718 0.7407 0.0072
vn 0.6719 0.7406 0.0073
vn 0.5336 0.7833 -0.3188
vn 0.8506 0.1628 -0.5000
vn 0.7832 0.1648 -0.5996
vn 0.7842 0.1681 -0.5973
vn 0.7841 0.1699 -0.5969
vn 0.5890 0.4461 -0.6739
vn 0.7806 0.4249 -0.4584
vn 0.7833 0.1628 -0.6000
vn 0.8460 0.1079 -0.5221
vn 0.7764 0.4104 -0.4783
vn 0.7480 0.4283 -0.5071
vn 0.3784 0.7376 -0.5592
vn 0.2229 0.2515 -0.9418
vn -0.2071 -0.0827 -0.9748
vn 0.1197 0.7284 -0.6747
vn 0.0847 0.7456 -0.6610
vn -0.2469 0.0061 -0.9690
vn -0.4921 0.0750 -0.8673
vn -0.5792 0.4764 -0.6614
vn -0.1510 0.3425 -0.9273
vn -0.6565 0.2011 -0.7270
vn -0.2089 0.0791 -0.9747
vn -0.7244 0.6851 0.0767
vn -0.8757 0.3759 -0.3032
vn -0.9516 0.1063 -0.2884
vn -0.6004 0.7996 -0.0119
vn -0.5500 0.7735 0.3150
vn -0.9408 0.2557 -0.2226
vn -0.9679 0.1540 0.1988
vn -0.6401 0.6465 0.4152
vn -0.8874 -0.4452 0.1195
vn -0.8367 -0.4859 0.2527
vn -0.8744 -0.2999 0.3814
vn -0.8541 -0.3147 0.4142
vn -0.7884 -0.0343 0.6142
vn -0.8427 -0.0221 0.5380
vn -0.0669 0.6318 0.7722
vn -0.3476 0.5465 0.7619
vn -0.3480 0.5443 0.7632
vn -0.3478 0.5468 0.7616
vn -0.2985 0.5759 0.7611
vn -0.0477 0.7215 0.6908
vn 0.1889 0.5555 0.8097
vn -0.3483 0.5421 0.7648
vn -0.1604 0.4397 0.8837
vn 0.1831 0.6821 0.7080
vn 0.2823 0.6264 0.7266
vn -0.4800 0.2185 0.8496
vn -0.2085 0.0223 0.9778
vn -0.1271 0.0756 0.9890
vn 0.0896 -0.0160 0.9959
vn 0.3409 0.1210 0.9323
vn 0.0925 0.2252 0.9699
vn 0.7236 0.6602 0.2013
vn 0.7430 0.6530 0.1471
vn 0.8771 0.4410 0.1901
vn 0.7415 0.6368 0.2113
vn 0.6928 0.6738 0.2567
vn 0.8746 -0.0107 0.4847
vn 0.7138 0.3852 -0.5849
vn 0.8764 0.2569 -0.4074
vn 0.6924 0.5151 -0.5052
vn 0.4218 0.1377 -0.8962
vn 0.8654 0.3049 -0.3977
vn 0.7561 -0.2012 -0.6228
vn 0.4069 0.2365 -0.8823
vn 0.3084 0.0403 -0.9504
vn 0.7297 -0.6823 -0.0453
vn 0.7596 -0.1639 -0.6294
vn 0.5451 -0.6052 -0.5802
vn 0.3436 -0.4166 -0.8417
vn -0.0787 -0.6168 -0.7832
vn -0.5332 0.0131 -0.8459
vn 0.1166 -0.9742 0.1932
vn -0.3949 -0.8282 0.3978
vn 0.0345 -0.9837 0.1765
vn 0.0284 -0.9817 0.1884
vn -0.5580 -0.7872 0.2624
vn -0.6202 -0.6798 0.3915
vn -0.0408 -0.9978 0.0523
vn 0.0223 -0.9980 -0.0594
vn -0.2502 -0.9676 0.0333
vn -0.3113 -0.9107 0.2716
vn -0.6942 -0.6519 0.3050
vn -0.7717 -0.3615 0.5233
vn -0.5308 -0.4161 0.7383
vn -0.3555 -0.9072 0.2251
vn -0.2131 -0.9590 -0.1866
vn -0.2828 -0.8307 0.4795
vn -0.2722 -0.8289 0.4888
vn -0.2120 -0.9734 0.0869
vn -0.1155 -0.9770 0.1794
vn -0.1945 -0.8628 0.4667
vn 0.1595 -0.6951 0.7010
vn -0.0473 -0.9510 -0.3054
vn 0.2368 -0.9633 -0.1261
vn 0.2211 -0.9752 -0.0046
vn 0.4872 -0.8411 0.2348
vn 0.4303 -0.7263 0.5361
vn 0.5501 -0.5170 0.6558
vn 0.5370 -0.5174 0.6662
vn 0.0221 -0.9664 0.2560
vn 0.0634 -0.9712 0.2296
vn 0.0657 -0.9917 0.1102
vn 0.1107 -0.9797 0.1674
vn 0.0662 -0.9611 0.2682
vn -0.0074 -0.9978 0.0652
vn 0.5284 -0.8485 -0.0306
vn -0.2439 -0.9587 0.1466
vn 0.3770 -0.9235 -0.0716
vn 0.3531 -0.9052 -0.2366
vn -0.0622 -0.9886 0.1374
vn -0.0645 -0.9890 0.1334
vn -0.0622 -0.9885 0.1379
vn -0.0643 -0.9889 0.1336
vn -0.0780 -0.9845 0.1569
vn 0.0284 -0.9715 0.2355
vn 0.0515 -0.9872 -0.1511
vn 0.1101 -0.9893 -0.0962
vn -0.8787 -0.4425 -0.1790
vn -0.6703 -0.6397 -0.3761
vn -0.8506 -0.2810 -0.4445
vn -0.8581 -0.2784 -0.4314
vn 0.8898 -0.2876 -0.3543
vn -0.4567 -0.4494 -0.7677
vn 0.9121 0.3300 0.2433
vn 0.9007 0.3050 0.3092
vn 0.9880 -0.1349 -0.0749
vn 0.9871 -0.0685 -0.1444
vn -0.2841 -0.9585 0.0233
vn 0.2587 -0.8845 0.3882
vn 0.4101 -0.7243 0.5543
vn 0.3119 -0.9499 0.0225
vn -0.1204 -0.9904 0.0679
vn -0.0106 -0.9991 0.0418
vn -0.1401 -0.9505 0.2774
vn -0.5949 -0.6704 -0.4435
vn -0.3051 -0.9496 -0.0714
vn -0.4496 -0.1868 -0.8735
vn 0.7095 -0.6078 -0.3567
vn -0.2871 -0.5800 -0.7624
vn 0.8670 0.4311 0.2500
vn -0.8479 -0.3301 -0.4148
vn 0.8660 0.4182 0.2742
vn 0.7967 -0.3745 0.4744
vn 0.6999 -0.7113 -0.0653
vn -0.5034 -0.3310 -0.7981
vn -0.1394 -0.9898 0.0305
vn -0.4730 -0.1579 -0.8668
vn -0.2100 -0.9734 0.0916
vn 0.1826 -0.9107 0.3704
vn 0.0423 -0.9988 0.0227
vn 0.4910 -0.7461 0.4497
vn 0.0477 -0.9986 -0.0244
vn -0.3635 -0.9307 -0.0415
vn -0.1303 -0.9826 0.1324
vn -0.1316 -0.9900 0.0515
vn -0.0725 -0.9864 0.1476
vn -0.0456 -0.9890 0.1408
vn 0.5112 -0.8497 -0.1291
vn -0.2174 -0.9431 0.2517
usemtl Material.003
f 1/1/1 2/2/1 3/3/1
f 4/4/2 2/2/2 5/5/2
f 1/6/3 3/7/3 6/8/3
f 1/6/4 6/8/5 7/9/6
f 1/6/4 7/9/6 8/10/7
f 9/11/8 10/12/8 11/13/8
f 12/14/9 13/15/9 14/16/9
f 9/11/10 11/13/10 15/17/10
f 12/14/11 14/16/11 16/18/11
f 17/19/12 18/20/12 19/21/12
f 16/18/13 14/16/13 17/19/13
f 14/16/14 18/20/14 17/19/14
f 14/16/15 15/17/15 18/20/15
f 14/16/16 13/15/16 15/17/16
f 13/15/17 9/11/17 15/17/17
f 5/5/18 12/14/18 16/18/18
f 8/10/19 13/15/19 12/14/19
f 8/10/20 7/9/21 13/15/22
f 7/9/21 9/11/23 13/15/22
f 7/9/24 10/12/24 9/11/24
f 7/9/25 6/8/25 10/12/25
f 6/8/26 20/22/26 10/12/26
f 5/5/27 8/23/27 12/14/27
f 5/5/28 2/2/28 8/23/28
f 2/2/29 1/1/29 8/23/29
f 3/3/30 2/2/30 21/24/30
f 2/2/31 4/4/31 21/24/31
f 22/25/32 23/26/32 24/27/32
f 22/25/33 25/28/33 23/26/33
f 22/25/34 24/27/34 26/29/34
f 22/25/35 26/29/35 27/30/35
f 25/28/36 22/25/36 27/30/36
f 28/31/37 27/30/37 29/32/37
f 27/30/38 30/33/38 29/32/38
f 27/30/39 26/29/39 30/33/39
f 28/31/40 25/28/40 27/30/40
f 31/34/41 28/31/41 32/35/41
f 31/34/42 25/28/42 28/31/42
f 28/31/43 29/32/43 33/36/43
f 32/35/44 28/31/44 33/36/44
f 32/35/45 33/36/45 34/37/45
f 33/36/46 35/38/46 34/37/46
f 29/32/47 36/39/47 33/36/47
f 33/36/48 36/39/48 35/38/48
f 29/32/49 30/33/49 36/39/49
f 36/39/50 37/40/50 38/41/50
f 36/39/51 38/41/51 35/38/51
f 36/39/52 30/33/52 37/40/52
f 30/33/53 39/42/53 37/40/53
f 24/27/54 40/43/54 41/44/54
f 26/29/55 24/27/55 41/44/55
f 24/27/56 42/45/56 40/43/56
f 43/46/57 44/47/57 45/48/57
f 45/48/58 46/49/58 47/50/58
f 45/48/59 44/47/59 46/49/59
f 23/26/60 44/47/60 43/46/60
f 25/28/61 31/34/61 44/47/61
f 44/47/62 31/34/62 46/49/62
f 23/26/63 25/28/63 44/47/63
f 46/49/64 48/51/64 47/50/64
f 31/34/65 32/35/65 46/49/65
f 46/49/66 32/35/66 48/51/66
f 32/35/67 34/37/68 48/51/69
f 48/51/69 34/37/68 49/52/70
f 34/37/71 35/38/71 49/52/71
f 23/26/72 43/46/72 42/45/72
f 24/27/73 23/26/73 42/45/73
f 26/29/74 39/42/74 30/33/74
f 50/53/75 16/18/75 17/19/75 51/54/75
f 18/20/76 15/17/76 52/55/76
f 15/17/77 11/13/77 52/55/77
f 53/56/78 5/5/78 16/18/78
f 54/57/79 55/58/79 6/8/79 3/7/79
f 56/59/80 38/41/80 37/40/80 57/60/80
f 45/48/81 58/61/81 59/62/81
f 40/43/82 42/45/82 60/63/82 61/64/82
f 41/44/83 40/43/83 61/64/83
f 43/46/84 45/48/84 59/62/84 62/65/84
f 48/51/85 63/66/85 64/67/85
f 35/38/86 65/68/86 66/69/86
f 49/52/87 67/70/87 63/66/87
f 47/50/88 64/67/88 68/71/88
f 5/5/89 53/56/89 4/4/89
f 52/55/90 19/21/90 18/20/90
f 51/54/91 17/19/91 69/72/91
f 69/72/91 17/19/91 19/21/91
f 10/12/92 70/73/92 11/13/92
f 20/22/93 70/73/93 10/12/93
f 50/53/94 53/56/94 16/18/94
f 20/22/95 6/8/95 55/58/95
f 54/74/96 3/3/96 21/24/96
f 39/42/97 57/60/97 37/40/97
f 39/42/98 26/29/98 71/75/98
f 72/76/99 71/75/99 26/29/99 41/44/99
f 43/46/100 62/65/100 60/63/100 42/45/100
f 68/71/101 58/61/101 45/48/101 47/50/101
f 64/67/85 47/50/85 48/51/85
f 63/66/102 48/51/102 49/52/102
f 49/52/103 35/38/103 66/69/103 67/70/103
f 56/59/104 65/68/104 35/38/104 38/41/104
f 73/77/105 74/78/106 75/79/107
f 73/77/108 75/79/108 76/80/108
f 73/81/109 76/82/109 77/83/109
f 73/81/110 77/83/110 78/84/110
f 79/85/111 80/86/111 81/87/111
f 82/88/112 83/89/112 84/90/112
f 11/91/113 85/92/113 86/93/113
f 79/85/114 81/87/114 87/94/114
f 82/88/115 84/90/115 88/95/115
f 89/96/116 90/97/116 91/98/116
f 92/99/117 93/100/117 94/101/117
f 95/102/118 96/103/118 97/104/118
f 98/105/119 99/106/119 100/107/119
f 101/108/120 102/109/121 103/110/121
f 104/111/122 105/112/122 106/113/122
f 107/114/123 108/115/123 104/111/123
f 103/110/124 109/116/124 107/114/124
f 104/111/125 108/115/125 105/112/125
f 108/115/126 110/117/126 105/112/126
f 107/114/127 109/116/127 108/115/127
f 109/116/128 111/118/128 108/115/128
f 108/115/129 111/118/129 110/117/129
f 111/118/130 100/107/130 110/117/130
f 103/110/131 102/109/131 109/116/131
f 102/109/132 112/119/132 109/116/132
f 109/116/133 112/119/133 111/118/133
f 112/119/134 113/120/135 111/118/136
f 111/118/136 113/120/135 100/107/137
f 113/120/138 98/105/138 100/107/138
f 105/112/139 114/121/139 106/113/139
f 110/117/140 115/122/140 105/112/140
f 100/107/141 116/123/141 110/117/141
f 105/112/142 115/122/142 114/121/142
f 115/122/143 117/124/143 114/121/143
f 110/117/144 116/123/145 115/122/146
f 116/123/145 118/125/147 115/122/146
f 115/122/148 118/125/148 117/124/148
f 118/125/149 97/104/149 117/124/149
f 100/107/150 99/106/150 116/123/150
f 99/106/151 119/126/151 116/123/151
f 116/123/152 119/126/152 118/125/152
f 119/126/153 120/127/153 118/125/153
f 118/125/154 120/127/154 97/104/154
f 120/127/155 95/102/155 97/104/155
f 114/121/156 121/128/156 106/113/156
f 117/124/157 122/129/157 114/121/157
f 97/104/158 123/130/158 117/124/158
f 114/121/159 122/129/159 121/128/159
f 122/129/160 124/131/160 121/128/160
f 117/124/161 123/130/161 122/129/161
f 123/130/162 125/132/162 122/129/162
f 122/129/163 125/132/163 124/131/163
f 125/132/164 94/101/164 124/131/164
f 97/104/165 96/103/165 123/130/165
f 96/103/166 126/133/166 123/130/166
f 123/130/167 126/133/167 125/132/167
f 126/133/168 127/134/168 125/132/168
f 125/132/169 127/134/169 94/101/169
f 127/134/170 92/99/170 94/101/170
f 121/128/171 128/135/171 106/113/171
f 124/131/172 129/136/172 121/128/172
f 94/101/173 130/137/173 124/131/173
f 121/128/174 129/136/174 128/135/174
f 129/136/175 131/138/175 128/135/175
f 124/131/176 130/137/176 129/136/176
f 130/137/177 132/139/177 129/136/177
f 129/136/178 132/139/178 131/138/178
f 132/139/179 91/98/179 131/138/179
f 94/101/180 93/100/180 130/137/180
f 93/100/181 133/140/181 130/137/181
f 130/137/182 133/140/182 132/139/182
f 133/140/183 134/141/183 132/139/183
f 132/139/184 134/141/184 91/98/184
f 134/141/185 89/96/185 91/98/185
f 128/135/186 104/111/186 106/113/186
f 131/138/187 135/142/187 128/135/187
f 91/98/188 136/143/188 131/138/188
f 128/135/189 135/142/189 104/111/189
f 135/142/190 107/114/190 104/111/190
f 131/138/191 136/143/191 135/142/191
f 136/143/192 137/144/192 135/142/192
f 135/142/193 137/144/193 107/114/193
f 137/144/194 103/110/194 107/114/194
f 91/98/195 90/97/195 136/143/195
f 90/97/196 138/145/196 136/143/196
f 136/143/197 138/145/197 137/144/197
f 138/145/198 139/146/198 137/144/198
f 137/144/199 139/146/199 103/110/199
f 139/146/200 101/108/120 103/110/121
f 140/147/201 102/109/201 101/108/201
f 52/148/202 141/149/202 140/147/202
f 140/147/203 141/149/203 102/109/203
f 141/149/204 112/119/205 102/109/206
f 52/148/207 142/150/207 141/149/207
f 142/150/208 143/151/208 141/149/208
f 141/149/204 143/151/209 112/119/205
f 143/151/209 113/120/210 112/119/205
f 86/93/211 144/152/211 142/150/211
f 142/150/212 144/152/212 143/151/212
f 144/152/213 145/153/213 143/151/213
f 143/151/214 145/153/214 113/120/214
f 145/153/215 98/105/215 113/120/215
f 146/154/216 99/106/216 98/105/216
f 147/155/217 148/156/218 146/154/219
f 88/95/220 149/157/220 147/155/220
f 146/154/221 148/156/221 99/106/221
f 148/156/222 119/126/222 99/106/222
f 147/155/217 149/157/223 148/156/218
f 149/157/224 150/158/224 148/156/224
f 148/156/225 150/158/225 119/126/225
f 150/158/226 120/127/226 119/126/226
f 88/95/227 84/90/227 149/157/227
f 84/90/228 151/159/228 149/157/228
f 149/157/229 151/159/229 150/158/229
f 151/159/230 152/160/230 150/158/230
f 150/158/231 152/160/231 120/127/231
f 152/160/232 95/102/232 120/127/232
f 153/161/233 96/103/233 95/102/233
f 154/162/234 155/163/234 153/161/234
f 87/94/235 156/164/235 154/162/235
f 153/161/236 155/163/236 96/103/236
f 155/163/237 126/133/237 96/103/237
f 154/162/238 156/164/238 155/163/238
f 156/164/239 157/165/239 155/163/239
f 155/163/240 157/165/240 126/133/240
f 157/166/241 127/134/242 126/133/243
f 87/94/244 81/87/244 156/164/244
f 81/87/245 158/167/245 156/164/245
f 156/164/246 158/167/246 157/165/246
f 158/168/247 159/169/247 157/166/247
f 157/166/241 159/169/248 127/134/242
f 159/169/249 92/99/250 127/134/251
f 160/170/252 93/100/253 92/99/254
f 161/171/255 162/172/256 160/170/252
f 160/170/252 162/172/256 93/100/253
f 162/172/257 133/140/257 93/100/257
f 161/171/258 163/173/258 162/172/258
f 163/173/259 164/174/260 162/172/261
f 162/172/262 164/174/262 133/140/262
f 164/174/263 134/141/263 133/140/263
f 163/173/259 165/175/264 164/174/260
f 165/175/265 166/176/265 164/174/265
f 164/174/266 166/176/266 134/141/266
f 166/176/267 89/96/267 134/141/267
f 167/177/268 90/97/268 89/96/268
f 168/178/269 169/179/269 167/177/269
f 170/180/270 50/181/270 168/178/270
f 167/177/271 169/179/271 90/97/271
f 169/179/272 138/145/272 90/97/272
f 168/178/273 50/181/273 169/179/273
f 50/181/274 171/182/274 169/179/274
f 169/179/275 171/182/275 138/145/275
f 171/183/276 139/146/276 138/145/276
f 171/183/277 172/184/277 139/146/277
f 172/184/278 101/108/278 139/146/278
f 145/153/279 146/154/279 98/105/279
f 144/152/280 173/185/280 145/153/280
f 86/93/281 174/186/281 144/152/281
f 145/153/282 173/185/282 146/154/282
f 173/185/283 147/155/283 146/154/283
f 144/152/284 174/186/284 173/185/284
f 174/186/285 175/187/285 173/185/285
f 173/185/286 175/187/286 147/155/286
f 175/187/220 88/95/220 147/155/220
f 86/93/287 85/92/287 174/186/287
f 85/92/288 176/188/288 174/186/288
f 174/186/289 176/188/289 175/187/289
f 176/188/290 177/189/290 175/187/290
f 175/187/291 177/189/291 88/95/291
f 177/189/292 82/88/292 88/95/292
f 152/160/293 153/161/293 95/102/293
f 151/159/294 178/190/295 152/160/296
f 84/90/297 179/191/297 151/159/297
f 152/160/298 178/190/298 153/161/298
f 178/190/299 154/162/299 153/161/299
f 151/159/294 179/191/300 178/190/295
f 179/191/301 180/192/301 178/190/301
f 178/190/302 180/192/302 154/162/302
f 180/192/303 87/94/303 154/162/303
f 84/90/304 83/89/304 179/191/304
f 83/89/305 181/193/305 179/191/305
f 179/191/306 181/193/306 180/192/306
f 181/193/307 182/194/307 180/192/307
f 180/192/308 182/194/308 87/94/308
f 182/194/309 79/85/309 87/94/309
f 159/169/249 160/170/310 92/99/250
f 158/168/311 183/195/311 159/169/311
f 81/87/312 64/196/312 158/167/312
f 159/169/313 183/195/313 160/170/313
f 183/195/314 161/171/314 160/170/314
f 81/87/315 80/86/315 64/196/315
f 166/197/316 167/177/316 89/96/316
f 165/198/317 184/199/317 166/197/317
f 166/197/318 184/199/318 167/177/318
f 184/199/319 168/178/319 167/177/319
f 165/198/320 185/200/320 184/199/320
f 185/200/321 186/201/321 184/199/321
f 184/199/322 186/201/322 168/178/322
f 186/201/323 170/180/323 168/178/323
f 187/202/324 188/203/324 185/200/324
f 185/200/325 188/203/325 186/201/325
f 188/203/326 189/204/326 186/201/326
f 186/201/327 189/204/327 170/180/327
f 189/204/328 190/205/328 170/180/328
f 172/184/329 140/147/329 101/108/329
f 78/84/330 191/206/330 55/207/330
f 192/208/331 176/188/331 85/209/331
f 55/207/332 191/206/332 192/208/332
f 191/206/333 193/210/333 192/208/333
f 192/208/334 193/210/334 176/188/334
f 193/210/335 177/189/335 176/188/335
f 78/84/336 77/83/336 191/206/336
f 77/83/337 194/211/337 191/206/337
f 191/206/338 194/211/338 193/210/338
f 194/211/339 195/212/339 193/210/339
f 193/210/340 195/212/340 177/189/340
f 195/212/341 82/88/341 177/189/341
f 195/212/342 83/89/342 82/88/342
f 194/211/343 196/213/343 195/212/343
f 77/83/344 197/214/344 194/211/344
f 195/212/345 196/213/345 83/89/345
f 196/213/346 181/193/346 83/89/346
f 194/211/347 197/214/347 196/213/347
f 197/214/348 198/215/348 196/213/348
f 196/213/349 198/215/349 181/193/349
f 198/216/350 182/194/350 181/193/350
f 77/83/351 76/82/351 197/214/351
f 76/82/352 199/217/352 197/214/352
f 197/214/353 199/217/353 198/215/353
f 199/218/354 200/219/354 198/216/354
f 198/216/355 200/219/355 182/194/355
f 200/219/356 79/85/356 182/194/356
f 200/219/357 80/86/357 79/85/357
f 201/220/358 78/221/358 55/222/358
f 202/223/359 203/224/359 204/225/359
f 204/225/360 203/224/360 201/220/360
f 203/224/361 74/78/361 201/220/361
f 201/220/362 74/78/362 78/221/362
f 74/78/106 73/77/105 78/221/363
f 205/226/364 188/203/364 187/202/364
f 206/227/365 207/228/365 205/226/365
f 205/226/366 207/228/366 188/203/366
f 207/228/367 189/204/367 188/203/367
f 75/79/368 74/78/369 206/227/370
f 74/78/369 203/224/371 206/227/370
f 206/227/372 203/224/372 207/228/372
f 203/224/373 202/223/373 207/228/373
f 207/228/374 202/223/374 189/204/374
f 202/223/375 190/205/375 189/204/375
f 190/205/376 4/229/376 53/230/376
f 86/93/377 208/231/377 11/91/377
f 208/231/378 142/150/378 52/148/378
f 142/150/379 208/231/379 86/93/379
f 56/232/380 163/173/380 161/171/380 65/233/380
f 171/183/381 51/234/381 69/235/381 172/184/381
f 183/195/382 63/236/382 67/237/382
f 161/171/383 183/195/383 67/237/383 66/238/383
f 65/233/384 161/171/384 66/238/384
f 165/198/385 57/239/385 185/200/385
f 192/208/386 85/209/386 70/240/386
f 200/219/387 62/241/387 59/242/387
f 80/86/388 58/243/388 68/244/388
f 60/245/389 62/241/389 199/218/389
f 204/225/390 201/220/390 54/246/390
f 55/222/391 54/246/391 201/220/391
f 72/247/392 205/226/392 71/248/392
f 208/231/393 52/148/393 11/91/393
f 4/229/394 190/205/394 202/223/394
f 190/205/395 53/230/395 170/180/395
f 57/249/396 165/175/396 163/173/396 56/232/396
f 170/180/397 53/230/397 50/181/397
f 64/196/398 63/250/398 158/167/398
f 50/181/399 51/251/399 171/182/399
f 63/236/400 183/195/400 158/168/400
f 80/86/401 68/244/401 64/196/401
f 187/202/402 185/200/402 57/239/402 39/252/402
f 140/147/403 172/184/403 69/235/403 19/253/403
f 192/208/404 70/240/404 20/254/404
f 52/148/405 140/147/405 19/253/405
f 11/255/406 70/240/406 85/209/406
f 55/207/407 192/208/407 20/254/407
f 199/218/387 62/241/387 200/219/387
f 76/82/408 60/256/408 199/217/408
f 58/243/409 80/86/409 200/219/409 59/242/409
f 76/80/410 75/79/410 61/257/410 60/258/410
f 21/259/411 4/229/411 202/223/411
f 54/246/412 21/259/412 202/223/412 204/225/412
f 61/257/413 75/79/413 41/260/413
f 206/227/414 72/247/414 41/260/414
f 206/227/415 41/260/415 75/79/415
f 205/226/416 187/202/416 39/252/416 71/248/416
f 72/247/417 206/227/417 205/226/417
