mtllib LOW_POLY_set.mtl
o lp_tree2_Icosphere_005
v -19.541643 5.545444 -37.267937
v -19.688116 5.591523 -37.517693
v -19.667814 5.239592 -37.539856
v -19.516817 5.186570 -37.300560
v -19.657818 5.995583 -37.228588
v -19.775749 6.027540 -37.497765
v -19.703800 6.044169 -37.797688
v -19.613682 5.625214 -37.797115
v -19.589220 5.270384 -37.813904
v -19.511915 3.555552 -37.950668
v -19.584547 3.525345 -37.629532
v -19.395979 3.565743 -37.350498
v -19.213362 5.573369 -37.121143
v -19.240410 5.151194 -37.217381
v -19.077330 3.647672 -37.260338
v -19.611357 2.097110 -37.657085
v -19.359081 2.101726 -37.279701
v -18.926525 2.060145 -37.156296
v -19.749748 -0.011225 -36.884129
v -19.137218 -0.011225 -36.713699
v -20.090853 -0.011225 -37.421883
v -18.597641 -0.011225 -37.064354
v -18.557541 1.991915 -37.400936
v -18.806042 3.726807 -37.443039
v -18.445526 1.937310 -37.833454
v -18.728407 3.759112 -37.764137
v -18.419811 -0.011225 -37.683434
v -18.998463 5.136782 -37.376072
v -18.918285 5.157354 -37.656830
v -18.697664 1.932921 -38.210762
v -18.914272 3.718878 -38.043213
v -19.079987 5.198411 -37.897335
v -18.856356 5.578941 -37.659393
v -18.923220 5.483173 -37.315414
v -19.107878 5.558077 -37.928787
v -18.937447 6.062039 -37.919132
v -18.680088 6.289501 -37.642952
v -18.631723 5.982584 -37.413620
v -18.732635 5.883453 -37.156364
v -19.215652 6.012229 -38.061432
v -19.386553 5.612632 -37.973335
v -19.353371 5.251946 -37.971329
v -19.494999 6.048889 -38.024860
v -19.237013 3.636205 -38.133316
v -19.130266 1.974444 -38.334187
v -19.499126 2.042849 -38.089485
v -19.371597 -0.011225 -38.391567
v -19.910595 -0.011225 -38.040329
v -18.759764 -0.011225 -38.220592
v -19.340843 6.427345 -38.255207
v -19.632215 6.524323 -38.125084
v -19.788641 6.461651 -37.810253
v -19.904678 6.530047 -37.494530
v -19.870438 6.885289 -37.646530
v -19.796072 6.746955 -37.808285
v -19.719837 6.867083 -37.979061
v -19.627577 7.143216 -37.710331
v -20.027693 7.061168 -37.522449
v -19.888630 7.268462 -37.527428
v -20.076103 6.837456 -37.380260
v -20.679422 7.418937 -37.102657
v -20.636301 7.572443 -37.194080
v -20.525539 7.730535 -37.185638
v -19.995310 6.750958 -37.171921
v -19.811939 6.438588 -37.200932
v -20.615988 7.372247 -36.950188
v -19.847902 6.831188 -37.017159
v -19.588572 6.580204 -37.004826
v -20.495789 7.441722 -36.829479
v -19.413145 6.082850 -37.032597
v -19.726961 7.055089 -37.012337
v -19.515289 6.927269 -37.011135
v -19.108711 6.336987 -36.902504
v -19.242657 6.712359 -36.937717
v -19.321716 6.914084 -36.989986
v -19.678301 7.251675 -37.137096
v -19.468782 7.127204 -37.130013
v -19.252151 7.058709 -37.074474
v -19.329651 7.143857 -37.261555
v -19.533915 7.200189 -37.360710
v -19.750238 7.333799 -37.352879
v -19.230745 7.120423 -37.356701
v -20.404840 7.799379 -37.067696
v -20.341736 7.750303 -36.910625
v -20.686581 8.184382 -36.834332
v -20.796600 8.134647 -36.928513
v -20.638695 8.157345 -36.700195
v -20.694092 8.059713 -36.604786
v -20.383776 7.602046 -36.817619
v -20.808159 7.950780 -36.592499
v -20.917459 7.900069 -36.685829
v -20.887892 8.472205 -36.397953
v -21.007042 8.375134 -36.375370
v -21.117426 8.329230 -36.459068
v -20.967785 7.925693 -36.821560
v -21.159966 8.353713 -36.590782
v -20.912981 8.026382 -36.919201
v -21.097467 8.443655 -36.688076
v -21.378536 8.893790 -36.622601
v -21.326216 8.857819 -36.502007
v -21.320618 8.983729 -36.720146
v -21.200727 9.071823 -36.744507
v -20.978659 8.539522 -36.706055
v -21.081612 9.099338 -36.671173
v -20.868765 8.583784 -36.623344
v -21.027788 9.059015 -36.550495
v -20.826509 8.559237 -36.495705
v -21.083698 8.969727 -36.452251
v -21.206472 8.886235 -36.426861
v -18.943748 6.962511 -36.979935
v -19.263060 7.117587 -37.803402
v -19.029512 7.060150 -37.492222
v -18.739407 7.013512 -37.202339
v -19.053656 6.999106 -37.940845
v -18.875198 6.950848 -37.681278
v -18.597527 6.857828 -37.429485
v -17.967125 7.242313 -36.699474
v -17.837442 7.160122 -36.842194
v -18.071741 7.180802 -36.526844
v -17.633394 7.444394 -36.274418
v -17.563271 7.494017 -36.421329
v -17.398663 7.460706 -36.539955
v -17.717972 6.961918 -36.826950
v -18.422865 6.546695 -37.352791
v -17.330942 7.250333 -36.571167
v -17.257114 7.109576 -36.447655
v -17.681292 6.784111 -36.711441
v -18.378456 6.297060 -37.189167
v -17.373940 7.073650 -36.286434
v -17.760534 6.727882 -36.543701
v -18.473236 6.218153 -36.976212
v -18.639406 6.321464 -36.813244
v -18.927448 5.998599 -36.962914
v -17.893888 6.804014 -36.417534
v -18.793514 6.597892 -36.798714
v -18.019753 6.999784 -36.414791
v -17.600613 7.302290 -36.178185
v -17.498207 7.150952 -36.176491
v -17.278257 7.373151 -36.003315
v -17.384232 7.516543 -36.010479
v -17.423113 7.639663 -36.107750
v -17.359018 7.686722 -36.245861
v -17.167839 7.697529 -35.801716
v -17.212135 7.804468 -35.907536
v -17.151756 7.840776 -36.043079
v -17.212477 7.677957 -36.339146
v -17.012533 7.824441 -36.129707
v -17.082645 7.937620 -35.715984
v -17.023212 7.968091 -35.851257
v -16.893724 7.940450 -35.935944
v -16.989017 7.678361 -36.316376
v -16.855175 7.774040 -36.098896
v -16.765501 7.864709 -35.906521
v -16.667074 8.203799 -35.203442
v -16.558764 8.164047 -35.289425
v -16.457100 8.068773 -35.268612
v -16.155924 8.472160 -34.738228
v -16.068222 8.398713 -34.723663
v -16.247238 8.496155 -34.671059
v -16.721365 8.180350 -35.076134
v -16.283817 8.472160 -34.563763
v -16.243534 8.398786 -34.484535
v -16.681835 8.092649 -34.974606
v -16.157337 8.323375 -34.471478
v -16.579716 7.998477 -34.955276
v -17.042580 7.841663 -35.605446
v -16.932503 7.746511 -35.574078
v -16.468874 7.953947 -35.042328
v -16.799583 7.728487 -35.650097
v -16.071426 8.292511 -34.542179
v -17.023203 7.572846 -35.776562
v -16.832947 7.624718 -35.791916
v -17.155518 7.262798 -36.111137
v -16.915245 7.424810 -35.946568
v -16.803139 7.525987 -35.888214
v -17.017776 7.223209 -36.253685
v -16.722141 7.368683 -36.101822
v -17.013639 7.260466 -36.443859
v -16.911097 7.248558 -36.339413
v -16.701269 7.324817 -36.294144
v -16.670151 7.523808 -35.976765
v -16.479042 7.416320 -36.122692
v -16.495113 7.533480 -36.032772
v -16.489107 7.375744 -36.285404
v -16.748962 7.371027 -36.423988
v -16.523064 7.425583 -36.423740
v -17.091389 7.387293 -36.505131
v -16.795650 7.499930 -36.469296
v -16.557180 7.553387 -36.463120
v -15.831291 7.571772 -36.562569
v -15.810340 7.466935 -36.531498
v -15.790073 7.422212 -36.417458
v -16.572306 7.675767 -36.390793
v -16.802923 7.633228 -36.411358
v -15.843521 7.670893 -36.503227
v -15.258657 7.802236 -36.639359
v -15.248239 7.732166 -36.673553
v -15.232075 7.660469 -36.651104
v -15.252752 7.829365 -36.558403
v -15.840193 7.701609 -36.370529
v -16.559219 7.711326 -36.223919
v -15.826081 7.656637 -36.245419
v -16.530119 7.656945 -36.062511
v -15.238037 7.801659 -36.480324
v -15.217804 7.730663 -36.459011
v -15.803695 7.554318 -36.216892
v -15.208058 7.658522 -36.496769
v -15.786380 7.454542 -36.286133
v -16.718300 7.677543 -35.979820
v -16.761055 7.693453 -36.242676
v -16.716476 7.777534 -35.790615
v -17.103073 7.553264 -36.468002
v -16.415073 7.980236 -35.170277
v -16.029844 8.323338 -34.645386
v -15.213610 7.631912 -36.577858
v -18.796558 6.622361 -37.810463
v -19.054180 6.504727 -38.177410
v -18.877808 6.806582 -37.881386
v -19.003534 6.802835 -38.109936
v -19.200562 6.713996 -38.459522
v -19.102829 6.903110 -38.344757
v -19.159742 7.107473 -38.188747
v -19.368076 7.217911 -38.082569
v -19.346224 7.431899 -38.861191
v -19.320747 7.258222 -38.984261
v -19.511150 7.534060 -38.784023
v -19.428204 7.905509 -39.701923
v -19.555983 7.977046 -39.634087
v -19.397814 7.784399 -39.795074
v -19.706945 7.515481 -38.790833
v -19.601965 7.190929 -38.084789
v -19.709625 7.975301 -39.627457
v -19.808746 7.887289 -39.696644
v -19.817297 7.369650 -38.884399
v -19.702089 6.995273 -38.214428
v -19.806309 7.765765 -39.796741
v -19.790634 7.194687 -39.006451
v -19.639420 6.775657 -38.375195
v -19.625114 7.096708 -39.083946
v -19.425673 6.670660 -38.472767
v -19.686359 7.682118 -39.873699
v -19.849247 8.275963 -40.020607
v -19.856359 8.167306 -40.135002
v -19.741905 8.062028 -40.244061
v -19.490965 7.627585 -39.812298
v -19.429743 7.115733 -39.079388
v -19.494202 7.815797 -40.080738
v -19.582016 8.032494 -40.341228
v -19.635168 8.373279 -40.605980
v -19.821959 8.398270 -40.441994
v -19.971691 8.658141 -40.325409
v -19.909193 8.868883 -40.504086
v -19.832651 8.648291 -40.536034
v -19.719769 8.710970 -40.651680
v -19.522596 8.643093 -40.816917
v -19.387648 8.503557 -40.766003
v -19.455765 8.280020 -40.583061
v -19.610434 8.860663 -40.792538
v -19.473866 8.081509 -40.406807
v -19.361942 8.279973 -40.484936
v -19.415186 8.029511 -40.277496
v -19.287292 8.532515 -40.672249
v -19.365726 8.413370 -40.389137
v -19.399456 8.109762 -40.162117
v -19.496971 8.742640 -40.336575
v -19.463699 8.250284 -40.065147
v -19.287235 8.673273 -40.586700
v -19.376066 8.908489 -40.557316
v -19.700518 9.248281 -40.558346
v -19.645119 9.221899 -40.417568
v -19.605930 9.026844 -40.531715
v -19.512451 9.044463 -40.620125
v -19.659630 8.756659 -40.148369
v -19.599274 8.328607 -39.977859
v -19.739420 9.228111 -40.274029
v -19.197758 9.737402 -41.019531
v -19.087521 9.688656 -40.971550
v -19.023609 9.506948 -40.994045
v -18.881592 10.531384 -41.435310
v -18.803717 10.454482 -41.484715
v -18.976555 10.610856 -41.491192
v -19.033514 10.622356 -41.611237
v -19.287624 9.639645 -41.104462
v -19.616611 9.036379 -40.715603
v -19.009485 10.541018 -41.730354
v -19.297518 9.422935 -41.179092
v -19.227360 9.239884 -41.210182
v -18.930880 10.517159 -41.778744
v -18.837685 10.461364 -41.719143
v -19.116074 9.197029 -41.162621
v -18.781410 10.424175 -41.600426
v -19.030493 9.305772 -41.071896
v -19.745758 8.975493 -40.606781
v -19.836435 9.242231 -40.621647
v -19.984411 9.198307 -40.553337
v -20.224228 10.281907 -41.067215
v -20.108976 10.368142 -40.995079
v -20.356874 10.213924 -41.010845
v -20.068830 10.448191 -40.855373
v -20.140699 10.509967 -40.724552
v -20.273243 10.518314 -40.667023
v -19.892357 9.222613 -40.211483
v -19.817331 8.757647 -40.094795
v -20.023920 9.217019 -40.275963
v -19.940641 8.730001 -40.161572
v -20.391401 10.458421 -40.730980
v -20.068659 9.187175 -40.414856
v -20.432095 10.340204 -40.870060
v -19.747513 8.335285 -39.954281
vt 0.731800 0.438228
vt 0.731941 0.438203
vt 0.731945 0.438378
vt 0.731807 0.438401
vt 0.731807 0.438015
vt 0.731935 0.437994
vt 0.732074 0.437991
vt 0.732086 0.438193
vt 0.732087 0.438373
vt 0.732074 0.439224
vt 0.731910 0.439225
vt 0.731746 0.439191
vt 0.731634 0.438230
vt 0.731672 0.438422
vt 0.731589 0.439139
vt 0.731861 0.439960
vt 0.731624 0.439932
vt 0.731394 0.439905
vt 0.731445 0.441018
vt 0.731146 0.440929
vt 0.731756 0.441054
vt 0.730861 0.440797
vt 0.731179 0.439867
vt 0.731442 0.439084
vt 0.732710 0.439092
vt 0.732936 0.439888
vt 0.732738 0.439963
vt 0.732557 0.439114
vt 0.733285 0.440799
vt 0.732982 0.440861
vt 0.731546 0.438442
vt 0.732505 0.438451
vt 0.732631 0.438456
vt 0.732529 0.440002
vt 0.732400 0.439152
vt 0.732368 0.438429
vt 0.732533 0.438265
vt 0.732659 0.438337
vt 0.732365 0.438251
vt 0.732469 0.438040
vt 0.732635 0.437992
vt 0.732690 0.438124
vt 0.732765 0.438201
vt 0.732335 0.438029
vt 0.732229 0.438210
vt 0.732229 0.438394
vt 0.732213 0.437994
vt 0.732238 0.439195
vt 0.732313 0.440010
vt 0.732092 0.439990
vt 0.732382 0.440980
vt 0.732072 0.441031
vt 0.732683 0.440919
vt 0.732322 0.437838
vt 0.732209 0.437785
vt 0.732067 0.437810
vt 0.731931 0.437777
vt 0.731994 0.437630
vt 0.732068 0.437690
vt 0.732148 0.437643
vt 0.732067 0.437492
vt 0.734572 0.438672
vt 0.734447 0.438692
vt 0.734411 0.438534
vt 0.734571 0.438549
vt 0.734704 0.438639
vt 0.734723 0.438464
vt 0.734679 0.439062
vt 0.734600 0.439082
vt 0.734516 0.439106
vt 0.734827 0.438625
vt 0.734865 0.438457
vt 0.734754 0.439060
vt 0.734943 0.438645
vt 0.735006 0.438488
vt 0.734835 0.439081
vt 0.731813 0.437821
vt 0.731670 0.437995
vt 0.731690 0.437783
vt 0.735051 0.438713
vt 0.735107 0.438612
vt 0.731519 0.437917
vt 0.731542 0.437761
vt 0.735170 0.438466
vt 0.735177 0.438561
vt 0.735142 0.438780
vt 0.735182 0.438684
vt 0.735239 0.438604
vt 0.734156 0.438655
vt 0.734077 0.438592
vt 0.734170 0.438573
vt 0.734266 0.438622
vt 0.734336 0.438720
vt 0.734224 0.438739
vt 0.734171 0.438514
vt 0.734431 0.439124
vt 0.734346 0.439130
vt 0.734445 0.439387
vt 0.734519 0.439372
vt 0.734374 0.439393
vt 0.734873 0.439407
vt 0.734919 0.439122
vt 0.734995 0.439165
vt 0.734942 0.439425
vt 0.734802 0.439384
vt 0.734733 0.439364
vt 0.734846 0.439635
vt 0.734784 0.439613
vt 0.734723 0.439602
vt 0.734665 0.439353
vt 0.734658 0.439603
vt 0.734594 0.439358
vt 0.734585 0.439616
vt 0.734629 0.439888
vt 0.734692 0.439863
vt 0.734564 0.439915
vt 0.734493 0.439930
vt 0.734503 0.439630
vt 0.734425 0.439915
vt 0.734425 0.439633
vt 0.734368 0.439881
vt 0.734359 0.439624
vt 0.734831 0.439880
vt 0.734907 0.439658
vt 0.734888 0.439919
vt 0.734761 0.439859
vt 0.732981 0.438250
vt 0.732784 0.438147
vt 0.732813 0.438100
vt 0.732897 0.438127
vt 0.731025 0.438112
vt 0.730881 0.438016
vt 0.731107 0.437923
vt 0.731177 0.438014
vt 0.732740 0.438241
vt 0.732877 0.438344
vt 0.729990 0.438069
vt 0.729865 0.438109
vt 0.729825 0.437932
vt 0.729948 0.437925
vt 0.734037 0.438211
vt 0.734117 0.438283
vt 0.734011 0.438414
vt 0.733907 0.438321
vt 0.733812 0.438787
vt 0.733725 0.438755
vt 0.733135 0.438706
vt 0.733043 0.438739
vt 0.733160 0.438975
vt 0.733083 0.438980
vt 0.733762 0.439016
vt 0.733678 0.439021
vt 0.733621 0.438734
vt 0.733738 0.438287
vt 0.733591 0.438981
vt 0.733501 0.438990
vt 0.733525 0.438716
vt 0.733594 0.438252
vt 0.733412 0.438968
vt 0.733437 0.438702
vt 0.733472 0.438232
vt 0.733498 0.438023
vt 0.733616 0.438046
vt 0.733772 0.438084
vt 0.733344 0.438228
vt 0.733374 0.438020
vt 0.733346 0.438697
vt 0.733190 0.438246
vt 0.733238 0.438701
vt 0.733210 0.438056
vt 0.731405 0.438156
vt 0.731479 0.438066
vt 0.731505 0.438311
vt 0.733043 0.438086
vt 0.733242 0.438970
vt 0.733327 0.438966
vt 0.733311 0.439128
vt 0.733230 0.439132
vt 0.733156 0.439127
vt 0.733086 0.439122
vt 0.733239 0.439301
vt 0.733160 0.439283
vt 0.733090 0.439265
vt 0.733757 0.439144
vt 0.733693 0.439151
vt 0.733743 0.439267
vt 0.733676 0.439265
vt 0.733161 0.439420
vt 0.733089 0.439388
vt 0.733743 0.439384
vt 0.733667 0.439371
vt 0.733635 0.439197
vt 0.733614 0.439286
vt 0.733593 0.439388
vt 0.733735 0.439816
vt 0.733651 0.439798
vt 0.733567 0.439815
vt 0.733644 0.440270
vt 0.733573 0.440288
vt 0.733716 0.440277
vt 0.733187 0.439861
vt 0.733111 0.439829
vt 0.733218 0.440313
vt 0.733149 0.440290
vt 0.733287 0.440340
vt 0.733260 0.439896
vt 0.733361 0.440354
vt 0.733337 0.439912
vt 0.733239 0.439452
vt 0.733325 0.439468
vt 0.733420 0.439894
vt 0.733420 0.439460
vt 0.733435 0.440345
vt 0.733337 0.439309
vt 0.733432 0.439358
vt 0.733394 0.439112
vt 0.733423 0.439237
vt 0.733454 0.439296
vt 0.733467 0.439117
vt 0.733496 0.439218
vt 0.733531 0.439099
vt 0.733505 0.439134
vt 0.733519 0.439183
vt 0.733499 0.439272
vt 0.735476 0.438969
vt 0.735404 0.438958
vt 0.735399 0.438871
vt 0.735492 0.438853
vt 0.735558 0.438979
vt 0.735580 0.438877
vt 0.733538 0.439168
vt 0.735635 0.438980
vt 0.735645 0.438869
vt 0.733582 0.439093
vt 0.733564 0.439173
vt 0.735704 0.438981
vt 0.735709 0.438865
vt 0.735646 0.439333
vt 0.735596 0.439326
vt 0.735541 0.439316
vt 0.735775 0.438986
vt 0.735775 0.438876
vt 0.735702 0.439338
vt 0.735641 0.439633
vt 0.735602 0.439627
vt 0.735566 0.439618
vt 0.735682 0.439638
vt 0.735768 0.439343
vt 0.735856 0.438999
vt 0.735379 0.439301
vt 0.735318 0.439321
vt 0.735257 0.438971
vt 0.735339 0.438952
vt 0.735405 0.439611
vt 0.735367 0.439625
vt 0.735443 0.439605
vt 0.735428 0.439296
vt 0.735484 0.439605
vt 0.735482 0.439304
vt 0.735327 0.438854
vt 0.735209 0.438890
vt 0.733517 0.439424
vt 0.733533 0.439313
vt 0.733579 0.439237
vt 0.735854 0.438905
vt 0.733583 0.439195
vt 0.733627 0.439126
vt 0.733493 0.439855
vt 0.733505 0.440318
vt 0.735526 0.439611
vt 0.733932 0.438108
vt 0.732432 0.437839
vt 0.732603 0.437854
vt 0.734019 0.438112
vt 0.732499 0.437745
vt 0.732591 0.437776
vt 0.730055 0.437960
vt 0.730115 0.438063
vt 0.730285 0.438171
vt 0.730161 0.438186
vt 0.730239 0.437991
vt 0.730030 0.438207
vt 0.729911 0.438248
vt 0.730136 0.438580
vt 0.730244 0.438568
vt 0.730036 0.438608
vt 0.730228 0.439051
vt 0.730153 0.439061
vt 0.730300 0.439044
vt 0.730745 0.438579
vt 0.730824 0.438189
vt 0.730937 0.438217
vt 0.730840 0.438588
vt 0.730764 0.439052
vt 0.730690 0.439047
vt 0.730616 0.439045
vt 0.730646 0.438577
vt 0.730690 0.438189
vt 0.730541 0.439043
vt 0.730544 0.438575
vt 0.730543 0.438184
vt 0.730444 0.438571
vt 0.730406 0.438178
vt 0.730465 0.439043
vt 0.730624 0.439287
vt 0.730555 0.439276
vt 0.730480 0.439264
vt 0.730375 0.439004
vt 0.730348 0.438566
vt 0.730381 0.439146
vt 0.730415 0.439274
vt 0.730404 0.439400
vt 0.730479 0.439402
vt 0.730559 0.439495
vt 0.730479 0.439591
vt 0.730458 0.439496
vt 0.730398 0.439510
vt 0.736305 0.438851
vt 0.736218 0.438819
vt 0.736187 0.438684
vt 0.736284 0.438684
vt 0.736406 0.438897
vt 0.736411 0.438791
vt 0.730372 0.439360
vt 0.730381 0.439296
vt 0.730349 0.439347
vt 0.730354 0.439258
vt 0.736153 0.438831
vt 0.736121 0.438680
vt 0.730313 0.439367
vt 0.730304 0.439250
vt 0.730263 0.439474
vt 0.730236 0.439269
vt 0.736089 0.438876
vt 0.736052 0.438719
vt 0.736008 0.438966
vt 0.735932 0.438842
vt 0.730299 0.439726
vt 0.730235 0.439682
vt 0.730306 0.439610
vt 0.736650 0.438907
vt 0.736566 0.438940
vt 0.736558 0.438890
vt 0.736651 0.438798
vt 0.730165 0.439465
vt 0.730165 0.439281
vt 0.730154 0.439669
vt 0.736572 0.439357
vt 0.736631 0.439340
vt 0.736144 0.439331
vt 0.736088 0.439405
vt 0.736192 0.439873
vt 0.736245 0.439848
vt 0.736598 0.439853
vt 0.736651 0.439814
vt 0.736540 0.439882
vt 0.736501 0.439327
vt 0.736494 0.438934
vt 0.736469 0.439882
vt 0.736411 0.439260
vt 0.736330 0.439211
vt 0.736425 0.439895
vt 0.736367 0.439876
vt 0.736271 0.439206
vt 0.736305 0.439851
vt 0.736209 0.439252
vt 0.736509 0.438855
vt 0.730373 0.439760
vt 0.730381 0.439616
vt 0.730467 0.439759
vt 0.730321 0.440413
vt 0.730235 0.440410
vt 0.730406 0.440402
vt 0.730147 0.440406
vt 0.730062 0.440414
vt 0.730752 0.440476
vt 0.730676 0.440487
vt 0.730704 0.439728
vt 0.730788 0.439723
vt 0.730702 0.439497
vt 0.730779 0.439488
vt 0.730632 0.439746
vt 0.730637 0.439504
vt 0.730597 0.440484
vt 0.730554 0.439752
vt 0.730502 0.440453
vt 0.730689 0.439287
vt 0.730759 0.439280
vt 0.730380 0.438014
vt 0.730535 0.438008
vt 0.730706 0.438062
vt 0.732952 0.438078
vn -0.8589 -0.0933 0.5035
vn -0.8806 -0.2302 0.4141
vn -0.9476 -0.1912 -0.2560
vn -0.9614 -0.0459 -0.2712
vn -0.9681 -0.0289 -0.2489
vn -0.8350 -0.0739 0.5452
vn -0.3530 -0.1513 0.9233
vn -0.2754 -0.0536 0.9598
vn -0.8303 0.0054 0.5573
vn -0.2752 0.0381 0.9606
vn -0.2554 0.2251 0.9403
vn -0.8137 0.2464 0.5264
vn 0.5503 0.1240 0.8257
vn 0.5510 0.1027 0.8282
vn 0.9610 0.1418 0.2376
vn 0.9640 0.0290 0.2642
vn 0.5504 0.0357 0.8342
vn 0.9585 0.1143 0.2614
vn 0.8179 0.1495 -0.5557
vn 0.8177 0.1497 -0.5558
vn 0.8217 0.1498 -0.5498
vn 0.8219 0.1499 -0.5496
vn 0.9635 -0.1866 0.1920
vn 0.7743 -0.0612 -0.6299
vn 0.8260 -0.1926 -0.5298
vn 0.8677 -0.4901 0.0833
vn 0.6180 -0.1944 -0.7618
vn 0.2046 -0.0281 -0.9784
vn -0.0199 -0.2071 -0.9781
vn -0.6676 -0.1987 -0.7175
vn -0.5857 -0.0305 -0.8099
vn 0.2630 0.1266 -0.9565
vn 0.2583 0.1195 -0.9586
vn 0.2581 0.1189 -0.9588
vn -0.5573 0.0420 -0.8293
vn 0.2634 0.1269 -0.9563
vn -0.5527 0.0681 -0.8306
vn -0.9709 0.0181 -0.2388
vn -0.5419 0.0893 -0.8357
vn -0.9445 0.1836 -0.2724
vn 0.2711 -0.0045 -0.9625
vn 0.8392 -0.0274 -0.5432
vn -0.3405 -0.3837 -0.8584
vn -0.7838 -0.2658 -0.5612
vn -0.9379 -0.2206 -0.2678
vn -0.9344 -0.0437 -0.3537
vn -0.8967 -0.0317 -0.4415
vn -0.8086 0.4403 -0.3903
vn -0.4528 0.2450 -0.8573
vn -0.7558 -0.2077 -0.6210
vn -0.6265 -0.2948 -0.7215
vn -0.3184 0.2264 -0.9205
vn -0.8510 -0.5131 0.1123
vn -0.6978 -0.7162 0.0146
vn -0.4879 -0.4063 0.7725
vn -0.3722 -0.6145 0.6956
vn -0.9168 -0.2836 0.2810
vn -0.5516 -0.2404 0.7987
vn -0.0209 0.0097 0.9997
vn -0.2460 -0.0790 0.9660
vn -0.1826 0.1025 0.9778
vn 0.2587 0.4598 0.8495
vn -0.0554 0.5213 0.8516
vn 0.1692 0.9395 0.2979
vn 0.5136 0.8471 0.1366
vn 0.3337 0.8746 -0.3518
vn 0.2529 0.9526 -0.1692
vn 0.6045 0.7943 0.0605
vn 0.2653 0.7655 -0.5862
vn 0.3073 0.6483 -0.6966
vn 0.7656 0.6306 -0.1270
vn 0.7371 0.2020 0.6448
vn 0.5254 0.3512 0.7750
vn 0.2912 -0.2430 0.9253
vn 0.1617 -0.1404 0.9768
vn -0.3769 -0.5744 0.7266
vn 0.3741 -0.2734 0.8862
vn -0.3586 -0.5571 0.7490
vn -0.8457 -0.4942 0.2011
vn -0.8106 -0.5571 0.1802
vn -0.8268 -0.0629 -0.5590
vn -0.7986 -0.1295 -0.5878
vn -0.9033 -0.3432 0.2574
vn -0.6550 -0.3087 -0.6897
vn -0.0950 -0.1046 -0.9900
vn 0.5246 0.1487 -0.8383
vn 0.9030 0.3420 -0.2600
vn 0.6468 0.3326 0.6863
vn 0.0916 0.1393 0.9860
vn -0.5334 -0.1336 0.8353
vn 0.8122 0.0894 0.5765
vn 0.8481 0.4927 -0.1950
vn 0.3581 0.5634 -0.7445
vn -0.3670 0.3103 -0.8769
vn -0.3736 0.3143 -0.8727
vn -0.3742 0.3145 -0.8724
vn -0.3667 0.3098 -0.8772
vn 0.2749 0.9347 0.2252
vn 0.1435 0.9895 -0.0167
vn 0.1621 0.9740 0.1585
vn 0.4288 0.8918 -0.1444
vn 0.4401 0.8658 -0.2381
vn 0.0627 0.8597 -0.5069
vn -0.2877 0.9566 0.0474
vn -0.5257 0.8506 0.0084
vn -0.1625 0.8218 -0.5461
vn 0.5439 0.1656 -0.8226
vn 0.4270 0.2298 -0.8745
vn 0.6619 -0.2893 -0.6916
vn 0.6768 -0.3082 -0.6685
vn 0.5844 -0.8020 0.1237
vn 0.5857 -0.8103 -0.0199
vn 0.7604 -0.6454 0.0721
vn 0.8099 -0.2422 -0.5343
vn 0.3230 -0.6253 0.7104
vn 0.1566 -0.7583 0.6328
vn -0.3341 -0.2315 0.9137
vn -0.1893 -0.2199 0.9570
vn 0.3897 -0.5177 0.7616
vn -0.1796 -0.2480 0.9520
vn -0.2478 0.1831 0.9514
vn -0.4557 -0.2634 0.8503
vn 0.5043 -0.2367 0.8304
vn -0.5124 0.2515 0.8211
vn -0.6161 0.3062 0.7258
vn -0.3480 -0.2316 0.9085
vn -0.4137 -0.2663 0.8706
vn -0.7368 0.2571 0.6253
vn -0.6578 0.7512 -0.0549
vn -0.7667 0.2463 0.5929
vn -0.5916 0.8059 -0.0236
vn -0.2771 0.7795 -0.5617
vn -0.2003 0.8752 -0.4403
vn -0.6360 0.7661 -0.0925
vn -0.1485 0.8765 -0.4579
vn 0.1862 0.7850 -0.5909
vn 0.4264 0.6813 -0.5949
vn 0.0195 0.9389 -0.3436
vn 0.5837 0.6364 -0.5043
vn 0.5545 0.4799 -0.6799
vn -0.0596 0.8916 -0.4488
vn -0.5030 0.8633 -0.0406
vn -0.5329 0.8455 -0.0354
vn -0.7968 0.2315 0.5581
vn -0.5172 -0.4334 0.7380
vn -0.8831 0.1358 0.4491
vn -0.6184 -0.5404 0.5706
vn 0.0026 -0.9324 0.3615
vn 0.0808 -0.8563 0.5101
vn 0.2403 -0.7963 0.5551
vn -0.5595 -0.4734 0.6803
vn -0.0020 -0.7331 0.6801
vn 0.2276 -0.6527 0.7226
vn -0.4723 -0.3437 0.8117
vn -0.8707 0.1406 0.4714
vn 0.0932 -0.6995 0.7085
vn 0.1967 -0.8485 0.4913
vn 0.3457 -0.8890 0.3004
vn 0.1974 -0.7095 0.6765
vn 0.4119 -0.8959 -0.1665
vn 0.3231 -0.9229 0.2097
vn 0.3547 -0.6836 0.6379
vn 0.2233 -0.6220 0.7505
vn 0.2117 -0.9493 0.2322
vn 0.3803 -0.8108 -0.4450
vn 0.2233 -0.8941 -0.3882
vn 0.2078 -0.2884 -0.9347
vn 0.0805 -0.2893 -0.9538
vn -0.1226 -0.3141 -0.9414
vn -0.0013 -0.9365 -0.3506
vn -0.0414 0.4507 -0.8917
vn -0.1298 0.4948 -0.8593
vn -0.2889 0.4333 -0.8537
vn -0.0945 -0.3070 -0.9470
vn -0.2724 0.9317 -0.2405
vn -0.0285 0.9763 -0.2144
vn 0.0798 0.9455 0.3158
vn -0.0918 0.9334 0.3469
vn 0.2772 0.3279 0.9031
vn 0.4450 -0.4217 0.7901
vn 0.2250 -0.5536 0.8018
vn 0.2386 0.2991 0.9239
vn 0.3541 0.2139 0.9104
vn 0.0328 0.9869 0.1580
vn 0.7628 -0.5837 0.2782
vn 0.7462 -0.0154 0.6656
vn 0.8476 0.3647 -0.3855
vn 0.3460 0.8967 -0.2761
vn -0.1109 0.9603 -0.2560
vn -0.0369 0.8727 -0.4869
vn -0.0015 0.7180 -0.6961
vn 0.0489 0.3052 -0.9510
vn 0.1592 0.2088 -0.9649
vn 0.3539 -0.3874 -0.8513
vn 0.9048 -0.0472 -0.4232
vn 0.5231 -0.8518 0.0277
vn 0.6118 -0.7889 0.0575
vn 0.8427 -0.1452 -0.5184
vn 0.1086 -0.9660 0.2344
vn 0.3929 -0.8904 0.2300
vn 0.2163 -0.8932 -0.3942
vn 0.7786 0.1183 -0.6162
vn 0.7997 -0.0858 -0.5943
vn 0.7636 0.3863 -0.5174
vn 0.8352 0.0491 -0.5477
vn 0.7335 0.5441 -0.4075
vn 0.8773 -0.0909 -0.4713
vn 0.8915 0.4042 -0.2046
vn 0.5300 0.8394 0.1201
vn 0.9433 0.3040 -0.1333
vn 0.5653 0.7912 0.2333
vn 0.5997 0.7215 0.3462
vn 0.9841 0.1773 0.0126
vn -0.1042 0.8981 0.4272
vn -0.0514 0.8799 0.4724
vn -0.8048 0.5118 0.3005
vn -0.8860 0.3404 0.3147
vn -0.9969 -0.0670 -0.0411
vn -0.9669 -0.2511 0.0449
vn -0.5625 -0.7488 -0.3505
vn -0.6389 -0.6353 -0.4339
vn -0.9958 -0.0505 0.0759
vn -0.7486 -0.4980 -0.4376
vn 0.0253 -0.8101 -0.5858
vn -0.2485 -0.7544 -0.6076
vn -0.5590 -0.5400 -0.6293
vn -0.8451 -0.3774 -0.3787
vn -0.8185 -0.2216 -0.5300
vn -0.6373 -0.2745 -0.7200
vn -0.2242 -0.5565 -0.8000
vn -0.6706 -0.2353 -0.7035
vn -0.2079 -0.6273 -0.7505
vn 0.6202 -0.5643 -0.5450
vn 0.6091 -0.5926 -0.5271
vn 0.2187 -0.7631 -0.6082
vn 0.9922 -0.1114 0.0566
vn 0.8899 -0.3836 -0.2468
vn 0.8871 0.2446 0.3914
vn 0.9598 0.2295 0.1618
vn 0.9683 -0.1285 0.2142
vn 0.7768 0.2170 0.5912
vn 0.9371 0.2963 -0.1846
vn 0.4017 0.6379 0.6571
vn 0.6897 0.3692 0.6229
vn 0.7614 0.3067 0.5711
vn -0.0237 0.4908 0.8710
vn 0.6591 0.1497 0.7370
vn 0.7041 0.1963 0.6824
vn -0.1230 0.4984 0.8582
vn -0.8119 0.4211 0.4044
vn -0.6979 0.5918 0.4033
vn -0.9597 0.1197 -0.2541
vn -0.6510 -0.1853 -0.7361
vn 0.2423 -0.4380 -0.8657
vn 0.8216 -0.3767 -0.4278
vn 0.9700 -0.1145 0.2142
vn 0.9431 -0.1587 0.2921
vn 0.7684 -0.4962 -0.4041
vn -0.0347 -0.5107 -0.8591
vn -0.6537 -0.1553 -0.7406
vn -0.8743 0.1821 -0.4500
vn -0.7661 0.1188 -0.6316
vn -0.2794 0.9579 0.0659
vn 0.4321 0.0877 -0.8975
vn -0.3928 -0.2057 -0.8963
vn -0.6177 -0.0060 -0.7864
vn 0.5126 -0.1560 -0.8443
vn -0.2032 -0.4559 -0.8665
vn 0.9165 0.1948 -0.3495
vn 0.8215 0.4104 0.3958
vn 0.3580 0.4045 0.8416
vn 0.3317 0.2874 0.8985
vn -0.4675 0.1343 0.8737
vn -0.4850 0.1652 0.8588
vn -0.9541 -0.1137 0.2770
vn -0.9216 -0.1444 0.3602
vn -0.8516 -0.4206 -0.3128
vn -0.8010 -0.2487 -0.5446
vn -0.5481 0.1627 0.8204
vn -0.9663 -0.1344 0.2197
vn -0.6995 0.4257 0.5740
vn 0.0833 0.6885 0.7204
vn 0.2362 0.3654 0.9004
vn 0.6321 0.5861 0.5069
vn 0.8302 -0.4254 -0.3604
vn 0.8566 -0.2474 -0.4528
vn 0.1431 -0.7975 -0.5861
vn 0.2786 -0.6441 -0.7124
vn -0.5137 -0.6380 -0.5737
vn 0.4065 -0.3336 -0.8506
vn -0.9721 -0.1740 -0.1572
vn -0.9354 0.3519 0.0350
vn 0.0308 0.9756 0.2172
vn -0.0714 0.3646 0.9284
usemtl Material.001
f 1/1/1 2/2/1 3/3/1 4/4/1
f 2/2/2 1/1/2 5/5/2 6/6/2
f 7/7/3 8/8/3 2/2/3 6/6/3
f 2/2/4 8/8/4 9/9/4 3/3/4
f 10/10/5 11/11/5 3/3/5 9/9/5
f 11/11/6 12/12/6 4/4/6 3/3/6
f 13/13/7 1/1/7 4/4/7 14/14/7
f 12/12/8 15/15/8 14/14/8 4/4/8
f 16/16/9 17/17/9 12/12/9 11/11/9
f 12/12/10 17/17/10 18/18/10 15/15/10
f 17/17/11 19/19/11 20/20/11 18/18/11
f 21/21/12 19/19/12 17/17/12 16/16/12
f 20/20/13 22/22/13 23/23/13 18/18/13
f 15/15/14 18/18/14 23/23/14 24/24/14
f 24/25/15 23/26/15 25/27/15 26/28/15
f 23/26/16 22/29/16 27/30/16 25/27/16
f 15/15/17 24/24/17 28/31/17 14/14/17
f 24/25/18 26/28/18 29/32/18 28/33/18
f 26/28/19 25/27/20 30/34/20 31/35/21
f 26/28/19 31/35/21 32/36/22 29/32/22
f 33/37/23 34/38/23 28/33/23 29/32/23
f 35/39/24 33/37/24 29/32/24 32/36/24
f 36/40/25 37/41/25 38/42/25 33/37/25
f 38/42/26 39/43/26 34/38/26 33/37/26
f 36/40/27 33/37/27 35/39/27 40/44/27
f 41/45/28 35/39/28 32/36/28 42/46/28
f 40/44/29 35/39/29 41/45/29 43/47/29
f 43/47/30 41/45/30 8/8/30 7/7/30
f 8/8/31 41/45/31 42/46/31 9/9/31
f 31/35/32 44/48/33 42/46/34 32/36/34
f 44/48/35 10/10/35 9/9/35 42/46/35
f 31/35/32 30/34/36 45/49/36 44/48/33
f 44/48/37 45/49/37 46/50/37 10/10/37
f 10/10/38 46/50/38 16/16/38 11/11/38
f 47/51/39 48/52/39 46/50/39 45/49/39
f 46/50/40 48/52/40 21/21/40 16/16/40
f 30/34/41 49/53/41 47/51/41 45/49/41
f 27/30/42 49/53/42 30/34/42 25/27/42
f 50/54/43 40/44/43 43/47/43 51/55/43
f 51/55/44 43/47/44 7/7/44 52/56/44
f 52/56/45 7/7/45 6/6/45 53/57/45
f 53/57/46 54/58/46 55/59/46 52/56/46
f 51/55/47 52/56/47 55/59/47 56/60/47
f 57/61/48 56/60/48 55/59/48 54/58/48
f 58/62/49 59/63/49 57/64/49 54/65/49
f 60/66/50 58/62/50 54/65/50 53/67/50
f 61/68/51 62/69/51 58/62/51 60/66/51
f 62/69/52 63/70/52 59/63/52 58/62/52
f 64/71/53 60/66/53 53/67/53 65/72/53
f 66/73/54 61/68/54 60/66/54 64/71/54
f 67/74/55 64/71/55 65/72/55 68/75/55
f 69/76/56 66/73/56 64/71/56 67/74/56
f 6/6/57 5/5/57 65/77/57 53/57/57
f 5/5/58 70/78/58 68/79/58 65/77/58
f 71/80/59 67/74/59 68/75/59 72/81/59
f 73/82/60 74/83/60 68/79/60 70/78/60
f 68/75/61 74/84/61 75/85/61 72/81/61
f 76/86/62 71/80/62 72/81/62 77/87/62
f 77/87/63 72/81/63 75/85/63 78/88/63
f 77/89/64 78/90/64 79/91/64 80/92/64
f 81/93/65 76/94/65 77/89/65 80/92/65
f 59/63/66 81/93/66 80/92/66 57/64/66
f 57/64/67 80/92/67 79/91/67 82/95/67
f 83/96/68 84/97/68 76/94/68 81/93/68
f 63/70/69 83/96/69 81/93/69 59/63/69
f 85/98/70 83/96/70 63/70/70 86/99/70
f 87/100/71 84/97/71 83/96/71 85/98/71
f 88/101/72 89/102/72 84/103/72 87/104/72
f 84/103/73 89/102/73 71/80/73 76/86/73
f 69/76/74 89/102/74 88/101/74 90/105/74
f 89/102/75 69/76/75 67/74/75 71/80/75
f 91/106/76 66/73/76 69/76/76 90/105/76
f 90/105/77 88/101/77 92/107/77 93/108/77
f 91/106/78 90/105/78 93/108/78 94/109/78
f 95/110/79 91/106/79 94/109/79 96/111/79
f 95/110/80 61/68/80 66/73/80 91/106/80
f 97/112/81 95/110/81 96/111/81 98/113/81
f 97/112/82 62/69/82 61/68/82 95/110/82
f 99/114/83 96/111/83 94/109/83 100/115/83
f 101/116/84 98/113/84 96/111/84 99/114/84
f 102/117/85 103/118/85 98/113/85 101/116/85
f 104/119/86 105/120/86 103/118/86 102/117/86
f 106/121/87 107/122/87 105/120/87 104/119/87
f 108/123/88 92/107/88 107/124/88 106/125/88
f 93/108/89 92/107/89 108/123/89 109/126/89
f 100/115/90 94/109/90 93/108/90 109/126/90
f 88/101/91 87/104/91 107/124/91 92/107/91
f 87/100/92 85/98/92 105/120/92 107/122/92
f 85/98/93 86/99/93 103/118/93 105/120/93
f 86/99/94 97/112/95 98/113/96 103/118/96
f 86/99/94 63/70/97 62/69/97 97/112/95
f 110/127/98 82/128/98 79/129/98 78/130/98
f 111/131/99 57/132/99 82/133/99 112/134/99
f 112/135/100 82/128/100 110/127/100 113/136/100
f 114/137/101 111/138/101 112/139/101 115/140/101
f 115/141/102 112/142/102 113/143/102 116/144/102
f 117/145/103 118/146/103 116/144/103 113/143/103
f 119/147/104 117/148/104 113/136/104 110/127/104
f 120/149/105 121/150/105 117/148/105 119/147/105
f 121/151/106 122/152/106 118/146/106 117/145/106
f 118/146/107 123/153/107 124/154/107 116/144/107
f 122/152/108 125/155/108 123/153/108 118/146/108
f 125/155/109 126/156/109 127/157/109 123/153/109
f 123/153/110 127/157/110 128/158/110 124/154/110
f 126/156/111 129/159/111 130/160/111 127/157/111
f 127/157/112 130/160/112 131/161/112 128/158/112
f 128/158/113 131/161/113 39/162/113 38/163/113
f 37/164/114 124/154/114 128/158/114 38/163/114
f 131/161/115 132/165/115 133/166/115 39/162/115
f 130/160/116 134/167/116 132/165/116 131/161/116
f 135/168/117 132/165/117 134/167/117 136/169/117
f 132/165/118 135/168/118 73/170/118 133/166/118
f 39/171/119 133/172/119 13/13/119 34/173/119
f 133/172/120 73/82/120 70/78/120 13/13/120
f 135/168/121 110/127/121 74/174/121 73/170/121
f 1/1/122 13/13/122 70/78/122 5/5/122
f 34/173/123 13/13/123 14/14/123 28/31/123
f 135/168/124 136/169/124 119/147/124 110/127/124
f 137/175/125 120/149/125 119/147/125 136/169/125
f 138/176/126 137/175/126 136/169/126 134/167/126
f 137/175/127 138/176/127 139/177/127 140/178/127
f 120/149/128 137/175/128 140/178/128 141/179/128
f 121/150/129 120/149/129 141/179/129 142/180/129
f 141/179/130 140/178/130 143/181/130 144/182/130
f 142/180/131 141/179/131 144/182/131 145/183/131
f 122/152/132 121/151/132 142/184/132 146/185/132
f 146/185/133 142/184/133 145/186/133 147/187/133
f 148/188/134 149/189/134 145/183/134 144/182/134
f 149/190/135 150/191/135 147/187/135 145/186/135
f 151/192/136 146/185/136 147/187/136 152/193/136
f 150/191/137 153/194/137 152/193/137 147/187/137
f 154/195/138 155/196/138 150/191/138 149/190/138
f 155/196/139 156/197/139 153/194/139 150/191/139
f 157/198/140 158/199/140 156/197/140 155/196/140
f 159/200/141 157/198/141 155/196/141 154/195/141
f 160/201/142 154/202/142 149/189/142 148/188/142
f 161/203/143 159/204/143 154/202/143 160/201/143
f 162/205/144 161/203/144 160/201/144 163/206/144
f 164/207/145 162/205/145 163/206/145 165/208/145
f 163/206/146 160/201/146 148/188/146 166/209/146
f 165/208/147 163/206/147 166/209/147 167/210/147
f 168/211/148 165/208/148 167/210/148 169/212/148
f 170/213/149 164/207/149 165/208/149 168/211/149
f 169/212/150 167/210/150 171/214/150 172/215/150
f 167/210/151 166/209/151 143/181/151 171/214/151
f 139/177/152 173/216/152 174/217/152 171/214/152
f 171/214/153 174/217/153 175/218/153 172/215/153
f 140/178/154 139/177/154 171/214/154 143/181/154
f 166/209/155 148/188/155 144/182/155 143/181/155
f 138/176/156 129/159/156 173/216/156 139/177/156
f 173/216/157 176/219/157 177/220/157 174/217/157
f 129/159/158 126/156/158 176/219/158 173/216/158
f 129/159/159 138/176/159 134/167/159 130/160/159
f 126/156/160 178/221/160 179/222/160 176/219/160
f 177/220/161 176/219/161 179/222/161 180/223/161
f 177/220/162 181/224/162 175/218/162 174/217/162
f 182/225/163 183/226/163 181/227/163 177/228/163
f 184/229/164 182/225/164 177/228/164 180/230/164
f 185/231/165 180/223/165 179/222/165 178/221/165
f 186/232/166 184/229/166 180/230/166 185/233/166
f 185/231/167 178/221/167 187/234/167 188/235/167
f 189/236/168 186/232/168 185/233/168 188/237/168
f 190/238/169 191/239/169 186/232/169 189/236/169
f 191/239/170 192/240/170 184/229/170 186/232/170
f 193/241/171 189/236/171 188/237/171 194/242/171
f 195/243/172 190/238/172 189/236/172 193/241/172
f 196/244/173 197/245/173 190/238/173 195/243/173
f 197/245/174 198/246/174 191/239/174 190/238/174
f 199/247/175 196/244/175 195/243/175 200/248/175
f 200/248/176 195/243/176 193/241/176 201/249/176
f 202/250/177 200/251/177 201/252/177 203/253/177
f 204/254/178 199/255/178 200/251/178 202/250/178
f 205/256/179 204/254/179 202/250/179 206/257/179
f 207/258/180 205/256/180 206/257/180 208/259/180
f 208/259/181 206/257/181 183/226/181 182/225/181
f 206/257/182 202/250/182 203/253/182 183/226/182
f 183/226/183 203/253/183 209/260/183 181/227/183
f 203/253/184 201/252/184 210/261/184 209/260/184
f 211/262/185 169/212/185 172/215/185 209/263/185
f 209/263/186 172/215/186 175/218/186 181/224/186
f 153/194/187 211/262/187 209/263/187 152/193/187
f 210/264/188 151/192/188 152/193/188 209/263/188
f 201/249/189 193/241/189 194/242/189 210/265/189
f 194/266/190 212/267/190 151/192/190 210/264/190
f 212/267/191 122/152/191 146/185/191 151/192/191
f 188/235/192 187/234/192 212/267/192 194/266/192
f 187/234/193 125/155/193 122/152/193 212/267/193
f 178/221/194 126/156/194 125/155/194 187/234/194
f 156/197/195 213/268/195 211/262/195 153/194/195
f 213/268/196 168/211/196 169/212/196 211/262/196
f 214/269/197 170/213/197 168/211/197 213/268/197
f 158/199/198 214/269/198 213/268/198 156/197/198
f 192/240/199 208/259/199 182/225/199 184/229/199
f 215/270/200 207/258/200 208/259/200 192/240/200
f 198/246/201 215/270/201 192/240/201 191/239/201
f 216/271/202 116/144/202 124/154/202 37/164/202
f 217/272/203 216/273/203 37/41/203 36/40/203
f 116/144/204 216/271/204 218/274/204 115/141/204
f 217/272/205 219/275/205 218/276/205 216/273/205
f 114/137/206 115/140/206 218/277/206 219/278/206
f 220/279/207 221/280/207 219/278/207 217/281/207
f 221/280/208 222/282/208 114/137/208 219/278/208
f 222/282/209 223/283/209 111/138/209 114/137/209
f 224/284/210 222/282/210 221/280/210 225/285/210
f 226/286/211 223/283/211 222/282/211 224/284/211
f 227/287/212 228/288/212 226/286/212 224/284/212
f 229/289/213 227/287/213 224/284/213 225/285/213
f 230/290/214 231/291/214 223/292/214 226/293/214
f 228/294/215 232/295/215 230/290/215 226/293/215
f 232/295/216 233/296/216 234/297/216 230/290/216
f 234/297/217 235/298/217 231/291/217 230/290/217
f 233/296/218 236/299/218 237/300/218 234/297/218
f 238/301/219 235/298/219 234/297/219 237/300/219
f 239/302/220 240/303/220 238/301/220 237/300/220
f 236/299/221 241/304/221 239/302/221 237/300/221
f 236/299/222 233/296/222 242/305/222 243/306/222
f 244/307/223 241/304/223 236/299/223 243/306/223
f 241/304/224 245/308/224 246/309/224 239/302/224
f 247/310/225 245/308/225 241/304/225 244/307/225 248/311/225
f 249/312/226 248/311/226 244/307/226 250/313/226
f 250/313/227 244/307/227 243/306/227 251/314/227
f 251/314/228 252/315/228 253/316/228 250/313/228
f 249/312/229 250/313/229 253/316/229 254/317/229
f 255/318/230 256/319/230 257/320/230 249/321/230
f 258/322/231 255/318/231 249/321/231 254/323/231
f 249/312/232 257/324/232 259/325/232 248/311/232
f 260/326/233 261/327/233 259/325/233 257/324/233
f 256/319/234 262/328/234 260/329/234 257/320/234
f 247/310/235 248/311/235 259/325/235 261/327/235
f 260/326/236 263/330/236 264/331/236 261/327/236
f 264/331/237 229/289/237 245/308/237 247/310/237 261/327/237
f 263/330/238 265/332/238 266/333/238 264/331/238
f 266/333/239 227/287/239 229/289/239 264/331/239
f 262/328/240 267/334/240 263/335/240 260/329/240
f 267/334/241 268/336/241 265/337/241 263/335/241
f 269/338/242 270/339/242 265/332/242 271/340/242
f 268/341/243 272/342/243 271/343/243 265/344/243
f 266/333/244 265/332/244 273/345/244 274/346/244
f 270/339/245 275/347/245 273/345/245 265/332/245
f 276/348/246 272/342/246 268/341/246 277/349/246
f 268/336/247 267/334/247 278/350/247 277/351/247
f 279/352/248 277/351/248 278/350/248 280/353/248
f 281/354/249 276/348/249 277/349/249 279/355/249
f 282/356/250 283/357/250 276/348/250 281/354/250
f 284/358/251 272/342/251 276/348/251 283/357/251
f 285/359/252 286/360/252 283/357/252 282/356/252
f 287/361/253 286/360/253 285/359/253 288/362/253
f 289/363/254 290/364/254 287/361/254 288/362/254
f 291/365/255 292/366/255 290/364/255 289/363/255
f 280/353/256 278/350/256 292/366/256 291/365/256
f 278/350/257 267/334/257 262/328/257 292/366/257
f 262/328/258 256/319/258 290/364/258 292/366/258
f 290/364/259 256/319/259 255/318/259 287/361/259
f 255/318/260 258/322/260 286/360/260 287/361/260
f 286/360/261 258/322/261 284/358/261 283/357/261
f 284/358/262 258/322/262 254/323/262 293/367/262
f 272/342/263 284/358/263 293/367/263 271/343/263
f 294/368/264 269/338/264 271/340/264 293/369/264
f 295/370/265 294/368/265 293/369/265 252/315/265
f 293/369/266 254/317/266 253/316/266 252/315/266
f 296/371/267 297/372/267 269/338/267 294/368/267
f 298/373/268 296/371/268 294/368/268 295/370/268
f 297/372/269 299/374/269 270/339/269 269/338/269
f 299/374/270 300/375/270 275/347/270 270/339/270
f 300/376/271 301/377/271 302/378/271 275/379/271
f 275/379/272 302/378/272 303/380/272 273/381/272
f 302/378/273 304/382/273 305/383/273 303/380/273
f 301/377/274 306/384/274 304/382/274 302/378/274
f 304/382/275 307/385/275 251/314/275 305/383/275
f 306/384/276 308/386/276 307/385/276 304/382/276
f 308/386/277 298/373/277 295/370/277 307/385/277
f 307/385/278 295/370/278 252/315/278 251/314/278
f 309/387/279 303/380/279 305/383/279 242/305/279
f 242/305/280 305/383/280 251/314/280 243/306/280
f 242/305/281 233/296/281 232/295/281 309/387/281
f 309/387/282 232/295/282 228/294/282 274/388/282
f 274/388/283 273/381/283 303/380/283 309/387/283
f 274/346/284 228/288/284 227/287/284 266/333/284
f 245/308/285 229/289/285 225/285/285 246/309/285
f 225/285/286 221/280/286 220/279/286 246/309/286
f 246/309/287 220/279/287 240/303/287 239/302/287
f 240/303/288 220/279/288 217/281/288 50/389/288
f 238/301/289 240/303/289 50/389/289 51/390/289
f 217/272/290 36/40/290 40/44/290 50/54/290
f 235/298/291 238/301/291 51/390/291 56/391/291
f 231/291/292 235/298/292 56/391/292 57/132/292
f 223/292/293 231/291/293 57/132/293 111/131/293
f 110/127/294 78/130/294 75/392/294 74/174/294
