mtllib LOW_POLY_set.mtl
o lp_tree6_Icosphere_009
v -7.620605 4.621972 4.629685
v -8.863917 5.207349 4.458055
v -8.502560 5.024022 3.416494
v -10.037528 2.937608 6.211436
v -9.886173 4.493156 4.923970
v -9.400610 5.359821 3.531847
v -7.314547 3.980450 3.891336
v -8.570294 4.068324 2.396774
v -4.985717 4.567907 4.602551
v -7.066718 3.323285 3.276607
v -5.962707 4.132625 3.754933
v -5.801276 4.510612 3.101613
v -4.947302 5.211817 3.682232
v -4.324450 6.064937 4.395491
v -4.855672 6.427568 3.109265
v -5.609436 6.505877 2.446776
v -4.902234 8.916345 2.419877
v -4.489491 9.819302 2.898676
v -5.053053 10.160656 2.284446
v -6.585260 6.901497 1.892768
v -6.833008 8.726239 1.534642
v -6.497022 10.259698 1.812066
v -6.682495 4.495220 2.671908
v -8.115364 5.368564 1.122430
v -7.746704 7.179720 0.960304
v -8.247532 9.409058 1.092189
v -8.689769 6.866720 0.879964
v -9.102509 5.070268 1.222950
v -9.662843 7.486250 1.247070
v -9.438869 9.213451 1.195923
v -10.134770 6.484826 1.769500
v -11.101576 8.058434 2.198284
v -10.589884 9.291586 2.012400
v -11.046164 6.640231 2.651263
v -11.547276 7.611189 3.049716
v -11.321163 9.227499 2.650706
v -11.588161 6.816536 4.195188
v -11.582707 8.938770 3.607033
v -11.213228 5.830132 3.733304
v -11.400745 3.331582 5.404125
v -11.598408 4.749674 4.697668
v -10.588693 5.412817 3.217666
v -11.790322 4.455654 5.568150
v -10.988486 2.983919 6.263088
v -11.448909 4.002085 6.219276
v -10.799269 3.381409 5.250848
v -10.180760 4.838100 4.004371
v -9.657997 2.502506 7.491973
v -10.526403 4.248287 7.391595
v -8.764174 3.845157 8.202958
v -9.251903 6.120431 8.178051
v -11.601553 8.084372 6.492431
v -11.969245 8.137406 5.137474
v -11.657830 10.583844 6.082686
v -11.067501 10.151709 6.909812
v -10.134645 11.924425 6.793973
v -10.971557 12.497066 6.222062
v -9.500627 13.206455 6.468157
v -11.212855 12.748699 5.580503
v -10.087859 13.818790 5.752342
v -8.759594 13.863737 5.389876
v -8.097186 14.194551 6.153540
v -10.229205 13.642620 5.161706
v -11.062918 12.605625 4.911177
v -9.472896 12.730228 3.987436
v -8.025161 13.276981 2.621759
v -10.942069 10.376932 3.341938
v -11.473723 10.751915 4.336903
v -11.688220 10.745299 5.138200
v -7.760094 14.378326 5.120251
v -9.063619 10.688278 1.562973
v -7.851524 12.804750 2.200908
v -6.766999 13.517651 2.788621
v -6.998535 14.391546 4.139233
v -5.528333 13.234156 3.290976
v -7.099765 12.256010 2.068115
v -4.936434 11.619392 2.625082
v -4.788168 12.284382 3.575711
v -5.976026 13.987668 4.532736
v -5.136518 12.915950 5.239123
v -7.280233 14.482749 5.702607
v -6.454607 14.096115 5.954371
v -4.224255 10.365807 3.973967
v -4.146845 10.474005 5.235490
v -4.406698 10.154529 6.111553
v -5.651975 12.884823 6.559595
v -3.865209 8.075898 4.731755
v -3.977673 5.635486 6.314646
v -4.090316 4.996087 5.579559
v -3.895881 8.337067 5.689744
v -4.963988 3.673487 5.811727
v -4.812337 3.438629 7.009984
v -8.362510 2.203496 6.929942
v -6.927073 3.319136 5.843946
v -7.559887 2.619481 7.881764
v -6.037222 3.643669 8.160326
v -4.873905 4.474112 7.765627
v -7.313900 3.947650 8.482833
v -6.337197 4.433359 8.442858
v -7.649751 10.545746 7.653331
v -6.207745 10.735366 7.538527
v -5.472509 6.321181 7.841251
v -5.150760 10.214876 6.968559
v -7.207779 12.968349 6.983121
v -7.356483 13.992580 6.512398
v -7.888920 14.403175 5.677633
v -11.920156 6.190312 5.004157
v -9.810089 4.875200 2.726714
v -10.212739 5.590396 2.243129
v -9.518266 4.318415 1.764700
v -8.733628 4.018305 1.607846
v -7.836235 3.997196 2.039119
vt 0.801523 0.797198
vt 0.801311 0.797032
vt 0.801478 0.796883
vt 0.800934 0.797305
vt 0.801078 0.797044
vt 0.801294 0.796814
vt 0.799118 0.799725
vt 0.799025 0.799431
vt 0.799226 0.799353
vt 0.798944 0.799235
vt 0.801670 0.797100
vt 0.801988 0.797481
vt 0.799262 0.799687
vt 0.799347 0.799919
vt 0.799376 0.800207
vt 0.799470 0.799846
vt 0.799543 0.800061
vt 0.801177 0.799938
vt 0.801081 0.800234
vt 0.800813 0.800174
vt 0.801400 0.800134
vt 0.799704 0.799967
vt 0.799678 0.799749
vt 0.799953 0.799779
vt 0.800507 0.799801
vt 0.800407 0.799999
vt 0.800245 0.799849
vt 0.799637 0.799529
vt 0.799749 0.799389
vt 0.799897 0.799387
vt 0.800071 0.799673
vt 0.799427 0.799657
vt 0.799457 0.799298
vt 0.799578 0.799288
vt 0.799673 0.799147
vt 0.799504 0.799178
vt 0.799379 0.799191
vt 0.799459 0.799020
vt 0.799582 0.798988
vt 0.799327 0.798980
vt 0.799330 0.798694
vt 0.799509 0.798715
vt 0.799155 0.798771
vt 0.799380 0.798533
vt 0.799293 0.798306
vt 0.799499 0.798315
vt 0.799553 0.798494
vt 0.799640 0.798078
vt 0.799671 0.798326
vt 0.799460 0.798036
vt 0.799777 0.797580
vt 0.799667 0.797824
vt 0.799228 0.798030
vt 0.799871 0.797740
vt 0.800725 0.797040
vt 0.800745 0.797248
vt 0.800607 0.797197
vt 0.800044 0.797631
vt 0.800859 0.797060
vt 0.801098 0.796840
vt 0.799255 0.797767
vt 0.800909 0.797567
vt 0.800665 0.797522
vt 0.800959 0.797794
vt 0.800728 0.797884
vt 0.800100 0.798007
vt 0.800409 0.797652
vt 0.799855 0.798074
vt 0.800071 0.798197
vt 0.800212 0.798151
vt 0.800292 0.798315
vt 0.800150 0.798316
vt 0.800307 0.798461
vt 0.800074 0.798348
vt 0.800175 0.798473
vt 0.800215 0.798710
vt 0.800353 0.798743
vt 0.800102 0.798500
vt 0.800008 0.798398
vt 0.799991 0.798698
vt 0.799992 0.799010
vt 0.799728 0.798508
vt 0.799863 0.798350
vt 0.799956 0.798262
vt 0.800269 0.798889
vt 0.799706 0.798973
vt 0.799951 0.799064
vt 0.800125 0.799160
vt 0.800253 0.799029
vt 0.800314 0.799320
vt 0.799973 0.799193
vt 0.800259 0.799592
vt 0.800473 0.799449
vt 0.800415 0.799126
vt 0.800673 0.799174
vt 0.800367 0.798897
vt 0.800522 0.798937
vt 0.800722 0.799596
vt 0.800940 0.799394
vt 0.801075 0.799232
vt 0.800801 0.798927
vt 0.801072 0.799670
vt 0.801588 0.799558
vt 0.801513 0.799749
vt 0.801210 0.799477
vt 0.801777 0.799904
vt 0.801988 0.799527
vt 0.801171 0.797576
vt 0.801520 0.797517
vt 0.801756 0.797946
vt 0.801219 0.797795
vt 0.801427 0.797996
vt 0.801644 0.798122
vt 0.801962 0.799209
vt 0.801862 0.797715
vt 0.801188 0.797938
vt 0.801340 0.798035
vt 0.800789 0.798408
vt 0.801045 0.798627
vt 0.801445 0.798279
vt 0.801744 0.798914
vt 0.801140 0.798964
vt 0.800637 0.798680
vt 0.800487 0.798779
vt 0.800309 0.798832
vt 0.799790 0.797946
vt 0.799107 0.799120
vt 0.798817 0.799057
vt 0.798994 0.798929
vt 0.799210 0.799008
vt 0.799281 0.799171
vt 0.799328 0.799279
vt 0.799348 0.799432
vn -0.4272 -0.9041 0.0109
vn -0.1485 -0.5553 -0.8183
vn 0.1001 -0.6402 -0.7617
vn 0.4102 -0.8315 -0.3746
vn -0.3448 -0.9376 0.0454
vn -0.6689 -0.5197 0.5315
vn -0.1790 -0.7119 0.6791
vn -0.6944 -0.6604 0.2859
vn -0.0088 -0.7566 0.6538
vn -0.5958 -0.6569 0.4620
vn 0.1483 -0.6452 0.7495
vn 0.1379 -0.9366 0.3220
vn 0.6416 -0.7220 -0.2592
vn 0.6471 -0.6371 -0.4187
vn 0.7035 -0.6766 -0.2176
vn 0.8614 -0.2682 -0.4314
vn 0.8702 -0.4200 -0.2575
vn 0.7048 -0.3452 -0.6197
vn 0.6122 -0.2991 -0.7319
vn 0.6360 -0.1949 -0.7467
vn 0.8549 -0.1236 -0.5039
vn 0.9045 -0.1230 -0.4083
vn 0.7414 0.0168 -0.6709
vn 0.4451 -0.1405 -0.8844
vn 0.4095 0.0748 -0.9092
vn 0.3061 -0.0663 -0.9497
vn 0.4235 -0.1188 -0.8981
vn 0.6304 -0.2621 -0.7307
vn 0.3765 -0.2991 -0.8768
vn 0.5866 -0.1899 -0.7873
vn 0.6141 -0.0709 -0.7860
vn 0.3543 0.1343 -0.9254
vn 0.0607 0.0725 -0.9955
vn 0.1215 -0.1130 -0.9861
vn -0.0466 -0.1770 -0.9831
vn -0.3976 -0.0831 -0.9138
vn -0.1027 0.1005 -0.9896
vn -0.3436 0.0167 -0.9390
vn -0.5979 -0.1308 -0.7908
vn -0.5845 -0.1414 -0.7990
vn -0.5756 0.0505 -0.8162
vn -0.5242 0.0898 -0.8469
vn -0.6956 -0.2431 -0.6761
vn -0.8196 -0.2031 -0.5357
vn -0.6569 0.1616 -0.7364
vn -0.8882 0.0109 -0.4592
vn -0.9991 -0.0091 -0.0419
vn -0.9674 0.0757 -0.2417
vn -0.8801 -0.3048 -0.3641
vn -0.9423 -0.2585 -0.2129
vn -0.5619 -0.4303 -0.7065
vn -0.8740 -0.1107 -0.4731
vn -0.7239 -0.3452 -0.5974
vn -0.7257 -0.4923 -0.4806
vn -0.9154 -0.2743 -0.2945
vn -0.8824 -0.3876 0.2667
vn -0.9078 -0.3486 0.2331
vn -0.0168 -0.9296 -0.3682
vn -0.1490 -0.6056 -0.7817
vn 0.1853 -0.7452 -0.6405
vn -0.7030 -0.3130 0.6386
vn -0.0628 -0.9505 -0.3043
vn -0.7187 -0.2980 0.6282
vn -0.0654 -0.9246 -0.3753
vn -0.4324 -0.0829 0.8979
vn -0.5625 0.0360 0.8260
vn -0.4440 -0.1703 0.8797
vn -0.7766 -0.0709 0.6260
vn -0.9647 0.0213 0.2626
vn -0.9651 -0.0163 0.2613
vn -0.7906 0.0817 0.6069
vn -0.9011 -0.0624 0.4290
vn -0.5889 -0.0110 0.8081
vn -0.2428 0.1899 0.9513
vn -0.2338 0.1917 0.9532
vn -0.2276 0.1933 0.9544
vn -0.4090 0.2721 0.8710
vn -0.7370 0.2178 0.6398
vn -0.3288 0.3821 0.8637
vn -0.8587 0.2766 0.4314
vn -0.6429 0.5993 0.4769
vn -0.3806 0.5250 0.7613
vn -0.1161 0.9442 -0.3083
vn -0.1038 0.9596 -0.2614
vn -0.2657 0.6140 0.7432
vn -0.6839 0.7276 -0.0533
vn -0.7084 0.6409 -0.2957
vn -0.4548 0.5372 -0.7103
vn -0.0212 0.7828 -0.6219
vn -0.6723 0.5543 -0.4907
vn -0.5796 0.7523 -0.3132
vn -0.4657 0.4924 -0.7352
vn -0.6420 0.5018 -0.5797
vn -0.7712 0.3380 -0.5395
vn -0.5751 0.5525 -0.6034
vn -0.9141 0.3824 -0.1346
vn -0.8068 0.2617 -0.5297
vn -0.9274 0.2817 -0.2459
vn -0.9610 0.1036 -0.2564
vn -0.9753 0.1303 -0.1781
vn -0.9230 0.2778 -0.2661
vn -0.9740 0.2160 0.0683
vn -0.9930 0.1070 0.0502
vn -0.4997 0.8110 -0.3045
vn -0.4637 0.4884 -0.7393
vn -0.0266 0.6596 -0.7511
vn -0.6303 0.4968 -0.5965
vn -0.4329 0.8409 -0.3247
vn -0.0856 0.8297 -0.5515
vn 0.3709 0.8074 -0.4588
vn 0.1761 0.4527 -0.8741
vn 0.3369 0.3984 -0.8531
vn 0.4219 0.4735 -0.7732
vn 0.7664 0.4641 -0.4442
vn 0.7974 0.5987 -0.0758
vn 0.4551 0.8245 -0.3363
vn 0.8037 0.5923 -0.0566
vn 0.3636 0.9315 0.0112
vn 0.4062 0.9113 0.0672
vn 0.7097 0.6792 0.1871
vn 0.9509 0.2974 0.0862
vn 0.9231 0.3742 -0.0887
vn 0.8572 0.3468 0.3807
vn 0.8730 0.3409 0.3488
vn 0.7213 0.6260 0.2963
vn 0.9219 0.2024 -0.3303
vn 0.9613 0.0619 -0.2685
vn 0.9887 0.1312 -0.0719
vn 0.8932 -0.1321 -0.4298
vn 0.9931 -0.0924 -0.0718
vn 0.9991 -0.0215 0.0378
vn 0.9317 -0.1581 -0.3270
vn 0.9932 0.1166 0.0000
vn 0.8256 0.1033 0.5547
vn 0.9230 0.1806 0.3397
vn 0.7215 -0.5504 -0.4201
vn 0.7980 -0.5643 -0.2116
vn 0.7555 -0.4050 -0.5150
vn 0.9398 -0.3157 0.1306
vn 0.3010 -0.8352 -0.4602
vn 0.3227 -0.9365 0.1372
vn 0.3941 -0.7357 0.5508
vn 0.5635 -0.4648 0.6829
vn 0.8990 -0.2221 0.3775
vn 0.1703 -0.9627 -0.2102
vn -0.0216 -0.6878 -0.7256
vn -0.0026 -0.6825 -0.7308
vn 0.1339 -0.7956 -0.5909
vn 0.0011 -0.6982 -0.7159
vn -0.0274 -0.9073 0.4196
vn 0.1242 -0.4281 0.8952
vn -0.1474 -0.3826 0.9121
vn -0.1486 -0.3847 0.9110
vn -0.1488 -0.3863 0.9103
vn -0.1479 -0.3841 0.9114
vn -0.1874 -0.0294 0.9818
vn -0.0198 0.1215 0.9924
vn 0.1742 -0.2724 0.9463
vn -0.0182 0.1242 0.9921
vn 0.0602 0.1406 0.9882
vn 0.3688 0.1246 0.9211
vn 0.4158 0.0977 0.9042
vn 0.4182 -0.1610 0.8940
vn 0.7554 0.0833 0.6500
vn 0.5239 0.1448 0.8394
vn 0.6236 0.1709 0.7629
vn 0.7420 0.2354 0.6277
vn 0.5462 0.2261 0.8065
vn 0.0427 0.2591 0.9649
vn 0.2639 0.3425 0.9017
vn 0.2582 0.4341 0.8630
vn -0.1626 0.3925 0.9053
vn -0.1665 0.3037 0.9381
vn -0.1805 0.2927 0.9390
vn -0.1666 0.3000 0.9393
vn -0.0169 0.8561 0.5166
vn -0.2260 0.5721 0.7885
vn 0.3701 0.5997 0.7095
vn 0.2271 0.8235 0.5199
vn -0.2228 0.1939 0.9554
vn -0.1507 0.3129 0.9378
vn 0.8074 0.1028 0.5810
vn -0.3098 -0.9244 -0.2223
vn -0.1356 0.9279 0.3474
vn -0.1263 0.9893 -0.0733
vn -0.1192 0.9897 -0.0792
vn -0.5513 0.8255 0.1206
vn -0.4843 0.8619 -0.1504
vn 0.9407 0.1910 -0.2803
vn 0.0541 0.3042 -0.9511
vn 0.2848 0.2061 -0.9362
vn 0.3013 0.2103 -0.9300
vn 0.3170 0.1916 -0.9289
vn 0.7583 0.0901 -0.6456
vn -0.0521 0.3154 -0.9475
vn -0.5313 0.3294 -0.7805
vn -0.1274 0.2700 -0.9544
vn -0.9258 0.0025 -0.3780
vn -0.9916 -0.0336 0.1250
vn -0.9567 -0.0755 -0.2811
vn -0.9520 -0.1567 -0.2628
vn -0.8893 -0.1039 -0.4454
vn -0.6410 -0.7389 -0.2074
vn 0.6124 -0.7752 0.1552
vn 0.6253 -0.6434 -0.4416
vn 0.3148 -0.8511 -0.4201
vn -0.6753 -0.6345 -0.3761
vn -0.8754 -0.4833 0.0142
vn -0.4466 -0.8264 0.3428
vn -0.3167 -0.7329 0.6022
vn -0.7889 -0.4743 -0.3908
vn -0.6905 -0.2906 -0.6624
vn -0.7984 -0.2260 -0.5581
vn -0.6425 -0.1812 -0.7445
vn -0.3308 -0.4244 -0.8429
vn -0.3319 -0.9346 0.1280
vn 0.0074 -0.3413 -0.9399
vn 0.3756 -0.4610 -0.8040
vn -0.0597 -0.9954 0.0755
vn 0.5651 -0.3759 -0.7344
vn -0.2522 -0.9070 -0.3372
vn 0.5723 -0.5163 -0.6371
vn 0.4806 -0.5864 -0.6520
vn 0.3387 0.0951 -0.9361
vn 0.3818 -0.5196 -0.7644
vn 0.4199 -0.3192 -0.8496
usemtl Material.007
f 1/1/1 2/2/1 3/3/1
f 2/2/2 1/1/2 4/4/2
f 2/2/3 4/4/3 5/5/3
f 2/2/4 5/5/4 6/6/4
f 2/2/5 6/6/5 3/3/5
f 7/7/6 3/8/6 8/9/6
f 3/8/7 6/10/7 8/9/7
f 7/11/8 1/1/8 3/3/8
f 9/12/9 1/1/9 7/11/9
f 10/13/10 7/7/10 8/9/10
f 11/14/11 7/7/11 10/13/11
f 11/14/12 9/15/12 7/7/12
f 12/16/13 11/14/13 10/13/13
f 13/17/14 9/15/14 11/14/14
f 13/17/15 11/14/15 12/16/15
f 14/18/16 13/19/16 15/20/16
f 14/18/17 9/21/17 13/19/17
f 13/17/18 12/16/18 15/22/18
f 15/22/19 12/16/19 16/23/19
f 15/22/20 16/23/20 17/24/20
f 18/25/21 15/20/21 17/26/21
f 14/18/22 15/20/22 18/25/22
f 18/25/23 17/26/23 19/27/23
f 16/23/24 20/28/24 17/24/24
f 17/24/25 21/29/25 22/30/25
f 17/24/26 22/30/26 19/31/26
f 20/28/27 21/29/27 17/24/27
f 23/32/28 24/33/28 20/28/28
f 16/23/29 23/32/29 20/28/29
f 24/33/30 25/34/30 20/28/30
f 20/28/31 25/34/31 21/29/31
f 25/34/32 26/35/32 21/29/32
f 25/34/33 27/36/33 26/35/33
f 25/34/34 24/33/34 27/36/34
f 24/33/35 28/37/35 27/36/35
f 27/36/36 28/37/36 29/38/36
f 26/35/37 27/36/37 30/39/37
f 27/36/38 29/38/38 30/39/38
f 28/37/39 31/40/39 29/38/39
f 31/40/40 32/41/40 29/38/40
f 29/38/41 33/42/41 30/39/41
f 29/38/42 32/41/42 33/42/42
f 31/40/43 34/43/43 32/41/43
f 32/44/44 34/45/44 35/46/44
f 32/44/45 36/47/45 33/42/45
f 32/44/46 35/46/46 36/47/46
f 35/46/47 37/48/47 38/49/47
f 36/47/48 35/46/48 38/49/48
f 34/45/49 39/50/49 35/46/49
f 35/46/50 39/50/50 37/48/50
f 40/51/51 41/52/51 39/50/51
f 39/50/52 41/52/52 37/48/52
f 42/53/53 40/51/53 39/50/53
f 42/53/54 39/50/54 34/45/54
f 40/51/55 43/54/55 41/52/55
f 40/55/56 44/56/56 45/57/56
f 40/51/57 45/58/57 43/54/57
f 46/59/58 44/56/58 40/55/58
f 47/60/59 46/59/59 40/55/59
f 47/61/60 40/51/60 42/53/60
f 44/56/61 48/62/61 49/63/61
f 4/4/62 48/62/62 44/56/62
f 44/56/63 49/63/63 45/57/63
f 46/59/64 4/4/64 44/56/64
f 49/63/65 50/64/65 51/65/65
f 52/66/66 49/67/66 51/65/66
f 48/62/67 50/64/67 49/63/67
f 45/58/68 49/67/68 52/66/68
f 53/68/69 52/66/69 54/69/69
f 43/54/70 52/66/70 53/68/70
f 52/66/71 55/70/71 54/69/71
f 43/54/72 45/58/72 52/66/72
f 52/66/73 51/65/73 55/70/73
f 55/70/74 51/65/75 56/71/76
f 55/70/77 56/71/77 57/72/77
f 54/69/78 55/70/78 57/72/78
f 57/72/79 56/71/79 58/73/79
f 54/69/80 57/72/80 59/74/80
f 59/74/81 57/72/81 60/75/81
f 60/75/82 57/72/82 58/73/82
f 61/76/83 60/75/83 62/77/83
f 63/78/84 60/75/84 61/76/84
f 60/75/85 58/73/85 62/77/85
f 63/78/86 59/74/86 60/75/86
f 64/79/87 59/74/87 63/78/87
f 65/80/88 64/79/88 63/78/88
f 65/80/89 63/78/89 61/76/89
f 66/81/90 67/82/90 65/80/90
f 66/81/91 65/80/91 61/76/91
f 67/82/92 64/79/92 65/80/92
f 33/42/93 67/82/93 66/81/93
f 67/82/94 68/83/94 64/79/94
f 33/42/95 36/47/95 67/82/95
f 36/47/96 38/49/96 67/82/96
f 67/82/97 38/49/97 68/83/97
f 68/83/98 69/84/98 64/79/98
f 53/68/99 69/84/99 68/83/99
f 38/49/100 53/68/100 68/83/100
f 69/84/101 59/74/101 64/79/101
f 69/84/102 54/69/102 59/74/102
f 53/68/103 54/69/103 69/84/103
f 66/81/104 61/76/104 70/85/104
f 71/86/105 66/81/105 72/87/105
f 73/88/106 72/87/106 66/81/106
f 71/86/107 33/42/107 66/81/107
f 74/89/108 66/81/108 70/85/108
f 74/89/109 73/88/109 66/81/109
f 75/90/110 73/88/110 74/89/110
f 73/88/111 76/91/111 72/87/111
f 77/92/112 76/91/112 73/88/112
f 75/90/113 77/92/113 73/88/113
f 78/93/114 77/92/114 75/90/114
f 79/94/115 78/93/115 75/90/115
f 79/94/116 75/90/116 74/89/116
f 80/95/117 78/93/117 79/94/117
f 81/96/118 79/94/118 74/89/118
f 82/97/119 79/94/119 81/96/119
f 82/97/120 80/95/120 79/94/120
f 83/98/121 78/93/121 80/95/121
f 84/99/122 83/98/122 80/95/122
f 85/100/123 84/99/123 80/95/123
f 85/100/124 80/95/124 86/101/124
f 86/101/125 80/95/125 82/97/125
f 83/98/126 18/25/126 78/93/126
f 87/102/127 18/25/127 83/98/127
f 87/102/128 83/98/128 84/99/128
f 14/18/129 18/25/129 87/102/129
f 88/103/130 89/104/130 87/102/130
f 88/103/131 87/102/131 90/105/131
f 89/104/132 14/18/132 87/102/132
f 90/105/133 87/102/133 84/99/133
f 85/100/134 88/103/134 90/105/134
f 90/105/135 84/99/135 85/100/135
f 91/106/136 9/21/136 89/104/136
f 91/106/137 89/104/137 92/107/137
f 9/21/138 14/18/138 89/104/138
f 92/107/139 89/104/139 88/103/139
f 93/108/140 94/109/140 92/110/140
f 93/108/141 92/110/141 95/111/141
f 95/111/142 92/110/142 96/112/142
f 96/112/143 92/110/143 97/113/143
f 97/114/144 92/107/144 88/103/144
f 94/109/145 91/115/145 92/110/145
f 1/1/146 9/12/146 94/109/146
f 4/4/147 1/1/147 94/109/147
f 94/109/148 9/12/148 91/115/148
f 4/4/149 94/109/149 93/108/149
f 93/108/150 95/111/150 48/62/150
f 95/111/151 96/112/151 98/116/151
f 95/111/152 98/116/153 50/64/154
f 48/62/155 95/111/152 50/64/154
f 51/65/156 50/64/156 98/116/156
f 98/116/157 99/117/157 51/65/157
f 98/116/158 96/112/158 99/117/158
f 51/65/159 99/117/159 100/118/159
f 99/117/160 101/119/160 100/118/160
f 99/117/161 102/120/161 101/119/161
f 99/117/162 97/113/162 102/120/162
f 99/117/163 96/112/163 97/113/163
f 102/121/164 85/100/164 103/122/164
f 102/121/165 103/122/165 101/119/165
f 102/121/166 97/114/166 85/100/166
f 103/122/167 85/100/167 86/101/167
f 101/119/168 103/122/168 86/101/168
f 100/118/169 101/119/169 104/123/169
f 101/119/170 86/101/170 104/123/170
f 104/123/171 86/101/171 105/124/171
f 58/73/172 104/123/172 105/124/172
f 100/118/173 104/123/174 58/73/175
f 62/77/176 105/124/176 81/96/176
f 58/73/177 105/124/177 62/77/177
f 105/124/178 86/101/178 82/97/178
f 105/124/179 82/97/179 81/96/179
f 51/65/75 100/118/180 56/71/76
f 56/71/181 100/118/173 58/73/175
f 97/114/182 88/103/182 85/100/182
f 4/4/183 93/108/183 48/62/183
f 62/77/184 81/96/184 106/125/184
f 106/125/185 81/96/185 70/85/185
f 81/96/186 74/89/186 70/85/186
f 61/76/187 62/77/187 106/125/187
f 70/85/188 61/76/188 106/125/188
f 18/25/189 77/92/189 78/93/189
f 26/35/190 72/87/190 76/91/190
f 22/30/191 26/35/191 76/91/191
f 22/30/192 76/91/192 77/92/192
f 19/31/193 22/30/193 77/92/193
f 18/25/194 19/27/194 77/92/194
f 26/35/195 71/86/195 72/87/195
f 30/39/196 33/42/196 71/86/196
f 26/35/197 30/39/197 71/86/197
f 37/48/198 107/126/198 53/68/198
f 107/126/199 43/54/199 53/68/199
f 38/49/200 37/48/200 53/68/200
f 41/52/201 43/54/201 107/126/201
f 37/48/202 41/52/202 107/126/202
f 108/127/203 47/128/203 42/129/203
f 6/10/204 47/128/204 108/127/204
f 5/5/205 46/59/205 47/60/205
f 6/6/206 5/5/206 47/60/206
f 108/127/207 42/129/207 109/130/207
f 108/127/208 109/130/208 110/131/208
f 8/9/209 108/127/209 110/131/209
f 6/10/210 108/127/210 8/9/210
f 109/130/211 42/129/211 34/43/211
f 109/130/212 34/43/212 31/40/212
f 110/131/213 109/130/213 31/40/213
f 110/131/214 31/40/214 28/37/214
f 111/132/215 110/131/215 28/37/215
f 8/9/216 110/131/216 111/132/216
f 111/132/217 28/37/217 24/33/217
f 112/133/218 111/132/218 24/33/218
f 8/9/219 111/132/219 112/133/219
f 23/32/220 112/133/220 24/33/220
f 10/13/221 8/9/221 112/133/221
f 23/32/222 10/13/222 112/133/222
f 5/5/223 4/4/223 46/59/223
f 21/29/224 26/35/224 22/30/224
f 12/16/225 10/13/225 23/32/225
f 12/16/226 23/32/226 16/23/226
