mtllib LOW_POLY_set.mtl
o lp_tree1_Icosphere_019
v 26.237959 1.740892 6.843538
v 27.227879 1.790491 6.251565
v 27.446270 1.748525 7.169091
v 26.375179 1.994582 5.806681
v 28.471788 1.845688 6.424617
v 27.717529 2.128179 5.514989
v 26.697420 2.661704 5.312391
v 27.810240 2.740078 5.354245
v 28.844786 2.391287 5.910956
v 28.347895 3.259414 5.762932
v 29.380274 2.273447 6.778167
v 29.258873 3.034271 6.550055
v 28.557930 3.613747 6.437562
v 27.508404 3.710606 6.166265
v 26.793489 3.311203 5.607770
v 26.026117 3.327106 5.748385
v 26.563599 3.747713 6.032977
v 26.940075 4.156256 6.757410
v 25.945992 3.815462 6.556309
v 25.362658 3.099343 6.500781
v 25.503719 3.450219 7.254353
v 26.181324 3.812218 7.444937
v 25.740755 3.142524 8.131020
v 26.539320 3.393575 8.281845
v 27.077335 3.989486 7.414352
v 27.650862 3.665716 7.748703
v 27.857420 3.885436 6.897872
v 28.742025 3.550538 7.110279
v 26.951569 2.994227 8.911110
v 28.150915 3.190675 8.154684
v 29.162643 2.876825 7.400528
v 27.749834 2.554399 8.762174
v 28.644230 2.166042 7.492080
v 26.525734 2.487142 8.923782
v 27.306894 2.070536 8.439207
v 25.712967 2.569379 8.435796
v 26.024160 2.971697 8.653160
v 26.423122 1.933793 8.125410
v 25.295343 2.731587 7.488225
v 25.618530 2.096586 7.538849
v 25.383659 2.155700 6.462852
v 25.746435 2.523907 5.717671
vt 0.822464 0.808916
vt 0.822121 0.808761
vt 0.822425 0.808551
vt 0.822107 0.809089
vt 0.824382 0.810951
vt 0.824033 0.810887
vt 0.824327 0.810590
vt 0.824162 0.811246
vt 0.821739 0.808801
vt 0.822010 0.811206
vt 0.821488 0.810821
vt 0.821975 0.810673
vt 0.822284 0.810951
vt 0.823794 0.811093
vt 0.822562 0.811395
vt 0.822684 0.810848
vt 0.823767 0.810786
vt 0.823457 0.810838
vt 0.823105 0.811181
vt 0.823067 0.810678
vt 0.822739 0.810401
vt 0.822294 0.810411
vt 0.822091 0.810121
vt 0.822528 0.810094
vt 0.822898 0.810087
vt 0.822719 0.809847
vt 0.822334 0.809797
vt 0.822602 0.809530
vt 0.822887 0.809582
vt 0.823017 0.809776
vt 0.823180 0.809389
vt 0.823355 0.809635
vt 0.823096 0.810010
vt 0.823304 0.810074
vt 0.823059 0.810307
vt 0.823299 0.810490
vt 0.823741 0.809562
vt 0.823587 0.810114
vt 0.823602 0.810544
vt 0.823958 0.809910
vt 0.823922 0.810524
vt 0.823802 0.809197
vt 0.824218 0.809497
vt 0.824264 0.809080
vt 0.824240 0.810055
vt 0.823515 0.808927
vt 0.823434 0.809270
vt 0.824024 0.808725
vt 0.823201 0.809064
vt 0.822870 0.809279
vt 0.822778 0.809026
vt 0.822923 0.808736
vt 0.822469 0.809196
vt 0.822215 0.809402
vt 0.821595 0.810382
vt 0.824547 0.810104
vn 0.0199 -0.9985 -0.0504
vn -0.1006 -0.9633 -0.2490
vn 0.0523 -0.9969 -0.0580
vn 0.0918 -0.9269 -0.3639
vn -0.0001 -0.9090 -0.4168
vn -0.1244 -0.5512 -0.8250
vn 0.0547 -0.2614 -0.9637
vn 0.3664 -0.7582 -0.5393
vn 0.3765 -0.2883 -0.8804
vn 0.5063 0.1448 -0.8501
vn 0.5152 -0.7473 -0.4197
vn 0.8493 -0.0226 -0.5275
vn 0.6672 0.2630 -0.6969
vn 0.5949 0.6204 -0.5111
vn 0.2078 0.8379 -0.5048
vn 0.0902 0.7518 -0.6532
vn 0.1011 0.5485 -0.8300
vn -0.1543 0.4278 -0.8906
vn -0.1224 0.6587 -0.7424
vn 0.1240 0.7251 -0.6773
vn 0.0051 0.4133 -0.9106
vn 0.1078 0.8409 -0.5303
vn -0.2285 0.8940 -0.3854
vn -0.3460 0.7874 -0.5102
vn -0.7606 0.6313 -0.1516
vn -0.4961 0.8578 0.1345
vn -0.6853 0.5912 -0.4253
vn -0.3397 0.9359 0.0934
vn -0.5168 0.7545 0.4045
vn -0.3437 0.7728 0.5336
vn -0.1525 0.8562 0.4936
vn -0.1774 0.9444 0.2768
vn 0.0954 0.7919 0.6032
vn 0.2514 0.9494 0.1885
vn 0.3242 0.8939 0.3095
vn 0.2732 0.9133 0.3022
vn 0.2478 0.7668 0.5921
vn 0.0387 0.8550 0.5172
vn 0.3658 0.7965 0.4815
vn 0.6436 0.7581 -0.1049
vn 0.3561 0.9344 -0.0096
vn 0.7914 0.5788 0.1967
vn 0.5892 0.6007 0.5404
vn 0.6282 0.2924 0.7210
vn 0.9691 0.1985 0.1464
vn 0.6663 -0.4053 0.6259
vn 0.6783 -0.4168 0.6051
vn 0.4098 0.4814 0.7748
vn 0.1352 -0.0888 0.9868
vn 0.1354 -0.6328 0.7624
vn 0.4241 -0.7383 0.5244
vn -0.5183 -0.0600 0.8531
vn -0.2653 0.2461 0.9322
vn -0.0780 -0.8147 0.5747
vn -0.4067 -0.7255 0.5551
vn -0.7847 0.3203 0.5307
vn -0.8636 0.2687 0.4266
vn -0.8577 -0.4120 0.3075
vn -0.4794 -0.7545 0.4482
vn -0.4543 -0.8894 0.0503
vn -0.8838 -0.4363 0.1689
vn -0.3235 -0.9277 0.1863
vn -0.4829 -0.6686 -0.5655
vn -0.8987 -0.0024 -0.4387
vn -0.9970 -0.0192 -0.0751
vn -0.3230 -0.9085 -0.2650
vn -0.2848 -0.4780 -0.8309
vn -0.4074 0.1761 -0.8961
vn -0.7599 0.2869 -0.5833
vn -0.9557 0.2912 0.0433
vn -0.8579 0.3661 0.3605
vn -0.0352 -0.9875 0.1537
vn 0.0602 -0.9660 0.2515
vn -0.3441 0.8211 0.4554
vn -0.1887 0.7685 0.6114
vn 0.2533 -0.9307 0.2638
vn 0.2617 -0.9352 0.2384
vn 0.3449 -0.9129 0.2183
vn 0.1649 0.9386 -0.3030
vn 0.3144 0.8784 -0.3599
usemtl Material.004
f 1/1/1 2/2/1 3/3/1
f 2/2/2 1/1/2 4/4/2
f 2/5/3 5/6/3 3/7/3
f 2/5/4 6/8/4 5/6/4
f 2/2/5 4/4/5 6/9/5
f 6/10/6 4/11/6 7/12/6
f 6/10/7 7/12/7 8/13/7
f 5/6/8 6/8/8 9/14/8
f 6/10/9 8/13/9 9/15/9
f 9/15/10 8/13/10 10/16/10
f 5/6/11 9/14/11 11/17/11
f 11/17/12 9/14/12 12/18/12
f 12/19/13 9/15/13 10/16/13
f 12/19/14 10/16/14 13/20/14
f 10/16/15 14/21/15 13/20/15
f 10/16/16 15/22/16 14/21/16
f 8/13/17 15/22/17 10/16/17
f 15/22/18 7/12/18 16/23/18
f 15/22/19 16/23/19 17/24/19
f 15/22/20 17/24/20 14/21/20
f 8/13/21 7/12/21 15/22/21
f 14/21/22 17/24/22 18/25/22
f 17/24/23 19/26/23 18/25/23
f 16/27/24 19/26/24 17/24/24
f 20/28/25 21/29/25 19/26/25
f 19/26/26 21/29/26 22/30/26
f 16/27/27 20/28/27 19/26/27
f 18/25/28 19/26/28 22/30/28
f 21/29/29 23/31/29 22/30/29
f 22/30/30 23/31/30 24/32/30
f 22/30/31 24/32/31 25/33/31
f 18/25/32 22/30/32 25/33/32
f 24/32/33 26/34/33 25/33/33
f 27/35/34 18/25/34 25/33/34
f 26/34/35 27/35/35 25/33/35
f 26/34/36 28/36/36 27/35/36
f 29/37/37 30/38/37 26/34/37
f 24/32/38 29/37/38 26/34/38
f 30/38/39 28/36/39 26/34/39
f 12/18/40 13/20/40 28/36/40
f 28/36/41 13/20/41 27/35/41
f 31/39/42 12/18/42 28/36/42
f 31/39/43 28/36/43 30/38/43
f 32/40/44 31/39/44 30/38/44
f 11/17/45 12/18/45 31/39/45
f 33/41/46 11/17/46 31/39/46
f 32/40/47 33/41/47 31/39/47
f 32/40/48 30/38/48 29/37/48
f 34/42/49 32/43/49 29/37/49
f 35/44/50 32/43/50 34/42/50
f 35/45/51 33/41/51 32/40/51
f 36/46/52 34/42/52 37/47/52
f 34/42/53 29/37/53 37/47/53
f 38/48/54 35/44/54 34/42/54
f 36/46/55 38/48/55 34/42/55
f 36/49/56 37/47/56 23/31/56
f 39/50/57 36/49/57 23/31/57
f 40/51/58 36/49/58 39/50/58
f 40/51/59 38/52/59 36/49/59
f 1/1/60 40/51/60 41/53/60
f 41/53/61 40/51/61 39/50/61
f 40/51/62 1/1/62 38/52/62
f 4/4/63 41/53/63 42/54/63
f 42/54/64 41/53/64 20/28/64
f 20/28/65 41/53/65 39/50/65
f 4/4/66 1/1/66 41/53/66
f 4/11/67 42/55/67 7/12/67
f 7/12/68 42/55/68 16/23/68
f 42/54/69 20/28/69 16/27/69
f 20/28/70 39/50/70 21/29/70
f 39/50/71 23/31/71 21/29/71
f 38/52/72 1/1/72 3/3/72
f 38/56/73 3/7/73 35/45/73
f 23/31/74 37/47/74 24/32/74
f 37/47/75 29/37/75 24/32/75
f 3/7/76 33/41/76 35/45/76
f 3/7/77 5/6/77 33/41/77
f 5/6/78 11/17/78 33/41/78
f 13/20/79 14/21/79 27/35/79
f 27/35/80 14/21/80 18/25/80
