mtllib LOW_POLY_set.mtl
o lp_tree1_Icosphere_012
v -29.830223 6.661228 -36.832722
v -29.932983 6.045631 -36.858120
v -29.747925 5.991500 -36.913960
v -29.662128 6.610399 -36.870480
v -29.641178 5.962860 -37.113293
v -29.576935 6.591338 -37.027473
v -29.978987 6.712057 -36.919621
v -30.099619 6.101739 -36.951935
v -30.012636 6.731121 -37.095039
v -30.145374 6.125918 -37.163429
v -30.379171 5.502164 -36.851746
v -30.423615 5.499491 -37.180317
v -30.124947 5.579403 -36.815952
v -30.327980 5.260266 -36.691959
v -30.610050 5.192716 -37.042084
v -30.523991 5.009918 -36.856255
v -30.234966 5.366269 -36.614063
v -30.270281 5.535541 -36.749111
v -30.568970 5.269323 -37.295036
v -29.906538 5.676635 -36.482315
v -29.787855 5.762964 -36.609940
v -29.887262 5.563643 -36.378208
v -29.785894 5.452772 -36.343796
v -30.073242 5.200338 -36.548676
v -30.160660 5.083436 -36.631199
v -29.607243 5.978690 -36.077065
v -29.522438 5.884434 -36.050209
v -29.624056 6.072948 -36.164421
v -29.657043 5.411077 -36.411201
v -29.412714 5.849087 -36.109467
v -29.880070 5.138208 -36.632626
v -29.315563 6.005489 -36.000278
v -29.406765 6.033585 -35.952377
v -29.475794 6.112244 -35.973587
v -29.257385 6.033585 -36.085297
v -29.341108 5.884431 -36.211552
v -29.270435 6.112245 -36.156322
v -29.357922 5.978690 -36.298908
v -29.341108 6.188890 -36.179390
v -29.442738 6.072948 -36.325760
v -29.430668 6.218999 -36.129631
v -29.552450 6.108296 -36.266506
v -29.490486 6.188892 -36.046467
v -29.664488 5.711115 -36.673409
v -29.892939 5.491549 -36.868088
v -29.593338 5.561764 -36.631462
v -29.790192 5.335581 -36.893448
v -29.803562 5.479454 -37.045937
v -29.785564 5.368254 -37.078281
v -29.779158 5.668070 -37.291553
v -29.868124 5.378838 -37.308167
v -29.679260 5.983431 -37.319546
v -29.610573 6.610399 -37.202892
v -29.861889 6.045476 -37.411701
v -29.759346 6.661228 -37.289791
v -29.984493 5.668545 -37.418308
v -30.054743 6.103899 -37.359745
v -29.927443 6.712058 -37.252033
v -30.283867 5.476398 -37.403725
v -30.102571 5.337016 -37.467796
v -30.399256 5.299335 -37.463348
v -30.149796 5.174880 -37.459934
v -30.484289 4.994407 -37.618088
v -29.927603 5.275012 -37.327038
v -29.849020 5.210073 -37.166531
v -30.069447 4.983057 -37.352730
v -29.807951 5.120809 -36.904423
v -30.034773 4.826267 -37.147163
v -30.315283 4.739236 -37.575871
v -30.255997 4.544190 -37.382835
v -30.692282 4.137913 -37.975891
v -30.876596 4.737312 -37.906403
v -30.421917 4.302872 -37.570587
v -30.366085 4.473825 -37.146294
v -30.538445 4.212447 -37.300228
v -30.153490 4.766368 -36.932049
v -30.348896 4.832478 -36.807949
v -30.568445 4.544548 -36.993805
v -30.763784 4.292353 -37.119297
v -30.602608 3.932103 -37.720707
v -30.727798 3.780982 -37.468437
v -31.026535 3.985821 -37.218761
v -31.056023 3.541039 -37.250214
v -30.736496 3.416462 -37.563602
v -30.589567 3.612959 -37.902847
v -30.731594 2.909723 -37.664303
v -30.632906 3.083335 -38.226902
v -30.788429 3.836846 -38.314335
v -30.422634 1.696896 -38.350754
v -30.840441 1.686909 -38.812225
v -31.031414 2.974631 -38.657253
v -31.017700 3.547594 -38.567524
v -30.495358 1.696964 -37.732605
v -30.517199 0.573094 -37.610935
v -30.432541 0.548886 -38.328331
v -30.917645 0.537960 -38.864136
v -30.449764 -0.014598 -37.548035
v -30.358425 -0.037854 -38.333553
v -30.888384 -0.057359 -38.920654
v -31.635382 0.544583 -38.949203
v -31.458441 1.673717 -38.885242
v -31.673933 -0.038445 -39.012665
v -32.171097 0.567178 -38.464638
v -32.261398 -0.015409 -38.483253
v -31.919584 1.665092 -38.467529
v -32.255753 0.591386 -37.747242
v -32.352436 0.023066 -37.698311
v -31.770662 0.602314 -37.211437
v -31.822777 0.027351 -37.110630
v -31.052923 0.595689 -37.126369
v -31.036930 0.023657 -37.019199
v -31.574514 1.675148 -37.387913
v -30.956512 1.688342 -37.314896
v -31.742563 2.904405 -37.399532
v -31.196831 3.022660 -37.271542
v -31.561018 3.757845 -37.299381
v -31.801701 3.495542 -37.430649
v -31.347988 3.870807 -37.216591
v -32.072407 2.942291 -37.789635
v -31.999546 3.741408 -37.710560
v -31.992308 1.665162 -37.849384
v -31.989140 3.869346 -38.177460
v -32.014969 3.003731 -38.323818
v -31.772747 3.989419 -38.544991
v -31.597082 3.139120 -38.732578
v -31.520666 4.199636 -38.601723
v -31.289913 3.860005 -38.624069
v -31.785458 4.736307 -38.383759
v -31.458773 4.746062 -38.470783
v -31.940136 4.697408 -38.036083
v -31.778687 5.397842 -38.239212
v -31.447521 5.383734 -38.327610
v -31.914251 5.392662 -37.924820
v -31.821796 6.083633 -37.951302
v -31.701267 6.093822 -38.230743
v -31.395384 6.090698 -38.317776
v -31.106884 5.349769 -38.169159
v -31.049913 4.567033 -38.333538
v -31.092943 6.093983 -38.196697
v -30.973862 5.346256 -37.826584
v -30.983562 6.085169 -37.905216
v -30.740667 5.011698 -37.461937
v -30.995747 4.764330 -37.513367
v -31.098541 5.359504 -37.528931
v -31.451511 5.387294 -37.443157
v -31.384647 4.867691 -37.426300
v -31.287655 4.548623 -37.315430
v -31.096762 4.430408 -37.278824
v -30.754665 4.733566 -37.027626
v -30.833271 4.925872 -37.212101
v -31.113815 6.076737 -37.628769
v -31.425306 6.067454 -37.542175
v -31.020437 6.501228 -37.907616
v -31.151146 6.523613 -37.588203
v -31.451841 6.418815 -37.513607
v -31.880043 6.864448 -37.547390
v -31.725351 6.077553 -37.660595
v -31.803478 5.384272 -37.582500
v -31.858419 6.474836 -37.945404
v -31.754030 6.545952 -38.270191
v -31.958672 6.873802 -37.947140
v -31.927530 6.959207 -38.244713
v -32.091045 7.100996 -37.695240
v -32.005962 7.226446 -37.922623
v -32.034084 7.370083 -38.266457
v -32.211483 7.288819 -37.281719
v -32.209705 7.468178 -37.431335
v -32.081345 7.646080 -37.489922
v -32.021408 7.343450 -37.748013
v -31.887110 7.706256 -37.404850
v -31.688444 7.711985 -37.587002
v -31.933708 7.467147 -37.841732
v -31.570307 8.037486 -37.548569
v -31.741835 8.159996 -37.876858
v -31.812302 7.724285 -37.971657
v -32.000298 7.600004 -38.091835
v -31.741926 7.635116 -37.243122
v -31.530367 7.468052 -37.427258
v -31.297834 8.100986 -37.501625
v -31.638199 8.665947 -37.929810
v -31.499887 8.624254 -37.647385
v -31.223150 8.623374 -37.577995
v -31.047258 8.127967 -37.597027
v -30.965176 8.612017 -37.694386
v -31.306030 7.432493 -37.453651
v -31.121372 7.392454 -37.680908
v -31.271833 7.262860 -37.439434
v -30.995758 7.345789 -37.932411
v -30.921234 8.061185 -37.936626
v -30.873531 8.585697 -37.991283
v -30.944088 9.161065 -37.670727
v -31.224131 9.180381 -37.536308
v -30.861540 9.145990 -37.971317
v -30.992294 9.151438 -38.244835
v -31.027914 8.585816 -38.273258
v -31.150005 8.036642 -38.267490
v -30.781977 9.625645 -38.045929
v -30.877840 9.736549 -37.665596
v -30.926489 9.600571 -38.318035
v -31.212936 9.601450 -38.389889
v -31.282297 9.176617 -38.324829
v -31.288898 8.623525 -38.347851
v -31.538118 9.751706 -38.254063
v -31.560083 9.211941 -38.195549
v -31.554600 8.643923 -38.228664
v -31.366341 8.113825 -38.320210
v -31.648399 8.141315 -38.197701
v -31.645380 9.217808 -37.896374
v -31.518682 9.213960 -37.617447
v -31.668758 9.659193 -37.900501
v -31.562990 9.763545 -37.575115
v -31.227755 9.627255 -37.492516
v -31.284452 10.074292 -37.422852
v -31.513178 10.326872 -37.426823
v -31.685251 10.573269 -37.538200
v -31.737320 10.337590 -37.713276
v -31.734493 10.093427 -37.906960
v -31.768679 10.951341 -37.942871
v -31.679449 10.322824 -38.123817
v -31.729797 11.008442 -37.548866
v -31.462362 10.523566 -38.340668
v -31.258293 10.275540 -38.472450
v -31.386539 10.895748 -38.351696
v -30.894766 10.837268 -38.612976
v -30.856764 10.161388 -38.463821
v -31.098677 10.012641 -38.488461
v -30.662210 10.235618 -38.238136
v -30.537613 10.826496 -38.452549
v -30.447563 10.911633 -38.178455
v -30.644464 10.379795 -37.928402
v -30.581861 11.124051 -37.932018
v -30.828358 10.740573 -37.681240
v -31.095314 10.347611 -37.479240
v -31.431450 10.918302 -37.378529
v -31.090117 11.177895 -37.513058
v -31.610853 11.465239 -37.302830
v -31.848663 11.438764 -37.477970
v -31.322296 11.570210 -37.374111
v -31.582699 12.570509 -37.208244
v -31.872543 12.579842 -37.140610
v -32.091328 12.507321 -37.358906
v -32.138130 12.536054 -37.611046
v -31.912598 11.471909 -37.770008
v -31.987577 12.631104 -37.798138
v -31.739235 11.583055 -37.999664
v -31.545504 11.294296 -38.177216
v -31.458271 11.684162 -38.061356
v -31.225372 11.448400 -38.291172
v -31.697426 12.816513 -37.825470
v -31.338209 11.141337 -38.360901
v -31.077578 11.232045 -38.527573
v -31.224461 11.724409 -37.886711
v -31.021372 11.548985 -38.048229
v -30.806097 11.631651 -38.234184
v -30.916424 11.577301 -38.481720
v -30.817097 11.434779 -38.697620
v -30.406118 12.174347 -38.726139
v -30.337111 12.075333 -38.882950
v -30.324800 12.211475 -38.549606
v -30.174543 11.976321 -38.937016
v -30.597422 11.281086 -38.773876
v -30.363602 11.229106 -38.638271
v -30.006378 11.939192 -38.839561
v -29.925049 11.976321 -38.663036
v -30.258869 11.282501 -38.393730
v -29.845156 12.703455 -39.116264
v -29.779272 12.731720 -38.970383
v -29.984253 12.731720 -39.195488
v -29.835045 12.815239 -38.842571
v -29.994068 12.075333 -38.506222
v -30.362564 11.423956 -38.170521
v -29.969538 12.894420 -38.797123
v -30.156635 12.174349 -38.452156
v -30.106596 12.927021 -38.878193
v -30.586901 11.572613 -38.088081
v -30.174520 12.894419 -39.022228
v -30.851110 11.415468 -37.796246
v -31.148546 11.679474 -37.609879
v -31.416265 12.709008 -37.383347
v -31.470558 12.675612 -37.666698
v -31.488705 13.002395 -37.145020
v -31.601927 12.835389 -37.108116
v -31.384680 13.025870 -37.378811
v -31.408562 13.135886 -37.201797
v -31.442848 12.917204 -37.568707
v -31.366135 13.329109 -37.350998
v -31.496502 13.075686 -37.614971
v -31.399351 13.345913 -37.111553
v -31.538483 13.288953 -37.602554
v -31.450724 13.517353 -37.455795
v -31.136248 13.816051 -37.224426
v -31.066248 13.691154 -37.109550
v -31.114647 13.648851 -36.936417
v -31.245241 13.690790 -36.811348
v -31.619390 13.322330 -36.954865
v -30.836018 14.178608 -36.733364
v -30.940464 14.214788 -36.632660
v -30.796944 14.214788 -36.873089
v -31.049776 14.316745 -36.636799
v -31.380795 13.818319 -36.820744
v -31.770912 13.586892 -36.957951
v -31.107899 14.415748 -36.732609
v -31.451990 13.940119 -36.941689
v -31.901587 13.738741 -37.130222
v -31.960176 13.502319 -36.976364
v -31.967358 13.318903 -36.963413
v -32.122707 13.594709 -37.024471
v -32.272942 13.364177 -37.062153
v -31.760973 12.940575 -37.013760
v -32.426918 13.302422 -37.298889
v -32.569046 14.138134 -36.995617
v -32.759655 14.030425 -36.999081
v -32.879715 13.990150 -37.133846
v -32.421352 13.341269 -37.528240
v -32.782223 13.942623 -37.454517
v -32.936493 14.048553 -37.290539
v -33.265198 14.439260 -37.009945
v -33.316559 14.488489 -37.199230
v -33.114403 14.524218 -36.843056
v -33.270996 14.626291 -37.313690
v -32.963577 14.190358 -37.352493
v -32.823280 14.178137 -37.417900
v -32.635181 14.220524 -37.474110
v -32.270721 13.454342 -37.655464
v -33.125221 14.824684 -37.358829
v -32.860600 14.825110 -37.488129
v -33.682774 14.956867 -37.134129
v -33.564571 15.090128 -37.121979
v -33.128925 15.107933 -37.347324
v -32.958378 15.140295 -37.464008
v -33.471043 15.144686 -36.971573
v -33.134682 14.972128 -37.115517
v -33.148941 15.107450 -37.138142
v -33.490261 16.026337 -37.097603
v -33.463291 16.044563 -37.297276
v -33.299164 16.091797 -37.405628
v -33.104851 16.138582 -37.375183
v -32.761307 15.180031 -37.437309
v -32.658127 14.866577 -37.460846
v -33.387833 16.956299 -37.332558
v -33.548019 16.940639 -37.224640
v -33.197056 16.951092 -37.309509
v -33.390911 17.603287 -37.056622
v -33.249203 17.590092 -37.159222
v -33.081768 17.539352 -37.147327
v -33.573017 16.910866 -37.034107
v -33.414585 17.565201 -36.886951
v -33.322327 17.503147 -36.751297
v -33.466393 16.885014 -36.875397
v -33.154892 17.452404 -36.739403
v -33.275604 16.879807 -36.852348
v -33.013184 17.439217 -36.841999
v -33.115429 16.895462 -36.960266
v -32.989510 17.477295 -37.011673
v -33.090431 16.925240 -37.150803
v -32.997406 16.155619 -37.204727
v -33.024376 16.137394 -37.005054
v -32.679535 15.181395 -37.049812
v -32.652668 15.195099 -37.261162
v -32.553123 14.882305 -37.279587
v -32.614346 14.847513 -37.027836
v -33.188507 16.090158 -36.896702
v -32.843216 15.151572 -36.936394
v -32.824730 14.923347 -36.916061
v -32.900085 14.762475 -36.868176
v -32.808941 14.617392 -36.895527
v -32.413670 14.253992 -37.107330
v -32.384514 14.297453 -37.292564
v -31.968565 13.703993 -37.438374
v -32.083828 13.592772 -37.630486
v -32.471416 14.277552 -37.444065
v -31.665110 13.313112 -37.653740
v -31.589571 13.635748 -37.471039
v -31.270205 13.935725 -37.232780
v -30.964367 14.415748 -36.973038
v -30.852455 14.316745 -36.967339
v -33.078556 14.753031 -36.815346
v -33.614780 14.831401 -36.706245
v -33.717495 14.779833 -36.851200
v -33.502720 14.966064 -36.688877
v -34.013859 15.099011 -36.665836
v -33.916332 15.145800 -36.533077
v -33.800125 15.270573 -36.517178
v -34.241138 15.714310 -36.391483
v -34.339130 15.605921 -36.405827
v -34.424381 15.567231 -36.518932
v -34.446758 15.605919 -36.658783
v -34.041889 15.145800 -36.828167
v -33.750710 14.827516 -37.028122
v -33.972755 15.270573 -36.922924
v -34.389137 15.714310 -36.739334
v -33.856544 15.395341 -36.907024
v -34.287884 15.819832 -36.726383
v -34.205902 15.861390 -36.611889
v -33.759018 15.442133 -36.774265
v -34.180256 15.819834 -36.473427
v -33.730991 15.395341 -36.611935
v -33.438034 15.097085 -36.791458
v -33.033642 14.925795 -36.911942
v -33.036243 15.117895 -36.962936
v -33.382820 16.043371 -36.927147
v -30.116707 12.815239 -39.151886
v -31.387873 7.744175 -38.314137
v -31.617828 7.796939 -38.185009
v -31.605848 7.915831 -38.497211
v -31.744171 7.956156 -38.341564
v -31.936523 7.900352 -38.252728
v -32.220348 8.313771 -38.857689
v -32.047947 8.360857 -38.925354
v -31.932203 8.313844 -39.069885
v -31.636841 7.781973 -38.668636
v -31.953758 8.188383 -39.212166
v -31.493309 7.641024 -38.501469
v -32.336742 8.729773 -39.609520
v -32.316864 8.845815 -39.478104
v -32.423656 8.889359 -39.344650
v -32.691399 9.594702 -39.846603
v -32.787079 9.633608 -39.727055
v -32.709236 9.490909 -39.964310
v -32.929642 9.594673 -39.671112
v -32.582771 8.845883 -39.282200
v -33.036812 9.490872 -39.723011
v -32.702377 8.729867 -39.340153
v -33.054642 9.387086 -39.840717
v -32.722256 8.613824 -39.471569
v -32.958969 9.348173 -39.960266
v -32.615448 8.570277 -39.605026
v -32.816406 9.387112 -40.016209
v -32.456348 8.613753 -39.667469
v -32.083351 8.062901 -39.274864
v -32.255764 8.015809 -39.207203
v -31.779985 7.635199 -38.740292
v -31.974482 7.585085 -38.665291
v -32.101757 7.632418 -38.497620
v -32.371494 8.062828 -39.062672
v -32.078140 7.767973 -38.329319
v -32.349953 8.188285 -38.920395
v -31.897028 7.358780 -38.508564
v -31.854008 7.084225 -38.422569
v -31.611378 7.345115 -38.566433
v -31.695955 6.928692 -38.448902
v -31.328428 7.368122 -38.427261
v -31.256321 7.108298 -38.388847
v -31.366135 6.937459 -38.432655
v -31.357826 7.555116 -38.411514
v -31.499146 6.770201 -38.421364
v -31.435040 6.462900 -38.339745
v -31.144306 6.559463 -38.240421
v -31.116390 7.005106 -38.213791
v -31.044521 6.959874 -37.923618
v -31.099155 6.976779 -37.636173
v -31.158041 7.364361 -38.231583
v -31.222399 7.025141 -37.466625
v -31.338551 6.833590 -37.421993
v -31.605450 7.136134 -37.330090
v -31.774492 6.928288 -37.442459
v -31.485867 6.679831 -37.437157
v -31.874172 7.292021 -37.042641
v -32.067265 7.224761 -37.123833
v -32.378185 7.627393 -36.633881
v -32.176022 7.667148 -36.575596
v -32.515472 7.683233 -36.788414
v -32.399742 8.105816 -36.240059
v -32.590488 8.056743 -36.305161
v -32.724670 8.113531 -36.452816
v -32.492630 7.813708 -36.956638
v -32.710175 8.256123 -36.602776
v -32.884060 8.433307 -36.185951
v -32.880207 8.590196 -36.318226
v -32.749657 8.374474 -36.042416
v -32.797703 8.744124 -35.851051
v -32.930237 8.772837 -35.990726
v -32.933380 8.896672 -36.140903
v -32.817959 9.030220 -36.223019
v -32.757809 8.747087 -36.368523
v -32.643227 9.098234 -36.170639
v -32.576069 8.805919 -36.293453
v -32.508450 9.065843 -36.033947
v -32.441677 8.747087 -36.149921
v -32.383076 8.444897 -36.607845
v -32.573833 8.395824 -36.672951
v -32.248905 8.388111 -36.460194
v -32.140331 7.977901 -36.986774
v -32.342487 7.938148 -37.045063
v -32.003036 7.922062 -36.832245
v -32.263401 8.245517 -36.310234
v -32.025890 7.791589 -36.664017
v -32.445518 8.590196 -36.017647
v -32.567917 8.433308 -35.967346
v -32.507561 8.945685 -35.880783
v -32.620728 8.808461 -35.801659
v -31.745312 7.462840 -37.097488
v -31.792570 4.588451 -37.525719
v -31.379665 4.278549 -37.266891
v -29.962130 5.022970 -36.727589
v -29.754251 5.195012 -36.777195
v -29.573606 5.452088 -36.529682
vt 0.689541 0.432260
vt 0.688946 0.432219
vt 0.688948 0.432034
vt 0.689534 0.432089
vt 0.688955 0.431834
vt 0.689537 0.431915
vt 0.689548 0.432429
vt 0.688949 0.432409
vt 0.689544 0.432597
vt 0.688959 0.432611
vt 0.688364 0.432402
vt 0.688360 0.432679
vt 0.688496 0.432230
vt 0.688216 0.432260
vt 0.688058 0.432554
vt 0.687984 0.432345
vt 0.681230 0.432194
vt 0.681369 0.432169
vt 0.681429 0.432351
vt 0.681324 0.432436
vt 0.681248 0.430893
vt 0.681381 0.430915
vt 0.681418 0.431056
vt 0.688118 0.432777
vt 0.681779 0.431035
vt 0.681776 0.431208
vt 0.681740 0.431996
vt 0.681778 0.432128
vt 0.681716 0.431863
vt 0.681350 0.431960
vt 0.681203 0.431974
vt 0.682248 0.431925
vt 0.682222 0.431816
vt 0.682278 0.432034
vt 0.681704 0.431734
vt 0.682207 0.431704
vt 0.681346 0.431767
vt 0.682396 0.431688
vt 0.682406 0.431783
vt 0.682428 0.431876
vt 0.682390 0.431593
vt 0.682202 0.431591
vt 0.682397 0.431497
vt 0.682210 0.431479
vt 0.682408 0.431401
vt 0.682226 0.431370
vt 0.682430 0.431308
vt 0.682249 0.431261
vt 0.682455 0.431216
vt 0.682277 0.431152
vt 0.682455 0.431967
vt 0.681754 0.431337
vt 0.681436 0.431279
vt 0.681708 0.431477
vt 0.681365 0.431428
vt 0.688514 0.431855
vt 0.688491 0.432023
vt 0.688385 0.431939
vt 0.688424 0.431815
vt 0.688690 0.431648
vt 0.688426 0.431621
vt 0.688973 0.431660
vt 0.689545 0.431739
vt 0.689006 0.431484
vt 0.689579 0.431570
vt 0.688654 0.431431
vt 0.689049 0.431306
vt 0.689629 0.431405
vt 0.688425 0.431179
vt 0.688329 0.431386
vt 0.688210 0.431127
vt 0.688168 0.431398
vt 0.687846 0.431129
vt 0.688328 0.431591
vt 0.688299 0.431737
vt 0.688048 0.431581
vt 0.688258 0.431915
vt 0.687982 0.431789
vt 0.687690 0.431411
vt 0.687612 0.431681
vt 0.686883 0.431241
vt 0.687368 0.430840
vt 0.687264 0.431600
vt 0.687582 0.431940
vt 0.687224 0.431925
vt 0.687941 0.431980
vt 0.687940 0.432159
vt 0.687598 0.432189
vt 0.687262 0.432241
vt 0.686787 0.431581
vt 0.686674 0.431923
vt 0.686856 0.432356
vt 0.686397 0.432333
vt 0.686269 0.431874
vt 0.686416 0.431477
vt 0.708527 0.432252
vt 0.708462 0.432194
vt 0.708530 0.432145
vt 0.708565 0.432188
vt 0.708490 0.432090
vt 0.708553 0.432078
vt 0.709102 0.432354
vt 0.709106 0.432573
vt 0.709010 0.432571
vt 0.709011 0.432370
vt 0.709023 0.432282
vt 0.709075 0.432235
vt 0.708431 0.432409
vt 0.708351 0.432366
vt 0.708365 0.432562
vt 0.708273 0.432511
vt 0.709101 0.432750
vt 0.708988 0.432749
vt 0.708323 0.432638
vt 0.708226 0.432581
vt 0.709106 0.432842
vt 0.708983 0.432843
vt 0.708875 0.432740
vt 0.708913 0.432564
vt 0.708863 0.432829
vt 0.708766 0.432721
vt 0.708746 0.432807
vt 0.708813 0.432548
vt 0.708660 0.432694
vt 0.708634 0.432775
vt 0.708559 0.432656
vt 0.708527 0.432735
vt 0.708460 0.432611
vt 0.708424 0.432688
vt 0.708611 0.432489
vt 0.708517 0.432450
vt 0.708690 0.432311
vt 0.708618 0.432268
vt 0.708701 0.432188
vt 0.708725 0.432234
vt 0.708627 0.432193
vt 0.708678 0.432164
vt 0.708762 0.432327
vt 0.708781 0.432213
vt 0.708711 0.432524
vt 0.708850 0.432210
vt 0.708839 0.432338
vt 0.708915 0.432205
vt 0.708928 0.432335
vt 0.708955 0.432178
vt 0.708984 0.432232
vt 0.708916 0.432091
vt 0.708968 0.432093
vt 0.708858 0.432085
vt 0.708917 0.431983
vt 0.708973 0.431989
vt 0.708863 0.431976
vt 0.708884 0.431863
vt 0.708936 0.431869
vt 0.708987 0.431876
vt 0.709033 0.431994
vt 0.709036 0.432120
vt 0.709037 0.431880
vt 0.708604 0.431903
vt 0.708651 0.431926
vt 0.708601 0.432004
vt 0.708532 0.431990
vt 0.708640 0.431806
vt 0.708681 0.431820
vt 0.687891 0.430831
vt 0.687662 0.430569
vt 0.708697 0.431942
vt 0.708658 0.432026
vt 0.708752 0.431953
vt 0.708722 0.432028
vt 0.708696 0.432073
vt 0.708667 0.432084
vt 0.687658 0.432427
vt 0.687742 0.432663
vt 0.687490 0.432904
vt 0.687209 0.432627
vt 0.687825 0.432903
vt 0.708725 0.431834
vt 0.708776 0.431846
vt 0.708694 0.431763
vt 0.708744 0.431768
vt 0.708789 0.431791
vt 0.708855 0.431732
vt 0.708831 0.431853
vt 0.708808 0.431967
vt 0.708895 0.431801
vt 0.708946 0.431800
vt 0.708907 0.431741
vt 0.708950 0.431736
vt 0.708884 0.431706
vt 0.708911 0.431694
vt 0.708959 0.431677
vt 0.706609 0.431577
vt 0.705886 0.431367
vt 0.705871 0.431070
vt 0.706442 0.431179
vt 0.705834 0.430786
vt 0.706330 0.430882
vt 0.706588 0.430895
vt 0.705769 0.430521
vt 0.706018 0.430315
vt 0.706391 0.430672
vt 0.708842 0.431569
vt 0.708896 0.431552
vt 0.708911 0.431616
vt 0.708853 0.431617
vt 0.708897 0.431659
vt 0.708936 0.431643
vt 0.706097 0.432860
vt 0.705791 0.432780
vt 0.705838 0.432498
vt 0.706246 0.432487
vt 0.708820 0.431649
vt 0.708804 0.431554
vt 0.708901 0.431472
vt 0.708849 0.431476
vt 0.708803 0.431473
vt 0.708767 0.431544
vt 0.708759 0.431472
vt 0.708788 0.431648
vt 0.708747 0.431646
vt 0.708781 0.431670
vt 0.708708 0.431646
vt 0.708716 0.431547
vt 0.708714 0.431474
vt 0.708758 0.431389
vt 0.708805 0.431385
vt 0.708713 0.431394
vt 0.708671 0.431399
vt 0.708670 0.431475
vt 0.708661 0.431550
vt 0.708694 0.431327
vt 0.708748 0.431305
vt 0.708655 0.431340
vt 0.709012 0.431332
vt 0.709053 0.431338
vt 0.709039 0.431401
vt 0.708996 0.431394
vt 0.709033 0.431481
vt 0.708994 0.431476
vt 0.708962 0.431306
vt 0.708949 0.431387
vt 0.708950 0.431475
vt 0.708988 0.431551
vt 0.708944 0.431550
vt 0.709021 0.431560
vt 0.708901 0.431383
vt 0.708853 0.431381
vt 0.708906 0.431315
vt 0.708855 0.431297
vt 0.708805 0.431318
vt 0.708810 0.431253
vt 0.708838 0.431215
vt 0.708865 0.431180
vt 0.708888 0.431215
vt 0.708911 0.431252
vt 0.708927 0.431131
vt 0.708944 0.431222
vt 0.708870 0.431118
vt 0.708989 0.431199
vt 0.709019 0.431237
vt 0.709004 0.431150
vt 0.709079 0.431165
vt 0.709071 0.431260
vt 0.709036 0.431275
vt 0.708621 0.431270
vt 0.708655 0.431247
vt 0.708566 0.431197
vt 0.708612 0.431173
vt 0.708645 0.431152
vt 0.708693 0.431220
vt 0.708680 0.431121
vt 0.708730 0.431167
vt 0.708780 0.431217
vt 0.708820 0.431133
vt 0.708765 0.431104
vt 0.708832 0.431052
vt 0.708871 0.431054
vt 0.708790 0.431046
vt 0.708807 0.430916
vt 0.708841 0.430907
vt 0.708877 0.430913
vt 0.708909 0.430911
vt 0.708911 0.431053
vt 0.708940 0.430907
vt 0.708951 0.431046
vt 0.708980 0.431091
vt 0.708990 0.431037
vt 0.709026 0.431074
vt 0.708979 0.430893
vt 0.709014 0.431117
vt 0.709056 0.431110
vt 0.708681 0.431011
vt 0.708712 0.431023
vt 0.708693 0.431052
vt 0.708663 0.431044
vt 0.680562 0.430865
vt 0.680480 0.430640
vt 0.680751 0.430525
vt 0.680794 0.430776
vt 0.680382 0.432553
vt 0.680462 0.432327
vt 0.680719 0.432521
vt 0.680604 0.432810
vt 0.679732 0.432242
vt 0.679787 0.432075
vt 0.679849 0.431068
vt 0.679818 0.430898
vt 0.679833 0.431905
vt 0.680523 0.432097
vt 0.680981 0.432238
vt 0.680550 0.431864
vt 0.680960 0.431898
vt 0.679863 0.431738
vt 0.679880 0.431574
vt 0.680574 0.431630
vt 0.680980 0.431637
vt 0.679147 0.431672
vt 0.679169 0.431528
vt 0.679113 0.431812
vt 0.679165 0.431383
vt 0.679881 0.431409
vt 0.680600 0.431379
vt 0.679149 0.431241
vt 0.679872 0.431241
vt 0.679122 0.431100
vt 0.680616 0.431116
vt 0.679106 0.430958
vt 0.680967 0.430984
vt 0.680981 0.431336
vt 0.708749 0.431037
vt 0.708715 0.431081
vt 0.708777 0.430905
vt 0.708745 0.430907
vt 0.708795 0.430874
vt 0.708807 0.430887
vt 0.708774 0.430875
vt 0.708786 0.430866
vt 0.708758 0.430885
vt 0.708776 0.430856
vt 0.708754 0.430870
vt 0.708788 0.430853
vt 0.708757 0.430854
vt 0.708770 0.430844
vt 0.690405 0.431847
vt 0.690391 0.432010
vt 0.689916 0.431987
vt 0.689960 0.431778
vt 0.690402 0.432169
vt 0.690001 0.432194
vt 0.690417 0.432330
vt 0.689935 0.432435
vt 0.708801 0.430848
vt 0.690966 0.432143
vt 0.690986 0.432280
vt 0.690962 0.432005
vt 0.691026 0.432412
vt 0.690455 0.432494
vt 0.690060 0.432685
vt 0.691063 0.432545
vt 0.690501 0.432659
vt 0.690092 0.432927
vt 0.708800 0.430828
vt 0.708814 0.430823
vt 0.708823 0.430836
vt 0.708792 0.430810
vt 0.708820 0.430806
vt 0.708848 0.430816
vt 0.708819 0.430872
vt 0.708879 0.430815
vt 0.708820 0.430733
vt 0.708843 0.430729
vt 0.708861 0.430726
vt 0.708905 0.430811
vt 0.708895 0.430735
vt 0.708877 0.430718
vt 0.708856 0.430679
vt 0.708867 0.430674
vt 0.708842 0.430677
vt 0.708873 0.430664
vt 0.708885 0.430705
vt 0.708898 0.430711
vt 0.708918 0.430713
vt 0.708930 0.430805
vt 0.708882 0.430648
vt 0.708911 0.430651
vt 0.701342 0.432116
vt 0.701360 0.432325
vt 0.700683 0.432441
vt 0.700679 0.432136
vt 0.708880 0.430616
vt 0.708905 0.430616
vt 0.701420 0.432543
vt 0.700943 0.432671
vt 0.708853 0.430618
vt 0.708854 0.430635
vt 0.708840 0.430496
vt 0.708864 0.430493
vt 0.708889 0.430489
vt 0.708914 0.430485
vt 0.708930 0.430616
vt 0.708932 0.430651
vt 0.708873 0.430377
vt 0.708849 0.430382
vt 0.708898 0.430372
vt 0.708832 0.430289
vt 0.708857 0.430286
vt 0.708883 0.430283
vt 0.708825 0.430386
vt 0.708807 0.430295
vt 0.708782 0.430303
vt 0.708801 0.430390
vt 0.708759 0.430310
vt 0.708775 0.430393
vt 0.708735 0.430315
vt 0.708747 0.430396
vt 0.708711 0.430318
vt 0.708719 0.430400
vt 0.708688 0.430319
vt 0.708692 0.430403
vt 0.708736 0.430508
vt 0.708710 0.430512
vt 0.708763 0.430504
vt 0.708780 0.430633
vt 0.708755 0.430637
vt 0.708731 0.430640
vt 0.708761 0.430673
vt 0.708739 0.430677
vt 0.708788 0.430669
vt 0.708790 0.430501
vt 0.708803 0.430628
vt 0.708809 0.430653
vt 0.708821 0.430665
vt 0.708818 0.430681
vt 0.708796 0.430734
vt 0.708775 0.430735
vt 0.708762 0.430808
vt 0.708740 0.430810
vt 0.708758 0.430736
vt 0.708936 0.430712
vt 0.708954 0.430796
vt 0.708749 0.430848
vt 0.708722 0.430883
vt 0.708769 0.430834
vt 0.690428 0.431682
vt 0.689964 0.431609
vt 0.690494 0.431366
vt 0.690042 0.431175
vt 0.691012 0.431733
vt 0.690983 0.431868
vt 0.691063 0.431478
vt 0.708834 0.430663
vt 0.701362 0.431477
vt 0.701348 0.431695
vt 0.700647 0.431666
vt 0.700636 0.431373
vt 0.701384 0.431259
vt 0.700785 0.431132
vt 0.701897 0.431681
vt 0.701910 0.431485
vt 0.701935 0.431293
vt 0.702686 0.431338
vt 0.702662 0.431516
vt 0.702663 0.431696
vt 0.702671 0.431875
vt 0.701897 0.431884
vt 0.701341 0.431909
vt 0.701915 0.432094
vt 0.702698 0.432053
vt 0.701944 0.432307
vt 0.702722 0.432230
vt 0.702746 0.432408
vt 0.701978 0.432516
vt 0.702746 0.430987
vt 0.702713 0.431162
vt 0.701961 0.431098
vt 0.701984 0.430897
vt 0.701404 0.431029
vt 0.701437 0.430794
vt 0.700848 0.430893
vt 0.700975 0.430641
vt 0.708831 0.430647
vt 0.708827 0.430624
vt 0.708815 0.430498
vt 0.700660 0.431912
vt 0.679030 0.432087
vt 0.679066 0.431948
vt 0.708988 0.431604
vt 0.708950 0.431599
vt 0.697290 0.432506
vt 0.697333 0.432749
vt 0.697086 0.432822
vt 0.696928 0.432587
vt 0.697306 0.430569
vt 0.697224 0.430811
vt 0.696840 0.430715
vt 0.697051 0.430465
vt 0.698180 0.430955
vt 0.698206 0.430722
vt 0.698215 0.432529
vt 0.698197 0.432303
vt 0.697297 0.432227
vt 0.698200 0.432083
vt 0.696984 0.432325
vt 0.699098 0.432041
vt 0.699129 0.432252
vt 0.699162 0.432467
vt 0.700273 0.432216
vt 0.700307 0.432412
vt 0.700230 0.432023
vt 0.700294 0.430836
vt 0.700289 0.431034
vt 0.699146 0.431017
vt 0.699149 0.430799
vt 0.700259 0.431231
vt 0.699127 0.431230
vt 0.700221 0.431426
vt 0.699102 0.431435
vt 0.700201 0.431625
vt 0.699084 0.431636
vt 0.700199 0.431826
vt 0.699080 0.431837
vt 0.698205 0.431869
vt 0.698202 0.431654
vt 0.697276 0.431932
vt 0.697264 0.431634
vt 0.697235 0.431344
vt 0.698191 0.431431
vt 0.697218 0.431066
vt 0.698179 0.431197
vt 0.696818 0.431286
vt 0.696883 0.430987
vt 0.696881 0.431607
vt 0.696525 0.431568
vt 0.696371 0.431360
vt 0.696768 0.431974
vt 0.696303 0.431702
vt 0.696596 0.432319
vt 0.696295 0.432262
vt 0.696177 0.432061
vt 0.696784 0.432415
vt 0.696049 0.431853
vt 0.695873 0.431467
vt 0.695679 0.431802
vt 0.695642 0.432170
vt 0.708990 0.431821
vt 0.709035 0.431812
vt 0.708649 0.431744
vt 0.696079 0.432432
vt 0.708663 0.431688
vt 0.708702 0.431699
vt 0.708741 0.431703
vt 0.708662 0.431641
vt 0.709027 0.431656
vt 0.696457 0.432569
vt 0.708770 0.431699
vt 0.708782 0.431727
vt 0.708819 0.431693
vt 0.708838 0.431721
vt 0.708798 0.431751
vt 0.706358 0.432072
vt 0.705858 0.431927
vt 0.705879 0.431650
vt 0.706524 0.431756
vt 0.705038 0.431653
vt 0.705060 0.431892
vt 0.705042 0.431413
vt 0.704373 0.431897
vt 0.704379 0.431655
vt 0.704372 0.431416
vt 0.705073 0.431166
vt 0.704353 0.431175
vt 0.703878 0.431439
vt 0.703812 0.431224
vt 0.703890 0.431656
vt 0.703410 0.431698
vt 0.703427 0.431456
vt 0.703388 0.431216
vt 0.703326 0.430982
vt 0.703727 0.430998
vt 0.703272 0.430746
vt 0.703675 0.430751
vt 0.703294 0.432647
vt 0.703272 0.432408
vt 0.703704 0.432343
vt 0.703690 0.432600
vt 0.704305 0.430681
vt 0.704328 0.430931
vt 0.704338 0.432391
vt 0.704325 0.432644
vt 0.705099 0.430643
vt 0.705103 0.430907
vt 0.705130 0.432392
vt 0.705120 0.432656
vt 0.704357 0.432142
vt 0.705099 0.432135
vt 0.703774 0.432098
vt 0.703850 0.431874
vt 0.703309 0.432170
vt 0.703371 0.431937
vt 0.705848 0.432206
vt 0.708775 0.432085
vt 0.708698 0.432113
vt 0.708645 0.432138
vt 0.688211 0.430898
vt 0.688479 0.430931
vt 0.688155 0.432136
vt 0.688168 0.432024
vt 0.681196 0.431774
vt 0.681222 0.431552
vt 0.681354 0.431591
vt 0.681700 0.431606
vt 0.689105 0.431112
vt 0.689683 0.431243
vn 0.2303 -0.0892 0.9690
vn 0.8612 -0.1538 0.4845
vn -0.4845 0.0472 0.8735
vn -0.9590 0.1819 0.2172
vn -0.8933 0.4177 0.1658
vn -0.2963 0.2541 0.9207
vn -0.7796 0.2240 0.5849
vn -0.7403 0.2819 0.6103
vn -0.2903 0.9569 -0.0032
vn -0.8371 0.5420 0.0737
vn -0.4308 0.9022 0.0191
vn -0.6484 0.4152 0.6381
vn -0.4876 -0.1536 0.8594
vn -0.5146 -0.1859 0.8371
vn -0.5275 -0.2349 0.8164
vn -0.8591 0.2585 0.4418
vn 0.1954 -0.6344 0.7479
vn 0.1961 -0.6293 0.7520
vn 0.1950 -0.6393 0.7438
vn 0.1134 -0.6902 0.7147
vn 0.1947 -0.6395 0.7437
vn -0.4806 -0.1896 0.8562
vn 0.7160 -0.6395 0.2799
vn 0.9063 -0.1895 -0.3778
vn 0.6141 0.3524 -0.7062
vn -0.0612 0.8023 -0.5937
vn -0.5826 0.8023 -0.1298
vn -0.7728 0.3524 0.5278
vn -0.6985 0.6817 -0.2175
vn -0.0885 0.7249 -0.6832
vn 0.0308 0.6826 -0.7302
vn 0.6677 0.2272 -0.7089
vn 0.5558 0.2739 -0.7849
vn 0.9009 0.3524 0.2535
vn 0.2509 0.0007 0.9680
vn 0.8570 -0.2139 0.4687
vn 0.9718 -0.1500 -0.1817
vn 0.9282 -0.3262 -0.1791
vn 0.9788 -0.0728 -0.1915
vn 0.4984 0.0967 -0.8615
vn 0.4622 -0.1754 -0.8693
vn -0.1744 0.2131 -0.9613
vn -0.1614 0.1059 -0.9812
vn -0.1330 0.2659 -0.9548
vn 0.5495 -0.0949 -0.8301
vn 0.1427 0.2599 -0.9550
vn 0.5715 -0.1963 -0.7968
vn 0.8787 -0.2447 -0.4100
vn 0.6877 -0.2750 -0.6720
vn 0.9756 -0.1783 -0.1282
vn 0.8337 -0.4215 -0.3568
vn 0.8219 -0.3169 -0.4734
vn 0.5391 0.0193 -0.8420
vn 0.4932 0.2307 -0.8388
vn 0.8510 -0.2138 -0.4796
vn 0.7709 -0.6195 0.1481
vn 0.7183 -0.6748 0.1693
vn 0.2544 -0.6701 0.6974
vn 0.3324 -0.6232 0.7079
vn 0.8635 -0.4705 0.1819
vn 0.3657 -0.5071 0.7804
vn 0.6210 -0.1497 0.7694
vn 0.9279 -0.1351 0.3475
vn 0.9292 -0.0494 -0.3663
vn 0.9692 -0.1234 0.2133
vn 0.9192 0.1394 -0.3684
vn 0.7140 0.1777 -0.6772
vn 0.7115 0.0773 -0.6984
vn 0.9741 0.1552 0.1642
vn 0.9931 -0.0064 0.1171
vn 0.7414 -0.0195 -0.6708
vn 0.9860 0.1243 0.1115
vn 0.7368 0.0994 -0.6687
vn 0.1173 0.0374 -0.9924
vn 0.1181 0.0997 -0.9880
vn -0.6620 0.1252 -0.7390
vn -0.6626 0.1476 -0.7343
vn -0.9803 0.1561 -0.1212
vn -0.7310 0.1813 0.6578
vn -0.1150 0.1805 0.9768
vn -0.1149 0.1806 0.9768
vn -0.1134 0.1807 0.9770
vn 0.6665 0.1549 0.7292
vn -0.1165 0.1804 0.9767
vn 0.6700 0.0677 0.7392
vn -0.1658 -0.0386 0.9854
vn 0.6615 0.0911 0.7444
vn -0.2907 -0.0503 0.9555
vn -0.1338 -0.0878 0.9871
vn 0.6292 -0.1736 0.7576
vn -0.7883 -0.0134 0.6152
vn -0.7500 -0.0869 0.6557
vn -0.9963 0.0665 -0.0549
vn -0.9917 -0.0576 -0.1151
vn -0.7817 0.0527 -0.6214
vn -0.6866 0.0195 -0.7268
vn -0.1261 0.1304 -0.9834
vn 0.2086 0.0974 -0.9731
vn 0.1392 0.1264 -0.9822
vn -0.3133 0.2206 -0.9237
vn -0.8921 0.1050 -0.4395
vn -0.2504 0.2126 -0.9445
vn -0.9140 0.1016 -0.3928
vn -0.9142 0.1066 -0.3911
vn -0.9139 0.0963 -0.3943
vn -0.9140 0.1069 -0.3914
vn -0.2644 0.0370 -0.9637
vn 0.4092 0.2057 -0.8890
vn 0.3973 -0.0293 -0.9172
vn 0.9025 0.1695 -0.3959
vn 0.9335 -0.0283 -0.3574
vn 0.3450 0.2235 -0.9116
vn 0.5210 0.2065 -0.8282
vn 0.8292 0.2960 -0.4741
vn -0.4431 0.8171 -0.3689
vn 0.9364 0.1384 0.3225
vn 0.2372 0.0643 0.9693
vn 0.2473 0.4519 0.8571
vn -0.8196 0.3779 0.4307
vn -0.6950 0.7189 -0.0107
vn 0.2523 0.1344 0.9583
vn 0.9136 0.0630 0.4018
vn 0.9135 0.0632 0.4019
vn 0.9122 0.0652 0.4045
vn 0.9148 0.0610 0.3992
vn 0.2649 -0.0621 0.9623
vn -0.2995 -0.1647 0.9398
vn -0.3623 0.1462 0.9205
vn -0.9630 -0.1769 0.2031
vn -0.9402 0.1393 0.3109
vn -0.9262 -0.1125 -0.3599
vn -0.9136 -0.2999 -0.2744
vn -0.9004 -0.4015 0.1677
vn -0.9776 -0.1967 -0.0748
vn -0.9140 -0.0951 -0.3945
vn -0.8803 -0.4726 -0.0417
vn -0.7957 0.2259 -0.5621
vn -0.9471 0.2215 -0.2322
vn -0.2786 0.7124 -0.6441
vn -0.8264 0.5622 -0.0314
vn -0.9024 0.1531 0.4028
vn -0.7647 0.5393 0.3528
vn 0.5472 0.7947 0.2627
vn -0.3681 0.1690 0.9143
vn -0.8502 0.2029 0.4859
vn -0.2235 0.1805 0.9578
vn 0.3799 0.0996 0.9196
vn 0.2490 0.0663 0.9662
vn 0.7662 -0.0828 0.6372
vn 0.9058 -0.1152 0.4077
vn 0.9406 -0.0710 0.3320
vn 0.4189 -0.0611 0.9060
vn 0.9585 -0.0397 0.2822
vn 0.8894 -0.0180 -0.4567
vn 0.8396 -0.1620 -0.5185
vn 0.9556 -0.1142 0.2715
vn 0.8766 -0.2064 -0.4348
vn 0.2423 -0.1880 -0.9518
vn 0.2736 0.0339 -0.9613
vn -0.4208 -0.0760 -0.9040
vn -0.4114 0.0460 -0.9103
vn -0.4026 0.0151 -0.9153
vn 0.2399 -0.0757 -0.9678
vn -0.9460 0.1618 -0.2809
vn -0.9623 0.0053 -0.2720
vn -0.9048 -0.0441 0.4236
vn -0.9483 -0.0216 -0.3166
vn -0.9261 -0.0775 0.3692
vn -0.2579 -0.0647 0.9640
vn -0.2746 -0.0959 0.9568
vn -0.2845 -0.2040 0.9367
vn -0.7818 -0.1457 0.6063
vn -0.9352 -0.1788 0.3056
vn -0.9894 -0.0452 -0.1378
vn -0.9843 -0.0315 0.1735
vn -0.9149 -0.1419 -0.3779
vn -0.6391 -0.0235 -0.7688
vn -0.7303 0.1048 -0.6751
vn -0.4650 0.0756 -0.8821
vn -0.0198 -0.1445 -0.9893
vn -0.4011 -0.1379 -0.9056
vn 0.2478 -0.2801 -0.9275
vn 0.8189 -0.2776 -0.5024
vn 0.5734 -0.2620 -0.7763
vn 0.9529 -0.2974 -0.0592
vn 0.9615 -0.2040 0.1843
vn 0.8029 -0.0647 0.5926
vn 0.7064 -0.0238 0.7074
vn 0.4456 -0.0700 0.8925
vn 0.4483 -0.0988 0.8884
vn 0.1259 -0.0301 0.9916
vn 0.4562 0.0334 0.8893
vn -0.5203 -0.0125 0.8539
vn -0.5429 -0.2842 0.7902
vn 0.3431 -0.0638 0.9371
vn 0.2465 -0.0889 0.9651
vn -0.6040 -0.2376 0.7607
vn -0.9579 -0.2323 0.1685
vn -0.9421 -0.2992 0.1516
vn -0.7720 -0.0653 -0.6323
vn -0.7479 -0.0248 -0.6634
vn -0.3944 0.3417 -0.8530
vn -0.2224 0.1437 -0.9643
vn -0.7032 0.0305 -0.7103
vn -0.5256 0.3674 -0.7673
vn 0.2628 0.7967 -0.5443
vn -0.3961 0.9175 -0.0360
vn -0.6437 0.3881 -0.6596
vn -0.7249 0.3807 -0.5741
vn -0.7107 0.6816 0.1741
vn -0.3344 -0.0198 -0.9422
vn -0.4499 -0.0677 -0.8905
vn 0.3405 -0.5124 -0.7883
vn 0.3818 -0.4248 -0.8209
vn 0.8290 -0.4952 -0.2599
vn 0.8488 -0.4948 -0.1866
vn 0.8869 -0.3106 -0.3420
vn 0.3970 -0.3852 -0.8331
vn 0.9132 -0.0108 0.4073
vn 0.8349 -0.2065 0.5101
vn 0.4542 0.2860 0.8437
vn -0.3597 0.4776 0.8016
vn 0.4406 0.2069 0.8735
vn -0.2915 0.6359 0.7147
vn -0.8594 0.4050 0.3120
vn 0.5820 0.2730 0.7659
vn -0.0083 0.8970 0.4419
vn 0.6429 0.7649 -0.0412
vn 0.6899 0.2139 0.6916
vn 0.6383 0.1502 0.7550
vn 0.8335 -0.1465 0.5328
vn 0.7483 0.0671 0.6600
vn 0.9336 0.2897 -0.2110
vn 0.7444 -0.2525 0.6181
vn 0.9053 -0.1800 0.3847
vn 0.9751 -0.0646 -0.2123
vn 0.9068 0.0522 -0.4183
vn 0.9826 -0.0905 0.1623
vn 0.8094 0.1230 -0.5742
vn 0.6978 -0.1472 -0.7010
vn 0.7158 -0.6912 0.0989
vn 0.4282 -0.6946 0.5781
vn 0.6425 -0.2381 0.7283
vn 0.4928 -0.5244 0.6944
vn 0.8605 -0.4961 0.1162
vn -0.2334 -0.1929 0.9531
vn -0.2392 -0.1446 0.9601
vn -0.7152 0.2293 0.6602
vn -0.5095 0.4256 0.7479
vn -0.0532 0.0186 0.9984
vn -0.1413 0.5643 0.8134
vn -0.2852 0.0513 0.9571
vn -0.0229 -0.1441 0.9893
vn -0.3008 -0.2587 0.9179
vn -0.6638 -0.3665 0.6519
vn -0.0255 -0.0953 0.9951
vn -0.6105 -0.5237 0.5942
vn -0.9314 -0.3627 0.0289
vn -0.8315 -0.5365 -0.1443
vn -0.7536 -0.6565 0.0313
vn -0.4774 -0.5727 0.6664
vn -0.6226 -0.3877 -0.6797
vn -0.6466 -0.1667 -0.7444
vn -0.3885 -0.0252 -0.9211
vn -0.3086 -0.0881 -0.9471
vn -0.3665 -0.1213 -0.9225
vn -0.3327 0.1726 -0.9271
vn -0.4901 -0.0312 -0.8711
vn 0.2385 0.8424 -0.4831
vn -0.9977 -0.0442 -0.0507
vn -0.9345 -0.3343 -0.1227
vn -0.5291 -0.1411 -0.8368
vn 0.1238 0.1005 -0.9872
vn 0.1239 0.1004 -0.9872
vn 0.1204 0.1056 -0.9871
vn 0.1113 0.1101 -0.9877
vn 0.1110 0.1104 -0.9877
vn -0.5566 0.0139 -0.8306
vn 0.1269 0.0954 -0.9873
vn -0.5422 0.3274 -0.7738
vn 0.1309 0.2371 -0.9626
vn -0.9865 -0.0820 -0.1415
vn -0.9644 0.2509 -0.0830
vn -0.8164 0.0719 0.5730
vn -0.1216 -0.1677 0.9783
vn 0.5517 -0.2734 0.7880
vn 0.9748 -0.2027 0.0935
vn 0.8274 -0.0085 -0.5616
vn 0.8320 0.1380 -0.5374
vn 0.9835 0.1092 0.1444
vn 0.9331 0.3279 0.1477
vn 0.7916 0.3162 -0.5228
vn 0.8085 0.2958 -0.5088
vn 0.9480 0.2426 0.2057
vn 0.5283 0.1552 0.8348
vn 0.5233 0.1411 0.8404
vn 0.4671 0.0832 0.8803
vn 0.5217 0.0719 0.8501
vn 0.9312 0.2729 0.2415
vn 0.7624 0.6453 -0.0471
vn 0.3397 0.2634 0.9029
vn 0.1604 -0.1584 0.9743
vn 0.6204 0.5383 -0.5704
vn 0.8273 0.2488 -0.5037
vn 0.0117 0.2514 -0.9678
vn 0.1479 0.0255 -0.9887
vn 0.2535 0.4508 -0.8559
vn -0.1132 0.1596 -0.9807
vn -0.6705 -0.1321 -0.7300
vn 0.6014 0.3019 -0.7397
vn 0.5057 0.2231 -0.8334
vn 0.6759 0.1374 -0.7241
vn 0.4097 0.3756 -0.8313
vn 0.0907 0.7924 -0.6033
vn 0.3528 0.3170 -0.8803
vn -0.3316 0.8525 -0.4040
vn 0.3102 0.2906 -0.9052
vn -0.6518 0.6416 -0.4043
vn 0.7824 -0.1289 -0.6093
vn 0.2332 -0.1078 0.9664
vn -0.3226 -0.7424 0.5872
vn 0.1692 -0.1888 0.9673
vn -0.4226 -0.7144 0.5577
vn 0.2152 -0.3081 0.9267
vn 0.0782 -0.1986 0.9769
vn -0.5042 -0.6277 0.5931
vn -0.7596 -0.6479 -0.0566
vn -0.7490 -0.6608 -0.0488
vn -0.6911 -0.1802 -0.6999
vn -0.5991 -0.2469 -0.7616
vn -0.2802 0.3516 -0.8932
vn -0.1463 0.2578 -0.9551
vn 0.4431 0.6926 -0.5692
vn 0.3960 0.7467 -0.5344
vn 0.6979 0.7112 0.0844
vn 0.5322 0.3054 0.7896
vn 0.7324 0.6785 0.0565
vn 0.6534 0.2175 0.7251
vn 0.4231 0.3851 0.8202
vn 0.4394 0.8959 0.0658
vn 0.1298 0.3543 0.9261
vn -0.8663 0.0667 0.4951
vn -0.0676 0.1636 0.9842
vn -0.1272 -0.0872 0.9880
vn -0.7887 -0.3160 0.5274
vn -0.8340 -0.1164 0.5393
vn -0.1296 -0.0718 0.9890
vn 0.5526 0.0156 0.8333
vn -0.5836 -0.3548 -0.7304
vn -0.6219 -0.7806 -0.0629
vn 0.2334 -0.3619 0.9025
vn 0.4660 -0.2504 0.8486
vn -0.8858 0.0987 -0.4535
vn -0.4165 -0.1985 -0.8872
vn -0.4944 -0.0004 -0.8692
vn -0.4446 -0.0292 -0.8953
vn -0.8803 0.0940 -0.4650
vn 0.4636 0.8220 0.3308
vn 0.1518 0.8247 0.5449
vn 0.0090 0.8258 0.5639
vn 0.5604 0.7915 0.2440
vn 0.9058 0.2393 -0.3496
vn 0.7885 0.3309 -0.5185
vn 0.8599 0.3112 -0.4047
vn 0.6525 0.6980 0.2950
vn 0.7264 0.5596 0.3989
vn 0.8913 0.2645 -0.3683
vn 0.1856 0.5192 0.8342
vn 0.1088 0.6642 0.7396
vn -0.5555 0.1659 0.8148
vn -0.9118 -0.2294 0.3405
vn -0.7413 -0.5208 -0.4235
vn -0.2038 -0.4797 -0.8534
vn 0.5315 -0.1300 -0.8370
vn -0.1276 -0.6315 -0.7648
vn 0.5684 -0.1862 -0.8014
vn -0.0294 -0.7892 -0.6134
vn 0.6704 -0.3483 -0.6552
vn -0.6234 -0.7365 -0.2626
vn -0.6726 -0.6667 -0.3212
vn -0.9354 -0.1917 0.2971
vn -0.8818 -0.2794 0.3800
vn -0.5891 0.2193 0.7777
vn -0.6908 0.4019 0.6011
vn -0.9691 -0.0699 0.2367
vn -0.6894 0.4503 0.5674
vn -0.9728 0.1077 0.2053
vn -0.8336 -0.2586 -0.4880
vn -0.7411 -0.5384 -0.4010
vn -0.2737 -0.2566 -0.9270
vn -0.1739 -0.5884 -0.7897
vn 0.4329 -0.0266 -0.9010
vn 0.4861 0.0565 -0.8721
vn 0.6354 -0.1406 -0.7593
vn 0.0541 -0.2344 -0.9706
vn -0.2355 -0.3449 -0.9086
vn -0.6505 -0.3163 -0.6905
vn 0.3318 -0.2274 -0.9155
vn 0.3532 -0.0349 -0.9349
vn -0.2548 -0.1002 -0.9618
vn 0.9367 0.0759 -0.3418
vn 0.6675 -0.0644 -0.7418
vn 0.9540 -0.0005 -0.2998
vn 0.9562 -0.0087 0.2926
vn 0.9283 -0.0221 -0.3712
vn 0.9480 -0.0101 0.3182
vn 0.8481 -0.0657 -0.5258
vn 0.2464 -0.0460 -0.9681
vn 0.7760 0.0859 -0.6248
vn 0.7446 0.1714 -0.6451
vn 0.7512 0.3927 -0.5306
vn 0.8181 0.1049 0.5655
vn 0.6898 -0.0765 0.7199
vn 0.3323 -0.0133 0.9431
vn -0.0999 -0.2520 0.9625
vn 0.2833 -0.2800 0.9173
vn -0.4083 -0.3748 0.8323
vn 0.1706 -0.7073 0.6860
vn -0.4676 -0.7645 0.4437
vn -0.0102 -0.7792 0.6267
vn -0.5974 -0.7635 0.2453
vn -0.0970 -0.6351 0.7663
vn -0.6813 -0.6266 0.3785
vn -0.9009 -0.2739 -0.3368
vn -0.9296 -0.2199 -0.2959
vn -0.9296 -0.2199 -0.2958
vn -0.9292 -0.2194 -0.2974
vn -0.9300 -0.2203 -0.2943
vn -0.6738 -0.6414 0.3668
vn -0.7252 -0.4013 0.5595
vn -0.9906 -0.0959 -0.0978
vn -0.6829 0.2455 -0.6881
vn 0.1566 0.4456 -0.8814
vn 0.7254 0.3826 -0.5722
vn 0.0790 0.6773 -0.7314
vn 0.6643 0.6601 -0.3506
vn 0.0878 0.6548 -0.7507
vn 0.6723 0.6448 -0.3637
vn 0.9220 0.2341 0.3083
vn 0.9238 0.2307 0.3055
vn 0.9200 0.2374 0.3118
vn 0.9239 0.2309 0.3050
vn 0.6424 -0.2688 0.7177
vn 0.6314 -0.2425 0.7366
vn 0.9808 0.1346 0.1408
vn 0.6519 -0.2003 0.7313
vn -0.0882 -0.6622 0.7441
vn -0.1538 -0.4440 0.8827
vn 0.8875 0.2924 0.3562
vn 0.6714 -0.3072 0.6744
vn 0.8294 0.1323 0.5427
vn 0.6376 -0.2466 0.7298
vn 0.5690 0.8009 -0.1866
vn -0.6410 0.2621 -0.7214
vn -0.6473 0.2761 -0.7104
vn -0.0109 0.8342 -0.5514
vn -0.6949 0.3292 -0.6394
vn 0.2013 0.1967 0.9596
vn -0.9571 -0.0010 0.2898
vn -0.3113 0.0348 0.9497
vn -0.3569 0.2412 0.9025
vn -0.9791 0.1173 0.1659
vn -0.4517 0.1020 0.8863
vn -0.6837 0.0689 0.7265
vn -0.0395 0.1513 0.9877
vn -0.0011 0.0221 0.9998
vn -0.5001 0.5904 -0.6335
vn -0.7942 0.6075 -0.0149
vn -0.6274 0.6093 -0.4849
vn -0.7586 0.2578 0.5984
vn -0.4225 -0.2195 0.8793
vn -0.4381 -0.1742 0.8819
vn -0.4846 -0.2068 0.8499
vn 0.1836 -0.6744 0.7152
vn 0.1329 -0.6614 0.7382
vn 0.6930 -0.6915 0.2042
vn 0.6526 -0.7252 0.2196
vn 0.6503 -0.7171 0.2506
vn 0.8686 -0.2012 -0.4527
vn 0.9315 -0.0587 -0.3589
vn 0.9000 -0.1986 -0.3880
vn 0.7299 -0.6139 0.3005
vn -0.4118 0.0578 0.9095
vn -0.9675 0.2237 -0.1181
vn -0.7223 0.2389 0.6490
vn -0.8052 0.3491 -0.4795
vn -0.8551 0.2492 -0.4545
usemtl Material.001
f 1/1/1 2/2/1 3/3/1 4/4/1
f 4/4/2 3/3/2 5/5/2 6/6/2
f 7/7/3 8/8/3 2/2/3 1/1/3
f 9/9/4 10/10/4 8/8/4 7/7/4
f 11/11/5 8/8/5 10/10/5 12/12/5
f 13/13/6 2/2/6 8/8/6 11/11/6
f 14/14/7 11/11/7 15/15/7 16/16/7
f 14/17/8 17/18/8 18/19/8 11/20/8
f 11/21/9 18/22/9 13/23/9
f 12/12/10 19/24/10 15/15/10 11/11/10
f 20/25/11 21/26/11 13/23/11 18/22/11
f 22/27/12 20/28/12 18/19/12 17/18/12
f 23/29/13 22/27/13 17/18/13 24/30/13
f 25/31/14 24/30/14 17/18/14 14/17/14
f 26/32/15 22/27/15 23/29/15 27/33/15
f 28/34/16 20/28/16 22/27/16 26/32/16
f 27/33/17 23/29/18 29/35/18 30/36/19
f 29/35/20 23/29/20 24/30/20 31/37/20
f 32/38/21 33/39/21 27/33/17 30/36/19
f 33/39/22 34/40/22 26/32/22 27/33/22
f 35/41/23 32/38/23 30/36/23 36/42/23
f 37/43/24 35/41/24 36/42/24 38/44/24
f 39/45/25 37/43/25 38/44/25 40/46/25
f 41/47/26 39/45/26 40/46/26 42/48/26
f 43/49/27 41/47/27 42/48/27 28/50/27
f 34/40/28 43/51/28 28/34/28 26/32/28
f 42/48/29 21/26/29 20/25/29 28/50/29
f 40/46/30 44/52/30 21/26/30 42/48/30
f 21/26/31 44/52/31 45/53/31 13/23/31
f 38/44/32 46/54/32 44/52/32 40/46/32
f 44/52/33 46/54/33 47/55/33 45/53/33
f 48/56/34 45/57/34 47/58/34 49/59/34
f 45/57/35 3/3/35 2/2/35 13/13/35
f 48/56/36 5/5/36 3/3/36 45/57/36
f 50/60/37 48/56/37 49/59/37 51/61/37
f 50/60/38 52/62/38 5/5/38 48/56/38
f 6/6/39 5/5/39 52/62/39 53/63/39
f 53/63/40 52/62/40 54/64/40 55/65/40
f 56/66/41 54/64/41 52/62/41 50/60/41
f 55/65/42 54/64/42 57/67/42 58/68/42
f 59/69/43 57/67/43 54/64/43 56/66/43
f 56/66/44 60/70/44 61/71/44 59/69/44
f 50/60/45 51/61/45 60/70/45 56/66/45
f 60/70/46 62/72/46 63/73/46 61/71/46
f 51/61/47 64/74/47 62/72/47 60/70/47
f 51/61/48 49/59/48 65/75/48 64/74/48
f 62/72/49 64/74/49 65/75/49 66/76/49
f 49/59/50 47/58/50 67/77/50 65/75/50
f 66/76/51 65/75/51 67/77/51 68/78/51
f 69/79/52 66/76/52 68/78/52 70/80/52
f 63/73/53 62/72/53 66/76/53 69/79/53
f 63/73/54 69/79/54 71/81/54 72/82/54
f 69/79/55 70/80/55 73/83/55 71/81/55
f 70/80/56 74/84/56 75/85/56 73/83/56
f 68/78/57 76/86/57 74/84/57 70/80/57
f 76/86/58 77/87/58 78/88/58 74/84/58
f 74/84/59 78/88/59 79/89/59 75/85/59
f 80/90/60 73/83/60 75/85/60 81/91/60
f 81/91/61 75/85/61 79/89/61 82/92/61
f 83/93/62 84/94/62 81/91/62 82/92/62
f 84/94/63 85/95/63 80/90/63 81/91/63
f 85/95/64 71/81/64 73/83/64 80/90/64
f 86/96/65 87/97/65 85/98/65 84/99/65
f 88/100/66 71/101/66 85/98/66 87/97/66
f 87/102/67 89/103/67 90/104/67 91/105/67
f 87/102/68 91/105/68 92/106/68 88/107/68
f 86/96/69 93/108/69 89/109/69 87/97/69
f 93/108/70 94/110/70 95/111/70 89/109/70
f 89/103/71 95/112/71 96/113/71 90/104/71
f 95/111/72 94/110/72 97/114/72 98/115/72
f 96/113/73 95/112/73 98/116/73 99/117/73
f 90/104/74 96/113/74 100/118/74 101/119/74
f 100/118/75 96/113/75 99/117/75 102/120/75
f 103/121/76 100/118/76 102/120/76 104/122/76
f 100/118/77 103/121/77 105/123/77 101/119/77
f 106/124/78 103/121/78 104/122/78 107/125/78
f 108/126/79 106/124/79 107/125/79 109/127/79
f 110/128/80 108/126/81 109/127/82 111/129/82
f 94/110/83 110/128/83 111/129/83 97/114/83
f 112/130/84 108/126/81 110/128/80 113/131/84
f 113/131/85 110/128/85 94/110/85 93/108/85
f 114/132/86 112/130/86 113/131/86 115/133/86
f 115/133/87 113/131/87 93/108/87 86/96/87
f 115/133/88 116/134/88 117/135/88 114/132/88
f 115/133/89 83/136/89 118/137/89 116/134/89
f 115/133/90 86/96/90 84/99/90 83/136/90
f 119/138/91 114/132/91 117/135/91 120/139/91
f 119/138/92 121/140/92 112/130/92 114/132/92
f 122/141/93 123/142/93 119/138/93 120/139/93
f 123/142/94 105/123/94 121/140/94 119/138/94
f 124/143/95 125/144/95 123/142/95 122/141/95
f 101/119/96 105/123/96 123/142/96 125/144/96
f 125/144/97 124/143/97 126/145/97 127/146/97
f 125/144/98 127/146/98 92/106/98 91/105/98
f 91/105/99 90/104/99 101/119/99 125/144/99
f 128/147/100 129/148/100 126/145/100 124/143/100
f 128/147/101 124/143/101 122/141/101 130/149/101
f 131/150/102 132/151/102 129/148/102 128/147/102
f 133/152/103 131/150/104 128/147/105 130/149/105
f 134/153/106 135/154/106 131/150/104 133/152/103
f 135/154/107 136/155/107 132/151/107 131/150/107
f 132/151/108 137/156/108 138/157/108 129/148/108
f 136/155/109 139/158/109 137/156/109 132/151/109
f 137/159/110 140/160/110 72/161/110 138/162/110
f 139/163/111 141/164/111 140/160/111 137/159/111
f 138/157/112 127/146/112 126/145/112 129/148/112
f 138/157/113 88/107/113 92/106/113 127/146/113
f 138/162/114 72/161/114 71/101/114 88/100/114
f 142/165/115 63/73/115 72/82/115 143/166/115
f 140/160/116 144/167/116 143/168/116 72/161/116
f 144/167/117 145/169/117 146/170/117 143/168/117
f 143/168/118 146/170/118 147/171/118 148/172/118
f 149/173/119 150/174/119 143/175/119 148/176/119
f 150/174/120 142/177/120 143/175/120
f 151/178/121 152/179/121 145/169/121 144/167/121
f 141/164/122 151/178/123 144/167/124 140/160/124
f 153/180/125 154/181/125 151/178/123 141/164/122
f 154/181/126 155/182/126 152/179/126 151/178/126
f 155/182/127 156/183/127 157/184/127 152/179/127
f 152/179/128 157/184/128 158/185/128 145/169/128
f 156/183/129 159/186/129 134/153/129 157/184/129
f 157/184/130 134/153/130 133/152/130 158/185/130
f 159/186/131 160/187/131 135/154/131 134/153/131
f 159/186/132 161/188/132 162/189/132 160/187/132
f 156/183/133 163/190/133 161/188/133 159/186/133
f 161/188/134 164/191/134 165/192/134 162/189/134
f 163/190/135 164/191/135 161/188/135
f 156/193/136 166/194/136 167/195/136 163/196/136
f 163/196/137 167/195/137 168/197/137 169/198/137
f 163/196/138 169/198/138 164/199/138
f 169/198/139 168/197/139 170/200/139 171/201/139
f 164/199/140 169/198/140 171/201/140 172/202/140
f 173/203/141 174/204/141 175/205/141 171/206/141
f 172/207/142 171/206/142 175/205/142 176/208/142
f 171/209/143 170/210/143 177/211/143 178/212/143
f 171/206/144 178/213/144 179/214/144 173/203/144
f 180/215/145 174/204/145 173/203/145 181/216/145
f 181/216/146 173/203/146 179/214/146 182/217/146
f 182/217/147 179/214/147 183/218/147 184/219/147
f 178/213/148 185/220/148 183/218/148 179/214/148
f 186/221/149 183/218/149 185/220/149 187/222/149
f 186/221/150 188/223/150 189/224/150 183/218/150
f 184/219/151 183/218/151 189/224/151 190/225/151
f 191/226/152 192/227/152 182/217/152 184/219/152
f 193/228/153 191/226/153 184/219/153 190/225/153
f 194/229/154 193/228/154 190/225/154 195/230/154
f 190/225/155 189/224/155 196/231/155 195/230/155
f 197/232/156 198/233/156 191/226/156 193/228/156
f 199/234/157 197/232/157 193/228/157 194/229/157
f 200/235/158 199/236/158 194/237/158 201/238/158
f 201/238/159 194/237/159 195/239/159 202/240/159
f 203/241/160 200/235/160 201/238/160 204/242/160
f 204/242/161 201/238/161 202/240/161 205/243/161
f 202/240/162 206/244/162 207/245/162 205/243/162
f 196/246/163 206/244/163 202/240/163 195/239/163
f 205/243/164 207/245/164 174/204/164 180/215/164
f 208/247/165 204/242/165 205/243/165 180/215/165
f 209/248/166 208/247/166 180/215/166 181/216/166
f 210/249/167 203/241/167 204/242/167 208/247/167
f 211/250/168 210/249/168 208/247/168 209/248/168
f 192/227/169 209/248/169 181/216/169 182/217/169
f 212/251/170 211/250/170 209/248/170 192/227/170
f 211/250/171 212/251/171 213/252/171 214/253/171
f 211/250/172 214/253/172 215/254/172 216/255/172
f 211/250/173 216/255/173 217/256/173 210/249/173
f 218/257/174 219/258/174 217/256/174 216/255/174
f 218/257/175 216/255/175 215/254/175 220/259/175
f 203/241/176 210/249/176 217/256/176 219/258/176
f 203/241/177 219/258/177 221/260/177 222/261/177
f 218/257/178 223/262/178 221/260/178 219/258/178
f 224/263/179 222/261/179 221/260/179 223/262/179
f 224/263/180 225/264/180 226/265/180 222/261/180
f 203/241/181 222/261/181 226/265/181 200/235/181
f 199/236/182 200/235/182 226/265/182 225/264/182
f 199/234/183 225/266/183 227/267/183 197/232/183
f 225/266/184 224/268/184 228/269/184 227/267/184
f 227/267/185 228/269/185 229/270/185 230/271/185
f 197/232/186 227/267/186 230/271/186 198/233/186
f 230/271/187 229/270/187 231/272/187 232/273/187
f 198/233/188 230/271/188 232/273/188 233/274/188
f 198/233/189 212/251/189 192/227/189 191/226/189
f 198/233/190 233/274/190 213/252/190 212/251/190
f 234/275/191 214/253/191 213/252/191 233/274/191
f 233/274/192 232/273/192 235/276/192 234/275/192
f 234/275/193 220/259/193 215/254/193 214/253/193
f 236/277/194 237/278/194 220/259/194 234/275/194
f 238/279/195 236/277/195 234/275/195 235/276/195
f 238/279/196 239/280/196 240/281/196 236/277/196
f 241/282/197 237/278/197 236/277/197 240/281/197
f 242/283/198 243/284/198 237/278/198 241/282/198
f 237/278/199 243/284/199 218/257/199 220/259/199
f 244/285/200 245/286/200 243/284/200 242/283/200
f 243/284/201 245/286/201 246/287/201 218/257/201
f 245/286/202 247/288/202 248/289/202 246/287/202
f 249/290/203 247/288/203 245/286/203 244/285/203
f 218/257/204 246/287/204 250/291/204 223/262/204
f 248/289/205 251/292/205 250/291/205 246/287/205
f 247/293/206 252/294/206 253/295/206 248/296/206
f 254/297/207 255/298/207 248/299/207 253/300/207
f 255/301/208 256/302/208 251/303/208 248/304/208
f 257/305/209 258/306/209 256/302/209 255/301/209
f 259/307/210 257/308/210 255/298/210 254/297/210
f 258/306/211 260/309/211 261/310/211 256/302/211
f 256/302/212 261/310/212 224/311/212 251/303/212
f 261/310/213 262/312/213 228/313/213 224/311/213
f 260/309/214 263/314/214 262/312/214 261/310/214
f 263/314/215 264/315/215 265/316/215 262/312/215
f 262/312/216 265/316/216 229/317/216 228/313/216
f 266/318/217 267/319/217 264/315/217 263/314/217
f 268/320/218 266/318/218 263/314/218 260/309/218
f 267/319/219 269/321/219 270/322/219 264/315/219
f 264/315/220 270/322/220 271/323/220 265/316/220
f 269/321/221 272/324/221 273/325/221 270/322/221
f 272/324/222 274/326/222 259/307/222 273/325/222
f 270/322/223 273/325/223 275/327/223 271/323/223
f 273/325/224 259/307/224 254/297/224 275/327/224
f 274/326/225 276/328/225 257/308/225 259/307/225
f 271/323/226 275/327/226 277/329/226 231/330/226
f 275/327/227 254/297/227 253/300/227 277/329/227
f 252/294/228 278/331/228 277/332/228 253/295/228
f 278/331/229 238/279/229 235/276/229 277/332/229
f 232/273/230 231/272/230 277/332/230 235/276/230
f 265/316/231 271/323/231 231/330/231 229/317/231
f 239/280/232 238/279/232 278/331/232 279/333/232
f 279/333/233 278/331/233 252/294/233 280/334/233
f 279/333/234 281/335/234 282/336/234 239/280/234
f 279/333/235 283/337/235 284/338/235 281/335/235
f 279/333/236 280/334/236 285/339/236 283/337/236
f 286/340/237 283/337/237 285/339/237 287/341/237
f 286/340/238 288/342/238 284/338/238 283/337/238
f 286/340/239 287/341/239 289/343/239 290/344/239
f 291/345/240 292/346/240 286/347/240 290/348/240
f 292/346/241 293/349/241 288/350/241 286/347/241
f 293/349/242 294/351/242 295/352/242 288/350/242
f 295/353/243 281/335/243 284/338/243 288/342/243
f 296/354/244 297/355/244 294/351/244 293/349/244
f 298/356/245 296/354/245 293/349/245 292/346/245
f 297/355/246 299/357/246 300/358/246 294/351/246
f 294/351/247 300/358/247 301/359/247 295/352/247
f 299/357/248 302/360/248 303/361/248 300/358/248
f 300/358/249 303/361/249 304/362/249 301/359/249
f 295/353/250 301/363/250 305/364/250 306/365/250
f 304/366/251 307/367/251 305/364/251 301/363/251
f 308/368/252 306/365/252 305/364/252 307/367/252
f 295/353/253 306/365/253 309/369/253
f 240/281/254 309/369/254 306/365/254 308/368/254
f 310/370/255 241/282/255 240/281/255 308/368/255
f 308/368/256 307/367/256 311/371/256 312/372/256
f 313/373/257 310/370/257 308/368/257 312/372/257
f 242/283/258 241/282/258 310/370/258 314/374/258
f 315/375/259 314/374/259 310/370/259 313/373/259 316/376/259
f 313/373/260 317/377/260 318/378/260 316/376/260
f 312/372/261 319/379/261 317/377/261 313/373/261
f 318/378/262 320/380/262 321/381/262 316/376/262
f 315/375/263 316/376/263 321/381/263 322/382/263
f 323/383/264 324/384/264 314/374/264 315/375/264 322/382/264
f 325/385/265 322/382/265 321/381/265 320/380/265
f 326/386/266 323/383/266 322/382/266 325/385/266
f 327/387/267 328/388/267 325/389/267 320/390/267
f 329/391/268 330/392/268 326/386/268 325/385/268
f 328/388/269 331/393/269 332/394/269 325/389/269
f 333/395/270 329/391/270 325/385/270 332/396/270
f 334/397/271 335/398/271 329/391/271 333/395/271
f 335/398/272 336/399/272 330/392/272 329/391/272
f 336/399/273 337/400/274 338/401/275 330/392/276
f 330/392/276 338/401/275 339/402/277 326/386/277
f 340/403/278 336/399/278 335/398/278 341/404/278
f 342/405/279 337/400/274 336/399/273 340/403/279
f 343/406/280 344/407/280 340/403/280 341/404/280
f 344/407/281 345/408/281 342/405/281 340/403/281
f 341/404/282 335/398/282 334/397/282 346/409/282
f 347/410/283 343/406/283 341/404/283 346/409/283
f 348/411/284 347/410/284 346/409/284 349/412/284
f 350/413/285 348/411/285 349/412/285 351/414/285
f 352/415/286 350/413/286 351/414/286 353/416/286
f 354/417/287 352/415/287 353/416/287 355/418/287
f 345/419/288 354/417/288 355/418/288 342/420/288
f 355/418/289 356/421/289 337/422/289 342/420/289
f 353/416/290 357/423/290 356/421/290 355/418/290
f 356/421/291 357/423/291 358/424/291 359/425/291
f 337/422/292 356/421/292 359/425/292 338/426/292
f 338/426/293 359/425/293 360/427/293 339/428/293
f 359/425/294 358/424/294 361/429/294 360/427/294
f 357/423/295 362/430/295 363/431/295 358/424/295
f 358/424/296 363/431/296 364/432/296 361/429/296
f 361/429/297 364/432/297 365/433/297 366/434/297
f 366/434/298 311/371/298 367/435/298 361/429/298
f 361/429/299 367/435/299 368/436/299 360/427/299
f 367/435/300 304/366/300 369/437/300 368/436/300
f 311/371/301 307/367/301 304/366/301 367/435/301
f 319/379/302 312/372/302 311/371/302 366/434/302
f 368/436/303 369/437/303 370/438/303 371/439/303
f 360/427/304 368/436/304 371/439/304 339/428/304
f 371/440/305 370/441/305 324/384/305 323/383/305
f 339/402/306 371/440/306 323/383/306 326/386/306
f 369/437/307 372/442/307 249/443/307 370/438/307
f 370/441/308 249/290/308 244/285/308 324/384/308
f 324/384/309 244/285/309 242/283/309 314/374/309
f 280/334/310 252/294/310 247/293/310 249/443/310
f 249/443/311 372/442/311 289/343/311 287/341/311
f 249/443/312 287/341/312 285/339/312 280/334/312
f 373/444/313 290/344/313 289/343/313 372/442/313
f 373/444/314 372/442/314 369/437/314 304/366/314
f 374/445/315 291/345/315 290/348/315 373/446/315
f 303/447/316 374/445/316 373/446/316 304/448/316
f 375/449/317 376/450/317 291/345/317 374/445/317
f 302/451/318 375/449/318 374/445/318 303/447/318
f 376/450/319 298/356/319 292/346/319 291/345/319
f 319/379/320 366/434/320 365/433/320 377/452/320
f 378/453/321 379/454/321 317/455/321 319/456/321
f 380/457/322 378/453/322 319/456/322 377/458/322
f 381/459/323 379/454/323 378/453/323 382/460/323
f 378/453/324 380/457/324 383/461/324 382/460/324
f 384/462/325 385/463/325 382/460/325 383/461/325
f 385/463/326 386/464/326 381/459/326 382/460/326
f 386/464/327 387/465/327 388/466/327 381/459/327
f 388/466/328 389/467/328 379/454/328 381/459/328
f 390/468/329 327/387/329 389/467/329 388/466/329
f 387/465/330 391/469/330 390/468/330 388/466/330
f 392/470/331 328/388/331 327/387/331 390/468/331
f 391/469/332 393/471/332 392/470/332 390/468/332
f 393/471/333 394/472/333 395/473/333 392/470/333
f 395/473/334 331/393/334 328/388/334 392/470/334
f 394/474/335 396/475/335 397/476/335 395/477/335
f 396/475/336 384/462/336 383/461/336 397/476/336
f 397/476/337 398/478/337 331/479/337 395/477/337
f 383/461/338 380/457/338 398/478/338 397/476/338
f 398/478/339 380/457/339 377/458/339 399/480/339
f 331/479/340 398/478/340 399/480/340 332/481/340
f 399/482/341 377/452/341 365/433/341 364/432/341
f 400/483/342 333/395/342 332/396/342 399/482/342
f 363/431/343 400/483/343 399/482/343 364/432/343
f 362/430/344 401/484/344 400/483/344 363/431/344
f 401/484/345 334/397/345 333/395/345 400/483/345
f 346/409/346 334/397/346 401/484/346 349/412/346
f 401/484/347 362/430/347 351/414/347 349/412/347
f 351/414/348 362/430/348 357/423/348 353/416/348
f 389/467/349 327/387/349 320/390/349 318/485/349
f 379/454/350 389/467/350 318/485/350 317/455/350
f 240/281/351 239/280/351 282/336/351 309/369/351
f 295/353/352 309/369/352 282/336/352 281/335/352
f 276/486/353 402/487/353 258/306/353 257/305/353
f 402/487/354 268/320/354 260/309/354 258/306/354
f 224/263/355 223/262/355 250/291/355 251/292/355
f 207/245/356 206/244/356 403/488/356 404/489/356
f 174/204/357 207/245/357 404/489/357 175/205/357
f 405/490/358 406/491/358 404/492/358 403/493/358
f 406/494/359 407/495/359 175/496/359 404/497/359
f 408/498/360 407/495/360 406/494/360 409/499/360
f 409/500/361 406/491/361 405/490/361 410/501/361
f 410/501/362 405/490/362 411/502/362 412/503/362
f 411/502/363 405/490/363 403/493/363 413/504/363
f 414/505/364 415/506/364 410/501/364 412/503/364
f 415/506/365 416/507/365 409/500/365 410/501/365
f 417/508/366 418/509/366 416/507/366 415/506/366
f 419/510/367 417/508/367 415/506/367 414/505/367
f 418/511/368 420/512/368 421/513/368 416/514/368
f 416/514/369 421/513/369 408/498/369 409/499/369
f 420/512/370 422/515/370 423/516/370 421/513/370
f 422/515/371 424/517/371 425/518/371 423/516/371
f 424/517/372 426/519/372 427/520/372 425/518/372
f 426/519/373 428/521/373 429/522/373 427/520/373
f 428/521/374 419/510/374 414/505/374 429/522/374
f 427/520/375 429/522/375 430/523/375 431/524/375
f 429/522/376 414/505/376 412/503/376 430/523/376
f 430/523/377 432/525/377 433/526/377 431/524/377
f 412/503/378 411/502/378 432/525/378 430/523/378
f 431/524/379 433/526/379 434/527/379 435/528/379
f 425/518/380 427/520/380 431/524/380 435/528/380
f 434/527/381 436/529/381 437/530/381 435/528/381
f 423/516/382 425/518/382 435/528/382 437/530/382
f 421/513/383 423/516/383 437/530/383 408/498/383
f 437/530/384 436/529/384 407/495/384 408/498/384
f 436/529/385 434/527/385 165/531/385 176/532/385
f 407/495/386 436/529/386 176/532/386 175/496/386
f 164/191/387 172/207/387 176/208/387 165/192/387
f 165/531/388 438/533/388 439/534/388 162/535/388
f 434/527/389 433/526/389 438/533/389 165/531/389
f 440/536/390 441/537/390 439/534/390 438/533/390
f 433/526/391 432/525/391 440/536/391 438/533/391
f 440/536/392 442/538/392 443/539/392 444/540/392
f 440/536/393 413/504/393 445/541/393 442/538/393
f 432/525/394 411/502/394 413/504/394 440/536/394
f 440/536/395 444/540/395 446/542/395 441/537/395
f 160/543/396 441/537/396 446/542/396 447/544/396
f 160/543/397 162/535/397 439/534/397 441/537/397
f 448/545/398 447/544/398 446/542/398 444/540/398
f 447/546/399 448/547/399 139/158/399 136/155/399
f 160/187/400 447/546/400 136/155/400 135/154/400
f 448/548/401 153/180/401 141/164/401 139/163/401
f 448/545/402 444/540/402 443/539/402 449/549/402
f 153/180/403 448/548/403 449/550/403 450/551/403
f 154/181/404 153/180/404 450/551/404 451/552/404
f 450/551/405 449/550/405 452/553/405 188/223/405
f 451/552/406 450/551/406 188/223/406 186/221/406
f 188/223/407 452/553/407 196/231/407 189/224/407
f 206/244/408 196/246/408 452/554/408 403/488/408
f 452/555/409 449/549/409 443/539/409 442/538/409
f 452/555/410 442/538/410 445/541/410
f 403/493/411 452/555/411 445/541/411 413/504/411
f 186/221/412 187/222/412 453/556/412 451/552/412
f 154/181/413 451/552/413 453/556/413 454/557/413
f 455/558/414 454/557/414 453/556/414 187/222/414
f 455/558/415 456/559/415 457/560/415 454/557/415
f 154/181/416 454/557/416 457/560/416 155/182/416
f 156/183/417 155/182/417 457/560/417 456/559/417
f 455/561/418 458/562/418 459/563/418 456/564/418
f 456/564/419 459/563/419 166/194/419 156/193/419
f 460/565/420 459/563/420 458/562/420 461/566/420
f 462/567/421 166/194/421 459/563/421 460/565/421
f 463/568/422 464/569/422 460/565/422 461/566/422
f 464/569/423 465/570/423 462/567/423 460/565/423
f 466/571/424 167/195/424 166/194/424 462/567/424
f 465/570/425 467/572/426 466/571/427 462/567/427
f 468/573/428 469/574/428 467/572/426 465/570/425
f 470/575/429 468/573/429 465/570/429 464/569/429
f 471/576/430 472/577/430 468/573/430 470/575/430
f 472/577/431 473/578/431 469/574/431 468/573/431
f 473/578/432 474/579/432 475/580/432 469/574/432
f 474/579/433 476/581/433 477/582/433 475/580/433
f 476/583/434 478/584/434 479/585/434 477/586/434
f 475/580/435 477/582/435 480/587/435 481/588/435
f 477/586/436 479/585/436 482/589/436 480/590/436
f 481/588/437 480/587/437 483/591/437 484/592/437
f 480/590/438 482/589/438 485/593/438 483/594/438
f 482/589/439 486/595/440 487/596/441 485/593/441
f 479/585/442 488/597/442 486/595/440 482/589/439
f 488/597/443 489/598/443 463/568/443 486/595/443
f 486/595/444 463/568/444 461/566/444 487/596/444
f 478/584/445 490/599/445 488/597/445 479/585/445
f 490/599/446 491/600/446 489/598/446 488/597/446
f 489/598/447 470/575/447 464/569/447 463/568/447
f 491/600/448 471/576/448 470/575/448 489/598/448
f 487/596/449 492/601/449 177/211/449 485/593/449
f 458/562/450 492/601/450 487/596/450 461/566/450
f 492/601/451 455/561/451 178/212/451 177/211/451
f 455/561/452 492/601/452 458/562/452
f 485/593/453 177/211/453 170/210/453 483/594/453
f 467/572/454 481/588/454 484/592/454 466/571/454
f 469/574/455 475/580/455 481/588/455 467/572/455
f 483/591/456 170/200/456 168/197/456 484/592/456
f 484/592/457 168/197/457 167/195/457 466/571/457
f 455/558/458 187/222/458 185/220/458 178/213/458
f 158/185/459 133/152/459 130/149/459 493/602/459
f 145/169/460 158/185/460 493/602/460 146/170/460
f 493/602/461 494/603/461 147/171/461 146/170/461
f 130/149/462 122/141/462 120/139/462 493/602/462
f 493/602/463 116/134/463 118/137/463 494/603/463
f 493/602/464 120/139/464 117/135/464 116/134/464
f 82/604/465 148/172/465 147/171/465 494/603/465
f 82/604/466 494/603/466 118/137/466 83/136/466
f 61/71/467 63/73/467 142/165/467 19/605/467
f 19/24/468 142/177/468 150/174/468 15/15/468
f 59/69/469 61/71/469 19/605/469 12/606/469
f 16/16/470 15/15/470 150/174/470 149/173/470
f 77/87/471 16/16/471 149/173/471 78/88/471
f 78/88/472 149/173/472 148/176/472 79/89/472
f 25/607/473 14/14/473 16/16/473 77/87/473
f 495/608/474 25/607/474 77/87/474 76/86/474
f 495/609/475 31/37/475 24/30/475 25/31/475
f 67/77/476 495/608/476 76/86/476 68/78/476
f 67/610/477 496/611/477 31/37/477 495/609/477
f 497/612/478 29/35/478 31/37/478 496/611/478
f 46/54/479 497/612/479 496/611/479 47/55/479
f 47/55/480 496/611/480 67/610/480
f 497/612/481 46/54/481 38/44/481 36/42/481
f 30/36/482 29/35/482 497/612/482 36/42/482
f 82/92/483 79/89/483 148/176/483
f 105/123/484 103/121/484 106/124/484 121/140/484
f 121/140/485 106/124/485 108/126/485 112/130/485
f 12/606/486 10/613/486 57/67/486 59/69/486
f 58/68/487 57/67/487 10/613/487 9/614/487
