mtllib LOW_POLY_set.mtl
o lp_tree5_Cube_010
v 19.184174 5.026734 -37.858723
v 19.068102 4.991337 -37.592930
v 18.943720 5.219201 -37.663357
v 19.098621 5.253044 -37.917610
v 19.146582 5.019724 -37.241379
v 18.931107 5.270432 -37.350155
v 18.745384 5.530688 -37.466270
v 18.777796 5.454206 -37.761738
v 18.974075 5.528573 -38.009373
v 16.577930 8.570717 -38.514450
v 16.448036 8.547993 -38.661018
v 16.486141 8.426266 -38.522583
v 16.493483 8.457791 -38.387878
v 16.466042 8.458865 -38.777191
v 16.502470 8.320669 -38.529934
v 16.524071 8.330882 -38.274036
v 21.945122 8.411609 -39.675755
v 21.883705 8.524792 -39.732182
v 22.824453 8.996697 -39.708347
v 22.889706 8.891792 -39.670147
v 21.829374 8.638935 -39.691681
v 22.769876 9.102053 -39.656242
v 19.165024 5.933696 -36.940014
v 19.013958 5.890822 -37.233440
v 18.897886 5.772903 -37.240097
v 18.925774 5.658894 -37.155075
v 18.894785 5.901255 -37.419415
v 18.771105 5.754080 -37.392967
v 21.812714 8.697002 -39.551228
v 22.761824 9.142323 -39.533554
v 21.827591 8.659147 -39.404102
v 22.798361 9.103956 -39.416283
v 21.898535 8.532544 -39.349823
v 22.863419 8.999653 -39.378025
v 21.967491 8.412579 -39.400448
v 22.917906 8.894182 -39.429604
v 16.693420 8.541019 -38.887497
v 16.755264 8.350662 -38.828102
v 16.623028 8.363321 -38.846863
v 16.546480 8.526361 -38.900654
v 16.744356 8.145821 -38.741825
v 16.598572 8.261407 -38.752678
v 21.983780 8.371047 -39.536819
v 22.926374 8.853569 -39.552277
v 19.357576 7.563118 -34.680050
v 19.558517 7.410120 -34.693481
v 19.577730 7.523341 -34.568573
v 19.482443 7.623926 -34.535675
v 19.797895 7.361189 -34.629536
v 19.727776 7.523005 -34.513668
v 19.701771 7.676841 -34.554306
v 21.708378 8.254463 -39.641838
v 21.695217 8.428284 -39.737091
v 21.643650 8.563698 -39.731506
v 21.667318 8.647143 -39.574352
v 21.572807 8.562636 -39.371098
v 21.692783 8.362968 -39.296329
v 21.772289 8.244576 -39.349915
v 21.795963 8.218584 -39.483593
v 19.760536 6.921585 -35.265457
v 19.901423 7.159305 -35.066849
v 19.877806 7.187845 -34.922398
v 19.745598 7.148846 -34.957748
v 20.041878 7.337646 -34.841629
v 19.908508 7.272872 -34.746475
v 19.902666 6.002626 -37.597187
v 19.652517 6.060504 -37.684277
v 19.541203 5.981642 -37.312222
v 19.798561 5.935879 -37.299797
v 19.315908 5.990644 -37.903805
v 19.277170 5.958782 -37.388035
v 19.489019 6.029251 -36.907124
v 19.759943 5.917884 -36.926987
v 19.517408 5.873536 -38.154037
v 19.318502 5.727300 -38.111156
v 19.107098 5.774237 -38.056126
v 19.707926 5.672065 -38.172729
v 19.341852 5.548428 -38.112556
v 21.535213 8.392444 -39.759758
v 21.464195 8.491467 -39.802605
v 21.465694 8.259905 -39.695538
v 21.283138 8.390283 -39.747375
v 19.237810 5.609008 -36.596439
v 19.126474 5.750040 -36.712143
v 19.011349 5.466904 -37.027710
v 19.186129 5.306434 -36.917236
v 19.050087 5.971654 -37.607056
v 19.117327 5.942559 -37.401478
v 20.598610 6.522409 -38.573620
v 20.234173 5.872654 -38.022312
v 20.111763 5.846908 -38.211700
v 20.486778 6.521371 -38.733887
v 20.093182 5.645600 -37.737469
v 20.068699 5.867283 -37.656738
v 19.958702 5.836439 -37.420212
v 19.949537 5.694082 -37.312752
v 19.709526 5.331425 -38.002815
v 19.397854 5.301256 -38.036907
v 19.732096 5.064889 -37.884880
v 19.455685 5.065095 -37.963890
v 19.695631 5.588823 -36.608231
v 19.467848 5.549158 -36.558769
v 19.459787 5.258580 -36.874489
v 19.726933 5.302729 -36.945190
v 19.475388 4.995188 -37.122231
v 19.792343 5.035514 -37.271664
v 19.883293 5.474627 -37.119774
v 19.953886 5.320993 -37.490627
v 19.801348 5.730338 -36.740780
v 21.573509 8.028146 -39.270218
v 21.643108 8.060042 -39.393990
v 21.368105 7.799121 -39.217621
v 21.526283 8.006600 -39.442448
v 19.904182 5.299896 -37.799129
v 19.986441 5.601890 -38.014668
v 19.860912 5.027958 -37.633793
v 19.398361 7.181861 -35.466511
v 19.340124 7.063695 -35.383179
v 19.332796 7.407949 -35.109516
v 19.388262 7.513939 -35.198383
v 19.399307 6.940000 -35.299583
v 19.389669 7.281919 -35.019806
v 19.292353 7.676407 -34.811573
v 19.351513 7.773401 -34.909859
v 19.751297 7.228724 -35.434185
v 19.558306 7.227462 -35.496811
v 19.537539 7.558187 -35.228344
v 19.699411 7.574660 -35.165302
v 19.496532 7.806679 -34.941296
v 19.648708 7.801008 -34.880222
v 19.561441 6.878549 -35.264362
v 19.549194 7.178142 -34.984566
v 21.353384 8.017220 -39.513958
v 21.373564 8.236778 -39.183804
v 21.101604 7.796156 -38.940430
v 21.194696 7.671999 -38.970997
v 21.489758 8.114355 -39.189316
v 21.116354 8.264417 -39.347160
v 20.875164 7.864300 -39.123371
v 20.971352 7.868028 -39.003376
v 21.223017 8.285074 -39.241535
v 21.197763 8.092214 -39.541786
v 16.578215 8.171689 -38.543476
v 16.589008 8.166987 -38.331276
v 21.324846 8.552158 -39.391026
v 21.188404 8.522425 -39.486538
v 21.087521 7.589914 -39.250195
v 20.954538 7.669953 -39.301434
v 21.169363 8.458252 -39.625465
v 21.109703 8.188724 -39.468422
v 19.904877 7.261663 -35.165771
v 20.050819 7.459971 -34.906067
v 19.816504 7.015649 -35.398026
v 19.868019 7.445584 -35.153252
v 19.999783 7.604120 -34.877686
v 20.872366 7.781266 -39.244228
v 21.153519 7.484528 -39.056301
v 16.702705 8.210074 -38.218536
v 16.852530 8.296221 -38.221626
v 16.804314 8.407382 -38.153732
v 16.658939 8.337187 -38.150883
v 16.962891 8.391712 -38.326492
v 16.982359 8.468318 -38.454273
v 16.892231 8.564982 -38.365181
v 16.900267 8.497802 -38.248589
v 16.809124 8.576629 -38.794888
v 16.897947 8.403241 -38.744781
v 16.836006 8.603859 -38.681492
v 16.955105 8.474785 -38.631561
v 17.037968 8.346053 -38.569763
v 16.933836 8.238856 -38.708603
v 19.813158 7.630098 -34.971619
v 19.888491 7.682829 -34.744194
v 19.716890 7.766108 -34.735092
v 16.754808 8.596275 -38.592083
v 16.891787 8.522625 -38.529865
v 16.769724 8.573845 -38.446224
v 23.617834 9.477598 -39.541187
v 23.661480 9.475356 -39.656761
v 23.432423 9.595346 -39.524372
v 23.521782 9.528905 -39.490768
v 23.636135 9.518646 -39.767162
v 23.451885 9.640112 -39.750908
v 23.407356 9.639793 -39.633999
v 23.547892 9.588088 -39.801952
v 21.702803 10.120878 -41.157345
v 21.827892 9.591858 -40.855633
v 21.699310 9.563962 -40.923252
v 21.587580 10.087948 -41.201687
v 21.664652 10.142923 -40.902863
v 21.786333 9.665128 -40.604950
v 21.858458 9.633944 -40.722118
v 21.729916 10.142205 -41.031094
v 21.555851 9.574223 -40.885616
v 21.458199 10.065777 -41.147606
v 21.421946 10.089154 -40.890472
v 21.514879 9.652399 -40.631210
v 21.642555 9.670168 -40.572781
v 21.536964 10.119837 -40.848461
v 21.484997 9.610488 -40.763477
v 21.394281 10.065561 -41.018730
v 21.611317 9.027678 -40.463268
v 21.749069 9.045596 -40.389618
v 21.603020 8.667262 -39.813431
v 21.459454 8.628534 -39.892384
v 21.774586 9.112611 -40.254009
v 21.686646 9.184567 -40.139042
v 21.550631 8.765368 -39.538475
v 21.636549 8.726990 -39.666386
v 21.450933 9.064833 -40.440704
v 21.297956 8.623102 -39.878460
v 21.523981 9.216985 -40.119663
v 21.386148 9.200694 -40.192547
v 21.238165 8.739592 -39.616032
v 21.379025 8.769788 -39.529667
v 21.363403 9.136801 -40.325657
v 21.212387 8.676742 -39.760262
v 19.906700 5.925838 -38.326408
v 20.199385 6.001562 -37.875645
v 20.039917 6.142256 -37.829304
v 19.824181 6.215746 -37.934074
v 19.676128 6.191460 -38.119053
v 19.732004 6.073009 -38.281139
v 20.472006 6.757164 -38.377266
v 20.586323 6.622388 -38.429482
v 20.326422 6.610081 -38.821564
v 20.199059 6.852417 -38.626339
v 20.311832 6.849081 -38.464622
v 20.211308 6.747836 -38.770836
v 16.396366 8.819908 -39.008606
v 16.556015 8.822113 -38.992821
v 16.290382 8.817060 -38.935722
v 16.670641 8.837669 -38.893318
v 16.687277 8.845861 -38.773663
v 16.599632 8.821671 -38.696217
v 16.441692 8.809039 -38.702351
v 16.314251 8.815050 -38.809662
v 16.186506 9.604310 -39.050133
v 16.197380 9.571740 -39.141003
v 15.996023 9.555416 -39.229542
v 15.890552 9.588663 -39.183006
v 15.946479 9.651896 -39.023140
v 16.077398 9.638258 -39.005508
v 16.125631 9.545477 -39.215782
v 15.874439 9.630034 -39.098400
v 16.429651 8.935706 -37.986603
v 16.280283 8.939005 -37.979469
v 16.573565 8.484877 -38.099735
v 16.716850 8.530055 -38.101864
v 16.146839 9.010614 -38.041431
v 16.440399 8.515630 -38.172794
v 16.120417 9.105892 -38.142551
v 16.420572 8.609323 -38.274681
v 16.199780 9.175648 -38.222157
v 16.501867 8.698542 -38.358070
v 16.359480 9.158662 -38.225147
v 16.654057 8.715260 -38.358372
v 16.490068 9.098326 -38.162769
v 16.766098 8.692602 -38.296989
v 16.513260 9.005144 -38.064190
v 16.796625 8.617908 -38.187523
v 15.994399 9.476598 -38.031830
v 15.916632 9.436984 -37.964447
v 16.028469 9.348302 -37.826672
v 16.153017 9.349928 -37.832729
v 16.224760 9.438803 -37.984207
v 16.125546 9.471412 -38.035820
v 15.925961 9.384814 -37.878696
v 16.231155 9.386883 -37.900036
v 15.747601 9.772784 -37.690693
v 15.669429 9.790651 -37.731911
v 15.837023 9.786280 -37.700439
v 15.651157 9.836870 -37.804123
v 15.698063 9.881277 -37.860626
v 15.779950 9.896312 -37.866257
v 15.856965 9.877386 -37.831516
v 15.880835 9.831009 -37.761486
v 17.408726 7.126848 -38.375690
v 17.887606 6.321592 -38.149597
v 17.846355 6.367150 -37.967869
v 17.382715 7.164001 -38.208313
v 17.719589 7.365457 -38.422619
v 18.151646 6.655993 -38.236820
v 18.097490 6.520957 -38.334503
v 17.639647 7.268735 -38.522346
v 17.989613 6.380611 -38.305553
v 17.511833 7.167802 -38.509628
v 17.591612 7.356791 -38.122444
v 18.008381 6.641406 -37.899136
v 18.110394 6.699409 -38.055092
v 17.694559 7.397439 -38.256214
v 17.900509 6.501675 -37.870186
v 17.462967 7.259940 -38.108891
v 16.891968 7.581336 -38.453884
v 17.013124 7.624691 -38.590889
v 17.165125 7.724592 -38.596451
v 17.259672 7.818185 -38.485077
v 16.862291 7.613636 -38.278069
v 17.228861 7.845923 -38.310482
v 17.106161 7.802449 -38.175869
v 16.956028 7.705914 -38.168987
v 16.808035 7.956179 -38.672939
v 16.678539 7.903087 -38.551590
v 18.940208 6.033092 -37.960155
v 18.859985 5.883695 -38.071270
v 17.074203 8.140392 -38.559498
v 16.972881 8.054692 -38.668919
v 16.647211 7.917564 -38.388500
v 16.912811 8.081542 -38.278206
v 17.043274 8.146995 -38.397385
v 16.751247 7.988439 -38.280079
v 18.717297 5.720752 -38.035210
v 18.589262 5.651145 -37.851601
v 18.541029 5.699499 -37.641205
v 18.727903 5.992769 -37.558273
v 18.865959 6.063856 -37.743900
v 18.599754 5.845391 -37.530094
v 20.683508 7.466936 -34.148174
v 20.603512 7.422212 -34.064411
v 20.083733 7.373568 -34.550121
v 20.175230 7.418667 -34.659290
v 20.536032 7.701609 -34.077084
v 20.641087 7.670895 -34.158222
v 20.119541 7.670611 -34.679531
v 19.992693 7.710700 -34.570316
v 19.958456 7.416301 -34.445801
v 20.499779 7.454543 -33.983788
v 20.433701 7.554320 -33.956818
v 19.876427 7.533479 -34.405609
v 20.696177 7.571774 -34.183437
v 20.186817 7.544735 -34.710091
v 19.879721 7.656946 -34.451424
v 20.443468 7.656638 -33.991737
v 21.073683 7.631912 -33.694313
v 21.011566 7.658524 -33.641891
v 20.975353 7.730665 -33.627434
v 20.980585 7.801662 -33.656345
v 21.121849 7.660469 -33.752506
v 21.034853 7.829366 -33.714375
v 21.096657 7.802236 -33.766998
v 21.130392 7.732168 -33.778809
v 19.722509 6.358474 -35.763515
v 19.540377 6.318257 -35.728256
v 19.228134 7.980236 -33.831142
v 19.093134 7.953948 -33.798882
v 19.387789 7.728487 -34.424927
v 19.550253 7.777534 -34.440971
v 19.105894 8.203802 -34.053986
v 19.239275 8.164048 -34.017464
v 19.562672 7.939427 -34.669849
v 19.417818 7.965724 -34.724216
v 19.247892 7.746512 -34.487186
v 18.957392 7.998479 -33.836819
v 18.912607 8.092648 -33.930603
v 19.208117 7.841584 -34.594513
v 19.282591 8.068775 -33.923172
v 19.614746 7.864709 -34.549046
v 19.273581 7.936294 -34.692173
v 18.971117 8.180351 -34.022511
v 18.924725 8.292512 -33.182644
v 18.816916 8.323376 -33.210133
v 18.776485 8.398787 -33.287373
v 18.816568 8.472162 -33.366703
v 19.032549 8.323339 -33.210121
v 18.924725 8.496157 -33.400639
v 19.032887 8.472162 -33.366703
v 19.072992 8.398713 -33.287354
v 18.924725 9.088883 -32.705315
v 18.847002 9.107988 -32.726765
v 18.817799 9.163301 -32.781631
v 18.847002 9.216843 -32.838257
v 19.002445 9.107988 -32.726765
v 18.924725 9.238791 -32.858818
v 19.002445 9.216843 -32.838257
v 19.031654 9.163301 -32.781631
v 19.342793 6.628653 -35.969284
v 19.543877 6.688891 -35.986969
v 19.359781 6.367779 -35.761219
v 19.735653 6.626230 -35.966751
v 19.793985 6.483353 -35.861385
v 19.283155 6.504374 -35.861115
v 19.898249 3.667224 -37.304363
v 20.016493 3.678038 -37.615101
v 19.861454 4.823882 -37.579849
v 19.765163 4.796483 -37.304405
v 19.899195 3.686248 -37.927525
v 19.585316 3.686088 -38.046761
v 19.491596 4.870898 -37.943295
v 19.758274 4.860769 -37.845764
v 19.271090 3.678921 -37.932243
v 19.225637 4.839241 -37.842567
v 19.270144 3.659941 -37.309059
v 19.584017 3.659956 -37.189903
v 19.494349 4.791658 -37.198963
v 19.222422 4.787095 -37.301502
v 19.152845 3.667988 -37.621578
v 19.124315 4.802543 -37.576031
v 20.055088 -0.011224 -38.151669
v 19.454014 -0.011224 -38.377552
v 19.537647 1.970064 -38.346600
v 19.956707 1.959271 -38.188824
v 20.054996 -0.011224 -36.954014
v 20.282377 -0.011224 -37.552406
v 20.113649 1.984851 -37.765957
v 19.956228 2.028008 -37.342514
v 18.852901 -0.011224 -38.151497
v 19.118410 2.006397 -38.187138
v 18.852816 -0.011224 -36.953766
v 19.453890 -0.011224 -36.726902
v 19.536991 2.064716 -37.182850
v 19.117931 2.075319 -37.340725
v 18.625526 -0.011224 -37.552101
v 18.960989 2.049802 -37.763557
vt 0.553475 0.422667
vt 0.553412 0.422653
vt 0.553440 0.422605
vt 0.553492 0.422623
vt 0.553336 0.422621
vt 0.553391 0.422577
vt 0.553430 0.422537
vt 0.553466 0.422562
vt 0.553513 0.422576
vt 0.554771 0.423027
vt 0.554761 0.423052
vt 0.554740 0.423042
vt 0.554724 0.423015
vt 0.554760 0.423063
vt 0.554728 0.423059
vt 0.554678 0.423027
vt 0.556162 0.423151
vt 0.556201 0.423150
vt 0.556205 0.423441
vt 0.556171 0.423441
vt 0.556238 0.423150
vt 0.556241 0.423442
vt 0.555587 0.424037
vt 0.555611 0.424118
vt 0.555590 0.424148
vt 0.555559 0.424142
vt 0.554404 0.423939
vt 0.554453 0.423956
vt 0.554419 0.423990
vt 0.554384 0.423988
vt 0.554503 0.423989
vt 0.554421 0.424021
vt 0.556279 0.423156
vt 0.556277 0.423444
vt 0.556001 0.423459
vt 0.555953 0.423175
vt 0.555993 0.423165
vt 0.556036 0.423456
vt 0.556036 0.423160
vt 0.556070 0.423452
vt 0.556078 0.423157
vt 0.556103 0.423447
vt 0.554773 0.423072
vt 0.554770 0.423087
vt 0.554762 0.423078
vt 0.554767 0.423068
vt 0.554752 0.423110
vt 0.554749 0.423084
vt 0.556120 0.423155
vt 0.556137 0.423443
vt 0.555450 0.423289
vt 0.555401 0.423334
vt 0.555382 0.423297
vt 0.555395 0.423260
vt 0.555354 0.423346
vt 0.555353 0.423309
vt 0.555337 0.423283
vt 0.556153 0.423076
vt 0.556200 0.423094
vt 0.556237 0.423096
vt 0.556279 0.423116
vt 0.555936 0.423141
vt 0.555976 0.423095
vt 0.556038 0.423087
vt 0.556075 0.423086
vt 0.556109 0.423090
vt 0.555352 0.423510
vt 0.555333 0.423430
vt 0.555347 0.423406
vt 0.555373 0.423418
vt 0.556446 0.423172
vt 0.556400 0.423182
vt 0.556396 0.423134
vt 0.556403 0.423098
vt 0.555347 0.423375
vt 0.554261 0.424005
vt 0.554338 0.423993
vt 0.554349 0.424104
vt 0.554276 0.424096
vt 0.553710 0.423935
vt 0.553795 0.424016
vt 0.553653 0.424063
vt 0.553613 0.423994
vt 0.555724 0.424058
vt 0.555682 0.424109
vt 0.555659 0.423984
vt 0.555121 0.424087
vt 0.555074 0.424050
vt 0.555121 0.423967
vt 0.555183 0.424013
vt 0.553601 0.422540
vt 0.553613 0.422591
vt 0.553575 0.422584
vt 0.553553 0.422558
vt 0.553020 0.422433
vt 0.552965 0.422461
vt 0.552957 0.422433
vt 0.552985 0.422406
vt 0.553562 0.422609
vt 0.554161 0.422969
vt 0.554152 0.422996
vt 0.554121 0.422993
vt 0.554109 0.422965
vt 0.554149 0.423027
vt 0.554105 0.423025
vt 0.554061 0.422994
vt 0.555446 0.424026
vt 0.555505 0.424028
vt 0.555503 0.424141
vt 0.555441 0.424138
vt 0.553351 0.422527
vt 0.553381 0.422506
vt 0.553313 0.422542
vt 0.554812 0.424039
vt 0.554885 0.423968
vt 0.554939 0.423982
vt 0.554944 0.424023
vt 0.554352 0.423957
vt 0.554349 0.423908
vt 0.555655 0.424134
vt 0.554110 0.423638
vt 0.554116 0.423915
vt 0.554049 0.423903
vt 0.554054 0.423628
vt 0.553115 0.422450
vt 0.553139 0.422421
vt 0.553177 0.422439
vt 0.553185 0.422466
vt 0.554223 0.424066
vt 0.554197 0.423998
vt 0.555163 0.424136
vt 0.555122 0.424138
vt 0.553030 0.422495
vt 0.552977 0.422499
vt 0.553036 0.422551
vt 0.552983 0.422538
vt 0.553543 0.422644
vt 0.553530 0.422681
vt 0.555318 0.424019
vt 0.555382 0.424022
vt 0.555373 0.424131
vt 0.555304 0.424130
vt 0.553273 0.422549
vt 0.553258 0.422613
vt 0.553238 0.422536
vt 0.553181 0.422591
vt 0.553208 0.422507
vt 0.553140 0.422520
vt 0.555257 0.424016
vt 0.555234 0.424132
vt 0.554176 0.423056
vt 0.554167 0.423102
vt 0.554154 0.423079
vt 0.554164 0.423047
vt 0.554143 0.423172
vt 0.554132 0.423090
vt 0.553081 0.422509
vt 0.553070 0.422445
vt 0.553097 0.422576
vt 0.555537 0.423507
vt 0.555496 0.423515
vt 0.555507 0.423399
vt 0.555545 0.423397
vt 0.555453 0.423523
vt 0.555464 0.423407
vt 0.555503 0.423291
vt 0.555545 0.423297
vt 0.555257 0.423482
vt 0.555209 0.423492
vt 0.555205 0.423393
vt 0.555242 0.423386
vt 0.555580 0.423504
vt 0.555584 0.423398
vt 0.555584 0.423305
vt 0.555216 0.423308
vt 0.555254 0.423310
vt 0.555405 0.423525
vt 0.555418 0.423420
vt 0.554091 0.423094
vt 0.554232 0.423103
vt 0.554222 0.423242
vt 0.554180 0.423250
vt 0.554196 0.423109
vt 0.553970 0.423073
vt 0.553953 0.423213
vt 0.553911 0.423207
vt 0.553931 0.423067
vt 0.554048 0.423086
vt 0.554715 0.423086
vt 0.554671 0.423073
vt 0.554268 0.423105
vt 0.554265 0.423238
vt 0.554224 0.423024
vt 0.554270 0.423039
vt 0.553935 0.422990
vt 0.553976 0.422995
vt 0.554080 0.423244
vt 0.554034 0.423234
vt 0.554015 0.422996
vt 0.554009 0.423079
vt 0.556432 0.423077
vt 0.556482 0.423158
vt 0.555305 0.423514
vt 0.555304 0.423431
vt 0.555280 0.423405
vt 0.556480 0.423076
vt 0.556525 0.423155
vt 0.554196 0.423051
vt 0.553993 0.423223
vt 0.554131 0.423285
vt 0.554629 0.423062
vt 0.554583 0.423053
vt 0.554587 0.423017
vt 0.554630 0.423022
vt 0.554862 0.423094
vt 0.554833 0.423084
vt 0.554845 0.423055
vt 0.554875 0.423064
vt 0.554536 0.423048
vt 0.554545 0.423012
vt 0.554783 0.423073
vt 0.554787 0.423091
vt 0.554792 0.423068
vt 0.554805 0.423085
vt 0.554815 0.423108
vt 0.554784 0.423115
vt 0.556541 0.423102
vt 0.556578 0.423156
vt 0.555277 0.423356
vt 0.555290 0.423299
vt 0.556612 0.423119
vt 0.556649 0.423154
vt 0.554793 0.423054
vt 0.554815 0.423069
vt 0.554815 0.423040
vt 0.556118 0.423694
vt 0.556151 0.423705
vt 0.556054 0.423679
vt 0.556086 0.423683
vt 0.556185 0.423708
vt 0.556247 0.423687
vt 0.556279 0.423672
vt 0.556217 0.423701
vt 0.556021 0.423687
vt 0.554247 0.422417
vt 0.554218 0.422576
vt 0.554184 0.422564
vt 0.554213 0.422406
vt 0.554313 0.422459
vt 0.554278 0.422609
vt 0.554247 0.422593
vt 0.554278 0.422437
vt 0.554147 0.422559
vt 0.554172 0.422406
vt 0.554096 0.422421
vt 0.554067 0.422566
vt 0.554027 0.422563
vt 0.554061 0.422419
vt 0.554107 0.422562
vt 0.554133 0.422414
vt 0.554349 0.422473
vt 0.554315 0.422619
vt 0.554149 0.422734
vt 0.554185 0.422746
vt 0.554161 0.422931
vt 0.554113 0.422919
vt 0.554217 0.422764
vt 0.554254 0.422784
vt 0.554236 0.422974
vt 0.554202 0.422952
vt 0.554108 0.422731
vt 0.554065 0.422921
vt 0.553987 0.422735
vt 0.554029 0.422740
vt 0.553981 0.422931
vt 0.553939 0.422926
vt 0.554067 0.422735
vt 0.554023 0.422928
vt 0.554200 0.422983
vt 0.554296 0.422794
vt 0.554274 0.422985
vt 0.554137 0.424027
vt 0.554054 0.424002
vt 0.553974 0.423892
vt 0.553960 0.423998
vt 0.554176 0.423917
vt 0.554242 0.423914
vt 0.553768 0.423861
vt 0.553836 0.423884
vt 0.554315 0.423900
vt 0.553902 0.423886
vt 0.553883 0.423979
vt 0.554216 0.423633
vt 0.554162 0.423640
vt 0.553999 0.423613
vt 0.553897 0.423590
vt 0.553840 0.423585
vt 0.553948 0.423600
vt 0.554275 0.423620
vt 0.556805 0.423462
vt 0.556844 0.423481
vt 0.556846 0.423571
vt 0.556807 0.423557
vt 0.556771 0.423456
vt 0.556766 0.423574
vt 0.556881 0.423498
vt 0.556913 0.423505
vt 0.556919 0.423587
vt 0.556886 0.423582
vt 0.556945 0.423502
vt 0.556981 0.423476
vt 0.557003 0.423565
vt 0.556952 0.423582
vt 0.556738 0.423470
vt 0.556727 0.423562
vt 0.556699 0.423495
vt 0.556678 0.423584
vt 0.556884 0.423248
vt 0.556858 0.423252
vt 0.556799 0.423226
vt 0.556771 0.423209
vt 0.556934 0.423199
vt 0.556909 0.423225
vt 0.556829 0.423245
vt 0.556745 0.423204
vt 0.556718 0.423213
vt 0.554631 0.422823
vt 0.554677 0.422804
vt 0.554640 0.422974
vt 0.554597 0.422976
vt 0.554724 0.422776
vt 0.554684 0.422963
vt 0.554769 0.422764
vt 0.554727 0.422955
vt 0.554810 0.422775
vt 0.554775 0.422964
vt 0.554843 0.422814
vt 0.554817 0.422987
vt 0.554876 0.422852
vt 0.554850 0.423008
vt 0.554913 0.422877
vt 0.554884 0.423024
vt 0.554587 0.422818
vt 0.554556 0.422967
vt 0.554831 0.422631
vt 0.554792 0.422611
vt 0.554710 0.422629
vt 0.554667 0.422645
vt 0.554903 0.422693
vt 0.554868 0.422665
vt 0.554752 0.422611
vt 0.554627 0.422648
vt 0.554752 0.422424
vt 0.554787 0.422411
vt 0.554939 0.422703
vt 0.554717 0.422434
vt 0.554823 0.422406
vt 0.554857 0.422415
vt 0.554886 0.422435
vt 0.554912 0.422458
vt 0.554683 0.422428
vt 0.554944 0.422472
vt 0.554674 0.423390
vt 0.554638 0.423649
vt 0.554590 0.423640
vt 0.554626 0.423380
vt 0.554805 0.423401
vt 0.554784 0.423634
vt 0.554736 0.423642
vt 0.554764 0.423401
vt 0.554689 0.423650
vt 0.554721 0.423397
vt 0.554536 0.423365
vt 0.554506 0.423599
vt 0.554456 0.423581
vt 0.554491 0.423359
vt 0.554850 0.423400
vt 0.554837 0.423633
vt 0.554548 0.423621
vt 0.554581 0.423372
vt 0.554688 0.423218
vt 0.554728 0.423228
vt 0.554769 0.423234
vt 0.554812 0.423236
vt 0.554651 0.423209
vt 0.554530 0.423203
vt 0.554575 0.423205
vt 0.554615 0.423206
vt 0.554857 0.423233
vt 0.554740 0.423144
vt 0.554705 0.423139
vt 0.554787 0.423939
vt 0.554726 0.423936
vt 0.554812 0.423146
vt 0.554777 0.423148
vt 0.554672 0.423131
vt 0.554585 0.423116
vt 0.554536 0.423113
vt 0.554635 0.423123
vt 0.554848 0.423146
vt 0.554662 0.423932
vt 0.554597 0.423923
vt 0.554535 0.423912
vt 0.554429 0.423878
vt 0.554369 0.423852
vt 0.554663 0.424020
vt 0.554581 0.423997
vt 0.554483 0.423897
vt 0.554734 0.424008
vt 0.554850 0.423923
vt 0.556516 0.423437
vt 0.556484 0.423442
vt 0.556426 0.423255
vt 0.556468 0.423239
vt 0.556613 0.423413
vt 0.556576 0.423423
vt 0.556548 0.423217
vt 0.556595 0.423209
vt 0.556380 0.423269
vt 0.556361 0.423206
vt 0.556450 0.423447
vt 0.556419 0.423454
vt 0.556340 0.423279
vt 0.556545 0.423431
vt 0.556507 0.423227
vt 0.556307 0.423289
vt 0.556279 0.423246
vt 0.556318 0.423237
vt 0.556649 0.423404
vt 0.556641 0.423206
vt 0.556534 0.423604
vt 0.556511 0.423609
vt 0.556489 0.423617
vt 0.556471 0.423627
vt 0.556393 0.423466
vt 0.556556 0.423600
vt 0.556622 0.423589
vt 0.556599 0.423594
vt 0.556578 0.423598
vt 0.556644 0.423584
vt 0.555343 0.423713
vt 0.555393 0.423719
vt 0.555366 0.422991
vt 0.555404 0.422972
vt 0.555402 0.423202
vt 0.555348 0.423221
vt 0.555238 0.423006
vt 0.555282 0.423018
vt 0.555262 0.423247
vt 0.555220 0.423238
vt 0.555454 0.423198
vt 0.555446 0.422964
vt 0.555486 0.422971
vt 0.555501 0.423204
vt 0.555326 0.423011
vt 0.555304 0.423239
vt 0.555544 0.423219
vt 0.555524 0.422988
vt 0.555564 0.423003
vt 0.555583 0.423235
vt 0.555402 0.422765
vt 0.555434 0.422761
vt 0.555467 0.422760
vt 0.555501 0.422762
vt 0.555369 0.422768
vt 0.555260 0.422766
vt 0.555298 0.422770
vt 0.555335 0.422771
vt 0.555538 0.422766
vt 0.555401 0.422469
vt 0.555430 0.422469
vt 0.555458 0.422464
vt 0.555486 0.422458
vt 0.555372 0.422469
vt 0.555288 0.422453
vt 0.555316 0.422458
vt 0.555344 0.422463
vt 0.555514 0.422455
vt 0.555538 0.423710
vt 0.555591 0.423693
vt 0.555442 0.423721
vt 0.555250 0.423693
vt 0.555299 0.423704
vt 0.555491 0.423715
vt 0.555199 0.423679
vt 0.553076 0.422939
vt 0.552993 0.422910
vt 0.553096 0.422628
vt 0.553169 0.422651
vt 0.552913 0.422875
vt 0.552836 0.422831
vt 0.552975 0.422570
vt 0.553032 0.422599
vt 0.553524 0.423013
vt 0.553435 0.423011
vt 0.553465 0.422709
vt 0.553530 0.422717
vt 0.553253 0.422984
vt 0.553162 0.422964
vt 0.553244 0.422665
vt 0.553320 0.422681
vt 0.553344 0.423001
vt 0.553394 0.422698
vt 0.552388 0.423779
vt 0.552234 0.423681
vt 0.552559 0.423221
vt 0.552665 0.423289
vt 0.552706 0.423964
vt 0.552544 0.423875
vt 0.552783 0.423342
vt 0.552910 0.423385
vt 0.553567 0.423491
vt 0.553613 0.424054
vt 0.553431 0.424075
vt 0.553441 0.423491
vt 0.553062 0.424074
vt 0.552880 0.424033
vt 0.553043 0.423419
vt 0.553177 0.423450
vt 0.553247 0.424084
vt 0.553310 0.423475
vn -0.7518 -0.4771 -0.4552
vn -0.8316 -0.5357 0.1466
vn -0.8255 -0.5615 0.0568
vn -0.6186 -0.5580 -0.5532
vn -0.8127 0.4995 0.3002
vn -0.9775 -0.2047 0.0510
vn -0.9835 -0.1574 0.0897
vn 0.1699 -0.3075 -0.9362
vn -0.1336 0.3282 -0.9351
vn -0.7737 0.4462 0.4497
vn -0.6443 0.6165 0.4524
vn -0.8358 0.0137 0.5489
vn -0.3972 0.8468 -0.3538
vn -0.3986 0.8577 0.3248
vn -0.1241 0.3053 0.9441
vn 0.1860 -0.3194 0.9292
vn 0.1115 -0.2633 -0.9583
vn -0.1347 -0.4908 -0.8608
vn -0.5831 -0.4805 -0.6550
vn 0.4373 -0.8443 0.3095
vn 0.4194 -0.8261 -0.3765
vn -0.4385 -0.6295 0.6414
vn -0.2945 -0.6598 0.6914
vn -0.0956 -0.0153 0.9953
vn 0.1898 -0.4197 -0.8876
vn 0.0286 0.1932 -0.9807
vn -0.2529 0.8760 -0.4106
vn -0.3278 0.9126 0.2442
vn -0.0284 0.3532 0.9351
vn 0.3755 -0.1649 0.9120
vn 0.6598 -0.7002 0.2727
vn 0.4830 -0.7764 -0.4049
vn 0.3880 -0.7876 0.4787
vn 0.5775 -0.7734 0.2614
vn -0.0040 -0.8610 0.5085
vn 0.1453 0.9560 0.2547
vn -0.1945 0.9769 0.0889
vn -0.1861 0.9806 -0.0617
vn 0.2851 0.9585 -0.0032
vn -0.3194 0.5843 -0.7460
vn -0.1614 -0.0387 -0.9861
vn -0.2648 -0.0345 -0.9637
vn 0.2698 -0.0120 -0.9628
vn 0.1983 -0.4810 -0.8540
vn -0.0409 -0.4196 -0.9068
vn -0.7787 -0.3465 0.5231
vn -0.9034 0.2294 0.3622
vn -0.8436 -0.2502 0.4752
vn -0.7498 -0.4559 0.4796
vn -0.0257 0.9960 0.0852
vn -0.1939 0.9625 0.1895
vn -0.2265 0.9731 0.0421
vn 0.6423 -0.6661 -0.3792
vn 0.9323 0.0653 0.3558
vn 0.6696 0.6354 0.3846
vn 0.8272 0.5031 0.2503
vn 0.0509 -0.3807 -0.9233
vn 0.1946 -0.3210 -0.9269
vn -0.2975 -0.3460 -0.8898
vn -0.2587 -0.3746 -0.8904
vn 0.2747 -0.7159 0.6419
vn 0.2746 -0.7159 0.6419
vn 0.2769 -0.7152 0.6417
vn -0.2559 -0.6951 0.6718
vn -0.2561 -0.6949 0.6720
vn -0.2600 -0.6923 0.6731
vn -0.2641 -0.6896 0.6744
vn 0.3458 -0.6643 0.6626
vn 0.9494 -0.1261 0.2877
vn 0.9575 0.1631 0.2377
vn 0.8577 -0.3355 0.3896
vn 0.8825 -0.3063 0.3570
vn 0.7602 -0.5947 0.2618
vn 0.6561 -0.7497 -0.0861
vn 0.5113 -0.7364 -0.4430
vn 0.8758 -0.4459 -0.1846
vn 0.9466 -0.3200 0.0403
vn 0.7439 -0.3333 -0.5793
vn 0.4560 -0.4992 -0.7368
vn -0.9221 0.2271 -0.3132
vn -0.9204 0.2227 -0.3215
vn -0.9222 0.2267 -0.3133
vn -0.9308 -0.2432 0.2729
vn -0.9324 -0.3193 0.1692
vn -0.9202 0.2229 -0.3218
vn 0.2342 0.6199 -0.7489
vn -0.3160 0.5881 -0.7445
vn -0.3174 0.6893 -0.6512
vn 0.2122 0.7684 -0.6037
vn -0.4514 -0.5953 0.6648
vn -0.0175 -0.7448 0.6671
vn -0.2594 -0.7723 0.5799
vn -0.5129 -0.6749 0.5305
vn 0.1901 -0.6708 -0.7169
vn 0.4004 0.2093 0.8921
vn -0.6069 0.6357 0.4770
vn -0.1351 -0.5437 -0.8283
vn -0.8321 -0.5073 -0.2240
vn -0.9042 -0.4218 0.0675
vn -0.1248 0.5426 0.8307
vn -0.1128 0.5334 0.8383
vn -0.6035 0.5284 0.5971
vn -0.0294 -0.4970 -0.8673
vn -0.9733 0.2281 -0.0265
vn -0.7606 -0.2002 -0.6176
vn 0.9059 -0.2806 -0.3171
vn 0.9257 -0.3704 -0.0767
vn 0.8427 0.1866 -0.5051
vn 0.7647 0.2774 -0.5816
vn 0.5331 -0.1247 0.8368
vn 0.1911 0.3383 0.9215
vn -0.6467 -0.0516 -0.7610
vn 0.7884 -0.3519 0.5046
vn 0.2351 -0.4104 0.8811
vn -0.5447 -0.4942 0.6775
vn 0.8636 0.4158 0.2851
vn 0.7305 -0.0823 0.6780
vn 0.5659 -0.0137 -0.8243
vn 0.7938 0.3918 -0.4651
vn 0.7941 0.1228 -0.5952
vn 0.4192 -0.2601 -0.8698
vn 0.3543 0.8011 -0.4824
vn 0.5126 0.6134 -0.6008
vn 0.5730 0.7399 -0.3525
vn 0.4372 0.8992 0.0160
vn 0.5375 0.8096 0.2360
vn 0.1565 0.9785 0.1345
vn 0.4261 0.8759 -0.2264
vn 0.7566 0.6473 -0.0927
vn 0.6428 -0.7170 0.2696
vn -0.0890 0.3170 0.9443
vn 0.5548 -0.7243 -0.4094
vn -0.6174 0.7427 -0.2593
vn 0.3525 -0.2485 0.9022
vn 0.1192 -0.2923 -0.9489
vn -0.5135 0.7517 0.4138
vn -0.3370 0.2689 -0.9023
vn 0.4615 -0.3462 -0.8168
vn 0.8045 0.4457 0.3925
vn -0.2574 -0.4948 -0.8300
vn -0.4175 0.3991 0.8163
vn 0.9665 0.0962 -0.2381
vn -0.8361 -0.3817 -0.3941
vn 0.2199 0.5515 0.8046
vn -0.9706 -0.0665 0.2311
vn 0.4007 -0.8034 -0.4405
vn 0.8289 0.3554 0.4319
vn -0.1461 -0.7752 -0.6146
vn -0.4101 0.7667 0.4940
vn 0.4982 -0.4394 -0.7475
vn -0.0139 -0.5123 -0.8587
vn 0.9250 -0.3793 -0.0232
vn -0.8364 -0.2953 -0.4617
vn 0.6984 0.5506 0.4572
vn 0.9591 0.1399 -0.2462
vn 0.1375 0.7852 0.6038
vn -0.5419 0.5312 0.6513
vn -0.0299 0.5898 0.8070
vn -0.9450 0.3266 0.0161
vn -0.8026 -0.2231 -0.5533
vn -0.9706 0.2358 0.0479
vn 0.4482 -0.6200 -0.6440
vn 0.8443 0.2744 0.4603
vn -0.2445 -0.6083 -0.7551
vn -0.3872 0.6987 0.6016
vn 0.9655 -0.2385 -0.1045
vn -0.8546 -0.2238 -0.4685
vn 0.2023 0.6625 0.7212
vn -0.9470 0.3151 0.0622
vn 0.7106 -0.6572 -0.2512
vn 0.2111 -0.6503 -0.7298
vn 0.6058 0.4674 0.6438
vn 0.9059 -0.1117 0.4084
vn -0.3799 0.8912 0.2478
vn 0.0201 0.8470 0.5312
vn -0.3697 -0.2218 -0.9023
vn -0.6581 0.3988 -0.6386
vn 0.5747 0.2985 0.7620
vn 0.1256 -0.6406 -0.7575
vn -0.5595 0.7385 0.3763
vn 0.9090 -0.2431 0.3385
vn -0.5174 -0.2506 -0.8182
vn -0.0720 0.6819 0.7279
vn 0.6294 -0.6007 -0.4930
vn -0.8478 0.3211 -0.4220
vn 0.1328 -0.4820 -0.8660
vn 0.5148 0.1421 0.8455
vn 0.8813 -0.3457 0.3221
vn -0.6178 0.6396 0.4574
vn -0.1333 0.5314 0.8366
vn -0.5329 -0.0563 -0.8443
vn -0.8555 0.4080 -0.3189
vn 0.4708 -0.6942 -0.5445
vn 0.1060 -0.2990 -0.9484
vn -0.5109 -0.5316 -0.6756
vn 0.8803 0.4163 -0.2277
vn 0.6357 0.0337 -0.7712
vn 0.1071 0.5771 0.8096
vn 0.5070 0.5926 0.6259
vn -0.9136 -0.3750 0.1570
vn -0.7023 0.0947 0.7056
vn 0.8503 0.5119 -0.1224
vn -0.4822 -0.4831 -0.7309
vn -0.0768 0.3124 0.9468
vn 0.6533 0.1665 -0.7386
vn -0.8935 -0.4343 0.1140
vn 0.4581 0.5556 0.6939
vn -0.6669 -0.1049 0.7378
vn 0.0922 -0.2414 -0.9660
vn 0.0628 -0.2240 0.9726
vn -0.5364 -0.5099 0.6725
vn -0.8609 -0.4550 -0.2274
vn -0.5219 -0.5602 0.6432
vn 0.1285 -0.2803 0.9513
vn -0.6150 -0.1683 -0.7704
vn -0.0099 0.2747 -0.9615
vn -0.8247 0.0977 -0.5570
vn -0.9285 -0.3455 -0.1363
vn 0.5208 0.5544 -0.6492
vn 0.8299 0.5190 0.2045
vn 0.4325 0.7106 -0.5550
vn 0.0978 0.7060 -0.7015
vn 0.5944 0.1928 0.7807
vn 0.6335 0.1451 0.7600
vn 0.7709 0.5904 0.2390
vn -0.6788 -0.0115 -0.7342
vn 0.0436 -0.3240 0.9451
vn 0.5266 0.6856 -0.5026
vn -0.8787 -0.4419 -0.1805
vn 0.6165 0.1220 0.7778
vn 0.0206 0.5366 -0.8436
vn -0.5075 -0.5534 0.6605
vn 0.8249 0.5001 0.2636
vn 0.0884 -0.2400 0.9667
vn -0.6472 -0.1435 -0.7487
vn -0.8551 -0.4938 -0.1581
vn 0.4829 0.6271 -0.6112
vn -0.0581 0.3405 -0.9384
vn 0.6220 0.2416 0.7448
vn -0.5542 -0.5763 0.6006
vn 0.7912 0.5741 0.2107
vn -0.8557 -0.5158 -0.0426
vn 0.6646 0.2230 -0.7132
vn 0.0508 -0.2179 -0.9746
vn 0.5955 0.5316 0.6023
vn 0.8497 0.5251 0.0481
vn -0.6946 -0.1886 0.6942
vn -0.4814 -0.6410 -0.5979
vn -0.0817 0.2547 0.9636
vn 0.4988 0.3972 -0.7704
vn -0.6601 -0.7499 0.0447
vn 0.5029 0.6088 0.6136
vn 0.0319 -0.1346 -0.9904
vn -0.4684 -0.4250 0.7746
vn 0.6983 0.7157 -0.0110
vn -0.0084 0.1171 0.9931
vn -0.5103 -0.5162 -0.6878
vn 0.5337 0.3219 -0.7820
vn 0.6429 0.2061 -0.7377
vn -0.8128 -0.5787 -0.0664
vn 0.4713 0.5362 0.7003
vn 0.1007 -0.1685 -0.9805
vn -0.6517 -0.1892 0.7345
vn 0.8432 0.5281 0.1008
vn -0.6633 -0.4572 -0.5924
vn -0.1435 0.2611 0.9546
vn -0.9568 -0.2872 -0.0449
vn 0.7460 0.0591 -0.6633
vn 0.6795 0.0045 0.7336
vn 0.2172 -0.2167 -0.9518
vn 0.9505 0.2105 0.2286
vn -0.5872 -0.3205 0.7433
vn 0.1347 -0.2275 0.9644
vn -0.4335 -0.7054 -0.5609
vn -0.6950 -0.7189 0.0136
vn 0.3937 0.7336 0.5540
vn -0.4521 -0.6867 -0.5693
vn -0.7024 -0.7090 0.0630
vn 0.0952 -0.2832 -0.9543
vn -0.6230 -0.2901 0.7264
vn 0.2105 0.4563 -0.8646
vn -0.0280 -0.1804 -0.9832
vn 0.6233 0.7812 0.0353
vn -0.5998 -0.5237 -0.6050
vn 0.1244 0.8915 0.4357
vn 0.1970 0.9744 0.1082
vn -0.1582 0.3162 0.9354
vn -0.7003 -0.1842 0.6896
vn -0.3865 0.4768 0.7895
vn 0.2760 -0.9416 -0.1931
vn 0.1633 0.9730 -0.1630
vn -0.0836 -0.8939 0.4403
vn 0.4688 -0.8824 0.0414
vn -0.5137 -0.5536 0.6555
vn 0.6889 -0.3156 -0.6526
vn -0.5257 0.2137 0.8234
vn -0.4702 -0.6121 0.6358
vn -0.2066 0.9461 0.2494
vn 0.0468 -0.8904 0.4528
vn 0.1395 0.9366 -0.3215
vn -0.1106 0.9903 0.0842
vn 0.6158 0.4882 -0.6185
vn 0.8353 -0.2867 -0.4691
vn 0.6749 0.4271 -0.6018
vn -0.5645 0.3279 0.7575
vn 0.4458 -0.8932 -0.0586
vn 0.0329 0.9317 -0.3618
vn -0.3741 -0.4216 0.8260
vn 0.7079 -0.3069 -0.6361
vn -0.3341 0.9334 0.1310
vn 0.5178 0.4333 -0.7377
vn 0.2724 -0.7166 0.6421
vn 0.2869 -0.8518 0.4383
vn 0.2854 0.9391 -0.1914
vn -0.2977 -0.7846 0.5438
vn 0.2263 -0.5816 0.7814
vn -0.8258 -0.5404 -0.1613
vn 0.8763 -0.0472 0.4795
vn -0.8906 0.1351 -0.4342
vn -0.8835 -0.4681 -0.0199
vn -0.2618 0.8637 -0.4308
vn -0.3636 -0.8563 0.3667
vn 0.2748 0.8356 -0.4756
vn -0.2942 0.7143 -0.6350
vn 0.7509 0.6379 0.1711
vn 0.8159 0.3654 0.4481
vn 0.7357 0.6751 -0.0544
vn -0.9212 0.2314 -0.3127
vn 0.3153 -0.7889 0.5274
vn 0.3267 0.8916 -0.3134
vn -0.9010 -0.4334 0.0191
vn 0.9163 -0.1452 0.3732
vn -0.2865 0.8455 -0.4507
vn 0.8762 0.4798 0.0453
vn -0.3427 -0.4831 0.8057
vn -0.9370 0.2267 -0.2659
vn 0.3425 -0.4831 0.8058
vn 0.3573 0.5503 -0.7546
vn -0.9305 -0.1656 0.3266
vn 0.9305 -0.1657 0.3267
vn -0.3573 0.5503 -0.7546
vn 0.9370 0.2267 -0.2659
vn -0.2900 -0.9324 0.2158
vn -0.2230 0.8052 -0.5494
vn -0.2970 -0.6862 0.6641
vn 0.9750 0.1817 -0.1276
vn -0.9629 0.2676 -0.0361
vn -0.1285 -0.9641 0.2322
vn 0.2906 0.7715 -0.5660
vn 0.8933 -0.3418 0.2918
vn -0.6041 0.2991 0.7387
vn 0.2105 -0.6422 0.7371
vn -0.3363 -0.5851 0.7380
vn -0.9071 -0.2204 0.3586
vn -0.9343 0.2842 -0.2152
vn -0.2850 0.6549 -0.7000
vn 0.2579 0.6411 -0.7228
vn 0.9361 0.2138 -0.2794
vn 0.9279 -0.2736 0.2533
vn 0.9307 0.1125 0.3480
vn 0.3494 0.1078 -0.9308
vn -0.3506 0.0562 -0.9349
vn -0.3537 -0.0209 0.9351
vn 0.9292 0.1359 -0.3437
vn -0.9344 -0.0091 -0.3562
vn 0.3509 0.0383 0.9356
vn 0.3520 -0.0002 -0.9360
vn -0.9386 -0.0397 0.3428
vn 0.9314 0.1134 0.3460
vn -0.3353 -0.1574 -0.9289
vn 0.3061 -0.0943 -0.9473
vn 0.9099 -0.0347 -0.4133
vn 0.9675 -0.0463 0.2487
vn 0.4021 -0.2269 0.8871
vn -0.3348 -0.3476 0.8759
vn -0.9124 -0.3130 0.2638
vn -0.8801 -0.2632 -0.3951
vn -0.3524 0.0297 -0.9354
vn -0.3428 0.2139 0.9147
vn 0.9349 0.0407 -0.3525
vn -0.9281 0.1153 -0.3540
vn 0.3540 0.1893 0.9159
vn 0.3514 0.1516 -0.9239
vn -0.9217 0.1828 0.3422
vn 0.9363 0.0237 0.3505
vn -0.3387 0.1715 -0.9251
vn -0.3533 0.0149 0.9354
vn 0.9330 0.0844 -0.3500
vn -0.9250 0.1395 -0.3534
vn 0.3498 -0.0078 0.9368
vn -0.8841 0.1363 -0.4470
vn -0.9345 0.0816 0.3466
vn -0.8879 0.3999 -0.2275
vn -0.8731 -0.2823 0.3976
usemtl Material.001
f 1/1/1 2/2/1 3/3/1 4/4/1
f 2/2/2 5/5/2 6/6/2 3/3/2
f 3/3/3 6/6/3 7/7/3 8/8/3
f 4/4/4 3/3/4 8/8/4 9/9/4
f 10/10/5 11/11/5 12/12/5 13/13/5
f 14/14/6 15/15/6 12/12/6 11/11/6
f 16/16/7 13/13/7 12/12/7 15/15/7
f 17/17/8 18/18/8 19/19/8 20/20/8
f 19/19/9 18/18/9 21/21/9 22/22/9
f 23/23/10 24/24/10 25/25/10 26/26/10
f 27/27/11 28/28/11 25/29/11 24/30/11
f 7/31/12 26/32/12 25/29/12 28/28/12
f 21/21/13 29/33/13 30/34/13 22/22/13
f 30/35/14 29/36/14 31/37/14 32/38/14
f 31/37/15 33/39/15 34/40/15 32/38/15
f 34/40/16 33/39/16 35/41/16 36/42/16
f 37/43/17 38/44/17 39/45/17 40/46/17
f 41/47/18 42/48/18 39/45/18 38/44/18
f 14/14/19 40/46/19 39/45/19 42/48/19
f 35/41/20 43/49/20 44/50/20 36/42/20
f 44/50/21 43/49/21 17/17/21 20/20/21
f 45/51/22 46/52/22 47/53/22 48/54/22
f 49/55/23 50/56/23 47/53/23 46/52/23
f 51/57/24 48/54/24 47/53/24 50/56/24
f 18/18/25 17/17/25 52/58/25 53/59/25
f 21/21/26 18/18/26 53/59/26 54/60/26
f 29/33/27 21/21/27 54/60/27 55/61/27
f 31/37/28 29/36/28 55/62/28 56/63/28
f 33/39/29 31/37/29 56/63/29 57/64/29
f 35/41/30 33/39/30 57/64/30 58/65/30
f 43/49/31 35/41/31 58/65/31 59/66/31
f 17/17/32 43/49/32 59/66/32 52/58/32
f 60/67/33 61/68/33 62/69/33 63/70/33
f 64/71/34 65/72/34 62/73/34 61/74/34
f 49/55/35 63/70/35 62/69/35 65/75/35
f 66/76/36 67/77/36 68/78/36 69/79/36
f 67/80/37 70/81/37 71/82/37 68/83/37
f 68/84/38 71/85/38 23/23/38 72/86/38
f 69/87/39 68/88/39 72/89/39 73/90/39
f 70/91/40 74/92/40 75/93/40 76/94/40
f 77/95/41 78/96/41 75/97/41 74/98/41
f 9/9/42 76/94/42 75/93/42 78/99/42
f 54/100/43 53/101/43 79/102/43 80/103/43
f 52/104/44 81/105/44 79/102/44 53/101/44
f 82/106/45 80/103/45 79/102/45 81/105/45
f 83/107/46 84/108/46 85/109/46 86/110/46
f 84/108/47 23/23/47 26/26/47 85/109/47
f 85/111/48 26/112/48 7/7/48 6/6/48
f 86/113/49 85/111/49 6/6/49 5/5/49
f 70/114/50 87/115/50 88/116/50 71/117/50
f 27/27/51 24/30/51 88/118/51 87/119/51
f 23/23/52 71/85/52 88/120/52 24/24/52
f 89/121/53 90/122/53 91/123/53 92/124/53
f 93/125/54 94/126/54 95/127/54 96/128/54
f 66/76/55 69/79/55 95/129/55 94/130/55
f 73/90/56 96/131/56 95/132/56 69/87/56
f 77/95/57 97/133/57 98/134/57 78/96/57
f 97/133/58 99/135/58 100/136/58 98/134/58
f 98/137/59 100/138/59 1/1/59 4/4/59
f 78/99/60 98/137/60 4/4/60 9/9/60
f 101/139/61 102/140/62 103/141/63 104/142/63
f 102/140/64 83/107/64 86/110/65 103/141/66
f 103/143/66 86/113/65 5/5/67 105/144/67
f 104/145/68 103/143/68 105/144/68 106/146/68
f 93/125/69 96/128/69 107/147/69 108/148/69
f 96/131/70 73/90/70 109/149/70 107/150/70
f 107/150/71 109/149/71 101/139/71 104/142/71
f 108/148/72 107/147/72 104/145/72 106/146/72
f 58/151/73 110/152/73 111/153/73 59/154/73
f 112/155/74 113/156/74 111/153/74 110/152/74
f 52/104/75 59/154/75 111/153/75 113/156/75
f 93/125/76 108/148/76 114/157/76 115/158/76
f 108/148/77 106/146/77 116/159/77 114/157/77
f 114/157/78 116/159/78 99/135/78 97/133/78
f 115/158/79 114/157/79 97/133/79 77/95/79
f 117/160/80 118/161/80 119/162/81 120/163/82
f 118/161/83 121/164/83 122/165/83 119/162/83
f 119/162/84 122/165/84 45/51/84 123/166/84
f 120/163/82 119/162/81 123/166/85 124/167/85
f 125/168/86 126/169/86 127/170/86 128/171/86
f 126/172/87 117/160/87 120/163/87 127/173/87
f 127/173/88 120/163/88 124/167/88 129/174/88
f 128/171/89 127/170/89 129/175/89 130/176/89
f 121/164/90 131/177/90 132/178/90 122/165/90
f 131/177/91 60/67/91 63/70/91 132/178/91
f 132/178/92 63/70/92 49/55/92 46/52/92
f 122/165/93 132/178/93 46/52/93 45/51/93
f 52/104/94 113/156/94 133/179/94 81/105/94
f 134/180/95 135/181/95 136/182/95 137/183/95
f 138/184/96 139/185/96 140/186/96 141/187/96
f 81/105/97 133/179/97 142/188/97 82/106/97
f 14/14/98 42/48/98 143/189/98 15/15/98
f 15/15/99 143/189/99 144/190/99 16/16/99
f 141/191/100 140/192/100 135/181/100 134/180/100
f 134/180/101 56/193/101 145/194/101 141/191/101
f 141/187/102 145/195/102 146/196/102 138/184/102
f 133/179/103 147/197/103 148/198/103 142/188/103
f 138/184/104 146/196/104 149/199/104 150/200/104
f 150/200/105 149/199/105 82/106/105 142/188/105
f 64/71/106 61/74/106 151/201/106 152/202/106
f 61/68/107 60/67/107 153/203/107 151/204/107
f 151/204/108 153/203/108 125/168/108 154/205/108
f 152/202/109 151/201/109 154/206/109 155/207/109
f 58/151/110 57/208/110 137/183/110 110/152/110
f 57/208/111 56/193/111 134/180/111 137/183/111
f 148/198/112 156/209/112 150/200/112 142/188/112
f 137/183/113 136/182/113 157/210/113 112/155/113 110/152/113
f 158/211/114 159/212/114 160/213/114 161/214/114
f 144/190/115 158/211/115 161/214/115 16/16/115
f 162/215/116 163/216/116 164/217/116 165/218/116
f 159/212/117 162/219/117 165/220/117 160/213/117
f 37/43/118 166/221/118 167/222/118 38/44/118
f 166/221/119 168/223/119 169/224/119 167/222/119
f 167/222/120 169/224/120 170/225/120 171/226/120
f 38/44/121 167/222/121 171/226/121 41/47/121
f 155/207/122 154/206/122 172/227/122 173/228/122
f 154/205/123 125/168/123 128/171/123 172/229/123
f 172/229/124 128/171/124 130/176/124 174/230/124
f 173/228/125 172/227/125 174/231/125 51/232/125
f 168/223/126 175/233/126 176/234/126 169/224/126
f 175/233/127 10/10/127 177/235/127 176/234/127
f 176/234/128 177/235/128 164/217/128 163/216/128
f 169/224/129 176/234/129 163/216/129 170/225/129
f 178/236/130 36/42/130 44/50/130 179/237/130
f 180/238/131 32/38/131 34/40/131 181/239/131
f 179/237/132 44/50/132 20/20/132 182/240/132
f 183/241/133 22/22/133 30/34/133 184/242/133
f 181/239/134 34/40/134 36/42/134 178/236/134
f 20/20/135 19/19/135 185/243/135 182/240/135
f 184/244/136 30/35/136 32/38/136 180/238/136
f 185/243/137 19/19/137 22/22/137 183/241/137
f 186/245/138 187/246/138 188/247/138 189/248/138
f 190/249/139 191/250/139 192/251/139 193/252/139
f 189/248/140 188/247/140 194/253/140 195/254/140
f 196/255/141 197/256/141 198/257/141 199/258/141
f 193/252/142 192/251/142 187/246/142 186/245/142
f 194/253/143 200/259/143 201/260/143 195/254/143
f 199/261/144 198/262/144 191/250/144 190/249/144
f 201/260/145 200/259/145 197/256/145 196/255/145
f 202/263/146 203/264/146 204/265/146 205/266/146
f 206/267/147 207/268/147 208/269/147 209/270/147
f 210/271/148 202/263/148 205/266/148 211/272/148
f 212/273/149 213/274/149 214/275/149 215/276/149
f 205/266/150 204/265/150 54/100/150 80/103/150
f 211/272/151 205/266/151 80/103/151 82/106/151
f 203/264/152 206/267/152 209/270/152 204/265/152
f 216/277/153 210/271/153 211/272/153 217/278/153
f 209/270/154 208/269/154 56/193/154 55/279/154
f 204/265/155 209/270/155 55/279/155 54/100/155
f 207/268/156 212/280/156 215/281/156 208/269/156
f 215/276/157 214/275/157 146/196/157 145/195/157
f 208/269/158 215/281/158 145/194/158 56/193/158
f 213/274/159 216/277/159 217/278/159 214/275/159
f 217/278/160 211/272/160 82/106/160 149/199/160
f 214/275/161 217/278/161 149/199/161 146/196/161
f 187/246/162 203/264/162 202/263/162 188/247/162
f 191/250/163 207/268/163 206/267/163 192/251/163
f 188/247/164 202/263/164 210/271/164 194/253/164
f 197/256/165 213/274/165 212/273/165 198/257/165
f 192/251/166 206/267/166 203/264/166 187/246/166
f 210/271/167 216/277/167 200/259/167 194/253/167
f 198/262/168 212/280/168 207/268/168 191/250/168
f 200/259/169 216/277/169 213/274/169 197/256/169
f 91/123/170 90/122/170 93/282/170 115/283/170
f 218/284/171 91/123/171 115/283/171 77/285/171
f 219/286/172 220/287/172 66/76/172 94/130/172
f 90/122/173 219/286/173 94/130/173 93/282/173
f 221/288/174 222/289/174 70/81/174 67/80/174
f 220/287/175 221/290/175 67/77/175 66/76/175
f 223/291/176 218/284/176 77/285/176 74/292/176
f 222/289/177 223/291/177 74/292/177 70/81/177
f 224/293/178 220/287/178 219/286/178 225/294/178
f 92/124/179 91/123/179 218/284/179 226/295/179
f 227/296/180 222/289/180 221/288/180 228/297/180
f 225/294/181 219/286/181 90/122/181 89/121/181
f 218/284/182 223/291/182 229/298/182 226/295/182
f 228/299/183 221/290/183 220/287/183 224/293/183
f 147/197/184 157/210/184 89/121/184 92/124/184
f 229/298/185 223/291/185 222/289/185 227/296/185
f 148/198/186 147/197/186 92/124/186 226/295/186
f 136/182/187 135/181/187 224/293/187 225/294/187
f 157/210/188 136/182/188 225/294/188 89/121/188
f 140/186/189 139/185/189 227/296/189 228/297/189
f 135/181/190 140/192/190 228/299/190 224/293/190
f 156/209/191 148/198/191 226/295/191 229/298/191
f 139/185/192 156/209/192 229/298/192 227/296/192
f 112/155/193 157/210/193 147/197/193 133/179/193 113/156/193
f 230/300/194 231/301/194 37/302/194 40/303/194
f 232/304/195 230/300/195 40/303/195 14/305/195
f 233/306/196 234/307/196 168/308/196 166/309/196
f 231/301/197 233/306/197 166/309/197 37/302/197
f 235/310/198 236/311/198 10/312/198 175/313/198
f 234/307/199 235/310/199 175/313/199 168/308/199
f 237/314/200 232/304/200 14/305/200 11/315/200
f 236/316/201 237/314/201 11/315/201 10/317/201
f 238/318/202 234/307/202 233/306/202 239/319/202
f 240/320/203 230/300/203 232/304/203 241/321/203
f 242/322/204 236/311/204 235/310/204 243/323/204
f 239/319/205 233/306/205 231/301/205 244/324/205
f 232/304/206 237/314/206 245/325/206 241/321/206
f 243/323/207 235/310/207 234/307/207 238/318/207
f 245/325/208 237/314/208 236/316/208 242/326/208
f 244/324/209 231/301/209 230/300/209 240/320/209
f 246/327/210 247/328/210 248/329/210 249/330/210
f 247/328/211 250/331/211 251/332/211 248/329/211
f 250/331/212 252/333/212 253/334/212 251/332/212
f 248/329/213 251/332/213 16/16/213 161/214/213
f 249/330/214 248/329/214 161/214/214 160/213/214
f 252/333/215 254/335/215 255/336/215 253/334/215
f 254/335/216 256/337/216 257/338/216 255/336/216
f 253/334/217 255/336/217 10/10/217 13/13/217
f 251/332/218 253/334/218 13/13/218 16/16/218
f 256/337/219 258/339/219 259/340/219 257/338/219
f 258/339/220 260/341/220 261/342/220 259/340/220
f 257/338/221 259/340/221 164/217/221 177/235/221
f 255/336/222 257/338/222 177/235/222 10/10/222
f 260/343/223 246/327/223 249/330/223 261/344/223
f 261/344/224 249/330/224 160/213/224 165/220/224
f 259/340/225 261/342/225 165/218/225 164/217/225
f 262/345/226 254/335/226 252/333/226 263/346/226
f 264/347/227 247/328/227 246/327/227 265/348/227
f 266/349/228 258/339/228 256/337/228 267/350/228
f 263/346/229 252/333/229 250/331/229 268/351/229
f 246/327/230 260/343/230 269/352/230 265/348/230
f 267/350/231 256/337/231 254/335/231 262/345/231
f 270/353/232 271/354/232 268/351/232 264/347/232
f 269/355/233 260/341/233 258/339/233 266/349/233
f 272/356/234 270/353/234 264/347/234 265/348/234
f 273/357/235 274/358/235 262/345/235 263/346/235
f 271/354/236 273/357/236 263/346/236 268/351/236
f 275/359/237 276/360/237 266/349/237 267/350/237
f 274/358/238 275/359/238 267/350/238 262/345/238
f 277/361/239 272/356/239 265/348/239 269/352/239
f 268/351/240 250/331/240 247/328/240 264/347/240
f 276/360/241 277/362/241 269/355/241 266/349/241
f 278/363/242 279/364/242 280/365/242 281/366/242
f 282/367/243 283/368/243 284/369/243 285/370/243
f 285/370/244 284/369/244 286/371/244 287/372/244
f 288/373/245 289/374/245 290/375/245 291/376/245
f 291/377/246 290/378/246 283/368/246 282/367/246
f 280/365/247 292/379/247 293/380/247 281/366/247
f 287/372/248 278/363/248 294/381/248 295/382/248
f 293/380/249 292/379/249 289/374/249 288/373/249
f 282/367/250 285/370/250 296/383/250 297/384/250
f 278/363/251 281/366/251 298/385/251 294/381/251
f 288/373/252 291/376/252 299/386/252 300/387/252
f 285/370/253 287/372/253 295/382/253 296/383/253
f 281/366/254 293/380/254 301/388/254 298/385/254
f 291/377/255 282/367/255 297/384/255 299/389/255
f 293/380/256 288/373/256 300/387/256 301/388/256
f 302/390/257 295/382/257 294/381/257 303/391/257
f 284/369/258 283/368/258 304/392/258 305/393/258
f 306/394/259 297/384/259 296/383/259 307/395/259
f 303/391/260 294/381/260 298/385/260 308/396/260
f 309/397/261 300/387/261 299/386/261 310/398/261
f 307/395/262 296/383/262 295/382/262 302/390/262
f 298/385/263 301/388/263 311/399/263 308/396/263
f 310/400/264 299/389/264 297/384/264 306/394/264
f 41/47/265 302/390/265 303/391/265 143/189/265 42/48/265
f 311/399/266 301/388/266 300/387/266 309/397/266
f 143/189/267 303/391/267 308/396/267 144/190/267
f 170/225/268 306/394/268 307/395/268 171/226/268
f 159/212/269 309/397/269 310/398/269 162/219/269
f 171/226/270 307/395/270 302/390/270 41/47/270
f 162/215/271 310/400/271 306/394/271 170/225/271 163/216/271
f 144/190/272 308/396/272 311/399/272 158/211/272
f 158/211/273 311/399/273 309/397/273 159/212/273
f 279/364/274 286/371/274 312/401/274 313/402/274
f 280/365/275 279/364/275 313/402/275 314/403/275
f 290/375/276 289/374/276 315/404/276 316/405/276
f 313/402/277 312/401/277 9/406/277 8/407/277
f 314/403/278 313/402/278 8/407/278 7/31/278
f 286/371/279 284/369/279 305/393/279 312/401/279
f 292/379/280 280/365/280 314/403/280 317/408/280
f 305/393/281 304/392/281 70/114/281 76/409/281
f 312/401/282 305/393/282 76/409/282 9/406/282
f 283/368/283 290/378/283 316/410/283 304/392/283
f 287/372/284 286/371/284 279/364/284 278/363/284
f 316/405/285 315/404/285 27/27/285 87/119/285
f 304/392/286 316/410/286 87/115/286 70/114/286
f 289/374/287 292/379/287 317/408/287 315/404/287
f 317/408/288 314/403/288 7/31/288 28/28/288
f 315/404/289 317/408/289 28/28/289 27/27/289
f 318/411/290 319/412/290 320/413/290 321/414/290
f 322/415/291 323/416/291 324/417/291 325/418/291
f 320/413/292 326/419/292 49/420/292 65/72/292
f 321/414/293 320/413/293 65/72/293 64/71/293
f 327/421/294 328/422/294 329/423/294 326/419/294
f 330/424/295 318/411/295 321/414/295 331/425/295
f 329/423/296 332/426/296 51/427/296 50/428/296
f 326/419/297 329/423/297 50/428/297 49/420/297
f 333/429/298 322/415/298 325/418/298 332/430/298
f 334/431/299 335/432/299 327/421/299 319/412/299
f 325/418/300 324/417/300 155/207/300 173/228/300
f 332/430/301 325/418/301 173/228/301 51/232/301
f 323/416/302 330/424/302 331/425/302 324/417/302
f 331/425/303 321/414/303 64/71/303 152/202/303
f 324/417/304 331/425/304 152/202/304 155/207/304
f 336/433/305 337/434/305 333/435/305 328/422/305
f 338/436/306 334/431/306 319/412/306 318/411/306
f 339/437/307 340/438/307 323/416/307 322/415/307
f 335/432/308 336/433/308 328/422/308 327/421/308
f 341/439/309 338/436/309 318/411/309 330/424/309
f 337/440/310 339/437/310 322/415/310 333/429/310
f 340/438/311 341/439/311 330/424/311 323/416/311
f 342/441/312 343/442/312 102/140/62 101/139/61
f 344/443/313 345/444/313 346/445/313 347/446/313
f 348/447/314 349/448/314 350/449/314 351/450/314
f 346/445/315 352/451/315 45/51/315 48/54/315
f 347/446/316 346/445/316 48/54/316 51/57/316
f 353/452/317 354/453/317 355/454/317 352/451/317
f 356/455/318 344/443/318 347/446/318 357/456/318
f 355/454/319 358/457/319 124/167/319 123/166/319
f 352/451/320 355/454/320 123/166/320 45/51/320
f 359/458/321 348/459/321 351/460/321 358/457/321
f 360/461/322 361/462/322 353/452/322 345/444/322
f 351/450/323 350/449/323 130/176/323 129/175/323
f 358/457/324 351/460/324 129/174/324 124/167/324
f 349/448/325 356/455/325 357/456/325 350/449/325
f 357/456/326 347/446/326 51/57/326 174/230/326
f 350/449/327 357/456/327 174/230/327 130/176/327
f 362/463/328 363/464/328 359/458/328 354/453/328
f 364/465/329 360/461/329 345/444/329 344/443/329
f 365/466/330 366/467/330 349/448/330 348/447/330
f 361/462/331 362/463/331 354/453/331 353/452/331
f 367/468/332 364/465/332 344/443/332 356/455/332
f 363/464/333 365/469/333 348/459/333 359/458/333
f 366/467/334 367/468/334 356/455/334 349/448/334
f 361/462/335 360/461/335 368/470/335 369/471/335
f 363/464/336 362/463/336 370/472/336 371/473/336
f 360/461/337 364/465/337 372/474/337 368/470/337
f 366/467/338 365/466/338 373/475/338 374/476/338
f 362/463/339 361/462/339 369/471/339 370/472/339
f 364/465/340 367/468/340 375/477/340 372/474/340
f 365/469/341 363/464/341 371/473/341 373/478/341
f 367/468/342 366/467/342 374/476/342 375/477/342
f 345/444/343 353/452/343 352/451/343 346/445/343
f 376/479/344 377/480/344 72/86/344 23/23/344
f 343/442/345 378/481/345 83/107/345 102/140/345
f 379/482/346 380/483/346 109/149/346 73/90/346
f 84/108/347 381/484/347 376/479/347 23/23/347
f 319/412/348 327/421/348 326/419/348 320/413/348
f 377/485/349 379/482/349 73/90/349 72/89/349
f 380/483/350 342/441/350 101/139/350 109/149/350
f 328/422/351 333/435/351 332/426/351 329/423/351
f 60/67/352 131/177/352 343/442/352 342/441/352
f 131/177/353 121/164/353 378/481/353 343/442/353
f 121/164/354 118/161/354 381/484/354 378/481/354
f 118/161/355 117/160/355 376/479/355 381/484/355
f 117/160/356 126/172/356 377/480/356 376/479/356
f 126/169/357 125/168/357 379/482/357 377/485/357
f 125/168/358 153/203/358 380/483/358 379/482/358
f 153/203/359 60/67/359 342/441/359 380/483/359
f 382/486/360 383/487/360 384/488/360 385/489/360
f 386/490/361 387/491/361 388/492/361 389/493/361
f 387/494/362 390/495/362 391/496/362 388/497/362
f 392/498/363 393/499/363 394/500/363 395/501/363
f 383/487/364 386/490/364 389/493/364 384/488/364
f 390/495/365 396/502/365 397/503/365 391/496/365
f 393/499/366 382/486/366 385/489/366 394/500/366
f 398/504/367 399/505/367 400/506/367 401/507/367
f 396/502/368 392/498/368 395/501/368 397/503/368
f 402/508/369 403/509/369 404/510/369 405/511/369
f 1/1/370 100/138/370 388/497/370 391/496/370
f 100/136/371 99/135/371 389/493/371 388/492/371
f 99/135/372 116/159/372 384/488/372 389/493/372
f 116/159/373 106/146/373 385/489/373 384/488/373
f 106/146/374 105/144/374 394/500/374 385/489/374
f 105/144/375 5/5/375 395/501/375 394/500/375
f 5/5/376 2/2/376 397/503/376 395/501/376
f 2/2/377 1/1/377 391/496/377 397/503/377
f 400/512/378 399/513/378 406/514/378 407/515/378
f 408/516/379 409/517/379 410/518/379 411/519/379
f 404/510/380 403/509/380 398/504/380 401/507/380
f 406/514/381 412/520/381 413/521/381 407/515/381
f 410/518/382 409/517/382 402/508/382 405/511/382
f 386/490/383 401/507/383 400/506/383 387/491/383
f 413/521/384 412/520/384 408/516/384 411/519/384
f 382/486/385 405/511/385 404/510/385 383/487/385
f 387/494/386 400/512/386 407/515/386 390/495/386
f 392/498/387 411/519/387 410/518/387 393/499/387
f 383/487/388 404/510/388 401/507/388 386/490/388
f 407/515/389 413/521/389 396/502/389 390/495/389
f 393/499/390 410/518/390 405/511/390 382/486/390
f 354/453/391 359/458/391 358/457/391 355/454/391
f 396/502/392 413/521/392 411/519/392 392/498/392
f 150/200/393 156/209/393 139/185/393 138/184/393
f 84/108/394 83/107/394 378/481/394 381/484/394
