mtllib LOW_POLY_set.mtl
o lp_tree5_Cube_020
v 23.816362 5.421258 6.173832
v 23.567863 5.780447 6.638554
v 23.101318 5.318427 5.772214
v 23.480751 5.011364 5.588517
v 24.863363 5.391966 6.626969
v 22.777304 5.276295 5.481833
v 22.801119 5.960923 6.411139
v 23.839752 6.010280 7.101070
v 24.430090 5.722225 6.930496
v 22.535461 5.542051 5.528542
v 22.906170 5.182750 4.415362
v 23.383375 4.952345 4.372381
v 23.252434 4.909544 4.973255
v 22.593702 5.281470 4.732268
v 23.364351 5.087698 4.160155
v 22.881636 5.514520 4.199502
v 23.308947 5.282330 4.022661
v 22.484783 5.558230 4.596208
v 22.491467 6.304576 4.874940
v 22.747486 6.128708 4.336602
v 22.409880 5.707734 5.103195
v 22.382490 6.020583 5.528964
v 22.512436 5.846223 5.944078
v 22.485353 6.013299 6.181828
v 22.301497 6.110463 5.935051
v 22.481306 6.440659 5.404217
v 22.622295 6.267159 6.295104
v 22.969807 6.513731 6.524009
v 22.870754 6.157406 6.576121
v 23.086529 6.280605 6.753285
v 23.499041 6.874416 6.710665
v 24.011787 6.781905 6.963290
v 23.986856 7.469954 6.812308
v 24.009382 8.002262 6.351729
v 24.289602 8.068669 6.549767
v 23.107944 7.191702 6.054139
v 23.884199 6.375432 7.098693
v 24.521572 7.602246 6.855620
v 24.888245 6.117623 6.952299
v 24.477320 5.965194 7.077518
v 25.503902 7.101030 6.651778
v 26.493130 6.461881 6.892965
v 25.710001 5.707101 6.857654
v 26.947197 7.687389 6.591105
v 25.852446 7.964613 6.343635
v 26.439344 5.487801 6.761381
v 26.828867 6.026853 6.849762
v 26.923138 6.949467 6.792409
v 27.333069 6.200252 6.636754
v 26.966551 5.383260 6.557830
v 27.510437 5.640458 6.349669
v 27.406445 7.052867 6.545411
v 27.425272 5.210593 6.106356
v 25.997290 4.916208 6.257305
v 26.815561 4.980645 6.068210
v 26.186529 5.096963 6.515757
v 25.472210 5.516212 6.825770
v 24.063259 5.037922 5.835826
v 25.261370 4.653137 5.135846
v 24.164175 4.730389 5.232038
v 24.278427 5.146646 4.377633
v 26.489365 4.719723 5.148705
v 27.375595 4.901351 5.167982
v 26.084511 4.739029 4.661868
v 24.960821 4.917386 4.636055
v 26.657236 5.102820 4.086561
v 27.009329 5.010142 4.627066
v 26.125751 4.902666 4.112785
v 26.851936 5.577509 3.884352
v 27.586491 6.186058 4.549384
v 27.848778 5.421074 5.225528
v 26.316093 5.226388 3.700124
v 25.410618 5.841530 3.402469
v 26.039654 5.884315 3.291263
v 25.270964 5.470931 3.681426
v 26.471743 5.960284 3.411627
v 25.216236 5.179125 3.957029
v 23.982105 5.433088 4.011873
v 24.760916 6.295697 3.539274
v 24.175444 6.478502 3.787664
v 25.506556 7.018004 3.135438
v 24.423244 7.302653 3.678948
v 23.334192 6.253507 4.061131
v 24.399382 8.156327 4.117150
v 24.644667 8.113285 3.775750
v 25.091576 8.422372 3.701949
v 23.172516 7.181499 4.598737
v 23.023500 7.488661 5.344409
v 24.112774 8.256717 5.124513
v 24.834408 8.528407 4.884760
v 24.957590 8.750411 4.305142
v 25.347422 8.480627 3.724707
v 25.088804 8.655366 4.675643
v 25.183945 8.749557 4.418099
v 25.649973 8.352837 3.924477
v 25.801830 7.874423 3.479662
v 25.558908 8.409721 4.643583
v 25.403229 8.423874 4.779247
v 26.102442 8.447960 4.374828
v 26.033503 8.476208 4.736930
v 26.316339 7.395853 3.511029
v 26.473646 7.831639 3.845340
v 26.536861 8.140865 4.135380
v 27.217182 7.501902 4.809943
v 27.511261 6.955342 4.568625
v 27.022606 6.924029 4.016142
v 26.439716 6.553535 3.385783
v 28.242466 6.302605 5.113671
v 27.314354 7.896822 5.247512
v 27.666437 7.592525 5.492759
v 28.056581 6.421471 5.703543
v 27.921103 5.720314 5.734509
v 27.703423 6.504852 6.238885
v 27.464996 7.618432 6.135472
v 27.016533 8.066628 6.315556
v 26.950436 8.412522 5.878736
v 26.633011 8.350017 6.135903
v 26.103424 8.503461 5.865975
v 26.391308 8.521832 5.602915
v 25.721579 8.563785 5.675662
v 25.634077 8.454634 5.379437
v 25.542892 8.495204 5.817728
v 25.471651 8.600013 5.603748
v 25.243973 8.546812 5.828628
v 25.592440 8.287647 6.139005
v 24.762327 8.253126 6.445630
v 25.066780 8.570883 5.672400
v 24.175068 8.426652 5.477041
v 25.156912 8.598729 5.506684
v 25.381472 8.533147 5.388257
v 24.787632 8.493066 5.340085
v 23.445324 8.104038 5.544213
v 25.215563 8.500087 5.052819
v 25.261515 7.693295 6.523220
v 26.422709 8.192093 6.313146
vt 0.810325 0.809404
vt 0.810408 0.809531
vt 0.810155 0.809451
vt 0.810142 0.809352
vt 0.810559 0.809301
vt 0.810060 0.809460
vt 0.810276 0.809609
vt 0.810545 0.809591
vt 0.810589 0.809449
vt 0.810052 0.809523
vt 0.809795 0.809355
vt 0.809817 0.809251
vt 0.809969 0.809319
vt 0.809863 0.809434
vt 0.809749 0.809241
vt 0.809697 0.809385
vt 0.809685 0.809243
vt 0.809813 0.809473
vt 0.809831 0.809658
vt 0.809674 0.809542
vt 0.809933 0.809543
vt 0.810040 0.809610
vt 0.810148 0.809585
vt 0.810199 0.809615
vt 0.810134 0.809618
vt 0.810001 0.809691
vt 0.810237 0.809659
vt 0.810323 0.809713
vt 0.810319 0.809645
vt 0.810381 0.809662
vt 0.810433 0.809801
vt 0.810581 0.809794
vt 0.810510 0.809959
vt 0.810378 0.810095
vt 0.810460 0.810132
vt 0.810216 0.809868
vt 0.810582 0.809668
vt 0.810700 0.810172
vt 0.810915 0.810051
vt 0.811026 0.810018
vt 0.811075 0.810280
vt 0.811121 0.810171
vt 0.810651 0.809496
vt 0.810809 0.810442
vt 0.810999 0.810673
vt 0.811185 0.810486
vt 0.810714 0.810801
vt 0.810577 0.810556
vt 0.811240 0.810674
vt 0.811095 0.810753
vt 0.810888 0.810776
vt 0.811053 0.810886
vt 0.811267 0.810830
vt 0.811195 0.810987
vt 0.810855 0.810905
vt 0.810163 0.811756
vt 0.810285 0.811756
vt 0.810238 0.811907
vt 0.810002 0.812015
vt 0.810071 0.811851
vt 0.810104 0.812035
vt 0.810234 0.812041
vt 0.810584 0.809018
vt 0.810683 0.809034
vt 0.810696 0.809237
vt 0.810810 0.809057
vt 0.810260 0.809292
vt 0.809642 0.811899
vt 0.810114 0.809182
vt 0.810202 0.808970
vt 0.809876 0.809064
vt 0.809829 0.811738
vt 0.809947 0.811629
vt 0.809684 0.811692
vt 0.809486 0.811808
vt 0.810022 0.808960
vt 0.809671 0.811504
vt 0.809809 0.811569
vt 0.809604 0.811571
vt 0.809669 0.811405
vt 0.809916 0.811354
vt 0.810035 0.811549
vt 0.809571 0.811461
vt 0.809372 0.811412
vt 0.809469 0.811346
vt 0.809393 0.811514
vt 0.809544 0.811316
vt 0.809428 0.811604
vt 0.809186 0.811708
vt 0.809207 0.811421
vt 0.809307 0.811797
vt 0.809725 0.809078
vt 0.809348 0.810063
vt 0.809200 0.810161
vt 0.809198 0.809829
vt 0.809298 0.809689
vt 0.809280 0.811176
vt 0.809450 0.810253
vt 0.809186 0.810456
vt 0.809471 0.809860
vt 0.809684 0.810343
vt 0.809582 0.810410
vt 0.809590 0.810543
vt 0.809569 0.809715
vt 0.809759 0.809941
vt 0.809424 0.809644
vt 0.810013 0.809938
vt 0.810002 0.810236
vt 0.809960 0.810425
vt 0.809790 0.810502
vt 0.809598 0.810614
vt 0.809905 0.810499
vt 0.809830 0.810533
vt 0.809689 0.810693
vt 0.809531 0.810832
vt 0.809375 0.810637
vt 0.809925 0.810622
vt 0.809962 0.810577
vt 0.809870 0.810757
vt 0.809983 0.810725
vt 0.809584 0.810999
vt 0.809715 0.810929
vt 0.809816 0.810882
vt 0.810037 0.811077
vt 0.809959 0.811207
vt 0.809771 0.811160
vt 0.809524 0.811192
vt 0.809332 0.810999
vt 0.810100 0.811406
vt 0.810196 0.811030
vt 0.810263 0.811144
vt 0.810268 0.811447
vt 0.810175 0.811580
vt 0.810412 0.811589
vt 0.810970 0.811046
vt 0.810678 0.810993
vt 0.810491 0.811150
vt 0.810480 0.811442
vt 0.810602 0.810843
vt 0.810424 0.810886
vt 0.810493 0.810776
vt 0.810366 0.810663
vt 0.810291 0.810754
vt 0.810280 0.810583
vt 0.810171 0.810587
vt 0.810323 0.810528
vt 0.810241 0.810527
vt 0.810304 0.810454
vt 0.810450 0.810511
vt 0.810484 0.810266
vt 0.810241 0.810425
vt 0.810123 0.810240
vt 0.810191 0.810460
vt 0.810161 0.810523
vt 0.810110 0.810386
vt 0.810095 0.810077
vt 0.810037 0.810507
vt 0.810614 0.810053
vt 0.810644 0.810391
vt 0.810552 0.810709
vt 0.810763 0.809220
vn -0.2185 -0.7785 0.5883
vn -0.2432 -0.8261 0.5084
vn -0.4479 -0.6661 0.5964
vn -0.3442 -0.7495 0.5655
vn -0.2374 -0.8074 0.5401
vn -0.2376 -0.8070 0.5407
vn -0.2375 -0.8072 0.5404
vn -0.2373 -0.8076 0.5399
vn -0.6038 -0.6343 0.4828
vn -0.5555 -0.8293 -0.0613
vn -0.2475 -0.8807 0.4039
vn -0.4922 -0.8629 0.1146
vn -0.4191 -0.7821 -0.4612
vn -0.5220 -0.5286 -0.6694
vn -0.6573 -0.4446 -0.6086
vn -0.6835 -0.5206 -0.5117
vn -0.8039 0.1037 -0.5857
vn -0.9037 -0.4260 0.0417
vn -0.9835 0.0709 -0.1662
vn -0.9396 -0.3005 0.1641
vn -0.9881 0.0865 -0.1271
vn -0.9577 -0.2542 -0.1347
vn -0.9755 0.2080 -0.0722
vn -0.9252 -0.3518 0.1419
vn -0.7683 0.1353 0.6257
vn -0.7239 0.2926 0.6247
vn -0.5331 -0.5992 0.5973
vn -0.4808 -0.1277 0.8675
vn -0.4159 0.1458 0.8976
vn -0.4592 0.2297 0.8581
vn -0.6285 0.5240 0.5748
vn -0.6786 0.6630 0.3161
vn -0.7242 0.4863 0.4888
vn -0.4239 0.4540 0.7837
vn -0.6495 0.5180 0.5565
vn -0.3328 -0.5345 0.7769
vn -0.4974 -0.3870 0.7765
vn -0.4023 0.0549 0.9139
vn 0.1149 0.1353 0.9841
vn 0.2002 0.2405 0.9498
vn 0.0371 0.0020 0.9993
vn 0.2634 0.1273 0.9562
vn -0.0314 0.3100 0.9502
vn 0.2138 0.2078 0.9545
vn 0.0600 -0.1087 0.9923
vn -0.0859 0.3095 0.9470
vn 0.0459 -0.1362 0.9896
vn -0.0754 0.2647 0.9614
vn 0.1815 0.0425 0.9825
vn 0.4561 -0.2860 0.8427
vn 0.4134 0.0372 0.9098
vn 0.2771 -0.3471 0.8960
vn 0.5054 -0.4987 0.7042
vn 0.2279 -0.8154 0.5322
vn 0.2602 -0.7836 0.5641
vn 0.1799 -0.6042 0.7763
vn -0.1192 -0.7705 0.6262
vn -0.0285 -0.6253 0.7799
vn -0.2180 -0.8673 0.4476
vn -0.1914 -0.7156 0.6718
vn 0.1133 -0.9813 0.1558
vn -0.1421 -0.8917 0.4298
vn -0.1426 -0.8916 0.4298
vn -0.1495 -0.8909 0.4288
vn -0.0455 -0.9655 0.2564
vn -0.1420 -0.8914 0.4303
vn -0.2411 -0.7246 0.6456
vn -0.1348 -0.9710 -0.1973
vn -0.4984 -0.8064 0.3184
vn 0.1098 -0.9658 0.2351
vn 0.0548 -0.9949 -0.0851
vn -0.1348 -0.9072 -0.3986
vn -0.1002 -0.9032 -0.4173
vn 0.2829 -0.9125 -0.2954
vn -0.1433 -0.9455 -0.2925
vn 0.2631 -0.9303 -0.2557
vn 0.7533 -0.4358 -0.4925
vn 0.6540 -0.4127 -0.6340
vn 0.1969 -0.9268 -0.3197
vn 0.5585 -0.5083 -0.6555
vn 0.2814 -0.8137 -0.5086
vn -0.1131 -0.5627 -0.8189
vn 0.4329 -0.4078 -0.8039
vn -0.1295 -0.7158 -0.6862
vn -0.2879 -0.3328 -0.8980
vn -0.1846 -0.7635 -0.6188
vn 0.1584 -0.7110 -0.6851
vn 0.3131 -0.7878 -0.5305
vn 0.1104 -0.5523 -0.8263
vn -0.2029 -0.1693 -0.9644
vn -0.2469 -0.1953 -0.9492
vn -0.4333 -0.0203 -0.9010
vn -0.3116 0.0102 -0.9502
vn -0.6331 0.3394 -0.6957
vn -0.3667 0.2373 -0.8996
vn -0.4581 0.3845 -0.8015
vn -0.5643 0.3380 -0.7532
vn -0.4406 0.1028 -0.8918
vn -0.3604 0.0463 -0.9316
vn -0.7757 0.4697 -0.4214
vn -0.5850 0.7736 -0.2435
vn -0.7405 0.6650 0.0973
vn -0.5523 0.6763 -0.4874
vn -0.1502 0.8541 -0.4979
vn -0.2070 0.9275 0.3113
vn 0.0827 0.9839 -0.1583
vn 0.5927 0.6413 -0.4874
vn -0.0022 0.3735 -0.9276
vn 0.4950 0.8431 -0.2103
vn 0.6273 0.7699 0.1171
vn -0.1166 0.9886 -0.0951
vn 0.4151 0.5887 -0.6937
vn 0.3187 0.7208 -0.6156
vn 0.6322 0.7725 0.0601
vn 0.6156 0.7793 0.1173
vn 0.7499 0.4338 -0.4996
vn 0.7588 0.3563 -0.5453
vn 0.7435 0.0893 -0.6627
vn 0.6774 -0.0139 -0.7355
vn 0.6649 0.2370 -0.7083
vn 0.7531 -0.0179 -0.6577
vn 0.3233 0.2215 -0.9200
vn 0.2574 -0.0174 -0.9662
vn 0.7549 0.5582 -0.3443
vn 0.6416 0.0818 -0.7627
vn 0.6424 -0.3719 -0.6700
vn 0.7128 0.4595 -0.5299
vn 0.9133 0.3436 0.2186
vn 0.9331 -0.2932 0.2080
vn 0.7766 -0.5851 0.2336
vn 0.7166 -0.6728 0.1838
vn 0.8176 -0.1332 0.5601
vn 0.8329 -0.1166 0.5409
vn 0.7796 -0.4183 0.4661
vn 0.7455 -0.0373 0.6654
vn 0.8702 0.2269 0.4374
vn 0.8291 0.2250 0.5119
vn 0.6553 0.3977 0.6422
vn 0.7284 0.5865 0.3542
vn 0.8556 0.4533 0.2499
vn 0.3044 0.7686 0.5626
vn 0.0951 0.9340 0.3444
vn 0.1023 0.9783 0.1803
vn 0.7061 0.6905 -0.1570
vn 0.4472 0.8381 -0.3124
vn -0.1398 0.9902 0.0056
vn 0.0785 0.9848 0.1547
vn -0.0464 0.9890 -0.1403
vn 0.0994 0.9063 0.4108
vn 0.2427 0.8848 -0.3977
vn -0.0468 0.9213 0.3859
vn -0.0595 0.8343 0.5481
vn 0.1567 0.8404 0.5188
vn 0.1558 0.8404 0.5190
vn 0.1627 0.8358 0.5243
vn 0.1633 0.8352 0.5251
vn -0.2945 0.9191 0.2618
vn -0.0377 0.9803 0.1938
vn -0.2296 0.8920 0.3893
vn 0.0273 0.9944 -0.1018
vn -0.1694 0.9816 -0.0876
vn -0.2830 0.9470 -0.1523
vn -0.1551 0.5251 0.8368
vn -0.4064 0.8491 -0.3375
vn -0.6910 0.6931 0.2054
vn -0.5799 0.7059 -0.4067
vn -0.5275 0.5670 -0.6326
vn -0.8834 0.4495 -0.1325
vn -0.7760 0.5436 0.3198
vn -0.8884 0.4587 -0.0156
vn -0.8299 0.4726 0.2965
vn -0.0481 0.9747 -0.2181
vn 0.0382 0.9960 0.0812
vn 0.0606 0.9300 0.3625
vn 0.6530 0.7154 0.2486
vn 0.2319 0.9588 -0.1638
vn -0.1139 0.9046 0.4107
vn 0.2618 0.8853 -0.3843
vn 0.0345 0.9973 -0.0644
vn -0.3296 0.9315 0.1540
vn -0.1078 0.5071 0.8551
vn 0.3174 0.4020 0.8588
vn 0.0080 0.5397 0.8418
vn -0.0464 0.8039 0.5929
vn -0.1330 0.4517 0.8822
vn 0.1630 0.2725 0.9482
vn -0.1074 0.3917 0.9138
vn 0.1171 0.5697 0.8135
vn 0.1353 0.6546 0.7438
vn 0.3518 0.3338 0.8745
vn 0.5140 0.5769 -0.6348
vn 0.6085 0.3906 0.6908
vn 0.4038 0.2285 0.8858
vn -0.1771 -0.8942 -0.4113
vn -0.1276 -0.8848 -0.4481
vn 0.2122 -0.9769 -0.0233
vn 0.3233 -0.9037 0.2807
vn 0.0577 -0.2340 0.9705
vn -0.0749 -0.7263 0.6833
vn 0.1080 -0.2932 0.9499
vn -0.0168 -0.5154 0.8568
vn -0.0042 -0.5171 0.8559
vn -0.0158 -0.5154 0.8568
vn -0.2735 0.1967 0.9415
vn -0.0049 -0.5170 0.8560
vn -0.5106 -0.7070 0.4893
usemtl Material.003
f 1/1/1 2/2/1 3/3/1 4/4/1
f 2/2/2 1/1/2 5/5/2
f 6/6/3 3/3/3 2/2/3
f 7/7/4 6/6/4 2/2/4 8/8/4
f 9/9/5 8/8/6 2/2/7
f 2/2/7 5/5/8 9/9/5
f 6/6/9 7/7/9 10/10/9
f 11/11/10 12/12/10 13/13/10 6/6/10
f 3/3/11 6/6/11 13/13/11
f 6/6/12 10/10/12 14/14/12 11/11/12
f 11/11/13 15/15/13 12/12/13
f 15/15/14 11/11/14 16/16/14 17/17/14
f 11/11/15 18/18/15 16/16/15
f 14/14/16 18/18/16 11/11/16
f 18/18/17 19/19/17 20/20/17 16/16/17
f 14/14/18 10/10/18 21/21/18 18/18/18
f 19/19/19 18/18/19 21/21/19
f 22/22/20 21/21/20 10/10/20 23/23/20
f 21/21/21 22/22/21 19/19/21
f 22/22/22 24/24/22 25/25/22 26/26/22
f 22/22/23 26/26/23 19/19/23
f 22/22/24 23/23/24 24/24/24
f 24/24/25 27/27/25 25/25/25
f 28/28/26 24/24/26 29/29/26 30/30/26
f 7/7/27 29/29/27 24/24/27 23/23/27
f 28/28/28 27/27/28 24/24/28
f 31/31/29 28/28/29 32/32/29
f 31/31/30 33/33/30 28/28/30
f 34/34/31 28/28/31 33/33/31 35/35/31
f 25/25/32 27/27/32 28/28/32
f 28/28/33 36/36/33 25/25/33
f 37/37/34 32/32/34 28/28/34 30/30/34
f 34/34/35 36/36/35 28/28/35
f 29/29/36 7/7/36 30/30/36
f 7/7/37 8/8/37 30/30/37
f 8/8/38 37/37/38 30/30/38
f 38/38/39 32/39/39 37/40/39 39/41/39
f 40/42/40 39/41/40 37/40/40
f 37/37/41 8/8/41 40/43/41
f 41/44/42 38/38/42 39/41/42
f 39/41/43 42/45/43 41/44/43
f 40/42/44 43/46/44 39/41/44
f 43/46/45 42/45/45 39/41/45
f 42/45/46 44/47/46 45/48/46 41/44/46
f 42/45/47 43/46/47 46/49/47 47/50/47
f 44/47/48 42/45/48 48/51/48
f 48/51/49 42/45/49 47/50/49
f 49/52/50 47/50/50 50/53/50 51/54/50
f 52/55/51 48/51/51 47/50/51 49/52/51
f 47/50/52 46/49/52 50/53/52
f 53/56/53 51/57/53 50/58/53
f 54/59/54 55/60/54 50/58/54 56/61/54
f 55/60/55 53/56/55 50/58/55
f 46/62/56 56/61/56 50/58/56
f 54/63/57 56/64/57 5/5/57
f 57/65/58 5/5/58 56/64/58 46/66/58
f 1/1/59 54/63/59 5/5/59
f 58/67/60 54/63/60 1/1/60
f 55/60/61 54/59/61 59/68/61
f 58/67/62 60/69/63 54/63/64
f 54/63/65 60/69/65 59/70/65
f 58/67/62 4/4/66 60/69/63
f 58/67/67 1/1/67 4/4/67
f 4/4/68 13/13/68 61/71/68 60/69/68
f 4/4/69 3/3/69 13/13/69
f 55/60/70 59/68/70 62/72/70 63/73/70
f 59/68/71 64/74/71 62/72/71
f 65/75/72 64/74/72 59/68/72
f 59/70/73 60/69/73 65/76/73
f 66/77/74 67/78/74 64/74/74 68/79/74
f 68/79/75 64/74/75 65/75/75
f 62/72/76 64/74/76 67/78/76
f 69/80/77 70/81/77 67/78/77 66/77/77
f 63/73/78 67/78/78 70/81/78 71/82/78
f 63/73/79 62/72/79 67/78/79
f 69/80/80 66/77/80 72/83/80
f 72/83/81 66/77/81 68/79/81
f 73/84/82 74/85/82 72/83/82 75/86/82
f 76/87/83 69/80/83 72/83/83 74/85/83
f 75/86/84 72/83/84 68/79/84 77/88/84
f 75/86/85 78/89/85 79/90/85 73/84/85
f 61/91/86 78/89/86 75/86/86 77/88/86
f 78/92/87 61/71/87 12/12/87
f 12/12/88 15/15/88 78/92/88
f 15/15/89 17/17/89 78/92/89
f 80/93/90 79/94/90 78/95/90 17/96/90
f 73/84/91 79/90/91 81/97/91 74/85/91
f 82/98/92 81/99/92 79/94/92 80/93/92
f 80/93/93 17/96/93 83/100/93 82/98/93
f 82/98/94 83/100/94 84/101/94 85/102/94
f 85/102/95 86/103/95 81/99/95 82/98/95
f 83/100/96 20/104/96 87/105/96
f 87/105/97 84/101/97 83/100/97
f 83/100/98 16/106/98 20/104/98
f 17/96/99 16/106/99 83/100/99
f 87/105/100 20/104/100 19/19/100 88/107/100
f 84/101/101 87/105/101 89/108/101 90/109/101
f 91/110/102 84/101/102 90/109/102
f 84/101/103 91/110/103 86/103/103 85/102/103
f 92/111/104 86/103/104 91/110/104
f 90/109/105 93/112/105 91/110/105
f 94/113/106 92/111/106 91/110/106 93/112/106
f 95/114/107 96/115/107 92/111/107
f 96/116/108 81/99/108 86/103/108 92/111/108
f 92/111/109 94/113/109 95/114/109
f 97/117/110 95/114/110 94/113/110 98/118/110
f 99/119/111 95/114/111 97/117/111 100/120/111
f 101/121/112 96/115/112 95/114/112 102/122/112
f 102/122/113 95/114/113 99/119/113 103/123/113
f 104/124/114 99/119/114 100/120/114
f 103/123/115 99/119/115 104/124/115
f 105/125/116 106/126/116 103/123/116 104/124/116
f 106/126/117 102/122/117 103/123/117
f 106/126/118 105/125/118 70/81/118
f 106/126/119 70/81/119 69/80/119
f 102/122/120 106/126/120 107/127/120 101/121/120
f 107/127/121 106/126/121 69/80/121 76/87/121
f 107/127/122 81/128/122 96/115/122 101/121/122
f 74/85/123 81/97/123 107/127/123 76/87/123
f 105/125/124 104/124/124 108/129/124
f 70/81/125 105/125/125 108/129/125
f 108/129/126 71/82/126 70/81/126
f 109/130/127 110/131/127 108/129/127 104/124/127
f 108/129/128 110/131/128 111/132/128
f 71/82/129 108/129/129 111/132/129 112/133/129
f 53/56/130 71/82/130 112/133/130
f 63/73/131 71/82/131 53/56/131
f 113/134/132 112/133/132 111/132/132
f 113/134/133 51/57/133 112/133/133
f 53/56/134 112/133/134 51/57/134
f 51/54/135 113/135/135 52/55/135 49/52/135
f 114/136/136 52/55/136 113/135/136
f 111/132/137 114/137/137 113/138/137
f 115/139/138 52/55/138 114/136/138
f 116/140/139 115/139/139 114/136/139
f 110/131/140 116/140/140 114/137/140 111/132/140
f 116/140/141 117/141/141 115/139/141
f 117/141/142 116/140/142 118/142/142
f 118/142/143 116/140/143 119/143/143
f 110/131/144 109/130/144 116/140/144
f 119/143/145 116/140/145 109/130/145 100/120/145
f 97/117/146 119/143/146 100/120/146
f 118/142/147 119/143/147 120/144/147
f 119/143/148 97/117/148 121/145/148 120/144/148
f 122/146/149 120/144/149 123/147/149 124/148/149
f 120/144/150 121/145/150 123/147/150
f 120/144/151 122/146/151 118/142/151
f 118/142/152 122/146/152 125/149/152
f 125/149/153 122/146/154 126/150/155
f 122/146/154 124/148/156 126/150/155
f 127/151/157 34/34/157 126/150/157 124/148/157
f 127/151/158 124/148/158 123/147/158
f 128/152/159 34/34/159 127/151/159
f 129/153/160 127/151/160 123/147/160 130/154/160
f 131/155/161 128/152/161 127/151/161 129/153/161
f 131/155/162 90/109/162 89/108/162 128/152/162
f 128/152/163 132/156/163 36/36/163
f 89/108/164 132/156/164 128/152/164
f 128/152/165 36/36/165 34/34/165
f 87/105/166 88/107/166 89/108/166
f 88/107/167 132/156/167 89/108/167
f 26/26/168 88/107/168 19/19/168
f 88/107/169 25/25/169 36/36/169
f 88/107/170 26/26/170 25/25/170
f 36/36/171 132/156/171 88/107/171
f 130/154/172 133/157/172 131/155/172 129/153/172
f 90/109/173 131/155/173 133/157/173
f 94/113/174 93/112/174 133/157/174
f 98/118/175 94/113/175 133/157/175
f 121/145/176 98/118/176 133/157/176 130/154/176
f 133/157/177 93/112/177 90/109/177
f 121/145/178 130/154/178 123/147/178
f 98/118/179 121/145/179 97/117/179
f 34/34/180 35/35/180 126/150/180
f 35/35/181 33/33/181 38/158/181 126/150/181
f 125/149/182 126/150/182 38/38/182 134/159/182
f 125/149/183 134/159/183 45/48/183
f 117/141/184 118/142/184 125/149/184 135/160/184
f 45/48/185 135/160/185 125/149/185
f 45/48/186 134/159/186 41/44/186
f 44/47/187 135/160/187 45/48/187
f 115/139/188 135/160/188 44/47/188
f 117/141/189 135/160/189 115/139/189
f 134/159/190 38/38/190 41/44/190
f 104/124/191 100/120/191 109/130/191
f 44/47/192 52/55/192 115/139/192
f 48/51/193 52/55/193 44/47/193
f 77/88/194 68/79/194 65/75/194 61/91/194
f 60/69/195 61/71/195 65/76/195
f 13/13/196 12/12/196 61/71/196
f 53/56/197 55/60/197 63/73/197
f 43/161/198 57/65/198 46/66/198
f 57/65/199 9/9/199 5/5/199
f 57/65/200 43/161/200 40/43/200
f 40/43/201 9/9/202 57/65/203
f 33/33/204 31/31/204 32/32/204 38/158/204
f 40/43/201 8/8/205 9/9/202
f 7/7/206 23/23/206 10/10/206
