mtllib LOW_POLY_set.mtl
o lp_tree1_Icosphere_013
v -28.309187 5.981056 -36.866817
v -29.283987 5.908212 -35.865936
v -29.804005 6.001191 -36.966061
v -28.085556 6.080855 -35.111202
v -29.203991 6.011332 -34.342045
v -30.405752 5.945642 -35.650776
v -28.778561 6.349958 -38.303066
v -30.168968 6.646073 -37.837673
v -31.247871 6.281789 -36.641212
v -27.335970 6.182843 -37.857124
v -29.660748 7.706340 -39.123070
v -28.019775 7.335214 -39.401932
v -26.489208 6.948926 -37.601101
v -26.943195 6.344238 -36.326660
v -27.626965 9.006161 -38.443726
v -26.636787 7.567206 -35.717056
v -26.814095 8.599533 -36.655132
v -27.215576 6.745611 -34.726959
v -27.379969 7.830243 -34.112202
v -27.321198 9.331481 -35.219364
v -28.027742 9.102112 -34.160694
v -28.356525 10.142384 -34.895073
v -27.934763 10.565316 -36.525681
v -28.838814 10.342193 -36.134144
v -29.039248 10.456207 -37.929115
v -29.499422 9.323360 -35.153652
v -29.962276 9.457356 -36.624191
v -31.376587 8.703864 -35.553532
v -30.439207 8.600478 -34.493374
v -29.130482 9.011861 -34.044598
v -29.923304 7.686738 -33.747364
v -28.549641 7.810242 -33.358288
v -28.048317 6.557769 -33.535034
v -29.173944 6.705838 -33.428120
v -30.358368 6.451407 -34.356476
v -31.493126 6.452621 -35.462200
v -31.446072 7.546249 -34.798267
v -32.125992 7.354628 -36.116604
v -31.148066 7.616975 -37.650452
v -31.373703 8.509750 -36.893749
v -30.433210 9.375752 -38.396362
v -29.044992 8.901214 -39.142330
vt 0.809886 0.789801
vt 0.810267 0.789789
vt 0.810159 0.790086
vt 0.810657 0.792673
vt 0.810446 0.792741
vt 0.810542 0.792493
vt 0.810729 0.792459
vt 0.810839 0.792700
vt 0.810515 0.789987
vt 0.809745 0.790180
vt 0.810067 0.790361
vt 0.810444 0.790315
vt 0.809510 0.789856
vt 0.809773 0.790645
vt 0.809377 0.790423
vt 0.809476 0.792259
vt 0.809377 0.791892
vt 0.809640 0.792177
vt 0.810232 0.792798
vt 0.810293 0.792556
vt 0.809724 0.792394
vt 0.809690 0.791761
vt 0.809951 0.792254
vt 0.809910 0.792003
vt 0.810449 0.792356
vt 0.810228 0.792322
vt 0.810466 0.792166
vt 0.810210 0.791956
vt 0.810442 0.791923
vt 0.810310 0.791739
vt 0.810072 0.791655
vt 0.810181 0.791565
vt 0.809870 0.791413
vt 0.810479 0.791542
vt 0.810264 0.791287
vt 0.810686 0.791085
vt 0.810786 0.791454
vt 0.810618 0.791793
vt 0.811074 0.791690
vt 0.811001 0.792106
vt 0.810674 0.792096
vt 0.810628 0.792301
vt 0.810783 0.792287
vt 0.811398 0.791960
vt 0.810918 0.792494
vt 0.811466 0.791486
vt 0.811039 0.792715
vt 0.811078 0.791188
vt 0.811413 0.791013
vt 0.810732 0.790254
vt 0.811080 0.790777
vt 0.810682 0.790623
vt 0.810236 0.790664
vt 0.810389 0.790915
vt 0.809986 0.791038
vt 0.809615 0.790961
vt 0.809516 0.791556
vn -0.0081 -0.9967 -0.0804
vn 0.1168 -0.9923 0.0415
vn 0.1041 -0.9926 0.0617
vn -0.0201 -0.9974 0.0686
vn -0.0453 -0.9970 -0.0628
vn -0.3311 -0.8195 -0.4677
vn -0.2719 -0.8245 -0.4962
vn -0.2194 -0.9654 -0.1411
vn 0.0035 -0.9683 -0.2499
vn -0.0394 -0.9708 -0.2365
vn -0.3627 -0.6434 -0.6741
vn -0.2656 -0.6194 -0.7388
vn 0.1030 -0.7749 -0.6236
vn 0.6183 -0.4738 -0.6271
vn 0.2419 -0.9695 0.0402
vn 0.6839 -0.7228 -0.0993
vn 0.7685 0.1727 -0.6161
vn 0.9828 0.1839 0.0166
vn 0.8787 0.3555 -0.3185
vn 0.9298 -0.3219 0.1785
vn 0.8950 -0.1094 0.4324
vn 0.9061 -0.3474 0.2414
vn 0.8951 0.2415 0.3749
vn 0.9340 0.3145 0.1696
vn 0.7244 0.3906 0.5681
vn 0.6180 0.5743 0.5369
vn 0.8690 0.4917 0.0563
vn 0.6434 0.6840 0.3438
vn -0.1463 0.9661 0.2127
vn 0.5385 0.6941 -0.4778
vn -0.2040 0.9753 0.0847
vn 0.8299 0.4906 -0.2656
vn -0.5968 0.7226 0.3488
vn -0.6460 0.7538 0.1200
vn -0.6659 0.6944 0.2729
vn -0.3631 0.8401 0.4030
vn -0.3442 0.9190 0.1921
vn -0.5926 0.7024 0.3944
vn -0.3912 0.8439 0.3672
vn -0.2839 0.3684 0.8853
vn -0.4104 0.4264 0.8061
vn 0.0375 0.5842 0.8107
vn 0.0483 0.5129 0.8571
vn 0.5380 0.0972 0.8373
vn 0.0799 -0.1078 0.9909
vn -0.2793 0.0975 0.9552
vn 0.5145 0.2928 0.8060
vn -0.0470 -0.7946 0.6053
vn -0.2955 -0.7559 0.5842
vn -0.5811 -0.1860 0.7923
vn -0.3379 -0.8724 0.3532
vn -0.3371 -0.8727 0.3533
vn -0.3435 -0.8704 0.3526
vn -0.3445 -0.8701 0.3526
vn -0.5421 -0.2102 0.8136
vn -0.6471 -0.3751 0.6637
vn -0.4157 -0.9084 0.0451
vn -0.8452 -0.2503 0.4723
vn -0.7895 -0.6090 -0.0760
vn -0.8402 0.2111 -0.4996
vn -0.8580 0.5080 -0.0754
vn -0.8621 0.3122 0.3992
vn -0.7595 -0.3552 -0.5450
vn -0.7030 -0.0158 -0.7110
vn -0.6011 -0.4834 -0.6364
vn -0.5847 -0.4609 -0.6676
vn -0.8759 0.1634 -0.4540
vn -0.6347 0.7611 0.1336
vn -0.2083 0.6021 -0.7707
vn -0.5687 0.8147 0.1136
vn -0.4108 0.1974 -0.8901
vn 0.3836 0.3899 -0.8372
vn 0.3247 0.5811 -0.7463
vn -0.1533 0.0631 -0.9862
vn -0.5371 0.8347 -0.1220
vn -0.5590 0.3117 0.7683
vn -0.6501 0.4422 0.6179
vn 0.2471 -0.9291 0.2753
vn 0.8191 -0.1838 0.5433
vn 0.5222 -0.8196 0.2357
vn 0.4970 -0.8179 0.2898
vn 0.2482 -0.9684 0.0234
usemtl Material.002
f 1/1/1 2/2/1 3/3/1
f 2/4/2 1/5/2 4/6/2
f 2/4/3 4/6/3 5/7/3
f 2/4/4 5/7/4 6/8/4
f 2/2/5 6/9/5 3/3/5
f 7/10/6 3/3/6 8/11/6
f 3/3/7 9/12/7 8/11/7
f 3/3/8 6/9/8 9/12/8
f 7/10/9 1/1/9 3/3/9
f 10/13/10 1/1/10 7/10/10
f 7/10/11 8/11/11 11/14/11
f 12/15/12 7/10/12 11/14/12
f 10/13/13 7/10/13 12/15/13
f 10/16/14 12/17/14 13/18/14
f 1/5/15 10/19/15 14/20/15
f 14/21/16 10/16/16 13/18/16
f 13/18/17 12/17/17 15/22/17
f 16/23/18 13/18/18 17/24/18
f 13/18/19 15/22/19 17/24/19
f 16/23/20 14/21/20 13/18/20
f 18/25/21 16/26/21 19/27/21
f 18/25/22 14/20/22 16/26/22
f 19/27/23 16/26/23 20/28/23
f 16/23/24 17/24/24 20/28/24
f 19/27/25 20/28/25 21/29/25
f 21/29/26 20/28/26 22/30/26
f 20/28/27 17/24/27 23/31/27
f 22/30/28 20/28/28 23/31/28
f 22/30/29 23/31/29 24/32/29
f 23/31/30 15/22/30 25/33/30
f 23/31/31 25/33/31 24/32/31
f 17/24/32 15/22/32 23/31/32
f 26/34/33 22/30/33 24/32/33
f 25/33/34 27/35/34 24/32/34
f 27/35/35 26/34/35 24/32/35
f 28/36/36 29/37/36 26/34/36
f 27/35/37 28/36/37 26/34/37
f 26/34/38 30/38/38 22/30/38
f 29/37/39 30/38/39 26/34/39
f 31/39/40 32/40/40 30/38/40
f 31/39/41 30/38/41 29/37/41
f 30/38/42 21/29/42 22/30/42
f 32/41/43 21/29/43 30/38/43
f 32/41/44 33/42/44 19/27/44
f 34/43/45 33/42/45 32/41/45
f 34/44/46 32/40/46 31/39/46
f 32/41/47 19/27/47 21/29/47
f 5/7/48 33/42/48 34/43/48
f 5/7/49 34/43/49 35/45/49
f 35/46/50 34/44/50 31/39/50
f 6/8/51 5/7/52 35/45/53
f 6/8/51 35/45/53 36/47/54
f 37/48/55 35/46/55 31/39/55
f 36/49/56 35/46/56 37/48/56
f 6/9/57 36/50/57 9/12/57
f 36/49/58 37/48/58 38/51/58
f 9/12/59 36/50/59 38/52/59
f 39/53/60 38/52/60 40/54/60
f 38/52/61 28/36/61 40/54/61
f 38/51/62 37/48/62 28/36/62
f 39/53/63 9/12/63 38/52/63
f 11/14/64 39/53/64 41/55/64
f 8/11/65 39/53/65 11/14/65
f 8/11/66 9/12/66 39/53/66
f 39/53/67 40/54/67 41/55/67
f 25/33/68 41/55/68 27/35/68
f 42/56/69 41/55/69 25/33/69
f 41/55/70 40/54/70 27/35/70
f 11/14/71 41/55/71 42/56/71
f 12/17/72 42/57/72 15/22/72
f 15/22/73 42/57/73 25/33/73
f 12/15/74 11/14/74 42/56/74
f 40/54/75 28/36/75 27/35/75
f 37/48/76 31/39/76 29/37/76
f 37/48/77 29/37/77 28/36/77
f 5/7/78 4/6/78 33/42/78
f 33/42/79 18/25/79 19/27/79
f 4/6/80 18/25/80 33/42/80
f 4/6/81 14/20/81 18/25/81
f 4/6/82 1/5/82 14/20/82
