mtllib forest_nature_set_all_in.mtl
o forest_Mushroom_big_group_brown_Icosphere_027
v -23.384241 0.040362 12.964215
v -23.413368 0.041906 12.954300
v -23.399641 0.000000 12.907233
v -23.381350 0.000000 12.913177
v -23.335022 0.056134 12.901481
v -23.335819 0.049156 12.931569
v -23.351751 0.000000 12.891672
v -23.351751 0.000000 12.872438
v -23.430079 0.054152 12.899487
v -23.411280 0.060176 12.875526
v -23.399641 0.000000 12.856878
v -23.410948 0.000000 12.872438
v -23.352531 0.061401 12.876759
v -23.363056 0.000000 12.856878
v -23.430878 0.047174 12.929575
v -23.410948 0.000000 12.891672
v -23.354620 0.043131 12.955532
v -23.363056 0.000000 12.907233
v -23.381659 0.062945 12.866845
v -23.381350 0.000000 12.850934
v -23.334730 0.113088 12.936699
v -23.335396 0.107357 12.966697
v -23.353882 0.102435 12.990514
v -23.429369 0.105862 12.964329
v -23.428703 0.111593 12.934332
v -23.352139 0.117439 12.911979
v -23.410217 0.116515 12.910516
v -23.345428 0.214296 13.049393
v -23.296783 0.221114 13.008306
v -23.356440 0.262166 13.008306
v -23.462458 0.220053 13.011321
v -23.408085 0.226589 13.044514
v -23.425226 0.265550 12.985928
v -23.462458 0.220053 12.888122
v -23.476873 0.229973 12.949721
v -23.425226 0.265550 12.913514
v -23.345428 0.214296 12.850050
v -23.408085 0.226589 12.854928
v -23.356440 0.262166 12.891136
v -23.273100 0.210738 12.949721
v -23.296783 0.221114 12.891136
v -23.313927 0.260074 12.949721
v -23.374592 0.280579 12.949721
v -23.269047 0.158074 12.913513
v -23.311560 0.160166 12.854928
v -23.380348 0.163549 12.832550
v -23.449137 0.166933 12.854928
v -23.491652 0.169025 12.913513
v -23.491652 0.169025 12.985929
v -23.449137 0.166933 13.044514
v -23.380348 0.163549 13.066892
v -23.311560 0.160166 13.044514
v -23.269047 0.158074 12.985929
v -23.383127 0.100202 12.999053
v -23.411961 0.101511 12.989051
v -23.380972 0.118748 12.901978
v -23.377348 0.149789 12.908348
v -23.352562 0.149789 12.916402
v -23.417452 0.149789 12.963547
v -23.417452 0.149789 12.937486
v -23.337244 0.149789 12.937486
v -23.337244 0.149789 12.963547
v -23.402134 0.149789 12.916402
v -23.377348 0.149789 12.992684
v -23.402134 0.149789 12.984632
v -23.352562 0.149789 12.984632
v -23.372202 0.000000 12.885027
v -23.390720 0.000000 12.879010
v -23.481607 0.088864 12.832782
v -23.534277 0.076654 12.814902
v -23.463369 0.000000 12.843632
v -23.429998 0.000000 12.854474
v -23.396379 0.108622 12.714153
v -23.396379 0.108622 12.770517
v -23.376005 0.000000 12.815246
v -23.376005 0.000000 12.780159
v -23.566826 0.069108 12.712653
v -23.534277 0.076654 12.667336
v -23.463369 0.000000 12.751772
v -23.483992 0.000000 12.780159
v -23.428936 0.101075 12.668263
v -23.396629 0.000000 12.751772
v -23.566826 0.069108 12.769018
v -23.483992 0.000000 12.815246
v -23.428936 0.101075 12.815829
v -23.396629 0.000000 12.843632
v -23.481607 0.088864 12.650380
v -23.429998 0.000000 12.740930
v -23.430798 0.208813 12.674173
v -23.430798 0.208813 12.729898
v -23.463242 0.204311 12.774982
v -23.600677 0.185239 12.729898
v -23.600677 0.185239 12.674173
v -23.463242 0.204311 12.629089
v -23.568233 0.189741 12.629089
v -23.459661 0.390927 12.882409
v -23.370922 0.403365 12.807458
v -23.479748 0.478253 12.807457
v -23.673149 0.401429 12.812957
v -23.573963 0.413353 12.873509
v -23.605232 0.484426 12.766635
v -23.673149 0.401429 12.588212
v -23.699448 0.419526 12.700584
v -23.605232 0.484426 12.634534
v -23.459661 0.390927 12.518760
v -23.573963 0.413353 12.527660
v -23.479748 0.478253 12.593712
v -23.327717 0.384436 12.700584
v -23.370922 0.403365 12.593711
v -23.402193 0.474437 12.700584
v -23.512861 0.511843 12.700584
v -23.320324 0.288365 12.634534
v -23.397879 0.292180 12.527658
v -23.523365 0.298353 12.486836
v -23.648849 0.304526 12.527658
v -23.726404 0.308341 12.634534
v -23.726404 0.308341 12.766635
v -23.648849 0.304526 12.873510
v -23.523365 0.298353 12.914332
v -23.397879 0.292180 12.873510
v -23.320324 0.288365 12.766635
v -23.515738 0.197026 12.792203
v -23.568233 0.189741 12.774982
v -23.515738 0.197026 12.611869
v -23.517889 0.273252 12.625112
v -23.472673 0.273252 12.639803
v -23.591049 0.273252 12.725807
v -23.591049 0.273252 12.678266
v -23.444729 0.273252 12.678266
v -23.444729 0.273252 12.725807
v -23.563105 0.273252 12.639803
v -23.517889 0.273252 12.778961
v -23.563105 0.273252 12.764270
v -23.472673 0.273252 12.764270
v -23.413313 0.000000 12.803123
v -23.447096 0.000000 12.792147
v -23.271133 0.075956 12.884428
v -23.314104 0.084178 12.870212
v -23.345068 0.000000 12.847480
v -23.317833 0.000000 12.856329
v -23.201603 0.062654 12.786992
v -23.201603 0.062654 12.832994
v -23.273766 0.000000 12.824311
v -23.273766 0.000000 12.795675
v -23.340664 0.089259 12.786992
v -23.314104 0.084178 12.749775
v -23.345068 0.000000 12.772507
v -23.361900 0.000000 12.795675
v -23.228161 0.067735 12.749775
v -23.290598 0.000000 12.772507
v -23.340664 0.089259 12.832994
v -23.361900 0.000000 12.824311
v -23.228161 0.067735 12.870212
v -23.290598 0.000000 12.847480
v -23.271133 0.075956 12.735559
v -23.317833 0.000000 12.763658
v -23.148561 0.151159 12.787252
v -23.148561 0.151159 12.832734
v -23.174910 0.155679 12.869530
v -23.286524 0.174830 12.832734
v -23.286524 0.174830 12.787252
v -23.174910 0.155679 12.750457
v -23.260176 0.170309 12.750457
v -23.163019 0.319060 12.957207
v -23.090593 0.329211 12.896034
v -23.179413 0.390332 12.896034
v -23.337261 0.327631 12.900523
v -23.256308 0.337363 12.949943
v -23.281828 0.395370 12.862717
v -23.337261 0.327631 12.717094
v -23.358723 0.342401 12.808808
v -23.281828 0.395370 12.754901
v -23.163019 0.319060 12.660411
v -23.256308 0.337363 12.667674
v -23.179413 0.390332 12.721583
v -23.055330 0.313762 12.808808
v -23.090593 0.329211 12.721582
v -23.116116 0.387218 12.808808
v -23.206440 0.417747 12.808808
v -23.049297 0.235353 12.754901
v -23.112595 0.238466 12.667673
v -23.215012 0.243505 12.634356
v -23.317429 0.248543 12.667673
v -23.380726 0.251657 12.754901
v -23.380726 0.251657 12.862717
v -23.317429 0.248543 12.949944
v -23.215012 0.243505 12.983261
v -23.112595 0.238466 12.949944
v -23.049297 0.235353 12.862717
v -23.217543 0.162994 12.883584
v -23.260176 0.170309 12.869530
v -23.217543 0.162994 12.736403
v -23.210543 0.223018 12.747211
v -23.173639 0.223018 12.759201
v -23.270252 0.223018 12.829394
v -23.270252 0.223018 12.790592
v -23.150833 0.223018 12.790592
v -23.150833 0.223018 12.829394
v -23.247446 0.223018 12.759201
v -23.210543 0.223018 12.872776
v -23.247446 0.223018 12.860785
v -23.173639 0.223018 12.860785
v -23.304214 0.000000 12.814418
v -23.331787 0.000000 12.805460
vt 0.853740 0.660574
vt 0.847372 0.660574
vt 0.850122 0.527714
vt 0.854087 0.527714
vt 0.864044 0.660574
vt 0.864044 0.660574
vt 0.860501 0.527714
vt 0.860501 0.527714
vt 0.843436 0.660574
vt 0.847372 0.660574
vt 0.850122 0.527714
vt 0.847672 0.527714
vt 0.860108 0.660574
vt 0.858051 0.527714
vt 0.843436 0.660574
vt 0.847672 0.527714
vt 0.860108 0.660574
vt 0.858051 0.527714
vt 0.853740 0.660574
vt 0.853966 0.527714
vt 0.854087 0.527714
vt 0.864122 0.809297
vt 0.864122 0.809297
vt 0.860231 0.809297
vt 0.843748 0.809297
vt 0.843748 0.809297
vt 0.860231 0.809297
vt 0.847639 0.809297
vt 0.658852 0.731562
vt 0.671329 0.766386
vt 0.655400 0.910494
vt 0.628555 0.731562
vt 0.642514 0.766386
vt 0.637592 0.910494
vt 0.628555 0.731562
vt 0.624706 0.766386
vt 0.637592 0.910494
vt 0.658852 0.731562
vt 0.642514 0.766386
vt 0.655400 0.910494
vt 0.677577 0.731559
vt 0.671329 0.766386
vt 0.666407 0.910493
vt 0.650478 0.976732
vt 0.679293 0.533209
vt 0.668287 0.533209
vt 0.650478 0.533209
vt 0.632670 0.533209
vt 0.621664 0.533209
vt 0.621664 0.533209
vt 0.632670 0.533209
vt 0.650478 0.533209
vt 0.668287 0.533209
vt 0.679293 0.533209
vt 0.853935 0.809297
vt 0.847639 0.809297
vt 0.853935 0.809297
vt 0.854954 0.912991
vt 0.860325 0.912991
vt 0.846263 0.912991
vt 0.846263 0.912991
vt 0.863645 0.912991
vt 0.863645 0.912991
vt 0.849582 0.912991
vt 0.854954 0.912991
vt 0.849582 0.912991
vt 0.860325 0.912991
vt 0.854055 0.952674
vt 0.868980 0.952674
vt 0.829905 0.952674
vt 0.839129 0.952674
vt 0.878204 0.952674
vt 0.839129 0.952674
vt 0.829905 0.952674
vt 0.868980 0.952674
vt 0.854055 0.952674
vt 0.878204 0.952674
vt 0.856069 0.527714
vt 0.852056 0.527714
vt 0.853740 0.660574
vt 0.847372 0.660574
vt 0.850122 0.527714
vt 0.854087 0.527714
vt 0.864044 0.660574
vt 0.864044 0.660574
vt 0.860501 0.527714
vt 0.860501 0.527714
vt 0.843436 0.660574
vt 0.847372 0.660574
vt 0.850122 0.527714
vt 0.847672 0.527714
vt 0.860108 0.660574
vt 0.858051 0.527714
vt 0.843436 0.660574
vt 0.847672 0.527714
vt 0.860108 0.660574
vt 0.858051 0.527714
vt 0.853740 0.660574
vt 0.853966 0.527714
vt 0.854087 0.527714
vt 0.864122 0.809297
vt 0.864122 0.809297
vt 0.860231 0.809297
vt 0.843748 0.809297
vt 0.843748 0.809297
vt 0.860231 0.809297
vt 0.847639 0.809297
vt 0.658852 0.731562
vt 0.671329 0.766386
vt 0.655400 0.910494
vt 0.628555 0.731562
vt 0.642514 0.766386
vt 0.637592 0.910494
vt 0.628555 0.731562
vt 0.624706 0.766386
vt 0.637592 0.910494
vt 0.658852 0.731562
vt 0.642514 0.766386
vt 0.655400 0.910494
vt 0.677577 0.731559
vt 0.671329 0.766386
vt 0.666407 0.910493
vt 0.650478 0.976732
vt 0.679293 0.533209
vt 0.668287 0.533209
vt 0.650478 0.533209
vt 0.632670 0.533209
vt 0.621664 0.533209
vt 0.621664 0.533209
vt 0.632670 0.533209
vt 0.650478 0.533209
vt 0.668287 0.533209
vt 0.679293 0.533209
vt 0.853935 0.809297
vt 0.847639 0.809297
vt 0.853935 0.809297
vt 0.854954 0.912991
vt 0.860325 0.912991
vt 0.846263 0.912991
vt 0.846263 0.912991
vt 0.863645 0.912991
vt 0.863645 0.912991
vt 0.849582 0.912991
vt 0.854954 0.912991
vt 0.849582 0.912991
vt 0.860325 0.912991
vt 0.854055 0.952674
vt 0.868980 0.952674
vt 0.829905 0.952674
vt 0.839129 0.952674
vt 0.878204 0.952674
vt 0.839129 0.952674
vt 0.829905 0.952674
vt 0.868980 0.952674
vt 0.854055 0.952674
vt 0.878204 0.952674
vt 0.856069 0.527714
vt 0.852056 0.527714
vt 0.853740 0.660574
vt 0.847372 0.660574
vt 0.850122 0.527714
vt 0.854087 0.527714
vt 0.864044 0.660574
vt 0.864044 0.660574
vt 0.860501 0.527714
vt 0.860501 0.527714
vt 0.843436 0.660574
vt 0.847372 0.660574
vt 0.850122 0.527714
vt 0.847672 0.527714
vt 0.860108 0.660574
vt 0.858051 0.527714
vt 0.843436 0.660574
vt 0.847672 0.527714
vt 0.860108 0.660574
vt 0.858051 0.527714
vt 0.853740 0.660574
vt 0.853966 0.527714
vt 0.854087 0.527714
vt 0.864122 0.809297
vt 0.864122 0.809297
vt 0.860231 0.809297
vt 0.843748 0.809297
vt 0.843748 0.809297
vt 0.860231 0.809297
vt 0.847639 0.809297
vt 0.658852 0.731562
vt 0.671329 0.766386
vt 0.655400 0.910494
vt 0.628555 0.731562
vt 0.642514 0.766386
vt 0.637592 0.910494
vt 0.628555 0.731562
vt 0.624706 0.766386
vt 0.637592 0.910494
vt 0.658852 0.731562
vt 0.642514 0.766386
vt 0.655400 0.910494
vt 0.677577 0.731559
vt 0.671329 0.766386
vt 0.666407 0.910493
vt 0.650478 0.976732
vt 0.679293 0.533209
vt 0.668287 0.533209
vt 0.650478 0.533209
vt 0.632670 0.533209
vt 0.621664 0.533209
vt 0.621664 0.533209
vt 0.632670 0.533209
vt 0.650478 0.533209
vt 0.668287 0.533209
vt 0.679293 0.533209
vt 0.853935 0.809297
vt 0.847639 0.809297
vt 0.853935 0.809297
vt 0.854954 0.912991
vt 0.860325 0.912991
vt 0.846263 0.912991
vt 0.846263 0.912991
vt 0.863645 0.912991
vt 0.863645 0.912991
vt 0.849582 0.912991
vt 0.854954 0.912991
vt 0.849582 0.912991
vt 0.860325 0.912991
vt 0.854055 0.952674
vt 0.868980 0.952674
vt 0.829905 0.952674
vt 0.839129 0.952674
vt 0.878204 0.952674
vt 0.839129 0.952674
vt 0.829905 0.952674
vt 0.868980 0.952674
vt 0.854055 0.952674
vt 0.878204 0.952674
vt 0.856069 0.527714
vt 0.852056 0.527714
vn -0.2266 -0.7649 0.6030
vn 0.9592 -0.2815 -0.0243
vn -0.7972 0.0266 -0.6032
vn 0.8154 0.0509 -0.5766
vn -0.9439 -0.3246 -0.0612
vn -0.6683 -0.6299 0.3957
vn 0.6826 -0.5910 0.4299
vn 0.2321 -0.7510 0.6182
vn -0.2962 0.2314 -0.9267
vn 0.3150 0.2386 -0.9186
vn 0.9996 -0.0186 0.0204
vn 0.7800 -0.3263 0.5340
vn -0.9992 0.0350 -0.0170
vn 0.8037 0.3112 -0.5071
vn -0.7774 0.3410 -0.5285
vn 0.4410 0.6408 0.6284
vn -0.4382 0.6841 0.5831
vn -0.6669 0.6953 -0.2680
vn 0.0710 0.6590 -0.7488
vn 0.7557 0.6253 -0.1947
vn 0.3141 0.9292 -0.1947
vn 0.5296 0.7696 -0.3568
vn 0.4410 0.6408 -0.6284
vn -0.0559 0.9474 -0.3151
vn -0.1483 0.8029 -0.5773
vn -0.4382 0.6841 -0.5831
vn -0.2846 0.9587 0.0000
vn -0.5673 0.8235 0.0000
vn -0.6669 0.6953 0.2680
vn -0.0559 0.9474 0.3151
vn -0.1483 0.8029 0.5773
vn 0.0710 0.6590 0.7488
vn 0.3141 0.9292 0.1947
vn 0.5296 0.7696 0.3568
vn 0.7557 0.6253 0.1947
vn 0.9049 0.2863 -0.3151
vn 0.8029 0.1484 -0.5773
vn 0.5901 0.3018 -0.7488
vn -0.0085 0.3312 -0.9435
vn -0.2940 0.2023 -0.9342
vn -0.5177 0.3563 -0.7779
vn -0.8877 0.3744 -0.2680
vn -0.9718 0.2357 0.0000
vn -0.8877 0.3744 0.2680
vn -0.5177 0.3562 0.7779
vn -0.2939 0.2023 0.9342
vn -0.0085 0.3312 0.9435
vn 0.5902 0.3017 0.7488
vn 0.8029 0.1484 0.5774
vn 0.9049 0.2863 0.3151
vn 0.3124 0.1104 -0.9435
vn 0.2830 -0.4882 0.8256
vn -0.3069 -0.4743 0.8252
vn -0.7955 0.1649 -0.5831
vn 0.3025 0.5054 -0.8081
vn -0.2809 0.5120 -0.8118
vn -0.7955 0.1649 0.5831
vn -0.8085 -0.2832 0.5159
vn 0.3190 0.1434 -0.9369
vn 0.3123 0.1104 0.9435
vn -0.9624 0.2710 0.0163
vn 0.9983 0.0555 0.0175
vn 0.9971 0.0767 0.0000
vn -0.7811 0.2818 -0.5572
vn -0.3120 0.1531 0.9377
vn 0.8147 0.0780 -0.5747
vn -0.7842 0.2177 0.5810
vn 0.7937 0.0655 0.6047
vn -0.2944 0.2303 -0.9275
vn 0.2883 0.0992 0.9524
vn 0.0190 -0.9856 -0.1680
vn -0.2047 -0.9711 -0.1231
vn 0.0950 -0.9909 -0.0950
vn -0.2067 -0.9704 0.1246
vn -0.0956 -0.9780 -0.1853
vn -0.2509 -0.9680 0.0000
vn 0.0202 -0.9850 0.1716
vn -0.0968 -0.9772 0.1891
vn 0.1206 -0.9927 0.0000
vn 0.0968 -0.9906 0.0962
vn 0.0000 -1.0000 -0.0000
vn -0.3225 0.0492 0.9453
vn 0.9829 0.1844 0.0000
vn -0.4099 -0.8290 -0.3805
vn 0.8067 -0.1950 -0.5578
vn -0.6406 -0.7679 0.0000
vn -0.7006 -0.4571 0.5480
vn 0.7313 0.3797 0.5666
vn 0.2441 0.3441 0.9067
vn -0.1011 -0.7571 -0.6454
vn 0.3335 -0.5526 -0.7638
vn 0.9458 0.3249 0.0000
vn 0.6920 0.4574 0.5585
vn -0.9600 -0.2798 0.0000
vn 0.8099 0.0461 -0.5848
vn -0.7170 -0.4026 -0.5691
vn 0.8029 0.1483 -0.5773
vn 0.5901 0.3017 -0.7488
vn -0.5177 0.3562 -0.7779
vn -0.9718 0.2356 0.0000
vn 0.5901 0.3017 0.7488
vn 0.8029 0.1483 0.5773
vn 0.9048 0.2863 0.3151
vn 0.2121 0.4103 0.8869
vn -0.3457 0.2250 0.9109
vn 0.3456 -0.2231 -0.9115
vn -0.2215 -0.3798 -0.8982
vn -0.8107 -0.0383 0.5843
vn 0.2934 0.1784 -0.9392
vn 0.3124 0.1104 0.9435
vn -0.9941 0.1087 0.0000
vn 0.9774 0.2113 0.0000
vn -0.8077 0.1193 -0.5774
vn -0.3169 0.1464 0.9371
vn 0.7884 0.2026 -0.5808
vn -0.8077 0.1193 0.5774
vn 0.7884 0.2026 0.5808
vn -0.3170 0.1464 -0.9371
vn 0.2934 0.1784 0.9392
vn 0.0968 -0.9906 0.0963
vn -0.3238 -0.1400 0.9357
vn 0.6556 -0.7551 0.0000
vn -0.7993 0.1345 -0.5857
vn 0.5599 -0.6889 -0.4603
vn -0.9728 0.2315 0.0000
vn -0.7993 0.1345 0.5857
vn 0.5599 -0.6889 0.4603
vn 0.2247 -0.4722 0.8524
vn -0.3238 -0.1400 -0.9357
vn 0.2247 -0.4722 -0.8524
vn 0.8577 -0.5141 0.0000
vn 0.7096 -0.4245 0.5623
vn -0.8451 0.5347 0.0000
vn 0.7096 -0.4245 -0.5623
vn -0.7007 0.4441 -0.5585
vn -0.4382 0.6840 0.5831
vn 0.7556 0.6254 -0.1947
vn 0.5296 0.7695 -0.3568
vn -0.1483 0.8029 -0.5774
vn -0.2845 0.9587 0.0000
vn -0.6668 0.6953 0.2680
vn -0.1483 0.8029 0.5774
vn 0.7557 0.6254 0.1947
vn 0.9049 0.2862 -0.3151
vn 0.8029 0.1483 -0.5774
vn -0.2939 0.2023 -0.9342
vn -0.5177 0.3563 0.7779
vn 0.5901 0.3018 0.7488
vn 0.8029 0.1483 0.5774
vn 0.9049 0.2862 0.3151
vn 0.2823 -0.1642 0.9452
vn -0.2786 0.1813 0.9431
vn 0.2824 -0.1642 -0.9452
vn -0.2786 0.1813 -0.9432
vn -0.7007 0.4441 0.5585
vn 0.3191 0.1235 -0.9396
vn -0.9474 0.3199 0.0000
vn 0.9995 0.0316 0.0000
vn -0.7674 0.2891 -0.5724
vn -0.2864 0.2122 0.9343
vn 0.8117 0.0563 -0.5814
vn -0.7674 0.2891 0.5723
vn 0.8117 0.0563 0.5814
vn -0.2865 0.2122 -0.9343
vn 0.3190 0.1235 0.9397
usemtl AllColors_Material
f 1/1/1 2/2/1 3/3/1 4/4/1
f 5/5/2 6/6/2 7/7/2 8/8/2
f 9/9/3 10/10/3 11/11/3 12/12/3
f 13/13/4 5/5/4 8/8/4 14/14/4
f 15/15/5 9/9/5 12/12/5 16/16/5
f 2/2/6 15/15/6 16/16/6 3/3/6
f 6/6/7 17/17/7 18/18/7 7/7/7
f 17/17/8 1/1/8 4/4/8 18/18/8
f 10/10/9 19/19/9 20/20/9 11/11/9
f 19/19/10 13/13/10 14/14/10 20/21/10
f 21/22/11 22/23/11 6/6/11 5/5/11
f 22/23/12 23/24/12 17/17/12 6/6/12
f 24/25/13 25/26/13 9/9/13 15/15/13
f 26/27/14 21/22/14 5/5/14 13/13/14
f 25/26/15 27/28/15 10/10/15 9/9/15
f 28/29/16 29/30/16 30/31/16
f 31/32/17 32/33/17 33/34/17
f 34/35/18 35/36/18 36/37/18
f 37/38/19 38/39/19 39/40/19
f 40/41/20 41/42/20 42/43/20
f 42/43/21 39/40/21 43/44/21
f 42/43/22 41/42/22 39/40/22
f 41/42/23 37/38/23 39/40/23
f 39/40/24 36/37/24 43/44/24
f 39/40/25 38/39/25 36/37/25
f 38/39/26 34/35/26 36/37/26
f 36/37/27 33/34/27 43/44/27
f 36/37/28 35/36/28 33/34/28
f 35/36/29 31/32/29 33/34/29
f 33/34/30 30/31/30 43/44/30
f 33/34/31 32/33/31 30/31/31
f 32/33/32 28/29/32 30/31/32
f 30/31/33 42/43/33 43/44/33
f 30/31/34 29/30/34 42/43/34
f 29/30/35 40/41/35 42/43/35
f 44/45/36 41/42/36 40/41/36
f 44/45/37 45/46/37 41/42/37
f 45/46/38 37/38/38 41/42/38
f 46/47/39 38/39/39 37/38/39
f 46/47/40 47/48/40 38/39/40
f 47/48/41 34/35/41 38/39/41
f 48/49/42 35/36/42 34/35/42
f 48/49/43 49/50/43 35/36/43
f 49/50/44 31/32/44 35/36/44
f 50/51/45 32/33/45 31/32/45
f 50/51/46 51/52/46 32/33/46
f 51/52/47 28/29/47 32/33/47
f 52/53/48 29/30/48 28/29/48
f 52/53/49 53/54/49 29/30/49
f 53/54/50 40/41/50 29/30/50
f 45/46/51 46/47/51 37/38/51
f 23/24/52 54/55/52 1/1/52 17/17/52
f 54/55/53 55/56/53 2/2/53 1/1/53
f 47/48/54 48/49/54 34/35/54
f 56/57/55 26/27/55 13/13/55 19/19/55
f 27/28/56 56/57/56 19/19/56 10/10/56
f 49/50/57 50/51/57 31/32/57
f 55/56/58 24/25/58 15/15/58 2/2/58
f 57/58/59 58/59/59 26/27/59 56/57/59
f 51/52/60 52/53/60 28/29/60
f 59/60/61 60/61/61 25/26/61 24/25/61
f 61/62/62 62/63/62 22/23/62 21/22/62
f 53/54/63 44/45/63 40/41/63
f 60/61/64 63/64/64 27/28/64 25/26/64
f 64/65/65 65/66/65 55/56/65 54/55/65
f 58/59/66 61/62/66 21/22/66 26/27/66
f 65/66/67 59/60/67 24/25/67 55/56/67
f 62/63/68 66/67/68 23/24/68 22/23/68
f 63/64/69 57/58/69 56/57/69 27/28/69
f 66/67/70 64/65/70 54/55/70 23/24/70
f 46/68/71 45/69/71 58/59/71 57/58/71
f 48/70/72 47/71/72 63/64/72 60/61/72
f 45/69/73 44/72/73 61/62/73 58/59/73
f 50/73/74 49/74/74 59/60/74 65/66/74
f 47/71/75 46/68/75 57/58/75 63/64/75
f 49/74/76 48/70/76 60/61/76 59/60/76
f 52/75/77 51/76/77 64/65/77 66/67/77
f 51/76/78 50/73/78 65/66/78 64/65/78
f 44/72/79 53/77/79 62/63/79 61/62/79
f 53/77/80 52/75/80 66/67/80 62/63/80
f 7/7/81 18/18/81 4/4/81 67/78/81
f 12/12/81 11/11/81 20/20/81 68/79/81
f 67/78/81 4/4/81 3/3/81 68/79/81
f 67/78/81 14/14/81 8/8/81 7/7/81
f 68/79/81 20/21/81 14/14/81 67/78/81
f 68/79/81 3/3/81 16/16/81 12/12/81
f 69/80/82 70/81/82 71/82/82 72/83/82
f 73/84/83 74/85/83 75/86/83 76/87/83
f 77/88/84 78/89/84 79/90/84 80/91/84
f 81/92/85 73/84/85 76/87/85 82/93/85
f 83/94/86 77/88/86 80/91/86 84/95/86
f 70/81/87 83/94/87 84/95/87 71/82/87
f 74/85/88 85/96/88 86/97/88 75/86/88
f 85/96/89 69/80/89 72/83/89 86/97/89
f 78/89/90 87/98/90 88/99/90 79/90/90
f 87/98/91 81/92/91 82/93/91 88/100/91
f 89/101/92 90/102/92 74/85/92 73/84/92
f 90/102/93 91/103/93 85/96/93 74/85/93
f 92/104/94 93/105/94 77/88/94 83/94/94
f 94/106/95 89/101/95 73/84/95 81/92/95
f 93/105/96 95/107/96 78/89/96 77/88/96
f 96/108/16 97/109/16 98/110/16
f 99/111/17 100/112/17 101/113/17
f 102/114/18 103/115/18 104/116/18
f 105/117/19 106/118/19 107/119/19
f 108/120/20 109/121/20 110/122/20
f 110/122/21 107/119/21 111/123/21
f 110/122/22 109/121/22 107/119/22
f 109/121/23 105/117/23 107/119/23
f 107/119/24 104/116/24 111/123/24
f 107/119/25 106/118/25 104/116/25
f 106/118/26 102/114/26 104/116/26
f 104/116/27 101/113/27 111/123/27
f 104/116/28 103/115/28 101/113/28
f 103/115/29 99/111/29 101/113/29
f 101/113/30 98/110/30 111/123/30
f 101/113/31 100/112/31 98/110/31
f 100/112/32 96/108/32 98/110/32
f 98/110/33 110/122/33 111/123/33
f 98/110/34 97/109/34 110/122/34
f 97/109/35 108/120/35 110/122/35
f 112/124/36 109/121/36 108/120/36
f 112/124/97 113/125/97 109/121/97
f 113/125/98 105/117/98 109/121/98
f 114/126/39 106/118/39 105/117/39
f 114/126/40 115/127/40 106/118/40
f 115/127/99 102/114/99 106/118/99
f 116/128/42 103/115/42 102/114/42
f 116/128/100 117/129/100 103/115/100
f 117/129/44 99/111/44 103/115/44
f 118/130/45 100/112/45 99/111/45
f 118/130/46 119/131/46 100/112/46
f 119/131/47 96/108/47 100/112/47
f 120/132/101 97/109/101 96/108/101
f 120/132/102 121/133/102 97/109/102
f 121/133/103 108/120/103 97/109/103
f 113/125/51 114/126/51 105/117/51
f 91/103/104 122/134/104 69/80/104 85/96/104
f 122/134/105 123/135/105 70/81/105 69/80/105
f 115/127/54 116/128/54 102/114/54
f 124/136/106 94/106/106 81/92/106 87/98/106
f 95/107/107 124/136/107 87/98/107 78/89/107
f 117/129/57 118/130/57 99/111/57
f 123/135/108 92/104/108 83/94/108 70/81/108
f 125/137/109 126/138/109 94/106/109 124/136/109
f 119/131/110 120/132/110 96/108/110
f 127/139/111 128/140/111 93/105/111 92/104/111
f 129/141/112 130/142/112 90/102/112 89/101/112
f 121/133/63 112/124/63 108/120/63
f 128/140/113 131/143/113 95/107/113 93/105/113
f 132/144/114 133/145/114 123/135/114 122/134/114
f 126/138/115 129/141/115 89/101/115 94/106/115
f 133/145/116 127/139/116 92/104/116 123/135/116
f 130/142/117 134/146/117 91/103/117 90/102/117
f 131/143/118 125/137/118 124/136/118 95/107/118
f 134/146/119 132/144/119 122/134/119 91/103/119
f 114/147/71 113/148/71 126/138/71 125/137/71
f 116/149/72 115/150/72 131/143/72 128/140/72
f 113/148/73 112/151/73 129/141/73 126/138/73
f 118/152/74 117/153/74 127/139/74 133/145/74
f 115/150/75 114/147/75 125/137/75 131/143/75
f 117/153/76 116/149/76 128/140/76 127/139/76
f 120/154/77 119/155/77 132/144/77 134/146/77
f 119/155/78 118/152/78 133/145/78 132/144/78
f 112/151/79 121/156/79 130/142/79 129/141/79
f 121/156/120 120/154/120 134/146/120 130/142/120
f 75/86/81 86/97/81 72/83/81 135/157/81
f 80/91/81 79/90/81 88/99/81 136/158/81
f 135/157/81 72/83/81 71/82/81 136/158/81
f 135/157/81 82/93/81 76/87/81 75/86/81
f 136/158/81 88/100/81 82/93/81 135/157/81
f 136/158/81 71/82/81 84/95/81 80/91/81
f 137/159/121 138/160/121 139/161/121 140/162/121
f 141/163/122 142/164/122 143/165/122 144/166/122
f 145/167/123 146/168/123 147/169/123 148/170/123
f 149/171/124 141/163/124 144/166/124 150/172/124
f 151/173/125 145/167/125 148/170/125 152/174/125
f 138/160/126 151/173/126 152/174/126 139/161/126
f 142/164/127 153/175/127 154/176/127 143/165/127
f 153/175/128 137/159/128 140/162/128 154/176/128
f 146/168/129 155/177/129 156/178/129 147/169/129
f 155/177/130 149/171/130 150/172/130 156/179/130
f 157/180/131 158/181/131 142/164/131 141/163/131
f 158/181/132 159/182/132 153/175/132 142/164/132
f 160/183/133 161/184/133 145/167/133 151/173/133
f 162/185/134 157/180/134 141/163/134 149/171/134
f 161/184/135 163/186/135 146/168/135 145/167/135
f 164/187/16 165/188/16 166/189/16
f 167/190/136 168/191/136 169/192/136
f 170/193/18 171/194/18 172/195/18
f 173/196/19 174/197/19 175/198/19
f 176/199/137 177/200/137 178/201/137
f 178/201/21 175/198/21 179/202/21
f 178/201/138 177/200/138 175/198/138
f 177/200/23 173/196/23 175/198/23
f 175/198/24 172/195/24 179/202/24
f 175/198/139 174/197/139 172/195/139
f 174/197/26 170/193/26 172/195/26
f 172/195/140 169/192/140 179/202/140
f 172/195/28 171/194/28 169/192/28
f 171/194/141 167/190/141 169/192/141
f 169/192/30 166/189/30 179/202/30
f 169/192/142 168/191/142 166/189/142
f 168/191/32 164/187/32 166/189/32
f 166/189/33 178/201/33 179/202/33
f 166/189/34 165/188/34 178/201/34
f 165/188/143 176/199/143 178/201/143
f 180/203/144 177/200/144 176/199/144
f 180/203/145 181/204/145 177/200/145
f 181/204/38 173/196/38 177/200/38
f 182/205/39 174/197/39 173/196/39
f 182/205/146 183/206/146 174/197/146
f 183/206/41 170/193/41 174/197/41
f 184/207/42 171/194/42 170/193/42
f 184/207/43 185/208/43 171/194/43
f 185/208/44 167/190/44 171/194/44
f 186/209/147 168/191/147 167/190/147
f 186/209/46 187/210/46 168/191/46
f 187/210/47 164/187/47 168/191/47
f 188/211/148 165/188/148 164/187/148
f 188/211/149 189/212/149 165/188/149
f 189/212/150 176/199/150 165/188/150
f 181/204/51 182/205/51 173/196/51
f 159/182/151 190/213/151 137/159/151 153/175/151
f 190/213/152 191/214/152 138/160/152 137/159/152
f 183/206/54 184/207/54 170/193/54
f 192/215/153 162/185/153 149/171/153 155/177/153
f 163/186/154 192/215/154 155/177/154 146/168/154
f 185/208/57 186/209/57 167/190/57
f 191/214/155 160/183/155 151/173/155 138/160/155
f 193/216/156 194/217/156 162/185/156 192/215/156
f 187/210/110 188/211/110 164/187/110
f 195/218/157 196/219/157 161/184/157 160/183/157
f 197/220/158 198/221/158 158/181/158 157/180/158
f 189/212/63 180/203/63 176/199/63
f 196/219/159 199/222/159 163/186/159 161/184/159
f 200/223/160 201/224/160 191/214/160 190/213/160
f 194/217/161 197/220/161 157/180/161 162/185/161
f 201/224/162 195/218/162 160/183/162 191/214/162
f 198/221/163 202/225/163 159/182/163 158/181/163
f 199/222/164 193/216/164 192/215/164 163/186/164
f 202/225/165 200/223/165 190/213/165 159/182/165
f 182/226/71 181/227/71 194/217/71 193/216/71
f 184/228/72 183/229/72 199/222/72 196/219/72
f 181/227/73 180/230/73 197/220/73 194/217/73
f 186/231/74 185/232/74 195/218/74 201/224/74
f 183/229/75 182/226/75 193/216/75 199/222/75
f 185/232/76 184/228/76 196/219/76 195/218/76
f 188/233/77 187/234/77 200/223/77 202/225/77
f 187/234/78 186/231/78 201/224/78 200/223/78
f 180/230/79 189/235/79 198/221/79 197/220/79
f 189/235/120 188/233/120 202/225/120 198/221/120
f 143/165/81 154/176/81 140/162/81 203/236/81
f 148/170/81 147/169/81 156/178/81 204/237/81
f 203/236/81 140/162/81 139/161/81 204/237/81
f 203/236/81 150/172/81 144/166/81 143/165/81
f 204/237/81 156/179/81 150/172/81 203/236/81
f 204/237/81 139/161/81 152/174/81 148/170/81
