mtllib forest_nature_set_all_in.mtl
o forest_Grass_bush_low_01_Plane_005
v -20.954910 0.000000 8.533514
v -20.916330 0.000000 8.524343
v -20.798079 0.000000 8.685097
v -20.815235 0.000000 8.728092
v -21.058617 0.281408 8.668954
v -20.963223 0.261898 8.836845
v -21.189220 0.305790 8.971277
v -21.243469 0.298858 8.855042
v -21.028379 0.287400 8.668346
v -20.947371 0.271603 8.807514
v -21.180775 0.323282 8.954053
v -21.566969 0.102506 9.080868
v -21.226809 0.317216 8.857521
v -20.636721 0.245275 8.108063
v -20.749990 0.235628 8.043072
v -20.608744 0.069823 7.735868
v -20.746931 0.255381 8.062361
v -20.652046 0.262660 8.115761
v -20.854809 0.276513 8.365762
v -20.705824 0.292596 8.434169
v -20.681004 0.286496 8.415947
v -20.858795 0.266633 8.332053
v -20.720682 0.000000 8.605622
v -20.705374 0.000000 8.574457
v -20.935669 0.000000 8.494288
v -20.924763 0.000000 8.540139
v -20.765295 0.000000 8.458659
v -20.755627 0.000000 8.503776
v -20.945688 0.000000 8.637170
v -20.995260 0.000000 8.616097
v -20.892754 0.327434 8.296173
v -21.090527 0.304733 8.402793
v -21.189650 0.419924 8.101259
v -21.053032 0.464047 8.041164
v -20.892830 0.334406 8.331363
v -21.056818 0.316025 8.421993
v -21.169832 0.444339 8.111531
v -21.270176 0.203558 7.680232
v -21.056347 0.478711 8.060481
v -21.398428 0.361372 8.454191
v -21.454514 0.349561 8.598977
v -21.846655 0.108559 8.443694
v -21.432390 0.373143 8.591925
v -21.386633 0.382004 8.470823
v -21.131689 0.328769 8.617747
v -21.077991 0.347892 8.430368
v -21.103859 0.340639 8.404463
v -21.170595 0.317022 8.628477
v -20.843388 0.000000 8.466960
v -20.883726 0.000000 8.440941
v -20.936672 0.000000 8.725999
v -20.884735 0.000000 8.704960
v -20.288481 0.474558 8.417877
v -20.342968 0.428429 8.277901
v -19.910576 0.217206 8.228588
v -20.354158 0.452970 8.297380
v -20.307760 0.488877 8.413705
v -20.656832 0.318052 8.366688
v -20.572830 0.336551 8.535513
v -20.537453 0.329534 8.537119
v -20.636061 0.306687 8.333629
v -20.751431 0.000000 8.679846
v -20.705647 0.000000 8.672085
v -20.853954 0.000000 8.434020
v -20.877295 0.000000 8.482946
v -20.352390 0.311495 8.891482
v -20.281208 0.260558 8.763866
v -19.888617 0.058470 9.057903
v -20.302750 0.286765 8.767550
v -20.361212 0.327328 8.874441
v -20.585810 0.309409 8.605650
v -20.660330 0.327405 8.773275
v -20.639605 0.320579 8.800798
v -20.548147 0.298344 8.600732
v -20.849192 0.000000 8.711736
v -20.814995 0.000000 8.741254
v -20.728418 0.000000 8.482493
v -20.779572 0.000000 8.495318
v -20.812279 0.200837 9.050222
v -20.693600 0.191461 9.048873
v -20.627399 0.044661 9.328318
v -20.704893 0.209529 9.035178
v -20.803829 0.216638 9.037126
v -20.764624 0.250182 8.789876
v -20.912848 0.264771 8.805025
v -20.923878 0.257356 8.830743
v -20.745953 0.237977 8.814434
v -20.925917 0.000000 8.633108
v -20.932915 0.000000 8.669127
v -20.715593 0.000000 8.625685
v -20.745281 0.000000 8.594810
v -20.974390 0.000000 8.524641
v -20.939135 0.000000 8.496222
v -20.734768 0.000000 8.656527
v -21.065910 0.349023 8.677049
v -20.885046 0.318066 8.803197
v -21.029169 0.407732 8.985880
v -21.142227 0.451442 8.892747
v -21.035042 0.359336 8.661557
v -20.883127 0.333142 8.765172
v -21.028931 0.426114 8.963974
v -21.236197 0.418541 9.318048
v -21.123835 0.461417 8.887111
v -20.766420 0.000000 8.493342
v -20.748219 0.000000 8.524865
v -20.858532 0.000000 8.671110
v -20.900856 0.000000 8.667318
v -20.911051 0.297022 8.412107
v -21.033648 0.282098 8.540124
v -21.139393 0.400326 8.382819
v -21.051418 0.415334 8.304564
v -20.902571 0.303158 8.438541
v -21.003685 0.289532 8.546359
v -21.122025 0.412064 8.385723
v -21.393415 0.314321 8.209962
v -21.049219 0.422408 8.319869
v -20.730516 0.000000 8.671700
v -20.764830 0.000000 8.691043
v -20.921837 0.000000 8.570028
v -20.637886 0.323112 8.536769
v -20.775030 0.304815 8.402666
v -20.659428 0.428040 8.217941
v -20.575741 0.445662 8.314020
v -20.666586 0.328300 8.545647
v -20.782114 0.313943 8.435018
v -20.662766 0.441695 8.236703
v -20.361509 0.342075 7.991963
v -20.592327 0.453882 8.316226
v -20.936646 0.000000 8.691948
v -20.951151 0.000000 8.653200
v -20.800098 0.000000 8.509897
v -20.753359 0.000000 8.522073
v -20.788507 0.326777 8.769802
v -20.627094 0.304509 8.649235
v -20.530657 0.393646 8.861520
v -20.643938 0.435729 8.932781
v -20.793066 0.334763 8.738579
v -20.659519 0.316407 8.636635
v -20.549585 0.410453 8.855014
v -20.384607 0.406589 9.116772
v -20.643538 0.444446 8.915211
vt 0.144028 0.521946
vt 0.148395 0.521946
vt 0.180608 0.521946
vt 0.182545 0.521946
vt 0.149429 0.740087
vt 0.179224 0.724964
vt 0.159502 0.887743
vt 0.140489 0.893429
vt 0.153508 0.744732
vt 0.178470 0.732487
vt 0.158942 0.894219
vt 0.114815 0.974317
vt 0.143017 0.898605
vt 0.140489 0.893429
vt 0.159502 0.887743
vt 0.114815 0.974317
vt 0.158942 0.894219
vt 0.143017 0.898605
vt 0.178470 0.732487
vt 0.153508 0.744732
vt 0.149429 0.740087
vt 0.179224 0.724964
vt 0.148395 0.521946
vt 0.144028 0.521946
vt 0.182545 0.521946
vt 0.180608 0.521946
vt 0.144028 0.521946
vt 0.148395 0.521946
vt 0.180608 0.521946
vt 0.182545 0.521946
vt 0.149429 0.740087
vt 0.179224 0.724964
vt 0.159502 0.887743
vt 0.140489 0.893429
vt 0.153508 0.744732
vt 0.178470 0.732487
vt 0.158942 0.894219
vt 0.114815 0.974317
vt 0.143017 0.898605
vt 0.140489 0.893429
vt 0.159502 0.887743
vt 0.114815 0.974317
vt 0.158942 0.894219
vt 0.143017 0.898605
vt 0.178470 0.732487
vt 0.153508 0.744732
vt 0.149429 0.740087
vt 0.179224 0.724964
vt 0.148395 0.521946
vt 0.144028 0.521946
vt 0.182545 0.521946
vt 0.180608 0.521946
vt 0.140489 0.893429
vt 0.159502 0.887743
vt 0.114815 0.974317
vt 0.158942 0.894219
vt 0.143017 0.898605
vt 0.178470 0.732487
vt 0.153508 0.744732
vt 0.149429 0.740087
vt 0.179224 0.724964
vt 0.148395 0.521946
vt 0.144028 0.521946
vt 0.182545 0.521946
vt 0.180608 0.521946
vt 0.140489 0.893429
vt 0.159502 0.887743
vt 0.114815 0.974317
vt 0.158942 0.894219
vt 0.143017 0.898605
vt 0.178470 0.732487
vt 0.153508 0.744732
vt 0.149429 0.740087
vt 0.179224 0.724964
vt 0.148395 0.521946
vt 0.144028 0.521946
vt 0.182545 0.521946
vt 0.180608 0.521946
vt 0.140489 0.893429
vt 0.159502 0.887743
vt 0.114815 0.974317
vt 0.158942 0.894219
vt 0.143017 0.898605
vt 0.178470 0.732487
vt 0.153508 0.744732
vt 0.149429 0.740087
vt 0.179224 0.724964
vt 0.148395 0.521946
vt 0.144028 0.521946
vt 0.182545 0.521946
vt 0.180608 0.521946
vt 0.144028 0.521946
vt 0.148395 0.521946
vt 0.180608 0.521946
vt 0.182545 0.521946
vt 0.149429 0.740087
vt 0.179224 0.724964
vt 0.159502 0.887743
vt 0.140489 0.893429
vt 0.153508 0.744732
vt 0.178470 0.732487
vt 0.158942 0.894219
vt 0.114815 0.974317
vt 0.143017 0.898605
vt 0.144028 0.521946
vt 0.148395 0.521946
vt 0.180608 0.521946
vt 0.182545 0.521946
vt 0.149429 0.740087
vt 0.179224 0.724964
vt 0.159502 0.887743
vt 0.140489 0.893429
vt 0.153508 0.744732
vt 0.178470 0.732487
vt 0.158942 0.894219
vt 0.114815 0.974317
vt 0.143017 0.898605
vt 0.144028 0.521946
vt 0.148395 0.521946
vt 0.180608 0.521946
vt 0.182545 0.521946
vt 0.149429 0.740087
vt 0.179224 0.724964
vt 0.159502 0.887743
vt 0.140489 0.893429
vt 0.153508 0.744732
vt 0.178470 0.732487
vt 0.158942 0.894219
vt 0.114815 0.974317
vt 0.143017 0.898605
vt 0.144028 0.521946
vt 0.148395 0.521946
vt 0.180608 0.521946
vt 0.182545 0.521946
vt 0.149429 0.740087
vt 0.179224 0.724964
vt 0.159502 0.887743
vt 0.140489 0.893429
vt 0.153508 0.744732
vt 0.178470 0.732487
vt 0.158942 0.894219
vt 0.114815 0.974317
vt 0.143017 0.898605
vn 0.0000 -1.0000 0.0000
vn -0.1292 -0.9913 0.0241
vn 0.7116 0.5444 -0.4441
vn -0.7229 -0.5327 0.4401
vn 0.8552 0.2905 0.4293
vn -0.1626 0.3847 -0.9086
vn -0.2089 0.7355 0.6445
vn 0.5030 0.6058 0.6164
vn -0.3856 0.7805 -0.4921
vn 0.1536 0.9872 -0.0420
vn -0.6591 0.6493 -0.3795
vn -0.4500 0.8787 0.1594
vn 0.4345 -0.8881 -0.1498
vn -0.1594 -0.8975 0.4111
vn 0.1740 0.8860 -0.4299
vn 0.6546 0.7016 -0.2816
vn -0.0482 0.9944 -0.0942
vn 0.4945 0.8689 -0.0213
vn -0.6549 0.6934 -0.3006
vn -0.5031 0.6425 -0.5780
vn 0.7615 0.2812 0.5840
vn -0.9329 0.3347 0.1331
vn 0.3407 -0.5175 -0.7849
vn -0.3224 0.5262 0.7869
vn 0.0346 -0.9911 0.1288
vn -0.0191 -0.9142 -0.4047
vn 0.4149 0.5774 0.7031
vn -0.4101 -0.5685 -0.7132
vn -0.4419 0.4054 0.8002
vn 0.9417 0.3062 -0.1391
vn -0.7155 0.6674 -0.2062
vn -0.6541 0.5972 0.4643
vn 0.7952 0.5790 -0.1803
vn 0.0362 0.9113 0.4101
vn 0.0387 0.7991 -0.6000
vn -0.4170 0.8315 -0.3672
vn 0.4234 -0.8361 0.3487
vn 0.4858 -0.8661 0.1175
vn -0.5013 0.8559 -0.1268
vn -0.3822 0.7025 -0.6004
vn 0.1297 0.9829 0.1310
vn -0.0052 0.8384 -0.5450
vn -0.0203 0.4773 0.8785
vn -0.5902 0.6826 0.4310
vn 0.5695 0.2947 -0.7673
vn 0.2474 0.4323 0.8672
vn -0.7837 -0.5841 -0.2113
vn 0.7804 0.5921 0.2010
vn -0.0954 -0.9874 -0.1266
vn -0.3605 -0.8351 0.4155
vn 0.3785 0.8311 -0.4075
vn 0.5852 0.8079 0.0695
vn -0.4428 0.8961 0.0315
vn 0.1076 0.5072 0.8551
vn -0.4076 0.6192 -0.6711
vn 0.2469 0.6690 -0.7010
vn 0.1003 0.3399 0.9351
vn -0.7884 0.3874 -0.4779
vn 0.7244 -0.5784 -0.3752
vn -0.7146 0.5871 0.3804
vn 0.4377 -0.8990 -0.0146
vn -0.4966 -0.8653 0.0684
vn 0.5080 0.8600 -0.0485
vn 0.2000 0.7672 0.6094
vn 0.1091 0.9816 -0.1566
vn -0.1603 0.8328 0.5298
vn 0.3955 0.7504 -0.5297
vn 0.6536 0.6018 -0.4590
vn -0.6812 0.2547 0.6864
vn -0.1278 0.4171 -0.8998
vn 0.7757 -0.5397 0.3271
vn -0.7732 0.5498 -0.3160
vn -0.1489 -0.9782 0.1445
vn -0.0754 -0.8900 -0.4497
vn 0.0724 0.8774 0.4743
vn -0.3453 0.7014 0.6235
vn 0.0967 0.9841 0.1488
vn -0.3236 0.8747 0.3608
vn 0.7417 0.6687 -0.0518
vn 0.7979 0.5905 0.1212
vn -0.9465 0.2012 -0.2522
vn 0.7114 0.4777 -0.5155
vn 0.0951 -0.5721 0.8146
vn -0.1061 0.5762 -0.8104
vn -0.1057 -0.9773 -0.1837
vn -0.3890 -0.8954 0.2165
vn 0.4553 0.5117 -0.7286
vn -0.4799 -0.4978 0.7224
vn 0.9156 0.3355 0.2216
vn -0.5634 0.2094 -0.7992
vn 0.7344 0.5161 0.4409
vn 0.7742 0.5404 0.3296
vn -0.5055 0.6951 -0.5112
vn 0.3764 0.9030 -0.2070
vn -0.4857 0.8732 -0.0398
vn 0.2311 0.9604 0.1558
vn -0.2612 -0.9563 -0.1317
vn -0.3202 -0.8347 -0.4480
vn 0.6408 0.5237 0.5613
vn -0.6412 -0.5127 -0.5710
vn -0.1629 0.3305 0.9296
vn 0.8521 0.3059 -0.4247
vn -0.5490 0.6985 0.4591
vn -0.3771 0.5909 0.7132
vn 0.7475 0.5540 -0.3666
vn 0.3152 0.8448 0.4323
vn -0.1578 0.9048 -0.3955
vn -0.2575 0.9569 -0.1344
vn 0.2555 -0.9613 0.1029
vn 0.4550 -0.8363 -0.3060
vn -0.5771 0.4968 0.6482
vn 0.5904 -0.4839 -0.6460
vn -0.9213 0.3402 -0.1884
vn 0.4126 0.2554 0.8744
vn -0.2333 0.7660 -0.5990
vn -0.8856 0.3294 -0.3274
vn 0.3574 0.7691 0.5299
vn -0.4336 0.8476 0.3058
vn 0.4449 0.8955 0.0079
vn 0.1153 0.9615 -0.2495
vn -0.0867 -0.9638 0.2523
vn 0.0837 -0.9024 0.4226
vn -0.5560 0.4768 -0.6809
vn 0.5527 -0.4649 0.6916
vn 0.3224 0.2363 -0.9166
vn -0.8951 0.3444 0.2832
vn 0.6791 0.6027 -0.4191
vn 0.5550 0.6359 -0.5364
vn -0.7551 0.5979 0.2690
vn -0.0850 0.9072 -0.4121
vn -0.2071 0.8783 0.4310
vn 0.2530 0.9565 -0.1453
vn -0.2381 -0.9535 0.1846
usemtl AllColors_Material
f 1/1/1 2/2/1 3/3/1 4/4/1
f 5/5/2 6/6/2 7/7/2 8/8/2
f 3/3/3 2/2/3 9/9/3 10/10/3
f 1/1/4 4/4/4 6/6/4 5/5/4
f 4/4/5 3/3/5 10/10/5 6/6/5
f 2/2/6 1/1/6 5/5/6 9/9/6
f 7/7/7 11/11/7 12/12/7
f 6/6/8 10/10/8 11/11/8 7/7/8
f 9/9/9 5/5/9 8/8/9 13/13/9
f 10/10/10 9/9/10 13/13/10 11/11/10
f 13/13/11 8/8/11 12/12/11
f 11/11/12 13/13/12 12/12/12
f 8/8/13 7/7/13 12/12/13
f 14/14/14 15/15/14 16/16/14
f 17/17/15 18/18/15 16/16/15
f 18/18/16 14/14/16 16/16/16
f 19/19/17 20/20/17 18/18/17 17/17/17
f 20/20/18 21/21/18 14/14/18 18/18/18
f 22/22/19 19/19/19 17/17/19 15/15/19
f 15/15/20 17/17/20 16/16/20
f 23/23/21 24/24/21 21/21/21 20/20/21
f 25/25/22 26/26/22 19/19/22 22/22/22
f 24/24/23 25/25/23 22/22/23 21/21/23
f 26/26/24 23/23/24 20/20/24 19/19/24
f 21/21/25 22/22/25 15/15/25 14/14/25
f 24/24/1 23/23/1 26/26/1 25/25/1
f 27/27/1 28/28/1 29/29/1 30/30/1
f 31/31/26 32/32/26 33/33/26 34/34/26
f 29/29/27 28/28/27 35/35/27 36/36/27
f 27/27/28 30/30/28 32/32/28 31/31/28
f 30/30/29 29/29/29 36/36/29 32/32/29
f 28/28/30 27/27/30 31/31/30 35/35/30
f 33/33/31 37/37/31 38/38/31
f 32/32/32 36/36/32 37/37/32 33/33/32
f 35/35/33 31/31/33 34/34/33 39/39/33
f 36/36/34 35/35/34 39/39/34 37/37/34
f 39/39/35 34/34/35 38/38/35
f 37/37/36 39/39/36 38/38/36
f 34/34/37 33/33/37 38/38/37
f 40/40/38 41/41/38 42/42/38
f 43/43/39 44/44/39 42/42/39
f 44/44/40 40/40/40 42/42/40
f 45/45/41 46/46/41 44/44/41 43/43/41
f 46/46/42 47/47/42 40/40/42 44/44/42
f 48/48/43 45/45/43 43/43/43 41/41/43
f 41/41/44 43/43/44 42/42/44
f 49/49/45 50/50/45 47/47/45 46/46/45
f 51/51/46 52/52/46 45/45/46 48/48/46
f 50/50/47 51/51/47 48/48/47 47/47/47
f 52/52/48 49/49/48 46/46/48 45/45/48
f 47/47/49 48/48/49 41/41/49 40/40/49
f 50/50/1 49/49/1 52/52/1 51/51/1
f 53/53/50 54/54/50 55/55/50
f 56/56/51 57/57/51 55/55/51
f 57/57/52 53/53/52 55/55/52
f 58/58/53 59/59/53 57/57/53 56/56/53
f 59/59/54 60/60/54 53/53/54 57/57/54
f 61/61/55 58/58/55 56/56/55 54/54/55
f 54/54/56 56/56/56 55/55/56
f 62/62/57 63/63/57 60/60/57 59/59/57
f 64/64/58 65/65/58 58/58/58 61/61/58
f 63/63/59 64/64/59 61/61/59 60/60/59
f 65/65/60 62/62/60 59/59/60 58/58/60
f 60/60/61 61/61/61 54/54/61 53/53/61
f 63/63/1 62/62/1 65/65/1 64/64/1
f 66/66/62 67/67/62 68/68/62
f 69/69/63 70/70/63 68/68/63
f 70/70/64 66/66/64 68/68/64
f 71/71/65 72/72/65 70/70/65 69/69/65
f 72/72/66 73/73/66 66/66/66 70/70/66
f 74/74/67 71/71/67 69/69/67 67/67/67
f 67/67/68 69/69/68 68/68/68
f 75/75/69 76/76/69 73/73/69 72/72/69
f 77/77/70 78/78/70 71/71/70 74/74/70
f 76/76/71 77/77/71 74/74/71 73/73/71
f 78/78/72 75/75/72 72/72/72 71/71/72
f 73/73/73 74/74/73 67/67/73 66/66/73
f 76/76/1 75/75/1 78/78/1 77/77/1
f 79/79/74 80/80/74 81/81/74
f 82/82/75 83/83/75 81/81/75
f 83/83/76 79/79/76 81/81/76
f 84/84/77 85/85/77 83/83/77 82/82/77
f 85/85/78 86/86/78 79/79/78 83/83/78
f 87/87/79 84/84/79 82/82/79 80/80/79
f 80/80/80 82/82/80 81/81/80
f 88/88/81 89/89/81 86/86/81 85/85/81
f 90/90/82 91/91/82 84/84/82 87/87/82
f 89/89/83 90/90/83 87/87/83 86/86/83
f 91/91/84 88/88/84 85/85/84 84/84/84
f 86/86/85 87/87/85 80/80/85 79/79/85
f 89/89/1 88/88/1 91/91/1 90/90/1
f 92/92/1 93/93/1 23/94/1 94/95/1
f 95/96/86 96/97/86 97/98/86 98/99/86
f 23/94/87 93/93/87 99/100/87 100/101/87
f 92/92/88 94/95/88 96/97/88 95/96/88
f 94/95/89 23/94/89 100/101/89 96/97/89
f 93/93/90 92/92/90 95/96/90 99/100/90
f 97/98/91 101/102/91 102/103/91
f 96/97/92 100/101/92 101/102/92 97/98/92
f 99/100/93 95/96/93 98/99/93 103/104/93
f 100/101/94 99/100/94 103/104/94 101/102/94
f 103/104/95 98/99/95 102/103/95
f 101/102/96 103/104/96 102/103/96
f 98/99/97 97/98/97 102/103/97
f 104/105/1 105/106/1 106/107/1 107/108/1
f 108/109/98 109/110/98 110/111/98 111/112/98
f 106/107/99 105/106/99 112/113/99 113/114/99
f 104/105/100 107/108/100 109/110/100 108/109/100
f 107/108/101 106/107/101 113/114/101 109/110/101
f 105/106/102 104/105/102 108/109/102 112/113/102
f 110/111/103 114/115/103 115/116/103
f 109/110/104 113/114/104 114/115/104 110/111/104
f 112/113/105 108/109/105 111/112/105 116/117/105
f 113/114/106 112/113/106 116/117/106 114/115/106
f 116/117/107 111/112/107 115/116/107
f 114/115/108 116/117/108 115/116/108
f 111/112/109 110/111/109 115/116/109
f 117/118/1 118/119/1 119/120/1 2/121/1
f 120/122/110 121/123/110 122/124/110 123/125/110
f 119/120/111 118/119/111 124/126/111 125/127/111
f 117/118/112 2/121/112 121/123/112 120/122/112
f 2/121/113 119/120/113 125/127/113 121/123/113
f 118/119/114 117/118/114 120/122/114 124/126/114
f 122/124/115 126/128/115 127/129/115
f 121/123/116 125/127/116 126/128/116 122/124/116
f 124/126/117 120/122/117 123/125/117 128/130/117
f 125/127/118 124/126/118 128/130/118 126/128/118
f 128/130/119 123/125/119 127/129/119
f 126/128/120 128/130/120 127/129/120
f 123/125/121 122/124/121 127/129/121
f 129/131/1 130/132/1 131/133/1 132/134/1
f 133/135/122 134/136/122 135/137/122 136/138/122
f 131/133/123 130/132/123 137/139/123 138/140/123
f 129/131/124 132/134/124 134/136/124 133/135/124
f 132/134/125 131/133/125 138/140/125 134/136/125
f 130/132/126 129/131/126 133/135/126 137/139/126
f 135/137/127 139/141/127 140/142/127
f 134/136/128 138/140/128 139/141/128 135/137/128
f 137/139/129 133/135/129 136/138/129 141/143/129
f 138/140/130 137/139/130 141/143/130 139/141/130
f 141/143/131 136/138/131 140/142/131
f 139/141/132 141/143/132 140/142/132
f 136/138/133 135/137/133 140/142/133
