mtllib forest_nature_set_all_in.mtl
o forest_Tree_Spruce_tiny_01_Cylinder_012
v -7.528240 0.475284 1.138178
v -7.527982 1.512221 1.246975
v -7.168526 1.512221 1.483200
v -7.056548 0.420584 1.324440
v -7.036692 1.512221 1.782179
v -6.888997 0.357647 1.750221
v -7.213791 1.512221 2.101024
v -7.057143 0.392159 2.219760
v -7.524568 1.512221 2.188690
v -7.489926 0.408640 2.432967
v -7.877246 1.512221 2.033048
v -7.965368 0.483867 2.199892
v -7.990230 1.512221 1.752417
v -8.101982 0.646807 1.771417
v -7.865413 1.512221 1.427661
v -7.998360 0.567210 1.322910
v -8.050730 0.009275 2.434954
v -8.476305 0.000000 1.862001
v -8.161204 0.010241 1.229632
v -7.506363 0.000795 0.873894
v -7.524015 0.003688 2.581121
v -6.822202 0.000000 2.477779
v -6.749848 0.001589 1.765340
v -6.901263 0.007966 1.177701
v -7.356775 4.230973 1.535919
v -7.250808 4.230973 1.776238
v -7.642962 4.230973 2.102991
v -7.926443 4.230973 1.977887
v -7.916932 4.230973 1.491277
v -7.645705 4.230973 1.346043
v -7.393159 4.230973 2.032526
v -8.017260 4.230973 1.752316
v -7.539638 5.798997 2.058479
v -7.787179 5.798997 1.949236
v -7.197202 5.798997 1.773153
v -7.321506 5.798997 1.996948
v -7.542034 5.798997 1.397498
v -7.289735 5.798997 1.563302
v -7.778873 5.798997 1.524320
v -7.866481 5.798997 1.752264
v -7.803138 7.189987 1.752177
v -7.736514 7.189987 1.578829
v -7.554579 7.189987 1.985049
v -7.742830 7.189987 1.901971
v -7.294161 7.189987 1.768063
v -7.388693 7.189987 1.938255
v -7.556401 7.189987 1.482383
v -7.364531 7.189987 1.608474
v -7.652059 8.315424 1.864841
v -7.697446 8.315424 1.752108
v -7.385541 8.315424 1.892148
v -7.510384 8.315424 1.927365
v -7.367358 8.315424 1.643960
v -7.314399 8.315424 1.764064
v -7.647306 8.315424 1.621650
v -7.511755 8.315424 1.549066
v -7.481231 10.186936 1.751901
v -7.412724 2.752122 -0.920865
v -7.347707 5.893487 0.993162
v -6.803143 5.806057 1.274189
v -5.370850 2.273255 -0.068779
v -6.580110 5.793570 1.819640
v -4.639737 2.775712 1.846805
v -6.780702 5.853884 2.389316
v -5.455531 2.470645 3.777407
v -7.352967 5.797928 2.573328
v -7.407559 2.995346 4.580260
v -7.885657 5.818696 2.348926
v -9.362782 2.695925 3.783204
v -8.089836 5.792362 1.823714
v -10.070103 2.948021 1.861031
v -7.922704 5.890165 1.254518
v -9.379584 2.494826 -0.132846
v -7.175974 5.145920 -0.411983
v -7.346982 7.809763 1.119593
v -6.949233 7.608193 1.442114
v -5.731477 5.555183 0.281675
v -6.683332 7.798573 1.818813
v -5.074160 5.103882 1.815045
v -6.916310 7.697971 2.244202
v -5.764676 5.551773 3.437864
v -7.344024 7.695094 2.441131
v -7.194619 5.031336 4.146310
v -7.829366 7.724405 2.292774
v -8.877409 5.282729 3.380195
v -8.016594 7.678649 1.820502
v -9.406391 4.893526 1.820502
v -7.848979 7.737983 1.337518
v -8.714831 5.417932 0.323694
v -7.324820 7.384513 0.290948
v -7.361131 8.647700 1.053622
v -6.795626 8.658649 1.290611
v -6.344166 7.543153 0.758411
v -6.619666 8.430223 1.822424
v -5.934171 7.275147 1.825118
v -6.752742 8.664837 2.402874
v -6.378344 7.575311 2.862177
v -7.368226 8.613764 2.645763
v -7.368873 7.375331 3.249620
v -7.878365 8.499104 2.339088
v -8.352872 7.748991 2.800533
v -8.114820 8.623486 1.829417
v -8.885351 7.405196 1.714673
v -7.874453 8.667495 1.312363
v -8.328010 7.645178 0.832273
v -7.329696 11.005312 1.822077
v -7.424865 2.335914 -0.614674
v -5.593185 1.857772 0.142722
v -7.025290 5.390592 1.485891
v -7.359333 5.477261 1.299365
v -4.949492 2.365217 1.848563
v -6.889866 5.383073 1.821222
v -5.675105 2.051181 3.566459
v -7.000363 5.434421 2.178442
v -7.411251 2.567582 4.280849
v -7.356822 5.370183 2.273905
v -9.154620 2.254698 3.580127
v -7.677671 5.377468 2.145674
v -9.772099 2.518084 1.854239
v -7.791819 5.362426 1.817147
v -9.167519 2.059597 0.071825
v -7.711303 5.454993 1.459917
v -7.171466 4.709491 -0.118072
v -5.941923 5.112453 0.480934
v -7.159855 7.165463 1.641185
v -7.339236 7.373868 1.413781
v -5.357903 4.652471 1.825541
v -6.967150 7.347182 1.827803
v -5.966044 5.097905 3.240123
v -7.117516 7.244104 2.046299
v -7.185278 4.587387 3.857445
v -7.334583 7.251166 2.152267
v -8.641689 4.869206 3.181940
v -7.593647 7.310881 2.094519
v -9.078267 4.517336 1.826114
v -7.688470 7.302461 1.826114
v -8.466770 5.027997 0.527612
v -7.601759 7.347953 1.542353
v -7.320533 7.018458 0.598027
v -6.579833 7.122182 0.948486
v -7.066160 8.324195 1.508327
v -7.352782 8.297196 1.393824
v -6.266803 6.923421 1.819827
v -6.975273 8.116710 1.828375
v -6.622613 7.194267 2.646709
v -7.025913 8.341996 2.180865
v -7.388313 7.056796 2.933793
v -7.345338 8.278262 2.299698
v -8.167015 7.283522 2.578887
v -7.640217 8.132181 2.107612
v -8.577619 7.001009 1.718464
v -7.781661 8.257731 1.821495
v -8.108677 7.206236 1.035730
v -7.626869 8.325291 1.551133
v -7.332609 10.381524 1.825768
vt 0.550377 0.547788
vt 0.550378 0.593064
vt 0.552028 0.593064
vt 0.552543 0.545400
vt 0.552634 0.593064
vt 0.553312 0.542652
vt 0.551821 0.593064
vt 0.552540 0.544159
vt 0.550393 0.593064
vt 0.550552 0.544879
vt 0.548774 0.593064
vt 0.548369 0.548163
vt 0.548255 0.593064
vt 0.547742 0.555277
vt 0.548828 0.593064
vt 0.548218 0.551802
vt 0.547977 0.527441
vt 0.546023 0.527036
vt 0.547470 0.527483
vt 0.550477 0.527071
vt 0.550396 0.527197
vt 0.553619 0.527036
vt 0.553951 0.527105
vt 0.553256 0.527384
vt 0.551164 0.711772
vt 0.551651 0.711772
vt 0.549850 0.711772
vt 0.548548 0.711772
vt 0.548592 0.711772
vt 0.549837 0.711772
vt 0.550997 0.711772
vt 0.548131 0.711772
vt 0.550324 0.780236
vt 0.549187 0.780236
vt 0.551897 0.780236
vt 0.551326 0.780236
vt 0.550313 0.780236
vt 0.551472 0.780236
vt 0.549226 0.780236
vt 0.548823 0.780236
vt 0.549114 0.840971
vt 0.549420 0.840971
vt 0.550256 0.840971
vt 0.549391 0.840971
vt 0.551452 0.840971
vt 0.551017 0.840971
vt 0.550247 0.840971
vt 0.551128 0.840971
vt 0.549808 0.890110
vt 0.549600 0.890110
vt 0.551032 0.890110
vt 0.550459 0.890110
vt 0.551115 0.890110
vt 0.551359 0.890110
vt 0.549830 0.890110
vt 0.550452 0.890110
vt 0.550592 0.971825
vt 0.151382 0.577053
vt 0.151859 0.767287
vt 0.156715 0.766467
vt 0.171674 0.573627
vt 0.158727 0.766128
vt 0.180079 0.572208
vt 0.156715 0.766467
vt 0.171674 0.573627
vt 0.151859 0.767287
vt 0.151382 0.577053
vt 0.147003 0.768107
vt 0.131090 0.580478
vt 0.144991 0.768446
vt 0.122684 0.581897
vt 0.147002 0.768106
vt 0.131090 0.580478
vt 0.150751 0.574672
vt 0.149776 0.739302
vt 0.153978 0.740979
vt 0.168312 0.581679
vt 0.155719 0.741674
vt 0.175586 0.584582
vt 0.153978 0.740979
vt 0.168312 0.581679
vt 0.149776 0.739302
vt 0.150751 0.574672
vt 0.145573 0.737625
vt 0.133190 0.567664
vt 0.143832 0.736930
vt 0.125916 0.564762
vt 0.145573 0.737625
vt 0.133190 0.567664
vt 0.150176 0.532772
vt 0.150716 0.684272
vt 0.159544 0.684857
vt 0.170590 0.524551
vt 0.164389 0.669319
vt 0.179046 0.521146
vt 0.159745 0.681483
vt 0.170590 0.524551
vt 0.150695 0.678544
vt 0.150176 0.532772
vt 0.140797 0.676002
vt 0.129762 0.540992
vt 0.137372 0.684377
vt 0.121307 0.544398
vt 0.141844 0.690898
vt 0.129762 0.540992
vt 0.151321 0.959221
vt 0.151382 0.577053
vt 0.171674 0.573627
vt 0.156715 0.766467
vt 0.151859 0.767287
vt 0.180079 0.572208
vt 0.158727 0.766128
vt 0.171674 0.573627
vt 0.156715 0.766467
vt 0.151382 0.577053
vt 0.151859 0.767287
vt 0.131090 0.580478
vt 0.147003 0.768107
vt 0.122684 0.581897
vt 0.144991 0.768446
vt 0.131090 0.580478
vt 0.147002 0.768106
vt 0.150751 0.574672
vt 0.168312 0.581679
vt 0.153978 0.740979
vt 0.149776 0.739302
vt 0.175586 0.584582
vt 0.155719 0.741674
vt 0.168312 0.581679
vt 0.153978 0.740979
vt 0.150751 0.574672
vt 0.149776 0.739302
vt 0.133190 0.567664
vt 0.145573 0.737625
vt 0.125916 0.564762
vt 0.143832 0.736930
vt 0.133190 0.567664
vt 0.145573 0.737625
vt 0.150176 0.532772
vt 0.170590 0.524551
vt 0.159544 0.684857
vt 0.150716 0.684272
vt 0.179046 0.521146
vt 0.164389 0.669319
vt 0.170590 0.524551
vt 0.159745 0.681483
vt 0.150176 0.532772
vt 0.150695 0.678544
vt 0.129762 0.540992
vt 0.140797 0.676002
vt 0.121307 0.544398
vt 0.137372 0.684377
vt 0.129762 0.540992
vt 0.141844 0.690898
vt 0.151321 0.959221
vn 0.4560 0.1345 -0.8797
vn 0.9196 0.1376 -0.3679
vn 0.9096 0.1367 0.3923
vn 0.3724 0.1806 0.9103
vn -0.4041 0.1830 0.8962
vn -0.9250 0.1326 0.3561
vn -0.9453 0.1417 -0.2938
vn -0.3972 0.1247 -0.9092
vn 0.0261 -0.9997 -0.0032
vn -0.3801 0.3489 -0.8566
vn -0.8534 0.3816 -0.3551
vn -0.7482 0.4486 0.4889
vn -0.2925 0.4151 0.8615
vn 0.2426 0.4883 0.8383
vn 0.8580 0.4878 0.1610
vn 0.8881 0.3835 -0.2533
vn 0.3863 0.4502 -0.8051
vn -0.0008 -0.9997 0.0251
vn -0.0022 -0.9999 -0.0103
vn -0.0057 -1.0000 -0.0028
vn -0.0052 -1.0000 -0.0024
vn -0.0107 -0.9999 0.0002
vn 0.9127 0.0710 -0.4024
vn -0.4037 0.0113 0.9148
vn -0.4720 0.0117 -0.8815
vn 0.5484 0.0542 -0.8345
vn 0.8721 0.0697 0.4844
vn -0.9276 -0.0092 0.3735
vn 0.2713 0.0421 0.9616
vn -0.9334 -0.0093 -0.3587
vn -0.4032 0.0525 0.9136
vn 0.8738 -0.0289 0.4854
vn 0.5492 -0.0089 -0.8357
vn -0.4712 0.0600 -0.8800
vn -0.9240 0.0889 0.3720
vn 0.2715 0.0094 0.9624
vn 0.9145 -0.0321 -0.4033
vn -0.9297 0.0894 -0.3573
vn -0.9326 0.0424 -0.3584
vn -0.4034 0.0439 0.9140
vn 0.8725 0.0626 0.4846
vn 0.5483 0.0566 -0.8344
vn -0.4715 0.0489 -0.8805
vn -0.9268 0.0422 0.3731
vn 0.2711 0.0536 0.9611
vn 0.9132 0.0622 -0.4027
vn -0.9241 0.0868 0.3721
vn 0.2713 0.0386 0.9617
vn 0.9149 0.0150 -0.4034
vn -0.9299 0.0873 -0.3574
vn -0.4030 0.0626 0.9131
vn 0.8741 0.0174 0.4855
vn 0.5490 0.0277 -0.8354
vn -0.4709 0.0708 -0.8794
vn 0.5474 0.0813 -0.8329
vn -0.4696 0.1027 -0.8769
vn -0.9224 0.1066 0.3713
vn 0.2705 0.0857 0.9589
vn 0.9122 0.0787 -0.4022
vn -0.9281 0.1072 -0.3567
vn -0.4020 0.0917 0.9110
vn 0.8713 0.0808 0.4840
vn 0.4387 0.4651 -0.7689
vn 0.7804 0.4818 -0.3985
vn 0.7921 0.4858 0.3696
vn 0.3941 0.5031 0.7691
vn -0.3713 0.5362 0.7580
vn -0.7757 0.5328 0.3381
vn -0.7925 0.5092 -0.3358
vn -0.3756 0.4860 -0.7891
vn 0.3590 0.5401 -0.7612
vn 0.7836 0.5413 -0.3048
vn 0.8050 0.5264 0.2737
vn 0.2368 0.5477 0.8025
vn -0.2814 0.4981 0.8202
vn -0.8686 0.4488 0.2101
vn -0.8667 0.4323 -0.2487
vn -0.3369 0.4651 -0.8187
vn 0.3121 0.5028 -0.8061
vn 0.8647 0.4727 -0.1702
vn 0.8783 0.4487 0.1651
vn 0.2691 0.4355 0.8590
vn -0.3180 0.5056 0.8020
vn -0.7810 0.5471 0.3012
vn -0.7837 0.5188 -0.3415
vn -0.3314 0.4967 -0.8022
vn -0.4225 0.2860 -0.8601
vn -0.5401 0.2818 0.7930
vn 0.9444 0.2604 -0.2006
vn -0.8432 0.2794 0.4594
vn 0.9579 0.2641 0.1128
vn -0.8775 0.2881 -0.3834
vn 0.3280 0.3029 0.8948
vn 0.3659 0.2840 -0.8863
vn -0.4528 -0.4642 0.7612
vn -0.7733 -0.4811 0.4130
vn -0.7878 -0.4857 -0.3789
vn -0.4043 -0.5025 -0.7642
vn 0.3817 -0.5360 -0.7530
vn 0.7748 -0.5328 -0.3403
vn 0.7906 -0.5091 0.3402
vn 0.3863 -0.4860 0.7840
vn -0.3691 -0.5401 0.7564
vn -0.7855 -0.5412 0.3001
vn -0.8081 -0.5261 -0.2650
vn -0.2161 -0.5462 -0.8093
vn 0.2550 -0.4982 -0.8287
vn 0.8748 -0.4469 -0.1871
vn 0.8716 -0.4313 0.2330
vn 0.3220 -0.4661 0.8241
vn -0.3017 -0.5050 0.8087
vn -0.8732 -0.4679 0.1365
vn -0.8877 -0.4448 -0.1188
vn -0.2424 -0.4386 -0.8654
vn 0.3583 -0.5146 -0.7790
vn 0.7825 -0.5445 -0.3022
vn 0.7782 -0.5129 0.3625
vn 0.3440 -0.4993 0.7952
vn 0.4752 -0.1830 0.8606
vn 0.5979 -0.1796 -0.7812
vn -0.9723 -0.1532 0.1768
vn 0.8487 -0.1784 -0.4979
vn -0.9869 -0.1558 -0.0422
vn 0.8721 -0.1853 0.4530
vn -0.3044 -0.2076 -0.9296
vn -0.3492 -0.1869 0.9182
vn 0.1973 -0.5575 -0.8064
vn -0.2983 0.5635 0.7704
vn 0.8127 -0.5627 -0.1516
vn -0.7564 0.5700 0.3208
vn 0.7905 -0.5642 0.2382
vn -0.7589 0.5655 -0.3228
vn 0.1841 -0.5423 0.8197
vn -0.3052 0.5491 -0.7780
vn -0.2423 -0.5278 0.8141
vn 0.3387 0.5295 -0.7778
vn -0.8187 -0.5293 0.2225
vn 0.7844 0.5323 -0.3183
vn -0.8342 -0.5281 -0.1586
vn 0.7828 0.5343 0.3190
vn -0.2425 -0.5404 -0.8057
vn 0.3358 0.5418 0.7705
vn 0.4950 -0.5104 -0.7032
vn -0.3675 0.5184 0.7722
vn 0.7202 -0.5087 -0.4717
vn -0.7992 0.5143 0.3109
vn 0.7392 -0.4914 0.4606
vn -0.8051 0.4985 -0.3216
vn 0.5350 -0.4881 0.6895
vn -0.3649 0.5028 -0.7836
vn -0.4258 -0.5359 0.7291
vn 0.2843 0.5337 -0.7964
vn -0.7042 -0.5967 0.3849
vn 0.7314 0.6009 -0.3225
vn -0.6150 -0.6018 -0.5095
vn 0.7126 0.6235 0.3216
vn -0.4547 -0.5574 -0.6946
vn 0.2822 0.5584 0.7801
vn 0.4220 -0.5696 -0.7053
vn 0.6890 -0.6029 -0.4022
vn 0.6244 -0.6305 0.4611
vn 0.3787 -0.6461 0.6627
vn -0.4941 -0.5605 0.6646
vn -0.6920 -0.5186 0.5022
vn -0.6302 -0.5328 -0.5648
vn -0.5011 -0.5585 -0.6611
usemtl AllColors_Material
f 1/1/1 2/2/1 3/3/1 4/4/1
f 4/4/2 3/3/2 5/5/2 6/6/2
f 6/6/3 5/5/3 7/7/3 8/8/3
f 8/8/4 7/7/4 9/9/4 10/10/4
f 10/10/5 9/9/5 11/11/5 12/12/5
f 12/12/6 11/11/6 13/13/6 14/14/6
f 14/14/7 13/13/7 15/15/7 16/16/7
f 16/16/8 15/15/8 2/2/8 1/1/8
f 17/17/9 18/18/9 19/19/9
f 19/19/10 16/16/10 1/1/10 20/20/10
f 18/18/11 14/14/11 16/16/11 19/19/11
f 17/17/12 12/12/12 14/14/12 18/18/12
f 21/21/13 10/10/13 12/12/13 17/17/13
f 22/22/14 8/8/14 10/10/14 21/21/14
f 23/23/15 6/6/15 8/8/15 22/22/15
f 24/24/16 4/4/16 6/6/16 23/23/16
f 20/20/17 1/1/17 4/4/17 24/24/17
f 19/19/18 20/20/18 24/24/18
f 24/24/19 23/23/19 19/19/19
f 23/23/20 22/22/20 21/21/20
f 19/19/21 23/23/21 21/21/21
f 21/21/22 17/17/22 19/19/22
f 5/5/23 3/3/23 25/25/23 26/26/23
f 11/11/24 9/9/24 27/27/24 28/28/24
f 2/2/25 15/15/25 29/29/25 30/30/25
f 3/3/26 2/2/26 30/30/26 25/25/26
f 7/7/27 5/5/27 26/26/27 31/31/27
f 13/13/28 11/11/28 28/28/28 32/32/28
f 9/9/29 7/7/29 31/31/29 27/27/29
f 15/15/30 13/13/30 32/32/30 29/29/30
f 28/28/31 27/27/31 33/33/31 34/34/31
f 31/31/32 26/26/32 35/35/32 36/36/32
f 25/25/33 30/30/33 37/37/33 38/38/33
f 30/30/34 29/29/34 39/39/34 37/37/34
f 32/32/35 28/28/35 34/34/35 40/40/35
f 27/27/36 31/31/36 36/36/36 33/33/36
f 26/26/37 25/25/37 38/38/37 35/35/37
f 29/29/38 32/32/38 40/40/38 39/39/38
f 39/39/39 40/40/39 41/41/39 42/42/39
f 34/34/40 33/33/40 43/43/40 44/44/40
f 36/36/41 35/35/41 45/45/41 46/46/41
f 38/38/42 37/37/42 47/47/42 48/48/42
f 37/37/43 39/39/43 42/42/43 47/47/43
f 40/40/44 34/34/44 44/44/44 41/41/44
f 33/33/45 36/36/45 46/46/45 43/43/45
f 35/35/46 38/38/46 48/48/46 45/45/46
f 41/41/47 44/44/47 49/49/47 50/50/47
f 43/43/48 46/46/48 51/51/48 52/52/48
f 45/45/49 48/48/49 53/53/49 54/54/49
f 42/42/50 41/41/50 50/50/50 55/55/50
f 44/44/51 43/43/51 52/52/51 49/49/51
f 46/46/52 45/45/52 54/54/52 51/51/52
f 48/48/53 47/47/53 56/56/53 53/53/53
f 47/47/54 42/42/54 55/55/54 56/56/54
f 53/53/55 56/56/55 57/57/55
f 56/56/56 55/55/56 57/57/56
f 50/50/57 49/49/57 57/57/57
f 52/52/58 51/51/58 57/57/58
f 54/54/59 53/53/59 57/57/59
f 55/55/60 50/50/60 57/57/60
f 49/49/61 52/52/61 57/57/61
f 51/51/62 54/54/62 57/57/62
f 58/58/63 59/59/63 60/60/63 61/61/63
f 61/61/64 60/60/64 62/62/64 63/63/64
f 63/63/65 62/62/65 64/64/65 65/65/65
f 65/65/66 64/64/66 66/66/66 67/67/66
f 67/67/67 66/66/67 68/68/67 69/69/67
f 69/69/68 68/68/68 70/70/68 71/71/68
f 71/71/69 70/70/69 72/72/69 73/73/69
f 73/73/70 72/72/70 59/59/70 58/58/70
f 74/74/71 75/75/71 76/76/71 77/77/71
f 77/77/72 76/76/72 78/78/72 79/79/72
f 79/79/73 78/78/73 80/80/73 81/81/73
f 81/81/74 80/80/74 82/82/74 83/83/74
f 83/83/75 82/82/75 84/84/75 85/85/75
f 85/85/76 84/84/76 86/86/76 87/87/76
f 87/87/77 86/86/77 88/88/77 89/89/77
f 89/89/78 88/88/78 75/75/78 74/74/78
f 90/90/79 91/91/79 92/92/79 93/93/79
f 93/93/80 92/92/80 94/94/80 95/95/80
f 95/95/81 94/94/81 96/96/81 97/97/81
f 97/97/82 96/96/82 98/98/82 99/99/82
f 99/99/83 98/98/83 100/100/83 101/101/83
f 101/101/84 100/100/84 102/102/84 103/103/84
f 103/103/85 102/102/85 104/104/85 105/105/85
f 105/105/86 104/104/86 91/91/86 90/90/86
f 91/91/87 104/104/87 106/106/87
f 100/100/88 98/98/88 106/106/88
f 94/94/89 92/92/89 106/106/89
f 102/102/90 100/100/90 106/106/90
f 96/96/91 94/94/91 106/106/91
f 104/104/92 102/102/92 106/106/92
f 98/98/93 96/96/93 106/106/93
f 92/92/94 91/91/94 106/106/94
f 107/107/95 108/108/95 109/109/95 110/110/95
f 108/108/96 111/111/96 112/112/96 109/109/96
f 111/111/97 113/113/97 114/114/97 112/112/97
f 113/113/98 115/115/98 116/116/98 114/114/98
f 115/115/99 117/117/99 118/118/99 116/116/99
f 117/117/100 119/119/100 120/120/100 118/118/100
f 119/119/101 121/121/101 122/122/101 120/120/101
f 121/121/102 107/107/102 110/110/102 122/122/102
f 123/123/103 124/124/103 125/125/103 126/126/103
f 124/124/104 127/127/104 128/128/104 125/125/104
f 127/127/105 129/129/105 130/130/105 128/128/105
f 129/129/106 131/131/106 132/132/106 130/130/106
f 131/131/107 133/133/107 134/134/107 132/132/107
f 133/133/108 135/135/108 136/136/108 134/134/108
f 135/135/109 137/137/109 138/138/109 136/136/109
f 137/137/110 123/123/110 126/126/110 138/138/110
f 139/139/111 140/140/111 141/141/111 142/142/111
f 140/140/112 143/143/112 144/144/112 141/141/112
f 143/143/113 145/145/113 146/146/113 144/144/113
f 145/145/114 147/147/114 148/148/114 146/146/114
f 147/147/115 149/149/115 150/150/115 148/148/115
f 149/149/116 151/151/116 152/152/116 150/150/116
f 151/151/117 153/153/117 154/154/117 152/152/117
f 153/153/118 139/139/118 142/142/118 154/154/118
f 142/142/119 155/155/119 154/154/119
f 150/150/120 155/155/120 148/148/120
f 144/144/121 155/155/121 141/141/121
f 152/152/122 155/155/122 150/150/122
f 146/146/123 155/155/123 144/144/123
f 154/154/124 155/155/124 152/152/124
f 148/148/125 155/155/125 146/146/125
f 141/141/126 155/155/126 142/142/126
f 58/58/127 61/61/127 108/108/127 107/107/127
f 60/60/128 59/59/128 110/110/128 109/109/128
f 61/61/129 63/63/129 111/111/129 108/108/129
f 62/62/130 60/60/130 109/109/130 112/112/130
f 63/63/131 65/65/131 113/113/131 111/111/131
f 64/64/132 62/62/132 112/112/132 114/114/132
f 65/65/133 67/67/133 115/115/133 113/113/133
f 66/66/134 64/64/134 114/114/134 116/116/134
f 67/67/135 69/69/135 117/117/135 115/115/135
f 68/68/136 66/66/136 116/116/136 118/118/136
f 69/69/137 71/71/137 119/119/137 117/117/137
f 70/70/138 68/68/138 118/118/138 120/120/138
f 71/71/139 73/73/139 121/121/139 119/119/139
f 72/72/140 70/70/140 120/120/140 122/122/140
f 73/73/141 58/58/141 107/107/141 121/121/141
f 59/59/142 72/72/142 122/122/142 110/110/142
f 74/74/143 77/77/143 124/124/143 123/123/143
f 76/76/144 75/75/144 126/126/144 125/125/144
f 77/77/145 79/79/145 127/127/145 124/124/145
f 78/78/146 76/76/146 125/125/146 128/128/146
f 79/79/147 81/81/147 129/129/147 127/127/147
f 80/80/148 78/78/148 128/128/148 130/130/148
f 81/81/149 83/83/149 131/131/149 129/129/149
f 82/82/150 80/80/150 130/130/150 132/132/150
f 83/83/151 85/85/151 133/133/151 131/131/151
f 84/84/152 82/82/152 132/132/152 134/134/152
f 85/85/153 87/87/153 135/135/153 133/133/153
f 86/86/154 84/84/154 134/134/154 136/136/154
f 87/87/155 89/89/155 137/137/155 135/135/155
f 88/88/156 86/86/156 136/136/156 138/138/156
f 89/89/157 74/74/157 123/123/157 137/137/157
f 75/75/158 88/88/158 138/138/158 126/126/158
f 90/90/159 93/93/159 140/140/159 139/139/159
f 93/93/160 95/95/160 143/143/160 140/140/160
f 95/95/161 97/97/161 145/145/161 143/143/161
f 97/97/162 99/99/162 147/147/162 145/145/162
f 99/99/163 101/101/163 149/149/163 147/147/163
f 101/101/164 103/103/164 151/151/164 149/149/164
f 103/103/165 105/105/165 153/153/165 151/151/165
f 105/105/166 90/90/166 139/139/166 153/153/166
