mtllib forest_nature_set_all_in.mtl
o forest_Flower_bush_red_Plane_031
v -23.704859 0.444516 10.217712
v -23.926029 0.366610 10.329360
v -23.982128 0.415505 10.032283
v -23.892275 0.397724 10.344643
v -23.708652 0.460652 10.250026
v -23.734241 0.279032 10.535336
v -23.515779 0.307166 10.398991
v -23.518240 0.294926 10.350688
v -23.781906 0.260794 10.511443
v -23.531507 0.000000 10.623234
v -23.542549 0.000000 10.582418
v -23.584930 0.000000 10.614932
v -23.538546 0.000000 10.631804
v -23.522018 0.000000 10.622662
v -23.563984 0.000000 10.627823
v -23.571472 0.000000 10.619645
v -23.548214 0.000000 10.576110
v -23.330038 0.294926 10.641585
v -23.451910 0.260794 10.357843
v -23.186310 0.366610 10.352640
v -23.107044 0.444516 10.587370
v -23.378202 0.307166 10.637194
v -23.482302 0.279032 10.401653
v -23.206209 0.397724 10.383896
v -22.802032 0.415505 10.502792
v -23.138496 0.460652 10.579047
v -23.405912 0.444516 11.005435
v -23.188507 0.366610 10.886624
v -23.185581 0.415505 11.222129
v -23.222742 0.397724 10.872452
v -23.403175 0.460652 10.973016
v -23.366070 0.279032 10.664008
v -23.579962 0.307166 10.807416
v -23.575926 0.294926 10.855613
v -23.317650 0.260794 10.686333
v -23.568338 0.000000 10.600257
v -23.555971 0.000000 10.640689
v -23.514673 0.000000 10.606810
v -23.561584 0.000000 10.591461
v -23.578743 0.000000 10.604181
v -23.537899 0.000000 10.593247
v -23.538170 0.000000 10.583182
v -23.546341 0.000000 10.646648
v -23.790308 0.294926 10.569111
v -23.630247 0.260794 10.833200
v -23.843777 0.366610 10.944599
v -23.954842 0.444516 10.723136
v -23.741999 0.307166 10.566777
v -23.606228 0.279032 10.785597
v -23.828405 0.397724 10.910885
v -24.153538 0.415505 10.908260
v -23.922539 0.460652 10.727015
v -23.717957 0.538662 10.449688
v -23.730797 0.524963 10.431247
v -23.743828 0.534447 10.452053
v -23.578142 0.173679 10.632180
v -23.527464 0.173547 10.634171
v -23.654287 0.379236 10.526546
v -23.694136 0.374203 10.519889
v -23.549736 0.000000 10.587717
v -23.554024 0.178104 10.593029
v -23.529188 0.000000 10.623308
v -23.675098 0.386789 10.497519
v -23.570284 0.000000 10.623308
v -23.344692 0.546008 10.568461
v -23.365252 0.565963 10.562592
v -23.363405 0.554306 10.589352
v -23.532696 0.174285 10.642060
v -23.501629 0.173983 10.616727
v -23.437532 0.400053 10.564667
v -23.463999 0.396127 10.580839
v -23.548695 0.000000 10.589418
v -23.540712 0.177532 10.602995
v -23.511183 0.000000 10.606206
v -23.473587 0.407202 10.555088
v -23.544477 0.000000 10.630299
v -23.585964 0.524730 10.862304
v -23.606682 0.531103 10.846369
v -23.610878 0.517008 10.868896
v -23.564156 0.173976 10.640120
v -23.525871 0.173855 10.626206
v -23.572504 0.373487 10.717883
v -23.602118 0.368978 10.729609
v -23.556541 0.177707 10.599199
v -23.529455 0.000000 10.612166
v -23.596357 0.380083 10.698902
v -23.612034 0.544394 10.848751
v -23.605684 0.526474 10.879300
v -23.586329 0.534719 10.877989
v -23.572226 0.547368 10.831777
v -23.602304 0.498424 10.888082
v -23.634510 0.508285 10.854843
v -23.628126 0.488837 10.922682
v -23.629950 0.493621 10.925867
v -23.671190 0.460272 10.915070
v -23.622890 0.544717 10.824962
v -23.627417 0.579605 10.798270
v -23.625561 0.574733 10.795027
v -23.619986 0.537092 10.819885
v -23.574476 0.555034 10.837165
v -23.561937 0.592016 10.817093
v -23.560083 0.587143 10.813849
v -23.534119 0.592050 10.834084
v -23.519480 0.550905 10.904260
v -23.494341 0.563982 10.860478
v -23.531904 0.586234 10.830212
v -23.565741 0.528364 10.882223
v -23.562498 0.521642 10.875982
v -23.517263 0.545090 10.900389
v -23.538128 0.525387 10.918806
v -23.540100 0.530564 10.922253
v -23.545597 0.483144 10.952574
v -23.605278 0.506772 10.892033
v -23.601616 0.494742 10.940863
v -23.599646 0.489565 10.937416
v -23.587881 0.590814 10.766658
v -23.637220 0.515810 10.860181
v -23.677128 0.507009 10.878764
v -23.675306 0.502225 10.875580
v -23.687517 0.518967 10.855666
v -23.685436 0.513507 10.852031
v -23.655909 0.566197 10.802810
v -23.653831 0.560736 10.799174
v -23.703224 0.523647 10.801551
v -23.588602 0.548031 10.856694
v -23.620720 0.530379 10.864832
v -23.755564 0.539743 10.424716
v -23.732721 0.558107 10.458097
v -23.712255 0.556289 10.442128
v -23.717287 0.512652 10.398859
v -23.720840 0.548687 10.491325
v -23.773336 0.530035 10.473743
v -23.734629 0.585705 10.529016
v -23.736132 0.592478 10.526319
v -23.782993 0.572585 10.569599
v -23.778059 0.518674 10.415108
v -23.799801 0.514300 10.365306
v -23.798273 0.507403 10.368053
v -23.775665 0.507879 10.419407
v -23.718805 0.523603 10.394464
v -23.718456 0.522385 10.340277
v -23.716927 0.515488 10.343024
v -23.679327 0.531790 10.340064
v -23.626801 0.573970 10.416704
v -23.618176 0.529900 10.370567
v -23.677502 0.523558 10.343343
v -23.685802 0.550720 10.444164
v -23.683645 0.539195 10.446762
v -23.624971 0.565737 10.419983
v -23.638260 0.578418 10.457860
v -23.639887 0.585747 10.454942
v -23.626236 0.588949 10.523335
v -23.723898 0.558797 10.485675
v -23.697414 0.600363 10.523699
v -23.695789 0.593034 10.526618
v -23.769226 0.477388 10.322886
v -23.775383 0.540979 10.469625
v -23.812204 0.566125 10.502542
v -23.810701 0.559353 10.505239
v -23.835665 0.552869 10.480874
v -23.833948 0.545138 10.483953
v -23.828644 0.518863 10.391574
v -23.826929 0.511133 10.394653
v -23.877092 0.504792 10.451808
v -23.725826 0.543376 10.417266
v -23.756683 0.550040 10.451196
v -23.366907 0.577672 10.561072
v -23.344233 0.568709 10.592175
v -23.330811 0.557857 10.576745
v -23.356733 0.542120 10.531034
v -23.345585 0.549518 10.618362
v -23.388809 0.573754 10.602690
v -23.335186 0.573852 10.659095
v -23.331728 0.579426 10.658181
v -23.377867 0.588302 10.694603
v -23.393263 0.580420 10.549994
v -23.405098 0.600280 10.507357
v -23.408619 0.594604 10.508287
v -23.398773 0.571537 10.551451
v -23.350561 0.550575 10.529472
v -23.345976 0.559511 10.482307
v -23.349497 0.553835 10.483238
v -23.315264 0.541122 10.481578
v -23.263142 0.520501 10.552987
v -23.280363 0.496579 10.503874
v -23.319468 0.534347 10.482689
v -23.317579 0.537715 10.575798
v -23.323528 0.528840 10.575652
v -23.267342 0.513725 10.554096
v -23.271587 0.522796 10.590183
v -23.267847 0.528828 10.589195
v -23.263638 0.509858 10.648190
v -23.340790 0.558638 10.615643
v -23.301987 0.560799 10.655095
v -23.305727 0.554768 10.656084
v -23.404297 0.566494 10.461525
v -23.383003 0.582481 10.601398
v -23.394110 0.614652 10.637075
v -23.397566 0.609078 10.637989
v -23.415146 0.624989 10.617153
v -23.419090 0.618627 10.618196
v -23.423138 0.616113 10.532752
v -23.427084 0.609752 10.533795
v -23.468309 0.626441 10.585089
v -23.345037 0.562873 10.553518
v -23.363792 0.579840 10.586082
vt 0.136993 0.904795
vt 0.153396 0.899847
vt 0.114843 0.975181
vt 0.152912 0.905482
vt 0.139174 0.909299
vt 0.169761 0.764748
vt 0.148224 0.775404
vt 0.144705 0.771362
vt 0.170411 0.758202
vt 0.143814 0.581543
vt 0.140046 0.581543
vt 0.173276 0.581543
vt 0.171605 0.581543
vt 0.140046 0.581543
vt 0.143814 0.581543
vt 0.171605 0.581543
vt 0.173276 0.581543
vt 0.144705 0.771362
vt 0.170411 0.758202
vt 0.153396 0.899847
vt 0.136993 0.904795
vt 0.148224 0.775404
vt 0.169761 0.764748
vt 0.152912 0.905482
vt 0.114843 0.975181
vt 0.139174 0.909299
vt 0.136993 0.904795
vt 0.153396 0.899847
vt 0.114843 0.975181
vt 0.152912 0.905482
vt 0.139174 0.909299
vt 0.169761 0.764748
vt 0.148224 0.775404
vt 0.144705 0.771362
vt 0.170411 0.758202
vt 0.143814 0.581543
vt 0.140046 0.581543
vt 0.173276 0.581543
vt 0.171605 0.581543
vt 0.140046 0.581543
vt 0.143814 0.581543
vt 0.171605 0.581543
vt 0.173276 0.581543
vt 0.144705 0.771362
vt 0.170411 0.758202
vt 0.153396 0.899847
vt 0.136993 0.904795
vt 0.148224 0.775404
vt 0.169761 0.764748
vt 0.152912 0.905482
vt 0.114843 0.975181
vt 0.139174 0.909299
vt 0.137732 0.944990
vt 0.134473 0.948174
vt 0.132324 0.941133
vt 0.170371 0.667496
vt 0.179579 0.667438
vt 0.164108 0.821595
vt 0.155264 0.818740
vt 0.175299 0.532665
vt 0.174603 0.669468
vt 0.181979 0.532665
vt 0.159173 0.825880
vt 0.168619 0.532665
vt 0.137732 0.944990
vt 0.134473 0.948174
vt 0.132324 0.941133
vt 0.170371 0.667496
vt 0.179579 0.667438
vt 0.164108 0.821595
vt 0.155264 0.818740
vt 0.175299 0.532665
vt 0.174603 0.669468
vt 0.181979 0.532665
vt 0.159173 0.825880
vt 0.168619 0.532665
vt 0.137732 0.944990
vt 0.134473 0.948174
vt 0.132324 0.941133
vt 0.170371 0.667496
vt 0.179579 0.667438
vt 0.164108 0.821595
vt 0.155264 0.818740
vt 0.175299 0.532665
vt 0.174603 0.669468
vt 0.181979 0.532665
vt 0.159173 0.825880
vt 0.247528 0.478540
vt 0.238046 0.478540
vt 0.257009 0.478540
vt 0.278929 0.012466
vt 0.228121 0.012466
vt 0.216127 0.012466
vt 0.833272 0.151781
vt 0.833272 0.151781
vt 0.819471 0.196455
vt 0.851690 0.365488
vt 0.856956 0.457118
vt 0.856956 0.457118
vt 0.851690 0.365488
vt 0.863045 0.303255
vt 0.872970 0.369351
vt 0.863045 0.303255
vt 0.872970 0.369351
vt 0.876225 0.293790
vt 0.870108 0.151781
vt 0.883909 0.196455
vt 0.876225 0.293790
vt 0.858708 0.202562
vt 0.858708 0.202562
vt 0.870108 0.151781
vt 0.861587 0.105082
vt 0.861587 0.105082
vt 0.851690 0.019875
vt 0.844672 0.202562
vt 0.841793 0.105082
vt 0.844672 0.202562
vt 0.841793 0.105082
vt 0.871602 0.482169
vt 0.840335 0.303255
vt 0.827155 0.293790
vt 0.840335 0.303255
vt 0.827155 0.293790
vt 0.830410 0.369351
vt 0.830410 0.369351
vt 0.846424 0.457118
vt 0.846424 0.457118
vt 0.831777 0.482169
vt 0.262869 0.478540
vt 0.278929 0.252760
vt 0.247528 0.252760
vt 0.266934 0.252760
vt 0.228121 0.252760
vt 0.232187 0.478540
vt 0.216127 0.252760
vt 0.247528 0.012466
vt 0.266934 0.012466
vt 0.247528 0.478540
vt 0.238046 0.478540
vt 0.257009 0.478540
vt 0.278929 0.012466
vt 0.228121 0.012466
vt 0.216127 0.012466
vt 0.833272 0.151781
vt 0.833272 0.151781
vt 0.819471 0.196455
vt 0.851690 0.365488
vt 0.856956 0.457118
vt 0.856956 0.457118
vt 0.851690 0.365488
vt 0.863045 0.303255
vt 0.872970 0.369351
vt 0.863045 0.303255
vt 0.872970 0.369351
vt 0.876225 0.293790
vt 0.870108 0.151781
vt 0.883909 0.196455
vt 0.876225 0.293790
vt 0.858708 0.202562
vt 0.858708 0.202562
vt 0.870108 0.151781
vt 0.861587 0.105082
vt 0.861587 0.105082
vt 0.851690 0.019875
vt 0.844672 0.202562
vt 0.841793 0.105082
vt 0.844672 0.202562
vt 0.841793 0.105082
vt 0.871602 0.482169
vt 0.840335 0.303255
vt 0.827155 0.293790
vt 0.840335 0.303255
vt 0.827155 0.293790
vt 0.830410 0.369351
vt 0.830410 0.369351
vt 0.846424 0.457118
vt 0.846424 0.457118
vt 0.831777 0.482169
vt 0.262869 0.478540
vt 0.278929 0.252760
vt 0.247528 0.252760
vt 0.266934 0.252760
vt 0.228121 0.252760
vt 0.232187 0.478540
vt 0.216127 0.252760
vt 0.247528 0.012466
vt 0.266934 0.012466
vt 0.247528 0.478540
vt 0.238046 0.478540
vt 0.257009 0.478540
vt 0.278929 0.012466
vt 0.228121 0.012466
vt 0.216127 0.012466
vt 0.833272 0.151781
vt 0.833272 0.151781
vt 0.819471 0.196455
vt 0.851690 0.365488
vt 0.856956 0.457118
vt 0.856956 0.457118
vt 0.851690 0.365488
vt 0.863045 0.303255
vt 0.872970 0.369351
vt 0.863045 0.303255
vt 0.872970 0.369351
vt 0.876225 0.293790
vt 0.870108 0.151781
vt 0.883909 0.196455
vt 0.876225 0.293790
vt 0.858708 0.202562
vt 0.858708 0.202562
vt 0.870108 0.151781
vt 0.861587 0.105082
vt 0.861587 0.105082
vt 0.851690 0.019875
vt 0.844672 0.202562
vt 0.841793 0.105082
vt 0.844672 0.202562
vt 0.841793 0.105082
vt 0.871602 0.482169
vt 0.840335 0.303255
vt 0.827155 0.293790
vt 0.840335 0.303255
vt 0.827155 0.293790
vt 0.830410 0.369351
vt 0.830410 0.369351
vt 0.846424 0.457118
vt 0.846424 0.457118
vt 0.831777 0.482169
vt 0.262869 0.478540
vt 0.278929 0.252760
vt 0.247528 0.252760
vt 0.266934 0.252760
vt 0.228121 0.252760
vt 0.232187 0.478540
vt 0.216127 0.252760
vt 0.247528 0.012466
vt 0.266934 0.012466
vn 0.2338 -0.9513 -0.2007
vn -0.2611 0.9566 0.1296
vn 0.1887 0.8873 -0.4209
vn 0.1221 0.8323 0.5408
vn 0.7047 0.6729 -0.2252
vn -0.5819 0.3962 0.7103
vn -0.7147 0.6559 0.2429
vn 0.9789 -0.1607 -0.1262
vn -0.4045 0.0441 0.9135
vn -0.3962 -0.5614 -0.7266
vn 0.4101 0.5314 0.7412
vn -0.1169 -0.8279 -0.5485
vn 0.0000 -1.0000 0.0000
vn 0.4643 -0.8856 0.0112
vn -0.8114 0.4926 0.3146
vn 0.7970 -0.5223 -0.3033
vn -0.8570 -0.1120 -0.5030
vn 0.0020 -0.0482 0.9988
vn 0.1568 0.7481 -0.6448
vn -0.3117 0.6846 -0.6589
vn -0.0166 0.3697 0.9290
vn -0.4668 0.8844 -0.0008
vn 0.2377 0.7692 0.5932
vn 0.0535 0.9448 -0.3232
vn -0.0027 -0.9488 0.3158
vn -0.2646 -0.9539 0.1413
vn 0.2886 0.9542 -0.0792
vn -0.2865 0.8671 0.4074
vn -0.1218 0.8492 -0.5138
vn -0.7506 0.6194 0.2301
vn 0.5793 0.4869 -0.6537
vn 0.6930 0.7125 -0.1099
vn -0.9741 -0.1618 0.1579
vn 0.3668 -0.0046 -0.9303
vn 0.4355 -0.5259 0.7306
vn -0.4495 0.4956 -0.7432
vn 0.1151 -0.8468 0.5194
vn -0.5135 -0.8534 0.0898
vn 0.7627 0.4832 -0.4299
vn -0.7517 -0.5127 0.4148
vn 0.9558 0.0621 0.2872
vn -0.1201 -0.1827 -0.9758
vn 0.0342 0.7266 0.6862
vn 0.5989 0.5223 0.6071
vn -0.1933 0.5916 -0.7827
vn 0.5091 0.8552 -0.0972
vn -0.3991 0.8692 -0.2921
vn 0.0497 0.9525 0.3006
vn -0.1181 -0.9538 -0.2763
vn -0.1836 0.8460 -0.5007
vn -0.1088 0.4222 0.9000
vn 0.8526 0.0302 -0.5217
vn -0.1130 0.3762 0.9196
vn 0.8121 0.0460 -0.5817
vn -0.0217 -0.0571 0.9981
vn -0.5599 -0.6094 -0.5613
vn 0.8232 0.2404 -0.5143
vn -0.8581 -0.0089 -0.5133
vn -0.6846 -0.4860 -0.5433
vn 0.6285 0.7280 0.2738
vn 0.5835 0.0323 0.8115
vn 0.3716 0.0450 -0.9273
vn 0.5621 -0.3871 0.7309
vn 0.2145 -0.1056 -0.9710
vn 0.6065 -0.0877 0.7903
vn -0.8848 0.3425 0.3160
vn 0.2488 -0.2753 -0.9286
vn -0.9872 0.0444 0.1529
vn -0.7797 0.4946 0.3839
vn -0.1293 0.8513 0.5086
vn 0.3522 -0.3271 0.8769
vn 0.8178 0.0831 -0.5695
vn 0.3710 -0.6242 0.6875
vn 0.6004 0.5795 -0.5512
vn 0.3005 -0.0926 0.9493
vn -0.9749 -0.0948 -0.2017
vn 0.6266 0.4407 -0.6427
vn -0.8981 0.0098 -0.4398
vn -0.9860 0.0784 -0.1473
vn -0.3022 0.7935 0.5283
vn 0.3023 -0.7935 -0.5283
vn 0.1794 -0.4969 0.8491
vn -0.9532 -0.2517 -0.1673
vn -0.3199 0.5415 0.7775
vn 0.8760 -0.0438 0.4804
vn 0.3179 -0.4791 -0.8182
vn 0.3111 0.8468 0.4315
vn -0.4314 0.4093 -0.8040
vn -0.5621 0.6579 0.5012
vn -0.0640 -0.6432 0.7630
vn 0.5937 -0.6331 -0.4966
vn 0.9280 0.1184 0.3533
vn 0.6415 0.6334 -0.4327
vn -0.4284 0.8717 0.2377
vn -0.9410 -0.3381 -0.0113
vn 0.4535 -0.8726 -0.1814
vn -0.2089 0.9743 0.0842
vn 0.8083 -0.0243 0.5883
vn -0.0569 0.9439 0.3252
vn -0.4606 0.3843 -0.8001
vn -0.0029 -0.9613 -0.2753
vn 0.6947 0.5625 -0.4482
vn -0.1068 -0.5916 0.7991
vn 0.0123 0.7533 0.6576
vn 0.6802 0.5678 -0.4636
vn -0.0645 -0.7374 -0.6724
vn 0.7405 0.5445 -0.3939
vn -0.0627 0.5428 0.8375
vn -0.8596 -0.4663 0.2091
vn 0.8673 -0.0007 0.4978
vn -0.5561 0.4647 0.6891
vn 0.2413 -0.9462 -0.2157
vn -0.2809 -0.6037 0.7461
vn -0.6510 0.7164 0.2509
vn -0.1250 -0.8670 -0.4823
vn -0.9532 -0.2515 -0.1676
vn 0.1383 -0.6332 -0.7615
vn -0.3558 0.4204 -0.8347
vn 0.4940 -0.5698 -0.6568
vn 0.5525 -0.7579 -0.3469
vn -0.6468 0.2361 -0.7252
vn -0.2278 0.9627 0.1456
vn 0.1965 0.8539 0.4819
vn -0.0867 0.4936 0.8654
vn -0.5698 0.4325 0.6988
vn -0.6593 0.6954 0.2859
vn -0.3022 0.7935 0.5282
vn -0.3023 0.7934 0.5284
vn 0.3022 -0.7935 -0.5283
vn 0.3023 -0.7935 -0.5282
vn -0.2019 0.9099 -0.3623
vn 0.2019 -0.9099 0.3624
vn 0.5169 0.4133 0.7497
vn -0.9143 -0.0423 0.4029
vn -0.1025 0.9942 -0.0324
vn 0.9851 0.1720 0.0089
vn 0.0792 -0.9961 -0.0384
vn 0.3307 0.7126 -0.6188
vn -0.7256 -0.3608 -0.5859
vn -0.4365 0.8800 -0.1872
vn 0.2789 0.3250 0.9036
vn 0.4645 -0.8711 0.1593
vn 0.9704 0.1355 -0.2000
vn 0.3728 -0.1909 -0.9081
vn -0.4278 0.7374 -0.5227
vn -0.8394 0.0410 0.5420
vn 0.4703 -0.6969 0.5414
vn -0.2878 0.6100 -0.7383
vn 0.9561 0.2871 0.0584
vn -0.0607 0.7594 -0.6478
vn -0.7484 -0.3633 -0.5548
vn 0.0240 -0.7127 0.7010
vn 0.4257 -0.2520 -0.8691
vn 0.2448 0.3912 0.8872
vn 0.1402 0.9234 -0.3573
vn 0.4067 -0.2587 -0.8762
vn -0.1959 -0.9154 0.3515
vn 0.4895 -0.2268 -0.8420
vn 0.1574 0.9845 -0.0775
vn -0.6724 0.1402 0.7268
vn 0.9776 0.2098 -0.0179
vn -0.3432 0.9374 0.0592
vn 0.2700 -0.7128 0.6473
vn 0.0659 0.3818 0.9219
vn -0.6115 0.7223 -0.3231
vn -0.1718 -0.8086 0.5628
vn -0.9144 -0.0430 0.4024
vn -0.0499 -0.9846 0.1675
vn -0.6669 -0.3987 -0.6295
vn 0.3094 -0.9489 0.0619
vn 0.4922 -0.7999 0.3433
vn -0.8783 -0.3316 -0.3444
vn -0.2832 0.6597 -0.6961
vn 0.2399 0.7849 -0.5713
vn 0.1507 0.9884 -0.0166
vn -0.3487 0.9324 0.0948
vn -0.6048 0.7428 -0.2873
vn -0.2019 0.9099 -0.3624
vn -0.2020 0.9099 -0.3624
vn 0.2020 -0.9099 0.3624
vn 0.5220 0.8417 -0.1379
vn -0.5220 -0.8417 0.1379
vn 0.5758 -0.2282 0.7851
vn -0.7263 0.5234 0.4455
vn 0.6164 0.7630 0.1949
vn 0.8227 -0.5681 -0.0211
vn -0.6269 -0.7335 -0.2625
vn 0.7941 0.3883 -0.4675
vn -0.7063 0.3760 -0.5998
vn 0.3149 0.9482 0.0420
vn 0.3283 -0.1555 0.9317
vn -0.2858 -0.9558 -0.0691
vn 0.8096 -0.5394 -0.2314
vn 0.2313 -0.2041 -0.9512
vn 0.2583 0.9128 -0.3165
vn -0.6299 0.5003 0.5940
vn -0.2019 -0.9183 0.3407
vn 0.2934 0.7719 -0.5639
vn 0.8763 -0.4787 0.0546
vn 0.5494 0.6985 -0.4586
vn -0.7278 0.3837 -0.5685
vn -0.5492 -0.6517 0.5232
vn 0.2229 -0.2911 -0.9304
vn 0.3513 -0.0827 0.9326
vn 0.7756 0.6122 -0.1535
vn 0.2052 -0.2811 -0.9375
vn -0.8094 -0.5668 0.1535
vn 0.2830 -0.3236 -0.9029
vn 0.8005 0.5848 0.1310
vn -0.4617 0.4145 0.7843
vn 0.8464 -0.5312 -0.0382
vn 0.3951 0.8723 0.2880
vn -0.3674 -0.8117 0.4540
vn 0.2132 0.0279 0.9766
vn 0.0952 0.9890 -0.1130
vn -0.7408 -0.5533 0.3810
vn -0.7266 0.5234 0.4450
vn -0.7331 -0.6782 -0.0508
vn -0.6857 0.3182 -0.6546
vn -0.4402 -0.8816 -0.1704
vn -0.2362 -0.9638 0.1237
vn -0.8214 0.4520 -0.3479
vn 0.3264 0.7943 -0.5123
vn 0.7740 0.4916 -0.3991
vn 0.7920 0.5798 0.1915
vn 0.3840 0.8654 0.3219
vn 0.1103 0.9911 -0.0742
vn 0.5221 0.8417 -0.1380
vn 0.5220 0.8417 -0.1380
usemtl AllColors_Material
f 1/1/1 2/2/1 3/3/1
f 4/4/2 5/5/2 3/3/2
f 5/5/3 1/1/3 3/3/3
f 6/6/4 7/7/4 5/5/4 4/4/4
f 7/7/5 8/8/5 1/1/5 5/5/5
f 9/9/6 6/6/6 4/4/6 2/2/6
f 2/2/7 4/4/7 3/3/7
f 10/10/8 11/11/8 8/8/8 7/7/8
f 12/12/9 13/13/9 6/6/9 9/9/9
f 11/11/10 12/12/10 9/9/10 8/8/10
f 13/13/11 10/10/11 7/7/11 6/6/11
f 8/8/12 9/9/12 2/2/12 1/1/12
f 11/11/13 10/10/13 13/13/13 12/12/13
f 14/14/13 15/15/13 16/16/13 17/17/13
f 18/18/14 19/19/14 20/20/14 21/21/14
f 16/16/15 15/15/15 22/22/15 23/23/15
f 14/14/16 17/17/16 19/19/16 18/18/16
f 17/17/17 16/16/17 23/23/17 19/19/17
f 15/15/18 14/14/18 18/18/18 22/22/18
f 20/20/19 24/24/19 25/25/19
f 19/19/20 23/23/20 24/24/20 20/20/20
f 22/22/21 18/18/21 21/21/21 26/26/21
f 23/23/22 22/22/22 26/26/22 24/24/22
f 26/26/23 21/21/23 25/25/23
f 24/24/24 26/26/24 25/25/24
f 21/21/25 20/20/25 25/25/25
f 27/27/26 28/28/26 29/29/26
f 30/30/27 31/31/27 29/29/27
f 31/31/28 27/27/28 29/29/28
f 32/32/29 33/33/29 31/31/29 30/30/29
f 33/33/30 34/34/30 27/27/30 31/31/30
f 35/35/31 32/32/31 30/30/31 28/28/31
f 28/28/32 30/30/32 29/29/32
f 36/36/33 37/37/33 34/34/33 33/33/33
f 38/38/34 39/39/34 32/32/34 35/35/34
f 37/37/35 38/38/35 35/35/35 34/34/35
f 39/39/36 36/36/36 33/33/36 32/32/36
f 34/34/37 35/35/37 28/28/37 27/27/37
f 37/37/13 36/36/13 39/39/13 38/38/13
f 40/40/13 41/41/13 42/42/13 43/43/13
f 44/44/38 45/45/38 46/46/38 47/47/38
f 42/42/39 41/41/39 48/48/39 49/49/39
f 40/40/40 43/43/40 45/45/40 44/44/40
f 43/43/41 42/42/41 49/49/41 45/45/41
f 41/41/42 40/40/42 44/44/42 48/48/42
f 46/46/43 50/50/43 51/51/43
f 45/45/44 49/49/44 50/50/44 46/46/44
f 48/48/45 44/44/45 47/47/45 52/52/45
f 49/49/46 48/48/46 52/52/46 50/50/46
f 52/52/47 47/47/47 51/51/47
f 50/50/48 52/52/48 51/51/48
f 47/47/49 46/46/49 51/51/49
f 53/53/50 54/54/50 55/55/50
f 56/56/51 57/57/51 58/58/51 59/59/51
f 60/60/52 61/61/52 57/57/52 62/62/52
f 59/59/53 58/58/53 53/53/53 55/55/53
f 58/58/54 63/63/54 54/54/54 53/53/54
f 62/62/55 57/57/55 56/56/55 64/64/55
f 61/61/56 56/56/56 59/59/56 63/63/56
f 57/57/57 61/61/57 63/63/57 58/58/57
f 64/64/58 56/56/58 61/61/58 60/60/58
f 60/60/13 62/62/13 64/64/13
f 63/63/59 59/59/59 55/55/59 54/54/59
f 65/65/60 66/66/60 67/67/60
f 68/68/61 69/69/61 70/70/61 71/71/61
f 72/72/62 73/73/62 69/69/62 74/74/62
f 71/71/63 70/70/63 65/65/63 67/67/63
f 70/70/64 75/75/64 66/66/64 65/65/64
f 74/74/65 69/69/65 68/68/65 76/76/65
f 73/73/66 68/68/66 71/71/66 75/75/66
f 69/69/67 73/73/67 75/75/67 70/70/67
f 76/76/68 68/68/68 73/73/68 72/72/68
f 72/72/13 74/74/13 76/76/13
f 75/75/69 71/71/69 67/67/69 66/66/69
f 77/77/70 78/78/70 79/79/70
f 80/80/71 81/81/71 82/82/71 83/83/71
f 42/84/72 84/85/72 81/81/72 85/86/72
f 83/83/73 82/82/73 77/77/73 79/79/73
f 82/82/74 86/87/74 78/78/74 77/77/74
f 85/86/75 81/81/75 80/80/75 64/64/75
f 84/85/76 80/80/76 83/83/76 86/87/76
f 81/81/77 84/85/77 86/87/77 82/82/77
f 64/64/78 80/80/78 84/85/78 42/84/78
f 42/84/13 85/86/13 64/64/13
f 86/87/79 83/83/79 79/79/79 78/78/79
f 87/88/80 88/89/80 89/90/80
f 90/91/81 91/92/81 92/93/81
f 93/94/82 94/95/82 95/96/82
f 96/97/83 97/98/83 98/99/83 99/100/83
f 100/101/84 101/102/84 97/98/84 96/97/84
f 90/103/85 102/104/85 101/102/85 100/101/85
f 99/100/86 98/99/86 102/104/86 90/103/86
f 103/105/87 104/106/87 105/107/87
f 100/101/88 103/105/88 106/108/88 90/103/88
f 107/109/89 104/106/89 103/105/89 100/101/89
f 108/110/90 109/111/90 104/106/90 107/109/90
f 90/103/91 106/108/91 109/111/91 108/110/91
f 110/112/92 111/113/92 112/114/92
f 107/109/93 111/113/93 110/112/93 108/110/93
f 113/115/94 114/116/94 111/113/94 107/109/94
f 91/117/95 115/118/95 114/116/95 113/115/95
f 108/110/96 110/112/96 115/118/96 91/117/96
f 97/98/97 101/102/97 116/119/97
f 113/115/98 94/95/98 93/94/98 91/117/98
f 117/120/99 118/121/99 94/95/99 113/115/99
f 92/122/100 119/123/100 118/121/100 117/120/100
f 91/117/101 93/94/101 119/123/101 92/122/101
f 106/108/102 103/105/102 105/107/102
f 117/120/103 120/124/103 121/125/103 92/122/103
f 96/97/104 122/126/104 120/124/104 117/120/104
f 99/100/105 123/127/105 122/126/105 96/97/105
f 92/122/106 121/125/106 123/127/106 99/100/106
f 101/102/107 102/104/107 116/119/107
f 111/113/108 114/116/108 112/114/108
f 121/125/109 120/124/109 124/128/109
f 104/106/110 109/111/110 105/107/110
f 94/95/111 118/121/111 95/96/111
f 102/104/112 98/99/112 116/119/112
f 114/116/113 115/118/113 112/114/113
f 120/124/114 122/126/114 124/128/114
f 109/111/115 106/108/115 105/107/115
f 118/121/116 119/123/116 95/96/116
f 115/118/117 110/112/117 112/114/117
f 122/126/118 123/127/118 124/128/118
f 119/123/119 93/94/119 95/96/119
f 123/127/120 121/125/120 124/128/120
f 98/99/121 97/98/121 116/119/121
f 87/88/122 125/129/122 100/130/122 96/131/122
f 125/129/123 89/90/123 107/132/123 100/130/123
f 89/90/124 88/89/124 113/133/124 107/132/124
f 88/89/125 126/134/125 117/135/125 113/133/125
f 126/134/126 87/88/126 96/131/126 117/135/126
f 89/90/127 125/129/127 87/88/127
f 87/88/128 126/134/128 88/89/128
f 92/93/129 99/136/129 90/91/129
f 90/91/130 108/137/130 91/92/130
f 127/138/131 128/139/131 129/140/131
f 130/141/132 131/142/132 132/143/132
f 133/144/133 134/145/133 135/146/133
f 136/147/134 137/148/134 138/149/134 139/150/134
f 140/151/135 141/152/135 137/148/135 136/147/135
f 130/153/136 142/154/136 141/152/136 140/151/136
f 139/150/137 138/149/137 142/154/137 130/153/137
f 143/155/138 144/156/138 145/157/138
f 140/151/139 143/155/139 146/158/139 130/153/139
f 147/159/140 144/156/140 143/155/140 140/151/140
f 148/160/141 149/161/141 144/156/141 147/159/141
f 130/153/142 146/158/142 149/161/142 148/160/142
f 150/162/143 151/163/143 152/164/143
f 147/159/144 151/163/144 150/162/144 148/160/144
f 153/165/145 154/166/145 151/163/145 147/159/145
f 131/167/146 155/168/146 154/166/146 153/165/146
f 148/160/147 150/162/147 155/168/147 131/167/147
f 137/148/148 141/152/148 156/169/148
f 153/165/149 134/145/149 133/144/149 131/167/149
f 157/170/150 158/171/150 134/145/150 153/165/150
f 132/172/151 159/173/151 158/171/151 157/170/151
f 131/167/152 133/144/152 159/173/152 132/172/152
f 146/158/153 143/155/153 145/157/153
f 157/170/154 160/174/154 161/175/154 132/172/154
f 136/147/155 162/176/155 160/174/155 157/170/155
f 139/150/156 163/177/156 162/176/156 136/147/156
f 132/172/157 161/175/157 163/177/157 139/150/157
f 141/152/158 142/154/158 156/169/158
f 151/163/159 154/166/159 152/164/159
f 161/175/160 160/174/160 164/178/160
f 144/156/161 149/161/161 145/157/161
f 134/145/162 158/171/162 135/146/162
f 142/154/163 138/149/163 156/169/163
f 154/166/164 155/168/164 152/164/164
f 160/174/165 162/176/165 164/178/165
f 149/161/166 146/158/166 145/157/166
f 158/171/167 159/173/167 135/146/167
f 155/168/168 150/162/168 152/164/168
f 162/176/169 163/177/169 164/178/169
f 159/173/170 133/144/170 135/146/170
f 163/177/171 161/175/171 164/178/171
f 138/149/172 137/148/172 156/169/172
f 127/138/173 165/179/173 140/180/173 136/181/173
f 165/179/174 129/140/174 147/182/174 140/180/174
f 129/140/175 128/139/175 153/183/175 147/182/175
f 128/139/176 166/184/176 157/185/176 153/183/176
f 166/184/177 127/138/177 136/181/177 157/185/177
f 129/140/178 165/179/178 127/138/178
f 127/138/179 166/184/179 128/139/179
f 132/143/132 139/186/132 130/141/132
f 130/141/180 148/187/180 131/142/180
f 167/188/181 168/189/181 169/190/181
f 170/191/182 171/192/182 172/193/182
f 173/194/183 174/195/183 175/196/183
f 176/197/184 177/198/184 178/199/184 179/200/184
f 180/201/185 181/202/185 177/198/185 176/197/185
f 170/203/186 182/204/186 181/202/186 180/201/186
f 179/200/187 178/199/187 182/204/187 170/203/187
f 183/205/188 184/206/188 185/207/188
f 180/201/189 183/205/189 186/208/189 170/203/189
f 187/209/190 184/206/190 183/205/190 180/201/190
f 188/210/191 189/211/191 184/206/191 187/209/191
f 170/203/192 186/208/192 189/211/192 188/210/192
f 190/212/193 191/213/193 192/214/193
f 187/209/194 191/213/194 190/212/194 188/210/194
f 193/215/195 194/216/195 191/213/195 187/209/195
f 171/217/196 195/218/196 194/216/196 193/215/196
f 188/210/197 190/212/197 195/218/197 171/217/197
f 177/198/198 181/202/198 196/219/198
f 193/215/199 174/195/199 173/194/199 171/217/199
f 197/220/200 198/221/200 174/195/200 193/215/200
f 172/222/201 199/223/201 198/221/201 197/220/201
f 171/217/202 173/194/202 199/223/202 172/222/202
f 186/208/203 183/205/203 185/207/203
f 197/220/204 200/224/204 201/225/204 172/222/204
f 176/197/205 202/226/205 200/224/205 197/220/205
f 179/200/206 203/227/206 202/226/206 176/197/206
f 172/222/207 201/225/207 203/227/207 179/200/207
f 181/202/208 182/204/208 196/219/208
f 191/213/209 194/216/209 192/214/209
f 201/225/210 200/224/210 204/228/210
f 184/206/211 189/211/211 185/207/211
f 174/195/212 198/221/212 175/196/212
f 182/204/213 178/199/213 196/219/213
f 194/216/214 195/218/214 192/214/214
f 200/224/215 202/226/215 204/228/215
f 189/211/216 186/208/216 185/207/216
f 198/221/217 199/223/217 175/196/217
f 195/218/218 190/212/218 192/214/218
f 202/226/219 203/227/219 204/228/219
f 199/223/220 173/194/220 175/196/220
f 203/227/221 201/225/221 204/228/221
f 178/199/222 177/198/222 196/219/222
f 167/188/223 205/229/223 180/230/223 176/231/223
f 205/229/224 169/190/224 187/232/224 180/230/224
f 169/190/225 168/189/225 193/233/225 187/232/225
f 168/189/226 206/234/226 197/235/226 193/233/226
f 206/234/227 167/188/227 176/231/227 197/235/227
f 169/190/228 205/229/228 167/188/228
f 167/188/229 206/234/229 168/189/229
f 172/193/182 179/236/182 170/191/182
f 170/191/182 188/237/182 171/192/182
