mtllib forest_nature_set_all_in.mtl
o forest_Stone_group_average_Icosphere_022
v -11.989965 0.000000 12.758286
v -11.659182 0.000000 11.673607
v -11.030478 -0.000000 12.435777
v -12.196514 0.000000 12.137882
v -12.483715 -0.000000 10.981002
v -11.664767 0.000000 10.727631
v -12.784467 -0.000000 11.444611
v -12.079475 0.680343 10.774338
v -12.324506 0.869707 11.234469
v -11.723895 1.111324 11.582376
v -11.364056 0.347168 10.715893
v -11.241045 0.754394 11.190447
v -11.117269 0.127730 10.988751
v -11.579487 0.885653 11.167948
v -12.073866 0.445500 10.642118
v -12.351971 1.018031 11.616858
v -12.611345 0.775983 11.606701
v -12.519024 0.639518 11.147121
v -12.203088 1.074450 11.874652
v -12.368779 0.590867 12.505505
v -11.622080 0.587077 12.689769
v -12.344371 0.348098 12.693275
v -12.562751 0.658806 12.216573
v -12.028683 0.410577 12.783025
v -11.782799 0.516756 12.798004
v -11.132899 0.763511 11.826292
v -11.648760 1.090721 11.904397
v -11.499056 0.656012 12.484076
v -10.997334 0.573175 11.342834
v -10.867188 0.440682 11.886641
v -12.155403 0.218954 10.716467
v -12.574625 0.394529 11.022874
v -12.738781 0.363883 11.393876
v -12.544143 0.000000 12.462710
v -12.569045 0.242679 12.487976
v -12.725434 0.263657 12.244878
v -12.325915 0.067715 12.684924
v -11.512814 0.373600 12.765984
v -11.705984 0.176273 12.821755
v -11.349159 0.434645 12.674458
v -10.767689 0.047309 12.038881
v -10.824293 0.177813 11.483334
v -10.762726 -0.000000 11.749754
v -11.039682 -0.000000 11.212013
v -12.816785 -0.000000 12.062047
v -12.889098 0.097458 11.959603
v -12.884285 0.000000 11.696544
v -11.424813 0.181616 12.709175
v -12.755383 0.440257 11.915124
v -12.818517 0.305031 11.651019
v -11.731815 0.000000 13.310194
v -12.049717 -0.000000 13.247332
v -12.177014 0.000000 13.005294
v -12.066167 -0.000000 12.818686
v -11.551908 0.000000 12.952600
v -11.725576 0.228076 13.153682
v -11.688219 0.209596 12.970582
v -11.895283 0.274152 13.231085
v -11.652010 0.111715 13.080670
v -11.742667 0.110703 12.809546
v -11.911489 0.265011 13.141302
v -12.084589 0.144750 12.938430
v -12.051627 0.158122 13.189075
v -11.849804 0.145062 13.268355
v -13.638296 -0.000055 12.809162
v -12.781089 -0.000055 12.967927
v -13.118551 -0.000055 13.481807
v -13.133550 -0.000055 12.586843
v -12.327252 -0.000055 12.385200
v -12.207660 -0.000055 12.862914
v -12.620764 -0.000055 12.202634
v -12.240205 0.357902 12.539884
v -12.516580 0.404451 12.390643
v -12.759189 0.631166 12.799693
v -12.211563 0.237009 12.995646
v -12.581156 0.499585 13.104674
v -12.421844 0.134506 13.186055
v -12.513946 0.535686 12.826201
v -12.142117 0.229195 12.565921
v -12.924611 0.383913 12.409909
v -12.772551 0.282741 12.266434
v -12.445770 0.270991 12.322716
v -13.255518 0.373983 12.604903
v -13.499389 0.259652 12.329412
v -13.415510 0.273510 13.101608
v -13.589176 0.147298 12.405024
v -13.249761 0.258138 12.130702
v -13.702035 0.191444 12.758265
v -13.635257 0.216911 13.040125
v -12.941472 0.523865 13.370599
v -13.008554 0.602137 13.019709
v -13.251197 0.366249 13.222626
v -12.709460 0.434699 13.306139
v -12.885415 0.312982 13.488720
v -12.164759 0.084694 12.545373
v -12.364650 0.143762 12.307748
v -12.573395 0.119155 12.217491
v -13.338773 -0.000055 12.201695
v -13.383402 0.071425 12.132265
v -13.182519 0.086067 11.983538
v -13.551320 0.002410 12.461681
v -13.466269 0.123686 13.184732
v -13.689529 0.061539 13.064442
v -13.299917 0.187012 13.319886
v -12.862849 -0.000055 13.540010
v -12.684028 0.207386 13.382618
v -12.732427 -0.000055 13.459320
v -12.517633 -0.000055 13.264872
v -13.050030 -0.000055 12.018117
v -12.980071 0.013228 12.005398
v -12.799624 -0.000055 12.104317
v -13.441599 -0.000055 13.246540
v -12.947786 0.162500 12.069184
v -12.746505 0.099944 12.138166
vt 0.932006 0.646048
vt 0.957313 0.646048
vt 0.955153 0.646049
vt 0.941710 0.646048
vt 0.963025 0.646048
vt 0.975366 0.646048
vt 0.951749 0.646048
vt 0.972459 0.825689
vt 0.963112 0.862283
vt 0.967915 0.968122
vt 0.979668 0.763837
vt 0.974843 0.895647
vt 0.976626 0.712874
vt 0.973794 0.915713
vt 0.973542 0.760317
vt 0.955388 0.874653
vt 0.951465 0.826697
vt 0.961036 0.794088
vt 0.952244 0.871590
vt 0.933027 0.823544
vt 0.947862 0.789972
vt 0.929138 0.758789
vt 0.937520 0.829017
vt 0.932119 0.769800
vt 0.939676 0.768232
vt 0.964747 0.907915
vt 0.962993 0.956084
vt 0.953702 0.834149
vt 0.971844 0.862287
vt 0.965116 0.801546
vt 0.970850 0.688167
vt 0.962179 0.724441
vt 0.954179 0.726278
vt 0.931347 0.646048
vt 0.930653 0.725085
vt 0.934539 0.734832
vt 0.929516 0.667980
vt 0.945146 0.710325
vt 0.935417 0.687922
vt 0.950860 0.739855
vt 0.963070 0.646049
vt 0.970577 0.749083
vt 0.967056 0.646048
vt 0.973174 0.646048
vt 0.937331 0.646048
vt 0.939274 0.683519
vt 0.945089 0.646048
vt 0.945069 0.646049
vt 0.942745 0.773120
vt 0.948041 0.727372
vt 0.974386 0.519603
vt 0.945685 0.519603
vt 0.925981 0.519603
vt 0.947209 0.519603
vt 0.978327 0.519603
vt 0.972716 0.818401
vt 0.965257 0.818402
vt 0.960184 0.868851
vt 0.979802 0.703589
vt 0.959690 0.703590
vt 0.943786 0.855985
vt 0.928676 0.703589
vt 0.940372 0.703589
vt 0.967238 0.703589
vt 0.932006 0.646048
vt 0.957313 0.646048
vt 0.955153 0.646049
vt 0.941710 0.646048
vt 0.963025 0.646048
vt 0.975366 0.646048
vt 0.951749 0.646048
vt 0.972459 0.825689
vt 0.963112 0.862283
vt 0.967915 0.968122
vt 0.979668 0.763837
vt 0.974843 0.895647
vt 0.976626 0.712874
vt 0.973794 0.915713
vt 0.973542 0.760317
vt 0.955388 0.874653
vt 0.951465 0.826697
vt 0.961036 0.794088
vt 0.952244 0.871590
vt 0.933027 0.823544
vt 0.947862 0.789972
vt 0.929138 0.758789
vt 0.937520 0.829017
vt 0.932119 0.769800
vt 0.939676 0.768232
vt 0.964747 0.907915
vt 0.962993 0.956084
vt 0.953702 0.834149
vt 0.971844 0.862287
vt 0.965116 0.801546
vt 0.970850 0.688167
vt 0.962179 0.724441
vt 0.954179 0.726278
vt 0.931347 0.646048
vt 0.930653 0.725085
vt 0.934539 0.734832
vt 0.929516 0.667980
vt 0.945146 0.710325
vt 0.935417 0.687922
vt 0.950860 0.739855
vt 0.963070 0.646049
vt 0.970577 0.749083
vt 0.967056 0.646048
vt 0.973174 0.646048
vt 0.937331 0.646048
vt 0.939274 0.683519
vt 0.945089 0.646048
vt 0.945069 0.646049
vt 0.942745 0.773120
vt 0.948041 0.727372
vn -0.0000 -1.0000 -0.0000
vn -0.1123 0.8964 -0.4287
vn 0.8161 0.3168 -0.4834
vn 0.3591 0.8665 -0.3467
vn 0.2693 0.6952 -0.6664
vn 0.1568 0.4874 -0.8590
vn -0.1564 0.9170 -0.3669
vn -0.6541 0.6791 -0.3331
vn -0.6403 0.6995 -0.3173
vn -0.1389 0.8032 0.5793
vn -0.7276 0.3724 0.5761
vn -0.3272 0.5573 0.7631
vn -0.1019 0.8965 0.4312
vn 0.5311 0.7380 0.4163
vn 0.7746 0.6317 -0.0315
vn 0.6683 0.3443 -0.6594
vn 0.0055 -0.0386 -0.9992
vn 0.4684 -0.4318 -0.7709
vn 0.0525 -0.3284 -0.9431
vn -0.8597 0.3724 -0.3496
vn -0.5825 0.3882 -0.7141
vn -0.5969 0.4665 -0.6527
vn -0.8381 -0.1409 0.5270
vn -0.6562 -0.0656 0.7518
vn 0.3442 0.4670 0.8145
vn 0.1730 0.1073 0.9791
vn 0.3003 0.4533 0.8393
vn 0.5920 0.7171 0.3677
vn 0.4408 0.7380 0.5110
vn 0.9725 0.2284 -0.0454
vn -0.5418 0.7615 0.3558
vn 0.8315 -0.3538 -0.4283
vn 0.8331 -0.3029 -0.4628
vn -0.6017 -0.0451 -0.7974
vn -0.2409 -0.5795 -0.7786
vn -0.8223 -0.1031 0.5596
vn -0.8462 -0.0729 0.5279
vn -0.8657 -0.4743 0.1599
vn -0.2082 -0.0428 0.9772
vn 0.2567 -0.5923 0.7637
vn 0.7868 0.2729 0.5535
vn 0.4311 -0.7105 -0.5563
vn -0.2763 -0.8095 0.5180
vn 0.6424 0.6144 0.4580
vn -0.8791 0.3823 0.2846
vn -0.8419 0.5135 0.1657
vn -0.6737 0.7139 0.1909
vn -0.5250 0.6515 -0.5477
vn -0.0331 0.9969 0.0715
vn 0.2954 0.6402 -0.7092
vn 0.0125 0.8800 -0.4748
vn -0.1525 0.9802 -0.1264
vn 0.0340 0.8418 0.5387
vn -0.3001 0.5890 0.7504
vn 0.5330 0.8411 -0.0919
vn -0.8713 -0.0577 -0.4874
vn 0.6395 0.7594 -0.1197
vn -0.9412 0.1109 -0.3191
vn -0.8789 0.4033 -0.2547
vn -0.9762 0.1969 -0.0908
vn -0.9149 0.4036 0.0121
vn -0.9296 0.3670 0.0343
vn -0.7400 0.3753 0.5582
vn -0.6836 -0.1446 0.7154
vn 0.5398 -0.0461 0.8406
vn -0.0826 0.0508 0.9953
vn 0.3714 -0.1028 0.9228
vn 0.9577 0.2861 -0.0304
vn 0.8375 0.1836 -0.5147
vn 0.9244 0.3569 -0.1343
vn -0.6041 -0.0548 -0.7951
vn -0.8804 0.3802 0.2836
vn -0.2145 -0.0061 0.9767
vn -0.2382 -0.1700 0.9562
vn 0.2800 -0.6910 0.6664
vn 0.7856 0.3859 0.4836
vn 0.3968 -0.9048 0.1549
vn 0.2410 0.9693 -0.0487
vn 0.8730 0.4699 0.1307
vn 0.9484 -0.0058 -0.3171
vn 0.1469 0.9811 -0.1264
vn -0.1520 0.8643 -0.4794
vn -0.0831 0.8867 -0.4547
vn -0.5983 0.8005 0.0360
vn -0.6004 0.7992 0.0270
vn -0.3539 0.1422 0.9244
vn 0.4678 0.3933 0.7915
vn 0.6862 -0.0224 0.7271
vn 0.6013 0.7726 -0.2039
vn -0.2280 0.6032 -0.7643
vn -0.8234 0.5620 0.0783
vn -0.3278 0.3231 0.8878
vn 0.5895 0.6265 0.5099
vn 0.1952 -0.6324 -0.7497
vn -0.8205 0.2988 -0.4874
vn -0.8738 0.1588 0.4596
vn -0.1925 0.1242 0.9734
vn 0.8591 0.2743 0.4322
vn 0.3176 0.8966 -0.3086
vn 0.5052 0.3919 0.7689
vn 0.3365 0.9201 0.2005
vn 0.6035 0.7793 0.1688
vn 0.7788 0.6167 0.1146
vn -0.0673 0.8552 -0.5139
vn 0.1634 0.5150 -0.8415
vn -0.0686 0.7796 -0.6225
vn -0.4550 0.8899 0.0335
vn -0.6226 -0.0287 -0.7820
vn -0.8333 0.4490 -0.3224
vn -0.2520 0.9677 0.0100
vn -0.5383 0.7948 0.2802
vn 0.4093 0.5263 0.7453
vn 0.6918 0.4310 0.5794
vn 0.9914 -0.0510 0.1203
vn 0.7169 -0.3316 0.6133
vn 0.9715 -0.1750 0.1602
vn 0.3433 0.3227 -0.8820
vn 0.6463 0.3560 -0.6749
vn 0.5583 0.4388 -0.7041
vn -0.3531 -0.7559 -0.5513
vn -0.7833 -0.3930 -0.4816
vn -0.3530 0.5425 0.7623
vn -0.5162 0.3055 0.8001
vn -0.6480 0.5254 0.5514
vn -0.4530 0.5172 0.7262
vn -0.6794 0.4840 0.5516
vn 0.5289 0.1742 0.8306
vn -0.1737 0.9562 -0.2357
vn 0.6665 0.1167 0.7363
vn 0.6056 0.0345 0.7950
vn 0.7616 -0.0273 -0.6475
vn 0.5636 -0.8139 -0.1411
vn -0.3496 -0.7586 -0.5499
vn -0.0721 -0.4652 -0.8823
vn 0.1161 -0.9343 -0.3372
vn -0.9314 -0.3148 -0.1827
vn -0.1879 0.5323 0.8254
vn 0.7756 -0.2018 0.5981
vn -0.0292 -0.9995 -0.0144
vn -0.5317 0.3019 0.7913
vn 0.0573 0.6617 -0.7476
vn 0.1290 0.7916 -0.5972
vn 0.0984 0.8594 -0.5017
vn 0.4596 0.5843 -0.6689
vn -0.3521 0.8927 -0.2813
vn 0.7002 0.6667 0.2554
vn 0.3742 0.9046 -0.2039
vn -0.2778 0.8602 -0.4277
vn -0.6265 0.7793 0.0141
vn -0.3316 0.9434 -0.0067
vn 0.1818 0.9543 0.2374
vn 0.4739 -0.2208 -0.8525
vn 0.4284 0.7442 0.5125
vn 0.4509 -0.0084 -0.8925
vn 0.2176 0.5132 -0.8302
vn 0.4826 0.0398 -0.8750
vn 0.4190 0.5608 -0.7141
vn 0.3896 0.2894 -0.8744
vn -0.6156 0.4351 -0.6571
vn -0.5254 -0.7385 -0.4226
vn -0.6089 0.1562 0.7777
vn -0.9182 0.3498 0.1859
vn -0.5158 0.2983 0.8031
vn 0.5167 0.1883 0.8352
vn 0.6239 0.3110 0.7169
vn 0.5673 0.3189 0.7593
vn 0.7345 -0.1637 -0.6586
vn 0.2217 0.3422 -0.9131
vn -0.9527 0.1903 -0.2371
vn -0.8201 -0.5380 -0.1948
vn -0.3436 -0.9263 0.1545
vn -0.4054 0.1193 0.9063
usemtl AllColors_Material
f 1/1/1 2/2/1 3/3/1
f 2/2/1 1/1/1 4/4/1
f 5/5/1 6/6/1 7/7/1
f 8/8/2 9/9/2 10/10/2
f 11/11/3 12/12/3 13/13/3
f 14/14/4 10/10/4 12/12/4
f 11/11/5 8/8/5 12/12/5
f 15/15/6 8/8/6 11/11/6
f 9/9/7 16/16/7 10/10/7
f 17/17/8 9/9/8 18/18/8
f 9/9/9 17/17/9 16/16/9
f 19/19/10 20/20/10 21/21/10
f 22/22/11 20/20/11 23/23/11
f 24/24/12 20/20/12 22/22/12
f 21/21/13 20/20/13 25/25/13
f 26/26/14 27/27/14 28/28/14
f 29/29/15 26/26/15 30/30/15
f 12/12/16 29/29/16 13/13/16
f 31/31/17 11/11/17 6/6/17
f 6/6/18 11/11/18 13/13/18
f 31/31/19 15/15/19 11/11/19
f 18/18/20 32/32/20 33/33/20
f 32/32/21 8/8/21 15/15/21
f 32/32/22 18/18/22 8/8/22
f 34/34/23 35/35/23 36/36/23
f 35/35/24 37/37/24 22/22/24
f 25/25/25 38/38/25 21/21/25
f 38/38/26 25/25/26 39/39/26
f 21/21/27 38/38/27 40/40/27
f 28/28/28 40/40/28 30/30/28
f 21/21/29 40/40/29 28/28/29
f 30/30/30 41/41/30 42/42/30
f 19/19/31 16/16/31 23/23/31 20/20/31
f 42/42/32 43/43/32 44/44/32
f 13/13/33 42/42/33 44/44/33
f 15/15/34 31/31/34 32/32/34
f 5/5/35 31/31/35 6/6/35
f 36/36/36 45/45/36 34/34/36
f 36/36/37 46/46/37 45/45/37
f 45/45/38 46/46/38 47/47/38
f 39/39/39 22/22/39 37/37/39
f 3/3/40 48/48/40 1/1/40
f 41/41/41 40/40/41 3/3/41
f 13/13/42 44/44/42 6/6/42
f 4/4/1 1/1/1 34/34/1
f 7/7/1 6/6/1 43/43/1
f 2/2/1 7/7/1 43/43/1
f 37/37/43 34/34/43 1/1/43
f 45/45/1 47/47/1 7/7/1
f 30/30/44 26/26/44 28/28/44
f 36/36/45 23/23/45 49/49/45
f 49/49/46 23/23/46 17/17/46
f 16/16/47 17/17/47 23/23/47
f 8/8/48 18/18/48 9/9/48
f 19/19/49 27/27/49 10/10/49
f 12/12/50 8/8/50 14/14/50
f 10/10/51 14/14/51 8/8/51
f 10/10/52 16/16/52 19/19/52
f 19/19/53 21/21/53 28/28/53 27/27/53
f 24/24/54 25/25/54 20/20/54
f 26/26/55 12/12/55 10/10/55 27/27/55
f 32/32/56 5/5/56 7/7/56 33/33/56
f 26/26/57 29/29/57 12/12/57
f 7/7/58 47/47/58 50/50/58 33/33/58
f 17/17/59 18/18/59 33/33/59 50/50/59
f 47/47/60 46/46/60 50/50/60
f 17/17/61 50/50/61 49/49/61
f 49/49/62 50/50/62 46/46/62
f 35/35/63 22/22/63 23/23/63 36/36/63
f 37/37/64 35/35/64 34/34/64
f 48/48/65 3/3/65 40/40/65 38/38/65
f 39/39/66 25/25/66 24/24/66
f 48/48/67 38/38/67 39/39/67
f 42/42/68 41/41/68 43/43/68
f 29/29/69 42/42/69 13/13/69
f 30/30/70 42/42/70 29/29/70
f 5/5/71 32/32/71 31/31/71
f 49/49/72 46/46/72 36/36/72
f 1/1/73 39/39/73 37/37/73
f 24/24/74 22/22/74 39/39/74
f 39/39/75 1/1/75 48/48/75
f 30/30/76 40/40/76 41/41/76
f 41/41/77 3/3/77 43/43/77
f 43/43/1 6/6/1 44/44/1
f 4/4/1 7/7/1 2/2/1
f 45/45/1 7/7/1 4/4/1
f 34/34/1 45/45/1 4/4/1
f 43/43/1 3/3/1 2/2/1
f 51/51/1 52/52/1 53/53/1
f 51/51/1 53/53/1 54/54/1
f 51/51/1 54/54/1 55/55/1
f 56/56/78 57/57/78 58/58/78
f 56/56/79 59/59/79 57/57/79
f 59/59/80 60/60/80 57/57/80
f 57/57/81 61/61/81 58/58/81
f 57/57/82 60/60/82 61/61/82
f 60/60/83 62/62/83 61/61/83
f 62/62/84 63/63/84 61/61/84
f 61/61/85 63/63/85 58/58/85
f 63/63/86 64/64/86 58/58/86
f 58/58/87 64/64/87 56/56/87
f 64/64/88 59/59/88 56/56/88
f 55/55/89 60/60/89 59/59/89
f 54/54/90 62/62/90 60/60/90
f 53/53/91 63/63/91 62/62/91
f 52/52/92 64/64/92 63/63/92
f 51/51/93 59/59/93 64/64/93
f 55/55/94 54/54/94 60/60/94
f 54/54/95 53/53/95 62/62/95
f 53/53/96 52/52/96 63/63/96
f 52/52/97 51/51/97 64/64/97
f 51/51/98 55/55/98 59/59/98
f 65/65/1 66/66/1 67/67/1
f 66/66/1 65/65/1 68/68/1
f 69/69/1 70/70/1 71/71/1
f 72/72/99 73/73/99 74/74/99
f 75/75/100 76/76/100 77/77/100
f 78/78/101 74/74/101 76/76/101
f 75/75/102 72/72/102 76/76/102
f 79/79/103 72/72/103 75/75/103
f 73/73/104 80/80/104 74/74/104
f 81/81/105 73/73/105 82/82/105
f 73/73/106 81/81/106 80/80/106
f 83/83/107 84/84/107 85/85/107
f 86/86/108 84/84/108 87/87/108
f 88/88/109 84/84/109 86/86/109
f 85/85/110 84/84/110 89/89/110
f 90/90/111 91/91/111 92/92/111
f 93/93/112 90/90/112 94/94/112
f 76/76/113 93/93/113 77/77/113
f 95/95/114 75/75/114 70/70/114
f 70/70/115 75/75/115 77/77/115
f 95/95/116 79/79/116 75/75/116
f 82/82/117 96/96/117 97/97/117
f 96/96/118 72/72/118 79/79/118
f 96/96/119 82/82/119 72/72/119
f 98/98/120 99/99/120 100/100/120
f 99/99/121 101/101/121 86/86/121
f 89/89/122 102/102/122 85/85/122
f 102/102/123 89/89/123 103/103/123
f 85/85/124 102/102/124 104/104/124
f 92/92/125 104/104/125 94/94/125
f 85/85/126 104/104/126 92/92/126
f 94/94/127 105/105/127 106/106/127
f 83/83/128 80/80/128 87/87/128 84/84/128
f 106/106/129 107/107/129 108/108/129
f 77/77/130 106/106/130 108/108/130
f 79/79/131 95/95/131 96/96/131
f 69/69/132 95/95/132 70/70/132
f 100/100/133 109/109/133 98/98/133
f 100/100/134 110/110/134 109/109/134
f 109/109/135 110/110/135 111/111/135
f 103/103/136 86/86/136 101/101/136
f 67/67/1 112/112/1 65/65/1
f 105/105/137 104/104/137 67/67/137
f 77/77/138 108/108/138 70/70/138
f 68/68/1 65/65/1 98/98/1
f 71/71/1 70/70/1 107/107/1
f 66/66/1 71/71/1 107/107/1
f 101/101/139 98/98/139 65/65/139
f 109/109/1 111/111/1 71/71/1
f 94/94/140 90/90/140 92/92/140
f 100/100/141 87/87/141 113/113/141
f 113/113/142 87/87/142 81/81/142
f 80/80/143 81/81/143 87/87/143
f 72/72/144 82/82/144 73/73/144
f 83/83/145 91/91/145 74/74/145
f 76/76/146 72/72/146 78/78/146
f 74/74/147 78/78/147 72/72/147
f 74/74/148 80/80/148 83/83/148
f 83/83/149 85/85/149 92/92/149 91/91/149
f 88/88/150 89/89/150 84/84/150
f 90/90/151 76/76/151 74/74/151 91/91/151
f 96/96/152 69/69/152 71/71/152 97/97/152
f 90/90/153 93/93/153 76/76/153
f 71/71/154 111/111/154 114/114/154 97/97/154
f 81/81/155 82/82/155 97/97/155 114/114/155
f 111/111/156 110/110/156 114/114/156
f 81/81/157 114/114/157 113/113/157
f 113/113/158 114/114/158 110/110/158
f 99/99/159 86/86/159 87/87/159 100/100/159
f 101/101/160 99/99/160 98/98/160
f 112/112/161 67/67/161 104/104/161 102/102/161
f 103/103/162 89/89/162 88/88/162
f 112/112/163 102/102/163 103/103/163
f 106/106/164 105/105/164 107/107/164
f 93/93/165 106/106/165 77/77/165
f 94/94/166 106/106/166 93/93/166
f 69/69/167 96/96/167 95/95/167
f 113/113/168 110/110/168 100/100/168
f 65/65/169 103/103/169 101/101/169
f 88/88/170 86/86/170 103/103/170
f 103/103/171 65/65/171 112/112/171
f 94/94/172 104/104/172 105/105/172
f 105/105/1 67/67/1 107/107/1
f 107/107/1 70/70/1 108/108/1
f 68/68/1 71/71/1 66/66/1
f 109/109/1 71/71/1 68/68/1
f 98/98/1 109/109/1 68/68/1
f 107/107/1 67/67/1 66/66/1
