mtllib forest_nature_set_all_in.mtl
o forest_Stone_group_average_mossy_Icosphere_030
v -8.660772 0.000000 12.758286
v -8.329988 0.000000 11.673607
v -7.701285 -0.000000 12.435777
v -8.867321 0.000000 12.137882
v -9.154522 -0.000000 10.981002
v -8.335574 0.000000 10.727631
v -9.455274 -0.000000 11.444611
v -8.750282 0.680343 10.774338
v -8.995313 0.869707 11.234469
v -8.394702 1.111324 11.582376
v -8.860437 -0.003005 12.869211
v -8.864986 0.241322 13.002900
v -9.078671 0.132594 13.199258
v -8.816984 0.082951 12.540362
v -9.369899 0.442237 13.320599
v -9.617917 0.535518 13.384947
v -9.553006 0.321541 13.505743
v -9.689764 0.617495 13.025124
v -9.933026 0.378857 13.232266
v -9.022778 1.018031 11.616858
v -10.094912 0.288112 13.110900
v -10.183888 0.264553 12.316689
v -10.317719 0.230230 13.047883
v -10.382624 0.208109 12.758181
v -10.276396 0.149916 12.395165
v -8.873895 1.074450 11.874652
v -9.039586 0.590867 12.505505
v -8.292887 0.587077 12.689769
v -9.926641 0.269959 12.116673
v -9.183223 0.419172 12.378838
v -9.441575 0.296601 12.253087
v -9.595366 0.400215 12.399534
v -8.453606 0.516756 12.798004
v -9.109319 0.280290 12.307410
v -9.425494 0.649553 12.795812
v -8.794657 0.233656 12.561465
v -8.898516 0.371345 12.533838
v -8.826210 0.218954 10.716467
v -8.034863 0.347168 10.715893
v -7.788076 0.127730 10.988751
v -8.744673 0.445500 10.642118
v -9.189831 0.639518 11.147121
v -9.245432 0.394529 11.022874
v -9.409588 0.363883 11.393876
v -9.241698 0.515474 13.108620
v -9.174821 0.552199 12.827646
v -9.214950 0.000000 12.462710
v -9.239852 0.242679 12.487976
v -9.396241 0.263657 12.244878
v -8.996722 0.067715 12.684924
v -9.015178 0.348098 12.693275
v -8.183620 0.373600 12.765984
v -8.019966 0.434645 12.674458
v -9.024068 0.354145 12.710338
v -9.254776 0.250247 12.499233
v -7.710489 -0.000000 11.212013
v -7.771392 0.131174 10.977957
v -7.693689 -0.006310 11.202812
v -9.002305 0.056937 12.701030
v -9.233558 0.658806 12.216573
v -7.433533 -0.000000 11.749754
v -7.413468 0.000719 11.747854
v -9.007504 0.883386 11.226046
v -9.036424 1.032739 11.614814
v -9.487592 -0.000000 12.062047
v -7.685759 0.000889 12.448616
v -9.413239 0.270443 12.253348
v -8.095620 0.181616 12.709175
v -8.089531 0.171997 12.725821
v -9.555092 0.000000 11.696544
v -9.505381 -0.004287 12.070526
v -9.575225 0.000928 11.695832
v -8.391446 1.129258 11.573746
v -8.754264 0.692674 10.758883
v -9.282152 0.775983 11.606701
v -9.489324 0.305031 11.651019
v -9.508307 0.311837 11.650879
v -9.297325 0.789261 11.606263
v -8.007301 0.447248 12.683810
v -7.911852 0.754394 11.190447
v -7.901488 0.766364 11.177957
v -8.287728 0.603304 12.700577
v -8.319567 1.090721 11.904397
v -8.873208 1.091427 11.885515
v -8.314754 1.107423 11.914623
v -7.668141 0.573175 11.342834
v -7.651468 0.580714 11.334356
v -8.024297 0.358194 10.702721
v -9.249822 0.668169 12.223958
v -9.220521 -0.016326 12.473157
v -7.803706 0.763511 11.826292
v -8.748408 0.455155 10.624811
v -7.790122 0.777118 11.832378
v -9.201957 0.651588 11.136445
v -9.257404 0.403522 11.009364
v -8.454751 0.520721 12.817745
v -8.178062 0.373638 12.785370
v -8.663350 -0.004866 12.777687
v -9.051904 0.599896 12.518675
v -8.402622 0.000000 13.310194
v -8.720524 -0.000000 13.247332
v -8.847821 0.000000 13.005294
v -8.736974 -0.000000 12.818686
v -8.222715 0.000000 12.952600
v -8.359026 0.209596 12.970582
v -8.413474 0.110703 12.809546
v -8.582296 0.265011 13.141302
v -8.755396 0.144750 12.938430
v -8.722434 0.158122 13.189075
v -8.520611 0.145062 13.268355
v -8.393318 0.007504 13.317081
v -8.515664 0.150368 13.280089
v -8.211113 0.006629 12.949171
v -8.730005 0.164964 13.198358
v -8.346438 0.214688 12.968141
v -8.407118 0.108293 12.797541
v -8.743028 0.005223 12.807443
v -8.584833 0.278540 13.140383
v -8.859140 0.004122 12.998570
v -8.763269 0.151359 12.929230
v -10.309103 -0.000055 12.809162
v -9.451896 -0.000055 12.967927
v -9.789358 -0.000055 13.481807
v -9.804357 -0.000055 12.586843
v -8.998059 -0.000055 12.385200
v -8.878467 -0.000055 12.862914
v -9.291571 -0.000055 12.202634
v -8.310775 0.117453 13.084188
v -8.387411 0.236688 13.159654
v -8.882370 0.237009 12.995646
v -9.251963 0.499585 13.104674
v -9.092650 0.134506 13.186055
v -8.567608 0.285252 13.239135
v -9.926325 0.373983 12.604903
v -10.170196 0.259652 12.329412
v -10.086317 0.273510 13.101608
v -9.380267 0.434699 13.306139
v -9.470431 -0.000055 12.104317
v -9.650878 0.013228 12.005398
v -9.641553 0.013997 11.988491
v -9.461303 0.000409 12.087291
v -9.920568 0.258138 12.130702
v -9.188440 -0.000055 13.264872
v -9.175386 -0.000211 13.279119
v -9.443357 0.282741 12.266434
v -9.618593 0.162500 12.069184
v -9.616505 0.177115 12.056715
v -10.054209 0.071425 12.132265
v -10.009580 -0.000055 12.201695
v -10.019733 -0.014325 12.193530
v -10.068179 0.072739 12.118979
v -10.222127 0.002410 12.461681
v -10.259983 0.147298 12.405024
v -10.236512 -0.006613 12.452458
v -9.403234 -0.000055 13.459320
v -9.392108 0.003075 13.474806
v -9.533656 -0.000055 13.540010
v -9.970724 0.187012 13.319886
v -9.982092 0.192604 13.334478
v -9.528351 0.006556 13.557376
v -9.853326 0.086067 11.983538
v -9.794942 0.008877 13.498008
v -9.595418 0.383913 12.409909
v -9.429996 0.631166 12.799693
v -9.556222 0.312982 13.488720
v -9.354835 0.207386 13.382618
v -9.342994 0.211785 13.397242
v -9.857847 0.097808 11.968870
v -9.922004 0.366249 13.222626
v -10.112406 -0.000055 13.246540
v -10.123617 0.003877 13.261779
v -8.835566 0.084694 12.545373
v -9.720837 -0.000055 12.018117
v -10.360336 0.061539 13.064442
v -9.417312 0.099944 12.138166
v -9.409654 0.103244 12.120734
v -10.374378 0.068213 13.075917
v -10.372842 0.191444 12.758265
v -9.679361 0.602137 13.019709
v -9.035457 0.143762 12.307748
v -9.244202 0.119155 12.217491
v -9.238274 0.126110 12.200465
v -9.025152 0.150160 12.292705
v -9.612279 0.523865 13.370599
v -9.282857 -0.000217 12.185387
v -8.245631 0.902047 11.157167
v -8.704788 0.415181 12.801931
v -8.162500 0.671986 12.493942
v -7.520658 0.450296 11.890348
v -8.373820 0.170131 12.840734
v -7.420306 0.041061 12.044952
v -7.476072 0.178331 11.476669
v -9.579605 0.097029 11.963895
v -9.444248 0.448717 11.918135
v -10.147666 0.130828 13.199233
vt 0.932044 0.655849
vt 0.954873 0.655849
vt 0.952924 0.655850
vt 0.940798 0.655849
vt 0.960027 0.655849
vt 0.971159 0.655849
vt 0.949854 0.655849
vt 0.968536 0.839012
vt 0.960105 0.876324
vt 0.964437 0.984237
vt 0.276666 0.581243
vt 0.276498 0.705835
vt 0.268635 0.650391
vt 0.278265 0.625076
vt 0.257919 0.808291
vt 0.248792 0.855859
vt 0.251181 0.746743
vt 0.246148 0.897663
vt 0.237197 0.775972
vt 0.953137 0.888936
vt 0.231239 0.729696
vt 0.227965 0.717682
vt 0.223041 0.700180
vt 0.220652 0.688900
vt 0.224561 0.659225
vt 0.950301 0.885813
vt 0.932965 0.836825
vt 0.946347 0.802594
vt 0.237432 0.720439
vt 0.264788 0.796529
vt 0.255281 0.734025
vt 0.249622 0.786862
vt 0.938963 0.780428
vt 0.267507 0.725708
vt 0.255873 0.914010
vt 0.279086 0.701927
vt 0.275265 0.772140
vt 0.967085 0.698794
vt 0.975040 0.775948
vt 0.972295 0.723986
vt 0.969513 0.772358
vt 0.958232 0.806791
vt 0.959263 0.735779
vt 0.952046 0.737652
vt 0.262636 0.845638
vt 0.265097 0.864365
vt 0.931450 0.655849
vt 0.930824 0.736436
vt 0.934330 0.746374
vt 0.929798 0.678211
vt 0.929457 0.770801
vt 0.943897 0.721386
vt 0.949052 0.751495
vt 0.227662 0.619111
vt 0.234132 0.661180
vt 0.233876 0.663593
vt 0.227232 0.622131
vt 0.271703 0.522267
vt 0.269469 0.573239
vt 0.269949 0.574614
vt 0.272187 0.519749
vt 0.234663 0.549289
vt 0.234503 0.544988
vt 0.937019 0.842405
vt 0.279678 0.522267
vt 0.280256 0.522553
vt 0.233913 0.928525
vt 0.234704 0.869334
vt 0.234353 0.874793
vt 0.233520 0.934394
vt 0.936848 0.655849
vt 0.271968 0.522267
vt 0.272415 0.522622
vt 0.223158 0.627483
vt 0.222669 0.630190
vt 0.260612 0.594743
vt 0.260788 0.590905
vt 0.218584 0.522267
vt 0.220528 0.522267
vt 0.220016 0.520556
vt 0.218004 0.522637
vt 0.241760 0.793767
vt 0.252000 0.965755
vt 0.252093 0.972912
vt 0.241645 0.798687
vt 0.969181 0.655849
vt 0.963662 0.655849
vt 0.226444 0.831932
vt 0.220478 0.643993
vt 0.219931 0.646709
vt 0.226007 0.837231
vt 0.943846 0.655849
vt 0.262791 0.695717
vt 0.263156 0.700747
vt 0.265904 0.823318
vt 0.266203 0.828094
vt 0.254932 0.756548
vt 0.255080 0.763023
vt 0.254163 0.957533
vt 0.238200 0.951040
vt 0.238220 0.957815
vt 0.254302 0.964198
vt 0.959997 0.971963
vt 0.272922 0.751000
vt 0.273402 0.754008
vt 0.262362 0.660808
vt 0.262666 0.665209
vt 0.227843 0.785172
vt 0.227375 0.788908
vt 0.228379 0.522267
vt 0.228219 0.515752
vt 0.961579 0.922849
vt 0.970687 0.910341
vt 0.967982 0.876328
vt 0.946509 0.738767
vt 0.949598 0.840039
vt 0.241922 0.700049
vt 0.241814 0.703902
vt 0.269018 0.826956
vt 0.269410 0.832385
vt 0.943829 0.655850
vt 0.229102 0.777474
vt 0.228753 0.782291
vt 0.227501 0.679709
vt 0.227157 0.683297
vt 0.258078 0.671357
vt 0.250303 0.728485
vt 0.250270 0.730067
vt 0.258238 0.671372
vt 0.244338 0.522267
vt 0.244263 0.520325
vt 0.233429 0.758059
vt 0.233074 0.761663
vt 0.970274 0.526926
vt 0.944384 0.526926
vt 0.926609 0.526926
vt 0.945759 0.526926
vt 0.973830 0.526926
vt 0.962040 0.831582
vt 0.957018 0.714519
vt 0.942670 0.869902
vt 0.929040 0.714518
vt 0.939591 0.714518
vt 0.250037 0.752696
vt 0.260672 0.571502
vt 0.261510 0.580876
vt 0.250482 0.759324
vt 0.276888 0.571502
vt 0.277933 0.579783
vt 0.231845 0.769010
vt 0.231163 0.777556
vt 0.259693 0.709780
vt 0.264601 0.833304
vt 0.265736 0.839665
vt 0.260266 0.706769
vt 0.230535 0.571502
vt 0.229989 0.578027
vt 0.244477 0.902523
vt 0.244248 0.919421
vt 0.963826 0.714518
vt 0.220544 0.571502
vt 0.219523 0.576651
vt 0.228874 0.752307
vt 0.228165 0.760561
vt 0.932044 0.655849
vt 0.954873 0.655849
vt 0.952924 0.655850
vt 0.940798 0.655849
vt 0.960027 0.655849
vt 0.971159 0.655849
vt 0.949854 0.655849
vt 0.268950 0.718210
vt 0.262043 0.867145
vt 0.975040 0.775948
vt 0.970687 0.910341
vt 0.972295 0.723986
vt 0.245800 0.927804
vt 0.950301 0.885813
vt 0.932965 0.836825
vt 0.946347 0.802594
vt 0.268121 0.651366
vt 0.257537 0.804448
vt 0.254219 0.582748
vt 0.247579 0.589521
vt 0.247922 0.589914
vt 0.254555 0.582985
vt 0.228469 0.715183
vt 0.237655 0.714411
vt 0.231556 0.722250
vt 0.967982 0.876328
vt 0.264596 0.582748
vt 0.276002 0.582748
vt 0.265076 0.582668
vt 0.255215 0.726957
vt 0.248767 0.665642
vt 0.248844 0.673094
vt 0.232737 0.619198
vt 0.234380 0.582748
vt 0.234006 0.575471
vt 0.232223 0.619868
vt 0.226558 0.584004
vt 0.225165 0.657889
vt 0.226029 0.579403
vt 0.256692 0.582748
vt 0.257101 0.584344
vt 0.251893 0.582748
vt 0.235809 0.678141
vt 0.235391 0.680993
vt 0.252088 0.586119
vt 0.931450 0.655849
vt 0.930824 0.736436
vt 0.934330 0.746374
vt 0.242483 0.582748
vt 0.242278 0.587303
vt 0.249620 0.778549
vt 0.255707 0.904634
vt 0.251062 0.742379
vt 0.258473 0.688531
vt 0.258909 0.690774
vt 0.240129 0.626665
vt 0.239963 0.632652
vt 0.951616 0.847637
vt 0.949052 0.751495
vt 0.961913 0.814395
vt 0.960067 0.655850
vt 0.966838 0.760904
vt 0.953137 0.888936
vt 0.937019 0.842405
vt 0.230596 0.582748
vt 0.230183 0.584753
vt 0.277581 0.625965
vt 0.262258 0.837535
vt 0.275859 0.703637
vt 0.967085 0.698794
vt 0.936848 0.655849
vt 0.938601 0.694055
vt 0.943846 0.655849
vt 0.935121 0.698544
vt 0.929457 0.770801
vt 0.929798 0.678211
vt 0.943829 0.655850
vt 0.256174 0.633741
vt 0.256456 0.635424
vt 0.963662 0.655849
vt 0.221472 0.614157
vt 0.220956 0.617560
vt 0.221012 0.680401
vt 0.959997 0.971963
vt 0.964437 0.984237
vt 0.270225 0.656087
vt 0.262544 0.643538
vt 0.262762 0.647085
vt 0.270605 0.659349
vt 0.246531 0.889831
vt 0.237602 0.769542
vt 0.961579 0.922849
vt 0.959263 0.735779
vt 0.952046 0.737652
vt 0.260801 0.582748
vt 0.261122 0.582665
vt 0.949598 0.840039
vt 0.946509 0.738767
vt 0.941732 0.785413
vt 0.249000 0.849917
vt 0.932146 0.782027
vt 0.969181 0.655849
vt 0.256292 0.882240
vt 0.243070 0.687950
vt 0.258686 0.790431
vt 0.277169 0.701963
vt 0.252601 0.590160
vt 0.280059 0.538652
vt 0.278453 0.593432
vt 0.217878 0.560988
vt 0.221776 0.701333
vt 0.229298 0.649490
vn -0.0000 -1.0000 -0.0000
vn -0.1123 0.8964 -0.4287
vn 0.7242 -0.3206 0.6106
vn 0.9918 -0.0466 0.1189
vn 0.3957 0.5396 0.7431
vn -0.5345 0.7947 0.2878
vn -0.1564 0.9170 -0.3669
vn -0.2513 0.9679 -0.0006
vn -0.8323 0.4550 -0.3165
vn -0.1389 0.8032 0.5793
vn -0.6126 -0.0459 -0.7891
vn -0.0671 0.7799 -0.6223
vn -0.1019 0.8965 0.4312
vn 0.1627 0.5184 -0.8395
vn -0.0651 0.8569 -0.5113
vn 0.7820 0.6127 0.1140
vn 0.0055 -0.0386 -0.9992
vn 0.4684 -0.4318 -0.7708
vn 0.0525 -0.3284 -0.9431
vn -0.8597 0.3724 -0.3496
vn 0.6107 0.7733 0.1707
vn 0.3326 0.9217 0.1996
vn -0.8381 -0.1409 0.5270
vn -0.6562 -0.0656 0.7518
vn 0.3442 0.4670 0.8145
vn 0.3190 0.8958 -0.3096
vn 0.3003 0.4533 0.8393
vn 0.0102 -0.8978 0.4402
vn -0.3131 -0.8609 -0.4010
vn -0.9126 -0.0512 -0.4055
vn -0.5418 0.7615 0.3558
vn -0.1282 -0.9891 0.0724
vn 0.7598 0.6233 -0.1850
vn -0.6017 -0.0451 -0.7974
vn -0.2409 -0.5795 -0.7786
vn -0.8223 -0.1031 0.5596
vn 0.0403 -0.9991 0.0158
vn -0.3346 -0.9324 0.1369
vn 0.3943 0.9188 -0.0170
vn 0.0836 -0.9962 -0.0225
vn -0.9304 0.2143 0.2973
vn 0.4311 -0.7105 -0.5563
vn -0.0302 -0.0801 -0.9963
vn -0.2904 -0.6083 0.7387
vn 0.7673 0.6217 0.1575
vn 0.6949 0.1760 0.6973
vn -0.2117 -0.4688 0.8575
vn 0.0296 0.5270 -0.8493
vn -0.0331 0.9969 0.0715
vn 0.0615 0.6899 0.7213
vn -0.0832 -0.8084 -0.5827
vn -0.1525 0.9802 -0.1264
vn 0.5782 0.5945 0.5588
vn -0.6325 0.6590 0.4070
vn 0.5330 0.8411 -0.0919
vn -0.8713 -0.0577 -0.4874
vn 0.6395 0.7594 -0.1197
vn -0.9412 0.1109 -0.3191
vn -0.8789 0.4033 -0.2547
vn -0.0517 -0.8210 -0.5686
vn 0.3135 -0.6043 0.7325
vn -0.0069 -0.1439 -0.9896
vn -0.5387 0.7216 -0.4348
vn -0.6836 -0.1446 0.7154
vn 0.5398 -0.0461 0.8406
vn -0.6941 -0.7164 0.0711
vn 0.1214 0.4123 -0.9029
vn -0.2267 -0.8802 -0.4171
vn 0.4512 0.8812 -0.1410
vn 0.2804 -0.8172 -0.5036
vn -0.6041 -0.0548 -0.7951
vn -0.8475 -0.1773 0.5003
vn -0.0337 -0.9935 -0.1090
vn 0.2527 0.9308 -0.2641
vn 0.8804 0.4441 -0.1665
vn -0.7624 -0.1492 0.6296
vn 0.4767 0.8713 -0.1167
vn -0.1520 0.8643 -0.4794
vn -0.0831 0.8867 -0.4547
vn -0.5983 0.8005 0.0360
vn -0.6266 -0.3296 0.7062
vn 0.5119 -0.8199 0.2565
vn -0.2362 -0.8538 0.4640
vn -0.4046 0.8338 -0.3757
vn 0.1551 -0.7963 -0.5846
vn -0.4405 0.1451 -0.8859
vn -0.8234 0.5620 0.0783
vn -0.3278 0.3231 0.8878
vn -0.5624 0.1572 -0.8118
vn -0.3077 -0.9328 -0.1876
vn -0.3191 0.5618 0.7632
vn -0.8738 0.1588 0.4596
vn -0.1925 0.1242 0.9734
vn 0.1739 0.9683 0.1793
vn 0.6898 -0.0148 0.7239
vn 0.5052 0.3919 0.7689
vn 0.4585 0.4151 0.7858
vn -0.3434 0.1493 0.9272
vn -0.6027 0.7964 0.0510
vn 0.1897 0.9768 -0.0995
vn 0.9477 -0.0314 -0.3175
vn 0.8697 0.4758 0.1314
vn -0.4550 0.8899 0.0335
vn 0.2344 0.9702 -0.0613
vn 0.4792 0.6764 -0.5594
vn -0.0419 -0.9974 -0.0591
vn 0.2735 0.8934 0.3564
vn 0.6637 0.7424 -0.0910
vn 0.6918 0.4310 0.5794
vn -0.0675 -0.9965 -0.0485
vn 0.7811 -0.4743 -0.4060
vn 0.7087 -0.1988 -0.6769
vn -0.5444 0.1702 0.8214
vn 0.0476 -0.9970 0.0610
vn 0.4725 0.8495 -0.2347
vn -0.3531 -0.7559 -0.5513
vn -0.0980 -0.9034 0.4175
vn -0.9392 0.2286 0.2562
vn -0.2145 -0.8639 0.4558
vn -0.1526 -0.9303 -0.3336
vn -0.4530 0.5172 0.7262
vn -0.6794 0.4840 0.5516
vn 0.5289 0.1742 0.8306
vn -0.1737 0.9562 -0.2357
vn -0.1955 -0.9399 0.2801
vn -0.1133 -0.9568 -0.2678
vn -0.0504 -0.4306 0.9011
vn 0.5636 -0.8139 -0.1411
vn -0.3496 -0.7586 -0.5499
vn -0.0721 -0.4652 -0.8823
vn 0.1161 -0.9343 -0.3372
vn -0.9314 -0.3148 -0.1827
vn -0.9614 0.0405 -0.2723
vn -0.6931 0.7096 0.1273
vn -0.0292 -0.9995 -0.0144
vn -0.3279 0.9434 -0.0504
vn -0.3047 -0.9483 0.0884
vn -0.7500 0.3220 0.5777
vn -0.5769 -0.8146 -0.0601
vn 0.6800 0.7315 -0.0502
vn -0.3521 0.8927 -0.2813
vn 0.2265 -0.9345 -0.2745
vn -0.2367 0.9381 0.2529
vn -0.2778 0.8602 -0.4277
vn -0.6265 0.7793 0.0141
vn -0.6160 -0.0487 -0.7862
vn 0.1818 0.9543 0.2374
vn 0.4739 -0.2208 -0.8525
vn 0.4284 0.7442 0.5125
vn -0.6819 0.3906 0.6184
vn 0.8797 -0.3664 0.3032
vn 0.4654 -0.7893 0.4005
vn 0.4190 0.5608 -0.7141
vn 0.3896 0.2894 -0.8744
vn 0.1247 -0.9665 0.2242
vn 0.1562 0.8100 -0.5652
vn -0.7358 -0.6301 -0.2480
vn 0.4396 -0.6243 -0.6457
vn 0.0024 -1.0000 -0.0076
vn 0.8443 0.5340 -0.0446
vn -0.0119 -0.9701 -0.2424
vn -0.4522 -0.7583 0.4696
vn 0.7345 -0.1637 -0.6586
vn 0.2217 0.3422 -0.9131
vn -0.9527 0.1903 -0.2371
vn -0.8201 -0.5380 -0.1948
vn -0.3436 -0.9263 0.1545
vn -0.4054 0.1193 0.9063
vn 0.8143 0.3194 -0.4847
vn 0.3622 0.8657 -0.3454
vn 0.2675 0.6957 -0.6667
vn 0.1577 0.4884 -0.8583
vn -0.6556 0.6783 -0.3318
vn -0.6417 0.6987 -0.3162
vn -0.7310 0.3662 0.5758
vn -0.3256 0.5583 0.7631
vn 0.5303 0.7388 0.4159
vn 0.7741 0.6322 -0.0338
vn 0.6683 0.3445 -0.6594
vn -0.5800 0.3895 -0.7154
vn -0.5945 0.4679 -0.6540
vn 0.1697 0.1034 0.9801
vn 0.5921 0.7180 0.3659
vn 0.4408 0.7371 0.5122
vn 0.9739 0.2231 -0.0417
vn 0.8337 -0.3536 -0.4241
vn 0.8349 -0.2916 -0.4668
vn -0.8474 -0.0664 0.5268
vn -0.8676 -0.4724 0.1552
vn -0.2089 -0.0459 0.9769
vn 0.2559 -0.6105 0.7496
vn 0.7890 0.2803 0.5467
vn -0.2652 -0.8146 0.5159
vn 0.6436 0.6121 0.4595
vn -0.8791 0.3823 0.2846
vn -0.8413 0.5146 0.1656
vn -0.6730 0.7144 0.1918
vn -0.5232 0.6513 -0.5495
vn 0.2945 0.6380 -0.7115
vn 0.0107 0.8794 -0.4759
vn 0.0356 0.8418 0.5387
vn -0.2970 0.5914 0.7497
vn -0.9764 0.1976 -0.0868
vn -0.9142 0.4051 0.0117
vn -0.9310 0.3632 0.0372
vn -0.7381 0.3772 0.5594
vn -0.0825 0.0462 0.9955
vn 0.3732 -0.1083 0.9214
vn 0.9520 0.3056 -0.0196
vn 0.8381 0.1837 -0.5137
vn 0.9249 0.3557 -0.1342
vn -0.8826 0.3764 0.2818
vn -0.2188 0.0104 0.9757
vn -0.2407 -0.1739 0.9549
vn 0.2739 -0.6934 0.6665
vn 0.7890 0.3768 0.4853
vn 0.3445 -0.9292 0.1341
vn 0.9733 -0.1663 0.1580
vn 0.3450 0.3228 -0.8814
vn 0.6514 0.3570 -0.6695
vn 0.5610 0.4420 -0.7000
vn -0.7868 -0.3788 -0.4873
vn -0.3563 0.5455 0.7586
vn -0.5193 0.3188 0.7929
vn -0.6469 0.5267 0.5514
vn 0.6666 0.1168 0.7362
vn 0.6061 0.0364 0.7946
vn 0.7623 -0.0224 -0.6468
vn -0.1774 0.5473 0.8179
vn 0.7753 -0.2056 0.5971
vn -0.5300 0.2892 0.7971
vn 0.0540 0.6628 -0.7468
vn 0.1233 0.7952 -0.5937
vn 0.0953 0.8571 -0.5063
vn 0.4609 0.5874 -0.6653
vn 0.7042 0.6629 0.2543
vn 0.3768 0.9040 -0.2021
vn -0.2899 0.9570 -0.0081
vn 0.4532 -0.0016 -0.8914
vn 0.2146 0.5125 -0.8314
vn 0.4827 0.0421 -0.8748
vn -0.6157 0.4342 -0.6576
vn -0.5606 -0.6961 -0.4486
vn -0.6068 0.1548 0.7796
vn -0.9187 0.3522 0.1789
vn -0.5183 0.2970 0.8020
vn 0.5123 0.1906 0.8374
vn 0.6277 0.3107 0.7138
vn 0.5614 0.3194 0.7634
vn 0.5775 0.7864 -0.2192
vn -0.2093 0.6087 -0.7652
vn 0.5858 0.6328 0.5064
vn 0.1893 -0.6847 -0.7038
vn -0.8164 0.2988 -0.4942
vn 0.8662 0.2571 0.4284
usemtl AllColors_Material
f 1/1/1 2/2/1 3/3/1
f 2/2/1 1/1/1 4/4/1
f 5/5/1 6/6/1 7/7/1
f 8/8/2 9/9/2 10/10/2
f 11/11/3 12/12/3 13/13/3
f 14/14/4 12/12/4 11/11/4
f 15/15/5 16/16/5 17/17/5
f 16/16/6 18/18/6 19/19/6
f 9/9/7 20/20/7 10/10/7
f 21/21/8 22/22/8 23/23/8
f 24/24/9 22/22/9 25/25/9
f 26/26/10 27/27/10 28/28/10
f 25/25/11 22/22/11 29/29/11
f 30/30/12 31/31/12 32/32/12
f 28/28/13 27/27/13 33/33/13
f 31/31/14 30/30/14 34/34/14
f 30/30/15 32/32/15 35/35/15
f 36/36/16 37/37/16 12/12/16
f 38/38/17 39/39/17 6/6/17
f 6/6/18 39/39/18 40/40/18
f 38/38/19 41/41/19 39/39/19
f 42/42/20 43/43/20 44/44/20
f 12/12/21 37/37/21 45/45/21
f 46/46/22 35/35/22 45/45/22
f 47/47/23 48/48/23 49/49/23
f 48/48/24 50/50/24 51/51/24
f 33/33/25 52/52/25 28/28/25
f 37/37/26 30/30/26 35/35/26
f 28/28/27 52/52/27 53/53/27
f 48/54/28 51/55/28 54/56/28 55/57/28
f 56/58/29 40/59/29 57/60/29 58/61/29
f 51/55/30 50/62/30 59/63/30 54/56/30
f 26/26/31 20/20/31 60/64/31 27/27/31
f 61/65/32 56/58/32 58/61/32 62/66/32
f 20/67/33 9/68/33 63/69/33 64/70/33
f 41/41/34 38/38/34 43/43/34
f 5/5/35 38/38/35 6/6/35
f 49/49/36 65/71/36 47/47/36
f 3/72/37 61/65/37 62/66/37 66/73/37
f 49/74/38 48/54/38 55/57/38 67/75/38
f 3/72/39 68/76/39 69/77/39 66/73/39
f 70/78/40 65/79/40 71/80/40 72/81/40
f 8/82/41 10/83/41 73/84/41 74/85/41
f 40/40/42 56/86/42 6/6/42
f 4/4/1 1/1/1 47/47/1
f 7/7/1 6/6/1 61/87/1
f 2/2/1 7/7/1 61/87/1
f 75/88/43 76/89/43 77/90/43 78/91/43
f 65/71/1 70/92/1 7/7/1
f 53/93/44 3/72/44 66/73/44 79/94/44
f 9/68/45 8/82/45 74/85/45 63/69/45
f 10/83/46 80/95/46 81/96/46 73/84/46
f 28/97/47 53/93/47 79/94/47 82/98/47
f 83/99/48 26/100/48 84/101/48 85/102/48
f 26/26/49 83/103/49 10/10/49
f 80/95/50 86/104/50 87/105/50 81/96/50
f 40/59/51 39/106/51 88/107/51 57/60/51
f 10/10/52 20/20/52 26/26/52
f 60/108/53 20/67/53 64/70/53 89/109/53
f 50/62/54 47/110/54 90/111/54 59/63/54
f 91/112/55 80/113/55 10/10/55 83/103/55
f 43/43/56 5/5/56 7/7/56 44/44/56
f 91/112/57 86/114/57 80/113/57
f 7/7/58 70/92/58 76/115/58 44/44/58
f 75/116/59 42/42/59 44/44/59 76/115/59
f 39/106/60 41/117/60 92/118/60 88/107/60
f 65/79/61 49/74/61 67/75/61 71/80/61
f 76/89/62 70/78/62 72/81/62 77/90/62
f 86/104/63 91/119/63 93/120/63 87/105/63
f 50/50/64 48/48/64 47/47/64
f 68/121/65 3/3/65 53/53/65 52/52/65
f 42/122/66 75/88/66 78/91/66 94/123/66
f 91/119/67 83/99/67 85/102/67 93/120/67
f 41/117/68 43/124/68 95/125/68 92/118/68
f 52/126/69 33/127/69 96/128/69 97/129/69
f 47/110/70 1/130/70 98/131/70 90/111/70
f 5/5/71 43/43/71 38/38/71
f 26/100/72 28/97/72 82/98/72 84/101/72
f 1/130/73 3/72/73 66/73/73 98/131/73
f 33/127/74 27/132/74 99/133/74 96/128/74
f 68/76/75 52/126/75 97/129/75 69/77/75
f 43/124/76 42/122/76 94/123/76 95/125/76
f 27/132/77 60/108/77 89/109/77 99/133/77
f 61/87/1 6/6/1 56/86/1
f 4/4/1 7/7/1 2/2/1
f 65/71/1 7/7/1 4/4/1
f 47/47/1 65/71/1 4/4/1
f 61/87/1 3/3/1 2/2/1
f 100/134/1 101/135/1 102/136/1
f 100/134/1 102/136/1 103/137/1
f 100/134/1 103/137/1 104/138/1
f 105/139/78 106/140/78 107/141/78
f 106/140/79 108/142/79 107/141/79
f 108/142/80 109/143/80 107/141/80
f 110/144/81 100/145/81 111/146/81 112/147/81
f 100/145/82 104/148/82 113/149/82 111/146/82
f 109/150/83 110/144/83 112/147/83 114/151/83
f 106/152/84 105/153/84 115/154/84 116/155/84
f 104/148/85 103/156/85 117/157/85 113/149/85
f 107/158/86 109/150/86 114/151/86 118/159/86
f 102/136/87 109/143/87 108/142/87
f 101/135/88 110/160/88 109/143/88
f 105/153/89 107/158/89 118/159/89 115/154/89
f 103/156/90 102/161/90 119/162/90 117/157/90
f 102/161/91 108/163/91 120/164/91 119/162/91
f 102/136/92 101/135/92 109/143/92
f 101/135/93 100/134/93 110/160/93
f 108/163/94 106/152/94 116/155/94 120/164/94
f 121/165/1 122/166/1 123/167/1
f 122/166/1 121/165/1 124/168/1
f 125/169/1 126/170/1 127/171/1
f 112/147/95 128/172/95 129/173/95
f 130/174/96 131/175/96 132/176/96
f 133/177/97 112/147/97 129/173/97
f 114/151/98 112/147/98 133/177/98
f 118/159/99 114/151/99 133/177/99
f 115/154/100 118/159/100 133/177/100
f 128/172/101 116/155/101 115/154/101
f 129/173/102 128/172/102 115/154/102
f 134/178/103 135/179/103 136/180/103
f 129/173/104 115/154/104 133/177/104
f 132/181/105 137/182/105 15/15/105 13/13/105
f 138/183/106 139/184/106 140/185/106 141/186/106
f 135/187/107 142/188/107 29/29/107 22/22/107
f 136/189/108 135/187/108 22/22/108 21/21/108
f 131/175/109 137/190/109 132/176/109
f 143/191/110 126/192/110 11/11/110 144/193/110
f 145/194/111 146/195/111 147/196/111 31/31/111
f 148/197/112 149/198/112 150/199/112 151/200/112
f 152/201/113 153/202/113 25/25/113 154/203/113
f 155/204/114 143/191/114 144/193/114 156/205/114
f 157/206/115 158/207/115 159/208/115 160/209/115
f 149/210/116 148/211/116 161/212/116
f 123/213/117 157/206/117 160/209/117 162/214/117
f 163/215/118 164/216/118 35/35/118 32/32/118
f 165/217/119 166/218/119 167/219/119 17/17/119
f 161/220/120 148/197/120 151/200/120 168/221/120
f 169/222/121 158/223/121 165/224/121
f 136/180/122 158/223/122 169/222/122
f 165/224/123 157/225/123 166/226/123
f 134/178/124 163/227/124 142/228/124 135/179/124
f 170/229/125 123/213/125 162/214/125 171/230/125
f 126/192/126 172/231/126 14/14/126 11/11/126
f 131/232/127 130/233/127 12/12/127 45/45/127
f 125/169/128 172/234/128 126/170/128
f 161/212/129 173/235/129 149/210/129
f 161/212/130 139/236/130 173/235/130
f 173/235/131 139/236/131 138/237/131
f 174/238/132 153/239/132 152/240/132
f 123/167/1 170/241/1 121/165/1
f 175/242/133 145/194/133 31/31/133 176/243/133
f 166/218/134 157/206/134 160/209/134 167/219/134
f 124/168/1 121/165/1 149/210/1
f 127/171/1 126/170/1 155/244/1
f 122/166/1 127/171/1 155/244/1
f 152/240/135 149/210/135 121/165/135
f 173/235/1 138/237/1 127/171/1
f 139/184/136 175/242/136 176/243/136 140/185/136
f 174/245/137 170/229/137 171/230/137 177/246/137
f 164/216/138 131/232/138 45/45/138 35/35/138
f 153/202/139 178/247/139 24/24/139 25/25/139
f 158/207/140 136/189/140 21/21/140 159/208/140
f 134/178/141 179/248/141 164/249/141
f 180/250/142 181/251/142 182/252/142 183/253/142
f 130/233/143 132/181/143 13/13/143 12/12/143
f 164/249/144 163/227/144 134/178/144
f 134/178/145 136/180/145 169/222/145 179/248/145
f 179/254/146 169/255/146 19/19/146 18/18/146
f 184/256/147 131/175/147 164/249/147 179/248/147
f 180/257/148 125/169/148 127/171/148 181/258/148
f 184/256/149 137/190/149 131/175/149
f 142/188/150 163/215/150 32/32/150 29/29/150
f 181/251/151 127/259/151 185/260/151 182/252/151
f 149/198/152 152/201/152 154/203/152 150/199/152
f 145/261/153 175/262/153 146/263/153
f 146/263/154 175/262/154 139/236/154
f 157/206/155 155/204/155 156/205/155 160/209/155
f 137/182/156 184/264/156 16/16/156 15/15/156
f 178/247/157 174/245/157 177/246/157 24/24/157
f 146/195/158 161/220/158 168/221/158 147/196/158
f 127/259/159 138/183/159 141/186/159 185/260/159
f 184/264/160 179/254/160 18/18/160 16/16/160
f 172/231/161 180/250/161 183/253/161 14/14/161
f 169/255/162 165/217/162 17/17/162 19/19/162
f 125/169/163 180/257/163 172/234/163
f 146/263/164 139/236/164 161/212/164
f 121/165/165 174/238/165 152/240/165
f 178/265/166 153/239/166 174/238/166
f 174/238/167 121/165/167 170/241/167
f 165/224/168 158/223/168 157/225/168
f 157/225/1 123/167/1 155/244/1
f 155/244/1 126/170/1 143/266/1
f 124/168/1 127/171/1 122/166/1
f 173/235/1 127/171/1 124/168/1
f 149/210/1 173/235/1 124/168/1
f 155/244/1 123/167/1 122/166/1
f 88/107/169 81/96/169 57/60/169
f 186/267/170 73/84/170 81/96/170
f 88/107/171 74/85/171 81/96/171
f 92/118/172 74/85/172 88/107/172
f 78/91/173 63/69/173 94/123/173
f 63/69/174 78/91/174 64/70/174
f 54/56/175 99/133/175 89/109/175
f 187/268/176 99/133/176 54/56/176
f 93/120/177 85/102/177 188/269/177
f 87/105/178 93/120/178 189/270/178
f 81/96/179 87/105/179 57/60/179
f 95/125/180 74/85/180 92/118/180
f 95/125/181 94/123/181 74/85/181
f 97/129/182 96/128/182 190/271/182
f 188/269/183 79/94/183 189/270/183
f 82/98/184 79/94/184 188/269/184
f 189/270/185 191/272/185 192/273/185
f 192/273/186 62/66/186 58/61/186
f 57/60/187 192/273/187 58/61/187
f 67/75/188 193/274/188 71/80/188
f 71/80/189 193/274/189 72/81/189
f 190/271/190 54/56/190 59/63/190
f 66/73/191 69/77/191 98/131/191
f 191/272/192 79/94/192 66/73/192
f 59/63/193 90/111/193 98/131/193
f 189/270/194 93/120/194 188/269/194
f 67/75/195 89/109/195 194/275/195
f 194/275/196 89/109/196 78/91/196
f 64/70/197 78/91/197 89/109/197
f 74/85/198 94/123/198 63/69/198
f 81/96/199 74/85/199 186/267/199
f 73/84/200 186/267/200 74/85/200
f 84/101/201 82/98/201 188/269/201 85/102/201
f 187/268/202 96/128/202 99/133/202
f 72/81/203 193/274/203 77/90/203
f 78/91/204 77/90/204 194/275/204
f 194/275/205 77/90/205 193/274/205
f 55/57/206 54/56/206 89/109/206 67/75/206
f 190/271/207 96/128/207 187/268/207
f 69/77/208 97/129/208 190/271/208
f 192/273/209 191/272/209 62/66/209
f 87/105/210 192/273/210 57/60/210
f 189/270/211 192/273/211 87/105/211
f 194/275/212 193/274/212 67/75/212
f 98/131/213 190/271/213 59/63/213
f 187/268/214 54/56/214 190/271/214
f 190/271/215 98/131/215 69/77/215
f 189/270/216 79/94/216 191/272/216
f 191/272/217 66/73/217 62/66/217
f 14/14/218 36/36/218 12/12/218
f 34/34/219 183/253/219 182/252/219
f 183/253/220 37/37/220 36/36/220
f 183/253/221 34/34/221 37/37/221
f 151/200/222 154/203/222 25/25/222
f 23/23/223 195/276/223 21/21/223
f 195/276/224 23/23/224 177/246/224
f 21/21/225 195/276/225 159/208/225
f 167/219/226 156/205/226 144/193/226
f 13/13/227 167/219/227 144/193/227
f 36/36/228 14/14/228 183/253/228
f 160/209/229 159/208/229 162/214/229
f 13/13/230 144/193/230 11/11/230
f 17/17/231 16/16/231 19/19/231
f 168/221/232 29/29/232 147/196/232
f 147/196/233 29/29/233 31/31/233
f 32/32/234 31/31/234 29/29/234
f 37/37/235 34/34/235 30/30/235
f 45/45/236 37/37/236 46/46/236
f 35/35/237 46/46/237 37/37/237
f 24/24/238 23/23/238 22/22/238
f 185/260/239 141/186/239 176/243/239 182/252/239
f 31/31/240 34/34/240 182/252/240 176/243/240
f 141/186/241 140/185/241 176/243/241
f 151/200/242 25/25/242 29/29/242 168/221/242
f 154/203/243 151/200/243 150/199/243
f 171/230/244 162/214/244 159/208/244 195/276/244
f 177/246/245 23/23/245 24/24/245
f 171/230/246 195/276/246 177/246/246
f 167/219/247 160/209/247 156/205/247
f 15/15/248 167/219/248 13/13/248
f 17/17/249 167/219/249 15/15/249
f 113/149/250 116/155/250 128/172/250
f 117/157/251 120/164/251 116/155/251
f 111/146/252 128/172/252 112/147/252
f 113/149/253 117/157/253 116/155/253
f 117/157/254 119/162/254 120/164/254
f 111/146/255 113/149/255 128/172/255
