mtllib forest_nature_set_all_in.mtl
o forest_Tree_Spruce_small_01_Cylinder_016
v 11.080163 0.787547 0.721903
v 11.080590 2.505755 0.901939
v 11.675409 2.505755 1.292837
v 11.860708 0.696909 1.030125
v 11.893564 2.505755 1.787581
v 12.137968 0.592623 1.734697
v 11.600505 2.505755 2.315199
v 11.859723 0.649809 2.511681
v 11.086239 2.505755 2.460266
v 11.143564 0.677119 2.864490
v 10.502636 2.505755 2.202714
v 10.356814 0.801769 2.478803
v 10.315672 2.505755 1.738332
v 10.130748 1.071762 1.769773
v 10.522217 2.505755 1.200932
v 10.302218 0.939868 1.027593
v 10.215559 0.015368 2.867778
v 9.511326 0.000000 1.919670
v 10.032747 0.016969 0.873239
v 11.116364 0.001317 0.284573
v 11.087154 0.006111 3.109653
v 12.248498 0.000000 2.938643
v 12.368228 0.002634 1.759717
v 12.117669 0.013199 0.787305
v 11.363898 7.010739 1.380076
v 11.539251 7.010739 1.777750
v 10.890325 7.010739 2.318454
v 10.421226 7.010739 2.111434
v 10.436964 7.010739 1.306204
v 10.885784 7.010739 1.065873
v 11.303691 7.010739 2.201849
v 10.270945 7.010739 1.738165
v 11.061302 9.608961 2.244797
v 10.651677 9.608961 2.064023
v 11.627956 9.608961 1.772645
v 11.422261 9.608961 2.142975
v 11.057338 9.608961 1.151021
v 11.474835 9.608961 1.425389
v 10.665421 9.608961 1.360882
v 10.520449 9.608961 1.738078
v 10.625267 11.913836 1.737934
v 10.735516 11.913836 1.451082
v 11.036578 11.913836 2.123286
v 10.725064 11.913836 1.985811
v 11.467510 11.913836 1.764222
v 11.311082 11.913836 2.045852
v 11.033564 11.913836 1.291486
v 11.351065 11.913836 1.500139
v 10.875270 13.778689 1.924369
v 10.800164 13.778689 1.737821
v 11.316298 13.778689 1.969555
v 11.109710 13.778689 2.027831
v 11.346387 13.778689 1.558860
v 11.434023 13.778689 1.757605
v 10.883136 13.778689 1.521941
v 11.107441 13.778689 1.401831
v 11.157951 16.879791 1.737477
v 10.893280 4.936827 -3.404434
v 10.811886 9.201357 0.669595
v 11.838614 9.559946 0.767775
v 14.694663 4.218381 -1.767405
v 12.128576 9.407199 1.836711
v 16.153643 5.016200 1.787664
v 11.794018 9.469029 2.826116
v 14.351055 4.295047 5.260509
v 10.815932 9.222383 3.002776
v 10.976635 4.722429 6.856546
v 9.908579 9.303744 2.742419
v 7.452091 3.838278 5.286304
v 9.497454 9.317289 1.832468
v 5.576475 4.782670 1.807812
v 9.915113 9.321651 0.904729
v 7.294209 4.032656 -2.047515
v 10.905163 4.538516 -2.974055
v 14.432061 3.786446 -1.460875
v 11.573042 9.127915 1.071625
v 10.823376 8.803064 1.100008
v 15.732141 4.608407 1.748037
v 11.707059 8.999368 1.797699
v 14.073191 3.901724 4.926850
v 11.513371 9.075553 2.494931
v 10.979315 4.340490 6.414233
v 10.817640 8.840463 2.560446
v 7.737298 3.442404 4.961368
v 10.193991 8.907870 2.417655
v 6.001562 4.378571 1.777046
v 9.922540 8.913190 1.801942
v 7.567141 3.601387 -1.749367
v 10.187122 8.890363 1.203696
v 10.879523 8.047374 -2.092234
v 10.940180 12.131866 0.710708
v 11.791366 12.182327 0.984739
v 13.559645 8.702781 -0.885422
v 12.017180 12.064045 1.830577
v 14.713188 8.072754 1.829881
v 11.726871 12.099952 2.600729
v 13.584622 8.595366 4.393680
v 10.954504 12.089947 2.886356
v 10.972972 8.051560 5.665036
v 10.142100 12.186461 2.627018
v 8.376162 8.677518 4.652500
v 9.898464 12.102331 1.815382
v 7.023778 7.865182 1.803478
v 10.151642 12.159019 1.031534
v 8.259256 8.549295 -0.821747
v 10.875620 11.571195 -1.139107
v 10.930160 14.361751 0.863031
v 11.507085 14.250103 1.245624
v 13.220713 11.244316 -0.397429
v 11.833916 14.371716 1.810352
v 14.020457 11.921183 1.837680
v 11.592221 14.384105 2.498334
v 13.264874 11.167036 4.185955
v 10.923847 14.333179 2.768532
v 11.116199 11.449960 4.800814
v 10.286136 14.265605 2.463658
v 8.743261 10.816047 4.184649
v 10.003090 14.264134 1.818205
v 8.076015 11.300944 1.871118
v 10.321265 14.217031 1.221983
v 8.753941 10.852952 -0.325382
v 10.916779 13.922008 -0.200190
v 10.938533 15.295326 0.859957
v 11.705375 15.387584 1.052873
v 12.143978 14.102304 0.554515
v 11.963250 15.162656 1.819139
v 13.017950 13.770941 1.815143
v 11.731749 15.364036 2.605440
v 12.237000 14.092908 3.136806
v 10.930171 15.305131 2.912456
v 10.963758 13.840386 3.908455
v 10.187318 15.261957 2.602838
v 9.570490 14.358571 3.220530
v 9.727772 15.463615 1.828804
v 8.800266 14.056408 1.824423
v 10.208972 15.444634 1.041111
v 9.654284 14.255610 0.450416
v 10.979991 18.255520 1.821550
v 10.883297 7.656068 -1.656562
v 13.236434 8.317910 -0.586489
v 11.469247 11.797421 1.284834
v 10.944517 11.740559 1.146362
v 14.266418 7.697878 1.811135
v 11.570395 11.689172 1.812394
v 13.263784 8.217654 4.084980
v 11.406528 11.722222 2.291552
v 10.945587 7.660730 5.229859
v 10.928553 11.699058 2.451145
v 8.670024 8.268926 4.348616
v 10.436390 11.777847 2.323577
v 7.450179 7.461616 1.815890
v 10.324882 11.698744 1.827589
v 8.565958 8.153211 -0.517248
v 10.458292 11.762934 1.336084
v 10.887298 11.169055 -0.711597
v 12.931289 10.842577 -0.082140
v 11.216842 13.848268 1.560042
v 10.940130 13.959515 1.290524
v 13.616285 11.491037 1.866124
v 11.429625 13.941569 1.837054
v 12.986719 10.755967 3.870205
v 11.312854 13.972901 2.183796
v 11.143380 11.065108 4.361369
v 10.948296 13.948215 2.329018
v 9.072824 10.441667 3.881943
v 10.614332 13.891171 2.159552
v 8.529118 10.935303 1.883069
v 10.456228 13.898514 1.829200
v 9.091015 10.484359 -0.025253
v 10.657213 13.848365 1.523307
v 10.880498 13.556539 0.251736
v 11.816772 13.750887 0.880970
v 11.354249 15.105293 1.407243
v 10.919888 15.008353 1.356324
v 12.561381 13.411145 1.834982
v 11.468419 14.872122 1.834232
v 11.906617 13.726068 2.827646
v 11.363123 15.071770 2.276236
v 10.940095 13.460773 3.465169
v 10.931776 15.000566 2.424233
v 9.844514 13.955915 2.892675
v 10.488829 14.938221 2.231668
v 9.229707 13.656704 1.831935
v 10.199127 15.127732 1.820967
v 9.929110 13.876568 0.799544
v 10.490678 15.143572 1.441988
v 10.961553 17.632053 1.826518
vt 0.554283 0.553348
vt 0.554284 0.597813
vt 0.555935 0.597813
vt 0.556449 0.551002
vt 0.556540 0.597813
vt 0.557218 0.548303
vt 0.555727 0.597813
vt 0.556446 0.549783
vt 0.554300 0.597813
vt 0.554459 0.550490
vt 0.552680 0.597813
vt 0.552275 0.553715
vt 0.552161 0.597813
vt 0.551648 0.560703
vt 0.552734 0.597813
vt 0.552124 0.557290
vt 0.551883 0.533364
vt 0.549929 0.532967
vt 0.551376 0.533406
vt 0.554383 0.533000
vt 0.554302 0.533125
vt 0.557525 0.532967
vt 0.557857 0.533035
vt 0.557162 0.533308
vt 0.555070 0.714399
vt 0.555557 0.714399
vt 0.553756 0.714399
vt 0.552454 0.714399
vt 0.552498 0.714399
vt 0.553743 0.714399
vt 0.554903 0.714399
vt 0.552037 0.714399
vt 0.554230 0.781639
vt 0.553094 0.781639
vt 0.555803 0.781639
vt 0.555232 0.781639
vt 0.554219 0.781639
vt 0.555378 0.781639
vt 0.553132 0.781639
vt 0.552729 0.781639
vt 0.553020 0.841287
vt 0.553326 0.841287
vt 0.554162 0.841287
vt 0.553297 0.841287
vt 0.555358 0.841287
vt 0.554924 0.841287
vt 0.554154 0.841287
vt 0.555035 0.841287
vt 0.553714 0.889548
vt 0.553506 0.889548
vt 0.554938 0.889548
vt 0.554365 0.889548
vt 0.555022 0.889548
vt 0.555265 0.889548
vt 0.553736 0.889548
vt 0.554358 0.889548
vt 0.554499 0.969801
vt 0.150753 0.572263
vt 0.150078 0.767170
vt 0.154746 0.768406
vt 0.170259 0.577425
vt 0.156680 0.768917
vt 0.178338 0.579563
vt 0.154746 0.768406
vt 0.170259 0.577425
vt 0.150078 0.767170
vt 0.150753 0.572263
vt 0.145410 0.765935
vt 0.131247 0.567102
vt 0.143476 0.765423
vt 0.123167 0.564963
vt 0.145410 0.765935
vt 0.131247 0.567102
vt 0.150753 0.572263
vt 0.170259 0.577425
vt 0.154746 0.768406
vt 0.150078 0.767170
vt 0.178338 0.579563
vt 0.156680 0.768917
vt 0.170259 0.577425
vt 0.154746 0.768406
vt 0.150753 0.572263
vt 0.150078 0.767170
vt 0.131247 0.567102
vt 0.145410 0.765935
vt 0.123167 0.564963
vt 0.143476 0.765423
vt 0.131247 0.567102
vt 0.145410 0.765935
vt 0.151355 0.579084
vt 0.151813 0.773782
vt 0.156476 0.772943
vt 0.170839 0.575579
vt 0.158407 0.772596
vt 0.178910 0.574126
vt 0.156476 0.772943
vt 0.170839 0.575579
vt 0.151813 0.773782
vt 0.151355 0.579085
vt 0.147149 0.774621
vt 0.131870 0.582590
vt 0.145218 0.774969
vt 0.123799 0.584042
vt 0.147149 0.774621
vt 0.131870 0.582590
vt 0.150749 0.576648
vt 0.149812 0.745141
vt 0.153848 0.746857
vt 0.167612 0.583820
vt 0.155519 0.747569
vt 0.174596 0.586791
vt 0.153848 0.746857
vt 0.167612 0.583820
vt 0.149812 0.745141
vt 0.150749 0.576648
vt 0.145777 0.743424
vt 0.133887 0.569476
vt 0.144105 0.742714
vt 0.126902 0.566505
vt 0.145777 0.743424
vt 0.133887 0.569476
vt 0.150197 0.533765
vt 0.150715 0.688820
vt 0.159192 0.689418
vt 0.169799 0.525351
vt 0.163844 0.673516
vt 0.177918 0.521866
vt 0.159385 0.685965
vt 0.169799 0.525351
vt 0.150695 0.682957
vt 0.150197 0.533765
vt 0.141190 0.680356
vt 0.130595 0.542178
vt 0.137902 0.688927
vt 0.122476 0.545663
vt 0.142196 0.695601
vt 0.130595 0.542178
vt 0.151296 0.970220
vt 0.151355 0.579084
vt 0.170839 0.575579
vt 0.156476 0.772943
vt 0.151813 0.773782
vt 0.178910 0.574126
vt 0.158407 0.772596
vt 0.170839 0.575579
vt 0.156476 0.772943
vt 0.151355 0.579085
vt 0.151813 0.773782
vt 0.131870 0.582590
vt 0.147149 0.774621
vt 0.123799 0.584042
vt 0.145218 0.774969
vt 0.131870 0.582590
vt 0.147149 0.774621
vt 0.150749 0.576648
vt 0.167612 0.583820
vt 0.153848 0.746857
vt 0.149812 0.745141
vt 0.174596 0.586791
vt 0.155519 0.747569
vt 0.167612 0.583820
vt 0.153848 0.746857
vt 0.150749 0.576648
vt 0.149812 0.745141
vt 0.133887 0.569476
vt 0.145777 0.743424
vt 0.126902 0.566505
vt 0.144105 0.742714
vt 0.133887 0.569476
vt 0.145777 0.743424
vt 0.150197 0.533765
vt 0.169799 0.525351
vt 0.159192 0.689418
vt 0.150715 0.688820
vt 0.177918 0.521866
vt 0.163844 0.673516
vt 0.169799 0.525351
vt 0.159385 0.685965
vt 0.150197 0.533765
vt 0.150695 0.682957
vt 0.130595 0.542178
vt 0.141190 0.680356
vt 0.122476 0.545663
vt 0.137902 0.688927
vt 0.130595 0.542178
vt 0.142196 0.695601
vt 0.151296 0.970220
vn 0.4560 0.1343 -0.8798
vn 0.9196 0.1374 -0.3679
vn 0.9096 0.1365 0.3924
vn 0.3724 0.1804 0.9104
vn -0.4041 0.1827 0.8963
vn -0.9250 0.1324 0.3561
vn -0.9453 0.1415 -0.2939
vn -0.3972 0.1245 -0.9092
vn 0.0261 -0.9997 -0.0032
vn -0.3802 0.3485 -0.8568
vn -0.8536 0.3812 -0.3552
vn -0.7484 0.4482 0.4890
vn -0.2926 0.4146 0.8617
vn 0.2426 0.4878 0.8386
vn 0.8583 0.4873 0.1610
vn 0.8883 0.3831 -0.2533
vn 0.3864 0.4497 -0.8053
vn -0.0008 -0.9997 0.0252
vn -0.0022 -0.9999 -0.0103
vn -0.0057 -1.0000 -0.0028
vn -0.0052 -1.0000 -0.0024
vn -0.0107 -0.9999 0.0002
vn 0.9127 0.0709 -0.4024
vn -0.4037 0.0112 0.9148
vn -0.4720 0.0117 -0.8815
vn 0.5484 0.0541 -0.8345
vn 0.8721 0.0696 0.4844
vn -0.9276 -0.0092 0.3735
vn 0.2713 0.0421 0.9616
vn -0.9334 -0.0093 -0.3587
vn -0.4032 0.0524 0.9136
vn 0.8738 -0.0289 0.4854
vn 0.5492 -0.0089 -0.8357
vn -0.4712 0.0600 -0.8800
vn -0.9240 0.0887 0.3720
vn 0.2715 0.0094 0.9624
vn 0.9145 -0.0320 -0.4033
vn -0.9297 0.0893 -0.3573
vn -0.9326 0.0424 -0.3584
vn -0.4034 0.0439 0.9140
vn 0.8725 0.0625 0.4846
vn 0.5483 0.0565 -0.8344
vn -0.4715 0.0488 -0.8805
vn -0.9268 0.0422 0.3731
vn 0.2711 0.0536 0.9611
vn 0.9132 0.0621 -0.4027
vn -0.9241 0.0867 0.3721
vn 0.2713 0.0386 0.9617
vn 0.9149 0.0150 -0.4034
vn -0.9299 0.0872 -0.3574
vn -0.4030 0.0625 0.9131
vn 0.8741 0.0174 0.4855
vn 0.5490 0.0277 -0.8354
vn -0.4709 0.0707 -0.8794
vn 0.5474 0.0812 -0.8329
vn -0.4696 0.1026 -0.8769
vn -0.9224 0.1065 0.3714
vn 0.2705 0.0856 0.9589
vn 0.9122 0.0786 -0.4022
vn -0.9281 0.1070 -0.3567
vn -0.4021 0.0916 0.9110
vn 0.8713 0.0807 0.4840
vn 0.3095 0.6014 -0.7365
vn 0.7164 0.6007 -0.3548
vn 0.6956 0.5833 0.4194
vn 0.3283 0.5779 0.7472
vn -0.4011 0.5585 0.7261
vn -0.6819 0.5549 0.4765
vn -0.7000 0.5887 -0.4043
vn -0.3565 0.6132 -0.7049
vn -0.3150 -0.6014 0.7342
vn -0.7116 -0.6002 0.3651
vn -0.6923 -0.5827 -0.4257
vn -0.3359 -0.5778 -0.7439
vn 0.4163 -0.5571 -0.7185
vn 0.6724 -0.5528 -0.4922
vn 0.6911 -0.5877 0.4207
vn 0.3653 -0.6126 0.7009
vn 0.1688 -0.6823 -0.7113
vn -0.2889 0.6823 0.6716
vn 0.7435 -0.6524 -0.1470
vn -0.7021 0.6593 0.2691
vn 0.6868 -0.6965 0.2079
vn -0.6614 0.7018 -0.2646
vn 0.2132 -0.7279 0.6517
vn -0.2985 0.7257 -0.6198
vn -0.1167 -0.7190 0.6851
vn 0.2404 0.7251 -0.6453
vn -0.6945 -0.6966 0.1798
vn 0.6514 0.7041 -0.2827
vn -0.7243 -0.6643 -0.1847
vn 0.6838 0.6662 0.2976
vn -0.0933 -0.6749 -0.7320
vn 0.2444 0.6860 0.6853
vn 0.2278 0.5485 -0.8046
vn 0.8173 0.5393 -0.2032
vn 0.8001 0.5456 0.2491
vn 0.2742 0.5474 0.7907
vn -0.1838 0.5578 0.8094
vn -0.8104 0.5428 0.2204
vn -0.8055 0.5448 -0.2333
vn -0.2824 0.5481 -0.7873
vn 0.3684 0.5682 -0.7358
vn 0.6640 0.6048 -0.4397
vn 0.7079 0.5965 0.3782
vn 0.2898 0.5613 0.7752
vn -0.3586 0.5314 0.7675
vn -0.7859 0.5185 0.3371
vn -0.7746 0.5146 -0.3675
vn -0.4705 0.5306 -0.7051
vn 0.3089 0.5166 -0.7986
vn 0.8043 0.5069 -0.3100
vn 0.8103 0.5259 0.2586
vn 0.3358 0.5087 0.7928
vn -0.2322 0.5861 0.7762
vn -0.7190 0.5816 0.3805
vn -0.7450 0.5208 -0.4167
vn -0.1990 0.5620 -0.8028
vn -0.1698 0.3066 -0.9366
vn -0.3797 0.3265 0.8656
vn 0.9284 0.2953 -0.2257
vn -0.7651 0.3446 0.5440
vn 0.9340 0.2968 0.1990
vn -0.7940 0.3548 -0.4936
vn 0.3175 0.3241 0.8911
vn 0.1986 0.3003 -0.9330
vn -0.2041 -0.5475 0.8115
vn -0.8227 -0.5377 0.1843
vn -0.8058 -0.5449 -0.2320
vn -0.2581 -0.5469 -0.7964
vn 0.1593 -0.5561 -0.8157
vn 0.8165 -0.5413 -0.2005
vn 0.8116 -0.5438 0.2134
vn 0.2733 -0.5479 0.7907
vn -0.3883 -0.5677 0.7259
vn -0.6505 -0.6020 0.4631
vn -0.6969 -0.5956 -0.3995
vn -0.2951 -0.5616 -0.7729
vn 0.3576 -0.5314 -0.7680
vn 0.7813 -0.5187 -0.3470
vn 0.7683 -0.5142 0.3811
vn 0.5042 -0.5272 0.6840
vn -0.2916 -0.5131 0.8073
vn -0.8117 -0.5037 0.2958
vn -0.8160 -0.5239 -0.2444
vn -0.3279 -0.5037 -0.7992
vn 0.2241 -0.5833 -0.7807
vn 0.7138 -0.5779 -0.3957
vn 0.7401 -0.5139 0.4338
vn 0.1859 -0.5599 0.8074
vn 0.1388 -0.1768 0.9744
vn 0.4144 -0.2060 -0.8865
vn -0.9706 -0.1778 0.1624
vn 0.7442 -0.2252 -0.6289
vn -0.9722 -0.1790 -0.1508
vn 0.7747 -0.2372 0.5861
vn -0.2863 -0.2091 -0.9350
vn -0.0761 -0.1747 0.9817
vn 0.4368 -0.7066 -0.5567
vn -0.2507 0.7181 0.6493
vn 0.5584 -0.7187 -0.4142
vn -0.6250 0.7326 0.2696
vn 0.5490 -0.7339 0.4000
vn -0.6154 0.7424 -0.2647
vn 0.4280 -0.7212 0.5447
vn -0.2466 0.7293 -0.6383
vn -0.4074 -0.6895 0.5989
vn 0.2879 0.7002 -0.6533
vn -0.5675 -0.6733 0.4739
vn 0.6707 0.6914 -0.2685
vn -0.5581 -0.6927 -0.4568
vn 0.6559 0.7065 0.2658
vn -0.4215 -0.7038 -0.5719
vn 0.2841 0.7139 0.6400
vn 0.1179 -0.6956 -0.7087
vn -0.3083 0.7009 0.6432
vn 0.7542 -0.6538 -0.0605
vn -0.6840 0.6796 0.2650
vn 0.7716 -0.6355 0.0281
vn -0.6998 0.6612 -0.2704
vn 0.0922 -0.7005 0.7077
vn -0.3087 0.7043 -0.6393
vn 0.0191 -0.6943 0.7194
vn 0.2203 0.7328 -0.6438
vn -0.6818 -0.7311 0.0256
vn 0.6069 0.7476 -0.2699
vn -0.6714 -0.7399 -0.0408
vn 0.5993 0.7560 0.2634
vn -0.0278 -0.6928 -0.7206
vn 0.2275 0.7209 0.6546
vn 0.4421 -0.7531 -0.4872
vn 0.4270 -0.7302 -0.5333
vn 0.4825 -0.7207 0.4977
vn 0.4788 -0.7255 0.4944
vn -0.5333 -0.6743 0.5109
vn -0.5560 -0.6789 0.4796
vn -0.5375 -0.7008 -0.4690
vn -0.4864 -0.7075 -0.5127
usemtl AllColors_Material
f 1/1/1 2/2/1 3/3/1 4/4/1
f 4/4/2 3/3/2 5/5/2 6/6/2
f 6/6/3 5/5/3 7/7/3 8/8/3
f 8/8/4 7/7/4 9/9/4 10/10/4
f 10/10/5 9/9/5 11/11/5 12/12/5
f 12/12/6 11/11/6 13/13/6 14/14/6
f 14/14/7 13/13/7 15/15/7 16/16/7
f 16/16/8 15/15/8 2/2/8 1/1/8
f 17/17/9 18/18/9 19/19/9
f 19/19/10 16/16/10 1/1/10 20/20/10
f 18/18/11 14/14/11 16/16/11 19/19/11
f 17/17/12 12/12/12 14/14/12 18/18/12
f 21/21/13 10/10/13 12/12/13 17/17/13
f 22/22/14 8/8/14 10/10/14 21/21/14
f 23/23/15 6/6/15 8/8/15 22/22/15
f 24/24/16 4/4/16 6/6/16 23/23/16
f 20/20/17 1/1/17 4/4/17 24/24/17
f 19/19/18 20/20/18 24/24/18
f 24/24/19 23/23/19 19/19/19
f 23/23/20 22/22/20 21/21/20
f 19/19/21 23/23/21 21/21/21
f 21/21/22 17/17/22 19/19/22
f 5/5/23 3/3/23 25/25/23 26/26/23
f 11/11/24 9/9/24 27/27/24 28/28/24
f 2/2/25 15/15/25 29/29/25 30/30/25
f 3/3/26 2/2/26 30/30/26 25/25/26
f 7/7/27 5/5/27 26/26/27 31/31/27
f 13/13/28 11/11/28 28/28/28 32/32/28
f 9/9/29 7/7/29 31/31/29 27/27/29
f 15/15/30 13/13/30 32/32/30 29/29/30
f 28/28/31 27/27/31 33/33/31 34/34/31
f 31/31/32 26/26/32 35/35/32 36/36/32
f 25/25/33 30/30/33 37/37/33 38/38/33
f 30/30/34 29/29/34 39/39/34 37/37/34
f 32/32/35 28/28/35 34/34/35 40/40/35
f 27/27/36 31/31/36 36/36/36 33/33/36
f 26/26/37 25/25/37 38/38/37 35/35/37
f 29/29/38 32/32/38 40/40/38 39/39/38
f 39/39/39 40/40/39 41/41/39 42/42/39
f 34/34/40 33/33/40 43/43/40 44/44/40
f 36/36/41 35/35/41 45/45/41 46/46/41
f 38/38/42 37/37/42 47/47/42 48/48/42
f 37/37/43 39/39/43 42/42/43 47/47/43
f 40/40/44 34/34/44 44/44/44 41/41/44
f 33/33/45 36/36/45 46/46/45 43/43/45
f 35/35/46 38/38/46 48/48/46 45/45/46
f 41/41/47 44/44/47 49/49/47 50/50/47
f 43/43/48 46/46/48 51/51/48 52/52/48
f 45/45/49 48/48/49 53/53/49 54/54/49
f 42/42/50 41/41/50 50/50/50 55/55/50
f 44/44/51 43/43/51 52/52/51 49/49/51
f 46/46/52 45/45/52 54/54/52 51/51/52
f 48/48/53 47/47/53 56/56/53 53/53/53
f 47/47/54 42/42/54 55/55/54 56/56/54
f 53/53/55 56/56/55 57/57/55
f 56/56/56 55/55/56 57/57/56
f 50/50/57 49/49/57 57/57/57
f 52/52/58 51/51/58 57/57/58
f 54/54/59 53/53/59 57/57/59
f 55/55/60 50/50/60 57/57/60
f 49/49/61 52/52/61 57/57/61
f 51/51/62 54/54/62 57/57/62
f 58/58/63 59/59/63 60/60/63 61/61/63
f 61/61/64 60/60/64 62/62/64 63/63/64
f 63/63/65 62/62/65 64/64/65 65/65/65
f 65/65/66 64/64/66 66/66/66 67/67/66
f 67/67/67 66/66/67 68/68/67 69/69/67
f 69/69/68 68/68/68 70/70/68 71/71/68
f 71/71/69 70/70/69 72/72/69 73/73/69
f 73/73/70 72/72/70 59/59/70 58/58/70
f 74/74/71 75/75/71 76/76/71 77/77/71
f 75/75/72 78/78/72 79/79/72 76/76/72
f 78/78/73 80/80/73 81/81/73 79/79/73
f 80/80/74 82/82/74 83/83/74 81/81/74
f 82/82/75 84/84/75 85/85/75 83/83/75
f 84/84/76 86/86/76 87/87/76 85/85/76
f 86/86/77 88/88/77 89/89/77 87/87/77
f 88/88/78 74/74/78 77/77/78 89/89/78
f 58/58/79 61/61/79 75/75/79 74/74/79
f 60/60/80 59/59/80 77/77/80 76/76/80
f 61/61/81 63/63/81 78/78/81 75/75/81
f 62/62/82 60/60/82 76/76/82 79/79/82
f 63/63/83 65/65/83 80/80/83 78/78/83
f 64/64/84 62/62/84 79/79/84 81/81/84
f 65/65/85 67/67/85 82/82/85 80/80/85
f 66/66/86 64/64/86 81/81/86 83/83/86
f 67/67/87 69/69/87 84/84/87 82/82/87
f 68/68/88 66/66/88 83/83/88 85/85/88
f 69/69/89 71/71/89 86/86/89 84/84/89
f 70/70/90 68/68/90 85/85/90 87/87/90
f 71/71/91 73/73/91 88/88/91 86/86/91
f 72/72/92 70/70/92 87/87/92 89/89/92
f 73/73/93 58/58/93 74/74/93 88/88/93
f 59/59/94 72/72/94 89/89/94 77/77/94
f 90/90/95 91/91/95 92/92/95 93/93/95
f 93/93/96 92/92/96 94/94/96 95/95/96
f 95/95/97 94/94/97 96/96/97 97/97/97
f 97/97/98 96/96/98 98/98/98 99/99/98
f 99/99/99 98/98/99 100/100/99 101/101/99
f 101/101/100 100/100/100 102/102/100 103/103/100
f 103/103/101 102/102/101 104/104/101 105/105/101
f 105/105/102 104/104/102 91/91/102 90/90/102
f 106/106/103 107/107/103 108/108/103 109/109/103
f 109/109/104 108/108/104 110/110/104 111/111/104
f 111/111/105 110/110/105 112/112/105 113/113/105
f 113/113/106 112/112/106 114/114/106 115/115/106
f 115/115/107 114/114/107 116/116/107 117/117/107
f 117/117/108 116/116/108 118/118/108 119/119/108
f 119/119/109 118/118/109 120/120/109 121/121/109
f 121/121/110 120/120/110 107/107/110 106/106/110
f 122/122/111 123/123/111 124/124/111 125/125/111
f 125/125/112 124/124/112 126/126/112 127/127/112
f 127/127/113 126/126/113 128/128/113 129/129/113
f 129/129/114 128/128/114 130/130/114 131/131/114
f 131/131/115 130/130/115 132/132/115 133/133/115
f 133/133/116 132/132/116 134/134/116 135/135/116
f 135/135/117 134/134/117 136/136/117 137/137/117
f 137/137/118 136/136/118 123/123/118 122/122/118
f 123/123/119 136/136/119 138/138/119
f 132/132/120 130/130/120 138/138/120
f 126/126/121 124/124/121 138/138/121
f 134/134/122 132/132/122 138/138/122
f 128/128/123 126/126/123 138/138/123
f 136/136/124 134/134/124 138/138/124
f 130/130/125 128/128/125 138/138/125
f 124/124/126 123/123/126 138/138/126
f 139/139/127 140/140/127 141/141/127 142/142/127
f 140/140/128 143/143/128 144/144/128 141/141/128
f 143/143/129 145/145/129 146/146/129 144/144/129
f 145/145/130 147/147/130 148/148/130 146/146/130
f 147/147/131 149/149/131 150/150/131 148/148/131
f 149/149/132 151/151/132 152/152/132 150/150/132
f 151/151/133 153/153/133 154/154/133 152/152/133
f 153/153/134 139/139/134 142/142/134 154/154/134
f 155/155/135 156/156/135 157/157/135 158/158/135
f 156/156/136 159/159/136 160/160/136 157/157/136
f 159/159/137 161/161/137 162/162/137 160/160/137
f 161/161/138 163/163/138 164/164/138 162/162/138
f 163/163/139 165/165/139 166/166/139 164/164/139
f 165/165/140 167/167/140 168/168/140 166/166/140
f 167/167/141 169/169/141 170/170/141 168/168/141
f 169/169/142 155/155/142 158/158/142 170/170/142
f 171/171/143 172/172/143 173/173/143 174/174/143
f 172/172/144 175/175/144 176/176/144 173/173/144
f 175/175/145 177/177/145 178/178/145 176/176/145
f 177/177/146 179/179/146 180/180/146 178/178/146
f 179/179/147 181/181/147 182/182/147 180/180/147
f 181/181/148 183/183/148 184/184/148 182/182/148
f 183/183/149 185/185/149 186/186/149 184/184/149
f 185/185/150 171/171/150 174/174/150 186/186/150
f 174/174/151 187/187/151 186/186/151
f 182/182/152 187/187/152 180/180/152
f 176/176/153 187/187/153 173/173/153
f 184/184/154 187/187/154 182/182/154
f 178/178/155 187/187/155 176/176/155
f 186/186/156 187/187/156 184/184/156
f 180/180/157 187/187/157 178/178/157
f 173/173/158 187/187/158 174/174/158
f 90/90/159 93/93/159 140/140/159 139/139/159
f 92/92/160 91/91/160 142/142/160 141/141/160
f 93/93/161 95/95/161 143/143/161 140/140/161
f 94/94/162 92/92/162 141/141/162 144/144/162
f 95/95/163 97/97/163 145/145/163 143/143/163
f 96/96/164 94/94/164 144/144/164 146/146/164
f 97/97/165 99/99/165 147/147/165 145/145/165
f 98/98/166 96/96/166 146/146/166 148/148/166
f 99/99/167 101/101/167 149/149/167 147/147/167
f 100/100/168 98/98/168 148/148/168 150/150/168
f 101/101/169 103/103/169 151/151/169 149/149/169
f 102/102/170 100/100/170 150/150/170 152/152/170
f 103/103/171 105/105/171 153/153/171 151/151/171
f 104/104/172 102/102/172 152/152/172 154/154/172
f 105/105/173 90/90/173 139/139/173 153/153/173
f 91/91/174 104/104/174 154/154/174 142/142/174
f 106/106/175 109/109/175 156/156/175 155/155/175
f 108/108/176 107/107/176 158/158/176 157/157/176
f 109/109/177 111/111/177 159/159/177 156/156/177
f 110/110/178 108/108/178 157/157/178 160/160/178
f 111/111/179 113/113/179 161/161/179 159/159/179
f 112/112/180 110/110/180 160/160/180 162/162/180
f 113/113/181 115/115/181 163/163/181 161/161/181
f 114/114/182 112/112/182 162/162/182 164/164/182
f 115/115/183 117/117/183 165/165/183 163/163/183
f 116/116/184 114/114/184 164/164/184 166/166/184
f 117/117/185 119/119/185 167/167/185 165/165/185
f 118/118/186 116/116/186 166/166/186 168/168/186
f 119/119/187 121/121/187 169/169/187 167/167/187
f 120/120/188 118/118/188 168/168/188 170/170/188
f 121/121/189 106/106/189 155/155/189 169/169/189
f 107/107/190 120/120/190 170/170/190 158/158/190
f 122/122/191 125/125/191 172/172/191 171/171/191
f 125/125/192 127/127/192 175/175/192 172/172/192
f 127/127/193 129/129/193 177/177/193 175/175/193
f 129/129/194 131/131/194 179/179/194 177/177/194
f 131/131/195 133/133/195 181/181/195 179/179/195
f 133/133/196 135/135/196 183/183/196 181/181/196
f 135/135/197 137/137/197 185/185/197 183/183/197
f 137/137/198 122/122/198 171/171/198 185/185/198
