mtllib forest_nature_set_all_in.mtl
o forest_Tree_small_regular_Cube_005
v -24.504654 0.000000 -10.794829
v -24.209442 1.712279 -10.886301
v -24.211576 1.676239 -11.133895
v -24.439014 0.000000 -11.196870
v -23.951828 1.649332 -11.181742
v -23.991642 0.000000 -11.263665
v -23.990511 1.636370 -10.901008
v -24.026104 0.000000 -10.794339
v -24.240383 3.197468 -10.940577
v -24.250423 3.187862 -11.135560
v -24.256872 3.293065 -10.937453
v -24.147238 3.309435 -10.974140
v -24.215071 3.867618 -10.894546
v -24.304543 3.859746 -10.888637
v -24.104660 3.201314 -10.988003
v -24.074100 3.198966 -11.182913
v -24.201181 3.875411 -11.007342
v -24.302502 3.849953 -10.988118
v -24.109230 3.314946 -11.171186
v -24.255066 3.289887 -11.128527
v -23.775160 3.745213 -11.112929
v -23.769381 3.759927 -11.225017
v -23.705994 3.700698 -11.106571
v -23.699188 3.717195 -11.232968
v -24.869905 4.701288 -10.082847
v -24.882076 5.537061 -10.652805
v -25.149548 4.484031 -10.567318
v -24.908291 2.730949 -10.698561
v -25.189768 3.692698 -10.604965
v -25.003252 2.838935 -11.000504
v -24.950882 5.344369 -11.104067
v -25.198853 4.200427 -11.197812
v -25.111401 3.321830 -11.371289
v -24.705605 2.608347 -11.526201
v -24.762562 5.458052 -11.529284
v -25.017914 4.681762 -11.598737
v -24.986141 3.903672 -11.874163
v -24.482306 6.604740 -10.529034
v -24.602631 5.421474 -10.216975
v -24.741137 2.494573 -11.110950
v -24.210276 3.848395 -12.233924
v -24.188162 3.203066 -12.083104
v -24.617794 3.263890 -11.987995
v -24.352930 2.620792 -11.784928
v -23.843637 2.653589 -11.822309
v -23.586145 3.257354 -12.034413
v -24.263472 4.585762 -12.146507
v -23.773182 5.471157 -11.873573
v -23.710054 4.561049 -12.122078
v -23.436235 3.808365 -12.087441
v -23.396441 2.657389 -11.558399
v -24.944031 3.329763 -11.747028
v -23.238487 4.594494 -11.897947
v -23.072266 3.940863 -11.801154
v -22.899988 3.937293 -11.328540
v -23.170465 3.329881 -11.747163
v -23.064178 4.682042 -11.598906
v -23.292728 5.435839 -11.533893
v -23.101068 5.354929 -11.027834
v -22.911951 4.445065 -10.639267
v -23.202831 5.534640 -10.593040
v -23.209459 4.701890 -10.083147
v -23.427151 6.637368 -11.179042
v -23.473171 6.816922 -10.789333
v -23.542320 6.684130 -10.551867
v -23.367739 5.452801 -10.313171
v -23.128143 2.853376 -11.208290
v -23.147558 2.785655 -10.809484
v -23.381723 2.495060 -11.111682
v -23.755505 5.330617 -10.096226
v -24.036160 4.890956 -10.023232
v -23.632977 2.920391 -10.115840
v -24.145666 2.973931 -9.994662
v -24.080101 2.677958 -10.143141
v -23.510185 4.045197 -9.906170
v -24.508751 4.001143 -9.884746
v -24.211954 6.295821 -10.318197
v -24.766151 2.905928 -10.291315
v -23.074966 3.857029 -10.186126
v -23.772423 6.738823 -10.421144
v -25.027418 3.856585 -10.186050
v -24.518639 2.631118 -10.310784
v -23.349501 2.766954 -10.392156
v -23.977865 2.418437 -10.383146
v -24.218801 2.320870 -11.430131
v -23.833601 2.248800 -10.991258
v -24.505516 2.325069 -10.867963
v -23.636948 2.368907 -10.692060
v -23.843821 2.370839 -11.493296
v -24.216883 6.780145 -11.475628
v -23.908373 7.636940 -11.081460
v -23.675806 6.595737 -11.481593
v -24.195150 7.474311 -11.121777
v -24.583750 6.676911 -11.192827
v -23.855309 7.622838 -10.887656
v -23.996555 7.697990 -10.863482
v -24.436989 5.485477 -11.800241
v -24.541470 6.836108 -10.787864
v -24.846546 4.593925 -11.897969
v -22.916891 3.693008 -10.604613
v -24.207815 7.086780 -10.545113
v -24.138300 7.628124 -10.892104
vt 0.546151 0.527614
vt 0.550170 0.731683
vt 0.550141 0.728861
vt 0.547045 0.527614
vt 0.553676 0.727527
vt 0.553134 0.527614
vt 0.553150 0.726543
vt 0.552665 0.527614
vt 0.549748 0.891323
vt 0.549612 0.890230
vt 0.549524 0.902196
vt 0.551016 0.904059
vt 0.550093 0.967551
vt 0.548875 0.966656
vt 0.551596 0.891760
vt 0.552012 0.891493
vt 0.550282 0.968438
vt 0.548903 0.965542
vt 0.551534 0.904686
vt 0.549549 0.901836
vt 0.556081 0.953627
vt 0.556160 0.955302
vt 0.557022 0.948565
vt 0.557115 0.950441
vt 0.137021 0.728428
vt 0.136876 0.796569
vt 0.133676 0.710715
vt 0.136562 0.567786
vt 0.133195 0.646198
vt 0.135426 0.576590
vt 0.136053 0.780859
vt 0.133086 0.687593
vt 0.134132 0.615960
vt 0.138987 0.557790
vt 0.138306 0.790128
vt 0.135251 0.726836
vt 0.135631 0.663398
vt 0.141658 0.883618
vt 0.140219 0.787145
vt 0.138562 0.548514
vt 0.144913 0.658891
vt 0.145177 0.606277
vt 0.140038 0.611236
vt 0.143206 0.558804
vt 0.149299 0.561478
vt 0.152379 0.610704
vt 0.144276 0.719009
vt 0.150142 0.791196
vt 0.150897 0.716994
vt 0.154173 0.655628
vt 0.154649 0.561788
vt 0.136135 0.616607
vt 0.156538 0.719721
vt 0.158527 0.666431
vt 0.160588 0.666139
vt 0.157352 0.616617
vt 0.158624 0.726859
vt 0.155890 0.788316
vt 0.158183 0.781720
vt 0.160445 0.707538
vt 0.156965 0.796372
vt 0.156886 0.728477
vt 0.154281 0.886278
vt 0.153731 0.900917
vt 0.152904 0.890090
vt 0.154992 0.789700
vt 0.157859 0.577767
vt 0.157626 0.572246
vt 0.154825 0.548554
vt 0.150353 0.779738
vt 0.146996 0.743892
vt 0.151819 0.583231
vt 0.145686 0.587596
vt 0.146470 0.563465
vt 0.153288 0.674937
vt 0.141342 0.671345
vt 0.144893 0.858431
vt 0.138263 0.582052
vt 0.158495 0.659595
vt 0.150151 0.894549
vt 0.135137 0.659559
vt 0.141224 0.559646
vt 0.155210 0.570721
vt 0.147693 0.542306
vt 0.144811 0.534352
vt 0.149419 0.528476
vt 0.141381 0.534694
vt 0.151772 0.538268
vt 0.149297 0.538425
vt 0.144834 0.897918
vt 0.148525 0.967773
vt 0.151307 0.882883
vt 0.145094 0.954514
vt 0.140445 0.889502
vt 0.149159 0.966623
vt 0.147470 0.972751
vt 0.142201 0.792364
vt 0.140951 0.902481
vt 0.137301 0.719675
vt 0.160386 0.646223
vt 0.144942 0.922918
vt 0.145774 0.967054
vn -0.9830 0.1507 -0.1045
vn -0.1577 0.0556 -0.9859
vn 0.9951 -0.0221 0.0967
vn 0.0265 0.0564 0.9981
vn 0.0000 -1.0000 0.0000
vn -0.9993 -0.0227 0.0298
vn 0.2187 -0.0885 0.9718
vn 0.1830 0.0542 0.9816
vn -0.2137 -0.0122 -0.9768
vn 0.9862 0.0790 0.1453
vn -0.1749 0.9843 -0.0224
vn -0.2789 0.2192 -0.9350
vn 0.9803 0.1033 0.1686
vn -0.9965 -0.0825 -0.0095
vn -0.9939 -0.1076 0.0248
vn -0.7833 0.6177 -0.0705
vn -0.2724 0.0331 -0.9616
vn 0.3232 0.0148 0.9462
vn 0.5267 0.8388 0.1376
vn -0.1627 0.0143 -0.9866
vn 0.7996 -0.5968 0.0667
vn 0.2030 0.1007 0.9740
vn -0.8825 0.2562 0.3945
vn -0.9371 -0.2928 0.1900
vn -0.9768 0.2133 -0.0196
vn -0.9944 -0.0872 -0.0595
vn -0.8558 -0.4217 -0.2996
vn -0.8945 0.3220 -0.3101
vn -0.9406 0.0785 -0.3303
vn -0.7904 0.2301 0.5678
vn -0.8090 -0.5456 -0.2187
vn -0.7907 -0.6115 0.0300
vn -0.2412 -0.2287 -0.9432
vn -0.0368 -0.4472 -0.8937
vn 0.0986 -0.2233 -0.9698
vn 0.0544 0.2665 -0.9623
vn 0.1870 0.0228 -0.9821
vn 0.4538 -0.4614 -0.7624
vn -0.6080 -0.2140 -0.7646
vn 0.6093 0.0377 -0.7920
vn 0.9240 -0.1784 -0.3382
vn 0.9365 0.0828 -0.3408
vn 0.9069 0.3005 -0.2954
vn 0.9818 0.1608 -0.1014
vn 0.8986 0.2239 0.3773
vn 0.9267 0.1980 -0.3193
vn 0.9654 0.2240 0.1334
vn 0.8109 0.2201 0.5422
vn 0.8070 -0.5874 -0.0605
vn 0.7593 -0.6032 -0.2442
vn 0.0954 0.1035 0.9900
vn 0.1686 -0.4119 0.8955
vn 0.0148 0.1461 0.9892
vn -0.1215 0.1675 0.9784
vn -0.1203 0.2247 0.9670
vn -0.3981 -0.2356 0.8866
vn 0.5355 -0.0177 0.8444
vn 0.5216 0.2331 0.8207
vn -0.3792 0.2718 0.8845
vn -0.4996 -0.0127 0.8661
vn -0.2684 -0.4788 0.8359
vn 0.3522 -0.6168 0.7039
vn -0.1226 -0.9909 -0.0551
vn -0.0629 -0.9651 0.2543
vn 0.1296 -0.9467 0.2948
vn -0.2715 -0.8462 0.4584
vn 0.4067 -0.7187 0.5640
vn 0.3642 -0.7064 -0.6069
vn 0.6625 -0.7259 0.1847
vn 0.1191 0.3792 -0.9176
vn -0.1332 0.4534 -0.8813
vn -0.6304 0.3681 -0.6834
vn 0.5206 0.4361 0.7340
vn 0.3816 0.4591 0.8022
vn -0.6263 0.2915 -0.7230
vn 0.7258 0.2683 -0.6334
vn -0.9078 0.0742 0.4128
vn -0.9442 -0.0740 -0.3208
vn -0.9973 0.0480 0.0564
vn -0.9676 0.2491 0.0412
vn -0.9765 -0.2154 0.0044
vn -0.9606 0.2219 -0.1671
vn -0.8368 -0.3932 -0.3810
vn -0.9651 0.2611 0.0179
vn -0.7310 0.3772 0.5687
vn -0.8575 0.2703 0.4377
vn -0.4052 0.0652 -0.9119
vn -0.9113 0.2283 -0.3426
vn -0.7845 0.3063 -0.5392
vn -0.8380 0.1514 -0.5243
vn -0.4241 -0.0837 -0.9017
vn -0.5576 -0.4268 -0.7120
vn -0.3744 0.2693 -0.8873
vn -0.2511 -0.3840 -0.8886
vn -0.0959 0.3414 -0.9350
vn 0.1080 -0.3702 -0.9227
vn 0.0492 0.1211 -0.9914
vn 0.1770 -0.1419 -0.9739
vn 0.4201 0.1114 -0.9006
vn 0.3981 0.2672 -0.8775
vn 0.6142 -0.2014 -0.7630
vn -0.6147 0.3593 -0.7022
vn 0.5561 0.3600 -0.7491
vn 0.9743 -0.2232 -0.0305
vn 0.5681 -0.3937 -0.7227
vn 0.8230 -0.3920 -0.4112
vn 0.9345 -0.2271 -0.2742
vn 0.9769 0.1669 -0.1335
vn 0.8550 -0.3029 0.4210
vn 0.9998 -0.0056 0.0215
vn 0.9603 0.2513 0.1209
vn 0.9136 0.0569 0.4025
vn 0.5172 -0.2466 0.8196
vn 0.8383 0.1350 -0.5282
vn 0.7890 0.2861 -0.5437
vn 0.9691 0.2465 0.0009
vn 0.8845 0.2471 0.3957
vn 0.7679 0.3300 0.5490
vn 0.3741 0.3428 0.8617
vn 0.4268 0.2082 0.8801
vn 0.2054 -0.2010 0.9578
vn 0.1179 0.2077 0.9711
vn 0.0256 -0.0974 0.9949
vn 0.0016 0.2248 0.9744
vn -0.1128 0.2324 0.9661
vn -0.1179 0.2136 0.9698
vn -0.3629 -0.3869 0.8477
vn -0.4356 -0.8673 -0.2408
vn -0.0530 0.2756 0.9598
vn -0.3963 0.2551 0.8820
vn -0.4440 -0.2183 0.8690
vn 0.2749 -0.5922 0.7575
vn 0.4498 -0.8522 -0.2673
vn 0.0890 -0.9674 -0.2370
vn -0.0025 -0.7614 -0.6483
vn 0.4849 -0.8740 0.0322
vn -0.8544 -0.2875 0.4328
vn -0.3552 -0.7758 -0.5215
vn -0.5946 -0.6849 0.4212
vn 0.6600 -0.6938 0.2883
vn -0.1860 -0.7056 0.6837
vn 0.8943 0.4276 -0.1320
vn -0.6716 -0.7267 0.1443
vn -0.6342 0.2877 -0.7177
vn 0.6845 0.3897 -0.6162
vn -0.3790 0.8236 -0.4219
vn 0.4606 0.8855 -0.0617
vn -0.8929 0.4432 -0.0791
vn -0.7200 0.4341 0.5414
vn 0.7772 0.4251 0.4640
vn -0.4106 0.5288 0.7428
vn 0.5735 0.2249 -0.7877
vn 0.0986 0.3199 -0.9423
vn -0.1006 0.2580 -0.9609
vn 0.0923 0.4347 0.8958
usemtl AllColors_Material
f 1/1/1 2/2/1 3/3/1 4/4/1
f 4/4/2 3/3/2 5/5/2 6/6/2
f 6/6/3 5/5/3 7/7/3 8/8/3
f 8/8/4 7/7/4 2/2/4 1/1/4
f 4/4/5 6/6/5 8/8/5 1/1/5
f 3/3/6 2/2/6 9/9/6 10/10/6
f 11/11/7 12/12/7 13/13/7 14/14/7
f 2/2/8 7/7/8 15/15/8 9/9/8
f 5/5/9 3/3/9 10/10/9 16/16/9
f 7/7/10 5/5/10 16/16/10 15/15/10
f 17/17/11 18/18/11 14/14/11 13/13/11
f 19/19/12 20/20/12 18/18/12 17/17/12
f 12/12/13 19/19/13 17/17/13 13/13/13
f 20/20/14 11/11/14 14/14/14 18/18/14
f 10/10/15 9/9/15 11/11/15 20/20/15
f 19/19/16 12/12/16 21/21/16 22/22/16
f 16/16/17 10/10/17 20/20/17 19/19/17
f 9/9/18 15/15/18 12/12/18 11/11/18
f 23/23/19 24/24/19 22/22/19 21/21/19
f 16/16/20 19/19/20 22/22/20 24/24/20
f 15/15/21 16/16/21 24/24/21 23/23/21
f 12/12/22 15/15/22 23/23/22 21/21/22
f 25/25/23 26/26/23 27/27/23
f 28/28/24 29/29/24 30/30/24
f 27/27/25 31/31/25 32/32/25
f 29/29/26 32/32/26 33/33/26
f 33/33/27 34/34/27 30/30/27
f 31/31/28 35/35/28 36/36/28
f 32/32/29 36/36/29 37/37/29
f 38/38/30 26/26/30 39/39/30
f 30/30/31 34/34/31 40/40/31
f 28/28/32 30/30/32 40/40/32
f 41/41/33 42/42/33 43/43/33
f 44/44/34 42/42/34 45/45/34
f 41/41/35 46/46/35 42/42/35
f 47/47/36 48/48/36 49/49/36
f 41/41/37 49/49/37 50/50/37
f 46/46/38 51/51/38 45/45/38
f 52/52/39 37/37/39 43/43/39
f 53/53/40 54/54/40 50/50/40
f 54/54/41 55/55/41 56/56/41
f 57/57/42 55/55/42 54/54/42
f 58/58/43 59/59/43 57/57/43
f 59/59/44 60/60/44 55/55/44
f 61/61/45 62/62/45 60/60/45
f 63/63/46 59/59/46 58/58/46
f 64/64/47 61/61/47 59/59/47
f 61/61/48 65/65/48 66/66/48
f 67/67/49 68/68/49 69/69/49
f 51/51/50 67/67/50 69/69/50
f 70/70/51 71/71/51 62/62/51
f 72/72/52 73/73/52 74/74/52
f 75/75/53 71/71/53 76/76/53
f 70/70/54 77/77/54 39/39/54
f 71/71/55 39/39/55 25/25/55
f 73/73/56 76/76/56 78/78/56
f 62/62/57 75/75/57 79/79/57
f 65/65/58 80/80/58 66/66/58
f 77/77/59 38/38/59 39/39/59
f 76/76/60 25/25/60 81/81/60
f 73/73/61 82/82/61 74/74/61
f 83/83/62 72/72/62 84/84/62
f 85/85/63 86/86/63 87/87/63
f 86/86/64 84/84/64 87/87/64
f 86/86/65 88/88/65 84/84/65
f 84/84/66 82/82/66 87/87/66
f 88/88/67 83/83/67 84/84/67
f 45/45/68 51/51/68 89/89/68
f 69/69/69 68/68/69 88/88/69
f 90/90/70 91/91/70 92/92/70
f 90/90/71 93/93/71 91/91/71
f 90/90/72 94/94/72 93/93/72
f 95/95/73 80/80/73 65/65/73
f 95/95/74 96/96/74 80/80/74
f 97/97/75 35/35/75 94/94/75
f 92/92/76 63/63/76 58/58/76
f 27/27/77 29/29/77 81/81/77 25/25/77
f 37/37/78 52/52/78 33/33/78 32/32/78
f 29/29/79 27/27/79 32/32/79
f 27/27/80 26/26/80 31/31/80
f 30/30/81 29/29/81 33/33/81
f 32/32/82 31/31/82 36/36/82
f 33/33/83 52/52/83 34/34/83
f 94/94/84 31/31/84 26/26/84 98/98/84
f 25/25/85 39/39/85 26/26/85
f 38/38/86 98/98/86 26/26/86
f 41/41/87 37/37/87 99/99/87 47/47/87
f 31/31/88 94/94/88 35/35/88
f 36/36/89 35/35/89 99/99/89
f 37/37/90 36/36/90 99/99/90
f 43/43/91 37/37/91 41/41/91
f 43/43/92 44/44/92 34/34/92 52/52/92
f 99/99/93 97/97/93 47/47/93
f 44/44/94 43/43/94 42/42/94
f 97/97/95 48/48/95 47/47/95
f 42/42/96 46/46/96 45/45/96
f 41/41/97 47/47/97 49/49/97
f 46/46/98 41/41/98 50/50/98
f 50/50/99 49/49/99 53/53/99
f 49/49/100 48/48/100 53/53/100
f 56/56/101 46/46/101 50/50/101 54/54/101
f 35/35/102 97/97/102 99/99/102
f 53/53/103 48/48/103 58/58/103
f 68/68/104 67/67/104 55/55/104 100/100/104
f 46/46/105 56/56/105 51/51/105
f 51/51/106 56/56/106 67/67/106
f 56/56/107 55/55/107 67/67/107
f 57/57/108 59/59/108 55/55/108
f 83/83/109 68/68/109 100/100/109 79/79/109
f 55/55/110 60/60/110 100/100/110
f 59/59/111 61/61/111 60/60/111
f 79/79/112 100/100/112 60/60/112 62/62/112
f 72/72/113 83/83/113 79/79/113 75/75/113
f 53/53/114 57/57/114 54/54/114
f 53/53/115 58/58/115 57/57/115
f 63/63/116 64/64/116 59/59/116
f 61/61/117 64/64/117 65/65/117
f 61/61/118 66/66/118 62/62/118
f 66/66/119 70/70/119 62/62/119
f 66/66/120 80/80/120 70/70/120
f 72/72/121 75/75/121 73/73/121
f 75/75/122 62/62/122 71/71/122
f 73/73/123 75/75/123 76/76/123
f 80/80/124 77/77/124 70/70/124
f 70/70/125 39/39/125 71/71/125
f 71/71/126 25/25/126 76/76/126
f 73/73/127 78/78/127 82/82/127
f 87/87/128 40/40/128 34/34/128 85/85/128
f 80/80/129 101/101/129 77/77/129
f 77/77/130 101/101/130 38/38/130
f 78/78/131 76/76/131 81/81/131
f 84/84/132 72/72/132 74/74/132
f 86/86/133 89/89/133 51/51/133 69/69/133
f 89/89/134 86/86/134 85/85/134
f 89/89/135 85/85/135 44/44/135 45/45/135
f 86/86/136 69/69/136 88/88/136
f 29/29/137 28/28/137 78/78/137 81/81/137
f 44/44/138 85/85/138 34/34/138
f 82/82/139 78/78/139 28/28/139 87/87/139
f 68/68/140 83/83/140 88/88/140
f 82/82/141 84/84/141 74/74/141
f 64/64/142 63/63/142 91/91/142 95/95/142
f 40/40/143 87/87/143 28/28/143
f 90/90/144 97/97/144 94/94/144
f 92/92/145 91/91/145 63/63/145
f 102/102/146 96/96/146 91/91/146 93/93/146
f 91/91/147 96/96/147 95/95/147
f 98/98/148 102/102/148 93/93/148 94/94/148
f 101/101/149 102/102/149 98/98/149 38/38/149
f 64/64/150 95/95/150 65/65/150
f 102/102/151 101/101/151 96/96/151
f 48/48/152 92/92/152 58/58/152
f 48/48/153 90/90/153 92/92/153
f 48/48/154 97/97/154 90/90/154
f 80/80/155 96/96/155 101/101/155
