mtllib forest_nature_set_all_in.mtl
o forest_Stone_average_01_Icosphere
v -18.682873 -0.000000 12.955462
v -17.786072 -0.000000 12.395111
v -17.734003 -0.000000 13.356241
v -18.464247 -0.000000 12.329351
v -17.857706 -0.000000 11.359621
v -17.284239 -0.000000 11.964400
v -18.292416 -0.000000 11.264771
v -17.756630 0.587708 11.636703
v -18.135578 0.684183 11.534892
v -17.759962 0.899344 12.224301
v -17.228035 0.342451 12.186802
v -17.329042 0.670837 12.430711
v -17.075167 0.175668 12.417171
v -17.579540 0.769734 12.155849
v -17.644547 0.378517 11.604063
v -18.200510 0.853427 11.956166
v -18.509277 0.587148 11.566157
v -18.154264 0.489129 11.330542
v -18.040276 0.857104 12.416317
v -18.627626 0.587957 12.578252
v -18.051044 0.456947 13.406911
v -18.780603 0.373456 12.675297
v -18.697115 0.604458 12.129895
v -18.571089 0.409928 13.040782
v -18.324726 0.403803 13.351739
v -17.481672 0.702583 12.890078
v -17.719049 0.872285 12.562573
v -17.832975 0.561408 13.268106
v -17.243069 0.563880 12.672666
v -17.333204 0.440016 13.050683
v -17.617088 0.139520 11.552202
v -18.018059 0.259677 11.264276
v -18.324085 0.265761 11.237567
v -18.889858 -0.000000 12.275690
v -18.877525 0.261811 12.296444
v -18.849968 0.294096 11.937657
v -18.843124 0.072648 12.633630
v -18.160625 0.212916 13.498833
v -18.509600 0.138707 13.267929
v -17.921904 0.305639 13.470768
v -17.319742 -0.000000 13.181201
v -17.112740 0.270825 12.780666
v -17.159964 -0.000000 12.968928
v -17.050961 -0.000000 12.545584
v -18.751949 -0.000000 11.718587
v -18.716223 0.124122 11.555246
v -18.508625 -0.000000 11.346489
v -18.189953 -0.000000 13.455141
v -18.688282 0.420927 11.634104
v -18.523180 0.269384 11.322152
vt 0.933406 0.513520
vt 0.958970 0.513520
vt 0.960454 0.513520
vt 0.939638 0.513520
vt 0.956928 0.513519
vt 0.973275 0.513520
vt 0.944536 0.513519
vt 0.959809 0.818811
vt 0.949007 0.868925
vt 0.959714 0.980692
vt 0.974877 0.691409
vt 0.971998 0.861993
vt 0.979235 0.604772
vt 0.964857 0.913365
vt 0.963004 0.710144
vt 0.947156 0.956840
vt 0.938354 0.818519
vt 0.948474 0.767602
vt 0.951724 0.958751
vt 0.934981 0.818940
vt 0.951417 0.750886
vt 0.930620 0.707515
vt 0.933000 0.827511
vt 0.936592 0.726461
vt 0.943615 0.723279
vt 0.967647 0.878483
vt 0.960881 0.966637
vt 0.957633 0.805148
vt 0.974449 0.806432
vt 0.971880 0.742091
vt 0.963787 0.585995
vt 0.952357 0.648410
vt 0.943633 0.651572
vt 0.927506 0.513520
vt 0.927857 0.649519
vt 0.928643 0.666291
vt 0.928838 0.551257
vt 0.948293 0.624121
vt 0.938345 0.585572
vt 0.955098 0.672287
vt 0.972263 0.513520
vt 0.978164 0.654202
vt 0.976818 0.513520
vt 0.979925 0.513520
vt 0.931437 0.513519
vt 0.932455 0.577996
vt 0.938373 0.513519
vt 0.947457 0.513520
vt 0.933252 0.732174
vt 0.937958 0.653453
vn 0.0000 -1.0000 0.0000
vn 0.3308 0.8345 -0.4407
vn 0.8597 0.4475 -0.2465
vn 0.5273 0.8300 -0.1819
vn 0.7122 0.5464 -0.4407
vn 0.7319 0.4692 -0.4941
vn 0.1190 0.9275 -0.3543
vn -0.2403 0.7131 -0.6586
vn -0.2617 0.8809 -0.3943
vn -0.3074 0.8835 0.3535
vn -0.7742 0.6167 0.1427
vn -0.6906 0.6426 0.3318
vn -0.2415 0.9185 0.3132
vn 0.0794 0.9074 0.4127
vn 0.6947 0.6180 0.3681
vn 0.8830 0.4558 -0.1123
vn 0.7936 0.2344 -0.5615
vn 0.8717 0.1582 -0.4639
vn 0.8010 0.2134 -0.5593
vn 0.0886 0.3246 -0.9417
vn 0.5414 0.4050 -0.7368
vn 0.4546 0.4855 -0.7467
vn -0.9960 0.0526 -0.0718
vn -0.9652 0.1735 0.1958
vn -0.2588 0.4401 0.8598
vn -0.5668 0.1385 0.8121
vn -0.0324 0.3650 0.9304
vn 0.4459 0.4555 0.7705
vn 0.2465 0.5478 0.7995
vn 0.8151 0.1875 0.5481
vn -0.3995 0.9096 0.1139
vn 0.9684 0.0045 0.2493
vn 0.9828 0.1760 0.0555
vn 0.6124 0.2342 -0.7551
vn 0.6947 -0.2888 -0.6587
vn -0.9607 -0.1431 -0.2378
vn -0.9523 -0.1036 -0.2870
vn -0.7547 -0.4322 -0.4935
vn -0.8837 0.1211 0.4521
vn 0.3871 -0.1053 0.9160
vn 0.9185 -0.1429 -0.3687
vn -0.7398 -0.6340 0.2253
vn 0.4326 0.6357 0.6394
vn -0.8181 0.5345 -0.2124
vn -0.7082 0.6579 -0.2562
vn -0.4923 0.8494 -0.1901
vn 0.3470 0.6624 -0.6640
vn -0.0879 0.9921 0.0900
vn 0.7015 0.5631 -0.4367
vn 0.4167 0.8041 -0.4241
vn -0.1250 0.9915 0.0356
vn -0.2064 0.9077 0.3653
vn -0.4449 0.8162 0.3686
vn 0.4743 0.8782 0.0613
vn 0.1583 -0.1691 -0.9728
vn 0.5906 0.7945 0.1413
vn -0.3699 -0.1207 -0.9212
vn -0.3267 0.5770 -0.7485
vn -0.7347 -0.1003 -0.6710
vn -0.6613 0.4748 -0.5807
vn -0.8142 0.2195 -0.5375
vn -0.8781 0.4775 0.0312
vn -0.9918 0.0370 0.1220
vn 0.2044 -0.2279 0.9520
vn -0.7374 0.3275 0.5907
vn -0.5344 -0.0986 0.8394
vn 0.7696 0.2685 0.5793
vn 0.9151 0.4030 -0.0109
vn 0.8012 0.4853 0.3501
vn 0.5963 0.0748 -0.7993
vn -0.8972 0.1903 -0.3984
vn -0.8858 0.0749 0.4580
vn -0.8584 0.2007 0.4721
vn -0.5852 -0.5694 0.5773
vn 0.5217 0.2572 0.8134
usemtl AllColors_Material
f 1/1/1 2/2/1 3/3/1
f 2/2/1 1/1/1 4/4/1
f 5/5/1 6/6/1 7/7/1
f 8/8/2 9/9/2 10/10/2
f 11/11/3 12/12/3 13/13/3
f 14/14/4 10/10/4 12/12/4
f 11/11/5 8/8/5 12/12/5
f 15/15/6 8/8/6 11/11/6
f 9/9/7 16/16/7 10/10/7
f 17/17/8 9/9/8 18/18/8
f 9/9/9 17/17/9 16/16/9
f 19/19/10 20/20/10 21/21/10
f 22/22/11 20/20/11 23/23/11
f 24/24/12 20/20/12 22/22/12
f 21/21/13 20/20/13 25/25/13
f 26/26/14 27/27/14 28/28/14
f 29/29/15 26/26/15 30/30/15
f 12/12/16 29/29/16 13/13/16
f 31/31/17 11/11/17 6/6/17
f 6/6/18 11/11/18 13/13/18
f 31/31/19 15/15/19 11/11/19
f 18/18/20 32/32/20 33/33/20
f 32/32/21 8/8/21 15/15/21
f 32/32/22 18/18/22 8/8/22
f 34/34/23 35/35/23 36/36/23
f 35/35/24 37/37/24 22/22/24
f 25/25/25 38/38/25 21/21/25
f 38/38/26 25/25/26 39/39/26
f 21/21/27 38/38/27 40/40/27
f 28/28/28 40/40/28 30/30/28
f 21/21/29 40/40/29 28/28/29
f 30/30/30 41/41/30 42/42/30
f 19/19/31 16/16/31 23/23/31 20/20/31
f 42/42/32 43/43/32 44/44/32
f 13/13/33 42/42/33 44/44/33
f 15/15/34 31/31/34 32/32/34
f 5/5/35 31/31/35 6/6/35
f 36/36/36 45/45/36 34/34/36
f 36/36/37 46/46/37 45/45/37
f 45/45/38 46/46/38 47/47/38
f 39/39/39 22/22/39 37/37/39
f 3/3/1 48/48/1 1/1/1
f 41/41/40 40/40/40 3/3/40
f 13/13/41 44/44/41 6/6/41
f 4/4/1 1/1/1 34/34/1
f 7/7/1 6/6/1 43/43/1
f 2/2/1 7/7/1 43/43/1
f 37/37/42 34/34/42 1/1/42
f 45/45/1 47/47/1 7/7/1
f 30/30/43 26/26/43 28/28/43
f 36/36/44 23/23/44 49/49/44
f 49/49/45 23/23/45 17/17/45
f 16/16/46 17/17/46 23/23/46
f 8/8/47 18/18/47 9/9/47
f 19/19/48 27/27/48 10/10/48
f 12/12/49 8/8/49 14/14/49
f 10/10/50 14/14/50 8/8/50
f 10/10/51 16/16/51 19/19/51
f 19/19/52 21/21/52 28/28/52 27/27/52
f 24/24/53 25/25/53 20/20/53
f 26/26/54 12/12/54 10/10/54 27/27/54
f 32/32/55 5/5/55 7/7/55 33/33/55
f 26/26/56 29/29/56 12/12/56
f 7/7/57 47/47/57 50/50/57 33/33/57
f 17/17/58 18/18/58 33/33/58 50/50/58
f 47/47/59 46/46/59 50/50/59
f 17/17/60 50/50/60 49/49/60
f 49/49/61 50/50/61 46/46/61
f 35/35/62 22/22/62 23/23/62 36/36/62
f 37/37/63 35/35/63 34/34/63
f 48/48/64 3/3/64 40/40/64 38/38/64
f 39/39/65 25/25/65 24/24/65
f 48/48/66 38/38/66 39/39/66
f 42/42/67 41/41/67 43/43/67
f 29/29/68 42/42/68 13/13/68
f 30/30/69 42/42/69 29/29/69
f 5/5/70 32/32/70 31/31/70
f 49/49/71 46/46/71 36/36/71
f 1/1/72 39/39/72 37/37/72
f 24/24/73 22/22/73 39/39/73
f 39/39/74 1/1/74 48/48/74
f 30/30/75 40/40/75 41/41/75
f 41/41/1 3/3/1 43/43/1
f 43/43/1 6/6/1 44/44/1
f 4/4/1 7/7/1 2/2/1
f 45/45/1 7/7/1 4/4/1
f 34/34/1 45/45/1 4/4/1
f 43/43/1 3/3/1 2/2/1
