mtllib forest_nature_set_all_in.mtl
o forest_Tree_average_lush_Cube_004
v 17.644993 1.870746 -11.515965
v 17.795406 5.158143 -11.583393
v 18.146240 5.141498 -11.579159
v 18.137756 1.899544 -11.495354
v 17.692953 -0.001766 -11.756306
v 16.565300 -0.001766 -11.936892
v 17.144680 1.927737 -11.519855
v 16.289207 -0.001766 -10.920852
v 16.573792 -0.001766 -9.900790
v 17.159554 1.882573 -10.580986
v 17.155531 1.933944 -11.058517
v 17.340847 -0.001766 -10.980276
v 18.808229 -0.001766 -11.870225
v 18.518742 -0.001766 -10.995174
v 18.147181 1.821858 -11.032661
v 17.632412 -0.001766 -9.674221
v 18.506151 -0.001766 -9.964222
v 18.150259 1.800597 -10.556840
v 17.659502 1.885305 -10.581197
v 17.699947 5.295961 -10.820722
v 17.218254 5.342600 -10.761179
v 17.296553 5.234330 -11.194982
v 17.320494 5.181852 -11.505057
v 18.131054 5.192904 -11.274066
v 17.512058 8.158701 -12.581553
v 17.547728 8.773316 -12.619566
v 17.782204 8.770935 -12.620004
v 17.763103 8.151665 -12.582843
v 17.533274 8.146502 -12.128042
v 17.575254 8.769636 -12.197996
v 17.562500 8.773596 -12.441876
v 17.527752 8.153071 -12.393838
v 18.059469 8.149775 -12.504713
v 21.110312 9.937137 -12.047217
v 21.103607 9.932738 -11.911511
v 18.069323 8.141629 -12.313900
v 17.786324 8.137860 -12.134365
v 17.812489 8.765957 -12.204302
v 18.046585 5.253976 -10.795728
v 17.980011 8.752200 -12.411002
v 18.883556 11.136835 -13.258005
v 18.886580 11.139536 -13.133427
v 17.992720 8.749410 -12.160409
v 18.802042 11.119554 -13.204306
v 18.704363 11.114030 -13.230890
v 17.967594 8.755037 -12.584062
v 18.866787 11.148367 -13.340883
v 18.069878 8.137703 -12.033502
v 20.937872 10.171239 -11.948281
v 20.945377 10.175567 -12.072960
v 18.889660 12.977108 -13.672334
v 18.705420 11.108057 -13.357477
v 18.690966 11.118423 -13.436727
v 18.787041 11.125132 -13.410949
v 17.520233 5.763161 -11.685007
v 17.739309 5.769424 -11.712627
v 17.517553 5.834525 -11.173089
v 17.507479 5.807366 -11.416878
v 18.074694 5.801206 -11.435684
v 18.091221 5.792665 -11.162310
v 17.750996 5.825577 -11.197962
v 18.080904 5.757756 -11.698312
v 22.462942 12.575379 -11.465806
v 21.103281 9.935327 -11.755569
v 20.939711 10.174052 -11.806575
v 17.160843 7.285074 -8.225161
v 17.392103 7.311852 -8.241944
v 14.172309 7.544635 -9.511963
v 14.138529 7.557720 -9.738214
v 17.179264 7.158050 -7.940322
v 16.886671 7.096311 -7.924713
v 14.097795 7.631937 -10.117678
v 14.279921 7.853154 -10.149598
v 14.400995 7.806880 -9.678111
v 14.142319 8.092521 -9.662376
v 13.924185 8.200220 -9.591955
v 14.364450 7.827833 -9.895546
v 14.114151 8.086609 -9.852417
v 13.905989 8.174420 -9.777059
v 14.910968 9.943804 -10.163697
v 14.888357 9.937748 -10.300771
v 13.772436 8.106727 -9.873602
v 14.074749 8.073373 -9.998941
v 15.143852 9.868174 -10.397775
v 15.160062 9.866345 -10.256305
v 13.124749 9.314440 -11.403588
v 12.895443 9.384450 -11.277388
v 11.921028 9.185945 -7.909663
v 11.905125 9.096683 -7.940082
v 15.167826 9.868081 -10.115141
v 15.052653 11.741823 -9.532134
v 14.925675 9.956429 -10.029185
v 11.591828 11.384056 -11.685200
v 12.966951 9.228188 -11.490778
v 12.637322 9.377731 -11.297750
v 12.170213 9.105580 -8.226481
v 11.374756 11.069662 -7.937674
v 12.192493 9.193548 -8.213256
v 16.799965 7.365006 -7.751917
v 16.675230 9.427343 -6.984269
v 16.735388 9.467317 -7.175919
v 16.915651 7.500592 -8.010235
v 17.058044 7.531811 -8.023638
v 16.814064 9.489274 -7.168426
v 16.927240 9.519210 -7.149613
v 17.188278 7.543733 -8.029625
v 17.462135 7.207039 -7.963834
v 17.010403 7.259570 -8.208791
v 16.350809 11.223557 -6.797759
v 16.947294 9.500017 -6.933952
v 17.082319 7.432960 -7.764007
v 16.837324 9.471045 -6.955423
v 17.265629 7.462383 -7.775821
v 18.306833 8.601933 -8.087052
v 18.475668 8.506194 -8.197029
v 18.422035 8.549312 -7.939068
v 19.122229 10.474195 -7.024626
v 18.604538 8.441270 -8.042816
v 20.708778 10.064095 -11.471692
v 21.555784 8.416991 -11.921930
v 22.116226 9.513333 -11.419315
v 20.911619 7.191970 -12.914385
v 20.020021 8.510999 -11.141778
v 19.815046 7.449039 -12.481664
v 21.539013 7.636995 -12.930147
v 23.161196 10.026957 -12.196388
v 18.933455 6.601924 -15.073158
v 18.444757 6.207491 -14.022079
v 16.441673 6.778271 -14.098015
v 22.685112 11.447788 -11.513908
v 14.024468 9.073185 -15.190839
v 16.518669 7.866147 -15.655718
v 15.414482 7.443572 -15.037014
v 15.482953 9.369741 -16.240650
v 22.242268 12.218646 -10.341835
v 21.943470 11.241655 -10.496944
v 17.398127 9.823816 -11.286836
v 15.882134 11.484387 -11.556464
v 15.695637 9.498859 -11.900941
v 16.773872 11.301311 -11.197291
v 19.093502 11.031156 -10.530498
v 14.544679 9.528306 -12.294542
v 14.615429 10.401698 -12.995530
v 14.882923 9.157565 -12.943641
v 19.039658 8.426812 -17.490982
v 16.947420 8.497231 -17.062225
v 18.151861 10.063185 -17.508320
v 22.952444 12.498555 -14.883863
v 23.807201 11.111550 -14.343356
v 23.875235 10.471360 -14.352435
v 16.818104 12.515585 -11.349047
v 16.179951 12.909840 -11.626888
v 16.157896 12.260969 -11.207494
v 18.078461 13.932935 -15.336617
v 18.732159 13.275879 -17.265091
v 17.372326 13.277497 -15.872238
v 21.668287 13.544353 -15.544666
v 21.437296 14.421077 -13.541058
v 22.588079 13.471070 -13.649544
v 19.339149 14.257575 -13.908930
v 19.091103 14.414660 -14.990922
v 18.028423 14.112485 -13.741333
v 18.748880 14.558331 -12.293535
v 20.206661 13.557189 -16.015762
v 21.626230 12.473977 -16.588917
v 20.250904 11.793488 -17.374886
v 15.889662 11.172281 -15.944510
v 16.132036 13.345920 -15.750299
v 17.028107 11.941726 -17.163818
v 16.798717 14.250044 -13.516430
v 15.428766 11.981018 -15.374634
v 15.566162 12.964259 -13.789476
v 16.542753 13.316872 -12.472481
v 15.124493 12.142488 -11.641496
v 17.275867 13.782791 -11.520296
v 18.277481 13.850387 -11.699000
v 18.022806 14.071842 -12.268337
v 18.617161 12.837680 -10.698211
v 19.755968 14.659799 -12.763390
v 22.022141 13.941015 -11.977525
v 22.612234 13.725801 -11.729672
v 23.230841 13.341408 -12.083575
v 23.994047 12.257868 -13.012971
v 19.079884 11.560546 -17.339037
v 14.555820 11.320157 -12.576934
v 15.129244 11.354662 -13.805429
v 18.131660 12.091570 -11.277637
v 21.612728 12.913745 -10.105238
v 20.698839 11.974996 -10.038854
v 20.884209 13.355815 -10.479756
v 21.650761 10.070024 -16.633457
v 21.525360 7.816310 -15.686460
v 21.043060 9.001458 -16.812710
v 22.754801 9.619703 -15.399488
v 19.453642 7.152343 -16.432922
v 16.945601 7.419424 -15.859015
v 14.805389 10.864381 -15.233480
v 14.038191 9.614635 -14.645438
v 15.369375 10.293422 -12.004908
v 14.697341 10.641275 -12.052345
v 19.316183 12.542975 -10.213347
v 19.886211 10.648075 -10.626537
v 23.581785 11.925985 -12.112947
v 23.497091 13.420130 -12.956585
v 23.674885 9.761799 -13.101400
v 23.028126 7.875615 -13.147789
v 21.993530 7.469943 -14.490553
v 20.516678 6.379258 -13.895293
v 15.066612 7.734914 -14.200938
v 14.972163 8.034569 -13.222609
v 15.222331 8.603864 -12.656088
v 17.497169 7.156691 -12.991936
v 19.632246 6.136324 -13.323525
v 15.873299 7.800527 -12.868583
v 18.330826 8.162505 -11.536500
v 18.777611 9.381564 -10.694488
v 14.007665 7.047820 -8.900117
v 14.420027 7.514640 -9.600358
v 15.144266 7.909366 -9.402088
v 14.666233 8.349097 -10.466862
v 13.841997 7.508905 -10.653178
v 15.905906 8.071585 -9.031196
v 15.779038 8.387706 -10.376777
v 11.729763 8.843739 -12.048954
v 13.075038 7.850414 -11.629179
v 14.846067 8.020999 -8.126441
v 15.960745 10.601154 -10.623800
v 15.541222 9.109595 -11.043613
v 15.057427 9.309155 -11.449818
v 16.548029 9.081897 -10.041562
v 17.060291 10.475749 -10.070681
v 16.933508 9.441751 -8.719277
v 17.206621 10.779492 -8.937327
v 16.953962 11.770427 -9.705377
v 13.511721 7.695409 -7.331332
v 13.799884 8.375525 -6.838878
v 12.201499 8.606038 -6.585807
v 14.889270 9.720595 -7.085319
v 15.036665 8.522381 -7.090666
v 12.038196 6.313916 -9.241001
v 11.427076 8.403758 -7.872709
v 10.139248 8.318341 -8.799904
v 12.672424 10.876673 -13.182496
v 12.388892 9.475267 -13.156328
v 11.521629 10.754173 -13.018824
v 14.292531 9.565629 -12.477784
v 14.177208 10.975505 -13.205880
v 16.502077 9.290540 -10.565146
v 16.988373 11.217306 -8.676834
v 15.924020 10.358489 -7.694711
v 15.626451 11.766198 -11.955618
v 16.246593 13.300052 -11.258388
v 16.476685 11.732002 -10.991187
v 14.448509 12.670416 -8.248107
v 15.713911 12.620886 -8.701973
v 15.469759 13.627736 -9.747776
v 12.426186 13.326813 -8.409388
v 11.563403 12.494066 -6.653107
v 11.911831 12.030152 -6.814307
v 10.788511 13.257401 -9.194333
v 10.045950 12.346802 -9.645952
v 9.527775 11.333565 -9.057179
v 10.292194 13.311358 -10.903563
v 12.029398 13.403541 -10.317896
v 12.814936 13.750041 -9.770882
v 10.573170 12.383474 -7.121110
v 11.554323 13.230996 -7.725605
v 11.163104 11.095807 -6.791859
v 13.193691 12.572268 -7.401127
v 13.481747 13.761600 -8.820712
v 13.799175 12.639604 -8.290101
v 14.305552 12.006536 -6.968495
v 16.378672 12.938661 -10.193040
v 14.456204 13.385899 -9.535502
v 16.578217 11.850216 -9.754885
v 14.339823 13.758574 -10.460934
v 13.401156 13.455092 -10.455500
v 14.201757 12.457842 -11.749256
v 15.303902 13.660195 -11.272424
v 15.003496 12.514045 -11.843784
v 13.250700 13.101783 -11.671441
v 11.172817 12.909291 -11.435149
v 12.009353 12.972204 -11.885898
v 9.323556 12.038756 -10.994411
v 9.474189 9.529329 -10.208591
v 9.772497 10.645717 -7.914908
v 10.316800 10.387992 -6.940658
v 13.073549 10.923530 -5.931666
v 11.962656 10.647561 -5.871052
v 10.653961 9.537858 -6.955908
v 11.604855 8.256181 -6.306561
v 14.365437 10.643671 -7.256310
v 15.252085 11.355193 -7.853374
v 15.946295 11.730468 -9.086350
v 16.726612 11.688316 -10.154444
v 13.279019 11.768090 -13.314305
v 11.325529 11.492902 -13.135265
v 14.709314 10.830028 -12.413475
v 10.254148 12.015906 -12.606146
v 11.243525 8.901032 -6.906913
v 15.801310 9.159033 -8.111153
v 15.836418 10.788493 -11.400654
v 14.109490 8.257812 -11.973941
v 10.276081 10.251997 -11.728713
v 10.538606 8.260838 -11.258826
v 12.865540 6.043509 -8.647227
v 12.540609 7.137711 -7.207799
v 11.769175 7.288628 -10.981295
v 13.220633 7.419635 -7.821918
v 14.296847 7.821128 -7.872768
v 15.455328 8.309738 -8.452888
v 12.931997 6.990845 -10.083135
v 13.912623 6.616335 -9.768350
v 20.627092 7.057528 -9.606030
v 19.470629 7.133006 -9.600504
v 19.351688 8.022938 -10.012665
v 17.038082 10.315719 -10.528344
v 17.584398 8.096944 -10.074235
v 15.922754 8.796608 -9.739249
v 16.454866 7.878408 -8.970180
v 15.250731 10.578253 -8.650164
v 20.173441 6.327017 -8.557173
v 21.796299 6.139187 -8.156300
v 21.368431 7.259484 -9.655731
v 21.103067 6.054693 -7.651840
v 18.589409 6.263366 -8.117622
v 18.737450 7.367054 -8.800936
v 20.014301 5.098987 -7.437607
v 16.023111 10.751824 -9.889869
v 19.663309 8.966654 -10.732177
v 20.215307 9.798755 -10.602283
v 20.974491 8.892200 -9.763329
v 18.191490 8.930743 -10.552654
v 19.216209 9.587348 -10.755539
v 18.544445 10.852356 -10.241610
v 22.083691 8.369308 -9.150145
v 22.217499 9.646041 -9.399751
v 22.543674 8.339571 -8.347634
v 18.157421 7.104733 -6.085300
v 16.921858 8.511618 -5.497294
v 17.424326 7.040374 -7.333870
v 20.071789 10.593767 -10.894424
v 21.572023 8.359516 -5.421622
v 21.828465 7.212695 -6.518660
v 22.491688 9.898726 -6.545745
v 17.514870 9.829645 -5.502002
v 19.473949 8.829949 -4.633801
v 15.813629 9.613286 -6.136659
v 17.405325 10.844869 -5.338900
v 15.484741 10.794650 -6.148276
v 17.872135 12.181117 -9.849133
v 18.997269 13.034456 -9.676554
v 18.409826 11.877838 -10.161718
v 19.393351 12.084253 -10.816653
v 20.257336 12.661346 -10.025711
v 20.075899 11.797908 -10.747238
v 21.740520 10.904163 -7.892786
v 21.399767 11.902528 -8.227001
v 21.703247 12.307689 -6.831850
v 20.622381 13.405341 -7.318970
v 20.976707 10.958797 -4.554618
v 19.969316 11.379492 -4.601647
v 21.184664 10.972988 -5.371500
v 17.453203 12.683834 -6.614530
v 16.377108 11.958560 -5.980459
v 16.998600 12.779429 -7.057699
v 18.745922 12.927470 -5.902894
v 18.790606 13.394753 -7.117366
v 19.776140 12.900465 -6.410442
v 18.882584 10.397382 -4.267169
v 20.562950 13.258645 -6.410467
v 22.025024 10.364103 -6.278654
v 21.367666 11.933406 -6.064705
v 21.014803 12.703263 -8.681039
v 21.657173 11.397214 -9.679523
v 20.021463 12.640878 -8.648456
v 21.139614 12.608759 -10.030765
v 21.091240 11.341071 -10.685991
v 19.148596 13.200314 -8.030881
v 19.695969 12.882141 -9.381426
v 18.174675 13.249062 -9.039775
v 17.689646 12.286484 -7.732952
v 16.816141 12.069633 -7.984688
v 20.899460 8.978725 -4.921111
v 22.247725 10.930525 -8.625141
v 21.418470 10.683619 -10.198297
v 22.149673 10.870104 -9.311269
v 21.614986 9.966716 -9.717257
v 15.430114 11.330858 -8.164357
v 16.406696 11.354834 -8.389397
v 16.790470 11.740595 -9.019916
v 15.399166 11.697858 -6.968199
v 20.164289 5.958688 -6.085986
v 20.493450 6.991158 -5.557775
v 21.111734 6.894447 -6.034203
v 20.651026 7.694654 -4.770069
v 22.342133 9.721292 -7.402744
v 22.795630 8.491380 -6.997235
v 22.344009 9.464995 -8.907593
v 15.187598 9.391935 -7.470555
v 14.883396 10.992060 -7.448793
v 18.977427 6.644620 -7.207407
v 20.757761 5.606683 -6.626677
v 21.951038 6.385160 -7.642619
v 22.133085 6.595686 -8.619697
v 15.990130 8.594729 -8.039816
v 17.944576 7.136011 -9.009165
v 18.744133 8.173006 -10.404858
v 19.681015 14.364906 -11.248370
v 11.004701 12.671095 -12.484409
v 19.874157 7.923800 -4.688568
v 17.585217 9.610399 -10.663720
vt 0.556647 0.707540
vt 0.556491 0.772449
vt 0.558485 0.772470
vt 0.559540 0.707540
vt 0.557184 0.660502
vt 0.550676 0.660502
vt 0.553755 0.707540
vt 0.549045 0.660502
vt 0.550676 0.660502
vt 0.553755 0.705536
vt 0.553755 0.706538
vt 0.555084 0.660502
vt 0.563692 0.660502
vt 0.561953 0.660502
vt 0.559540 0.706538
vt 0.556787 0.660502
vt 0.561876 0.660502
vt 0.559540 0.705536
vt 0.556647 0.705536
vt 0.556348 0.771962
vt 0.553725 0.773041
vt 0.553903 0.772250
vt 0.553929 0.772643
vt 0.558496 0.772060
vt 0.553964 0.843263
vt 0.553826 0.856566
vt 0.555108 0.856847
vt 0.555353 0.843513
vt 0.553909 0.843023
vt 0.553774 0.856400
vt 0.553738 0.856540
vt 0.553886 0.843189
vt 0.557141 0.843945
vt 0.576057 0.885700
vt 0.576015 0.885615
vt 0.557058 0.843828
vt 0.555301 0.843267
vt 0.555058 0.856676
vt 0.558336 0.771316
vt 0.556110 0.856684
vt 0.558271 0.933628
vt 0.558264 0.933665
vt 0.556172 0.856589
vt 0.557663 0.933672
vt 0.557051 0.933691
vt 0.556207 0.856761
vt 0.558264 0.933604
vt 0.557110 0.843701
vt 0.575069 0.890916
vt 0.575118 0.890990
vt 0.556659 0.980336
vt 0.557057 0.933654
vt 0.557051 0.933630
vt 0.557663 0.933611
vt 0.554943 0.786654
vt 0.556153 0.787006
vt 0.555082 0.786004
vt 0.554909 0.786334
vt 0.558108 0.786735
vt 0.558322 0.785329
vt 0.556363 0.785900
vt 0.558113 0.787092
vt 0.584902 0.941823
vt 0.576026 0.885635
vt 0.575086 0.890958
vt 0.550934 0.824866
vt 0.552044 0.824765
vt 0.532638 0.839238
vt 0.532541 0.838826
vt 0.550769 0.819733
vt 0.549390 0.820124
vt 0.532871 0.838926
vt 0.534263 0.843353
vt 0.534642 0.844255
vt 0.533180 0.849658
vt 0.532039 0.851436
vt 0.534505 0.843902
vt 0.533065 0.849158
vt 0.531937 0.850842
vt 0.540540 0.891677
vt 0.540447 0.891265
vt 0.531207 0.849382
vt 0.532950 0.848526
vt 0.541980 0.888839
vt 0.542032 0.889166
vt 0.528096 0.863198
vt 0.526899 0.865119
vt 0.518265 0.862681
vt 0.518317 0.862544
vt 0.542048 0.889415
vt 0.544033 0.935886
vt 0.540604 0.892034
vt 0.521641 0.918630
vt 0.527017 0.860966
vt 0.525553 0.865355
vt 0.519971 0.866445
vt 0.514776 0.909415
vt 0.519946 0.866612
vt 0.549265 0.827363
vt 0.548467 0.867121
vt 0.549053 0.868213
vt 0.550089 0.831520
vt 0.550726 0.831532
vt 0.549462 0.868468
vt 0.550084 0.868859
vt 0.551294 0.831158
vt 0.552241 0.819826
vt 0.550256 0.824893
vt 0.546021 0.914960
vt 0.549926 0.867952
vt 0.550560 0.827091
vt 0.549295 0.867554
vt 0.551446 0.826882
vt 0.560490 0.851339
vt 0.561444 0.848923
vt 0.560903 0.849593
vt 0.566847 0.901611
vt 0.561932 0.846919
vt 0.156648 0.709276
vt 0.160143 0.684598
vt 0.165480 0.709109
vt 0.154771 0.648408
vt 0.149628 0.688280
vt 0.147349 0.653213
vt 0.160736 0.656348
vt 0.172711 0.706517
vt 0.145339 0.639662
vt 0.143155 0.627879
vt 0.132945 0.626335
vt 0.171135 0.760841
vt 0.128190 0.684980
vt 0.136060 0.672976
vt 0.131945 0.645742
vt 0.133459 0.709334
vt 0.165556 0.786284
vt 0.164177 0.746552
vt 0.133679 0.687882
vt 0.123703 0.737636
vt 0.125229 0.669708
vt 0.130812 0.740672
vt 0.144847 0.740821
vt 0.120733 0.674202
vt 0.120964 0.713533
vt 0.121231 0.660356
vt 0.151279 0.693383
vt 0.142842 0.701944
vt 0.148879 0.741387
vt 0.172716 0.784396
vt 0.177596 0.750916
vt 0.175022 0.721560
vt 0.131639 0.785240
vt 0.128785 0.807788
vt 0.126869 0.771205
vt 0.145711 0.857765
vt 0.148670 0.824460
vt 0.141100 0.835434
vt 0.164160 0.830079
vt 0.161212 0.859835
vt 0.172002 0.819818
vt 0.148176 0.869996
vt 0.153173 0.868223
vt 0.140255 0.864014
vt 0.143771 0.864792
vt 0.154897 0.836726
vt 0.164936 0.799925
vt 0.157401 0.780273
vt 0.135933 0.779215
vt 0.135932 0.817618
vt 0.141281 0.785449
vt 0.135748 0.852460
vt 0.132243 0.782970
vt 0.128568 0.805596
vt 0.130943 0.834526
vt 0.121425 0.770274
vt 0.134143 0.838762
vt 0.141222 0.835630
vt 0.139542 0.858742
vt 0.143092 0.798094
vt 0.152710 0.860967
vt 0.164532 0.852256
vt 0.169881 0.826622
vt 0.174372 0.807398
vt 0.177716 0.787002
vt 0.150749 0.787865
vt 0.119557 0.743076
vt 0.126500 0.765408
vt 0.139136 0.768872
vt 0.164090 0.804144
vt 0.158526 0.777407
vt 0.157908 0.831251
vt 0.164167 0.739856
vt 0.160521 0.676756
vt 0.159364 0.710300
vt 0.170086 0.701993
vt 0.150771 0.662950
vt 0.140288 0.653054
vt 0.129292 0.745058
vt 0.125721 0.696254
vt 0.122976 0.693494
vt 0.118721 0.709168
vt 0.148112 0.780368
vt 0.151437 0.728073
vt 0.175498 0.761164
vt 0.173769 0.819864
vt 0.175247 0.696572
vt 0.168937 0.660767
vt 0.163109 0.652946
vt 0.155906 0.628534
vt 0.127933 0.639087
vt 0.124139 0.626211
vt 0.124176 0.635677
vt 0.136213 0.636525
vt 0.148938 0.628615
vt 0.128611 0.624944
vt 0.139001 0.663721
vt 0.142855 0.698644
vt 0.152263 0.566076
vt 0.156766 0.608749
vt 0.163982 0.620592
vt 0.161421 0.656955
vt 0.147337 0.652499
vt 0.173747 0.611631
vt 0.173726 0.640238
vt 0.130378 0.710862
vt 0.141338 0.682923
vt 0.162667 0.578085
vt 0.179243 0.726055
vt 0.169992 0.684498
vt 0.164458 0.707024
vt 0.181290 0.643237
vt 0.187204 0.707005
vt 0.183142 0.654911
vt 0.188116 0.715965
vt 0.189983 0.785123
vt 0.150209 0.572135
vt 0.153255 0.623728
vt 0.142166 0.610531
vt 0.164370 0.657355
vt 0.163654 0.608945
vt 0.127983 0.587991
vt 0.124159 0.633040
vt 0.117022 0.683776
vt 0.144423 0.783366
vt 0.138430 0.739373
vt 0.131777 0.795259
vt 0.157324 0.736942
vt 0.157727 0.791226
vt 0.179912 0.669468
vt 0.186790 0.738792
vt 0.175921 0.702009
vt 0.175810 0.814570
vt 0.178534 0.867784
vt 0.184005 0.805110
vt 0.162705 0.876139
vt 0.174758 0.850218
vt 0.172417 0.898420
vt 0.144869 0.933263
vt 0.135204 0.871171
vt 0.139232 0.855461
vt 0.129818 0.911471
vt 0.121134 0.882013
vt 0.114844 0.826373
vt 0.124366 0.902137
vt 0.140420 0.935952
vt 0.147020 0.940694
vt 0.127989 0.863142
vt 0.136568 0.909555
vt 0.131863 0.797898
vt 0.150617 0.895453
vt 0.153738 0.940303
vt 0.156522 0.898681
vt 0.157651 0.817183
vt 0.182029 0.859673
vt 0.165019 0.922188
vt 0.187682 0.813039
vt 0.162745 0.922069
vt 0.154912 0.929039
vt 0.162368 0.874905
vt 0.170751 0.892697
vt 0.169982 0.858591
vt 0.153561 0.896983
vt 0.133361 0.912589
vt 0.142073 0.899943
vt 0.115948 0.843244
vt 0.112822 0.744179
vt 0.117915 0.794352
vt 0.123573 0.769808
vt 0.145679 0.752556
vt 0.135674 0.745610
vt 0.124969 0.713527
vt 0.135317 0.597642
vt 0.159956 0.729980
vt 0.170282 0.769372
vt 0.180453 0.800781
vt 0.188823 0.784124
vt 0.150399 0.832685
vt 0.132891 0.841526
vt 0.164093 0.780309
vt 0.123713 0.848712
vt 0.127286 0.655872
vt 0.174621 0.636403
vt 0.176591 0.765851
vt 0.152862 0.695772
vt 0.118789 0.769350
vt 0.119728 0.690135
vt 0.138553 0.532470
vt 0.138550 0.545787
vt 0.128219 0.629474
vt 0.145970 0.547345
vt 0.157576 0.572085
vt 0.170261 0.599637
vt 0.141290 0.602809
vt 0.148451 0.577324
vt 0.175383 0.603116
vt 0.164097 0.593231
vt 0.161193 0.608145
vt 0.135626 0.744244
vt 0.141526 0.613874
vt 0.126825 0.677343
vt 0.129603 0.625998
vt 0.115638 0.753066
vt 0.171002 0.578643
vt 0.183894 0.575605
vt 0.181842 0.611620
vt 0.179105 0.559701
vt 0.150065 0.566961
vt 0.153826 0.579862
vt 0.166212 0.561555
vt 0.125975 0.768301
vt 0.161728 0.676820
vt 0.167398 0.715658
vt 0.178584 0.666595
vt 0.146354 0.644545
vt 0.156459 0.687999
vt 0.150597 0.768654
vt 0.187953 0.641176
vt 0.187986 0.699281
vt 0.190477 0.663090
vt 0.143663 0.637315
vt 0.131309 0.697086
vt 0.137754 0.603583
vt 0.166908 0.779145
vt 0.175513 0.720600
vt 0.182950 0.629638
vt 0.183511 0.754592
vt 0.133316 0.768599
vt 0.151966 0.734586
vt 0.121701 0.725007
vt 0.132999 0.828871
vt 0.118821 0.794855
vt 0.142302 0.870519
vt 0.154182 0.911992
vt 0.148259 0.853513
vt 0.158314 0.854607
vt 0.166960 0.900594
vt 0.166518 0.826048
vt 0.182786 0.824053
vt 0.178855 0.878862
vt 0.175534 0.884638
vt 0.168413 0.943470
vt 0.165822 0.827368
vt 0.157354 0.841377
vt 0.168469 0.850929
vt 0.137954 0.947618
vt 0.125620 0.863857
vt 0.129891 0.927710
vt 0.147474 0.935607
vt 0.150305 0.960188
vt 0.159364 0.945211
vt 0.146939 0.790376
vt 0.166059 0.935579
vt 0.178922 0.803719
vt 0.172722 0.874967
vt 0.173329 0.918402
vt 0.181429 0.823886
vt 0.165377 0.949232
vt 0.175107 0.876023
vt 0.176523 0.803700
vt 0.155268 0.943471
vt 0.160474 0.931342
vt 0.146663 0.917352
vt 0.139908 0.935076
vt 0.130367 0.903100
vt 0.167534 0.759293
vt 0.185181 0.807637
vt 0.180515 0.763775
vt 0.186697 0.779663
vt 0.183950 0.732547
vt 0.115110 0.837776
vt 0.124380 0.869104
vt 0.130091 0.863809
vt 0.118041 0.849621
vt 0.166500 0.583722
vt 0.166402 0.623599
vt 0.174547 0.627419
vt 0.164066 0.680182
vt 0.186507 0.749660
vt 0.187624 0.669937
vt 0.190210 0.721064
vt 0.116179 0.713626
vt 0.115022 0.798584
vt 0.153365 0.572845
vt 0.173113 0.566832
vt 0.186484 0.585701
vt 0.187040 0.593973
vt 0.121234 0.652899
vt 0.145619 0.572198
vt 0.153542 0.616610
vt 0.150998 0.841564
vt 0.131932 0.882949
vt 0.155369 0.674619
vt 0.140774 0.687894
vn 0.0298 -0.0239 -0.9993
vn 0.1166 0.1534 -0.9813
vn -0.9042 0.3838 0.1874
vn 0.0000 -1.0000 -0.0000
vn 0.9459 0.2454 0.2123
vn 0.1994 0.3842 0.9015
vn 0.9801 0.1982 0.0090
vn -0.9195 0.3560 -0.1666
vn 0.0633 0.0599 0.9962
vn -0.9986 0.0479 -0.0206
vn -0.1323 0.4027 0.9057
vn -0.0599 0.1495 -0.9869
vn 1.0000 0.0015 0.0076
vn -0.0047 -0.0606 -0.9982
vn -0.9972 0.0650 0.0371
vn 0.5105 -0.8590 -0.0379
vn 0.0283 0.1095 0.9936
vn -0.0483 0.0690 0.9964
vn -0.0765 -0.0042 -0.9971
vn 0.9962 0.0234 0.0840
vn -0.9962 0.0256 -0.0828
vn 0.9302 -0.3651 -0.0391
vn -0.0572 0.4181 0.9066
vn 0.9135 -0.3869 -0.1259
vn -0.3550 0.4757 0.8048
vn 0.2269 -0.0789 -0.9707
vn -0.9945 0.0625 0.0838
vn -0.2905 0.1384 0.9468
vn -0.4352 0.8999 0.0288
vn 0.9776 -0.0493 -0.2047
vn -0.6568 0.2132 0.7233
vn -0.9725 0.1286 0.1942
vn 0.6762 -0.1396 -0.7234
vn -0.8950 0.4454 0.0258
vn 0.0761 -0.3538 -0.9322
vn 0.3478 -0.4138 -0.8413
vn -0.8743 0.4708 0.1179
vn -0.0582 -0.3461 -0.9364
vn -0.9994 0.0201 0.0298
vn 0.9995 -0.0059 -0.0310
vn 0.0728 0.3769 0.9234
vn -0.2674 0.2473 0.9313
vn 0.9997 -0.0087 -0.0241
vn -0.9953 0.0960 -0.0128
vn 0.2659 -0.1492 -0.9524
vn 0.1286 -0.3286 -0.9357
vn -1.0000 0.0049 0.0060
vn -0.1817 0.3563 0.9165
vn 1.0000 0.0027 -0.0082
vn 0.2622 0.0775 -0.9619
vn -0.8411 0.5400 -0.0319
vn -0.1840 0.1511 0.9712
vn -0.4356 0.9000 0.0161
vn 0.1913 -0.0638 -0.9795
vn 0.5093 -0.8606 -0.0029
vn 0.8869 -0.4611 0.0289
vn -0.2601 0.0280 0.9652
vn -0.8445 0.5356 0.0003
vn 0.8886 -0.4587 0.0095
vn 0.9944 0.1035 0.0202
vn 0.0243 0.8943 -0.4467
vn -0.5643 -0.8217 0.0804
vn 0.0182 -0.1966 -0.9803
vn 0.0688 -0.8385 0.5406
vn 0.9950 0.0500 0.0864
vn -0.4310 -0.0330 -0.9018
vn -0.1525 -0.2308 -0.9610
vn 0.3783 0.2643 0.8872
vn 0.7227 0.6853 -0.0895
vn 0.5148 0.8550 -0.0635
vn -0.6020 -0.7984 -0.0105
vn 0.5043 0.8577 -0.1003
vn 0.5301 0.2499 0.8103
vn -0.7715 0.5330 0.3474
vn 0.8379 -0.5274 -0.1409
vn 0.6357 0.7390 0.2230
vn -0.3672 -0.8699 0.3293
vn 0.6731 0.7156 -0.1867
vn -0.8268 -0.4783 0.2962
vn 0.2304 -0.2762 0.9331
vn 0.9954 0.0785 -0.0557
vn 0.8527 -0.5162 -0.0806
vn 0.3378 0.0431 0.9402
vn -0.3686 0.0104 -0.9295
vn -0.8658 0.4995 0.0291
vn -0.2285 0.3991 -0.8880
vn -0.9936 0.0415 0.1047
vn 0.9887 0.0999 -0.1120
vn -0.9866 0.0209 0.1618
vn 0.5305 0.4873 0.6936
vn 0.4565 -0.3584 -0.8143
vn -0.7237 -0.6810 -0.1118
vn 0.1515 0.7763 0.6119
vn 0.4012 0.1748 -0.8991
vn -0.5940 -0.4396 -0.6737
vn -0.0816 0.1478 0.9856
vn 0.0050 0.1474 -0.9891
vn 0.6973 0.3403 0.6309
vn 0.0518 0.8617 -0.5048
vn -0.7164 -0.2921 -0.6336
vn 0.7245 0.2198 0.6533
vn -0.5970 -0.1614 0.7858
vn -0.7172 -0.1920 -0.6698
vn -0.9378 0.0647 -0.3412
vn -0.0208 0.4013 -0.9157
vn 0.9795 0.1605 0.1217
vn -0.0865 0.8897 -0.4483
vn 0.0079 -0.8308 0.5564
vn -0.9144 0.2844 -0.2881
vn 0.9420 0.3306 -0.0582
vn 0.0323 0.2171 -0.9756
vn 0.0537 -0.3541 0.9337
vn -0.1164 0.3821 -0.9168
vn 0.9659 0.2065 -0.1562
vn 0.0431 -0.3699 0.9281
vn -0.1565 -0.1315 0.9789
vn 0.0991 0.2332 -0.9674
vn -0.9368 -0.1357 -0.3224
vn -0.1404 -0.1273 0.9819
vn 0.1491 -0.5026 0.8516
vn -0.3921 0.3787 -0.8383
vn -0.1922 0.5747 -0.7955
vn 0.1532 -0.4968 0.8542
vn -0.1145 0.6068 -0.7866
vn -0.9100 -0.0223 -0.4140
vn -0.7898 -0.0041 0.6134
vn -0.5712 0.6565 0.4927
vn 0.3894 -0.2946 0.8727
vn 0.6273 -0.5822 -0.5172
vn -0.2133 0.5508 -0.8069
vn 0.2019 -0.4792 0.8542
vn 0.7845 0.1062 -0.6109
vn -0.1671 -0.3390 0.9258
vn 0.0581 -0.7867 0.6146
vn 0.6704 -0.5923 0.4470
vn -0.2316 -0.8705 -0.4343
vn 0.6364 -0.1502 0.7566
vn -0.3411 -0.3724 -0.8631
vn -0.4058 -0.5604 -0.7220
vn 0.7944 -0.3245 0.5135
vn -0.3136 -0.1336 0.9401
vn -0.2911 -0.1799 0.9396
vn -0.9110 -0.2107 -0.3544
vn -0.2032 -0.1205 -0.9717
vn 0.6190 0.0769 -0.7816
vn -0.0296 0.5433 0.8390
vn -0.4272 0.8018 -0.4180
vn 0.5996 0.7563 -0.2618
vn -0.4815 0.8449 0.2330
vn -0.1360 0.9638 -0.2291
vn -0.1238 0.9856 -0.1148
vn -0.0981 0.7081 -0.6993
vn 0.2318 0.6746 -0.7008
vn 0.1469 0.6061 -0.7817
vn -0.7665 0.1414 -0.6264
vn -0.8786 0.4723 0.0711
vn -0.7096 0.6028 0.3648
vn -0.3820 0.5108 0.7702
vn -0.6258 0.7730 0.1036
vn 0.1705 0.0712 0.9828
vn -0.4718 0.7297 0.4949
vn -0.3661 0.5891 0.7204
vn -0.1320 0.9888 -0.0694
vn 0.0791 0.9880 -0.1323
vn -0.4867 -0.8734 -0.0152
vn 0.4166 0.8801 -0.2277
vn 0.6912 0.6527 -0.3102
vn 0.6976 0.6484 -0.3049
vn -0.0598 0.1486 -0.9871
vn -0.0801 0.0267 -0.9964
vn -0.4956 -0.0140 -0.8685
vn -0.3239 -0.0203 -0.9459
vn -0.0570 0.1470 -0.9875
vn -0.7828 0.2688 -0.5612
vn -0.6636 0.1397 -0.7349
vn -0.8997 0.1313 -0.4163
vn -0.8399 0.5416 0.0345
vn -0.8815 0.2433 -0.4046
vn -0.4055 -0.2510 0.8789
vn 0.1651 0.1164 0.9794
vn -0.0137 0.1245 0.9921
vn -0.2015 0.4354 0.8774
vn 0.2117 -0.1376 0.9676
vn -0.2685 0.3255 0.9066
vn 0.6153 0.6881 -0.3846
vn 0.9462 0.0604 0.3178
vn 0.4004 0.5656 0.7210
vn 0.4882 0.0211 -0.8725
vn 0.7891 0.0194 -0.6140
vn 0.2373 -0.2148 -0.9474
vn 0.6683 -0.3512 -0.6558
vn 0.2425 0.0248 -0.9698
vn 0.4031 -0.5035 -0.7642
vn -0.1597 -0.7352 -0.6588
vn -0.8697 0.4928 0.0281
vn -0.8712 0.4901 0.0293
vn -0.8432 0.5361 0.0393
vn -0.6681 -0.5196 0.5326
vn -0.3442 -0.2804 0.8960
vn -0.0036 0.1283 0.9917
vn -0.6132 -0.1953 0.7654
vn -0.2300 -0.2729 0.9342
vn 0.5113 0.1091 0.8524
vn 0.8819 0.3624 0.3016
vn 0.3452 -0.6937 0.6322
vn 0.8664 0.2895 0.4069
vn 0.9153 -0.2176 0.3390
vn 0.9435 -0.3047 0.1300
vn 0.7674 -0.4585 -0.4483
vn 0.7648 -0.4611 -0.4500
vn 0.2635 -0.8194 -0.5090
vn 0.4330 -0.8063 -0.4030
vn -0.1924 -0.8818 -0.4306
vn -0.2332 -0.6649 -0.7096
vn 0.3696 -0.9019 -0.2237
vn -0.2176 -0.8928 -0.3945
vn -0.5728 -0.8183 0.0468
vn -0.9952 -0.0598 -0.0778
vn -0.8454 -0.5042 -0.1761
vn -0.8607 -0.3950 0.3212
vn -0.8215 -0.5598 -0.1083
vn 0.7951 -0.2858 0.5350
vn 0.5410 -0.8241 -0.1678
vn 0.9457 -0.3235 -0.0320
vn 0.1956 -0.4067 0.8924
vn -0.1195 -0.5241 0.8432
vn -0.2906 -0.7857 0.5461
vn 0.4877 -0.7586 0.4321
vn -0.4048 -0.3540 0.8431
vn -0.4653 -0.3813 0.7989
vn -0.2402 -0.7288 0.6412
vn -0.0243 -0.8159 0.5777
vn -0.0822 -0.5458 0.8339
vn 0.0172 -0.7849 0.6194
vn 0.1912 -0.2187 0.9569
vn 0.5148 -0.8217 -0.2446
vn 0.7008 -0.6029 -0.3815
vn 0.5147 -0.6860 -0.5144
vn 0.3147 -0.9170 -0.2451
vn -0.6234 -0.7479 0.2282
vn 0.6485 -0.7300 0.2155
vn 0.6501 0.0308 -0.7592
vn 0.9228 -0.3428 -0.1757
vn 0.9791 0.1256 -0.1601
vn 0.0407 -0.5972 0.8010
vn 0.1972 0.0199 0.9802
vn -0.4515 -0.5774 0.6803
vn -0.1419 0.0102 -0.9898
vn 0.0163 -0.4577 -0.8889
vn 0.4579 0.1499 -0.8763
vn 0.6943 -0.0386 0.7186
vn 0.9183 0.3607 0.1632
vn 0.7501 -0.0026 -0.6614
vn 0.2574 0.7255 0.6384
vn 0.7501 0.3737 0.5457
vn -0.8069 0.5450 0.2278
vn -0.0703 0.9962 0.0519
vn -0.4766 0.8689 0.1340
vn -0.0682 0.9962 0.0542
vn -0.8226 0.5495 0.1462
vn -0.5197 0.8052 0.2855
vn -0.4301 0.0336 0.9021
vn 0.3319 0.7788 0.5323
vn -0.0716 0.7717 0.6320
vn 0.7208 0.4523 0.5252
vn 0.0542 0.6716 0.7389
vn 0.6697 0.6069 0.4279
vn -0.1064 0.8694 0.4825
vn 0.8337 0.3308 0.4422
vn 0.6472 0.7427 0.1717
vn -0.1372 0.9127 0.3848
vn -0.2293 0.6971 -0.6793
vn 0.5101 0.8182 0.2653
vn -0.1358 0.4703 -0.8720
vn -0.5948 0.4154 -0.6883
vn -0.3045 0.9388 -0.1610
vn 0.5450 0.8238 -0.1560
vn -0.2094 0.9435 -0.2569
vn -0.0549 0.9629 -0.2642
vn -0.7726 0.5678 0.2842
vn -0.7752 0.5630 0.2867
vn -0.9951 -0.0303 0.0939
vn -0.9772 -0.1901 0.0949
vn -0.8659 -0.2911 0.4068
vn -0.9018 0.2566 0.3477
vn -0.1733 0.8179 0.5486
vn -0.7062 0.1581 0.6902
vn 0.0549 0.6572 0.7517
vn 0.5191 -0.2277 0.8238
vn 0.1294 -0.3141 0.9405
vn 0.7100 -0.0477 0.7026
vn 0.6256 -0.1348 0.7684
vn 0.6599 0.5297 0.5328
vn 0.2683 0.8718 0.4098
vn 0.0740 0.7096 0.7007
vn 0.1244 0.8756 0.4667
vn 0.2351 0.9281 -0.2887
vn -0.1648 0.7644 -0.6234
vn 0.6500 0.6943 -0.3090
vn -0.0060 -0.1422 -0.9898
vn -0.1190 -0.1853 -0.9754
vn -0.0021 0.7958 -0.6055
vn -0.8261 -0.3357 0.4526
vn -0.6105 -0.0526 0.7903
vn -0.2360 -0.8815 0.4090
vn -0.0014 0.1813 0.9834
vn 0.8433 -0.2512 0.4751
vn 0.4543 0.0636 -0.8886
vn 0.9150 -0.3408 -0.2161
vn 0.6376 -0.2722 -0.7207
vn 0.7562 -0.2179 -0.6170
vn 0.7877 -0.2306 -0.5713
vn 0.7133 -0.3367 -0.6147
vn -0.5284 -0.2673 -0.8058
vn -0.8401 -0.2500 -0.4815
vn -0.5954 -0.3638 -0.7164
vn -0.8097 -0.2338 -0.5383
vn -0.8065 -0.5795 -0.1174
vn -0.8174 -0.2163 -0.5340
vn -0.5429 -0.7231 0.4271
vn -0.7302 -0.6380 -0.2445
vn 0.6862 -0.4961 0.5320
vn 0.3462 -0.8905 0.2952
vn 0.5044 -0.6363 0.5837
vn 0.2065 -0.8175 0.5376
vn 0.4885 -0.8267 0.2792
vn 0.7051 -0.6726 -0.2245
vn 0.8059 -0.5873 -0.0751
vn 0.7080 -0.6325 -0.3142
vn -0.2567 -0.5514 -0.7937
vn -0.0685 -0.7409 -0.6682
vn -0.0112 -0.7311 -0.6822
vn 0.3836 -0.9003 -0.2057
vn 0.2262 -0.7403 -0.6331
vn 0.4575 -0.5173 -0.7232
vn 0.0645 -0.9118 -0.4055
vn 0.0232 -0.6795 -0.7333
vn 0.7099 -0.6239 -0.3269
vn -0.0320 -0.4236 -0.9053
vn -0.2951 -0.2608 -0.9192
vn -0.9004 -0.4165 0.1257
vn -0.0555 -0.8079 -0.5867
vn 0.0586 -0.7916 -0.6082
vn -0.0539 -0.9701 -0.2365
vn -0.2141 -0.4933 -0.8431
vn 0.4338 -0.6371 -0.6371
vn -0.5434 -0.0367 -0.8387
vn 0.5657 -0.2527 -0.7850
vn -0.1173 -0.1216 -0.9856
vn 0.7720 0.5437 -0.3292
vn 0.8495 -0.1856 -0.4938
vn -0.6045 -0.6942 0.3907
vn 0.5152 -0.2121 -0.8304
vn 0.8786 -0.2126 0.4276
vn -0.3338 0.1535 0.9300
vn -0.3843 -0.0980 0.9180
vn -0.2281 0.4729 -0.8511
vn 0.3158 0.5685 -0.7597
vn 0.9353 0.2289 -0.2699
vn 0.7417 0.5835 -0.3308
vn -0.0480 -0.0033 0.9988
vn 0.3784 0.9188 0.1123
vn 0.1014 0.5652 0.8187
vn -0.2845 0.8345 0.4718
vn -0.3453 0.8801 0.3259
vn 0.3559 0.6314 0.6889
vn 0.0525 0.8513 0.5220
vn -0.3347 0.5430 0.7702
vn 0.5132 0.7525 0.4128
vn -0.3337 0.6131 0.7160
vn -0.1682 0.3696 0.9138
vn 0.6665 0.7279 0.1611
vn 0.7886 0.2540 0.5600
vn 0.9834 0.1254 -0.1314
vn 0.8946 0.4459 0.0279
vn 0.8996 0.4367 0.0075
vn -0.0625 0.9980 0.0041
vn 0.0590 0.9962 -0.0643
vn 0.9122 0.4059 0.0559
vn 0.8451 0.2197 -0.4874
vn 0.1468 0.8274 -0.5421
vn 0.0560 0.7765 -0.6277
vn 0.2597 0.9581 -0.1204
vn -0.5412 0.5439 -0.6413
vn 0.1672 0.9793 -0.1141
vn -0.5460 0.7499 -0.3736
vn -0.4120 0.7999 0.4363
vn -0.3383 0.8132 0.4734
vn -0.0233 0.7960 -0.6049
vn -0.6135 -0.1894 0.7666
vn -0.5293 -0.3774 0.7598
vn 0.9661 -0.0829 0.2445
vn 0.2127 -0.1859 0.9593
vn 0.6208 0.1854 0.7617
vn 0.7271 0.6781 -0.1071
vn 0.7768 -0.1899 -0.6004
vn 0.7274 0.2273 -0.6474
vn 0.4446 -0.3803 -0.8110
vn 0.1136 0.1202 -0.9862
vn -0.3377 0.0442 -0.9402
vn 0.1106 0.8164 0.5668
vn -0.8162 0.5562 -0.1565
vn -0.1982 0.5664 -0.7999
vn -0.5163 0.7260 -0.4543
vn -0.2210 -0.3874 0.8950
vn 0.4707 -0.5161 0.7156
vn 0.3384 -0.7345 0.5883
vn 0.9366 0.2728 -0.2199
vn 0.6784 0.5478 0.4895
vn 0.5763 -0.1342 0.8062
vn 0.9382 0.2779 -0.2063
vn 0.9865 0.1619 -0.0263
vn 0.4396 -0.4142 -0.7970
vn -0.2595 0.4308 -0.8643
vn 0.1528 0.0967 -0.9835
vn -0.3165 0.2079 -0.9255
vn -0.6915 0.4485 0.5663
vn -0.4241 0.8627 -0.2756
vn -0.7555 -0.1349 -0.6411
vn -0.8415 0.3172 0.4373
vn -0.7486 -0.5009 0.4344
vn -0.6769 -0.5302 0.5106
vn -0.2540 -0.8487 0.4638
vn -0.7921 -0.4741 -0.3844
vn 0.6425 -0.7577 -0.1147
vn 0.4241 -0.4721 0.7728
vn -0.4237 -0.7423 0.5191
vn 0.3409 -0.8838 0.3205
vn 0.1794 -0.7629 -0.6212
vn 0.8180 -0.5744 0.0286
vn 0.8588 -0.1247 -0.4969
vn 0.5062 0.0655 -0.8599
vn -0.7664 -0.4320 -0.4755
vn -0.6948 -0.6420 0.3242
vn -0.9088 -0.3868 -0.1561
vn -0.3265 -0.4328 -0.8403
vn 0.2151 -0.1238 -0.9687
vn -0.1103 -0.2671 -0.9573
vn 0.2995 -0.6390 -0.7085
vn -0.0286 -0.9476 -0.3183
vn -0.2357 -0.3488 -0.9071
vn -0.2181 -0.4764 0.8518
vn -0.4887 -0.8054 0.3355
vn -0.2756 -0.7979 0.5360
vn -0.2273 0.9010 0.3695
vn -0.2679 -0.8918 0.3646
vn 0.0974 -0.9458 -0.3097
vn 0.0956 -0.9608 -0.2604
vn 0.8096 -0.2113 0.5476
vn 0.6082 -0.1688 0.7756
vn 0.6529 -0.5650 0.5045
vn -0.3985 -0.0148 0.9170
vn -0.3231 -0.1587 0.9330
vn -0.9908 0.1240 0.0545
vn -0.7389 -0.5013 -0.4502
vn -0.6312 -0.6174 -0.4694
vn 0.7744 -0.4586 -0.4360
vn 0.6415 0.0924 -0.7616
vn 0.2211 -0.2185 0.9505
vn -0.4034 -0.2242 0.8872
vn -0.9865 -0.1166 0.1153
vn -0.1186 0.5083 0.8530
vn 0.3197 0.3915 -0.8629
vn 0.5595 0.8080 0.1849
vn -0.2695 0.2239 0.9366
vn -0.9619 0.2619 -0.0791
vn -0.6306 0.6828 -0.3689
vn 0.3051 0.9512 -0.0465
vn 0.0724 0.9513 -0.2996
vn 0.2102 0.8858 -0.4138
vn 0.6366 0.7712 -0.0013
vn -0.3471 0.6966 -0.6279
vn -0.6320 0.7677 -0.1062
vn 0.0244 0.9261 -0.3764
vn -0.5627 0.8069 0.1800
vn -0.1182 0.9602 0.2530
vn -0.7653 0.5617 0.3144
vn 0.1162 0.9928 0.0278
vn 0.7390 -0.0323 -0.6730
vn -0.5560 0.8309 0.0208
vn 0.0017 0.9322 0.3619
vn -0.3310 0.5153 0.7905
vn -0.4319 0.5565 0.7097
vn 0.1276 0.8871 0.4435
vn 0.2303 0.9511 0.2059
vn 0.1344 0.8841 0.4476
vn 0.5906 0.2891 -0.7534
vn 0.8364 0.3516 -0.4204
vn 0.6813 0.4973 -0.5371
vn -0.5434 0.2541 -0.8001
vn -0.8958 0.1394 0.4220
vn -0.2102 -0.5107 0.8337
vn 0.5388 0.0965 0.8369
vn 0.3020 -0.7226 0.6218
vn 0.4323 -0.5225 -0.7349
vn 0.2806 0.1422 -0.9492
vn -0.6023 0.2400 -0.7613
vn -0.5987 0.2429 -0.7632
vn -0.8637 0.3684 -0.3440
vn -0.8997 -0.1768 0.3991
vn -0.2656 -0.1835 0.9465
vn -0.2045 -0.2666 0.9419
vn -0.5139 -0.0995 0.8520
vn -0.6539 -0.0619 0.7540
vn 0.0045 0.3036 0.9528
vn 0.0664 -0.1113 0.9916
vn 0.0181 -0.2078 0.9780
vn 0.1678 -0.7271 0.6657
vn 0.0705 -0.4397 0.8954
vn 0.8596 0.2034 0.4687
vn 0.9720 0.1003 0.2125
vn -0.2188 -0.8983 -0.3811
vn -0.4730 -0.0518 -0.8795
vn -0.8041 -0.2027 0.5588
vn -0.4256 -0.5374 0.7280
vn -0.3457 -0.4916 0.7993
vn -0.2875 -0.5243 0.8016
vn 0.3819 -0.7868 0.4848
vn 0.1925 -0.5486 0.8136
vn -0.2076 -0.5006 0.8404
vn 0.6611 -0.1365 0.7378
vn 0.4523 -0.0112 0.8918
vn -0.3386 -0.7164 -0.6101
vn 0.0083 -0.9223 0.3863
vn 0.5021 -0.8434 0.1912
vn 0.5784 0.5639 -0.5895
vn 0.6688 -0.6924 0.2709
vn -0.6054 -0.4806 -0.6344
vn -0.6090 -0.3357 -0.7186
vn 0.8611 -0.4453 -0.2452
vn 0.7328 -0.0389 0.6793
vn 0.9751 -0.2104 -0.0695
vn 0.3381 -0.0859 -0.9372
vn 0.4214 0.1339 -0.8969
vn 0.1055 -0.3067 0.9459
vn -0.9391 -0.1647 0.3018
vn 0.1777 0.9123 0.3689
vn 0.2297 -0.1610 0.9599
vn -0.8074 0.5338 0.2513
vn -0.3045 0.9308 0.2024
vn -0.0677 0.9963 0.0532
vn -0.3392 0.7740 0.5347
vn 0.6327 0.4700 0.6154
vn -0.0727 0.8720 0.4842
vn -0.0466 0.7824 0.6210
vn 0.5555 0.5314 0.6396
vn 0.9590 0.2637 -0.1040
vn 0.1996 0.3624 -0.9104
vn 0.9882 0.1317 -0.0778
vn 0.1092 0.9940 0.0093
vn 0.3571 0.9339 -0.0190
vn -0.6502 0.1509 0.7446
vn -0.4477 0.6528 -0.6111
vn 0.2548 0.9481 -0.1903
vn -0.1619 0.9220 -0.3516
vn -0.1756 0.9657 -0.1911
vn 0.1132 0.8736 -0.4733
vn 0.8427 -0.4698 -0.2627
vn -0.3660 0.3144 0.8759
vn 0.6982 -0.1184 0.7060
vn 0.7320 -0.0999 0.6740
vn 0.8695 0.0138 0.4938
vn 0.1735 0.5874 -0.7905
vn 0.7292 -0.2126 -0.6504
vn 0.1763 0.2877 -0.9414
vn -0.1335 0.3384 -0.9315
vn -0.0777 -0.0939 -0.9925
vn -0.8022 -0.5960 0.0349
vn -0.2269 0.4229 -0.8773
vn -0.6499 0.7570 -0.0677
vn -0.1196 -0.0652 0.9907
vn -0.6376 -0.5487 0.5408
vn 0.3886 -0.2819 0.8773
vn -0.6897 -0.6612 -0.2951
vn 0.3119 0.3412 0.8867
vn 0.4812 0.0553 0.8749
vn 0.3125 0.3512 0.8826
vn 0.8580 0.2035 -0.4716
vn 0.6296 -0.3078 -0.7133
vn 0.3266 -0.3792 -0.8657
vn -0.7086 0.5691 -0.4172
vn -0.4418 -0.2608 -0.8584
vn 0.0214 -0.8983 -0.4389
vn -0.7833 -0.4843 0.3898
vn 0.5939 -0.5210 0.6131
vn 0.5070 -0.8443 0.1738
vn 0.5211 -0.5215 0.6756
vn 0.1775 0.5490 0.8168
vn 0.8226 -0.4661 0.3256
vn 0.5093 -0.3283 0.7955
vn -0.6071 0.6667 -0.4324
vn 0.1701 -0.8483 -0.5014
vn -0.6068 -0.7908 -0.0800
vn 0.4462 -0.4988 -0.7430
vn 0.3072 0.0045 -0.9516
vn 0.8464 -0.5080 0.1598
vn 0.0833 -0.6612 -0.7455
vn 0.7741 -0.6051 -0.1863
vn 0.1911 -0.8700 -0.4546
vn -0.5376 -0.8028 -0.2580
vn -0.4143 -0.7134 -0.5651
vn 0.1958 -0.8424 -0.5020
vn -0.1788 -0.6501 -0.7385
vn -0.8489 0.0029 -0.5285
vn 0.3925 -0.2159 -0.8941
vn 0.6129 -0.6029 0.5107
vn 0.7937 -0.4453 0.4144
vn -0.2119 -0.5294 0.8215
vn 0.7669 0.0884 -0.6357
vn -0.3292 0.4495 -0.8304
vn 0.9718 0.0589 -0.2281
vn 0.1651 0.5226 -0.8365
vn 0.6283 -0.4598 0.6275
vn -0.3632 0.1667 0.9167
vn -0.3229 -0.1840 0.9284
vn -0.3690 0.6255 -0.6874
vn 0.6830 -0.2887 0.6709
vn 0.2004 0.9119 0.3582
vn -0.5029 0.2877 0.8151
vn -0.4114 0.9037 0.1190
vn 0.4420 0.4681 0.7652
vn 0.6468 0.5347 0.5438
vn 0.8232 0.2773 0.4954
vn -0.0707 0.8782 -0.4730
vn 0.5535 0.8324 0.0282
vn 0.4530 0.8869 0.0908
vn 0.2548 0.9610 -0.1073
vn -0.0298 0.9752 -0.2192
vn -0.5416 0.7495 -0.3808
vn 0.4080 0.8841 -0.2278
vn -0.3867 0.1656 0.9072
vn -0.5215 0.7965 0.3061
vn 0.3598 -0.0816 0.9294
vn 0.7177 0.0931 0.6901
vn -0.6914 0.6298 -0.3540
vn 0.7302 0.6762 0.0976
vn 0.7361 0.4270 0.5252
vn 0.9844 0.0934 -0.1489
vn 0.7754 0.6096 -0.1645
vn -0.0673 -0.3836 -0.9210
vn -0.6645 0.0929 -0.7414
vn -0.5531 -0.0077 -0.8331
vn 0.1669 0.0548 0.9845
vn -0.5690 0.7460 -0.3460
vn 0.5388 -0.2491 -0.8048
vn -0.5223 -0.2794 0.8057
vn -0.1836 -0.7327 0.6553
vn -0.1427 -0.7239 0.6750
vn 0.9977 0.0675 -0.0103
vn 0.9024 0.3626 -0.2326
vn 0.9332 -0.3323 -0.1368
vn 0.9611 -0.2459 0.1261
vn 0.8681 0.0672 -0.4919
vn 0.3784 -0.1867 -0.9066
vn -0.5342 -0.8182 -0.2126
vn 0.2880 0.1013 -0.9523
vn 0.0920 0.2560 -0.9623
vn -0.7080 0.6698 -0.2238
vn -0.9805 0.1623 0.1107
vn -0.8640 -0.2362 0.4447
vn -0.9033 -0.1770 0.3908
vn -0.2572 -0.9455 0.1997
vn -0.0104 -0.8432 0.5375
vn 0.3519 -0.8954 -0.2728
vn 0.7310 -0.4406 0.5210
vn 0.7351 -0.1754 -0.6549
vn -0.0459 -0.0767 -0.9960
vn -0.7221 -0.6898 -0.0519
vn -0.3860 -0.7461 -0.5426
vn -0.4143 -0.3301 -0.8482
vn -0.7560 -0.6439 0.1181
vn 0.1557 -0.9004 0.4063
vn -0.0079 -0.7438 -0.6684
vn 0.3561 -0.5260 -0.7724
vn 0.4369 -0.6322 -0.6399
usemtl AllColors_Material
f 1/1/1 2/2/1 3/3/1 4/4/1
f 5/5/2 6/6/2 7/7/2 1/1/2
f 8/8/3 9/9/3 10/10/3 11/11/3
f 12/12/4 5/5/4 13/13/4 14/14/4
f 14/14/5 13/13/5 4/4/5 15/15/5
f 16/16/6 17/17/6 18/18/6 19/19/6
f 17/17/7 14/14/7 15/15/7 18/18/7
f 16/16/4 12/12/4 14/14/4 17/17/4
f 6/6/8 8/8/8 11/11/8 7/7/8
f 19/19/9 20/20/9 21/21/9 10/10/9
f 11/11/10 22/22/10 23/23/10 7/7/10
f 9/9/4 8/8/4 12/12/4 16/16/4
f 9/9/11 16/16/11 19/19/11 10/10/11
f 8/8/4 6/6/4 5/5/4 12/12/4
f 13/13/12 5/5/12 1/1/12 4/4/12
f 4/4/13 3/3/13 24/24/13 15/15/13
f 25/25/14 26/26/14 27/27/14 28/28/14
f 29/29/15 30/30/15 31/31/15 32/32/15
f 33/33/16 34/34/16 35/35/16 36/36/16
f 37/37/17 38/38/17 30/30/17 29/29/17
f 18/18/18 39/39/18 20/20/18 19/19/18
f 7/7/19 23/23/19 2/2/19 1/1/19
f 15/15/20 24/24/20 39/39/20 18/18/20
f 10/10/21 21/21/21 22/22/21 11/11/21
f 40/40/22 41/41/22 42/42/22 43/43/22
f 38/38/23 44/44/23 45/45/23 30/30/23
f 46/46/24 47/47/24 41/41/24 40/40/24
f 43/43/25 42/42/25 44/44/25 38/38/25
f 28/28/26 27/27/26 46/46/26 33/33/26
f 32/32/27 31/31/27 26/26/27 25/25/27
f 48/48/28 43/43/28 38/38/28 37/37/28
f 40/40/29 49/49/29 50/50/29 46/46/29
f 47/47/30 51/51/30 41/41/30
f 42/42/31 51/51/31 44/44/31
f 52/52/32 51/51/32 53/53/32
f 54/54/33 51/51/33 47/47/33
f 30/30/34 45/45/34 52/52/34 31/31/34
f 26/26/35 53/53/35 54/54/35 27/27/35
f 27/27/36 54/54/36 47/47/36 46/46/36
f 31/31/37 52/52/37 53/53/37 26/26/37
f 55/55/38 25/25/38 28/28/38 56/56/38
f 57/57/39 29/29/39 32/32/39 58/58/39
f 59/59/40 36/36/40 48/48/40 60/60/40
f 61/61/41 37/37/41 29/29/41 57/57/41
f 44/44/42 51/51/42 45/45/42
f 41/41/43 51/51/43 42/42/43
f 45/45/44 51/51/44 52/52/44
f 53/53/45 51/51/45 54/54/45
f 56/56/46 28/28/46 33/33/46 62/62/46
f 58/58/47 32/32/47 25/25/47 55/55/47
f 60/60/48 48/48/48 37/37/48 61/61/48
f 62/62/49 33/33/49 36/36/49 59/59/49
f 50/50/50 63/63/50 34/34/50
f 49/49/51 63/63/51 50/50/51
f 48/48/52 64/64/52 65/65/52 43/43/52
f 43/43/53 65/65/53 49/49/53 40/40/53
f 46/46/54 50/50/54 34/34/54 33/33/54
f 36/36/55 35/35/55 64/64/55 48/48/55
f 34/34/56 63/63/56 35/35/56
f 64/64/57 63/63/57 65/65/57
f 65/65/58 63/63/58 49/49/58
f 35/35/59 63/63/59 64/64/59
f 3/3/60 62/62/60 59/59/60 24/24/60
f 61/61/61 66/66/61 67/67/61 60/60/61
f 21/21/62 68/68/62 69/69/62 22/22/62
f 2/2/63 56/56/63 62/62/63 3/3/63
f 20/20/64 70/70/64 71/71/64 21/21/64
f 24/24/65 59/59/65 60/60/65 39/39/65
f 23/23/66 72/72/66 73/73/66 55/55/66
f 23/23/67 55/55/67 56/56/67 2/2/67
f 74/74/68 75/75/68 76/76/68 68/68/68
f 77/77/69 78/78/69 75/75/69 74/74/69
f 58/58/70 77/77/70 74/74/70 57/57/70
f 22/22/71 69/69/71 72/72/71 23/23/71
f 55/55/72 73/73/72 77/77/72 58/58/72
f 57/57/73 74/74/73 68/68/73 21/21/73
f 79/79/74 80/80/74 81/81/74 82/82/74
f 83/83/75 84/84/75 85/85/75 78/78/75
f 73/73/76 86/86/76 87/87/76 83/83/76
f 68/68/77 88/88/77 89/89/77 69/69/77
f 73/73/78 83/83/78 78/78/78 77/77/78
f 69/69/79 79/79/79 82/82/79 72/72/79
f 90/90/80 91/91/80 92/92/80
f 85/85/81 91/91/81 90/90/81
f 78/78/82 85/85/82 90/90/82 75/75/82
f 75/75/83 90/90/83 92/92/83 76/76/83
f 82/82/84 81/81/84 84/84/84 83/83/84
f 76/76/85 92/92/85 80/80/85 79/79/85
f 81/81/86 91/91/86 84/84/86
f 92/92/87 91/91/87 80/80/87
f 84/84/88 91/91/88 85/85/88
f 80/80/89 91/91/89 81/81/89
f 86/86/90 93/93/90 87/87/90
f 72/72/91 94/94/91 86/86/91 73/73/91
f 82/82/92 95/95/92 94/94/92 72/72/92
f 83/83/93 87/87/93 95/95/93 82/82/93
f 94/94/94 93/93/94 86/86/94
f 95/95/95 93/93/95 94/94/95
f 87/87/96 93/93/96 95/95/96
f 96/96/97 97/97/97 98/98/97
f 76/76/98 98/98/98 88/88/98 68/68/98
f 79/79/99 96/96/99 98/98/99 76/76/99
f 69/69/100 89/89/100 96/96/100 79/79/100
f 98/98/101 97/97/101 88/88/101
f 88/88/102 97/97/102 89/89/102
f 89/89/103 97/97/103 96/96/103
f 99/99/104 100/100/104 101/101/104 102/102/104
f 103/103/105 104/104/105 105/105/105 106/106/105
f 60/60/106 67/67/106 107/107/106 39/39/106
f 57/57/107 108/108/107 66/66/107 61/61/107
f 39/39/108 107/107/108 70/70/108 20/20/108
f 21/21/109 71/71/109 108/108/109 57/57/109
f 105/105/110 109/109/110 110/110/110
f 101/101/111 109/109/111 104/104/111
f 111/111/112 112/112/112 100/100/112 99/99/112
f 102/102/113 101/101/113 104/104/113 103/103/113
f 106/106/114 105/105/114 110/110/114 113/113/114
f 113/113/115 110/110/115 112/112/115 111/111/115
f 110/110/116 109/109/116 112/112/116
f 104/104/117 109/109/117 105/105/117
f 100/100/118 109/109/118 101/101/118
f 112/112/119 109/109/119 100/100/119
f 107/107/120 113/113/120 111/111/120 70/70/120
f 106/106/121 114/114/121 115/115/121 67/67/121
f 108/108/122 102/102/122 103/103/122 66/66/122
f 70/70/123 111/111/123 99/99/123 71/71/123
f 66/66/124 103/103/124 106/106/124 67/67/124
f 71/71/125 99/99/125 102/102/125 108/108/125
f 116/116/126 117/117/126 114/114/126
f 113/113/127 116/116/127 114/114/127 106/106/127
f 107/107/128 118/118/128 116/116/128 113/113/128
f 67/67/129 115/115/129 118/118/129 107/107/129
f 114/114/130 117/117/130 115/115/130
f 118/118/131 117/117/131 116/116/131
f 115/115/132 117/117/132 118/118/132
f 119/119/133 120/120/133 121/121/133
f 122/122/134 123/123/134 124/124/134
f 120/120/135 125/125/135 126/126/135
f 127/127/136 128/128/136 129/129/136
f 126/126/137 130/130/137 121/121/137
f 131/131/138 132/132/138 133/133/138
f 134/134/139 132/132/139 131/131/139
f 135/135/140 136/136/140 130/130/140
f 137/137/141 138/138/141 139/139/141
f 140/140/142 137/137/142 141/141/142
f 142/142/143 143/143/143 144/144/143
f 145/145/144 146/146/144 147/147/144
f 148/148/145 149/149/145 150/150/145
f 151/151/146 152/152/146 153/153/146
f 154/154/147 155/155/147 156/156/147
f 157/157/148 158/158/148 159/159/148
f 154/154/149 160/160/149 161/161/149
f 160/160/150 162/162/150 163/163/150
f 160/160/151 154/154/151 162/162/151
f 161/161/152 164/164/152 154/154/152
f 165/165/153 164/164/153 157/157/153
f 166/166/154 164/164/154 165/165/154
f 167/167/155 168/168/155 169/169/155
f 170/170/156 168/168/156 171/171/156
f 172/172/157 173/173/157 170/170/157
f 153/153/158 152/152/158 174/174/158
f 173/173/159 152/152/159 175/175/159
f 176/176/160 175/175/160 151/151/160
f 177/177/161 176/176/161 163/163/161
f 178/178/162 176/176/162 151/151/162
f 163/163/163 179/179/163 161/161/163
f 161/161/164 179/179/164 158/158/164
f 160/160/165 163/163/165 161/161/165
f 180/180/166 181/181/166 182/182/166
f 159/159/167 148/148/167 157/157/167
f 148/148/168 159/159/168 183/183/168
f 147/147/169 184/184/169 166/166/169
f 155/155/170 184/184/170 169/169/170
f 169/169/171 146/146/171 134/134/171
f 146/146/172 169/169/172 147/147/172
f 184/184/173 147/147/173 169/169/173
f 134/134/174 167/167/174 169/169/174
f 168/168/175 167/167/175 171/171/175
f 143/143/176 185/185/176 186/186/176
f 172/172/177 185/185/177 174/174/177
f 172/172/178 186/186/178 185/185/178
f 140/140/179 153/153/179 138/138/179
f 140/140/180 151/151/180 153/153/180
f 151/151/181 140/140/181 187/187/181
f 141/141/182 187/187/182 140/140/182
f 135/135/183 188/188/183 189/189/183
f 188/188/184 190/190/184 189/189/184
f 190/190/185 188/188/185 135/135/185
f 130/130/186 181/181/186 135/135/186
f 135/135/187 181/181/187 190/190/187
f 165/165/188 191/191/188 166/166/188
f 191/191/189 165/165/189 148/148/189
f 166/166/190 191/191/190 147/147/190
f 192/192/191 193/193/191 194/194/191
f 191/191/192 193/193/192 147/147/192
f 195/195/193 145/145/193 193/193/193
f 146/146/194 145/145/194 196/196/194
f 186/186/195 197/197/195 143/143/195
f 171/171/196 197/197/196 186/186/196
f 197/197/197 198/198/197 143/143/197
f 198/198/198 131/131/198 133/133/198
f 174/174/199 138/138/199 153/153/199
f 199/199/200 200/200/200 139/139/200
f 201/201/201 178/178/201 187/187/201
f 201/201/202 202/202/202 189/189/202
f 203/203/203 182/182/203 130/130/203
f 182/182/204 183/183/204 204/204/204
f 120/120/205 123/123/205 122/122/205 125/125/205
f 149/149/206 126/126/206 205/205/206
f 183/183/207 203/203/207 126/126/207
f 126/126/208 149/149/208 183/183/208
f 206/206/209 194/194/209 150/150/209
f 206/206/210 207/207/210 194/194/210
f 192/192/211 208/208/211 127/127/211
f 207/207/212 208/208/212 192/192/212
f 196/196/213 195/195/213 127/127/213
f 145/145/214 195/195/214 196/196/214
f 127/127/215 195/195/215 192/192/215
f 129/129/216 133/133/216 127/127/216
f 209/209/217 133/133/217 129/129/217
f 210/210/218 144/144/218 209/209/218
f 209/209/219 198/198/219 133/133/219
f 209/209/220 144/144/220 198/198/220
f 144/144/221 211/211/221 142/142/221
f 126/126/222 206/206/222 205/205/222
f 207/207/223 206/206/223 208/208/223
f 205/205/224 206/206/224 150/150/224
f 125/125/225 206/206/225 126/126/225
f 212/212/226 213/213/226 124/124/226
f 213/213/227 212/212/227 129/129/227
f 122/122/228 213/213/228 208/208/228
f 214/214/229 215/215/229 137/137/229
f 137/137/230 215/215/230 216/216/230
f 212/212/231 215/215/231 214/214/231
f 124/124/232 215/215/232 212/212/232
f 215/215/233 123/123/233 216/216/233
f 124/124/234 123/123/234 215/215/234
f 216/216/235 123/123/235 202/202/235
f 217/217/236 218/218/236 219/219/236
f 220/220/237 218/218/237 221/221/237
f 219/219/238 218/218/238 220/220/238
f 222/222/239 219/219/239 223/223/239
f 224/224/240 225/225/240 221/221/240
f 226/226/241 217/217/241 219/219/241
f 227/227/242 228/228/242 229/229/242
f 230/230/243 231/231/243 232/232/243
f 233/233/244 231/231/244 234/234/244
f 235/235/245 236/236/245 237/237/245
f 238/238/246 236/236/246 239/239/246
f 240/240/247 241/241/247 242/242/247
f 243/243/248 244/244/248 245/245/248
f 246/246/249 243/243/249 247/247/249
f 227/227/250 231/231/250 248/248/250
f 232/232/251 249/249/251 250/250/251
f 249/249/252 233/233/252 234/234/252
f 251/251/253 252/252/253 253/253/253
f 254/254/254 255/255/254 256/256/254
f 257/257/255 258/258/255 259/259/255
f 260/260/256 261/261/256 262/262/256
f 263/263/257 260/260/257 264/264/257
f 257/257/258 265/265/258 264/264/258
f 264/264/259 260/260/259 257/257/259
f 266/266/260 260/260/260 262/262/260
f 267/267/261 260/260/261 266/266/261
f 258/258/262 266/266/262 268/268/262
f 267/267/263 258/258/263 257/257/263
f 269/269/264 270/270/264 257/257/264
f 271/271/265 270/270/265 269/269/265
f 269/269/266 259/259/266 272/272/266
f 273/273/267 256/256/267 255/255/267
f 256/256/268 274/274/268 254/254/268
f 273/273/269 255/255/269 275/275/269
f 273/273/270 252/252/270 256/256/270
f 256/256/271 276/276/271 274/274/271
f 277/277/272 276/276/272 278/278/272
f 274/274/273 276/276/273 270/270/273
f 279/279/274 280/280/274 278/278/274
f 265/265/275 277/277/275 278/278/275
f 276/276/276 277/277/276 270/270/276
f 281/281/277 265/265/277 278/278/277
f 282/282/278 264/264/278 283/283/278
f 283/283/279 264/264/279 281/281/279
f 263/263/280 284/284/280 261/261/280
f 262/262/281 261/261/281 284/284/281
f 285/285/282 262/262/282 284/284/282
f 286/286/283 262/262/283 242/242/283
f 287/287/284 286/286/284 242/242/284
f 286/286/285 266/266/285 262/262/285
f 288/288/286 268/268/286 289/289/286
f 289/289/287 268/268/287 290/290/287
f 259/259/288 288/288/288 272/272/288
f 237/237/289 289/289/289 291/291/289
f 288/288/290 289/289/290 237/237/290
f 292/292/291 288/288/291 236/236/291
f 272/272/292 292/292/292 293/293/292
f 250/250/293 294/294/293 293/293/293
f 294/294/294 249/249/294 275/275/294
f 249/249/295 294/294/295 250/250/295
f 234/234/296 275/275/296 249/249/296
f 275/275/297 234/234/297 295/295/297
f 296/296/298 297/297/298 281/281/298
f 247/247/299 296/296/299 298/298/299
f 243/243/300 296/296/300 247/247/300
f 245/245/301 297/297/301 243/243/301
f 282/282/302 299/299/302 263/263/302
f 290/290/303 287/287/303 242/242/303
f 289/289/304 290/290/304 291/291/304
f 241/241/305 300/300/305 242/242/305
f 238/238/306 292/292/306 236/236/306
f 301/301/307 250/250/307 239/239/307
f 295/295/308 231/231/308 227/227/308
f 230/230/309 248/248/309 231/231/309
f 298/298/310 251/251/310 302/302/310
f 229/229/311 246/246/311 298/298/311
f 298/298/312 246/246/312 247/247/312
f 303/303/313 246/246/313 229/229/313
f 299/299/314 297/297/314 245/245/314
f 284/284/315 299/299/315 304/304/315
f 304/304/316 299/299/316 245/245/316
f 305/305/317 285/285/317 304/304/317
f 285/285/318 305/305/318 242/242/318
f 284/284/319 304/304/319 285/285/319
f 240/240/320 306/306/320 307/307/320
f 308/308/321 240/240/321 242/242/321
f 307/307/322 306/306/322 309/309/322
f 235/235/323 309/309/323 310/310/323
f 235/235/324 310/310/324 236/236/324
f 236/236/325 310/310/325 239/239/325
f 239/239/326 310/310/326 311/311/326
f 230/230/327 222/222/327 223/223/327
f 222/222/328 230/230/328 232/232/328
f 248/248/329 230/230/329 223/223/329
f 224/224/330 308/308/330 305/305/330
f 240/240/331 312/312/331 313/313/331
f 221/221/332 312/312/332 224/224/332
f 221/221/333 218/218/333 312/312/333
f 228/228/334 220/220/334 229/229/334
f 248/248/335 223/223/335 228/228/335
f 219/219/336 220/220/336 223/223/336
f 303/303/337 225/225/337 244/244/337
f 220/220/338 221/221/338 229/229/338
f 314/314/339 315/315/339 316/316/339
f 317/317/340 318/318/340 319/319/340
f 319/319/341 320/320/341 321/321/341
f 315/315/342 314/314/342 322/322/342
f 323/323/343 322/322/343 324/324/343
f 325/325/344 322/322/344 323/323/344
f 322/322/345 326/326/345 327/327/345
f 328/328/346 322/322/346 325/325/346
f 319/319/347 329/329/347 317/317/347
f 330/330/348 331/331/348 332/332/348
f 333/333/349 334/334/349 330/330/349
f 330/330/350 334/334/350 335/335/350
f 336/336/351 337/337/351 338/338/351
f 339/339/352 340/340/352 341/341/352
f 342/342/353 331/331/353 330/330/353
f 343/343/354 344/344/354 345/345/354
f 346/346/355 340/340/355 347/347/355
f 348/348/356 349/349/356 350/350/356
f 351/351/357 352/352/357 353/353/357
f 354/354/358 355/355/358 356/356/358
f 357/357/359 358/358/359 359/359/359
f 359/359/360 358/358/360 360/360/360
f 361/361/361 362/362/361 347/347/361
f 362/362/362 361/361/362 363/363/362
f 364/364/363 365/365/363 349/349/363
f 365/365/364 364/364/364 366/366/364
f 364/364/365 367/367/365 368/368/365
f 363/363/366 369/369/366 367/367/366
f 368/368/367 369/369/367 360/360/367
f 362/362/368 364/364/368 349/349/368
f 367/367/369 362/362/369 363/363/369
f 370/370/370 362/362/370 349/349/370
f 371/371/371 369/369/371 363/363/371
f 371/371/372 359/359/372 360/360/372
f 372/372/373 373/373/373 363/363/373
f 359/359/374 372/372/374 357/357/374
f 358/358/375 374/374/375 360/360/375
f 374/374/376 358/358/376 375/375/376
f 376/376/377 374/374/377 355/355/377
f 355/355/378 374/374/378 377/377/378
f 375/375/379 377/377/379 374/374/379
f 378/378/380 377/377/380 375/375/380
f 376/376/381 379/379/381 360/360/381
f 352/352/382 355/355/382 354/354/382
f 380/380/383 352/352/383 379/379/383
f 353/353/384 352/352/384 354/354/384
f 352/352/385 381/381/385 379/379/385
f 382/382/386 368/368/386 379/379/386
f 382/382/387 379/379/387 381/381/387
f 383/383/388 382/382/388 381/381/388
f 383/383/389 366/366/389 382/382/389
f 349/349/390 346/346/390 370/370/390
f 347/347/391 370/370/391 346/346/391
f 361/361/392 384/384/392 363/363/392
f 347/347/393 384/384/393 361/361/393
f 345/345/394 372/372/394 343/343/394
f 358/358/395 385/385/395 375/375/395
f 386/386/396 387/387/396 388/388/396
f 386/386/397 375/375/397 387/387/397
f 342/342/398 378/378/398 386/386/398
f 378/378/399 342/342/399 356/356/399
f 335/335/400 356/356/400 330/330/400
f 389/389/401 390/390/401 391/391/401
f 383/383/402 391/391/402 390/390/402
f 389/389/403 383/383/403 390/390/403
f 366/366/404 383/383/404 392/392/404
f 393/393/405 394/394/405 339/339/405
f 394/394/406 393/393/406 395/395/406
f 396/396/407 394/394/407 395/395/407
f 397/397/408 345/345/408 398/398/408
f 397/397/409 385/385/409 357/357/409
f 344/344/410 398/398/410 345/345/410
f 398/398/411 338/338/411 397/397/411
f 397/397/412 338/338/412 399/399/412
f 386/386/413 388/388/413 342/342/413
f 351/351/414 353/353/414 317/317/414
f 317/317/415 353/353/415 335/335/415
f 335/335/416 334/334/416 333/333/416
f 365/365/417 392/392/417 350/350/417
f 383/383/418 389/389/418 392/392/418
f 400/400/419 401/401/419 389/389/419
f 392/392/420 401/401/420 350/350/420
f 348/348/421 400/400/421 340/340/421
f 328/328/422 402/402/422 326/326/422
f 326/326/423 402/402/423 341/341/423
f 339/339/424 402/402/424 328/328/424
f 403/403/425 328/328/425 325/325/425
f 395/395/426 393/393/426 403/403/426
f 328/328/427 393/393/427 339/339/427
f 323/323/428 404/404/428 325/325/428
f 405/405/429 323/323/429 324/324/429
f 404/404/430 323/323/430 405/405/430
f 336/336/431 338/338/431 405/405/431
f 336/336/432 324/324/432 332/332/432
f 321/321/433 406/406/433 400/400/433
f 340/340/434 400/400/434 341/341/434
f 320/320/435 406/406/435 321/321/435
f 316/316/436 315/315/436 407/407/436
f 314/314/437 316/316/437 332/332/437
f 330/330/438 408/408/438 333/333/438
f 330/330/439 316/316/439 408/408/439
f 318/318/440 408/408/440 316/316/440
f 318/318/441 333/333/441 408/408/441
f 136/136/442 119/119/442 121/121/442
f 214/214/443 210/210/443 209/209/443 129/129/443
f 212/212/444 214/214/444 129/129/444
f 179/179/445 163/163/445 176/176/445 409/409/445
f 129/129/446 128/128/446 213/213/446
f 127/127/447 208/208/447 128/128/447
f 213/213/448 128/128/448 208/208/448
f 121/121/449 130/130/449 136/136/449
f 203/203/450 130/130/450 126/126/450
f 120/120/451 126/126/451 121/121/451
f 141/141/452 137/137/452 216/216/452
f 139/139/453 200/200/453 142/142/453
f 143/143/454 142/142/454 200/200/454
f 196/196/455 132/132/455 146/146/455
f 134/134/456 146/146/456 132/132/456
f 192/192/457 194/194/457 207/207/457
f 148/148/458 150/150/458 194/194/458
f 189/189/459 136/136/459 135/135/459
f 140/140/460 138/138/460 137/137/460
f 185/185/461 143/143/461 200/200/461
f 201/201/462 190/190/462 409/409/462
f 164/164/463 166/166/463 184/184/463 155/155/463
f 179/179/464 409/409/464 190/190/464
f 152/152/465 151/151/465 175/175/465
f 186/186/466 172/172/466 171/171/466
f 170/170/467 171/171/467 172/172/467
f 180/180/468 182/182/468 204/204/468 159/159/468
f 154/154/469 164/164/469 155/155/469
f 158/158/470 157/157/470 164/164/470 161/161/470
f 180/180/471 159/159/471 158/158/471
f 156/156/472 155/155/472 169/169/472 168/168/472
f 156/156/473 162/162/473 154/154/473
f 168/168/474 170/170/474 162/162/474 156/156/474
f 172/172/475 174/174/475 152/152/475 173/173/475
f 175/175/476 177/177/476 170/170/476
f 175/175/477 170/170/477 173/173/477
f 162/162/478 170/170/478 177/177/478
f 191/191/479 148/148/479 194/194/479 193/193/479
f 163/163/480 162/162/480 177/177/480
f 177/177/481 175/175/481 176/176/481
f 201/201/482 409/409/482 178/178/482
f 176/176/483 178/178/483 409/409/483
f 180/180/484 179/179/484 190/190/484
f 158/158/485 179/179/485 180/180/485
f 190/190/486 181/181/486 180/180/486
f 183/183/487 159/159/487 204/204/487
f 149/149/488 148/148/488 183/183/488
f 157/157/489 148/148/489 165/165/489
f 134/134/490 171/171/490 167/167/490
f 200/200/491 174/174/491 185/185/491
f 151/151/492 187/187/492 178/178/492
f 130/130/493 182/182/493 181/181/493
f 125/125/494 122/122/494 208/208/494 206/206/494
f 192/192/495 195/195/495 193/193/495
f 193/193/496 145/145/496 147/147/496
f 134/134/497 197/197/497 171/171/497
f 134/134/498 131/131/498 197/197/498
f 197/197/499 131/131/499 198/198/499
f 144/144/500 143/143/500 198/198/500
f 174/174/501 200/200/501 138/138/501
f 138/138/502 200/200/502 199/199/502
f 138/138/503 199/199/503 139/139/503
f 141/141/504 201/201/504 187/187/504
f 189/189/505 190/190/505 201/201/505
f 202/202/506 141/141/506 216/216/506
f 201/201/507 141/141/507 202/202/507
f 119/119/508 136/136/508 202/202/508
f 136/136/509 189/189/509 202/202/509
f 203/203/510 183/183/510 182/182/510
f 150/150/511 149/149/511 205/205/511
f 127/127/512 133/133/512 196/196/512
f 132/132/513 196/196/513 133/133/513
f 144/144/514 210/210/514 211/211/514
f 214/214/515 211/211/515 210/210/515
f 139/139/516 211/211/516 214/214/516
f 142/142/517 211/211/517 139/139/517
f 217/217/518 226/226/518 310/310/518 309/309/518
f 122/122/519 124/124/519 213/213/519
f 137/137/520 139/139/520 214/214/520
f 202/202/521 123/123/521 119/119/521
f 119/119/522 123/123/522 120/120/522
f 244/244/523 225/225/523 224/224/523
f 219/219/524 222/222/524 311/311/524
f 219/219/525 311/311/525 226/226/525
f 278/278/526 298/298/526 296/296/526 281/281/526
f 313/313/527 217/217/527 306/306/527
f 304/304/528 244/244/528 224/224/528
f 245/245/529 244/244/529 304/304/529
f 302/302/530 227/227/530 229/229/530
f 232/232/531 233/233/531 249/249/531
f 232/232/532 231/231/532 233/233/532
f 244/244/533 243/243/533 246/246/533
f 228/228/534 227/227/534 248/248/534
f 288/288/535 237/237/535 236/236/535
f 262/262/536 285/285/536 242/242/536
f 271/271/537 269/269/537 272/272/537 254/254/537
f 268/268/538 259/259/538 258/258/538
f 263/263/539 261/261/539 260/260/539
f 265/265/540 257/257/540 270/270/540
f 267/267/541 257/257/541 260/260/541
f 267/267/542 266/266/542 258/258/542
f 271/271/543 274/274/543 270/270/543
f 254/254/544 274/274/544 271/271/544
f 257/257/545 259/259/545 269/269/545
f 254/254/546 272/272/546 293/293/546 255/255/546
f 273/273/547 275/275/547 295/295/547 253/253/547
f 252/252/548 251/251/548 280/280/548 279/279/548
f 253/253/549 252/252/549 273/273/549
f 279/279/550 276/276/550 256/256/550
f 256/256/551 252/252/551 279/279/551
f 287/287/552 268/268/552 266/266/552 286/286/552
f 276/276/553 279/279/553 278/278/553
f 270/270/554 277/277/554 265/265/554
f 281/281/555 264/264/555 265/265/555
f 410/410/556 282/282/556 283/283/556
f 264/264/557 282/282/557 263/263/557
f 295/295/558 227/227/558 302/302/558 253/253/558
f 259/259/559 268/268/559 288/288/559
f 292/292/560 272/272/560 288/288/560
f 255/255/561 294/294/561 275/275/561
f 293/293/562 294/294/562 255/255/562
f 297/297/563 410/410/563 283/283/563 281/281/563
f 251/251/564 253/253/564 302/302/564
f 251/251/565 298/298/565 280/280/565
f 278/278/566 280/280/566 298/298/566
f 243/243/567 297/297/567 296/296/567
f 300/300/568 241/241/568 307/307/568 291/291/568
f 297/297/569 299/299/569 410/410/569
f 282/282/570 410/410/570 299/299/570
f 287/287/571 290/290/571 268/268/571
f 242/242/572 300/300/572 290/290/572
f 307/307/573 235/235/573 237/237/573 291/291/573
f 291/291/574 290/290/574 300/300/574
f 292/292/575 238/238/575 250/250/575
f 239/239/576 250/250/576 238/238/576
f 293/293/577 292/292/577 250/250/577
f 231/231/578 295/295/578 234/234/578
f 302/302/579 229/229/579 298/298/579
f 303/303/580 244/244/580 246/246/580
f 263/263/581 299/299/581 284/284/581
f 305/305/582 304/304/582 224/224/582
f 313/313/583 306/306/583 240/240/583
f 307/307/584 241/241/584 240/240/584
f 309/309/585 306/306/585 217/217/585
f 235/235/586 307/307/586 309/309/586
f 301/301/587 311/311/587 222/222/587 232/232/587
f 311/311/588 310/310/588 226/226/588
f 301/301/589 239/239/589 311/311/589
f 250/250/590 301/301/590 232/232/590
f 321/321/591 389/389/591 391/391/591 329/329/591
f 240/240/592 308/308/592 312/312/592
f 242/242/593 305/305/593 308/308/593
f 312/312/594 308/308/594 224/224/594
f 312/312/595 218/218/595 313/313/595
f 217/217/596 313/313/596 218/218/596
f 228/228/597 223/223/597 220/220/597
f 229/229/598 221/221/598 303/303/598
f 221/221/599 225/225/599 303/303/599
f 322/322/600 327/327/600 315/315/600
f 320/320/601 319/319/601 318/318/601
f 322/322/602 314/314/602 324/324/602
f 328/328/603 326/326/603 322/322/603
f 319/319/604 321/321/604 329/329/604
f 336/336/605 332/332/605 337/337/605
f 404/404/606 344/344/606 395/395/606
f 398/398/607 344/344/607 404/404/607
f 347/347/608 340/340/608 339/339/608
f 337/337/609 388/388/609 387/387/609 399/399/609
f 351/351/610 317/317/610 329/329/610
f 337/337/611 399/399/611 338/338/611
f 377/377/612 378/378/612 356/356/612 355/355/612
f 343/343/613 395/395/613 344/344/613
f 346/346/614 348/348/614 340/340/614
f 349/349/615 348/348/615 346/346/615
f 351/351/616 381/381/616 352/352/616
f 384/384/617 396/396/617 395/395/617 343/343/617
f 367/367/618 369/369/618 368/368/618
f 367/367/619 364/364/619 362/362/619
f 360/360/620 369/369/620 371/371/620
f 363/363/621 373/373/621 371/371/621
f 371/371/622 373/373/622 359/359/622
f 372/372/623 359/359/623 373/373/623
f 376/376/624 360/360/624 374/374/624
f 380/380/625 379/379/625 376/376/625
f 376/376/626 355/355/626 380/380/626
f 352/352/627 380/380/627 355/355/627
f 360/360/628 379/379/628 368/368/628
f 364/364/629 368/368/629 382/382/629
f 364/364/630 382/382/630 366/366/630
f 350/350/631 349/349/631 365/365/631
f 392/392/632 365/365/632 366/366/632
f 362/362/633 370/370/633 347/347/633
f 372/372/634 363/363/634 384/384/634 343/343/634
f 391/391/635 383/383/635 381/381/635 351/351/635
f 357/357/636 372/372/636 345/345/636
f 357/357/637 385/385/637 358/358/637
f 399/399/638 387/387/638 385/385/638
f 385/385/639 387/387/639 375/375/639
f 335/335/640 354/354/640 356/356/640
f 330/330/641 356/356/641 342/342/641
f 335/335/642 353/353/642 354/354/642
f 411/411/643 396/396/643 384/384/643 347/347/643
f 329/329/644 391/391/644 351/351/644
f 331/331/645 342/342/645 388/388/645 332/332/645
f 339/339/646 411/411/646 347/347/646
f 339/339/647 394/394/647 411/411/647
f 411/411/648 394/394/648 396/396/648
f 399/399/649 385/385/649 397/397/649
f 357/357/650 345/345/650 397/397/650
f 404/404/651 338/338/651 398/398/651
f 405/405/652 338/338/652 404/404/652
f 375/375/653 386/386/653 378/378/653
f 388/388/654 337/337/654 332/332/654
f 320/320/655 407/407/655 326/326/655 341/341/655
f 412/412/656 335/335/656 333/333/656
f 335/335/657 412/412/657 317/317/657
f 401/401/658 392/392/658 389/389/658
f 321/321/659 400/400/659 389/389/659
f 400/400/660 348/348/660 350/350/660
f 401/401/661 400/400/661 350/350/661
f 339/339/662 341/341/662 402/402/662
f 328/328/663 403/403/663 393/393/663
f 403/403/664 325/325/664 404/404/664
f 403/403/665 404/404/665 395/395/665
f 324/324/666 336/336/666 405/405/666
f 332/332/667 324/324/667 314/314/667
f 341/341/668 400/400/668 406/406/668
f 318/318/669 407/407/669 320/320/669
f 318/318/670 317/317/670 412/412/670 333/333/670
f 341/341/671 406/406/671 320/320/671
f 327/327/672 407/407/672 315/315/672
f 318/318/673 316/316/673 407/407/673
f 326/326/674 407/407/674 327/327/674
f 330/330/675 332/332/675 316/316/675
