mtllib forest_nature_set_all_in.mtl
o forest_Bush_group_small_Plane_140
v 8.573740 0.000000 11.816860
v 8.635147 0.000000 11.713342
v 8.748728 0.000000 11.795105
v 8.677034 0.000000 11.887844
v 7.724679 -0.000685 13.175702
v 7.821153 -0.000685 13.033578
v 7.959371 -0.000685 13.136736
v 7.864419 -0.000685 13.295437
v 7.107553 -0.000685 12.399936
v 7.258796 -0.000685 12.445731
v 7.171475 -0.000685 12.621186
v 7.035593 -0.000685 12.543889
v 8.748919 0.281830 11.704073
v 8.703238 0.342669 11.642065
v 8.830624 0.544641 11.709080
v 8.861283 0.522697 11.743524
v 7.972746 0.256612 13.274305
v 8.043077 0.201690 13.116532
v 8.108864 0.308499 13.041389
v 8.051613 0.364009 13.160274
v 6.993333 0.230525 12.491631
v 7.161830 0.235160 12.543896
v 7.129865 0.586399 12.755636
v 7.039686 0.598681 12.743444
v 7.907895 0.191992 13.032934
v 7.825593 0.234037 13.192426
v 7.223189 0.216312 12.380094
v 8.695662 0.286452 11.798179
v 8.587619 0.246369 11.738500
v 7.073894 0.214425 12.330065
v 8.636045 0.241177 11.638611
v 8.657355 0.353549 11.739480
v 8.538442 0.691083 11.405578
v 8.512498 0.694232 11.455460
v 8.572409 0.296634 11.705929
v 8.613290 0.283496 11.603430
v 8.465493 0.661508 11.436883
v 8.486583 0.654425 11.383511
v 8.835953 0.527394 11.793598
v 8.808546 0.553431 11.760134
v 6.988473 0.351868 12.400627
v 7.103271 0.327813 12.456281
v 7.151611 0.864096 12.157460
v 7.092164 0.874502 12.112761
v 7.059484 0.338429 12.277185
v 7.170467 0.303337 12.315743
v 7.436148 0.644567 12.554292
v 7.385139 0.675207 12.511984
v 7.132378 0.858728 12.048639
v 7.200446 0.844912 12.079283
v 7.462981 0.620753 12.467243
v 7.420854 0.647515 12.429387
v 7.100520 0.627782 12.703129
v 7.039657 0.646865 12.680889
v 7.967931 0.293324 12.968828
v 8.247334 0.792666 12.787303
v 8.319946 0.799965 12.826536
v 7.898230 0.337170 13.092295
v 8.102914 0.902327 13.509208
v 8.064167 0.864662 13.582740
v 8.211524 0.820664 12.856175
v 8.286008 0.830430 12.902782
v 7.983309 0.850254 13.550032
v 8.019378 0.887641 13.484277
v 7.939044 0.000000 11.857038
v 8.004992 0.000000 11.764737
v 8.090851 0.000000 11.850508
v 8.031481 0.000000 11.951243
v 8.065806 0.319748 11.952516
v 8.089322 0.290746 11.854834
v 8.127624 0.371280 11.813041
v 8.061967 0.402830 11.878977
v 7.991202 0.273342 11.771008
v 7.949900 0.292764 11.866798
v 8.021071 0.349759 11.735534
v 8.053909 0.683488 11.581876
v 8.101783 0.688597 11.614203
v 7.975912 0.368335 11.801785
v 7.959239 0.760243 11.990958
v 7.927186 0.733880 12.039507
v 8.024222 0.703085 11.627380
v 8.072892 0.709920 11.664973
v 7.873119 0.723796 12.011155
v 7.902771 0.749964 11.967840
v 7.202591 -0.001282 13.304590
v 7.070906 -0.001282 13.393985
v 6.990360 -0.001282 13.215854
v 7.136081 -0.001282 13.160394
v 7.187267 0.207581 13.217117
v 7.028460 0.194695 13.348906
v 6.861080 0.515285 13.281054
v 6.927662 0.527567 13.219024
v 7.129867 0.194117 13.451277
v 7.268908 0.201282 13.351910
v 7.251533 0.316300 13.303272
v 7.127112 0.278440 13.379604
v 7.336467 0.836010 13.609320
v 7.408719 0.846417 13.591663
v 7.313612 0.318706 13.395640
v 7.210898 0.278089 13.458496
v 6.828741 0.573680 13.594792
v 6.893795 0.604321 13.582149
v 7.432833 0.830643 13.663408
v 7.365991 0.816826 13.696641
v 6.879071 0.549867 13.670716
v 6.935052 0.576629 13.662121
v 6.920294 0.556668 13.291631
v 6.976069 0.575750 13.258645
v 8.421164 0.000000 12.334437
v 8.526258 0.000000 12.291939
v 8.551999 0.000000 12.409883
v 8.447534 0.000000 12.462593
v 8.604342 0.324734 12.339469
v 8.727749 0.667784 12.292309
v 8.741081 0.662292 12.353108
v 8.629364 0.304760 12.456584
v 8.524941 0.306705 12.509344
v 8.499494 0.331590 12.382252
v 8.673632 0.669653 12.314148
v 8.687319 0.661998 12.380239
v 8.579374 0.390956 11.506756
v 8.525051 0.271502 11.611506
v 8.391505 0.399429 11.513868
v 7.924338 0.698948 11.931188
v 8.101537 0.360860 11.840392
v 7.932431 0.531779 12.080763
v 8.149361 0.417591 12.100910
v 7.911124 0.569298 12.305767
v 8.873976 0.499000 11.813935
v 9.089309 0.510330 11.618951
v 8.664581 0.561643 11.459639
v 9.218254 0.508553 11.820911
v 8.623244 0.602816 11.997681
v 8.491845 0.690035 11.898493
v 9.027589 0.308214 11.989838
v 7.682697 0.723920 12.076892
v 8.245930 0.538330 11.500248
v 8.392861 0.634200 11.217456
v 8.580317 0.612022 11.323740
v 8.100413 0.474704 11.691048
v 8.115112 0.596891 11.611494
v 7.832753 0.943814 11.630719
v 8.695947 0.779649 11.430490
v 8.708895 1.020128 11.209371
v 8.929072 0.894770 11.373489
v 8.709775 0.498223 12.369266
v 8.576324 0.445009 12.532259
v 8.516573 0.425481 12.209987
v 8.128229 0.785937 11.254279
v 9.135807 0.920298 12.063232
v 9.279103 0.774211 11.860953
v 9.112766 1.212612 11.712002
v 8.694901 0.566629 12.526681
v 9.004250 0.709857 12.476525
v 8.386512 0.513697 12.641953
v 8.617045 0.789195 12.641979
v 8.281666 0.683456 12.751061
v 7.891073 1.086453 11.912512
v 7.962306 1.377911 11.794624
v 7.778171 1.028696 11.779096
v 7.800514 1.123048 11.497743
v 8.154752 1.374335 11.548517
v 7.963336 1.143703 11.360096
v 8.815931 1.182314 11.652336
v 8.730042 1.345799 11.668459
v 8.945981 1.482375 11.865589
v 8.684984 1.443086 11.961289
v 9.062387 1.033127 12.394355
v 8.983089 1.199583 12.485055
v 8.993082 1.168734 12.130732
v 8.333729 1.315644 12.537334
v 8.355905 1.000001 12.715963
v 8.148416 1.272420 12.494821
v 8.629435 1.362468 12.426393
v 8.440521 1.392830 12.223593
v 8.700936 1.437129 12.235717
v 8.840990 0.831986 12.589515
v 8.855114 1.444405 12.083974
v 9.132059 1.256482 11.851950
v 8.936294 1.343052 12.017918
v 8.514493 1.417607 11.685998
v 8.581652 1.268807 11.402911
v 8.419418 1.621917 11.780941
v 8.360991 1.458998 11.419029
v 8.336127 1.165239 11.366889
v 8.334235 1.402817 12.032309
v 8.210403 1.507697 11.725234
v 7.976226 1.367777 12.018013
v 8.155139 1.443140 12.214972
v 7.892618 1.145188 12.315463
v 9.077147 1.024839 12.149640
v 8.805738 1.264100 11.442637
v 8.512693 1.109738 11.361915
v 8.707091 1.212806 11.384156
v 8.582984 1.040080 11.199829
v 7.956785 0.765174 12.369921
v 7.841042 0.951404 12.278631
v 7.792033 1.035867 12.131430
v 8.083089 0.904838 12.608740
v 9.098031 0.460757 12.189763
v 8.974235 0.621522 12.242993
v 8.980194 0.709082 12.020737
v 9.120762 0.736064 12.321309
v 8.964581 1.158681 11.637284
v 9.082873 1.032984 11.606150
v 8.771914 1.024924 11.331970
v 8.144279 0.454006 12.519328
v 7.955603 0.714616 12.646734
v 8.738590 0.667332 12.095418
v 9.137724 0.503161 11.956164
v 9.211450 0.683244 11.700772
v 8.880929 0.623689 11.392184
v 8.180917 0.397736 12.307056
v 8.412306 0.355757 11.929138
v 8.231182 0.469919 11.553933
v 9.028705 0.693510 12.375725
v 7.831356 0.454212 11.766809
v 7.725130 0.431143 12.285912
v 7.627245 0.401338 12.403976
v 7.489973 0.369142 12.230998
v 6.526653 0.627592 12.665394
v 7.048563 0.417665 12.628135
v 6.667548 0.421947 12.967362
v 7.064921 0.445262 13.032324
v 6.563237 0.470413 13.423626
v 8.135273 0.499325 12.727553
v 8.391933 0.614300 12.536088
v 7.889975 0.571229 12.171743
v 8.624369 0.511799 12.793078
v 7.760283 0.519095 12.939770
v 7.591528 0.731843 12.787964
v 8.286628 0.399975 13.044621
v 6.263766 0.578883 13.029693
v 7.247603 0.540586 12.133291
v 7.530539 0.750193 11.912901
v 7.780530 0.682153 11.996738
v 6.973237 0.362528 12.366744
v 6.934757 0.514351 12.140004
v 6.524114 0.965010 12.153569
v 8.024876 0.861479 11.972728
v 7.937198 1.238674 11.951893
v 8.244508 1.078374 12.136429
v 7.767505 0.520286 13.564054
v 7.484856 0.565974 13.701088
v 7.539397 0.435545 13.238878
v 7.178203 0.935923 11.876886
v 8.616926 1.054672 13.118076
v 8.668159 0.875836 12.817034
v 8.451194 1.481157 12.628882
v 7.633870 0.723064 13.813514
v 8.045889 0.992417 13.811811
v 7.177264 0.575734 13.932922
v 7.518228 1.034572 13.997761
v 6.997161 0.866627 13.965653
v 6.449083 0.977104 12.765048
v 6.686722 1.637900 12.507549
v 6.328564 0.995464 12.384798
v 6.532519 1.279373 11.940404
v 7.146975 1.711889 12.302556
v 6.871960 1.320052 11.899004
v 8.082984 1.530997 12.481828
v 7.892180 1.663140 12.551362
v 8.105326 1.904385 12.818955
v 7.750278 1.895056 12.927044
v 8.213119 1.342752 13.688882
v 8.050986 1.470122 13.808076
v 8.264005 1.428544 13.180888
v 7.206611 1.553020 13.766465
v 7.157707 1.270894 13.955173
v 6.973120 1.512052 13.606975
v 7.565162 1.498496 13.752348
v 7.382609 1.624831 13.367072
v 7.677926 1.750959 13.429450
v 7.864773 1.124014 13.998698
v 7.938918 1.898803 13.131055
v 8.519949 1.583627 12.788967
v 8.211156 1.819943 13.039626
v 7.694316 1.930378 12.509892
v 7.770484 1.602986 12.175582
v 7.495474 2.004702 12.647160
v 7.463614 1.824023 12.243207
v 7.434720 1.486542 11.996193
v 7.312327 1.755748 12.985575
v 7.237738 1.851157 12.554056
v 6.689898 1.491794 12.868774
v 7.017102 1.714820 13.200029
v 6.456463 1.235111 13.463183
v 8.452826 1.220119 13.235926
v 8.071048 1.591777 12.214745
v 7.680779 1.408150 12.032709
v 7.974579 1.590096 12.054264
v 7.800607 1.242862 11.985837
v 6.488375 0.754552 13.585448
v 6.511710 0.877306 13.412620
v 6.390952 0.883636 13.189914
v 6.738697 1.084701 13.798719
v 8.303166 0.528712 13.337264
v 8.313844 0.695099 13.581829
v 8.410320 0.787703 13.100276
v 8.307978 0.947451 13.574173
v 8.312285 1.492080 12.445743
v 8.367504 1.239949 12.531552
v 8.048703 1.266529 12.036216
v 6.835444 0.393119 13.733961
v 6.626276 0.837406 13.804763
v 7.905470 0.747957 13.105175
v 8.425217 0.535269 12.984322
v 8.534504 0.776125 12.644917
v 8.196501 0.694946 12.130689
v 7.035841 0.390905 13.348376
v 7.427200 0.417843 12.816452
v 7.221202 0.434124 12.216273
v 8.154857 0.929494 13.674231
v 6.704918 0.490521 12.476304
vt 0.437457 0.516558
vt 0.436101 0.516558
vt 0.441839 0.516558
vt 0.442573 0.516558
vt 0.453762 0.516558
vt 0.454101 0.516558
vt 0.459104 0.516558
vt 0.459048 0.516558
vt 0.441818 0.516558
vt 0.441592 0.516558
vt 0.447273 0.516558
vt 0.446482 0.516558
vt 0.439097 0.624325
vt 0.435911 0.662542
vt 0.441601 0.789415
vt 0.443523 0.775631
vt 0.461467 0.629383
vt 0.460917 0.605236
vt 0.461468 0.652197
vt 0.461776 0.676602
vt 0.445460 0.617914
vt 0.445243 0.619951
vt 0.451378 0.774382
vt 0.451928 0.779782
vt 0.456278 0.600971
vt 0.456552 0.619458
vt 0.440137 0.611665
vt 0.440404 0.627228
vt 0.435492 0.602049
vt 0.440227 0.610835
vt 0.433872 0.598787
vt 0.437529 0.669377
vt 0.424029 0.881406
vt 0.424788 0.883384
vt 0.434071 0.633624
vt 0.432155 0.625372
vt 0.422874 0.862829
vt 0.421870 0.858379
vt 0.444305 0.778582
vt 0.442506 0.794937
vt 0.443006 0.671265
vt 0.443409 0.660689
vt 0.434719 0.896477
vt 0.434074 0.901053
vt 0.438915 0.665357
vt 0.438885 0.649927
vt 0.442835 0.799957
vt 0.442173 0.813428
vt 0.431916 0.894118
vt 0.432090 0.888043
vt 0.440178 0.789487
vt 0.439551 0.801253
vt 0.450222 0.792577
vt 0.450209 0.800967
vt 0.456847 0.645525
vt 0.461217 0.865071
vt 0.463625 0.868281
vt 0.456908 0.664803
vt 0.468207 0.913287
vt 0.468313 0.896726
vt 0.461329 0.877382
vt 0.463893 0.881675
vt 0.465794 0.890392
vt 0.465734 0.906830
vt 0.453762 0.516558
vt 0.454101 0.516558
vt 0.459104 0.516558
vt 0.459048 0.516558
vt 0.461467 0.629383
vt 0.460917 0.605236
vt 0.461468 0.652197
vt 0.461776 0.676602
vt 0.456278 0.600971
vt 0.456552 0.619458
vt 0.456847 0.645525
vt 0.461217 0.865071
vt 0.463625 0.868281
vt 0.456908 0.664803
vt 0.468207 0.913287
vt 0.468313 0.896726
vt 0.461329 0.877382
vt 0.463893 0.881675
vt 0.465794 0.890392
vt 0.465734 0.906830
vt 0.441818 0.516558
vt 0.441592 0.516558
vt 0.447273 0.516558
vt 0.446482 0.516558
vt 0.445460 0.617914
vt 0.445243 0.619951
vt 0.451378 0.774382
vt 0.451928 0.779782
vt 0.440137 0.611665
vt 0.440227 0.610835
vt 0.443006 0.671265
vt 0.443409 0.660689
vt 0.434719 0.896477
vt 0.434074 0.901053
vt 0.438915 0.665357
vt 0.438885 0.649927
vt 0.442835 0.799957
vt 0.442173 0.813428
vt 0.431916 0.894118
vt 0.432090 0.888043
vt 0.440178 0.789487
vt 0.439551 0.801253
vt 0.450222 0.792577
vt 0.450209 0.800967
vt 0.456522 0.549283
vt 0.456494 0.546067
vt 0.462247 0.536650
vt 0.462744 0.536680
vt 0.460023 0.698822
vt 0.460113 0.948386
vt 0.463079 0.944391
vt 0.465725 0.684291
vt 0.466226 0.685706
vt 0.460068 0.703809
vt 0.460125 0.949746
vt 0.463336 0.944177
vt 0.170058 0.573204
vt 0.162321 0.562098
vt 0.160330 0.578854
vt 0.142804 0.731763
vt 0.146848 0.585291
vt 0.136770 0.656599
vt 0.138674 0.598913
vt 0.129101 0.741674
vt 0.167055 0.545709
vt 0.175893 0.542295
vt 0.174486 0.582758
vt 0.172609 0.524427
vt 0.152702 0.532584
vt 0.155280 0.547078
vt 0.163771 0.526510
vt 0.136187 0.758791
vt 0.160697 0.656012
vt 0.164584 0.699647
vt 0.172252 0.644523
vt 0.150158 0.619750
vt 0.157085 0.668571
vt 0.153066 0.759188
vt 0.178675 0.615965
vt 0.178697 0.681247
vt 0.180405 0.640585
vt 0.148313 0.611627
vt 0.139844 0.678780
vt 0.144262 0.573729
vt 0.164248 0.770974
vt 0.170147 0.705199
vt 0.175245 0.603001
vt 0.175630 0.743389
vt 0.141220 0.759126
vt 0.154004 0.720913
vt 0.133257 0.710150
vt 0.141002 0.826842
vt 0.131283 0.788625
vt 0.147380 0.873634
vt 0.155524 0.920229
vt 0.151464 0.854528
vt 0.158357 0.855757
vt 0.164283 0.907424
vt 0.163981 0.823671
vt 0.175133 0.821429
vt 0.172438 0.883007
vt 0.170161 0.889498
vt 0.165280 0.955596
vt 0.163504 0.825153
vt 0.157699 0.840893
vt 0.165318 0.851625
vt 0.144399 0.960256
vt 0.135944 0.866150
vt 0.138872 0.937889
vt 0.150925 0.946762
vt 0.152866 0.974378
vt 0.159076 0.957551
vt 0.150559 0.783593
vt 0.163666 0.946730
vt 0.172484 0.798584
vt 0.168233 0.878631
vt 0.168650 0.927431
vt 0.174203 0.821242
vt 0.163199 0.962069
vt 0.169869 0.879818
vt 0.170840 0.798563
vt 0.156269 0.955597
vt 0.159837 0.941970
vt 0.150369 0.926252
vt 0.145739 0.946165
vt 0.139198 0.910240
vt 0.164677 0.748671
vt 0.176775 0.802986
vt 0.173576 0.753706
vt 0.177814 0.771556
vt 0.175931 0.718621
vt 0.128739 0.836847
vt 0.135094 0.872045
vt 0.139008 0.866095
vt 0.130748 0.850155
vt 0.163968 0.551415
vt 0.163901 0.596217
vt 0.169484 0.600509
vt 0.162300 0.659788
vt 0.177684 0.737848
vt 0.178450 0.648278
vt 0.180222 0.705720
vt 0.129472 0.697364
vt 0.128679 0.792814
vt 0.154964 0.539194
vt 0.168502 0.532439
vt 0.177668 0.553639
vt 0.178049 0.562931
vt 0.132937 0.629136
vt 0.149654 0.538468
vt 0.155085 0.588365
vt 0.156338 0.653539
vt 0.146332 0.668453
vt 0.170058 0.573204
vt 0.162321 0.562098
vt 0.160330 0.578854
vt 0.142804 0.731763
vt 0.146848 0.585291
vt 0.136770 0.656599
vt 0.138674 0.598913
vt 0.129101 0.741674
vt 0.167055 0.545709
vt 0.175893 0.542295
vt 0.174486 0.582758
vt 0.172609 0.524427
vt 0.152702 0.532584
vt 0.155280 0.547078
vt 0.163771 0.526510
vt 0.136187 0.758791
vt 0.160697 0.656012
vt 0.164584 0.699647
vt 0.172252 0.644523
vt 0.150158 0.619750
vt 0.157085 0.668571
vt 0.153066 0.759188
vt 0.178675 0.615965
vt 0.178697 0.681247
vt 0.180405 0.640585
vt 0.148313 0.611627
vt 0.139844 0.678780
vt 0.144262 0.573729
vt 0.164248 0.770974
vt 0.170147 0.705199
vt 0.175245 0.603001
vt 0.175630 0.743389
vt 0.141220 0.759126
vt 0.154004 0.720913
vt 0.133257 0.710150
vt 0.141002 0.826842
vt 0.131283 0.788625
vt 0.147380 0.873634
vt 0.155524 0.920229
vt 0.151464 0.854528
vt 0.158357 0.855757
vt 0.164283 0.907424
vt 0.163981 0.823671
vt 0.175133 0.821429
vt 0.172438 0.883007
vt 0.170161 0.889498
vt 0.165280 0.955596
vt 0.163504 0.825153
vt 0.157699 0.840893
vt 0.165318 0.851625
vt 0.144399 0.960256
vt 0.135944 0.866150
vt 0.138872 0.937889
vt 0.150925 0.946762
vt 0.152866 0.974378
vt 0.159076 0.957551
vt 0.150559 0.783593
vt 0.163666 0.946730
vt 0.172484 0.798584
vt 0.168233 0.878631
vt 0.168650 0.927431
vt 0.174203 0.821242
vt 0.163199 0.962069
vt 0.169869 0.879818
vt 0.170840 0.798563
vt 0.156269 0.955597
vt 0.159837 0.941970
vt 0.150369 0.926252
vt 0.145739 0.946165
vt 0.139198 0.910240
vt 0.164677 0.748671
vt 0.176775 0.802986
vt 0.173576 0.753706
vt 0.177814 0.771556
vt 0.175931 0.718621
vt 0.128739 0.836847
vt 0.135094 0.872045
vt 0.139008 0.866095
vt 0.130748 0.850155
vt 0.163968 0.551415
vt 0.163901 0.596217
vt 0.169484 0.600509
vt 0.162300 0.659788
vt 0.177684 0.737848
vt 0.178450 0.648278
vt 0.180222 0.705720
vt 0.129472 0.697364
vt 0.128679 0.792814
vt 0.154964 0.539194
vt 0.168502 0.532439
vt 0.177668 0.553639
vt 0.178049 0.562931
vt 0.132937 0.629136
vt 0.149654 0.538468
vt 0.155085 0.588365
vt 0.156338 0.653539
vt 0.146332 0.668453
vn 0.0000 -1.0000 0.0000
vn 0.6790 -0.1976 -0.7070
vn 0.8667 -0.1718 0.4683
vn -0.2203 -0.5252 0.8219
vn 0.5485 -0.2783 -0.7885
vn -0.7791 0.3614 -0.5122
vn 0.8996 0.2106 0.3825
vn -0.5427 0.2826 0.7910
vn 0.2961 -0.2423 -0.9239
vn -0.5699 0.2494 0.7830
vn 0.8239 0.1468 0.5474
vn -0.8688 -0.2627 -0.4199
vn 0.8230 -0.3005 0.4820
vn 0.5589 -0.2516 -0.7902
vn -0.3859 0.2065 0.8991
vn -0.8748 -0.1208 -0.4693
vn 0.7550 0.5760 0.3133
vn -0.7866 -0.5407 -0.2981
vn 0.5570 -0.3430 -0.7563
vn -0.5435 0.3467 0.7645
vn -0.4649 0.8350 -0.2945
vn -0.8468 -0.4535 -0.2778
vn 0.5345 -0.2876 -0.7947
vn -0.5526 0.3830 0.7402
vn 0.5307 0.8364 0.1372
vn -0.7094 0.5793 -0.4015
vn 0.7763 -0.4398 0.4516
vn -0.5634 0.3452 0.7506
vn -0.3597 0.4912 0.7933
vn 0.2467 -0.4094 -0.8783
vn -0.5425 0.3313 0.7719
vn -0.8515 -0.3134 -0.4204
vn 0.2367 0.9675 -0.0896
vn 0.2296 -0.4090 -0.8832
vn 0.8853 0.1537 0.4390
vn -0.8626 -0.0996 -0.4960
vn 0.5538 0.8313 -0.0482
vn 0.7686 -0.5287 0.3601
vn 0.6057 -0.1893 -0.7729
vn -0.6539 0.6121 -0.4447
vn 0.0254 0.7920 0.6100
vn 0.9106 0.2694 -0.3136
vn 0.4457 0.5730 -0.6877
vn -0.9927 0.0640 0.1022
vn 0.4399 -0.5127 -0.7373
vn -0.8516 0.1488 -0.5026
vn 0.4120 -0.6655 -0.6224
vn 0.8953 -0.3002 0.3292
vn 0.0872 0.9378 -0.3359
vn -0.4343 0.5997 0.6721
vn 0.8632 -0.1664 0.4767
vn -0.8038 0.2566 -0.5368
vn -0.2771 0.9001 0.3361
vn 0.2304 0.5222 -0.8211
vn -0.8878 0.3795 -0.2603
vn -0.3631 -0.3872 0.8475
vn 0.8898 0.1225 0.4396
vn 0.6758 0.0322 -0.7364
vn -0.8682 0.0095 -0.4961
vn -0.6558 0.0348 0.7541
vn 0.9187 -0.0529 0.3915
vn 0.5769 -0.3937 -0.7157
vn -0.8811 0.0114 -0.4728
vn 0.5795 -0.5485 -0.6028
vn 0.9073 0.1866 0.3769
vn 0.1198 0.9378 -0.3257
vn -0.6578 0.4335 0.6160
vn 0.7997 0.3443 0.4919
vn -0.8444 -0.1499 -0.5143
vn -0.3089 0.9001 0.3072
vn 0.4373 0.4060 -0.8025
vn -0.8924 0.0077 -0.4513
vn -0.4709 -0.3425 0.8130
vn -0.5557 -0.4428 -0.7037
vn -0.8377 -0.0565 0.5433
vn 0.5382 -0.3687 0.7579
vn 0.8743 -0.1315 -0.4672
vn -0.4799 0.4569 -0.7490
vn -0.4700 0.5037 -0.7249
vn 0.5466 -0.5094 0.6646
vn -0.2053 0.4324 -0.8780
vn 0.8402 -0.0986 -0.5333
vn -0.0807 0.9675 0.2398
vn 0.5443 -0.4750 0.6914
vn -0.8240 0.0326 0.5656
vn 0.8857 0.0128 -0.4641
vn -0.3137 0.8313 0.4589
vn -0.6175 -0.6547 0.4359
vn 0.2882 -0.3455 0.8931
vn 0.6030 0.7179 -0.3479
vn -0.4880 0.7920 -0.3669
vn -0.2980 0.0617 0.9526
vn 0.3310 0.4950 0.8034
vn 0.4414 0.3466 -0.8277
vn 0.9019 -0.3554 -0.2453
vn 0.4354 -0.2427 0.8669
vn -0.3612 0.2178 -0.9067
vn 0.9536 -0.2021 -0.2231
vn -0.9559 0.2016 0.2137
vn 0.0559 0.9943 0.0911
vn -0.8408 0.4795 0.2511
vn 0.4487 0.1166 0.8860
vn -0.3762 0.0076 -0.9265
vn -0.0579 -0.6432 -0.7635
vn -0.8642 -0.3581 -0.3534
vn -0.4708 -0.8764 0.1016
vn 0.6518 -0.6455 -0.3981
vn -0.0692 -0.9886 -0.1339
vn 0.0283 -0.9992 -0.0268
vn -0.4681 -0.8715 -0.1463
vn 0.0335 -0.6627 -0.7481
vn -0.4559 -0.6056 -0.6522
vn 0.0545 -0.9539 -0.2951
vn -0.6929 -0.3330 -0.6395
vn -0.6761 -0.5214 -0.5206
vn 0.1556 -0.6731 -0.7230
vn 0.3596 -0.9330 -0.0101
vn -0.4829 -0.7219 -0.4956
vn 0.8545 0.4255 0.2980
vn 0.2440 -0.1943 0.9501
vn 0.3828 -0.3204 0.8665
vn -0.7794 0.3891 0.4911
vn -0.4741 0.7586 -0.4469
vn 0.5053 0.3436 -0.7916
vn -0.2608 0.9034 -0.3403
vn 0.7726 0.0223 0.6345
vn 0.9000 0.4356 -0.0125
vn 0.5546 0.4390 0.7069
vn -0.2985 0.4541 0.8395
vn -0.0737 0.9739 0.2145
vn 0.6820 0.5570 0.4739
vn -0.1690 0.9851 0.0312
vn 0.1231 0.2568 0.9586
vn 0.4265 0.9020 -0.0665
vn 0.1869 0.2010 0.9616
vn 0.6250 0.4240 0.6554
vn -0.1010 0.9864 0.1295
vn 0.6692 0.5449 0.5051
vn 0.4218 0.3967 -0.8153
vn 0.2857 0.9217 -0.2623
vn 0.2602 0.8787 -0.4002
vn 0.2552 0.5026 -0.8260
vn -0.2159 0.9384 0.2697
vn 0.6231 0.7435 -0.2430
vn 0.0732 0.1683 -0.9830
vn 0.0493 0.7446 0.6657
vn -0.4927 0.7746 -0.3965
vn -0.3254 0.8469 0.4205
vn -0.8829 0.4618 0.0847
vn -0.0993 0.9937 0.0513
vn 0.1748 0.9835 -0.0458
vn -0.0817 0.9534 -0.2906
vn -0.6507 0.6843 0.3292
vn -0.6171 0.6783 0.3989
vn 0.2778 -0.3635 0.8892
vn 0.3169 -0.3802 0.8689
vn 0.8609 0.5075 0.0347
vn 0.9849 -0.1606 0.0648
vn 0.9912 -0.0625 -0.1170
vn 0.0760 0.9455 -0.3166
vn -0.3617 0.7893 -0.4961
vn -0.0279 0.2608 -0.9650
vn 0.0536 0.2571 -0.9649
vn 0.0011 0.2841 -0.9588
vn -0.6346 -0.4429 -0.6333
vn -0.8428 -0.5374 -0.0278
vn -0.9034 0.1653 0.3956
vn -0.6082 0.0110 0.7937
vn -0.6463 0.3283 0.6888
vn 0.4215 0.0244 0.9065
vn 0.8062 0.5428 0.2355
vn 0.6763 -0.6913 -0.2542
vn 0.2621 0.4572 -0.8499
vn 0.1815 0.9191 0.3496
vn 0.8520 0.1532 -0.5006
vn 0.4601 0.5960 -0.6582
vn 0.5960 0.5261 -0.6066
vn -0.4649 0.7223 -0.5120
vn -0.7558 -0.0334 0.6540
vn -0.8968 -0.4349 -0.0811
vn -0.5507 -0.4079 -0.7282
vn -0.4172 0.1962 0.8874
vn -0.8630 -0.0741 0.4997
vn -0.8291 -0.5494 -0.1039
vn -0.2548 0.3508 0.9011
vn -0.0328 -0.8716 0.4891
vn -0.3639 -0.5200 0.7727
vn 0.6379 -0.7178 -0.2790
vn -0.7695 -0.5040 -0.3922
vn 0.8034 -0.3738 0.4635
vn 0.8061 0.5428 0.2355
vn 0.1788 -0.8116 0.5562
vn 0.7970 -0.3209 -0.5117
vn 0.0872 -0.8567 -0.5084
vn 0.6890 -0.1513 -0.7088
vn -0.2247 -0.0273 -0.9740
vn 0.8009 -0.1911 -0.5675
vn -0.5325 -0.8364 0.1298
vn -0.0227 -0.9976 0.0647
vn -0.5366 -0.8438 0.0009
vn -0.6742 -0.7372 -0.0438
vn -0.0578 -0.6365 -0.7691
vn -0.6829 -0.3542 -0.6389
vn -0.4119 -0.5060 -0.7579
vn -0.4506 -0.7473 -0.4884
vn -0.5517 -0.6653 -0.5030
vn -0.7333 0.0657 0.6767
vn -0.1033 -0.5681 0.8165
vn -0.4681 -0.8417 0.2692
vn 0.7080 -0.4930 -0.5056
vn -0.5592 -0.7586 -0.3344
vn -0.6088 -0.7898 0.0740
vn 0.8602 -0.3695 -0.3515
vn 0.3686 -0.8666 0.3364
vn 0.8614 0.1892 -0.4713
vn 0.5345 -0.8285 0.1672
vn 0.4954 0.5862 -0.6411
vn -0.5209 -0.0857 -0.8493
vn 0.6496 0.6695 -0.3601
vn -0.2658 0.4904 -0.8300
vn 0.4900 -0.5041 0.7112
vn 0.3797 -0.3306 0.8640
vn 0.3793 -0.3175 0.8691
vn -0.9618 0.2642 0.0719
vn 0.9617 -0.2464 -0.1198
vn -0.1735 0.9374 0.3020
vn 0.1755 0.6479 0.7412
vn -0.0244 0.9994 0.0231
vn 0.8304 0.4671 0.3038
vn 0.8233 0.3918 0.4107
vn 0.6737 0.5235 0.5216
vn 0.6903 0.5433 -0.4778
vn -0.5173 0.7242 0.4560
vn -0.3031 0.8041 -0.5114
vn -0.5102 0.7561 -0.4099
vn -0.0928 0.9903 0.1033
vn 0.1580 0.9450 0.2863
vn -0.3031 0.8167 0.4910
vn 0.2989 0.0356 0.9536
vn -0.4438 0.3363 0.8306
vn 0.5744 0.0106 0.8185
vn 0.8279 0.3583 0.4316
vn -0.8818 0.4672 -0.0647
vn -0.0384 0.9550 -0.2941
vn 0.8828 0.4507 0.1329
vn 0.3320 0.3570 -0.8731
vn 0.1516 0.6021 -0.7839
vn -0.4840 -0.5759 -0.6589
vn -0.9070 -0.4210 0.0102
vn -0.9384 -0.2983 -0.1746
vn 0.7363 0.3046 0.6042
vn -0.8778 0.3624 -0.3134
vn 0.1147 -0.0967 -0.9887
vn 0.5011 -0.8268 0.2556
vn 0.5029 -0.8294 0.2434
vn 0.5183 -0.8227 0.2335
vn 0.8045 0.1519 -0.5742
vn 0.0541 0.7557 -0.6527
vn 0.7904 0.1286 -0.5989
vn 0.6887 -0.1709 -0.7046
vn 0.0452 0.2309 -0.9719
vn 0.0287 -0.2781 -0.9601
vn 0.3792 -0.9211 0.0879
vn -0.2435 -0.2591 -0.9347
vn -0.9243 0.1047 0.3670
vn -0.8171 0.5677 0.1002
vn -0.6931 -0.0733 0.7171
vn -0.2264 -0.6217 0.7498
vn -0.2974 -0.5844 0.7550
vn 0.5840 -0.7167 -0.3811
vn 0.8735 -0.4830 0.0608
vn 0.7932 0.3657 0.4869
vn 0.7527 0.4158 0.5105
vn -0.2732 -0.0888 -0.9579
vn 0.6507 -0.4859 -0.5836
vn 0.1588 -0.9472 0.2785
vn -0.0805 -0.9708 0.2262
vn -0.3988 -0.7977 0.4524
vn 0.0521 -0.9932 -0.1036
vn 0.9103 -0.1825 0.3715
vn 0.0137 -0.9943 -0.1053
vn 0.5040 -0.1970 -0.8409
vn -0.3416 -0.4395 -0.8307
vn 0.2608 -0.9650 -0.0274
vn -0.3664 -0.8397 -0.4009
vn 0.0395 -0.9926 0.1145
vn 0.2251 -0.9726 -0.0589
vn 0.2487 -0.9405 -0.2314
vn 0.0807 -0.8986 -0.4314
vn -0.3719 -0.7163 -0.5904
vn 0.0679 -0.9423 -0.3277
vn -0.3853 -0.8364 -0.3899
vn 0.0242 -0.7397 -0.6725
vn 0.0571 -0.8251 -0.5621
vn -0.0223 0.0098 -0.9997
vn 0.5436 0.0802 -0.8355
vn -0.0254 -0.9629 0.2687
vn -0.2120 -0.5577 -0.8025
vn 0.9441 0.3278 -0.0341
vn 0.5018 -0.7650 0.4038
vn -0.0210 -0.1246 0.9920
vn -0.8580 0.4225 0.2923
vn -0.1676 0.7619 -0.6256
vn 0.1841 0.6526 -0.7350
vn -0.1937 0.8004 -0.5673
vn 0.5923 -0.0000 0.8057
vn 0.6883 0.7008 0.1873
vn 0.2376 0.5113 0.8259
vn -0.5396 0.5307 0.6536
vn 0.1552 0.9581 0.2407
vn 0.5631 0.5441 0.6220
vn -0.4197 0.8867 0.1939
vn -0.0053 0.4047 0.9144
vn 0.0633 0.9970 -0.0446
vn -0.1402 0.5345 0.8335
vn 0.5476 0.4531 0.7035
vn -0.0249 0.9997 0.0046
vn 0.7320 0.3166 0.6033
vn 0.4120 0.5969 -0.6884
vn 0.8066 0.5882 -0.0584
vn 0.7809 0.5259 -0.3371
vn -0.1010 0.8062 -0.5829
vn -0.3453 0.9356 -0.0744
vn 0.3738 0.7038 -0.6041
vn 0.2297 0.5620 -0.7946
vn -0.1985 0.8377 0.5088
vn -0.3298 0.8359 -0.4388
vn -0.3675 0.8927 0.2609
vn -0.8642 0.4969 -0.0792
vn -0.4206 0.8398 0.3434
vn 0.0924 0.9469 0.3079
vn -0.3294 0.9013 -0.2814
vn -0.6223 0.7774 0.0913
vn -0.5159 0.7877 0.3367
vn 0.1195 -0.4722 0.8734
vn 0.3664 -0.5557 0.7463
vn 0.7031 0.6862 0.1863
vn 0.8355 -0.2225 0.5024
vn 0.9299 -0.0558 -0.3637
vn 0.0596 0.9825 -0.1766
vn -0.0686 0.2259 -0.9717
vn -0.3558 0.6536 -0.6680
vn 0.1846 0.1252 -0.9748
vn 0.1235 0.1549 -0.9802
vn -0.2525 -0.3881 -0.8863
vn -0.6577 0.6532 0.3752
vn -0.8639 -0.1988 0.4628
vn -0.9692 -0.1192 -0.2155
vn -0.4882 0.5659 0.6644
vn 0.2408 -0.8073 0.5387
vn 0.9536 -0.2666 0.1398
vn 0.9790 0.0289 0.2017
vn 0.7954 -0.0318 -0.6052
vn 0.1955 0.9581 0.2093
vn 0.7111 0.0366 -0.7022
vn 0.9392 0.0932 -0.3305
vn 0.6779 0.3658 -0.6377
vn 0.0248 0.2893 -0.9569
vn -0.9182 -0.2829 0.2774
vn -0.6140 -0.6604 -0.4323
vn -0.7083 -0.6362 -0.3058
vn -0.4159 0.1882 0.8897
vn -0.7320 0.1219 0.6703
vn -0.6891 -0.4187 0.5915
vn -0.4031 0.2050 0.8919
vn 0.2560 -0.8901 0.3771
vn -0.2708 -0.4451 0.8536
vn 0.6800 -0.6609 0.3176
vn -0.6292 -0.6042 -0.4889
vn 0.6316 -0.3355 0.6989
vn 0.9415 -0.0932 0.3238
vn 0.1784 -0.9043 0.3877
vn 0.7024 -0.1511 -0.6956
vn 0.3152 -0.8902 -0.3290
vn 0.7962 -0.3910 -0.4616
vn 0.6388 -0.0685 -0.7663
vn 0.4034 -0.6375 -0.6564
vn -0.1788 -0.9800 -0.0873
vn 0.2598 -0.9209 0.2905
vn -0.1914 -0.9642 -0.1834
vn 0.1130 -0.9891 0.0944
vn 0.3316 -0.7430 -0.5814
vn -0.3223 -0.5310 -0.7837
vn -0.1005 -0.5960 -0.7966
vn -0.2260 -0.9650 -0.1333
vn 0.3326 -0.9376 0.1019
vn -0.9008 -0.1439 0.4096
vn -0.2500 -0.7452 0.6182
vn 0.0477 -0.9967 0.0661
vn 0.4773 -0.8197 -0.3167
vn -0.1739 -0.9604 -0.2179
vn -0.3600 -0.9328 0.0168
vn -0.0491 -0.0665 -0.9966
vn 0.4617 -0.8746 0.1481
vn 0.7523 0.1122 -0.6492
vn 0.2817 -0.5708 0.7713
vn 0.1684 0.2591 -0.9510
vn -0.8100 -0.0126 -0.5862
vn 0.5689 0.1627 -0.8061
vn -0.1909 0.6965 -0.6917
vn 0.6903 -0.5644 0.4528
vn 0.3830 -0.7496 0.5398
vn 0.3466 -0.3788 0.8581
vn -0.9056 0.3903 0.1658
vn 0.8290 -0.2400 0.5051
vn -0.4292 0.7782 0.4585
vn 0.1088 0.8494 -0.5163
vn -0.2672 0.9358 0.2299
vn 0.3889 0.3588 0.8486
vn 0.3324 0.9230 0.1938
vn 0.6123 0.7906 0.0089
vn 0.3677 0.9295 0.0294
vn -0.5629 0.7812 0.2700
vn -0.3904 0.8579 -0.3342
vn -0.3072 0.8752 -0.3738
vn -0.2401 0.9037 0.3544
vn 0.1316 0.9639 0.2313
vn -0.4017 0.8363 0.3733
vn -0.0799 0.0575 0.9951
vn -0.4972 0.5673 0.6565
vn 0.7173 -0.0022 0.6967
vn 0.6586 0.5323 0.5319
vn -0.9153 0.3808 -0.1310
vn 0.3395 0.7193 -0.6062
vn 0.5996 0.7857 0.1520
vn 0.8352 0.2195 -0.5043
vn 0.0419 0.9985 -0.0356
vn -0.0338 -0.5603 -0.8276
vn -0.6548 -0.4888 -0.5765
vn -0.7333 -0.3680 -0.5717
vn 0.6645 0.3299 0.6705
vn -0.9152 0.4013 -0.0369
vn 0.2076 0.0310 -0.9777
vn 0.4612 -0.6100 0.6443
vn 0.0726 -0.3228 0.9437
vn 0.5435 0.0381 0.8386
vn 0.7216 0.2944 -0.6266
vn 0.1577 0.9856 -0.0608
vn 0.8979 0.2318 -0.3743
vn 0.8387 -0.0970 -0.5359
vn 0.2769 0.4820 -0.8312
vn -0.2414 -0.0102 -0.9704
vn 0.1073 -0.9941 0.0132
vn -0.5309 -0.6055 -0.5928
vn -0.7743 -0.5301 -0.3456
vn -0.8386 0.3905 0.3798
vn -0.7158 -0.4783 0.5087
vn -0.3467 -0.3141 0.8838
vn -0.3579 -0.3089 0.8812
vn 0.5892 -0.7802 -0.2100
vn 0.7296 -0.6402 0.2404
vn 0.6176 0.5338 0.5776
vn 0.9623 -0.0645 0.2641
vn 0.1381 -0.6029 -0.7857
vn 0.2171 -0.7574 -0.6158
vn 0.1007 -0.9932 0.0580
vn -0.0341 -0.9970 0.0695
vn -0.3253 -0.8943 0.3072
vn 0.0515 -0.9850 -0.1647
vn 0.8214 -0.3923 0.4141
vn -0.0387 -0.9961 0.0787
vn 0.4089 -0.2924 -0.8644
vn -0.0630 -0.5599 -0.8262
usemtl AllColors_Material
f 1/1/1 2/2/1 3/3/1 4/4/1
f 5/5/1 6/6/1 7/7/1 8/8/1
f 9/9/1 10/10/1 11/11/1 12/12/1
f 13/13/2 14/14/2 15/15/2 16/16/2
f 17/17/3 18/18/3 19/19/3 20/20/3
f 21/21/4 22/22/4 23/23/4 24/24/4
f 7/7/5 6/6/5 25/25/5 18/18/5
f 6/6/6 5/5/6 26/26/6 25/25/6
f 11/11/7 10/10/7 27/27/7 22/22/7
f 1/1/8 4/4/8 28/28/8 29/29/8
f 10/10/9 9/9/9 30/30/9 27/27/9
f 5/5/10 8/8/10 17/17/10 26/26/10
f 4/4/11 3/3/11 13/13/11 28/28/11
f 9/9/12 12/12/12 21/21/12 30/30/12
f 8/8/13 7/7/13 18/18/13 17/17/13
f 3/3/14 2/2/14 31/31/14 13/13/14
f 12/12/15 11/11/15 22/22/15 21/21/15
f 2/2/16 1/1/16 29/29/16 31/31/16
f 32/32/17 14/14/17 33/33/17 34/34/17
f 31/31/18 29/29/18 35/35/18 36/36/18
f 13/13/19 31/31/19 36/36/19 14/14/19
f 29/29/20 28/28/20 32/32/20 35/35/20
f 37/37/21 34/34/21 33/33/21 38/38/21
f 36/36/22 35/35/22 37/37/22 38/38/22
f 14/14/23 36/36/23 38/38/23 33/33/23
f 35/35/24 32/32/24 34/34/24 37/37/24
f 39/39/25 16/16/25 15/15/25 40/40/25
f 14/14/26 32/32/26 40/40/26 15/15/26
f 28/28/27 13/13/27 16/16/27 39/39/27
f 32/32/28 28/28/28 39/39/28 40/40/28
f 41/41/29 42/42/29 43/43/29 44/44/29
f 27/27/30 30/30/30 45/45/30 46/46/30
f 42/42/31 22/22/31 47/47/31 48/48/31
f 30/30/32 21/21/32 41/41/32 45/45/32
f 49/49/33 44/44/33 43/43/33 50/50/33
f 46/46/34 45/45/34 49/49/34 50/50/34
f 42/42/35 46/46/35 50/50/35 43/43/35
f 45/45/36 41/41/36 44/44/36 49/49/36
f 47/47/37 51/51/37 52/52/37 48/48/37
f 22/22/38 27/27/38 51/51/38 47/47/38
f 27/27/39 46/46/39 52/52/39 51/51/39
f 46/46/40 42/42/40 48/48/40 52/52/40
f 24/24/41 23/23/41 53/53/41 54/54/41
f 22/22/42 42/42/42 53/53/42 23/23/42
f 42/42/43 41/41/43 54/54/43 53/53/43
f 41/41/44 21/21/44 24/24/44 54/54/44
f 19/19/45 55/55/45 56/56/45 57/57/45
f 25/25/46 26/26/46 58/58/46 55/55/46
f 18/18/47 25/25/47 55/55/47 19/19/47
f 17/17/48 20/20/48 59/59/48 60/60/48
f 61/61/49 62/62/49 57/57/49 56/56/49
f 58/58/50 20/20/50 62/62/50 61/61/50
f 20/20/51 19/19/51 57/57/51 62/62/51
f 55/55/52 58/58/52 61/61/52 56/56/52
f 63/63/53 60/60/53 59/59/53 64/64/53
f 20/20/54 58/58/54 64/64/54 59/59/54
f 58/58/55 26/26/55 63/63/55 64/64/55
f 26/26/56 17/17/56 60/60/56 63/63/56
f 65/65/1 66/66/1 67/67/1 68/68/1
f 69/69/57 70/70/57 71/71/57 72/72/57
f 67/67/58 66/66/58 73/73/58 70/70/58
f 66/66/59 65/65/59 74/74/59 73/73/59
f 65/65/60 68/68/60 69/69/60 74/74/60
f 68/68/61 67/67/61 70/70/61 69/69/61
f 71/71/62 75/75/62 76/76/62 77/77/62
f 73/73/63 74/74/63 78/78/63 75/75/63
f 70/70/64 73/73/64 75/75/64 71/71/64
f 69/69/65 72/72/65 79/79/65 80/80/65
f 81/81/66 82/82/66 77/77/66 76/76/66
f 78/78/67 72/72/67 82/82/67 81/81/67
f 72/72/68 71/71/68 77/77/68 82/82/68
f 75/75/69 78/78/69 81/81/69 76/76/69
f 83/83/70 80/80/70 79/79/70 84/84/70
f 72/72/71 78/78/71 84/84/71 79/79/71
f 78/78/72 74/74/72 83/83/72 84/84/72
f 74/74/73 69/69/73 80/80/73 83/83/73
f 85/85/1 86/86/1 87/87/1 88/88/1
f 89/89/74 90/90/74 91/91/74 92/92/74
f 87/87/75 86/86/75 93/93/75 90/90/75
f 86/86/76 85/85/76 94/94/76 93/93/76
f 85/85/77 88/88/77 89/89/77 94/94/77
f 88/88/78 87/87/78 90/90/78 89/89/78
f 95/95/79 96/96/79 97/97/79 98/98/79
f 93/93/80 94/94/80 99/99/80 100/100/80
f 96/96/81 90/90/81 101/101/81 102/102/81
f 94/94/82 89/89/82 95/95/82 99/99/82
f 103/103/83 98/98/83 97/97/83 104/104/83
f 100/100/84 99/99/84 103/103/84 104/104/84
f 96/96/85 100/100/85 104/104/85 97/97/85
f 99/99/86 95/95/86 98/98/86 103/103/86
f 101/101/87 105/105/87 106/106/87 102/102/87
f 90/90/88 93/93/88 105/105/88 101/101/88
f 93/93/89 100/100/89 106/106/89 105/105/89
f 100/100/90 96/96/90 102/102/90 106/106/90
f 92/92/91 91/91/91 107/107/91 108/108/91
f 90/90/92 96/96/92 107/107/92 91/91/92
f 96/96/93 95/95/93 108/108/93 107/107/93
f 95/95/94 89/89/94 92/92/94 108/108/94
f 109/109/1 110/110/1 111/111/1 112/112/1
f 113/113/95 114/114/95 115/115/95 116/116/95
f 111/111/96 116/116/96 117/117/96 112/112/96
f 109/109/97 118/118/97 113/113/97 110/110/97
f 110/110/98 113/113/98 116/116/98 111/111/98
f 112/112/99 117/117/99 118/118/99 109/109/99
f 119/119/100 120/120/100 115/115/100 114/114/100
f 117/117/101 120/120/101 119/119/101 118/118/101
f 116/116/102 115/115/102 120/120/102 117/117/102
f 118/118/103 119/119/103 114/114/103 113/113/103
f 121/121/104 122/122/104 123/123/104
f 124/124/105 125/125/105 126/126/105
f 126/126/106 127/127/106 128/128/106
f 122/122/107 121/121/107 129/129/107
f 130/130/108 129/129/108 131/131/108
f 132/132/109 129/129/109 130/130/109
f 129/129/110 133/133/110 134/134/110
f 135/135/111 129/129/111 132/132/111
f 126/126/112 136/136/112 124/124/112
f 137/137/113 138/138/113 139/139/113
f 140/140/114 141/141/114 137/137/114
f 137/137/115 141/141/115 142/142/115
f 143/143/116 144/144/116 145/145/116
f 146/146/117 147/147/117 148/148/117
f 149/149/118 138/138/118 137/137/118
f 150/150/119 151/151/119 152/152/119
f 153/153/120 147/147/120 154/154/120
f 155/155/121 156/156/121 157/157/121
f 158/158/122 159/159/122 160/160/122
f 161/161/123 162/162/123 163/163/123
f 164/164/124 165/165/124 166/166/124
f 166/166/125 165/165/125 167/167/125
f 168/168/126 169/169/126 154/154/126
f 169/169/127 168/168/127 170/170/127
f 171/171/128 172/172/128 156/156/128
f 172/172/129 171/171/129 173/173/129
f 171/171/130 174/174/130 175/175/130
f 170/170/131 176/176/131 174/174/131
f 175/175/132 176/176/132 167/167/132
f 169/169/133 171/171/133 156/156/133
f 174/174/134 169/169/134 170/170/134
f 177/177/135 169/169/135 156/156/135
f 178/178/136 176/176/136 170/170/136
f 178/178/137 166/166/137 167/167/137
f 179/179/138 180/180/138 170/170/138
f 166/166/139 179/179/139 164/164/139
f 165/165/140 181/181/140 167/167/140
f 181/181/141 165/165/141 182/182/141
f 183/183/142 181/181/142 162/162/142
f 162/162/143 181/181/143 184/184/143
f 182/182/144 184/184/144 181/181/144
f 185/185/145 184/184/145 182/182/145
f 183/183/146 186/186/146 167/167/146
f 159/159/147 162/162/147 161/161/147
f 187/187/148 159/159/148 186/186/148
f 160/160/149 159/159/149 161/161/149
f 159/159/150 188/188/150 186/186/150
f 189/189/151 175/175/151 186/186/151
f 189/189/152 186/186/152 188/188/152
f 190/190/153 189/189/153 188/188/153
f 190/190/154 173/173/154 189/189/154
f 156/156/155 153/153/155 177/177/155
f 154/154/156 177/177/156 153/153/156
f 168/168/157 191/191/157 170/170/157
f 154/154/158 191/191/158 168/168/158
f 152/152/159 179/179/159 150/150/159
f 165/165/160 192/192/160 182/182/160
f 193/193/161 194/194/161 195/195/161
f 193/193/162 182/182/162 194/194/162
f 149/149/163 185/185/163 193/193/163
f 185/185/164 149/149/164 163/163/164
f 142/142/165 163/163/165 137/137/165
f 196/196/166 197/197/166 198/198/166
f 190/190/167 198/198/167 197/197/167
f 196/196/168 190/190/168 197/197/168
f 173/173/169 190/190/169 199/199/169
f 200/200/170 201/201/170 146/146/170
f 201/201/171 200/200/171 202/202/171
f 203/203/172 201/201/172 202/202/172
f 204/204/173 152/152/173 205/205/173
f 204/204/174 192/192/174 164/164/174
f 151/151/175 205/205/175 152/152/175
f 205/205/176 145/145/176 204/204/176
f 204/204/177 145/145/177 206/206/177
f 193/193/178 195/195/178 149/149/178
f 158/158/179 160/160/179 124/124/179
f 124/124/180 160/160/180 142/142/180
f 142/142/181 141/141/181 140/140/181
f 172/172/182 199/199/182 157/157/182
f 190/190/183 196/196/183 199/199/183
f 207/207/184 208/208/184 196/196/184
f 199/199/185 208/208/185 157/157/185
f 155/155/186 207/207/186 147/147/186
f 135/135/187 209/209/187 133/133/187
f 133/133/188 209/209/188 148/148/188
f 146/146/189 209/209/189 135/135/189
f 210/210/190 135/135/190 132/132/190
f 202/202/191 200/200/191 210/210/191
f 135/135/192 200/200/192 146/146/192
f 130/130/193 211/211/193 132/132/193
f 212/212/194 130/130/194 131/131/194
f 211/211/195 130/130/195 212/212/195
f 143/143/196 145/145/196 212/212/196
f 143/143/197 131/131/197 139/139/197
f 128/128/198 213/213/198 207/207/198
f 147/147/199 207/207/199 148/148/199
f 127/127/200 213/213/200 128/128/200
f 123/123/201 122/122/201 214/214/201
f 121/121/202 123/123/202 139/139/202
f 137/137/203 215/215/203 140/140/203
f 137/137/204 123/123/204 215/215/204
f 125/125/205 215/215/205 123/123/205
f 125/125/206 140/140/206 215/215/206
f 128/128/207 196/196/207 198/198/207 136/136/207
f 129/129/208 134/134/208 122/122/208
f 127/127/209 126/126/209 125/125/209
f 129/129/210 121/121/210 131/131/210
f 135/135/211 133/133/211 129/129/211
f 126/126/212 128/128/212 136/136/212
f 143/143/213 139/139/213 144/144/213
f 211/211/214 151/151/214 202/202/214
f 205/205/215 151/151/215 211/211/215
f 154/154/216 147/147/216 146/146/216
f 144/144/217 195/195/217 194/194/217 206/206/217
f 158/158/218 124/124/218 136/136/218
f 144/144/219 206/206/219 145/145/219
f 184/184/220 185/185/220 163/163/220 162/162/220
f 150/150/221 202/202/221 151/151/221
f 153/153/222 155/155/222 147/147/222
f 156/156/223 155/155/223 153/153/223
f 158/158/224 188/188/224 159/159/224
f 191/191/225 203/203/225 202/202/225 150/150/225
f 174/174/226 176/176/226 175/175/226
f 174/174/227 171/171/227 169/169/227
f 167/167/228 176/176/228 178/178/228
f 170/170/229 180/180/229 178/178/229
f 178/178/230 180/180/230 166/166/230
f 179/179/231 166/166/231 180/180/231
f 183/183/232 167/167/232 181/181/232
f 187/187/233 186/186/233 183/183/233
f 183/183/234 162/162/234 187/187/234
f 159/159/235 187/187/235 162/162/235
f 167/167/236 186/186/236 175/175/236
f 171/171/237 175/175/237 189/189/237
f 171/171/238 189/189/238 173/173/238
f 157/157/239 156/156/239 172/172/239
f 199/199/240 172/172/240 173/173/240
f 169/169/241 177/177/241 154/154/241
f 179/179/242 170/170/242 191/191/242 150/150/242
f 198/198/243 190/190/243 188/188/243 158/158/243
f 164/164/244 179/179/244 152/152/244
f 164/164/245 192/192/245 165/165/245
f 206/206/246 194/194/246 192/192/246
f 192/192/247 194/194/247 182/182/247
f 142/142/248 161/161/248 163/163/248
f 137/137/249 163/163/249 149/149/249
f 142/142/250 160/160/250 161/161/250
f 216/216/251 203/203/251 191/191/251 154/154/251
f 136/136/252 198/198/252 158/158/252
f 138/138/253 149/149/253 195/195/253 139/139/253
f 146/146/254 216/216/254 154/154/254
f 146/146/255 201/201/255 216/216/255
f 216/216/256 201/201/256 203/203/256
f 206/206/257 192/192/257 204/204/257
f 164/164/258 152/152/258 204/204/258
f 211/211/259 145/145/259 205/205/259
f 212/212/260 145/145/260 211/211/260
f 182/182/261 193/193/261 185/185/261
f 195/195/262 144/144/262 139/139/262
f 127/127/263 214/214/263 133/133/263 148/148/263
f 217/217/264 142/142/264 140/140/264
f 142/142/265 217/217/265 124/124/265
f 208/208/266 199/199/266 196/196/266
f 128/128/267 207/207/267 196/196/267
f 207/207/268 155/155/268 157/157/268
f 208/208/269 207/207/269 157/157/269
f 146/146/270 148/148/270 209/209/270
f 135/135/271 210/210/271 200/200/271
f 210/210/272 132/132/272 211/211/272
f 210/210/273 211/211/273 202/202/273
f 131/131/274 143/143/274 212/212/274
f 139/139/275 131/131/275 121/121/275
f 148/148/276 207/207/276 213/213/276
f 125/125/277 214/214/277 127/127/277
f 125/125/278 124/124/278 217/217/278 140/140/278
f 148/148/279 213/213/279 127/127/279
f 134/134/280 214/214/280 122/122/280
f 125/125/281 123/123/281 214/214/281
f 133/133/282 214/214/282 134/134/282
f 137/137/283 139/139/283 123/123/283
f 218/218/284 219/219/284 220/220/284
f 221/221/285 222/222/285 223/223/285
f 223/223/286 224/224/286 225/225/286
f 219/219/287 218/218/287 226/226/287
f 227/227/288 226/226/288 228/228/288
f 229/229/289 226/226/289 227/227/289
f 226/226/290 230/230/290 231/231/290
f 232/232/291 226/226/291 229/229/291
f 223/223/292 233/233/292 221/221/292
f 234/234/293 235/235/293 236/236/293
f 237/237/294 238/238/294 234/234/294
f 234/234/295 238/238/295 239/239/295
f 240/240/296 241/241/296 242/242/296
f 243/243/297 244/244/297 245/245/297
f 246/246/298 235/235/298 234/234/298
f 247/247/299 248/248/299 249/249/299
f 250/250/300 244/244/300 251/251/300
f 252/252/301 253/253/301 254/254/301
f 255/255/302 256/256/302 257/257/302
f 258/258/303 259/259/303 260/260/303
f 261/261/304 262/262/304 263/263/304
f 263/263/305 262/262/305 264/264/305
f 265/265/306 266/266/306 251/251/306
f 266/266/307 265/265/307 267/267/307
f 268/268/308 269/269/308 253/253/308
f 269/269/309 268/268/309 270/270/309
f 268/268/310 271/271/310 272/272/310
f 267/267/311 273/273/311 271/271/311
f 272/272/312 273/273/312 264/264/312
f 266/266/313 268/268/313 253/253/313
f 271/271/314 266/266/314 267/267/314
f 274/274/315 266/266/315 253/253/315
f 275/275/316 273/273/316 267/267/316
f 275/275/317 263/263/317 264/264/317
f 276/276/318 277/277/318 267/267/318
f 263/263/319 276/276/319 261/261/319
f 262/262/320 278/278/320 264/264/320
f 278/278/321 262/262/321 279/279/321
f 280/280/322 278/278/322 259/259/322
f 259/259/323 278/278/323 281/281/323
f 279/279/324 281/281/324 278/278/324
f 282/282/325 281/281/325 279/279/325
f 280/280/326 283/283/326 264/264/326
f 256/256/327 259/259/327 258/258/327
f 284/284/328 256/256/328 283/283/328
f 257/257/329 256/256/329 258/258/329
f 256/256/330 285/285/330 283/283/330
f 286/286/331 272/272/331 283/283/331
f 286/286/332 283/283/332 285/285/332
f 287/287/333 286/286/333 285/285/333
f 287/287/334 270/270/334 286/286/334
f 253/253/335 250/250/335 274/274/335
f 251/251/336 274/274/336 250/250/336
f 265/265/337 288/288/337 267/267/337
f 251/251/338 288/288/338 265/265/338
f 249/249/339 276/276/339 247/247/339
f 262/262/340 289/289/340 279/279/340
f 290/290/341 291/291/341 292/292/341
f 290/290/342 279/279/342 291/291/342
f 246/246/343 282/282/343 290/290/343
f 282/282/344 246/246/344 260/260/344
f 239/239/345 260/260/345 234/234/345
f 293/293/346 294/294/346 295/295/346
f 287/287/347 295/295/347 294/294/347
f 293/293/348 287/287/348 294/294/348
f 270/270/349 287/287/349 296/296/349
f 297/297/350 298/298/350 243/243/350
f 298/298/351 297/297/351 299/299/351
f 300/300/352 298/298/352 299/299/352
f 301/301/353 249/249/353 302/302/353
f 301/301/354 289/289/354 261/261/354
f 248/248/355 302/302/355 249/249/355
f 302/302/356 242/242/356 301/301/356
f 301/301/357 242/242/357 303/303/357
f 290/290/358 292/292/358 246/246/358
f 255/255/359 257/257/359 221/221/359
f 221/221/360 257/257/360 239/239/360
f 239/239/361 238/238/361 237/237/361
f 269/269/362 296/296/362 254/254/362
f 287/287/363 293/293/363 296/296/363
f 304/304/364 305/305/364 293/293/364
f 296/296/365 305/305/365 254/254/365
f 252/252/366 304/304/366 244/244/366
f 232/232/367 306/306/367 230/230/367
f 230/230/368 306/306/368 245/245/368
f 243/243/369 306/306/369 232/232/369
f 307/307/370 232/232/370 229/229/370
f 299/299/371 297/297/371 307/307/371
f 232/232/372 297/297/372 243/243/372
f 227/227/373 308/308/373 229/229/373
f 309/309/374 227/227/374 228/228/374
f 308/308/375 227/227/375 309/309/375
f 240/240/376 242/242/376 309/309/376
f 240/240/377 228/228/377 236/236/377
f 225/225/378 310/310/378 304/304/378
f 244/244/379 304/304/379 245/245/379
f 224/224/380 310/310/380 225/225/380
f 220/220/381 219/219/381 311/311/381
f 218/218/382 220/220/382 236/236/382
f 234/234/383 312/312/383 237/237/383
f 234/234/384 220/220/384 312/312/384
f 222/222/385 312/312/385 220/220/385
f 222/222/386 237/237/386 312/312/386
f 225/225/387 293/293/387 295/295/387 233/233/387
f 226/226/388 231/231/388 219/219/388
f 224/224/389 223/223/389 222/222/389
f 226/226/390 218/218/390 228/228/390
f 232/232/391 230/230/391 226/226/391
f 223/223/392 225/225/392 233/233/392
f 240/240/393 236/236/393 241/241/393
f 308/308/394 248/248/394 299/299/394
f 302/302/395 248/248/395 308/308/395
f 251/251/396 244/244/396 243/243/396
f 241/241/397 292/292/397 291/291/397 303/303/397
f 255/255/398 221/221/398 233/233/398
f 241/241/399 303/303/399 242/242/399
f 281/281/400 282/282/400 260/260/400 259/259/400
f 247/247/401 299/299/401 248/248/401
f 250/250/402 252/252/402 244/244/402
f 253/253/403 252/252/403 250/250/403
f 255/255/404 285/285/404 256/256/404
f 288/288/405 300/300/405 299/299/405 247/247/405
f 271/271/406 273/273/406 272/272/406
f 271/271/407 268/268/407 266/266/407
f 264/264/408 273/273/408 275/275/408
f 267/267/409 277/277/409 275/275/409
f 275/275/410 277/277/410 263/263/410
f 276/276/411 263/263/411 277/277/411
f 280/280/412 264/264/412 278/278/412
f 284/284/413 283/283/413 280/280/413
f 280/280/414 259/259/414 284/284/414
f 256/256/415 284/284/415 259/259/415
f 264/264/416 283/283/416 272/272/416
f 268/268/417 272/272/417 286/286/417
f 268/268/418 286/286/418 270/270/418
f 254/254/419 253/253/419 269/269/419
f 296/296/420 269/269/420 270/270/420
f 266/266/421 274/274/421 251/251/421
f 276/276/422 267/267/422 288/288/422 247/247/422
f 295/295/423 287/287/423 285/285/423 255/255/423
f 261/261/424 276/276/424 249/249/424
f 261/261/425 289/289/425 262/262/425
f 303/303/426 291/291/426 289/289/426
f 289/289/427 291/291/427 279/279/427
f 239/239/428 258/258/428 260/260/428
f 234/234/429 260/260/429 246/246/429
f 239/239/430 257/257/430 258/258/430
f 313/313/431 300/300/431 288/288/431 251/251/431
f 233/233/432 295/295/432 255/255/432
f 235/235/433 246/246/433 292/292/433 236/236/433
f 243/243/434 313/313/434 251/251/434
f 243/243/435 298/298/435 313/313/435
f 313/313/436 298/298/436 300/300/436
f 303/303/437 289/289/437 301/301/437
f 261/261/438 249/249/438 301/301/438
f 308/308/439 242/242/439 302/302/439
f 309/309/440 242/242/440 308/308/440
f 279/279/441 290/290/441 282/282/441
f 292/292/442 241/241/442 236/236/442
f 224/224/443 311/311/443 230/230/443 245/245/443
f 314/314/444 239/239/444 237/237/444
f 239/239/445 314/314/445 221/221/445
f 305/305/446 296/296/446 293/293/446
f 225/225/447 304/304/447 293/293/447
f 304/304/448 252/252/448 254/254/448
f 305/305/449 304/304/449 254/254/449
f 243/243/450 245/245/450 306/306/450
f 232/232/451 307/307/451 297/297/451
f 307/307/452 229/229/452 308/308/452
f 307/307/453 308/308/453 299/299/453
f 228/228/454 240/240/454 309/309/454
f 236/236/455 228/228/455 218/218/455
f 245/245/456 304/304/456 310/310/456
f 222/222/457 311/311/457 224/224/457
f 222/222/458 221/221/458 314/314/458 237/237/458
f 245/245/459 310/310/459 224/224/459
f 231/231/460 311/311/460 219/219/460
f 222/222/461 220/220/461 311/311/461
f 230/230/462 311/311/462 231/231/462
f 234/234/463 236/236/463 220/220/463
