mtllib forest_nature_set_all_in.mtl
o forest_Tree_Spruce_small_02_Cylinder_003
v 23.723316 0.787547 0.759643
v 23.723728 2.505755 0.933055
v 24.296663 2.505755 1.309572
v 24.475143 0.696909 1.056525
v 24.506792 2.505755 1.786113
v 24.742203 0.592623 1.735175
v 24.224514 2.505755 2.294320
v 24.474195 0.649809 2.483573
v 23.729168 2.505755 2.434050
v 23.784384 0.677119 2.823402
v 23.167036 2.505755 2.185973
v 23.026579 0.801769 2.451905
v 22.986952 2.505755 1.738677
v 22.808830 1.071762 1.768960
v 23.185898 2.505755 1.221048
v 22.973993 0.939868 1.054086
v 22.890522 0.015368 2.826569
v 22.212198 0.000000 1.913342
v 22.714436 0.016969 0.905411
v 23.758186 0.001317 0.338403
v 23.730049 0.006111 3.059545
v 24.848667 0.000000 2.894827
v 24.963991 0.002634 1.759274
v 24.722651 0.013199 0.822639
v 23.996613 7.010739 1.393602
v 24.165514 7.010739 1.776645
v 23.540461 7.010739 2.297455
v 23.088621 7.010739 2.098052
v 23.103781 7.010739 1.322447
v 23.536089 7.010739 1.090958
v 23.938620 7.010739 2.185140
v 22.943869 7.010739 1.738515
v 23.705149 9.608961 2.226508
v 23.310595 9.608961 2.052385
v 24.250956 9.608961 1.771727
v 24.052828 9.608961 2.128432
v 23.701330 9.608961 1.172973
v 24.103468 9.608961 1.437247
v 23.323832 9.608961 1.375113
v 23.184195 9.608961 1.738432
v 23.285156 11.913836 1.738293
v 23.391348 11.913836 1.461995
v 23.681335 11.913836 2.109468
v 23.381281 11.913836 1.977050
v 24.096413 11.913836 1.763614
v 23.945740 11.913836 2.034883
v 23.678431 11.913836 1.308270
v 23.984251 11.913836 1.509246
v 23.525961 13.778689 1.917869
v 23.453619 13.778689 1.738184
v 23.950762 13.778689 1.961393
v 23.751776 13.778689 2.017524
v 23.979746 13.778689 1.565808
v 24.064157 13.778689 1.757240
v 23.533537 13.778689 1.530247
v 23.749590 13.778689 1.414556
v 23.798243 16.879791 1.737853
v 23.538988 4.200455 -3.824758
v 23.427523 9.422034 0.264172
v 24.551176 9.482012 0.721028
v 27.724529 5.173689 -2.505498
v 25.034294 9.504729 1.832272
v 29.025311 4.189954 1.805765
v 24.458780 9.357809 2.825015
v 27.754129 4.962330 5.975147
v 23.442280 9.459077 3.410140
v 23.532921 3.968529 7.414752
v 22.368574 9.361902 2.898845
v 19.472660 4.525090 5.949242
v 21.839535 9.405951 1.816289
v 17.903309 3.994639 1.810818
v 22.224764 9.499593 0.604455
v 19.448038 4.728377 -2.130610
v 23.584585 3.812044 -3.338715
v 27.399136 4.752017 -2.180733
v 24.224926 9.060340 1.044936
v 23.471197 9.033413 0.750216
v 28.551281 3.784959 1.784746
v 24.560188 9.099754 1.812643
v 27.419674 4.550425 5.647050
v 24.123678 8.945923 2.497585
v 23.546230 3.563573 6.940400
v 23.454578 9.054083 2.935806
v 19.825184 4.138392 5.609609
v 22.720354 8.975184 2.558469
v 18.400814 3.618449 1.822813
v 22.337040 9.029781 1.828626
v 19.811186 4.367590 -1.774069
v 22.587587 9.138805 0.961319
v 23.325310 8.649815 -2.376648
v 23.590866 12.020887 0.724948
v 24.424520 12.068071 0.988687
v 26.472128 7.974678 -1.248027
v 24.811510 12.084988 1.816879
v 27.721092 8.676407 1.832601
v 24.434864 12.082793 2.663786
v 26.608822 7.972019 4.882410
v 23.593195 12.073995 2.987676
v 23.642195 8.602265 6.039290
v 22.753731 12.125703 2.663874
v 20.477961 7.923848 4.895390
v 22.481863 12.060152 1.815661
v 19.265486 8.559284 1.815557
v 22.767830 12.103980 0.993080
v 20.511225 7.965443 -1.156091
v 23.497829 11.064701 -1.605358
v 23.562119 14.326609 0.775237
v 24.271748 14.334448 1.110188
v 26.056234 11.651265 -0.577270
v 24.581043 14.370051 1.825761
v 27.235704 11.309942 1.860518
v 24.224771 14.282393 2.488019
v 25.995913 11.761887 4.286770
v 23.564196 14.269532 2.794560
v 23.688011 11.321450 5.210008
v 22.802868 14.308460 2.586242
v 21.464836 11.719025 3.974769
v 22.618856 14.201184 1.826818
v 20.240469 11.040776 1.920890
v 22.842289 14.273708 1.098775
v 21.282625 11.605619 -0.408272
v 23.583134 14.155711 -0.358346
v 23.601027 15.380784 0.634208
v 24.335621 15.296480 1.098377
v 25.259802 13.702122 0.244761
v 24.729605 15.171146 1.822216
v 25.699873 14.090506 1.889076
v 24.367220 15.276671 2.582510
v 25.135109 13.829034 3.387609
v 23.606991 15.315845 3.052790
v 23.584341 14.218732 3.944643
v 22.661364 15.313161 2.735560
v 21.992207 13.841567 3.491359
v 22.428423 15.336164 1.813335
v 21.422104 14.279458 1.829204
v 22.790714 15.402757 1.044509
v 21.881540 13.876595 0.150606
v 23.632927 18.245337 1.818081
v 23.318626 8.253026 -1.895308
v 26.127087 7.583506 -0.905823
v 24.079460 11.676897 1.330873
v 23.585155 11.624078 1.206270
v 27.225853 8.297229 1.844138
v 24.316271 11.705812 1.828036
v 26.264008 7.575232 4.546508
v 24.090546 11.685983 2.327389
v 23.633303 8.208276 5.555703
v 23.585217 11.679983 2.504089
v 20.801107 7.508020 4.560973
v 23.077257 11.709873 2.329838
v 19.735918 8.149816 1.829341
v 22.952293 11.650662 1.829255
v 20.835896 7.556717 -0.814496
v 23.093260 11.695233 1.333933
v 23.522446 10.681373 -1.113813
v 25.737999 11.245051 -0.226727
v 23.952198 13.928138 1.459436
v 23.584318 13.943150 1.266801
v 26.776371 10.887888 1.852960
v 24.121693 13.948016 1.819155
v 25.685141 11.348916 3.937406
v 23.912611 13.869362 2.139970
v 23.714380 10.932943 4.722632
v 23.588432 13.880799 2.307242
v 21.830820 11.355611 3.623825
v 23.167349 13.945010 2.233794
v 20.744732 10.673611 1.911885
v 23.123119 13.834022 1.818098
v 21.646362 11.231676 -0.066201
v 23.204065 13.899787 1.442940
v 23.544180 13.759225 0.121719
v 24.876646 13.326315 0.562768
v 23.909151 15.022339 1.461867
v 23.559103 15.060151 1.167696
v 25.198904 13.718774 1.888200
v 24.184542 14.867782 1.827756
v 24.750544 13.459167 3.064405
v 23.939970 15.001006 2.221095
v 23.552050 13.839974 3.450013
v 23.550634 15.010613 2.511649
v 22.340733 13.464999 3.136550
v 23.047644 14.995974 2.362285
v 21.901255 13.880040 1.822693
v 22.965319 15.019414 1.837438
v 22.215672 13.472493 0.488565
v 23.181887 15.093451 1.419308
v 23.611490 17.621927 1.826096
vt 0.552330 0.562208
vt 0.552331 0.605999
vt 0.553982 0.605999
vt 0.554496 0.559898
vt 0.554587 0.605999
vt 0.555265 0.557239
vt 0.553774 0.605999
vt 0.554493 0.558697
vt 0.552347 0.605999
vt 0.552506 0.559394
vt 0.550727 0.605999
vt 0.550322 0.562570
vt 0.550208 0.605999
vt 0.549695 0.569451
vt 0.550781 0.605999
vt 0.550171 0.566090
vt 0.549930 0.542527
vt 0.547976 0.542136
vt 0.549423 0.542568
vt 0.552430 0.542169
vt 0.552349 0.542292
vt 0.555572 0.542136
vt 0.555904 0.542202
vt 0.555209 0.542472
vt 0.553117 0.720818
vt 0.553604 0.720818
vt 0.551803 0.720818
vt 0.550501 0.720818
vt 0.550545 0.720818
vt 0.551790 0.720818
vt 0.552950 0.720818
vt 0.550084 0.720818
vt 0.552277 0.787039
vt 0.551141 0.787039
vt 0.553850 0.787039
vt 0.553279 0.787039
vt 0.552266 0.787039
vt 0.553425 0.787039
vt 0.551179 0.787039
vt 0.550776 0.787039
vt 0.551067 0.845784
vt 0.551373 0.845784
vt 0.552209 0.845784
vt 0.551344 0.845784
vt 0.553405 0.845784
vt 0.552971 0.845784
vt 0.552200 0.845784
vt 0.553081 0.845784
vt 0.551761 0.893313
vt 0.551553 0.893313
vt 0.552985 0.893313
vt 0.552412 0.893313
vt 0.553068 0.893313
vt 0.553312 0.893313
vt 0.551783 0.893313
vt 0.552405 0.893313
vt 0.552546 0.972351
vt 0.148796 0.566760
vt 0.148159 0.759077
vt 0.152567 0.760296
vt 0.167214 0.571853
vt 0.154393 0.760801
vt 0.174842 0.573963
vt 0.152567 0.760296
vt 0.167214 0.571854
vt 0.148159 0.759077
vt 0.148796 0.566760
vt 0.143752 0.757858
vt 0.130379 0.561667
vt 0.141926 0.757353
vt 0.122750 0.559558
vt 0.143752 0.757858
vt 0.130379 0.561667
vt 0.148796 0.566760
vt 0.167214 0.571853
vt 0.152567 0.760296
vt 0.148159 0.759077
vt 0.174842 0.573963
vt 0.154393 0.760801
vt 0.167214 0.571854
vt 0.152567 0.760296
vt 0.148796 0.566760
vt 0.148159 0.759077
vt 0.130379 0.561667
vt 0.143752 0.757858
vt 0.122750 0.559558
vt 0.141926 0.757353
vt 0.130379 0.561667
vt 0.143752 0.757858
vt 0.149364 0.573491
vt 0.149797 0.765601
vt 0.154200 0.764773
vt 0.167762 0.570032
vt 0.156024 0.764430
vt 0.175383 0.568599
vt 0.154200 0.764773
vt 0.167762 0.570032
vt 0.149797 0.765601
vt 0.149364 0.573491
vt 0.145394 0.766429
vt 0.130967 0.576950
vt 0.143570 0.766772
vt 0.123346 0.578383
vt 0.145394 0.766429
vt 0.130967 0.576950
vt 0.148793 0.571087
vt 0.147908 0.737340
vt 0.151718 0.739034
vt 0.164714 0.578163
vt 0.153297 0.739736
vt 0.171309 0.581095
vt 0.151718 0.739034
vt 0.164714 0.578163
vt 0.147908 0.737340
vt 0.148793 0.571087
vt 0.144098 0.735647
vt 0.132871 0.564010
vt 0.142519 0.734945
vt 0.126277 0.561079
vt 0.144098 0.735647
vt 0.132871 0.564010
vt 0.148271 0.528774
vt 0.148761 0.681768
vt 0.156765 0.682359
vt 0.166779 0.520471
vt 0.161157 0.666667
vt 0.174446 0.517033
vt 0.156947 0.678951
vt 0.166779 0.520471
vt 0.148742 0.675983
vt 0.148271 0.528774
vt 0.139767 0.673416
vt 0.129764 0.537075
vt 0.136663 0.681873
vt 0.122097 0.540514
vt 0.140717 0.688459
vt 0.129763 0.537075
vt 0.149309 0.959427
vt 0.149364 0.573491
vt 0.167762 0.570032
vt 0.154200 0.764773
vt 0.149797 0.765601
vt 0.175383 0.568599
vt 0.156024 0.764430
vt 0.167762 0.570032
vt 0.154200 0.764773
vt 0.149364 0.573491
vt 0.149797 0.765601
vt 0.130967 0.576950
vt 0.145394 0.766429
vt 0.123346 0.578383
vt 0.143570 0.766772
vt 0.130967 0.576950
vt 0.145394 0.766429
vt 0.148793 0.571087
vt 0.164714 0.578163
vt 0.151718 0.739034
vt 0.147908 0.737340
vt 0.171309 0.581095
vt 0.153297 0.739736
vt 0.164714 0.578163
vt 0.151718 0.739034
vt 0.148793 0.571087
vt 0.147908 0.737340
vt 0.132871 0.564010
vt 0.144098 0.735647
vt 0.126277 0.561079
vt 0.142519 0.734945
vt 0.132871 0.564010
vt 0.144098 0.735647
vt 0.148271 0.528774
vt 0.166779 0.520471
vt 0.156765 0.682359
vt 0.148761 0.681768
vt 0.174446 0.517033
vt 0.161157 0.666667
vt 0.166779 0.520471
vt 0.156947 0.678951
vt 0.148271 0.528774
vt 0.148742 0.675983
vt 0.129764 0.537075
vt 0.139767 0.673416
vt 0.122097 0.540514
vt 0.136663 0.681873
vt 0.129763 0.537075
vt 0.140717 0.688459
vt 0.149309 0.959427
vn 0.4563 0.1295 -0.8803
vn 0.9203 0.1324 -0.3682
vn 0.9102 0.1316 0.3926
vn 0.3728 0.1740 0.9114
vn -0.4046 0.1762 0.8974
vn -0.9256 0.1276 0.3563
vn -0.9460 0.1364 -0.2941
vn -0.3975 0.1200 -0.9097
vn 0.0271 -0.9996 -0.0033
vn -0.3818 0.3371 -0.8605
vn -0.8581 0.3691 -0.3570
vn -0.7538 0.4348 0.4926
vn -0.2944 0.4019 0.8671
vn 0.2448 0.4739 0.8459
vn 0.8657 0.4734 0.1624
vn 0.8930 0.3710 -0.2547
vn 0.3892 0.4363 -0.8112
vn -0.0008 -0.9997 0.0261
vn -0.0023 -0.9999 -0.0107
vn -0.0059 -1.0000 -0.0029
vn -0.0054 -1.0000 -0.0025
vn -0.0111 -0.9999 0.0002
vn 0.9129 0.0683 -0.4025
vn -0.4037 0.0108 0.9148
vn -0.4720 0.0112 -0.8815
vn 0.5484 0.0521 -0.8346
vn 0.8722 0.0671 0.4845
vn -0.9276 -0.0089 0.3735
vn 0.2713 0.0405 0.9617
vn -0.9334 -0.0089 -0.3587
vn -0.4032 0.0505 0.9137
vn 0.8739 -0.0278 0.4854
vn 0.5492 -0.0085 -0.8357
vn -0.4713 0.0578 -0.8801
vn -0.9242 0.0855 0.3721
vn 0.2715 0.0091 0.9624
vn 0.9146 -0.0308 -0.4033
vn -0.9300 0.0860 -0.3574
vn -0.9327 0.0408 -0.3585
vn -0.4034 0.0422 0.9141
vn 0.8726 0.0602 0.4847
vn 0.5484 0.0544 -0.8345
vn -0.4715 0.0470 -0.8806
vn -0.9269 0.0406 0.3732
vn 0.2711 0.0516 0.9612
vn 0.9134 0.0598 -0.4027
vn -0.9244 0.0835 0.3722
vn 0.2713 0.0372 0.9618
vn 0.9149 0.0144 -0.4034
vn -0.9301 0.0840 -0.3575
vn -0.4030 0.0602 0.9132
vn 0.8741 0.0168 0.4855
vn 0.5490 0.0267 -0.8354
vn -0.4710 0.0681 -0.8795
vn 0.5475 0.0783 -0.8331
vn -0.4697 0.0988 -0.8773
vn -0.9227 0.1026 0.3715
vn 0.2706 0.0824 0.9592
vn 0.9124 0.0757 -0.4023
vn -0.9285 0.1031 -0.3568
vn -0.4022 0.0882 0.9113
vn 0.8716 0.0778 0.4841
vn 0.1325 0.6319 -0.7637
vn 0.7701 0.6217 -0.1432
vn 0.7538 0.6279 0.1936
vn 0.1899 0.6175 0.7633
vn -0.2432 0.5913 0.7689
vn -0.7682 0.5876 0.2540
vn -0.7913 0.5765 -0.2038
vn -0.2300 0.5899 -0.7740
vn -0.1115 -0.6290 0.7694
vn -0.7758 -0.6190 0.1225
vn -0.7589 -0.6266 -0.1774
vn -0.1739 -0.6157 -0.7685
vn 0.2306 -0.5908 -0.7731
vn 0.7705 -0.5873 -0.2479
vn 0.7966 -0.5752 0.1858
vn 0.2135 -0.5891 0.7793
vn 0.3566 -0.7196 -0.5959
vn -0.2844 0.7256 0.6266
vn 0.6067 -0.7146 -0.3482
vn -0.6452 0.7194 0.2572
vn 0.6014 -0.7320 0.3201
vn -0.6326 0.7330 -0.2502
vn 0.3735 -0.7206 0.5841
vn -0.2885 0.7263 -0.6239
vn -0.3183 -0.7471 0.5835
vn 0.2330 0.7474 -0.6222
vn -0.5641 -0.7635 0.3143
vn 0.5897 0.7662 -0.2552
vn -0.5155 -0.7797 -0.3554
vn 0.5659 0.7857 0.2496
vn -0.3285 -0.7793 -0.5336
vn 0.2231 0.7794 0.5854
vn 0.3469 0.5990 -0.7217
vn 0.7045 0.5846 -0.4023
vn 0.7105 0.5929 0.3790
vn 0.3730 0.6008 0.7071
vn -0.3567 0.5978 0.7179
vn -0.7090 0.6087 0.3562
vn -0.7021 0.6075 -0.3715
vn -0.3841 0.6122 -0.6911
vn 0.2156 0.5932 -0.7757
vn 0.7196 0.6362 -0.2781
vn 0.7027 0.6513 0.2863
vn 0.2081 0.6413 0.7386
vn -0.2824 0.5845 0.7607
vn -0.7875 0.5697 0.2352
vn -0.7873 0.5816 -0.2047
vn -0.2971 0.5791 -0.7592
vn 0.4336 0.5870 -0.6837
vn 0.7250 0.6084 -0.3229
vn 0.7177 0.6095 0.3367
vn 0.4175 0.5856 0.6948
vn -0.3156 0.5711 0.7578
vn -0.7357 0.5894 0.3337
vn -0.7042 0.6321 -0.3233
vn -0.3272 0.6069 -0.7243
vn -0.4153 0.3514 -0.8391
vn -0.2960 0.3732 0.8793
vn 0.8576 0.3054 -0.4139
vn -0.8980 0.3714 0.2361
vn 0.8737 0.3122 0.3731
vn -0.8570 0.3554 -0.3731
vn 0.5088 0.3305 0.7949
vn 0.5322 0.3183 -0.7845
vn -0.3542 -0.5984 0.7186
vn -0.6953 -0.5836 0.4195
vn -0.7012 -0.5921 -0.3973
vn -0.3851 -0.6002 -0.7011
vn 0.3691 -0.5973 -0.7120
vn 0.7031 -0.6081 -0.3685
vn 0.6972 -0.6069 0.3816
vn 0.4047 -0.6114 0.6800
vn -0.2005 -0.5921 0.7805
vn -0.7227 -0.6364 0.2698
vn -0.7060 -0.6513 -0.2781
vn -0.1955 -0.6402 -0.7429
vn 0.2662 -0.5848 -0.7663
vn 0.7954 -0.5683 -0.2108
vn 0.7949 -0.5800 0.1781
vn 0.2844 -0.5789 0.7642
vn -0.4568 -0.5819 0.6728
vn -0.7218 -0.6030 0.3399
vn -0.7104 -0.6034 -0.3622
vn -0.4356 -0.5816 -0.6870
vn 0.3323 -0.5654 -0.7549
vn 0.7329 -0.5849 -0.3475
vn 0.7017 -0.6301 0.3326
vn 0.3496 -0.6027 0.7173
vn 0.5275 -0.2216 0.8202
vn 0.2823 -0.2497 -0.9262
vn -0.8205 -0.1704 0.5456
vn 0.9577 -0.2385 -0.1609
vn -0.8615 -0.1795 -0.4749
vn 0.8819 -0.2172 0.4183
vn -0.5900 -0.1921 -0.7842
vn -0.6443 -0.1780 0.7438
vn 0.0732 -0.7360 -0.6730
vn -0.2370 0.7504 0.6171
vn 0.6547 -0.7515 -0.0812
vn -0.5938 0.7638 0.2531
vn 0.6658 -0.7440 0.0556
vn -0.6006 0.7573 -0.2564
vn 0.0932 -0.7363 0.6702
vn -0.2383 0.7482 -0.6192
vn -0.0784 -0.7234 0.6860
vn 0.2741 0.7341 -0.6213
vn -0.6932 -0.7114 0.1153
vn 0.6449 0.7200 -0.2563
vn -0.6814 -0.7198 -0.1325
vn 0.6357 0.7287 0.2548
vn -0.1030 -0.7304 -0.6752
vn 0.2724 0.7381 0.6173
vn 0.3976 -0.7345 -0.5500
vn -0.2885 0.7467 0.5993
vn 0.5821 -0.7103 -0.3956
vn -0.6505 0.7162 0.2527
vn 0.5626 -0.7041 0.4333
vn -0.6537 0.7124 -0.2554
vn 0.3744 -0.7299 0.5719
vn -0.2933 0.7382 -0.6074
vn -0.4277 -0.7632 0.4844
vn 0.2098 0.7746 -0.5967
vn -0.4112 -0.7471 0.5222
vn 0.5581 0.7896 -0.2551
vn -0.4905 -0.7634 -0.4204
vn 0.5697 0.7812 0.2551
vn -0.4592 -0.7535 -0.4706
vn 0.2066 0.7704 0.6032
vn 0.0252 -0.7250 -0.6883
vn 0.6520 -0.7576 0.0318
vn 0.6216 -0.7788 0.0837
vn 0.0212 -0.7428 0.6691
vn 0.0169 -0.7440 0.6679
vn -0.6791 -0.7337 0.0201
vn -0.7048 -0.7093 0.0098
vn -0.0631 -0.7245 -0.6863
usemtl AllColors_Material
f 1/1/1 2/2/1 3/3/1 4/4/1
f 4/4/2 3/3/2 5/5/2 6/6/2
f 6/6/3 5/5/3 7/7/3 8/8/3
f 8/8/4 7/7/4 9/9/4 10/10/4
f 10/10/5 9/9/5 11/11/5 12/12/5
f 12/12/6 11/11/6 13/13/6 14/14/6
f 14/14/7 13/13/7 15/15/7 16/16/7
f 16/16/8 15/15/8 2/2/8 1/1/8
f 17/17/9 18/18/9 19/19/9
f 19/19/10 16/16/10 1/1/10 20/20/10
f 18/18/11 14/14/11 16/16/11 19/19/11
f 17/17/12 12/12/12 14/14/12 18/18/12
f 21/21/13 10/10/13 12/12/13 17/17/13
f 22/22/14 8/8/14 10/10/14 21/21/14
f 23/23/15 6/6/15 8/8/15 22/22/15
f 24/24/16 4/4/16 6/6/16 23/23/16
f 20/20/17 1/1/17 4/4/17 24/24/17
f 19/19/18 20/20/18 24/24/18
f 24/24/19 23/23/19 19/19/19
f 23/23/20 22/22/20 21/21/20
f 19/19/21 23/23/21 21/21/21
f 21/21/22 17/17/22 19/19/22
f 5/5/23 3/3/23 25/25/23 26/26/23
f 11/11/24 9/9/24 27/27/24 28/28/24
f 2/2/25 15/15/25 29/29/25 30/30/25
f 3/3/26 2/2/26 30/30/26 25/25/26
f 7/7/27 5/5/27 26/26/27 31/31/27
f 13/13/28 11/11/28 28/28/28 32/32/28
f 9/9/29 7/7/29 31/31/29 27/27/29
f 15/15/30 13/13/30 32/32/30 29/29/30
f 28/28/31 27/27/31 33/33/31 34/34/31
f 31/31/32 26/26/32 35/35/32 36/36/32
f 25/25/33 30/30/33 37/37/33 38/38/33
f 30/30/34 29/29/34 39/39/34 37/37/34
f 32/32/35 28/28/35 34/34/35 40/40/35
f 27/27/36 31/31/36 36/36/36 33/33/36
f 26/26/37 25/25/37 38/38/37 35/35/37
f 29/29/38 32/32/38 40/40/38 39/39/38
f 39/39/39 40/40/39 41/41/39 42/42/39
f 34/34/40 33/33/40 43/43/40 44/44/40
f 36/36/41 35/35/41 45/45/41 46/46/41
f 38/38/42 37/37/42 47/47/42 48/48/42
f 37/37/43 39/39/43 42/42/43 47/47/43
f 40/40/44 34/34/44 44/44/44 41/41/44
f 33/33/45 36/36/45 46/46/45 43/43/45
f 35/35/46 38/38/46 48/48/46 45/45/46
f 41/41/47 44/44/47 49/49/47 50/50/47
f 43/43/48 46/46/48 51/51/48 52/52/48
f 45/45/49 48/48/49 53/53/49 54/54/49
f 42/42/50 41/41/50 50/50/50 55/55/50
f 44/44/51 43/43/51 52/52/51 49/49/51
f 46/46/52 45/45/52 54/54/52 51/51/52
f 48/48/53 47/47/53 56/56/53 53/53/53
f 47/47/54 42/42/54 55/55/54 56/56/54
f 53/53/55 56/56/55 57/57/55
f 56/56/56 55/55/56 57/57/56
f 50/50/57 49/49/57 57/57/57
f 52/52/58 51/51/58 57/57/58
f 54/54/59 53/53/59 57/57/59
f 55/55/60 50/50/60 57/57/60
f 49/49/61 52/52/61 57/57/61
f 51/51/62 54/54/62 57/57/62
f 58/58/63 59/59/63 60/60/63 61/61/63
f 61/61/64 60/60/64 62/62/64 63/63/64
f 63/63/65 62/62/65 64/64/65 65/65/65
f 65/65/66 64/64/66 66/66/66 67/67/66
f 67/67/67 66/66/67 68/68/67 69/69/67
f 69/69/68 68/68/68 70/70/68 71/71/68
f 71/71/69 70/70/69 72/72/69 73/73/69
f 73/73/70 72/72/70 59/59/70 58/58/70
f 74/74/71 75/75/71 76/76/71 77/77/71
f 75/75/72 78/78/72 79/79/72 76/76/72
f 78/78/73 80/80/73 81/81/73 79/79/73
f 80/80/74 82/82/74 83/83/74 81/81/74
f 82/82/75 84/84/75 85/85/75 83/83/75
f 84/84/76 86/86/76 87/87/76 85/85/76
f 86/86/77 88/88/77 89/89/77 87/87/77
f 88/88/78 74/74/78 77/77/78 89/89/78
f 58/58/79 61/61/79 75/75/79 74/74/79
f 60/60/80 59/59/80 77/77/80 76/76/80
f 61/61/81 63/63/81 78/78/81 75/75/81
f 62/62/82 60/60/82 76/76/82 79/79/82
f 63/63/83 65/65/83 80/80/83 78/78/83
f 64/64/84 62/62/84 79/79/84 81/81/84
f 65/65/85 67/67/85 82/82/85 80/80/85
f 66/66/86 64/64/86 81/81/86 83/83/86
f 67/67/87 69/69/87 84/84/87 82/82/87
f 68/68/88 66/66/88 83/83/88 85/85/88
f 69/69/89 71/71/89 86/86/89 84/84/89
f 70/70/90 68/68/90 85/85/90 87/87/90
f 71/71/91 73/73/91 88/88/91 86/86/91
f 72/72/92 70/70/92 87/87/92 89/89/92
f 73/73/93 58/58/93 74/74/93 88/88/93
f 59/59/94 72/72/94 89/89/94 77/77/94
f 90/90/95 91/91/95 92/92/95 93/93/95
f 93/93/96 92/92/96 94/94/96 95/95/96
f 95/95/97 94/94/97 96/96/97 97/97/97
f 97/97/98 96/96/98 98/98/98 99/99/98
f 99/99/99 98/98/99 100/100/99 101/101/99
f 101/101/100 100/100/100 102/102/100 103/103/100
f 103/103/101 102/102/101 104/104/101 105/105/101
f 105/105/102 104/104/102 91/91/102 90/90/102
f 106/106/103 107/107/103 108/108/103 109/109/103
f 109/109/104 108/108/104 110/110/104 111/111/104
f 111/111/105 110/110/105 112/112/105 113/113/105
f 113/113/106 112/112/106 114/114/106 115/115/106
f 115/115/107 114/114/107 116/116/107 117/117/107
f 117/117/108 116/116/108 118/118/108 119/119/108
f 119/119/109 118/118/109 120/120/109 121/121/109
f 121/121/110 120/120/110 107/107/110 106/106/110
f 122/122/111 123/123/111 124/124/111 125/125/111
f 125/125/112 124/124/112 126/126/112 127/127/112
f 127/127/113 126/126/113 128/128/113 129/129/113
f 129/129/114 128/128/114 130/130/114 131/131/114
f 131/131/115 130/130/115 132/132/115 133/133/115
f 133/133/116 132/132/116 134/134/116 135/135/116
f 135/135/117 134/134/117 136/136/117 137/137/117
f 137/137/118 136/136/118 123/123/118 122/122/118
f 123/123/119 136/136/119 138/138/119
f 132/132/120 130/130/120 138/138/120
f 126/126/121 124/124/121 138/138/121
f 134/134/122 132/132/122 138/138/122
f 128/128/123 126/126/123 138/138/123
f 136/136/124 134/134/124 138/138/124
f 130/130/125 128/128/125 138/138/125
f 124/124/126 123/123/126 138/138/126
f 139/139/127 140/140/127 141/141/127 142/142/127
f 140/140/128 143/143/128 144/144/128 141/141/128
f 143/143/129 145/145/129 146/146/129 144/144/129
f 145/145/130 147/147/130 148/148/130 146/146/130
f 147/147/131 149/149/131 150/150/131 148/148/131
f 149/149/132 151/151/132 152/152/132 150/150/132
f 151/151/133 153/153/133 154/154/133 152/152/133
f 153/153/134 139/139/134 142/142/134 154/154/134
f 155/155/135 156/156/135 157/157/135 158/158/135
f 156/156/136 159/159/136 160/160/136 157/157/136
f 159/159/137 161/161/137 162/162/137 160/160/137
f 161/161/138 163/163/138 164/164/138 162/162/138
f 163/163/139 165/165/139 166/166/139 164/164/139
f 165/165/140 167/167/140 168/168/140 166/166/140
f 167/167/141 169/169/141 170/170/141 168/168/141
f 169/169/142 155/155/142 158/158/142 170/170/142
f 171/171/143 172/172/143 173/173/143 174/174/143
f 172/172/144 175/175/144 176/176/144 173/173/144
f 175/175/145 177/177/145 178/178/145 176/176/145
f 177/177/146 179/179/146 180/180/146 178/178/146
f 179/179/147 181/181/147 182/182/147 180/180/147
f 181/181/148 183/183/148 184/184/148 182/182/148
f 183/183/149 185/185/149 186/186/149 184/184/149
f 185/185/150 171/171/150 174/174/150 186/186/150
f 174/174/151 187/187/151 186/186/151
f 182/182/152 187/187/152 180/180/152
f 176/176/153 187/187/153 173/173/153
f 184/184/154 187/187/154 182/182/154
f 178/178/155 187/187/155 176/176/155
f 186/186/156 187/187/156 184/184/156
f 180/180/157 187/187/157 178/178/157
f 173/173/158 187/187/158 174/174/158
f 90/90/159 93/93/159 140/140/159 139/139/159
f 92/92/160 91/91/160 142/142/160 141/141/160
f 93/93/161 95/95/161 143/143/161 140/140/161
f 94/94/162 92/92/162 141/141/162 144/144/162
f 95/95/163 97/97/163 145/145/163 143/143/163
f 96/96/164 94/94/164 144/144/164 146/146/164
f 97/97/165 99/99/165 147/147/165 145/145/165
f 98/98/166 96/96/166 146/146/166 148/148/166
f 99/99/167 101/101/167 149/149/167 147/147/167
f 100/100/168 98/98/168 148/148/168 150/150/168
f 101/101/169 103/103/169 151/151/169 149/149/169
f 102/102/170 100/100/170 150/150/170 152/152/170
f 103/103/171 105/105/171 153/153/171 151/151/171
f 104/104/172 102/102/172 152/152/172 154/154/172
f 105/105/173 90/90/173 139/139/173 153/153/173
f 91/91/174 104/104/174 154/154/174 142/142/174
f 106/106/175 109/109/175 156/156/175 155/155/175
f 108/108/176 107/107/176 158/158/176 157/157/176
f 109/109/177 111/111/177 159/159/177 156/156/177
f 110/110/178 108/108/178 157/157/178 160/160/178
f 111/111/179 113/113/179 161/161/179 159/159/179
f 112/112/180 110/110/180 160/160/180 162/162/180
f 113/113/181 115/115/181 163/163/181 161/161/181
f 114/114/182 112/112/182 162/162/182 164/164/182
f 115/115/183 117/117/183 165/165/183 163/163/183
f 116/116/184 114/114/184 164/164/184 166/166/184
f 117/117/185 119/119/185 167/167/185 165/165/185
f 118/118/186 116/116/186 166/166/186 168/168/186
f 119/119/187 121/121/187 169/169/187 167/167/187
f 120/120/188 118/118/188 168/168/188 170/170/188
f 121/121/189 106/106/189 155/155/189 169/169/189
f 107/107/190 120/120/190 170/170/190 158/158/190
f 122/122/191 125/125/191 172/172/191 171/171/191
f 125/125/192 127/127/192 175/175/192 172/172/192
f 127/127/193 129/129/193 177/177/193 175/175/193
f 129/129/194 131/131/194 179/179/194 177/177/194
f 131/131/195 133/133/195 181/181/195 179/179/195
f 133/133/196 135/135/196 183/183/196 181/181/196
f 135/135/197 137/137/197 185/185/197 183/183/197
f 137/137/198 122/122/198 171/171/198 185/185/198
