mtllib forest_nature_set_all_in.mtl
o forest_Tree_Spruce_tiny_02_Cylinder_014
v 0.371474 0.475284 1.001015
v 0.371789 1.512221 1.133886
v 0.810781 1.512221 1.422379
v 0.947536 0.420584 1.228491
v 0.971785 1.512221 1.787512
v 1.152160 0.357647 1.748483
v 0.755500 1.512221 2.176907
v 0.946809 0.392159 2.321916
v 0.375958 1.512221 2.283971
v 0.418265 0.408640 2.582298
v -0.054756 1.512221 2.093891
v -0.162376 0.483867 2.297651
v -0.192739 1.512221 1.751165
v -0.329219 0.646807 1.774369
v -0.040304 1.512221 1.354551
v -0.202669 0.567210 1.226622
v -0.266625 0.009275 2.584724
v -0.786367 0.000000 1.884997
v -0.401545 0.010241 1.112705
v 0.398192 0.000795 0.678254
v 0.376634 0.003688 2.763234
v 1.233734 0.000000 2.637025
v 1.322098 0.001589 1.766948
v 1.137180 0.007966 1.049284
v 0.580878 4.230973 1.486764
v 0.710293 4.230973 1.780257
v 0.231368 4.230973 2.179310
v -0.114839 4.230973 2.026524
v -0.103223 4.230973 1.432244
v 0.228017 4.230973 1.254874
v 0.536443 4.230973 2.093252
v -0.225750 4.230973 1.751042
v 0.357554 5.798997 2.124949
v 0.055240 5.798997 1.991533
v 0.775759 5.798997 1.776489
v 0.623951 5.798997 2.049802
v 0.354628 5.798997 1.317715
v 0.662752 5.798997 1.520205
v 0.065383 5.798997 1.472597
v -0.041609 5.798997 1.750978
v 0.035749 7.189987 1.750872
v 0.117116 7.189987 1.539167
v 0.339307 7.189987 2.035271
v 0.109402 7.189987 1.933811
v 0.657346 7.189987 1.770272
v 0.541898 7.189987 1.978123
v 0.337082 7.189987 1.421381
v 0.571406 7.189987 1.575372
v 0.220257 8.315424 1.888465
v 0.164828 8.315424 1.750788
v 0.545747 8.315424 1.921814
v 0.393280 8.315424 1.964823
v 0.567954 8.315424 1.618710
v 0.632631 8.315424 1.765389
v 0.226063 8.315424 1.591463
v 0.391606 8.315424 1.502819
v 0.428884 10.186936 1.750534
v 0.639610 2.895269 -2.072620
v 0.547798 5.754042 0.822936
v 1.342692 5.862856 1.035137
v 3.179076 2.437815 -0.919760
v 1.601642 5.774800 1.822961
v 4.285812 2.770155 1.993348
v 1.340711 5.852193 2.611609
v 3.233704 2.542753 4.458030
v 0.547652 5.869648 2.948415
v 0.253206 2.903153 5.506831
v -0.191838 5.817035 2.570995
v -2.289190 2.580637 4.427133
v -0.581409 5.909196 1.825200
v -3.379449 2.936896 1.838828
v -0.250352 5.909419 1.017439
v -2.226886 2.675224 -0.898825
v 0.595447 5.253122 -1.218576
v 0.530388 7.735582 0.905903
v 1.193855 7.799322 1.155734
v 2.744315 5.465191 -0.449704
v 1.395186 7.732087 1.822258
v 3.774489 5.167616 1.715784
v 1.137854 7.731285 2.433976
v 2.902642 5.583480 3.957970
v 0.542408 7.620231 2.621783
v 0.575426 5.088979 4.790945
v -0.152022 7.758692 2.509182
v -1.527999 5.473159 3.980671
v -0.468906 7.756707 1.816332
v -2.372264 4.947474 1.815095
v -0.061213 7.635249 1.222801
v -1.625576 5.465092 -0.370560
v 0.480865 7.503823 -0.215769
v 0.568288 8.631845 0.775535
v 1.186968 8.544077 1.163789
v 1.986155 7.456101 0.398803
v 1.720947 8.564108 1.809865
v 2.505688 7.391036 1.819293
v 1.244909 8.586536 2.577381
v 1.967594 7.558062 3.255569
v 0.547754 8.477016 2.780817
v 0.507800 7.366525 3.819462
v -0.273690 8.609872 2.685076
v -0.937563 7.373109 3.213366
v -0.615549 8.679404 1.818707
v -1.444445 7.540404 1.850435
v -0.202698 8.699974 1.061221
v -0.920659 7.453654 0.390207
v 0.587954 10.981411 1.822684
v 0.635723 2.462990 -1.660889
v 2.880024 2.005137 -0.637249
v 1.043345 5.430196 1.317352
v 0.543807 5.321763 1.234667
v 3.857210 2.357906 1.989932
v 1.173039 5.362552 1.819597
v 2.932021 2.123157 4.162081
v 1.039411 5.432615 2.315259
v 0.255106 2.488830 5.079902
v 0.548646 5.455344 2.521450
v -2.005302 2.154968 4.121023
v 0.092207 5.391366 2.265042
v -2.966933 2.505589 1.829974
v -0.168859 5.477908 1.817357
v -1.942981 2.240984 -0.602981
v 0.034651 5.475236 1.312272
v 0.615787 4.827624 -0.801441
v 2.468322 5.022194 -0.157292
v 0.918368 7.356363 1.448668
v 0.549787 7.310083 1.323090
v 3.379472 4.717099 1.711183
v 1.000169 7.281590 1.817866
v 2.646571 5.126413 3.665559
v 0.881191 7.274199 2.142123
v 0.581334 4.663138 4.373654
v 0.548055 7.194352 2.204509
v -1.227414 5.059083 3.677210
v 0.151265 7.344960 2.208021
v -1.927085 4.556873 1.825029
v -0.023571 7.366258 1.823792
v -1.315631 5.050941 -0.076720
v 0.248383 7.221059 1.516955
v 0.450067 7.081390 0.203335
v 1.675321 7.049563 0.700486
v 0.847655 8.236105 1.526457
v 0.510911 8.283549 1.245829
v 2.071071 6.986746 1.835676
v 1.250286 8.212272 1.839390
v 1.682608 7.141091 2.940570
v 0.951087 8.257946 2.190957
v 0.500793 6.957894 3.388000
v 0.517758 8.154785 2.292727
v -0.651113 6.974113 2.880693
v 0.011592 8.262835 2.305832
v -0.993509 7.156692 1.846255
v -0.134693 8.343043 1.828886
v -0.617059 7.051097 0.703516
v 0.119029 8.365766 1.420421
v 0.563257 10.358155 1.823189
vt 0.548423 0.540900
vt 0.548425 0.586845
vt 0.550075 0.586845
vt 0.550590 0.538476
vt 0.550681 0.586845
vt 0.551359 0.535687
vt 0.549867 0.586845
vt 0.550587 0.537217
vt 0.548440 0.586845
vt 0.548599 0.537947
vt 0.546821 0.586845
vt 0.546416 0.541280
vt 0.546302 0.586845
vt 0.545789 0.548500
vt 0.546875 0.586845
vt 0.546265 0.544973
vt 0.546024 0.520252
vt 0.544070 0.519841
vt 0.545517 0.520295
vt 0.548524 0.519876
vt 0.548443 0.520004
vt 0.551666 0.519841
vt 0.551998 0.519911
vt 0.551303 0.520194
vt 0.549211 0.707309
vt 0.549697 0.707309
vt 0.547897 0.707309
vt 0.546595 0.707309
vt 0.546638 0.707309
vt 0.547884 0.707309
vt 0.549044 0.707309
vt 0.546178 0.707309
vt 0.548371 0.776786
vt 0.547234 0.776786
vt 0.549944 0.776786
vt 0.549373 0.776786
vt 0.548360 0.776786
vt 0.549519 0.776786
vt 0.547272 0.776786
vt 0.546870 0.776786
vt 0.547161 0.838418
vt 0.547467 0.838418
vt 0.548302 0.838418
vt 0.547438 0.838418
vt 0.549498 0.838418
vt 0.549064 0.838418
vt 0.548294 0.838418
vt 0.549175 0.838418
vt 0.547855 0.888285
vt 0.547646 0.888285
vt 0.549079 0.888285
vt 0.548505 0.888285
vt 0.549162 0.888285
vt 0.549405 0.888285
vt 0.547877 0.888285
vt 0.548499 0.888285
vt 0.548639 0.971208
vt 0.147490 0.572846
vt 0.147978 0.767986
vt 0.152939 0.767145
vt 0.168219 0.569333
vt 0.154993 0.766797
vt 0.176805 0.567877
vt 0.152939 0.767145
vt 0.168219 0.569333
vt 0.147978 0.767986
vt 0.147490 0.572847
vt 0.143017 0.768827
vt 0.126762 0.576360
vt 0.140962 0.769175
vt 0.118176 0.577816
vt 0.143017 0.768826
vt 0.126762 0.576360
vt 0.146846 0.570404
vt 0.145850 0.739279
vt 0.150143 0.741000
vt 0.164785 0.577593
vt 0.151921 0.741713
vt 0.172215 0.580570
vt 0.150143 0.741000
vt 0.164785 0.577593
vt 0.145850 0.739279
vt 0.146846 0.570404
vt 0.141557 0.737559
vt 0.128908 0.563216
vt 0.139778 0.736847
vt 0.121477 0.560239
vt 0.141557 0.737559
vt 0.128908 0.563216
vt 0.146259 0.527424
vt 0.146810 0.682831
vt 0.155828 0.683431
vt 0.167112 0.518991
vt 0.160777 0.667492
vt 0.175749 0.515498
vt 0.156034 0.679969
vt 0.167112 0.518991
vt 0.146789 0.676954
vt 0.146259 0.527424
vt 0.136678 0.674347
vt 0.125406 0.535856
vt 0.133179 0.682938
vt 0.116769 0.539349
vt 0.137747 0.689627
vt 0.125406 0.535856
vt 0.147428 0.964869
vt 0.147490 0.572846
vt 0.168219 0.569333
vt 0.152939 0.767145
vt 0.147978 0.767986
vt 0.176805 0.567877
vt 0.154993 0.766797
vt 0.168219 0.569333
vt 0.152939 0.767145
vt 0.147490 0.572847
vt 0.147978 0.767986
vt 0.126762 0.576360
vt 0.143017 0.768827
vt 0.118176 0.577816
vt 0.140962 0.769175
vt 0.126762 0.576360
vt 0.143017 0.768826
vt 0.146846 0.570404
vt 0.164785 0.577593
vt 0.150143 0.741000
vt 0.145850 0.739279
vt 0.172215 0.580570
vt 0.151921 0.741713
vt 0.164785 0.577593
vt 0.150143 0.741000
vt 0.146846 0.570404
vt 0.145850 0.739279
vt 0.128908 0.563216
vt 0.141557 0.737559
vt 0.121477 0.560239
vt 0.139778 0.736847
vt 0.128908 0.563216
vt 0.141557 0.737559
vt 0.146259 0.527424
vt 0.167112 0.518991
vt 0.155828 0.683431
vt 0.146810 0.682831
vt 0.175749 0.515498
vt 0.160777 0.667492
vt 0.167112 0.518991
vt 0.156034 0.679969
vt 0.146259 0.527424
vt 0.146789 0.676954
vt 0.125406 0.535856
vt 0.136678 0.674347
vt 0.116769 0.539349
vt 0.133179 0.682938
vt 0.125406 0.535856
vt 0.137747 0.689627
vt 0.147428 0.964869
vn 0.4540 0.1636 -0.8758
vn 0.9154 0.1672 -0.3662
vn 0.9055 0.1662 0.3906
vn 0.3694 0.2189 0.9031
vn -0.4008 0.2216 0.8890
vn -0.9210 0.1612 0.3545
vn -0.9407 0.1722 -0.2924
vn -0.3957 0.1517 -0.9058
vn 0.0214 -0.9998 -0.0026
vn -0.3692 0.4139 -0.8321
vn -0.8244 0.4502 -0.3430
vn -0.7137 0.5227 0.4663
vn -0.2809 0.4867 0.8272
vn 0.2295 0.5642 0.7931
vn 0.8119 0.5636 0.1523
vn 0.8576 0.4523 -0.2446
vn 0.3684 0.5243 -0.7678
vn -0.0006 -0.9998 0.0206
vn -0.0018 -1.0000 -0.0084
vn -0.0046 -1.0000 -0.0023
vn -0.0043 -1.0000 -0.0020
vn -0.0087 -1.0000 0.0001
vn 0.9116 0.0866 -0.4019
vn -0.4037 0.0137 0.9148
vn -0.4720 0.0143 -0.8815
vn 0.5480 0.0661 -0.8339
vn 0.8710 0.0851 0.4838
vn -0.9276 -0.0112 0.3735
vn 0.2711 0.0514 0.9612
vn -0.9334 -0.0113 -0.3587
vn -0.4029 0.0641 0.9130
vn 0.8737 -0.0353 0.4853
vn 0.5492 -0.0109 -0.8356
vn -0.4708 0.0732 -0.8792
vn -0.9222 0.1083 0.3713
vn 0.2715 0.0115 0.9624
vn 0.9143 -0.0391 -0.4032
vn -0.9279 0.1090 -0.3566
vn -0.9322 0.0518 -0.3583
vn -0.4032 0.0536 0.9136
vn 0.8716 0.0764 0.4841
vn 0.5479 0.0690 -0.8337
vn -0.4712 0.0596 -0.8800
vn -0.9264 0.0515 0.3730
vn 0.2709 0.0655 0.9604
vn 0.9124 0.0759 -0.4023
vn -0.9224 0.1058 0.3714
vn 0.2712 0.0472 0.9614
vn 0.9148 0.0183 -0.4034
vn -0.9281 0.1064 -0.3567
vn -0.4026 0.0764 0.9122
vn 0.8740 0.0213 0.4855
vn 0.5489 0.0338 -0.8352
vn -0.4703 0.0863 -0.8783
vn 0.5465 0.0992 -0.8316
vn -0.4683 0.1251 -0.8746
vn -0.9198 0.1298 0.3703
vn 0.2700 0.1045 0.9572
vn 0.9108 0.0960 -0.4016
vn -0.9254 0.1305 -0.3557
vn -0.4012 0.1117 0.9091
vn 0.8699 0.0985 0.4832
vn 0.3481 0.6374 -0.6874
vn 0.7348 0.6029 -0.3109
vn 0.7165 0.6209 0.3178
vn 0.3285 0.5972 0.7317
vn -0.3744 0.6292 0.6812
vn -0.6664 0.6404 0.3819
vn -0.6934 0.6368 -0.3371
vn -0.2768 0.6468 -0.7106
vn 0.2049 0.6413 -0.7394
vn 0.7190 0.6565 -0.2281
vn 0.7105 0.6797 0.1823
vn 0.1296 0.6445 0.7535
vn -0.1383 0.6214 0.7712
vn -0.7915 0.5718 0.2160
vn -0.7624 0.6047 -0.2305
vn -0.2677 0.6527 -0.7088
vn 0.3586 0.6478 -0.6721
vn 0.7091 0.6131 -0.3482
vn 0.7446 0.6007 0.2910
vn 0.1728 0.6495 0.7405
vn -0.2067 0.5853 0.7840
vn -0.7553 0.5563 0.3466
vn -0.7479 0.5742 -0.3330
vn -0.2956 0.6132 -0.7326
vn -0.2891 0.3917 -0.8735
vn -0.0509 0.3576 0.9325
vn 0.7195 0.3405 -0.6053
vn -0.8267 0.4316 0.3609
vn 0.7944 0.3698 0.4819
vn -0.8017 0.4198 -0.4255
vn 0.2123 0.3462 0.9138
vn 0.5340 0.3405 -0.7739
vn -0.3567 -0.6370 0.6834
vn -0.7333 -0.6028 0.3143
vn -0.7147 -0.6209 -0.3220
vn -0.3323 -0.5971 -0.7301
vn 0.3923 -0.6289 -0.6712
vn 0.6592 -0.6391 -0.3963
vn 0.6894 -0.6365 0.3459
vn 0.2758 -0.6468 0.7110
vn -0.1887 -0.6401 0.7448
vn -0.7253 -0.6554 0.2106
vn -0.7197 -0.6780 -0.1495
vn -0.0999 -0.6398 -0.7620
vn 0.0929 -0.6165 -0.7819
vn 0.7995 -0.5698 -0.1901
vn 0.7688 -0.6032 0.2122
vn 0.2544 -0.6524 0.7139
vn -0.3672 -0.6433 0.6718
vn -0.7103 -0.6076 0.3553
vn -0.7581 -0.5905 -0.2768
vn -0.1417 -0.6435 -0.7522
vn 0.1917 -0.5829 -0.7896
vn 0.7618 -0.5502 -0.3420
vn 0.7492 -0.5714 0.3349
vn 0.3151 -0.6088 0.7281
vn 0.3471 -0.2596 0.9012
vn -0.0694 -0.2065 -0.9760
vn -0.6095 -0.1893 0.7698
vn 0.8930 -0.3102 -0.3261
vn -0.7537 -0.2459 -0.6095
vn 0.8217 -0.2832 0.4946
vn -0.1782 -0.2016 -0.9631
vn -0.6442 -0.1899 0.7409
vn 0.2053 -0.6553 -0.7269
vn -0.2705 0.6584 0.7024
vn 0.7136 -0.6757 -0.1849
vn -0.6773 0.6779 0.2859
vn 0.6903 -0.6873 0.2259
vn -0.6676 0.6882 -0.2841
vn 0.1618 -0.6789 0.7161
vn -0.2657 0.6845 -0.6788
vn -0.2047 -0.6822 0.7019
vn 0.2888 0.6832 -0.6707
vn -0.7206 -0.6617 0.2072
vn 0.6930 0.6651 -0.2782
vn -0.7176 -0.6554 -0.2354
vn 0.6986 0.6570 0.2832
vn -0.2387 -0.6593 -0.7130
vn 0.2993 0.6594 0.6896
vn 0.3100 -0.6546 -0.6895
vn -0.3191 0.6545 0.6854
vn 0.6602 -0.6283 -0.4116
vn -0.7207 0.6325 0.2837
vn 0.6862 -0.6179 0.3839
vn -0.7307 0.6188 -0.2884
vn 0.3746 -0.6431 0.6680
vn -0.3195 0.6469 -0.6924
vn -0.3779 -0.6785 0.6300
vn 0.2492 0.6809 -0.6886
vn -0.5919 -0.6965 0.4056
vn 0.6482 0.7068 -0.2832
vn -0.6014 -0.7057 -0.3745
vn 0.6465 0.7106 0.2776
vn -0.3204 -0.6824 -0.6570
vn 0.2494 0.6810 0.6885
vn 0.2548 -0.6922 -0.6753
vn 0.6539 -0.7069 -0.2696
vn 0.6501 -0.6874 0.3240
vn 0.3412 -0.6939 0.6341
vn -0.2831 -0.7090 0.6459
vn -0.6897 -0.7103 0.1407
vn -0.6734 -0.7170 -0.1799
vn -0.2782 -0.6875 -0.6708
usemtl AllColors_Material
f 1/1/1 2/2/1 3/3/1 4/4/1
f 4/4/2 3/3/2 5/5/2 6/6/2
f 6/6/3 5/5/3 7/7/3 8/8/3
f 8/8/4 7/7/4 9/9/4 10/10/4
f 10/10/5 9/9/5 11/11/5 12/12/5
f 12/12/6 11/11/6 13/13/6 14/14/6
f 14/14/7 13/13/7 15/15/7 16/16/7
f 16/16/8 15/15/8 2/2/8 1/1/8
f 17/17/9 18/18/9 19/19/9
f 19/19/10 16/16/10 1/1/10 20/20/10
f 18/18/11 14/14/11 16/16/11 19/19/11
f 17/17/12 12/12/12 14/14/12 18/18/12
f 21/21/13 10/10/13 12/12/13 17/17/13
f 22/22/14 8/8/14 10/10/14 21/21/14
f 23/23/15 6/6/15 8/8/15 22/22/15
f 24/24/16 4/4/16 6/6/16 23/23/16
f 20/20/17 1/1/17 4/4/17 24/24/17
f 19/19/18 20/20/18 24/24/18
f 24/24/19 23/23/19 19/19/19
f 23/23/20 22/22/20 21/21/20
f 19/19/21 23/23/21 21/21/21
f 21/21/22 17/17/22 19/19/22
f 5/5/23 3/3/23 25/25/23 26/26/23
f 11/11/24 9/9/24 27/27/24 28/28/24
f 2/2/25 15/15/25 29/29/25 30/30/25
f 3/3/26 2/2/26 30/30/26 25/25/26
f 7/7/27 5/5/27 26/26/27 31/31/27
f 13/13/28 11/11/28 28/28/28 32/32/28
f 9/9/29 7/7/29 31/31/29 27/27/29
f 15/15/30 13/13/30 32/32/30 29/29/30
f 28/28/31 27/27/31 33/33/31 34/34/31
f 31/31/32 26/26/32 35/35/32 36/36/32
f 25/25/33 30/30/33 37/37/33 38/38/33
f 30/30/34 29/29/34 39/39/34 37/37/34
f 32/32/35 28/28/35 34/34/35 40/40/35
f 27/27/36 31/31/36 36/36/36 33/33/36
f 26/26/37 25/25/37 38/38/37 35/35/37
f 29/29/38 32/32/38 40/40/38 39/39/38
f 39/39/39 40/40/39 41/41/39 42/42/39
f 34/34/40 33/33/40 43/43/40 44/44/40
f 36/36/41 35/35/41 45/45/41 46/46/41
f 38/38/42 37/37/42 47/47/42 48/48/42
f 37/37/43 39/39/43 42/42/43 47/47/43
f 40/40/44 34/34/44 44/44/44 41/41/44
f 33/33/45 36/36/45 46/46/45 43/43/45
f 35/35/46 38/38/46 48/48/46 45/45/46
f 41/41/47 44/44/47 49/49/47 50/50/47
f 43/43/48 46/46/48 51/51/48 52/52/48
f 45/45/49 48/48/49 53/53/49 54/54/49
f 42/42/50 41/41/50 50/50/50 55/55/50
f 44/44/51 43/43/51 52/52/51 49/49/51
f 46/46/52 45/45/52 54/54/52 51/51/52
f 48/48/53 47/47/53 56/56/53 53/53/53
f 47/47/54 42/42/54 55/55/54 56/56/54
f 53/53/55 56/56/55 57/57/55
f 56/56/56 55/55/56 57/57/56
f 50/50/57 49/49/57 57/57/57
f 52/52/58 51/51/58 57/57/58
f 54/54/59 53/53/59 57/57/59
f 55/55/60 50/50/60 57/57/60
f 49/49/61 52/52/61 57/57/61
f 51/51/62 54/54/62 57/57/62
f 58/58/63 59/59/63 60/60/63 61/61/63
f 61/61/64 60/60/64 62/62/64 63/63/64
f 63/63/65 62/62/65 64/64/65 65/65/65
f 65/65/66 64/64/66 66/66/66 67/67/66
f 67/67/67 66/66/67 68/68/67 69/69/67
f 69/69/68 68/68/68 70/70/68 71/71/68
f 71/71/69 70/70/69 72/72/69 73/73/69
f 73/73/70 72/72/70 59/59/70 58/58/70
f 74/74/71 75/75/71 76/76/71 77/77/71
f 77/77/72 76/76/72 78/78/72 79/79/72
f 79/79/73 78/78/73 80/80/73 81/81/73
f 81/81/74 80/80/74 82/82/74 83/83/74
f 83/83/75 82/82/75 84/84/75 85/85/75
f 85/85/76 84/84/76 86/86/76 87/87/76
f 87/87/77 86/86/77 88/88/77 89/89/77
f 89/89/78 88/88/78 75/75/78 74/74/78
f 90/90/79 91/91/79 92/92/79 93/93/79
f 93/93/80 92/92/80 94/94/80 95/95/80
f 95/95/81 94/94/81 96/96/81 97/97/81
f 97/97/82 96/96/82 98/98/82 99/99/82
f 99/99/83 98/98/83 100/100/83 101/101/83
f 101/101/84 100/100/84 102/102/84 103/103/84
f 103/103/85 102/102/85 104/104/85 105/105/85
f 105/105/86 104/104/86 91/91/86 90/90/86
f 91/91/87 104/104/87 106/106/87
f 100/100/88 98/98/88 106/106/88
f 94/94/89 92/92/89 106/106/89
f 102/102/90 100/100/90 106/106/90
f 96/96/91 94/94/91 106/106/91
f 104/104/92 102/102/92 106/106/92
f 98/98/93 96/96/93 106/106/93
f 92/92/94 91/91/94 106/106/94
f 107/107/95 108/108/95 109/109/95 110/110/95
f 108/108/96 111/111/96 112/112/96 109/109/96
f 111/111/97 113/113/97 114/114/97 112/112/97
f 113/113/98 115/115/98 116/116/98 114/114/98
f 115/115/99 117/117/99 118/118/99 116/116/99
f 117/117/100 119/119/100 120/120/100 118/118/100
f 119/119/101 121/121/101 122/122/101 120/120/101
f 121/121/102 107/107/102 110/110/102 122/122/102
f 123/123/103 124/124/103 125/125/103 126/126/103
f 124/124/104 127/127/104 128/128/104 125/125/104
f 127/127/105 129/129/105 130/130/105 128/128/105
f 129/129/106 131/131/106 132/132/106 130/130/106
f 131/131/107 133/133/107 134/134/107 132/132/107
f 133/133/108 135/135/108 136/136/108 134/134/108
f 135/135/109 137/137/109 138/138/109 136/136/109
f 137/137/110 123/123/110 126/126/110 138/138/110
f 139/139/111 140/140/111 141/141/111 142/142/111
f 140/140/112 143/143/112 144/144/112 141/141/112
f 143/143/113 145/145/113 146/146/113 144/144/113
f 145/145/114 147/147/114 148/148/114 146/146/114
f 147/147/115 149/149/115 150/150/115 148/148/115
f 149/149/116 151/151/116 152/152/116 150/150/116
f 151/151/117 153/153/117 154/154/117 152/152/117
f 153/153/118 139/139/118 142/142/118 154/154/118
f 142/142/119 155/155/119 154/154/119
f 150/150/120 155/155/120 148/148/120
f 144/144/121 155/155/121 141/141/121
f 152/152/122 155/155/122 150/150/122
f 146/146/123 155/155/123 144/144/123
f 154/154/124 155/155/124 152/152/124
f 148/148/125 155/155/125 146/146/125
f 141/141/126 155/155/126 142/142/126
f 58/58/127 61/61/127 108/108/127 107/107/127
f 60/60/128 59/59/128 110/110/128 109/109/128
f 61/61/129 63/63/129 111/111/129 108/108/129
f 62/62/130 60/60/130 109/109/130 112/112/130
f 63/63/131 65/65/131 113/113/131 111/111/131
f 64/64/132 62/62/132 112/112/132 114/114/132
f 65/65/133 67/67/133 115/115/133 113/113/133
f 66/66/134 64/64/134 114/114/134 116/116/134
f 67/67/135 69/69/135 117/117/135 115/115/135
f 68/68/136 66/66/136 116/116/136 118/118/136
f 69/69/137 71/71/137 119/119/137 117/117/137
f 70/70/138 68/68/138 118/118/138 120/120/138
f 71/71/139 73/73/139 121/121/139 119/119/139
f 72/72/140 70/70/140 120/120/140 122/122/140
f 73/73/141 58/58/141 107/107/141 121/121/141
f 59/59/142 72/72/142 122/122/142 110/110/142
f 74/74/143 77/77/143 124/124/143 123/123/143
f 76/76/144 75/75/144 126/126/144 125/125/144
f 77/77/145 79/79/145 127/127/145 124/124/145
f 78/78/146 76/76/146 125/125/146 128/128/146
f 79/79/147 81/81/147 129/129/147 127/127/147
f 80/80/148 78/78/148 128/128/148 130/130/148
f 81/81/149 83/83/149 131/131/149 129/129/149
f 82/82/150 80/80/150 130/130/150 132/132/150
f 83/83/151 85/85/151 133/133/151 131/131/151
f 84/84/152 82/82/152 132/132/152 134/134/152
f 85/85/153 87/87/153 135/135/153 133/133/153
f 86/86/154 84/84/154 134/134/154 136/136/154
f 87/87/155 89/89/155 137/137/155 135/135/155
f 88/88/156 86/86/156 136/136/156 138/138/156
f 89/89/157 74/74/157 123/123/157 137/137/157
f 75/75/158 88/88/158 138/138/158 126/126/158
f 90/90/159 93/93/159 140/140/159 139/139/159
f 93/93/160 95/95/160 143/143/160 140/140/160
f 95/95/161 97/97/161 145/145/161 143/143/161
f 97/97/162 99/99/162 147/147/162 145/145/162
f 99/99/163 101/101/163 149/149/163 147/147/163
f 101/101/164 103/103/164 151/151/164 149/149/164
f 103/103/165 105/105/165 153/153/165 151/151/165
f 105/105/166 90/90/166 139/139/166 153/153/166
