mtllib forest_nature_set_all_in.mtl
o forest_Stump_average_high_Cube_015
v -15.100808 0.017424 0.499544
v -15.217469 0.765225 0.432429
v -15.029448 0.770542 0.044628
v -15.636139 0.000000 -0.323117
v -14.034541 0.000000 -0.754683
v -14.204988 0.860166 -0.050277
v -13.933679 0.844444 0.096505
v -13.689494 0.000000 -0.005399
v -13.648816 0.010338 0.953601
v -13.698913 0.819914 0.858694
v -13.804046 0.855532 1.206574
v -13.428041 0.000000 1.690079
v -14.818019 0.000000 2.118699
v -14.786871 0.730220 1.619831
v -15.185786 0.767018 1.430343
v -15.348536 0.000000 1.489812
v -14.210730 0.000000 1.004520
v -14.242391 0.003561 1.518987
v -14.571706 0.864400 0.073421
v -14.524968 1.596633 0.223221
v -14.244791 1.596633 0.130631
v -13.879527 1.596633 0.819626
v -13.940945 1.596633 1.088175
v -14.324398 0.791402 1.476675
v -14.342574 1.596633 1.260157
v -16.040340 0.000000 1.235575
v -14.724242 0.000000 1.061406
v -14.629991 0.007506 -0.054998
v -14.094323 0.000000 0.433575
v -14.614963 0.000000 0.515996
v -13.811669 0.811022 0.384431
v -13.966309 1.596633 0.472268
v -14.663260 1.596633 1.329289
v -14.950452 1.596633 1.215866
v -14.841690 1.596633 0.240125
v -15.233316 0.860960 0.921289
v -15.030035 1.596633 0.872263
v -14.971937 1.596633 0.514427
v -14.043556 1.596633 0.249028
v -12.783310 0.000000 0.243123
v -14.715326 3.239543 1.165012
v -14.928561 3.239543 1.080798
v -14.197850 3.239543 0.528688
v -14.133416 3.239543 0.786596
v -14.179018 3.314090 0.985989
v -14.477221 3.310225 1.113683
v -14.255205 3.239543 0.362936
v -14.612646 3.335232 0.343775
v -14.404618 3.239543 0.275028
v -14.987650 3.239543 0.825678
v -14.944514 3.580209 0.559991
v -14.847808 3.580209 0.356326
v -14.902451 3.580209 0.573101
v -14.943217 3.239543 0.824196
v -14.943217 3.201396 0.824196
v -14.902451 3.201396 0.573101
v -14.819545 3.580209 0.398500
v -14.409701 3.239543 0.322649
v -14.291174 3.239543 0.392385
v -14.178267 3.239543 0.787044
v -14.216593 3.314090 0.954627
v -14.711597 3.239543 1.119585
v -14.891233 3.239543 1.048640
v -14.604496 3.335232 0.387023
v -14.490525 3.310225 1.071928
v -14.239703 3.239543 0.541131
v -14.490525 3.201396 1.071928
v -14.239703 3.201396 0.541131
v -14.604496 3.201396 0.387023
v -14.216593 3.201396 0.954627
v -14.711597 3.201396 1.119585
v -14.891233 3.201396 1.048640
v -14.291174 3.201396 0.392385
v -14.819545 3.201396 0.398500
v -14.178267 3.201396 0.787044
v -14.409701 3.201396 0.322649
vt 0.535045 0.521708
vt 0.532571 0.619800
vt 0.536558 0.620497
vt 0.523692 0.519423
vt 0.557657 0.519422
vt 0.554042 0.632254
vt 0.559796 0.630192
vt 0.564975 0.519423
vt 0.565837 0.520779
vt 0.564775 0.626974
vt 0.562545 0.631647
vt 0.570519 0.519423
vt 0.541042 0.519423
vt 0.541703 0.615209
vt 0.533243 0.620035
vt 0.529791 0.519423
vt 0.553921 0.519423
vt 0.553249 0.519889
vt 0.546265 0.632809
vt 0.547257 0.728859
vt 0.553198 0.728859
vt 0.560945 0.728859
vt 0.559642 0.728859
vt 0.551510 0.623234
vt 0.551125 0.728860
vt 0.515120 0.519423
vt 0.543031 0.519423
vt 0.545029 0.520407
vt 0.556389 0.519423
vt 0.545348 0.519423
vt 0.562383 0.625808
vt 0.559104 0.728859
vt 0.544324 0.728860
vt 0.538233 0.728860
vt 0.540540 0.728859
vt 0.532235 0.632358
vt 0.536546 0.728859
vt 0.537778 0.728859
vt 0.557466 0.728859
vt 0.584192 0.519423
vt 0.543220 0.944367
vt 0.538698 0.944367
vt 0.554194 0.944367
vt 0.555560 0.944367
vt 0.554593 0.944367
vt 0.548269 0.944367
vt 0.552978 0.944367
vt 0.545397 0.944367
vt 0.549809 0.944367
vt 0.537445 0.944367
vt 0.538359 0.944367
vt 0.540410 0.944367
vt 0.539252 0.944367
vt 0.538387 0.944367
vt 0.538387 0.944367
vt 0.539252 0.944367
vt 0.541009 0.944367
vt 0.549701 0.944367
vt 0.552215 0.944366
vt 0.554609 0.944368
vt 0.553796 0.944367
vt 0.543299 0.944369
vt 0.539489 0.944366
vt 0.545570 0.944367
vt 0.547987 0.944366
vt 0.553306 0.944366
vt 0.155517 0.043284
vt 0.179800 0.334430
vt 0.144484 0.418959
vt 0.553796 0.944367
vt 0.547987 0.944366
vt 0.543299 0.944369
vt 0.539489 0.944366
vt 0.552215 0.944366
vt 0.553306 0.944366
vt 0.541009 0.944367
vt 0.545570 0.944367
vt 0.554609 0.944368
vt 0.549701 0.944367
vt 0.123664 0.412664
vt 0.115638 0.316895
vt 0.111691 0.179167
vt 0.116724 0.056057
vt 0.134115 0.017144
vt 0.182037 0.107625
vt 0.185748 0.199545
vt 0.174817 0.416019
vt 0.163342 0.454269
vn -0.9318 0.2483 0.2649
vn 0.7500 0.4230 -0.5085
vn 0.9715 0.2109 -0.1085
vn -0.6126 0.3446 0.7113
vn 0.0055 -1.0000 -0.0062
vn -0.3088 0.2103 -0.9276
vn 0.9443 0.2227 0.2423
vn 0.4074 0.2322 0.8833
vn 0.0000 -1.0000 0.0000
vn 0.0049 -1.0000 0.0027
vn 0.0558 0.3183 0.9463
vn 0.5431 0.2980 0.7850
vn 0.1794 0.2191 -0.9591
vn -0.6158 0.3109 -0.7240
vn -0.0099 -0.9999 -0.0045
vn -0.0087 -0.9999 0.0105
vn -0.0117 -0.9997 -0.0232
vn 0.9494 0.2110 -0.2328
vn -0.3653 0.3358 0.8682
vn -0.0114 0.2180 -0.9759
vn -0.9544 0.2757 -0.1145
vn 0.9153 0.2111 -0.3430
vn -0.9406 0.2926 0.1725
vn 0.0073 -0.9999 0.0136
vn 0.4259 0.4433 -0.7887
vn 0.7433 0.4814 0.4645
vn -0.5915 0.4979 0.6342
vn -0.7691 0.1850 -0.6117
vn -0.3661 0.0811 0.9270
vn 0.9601 0.1436 -0.2399
vn 0.3908 0.1087 0.9140
vn 0.9688 0.1498 0.1977
vn 0.9353 0.1429 -0.3236
vn -0.3041 0.0523 -0.9512
vn 0.5032 0.1241 -0.8552
vn -0.9885 0.0190 -0.1501
vn -0.0254 0.0628 -0.9977
vn 0.4814 0.2374 -0.8437
vn -0.8623 0.2944 -0.4121
vn 0.2324 0.2689 0.9347
vn -0.9737 0.0315 0.2255
vn -0.9031 0.0223 -0.4288
vn 0.1974 0.1013 0.9751
vn 0.9871 0.0000 0.1603
vn 0.0000 1.0000 -0.0000
vn 0.1303 0.9286 -0.3475
vn 0.6959 0.6540 -0.2966
vn 0.4252 0.9050 -0.0144
vn -0.0104 0.9999 0.0072
vn -0.2879 0.9572 0.0316
vn -0.1057 0.6092 0.7860
vn -0.3936 0.0000 -0.9193
vn 0.3673 0.0000 -0.9301
vn -0.9450 0.0000 0.3270
vn 0.9033 0.0000 0.4289
vn -0.2107 0.0000 -0.9775
vn 0.0533 0.0000 0.9986
vn -0.9702 0.0000 0.2424
vn -0.5071 0.0000 0.8619
vn 0.9742 0.0000 -0.2256
vn 0.3138 0.0000 0.9495
vn -0.9748 0.0000 -0.2229
usemtl AllColors_Material
f 1/1/1 2/2/1 3/3/1 4/4/1
f 5/5/2 6/6/2 7/7/2 8/8/2
f 9/9/3 10/10/3 11/11/3 12/12/3
f 13/13/4 14/14/4 15/15/4 16/16/4
f 17/17/5 9/9/5 12/12/5 18/18/5
f 6/6/6 19/19/6 20/20/6 21/21/6
f 11/11/7 10/10/7 22/22/7 23/23/7
f 24/24/8 11/11/8 23/23/8 25/25/8
f 26/26/9 27/27/9 13/13/9 16/16/9
f 27/27/10 17/17/10 18/18/10 13/13/10
f 12/12/11 11/11/11 24/24/11 18/18/11
f 18/18/12 24/24/12 14/14/12 13/13/12
f 4/4/13 3/3/13 19/19/13 28/28/13
f 28/28/14 19/19/14 6/6/14 5/5/14
f 28/28/15 5/5/15 29/29/15 30/30/15
f 30/30/9 29/29/9 17/17/9 27/27/9
f 4/4/16 28/28/16 30/30/16 1/1/16
f 1/1/17 30/30/17 27/27/17 26/26/17
f 10/10/18 31/31/18 32/32/18 22/22/18
f 15/15/19 14/14/19 33/33/19 34/34/19
f 19/19/20 3/3/20 35/35/20 20/20/20
f 2/2/21 36/36/21 37/37/21 38/38/21
f 31/31/22 7/7/22 39/39/22 32/32/22
f 36/36/23 15/15/23 34/34/23 37/37/23
f 5/5/9 8/8/9 40/40/9 29/29/9
f 29/29/24 40/40/24 9/9/24 17/17/24
f 8/8/25 7/7/25 31/31/25 40/40/25
f 40/40/26 31/31/26 10/10/26 9/9/26
f 16/16/27 15/15/27 36/36/27 26/26/27
f 26/26/28 36/36/28 2/2/28 1/1/28
f 34/34/29 33/33/29 41/41/29 42/42/29
f 22/22/30 32/32/30 43/43/30 44/44/30
f 25/25/31 23/23/31 45/45/31 46/46/31
f 23/23/32 22/22/32 44/44/32 45/45/32
f 32/32/33 39/39/33 47/47/33 43/43/33
f 21/21/34 20/20/34 48/48/34 49/49/34
f 39/39/35 21/21/35 49/49/35 47/47/35
f 38/38/36 37/37/36 50/50/36 51/51/36
f 20/20/37 35/35/37 52/52/37 48/48/37
f 7/7/38 6/6/38 21/21/38 39/39/38
f 3/3/39 2/2/39 38/38/39 35/35/39
f 14/14/40 24/24/40 25/25/40 33/33/40
f 37/37/41 34/34/41 42/42/41 50/50/41
f 35/35/42 38/38/42 51/51/42 52/52/42
f 33/33/43 25/25/43 46/46/43 41/41/43
f 53/53/44 54/54/44 55/55/44 56/56/44
f 53/53/45 57/57/45 52/52/45 51/51/45
f 58/58/45 59/59/45 47/47/45 49/49/45
f 60/60/46 61/61/46 45/45/46 44/44/46
f 62/62/45 63/63/45 42/42/45 41/41/45
f 57/57/47 64/64/47 48/48/47 52/52/47
f 64/64/48 58/58/48 49/49/48 48/48/48
f 61/61/49 65/65/49 46/46/49 45/45/49
f 65/65/50 62/62/50 41/41/50 46/46/50
f 63/63/45 54/54/45 50/50/45 42/42/45
f 54/54/51 53/53/51 51/51/51 50/50/51
f 59/59/45 66/66/45 43/43/45 47/47/45
f 66/66/45 60/60/45 44/44/45 43/43/45
f 67/67/45 68/68/45 69/69/45
f 65/65/52 61/61/52 70/70/52 67/71/52
f 63/63/53 62/62/53 71/72/53 72/73/53
f 66/66/54 59/59/54 73/74/54 68/75/54
f 57/57/55 53/53/55 56/56/55 74/76/55
f 62/62/56 65/65/56 67/71/56 71/72/56
f 64/64/57 57/57/57 74/76/57 69/77/57
f 60/60/58 66/66/58 68/75/58 75/78/58
f 59/59/59 58/58/59 76/79/59 73/74/59
f 54/54/60 63/63/60 72/73/60 55/55/60
f 58/58/61 64/64/61 69/77/61 76/79/61
f 61/61/62 60/60/62 75/78/62 70/70/62
f 74/80/45 56/81/45 69/69/45
f 56/81/45 55/82/45 67/67/45
f 69/69/45 56/81/45 67/67/45
f 55/82/45 72/83/45 71/84/45
f 71/84/45 67/67/45 55/82/45
f 67/67/45 70/85/45 75/86/45
f 68/68/45 67/67/45 75/86/45
f 68/68/45 73/87/45 69/69/45
f 73/87/45 76/88/45 69/69/45
