mtllib forest_nature_set_all_in.mtl
o forest_Log_big_regular_Cylinder_015
v -29.121986 0.820632 -5.556170
v -26.969280 0.841540 -5.558625
v -26.706795 -0.055644 -5.141778
v -29.121986 0.020605 -5.048235
v -26.969280 -0.060176 -4.108515
v -29.384472 -0.024488 -4.063535
v -26.969280 0.613039 -3.441576
v -29.253229 0.543529 -3.298104
v -26.772415 1.674149 -3.363205
v -29.318850 1.653241 -3.360750
v -26.969280 2.054641 -4.356835
v -29.209482 2.132598 -4.343711
v -23.742250 0.132897 -5.159482
v -23.985325 0.102381 -4.152815
v -26.969280 1.737467 -5.249828
v -29.165733 1.751551 -5.282695
v -29.127026 0.178001 -4.956767
v -29.377459 0.139676 -4.114000
v -29.233469 0.134369 -4.106108
v -28.983036 0.172694 -4.948874
v -23.985325 0.937416 -5.495692
v -23.985325 1.767091 -5.209730
v -21.333702 1.716302 -5.239750
v -21.333702 0.839755 -5.541867
v -23.803019 1.708455 -3.462620
v -23.985325 2.060810 -4.382772
v -23.985325 0.725813 -3.535196
v -21.333668 0.674447 -3.609007
v -21.335091 0.101336 -4.176733
v -21.456373 0.098691 -4.176335
v -21.454950 0.671802 -3.608609
v -21.141094 1.584671 -3.421533
v -21.333702 2.026615 -4.366074
v -21.333702 -0.042455 -4.123125
v -21.333702 0.616197 -3.470614
v -21.076895 0.020598 -5.096097
v -29.136318 0.845109 -5.380866
v -29.238026 0.620675 -3.463383
v -29.307472 1.549571 -3.516802
v -29.211952 1.955833 -4.349762
v -29.178894 1.631115 -5.150370
v -28.992329 0.839802 -5.372973
v -28.994715 1.074464 -4.476451
v -29.067963 1.950526 -4.341870
v -29.034904 1.625808 -5.142477
v -29.163483 1.544264 -3.508910
v -29.094036 0.615368 -3.455490
v -21.331070 0.853629 -5.388886
v -21.085804 0.155962 -5.009036
v -21.144144 1.497622 -3.567464
v -21.328243 1.875131 -4.375160
v -21.328562 1.607321 -5.129147
v -21.207088 0.153317 -5.008638
v -21.452353 0.850984 -5.388488
v -21.500881 1.060752 -4.573288
v -21.265427 1.494977 -3.567066
v -21.449528 1.872486 -4.374762
v -21.449844 1.604676 -5.128749
vt 0.555437 0.534363
vt 0.554825 0.651748
vt 0.581076 0.666059
vt 0.578845 0.534363
vt 0.581209 0.651748
vt 0.580165 0.520050
vt 0.561511 0.651748
vt 0.563545 0.527207
vt 0.530464 0.662481
vt 0.531076 0.523628
vt 0.519331 0.651748
vt 0.517050 0.529592
vt 0.575560 0.827711
vt 0.576452 0.814457
vt 0.528611 0.651748
vt 0.528199 0.531978
vt 0.574240 0.534089
vt 0.575361 0.520432
vt 0.575517 0.528285
vt 0.574395 0.541940
vt 0.552020 0.814457
vt 0.527745 0.814457
vt 0.529231 0.959045
vt 0.554878 0.959045
vt 0.529460 0.824398
vt 0.519151 0.814457
vt 0.558211 0.814457
vt 0.559715 0.959046
vt 0.576483 0.958969
vt 0.576561 0.952356
vt 0.559792 0.952434
vt 0.533082 0.969549
vt 0.520151 0.959045
vt 0.580690 0.959045
vt 0.561419 0.959045
vt 0.578845 0.973049
vt 0.554721 0.533582
vt 0.561288 0.528036
vt 0.534109 0.524249
vt 0.522222 0.529458
vt 0.531723 0.531261
vt 0.186309 0.199953
vt 0.151096 0.258648
vt 0.145811 0.477769
vt 0.177256 0.396550
vt 0.534264 0.532101
vt 0.561443 0.535888
vt 0.531879 0.539112
vt 0.522378 0.537310
vt 0.554876 0.541433
vt 0.110997 0.143817
vt 0.113095 0.376154
vt 0.136551 0.023509
vt 0.169651 0.033095
vt 0.554472 0.959189
vt 0.574885 0.972563
vt 0.535629 0.969382
vt 0.524584 0.959343
vt 0.532420 0.959326
vt 0.171999 0.028248
vt 0.186918 0.202750
vt 0.154900 0.255218
vt 0.139309 0.014586
vt 0.535707 0.962769
vt 0.524661 0.952730
vt 0.532497 0.952713
vt 0.554549 0.952576
vt 0.574962 0.965949
vt 0.117011 0.157932
vt 0.176716 0.391265
vt 0.147102 0.458250
vt 0.115379 0.363826
vn -0.0242 -0.4812 -0.8763
vn -0.0240 -0.9992 -0.0308
vn 0.0316 -0.7568 0.6529
vn 0.0304 -0.0091 0.9995
vn 0.0122 0.9171 0.3984
vn 0.0589 -0.9983 -0.0026
vn 0.0210 0.9344 -0.3556
vn 0.0062 0.3038 -0.9527
vn 0.0337 0.9979 0.0554
vn -0.0045 0.3259 -0.9454
vn 0.0012 0.9339 0.3574
vn 0.0260 -0.3981 -0.9170
vn 0.0488 -0.7029 0.7096
vn -0.0049 0.9423 -0.3347
vn 0.0343 -0.0799 0.9962
vn 0.0095 0.3258 -0.9454
vn -0.0177 0.7037 -0.7103
vn 0.0232 0.9214 0.3878
vn -0.0463 -0.7030 0.7096
vn -0.0144 -0.4375 -0.8991
vn 0.0143 0.9422 -0.3347
vn -0.0224 -0.0579 0.9981
vn -0.0472 -0.9971 -0.0590
vn -0.9982 -0.0365 -0.0476
vn -0.9625 0.0401 -0.2683
vn -0.9851 0.1558 0.0729
vn -0.9946 -0.0702 -0.0765
vn -0.9947 0.0260 -0.0996
vn -0.9980 0.0288 -0.0558
vn -0.9952 -0.0219 -0.0958
vn -0.9975 -0.0700 0.0022
vn 0.0527 -0.0534 -0.9972
vn -0.0546 -0.9261 0.3734
vn -0.0265 0.5360 0.8438
vn -0.9879 -0.0719 -0.1374
vn -0.9671 0.2535 0.0199
vn -0.9863 0.0663 -0.1509
vn -0.0629 -0.2840 0.9568
vn -0.0090 -0.8983 -0.4392
vn 0.0623 0.7961 -0.6019
vn 0.9602 0.2477 -0.1289
vn 0.9628 0.0031 0.2701
vn 1.0000 0.0029 -0.0040
vn 0.9778 -0.2091 0.0108
vn 0.9810 0.1127 -0.1582
vn 0.9993 0.0357 -0.0129
vn 0.9996 0.0077 -0.0267
vn 0.9594 0.2382 0.1510
vn 0.0183 -0.9042 -0.4268
vn 0.0102 -0.3258 0.9454
vn -0.0216 0.9980 0.0590
vn 0.9989 0.0319 -0.0347
vn 0.9978 -0.0475 0.0451
vn 0.9770 -0.1178 -0.1778
vn -0.0075 0.4761 0.8793
vn 0.0216 -0.9421 0.3346
vn -0.0044 0.0514 -0.9987
usemtl AllColors_Material
f 1/1/1 2/2/1 3/3/1 4/4/1
f 4/4/2 3/3/2 5/5/2 6/6/2
f 6/6/3 5/5/3 7/7/3 8/8/3
f 8/8/4 7/7/4 9/9/4 10/10/4
f 10/10/5 9/9/5 11/11/5 12/12/5
f 5/5/6 3/3/6 13/13/6 14/14/6
f 12/12/7 11/11/7 15/15/7 16/16/7
f 16/16/8 15/15/8 2/2/8 1/1/8
f 17/17/9 18/18/9 19/19/9 20/20/9
f 21/21/10 22/22/10 23/23/10 24/24/10
f 11/11/11 9/9/11 25/25/11 26/26/11
f 3/3/12 2/2/12 21/21/12 13/13/12
f 7/7/13 5/5/13 14/14/13 27/27/13
f 15/15/14 11/11/14 26/26/14 22/22/14
f 9/9/15 7/7/15 27/27/15 25/25/15
f 2/2/16 15/15/16 22/22/16 21/21/16
f 28/28/17 29/29/17 30/30/17 31/31/17
f 26/26/18 25/25/18 32/32/18 33/33/18
f 27/27/19 14/14/19 34/34/19 35/35/19
f 13/13/20 21/21/20 24/24/20 36/36/20
f 22/22/21 26/26/21 33/33/21 23/23/21
f 25/25/22 27/27/22 35/35/22 32/32/22
f 14/14/23 13/13/23 36/36/23 34/34/23
f 17/17/24 37/37/24 1/1/24 4/4/24
f 18/18/25 17/17/25 4/4/25 6/6/25
f 38/38/26 18/18/26 6/6/26 8/8/26
f 39/39/27 38/38/27 8/8/27 10/10/27
f 40/40/28 39/39/28 10/10/28 12/12/28
f 41/41/29 40/40/29 12/12/29 16/16/29
f 37/37/30 41/41/30 16/16/30 1/1/30
f 42/42/31 43/43/31 44/44/31 45/45/31
f 38/38/32 39/39/32 46/46/32 47/47/32
f 40/40/33 41/41/33 45/48/33 44/49/33
f 37/37/34 17/17/34 20/20/34 42/50/34
f 44/44/35 43/43/35 47/51/35 46/52/35
f 47/51/36 43/43/36 19/53/36
f 43/43/37 42/42/37 20/54/37 19/53/37
f 41/41/38 37/37/38 42/50/38 45/48/38
f 39/39/39 40/40/39 44/49/39 46/46/39
f 18/18/40 38/38/40 47/47/40 19/19/40
f 48/55/41 49/56/41 36/36/41 24/24/41
f 49/56/42 29/29/42 34/34/42 36/36/42
f 29/29/43 28/28/43 35/35/43 34/34/43
f 28/28/44 50/57/44 32/32/44 35/35/44
f 50/57/45 51/58/45 33/33/45 32/32/45
f 51/58/46 52/59/46 23/23/46 33/33/46
f 52/59/47 48/55/47 24/24/47 23/23/47
f 53/60/48 54/61/48 55/62/48 30/63/48
f 51/58/49 50/57/49 56/64/49 57/65/49
f 48/55/50 52/59/50 58/66/50 54/67/50
f 29/29/51 49/56/51 53/68/51 30/30/51
f 30/63/52 55/62/52 31/69/52
f 55/62/53 54/61/53 58/70/53 57/71/53
f 31/69/54 55/62/54 57/71/54 56/72/54
f 49/56/55 48/55/55 54/67/55 53/68/55
f 52/59/56 51/58/56 57/65/56 58/66/56
f 50/57/57 28/28/57 31/31/57 56/64/57
