mtllib forest_nature_set_all_in.mtl
o forest_Bush_group_average_Plane_137
v 11.644853 -0.001046 11.195896
v 11.428299 -0.001046 11.047703
v 11.622193 -0.001046 10.812133
v 11.813845 -0.001046 10.981181
v 13.977794 -0.001046 12.809272
v 13.770899 -0.001046 12.648345
v 13.941619 -0.001046 12.448056
v 14.173906 -0.001046 12.608301
v 12.735620 -0.001046 13.672430
v 12.820277 -0.001046 13.446649
v 13.078831 -0.001046 13.596928
v 12.947719 -0.001046 13.796211
v 11.424175 0.374013 10.798882
v 11.282832 0.506648 10.889521
v 11.446587 0.946971 10.621835
v 11.525845 0.899131 10.559988
v 14.152418 0.391568 12.441265
v 13.919115 0.307762 12.318601
v 13.811184 0.470744 12.211012
v 13.986563 0.555447 12.309921
v 12.863974 0.351761 13.855404
v 12.960186 0.358835 13.603987
v 13.279454 0.894796 13.673555
v 13.251990 0.913538 13.809670
v 13.778478 0.292964 12.516197
v 14.013218 0.357121 12.657258
v 12.716816 0.330075 13.494390
v 11.621398 0.384088 10.928011
v 11.476331 0.296704 11.154652
v 12.625903 0.327194 13.716788
v 11.265844 0.285384 11.035215
v 11.488296 0.530369 11.003075
v 10.745108 1.266232 11.214701
v 10.849970 1.273097 11.278176
v 11.403326 0.406287 11.183151
v 11.186098 0.377645 11.079762
v 10.802929 1.201756 11.377818
v 10.689788 1.186314 11.324413
v 11.631214 0.909371 10.622156
v 11.554544 0.966134 10.677064
v 12.724922 0.536921 13.853823
v 12.820994 0.500215 13.684511
v 12.370744 1.318537 13.581414
v 12.296815 1.334416 13.667525
v 12.543962 0.516414 13.733512
v 12.613626 0.462867 13.568321
v 13.003087 0.983555 13.187303
v 12.933629 1.030309 13.260800
v 12.203143 1.310346 13.599962
v 12.256521 1.289264 13.499337
v 12.873183 0.947217 13.137855
v 12.811382 0.988053 13.198267
v 13.196604 0.957943 13.713059
v 13.156734 0.987061 13.803542
v 13.686787 0.447587 12.418452
v 13.437946 1.209541 11.975086
v 13.504852 1.220679 11.868389
v 13.867914 0.514492 12.536772
v 14.522955 1.376875 12.266236
v 14.631100 1.319401 12.332494
v 13.539287 1.252264 12.036412
v 13.617605 1.267166 11.927592
v 14.573316 1.297416 12.452391
v 14.476748 1.354465 12.390979
v 11.777428 0.002547 12.356387
v 11.585918 0.002547 12.199900
v 11.784623 0.002547 12.025202
v 11.995407 0.002547 12.168568
v 12.003016 0.416544 12.094069
v 11.793817 0.353316 12.029137
v 11.708295 0.528889 11.939918
v 11.842485 0.597673 12.092052
v 11.597615 0.315374 12.230784
v 11.800191 0.357716 12.334144
v 11.524651 0.481971 12.160800
v 11.194989 1.209541 12.067697
v 11.272071 1.220679 11.968102
v 11.662416 0.522471 12.268388
v 12.071625 1.376875 12.331333
v 12.172725 1.319401 12.407910
v 11.289803 1.252264 12.138698
v 11.378450 1.267166 12.038114
v 12.103422 1.297416 12.521539
v 12.013368 1.354465 12.450922
v 14.122536 -0.001957 13.616985
v 14.245663 -0.001957 13.826326
v 13.966470 -0.001957 13.931398
v 13.896400 -0.001957 13.704033
v 13.987825 0.316751 13.631687
v 14.172831 0.297089 13.886513
v 14.052995 0.786281 14.134689
v 13.965110 0.805023 14.027182
v 14.338720 0.296206 13.742199
v 14.201134 0.307139 13.520673
v 14.125358 0.482648 13.542331
v 14.229311 0.424876 13.739321
v 14.599765 1.275681 13.443200
v 14.580008 1.291560 13.331439
v 14.272135 0.486319 13.456917
v 14.357711 0.424340 13.619524
v 14.527540 0.875388 14.214892
v 14.514707 0.922143 14.114586
v 14.691635 1.267491 13.301800
v 14.735642 1.246408 13.406861
v 14.648117 0.839050 14.145746
v 14.640553 0.879887 14.059654
v 14.074944 0.849428 14.045567
v 14.030220 0.878547 13.957381
v 12.709218 0.002547 11.425035
v 12.631577 0.002547 11.190406
v 12.891799 0.002547 11.151033
v 12.991745 0.002547 11.385736
v 12.745990 0.473045 11.027233
v 12.660789 1.220933 10.752106
v 12.794943 1.208960 10.731670
v 13.004307 0.429500 10.989307
v 13.104367 0.433739 11.223922
v 12.824284 0.487991 11.261368
v 12.700672 1.225009 10.872919
v 12.846386 1.208319 10.852459
v 10.920267 0.716235 11.223627
v 11.086239 0.525692 11.342815
v 10.832105 0.602216 11.600913
v 11.664193 1.219163 12.903078
v 11.527245 0.619542 12.290867
v 12.073285 0.840545 12.788133
v 12.155167 0.727950 12.238736
v 12.597018 0.979195 12.839544
v 11.588502 0.777677 10.520462
v 11.234098 0.937828 10.064487
v 10.667885 0.865815 10.929701
v 11.667692 0.867076 9.783518
v 11.974404 0.888099 11.118554
v 11.726374 1.105780 11.372780
v 12.039482 0.548095 10.218588
v 12.036600 1.350231 13.280883
v 10.632749 0.824143 11.994633
v 10.328660 1.205372 11.550953
v 10.400524 1.075093 11.127970
v 11.170612 0.688400 12.364892
v 10.882360 0.953646 12.411282
v 11.024002 1.864479 12.889007
v 10.499893 1.419740 10.795922
v 10.229456 2.020497 10.840035
v 10.623251 1.732772 10.366239
v 12.942302 0.545591 10.936630
v 13.220181 0.696016 11.323661
v 12.471418 0.683675 11.420671
v 10.258793 1.506199 12.130578
v 12.225363 1.800967 9.912897
v 11.736356 1.492929 9.803157
v 11.408715 2.448136 9.986588
v 13.220498 0.978316 11.048627
v 13.104489 1.330564 10.375219
v 13.463008 0.842935 11.780770
v 13.585017 1.487070 11.225788
v 13.578818 1.263026 12.018343
v 11.675518 2.169589 12.767455
v 11.413103 2.881344 12.653100
v 11.323611 2.038275 12.920067
v 10.695177 2.273553 12.976293
v 10.872834 2.853754 12.153518
v 10.455996 2.307296 12.545238
v 11.162024 2.549614 10.546623
v 11.259600 2.738139 10.863144
v 11.764979 3.000451 10.420736
v 11.910402 3.015137 10.982977
v 12.921458 2.045919 10.271278
v 13.093795 2.369826 10.447132
v 12.375900 2.411868 10.242741
v 13.178659 2.699353 11.885278
v 13.610546 1.982748 11.862746
v 13.018414 2.573207 12.266470
v 12.921983 2.701326 11.212056
v 12.468848 2.838223 11.595949
v 12.488352 2.890390 11.002319
v 13.527910 1.588778 10.651903
v 12.255566 3.091809 10.583193
v 11.719871 2.494230 10.061539
v 12.109146 2.842267 10.321761
v 11.170794 3.139367 11.247366
v 10.619120 2.591296 11.146927
v 11.450039 3.316912 11.564958
v 10.631987 3.013946 11.655503
v 10.443552 2.382117 11.706537
v 12.026165 2.941267 11.812428
v 11.296922 3.055686 12.004244
v 11.929785 2.777734 12.581478
v 12.416989 2.991307 12.247490
v 12.614601 2.322845 12.878249
v 12.423532 2.055767 10.056388
v 10.731066 2.586586 10.635878
v 10.438410 2.265478 11.295751
v 10.538748 2.506994 10.832705
v 10.284217 2.037378 11.103702
v 12.817401 1.439913 12.876806
v 12.497331 1.862051 12.900951
v 12.172087 2.038399 12.989422
v 13.283405 1.744636 12.447482
v 12.457898 0.767413 10.131116
v 12.673127 1.054004 10.240236
v 12.163517 1.286877 10.103038
v 12.769359 1.380347 10.122808
v 11.186084 2.366048 10.272572
v 11.141393 2.063786 9.999373
v 10.484595 2.020398 10.715410
v 13.178099 0.617899 12.372664
v 13.355206 1.320217 12.735977
v 12.232093 1.190101 10.879908
v 11.971575 0.821797 9.914248
v 11.414904 1.255889 9.835289
v 10.595758 1.097258 10.429363
v 12.642056 0.594315 12.207145
v 11.785330 0.703400 11.677515
v 10.759432 0.574408 12.065600
v 12.928162 1.270239 10.244610
v 11.381983 0.874934 12.751148
v 12.648625 0.706862 12.743241
v 12.789073 0.531382 12.868487
v 12.531309 0.601856 13.080225
v 13.065119 0.925904 14.619018
v 13.080218 0.602370 13.788171
v 13.556993 0.690339 14.388433
v 13.693387 0.722173 13.799839
v 14.211306 0.811093 14.531006
v 13.331161 0.738609 12.139688
v 13.049369 0.900918 11.702264
v 12.445978 0.844617 12.449589
v 13.483798 0.812412 11.464455
v 13.625720 0.849524 12.733891
v 13.372500 1.064806 12.957194
v 13.833886 0.517876 11.928874
v 13.614398 0.903727 14.981324
v 12.261097 0.769579 13.442080
v 12.075082 1.157332 12.985666
v 12.181900 1.037351 12.605252
v 12.691592 0.625146 13.844228
v 12.363555 0.825006 13.884361
v 12.299387 1.470482 14.539834
v 12.305095 1.354753 12.310785
v 12.053924 1.908008 12.324980
v 12.459723 1.643039 11.929226
v 14.644814 0.629055 12.769289
v 14.807290 0.797954 13.220715
v 14.056595 0.684462 13.101785
v 11.946619 1.428235 13.513184
v 14.003608 1.610550 11.373414
v 13.525016 1.339570 11.347766
v 13.204105 2.288662 11.618978
v 14.909142 1.117247 13.013684
v 15.034485 1.497895 12.349996
v 14.998492 0.930803 13.714852
v 15.189894 1.579878 13.204675
v 15.109901 1.322259 13.995347
v 13.222766 1.498008 14.741615
v 12.861767 2.470265 14.298958
v 12.660303 1.519743 14.744063
v 12.027075 1.939713 14.463688
v 12.572981 2.639933 13.610809
v 11.902066 2.028293 13.989441
v 12.936414 2.400960 12.153424
v 13.021112 2.586419 12.467651
v 13.473562 2.901166 12.196508
v 13.600963 2.882014 12.745134
v 14.793156 2.042975 12.133861
v 14.981162 2.252226 12.369931
v 14.096539 2.269152 11.898839
v 14.862013 2.412862 13.667130
v 15.121795 1.944472 13.752934
v 14.579835 2.334851 14.021325
v 14.841477 2.318929 13.104583
v 14.251696 2.530293 13.351241
v 14.334623 2.630914 12.905281
v 15.287493 1.717004 12.672139
v 13.966483 2.978060 12.469216
v 13.460491 2.321581 11.670395
v 13.797543 2.733214 12.101166
v 12.963061 2.939598 12.793195
v 12.472435 2.432474 12.645032
v 13.148606 3.103039 13.109895
v 12.508116 2.820742 13.113025
v 12.237593 2.227555 13.147400
v 13.655403 2.711079 13.427233
v 12.980982 2.849747 13.502711
v 13.409057 2.291763 14.371838
v 13.949485 2.688909 13.914779
v 14.259444 1.840473 14.676743
v 14.199567 1.903279 11.607535
v 12.548565 2.429142 12.186838
v 12.259200 2.132854 12.763368
v 12.373757 2.355572 12.348726
v 12.090419 1.923398 12.571920
v 14.450261 1.165429 14.661502
v 14.225825 1.341782 14.698387
v 13.872009 1.352093 14.866461
v 14.812923 1.645749 14.355901
v 14.322706 0.768696 11.899323
v 14.578999 1.110008 12.021998
v 13.983413 1.169270 11.650229
v 14.689272 1.440043 11.910417
v 12.984109 2.226790 11.898641
v 12.966074 1.942033 11.628492
v 12.298967 1.907927 12.235567
v 14.691674 0.690384 14.182590
v 14.856536 1.278213 14.585321
v 13.890708 1.115612 12.531219
v 13.797195 0.760633 11.615740
v 13.230941 1.172737 11.467581
v 12.428425 1.057764 11.984372
v 14.173912 0.623095 13.873223
v 13.396876 0.695041 13.242785
v 12.393011 0.556463 13.509872
v 14.870541 1.399170 12.138560
v 12.809733 0.742033 14.296597
vt 0.437452 0.512268
vt 0.435748 0.512268
vt 0.442958 0.512268
vt 0.443880 0.512268
vt 0.457939 0.512268
vt 0.458365 0.512268
vt 0.464652 0.512268
vt 0.464581 0.512268
vt 0.442931 0.512268
vt 0.442647 0.512268
vt 0.449785 0.512268
vt 0.448792 0.512268
vt 0.439513 0.621197
vt 0.435509 0.659827
vt 0.442658 0.788069
vt 0.445074 0.774137
vt 0.467621 0.626310
vt 0.466929 0.601902
vt 0.467622 0.649370
vt 0.468009 0.674039
vt 0.447508 0.614717
vt 0.447234 0.616776
vt 0.454943 0.772873
vt 0.455635 0.778332
vt 0.461100 0.597592
vt 0.461445 0.616278
vt 0.440819 0.608401
vt 0.441154 0.624132
vt 0.434983 0.598681
vt 0.440933 0.607562
vt 0.432947 0.595384
vt 0.437543 0.666736
vt 0.420580 0.881053
vt 0.421533 0.883053
vt 0.433197 0.630597
vt 0.430790 0.622256
vt 0.419128 0.862275
vt 0.417867 0.857777
vt 0.446056 0.777119
vt 0.443796 0.793651
vt 0.444424 0.668644
vt 0.444930 0.657953
vt 0.434011 0.896287
vt 0.433201 0.900912
vt 0.439284 0.662672
vt 0.439247 0.647076
vt 0.444209 0.798725
vt 0.443377 0.812341
vt 0.430490 0.893902
vt 0.430708 0.887761
vt 0.440871 0.788142
vt 0.440083 0.800035
vt 0.453492 0.791265
vt 0.453474 0.799746
vt 0.461816 0.642626
vt 0.467307 0.864542
vt 0.470332 0.867786
vt 0.461893 0.662112
vt 0.476090 0.913278
vt 0.476223 0.896539
vt 0.467447 0.876985
vt 0.470668 0.881325
vt 0.473057 0.890136
vt 0.472983 0.906751
vt 0.457939 0.512268
vt 0.458365 0.512268
vt 0.464652 0.512268
vt 0.464581 0.512268
vt 0.467621 0.626310
vt 0.466929 0.601902
vt 0.467622 0.649370
vt 0.468009 0.674039
vt 0.461100 0.597592
vt 0.461445 0.616278
vt 0.461816 0.642626
vt 0.467307 0.864542
vt 0.470332 0.867786
vt 0.461893 0.662112
vt 0.476090 0.913278
vt 0.476223 0.896539
vt 0.467447 0.876985
vt 0.470668 0.881325
vt 0.473057 0.890136
vt 0.472983 0.906751
vt 0.442931 0.512268
vt 0.442647 0.512268
vt 0.449785 0.512268
vt 0.448792 0.512268
vt 0.447508 0.614717
vt 0.447234 0.616776
vt 0.454943 0.772873
vt 0.455635 0.778332
vt 0.440819 0.608401
vt 0.440933 0.607562
vt 0.444424 0.668644
vt 0.444930 0.657953
vt 0.434011 0.896287
vt 0.433201 0.900912
vt 0.439284 0.662672
vt 0.439247 0.647076
vt 0.444209 0.798725
vt 0.443377 0.812341
vt 0.430490 0.893902
vt 0.430708 0.887761
vt 0.440871 0.788142
vt 0.440083 0.800035
vt 0.453492 0.791265
vt 0.453474 0.799746
vt 0.461407 0.545345
vt 0.461372 0.542095
vt 0.468600 0.532576
vt 0.469225 0.532606
vt 0.465806 0.696498
vt 0.465919 0.948756
vt 0.469647 0.944718
vt 0.472971 0.681811
vt 0.473600 0.683241
vt 0.465863 0.701540
vt 0.465935 0.950130
vt 0.469969 0.944501
vt 0.170233 0.587476
vt 0.162409 0.576778
vt 0.160396 0.592919
vt 0.142671 0.740222
vt 0.146761 0.599121
vt 0.136569 0.667814
vt 0.138495 0.612243
vt 0.128814 0.749770
vt 0.167196 0.560990
vt 0.176133 0.557701
vt 0.174711 0.596681
vt 0.172813 0.540488
vt 0.152681 0.548346
vt 0.155288 0.562309
vt 0.163875 0.542495
vt 0.135980 0.766260
vt 0.160766 0.667248
vt 0.164697 0.709283
vt 0.172452 0.656181
vt 0.150108 0.632317
vt 0.157114 0.679347
vt 0.153050 0.766641
vt 0.178947 0.628670
vt 0.178970 0.691558
vt 0.180697 0.652387
vt 0.148242 0.624491
vt 0.139678 0.689182
vt 0.144146 0.587982
vt 0.164358 0.777996
vt 0.170323 0.714632
vt 0.175479 0.616181
vt 0.175868 0.751422
vt 0.141070 0.766582
vt 0.153998 0.729770
vt 0.133017 0.719402
vt 0.140849 0.831816
vt 0.131020 0.794999
vt 0.147299 0.876891
vt 0.155535 0.921778
vt 0.151429 0.858486
vt 0.158400 0.859670
vt 0.164393 0.909443
vt 0.164087 0.828760
vt 0.175365 0.826600
vt 0.172640 0.885921
vt 0.170337 0.892173
vt 0.165401 0.955849
vt 0.163605 0.830188
vt 0.157734 0.845351
vt 0.165440 0.855689
vt 0.144285 0.960337
vt 0.135734 0.869682
vt 0.138695 0.938791
vt 0.150884 0.947338
vt 0.152847 0.973942
vt 0.159127 0.957732
vt 0.150514 0.790151
vt 0.163769 0.947307
vt 0.172686 0.804593
vt 0.168388 0.881706
vt 0.168809 0.928716
vt 0.174425 0.826421
vt 0.163296 0.962085
vt 0.170042 0.882849
vt 0.171024 0.804573
vt 0.156288 0.955849
vt 0.159897 0.942722
vt 0.150322 0.927580
vt 0.145639 0.946764
vt 0.139025 0.912155
vt 0.164792 0.756510
vt 0.177026 0.808833
vt 0.173791 0.761360
vt 0.178077 0.778556
vt 0.176172 0.727562
vt 0.128448 0.841453
vt 0.134874 0.875361
vt 0.138833 0.869629
vt 0.130480 0.854273
vt 0.164074 0.566487
vt 0.164007 0.609646
vt 0.169653 0.613780
vt 0.162388 0.670886
vt 0.177945 0.746084
vt 0.178719 0.659798
vt 0.180512 0.715134
vt 0.129189 0.707084
vt 0.128387 0.799035
vt 0.154968 0.554714
vt 0.168659 0.548206
vt 0.177929 0.568629
vt 0.178314 0.577581
vt 0.132693 0.641358
vt 0.149599 0.554014
vt 0.155091 0.602082
vt 0.156358 0.664866
vt 0.146240 0.679234
vt 0.170233 0.587476
vt 0.162409 0.576778
vt 0.160396 0.592919
vt 0.142671 0.740222
vt 0.146761 0.599121
vt 0.136569 0.667814
vt 0.138495 0.612243
vt 0.128814 0.749770
vt 0.167196 0.560990
vt 0.176133 0.557701
vt 0.174711 0.596681
vt 0.172813 0.540488
vt 0.152681 0.548346
vt 0.155288 0.562309
vt 0.163875 0.542495
vt 0.135980 0.766260
vt 0.160766 0.667248
vt 0.164697 0.709283
vt 0.172452 0.656181
vt 0.150108 0.632317
vt 0.157114 0.679347
vt 0.153050 0.766641
vt 0.178947 0.628670
vt 0.178970 0.691558
vt 0.180697 0.652387
vt 0.148242 0.624491
vt 0.139678 0.689182
vt 0.144146 0.587982
vt 0.164358 0.777996
vt 0.170323 0.714632
vt 0.175479 0.616181
vt 0.175868 0.751422
vt 0.141070 0.766582
vt 0.153998 0.729770
vt 0.133017 0.719402
vt 0.140849 0.831816
vt 0.131020 0.794999
vt 0.147299 0.876891
vt 0.155535 0.921778
vt 0.151429 0.858486
vt 0.158400 0.859670
vt 0.164393 0.909443
vt 0.164087 0.828760
vt 0.175365 0.826600
vt 0.172640 0.885921
vt 0.170337 0.892173
vt 0.165401 0.955849
vt 0.163605 0.830188
vt 0.157734 0.845351
vt 0.165440 0.855689
vt 0.144285 0.960337
vt 0.135734 0.869682
vt 0.138695 0.938791
vt 0.150884 0.947338
vt 0.152847 0.973942
vt 0.159127 0.957732
vt 0.150514 0.790151
vt 0.163769 0.947307
vt 0.172686 0.804593
vt 0.168388 0.881706
vt 0.168809 0.928716
vt 0.174425 0.826421
vt 0.163296 0.962085
vt 0.170042 0.882849
vt 0.171024 0.804573
vt 0.156288 0.955849
vt 0.159897 0.942722
vt 0.150322 0.927580
vt 0.145639 0.946764
vt 0.139025 0.912155
vt 0.164792 0.756510
vt 0.177026 0.808833
vt 0.173791 0.761360
vt 0.178077 0.778556
vt 0.176172 0.727562
vt 0.128448 0.841453
vt 0.134874 0.875361
vt 0.138833 0.869629
vt 0.130480 0.854273
vt 0.164074 0.566487
vt 0.164007 0.609646
vt 0.169653 0.613780
vt 0.162388 0.670886
vt 0.177945 0.746084
vt 0.178719 0.659798
vt 0.180512 0.715134
vt 0.129189 0.707084
vt 0.128387 0.799035
vt 0.154968 0.554714
vt 0.168659 0.548206
vt 0.177929 0.568629
vt 0.178314 0.577581
vt 0.132693 0.641358
vt 0.149599 0.554014
vt 0.155091 0.602082
vt 0.156358 0.664866
vt 0.146240 0.679234
vn 0.0000 -1.0000 0.0000
vn -0.6616 -0.1976 -0.7233
vn 0.5233 -0.1718 -0.8346
vn 0.8060 -0.5252 0.2730
vn -0.7514 -0.2783 -0.5983
vn -0.5615 0.3614 0.7444
vn 0.4399 0.2106 -0.8730
vn 0.6868 0.4427 0.5764
vn -0.9028 -0.2423 -0.3552
vn 0.7445 0.2494 0.6193
vn 0.5877 0.2342 -0.7744
vn -0.4752 -0.2627 0.8398
vn 0.5342 -0.3005 -0.7901
vn -0.6958 -0.4023 -0.5949
vn 0.8723 0.2065 0.4432
vn -0.5145 -0.2151 0.8301
vn 0.3615 0.5760 -0.7332
vn -0.3484 -0.5407 0.7657
vn -0.7187 -0.3430 -0.6048
vn 0.7277 0.3466 0.5918
vn -0.3239 0.8350 0.4449
vn -0.3320 -0.4535 0.8271
vn -0.7585 -0.2876 -0.5848
vn 0.7029 0.3830 0.5993
vn 0.1712 0.8364 -0.5207
vn -0.4465 0.5793 0.6819
vn 0.5008 -0.4398 -0.7455
vn 0.7126 0.3452 0.6108
vn 0.7684 0.4912 0.4103
vn -0.8605 -0.4094 -0.3030
vn 0.7352 0.3313 0.5913
vn -0.4746 -0.3134 0.8225
vn -0.0741 0.9675 -0.2420
vn -0.8665 -0.4090 -0.2863
vn 0.4953 0.1537 -0.8550
vn -0.5508 -0.0996 0.8287
vn -0.0123 0.8313 -0.5558
vn 0.4091 -0.5287 -0.7437
vn -0.7321 -0.1893 -0.6544
vn -0.4860 0.6121 0.6237
vn 0.6104 0.7920 0.0141
vn -0.2540 0.2694 -0.9289
vn -0.6575 0.5730 -0.4892
vn 0.0378 0.0640 0.9972
vn -0.7073 -0.5127 -0.4867
vn -0.5567 0.1488 0.8173
vn -0.5945 -0.6655 -0.4514
vn 0.3864 -0.3002 -0.8721
vn -0.3296 0.9378 -0.1088
vn 0.6426 0.5997 0.4769
vn 0.5315 -0.1664 -0.8305
vn -0.5876 0.2566 0.7674
vn 0.3175 0.9001 0.2983
vn -0.8044 0.5222 -0.2831
vn -0.3172 0.3795 0.8691
vn 0.8222 -0.3872 0.4172
vn 0.4962 0.1225 -0.8595
vn -0.6917 0.0595 -0.7198
vn -0.5517 0.0177 0.8338
vn 0.7075 0.0606 0.7041
vn 0.4535 -0.0918 -0.8865
vn -0.6769 -0.3937 -0.6220
vn -0.5288 0.0114 0.8487
vn -0.5641 -0.5485 -0.6173
vn 0.4348 0.1866 -0.8810
vn -0.3173 0.9378 -0.1407
vn 0.5722 0.4335 0.6962
vn 0.5425 0.3443 -0.7662
vn -0.5678 -0.1499 0.8094
vn 0.2866 0.9001 0.3281
vn -0.7725 0.4060 -0.4883
vn -0.5080 0.0077 0.8613
vn 0.7808 -0.3425 0.5225
vn -0.7381 -0.4428 0.5090
vn 0.4879 -0.0565 0.8710
vn 0.7911 -0.3687 -0.4881
vn -0.4097 -0.1315 -0.9027
vn -0.7784 0.4569 0.4304
vn -0.7537 0.5037 0.4222
vn 0.6986 -0.5094 -0.5025
vn -0.8894 0.4324 0.1481
vn -0.4778 -0.0986 -0.8729
vn 0.2341 0.9675 0.0961
vn 0.7252 -0.4750 -0.4985
vn 0.5111 0.0326 0.8589
vn -0.4059 0.0128 -0.9138
vn 0.4377 0.8313 0.3427
vn 0.3951 -0.6547 0.6444
vn 0.9098 -0.3455 -0.2298
vn -0.3081 0.7179 -0.6242
vn -0.3977 0.7920 0.4632
vn 0.9313 0.0617 0.3589
vn 0.8231 0.4950 -0.2783
vn -0.7974 0.3466 -0.4940
vn -0.1865 -0.3554 -0.9159
vn 0.8587 -0.3620 -0.3627
vn -0.9032 0.3161 0.2904
vn -0.1652 -0.2985 -0.9400
vn 0.1570 0.2956 0.9423
vn 0.0945 0.9943 -0.0499
vn 0.1962 0.4795 0.8553
vn 0.9132 0.1166 -0.3905
vn -0.9489 0.0076 0.3155
vn -0.5823 -0.7304 -0.3568
vn -0.3780 -0.6177 0.6896
vn 0.2282 -0.9465 0.2280
vn -0.4672 -0.7242 -0.5072
vn -0.1803 -0.9634 -0.1982
vn -0.2489 -0.9579 -0.1430
vn -0.3532 -0.8525 0.3853
vn -0.5299 -0.8332 -0.1580
vn -0.4192 -0.6465 0.6375
vn -0.8058 -0.5904 0.0450
vn -0.5293 -0.6669 0.5244
vn -0.8251 -0.1565 0.5429
vn -0.8147 -0.3318 -0.4756
vn 0.0577 -0.9438 0.3254
vn -0.8527 -0.4986 0.1560
vn 0.0828 0.2152 -0.9730
vn 0.8969 -0.3091 -0.3162
vn 0.9704 -0.2343 -0.0587
vn 0.3015 0.2586 0.9177
vn -0.5836 0.7176 0.3800
vn -0.6126 0.7477 -0.2565
vn -0.4029 0.9117 0.0804
vn 0.6567 0.0588 -0.7518
vn 0.2758 0.3411 -0.8986
vn 0.7772 0.4811 -0.4056
vn 0.7632 0.4453 0.4682
vn 0.2236 0.9712 -0.0824
vn 0.5384 0.6748 -0.5048
vn 0.2071 0.9739 0.0924
vn 0.9128 0.3830 -0.1416
vn 0.1571 0.9185 -0.3628
vn 0.8742 0.4856 -0.0009
vn 0.8845 0.3244 -0.3353
vn -0.1906 0.9814 0.0237
vn 0.2899 0.3437 -0.8932
vn -0.5297 0.5217 -0.6687
vn -0.1492 0.6665 -0.7305
vn -0.4387 0.5690 -0.6956
vn -0.5851 0.8085 0.0625
vn 0.0076 0.9530 0.3029
vn -0.5494 0.6494 -0.5258
vn -0.9438 0.2656 -0.1968
vn 0.5467 0.8373 -0.0017
vn -0.4524 0.7719 0.4466
vn 0.2072 0.9534 0.2191
vn 0.1884 0.2782 0.9418
vn 0.2218 0.9477 0.2293
vn 0.1188 0.9687 -0.2181
vn -0.3008 0.9398 0.1621
vn 0.1666 0.7023 0.6921
vn 0.4537 0.6789 0.5773
vn 0.8282 -0.5319 -0.1767
vn 0.6586 -0.6142 -0.4347
vn 0.3575 0.4701 -0.8069
vn 0.3955 -0.0322 -0.9179
vn 0.1753 0.3269 -0.9287
vn -0.2497 0.9662 -0.0636
vn -0.8560 0.5106 0.0808
vn -0.8553 0.5116 0.0815
vn -0.9815 0.1872 -0.0409
vn -0.9744 0.2221 0.0343
vn -0.6632 -0.3287 0.6724
vn 0.3688 0.2281 0.9011
vn 0.2539 -0.0170 0.9671
vn 0.1045 0.0224 0.9943
vn 0.7046 0.3591 0.6120
vn 0.7541 -0.3563 -0.5516
vn 0.3109 0.1253 -0.9422
vn 0.0858 -0.3596 -0.9291
vn -0.7456 0.5041 -0.4358
vn -0.0447 0.8282 -0.5587
vn -0.2106 0.1142 -0.9709
vn -0.6881 0.5399 -0.4848
vn -0.6249 0.4624 -0.6290
vn -0.8815 0.4279 0.1995
vn 0.3540 0.1280 0.9264
vn -0.0735 -0.0512 0.9960
vn -0.2459 -0.4200 0.8736
vn 0.8576 0.0723 0.5092
vn 0.6194 0.1410 0.7723
vn 0.1207 -0.4800 0.8689
vn 0.9089 0.3285 0.2570
vn 0.5691 -0.8214 -0.0383
vn 0.8253 -0.5060 0.2508
vn 0.1487 -0.6881 -0.7102
vn -0.5303 -0.5259 0.6650
vn 0.1867 -0.7094 -0.6796
vn 0.4175 0.1885 -0.8889
vn 0.3446 -0.8313 -0.4361
vn -0.5548 -0.2553 -0.7919
vn -0.4042 -0.8510 -0.3354
vn -0.5281 -0.2780 -0.8024
vn -0.9640 0.0153 -0.2656
vn -0.7212 -0.3614 -0.5910
vn -0.1200 -0.8518 0.5099
vn 0.0069 -0.9972 -0.0740
vn -0.1991 -0.8434 0.4991
vn 0.0713 -0.9350 0.3474
vn -0.4861 -0.7986 -0.3549
vn -0.5763 -0.0608 0.8149
vn -0.8603 -0.4829 -0.1634
vn 0.0727 -0.9962 -0.0482
vn -0.0790 -0.8906 0.4478
vn 0.4538 0.0562 0.8893
vn 0.6565 -0.7335 0.1762
vn 0.1838 -0.9572 0.2236
vn -0.2173 -0.9326 -0.2880
vn -0.2457 -0.9125 0.3270
vn 0.1112 -0.6866 0.7185
vn -0.7749 -0.3083 -0.5519
vn 0.3062 -0.5230 -0.7955
vn -0.1943 0.1317 -0.9721
vn 0.7990 -0.4502 -0.3987
vn -0.7694 0.4828 -0.4182
vn -0.7263 0.1056 0.6793
vn -0.3294 0.6604 -0.6748
vn -0.8214 0.5144 0.2461
vn 0.4140 -0.3592 -0.8364
vn 0.8706 -0.3439 -0.3519
vn 0.8141 -0.4598 -0.3547
vn 0.1770 0.2194 0.9594
vn 0.2568 -0.1448 -0.9556
vn 0.3596 0.9284 0.0934
vn 0.5707 0.7925 -0.2153
vn 0.1877 0.9219 0.3388
vn 0.5186 0.4544 -0.7242
vn 0.1096 0.6876 -0.7177
vn 0.0302 0.5766 -0.8164
vn -0.0214 0.8805 -0.4735
vn 0.2702 0.7832 0.5599
vn -0.2636 0.8667 0.4235
vn -0.3224 0.8981 0.2990
vn 0.2501 0.9669 0.0512
vn 0.2661 0.9429 -0.2004
vn 0.4989 0.7382 0.4540
vn 0.9990 -0.0451 -0.0049
vn 0.7436 0.3608 0.5629
vn 0.5181 0.0643 -0.8529
vn 0.2500 0.4116 -0.8764
vn -0.1748 0.4311 0.8852
vn -0.0918 0.9719 -0.2166
vn -0.0305 0.8629 -0.5045
vn -0.7410 0.2342 -0.6293
vn -0.4759 0.8723 -0.1123
vn -0.6973 -0.6325 0.3374
vn -0.3466 -0.3625 0.8651
vn 0.0134 -0.1983 0.9800
vn 0.6080 0.2069 -0.7665
vn -0.2754 0.4204 0.8645
vn -0.9900 -0.1041 -0.0952
vn 0.6125 -0.5397 -0.5776
vn 0.5100 -0.5888 -0.6270
vn 0.3604 -0.4081 -0.8388
vn -0.5764 0.1378 -0.8055
vn -0.7357 0.5311 -0.4203
vn -0.5671 -0.0248 -0.8233
vn -0.5791 -0.0557 -0.8134
vn -0.8900 0.4414 -0.1142
vn -0.9715 -0.1121 0.2089
vn -0.0767 -0.9887 -0.1290
vn -0.7413 -0.3481 0.5738
vn -0.2416 -0.2191 0.9453
vn 0.3245 0.5687 0.7559
vn 0.4795 -0.2962 0.8260
vn 0.8773 -0.3956 0.2719
vn 0.8752 -0.3773 0.3028
vn -0.6025 -0.6980 -0.3870
vn 0.2245 -0.6991 -0.6788
vn 0.4128 0.3787 -0.8284
vn 0.3180 0.2410 -0.9170
vn -0.9572 -0.2893 0.0042
vn -0.5764 -0.8132 0.0811
vn 0.0837 -0.9879 -0.1304
vn 0.1645 -0.9842 -0.0653
vn 0.2797 -0.7993 0.5318
vn -0.2674 -0.9622 -0.0513
vn 0.4748 -0.4861 -0.7337
vn 0.1121 -0.9898 -0.0881
vn -0.8021 -0.4308 -0.4137
vn -0.7405 -0.6720 0.0038
vn -0.5415 -0.7304 -0.4161
vn -0.2688 -0.8992 0.3453
vn 0.1837 -0.9829 -0.0106
vn -0.4354 -0.7272 -0.5306
vn -0.1943 -0.9539 -0.2288
vn -0.2840 -0.9441 -0.1674
vn -0.4022 -0.8432 0.3568
vn -0.4628 -0.8639 -0.1990
vn -0.2666 -0.8984 0.3491
vn -0.8581 -0.5070 -0.0810
vn -0.4880 -0.8449 0.2189
vn -0.9034 -0.3464 0.2527
vn -0.7607 -0.3310 -0.5584
vn 0.0919 -0.9430 0.3197
vn -0.9023 -0.4310 0.0016
vn -0.0877 0.2462 -0.9652
vn 0.9543 -0.2986 0.0090
vn 0.9605 -0.2781 0.0066
vn 0.0202 0.4205 0.9071
vn -0.5496 0.7831 0.2911
vn -0.6492 0.7186 -0.2491
vn -0.5041 0.8511 0.1468
vn 0.7490 0.0704 -0.6589
vn 0.4172 0.4892 -0.7659
vn 0.8729 0.4493 -0.1903
vn 0.6389 0.4664 0.6117
vn 0.2695 0.9482 -0.1682
vn 0.5891 0.7060 -0.3931
vn 0.2618 0.9299 0.2585
vn 0.9376 0.3450 0.0434
vn 0.0610 0.9950 -0.0788
vn 0.7506 0.5936 0.2904
vn 0.8283 0.4356 -0.3525
vn -0.1966 0.9772 0.0798
vn 0.3228 0.5453 -0.7736
vn -0.4976 0.5891 -0.6367
vn 0.0059 0.6783 -0.7348
vn -0.3934 0.5873 -0.7073
vn -0.6386 0.7692 -0.0228
vn -0.0051 0.9397 0.3420
vn -0.5364 0.6692 -0.5143
vn -0.8852 0.3889 -0.2552
vn 0.5369 0.8274 0.1645
vn -0.4399 0.8115 0.3847
vn 0.2279 0.8653 0.4465
vn -0.1034 0.4397 0.8922
vn 0.2240 0.8678 0.4436
vn 0.2737 0.9541 -0.1217
vn -0.4018 0.8712 0.2820
vn 0.1055 0.6855 0.7204
vn 0.2792 0.6961 0.6615
vn 0.8509 -0.5249 0.0208
vn 0.7739 -0.6014 -0.1988
vn 0.4240 0.6342 -0.6465
vn 0.6638 -0.0027 -0.7479
vn 0.1179 0.4581 -0.8811
vn -0.2860 0.9567 -0.0545
vn -0.8125 0.5767 0.0853
vn -0.7898 0.6041 0.1063
vn -0.9493 0.2886 -0.1246
vn -0.9268 0.1888 -0.3246
vn -0.8897 -0.3700 0.2673
vn 0.4107 0.3463 0.8434
vn 0.4293 0.0103 0.9031
vn 0.1851 0.0302 0.9823
vn 0.5588 0.5075 0.6559
vn 0.8015 -0.4682 -0.3719
vn 0.5213 -0.0863 -0.8490
vn 0.4509 -0.4174 -0.7889
vn -0.7341 0.4912 -0.4688
vn 0.0116 0.8265 -0.5628
vn -0.2879 0.1719 -0.9421
vn -0.6420 0.5487 -0.5355
vn -0.5552 0.4625 -0.6913
vn -0.8330 0.5318 0.1525
vn -0.0038 -0.2085 0.9780
vn -0.3961 -0.4397 0.8061
vn -0.3397 -0.6866 0.6428
vn 0.8339 0.1865 0.5195
vn 0.5313 0.1313 0.8369
vn 0.3046 -0.5950 0.7438
vn 0.8525 0.3458 0.3919
vn 0.6002 -0.7996 -0.0173
vn 0.7835 -0.4764 0.3989
vn 0.2559 -0.7340 -0.6291
vn -0.5562 -0.5630 0.6112
vn 0.1704 -0.7690 -0.6161
vn 0.4718 -0.1415 -0.8703
vn 0.4222 -0.8575 -0.2940
vn -0.5038 -0.3466 -0.7912
vn -0.3829 -0.8452 -0.3728
vn -0.4606 -0.3835 -0.8005
vn -0.9307 0.0153 -0.3656
vn -0.6550 -0.3614 -0.6636
vn -0.0406 -0.9601 0.2767
vn 0.1628 -0.9825 -0.0903
vn -0.2346 -0.9311 0.2794
vn 0.0344 -0.9350 0.3530
vn -0.4460 -0.7986 -0.4041
vn -0.7043 -0.2214 0.6745
vn -0.7630 -0.5695 -0.3058
vn 0.0962 -0.9926 -0.0739
vn -0.0250 -0.9746 0.2225
vn 0.4175 -0.2751 0.8660
vn 0.6297 -0.7320 0.2602
vn 0.1919 -0.9814 -0.0086
vn -0.2134 -0.9328 -0.2904
vn -0.2725 -0.9124 0.3054
vn 0.1018 -0.9391 0.3281
vn -0.7132 -0.3076 -0.6299
vn 0.1550 -0.7418 -0.6525
vn -0.4023 0.0527 -0.9140
vn 0.8756 -0.4615 -0.1425
vn -0.7089 0.5312 -0.4640
vn -0.5512 -0.0268 0.8340
vn -0.2573 0.6601 -0.7058
vn -0.7850 0.6193 0.0171
vn 0.3324 -0.5121 -0.7920
vn 0.8766 -0.4254 -0.2248
vn 0.8713 -0.4352 -0.2267
vn 0.0158 0.4192 0.9078
vn 0.5689 -0.2137 -0.7942
vn 0.4239 0.8634 0.2736
vn -0.3153 0.9378 -0.1451
vn 0.1728 0.8365 0.5201
vn 0.5014 0.5964 -0.6269
vn 0.2171 0.7638 -0.6078
vn 0.1282 0.6650 -0.7358
vn 0.0432 0.8773 -0.4780
vn 0.2253 0.7722 0.5941
vn -0.3296 0.8513 0.4083
vn -0.3495 0.8650 0.3599
vn 0.3080 0.9284 0.2081
vn 0.2535 0.9580 -0.1337
vn 0.3701 0.8007 0.4712
vn 0.9939 0.0231 0.1081
vn 0.6457 0.4990 0.5780
vn 0.7605 0.0708 -0.6455
vn 0.2620 0.5790 -0.7721
vn -0.0860 0.4306 0.8985
vn -0.0758 0.9675 -0.2413
vn 0.0183 0.8589 -0.5118
vn -0.7131 0.2815 -0.6421
vn -0.4495 0.8896 -0.0812
vn -0.8662 -0.4802 0.1386
vn -0.7813 -0.4226 0.4594
vn -0.4741 -0.1339 0.8702
vn 0.7241 0.3203 -0.6108
vn -0.1128 0.3069 0.9450
vn -0.9728 -0.0947 -0.2113
vn 0.7752 -0.5205 -0.3581
vn 0.7182 -0.5547 -0.4202
vn 0.6683 -0.4288 -0.6078
vn -0.4935 0.1563 -0.8556
vn -0.7355 0.4873 -0.4708
vn -0.5121 0.0033 -0.8589
vn -0.5356 -0.0508 -0.8430
vn -0.8335 0.5237 -0.1760
vn -0.9838 -0.0959 0.1514
vn -0.0407 -0.9924 -0.1160
vn -0.7111 -0.6131 0.3441
vn -0.4669 -0.5566 0.6872
vn 0.0117 0.5305 0.8476
vn 0.3999 -0.5419 0.7392
vn 0.8325 -0.4591 0.3101
vn 0.8305 -0.4540 0.3227
vn -0.3549 -0.7926 -0.4958
vn 0.3357 -0.7250 -0.6014
vn 0.4541 0.3259 -0.8292
vn 0.2357 -0.0254 -0.9715
vn -0.9524 -0.2893 -0.0966
vn -0.5817 -0.8132 0.0200
vn 0.1905 -0.9759 -0.1066
vn 0.1925 -0.9798 -0.0547
vn 0.1055 -0.9431 0.3152
vn -0.1946 -0.9797 -0.0483
vn 0.5492 -0.4879 -0.6785
vn 0.1243 -0.9876 -0.0957
vn -0.7743 -0.4180 -0.4751
vn -0.6719 -0.7215 -0.1673
usemtl AllColors_Material
f 1/1/1 2/2/1 3/3/1 4/4/1
f 5/5/1 6/6/1 7/7/1 8/8/1
f 9/9/1 10/10/1 11/11/1 12/12/1
f 13/13/2 14/14/2 15/15/2 16/16/2
f 17/17/3 18/18/3 19/19/3 20/20/3
f 21/21/4 22/22/4 23/23/4 24/24/4
f 7/7/5 6/6/5 25/25/5 18/18/5
f 6/6/6 5/5/6 26/26/6 25/25/6
f 11/11/7 10/10/7 27/27/7 22/22/7
f 1/1/8 4/4/8 28/28/8 29/29/8
f 10/10/9 9/9/9 30/30/9 27/27/9
f 5/5/10 8/8/10 17/17/10 26/26/10
f 4/4/11 3/3/11 13/13/11 28/28/11
f 9/9/12 12/12/12 21/21/12 30/30/12
f 8/8/13 7/7/13 18/18/13 17/17/13
f 3/3/14 2/2/14 31/31/14 13/13/14
f 12/12/15 11/11/15 22/22/15 21/21/15
f 2/2/16 1/1/16 29/29/16 31/31/16
f 32/32/17 14/14/17 33/33/17 34/34/17
f 31/31/18 29/29/18 35/35/18 36/36/18
f 13/13/19 31/31/19 36/36/19 14/14/19
f 29/29/20 28/28/20 32/32/20 35/35/20
f 37/37/21 34/34/21 33/33/21 38/38/21
f 36/36/22 35/35/22 37/37/22 38/38/22
f 14/14/23 36/36/23 38/38/23 33/33/23
f 35/35/24 32/32/24 34/34/24 37/37/24
f 39/39/25 16/16/25 15/15/25 40/40/25
f 14/14/26 32/32/26 40/40/26 15/15/26
f 28/28/27 13/13/27 16/16/27 39/39/27
f 32/32/28 28/28/28 39/39/28 40/40/28
f 41/41/29 42/42/29 43/43/29 44/44/29
f 27/27/30 30/30/30 45/45/30 46/46/30
f 42/42/31 22/22/31 47/47/31 48/48/31
f 30/30/32 21/21/32 41/41/32 45/45/32
f 49/49/33 44/44/33 43/43/33 50/50/33
f 46/46/34 45/45/34 49/49/34 50/50/34
f 42/42/35 46/46/35 50/50/35 43/43/35
f 45/45/36 41/41/36 44/44/36 49/49/36
f 47/47/37 51/51/37 52/52/37 48/48/37
f 22/22/38 27/27/38 51/51/38 47/47/38
f 27/27/39 46/46/39 52/52/39 51/51/39
f 46/46/40 42/42/40 48/48/40 52/52/40
f 24/24/41 23/23/41 53/53/41 54/54/41
f 22/22/42 42/42/42 53/53/42 23/23/42
f 42/42/43 41/41/43 54/54/43 53/53/43
f 41/41/44 21/21/44 24/24/44 54/54/44
f 19/19/45 55/55/45 56/56/45 57/57/45
f 25/25/46 26/26/46 58/58/46 55/55/46
f 18/18/47 25/25/47 55/55/47 19/19/47
f 17/17/48 20/20/48 59/59/48 60/60/48
f 61/61/49 62/62/49 57/57/49 56/56/49
f 58/58/50 20/20/50 62/62/50 61/61/50
f 20/20/51 19/19/51 57/57/51 62/62/51
f 55/55/52 58/58/52 61/61/52 56/56/52
f 63/63/53 60/60/53 59/59/53 64/64/53
f 20/20/54 58/58/54 64/64/54 59/59/54
f 58/58/55 26/26/55 63/63/55 64/64/55
f 26/26/56 17/17/56 60/60/56 63/63/56
f 65/65/1 66/66/1 67/67/1 68/68/1
f 69/69/57 70/70/57 71/71/57 72/72/57
f 67/67/58 66/66/58 73/73/58 70/70/58
f 66/66/59 65/65/59 74/74/59 73/73/59
f 65/65/60 68/68/60 69/69/60 74/74/60
f 68/68/61 67/67/61 70/70/61 69/69/61
f 71/71/62 75/75/62 76/76/62 77/77/62
f 73/73/63 74/74/63 78/78/63 75/75/63
f 70/70/64 73/73/64 75/75/64 71/71/64
f 69/69/65 72/72/65 79/79/65 80/80/65
f 81/81/66 82/82/66 77/77/66 76/76/66
f 78/78/67 72/72/67 82/82/67 81/81/67
f 72/72/68 71/71/68 77/77/68 82/82/68
f 75/75/69 78/78/69 81/81/69 76/76/69
f 83/83/70 80/80/70 79/79/70 84/84/70
f 72/72/71 78/78/71 84/84/71 79/79/71
f 78/78/72 74/74/72 83/83/72 84/84/72
f 74/74/73 69/69/73 80/80/73 83/83/73
f 85/85/1 86/86/1 87/87/1 88/88/1
f 89/89/74 90/90/74 91/91/74 92/92/74
f 87/87/75 86/86/75 93/93/75 90/90/75
f 86/86/76 85/85/76 94/94/76 93/93/76
f 85/85/77 88/88/77 89/89/77 94/94/77
f 88/88/78 87/87/78 90/90/78 89/89/78
f 95/95/79 96/96/79 97/97/79 98/98/79
f 93/93/80 94/94/80 99/99/80 100/100/80
f 96/96/81 90/90/81 101/101/81 102/102/81
f 94/94/82 89/89/82 95/95/82 99/99/82
f 103/103/83 98/98/83 97/97/83 104/104/83
f 100/100/84 99/99/84 103/103/84 104/104/84
f 96/96/85 100/100/85 104/104/85 97/97/85
f 99/99/86 95/95/86 98/98/86 103/103/86
f 101/101/87 105/105/87 106/106/87 102/102/87
f 90/90/88 93/93/88 105/105/88 101/101/88
f 93/93/89 100/100/89 106/106/89 105/105/89
f 100/100/90 96/96/90 102/102/90 106/106/90
f 92/92/91 91/91/91 107/107/91 108/108/91
f 90/90/92 96/96/92 107/107/92 91/91/92
f 96/96/93 95/95/93 108/108/93 107/107/93
f 95/95/94 89/89/94 92/92/94 108/108/94
f 109/109/1 110/110/1 111/111/1 112/112/1
f 113/113/95 114/114/95 115/115/95 116/116/95
f 111/111/96 116/116/96 117/117/96 112/112/96
f 109/109/97 118/118/97 113/113/97 110/110/97
f 110/110/98 113/113/98 116/116/98 111/111/98
f 112/112/99 117/117/99 118/118/99 109/109/99
f 119/119/100 120/120/100 115/115/100 114/114/100
f 117/117/101 120/120/101 119/119/101 118/118/101
f 116/116/102 115/115/102 120/120/102 117/117/102
f 118/118/103 119/119/103 114/114/103 113/113/103
f 121/121/104 122/122/104 123/123/104
f 124/124/105 125/125/105 126/126/105
f 126/126/106 127/127/106 128/128/106
f 122/122/107 121/121/107 129/129/107
f 130/130/108 129/129/108 131/131/108
f 132/132/109 129/129/109 130/130/109
f 129/129/110 133/133/110 134/134/110
f 135/135/111 129/129/111 132/132/111
f 126/126/112 136/136/112 124/124/112
f 137/137/113 138/138/113 139/139/113
f 140/140/114 141/141/114 137/137/114
f 137/137/115 141/141/115 142/142/115
f 143/143/116 144/144/116 145/145/116
f 146/146/117 147/147/117 148/148/117
f 149/149/118 138/138/118 137/137/118
f 150/150/119 151/151/119 152/152/119
f 153/153/120 147/147/120 154/154/120
f 155/155/121 156/156/121 157/157/121
f 158/158/122 159/159/122 160/160/122
f 161/161/123 162/162/123 163/163/123
f 164/164/124 165/165/124 166/166/124
f 166/166/125 165/165/125 167/167/125
f 168/168/126 169/169/126 154/154/126
f 169/169/127 168/168/127 170/170/127
f 171/171/128 172/172/128 156/156/128
f 172/172/129 171/171/129 173/173/129
f 171/171/130 174/174/130 175/175/130
f 170/170/131 176/176/131 174/174/131
f 175/175/132 176/176/132 167/167/132
f 169/169/133 171/171/133 156/156/133
f 174/174/134 169/169/134 170/170/134
f 177/177/135 169/169/135 156/156/135
f 178/178/136 176/176/136 170/170/136
f 178/178/137 166/166/137 167/167/137
f 179/179/138 180/180/138 170/170/138
f 166/166/139 179/179/139 164/164/139
f 165/165/140 181/181/140 167/167/140
f 181/181/141 165/165/141 182/182/141
f 183/183/142 181/181/142 162/162/142
f 162/162/143 181/181/143 184/184/143
f 182/182/144 184/184/144 181/181/144
f 185/185/145 184/184/145 182/182/145
f 183/183/146 186/186/146 167/167/146
f 159/159/147 162/162/147 161/161/147
f 187/187/148 159/159/148 186/186/148
f 160/160/149 159/159/149 161/161/149
f 159/159/150 188/188/150 186/186/150
f 189/189/151 175/175/151 186/186/151
f 189/189/152 186/186/152 188/188/152
f 190/190/153 189/189/153 188/188/153
f 190/190/154 173/173/154 189/189/154
f 156/156/155 153/153/155 177/177/155
f 154/154/156 177/177/156 153/153/156
f 168/168/157 191/191/157 170/170/157
f 154/154/158 191/191/158 168/168/158
f 152/152/159 179/179/159 150/150/159
f 165/165/160 192/192/160 182/182/160
f 193/193/161 194/194/161 195/195/161
f 193/193/162 182/182/162 194/194/162
f 149/149/163 185/185/163 193/193/163
f 185/185/164 149/149/164 163/163/164
f 142/142/165 163/163/165 137/137/165
f 196/196/166 197/197/166 198/198/166
f 190/190/167 198/198/167 197/197/167
f 196/196/168 190/190/168 197/197/168
f 173/173/169 190/190/169 199/199/169
f 200/200/170 201/201/170 146/146/170
f 201/201/171 200/200/171 202/202/171
f 203/203/172 201/201/172 202/202/172
f 204/204/173 152/152/173 205/205/173
f 204/204/174 192/192/174 164/164/174
f 151/151/175 205/205/175 152/152/175
f 205/205/176 145/145/176 204/204/176
f 204/204/177 145/145/177 206/206/177
f 193/193/178 195/195/178 149/149/178
f 158/158/179 160/160/179 124/124/179
f 124/124/180 160/160/180 142/142/180
f 142/142/181 141/141/181 140/140/181
f 172/172/182 199/199/182 157/157/182
f 190/190/183 196/196/183 199/199/183
f 207/207/184 208/208/184 196/196/184
f 199/199/185 208/208/185 157/157/185
f 155/155/186 207/207/186 147/147/186
f 135/135/187 209/209/187 133/133/187
f 133/133/188 209/209/188 148/148/188
f 146/146/189 209/209/189 135/135/189
f 210/210/190 135/135/190 132/132/190
f 202/202/191 200/200/191 210/210/191
f 135/135/192 200/200/192 146/146/192
f 130/130/193 211/211/193 132/132/193
f 212/212/194 130/130/194 131/131/194
f 211/211/195 130/130/195 212/212/195
f 143/143/196 145/145/196 212/212/196
f 143/143/197 131/131/197 139/139/197
f 128/128/198 213/213/198 207/207/198
f 147/147/199 207/207/199 148/148/199
f 127/127/200 213/213/200 128/128/200
f 123/123/201 122/122/201 214/214/201
f 121/121/202 123/123/202 139/139/202
f 137/137/203 215/215/203 140/140/203
f 137/137/204 123/123/204 215/215/204
f 125/125/205 215/215/205 123/123/205
f 125/125/206 140/140/206 215/215/206
f 128/128/207 196/196/207 198/198/207 136/136/207
f 129/129/208 134/134/208 122/122/208
f 127/127/209 126/126/209 125/125/209
f 129/129/210 121/121/210 131/131/210
f 135/135/211 133/133/211 129/129/211
f 126/126/212 128/128/212 136/136/212
f 143/143/213 139/139/213 144/144/213
f 211/211/214 151/151/214 202/202/214
f 205/205/215 151/151/215 211/211/215
f 154/154/216 147/147/216 146/146/216
f 144/144/217 195/195/217 194/194/217 206/206/217
f 158/158/218 124/124/218 136/136/218
f 144/144/219 206/206/219 145/145/219
f 184/184/220 185/185/220 163/163/220 162/162/220
f 150/150/221 202/202/221 151/151/221
f 153/153/222 155/155/222 147/147/222
f 156/156/223 155/155/223 153/153/223
f 158/158/224 188/188/224 159/159/224
f 191/191/225 203/203/225 202/202/225 150/150/225
f 174/174/226 176/176/226 175/175/226
f 174/174/227 171/171/227 169/169/227
f 167/167/228 176/176/228 178/178/228
f 170/170/229 180/180/229 178/178/229
f 178/178/230 180/180/230 166/166/230
f 179/179/231 166/166/231 180/180/231
f 183/183/232 167/167/232 181/181/232
f 187/187/233 186/186/233 183/183/233
f 183/183/234 162/162/234 187/187/234
f 159/159/235 187/187/235 162/162/235
f 167/167/236 186/186/236 175/175/236
f 171/171/237 175/175/237 189/189/237
f 171/171/238 189/189/238 173/173/238
f 157/157/239 156/156/239 172/172/239
f 199/199/240 172/172/240 173/173/240
f 169/169/241 177/177/241 154/154/241
f 179/179/242 170/170/242 191/191/242 150/150/242
f 198/198/243 190/190/243 188/188/243 158/158/243
f 164/164/244 179/179/244 152/152/244
f 164/164/245 192/192/245 165/165/245
f 206/206/246 194/194/246 192/192/246
f 192/192/247 194/194/247 182/182/247
f 142/142/248 161/161/248 163/163/248
f 137/137/249 163/163/249 149/149/249
f 142/142/250 160/160/250 161/161/250
f 216/216/251 203/203/251 191/191/251 154/154/251
f 136/136/252 198/198/252 158/158/252
f 138/138/253 149/149/253 195/195/253 139/139/253
f 146/146/254 216/216/254 154/154/254
f 146/146/255 201/201/255 216/216/255
f 216/216/256 201/201/256 203/203/256
f 206/206/257 192/192/257 204/204/257
f 164/164/258 152/152/258 204/204/258
f 211/211/259 145/145/259 205/205/259
f 212/212/260 145/145/260 211/211/260
f 182/182/261 193/193/261 185/185/261
f 195/195/262 144/144/262 139/139/262
f 127/127/263 214/214/263 133/133/263 148/148/263
f 217/217/264 142/142/264 140/140/264
f 142/142/265 217/217/265 124/124/265
f 208/208/266 199/199/266 196/196/266
f 128/128/267 207/207/267 196/196/267
f 207/207/268 155/155/268 157/157/268
f 208/208/269 207/207/269 157/157/269
f 146/146/270 148/148/270 209/209/270
f 135/135/271 210/210/271 200/200/271
f 210/210/272 132/132/272 211/211/272
f 210/210/273 211/211/273 202/202/273
f 131/131/274 143/143/274 212/212/274
f 139/139/275 131/131/275 121/121/275
f 148/148/276 207/207/276 213/213/276
f 125/125/277 214/214/277 127/127/277
f 125/125/278 124/124/278 217/217/278 140/140/278
f 148/148/279 213/213/279 127/127/279
f 134/134/280 214/214/280 122/122/280
f 125/125/281 123/123/281 214/214/281
f 133/133/282 214/214/282 134/134/282
f 137/137/283 139/139/283 123/123/283
f 218/218/284 219/219/284 220/220/284
f 221/221/285 222/222/285 223/223/285
f 223/223/286 224/224/286 225/225/286
f 219/219/287 218/218/287 226/226/287
f 227/227/288 226/226/288 228/228/288
f 229/229/289 226/226/289 227/227/289
f 226/226/290 230/230/290 231/231/290
f 232/232/291 226/226/291 229/229/291
f 223/223/292 233/233/292 221/221/292
f 234/234/293 235/235/293 236/236/293
f 237/237/294 238/238/294 234/234/294
f 234/234/295 238/238/295 239/239/295
f 240/240/296 241/241/296 242/242/296
f 243/243/297 244/244/297 245/245/297
f 246/246/298 235/235/298 234/234/298
f 247/247/299 248/248/299 249/249/299
f 250/250/300 244/244/300 251/251/300
f 252/252/301 253/253/301 254/254/301
f 255/255/302 256/256/302 257/257/302
f 258/258/303 259/259/303 260/260/303
f 261/261/304 262/262/304 263/263/304
f 263/263/305 262/262/305 264/264/305
f 265/265/306 266/266/306 251/251/306
f 266/266/307 265/265/307 267/267/307
f 268/268/308 269/269/308 253/253/308
f 269/269/309 268/268/309 270/270/309
f 268/268/310 271/271/310 272/272/310
f 267/267/311 273/273/311 271/271/311
f 272/272/312 273/273/312 264/264/312
f 266/266/313 268/268/313 253/253/313
f 271/271/314 266/266/314 267/267/314
f 274/274/315 266/266/315 253/253/315
f 275/275/316 273/273/316 267/267/316
f 275/275/317 263/263/317 264/264/317
f 276/276/318 277/277/318 267/267/318
f 263/263/319 276/276/319 261/261/319
f 262/262/320 278/278/320 264/264/320
f 278/278/321 262/262/321 279/279/321
f 280/280/322 278/278/322 259/259/322
f 259/259/323 278/278/323 281/281/323
f 279/279/324 281/281/324 278/278/324
f 282/282/325 281/281/325 279/279/325
f 280/280/326 283/283/326 264/264/326
f 256/256/327 259/259/327 258/258/327
f 284/284/328 256/256/328 283/283/328
f 257/257/329 256/256/329 258/258/329
f 256/256/330 285/285/330 283/283/330
f 286/286/331 272/272/331 283/283/331
f 286/286/332 283/283/332 285/285/332
f 287/287/333 286/286/333 285/285/333
f 287/287/334 270/270/334 286/286/334
f 253/253/335 250/250/335 274/274/335
f 251/251/336 274/274/336 250/250/336
f 265/265/337 288/288/337 267/267/337
f 251/251/338 288/288/338 265/265/338
f 249/249/339 276/276/339 247/247/339
f 262/262/340 289/289/340 279/279/340
f 290/290/341 291/291/341 292/292/341
f 290/290/342 279/279/342 291/291/342
f 246/246/343 282/282/343 290/290/343
f 282/282/344 246/246/344 260/260/344
f 239/239/345 260/260/345 234/234/345
f 293/293/346 294/294/346 295/295/346
f 287/287/347 295/295/347 294/294/347
f 293/293/348 287/287/348 294/294/348
f 270/270/349 287/287/349 296/296/349
f 297/297/350 298/298/350 243/243/350
f 298/298/351 297/297/351 299/299/351
f 300/300/352 298/298/352 299/299/352
f 301/301/353 249/249/353 302/302/353
f 301/301/354 289/289/354 261/261/354
f 248/248/355 302/302/355 249/249/355
f 302/302/356 242/242/356 301/301/356
f 301/301/357 242/242/357 303/303/357
f 290/290/358 292/292/358 246/246/358
f 255/255/359 257/257/359 221/221/359
f 221/221/360 257/257/360 239/239/360
f 239/239/361 238/238/361 237/237/361
f 269/269/362 296/296/362 254/254/362
f 287/287/363 293/293/363 296/296/363
f 304/304/364 305/305/364 293/293/364
f 296/296/365 305/305/365 254/254/365
f 252/252/366 304/304/366 244/244/366
f 232/232/367 306/306/367 230/230/367
f 230/230/368 306/306/368 245/245/368
f 243/243/369 306/306/369 232/232/369
f 307/307/370 232/232/370 229/229/370
f 299/299/371 297/297/371 307/307/371
f 232/232/372 297/297/372 243/243/372
f 227/227/373 308/308/373 229/229/373
f 309/309/374 227/227/374 228/228/374
f 308/308/375 227/227/375 309/309/375
f 240/240/376 242/242/376 309/309/376
f 240/240/377 228/228/377 236/236/377
f 225/225/378 310/310/378 304/304/378
f 244/244/379 304/304/379 245/245/379
f 224/224/380 310/310/380 225/225/380
f 220/220/381 219/219/381 311/311/381
f 218/218/382 220/220/382 236/236/382
f 234/234/383 312/312/383 237/237/383
f 234/234/384 220/220/384 312/312/384
f 222/222/385 312/312/385 220/220/385
f 222/222/386 237/237/386 312/312/386
f 225/225/387 293/293/387 295/295/387 233/233/387
f 226/226/388 231/231/388 219/219/388
f 224/224/389 223/223/389 222/222/389
f 226/226/390 218/218/390 228/228/390
f 232/232/391 230/230/391 226/226/391
f 223/223/392 225/225/392 233/233/392
f 240/240/393 236/236/393 241/241/393
f 308/308/394 248/248/394 299/299/394
f 302/302/395 248/248/395 308/308/395
f 251/251/396 244/244/396 243/243/396
f 241/241/397 292/292/397 291/291/397 303/303/397
f 255/255/398 221/221/398 233/233/398
f 241/241/399 303/303/399 242/242/399
f 281/281/400 282/282/400 260/260/400 259/259/400
f 247/247/401 299/299/401 248/248/401
f 250/250/402 252/252/402 244/244/402
f 253/253/403 252/252/403 250/250/403
f 255/255/404 285/285/404 256/256/404
f 288/288/405 300/300/405 299/299/405 247/247/405
f 271/271/406 273/273/406 272/272/406
f 271/271/407 268/268/407 266/266/407
f 264/264/408 273/273/408 275/275/408
f 267/267/409 277/277/409 275/275/409
f 275/275/410 277/277/410 263/263/410
f 276/276/411 263/263/411 277/277/411
f 280/280/412 264/264/412 278/278/412
f 284/284/413 283/283/413 280/280/413
f 280/280/414 259/259/414 284/284/414
f 256/256/415 284/284/415 259/259/415
f 264/264/416 283/283/416 272/272/416
f 268/268/417 272/272/417 286/286/417
f 268/268/418 286/286/418 270/270/418
f 254/254/419 253/253/419 269/269/419
f 296/296/420 269/269/420 270/270/420
f 266/266/421 274/274/421 251/251/421
f 276/276/422 267/267/422 288/288/422 247/247/422
f 295/295/423 287/287/423 285/285/423 255/255/423
f 261/261/424 276/276/424 249/249/424
f 261/261/425 289/289/425 262/262/425
f 303/303/426 291/291/426 289/289/426
f 289/289/427 291/291/427 279/279/427
f 239/239/428 258/258/428 260/260/428
f 234/234/429 260/260/429 246/246/429
f 239/239/430 257/257/430 258/258/430
f 313/313/431 300/300/431 288/288/431 251/251/431
f 233/233/432 295/295/432 255/255/432
f 235/235/433 246/246/433 292/292/433 236/236/433
f 243/243/434 313/313/434 251/251/434
f 243/243/435 298/298/435 313/313/435
f 313/313/436 298/298/436 300/300/436
f 303/303/437 289/289/437 301/301/437
f 261/261/438 249/249/438 301/301/438
f 308/308/439 242/242/439 302/302/439
f 309/309/440 242/242/440 308/308/440
f 279/279/441 290/290/441 282/282/441
f 292/292/442 241/241/442 236/236/442
f 224/224/443 311/311/443 230/230/443 245/245/443
f 314/314/444 239/239/444 237/237/444
f 239/239/445 314/314/445 221/221/445
f 305/305/446 296/296/446 293/293/446
f 225/225/447 304/304/447 293/293/447
f 304/304/448 252/252/448 254/254/448
f 305/305/449 304/304/449 254/254/449
f 243/243/450 245/245/450 306/306/450
f 232/232/451 307/307/451 297/297/451
f 307/307/452 229/229/452 308/308/452
f 307/307/453 308/308/453 299/299/453
f 228/228/454 240/240/454 309/309/454
f 236/236/455 228/228/455 218/218/455
f 245/245/456 304/304/456 310/310/456
f 222/222/457 311/311/457 224/224/457
f 222/222/458 221/221/458 314/314/458 237/237/458
f 245/245/459 310/310/459 224/224/459
f 231/231/460 311/311/460 219/219/460
f 222/222/461 220/220/461 311/311/461
f 230/230/462 311/311/462 231/231/462
f 234/234/463 236/236/463 220/220/463
