mtllib forest_nature_set_all_in.mtl
o forest_Mushroom_high_yellow_Cylinder_062
v -20.957958 0.093429 12.755679
v -20.959150 0.107196 12.755679
v -20.889683 0.110194 12.784417
v -20.888491 0.096427 12.784417
v -20.860909 0.111436 12.853796
v -20.859716 0.097669 12.853796
v -20.889683 0.110194 12.923175
v -20.888491 0.096427 12.923175
v -20.959150 0.107196 12.951913
v -20.957958 0.093429 12.951913
v -21.028620 0.104198 12.923175
v -21.027426 0.090431 12.923175
v -21.057394 0.102956 12.853796
v -21.056200 0.089189 12.853796
v -20.966705 0.171386 12.911689
v -20.925716 0.173155 12.894732
v -20.938999 0.235374 12.886858
v -20.972103 0.233946 12.900553
v -21.028620 0.104198 12.784417
v -21.027426 0.090431 12.784417
v -20.900936 0.088147 12.910480
v -20.877428 0.089162 12.853796
v -21.014448 0.083248 12.797112
v -20.957693 0.085698 12.773634
v -20.956558 0.072612 12.836940
v -20.968493 0.072097 12.841877
v -21.037958 0.082234 12.853796
v -21.014448 0.083248 12.910480
v -20.957693 0.085698 12.933958
v -20.900936 0.088147 12.797112
v -20.956558 0.072612 12.870652
v -20.957859 0.035599 12.871624
v -20.945269 0.035896 12.866403
v -20.944624 0.073127 12.865715
v -20.973436 0.071884 12.853796
v -20.968493 0.072097 12.865715
v -20.939680 0.073340 12.853796
v -20.944624 0.073127 12.841877
v -20.940054 0.036031 12.853796
v -20.945269 0.035896 12.841189
v -21.015295 0.127321 12.909613
v -21.038445 0.126322 12.853796
v -20.970449 0.035281 12.841189
v -20.975664 0.035154 12.853796
v -20.970449 0.035281 12.866403
v -20.957859 0.035599 12.835968
v -20.985197 -0.000000 12.853796
v -20.979689 0.000000 12.867100
v -20.966394 0.000000 12.872610
v -20.953100 0.000000 12.867100
v -20.947592 -0.000000 12.853796
v -20.953100 0.000000 12.840492
v -20.979689 0.000000 12.840492
v -20.966394 0.000000 12.834982
v -20.966394 0.000000 12.853796
v -20.903519 0.132145 12.909613
v -20.959406 0.129733 12.932733
v -21.015295 0.127321 12.797979
v -20.959406 0.129733 12.774859
v -20.880369 0.133145 12.853796
v -21.007694 0.169617 12.894732
v -21.024672 0.168884 12.853796
v -20.903519 0.132145 12.797979
v -20.908737 0.173888 12.853796
v -20.925716 0.173155 12.812860
v -20.938999 0.235374 12.820734
v -20.925287 0.235966 12.853796
v -21.007694 0.169617 12.812860
v -21.018921 0.231925 12.853796
v -21.005207 0.232517 12.820734
v -21.005207 0.232517 12.886858
v -20.972103 0.233946 12.807039
v -20.975620 0.274066 12.853796
v -20.966705 0.171386 12.795903
vt 0.450659 0.040896
vt 0.450860 0.074334
vt 0.467926 0.057174
vt 0.467726 0.023736
vt 0.474995 0.050066
vt 0.474795 0.016629
vt 0.467926 0.057174
vt 0.467726 0.023736
vt 0.450860 0.074334
vt 0.450659 0.040896
vt 0.433793 0.091493
vt 0.433593 0.058056
vt 0.426724 0.098601
vt 0.426524 0.065163
vt 0.451306 0.230941
vt 0.461375 0.220816
vt 0.460352 0.374705
vt 0.452220 0.382882
vt 0.433793 0.091493
vt 0.433593 0.058056
vt 0.881396 0.829621
vt 0.873045 0.847242
vt 0.865715 0.712651
vt 0.871207 0.701064
vt 0.839197 0.768602
vt 0.852456 0.740626
vt 0.852232 0.661828
vt 0.848768 0.669135
vt 0.832718 0.932328
vt 0.824366 0.949948
vt 0.833705 0.780190
vt 0.839197 0.768602
vt 0.852881 0.889786
vt 0.852456 0.740626
vt 0.832718 0.932328
vt 0.873045 0.847242
vt 0.865715 0.712651
vt 0.852881 0.889786
vt 0.852232 0.661828
vt 0.851952 0.531051
vt 0.856005 0.520429
vt 0.855696 0.654517
vt 0.847333 0.672163
vt 0.848768 0.669135
vt 0.857131 0.651491
vt 0.855696 0.654517
vt 0.857683 0.516028
vt 0.856005 0.520429
vt 0.437871 0.142284
vt 0.432184 0.148003
vt 0.847899 0.541675
vt 0.846220 0.546074
vt 0.847899 0.541675
vt 0.851952 0.531051
vt 0.846220 0.546074
vt 0.847899 0.541675
vt 0.851952 0.531051
vt 0.856005 0.520429
vt 0.857683 0.516028
vt 0.856005 0.520429
vt 0.847899 0.541675
vt 0.851952 0.531051
vt 0.851952 0.531051
vt 0.465331 0.114674
vt 0.451601 0.128479
vt 0.437871 0.142284
vt 0.451601 0.128479
vt 0.471018 0.108956
vt 0.441236 0.241066
vt 0.437065 0.245259
vt 0.465331 0.114674
vt 0.465547 0.216622
vt 0.461375 0.220816
vt 0.460352 0.374705
vt 0.463721 0.371318
vt 0.441236 0.241066
vt 0.440718 0.394446
vt 0.444087 0.391059
vt 0.444087 0.391059
vt 0.452220 0.382882
vt 0.452793 0.480343
vt 0.451306 0.230941
vn 0.3809 0.0329 -0.9241
vn 0.9203 0.0797 -0.3831
vn 0.9203 0.0797 0.3831
vn 0.3808 0.0329 0.9241
vn -0.3808 -0.0330 0.9240
vn -0.9203 -0.0798 0.3831
vn 0.3679 0.1936 0.9095
vn -0.9203 -0.0798 -0.3831
vn -0.3808 -0.0330 -0.9241
vn 0.4273 -0.8896 0.1613
vn -0.0411 -0.9786 -0.2015
vn -0.3515 -0.9220 0.1623
vn 0.2001 -0.8988 0.3900
vn -0.3515 -0.9220 -0.1623
vn 0.4273 -0.8896 -0.1613
vn -0.1224 -0.9122 0.3910
vn -0.1224 -0.9122 -0.3910
vn 0.2001 -0.8988 -0.3900
vn 0.3823 0.0106 0.9240
vn -0.1578 -0.9840 0.0831
vn 0.1259 -0.9711 0.2030
vn 0.2455 -0.9657 -0.0845
vn -0.1578 -0.9840 -0.0831
vn -0.0411 -0.9786 0.2016
vn 0.2455 -0.9657 0.0845
vn 0.1259 -0.9711 -0.2030
vn 0.9239 -0.0091 -0.3826
vn -0.7417 0.6015 0.2969
vn -0.9227 0.0561 -0.3814
vn -0.3835 0.0377 0.9228
vn 0.9239 -0.0091 0.3826
vn -0.3836 0.0377 -0.9227
vn -0.9227 0.0561 0.3814
vn -0.8968 0.2426 0.3700
vn 0.3828 -0.0659 0.9215
vn 0.9075 -0.1903 -0.3746
vn -0.8968 0.2426 -0.3700
vn -0.3816 0.1175 0.9168
vn 0.9075 -0.1903 0.3746
vn -0.3816 0.1174 -0.9168
vn 0.0000 -1.0000 -0.0000
vn 0.2753 0.6249 0.7306
vn -0.7417 0.6015 -0.2968
vn -0.3250 0.6108 -0.7220
vn 0.7090 0.6356 0.3054
vn -0.8867 0.2870 0.3626
vn 0.7090 0.6356 -0.3054
vn 0.8955 0.2387 -0.3757
vn -0.9210 0.0840 -0.3805
vn -0.3838 0.1296 0.9143
vn -0.3251 0.6108 0.7220
vn 0.3828 -0.0659 -0.9215
vn 0.2753 0.6249 -0.7306
vn 0.2261 0.7476 -0.6245
vn -0.3838 0.1296 -0.9143
vn 0.3679 0.1936 -0.9095
vn 0.8955 0.2387 0.3757
vn -0.9210 0.0840 0.3805
vn 0.5835 0.7708 0.2558
vn -0.6722 0.6907 -0.2665
vn -0.2936 0.7144 0.6351
vn 0.5835 0.7708 -0.2558
vn -0.2935 0.7145 -0.6351
vn 0.2261 0.7476 0.6245
vn -0.6722 0.6907 0.2665
vn 0.3824 0.0106 -0.9239
vn 0.7744 0.5392 0.3309
vn 0.3197 0.4713 -0.8220
vn -0.3691 0.3668 -0.8540
vn -0.3691 0.3668 0.8540
vn -0.8867 0.2870 -0.3626
vn 0.7745 0.5392 -0.3309
vn 0.3197 0.4713 0.8220
usemtl AllColors_Material
f 1/1/1 2/2/1 3/3/1 4/4/1
f 4/4/2 3/3/2 5/5/2 6/6/2
f 6/6/3 5/5/3 7/7/3 8/8/3
f 8/8/4 7/7/4 9/9/4 10/10/4
f 10/10/5 9/9/5 11/11/5 12/12/5
f 12/12/6 11/11/6 13/13/6 14/14/6
f 15/15/7 16/16/7 17/17/7 18/18/7
f 14/14/8 13/13/8 19/19/8 20/20/8
f 20/20/9 19/19/9 2/2/9 1/1/9
f 6/21/10 8/22/10 21/23/10 22/24/10
f 23/25/11 24/26/11 25/27/11 26/28/11
f 12/29/12 14/30/12 27/31/12 28/32/12
f 8/22/13 10/33/13 29/34/13 21/23/13
f 14/30/14 20/35/14 23/25/14 27/31/14
f 4/36/15 6/21/15 22/24/15 30/37/15
f 10/33/16 12/29/16 28/32/16 29/34/16
f 20/35/17 1/38/17 24/26/17 23/25/17
f 1/38/18 4/36/18 30/37/18 24/26/18
f 31/39/19 32/40/19 33/41/19 34/42/19
f 28/32/20 27/31/20 35/43/20 36/44/20
f 21/23/21 29/34/21 31/39/21 34/42/21
f 30/37/22 22/24/22 37/45/22 38/46/22
f 27/31/23 23/25/23 26/28/23 35/43/23
f 29/34/24 28/32/24 36/44/24 31/39/24
f 22/24/25 21/23/25 34/42/25 37/45/25
f 24/26/26 30/37/26 38/46/26 25/27/26
f 37/45/27 39/47/27 40/48/27 38/46/27
f 13/13/28 11/11/28 41/49/28 42/50/28
f 26/28/29 43/51/29 44/52/29 35/43/29
f 36/44/30 45/53/30 32/40/30 31/39/30
f 34/42/31 33/41/31 39/47/31 37/45/31
f 25/27/32 46/54/32 43/51/32 26/28/32
f 35/43/33 44/52/33 45/53/33 36/44/33
f 45/53/34 44/52/34 47/55/34 48/56/34
f 33/41/35 32/40/35 49/57/35 50/58/35
f 40/48/36 39/47/36 51/59/36 52/60/36
f 44/52/37 43/51/37 53/61/37 47/55/37
f 32/40/38 45/53/38 48/56/38 49/57/38
f 39/47/39 33/41/39 50/58/39 51/59/39
f 43/51/40 46/54/40 54/62/40 53/61/40
f 54/62/41 55/63/41 47/55/41 53/61/41
f 9/9/42 7/7/42 56/64/42 57/65/42
f 19/19/43 13/13/43 42/50/43 58/66/43
f 2/2/44 19/19/44 58/66/44 59/67/44
f 7/7/45 5/5/45 60/68/45 56/64/45
f 42/50/46 41/49/46 61/69/46 62/70/46
f 5/5/47 3/3/47 63/71/47 60/68/47
f 64/72/48 65/73/48 66/74/48 67/75/48
f 68/76/49 62/70/49 69/77/49 70/78/49
f 61/69/50 15/15/50 18/18/50 71/79/50
f 11/11/51 9/9/51 57/65/51 41/49/51
f 46/54/52 40/48/52 52/60/52 54/62/52
f 3/3/53 2/2/53 59/67/53 63/71/53
f 66/74/54 72/80/54 73/81/54
f 74/82/55 68/76/55 70/78/55 72/80/55
f 65/73/56 74/82/56 72/80/56 66/74/56
f 16/16/57 64/72/57 67/75/57 17/17/57
f 62/70/58 61/69/58 71/79/58 69/77/58
f 17/17/59 67/75/59 73/81/59
f 70/78/60 69/77/60 73/81/60
f 71/79/61 18/18/61 73/81/61
f 67/75/62 66/74/62 73/81/62
f 72/80/63 70/78/63 73/81/63
f 18/18/64 17/17/64 73/81/64
f 69/77/65 71/79/65 73/81/65
f 49/57/41 55/63/41 51/59/41 50/58/41
f 47/55/41 55/63/41 49/57/41 48/56/41
f 51/59/41 55/63/41 54/62/41 52/60/41
f 38/46/66 40/48/66 46/54/66 25/27/66
f 56/64/67 60/68/67 64/72/67 16/16/67
f 63/71/68 59/67/68 74/82/68 65/73/68
f 59/67/69 58/66/69 68/76/69 74/82/69
f 41/49/70 57/65/70 15/15/70 61/69/70
f 58/66/71 42/50/71 62/70/71 68/76/71
f 60/68/72 63/71/72 65/73/72 64/72/72
f 57/65/73 56/64/73 16/16/73 15/15/73
