mtllib LOW_POLY_set.mtl
o lp_banan_3_Plane_001
v 103.662804 2.694355 13.080629
v 103.662285 2.647360 13.039267
v 103.612030 2.643328 13.043133
v 103.503654 2.819393 13.182727
v 103.651421 3.494601 13.943106
v 103.649269 3.478471 13.914259
v 103.428261 3.494540 13.960977
v 103.453857 3.528687 14.017241
v 103.649689 3.443461 13.853916
v 103.650276 3.407078 13.794315
v 103.415955 3.421880 13.848216
v 103.420784 3.438404 13.872090
v 103.652374 3.368645 13.736477
v 103.654716 3.328556 13.680371
v 103.404182 3.351870 13.748303
v 103.408173 3.376955 13.783737
v 103.657150 3.286818 13.625528
v 103.659798 3.243937 13.572525
v 103.389069 3.316744 13.657970
v 103.380913 3.332669 13.679682
v 103.660843 3.200113 13.519521
v 103.661888 3.156312 13.466499
v 103.390099 3.227780 13.597024
v 103.392059 3.251311 13.625097
v 103.660614 3.111522 13.412661
v 103.659721 3.064075 13.361445
v 103.397636 3.164346 13.521683
v 103.388840 3.206263 13.535732
v 103.658287 3.011191 13.314095
v 103.657433 2.951407 13.267498
v 103.412155 3.077044 13.439582
v 103.402985 3.118787 13.476237
v 103.659065 2.762137 13.132905
v 103.661827 2.721244 13.102066
v 103.465729 2.900249 13.278383
v 103.446045 2.931935 13.311035
v 103.880569 2.942468 13.294170
v 103.870453 2.910562 13.267183
v 103.896049 3.049083 13.375429
v 103.894577 3.017010 13.343448
v 103.657593 2.821846 13.175453
v 103.657410 2.886252 13.220528
v 103.917915 3.227785 13.512096
v 103.911095 3.220101 13.447958
v 103.917900 3.297605 13.595272
v 103.923378 3.245794 13.568319
v 103.874275 3.487614 13.856086
v 103.882828 3.458340 13.810434
v 103.834167 3.583271 13.984081
v 103.845245 3.562417 13.933199
v 103.783867 3.607245 14.097000
v 103.828766 3.570774 14.013641
v 103.660538 3.669404 14.212398
v 103.832657 2.841115 13.180771
v 103.719643 2.652339 13.036186
v 103.903961 3.370370 13.743932
v 103.912560 3.347664 13.712524
v 103.911835 3.169373 13.453938
v 103.908615 3.148223 13.435805
v 103.658936 3.038141 13.337275
v 103.921944 3.222079 13.539938
v 103.452789 2.928777 13.332392
v 103.436806 2.957195 13.364111
v 103.427116 3.015355 13.412737
v 103.405769 3.054099 13.422129
v 103.882721 3.437019 13.779917
v 103.735077 1.558859 12.290854
v 103.709801 1.556322 12.292037
v 103.687637 1.554539 12.293705
v 103.637527 3.212919 12.015237
v 103.640663 3.095630 12.045371
v 103.738487 3.096431 12.045263
v 103.936760 3.531759 11.980781
v 103.645203 5.351558 11.234780
v 103.648033 5.298533 11.270657
v 104.076744 5.386415 11.248642
v 104.029625 5.492617 11.176733
v 103.644699 5.185009 11.343615
v 103.641388 5.069765 11.414071
v 104.096924 5.162956 11.381289
v 104.088181 5.212037 11.353752
v 103.635765 4.952423 11.479416
v 103.630180 4.833743 11.540296
v 104.117393 4.955353 11.494089
v 104.110451 5.029435 11.454345
v 103.624870 4.713334 11.597551
v 103.619606 4.592566 11.650612
v 104.139801 4.816481 11.621515
v 104.155815 4.863736 11.599762
v 103.617569 4.470314 11.703174
v 103.615532 4.348085 11.755786
v 104.144241 4.609598 11.648376
v 104.140442 4.674682 11.620313
v 103.618004 4.223633 11.809401
v 103.620552 4.096898 11.856121
v 104.129913 4.433343 11.720881
v 104.141762 4.518580 11.735056
v 103.625587 3.964274 11.891582
v 103.630768 3.820400 11.919622
v 104.105209 4.209477 11.782797
v 104.120949 4.314412 11.758102
v 103.640633 3.375955 11.985339
v 103.637886 3.278169 12.002077
v 104.009422 3.758524 11.894665
v 104.046509 3.843534 11.870177
v 103.206963 3.809409 11.821485
v 103.228004 3.731583 11.842013
v 103.170624 4.063159 11.771849
v 103.174393 3.979894 11.799078
v 103.639374 3.516325 11.964647
v 103.635201 3.666890 11.943457
v 103.117653 4.489244 11.688669
v 103.123154 4.419978 11.793399
v 103.117538 4.682752 11.606778
v 103.111931 4.569392 11.606790
v 103.205826 5.243545 11.333498
v 103.187935 5.152159 11.384619
v 103.284691 5.524504 11.205218
v 103.259819 5.442760 11.272149
v 103.393066 5.669770 11.042388
v 103.301277 5.529585 11.144684
v 103.635796 5.889158 10.923162
v 103.300293 3.539106 11.937338
v 103.529114 3.096541 12.043536
v 103.152802 4.940352 11.417865
v 103.135704 4.872833 11.450256
v 103.131042 4.337970 11.738787
v 103.138260 4.285867 11.752118
v 103.623055 4.031027 11.875160
v 103.114723 4.503676 11.635115
v 104.037025 3.856384 11.829429
v 104.067406 3.934633 11.802952
v 104.083054 4.078413 11.772124
v 104.118912 4.155160 11.794030
v 103.187469 5.088556 11.418430
v 103.586334 1.325321 12.306461
v 103.635529 1.324879 12.307214
v 103.678673 1.325293 12.307218
v 103.637497 3.205786 12.016339
v 103.640625 3.088939 12.046359
v 103.738083 3.089737 12.046252
v 103.935600 3.523420 11.982014
v 103.645149 5.336340 11.238832
v 103.647964 5.283517 11.274572
v 104.075058 5.371066 11.252642
v 104.028114 5.476866 11.181005
v 103.644646 5.170422 11.347256
v 103.641350 5.055613 11.417446
v 104.095161 5.148452 11.384788
v 104.086449 5.197347 11.357355
v 103.635742 4.938714 11.482543
v 103.630180 4.820482 11.543193
v 104.115555 4.941633 11.497161
v 104.108635 5.015434 11.457567
v 103.624893 4.700529 11.600233
v 103.619644 4.580218 11.653092
v 104.137878 4.803287 11.624105
v 104.153831 4.850363 11.602435
v 103.617615 4.458427 11.705456
v 103.615585 4.336661 11.757869
v 104.142303 4.597186 11.650865
v 104.138512 4.662024 11.622907
v 103.618050 4.212679 11.811281
v 103.620590 4.086423 11.857825
v 104.128021 4.421597 11.723097
v 104.139832 4.506512 11.737217
v 103.625603 3.954300 11.893152
v 103.630768 3.810970 11.921085
v 104.103416 4.198576 11.784778
v 104.119095 4.303115 11.760177
v 103.640587 3.368204 11.986554
v 103.637856 3.270788 12.003229
v 104.007988 3.749328 11.896223
v 104.044937 3.834016 11.871828
v 103.208565 3.800020 11.823318
v 103.229523 3.722489 11.843770
v 103.172363 4.052812 11.773870
v 103.176117 3.969861 11.800997
v 103.639343 3.508044 11.965940
v 103.635185 3.658040 11.944830
v 103.119591 4.477286 11.691006
v 103.125069 4.408282 11.795340
v 103.119469 4.670062 11.609425
v 103.113892 4.557131 11.609435
v 103.207428 5.228736 11.337177
v 103.189613 5.137695 11.388105
v 103.285995 5.508634 11.209382
v 103.261215 5.427198 11.276060
v 103.393967 5.653350 11.047168
v 103.302521 5.513695 11.149077
v 103.635773 5.871909 10.928392
v 103.301544 3.530740 11.938735
v 103.529495 3.089847 12.044532
v 103.154610 4.926689 11.421225
v 103.137573 4.859425 11.453493
v 103.132927 4.326584 11.740934
v 103.140121 4.274678 11.754215
v 103.623085 4.020801 11.876792
v 103.116676 4.491663 11.637653
v 104.035492 3.846818 11.831233
v 104.065750 3.924771 11.804857
v 104.081345 4.068008 11.774145
v 104.117065 4.144464 11.795969
v 103.189140 5.074333 11.421788
v 103.586502 1.325322 12.306462
v 103.635506 1.324882 12.307212
v 103.678490 1.325293 12.307217
v 103.889374 3.004215 12.320210
v 103.862503 2.899894 12.322279
v 103.860275 2.900607 12.409262
v 103.912880 3.287797 12.587079
v 104.583099 4.906369 12.345628
v 104.551132 4.859209 12.347289
v 104.560493 4.937372 12.728981
v 104.625549 5.031830 12.688803
v 104.486343 4.758237 12.342587
v 104.423782 4.655736 12.337967
v 104.442078 4.738622 12.743763
v 104.466766 4.782276 12.736645
v 104.365814 4.551369 12.331409
v 104.311821 4.445812 12.324995
v 104.341301 4.553975 12.759278
v 104.376801 4.619865 12.754048
v 104.261040 4.338718 12.318910
v 104.213989 4.231305 12.312961
v 104.227470 4.430459 12.776164
v 104.246429 4.472489 12.790922
v 104.167305 4.122570 12.309897
v 104.120575 4.013857 12.306832
v 104.203484 4.246453 12.779474
v 104.228523 4.304340 12.776760
v 104.072845 3.903167 12.307757
v 104.031250 3.790445 12.308907
v 104.139359 4.089688 12.765003
v 104.126472 4.165500 12.775203
v 103.999603 3.672487 12.312539
v 103.974548 3.544522 12.316481
v 104.084900 3.890576 12.741565
v 104.106476 3.983908 12.756151
v 103.915878 3.149222 12.323681
v 103.901062 3.062249 12.320843
v 103.987717 3.489488 12.653738
v 104.008606 3.565098 12.687292
v 104.071899 3.534746 11.942009
v 104.053139 3.465526 11.960226
v 104.116890 3.760438 11.910884
v 104.092590 3.686379 11.913584
v 103.934311 3.274070 12.323059
v 103.953247 3.407987 12.319853
v 104.192108 4.139407 11.865768
v 104.098862 4.077801 11.868161
v 104.264923 4.311517 11.867613
v 104.265045 4.210693 11.862632
v 104.505791 4.810300 11.952620
v 104.460770 4.729019 11.935501
v 104.617966 5.060192 12.025796
v 104.559052 4.987487 12.002089
v 104.760162 5.189394 12.126034
v 104.671394 5.064711 12.041985
v 104.860382 5.384523 12.344683
v 103.966667 3.294333 12.022232
v 103.866798 2.900705 12.223148
v 104.432045 4.540633 11.903469
v 104.403656 4.480580 11.887493
v 104.147232 4.004861 11.876477
v 104.135208 3.958519 11.882581
v 104.014259 3.731859 12.310680
v 104.239792 4.152243 11.864441
v 104.045059 3.576527 12.679833
v 104.067879 3.646123 12.707471
v 104.094910 3.774005 12.722123
v 104.074585 3.842265 12.753483
v 104.430717 4.672449 11.934280
v 103.631660 1.325341 12.267758
v 103.629822 1.324948 12.311477
v 103.628792 1.325315 12.349834
v 103.135185 2.623201 12.291473
v 103.174576 2.546708 12.290090
v 103.176453 2.547278 12.218153
v 103.075531 2.844240 12.070193
v 102.069244 3.671057 12.261524
v 102.114143 3.652694 12.260521
v 102.083862 3.706173 11.944518
v 101.984947 3.735704 11.976926
v 102.199806 3.606646 12.265106
v 102.278000 3.554176 12.269557
v 102.253281 3.620495 11.933691
v 102.220459 3.642320 11.939312
v 102.352806 3.501212 12.275587
v 102.423111 3.447365 12.281463
v 102.389915 3.531072 11.921974
v 102.340744 3.561488 11.925896
v 102.490730 3.392966 12.287046
v 102.555969 3.339014 12.292503
v 102.515251 3.481939 11.908984
v 102.488998 3.503692 11.896561
v 102.622841 3.286052 12.295590
v 102.692513 3.235603 12.298706
v 102.585258 3.379675 11.906880
v 102.549866 3.408428 11.908834
v 102.767845 3.187590 12.298574
v 102.843384 3.140101 12.298273
v 102.678772 3.301470 11.919626
v 102.666611 3.346899 11.911040
v 102.910690 3.084269 12.295859
v 102.968071 3.011844 12.293107
v 102.780151 3.199153 11.939888
v 102.735146 3.247676 11.927429
v 103.091156 2.732590 12.288230
v 103.116570 2.666781 12.290794
v 102.980301 2.983127 12.014286
v 102.945992 3.030723 11.986240
v 102.878693 2.976712 12.602200
v 102.909660 2.933073 12.587394
v 102.776039 3.103165 12.627037
v 102.820923 3.067720 12.625191
v 103.056480 2.826607 12.288445
v 103.016777 2.923078 12.290749
v 102.601463 3.302778 12.662807
v 102.692963 3.286297 12.661519
v 102.498955 3.391001 12.660438
v 102.524750 3.330544 12.664811
v 102.173279 3.649844 12.587460
v 102.235329 3.610872 12.602129
v 101.977951 3.754515 12.525262
v 102.061272 3.732674 12.545558
v 101.799278 3.789743 12.440909
v 101.924126 3.738798 12.511461
v 101.666817 3.912829 12.258971
v 103.011360 2.821845 12.536910
v 103.170334 2.546695 12.372057
v 102.306564 3.497156 12.629261
v 102.345673 3.466941 12.642797
v 102.675430 3.234196 12.654576
v 102.698967 3.210394 12.649733
v 102.878517 3.113484 12.297113
v 102.560059 3.300698 12.663606
v 102.911293 3.028663 11.992150
v 102.872162 3.066206 11.968956
v 102.806915 3.130237 11.956256
v 102.803368 3.174265 11.930235
v 102.274498 3.580399 12.603457
v 103.628967 1.325165 12.339138
v 103.630783 1.325126 12.302989
v 103.631790 1.325574 12.271268
v 103.489624 4.676646 12.382965
v 103.507622 4.568156 12.371538
v 103.478249 4.570554 12.287250
v 103.389252 4.974083 12.134529
v 102.943344 6.669117 12.604822
v 102.970200 6.618825 12.591757
v 102.827965 6.707402 12.228621
v 102.786568 6.807431 12.290531
v 103.027191 6.511210 12.573034
v 103.081917 6.402173 12.555047
v 102.922699 6.496655 12.172012
v 102.904564 6.542780 12.187682
v 103.132820 6.291476 12.540598
v 103.179794 6.179817 12.527454
v 103.001221 6.301488 12.121067
v 102.973534 6.371109 12.138784
v 103.223465 6.066795 12.515170
v 103.263489 5.953686 12.504110
v 103.095833 6.168116 12.063875
v 103.075134 6.212667 12.056473
v 103.302032 5.839308 12.490420
v 103.340622 5.724950 12.476714
v 103.105293 5.978237 12.052548
v 103.086174 6.039050 12.064075
v 103.378586 5.608585 12.458822
v 103.410461 5.490535 12.442948
v 103.161461 5.813328 12.043615
v 103.175171 5.890351 12.028910
v 103.431557 5.367808 12.428325
v 103.445557 5.235260 12.415832
v 103.208801 5.605485 12.046929
v 103.189087 5.702733 12.040487
v 103.472679 4.826892 12.388822
v 103.482079 4.736830 12.386429
v 103.306892 5.186761 12.097134
v 103.279778 5.266213 12.072291
v 103.487564 5.223654 12.810609
v 103.494278 5.151958 12.786525
v 103.470863 5.456976 12.856135
v 103.488197 5.379651 12.844942
v 103.463615 4.955896 12.395730
v 103.455597 5.094164 12.405277
v 103.440559 5.848886 12.925597
v 103.524857 5.779917 12.889604
v 103.381676 6.029798 12.949759
v 103.376625 5.926458 12.954895
v 103.153542 6.557646 12.954181
v 103.197433 6.471193 12.954495
v 103.036293 6.822195 12.923951
v 103.096443 6.743503 12.925515
v 102.872406 6.965632 12.879034
v 102.979561 6.830560 12.927818
v 102.710152 7.176371 12.705027
v 103.543137 4.972445 12.696120
v 103.539543 4.567196 12.468227
v 103.223961 6.275793 12.975378
v 103.252930 6.212160 12.980577
v 103.470642 5.708479 12.899426
v 103.476845 5.660387 12.889341
v 103.422165 5.429499 12.435253
v 103.396233 5.865038 12.944161
v 103.248337 5.280082 12.092663
v 103.221115 5.353374 12.074218
v 103.198463 5.486350 12.069588
v 103.211121 5.555607 12.031893
v 103.222870 6.411328 12.944921
v 103.643143 1.437298 12.344824
v 103.629013 1.437688 12.302201
v 103.616104 1.438797 12.265015
v 103.455040 3.661575 12.107766
v 103.475739 3.554929 12.125940
v 103.540962 3.555657 12.065452
v 103.633453 3.951483 11.899975
v 102.978172 5.606151 11.582191
v 103.002220 5.557938 11.604384
v 103.274719 5.637845 11.324933
v 103.198868 5.734409 11.306042
v 103.045052 5.454715 11.655132
v 103.086357 5.349928 11.704194
v 103.370102 5.434663 11.400991
v 103.347267 5.479290 11.388016
v 103.122955 5.243234 11.751276
v 103.156830 5.135323 11.795351
v 103.453430 5.245898 11.463625
v 103.424248 5.313257 11.441392
v 103.188644 5.025840 11.836841
v 103.217896 4.916031 11.875504
v 103.547081 5.119627 11.534825
v 103.544334 5.162594 11.510417
v 103.248993 4.804872 11.911839
v 103.280128 4.693735 11.948209
v 103.566635 4.931518 11.550006
v 103.546761 4.990695 11.533628
v 103.314896 4.580576 11.982458
v 103.345444 4.465341 12.012066
v 103.601845 4.771256 11.607245
v 103.618507 4.848759 11.609385
v 103.370705 4.344751 12.032620
v 103.391479 4.213933 12.048131
v 103.623596 4.567704 11.663819
v 103.618851 4.663117 11.637617
v 103.438644 3.809816 12.085898
v 103.447151 3.720904 12.098763
v 103.628761 4.157671 11.797628
v 103.638390 4.234967 11.758385
v 103.048050 4.203938 12.244372
v 103.074768 4.133175 12.245079
v 102.993141 4.434664 12.233689
v 103.012474 4.358953 12.249535
v 103.425034 3.937449 12.072865
v 103.409157 4.074352 12.061300
v 102.906425 4.822085 12.210894
v 102.974770 4.759104 12.277390
v 102.855774 4.998033 12.156318
v 102.852036 4.894959 12.159785
v 102.745918 5.507939 11.919421
v 102.765556 5.424846 11.964581
v 102.719330 5.763404 11.785108
v 102.744064 5.689077 11.845134
v 102.691093 5.895488 11.609512
v 102.693008 5.768024 11.734468
v 102.779442 6.094968 11.380046
v 103.181877 3.958164 12.264048
v 103.400169 3.555757 12.193604
v 102.762634 5.232258 12.008467
v 102.771233 5.170866 12.040644
v 102.946312 4.684538 12.236072
v 102.959358 4.637162 12.240509
v 103.358871 4.405447 12.023224
v 102.871399 4.835207 12.176962
v 103.606895 4.246652 11.737046
v 103.610817 4.317799 11.700619
v 103.602219 4.448533 11.670379
v 103.639679 4.518315 11.662852
v 102.786125 5.367014 11.987433
v 103.600731 1.945261 12.333729
v 103.634026 1.944859 12.303851
v 103.662819 1.945235 12.277210
v 103.749100 4.483734 12.211226
v 103.736305 4.387321 12.225766
v 103.788612 4.387958 12.285523
v 103.919357 4.743652 12.385108
v 104.158096 6.251961 11.862489
v 104.139488 6.207386 11.881796
v 104.379036 6.279521 12.134655
v 104.394203 6.368811 12.070621
v 104.096970 6.112121 11.915340
v 104.056053 6.015574 11.947514
v 104.316330 6.092486 12.211177
v 104.326828 6.133497 12.192587
v 104.017090 5.917554 11.975482
v 103.980911 5.818648 12.001057
v 104.265358 5.919188 12.277757
v 104.283432 5.981006 12.254489
v 103.947151 5.718503 12.024813
v 103.915993 5.618253 12.046346
v 104.204201 5.800951 12.355343
v 104.224457 5.840219 12.354918
v 103.886902 5.516820 12.069544
v 103.857788 5.415406 12.092770
v 104.197090 5.632063 12.366301
v 104.210014 5.686067 12.350920
v 103.830551 5.312144 12.119224
v 103.807625 5.207337 12.141974
v 104.151070 5.485973 12.391035
v 104.145905 5.554430 12.408348
v 103.793106 5.098259 12.160068
v 103.783562 4.980392 12.173962
v 104.107559 5.301765 12.402381
v 104.127541 5.387918 12.401917
v 103.763565 4.617214 12.201969
v 103.755150 4.537208 12.206345
v 104.003166 4.931278 12.390251
v 104.035088 5.001267 12.402353
v 103.617386 4.975926 11.862264
v 103.618698 4.911926 11.883784
v 103.619797 5.183822 11.821041
v 103.607971 5.115118 11.835420
v 103.770836 4.731914 12.194294
v 103.776512 4.854900 12.184868
v 103.628029 5.532901 11.756829
v 103.569366 5.472095 11.814021
v 103.671478 5.693395 11.718762
v 103.672264 5.601511 11.712009
v 103.866707 6.160098 11.643434
v 103.829002 6.083752 11.657086
v 103.977745 6.393526 11.631468
v 103.926346 6.324294 11.649568
v 104.130173 6.518499 11.615114
v 104.023384 6.400335 11.609461
v 104.325294 6.701588 11.706313
v 103.605576 4.751657 11.973158
v 103.677795 4.388162 12.156641
v 103.797012 5.910596 11.647117
v 103.770363 5.854429 11.651958
v 103.609650 5.408051 11.787296
v 103.607109 5.365224 11.797290
v 103.799545 5.153098 12.151724
v 103.658669 5.546982 11.726894
v 104.054459 5.013498 12.375198
v 104.084236 5.078096 12.381941
v 104.106613 5.196008 12.379292
v 104.109840 5.257235 12.415152
v 103.810242 6.030693 11.672967
v 103.607033 1.438065 12.279763
v 103.632874 1.437665 12.310216
v 103.655907 1.437992 12.336597
v 104.106789 3.712338 12.819539
v 104.070816 3.595516 12.782741
v 103.994804 3.594992 12.852386
v 103.931633 4.033828 13.101669
v 104.874443 5.801979 13.713673
v 104.841454 5.752960 13.680977
v 104.532387 5.834692 14.014149
v 104.630768 5.933430 14.050251
v 104.780838 5.647478 13.607259
v 104.721786 5.539781 13.535244
v 104.399956 5.624821 13.896436
v 104.431282 5.671250 13.918004
v 104.667908 5.429056 13.465219
v 104.616982 5.316176 13.398468
v 104.282913 5.428030 13.796303
v 104.324043 5.498335 13.831900
v 104.568207 5.200874 13.334454
v 104.522316 5.084479 13.273637
v 104.161339 5.305176 13.695653
v 104.169128 5.350359 13.730117
v 104.474098 4.966411 13.215296
v 104.425842 4.848377 13.156919
v 104.117195 5.094629 13.650135
v 104.146729 5.157538 13.677786
v 104.373138 4.728141 13.100676
v 104.324982 4.604348 13.049459
v 104.058846 4.924002 13.560442
v 104.048660 5.014886 13.569554
v 104.282173 4.472471 13.007844
v 104.243271 4.327624 12.970498
v 104.010994 4.702202 13.465048
v 104.027145 4.806853 13.509401
v 104.142563 3.876674 12.866793
v 104.122635 3.777915 12.838739
v 103.959450 4.253839 13.250068
v 103.956734 4.337518 13.306708
v 104.640999 4.305178 12.743375
v 104.601990 4.227495 12.732008
v 104.730911 4.560986 12.790072
v 104.700073 4.479032 12.760568
v 104.172874 4.019084 12.900817
v 104.206886 4.172048 12.934536
v 104.875511 4.990444 12.874070
v 104.790382 4.936299 12.788266
v 104.953522 5.177598 12.963039
v 104.945915 5.059820 12.943670
v 105.135834 5.712605 13.311376
v 105.104218 5.626596 13.247077
v 105.194138 5.981650 13.503860
v 105.157883 5.908472 13.423788
v 105.239418 6.103297 13.725377
v 105.224274 5.976335 13.562744
v 105.157295 6.307640 14.018896
v 104.458466 4.042727 12.684118
v 104.159050 3.597674 12.705079
v 105.085884 5.412566 13.167896
v 105.069336 5.348152 13.121755
v 104.813934 4.841574 12.824615
v 104.793457 4.789589 12.812449
v 104.302711 4.539093 13.027699
v 104.916916 4.996312 12.915016
v 103.994087 4.344026 13.332968
v 103.997284 4.420426 13.385453
v 104.021912 4.564414 13.439718
v 103.986702 4.647468 13.458793
v 105.074127 5.566270 13.212188
v 103.743042 1.800467 12.303724
v 103.704163 1.799463 12.338012
v 103.670616 1.799304 12.368693
v 103.478989 3.212743 12.431189
v 103.492920 3.133988 12.416365
v 103.449905 3.134525 12.366715
v 103.330093 3.426829 12.294312
v 103.079155 4.648744 12.769979
v 103.096138 4.613141 12.752789
v 102.896713 4.672150 12.544676
v 102.880867 4.743459 12.600185
v 103.134659 4.536914 12.722447
v 103.171906 4.459533 12.693192
v 102.955231 4.522106 12.476181
v 102.945084 4.555062 12.492714
v 103.207573 4.380743 12.667357
v 103.240944 4.301054 12.643461
v 103.003540 4.382710 12.416252
v 102.986404 4.432453 12.437232
v 103.272362 4.220205 12.621018
v 103.301628 4.139115 12.600396
v 103.058434 4.289464 12.348918
v 103.040352 4.321193 12.350334
v 103.329224 4.057028 12.578352
v 103.356850 3.974957 12.556286
v 103.070129 4.150551 12.334867
v 103.057549 4.194252 12.349122
v 103.382996 3.891393 12.531486
v 103.405609 3.806295 12.509678
v 103.113258 4.032204 12.310311
v 103.115250 4.089437 12.298067
v 103.421417 3.717244 12.491549
v 103.433380 3.620639 12.476604
v 103.155556 3.881887 12.295673
v 103.136101 3.952347 12.298519
v 103.462440 3.322213 12.442740
v 103.472145 3.256555 12.436785
v 103.254440 3.579092 12.295211
v 103.225716 3.636172 12.287126
v 103.569618 3.613259 12.734985
v 103.570808 3.561002 12.715283
v 103.560364 3.783641 12.775239
v 103.572540 3.727732 12.761370
v 103.452477 3.416466 12.452463
v 103.443542 3.517564 12.463888
v 103.541367 4.069739 12.838671
v 103.592155 4.023230 12.789893
v 103.499817 4.199671 12.874689
v 103.502281 4.123554 12.877530
v 103.322227 4.576219 12.949835
v 103.356049 4.514857 12.936473
v 103.222435 4.764871 12.966098
v 103.267357 4.709983 12.949344
v 103.092133 4.862410 12.982541
v 103.184402 4.768282 12.984253
v 102.924988 5.009719 12.911590
v 103.587494 3.431763 12.636703
v 103.540962 3.134599 12.473834
v 103.388367 4.372638 12.939724
v 103.412331 4.327302 12.934188
v 103.560944 3.968165 12.809864
v 103.564545 3.933180 12.800342
v 103.414185 3.762066 12.500046
v 103.515450 4.079429 12.863673
v 103.209183 3.644801 12.309834
v 103.182396 3.697341 12.306029
v 103.159859 3.793884 12.311614
v 103.155243 3.845415 12.283779
v 103.373428 4.472150 12.921865
v 103.649406 1.945303 12.329319
v 103.628189 1.945006 12.304000
v 103.609245 1.945284 12.282083
v 103.863724 2.177641 12.533343
v 103.843994 2.127412 12.516584
v 103.811256 2.127786 12.550660
v 103.794762 2.322787 12.667104
v 104.367676 2.865720 13.019508
v 104.345444 2.853662 13.000130
v 104.220322 2.888780 13.166856
v 104.282654 2.908171 13.194898
v 104.305908 2.823425 12.960001
v 104.269936 2.788970 12.923245
v 104.133324 2.832519 13.097147
v 104.151741 2.846850 13.108944
v 104.236313 2.754191 12.887223
v 104.204796 2.718832 12.853264
v 104.061844 2.773799 13.042377
v 104.087440 2.793771 13.062230
v 104.174461 2.683110 12.820637
v 104.145218 2.647683 12.789123
v 103.995285 2.741535 12.993224
v 104.002525 2.755820 13.010869
v 104.114143 2.612905 12.758038
v 104.081711 2.579777 12.725698
v 103.960388 2.674383 12.963270
v 103.978424 2.693264 12.977983
v 104.045105 2.548249 12.692430
v 104.008316 2.517066 12.659155
v 103.920654 2.623029 12.915709
v 103.922752 2.652861 12.925258
v 103.974586 2.480403 12.630545
v 103.945534 2.432845 12.606493
v 103.880424 2.555842 12.861023
v 103.896751 2.587705 12.886980
v 103.883652 2.249472 12.554398
v 103.872452 2.206258 12.541908
v 103.816231 2.413988 12.736367
v 103.820465 2.445242 12.765154
v 104.125664 2.409776 12.496065
v 104.104080 2.381119 12.489547
v 104.186462 2.492811 12.529434
v 104.163864 2.469537 12.510470
v 103.900574 2.311209 12.569635
v 103.920853 2.374557 12.586084
v 104.286987 2.623888 12.589318
v 104.242020 2.613066 12.549458
v 104.335678 2.681820 12.635825
v 104.325096 2.642121 12.622290
v 104.461411 2.851790 12.815332
v 104.437790 2.826200 12.780759
v 104.528664 2.920523 12.931933
v 104.497215 2.906182 12.885222
v 104.578033 2.943656 13.051920
v 104.548676 2.910203 12.962448
v 104.561806 3.024481 13.198806
v 104.032402 2.308081 12.469044
v 103.882324 2.127403 12.478693
v 104.415237 2.751527 12.736076
v 104.402245 2.731687 12.712205
v 104.247459 2.578854 12.560583
v 104.233894 2.563224 12.552523
v 103.990753 2.499588 12.644172
v 104.307434 2.622523 12.607253
v 103.839920 2.443889 12.777641
v 103.848648 2.468542 12.806209
v 103.874680 2.510589 12.841238
v 103.864891 2.539500 12.855435
v 104.419373 2.806189 12.762783
v 103.645226 1.325280 12.291738
v 103.628349 1.325254 12.308474
v 103.613831 1.325549 12.323421
v 103.853157 2.294521 12.011629
v 103.837013 2.237402 12.036241
v 103.880058 2.237828 12.068404
v 104.013779 2.459575 12.070687
v 104.331085 3.076977 11.374732
v 104.312332 3.063265 11.402536
v 104.518036 3.103199 11.520346
v 104.540932 3.125250 11.446070
v 104.272598 3.028880 11.452781
v 104.236168 2.989700 11.498528
v 104.451576 3.039222 11.628297
v 104.462303 3.055519 11.605861
v 104.200233 2.950150 11.541528
v 104.166328 2.909941 11.581855
v 104.399796 2.972447 11.716642
v 104.418610 2.995159 11.684978
v 104.133766 2.869320 11.620667
v 104.102310 2.829034 11.658086
v 104.353668 2.935759 11.798653
v 104.372559 2.952003 11.788003
v 104.071587 2.789485 11.697519
v 104.039642 2.751814 11.738650
v 104.324760 2.859396 11.842236
v 104.338829 2.880867 11.819817
v 104.007240 2.715962 11.784631
v 103.974846 2.680501 11.830809
v 104.276665 2.800998 11.893747
v 104.287140 2.834921 11.890034
v 103.947296 2.638810 11.872884
v 103.924225 2.584729 11.909047
v 104.220596 2.724596 11.946811
v 104.247597 2.760829 11.924749
v 103.874123 2.376204 11.986187
v 103.861595 2.327063 12.000575
v 104.088928 2.563285 12.036741
v 104.120819 2.598826 12.027922
v 103.774345 2.558495 11.721270
v 103.770012 2.525908 11.746533
v 103.803474 2.652920 11.647979
v 103.785240 2.626453 11.676137
v 103.888947 2.446409 11.964957
v 103.904663 2.518445 11.939759
v 103.856949 2.801976 11.526132
v 103.818275 2.789669 11.582469
v 103.902596 2.867853 11.464663
v 103.888809 2.822709 11.478500
v 104.087532 3.061137 11.297596
v 104.051826 3.032035 11.329100
v 104.209679 3.139297 11.205347
v 104.161377 3.122988 11.247383
v 104.338150 3.165602 11.132797
v 104.241302 3.127561 11.178481
v 104.506187 3.257513 11.130505
v 103.756935 2.442852 11.830301
v 103.788879 2.237393 11.998303
v 104.004570 2.947121 11.360824
v 103.979454 2.924560 11.378827
v 103.830063 2.750764 11.574775
v 103.822868 2.732991 11.591209
v 103.960403 2.660625 11.852729
v 103.874313 2.800423 11.500546
v 104.132179 2.597288 12.004217
v 104.163193 2.625322 11.990365
v 104.199074 2.673136 11.956070
v 104.216469 2.706012 11.965124
v 104.034126 3.009280 11.352406
v 103.611160 1.325250 12.292091
v 103.632416 1.325220 12.308787
v 103.651321 1.325556 12.323079
v 103.463806 3.546158 14.049478
v 103.497627 3.571764 14.093553
v 103.437920 2.984095 13.360057
v 103.901848 3.406823 13.644089
v 103.910545 3.382694 13.612350
v 103.399818 3.318875 13.705181
v 103.920464 3.180582 13.463022
v 103.382843 3.230757 13.571347
v 103.886230 3.019078 13.327746
v 103.877998 2.977298 13.289415
v 103.410019 3.383234 13.792747
v 103.415871 3.414639 13.837551
v 103.862663 3.508696 13.892045
v 104.012054 5.550272 11.134649
v 103.948853 5.630316 11.074571
v 104.060196 3.977211 11.833126
v 103.136894 4.915040 11.621382
v 103.119804 4.844776 11.653084
v 104.125320 4.860912 11.540209
v 103.113846 4.364524 11.731241
v 104.154137 4.592665 11.696479
v 103.187912 3.970302 11.829490
v 103.205414 3.865318 11.860507
v 104.107101 5.048028 11.443987
v 104.096802 5.141094 11.393295
v 103.229607 5.312549 11.292480
v 104.010612 5.534303 11.139080
v 103.947647 5.614045 11.079229
v 104.058571 3.967188 11.834917
v 103.138763 4.901472 11.623973
v 103.121735 4.831474 11.655555
v 104.123444 4.847550 11.543107
v 103.115799 4.353038 11.733417
v 104.152153 4.580316 11.698786
v 103.189583 3.960305 11.831293
v 103.207016 3.855719 11.862194
v 104.105293 5.033958 11.447248
v 104.095039 5.126671 11.396749
v 103.231117 5.297479 11.296314
v 104.663383 5.083110 12.674179
v 104.718307 5.154303 12.619419
v 104.041222 3.683993 12.700346
v 104.251480 4.518120 11.884480
v 104.223701 4.455625 11.868526
v 104.300102 4.469978 12.765223
v 104.154350 4.028479 11.861368
v 104.160477 4.231392 12.787121
v 104.065231 3.677848 11.924877
v 104.037239 3.584473 11.939701
v 104.386086 4.636403 12.751315
v 104.431404 4.719177 12.743372
v 104.541695 4.871673 11.974741
v 101.929459 3.752867 11.988562
v 101.849190 3.775531 12.033191
v 102.883209 3.094543 11.974898
v 102.455078 3.517985 12.646024
v 102.491920 3.484502 12.659520
v 102.447403 3.490698 11.917530
v 102.662811 3.246605 12.666965
v 102.622047 3.378721 11.900821
v 102.846786 3.068992 12.616042
v 102.895203 3.016431 12.604194
v 102.327766 3.568825 11.928050
v 102.266937 3.609954 11.934125
v 102.119476 3.673619 12.568714
v 102.759071 6.862045 12.318157
v 102.731117 6.937302 12.390448
v 103.251762 5.390309 12.071250
v 103.402252 6.240853 12.928047
v 103.430458 6.174759 12.933455
v 103.032898 6.212977 12.100650
v 103.470894 5.732801 12.916440
v 103.142693 5.960237 12.029628
v 103.509727 5.369408 12.824186
v 103.524910 5.272320 12.800075
v 102.966736 6.388577 12.144732
v 102.931763 6.476057 12.168569
v 103.115242 6.623237 12.945810
v 103.161148 5.786833 11.288812
v 103.081871 5.859613 11.287749
v 103.624641 4.356514 11.725204
v 102.877708 5.209243 12.154106
v 102.885880 5.145354 12.185819
v 103.487198 5.160027 11.489511
v 102.930176 4.708682 12.241655
v 103.602936 4.916121 11.576001
v 103.040276 4.350232 12.261482
v 103.071114 4.254775 12.271372
v 103.415619 5.330163 11.436549
v 103.377441 5.414784 11.409078
v 102.736458 5.570681 11.877361
v 104.408569 6.417420 12.039125
v 104.408798 6.484986 11.970805
v 104.060547 5.111268 12.394887
v 103.665161 5.881026 11.745221
v 103.639023 5.822665 11.749619
v 104.244598 5.840585 12.304424
v 103.604179 5.429914 11.773543
v 104.173584 5.616195 12.397509
v 103.596954 5.105987 11.859622
v 103.590881 5.019507 11.883779
v 104.287338 5.996539 12.247461
v 104.309669 6.074232 12.216866
v 103.902138 6.217850 11.638117
v 104.680084 5.986402 14.077867
v 104.779922 6.060192 14.089929
v 103.986198 4.469962 13.362979
v 104.952690 5.421336 12.997110
v 104.936325 5.353951 12.951131
v 104.234398 5.337637 13.753745
v 104.835426 4.868123 12.821796
v 104.073929 5.085131 13.617971
v 104.667183 4.474085 12.745543
v 104.620705 4.370012 12.719938
v 104.335892 5.515938 13.839986
v 104.389313 5.604150 13.884178
v 105.153397 5.776992 13.369077
v 102.867210 4.782172 12.627592
v 102.864441 4.835918 12.686076
v 103.200890 3.725931 12.296440
v 103.498734 4.355642 12.858441
v 103.522346 4.308463 12.853205
v 103.023491 4.319298 12.391976
v 103.564667 3.985995 12.821913
v 103.090225 4.139181 12.308722
v 103.582054 3.721292 12.741150
v 103.590126 3.650800 12.718638
v 102.982613 4.444938 12.443483
v 102.961380 4.507427 12.470969
v 103.290947 4.622551 12.955765
v 104.314728 2.919441 13.213802
v 104.373421 2.934324 13.227662
v 103.845909 2.487150 12.798435
v 104.350586 2.765205 12.662230
v 104.338684 2.743218 12.639381
v 104.031982 2.747287 13.019097
v 104.259064 2.587002 12.560158
v 103.939857 2.673757 12.949934
v 104.147263 2.470372 12.503466
v 104.118530 2.435857 12.487791
v 104.094688 2.798589 13.066927
v 104.126892 2.825597 13.090895
v 104.479218 2.867403 12.848232
v 104.557770 3.138066 11.407226
v 104.565178 3.154990 11.339049
v 104.154808 2.646482 11.994541
v 103.930305 2.962675 11.444134
v 103.906189 2.937672 11.460773
v 104.377716 2.942299 11.753606
v 103.827957 2.760030 11.561736
v 104.312592 2.858684 11.867274
v 103.779663 2.627403 11.695850
v 103.766006 2.588154 11.730476
v 104.422890 3.000638 11.676137
v 104.445419 3.031350 11.636434
v 104.122154 3.078890 11.272882
v 103.867020 2.909435 13.233901
v 103.902397 3.104304 13.401138
v 103.887688 3.456510 13.742045
v 103.893562 3.433495 13.709237
v 103.914795 3.331854 13.636788
v 103.395706 3.284299 13.663902
v 103.395729 3.142916 13.485084
v 103.395226 3.163173 13.475188
v 103.390877 3.182417 13.495124
v 103.905281 3.118627 13.380314
v 103.909439 3.092499 13.360051
v 103.422722 3.449662 13.889010
v 103.431534 3.483481 13.941568
v 103.230164 3.700547 11.898830
v 103.152748 4.180269 11.774578
v 103.169403 5.088200 11.499411
v 103.157410 5.019146 11.534483
v 103.123535 4.778574 11.565999
v 104.133286 4.765359 11.581737
v 104.132088 4.364337 11.765395
v 104.128288 4.390474 11.800127
v 104.136200 4.441542 11.783555
v 103.141922 4.186258 11.822218
v 103.135483 4.123080 11.833391
v 104.084915 5.246170 11.334141
v 104.069611 5.349977 11.271658
v 103.231682 3.691570 11.900373
v 103.154556 4.169478 11.776590
v 103.171143 5.073978 11.502462
v 103.159195 5.005186 11.537402
v 103.125450 4.765522 11.568799
v 104.131386 4.752358 11.584477
v 104.130188 4.352852 11.767442
v 104.126404 4.378889 11.802042
v 104.134293 4.429764 11.785533
v 103.143761 4.175446 11.824050
v 103.137352 4.112506 11.835181
v 104.083199 5.231351 11.337817
v 104.067947 5.334766 11.275571
v 104.002571 3.437922 11.960798
v 104.114891 3.864597 11.894924
v 104.359146 4.672132 11.916288
v 104.328255 4.610715 11.904790
v 104.301033 4.396744 11.873921
v 104.262993 4.384991 12.771317
v 104.099724 4.028313 12.765875
v 104.068939 4.051558 12.761673
v 104.083481 4.096980 12.769104
v 104.072792 3.869925 11.884160
v 104.063011 3.813732 11.878171
v 104.484283 4.812635 12.734212
v 104.540199 4.904963 12.722090
v 102.956268 2.922664 12.587265
v 102.744728 3.162178 12.639926
v 102.333466 3.596227 12.618758
v 102.373421 3.562940 12.628593
v 102.449081 3.435912 12.654810
v 102.500618 3.448588 11.912929
v 102.727333 3.274208 11.919293
v 102.744034 3.292876 11.922864
v 102.719238 3.315711 11.916507
v 102.779732 3.176754 12.649079
v 102.807137 3.149093 12.654282
v 102.196159 3.656457 11.941124
v 102.114021 3.693401 11.950469
v 103.540649 5.120485 12.767683
v 103.485535 5.563175 12.870402
v 103.297905 6.406075 12.936177
v 103.327560 6.340978 12.936172
v 103.350502 6.119499 12.956566
v 103.060539 6.123715 12.081575
v 103.194992 5.747976 12.028565
v 103.227554 5.769733 12.021337
v 103.213966 5.817325 12.019351
v 103.530113 5.565727 12.865416
v 103.537895 5.507440 12.867783
v 102.890701 6.574931 12.196288
v 102.847733 6.672781 12.227959
v 103.111298 4.104955 12.281659
v 102.982903 4.541146 12.246552
v 102.824081 5.366690 12.052632
v 102.837738 5.303903 12.083445
v 102.834595 5.085160 12.125397
v 103.518166 5.073145 11.512303
v 103.630783 4.708512 11.635609
v 103.649704 4.732276 11.661131
v 103.644745 4.778711 11.645185
v 103.005096 4.546592 12.285032
v 103.007698 4.489147 12.296465
v 103.332977 5.510326 11.376942
v 103.284172 5.604713 11.344698
v 103.586220 4.884241 11.914505
v 103.604668 5.278628 11.815018
v 103.751183 6.026804 11.705115
v 103.725677 5.969274 11.714464
v 103.696381 5.772878 11.703496
v 104.226707 5.761284 12.328636
v 104.127373 5.428059 12.414080
v 104.103271 5.447699 12.431058
v 104.115913 5.489829 12.428556
v 103.569611 5.281365 11.833989
v 103.561462 5.229659 11.834157
v 104.335915 6.162037 12.181135
v 104.362396 6.248962 12.141501
v 104.557137 4.204933 12.685766
v 104.755264 4.683453 12.791181
v 105.031296 5.580022 13.137218
v 105.008720 5.514403 13.092439
v 104.987587 5.270151 13.011576
v 104.188950 5.245301 13.714591
v 104.018623 4.859856 13.518488
v 103.999947 4.893031 13.492707
v 104.010803 4.943177 13.517963
v 104.730881 4.697989 12.747773
v 104.721382 4.634308 12.726062
v 104.451195 5.703422 13.935359
v 104.517937 5.800850 13.986490
v 103.598724 3.540163 12.689236
v 103.569595 3.862275 12.783121
v 103.422501 4.471911 12.895484
v 103.445587 4.425545 12.886177
v 103.476471 4.264011 12.889545
v 103.041092 4.255138 12.369695
v 103.134918 3.985869 12.289661
v 103.154221 4.003418 12.276340
v 103.142334 4.037708 12.279596
v 103.598557 3.866297 12.767705
v 103.607056 3.823875 12.766068
v 102.936554 4.577981 12.502982
v 102.911537 4.647683 12.538194
v 104.081413 2.374285 12.468987
v 104.207352 2.531562 12.537031
v 104.397537 2.816583 12.729269
v 104.382500 2.794724 12.706820
v 104.357384 2.711312 12.660622
v 104.004128 2.719635 12.997786
v 103.896942 2.605128 12.894384
v 103.890419 2.617386 12.885262
v 103.899635 2.632381 12.899320
v 104.194420 2.541135 12.517104
v 104.183426 2.522971 12.502455
v 104.164330 2.856133 13.118814
v 104.208321 2.880393 13.150624
v 103.749992 2.518136 11.775002
v 103.809113 2.696986 11.623337
v 103.999367 3.021100 11.381752
v 103.976143 2.996243 11.401868
v 103.927536 2.901390 11.436687
v 104.357574 2.910855 11.788029
v 104.255920 2.780642 11.923495
v 104.246544 2.794581 11.932137
v 104.261116 2.811633 11.919761
v 103.788437 2.707871 11.640726
v 103.773453 2.687216 11.655189
v 104.471680 3.066075 11.590268
v 104.501404 3.093662 11.536165
vt 0.916667 0.500000
vt 1.000000 0.500000
vt 1.000000 1.000000
vt 0.916667 1.000000
vt 0.083333 0.500000
vt 0.166667 0.500000
vt 0.166667 1.000000
vt 0.083333 1.000000
vt 0.208333 0.500000
vt 0.250000 0.500000
vt 0.250000 1.000000
vt 0.208333 1.000000
vt 0.291667 0.500000
vt 0.333333 0.500000
vt 0.333333 1.000000
vt 0.291667 1.000000
vt 0.375000 0.500000
vt 0.416667 0.500000
vt 0.416667 1.000000
vt 0.375000 1.000000
vt 0.458333 0.500000
vt 0.500000 0.500000
vt 0.500000 1.000000
vt 0.458333 1.000000
vt 0.541667 0.500000
vt 0.583333 0.500000
vt 0.583333 1.000000
vt 0.541667 1.000000
vt 0.625000 0.500000
vt 0.666667 0.500000
vt 0.666667 1.000000
vt 0.625000 1.000000
vt 0.791667 0.500000
vt 0.833333 0.500000
vt 0.833333 1.000000
vt 0.791667 1.000000
vt 0.791667 0.000000
vt 0.833333 0.000000
vt 0.708333 0.000000
vt 0.750000 0.000000
vt 0.750000 0.500000
vt 0.708333 0.500000
vt 0.541667 0.000000
vt 0.583333 0.000000
vt 0.458333 0.000000
vt 0.500000 0.000000
vt 0.208333 0.000000
vt 0.250000 0.000000
vt 0.083333 0.000000
vt 0.166667 0.000000
vt 0.000000 0.000000
vt 0.083333 0.000000
vt 0.000000 0.500000
vt 0.916667 0.000000
vt 1.000000 0.000000
vt 0.333333 0.000000
vt 0.375000 0.000000
vt 0.604167 0.000000
vt 0.625000 0.000000
vt 0.604167 0.500000
vt 0.541667 0.000000
vt 0.791667 1.000000
vt 0.750000 1.000000
vt 0.708333 1.000000
vt 0.666667 1.000000
vt 0.291667 0.000000
vt 1.000000 0.000000
vt 1.000000 0.500000
vt 1.000000 1.000000
vt 0.916667 0.500000
vt 1.000000 0.500000
vt 1.000000 1.000000
vt 0.916667 1.000000
vt 0.083333 0.500000
vt 0.166667 0.500000
vt 0.166667 1.000000
vt 0.083333 1.000000
vt 0.208333 0.500000
vt 0.250000 0.500000
vt 0.250000 1.000000
vt 0.208333 1.000000
vt 0.291667 0.500000
vt 0.333333 0.500000
vt 0.333333 1.000000
vt 0.291667 1.000000
vt 0.375000 0.500000
vt 0.416667 0.500000
vt 0.416667 1.000000
vt 0.375000 1.000000
vt 0.458333 0.500000
vt 0.500000 0.500000
vt 0.500000 1.000000
vt 0.458333 1.000000
vt 0.541667 0.500000
vt 0.583333 0.500000
vt 0.583333 1.000000
vt 0.541667 1.000000
vt 0.625000 0.500000
vt 0.666667 0.500000
vt 0.666667 1.000000
vt 0.625000 1.000000
vt 0.791667 0.500000
vt 0.833333 0.500000
vt 0.833333 1.000000
vt 0.791667 1.000000
vt 0.791667 0.000000
vt 0.833333 0.000000
vt 0.708333 0.000000
vt 0.750000 0.000000
vt 0.750000 0.500000
vt 0.708333 0.500000
vt 0.541667 0.000000
vt 0.583333 0.000000
vt 0.458333 0.000000
vt 0.500000 0.000000
vt 0.208333 0.000000
vt 0.250000 0.000000
vt 0.083333 0.000000
vt 0.166667 0.000000
vt 0.000000 0.000000
vt 0.083333 0.000000
vt 0.000000 0.500000
vt 0.916667 0.000000
vt 1.000000 0.000000
vt 0.333333 0.000000
vt 0.375000 0.000000
vt 0.604167 0.000000
vt 0.625000 0.000000
vt 0.604167 0.500000
vt 0.541667 0.000000
vt 0.791667 1.000000
vt 0.750000 1.000000
vt 0.708333 1.000000
vt 0.666667 1.000000
vt 0.291667 0.000000
vt 1.000000 0.000000
vt 1.000000 0.500000
vt 1.000000 1.000000
vt 0.916667 0.500000
vt 1.000000 0.500000
vt 1.000000 1.000000
vt 0.916667 1.000000
vt 0.083333 0.500000
vt 0.166667 0.500000
vt 0.166667 1.000000
vt 0.083333 1.000000
vt 0.208333 0.500000
vt 0.250000 0.500000
vt 0.250000 1.000000
vt 0.208333 1.000000
vt 0.291667 0.500000
vt 0.333333 0.500000
vt 0.333333 1.000000
vt 0.291667 1.000000
vt 0.375000 0.500000
vt 0.416667 0.500000
vt 0.416667 1.000000
vt 0.375000 1.000000
vt 0.458333 0.500000
vt 0.500000 0.500000
vt 0.500000 1.000000
vt 0.458333 1.000000
vt 0.541667 0.500000
vt 0.583333 0.500000
vt 0.583333 1.000000
vt 0.541667 1.000000
vt 0.625000 0.500000
vt 0.666667 0.500000
vt 0.666667 1.000000
vt 0.625000 1.000000
vt 0.791667 0.500000
vt 0.833333 0.500000
vt 0.833333 1.000000
vt 0.791667 1.000000
vt 0.791667 0.000000
vt 0.833333 0.000000
vt 0.708333 0.000000
vt 0.750000 0.000000
vt 0.750000 0.500000
vt 0.708333 0.500000
vt 0.541667 0.000000
vt 0.583333 0.000000
vt 0.458333 0.000000
vt 0.500000 0.000000
vt 0.208333 0.000000
vt 0.250000 0.000000
vt 0.083333 0.000000
vt 0.166667 0.000000
vt 0.000000 0.000000
vt 0.083333 0.000000
vt 0.000000 0.500000
vt 0.916667 0.000000
vt 1.000000 0.000000
vt 0.333333 0.000000
vt 0.375000 0.000000
vt 0.604167 0.000000
vt 0.625000 0.000000
vt 0.604167 0.500000
vt 0.541667 0.000000
vt 0.791667 1.000000
vt 0.750000 1.000000
vt 0.708333 1.000000
vt 0.666667 1.000000
vt 0.291667 0.000000
vt 1.000000 0.000000
vt 1.000000 0.500000
vt 1.000000 1.000000
vt 0.916667 0.500000
vt 1.000000 0.500000
vt 1.000000 1.000000
vt 0.916667 1.000000
vt 0.083333 0.500000
vt 0.166667 0.500000
vt 0.166667 1.000000
vt 0.083333 1.000000
vt 0.208333 0.500000
vt 0.250000 0.500000
vt 0.250000 1.000000
vt 0.208333 1.000000
vt 0.291667 0.500000
vt 0.333333 0.500000
vt 0.333333 1.000000
vt 0.291667 1.000000
vt 0.375000 0.500000
vt 0.416667 0.500000
vt 0.416667 1.000000
vt 0.375000 1.000000
vt 0.458333 0.500000
vt 0.500000 0.500000
vt 0.500000 1.000000
vt 0.458333 1.000000
vt 0.541667 0.500000
vt 0.583333 0.500000
vt 0.583333 1.000000
vt 0.541667 1.000000
vt 0.625000 0.500000
vt 0.666667 0.500000
vt 0.666667 1.000000
vt 0.625000 1.000000
vt 0.791667 0.500000
vt 0.833333 0.500000
vt 0.833333 1.000000
vt 0.791667 1.000000
vt 0.791667 0.000000
vt 0.833333 0.000000
vt 0.708333 0.000000
vt 0.750000 0.000000
vt 0.750000 0.500000
vt 0.708333 0.500000
vt 0.541667 0.000000
vt 0.583333 0.000000
vt 0.458333 0.000000
vt 0.500000 0.000000
vt 0.208333 0.000000
vt 0.250000 0.000000
vt 0.083333 0.000000
vt 0.166667 0.000000
vt 0.000000 0.000000
vt 0.083333 0.000000
vt 0.000000 0.500000
vt 0.916667 0.000000
vt 1.000000 0.000000
vt 0.333333 0.000000
vt 0.375000 0.000000
vt 0.604167 0.000000
vt 0.625000 0.000000
vt 0.604167 0.500000
vt 0.541667 0.000000
vt 0.791667 1.000000
vt 0.750000 1.000000
vt 0.708333 1.000000
vt 0.666667 1.000000
vt 0.291667 0.000000
vt 1.000000 0.000000
vt 1.000000 0.500000
vt 1.000000 1.000000
vt 0.916667 0.500000
vt 1.000000 0.500000
vt 1.000000 1.000000
vt 0.916667 1.000000
vt 0.083333 0.500000
vt 0.166667 0.500000
vt 0.166667 1.000000
vt 0.083333 1.000000
vt 0.208333 0.500000
vt 0.250000 0.500000
vt 0.250000 1.000000
vt 0.208333 1.000000
vt 0.291667 0.500000
vt 0.333333 0.500000
vt 0.333333 1.000000
vt 0.291667 1.000000
vt 0.375000 0.500000
vt 0.416667 0.500000
vt 0.416667 1.000000
vt 0.375000 1.000000
vt 0.458333 0.500000
vt 0.500000 0.500000
vt 0.500000 1.000000
vt 0.458333 1.000000
vt 0.541667 0.500000
vt 0.583333 0.500000
vt 0.583333 1.000000
vt 0.541667 1.000000
vt 0.625000 0.500000
vt 0.666667 0.500000
vt 0.666667 1.000000
vt 0.625000 1.000000
vt 0.791667 0.500000
vt 0.833333 0.500000
vt 0.833333 1.000000
vt 0.791667 1.000000
vt 0.791667 0.000000
vt 0.833333 0.000000
vt 0.708333 0.000000
vt 0.750000 0.000000
vt 0.750000 0.500000
vt 0.708333 0.500000
vt 0.541667 0.000000
vt 0.583333 0.000000
vt 0.458333 0.000000
vt 0.500000 0.000000
vt 0.208333 0.000000
vt 0.250000 0.000000
vt 0.083333 0.000000
vt 0.166667 0.000000
vt 0.000000 0.000000
vt 0.083333 0.000000
vt 0.000000 0.500000
vt 0.916667 0.000000
vt 1.000000 0.000000
vt 0.333333 0.000000
vt 0.375000 0.000000
vt 0.604167 0.000000
vt 0.625000 0.000000
vt 0.604167 0.500000
vt 0.541667 0.000000
vt 0.791667 1.000000
vt 0.750000 1.000000
vt 0.708333 1.000000
vt 0.666667 1.000000
vt 0.291667 0.000000
vt 1.000000 0.000000
vt 1.000000 0.500000
vt 1.000000 1.000000
vt 0.916667 0.500000
vt 1.000000 0.500000
vt 1.000000 1.000000
vt 0.916667 1.000000
vt 0.083333 0.500000
vt 0.166667 0.500000
vt 0.166667 1.000000
vt 0.083333 1.000000
vt 0.208333 0.500000
vt 0.250000 0.500000
vt 0.250000 1.000000
vt 0.208333 1.000000
vt 0.291667 0.500000
vt 0.333333 0.500000
vt 0.333333 1.000000
vt 0.291667 1.000000
vt 0.375000 0.500000
vt 0.416667 0.500000
vt 0.416667 1.000000
vt 0.375000 1.000000
vt 0.458333 0.500000
vt 0.500000 0.500000
vt 0.500000 1.000000
vt 0.458333 1.000000
vt 0.541667 0.500000
vt 0.583333 0.500000
vt 0.583333 1.000000
vt 0.541667 1.000000
vt 0.625000 0.500000
vt 0.666667 0.500000
vt 0.666667 1.000000
vt 0.625000 1.000000
vt 0.791667 0.500000
vt 0.833333 0.500000
vt 0.833333 1.000000
vt 0.791667 1.000000
vt 0.791667 0.000000
vt 0.833333 0.000000
vt 0.708333 0.000000
vt 0.750000 0.000000
vt 0.750000 0.500000
vt 0.708333 0.500000
vt 0.541667 0.000000
vt 0.583333 0.000000
vt 0.458333 0.000000
vt 0.500000 0.000000
vt 0.208333 0.000000
vt 0.250000 0.000000
vt 0.083333 0.000000
vt 0.166667 0.000000
vt 0.000000 0.000000
vt 0.083333 0.000000
vt 0.000000 0.500000
vt 0.916667 0.000000
vt 1.000000 0.000000
vt 0.333333 0.000000
vt 0.375000 0.000000
vt 0.604167 0.000000
vt 0.625000 0.000000
vt 0.604167 0.500000
vt 0.541667 0.000000
vt 0.791667 1.000000
vt 0.750000 1.000000
vt 0.708333 1.000000
vt 0.666667 1.000000
vt 0.291667 0.000000
vt 1.000000 0.000000
vt 1.000000 0.500000
vt 1.000000 1.000000
vt 0.916667 0.500000
vt 1.000000 0.500000
vt 1.000000 1.000000
vt 0.916667 1.000000
vt 0.083333 0.500000
vt 0.166667 0.500000
vt 0.166667 1.000000
vt 0.083333 1.000000
vt 0.208333 0.500000
vt 0.250000 0.500000
vt 0.250000 1.000000
vt 0.208333 1.000000
vt 0.291667 0.500000
vt 0.333333 0.500000
vt 0.333333 1.000000
vt 0.291667 1.000000
vt 0.375000 0.500000
vt 0.416667 0.500000
vt 0.416667 1.000000
vt 0.375000 1.000000
vt 0.458333 0.500000
vt 0.500000 0.500000
vt 0.500000 1.000000
vt 0.458333 1.000000
vt 0.541667 0.500000
vt 0.583333 0.500000
vt 0.583333 1.000000
vt 0.541667 1.000000
vt 0.625000 0.500000
vt 0.666667 0.500000
vt 0.666667 1.000000
vt 0.625000 1.000000
vt 0.791667 0.500000
vt 0.833333 0.500000
vt 0.833333 1.000000
vt 0.791667 1.000000
vt 0.791667 0.000000
vt 0.833333 0.000000
vt 0.708333 0.000000
vt 0.750000 0.000000
vt 0.750000 0.500000
vt 0.708333 0.500000
vt 0.541667 0.000000
vt 0.583333 0.000000
vt 0.458333 0.000000
vt 0.500000 0.000000
vt 0.208333 0.000000
vt 0.250000 0.000000
vt 0.083333 0.000000
vt 0.166667 0.000000
vt 0.000000 0.000000
vt 0.083333 0.000000
vt 0.000000 0.500000
vt 0.916667 0.000000
vt 1.000000 0.000000
vt 0.333333 0.000000
vt 0.375000 0.000000
vt 0.604167 0.000000
vt 0.625000 0.000000
vt 0.604167 0.500000
vt 0.541667 0.000000
vt 0.791667 1.000000
vt 0.750000 1.000000
vt 0.708333 1.000000
vt 0.666667 1.000000
vt 0.291667 0.000000
vt 1.000000 0.000000
vt 1.000000 0.500000
vt 1.000000 1.000000
vt 0.916667 0.500000
vt 1.000000 0.500000
vt 1.000000 1.000000
vt 0.916667 1.000000
vt 0.083333 0.500000
vt 0.166667 0.500000
vt 0.166667 1.000000
vt 0.083333 1.000000
vt 0.208333 0.500000
vt 0.250000 0.500000
vt 0.250000 1.000000
vt 0.208333 1.000000
vt 0.291667 0.500000
vt 0.333333 0.500000
vt 0.333333 1.000000
vt 0.291667 1.000000
vt 0.375000 0.500000
vt 0.416667 0.500000
vt 0.416667 1.000000
vt 0.375000 1.000000
vt 0.458333 0.500000
vt 0.500000 0.500000
vt 0.500000 1.000000
vt 0.458333 1.000000
vt 0.541667 0.500000
vt 0.583333 0.500000
vt 0.583333 1.000000
vt 0.541667 1.000000
vt 0.625000 0.500000
vt 0.666667 0.500000
vt 0.666667 1.000000
vt 0.625000 1.000000
vt 0.791667 0.500000
vt 0.833333 0.500000
vt 0.833333 1.000000
vt 0.791667 1.000000
vt 0.791667 0.000000
vt 0.833333 0.000000
vt 0.708333 0.000000
vt 0.750000 0.000000
vt 0.750000 0.500000
vt 0.708333 0.500000
vt 0.541667 0.000000
vt 0.583333 0.000000
vt 0.458333 0.000000
vt 0.500000 0.000000
vt 0.208333 0.000000
vt 0.250000 0.000000
vt 0.083333 0.000000
vt 0.166667 0.000000
vt 0.000000 0.000000
vt 0.083333 0.000000
vt 0.000000 0.500000
vt 0.916667 0.000000
vt 1.000000 0.000000
vt 0.333333 0.000000
vt 0.375000 0.000000
vt 0.604167 0.000000
vt 0.625000 0.000000
vt 0.604167 0.500000
vt 0.541667 0.000000
vt 0.791667 1.000000
vt 0.750000 1.000000
vt 0.708333 1.000000
vt 0.666667 1.000000
vt 0.291667 0.000000
vt 1.000000 0.000000
vt 1.000000 0.500000
vt 1.000000 1.000000
vt 0.916667 0.500000
vt 1.000000 0.500000
vt 1.000000 1.000000
vt 0.916667 1.000000
vt 0.083333 0.500000
vt 0.166667 0.500000
vt 0.166667 1.000000
vt 0.083333 1.000000
vt 0.208333 0.500000
vt 0.250000 0.500000
vt 0.250000 1.000000
vt 0.208333 1.000000
vt 0.291667 0.500000
vt 0.333333 0.500000
vt 0.333333 1.000000
vt 0.291667 1.000000
vt 0.375000 0.500000
vt 0.416667 0.500000
vt 0.416667 1.000000
vt 0.375000 1.000000
vt 0.458333 0.500000
vt 0.500000 0.500000
vt 0.500000 1.000000
vt 0.458333 1.000000
vt 0.541667 0.500000
vt 0.583333 0.500000
vt 0.583333 1.000000
vt 0.541667 1.000000
vt 0.625000 0.500000
vt 0.666667 0.500000
vt 0.666667 1.000000
vt 0.625000 1.000000
vt 0.791667 0.500000
vt 0.833333 0.500000
vt 0.833333 1.000000
vt 0.791667 1.000000
vt 0.791667 0.000000
vt 0.833333 0.000000
vt 0.708333 0.000000
vt 0.750000 0.000000
vt 0.750000 0.500000
vt 0.708333 0.500000
vt 0.541667 0.000000
vt 0.583333 0.000000
vt 0.458333 0.000000
vt 0.500000 0.000000
vt 0.208333 0.000000
vt 0.250000 0.000000
vt 0.083333 0.000000
vt 0.166667 0.000000
vt 0.000000 0.000000
vt 0.083333 0.000000
vt 0.000000 0.500000
vt 0.916667 0.000000
vt 1.000000 0.000000
vt 0.333333 0.000000
vt 0.375000 0.000000
vt 0.604167 0.000000
vt 0.625000 0.000000
vt 0.604167 0.500000
vt 0.541667 0.000000
vt 0.791667 1.000000
vt 0.750000 1.000000
vt 0.708333 1.000000
vt 0.666667 1.000000
vt 0.291667 0.000000
vt 1.000000 0.000000
vt 1.000000 0.500000
vt 1.000000 1.000000
vt 0.916667 0.500000
vt 1.000000 0.500000
vt 1.000000 1.000000
vt 0.916667 1.000000
vt 0.083333 0.500000
vt 0.166667 0.500000
vt 0.166667 1.000000
vt 0.083333 1.000000
vt 0.208333 0.500000
vt 0.250000 0.500000
vt 0.250000 1.000000
vt 0.208333 1.000000
vt 0.291667 0.500000
vt 0.333333 0.500000
vt 0.333333 1.000000
vt 0.291667 1.000000
vt 0.375000 0.500000
vt 0.416667 0.500000
vt 0.416667 1.000000
vt 0.375000 1.000000
vt 0.458333 0.500000
vt 0.500000 0.500000
vt 0.500000 1.000000
vt 0.458333 1.000000
vt 0.541667 0.500000
vt 0.583333 0.500000
vt 0.583333 1.000000
vt 0.541667 1.000000
vt 0.625000 0.500000
vt 0.666667 0.500000
vt 0.666667 1.000000
vt 0.625000 1.000000
vt 0.791667 0.500000
vt 0.833333 0.500000
vt 0.833333 1.000000
vt 0.791667 1.000000
vt 0.791667 0.000000
vt 0.833333 0.000000
vt 0.708333 0.000000
vt 0.750000 0.000000
vt 0.750000 0.500000
vt 0.708333 0.500000
vt 0.541667 0.000000
vt 0.583333 0.000000
vt 0.458333 0.000000
vt 0.500000 0.000000
vt 0.208333 0.000000
vt 0.250000 0.000000
vt 0.083333 0.000000
vt 0.166667 0.000000
vt 0.000000 0.000000
vt 0.083333 0.000000
vt 0.000000 0.500000
vt 0.916667 0.000000
vt 1.000000 0.000000
vt 0.333333 0.000000
vt 0.375000 0.000000
vt 0.604167 0.000000
vt 0.625000 0.000000
vt 0.604167 0.500000
vt 0.541667 0.000000
vt 0.791667 1.000000
vt 0.750000 1.000000
vt 0.708333 1.000000
vt 0.666667 1.000000
vt 0.291667 0.000000
vt 1.000000 0.000000
vt 1.000000 0.500000
vt 1.000000 1.000000
vt 0.916667 0.500000
vt 1.000000 0.500000
vt 1.000000 1.000000
vt 0.916667 1.000000
vt 0.083333 0.500000
vt 0.166667 0.500000
vt 0.166667 1.000000
vt 0.083333 1.000000
vt 0.208333 0.500000
vt 0.250000 0.500000
vt 0.250000 1.000000
vt 0.208333 1.000000
vt 0.291667 0.500000
vt 0.333333 0.500000
vt 0.333333 1.000000
vt 0.291667 1.000000
vt 0.375000 0.500000
vt 0.416667 0.500000
vt 0.416667 1.000000
vt 0.375000 1.000000
vt 0.458333 0.500000
vt 0.500000 0.500000
vt 0.500000 1.000000
vt 0.458333 1.000000
vt 0.541667 0.500000
vt 0.583333 0.500000
vt 0.583333 1.000000
vt 0.541667 1.000000
vt 0.625000 0.500000
vt 0.666667 0.500000
vt 0.666667 1.000000
vt 0.625000 1.000000
vt 0.791667 0.500000
vt 0.833333 0.500000
vt 0.833333 1.000000
vt 0.791667 1.000000
vt 0.791667 0.000000
vt 0.833333 0.000000
vt 0.708333 0.000000
vt 0.750000 0.000000
vt 0.750000 0.500000
vt 0.708333 0.500000
vt 0.541667 0.000000
vt 0.583333 0.000000
vt 0.458333 0.000000
vt 0.500000 0.000000
vt 0.208333 0.000000
vt 0.250000 0.000000
vt 0.083333 0.000000
vt 0.166667 0.000000
vt 0.000000 0.000000
vt 0.083333 0.000000
vt 0.000000 0.500000
vt 0.916667 0.000000
vt 1.000000 0.000000
vt 0.333333 0.000000
vt 0.375000 0.000000
vt 0.604167 0.000000
vt 0.625000 0.000000
vt 0.604167 0.500000
vt 0.541667 0.000000
vt 0.791667 1.000000
vt 0.750000 1.000000
vt 0.708333 1.000000
vt 0.666667 1.000000
vt 0.291667 0.000000
vt 1.000000 0.000000
vt 1.000000 0.500000
vt 1.000000 1.000000
vt 0.916667 0.500000
vt 1.000000 0.500000
vt 1.000000 1.000000
vt 0.916667 1.000000
vt 0.083333 0.500000
vt 0.166667 0.500000
vt 0.166667 1.000000
vt 0.083333 1.000000
vt 0.208333 0.500000
vt 0.250000 0.500000
vt 0.250000 1.000000
vt 0.208333 1.000000
vt 0.291667 0.500000
vt 0.333333 0.500000
vt 0.333333 1.000000
vt 0.291667 1.000000
vt 0.375000 0.500000
vt 0.416667 0.500000
vt 0.416667 1.000000
vt 0.375000 1.000000
vt 0.458333 0.500000
vt 0.500000 0.500000
vt 0.500000 1.000000
vt 0.458333 1.000000
vt 0.541667 0.500000
vt 0.583333 0.500000
vt 0.583333 1.000000
vt 0.541667 1.000000
vt 0.625000 0.500000
vt 0.666667 0.500000
vt 0.666667 1.000000
vt 0.625000 1.000000
vt 0.791667 0.500000
vt 0.833333 0.500000
vt 0.833333 1.000000
vt 0.791667 1.000000
vt 0.791667 0.000000
vt 0.833333 0.000000
vt 0.708333 0.000000
vt 0.750000 0.000000
vt 0.750000 0.500000
vt 0.708333 0.500000
vt 0.541667 0.000000
vt 0.583333 0.000000
vt 0.458333 0.000000
vt 0.500000 0.000000
vt 0.208333 0.000000
vt 0.250000 0.000000
vt 0.083333 0.000000
vt 0.166667 0.000000
vt 0.000000 0.000000
vt 0.083333 0.000000
vt 0.000000 0.500000
vt 0.916667 0.000000
vt 1.000000 0.000000
vt 0.333333 0.000000
vt 0.375000 0.000000
vt 0.604167 0.000000
vt 0.625000 0.000000
vt 0.604167 0.500000
vt 0.541667 0.000000
vt 0.791667 1.000000
vt 0.750000 1.000000
vt 0.708333 1.000000
vt 0.666667 1.000000
vt 0.291667 0.000000
vt 1.000000 0.000000
vt 1.000000 0.500000
vt 1.000000 1.000000
vt 0.083333 1.000000
vt 0.000000 1.000000
vt 0.750000 1.000000
vt 0.375000 0.000000
vt 0.416667 0.000000
vt 0.375000 1.000000
vt 0.604167 0.000000
vt 0.500000 1.000000
vt 0.750000 0.000000
vt 0.791667 0.000000
vt 0.291667 1.000000
vt 0.250000 1.000000
vt 0.166667 0.000000
vt 0.083333 1.000000
vt 0.000000 1.000000
vt 0.750000 1.000000
vt 0.375000 0.000000
vt 0.416667 0.000000
vt 0.375000 1.000000
vt 0.604167 0.000000
vt 0.500000 1.000000
vt 0.750000 0.000000
vt 0.791667 0.000000
vt 0.291667 1.000000
vt 0.250000 1.000000
vt 0.166667 0.000000
vt 0.083333 1.000000
vt 0.000000 1.000000
vt 0.750000 1.000000
vt 0.375000 0.000000
vt 0.416667 0.000000
vt 0.375000 1.000000
vt 0.604167 0.000000
vt 0.500000 1.000000
vt 0.750000 0.000000
vt 0.791667 0.000000
vt 0.291667 1.000000
vt 0.250000 1.000000
vt 0.166667 0.000000
vt 0.083333 1.000000
vt 0.000000 1.000000
vt 0.750000 1.000000
vt 0.375000 0.000000
vt 0.416667 0.000000
vt 0.375000 1.000000
vt 0.604167 0.000000
vt 0.500000 1.000000
vt 0.750000 0.000000
vt 0.791667 0.000000
vt 0.291667 1.000000
vt 0.250000 1.000000
vt 0.166667 0.000000
vt 0.083333 1.000000
vt 0.000000 1.000000
vt 0.750000 1.000000
vt 0.375000 0.000000
vt 0.416667 0.000000
vt 0.375000 1.000000
vt 0.604167 0.000000
vt 0.500000 1.000000
vt 0.750000 0.000000
vt 0.791667 0.000000
vt 0.291667 1.000000
vt 0.250000 1.000000
vt 0.166667 0.000000
vt 0.083333 1.000000
vt 0.000000 1.000000
vt 0.750000 1.000000
vt 0.375000 0.000000
vt 0.416667 0.000000
vt 0.375000 1.000000
vt 0.604167 0.000000
vt 0.500000 1.000000
vt 0.750000 0.000000
vt 0.791667 0.000000
vt 0.291667 1.000000
vt 0.250000 1.000000
vt 0.166667 0.000000
vt 0.083333 1.000000
vt 0.000000 1.000000
vt 0.750000 1.000000
vt 0.375000 0.000000
vt 0.416667 0.000000
vt 0.375000 1.000000
vt 0.604167 0.000000
vt 0.500000 1.000000
vt 0.750000 0.000000
vt 0.791667 0.000000
vt 0.291667 1.000000
vt 0.250000 1.000000
vt 0.166667 0.000000
vt 0.083333 1.000000
vt 0.000000 1.000000
vt 0.750000 1.000000
vt 0.375000 0.000000
vt 0.416667 0.000000
vt 0.375000 1.000000
vt 0.604167 0.000000
vt 0.500000 1.000000
vt 0.750000 0.000000
vt 0.791667 0.000000
vt 0.291667 1.000000
vt 0.250000 1.000000
vt 0.166667 0.000000
vt 0.083333 1.000000
vt 0.000000 1.000000
vt 0.750000 1.000000
vt 0.375000 0.000000
vt 0.416667 0.000000
vt 0.375000 1.000000
vt 0.604167 0.000000
vt 0.500000 1.000000
vt 0.750000 0.000000
vt 0.791667 0.000000
vt 0.291667 1.000000
vt 0.250000 1.000000
vt 0.166667 0.000000
vt 0.083333 1.000000
vt 0.000000 1.000000
vt 0.750000 1.000000
vt 0.375000 0.000000
vt 0.416667 0.000000
vt 0.375000 1.000000
vt 0.604167 0.000000
vt 0.500000 1.000000
vt 0.750000 0.000000
vt 0.791667 0.000000
vt 0.291667 1.000000
vt 0.250000 1.000000
vt 0.166667 0.000000
vt 0.083333 1.000000
vt 0.000000 1.000000
vt 0.750000 1.000000
vt 0.375000 0.000000
vt 0.416667 0.000000
vt 0.375000 1.000000
vt 0.604167 0.000000
vt 0.500000 1.000000
vt 0.750000 0.000000
vt 0.791667 0.000000
vt 0.291667 1.000000
vt 0.250000 1.000000
vt 0.166667 0.000000
vt 0.083333 1.000000
vt 0.000000 1.000000
vt 0.750000 1.000000
vt 0.375000 0.000000
vt 0.416667 0.000000
vt 0.375000 1.000000
vt 0.604167 0.000000
vt 0.500000 1.000000
vt 0.750000 0.000000
vt 0.791667 0.000000
vt 0.291667 1.000000
vt 0.250000 1.000000
vt 0.166667 0.000000
vt 0.833333 0.000000
vt 0.666667 0.000000
vt 0.291667 0.000000
vt 0.333333 0.000000
vt 0.416667 0.000000
vt 0.416667 1.000000
vt 0.604167 1.000000
vt 0.604167 1.000000
vt 0.583333 1.000000
vt 0.666667 0.000000
vt 0.708333 0.000000
vt 0.208333 1.000000
vt 0.166667 1.000000
vt 0.833333 0.000000
vt 0.666667 0.000000
vt 0.291667 0.000000
vt 0.333333 0.000000
vt 0.416667 0.000000
vt 0.416667 1.000000
vt 0.604167 1.000000
vt 0.604167 1.000000
vt 0.583333 1.000000
vt 0.666667 0.000000
vt 0.708333 0.000000
vt 0.208333 1.000000
vt 0.166667 1.000000
vt 0.833333 0.000000
vt 0.666667 0.000000
vt 0.291667 0.000000
vt 0.333333 0.000000
vt 0.416667 0.000000
vt 0.416667 1.000000
vt 0.604167 1.000000
vt 0.604167 1.000000
vt 0.583333 1.000000
vt 0.666667 0.000000
vt 0.708333 0.000000
vt 0.208333 1.000000
vt 0.166667 1.000000
vt 0.833333 0.000000
vt 0.666667 0.000000
vt 0.291667 0.000000
vt 0.333333 0.000000
vt 0.416667 0.000000
vt 0.416667 1.000000
vt 0.604167 1.000000
vt 0.604167 1.000000
vt 0.583333 1.000000
vt 0.666667 0.000000
vt 0.708333 0.000000
vt 0.208333 1.000000
vt 0.166667 1.000000
vt 0.833333 0.000000
vt 0.666667 0.000000
vt 0.291667 0.000000
vt 0.333333 0.000000
vt 0.416667 0.000000
vt 0.416667 1.000000
vt 0.604167 1.000000
vt 0.604167 1.000000
vt 0.583333 1.000000
vt 0.666667 0.000000
vt 0.708333 0.000000
vt 0.208333 1.000000
vt 0.166667 1.000000
vt 0.833333 0.000000
vt 0.666667 0.000000
vt 0.291667 0.000000
vt 0.333333 0.000000
vt 0.416667 0.000000
vt 0.416667 1.000000
vt 0.604167 1.000000
vt 0.604167 1.000000
vt 0.583333 1.000000
vt 0.666667 0.000000
vt 0.708333 0.000000
vt 0.208333 1.000000
vt 0.166667 1.000000
vt 0.833333 0.000000
vt 0.666667 0.000000
vt 0.291667 0.000000
vt 0.333333 0.000000
vt 0.416667 0.000000
vt 0.416667 1.000000
vt 0.604167 1.000000
vt 0.604167 1.000000
vt 0.583333 1.000000
vt 0.666667 0.000000
vt 0.708333 0.000000
vt 0.208333 1.000000
vt 0.166667 1.000000
vt 0.833333 0.000000
vt 0.666667 0.000000
vt 0.291667 0.000000
vt 0.333333 0.000000
vt 0.416667 0.000000
vt 0.416667 1.000000
vt 0.604167 1.000000
vt 0.604167 1.000000
vt 0.583333 1.000000
vt 0.666667 0.000000
vt 0.708333 0.000000
vt 0.208333 1.000000
vt 0.166667 1.000000
vt 0.833333 0.000000
vt 0.666667 0.000000
vt 0.291667 0.000000
vt 0.333333 0.000000
vt 0.416667 0.000000
vt 0.416667 1.000000
vt 0.604167 1.000000
vt 0.604167 1.000000
vt 0.583333 1.000000
vt 0.666667 0.000000
vt 0.708333 0.000000
vt 0.208333 1.000000
vt 0.166667 1.000000
vt 0.833333 0.000000
vt 0.666667 0.000000
vt 0.291667 0.000000
vt 0.333333 0.000000
vt 0.416667 0.000000
vt 0.416667 1.000000
vt 0.604167 1.000000
vt 0.604167 1.000000
vt 0.583333 1.000000
vt 0.666667 0.000000
vt 0.708333 0.000000
vt 0.208333 1.000000
vt 0.166667 1.000000
vt 0.833333 0.000000
vt 0.666667 0.000000
vt 0.291667 0.000000
vt 0.333333 0.000000
vt 0.416667 0.000000
vt 0.416667 1.000000
vt 0.604167 1.000000
vt 0.604167 1.000000
vt 0.583333 1.000000
vt 0.666667 0.000000
vt 0.708333 0.000000
vt 0.208333 1.000000
vt 0.166667 1.000000
vt 0.833333 0.000000
vt 0.666667 0.000000
vt 0.291667 0.000000
vt 0.333333 0.000000
vt 0.416667 0.000000
vt 0.416667 1.000000
vt 0.604167 1.000000
vt 0.604167 1.000000
vt 0.583333 1.000000
vt 0.666667 0.000000
vt 0.708333 0.000000
vt 0.208333 1.000000
vt 0.166667 1.000000
vn -0.0406 0.6176 -0.7855
vn -0.0402 0.8660 -0.4984
vn -0.0650 0.8443 -0.5318
vn -0.0824 0.8126 -0.5770
vn 0.0131 0.7867 -0.6172
vn -0.1034 0.7658 -0.6347
vn -0.2174 0.5631 -0.7973
vn -0.2263 0.6066 -0.7621
vn -0.1254 0.6308 -0.7658
vn 0.0655 0.6166 -0.7845
vn 0.0613 0.6223 -0.7803
vn -0.3191 0.8632 -0.3912
vn 0.0305 0.6425 -0.7657
vn -0.1525 0.8325 -0.5326
vn -0.3179 0.8460 -0.4280
vn -0.1169 0.8467 -0.5191
vn -0.1106 0.6478 -0.7538
vn 0.0151 0.8019 -0.5973
vn 0.0125 0.6509 -0.7591
vn -0.0137 0.7684 -0.6398
vn -0.2770 0.5865 -0.7611
vn -0.4226 0.3636 -0.8302
vn -0.1399 0.8187 -0.5569
vn -0.0934 0.5598 -0.8234
vn -0.1077 0.5585 -0.8224
vn -0.0695 0.1921 0.9789
vn -0.0708 0.5438 0.8362
vn -0.0466 0.5105 0.8586
vn -0.0298 0.4624 0.8862
vn -0.1254 0.4168 0.9003
vn -0.0090 0.3955 0.9184
vn 0.1101 0.1461 0.9831
vn 0.1178 0.2011 0.9725
vn 0.0150 0.2169 0.9761
vn -0.1747 0.1869 0.9667
vn -0.1707 0.1942 0.9660
vn 0.2143 0.6027 0.7686
vn -0.1408 0.2202 0.9652
vn 0.0413 0.5035 0.8630
vn 0.2120 0.5706 0.7934
vn 0.0057 0.5207 0.8537
vn -0.0003 0.2365 0.9716
vn -0.1272 0.4394 0.8893
vn -0.1233 0.2314 0.9650
vn -0.0988 0.3915 0.9149
vn 0.1699 0.1862 0.9677
vn 0.3288 -0.0370 0.9437
vn 0.0283 0.4796 0.8770
vn -0.0147 0.1463 0.9891
vn -0.0005 0.1463 0.9892
vn -0.0708 0.5439 0.8362
vn 0.1177 0.2011 0.9725
vn -0.1746 0.1870 0.9667
vn -0.1409 0.2202 0.9652
vn -0.1232 0.2315 0.9650
vn -0.9767 0.1921 -0.0956
vn -0.8340 0.5438 -0.0932
vn -0.8571 0.5104 -0.0696
vn -0.8851 0.4624 -0.0535
vn -0.8967 0.4167 -0.1495
vn -0.9179 0.3955 -0.0336
vn -0.9857 0.1461 0.0838
vn -0.9753 0.2011 0.0917
vn -0.9761 0.2169 -0.0111
vn -0.9617 0.1870 -0.2004
vn -0.9611 0.1942 -0.1966
vn -0.7741 0.6027 0.1936
vn -0.9611 0.2201 -0.1667
vn -0.8638 0.5035 0.0181
vn -0.7989 0.5705 0.1907
vn -0.8536 0.5207 -0.0172
vn -0.9713 0.2365 -0.0263
vn -0.8855 0.4393 -0.1510
vn -0.9613 0.2315 -0.1491
vn -0.9119 0.3915 -0.1233
vn -0.9719 0.1863 0.1438
vn -0.9521 -0.0369 0.3034
vn -0.8774 0.4797 0.0048
vn -0.9884 0.1463 -0.0412
vn -0.9889 0.1463 -0.0270
vn 0.9147 0.3880 0.1130
vn 0.3386 0.9334 0.1190
vn 0.5527 0.8241 0.1236
vn 0.5702 0.8115 0.1284
vn 0.5959 0.7722 0.2204
vn 0.5957 0.7921 0.1332
vn 0.7250 0.6878 0.0362
vn 0.7641 0.6410 -0.0733
vn 0.8712 0.4828 0.0890
vn 0.8725 0.4219 0.2466
vn 0.8175 0.5161 0.2555
vn 0.3505 0.9195 -0.1778
vn 0.7484 0.6522 0.1202
vn 0.5514 0.8314 -0.0685
vn 0.3199 0.9277 -0.1923
vn 0.4681 0.8747 0.1258
vn 0.8813 0.4686 0.0605
vn 0.6092 0.7882 0.0878
vn 0.6899 0.7066 0.1570
vn 0.5748 0.8158 0.0631
vn 0.8750 0.4721 -0.1067
vn 0.8981 0.2954 -0.3259
vn 0.5921 0.8039 -0.0569
vn 0.9355 0.3499 0.0479
vn 0.9362 0.3501 0.0295
vn 0.9577 0.1292 -0.2570
vn 0.8466 0.4890 -0.2099
vn 0.8577 0.4547 -0.2400
vn 0.8749 0.4054 -0.2648
vn 0.9167 0.3572 -0.1791
vn 0.8941 0.3371 -0.2948
vn 0.8997 0.0863 -0.4279
vn 0.8907 0.1421 -0.4317
vn 0.9289 0.1555 -0.3360
vn 0.9805 0.1228 -0.1536
vn 0.9789 0.1303 -0.1572
vn 0.6932 0.5573 -0.4570
vn 0.9701 0.1567 -0.1852
vn 0.8324 0.4493 -0.3244
vn 0.7152 0.5237 -0.4629
vn 0.8365 0.4663 -0.2878
vn 0.9310 0.1752 -0.3201
vn 0.9083 0.3805 -0.1738
vn 0.9648 0.1685 -0.2018
vn 0.9200 0.3315 -0.2088
vn 0.8682 0.1284 -0.4794
vn 0.7788 -0.0898 -0.6209
vn 0.8484 0.4242 -0.3167
vn 0.9487 0.0437 -0.3132
vn 0.9439 0.0439 -0.3273
vn 0.6139 0.1921 0.7657
vn 0.5160 0.5439 0.6618
vn 0.5490 0.5105 0.6618
vn 0.5800 0.4624 0.6707
vn 0.5195 0.4168 0.7459
vn 0.6171 0.3955 0.6802
vn 0.7486 0.1462 0.6467
vn 0.7469 0.2010 0.6338
vn 0.6740 0.2169 0.7062
vn 0.5284 0.1869 0.8281
vn 0.5308 0.1942 0.8249
vn 0.6793 0.6027 0.4186
vn 0.5522 0.2202 0.8041
vn 0.6164 0.5035 0.6054
vn 0.6945 0.5706 0.4384
vn 0.5840 0.5207 0.6227
vn 0.6598 0.2365 0.7133
vn 0.5106 0.4393 0.7391
vn 0.5650 0.2315 0.7920
vn 0.5489 0.3915 0.7386
vn 0.7820 0.1860 0.5949
vn 0.8823 -0.0370 0.4692
vn 0.6164 0.4796 0.6245
vn 0.6610 0.1463 0.7359
vn 0.6715 0.1463 0.7264
vn -0.7895 0.1382 0.5980
vn -0.6976 0.4972 0.5159
vn -0.6972 0.4627 0.5476
vn -0.7048 0.4131 0.5767
vn -0.7765 0.3668 0.5124
vn -0.7126 0.3446 0.6111
vn -0.6726 0.0920 0.7343
vn -0.6618 0.1476 0.7350
vn -0.7328 0.1630 0.6606
vn -0.8494 0.1337 0.5106
vn -0.8465 0.1410 0.5133
vn -0.4615 0.5597 0.6883
vn -0.8274 0.1668 0.5363
vn -0.6423 0.4555 0.6164
vn -0.4804 0.5262 0.7017
vn -0.6595 0.4731 0.5842
vn -0.7403 0.1829 0.6469
vn -0.7703 0.3900 0.5046
vn -0.8161 0.1782 0.5498
vn -0.7689 0.3407 0.5410
vn -0.6234 0.1329 0.7706
vn -0.4914 -0.0887 0.8664
vn -0.6604 0.4309 0.6150
vn -0.7620 0.0452 0.6460
vn -0.7522 0.0452 0.6574
vn -0.5818 0.3497 -0.7344
vn -0.4505 0.6735 -0.5861
vn -0.4866 0.6439 -0.5904
vn -0.5222 0.6006 -0.6054
vn -0.4656 0.5592 -0.6860
vn -0.5657 0.5397 -0.6235
vn -0.7219 0.3026 -0.6224
vn -0.7149 0.3550 -0.6024
vn -0.6399 0.3724 -0.6722
vn -0.4964 0.3439 -0.7970
vn -0.4981 0.3509 -0.7929
vn -0.6102 0.7168 -0.3373
vn -0.5171 0.3760 -0.7689
vn -0.5552 0.6366 -0.5353
vn -0.6282 0.6892 -0.3611
vn -0.5210 0.6524 -0.5504
vn -0.6236 0.3913 -0.6767
vn -0.4546 0.5797 -0.6762
vn -0.5288 0.3868 -0.7555
vn -0.4974 0.5363 -0.6819
vn -0.7517 0.3388 -0.5658
vn -0.8755 0.1128 -0.4699
vn -0.5573 0.6155 -0.5573
vn -0.6336 0.3054 -0.7108
vn -0.6442 0.3052 -0.7014
vn 0.7860 0.1921 -0.5876
vn 0.6789 0.5439 -0.4932
vn 0.6801 0.5105 -0.5262
vn 0.6899 0.4623 -0.5570
vn 0.7631 0.4168 -0.4939
vn 0.7008 0.3954 -0.5938
vn 0.6718 0.1461 -0.7262
vn 0.6587 0.2010 -0.7250
vn 0.7286 0.2169 -0.6497
vn 0.8456 0.1868 -0.5000
vn 0.8425 0.1942 -0.5025
vn 0.4414 0.6027 -0.6647
vn 0.8224 0.2202 -0.5247
vn 0.6259 0.5036 -0.5955
vn 0.4617 0.5705 -0.6792
vn 0.6422 0.5207 -0.5626
vn 0.7353 0.2365 -0.6352
vn 0.7559 0.4394 -0.4853
vn 0.8106 0.2317 -0.5378
vn 0.7568 0.3915 -0.5235
vn 0.6210 0.1862 -0.7613
vn 0.4989 -0.0371 -0.8659
vn 0.6450 0.4796 -0.5949
vn 0.7580 0.1463 -0.6357
vn 0.7487 0.1463 -0.6465
vn -0.5997 0.3880 -0.6998
vn -0.1699 0.9334 -0.3160
vn -0.3251 0.8241 -0.4638
vn -0.3348 0.8115 -0.4790
vn -0.2918 0.7723 -0.5643
vn -0.3504 0.7922 -0.4997
vn -0.5114 0.6877 -0.5153
vn -0.6140 0.6409 -0.4606
vn -0.5838 0.4825 -0.6529
vn -0.4785 0.4219 -0.7701
vn -0.4319 0.5161 -0.7396
vn -0.3788 0.9195 -0.1048
vn -0.4719 0.6524 -0.5930
vn -0.4536 0.8314 -0.3209
vn -0.3659 0.9278 -0.0734
vn -0.2611 0.8747 -0.4084
vn -0.6105 0.4686 -0.6385
vn -0.3909 0.7882 -0.4754
vn -0.4039 0.7068 -0.5808
vn -0.3822 0.8158 -0.4340
vn -0.7184 0.4723 -0.5107
vn -0.8831 0.2955 -0.3644
vn -0.4759 0.8038 -0.3570
vn -0.6590 0.3500 -0.6658
vn -0.6720 0.3501 -0.6526
vn -0.6205 0.3880 0.6815
vn -0.2927 0.9334 0.2076
vn -0.4202 0.8241 0.3799
vn -0.4341 0.8114 0.3914
vn -0.5241 0.7722 0.3593
vn -0.4528 0.7921 0.4094
vn -0.4484 0.6876 0.5711
vn -0.3814 0.6409 0.6662
vn -0.5758 0.4828 0.6598
vn -0.7051 0.4219 0.5699
vn -0.6807 0.5161 0.5199
vn -0.0573 0.9195 0.3888
vn -0.5303 0.6523 0.5415
vn -0.2625 0.8314 0.4897
vn -0.0277 0.9278 0.3722
vn -0.3730 0.8747 0.3095
vn -0.5584 0.4686 0.6846
vn -0.4235 0.7881 0.4466
vn -0.5266 0.7067 0.4725
vn -0.3835 0.8158 0.4329
vn -0.4182 0.4722 0.7760
vn -0.2526 0.2954 0.9214
vn -0.2955 0.8038 0.5163
vn -0.5794 0.3499 0.7361
vn -0.5647 0.3501 0.7473
vn -0.0923 0.8445 -0.5275
vn -0.1331 0.7008 -0.7008
vn -0.3068 0.7262 -0.6153
vn -0.0888 0.7928 -0.6030
vn 0.2912 0.1692 -0.9416
vn -0.0108 0.7903 -0.6126
vn -0.0368 0.6244 -0.7803
vn -0.0783 0.8256 -0.5588
vn -0.1666 0.8428 -0.5117
vn -0.0192 0.5139 0.8577
vn 0.0213 0.3088 0.9509
vn 0.1978 0.3781 0.9044
vn -0.0236 0.4332 0.9010
vn -0.3716 -0.2923 0.8812
vn -0.1016 0.4231 0.9003
vn -0.0734 0.2003 0.9770
vn -0.0337 0.4821 0.8755
vn 0.0559 0.5228 0.8506
vn -0.0192 0.5139 0.8576
vn 0.0213 0.3089 0.9509
vn -0.1016 0.4232 0.9003
vn -0.0337 0.4820 0.8755
vn -0.8568 0.5138 -0.0422
vn -0.9511 0.3088 -0.0041
vn -0.9093 0.3781 0.1735
vn -0.9000 0.4333 -0.0477
vn -0.8709 -0.2925 -0.3950
vn -0.8973 0.4232 -0.1257
vn -0.9747 0.2003 -0.0995
vn -0.8742 0.4822 -0.0572
vn -0.8517 0.5229 0.0331
vn 0.4759 0.8777 -0.0570
vn 0.7483 0.6620 0.0430
vn 0.6589 0.7300 -0.1815
vn 0.5976 0.7905 0.1340
vn 0.9046 0.0948 0.4156
vn 0.5312 0.8231 0.2008
vn 0.8649 0.4776 0.1547
vn 0.5661 0.8159 0.1175
vn 0.4564 0.8866 -0.0748
vn 0.8479 0.4588 -0.2655
vn 0.9091 0.2492 -0.3339
vn 0.8118 0.3244 -0.4855
vn 0.8849 0.3756 -0.2754
vn 0.9333 -0.3536 0.0619
vn 0.9093 0.3641 -0.2015
vn 0.9577 0.1374 -0.2527
vn 0.8674 0.4257 -0.2576
vn 0.8173 0.4695 -0.3342
vn 0.5684 0.5139 0.6425
vn 0.6615 0.3088 0.6834
vn 0.7595 0.3781 0.5294
vn 0.5946 0.4332 0.6773
vn 0.3258 -0.2924 0.8991
vn 0.5369 0.4232 0.7298
vn 0.6097 0.2003 0.7669
vn 0.5699 0.4820 0.6655
vn 0.6187 0.5229 0.5863
vn -0.6785 0.4661 0.5678
vn -0.7135 0.2563 0.6521
vn -0.5652 0.3279 0.7570
vn -0.7107 0.3833 0.5900
vn -0.8949 -0.3402 0.2887
vn -0.7611 0.3731 0.5305
vn -0.7910 0.1465 0.5940
vn -0.7002 0.4334 0.5674
vn -0.6242 0.4754 0.6200
vn -0.5059 0.6467 -0.5709
vn -0.6185 0.4590 -0.6378
vn -0.7110 0.5175 -0.4761
vn -0.5396 0.5742 -0.6157
vn -0.3419 -0.1403 -0.9292
vn -0.4825 0.5652 -0.6691
vn -0.5768 0.3574 -0.7346
vn -0.5102 0.6184 -0.5977
vn -0.5557 0.6534 -0.5140
vn 0.6614 0.5139 -0.5463
vn 0.7054 0.3089 -0.6379
vn 0.5548 0.3781 -0.7411
vn 0.6971 0.4333 -0.5713
vn 0.9096 -0.2923 -0.2952
vn 0.7476 0.4230 -0.5119
vn 0.7871 0.2003 -0.5834
vn 0.6844 0.4821 -0.5470
vn 0.6070 0.5228 -0.5985
vn -0.3900 0.8777 -0.2785
vn -0.5240 0.6620 -0.5359
vn -0.6091 0.7300 -0.3098
vn -0.3513 0.7904 -0.5018
vn -0.3883 0.0948 -0.9166
vn -0.2572 0.8231 -0.5063
vn -0.5348 0.4776 -0.6970
vn -0.3391 0.8160 -0.4682
vn -0.3877 0.8866 -0.2523
vn -0.2283 0.8777 0.4214
vn -0.4672 0.6620 0.5860
vn -0.2324 0.7299 0.6428
vn -0.4545 0.7905 0.4105
vn -0.8617 0.0946 0.4984
vn -0.4707 0.8231 0.3177
vn -0.6257 0.4775 0.6168
vn -0.4228 0.8160 0.3943
vn -0.2025 0.8866 0.4159
vn 0.1368 0.7513 -0.6457
vn -0.0906 0.6335 -0.7684
vn 0.0467 0.6142 -0.7878
vn -0.2725 0.7726 -0.5735
vn -0.1029 0.7647 -0.6361
vn -0.1039 0.7643 -0.6365
vn -0.2973 0.4792 -0.8258
vn -0.0475 0.6959 -0.7166
vn -0.0354 0.5917 -0.8054
vn -0.0510 0.8544 -0.5171
vn -0.2473 0.3667 0.8969
vn -0.0200 0.2163 0.9761
vn -0.1560 0.1842 0.9704
vn 0.1628 0.4369 0.8847
vn -0.0095 0.3938 0.9192
vn -0.0085 0.3933 0.9194
vn 0.1947 0.0622 0.9789
vn -0.0645 0.2935 0.9538
vn -0.0738 0.1597 0.9844
vn -0.0603 0.5255 0.8486
vn -0.1560 0.1841 0.9704
vn 0.1628 0.4369 0.8846
vn -0.0645 0.2934 0.9538
vn -0.0603 0.5256 0.8486
vn -0.8899 0.3668 -0.2712
vn -0.9752 0.2163 -0.0462
vn -0.9659 0.1841 -0.1819
vn -0.8887 0.4369 0.1390
vn -0.9186 0.3938 -0.0341
vn -0.9188 0.3933 -0.0331
vn -0.9837 0.0623 0.1685
vn -0.9518 0.2933 -0.0900
vn -0.9821 0.1597 -0.1001
vn -0.8467 0.5256 -0.0830
vn 0.7567 0.5710 0.3185
vn 0.9004 0.4177 0.1217
vn 0.7523 0.6201 0.2225
vn 0.6258 0.7613 -0.1697
vn 0.6428 0.7660 -0.0086
vn 0.6209 0.7730 0.1300
vn 0.8140 0.5707 -0.1086
vn 0.6216 0.7692 0.1484
vn 0.8243 0.5428 0.1610
vn 0.4427 0.8880 0.1241
vn 0.9502 0.3053 -0.0626
vn 0.9404 0.1545 -0.3029
vn 0.9777 0.1201 -0.1725
vn 0.8086 0.3837 -0.4461
vn 0.8948 0.3354 -0.2946
vn 0.8947 0.3348 -0.2956
vn 0.8625 0.0045 -0.5061
vn 0.9390 0.2321 -0.2538
vn 0.9622 0.0964 -0.2547
vn 0.8537 0.4703 -0.2238
vn 0.4276 0.3668 0.8262
vn 0.6483 0.2164 0.7300
vn 0.5446 0.1841 0.8182
vn 0.7203 0.4369 0.5387
vn 0.6173 0.3938 0.6811
vn 0.6182 0.3933 0.6806
vn 0.8078 0.0624 0.5862
vn 0.6005 0.2935 0.7438
vn 0.6145 0.1597 0.7726
vn 0.5321 0.5255 0.6638
vn -0.8521 0.3170 0.4165
vn -0.7558 0.1624 0.6343
vn -0.8398 0.1307 0.5270
vn -0.5758 0.3878 0.7197
vn -0.7134 0.3428 0.6112
vn -0.7129 0.3423 0.6120
vn -0.6103 0.0083 0.7921
vn -0.7715 0.2407 0.5889
vn -0.7952 0.1055 0.5971
vn -0.6993 0.4783 0.5313
vn -0.3782 0.5109 -0.7720
vn -0.6140 0.3725 -0.6959
vn -0.5130 0.3415 -0.7876
vn -0.6661 0.5728 -0.4778
vn -0.5661 0.5381 -0.6246
vn -0.5670 0.5376 -0.6241
vn -0.7900 0.2179 -0.5731
vn -0.5586 0.4454 -0.6997
vn -0.5855 0.3186 -0.7454
vn -0.4683 0.6573 -0.5905
vn 0.8402 0.3667 -0.3994
vn 0.7515 0.2163 -0.6232
vn 0.8362 0.1841 -0.5166
vn 0.5628 0.4369 -0.7017
vn 0.7016 0.3937 -0.5939
vn 0.7011 0.3934 -0.5947
vn 0.6132 0.0623 -0.7874
vn 0.7637 0.2935 -0.5750
vn 0.7930 0.1596 -0.5879
vn 0.6815 0.5255 -0.5093
vn -0.3445 0.5711 -0.7451
vn -0.5833 0.4177 -0.6967
vn -0.4060 0.6200 -0.6714
vn -0.5767 0.7613 -0.2963
vn -0.4808 0.7659 -0.4268
vn -0.3713 0.7730 -0.5144
vn -0.6747 0.5705 -0.4683
vn -0.3594 0.7690 -0.5286
vn -0.5006 0.5428 -0.6744
vn -0.2435 0.8880 -0.3900
vn -0.6970 0.5709 0.4339
vn -0.6194 0.4177 0.6647
vn -0.6161 0.6201 0.4857
vn -0.2229 0.7613 0.6089
vn -0.3642 0.7660 0.5298
vn -0.4647 0.7730 0.4319
vn -0.3815 0.5704 0.7274
vn -0.4802 0.7691 0.4218
vn -0.6075 0.5427 0.5799
vn -0.3570 0.8880 0.2897
usemtl Material.024
f 1/1/1 2/2/1 3/3/1 4/4/1
f 5/5/2 6/6/2 7/7/2 8/8/2
f 9/9/3 10/10/3 11/11/3 12/12/3
f 13/13/4 14/14/4 15/15/4 16/16/4
f 17/17/5 18/18/5 19/19/5 20/20/5
f 21/21/6 22/22/6 23/23/6 24/24/6
f 25/25/7 26/26/7 27/27/7 28/28/7
f 29/29/8 30/30/8 31/31/8 32/32/8
f 33/33/9 34/34/9 35/35/9 36/36/9
f 37/37/10 38/38/10 34/34/10 33/33/10
f 39/39/11 40/40/11 41/41/11 42/42/11
f 43/43/12 44/44/12 26/26/12 25/25/12
f 45/45/13 46/46/13 22/22/13 21/21/13
f 47/47/14 48/48/14 10/10/14 9/9/14
f 49/49/15 50/50/15 6/6/15 5/5/15
f 51/51/16 52/52/16 5/5/16 53/53/16
f 54/54/17 55/55/17 2/2/17 1/1/17
f 56/56/18 57/57/18 17/17/18 14/14/18
f 58/58/19 59/59/19 29/29/19 60/60/19
f 46/46/20 61/61/20 25/25/20 22/22/20
f 41/41/21 33/33/21 62/62/21 63/63/21
f 30/30/22 42/42/22 64/64/22 65/65/22
f 48/48/23 66/66/23 13/13/23 10/10/23
f 2/2/24 55/55/24 67/67/24 68/68/24
f 3/3/25 2/2/25 68/68/25 69/69/25
f 70/70/26 71/71/26 72/72/26 73/73/26
f 74/74/27 75/75/27 76/76/27 77/77/27
f 78/78/28 79/79/28 80/80/28 81/81/28
f 82/82/29 83/83/29 84/84/29 85/85/29
f 86/86/30 87/87/30 88/88/30 89/89/30
f 90/90/31 91/91/31 92/92/31 93/93/31
f 94/94/32 95/95/32 96/96/32 97/97/32
f 98/98/33 99/99/33 100/100/33 101/101/33
f 102/102/34 103/103/34 104/104/34 105/105/34
f 106/106/35 107/107/35 103/103/35 102/102/35
f 108/108/36 109/109/36 110/110/36 111/111/36
f 112/112/37 113/113/37 95/95/37 94/94/37
f 114/114/38 115/115/38 91/91/38 90/90/38
f 116/116/39 117/117/39 79/79/39 78/78/39
f 118/118/40 119/119/40 75/75/40 74/74/40
f 120/120/41 121/121/41 74/74/41 122/122/41
f 123/123/42 124/124/42 71/71/42 70/70/42
f 125/125/43 126/126/43 86/86/43 83/83/43
f 127/127/44 128/128/44 98/98/44 129/129/44
f 115/115/45 130/130/45 94/94/45 91/91/45
f 110/110/46 102/102/46 131/131/46 132/132/46
f 99/99/47 111/111/47 133/133/47 134/134/47
f 117/117/48 135/135/48 82/82/48 79/79/48
f 71/71/49 124/124/49 136/136/49 137/137/49
f 72/72/50 71/71/50 137/137/50 138/138/50
f 139/139/26 140/140/26 141/141/26 142/142/26
f 143/143/51 144/144/51 145/145/51 146/146/51
f 147/147/28 148/148/28 149/149/28 150/150/28
f 151/151/29 152/152/29 153/153/29 154/154/29
f 155/155/30 156/156/30 157/157/30 158/158/30
f 159/159/31 160/160/31 161/161/31 162/162/31
f 163/163/32 164/164/32 165/165/32 166/166/32
f 167/167/52 168/168/52 169/169/52 170/170/52
f 171/171/34 172/172/34 173/173/34 174/174/34
f 175/175/53 176/176/53 172/172/53 171/171/53
f 177/177/36 178/178/36 179/179/36 180/180/36
f 181/181/37 182/182/37 164/164/37 163/163/37
f 183/183/54 184/184/54 160/160/54 159/159/54
f 185/185/39 186/186/39 148/148/39 147/147/39
f 187/187/40 188/188/40 144/144/40 143/143/40
f 189/189/41 190/190/41 143/143/41 191/191/41
f 192/192/42 193/193/42 140/140/42 139/139/42
f 194/194/43 195/195/43 155/155/43 152/152/43
f 196/196/55 197/197/55 167/167/55 198/198/55
f 184/184/45 199/199/45 163/163/45 160/160/45
f 179/179/46 171/171/46 200/200/46 201/201/46
f 168/168/47 180/180/47 202/202/47 203/203/47
f 186/186/48 204/204/48 151/151/48 148/148/48
f 140/140/49 193/193/49 205/205/49 206/206/49
f 141/141/50 140/140/50 206/206/50 207/207/50
f 208/208/56 209/209/56 210/210/56 211/211/56
f 212/212/57 213/213/57 214/214/57 215/215/57
f 216/216/58 217/217/58 218/218/58 219/219/58
f 220/220/59 221/221/59 222/222/59 223/223/59
f 224/224/60 225/225/60 226/226/60 227/227/60
f 228/228/61 229/229/61 230/230/61 231/231/61
f 232/232/62 233/233/62 234/234/62 235/235/62
f 236/236/63 237/237/63 238/238/63 239/239/63
f 240/240/64 241/241/64 242/242/64 243/243/64
f 244/244/65 245/245/65 241/241/65 240/240/65
f 246/246/66 247/247/66 248/248/66 249/249/66
f 250/250/67 251/251/67 233/233/67 232/232/67
f 252/252/68 253/253/68 229/229/68 228/228/68
f 254/254/69 255/255/69 217/217/69 216/216/69
f 256/256/70 257/257/70 213/213/70 212/212/70
f 258/258/71 259/259/71 212/212/71 260/260/71
f 261/261/72 262/262/72 209/209/72 208/208/72
f 263/263/73 264/264/73 224/224/73 221/221/73
f 265/265/74 266/266/74 236/236/74 267/267/74
f 253/253/75 268/268/75 232/232/75 229/229/75
f 248/248/76 240/240/76 269/269/76 270/270/76
f 237/237/77 249/249/77 271/271/77 272/272/77
f 255/255/78 273/273/78 220/220/78 217/217/78
f 209/209/79 262/262/79 274/274/79 275/275/79
f 210/210/80 209/209/80 275/275/80 276/276/80
f 277/277/81 278/278/81 279/279/81 280/280/81
f 281/281/82 282/282/82 283/283/82 284/284/82
f 285/285/83 286/286/83 287/287/83 288/288/83
f 289/289/84 290/290/84 291/291/84 292/292/84
f 293/293/85 294/294/85 295/295/85 296/296/85
f 297/297/86 298/298/86 299/299/86 300/300/86
f 301/301/87 302/302/87 303/303/87 304/304/87
f 305/305/88 306/306/88 307/307/88 308/308/88
f 309/309/89 310/310/89 311/311/89 312/312/89
f 313/313/90 314/314/90 310/310/90 309/309/90
f 315/315/91 316/316/91 317/317/91 318/318/91
f 319/319/92 320/320/92 302/302/92 301/301/92
f 321/321/93 322/322/93 298/298/93 297/297/93
f 323/323/94 324/324/94 286/286/94 285/285/94
f 325/325/95 326/326/95 282/282/95 281/281/95
f 327/327/96 328/328/96 281/281/96 329/329/96
f 330/330/97 331/331/97 278/278/97 277/277/97
f 332/332/98 333/333/98 293/293/98 290/290/98
f 334/334/99 335/335/99 305/305/99 336/336/99
f 322/322/100 337/337/100 301/301/100 298/298/100
f 317/317/101 309/309/101 338/338/101 339/339/101
f 306/306/102 318/318/102 340/340/102 341/341/102
f 324/324/103 342/342/103 289/289/103 286/286/103
f 278/278/104 331/331/104 343/343/104 344/344/104
f 279/279/105 278/278/105 344/344/105 345/345/105
f 346/346/106 347/347/106 348/348/106 349/349/106
f 350/350/107 351/351/107 352/352/107 353/353/107
f 354/354/108 355/355/108 356/356/108 357/357/108
f 358/358/109 359/359/109 360/360/109 361/361/109
f 362/362/110 363/363/110 364/364/110 365/365/110
f 366/366/111 367/367/111 368/368/111 369/369/111
f 370/370/112 371/371/112 372/372/112 373/373/112
f 374/374/113 375/375/113 376/376/113 377/377/113
f 378/378/114 379/379/114 380/380/114 381/381/114
f 382/382/115 383/383/115 379/379/115 378/378/115
f 384/384/116 385/385/116 386/386/116 387/387/116
f 388/388/117 389/389/117 371/371/117 370/370/117
f 390/390/118 391/391/118 367/367/118 366/366/118
f 392/392/119 393/393/119 355/355/119 354/354/119
f 394/394/120 395/395/120 351/351/120 350/350/120
f 396/396/121 397/397/121 350/350/121 398/398/121
f 399/399/122 400/400/122 347/347/122 346/346/122
f 401/401/123 402/402/123 362/362/123 359/359/123
f 403/403/124 404/404/124 374/374/124 405/405/124
f 391/391/125 406/406/125 370/370/125 367/367/125
f 386/386/126 378/378/126 407/407/126 408/408/126
f 375/375/127 387/387/127 409/409/127 410/410/127
f 393/393/128 411/411/128 358/358/128 355/355/128
f 347/347/129 400/400/129 412/412/129 413/413/129
f 348/348/130 347/347/130 413/413/130 414/414/130
f 415/415/131 416/416/131 417/417/131 418/418/131
f 419/419/132 420/420/132 421/421/132 422/422/132
f 423/423/133 424/424/133 425/425/133 426/426/133
f 427/427/134 428/428/134 429/429/134 430/430/134
f 431/431/135 432/432/135 433/433/135 434/434/135
f 435/435/136 436/436/136 437/437/136 438/438/136
f 439/439/137 440/440/137 441/441/137 442/442/137
f 443/443/138 444/444/138 445/445/138 446/446/138
f 447/447/139 448/448/139 449/449/139 450/450/139
f 451/451/140 452/452/140 448/448/140 447/447/140
f 453/453/141 454/454/141 455/455/141 456/456/141
f 457/457/142 458/458/142 440/440/142 439/439/142
f 459/459/143 460/460/143 436/436/143 435/435/143
f 461/461/144 462/462/144 424/424/144 423/423/144
f 463/463/145 464/464/145 420/420/145 419/419/145
f 465/465/146 466/466/146 419/419/146 467/467/146
f 468/468/147 469/469/147 416/416/147 415/415/147
f 470/470/148 471/471/148 431/431/148 428/428/148
f 472/472/149 473/473/149 443/443/149 474/474/149
f 460/460/150 475/475/150 439/439/150 436/436/150
f 455/455/151 447/447/151 476/476/151 477/477/151
f 444/444/152 456/456/152 478/478/152 479/479/152
f 462/462/153 480/480/153 427/427/153 424/424/153
f 416/416/154 469/469/154 481/481/154 482/482/154
f 417/417/155 416/416/155 482/482/155 483/483/155
f 484/484/156 485/485/156 486/486/156 487/487/156
f 488/488/157 489/489/157 490/490/157 491/491/157
f 492/492/158 493/493/158 494/494/158 495/495/158
f 496/496/159 497/497/159 498/498/159 499/499/159
f 500/500/160 501/501/160 502/502/160 503/503/160
f 504/504/161 505/505/161 506/506/161 507/507/161
f 508/508/162 509/509/162 510/510/162 511/511/162
f 512/512/163 513/513/163 514/514/163 515/515/163
f 516/516/164 517/517/164 518/518/164 519/519/164
f 520/520/165 521/521/165 517/517/165 516/516/165
f 522/522/166 523/523/166 524/524/166 525/525/166
f 526/526/167 527/527/167 509/509/167 508/508/167
f 528/528/168 529/529/168 505/505/168 504/504/168
f 530/530/169 531/531/169 493/493/169 492/492/169
f 532/532/170 533/533/170 489/489/170 488/488/170
f 534/534/171 535/535/171 488/488/171 536/536/171
f 537/537/172 538/538/172 485/485/172 484/484/172
f 539/539/173 540/540/173 500/500/173 497/497/173
f 541/541/174 542/542/174 512/512/174 543/543/174
f 529/529/175 544/544/175 508/508/175 505/505/175
f 524/524/176 516/516/176 545/545/176 546/546/176
f 513/513/177 525/525/177 547/547/177 548/548/177
f 531/531/178 549/549/178 496/496/178 493/493/178
f 485/485/179 538/538/179 550/550/179 551/551/179
f 486/486/180 485/485/180 551/551/180 552/552/180
f 553/553/181 554/554/181 555/555/181 556/556/181
f 557/557/182 558/558/182 559/559/182 560/560/182
f 561/561/183 562/562/183 563/563/183 564/564/183
f 565/565/184 566/566/184 567/567/184 568/568/184
f 569/569/185 570/570/185 571/571/185 572/572/185
f 573/573/186 574/574/186 575/575/186 576/576/186
f 577/577/187 578/578/187 579/579/187 580/580/187
f 581/581/188 582/582/188 583/583/188 584/584/188
f 585/585/189 586/586/189 587/587/189 588/588/189
f 589/589/190 590/590/190 586/586/190 585/585/190
f 591/591/191 592/592/191 593/593/191 594/594/191
f 595/595/192 596/596/192 578/578/192 577/577/192
f 597/597/193 598/598/193 574/574/193 573/573/193
f 599/599/194 600/600/194 562/562/194 561/561/194
f 601/601/195 602/602/195 558/558/195 557/557/195
f 603/603/196 604/604/196 557/557/196 605/605/196
f 606/606/197 607/607/197 554/554/197 553/553/197
f 608/608/198 609/609/198 569/569/198 566/566/198
f 610/610/199 611/611/199 581/581/199 612/612/199
f 598/598/200 613/613/200 577/577/200 574/574/200
f 593/593/201 585/585/201 614/614/201 615/615/201
f 582/582/202 594/594/202 616/616/202 617/617/202
f 600/600/203 618/618/203 565/565/203 562/562/203
f 554/554/204 607/607/204 619/619/204 620/620/204
f 555/555/205 554/554/205 620/620/205 621/621/205
f 622/622/206 623/623/206 624/624/206 625/625/206
f 626/626/207 627/627/207 628/628/207 629/629/207
f 630/630/208 631/631/208 632/632/208 633/633/208
f 634/634/209 635/635/209 636/636/209 637/637/209
f 638/638/210 639/639/210 640/640/210 641/641/210
f 642/642/211 643/643/211 644/644/211 645/645/211
f 646/646/212 647/647/212 648/648/212 649/649/212
f 650/650/213 651/651/213 652/652/213 653/653/213
f 654/654/214 655/655/214 656/656/214 657/657/214
f 658/658/215 659/659/215 655/655/215 654/654/215
f 660/660/216 661/661/216 662/662/216 663/663/216
f 664/664/217 665/665/217 647/647/217 646/646/217
f 666/666/218 667/667/218 643/643/218 642/642/218
f 668/668/219 669/669/219 631/631/219 630/630/219
f 670/670/220 671/671/220 627/627/220 626/626/220
f 672/672/221 673/673/221 626/626/221 674/674/221
f 675/675/222 676/676/222 623/623/222 622/622/222
f 677/677/223 678/678/223 638/638/223 635/635/223
f 679/679/224 680/680/224 650/650/224 681/681/224
f 667/667/225 682/682/225 646/646/225 643/643/225
f 662/662/226 654/654/226 683/683/226 684/684/226
f 651/651/227 663/663/227 685/685/227 686/686/227
f 669/669/228 687/687/228 634/634/228 631/631/228
f 623/623/229 676/676/229 688/688/229 689/689/229
f 624/624/230 623/623/230 689/689/230 690/690/230
f 691/691/231 692/692/231 693/693/231 694/694/231
f 695/695/232 696/696/232 697/697/232 698/698/232
f 699/699/233 700/700/233 701/701/233 702/702/233
f 703/703/234 704/704/234 705/705/234 706/706/234
f 707/707/235 708/708/235 709/709/235 710/710/235
f 711/711/236 712/712/236 713/713/236 714/714/236
f 715/715/237 716/716/237 717/717/237 718/718/237
f 719/719/238 720/720/238 721/721/238 722/722/238
f 723/723/239 724/724/239 725/725/239 726/726/239
f 727/727/240 728/728/240 724/724/240 723/723/240
f 729/729/241 730/730/241 731/731/241 732/732/241
f 733/733/242 734/734/242 716/716/242 715/715/242
f 735/735/243 736/736/243 712/712/243 711/711/243
f 737/737/244 738/738/244 700/700/244 699/699/244
f 739/739/245 740/740/245 696/696/245 695/695/245
f 741/741/246 742/742/246 695/695/246 743/743/246
f 744/744/247 745/745/247 692/692/247 691/691/247
f 746/746/248 747/747/248 707/707/248 704/704/248
f 748/748/249 749/749/249 719/719/249 750/750/249
f 736/736/250 751/751/250 715/715/250 712/712/250
f 731/731/251 723/723/251 752/752/251 753/753/251
f 720/720/252 732/732/252 754/754/252 755/755/252
f 738/738/253 756/756/253 703/703/253 700/700/253
f 692/692/254 745/745/254 757/757/254 758/758/254
f 693/693/255 692/692/255 758/758/255 759/759/255
f 760/760/256 761/761/256 762/762/256 763/763/256
f 764/764/257 765/765/257 766/766/257 767/767/257
f 768/768/258 769/769/258 770/770/258 771/771/258
f 772/772/259 773/773/259 774/774/259 775/775/259
f 776/776/260 777/777/260 778/778/260 779/779/260
f 780/780/261 781/781/261 782/782/261 783/783/261
f 784/784/262 785/785/262 786/786/262 787/787/262
f 788/788/263 789/789/263 790/790/263 791/791/263
f 792/792/264 793/793/264 794/794/264 795/795/264
f 796/796/265 797/797/265 793/793/265 792/792/265
f 798/798/266 799/799/266 800/800/266 801/801/266
f 802/802/267 803/803/267 785/785/267 784/784/267
f 804/804/268 805/805/268 781/781/268 780/780/268
f 806/806/269 807/807/269 769/769/269 768/768/269
f 808/808/270 809/809/270 765/765/270 764/764/270
f 810/810/271 811/811/271 764/764/271 812/812/271
f 813/813/272 814/814/272 761/761/272 760/760/272
f 815/815/273 816/816/273 776/776/273 773/773/273
f 817/817/274 818/818/274 788/788/274 819/819/274
f 805/805/275 820/820/275 784/784/275 781/781/275
f 800/800/276 792/792/276 821/821/276 822/822/276
f 789/789/277 801/801/277 823/823/277 824/824/277
f 807/807/278 825/825/278 772/772/278 769/769/278
f 761/761/279 814/814/279 826/826/279 827/827/279
f 762/762/280 761/761/280 827/827/280 828/828/280
usemtl Material.028
f 53/53/281 5/5/281 829/829/281 830/830/281
f 42/42/282 41/41/282 831/831/282 64/64/282
f 832/832/283 833/833/283 18/18/283 17/17/283
f 14/14/284 17/17/284 834/834/284 15/15/284
f 44/44/285 835/835/285 60/60/285 26/26/285
f 22/22/286 25/25/286 28/28/286 836/836/286
f 837/837/287 838/838/287 33/33/287 41/41/287
f 10/10/288 13/13/288 839/839/288 840/840/288
f 841/841/289 47/47/289 9/9/289 6/6/289
f 122/122/290 74/74/290 842/842/290 843/843/290
f 111/111/291 110/110/291 844/844/291 133/133/291
f 845/845/292 846/846/292 87/87/292 86/86/292
f 83/83/293 86/86/293 847/847/293 84/84/293
f 113/113/294 848/848/294 129/129/294 95/95/294
f 91/91/295 94/94/295 97/97/295 849/849/295
f 850/850/296 851/851/296 102/102/296 110/110/296
f 79/79/297 82/82/297 852/852/297 853/853/297
f 854/854/298 116/116/298 78/78/298 75/75/298
f 191/191/299 143/143/299 855/855/299 856/856/299
f 180/180/300 179/179/300 857/857/300 202/202/300
f 858/858/292 859/859/292 156/156/292 155/155/292
f 152/152/293 155/155/293 860/860/293 153/153/293
f 182/182/294 861/861/294 198/198/294 164/164/294
f 160/160/301 163/163/301 166/166/301 862/862/301
f 863/863/296 864/864/296 171/171/296 179/179/296
f 148/148/302 151/151/302 865/865/302 866/866/302
f 867/867/298 185/185/298 147/147/298 144/144/298
f 260/260/303 212/212/303 868/868/303 869/869/303
f 249/249/304 248/248/304 870/870/304 271/271/304
f 871/871/305 872/872/305 225/225/305 224/224/305
f 221/221/306 224/224/306 873/873/306 222/222/306
f 251/251/307 874/874/307 267/267/307 233/233/307
f 229/229/308 232/232/308 235/235/308 875/875/308
f 876/876/309 877/877/309 240/240/309 248/248/309
f 217/217/310 220/220/310 878/878/310 879/879/310
f 880/880/311 254/254/311 216/216/311 213/213/311
f 329/329/312 281/281/312 881/881/312 882/882/312
f 318/318/313 317/317/313 883/883/313 340/340/313
f 884/884/314 885/885/314 294/294/314 293/293/314
f 290/290/315 293/293/315 886/886/315 291/291/315
f 320/320/316 887/887/316 336/336/316 302/302/316
f 298/298/317 301/301/317 304/304/317 888/888/317
f 889/889/318 890/890/318 309/309/318 317/317/318
f 286/286/319 289/289/319 891/891/319 892/892/319
f 893/893/320 323/323/320 285/285/320 282/282/320
f 398/398/321 350/350/321 894/894/321 895/895/321
f 387/387/322 386/386/322 896/896/322 409/409/322
f 897/897/323 898/898/323 363/363/323 362/362/323
f 359/359/324 362/362/324 899/899/324 360/360/324
f 389/389/325 900/900/325 405/405/325 371/371/325
f 367/367/326 370/370/326 373/373/326 901/901/326
f 902/902/327 903/903/327 378/378/327 386/386/327
f 355/355/328 358/358/328 904/904/328 905/905/328
f 906/906/329 392/392/329 354/354/329 351/351/329
f 467/467/330 419/419/330 907/907/330 908/908/330
f 456/456/331 455/455/331 909/909/331 478/478/331
f 910/910/332 911/911/332 432/432/332 431/431/332
f 428/428/333 431/431/333 912/912/333 429/429/333
f 458/458/334 913/913/334 474/474/334 440/440/334
f 436/436/335 439/439/335 442/442/335 914/914/335
f 915/915/336 916/916/336 447/447/336 455/455/336
f 424/424/337 427/427/337 917/917/337 918/918/337
f 919/919/338 461/461/338 423/423/338 420/420/338
f 536/536/339 488/488/339 920/920/339 921/921/339
f 525/525/340 524/524/340 922/922/340 547/547/340
f 923/923/341 924/924/341 501/501/341 500/500/341
f 497/497/342 500/500/342 925/925/342 498/498/342
f 527/527/343 926/926/343 543/543/343 509/509/343
f 505/505/344 508/508/344 511/511/344 927/927/344
f 928/928/345 929/929/345 516/516/345 524/524/345
f 493/493/346 496/496/346 930/930/346 931/931/346
f 932/932/347 530/530/347 492/492/347 489/489/347
f 605/605/348 557/557/348 933/933/348 934/934/348
f 594/594/349 593/593/349 935/935/349 616/616/349
f 936/936/350 937/937/350 570/570/350 569/569/350
f 566/566/351 569/569/351 938/938/351 567/567/351
f 596/596/352 939/939/352 612/612/352 578/578/352
f 574/574/353 577/577/353 580/580/353 940/940/353
f 941/941/354 942/942/354 585/585/354 593/593/354
f 562/562/355 565/565/355 943/943/355 944/944/355
f 945/945/356 599/599/356 561/561/356 558/558/356
f 674/674/357 626/626/357 946/946/357 947/947/357
f 663/663/358 662/662/358 948/948/358 685/685/358
f 949/949/359 950/950/359 639/639/359 638/638/359
f 635/635/360 638/638/360 951/951/360 636/636/360
f 665/665/361 952/952/361 681/681/361 647/647/361
f 643/643/362 646/646/362 649/649/362 953/953/362
f 954/954/363 955/955/363 654/654/363 662/662/363
f 631/631/364 634/634/364 956/956/364 957/957/364
f 958/958/365 668/668/365 630/630/365 627/627/365
f 743/743/366 695/695/366 959/959/366 960/960/366
f 732/732/367 731/731/367 961/961/367 754/754/367
f 962/962/368 963/963/368 708/708/368 707/707/368
f 704/704/369 707/707/369 964/964/369 705/705/369
f 734/734/370 965/965/370 750/750/370 716/716/370
f 712/712/371 715/715/371 718/718/371 966/966/371
f 967/967/372 968/968/372 723/723/372 731/731/372
f 700/700/373 703/703/373 969/969/373 970/970/373
f 971/971/374 737/737/374 699/699/374 696/696/374
f 812/812/375 764/764/375 972/972/375 973/973/375
f 801/801/376 800/800/376 974/974/376 823/823/376
f 975/975/377 976/976/377 777/777/377 776/776/377
f 773/773/378 776/776/378 977/977/378 774/774/378
f 803/803/379 978/978/379 819/819/379 785/785/379
f 781/781/380 784/784/380 787/787/380 979/979/380
f 980/980/381 981/981/381 792/792/381 800/800/381
f 769/769/382 772/772/382 982/982/382 983/983/382
f 984/984/383 806/806/383 768/768/383 765/765/383
usemtl Material.022
f 34/34/384 1/1/384 4/4/384 35/35/384
f 985/985/385 54/54/385 1/1/385 34/34/385
f 59/59/386 986/986/386 30/30/386 29/29/386
f 987/987/387 988/988/387 14/14/387 13/13/387
f 989/989/388 45/45/388 21/21/388 18/18/388
f 18/18/389 21/21/389 24/24/389 990/990/389
f 60/60/390 29/29/390 32/32/390 991/991/390
f 26/26/391 60/60/391 992/992/391 993/993/391
f 994/994/392 995/995/392 42/42/392 30/30/392
f 6/6/393 9/9/393 996/996/393 997/997/393
f 103/103/394 70/70/394 73/73/394 104/104/394
f 998/998/395 123/123/395 70/70/395 103/103/395
f 128/128/396 999/999/396 99/99/396 98/98/396
f 1000/1000/397 1001/1001/397 83/83/397 82/82/397
f 1002/1002/398 114/114/398 90/90/398 87/87/398
f 87/87/399 90/90/399 93/93/399 1003/1003/399
f 129/129/400 98/98/400 101/101/400 1004/1004/400
f 95/95/401 129/129/401 1005/1005/401 1006/1006/401
f 1007/1007/402 1008/1008/402 111/111/402 99/99/402
f 75/75/403 78/78/403 1009/1009/403 1010/1010/403
f 172/172/394 139/139/394 142/142/394 173/173/394
f 1011/1011/395 192/192/395 139/139/395 172/172/395
f 197/197/404 1012/1012/404 168/168/404 167/167/404
f 1013/1013/405 1014/1014/405 152/152/405 151/151/405
f 1015/1015/398 183/183/398 159/159/398 156/156/398
f 156/156/399 159/159/399 162/162/399 1016/1016/399
f 198/198/400 167/167/400 170/170/400 1017/1017/400
f 164/164/406 198/198/406 1018/1018/406 1019/1019/406
f 1020/1020/402 1021/1021/402 180/180/402 168/168/402
f 144/144/407 147/147/407 1022/1022/407 1023/1023/407
f 241/241/408 208/208/408 211/211/408 242/242/408
f 1024/1024/409 261/261/409 208/208/409 241/241/409
f 266/266/410 1025/1025/410 237/237/410 236/236/410
f 1026/1026/411 1027/1027/411 221/221/411 220/220/411
f 1028/1028/412 252/252/412 228/228/412 225/225/412
f 225/225/413 228/228/413 231/231/413 1029/1029/413
f 267/267/414 236/236/414 239/239/414 1030/1030/414
f 233/233/415 267/267/415 1031/1031/415 1032/1032/415
f 1033/1033/416 1034/1034/416 249/249/416 237/237/416
f 213/213/417 216/216/417 1035/1035/417 1036/1036/417
f 310/310/418 277/277/418 280/280/418 311/311/418
f 1037/1037/419 330/330/419 277/277/419 310/310/419
f 335/335/420 1038/1038/420 306/306/420 305/305/420
f 1039/1039/421 1040/1040/421 290/290/421 289/289/421
f 1041/1041/422 321/321/422 297/297/422 294/294/422
f 294/294/423 297/297/423 300/300/423 1042/1042/423
f 336/336/424 305/305/424 308/308/424 1043/1043/424
f 302/302/425 336/336/425 1044/1044/425 1045/1045/425
f 1046/1046/426 1047/1047/426 318/318/426 306/306/426
f 282/282/427 285/285/427 1048/1048/427 1049/1049/427
f 379/379/428 346/346/428 349/349/428 380/380/428
f 1050/1050/429 399/399/429 346/346/429 379/379/429
f 404/404/430 1051/1051/430 375/375/430 374/374/430
f 1052/1052/431 1053/1053/431 359/359/431 358/358/431
f 1054/1054/432 390/390/432 366/366/432 363/363/432
f 363/363/433 366/366/433 369/369/433 1055/1055/433
f 405/405/434 374/374/434 377/377/434 1056/1056/434
f 371/371/435 405/405/435 1057/1057/435 1058/1058/435
f 1059/1059/436 1060/1060/436 387/387/436 375/375/436
f 351/351/437 354/354/437 1061/1061/437 1062/1062/437
f 448/448/438 415/415/438 418/418/438 449/449/438
f 1063/1063/439 468/468/439 415/415/439 448/448/439
f 473/473/440 1064/1064/440 444/444/440 443/443/440
f 1065/1065/441 1066/1066/441 428/428/441 427/427/441
f 1067/1067/442 459/459/442 435/435/442 432/432/442
f 432/432/443 435/435/443 438/438/443 1068/1068/443
f 474/474/444 443/443/444 446/446/444 1069/1069/444
f 440/440/445 474/474/445 1070/1070/445 1071/1071/445
f 1072/1072/446 1073/1073/446 456/456/446 444/444/446
f 420/420/447 423/423/447 1074/1074/447 1075/1075/447
f 517/517/448 484/484/448 487/487/448 518/518/448
f 1076/1076/449 537/537/449 484/484/449 517/517/449
f 542/542/450 1077/1077/450 513/513/450 512/512/450
f 1078/1078/451 1079/1079/451 497/497/451 496/496/451
f 1080/1080/452 528/528/452 504/504/452 501/501/452
f 501/501/453 504/504/453 507/507/453 1081/1081/453
f 543/543/454 512/512/454 515/515/454 1082/1082/454
f 509/509/455 543/543/455 1083/1083/455 1084/1084/455
f 1085/1085/456 1086/1086/456 525/525/456 513/513/456
f 489/489/457 492/492/457 1087/1087/457 1088/1088/457
f 586/586/458 553/553/458 556/556/458 587/587/458
f 1089/1089/459 606/606/459 553/553/459 586/586/459
f 611/611/460 1090/1090/460 582/582/460 581/581/460
f 1091/1091/461 1092/1092/461 566/566/461 565/565/461
f 1093/1093/462 597/597/462 573/573/462 570/570/462
f 570/570/463 573/573/463 576/576/463 1094/1094/463
f 612/612/464 581/581/464 584/584/464 1095/1095/464
f 578/578/465 612/612/465 1096/1096/465 1097/1097/465
f 1098/1098/466 1099/1099/466 594/594/466 582/582/466
f 558/558/467 561/561/467 1100/1100/467 1101/1101/467
f 655/655/468 622/622/468 625/625/468 656/656/468
f 1102/1102/469 675/675/469 622/622/469 655/655/469
f 680/680/470 1103/1103/470 651/651/470 650/650/470
f 1104/1104/471 1105/1105/471 635/635/471 634/634/471
f 1106/1106/472 666/666/472 642/642/472 639/639/472
f 639/639/473 642/642/473 645/645/473 1107/1107/473
f 681/681/474 650/650/474 653/653/474 1108/1108/474
f 647/647/475 681/681/475 1109/1109/475 1110/1110/475
f 1111/1111/476 1112/1112/476 663/663/476 651/651/476
f 627/627/477 630/630/477 1113/1113/477 1114/1114/477
f 724/724/478 691/691/478 694/694/478 725/725/478
f 1115/1115/479 744/744/479 691/691/479 724/724/479
f 749/749/480 1116/1116/480 720/720/480 719/719/480
f 1117/1117/481 1118/1118/481 704/704/481 703/703/481
f 1119/1119/482 735/735/482 711/711/482 708/708/482
f 708/708/483 711/711/483 714/714/483 1120/1120/483
f 750/750/484 719/719/484 722/722/484 1121/1121/484
f 716/716/485 750/750/485 1122/1122/485 1123/1123/485
f 1124/1124/486 1125/1125/486 732/732/486 720/720/486
f 696/696/487 699/699/487 1126/1126/487 1127/1127/487
f 793/793/488 760/760/488 763/763/488 794/794/488
f 1128/1128/489 813/813/489 760/760/489 793/793/489
f 818/818/490 1129/1129/490 789/789/490 788/788/490
f 1130/1130/491 1131/1131/491 773/773/491 772/772/491
f 1132/1132/492 804/804/492 780/780/492 777/777/492
f 777/777/493 780/780/493 783/783/493 1133/1133/493
f 819/819/494 788/788/494 791/791/494 1134/1134/494
f 785/785/495 819/819/495 1135/1135/495 1136/1136/495
f 1137/1137/496 1138/1138/496 801/801/496 789/789/496
f 765/765/497 768/768/497 1139/1139/497 1140/1140/497
