mtllib LOW_POLY_set.mtl
o lp_conifer4_Cylinder_001
v -8.548271 2.427415 -14.196710
v -7.032546 2.535696 -13.580830
v -6.990675 1.733643 -12.374526
v -9.417432 2.067128 -13.396118
v -7.009025 2.543405 -18.185043
v -8.644567 2.864462 -17.474380
v -8.011174 4.475870 -16.709318
v -7.021824 4.245023 -17.028484
v -7.044374 2.133384 -18.062923
v -8.556234 2.156594 -17.213884
v -8.933251 1.708390 -18.311068
v -7.061224 1.280651 -19.173260
v -5.520116 2.531798 -14.214704
v -4.896945 2.418007 -15.727015
v -3.823423 1.860687 -15.887405
v -4.503428 1.895064 -13.237160
v -9.179405 2.270385 -15.701572
v -10.481422 1.532943 -15.822200
v -5.528078 2.260978 -17.231878
v -5.082759 1.702404 -18.283737
v -4.701548 1.528199 -18.128538
v -6.641754 1.724702 -12.521085
v -9.429685 1.538905 -18.102551
v -4.825545 3.703194 -13.574352
v -6.084023 4.339258 -14.791676
v -5.283482 4.726614 -14.294614
v -9.499279 2.766405 -15.794781
v -8.804277 2.884027 -14.116874
v -7.936995 4.472525 -14.791884
v -8.325445 4.433492 -15.718404
v -7.045525 2.723652 -13.174256
v -5.385409 3.216987 -14.251931
v -7.008567 4.433492 -14.408020
v -4.662098 2.759976 -15.857815
v -5.524159 2.572150 -17.577192
v -6.093398 4.205992 -16.644623
v -5.704947 4.245023 -15.718104
v -5.504335 5.041725 -17.331818
v -6.861239 5.112493 -17.919880
v -6.833186 6.568689 -17.113932
v -5.915957 6.544488 -16.579069
v -8.774296 4.167893 -17.891235
v -7.152856 3.950377 -18.594814
v -6.972054 3.519759 -12.935745
v -4.959509 4.114863 -17.767946
v -3.909516 3.566471 -15.870592
v -6.595671 3.915578 -18.483574
v -9.884422 3.875299 -15.973072
v -8.726747 4.000705 -13.512063
v -7.208519 6.426033 -14.367829
v -6.181355 6.443615 -14.637281
v -5.674803 5.487973 -13.694672
v -7.346944 5.905759 -13.570525
v -8.453504 5.139400 -17.364882
v -8.928447 5.309947 -15.741116
v -8.395744 6.502045 -15.928555
v -7.860348 6.551109 -16.844481
v -8.492363 4.874011 -14.132854
v -6.815833 4.705757 -13.548002
v -8.125750 6.450236 -14.902696
v -4.804957 4.820541 -15.846617
v -5.645959 6.492680 -15.553206
v -6.825895 7.261783 -17.255768
v -7.999294 7.225789 -16.936970
v -7.605861 8.347518 -16.450552
v -6.957757 8.316576 -16.647848
v -5.326445 5.732871 -17.203497
v -4.805632 5.855446 -15.447761
v -6.719141 6.193020 -17.943377
v -9.236071 6.303841 -16.034004
v -8.459237 5.965374 -17.618031
v -8.588108 5.821738 -14.268214
v -4.993988 5.823636 -15.126275
v -8.857244 5.867535 -14.604534
v -7.723818 8.472719 -15.209305
v -7.124571 8.493635 -14.892459
v -7.211369 8.102084 -14.019672
v -8.451178 8.323697 -14.728094
v -8.523843 7.380556 -15.742521
v -8.374402 6.839057 -14.733367
v -7.923176 8.412194 -15.854689
v -7.381169 6.980614 -14.076140
v -6.147727 6.853658 -14.320463
v -6.476465 8.462692 -15.089756
v -5.519647 7.034814 -15.356449
v -5.824485 7.104623 -16.504389
v -6.358508 8.337494 -16.331003
v -6.159151 8.398016 -15.685622
v -6.393697 9.112718 -16.429865
v -6.861275 8.838224 -16.885809
v -6.892097 10.980732 -15.994967
v -5.478578 8.178720 -15.730426
v -5.797874 7.992424 -14.485525
v -8.196197 8.011144 -17.116796
v -6.931206 7.889452 -17.432785
v -8.783861 8.326665 -15.929082
v -6.150419 7.992318 -14.221080
v -5.724636 7.799053 -16.811516
v -6.553347 7.887043 -17.236845
v -7.700988 9.145033 -16.584093
v -7.850798 9.626957 -15.868119
v -7.603406 9.699347 -15.280347
v -7.125095 9.647215 -15.066231
v -6.627233 9.620817 -15.249421
v -6.365470 9.566544 -15.782295
v -4.605779 3.655159 -14.097054
v -7.338415 3.090315 -16.039877
v -7.461702 3.090315 -15.740141
v -7.037199 3.090315 -15.317732
v -6.738077 3.090315 -15.442501
v -6.614789 3.090315 -15.742238
v -6.739558 3.090315 -16.041357
v -7.039293 3.090315 -16.164646
v -7.336934 3.090315 -15.441021
v -9.715730 3.801409 -15.374077
v -6.648417 1.536062 -16.028303
v -6.458151 1.552394 -15.711695
v -6.547515 1.558587 -15.352478
v -6.864161 1.551015 -15.161079
v -7.222601 1.534112 -15.249619
v -7.412868 1.517781 -15.566228
v -7.323504 1.511588 -15.925442
v -7.006859 1.519159 -16.116840
v -7.481869 0.144911 -16.182623
v -7.039793 0.144911 -16.367020
v -7.664076 0.144911 -15.739642
v -7.479680 0.144911 -15.297567
v -7.036698 0.144911 -15.115360
v -6.594622 0.144911 -15.299757
v -6.412416 0.144911 -15.742738
v -6.596811 0.144911 -16.184811
vt 0.839381 0.801626
vt 0.839907 0.801663
vt 0.839921 0.801385
vt 0.839080 0.801501
vt 0.839915 0.801666
vt 0.839348 0.801777
vt 0.839568 0.802336
vt 0.839911 0.802256
vt 0.839903 0.801524
vt 0.839379 0.801532
vt 0.839248 0.801376
vt 0.839897 0.801228
vt 0.840431 0.801662
vt 0.840648 0.801622
vt 0.841020 0.801429
vt 0.840784 0.801441
vt 0.839162 0.801571
vt 0.838711 0.801316
vt 0.840429 0.801568
vt 0.840583 0.801374
vt 0.840715 0.801314
vt 0.840042 0.801382
vt 0.839076 0.801318
vt 0.840672 0.802068
vt 0.840236 0.802289
vt 0.840514 0.802423
vt 0.839051 0.801743
vt 0.839293 0.801784
vt 0.839593 0.802335
vt 0.839459 0.802321
vt 0.839902 0.801728
vt 0.840478 0.801900
vt 0.839915 0.802321
vt 0.840729 0.801741
vt 0.840430 0.801676
vt 0.840233 0.802243
vt 0.840367 0.802256
vt 0.840437 0.802532
vt 0.839966 0.802557
vt 0.839976 0.803062
vt 0.840294 0.803054
vt 0.839303 0.802229
vt 0.839865 0.802154
vt 0.839928 0.802005
vt 0.840626 0.802211
vt 0.840990 0.802021
vt 0.840058 0.802142
vt 0.838918 0.802128
vt 0.839319 0.802171
vt 0.839846 0.803012
vt 0.840202 0.803019
vt 0.840378 0.802687
vt 0.839798 0.802832
vt 0.839414 0.802566
vt 0.839249 0.802625
vt 0.839434 0.803039
vt 0.839620 0.803056
vt 0.839401 0.802474
vt 0.839982 0.802416
vt 0.839528 0.803021
vt 0.840679 0.802456
vt 0.840388 0.803036
vt 0.839979 0.803302
vt 0.839572 0.803290
vt 0.839708 0.803679
vt 0.839933 0.803668
vt 0.840499 0.802772
vt 0.840679 0.802815
vt 0.840016 0.802932
vt 0.839143 0.802970
vt 0.839412 0.802853
vt 0.839368 0.802803
vt 0.840614 0.802804
vt 0.839274 0.802819
vt 0.839667 0.803722
vt 0.839875 0.803729
vt 0.839845 0.803594
vt 0.839415 0.803671
vt 0.839390 0.803343
vt 0.839442 0.803156
vt 0.839598 0.803701
vt 0.839786 0.803205
vt 0.840214 0.803161
vt 0.840100 0.803719
vt 0.840432 0.803224
vt 0.840326 0.803248
vt 0.840141 0.803675
vt 0.840210 0.803696
vt 0.840129 0.803944
vt 0.839966 0.803849
vt 0.839956 0.804592
vt 0.840446 0.803620
vt 0.840335 0.803556
vt 0.839503 0.803562
vt 0.839942 0.803520
vt 0.839300 0.803672
vt 0.840213 0.803556
vt 0.840361 0.803489
vt 0.840073 0.803519
vt 0.839675 0.803955
vt 0.839623 0.804123
vt 0.839709 0.804148
vt 0.839875 0.804130
vt 0.840048 0.804120
vt 0.840138 0.804102
vt 0.840749 0.802052
vt 0.839801 0.801856
vt 0.839758 0.801856
vt 0.839905 0.801856
vt 0.840009 0.801856
vt 0.840052 0.801856
vt 0.840009 0.801856
vt 0.839905 0.801856
vt 0.839801 0.801856
vt 0.838976 0.802102
vt 0.801208 0.459010
vt 0.801122 0.460483
vt 0.801240 0.460483
vt 0.801388 0.459026
vt 0.801123 0.460483
vt 0.801304 0.459031
vt 0.800840 0.460483
vt 0.801004 0.459024
vt 0.800556 0.460483
vt 0.800664 0.459008
vt 0.800438 0.460483
vt 0.800484 0.458993
vt 0.800554 0.460483
vt 0.800568 0.458987
vt 0.800838 0.460483
vt 0.800868 0.458994
vt 0.800418 0.457692
vt 0.800837 0.457692
vt 0.800246 0.457692
vt 0.800420 0.457692
vt 0.800840 0.457692
vt 0.801259 0.457692
vt 0.801432 0.457692
vt 0.801257 0.457692
vn 0.1379 -0.8807 -0.4532
vn -0.2151 0.5198 -0.8268
vn 0.1306 -0.8642 0.4860
vn -0.4594 -0.8811 -0.1125
vn 0.4426 -0.8961 -0.0333
vn -0.1259 -0.8420 0.5246
vn -0.4256 -0.8593 0.2838
vn -0.1473 -0.8515 -0.5033
vn 0.4405 -0.8705 0.2193
vn 0.5979 -0.2649 -0.7565
vn -0.7847 0.5460 0.2936
vn 0.3429 0.5548 0.7580
vn 0.7509 0.5256 -0.3999
vn 0.3213 0.5423 -0.7763
vn -0.7927 0.5190 -0.3197
vn -0.3403 0.5391 0.7704
vn 0.7945 0.5649 0.2229
vn 0.4072 0.4664 -0.7852
vn -0.0738 -0.9688 0.2364
vn -0.1241 -0.8844 -0.4499
vn -0.2689 -0.9625 -0.0367
vn -0.0058 -0.9875 0.1575
vn 0.3223 -0.9454 0.0490
vn -0.0111 -0.8919 -0.4521
vn -0.2025 -0.7675 -0.6082
vn -0.8410 0.4089 -0.3541
vn -0.3364 0.4069 0.8493
vn 0.8264 0.4293 0.3644
vn -0.2664 0.4515 -0.8516
vn -0.8697 0.3880 0.3050
vn 0.3309 0.4115 0.8492
vn 0.8564 0.4314 -0.2837
vn -0.2434 0.4589 -0.8545
vn -0.6587 -0.7237 0.2057
vn -0.4133 -0.7930 0.4476
vn 0.3248 -0.9049 0.2752
vn 0.3138 -0.8005 -0.5106
vn -0.5486 -0.7319 -0.4042
vn 0.1770 -0.8667 0.4663
vn 0.3996 -0.8732 -0.2792
vn 0.0800 -0.9414 -0.3277
vn -0.8328 0.4592 0.3091
vn 0.2399 0.4440 0.8633
vn 0.8883 0.3867 -0.2477
vn 0.5305 0.4082 -0.7429
vn -0.7911 0.4392 -0.4258
vn -0.4992 0.4484 0.7414
vn 0.7691 0.4265 0.4760
vn 0.5548 0.3262 -0.7654
vn -0.3803 -0.9048 -0.1913
vn 0.0496 -0.8917 0.4499
vn 0.1435 -0.9896 -0.0105
vn -0.1710 -0.8922 -0.4181
vn -0.3746 -0.8707 0.3186
vn -0.2861 -0.8320 0.4753
vn 0.1376 -0.9522 0.2728
vn -0.7380 0.4780 -0.4762
vn -0.2789 0.5812 0.7645
vn 0.8474 0.3725 0.3783
vn -0.1892 0.3747 -0.9076
vn -0.7773 0.5745 0.2564
vn 0.3219 0.5026 0.8024
vn 0.9185 0.3040 -0.2531
vn 0.7869 0.4977 -0.3648
vn 0.2449 0.5515 0.7974
vn -0.7891 0.5681 0.2338
vn -0.1531 0.4872 -0.8597
vn 0.9853 -0.1338 0.1061
vn -0.3330 0.5325 0.7782
vn -0.6945 0.5270 -0.4898
vn 0.4583 0.4463 -0.7686
vn 0.7455 0.4517 0.4901
vn -0.7202 0.5416 -0.4335
vn 0.5454 0.5122 -0.6635
vn 0.8429 0.4774 -0.2483
vn 0.1944 0.4455 0.8739
vn -0.8187 0.4493 0.3575
vn -0.2290 0.5187 -0.8237
vn 0.7757 0.5696 -0.2716
vn 0.2745 0.5238 0.8064
vn -0.2739 0.5303 -0.8023
vn -0.4731 -0.1388 0.8700
vn -0.1801 0.5302 0.8285
vn -0.7852 0.5218 -0.3334
vn 0.3272 0.5018 -0.8007
vn 0.7413 0.6494 0.1694
vn -0.2503 0.6675 0.7013
vn -0.7322 0.5920 -0.3369
vn 0.9301 0.2676 0.2517
vn 0.6477 0.6649 -0.3719
vn -0.9446 -0.3083 0.1124
vn -0.7350 0.6438 0.2128
vn -0.2135 0.6074 -0.7652
vn 0.0500 0.9912 0.1222
vn 0.4310 -0.8719 0.2323
vn -0.1284 -0.9447 -0.3017
vn -0.3681 -0.9002 0.2326
vn -0.1707 -0.8804 0.4425
vn 0.4160 -0.9043 -0.0956
vn -0.3536 -0.9313 -0.0872
vn 0.2272 -0.8672 0.4432
vn 0.1811 -0.9339 -0.3081
vn -0.7942 0.4898 0.3596
vn 0.3823 -0.9174 -0.1104
vn -0.9611 -0.0903 -0.2610
vn 0.9744 -0.2213 -0.0399
vn -0.1369 -0.0686 0.9882
vn -0.1750 -0.1456 -0.9737
vn 0.6329 0.1296 -0.7633
vn -0.3113 -0.2593 0.9142
vn 0.2374 0.6306 -0.7389
vn -0.8112 -0.4298 -0.3965
vn 0.7535 -0.1422 -0.6418
vn -0.9459 0.0014 0.3245
vn 0.2294 0.6486 0.7257
vn 0.9982 0.0590 0.0046
vn -0.3709 -0.9248 -0.0850
vn 0.7858 0.5523 0.2784
vn -0.5046 0.3986 0.7658
vn -0.7150 -0.1609 -0.6804
vn 0.4447 -0.1030 0.8897
vn -0.8484 -0.0817 -0.5230
vn -0.6578 0.0182 0.7529
vn 0.7926 0.5317 0.2985
vn 0.9467 0.0802 -0.3119
vn 0.8877 0.0647 -0.4559
vn 0.9453 0.1189 0.3039
vn 0.4520 0.1245 0.8833
vn -0.3072 0.0781 0.9484
vn -0.8903 0.0067 0.4553
vn -0.9507 -0.0473 -0.3064
vn -0.4556 -0.0526 -0.8886
vn 0.3065 -0.0064 -0.9518
vn -0.4370 0.1931 -0.8785
vn -0.9297 0.1887 -0.3162
vn -0.8903 0.1288 0.4369
vn -0.3206 0.0485 0.9460
vn 0.4439 -0.0033 0.8961
vn 0.9472 0.0020 0.3206
vn 0.8944 0.0608 -0.4430
vn 0.3142 0.1402 -0.9389
usemtl Material.007
f 1/1/1 2/2/1 3/3/1 4/4/1
f 5/5/2 6/6/2 7/7/2 8/8/2
f 9/9/3 10/10/3 11/11/3 12/12/3
f 13/13/4 14/14/4 15/15/4 16/16/4
f 17/17/5 1/1/5 4/4/5 18/18/5
f 19/19/6 9/9/6 12/12/6 20/20/6
f 14/14/7 19/19/7 21/21/7 15/15/7
f 2/2/8 13/13/8 16/16/8 22/22/8
f 10/10/9 17/17/9 18/18/9 23/23/9
f 24/24/10 25/25/10 26/26/10
f 27/27/11 28/28/11 29/29/11 30/30/11
f 31/31/12 32/32/12 25/25/12 33/33/12
f 34/34/13 35/35/13 36/36/13 37/37/13
f 35/35/14 5/5/14 8/8/14 36/36/14
f 6/6/15 27/27/15 30/30/15 7/7/15
f 28/28/16 31/31/16 33/33/16 29/29/16
f 32/32/17 34/34/17 37/37/17 25/25/17
f 38/38/18 39/39/18 40/40/18 41/41/18
f 8/8/19 7/7/19 42/42/19 43/43/19
f 33/33/20 25/25/20 24/24/20 44/44/20
f 37/37/21 36/36/21 45/45/21 46/46/21
f 36/36/22 8/8/22 47/47/22 45/45/22
f 7/7/23 30/30/23 48/48/23 42/42/23
f 29/29/24 33/33/24 44/44/24 49/49/24
f 50/50/25 51/51/25 52/52/25 53/53/25
f 54/54/26 55/55/26 56/56/26 57/57/26
f 58/58/27 59/59/27 50/50/27 60/60/27
f 26/26/28 61/61/28 62/62/28 51/51/28
f 39/39/29 54/54/29 57/57/29 40/40/29
f 55/55/30 58/58/30 60/60/30 56/56/30
f 59/59/31 26/26/31 51/51/31 50/50/31
f 61/61/32 38/38/32 41/41/32 62/62/32
f 63/63/33 64/64/33 65/65/33 66/66/33
f 62/62/34 41/41/34 67/67/34 68/68/34
f 41/41/35 40/40/35 69/69/35 67/67/35
f 57/57/36 56/56/36 70/70/36 71/71/36
f 60/60/37 50/50/37 53/53/37 72/72/37
f 51/51/38 62/62/38 73/73/38 52/52/38
f 40/40/39 57/57/39 71/71/39 69/69/39
f 56/56/40 60/60/40 74/74/40 70/70/40
f 75/75/41 76/76/41 77/77/41 78/78/41
f 79/79/42 80/80/42 75/75/42 81/81/42
f 82/82/43 83/83/43 84/84/43 76/76/43
f 85/85/44 86/86/44 87/87/44 88/88/44
f 86/86/45 63/63/45 66/66/45 87/87/45
f 64/64/46 79/79/46 81/81/46 65/65/46
f 80/80/47 82/82/47 76/76/47 75/75/47
f 83/83/48 85/85/48 88/88/48 84/84/48
f 89/89/49 90/90/49 91/91/49
f 84/84/50 88/88/50 92/92/50 93/93/50
f 66/66/51 65/65/51 94/94/51 95/95/51
f 81/81/52 75/75/52 78/78/52 96/96/52
f 76/76/53 84/84/53 97/97/53 77/77/53
f 88/88/54 87/87/54 98/98/54 92/92/54
f 87/87/55 66/66/55 99/99/55 98/98/55
f 65/65/56 81/81/56 96/96/56 94/94/56
f 100/100/57 101/101/57 91/91/57
f 102/102/58 103/103/58 91/91/58
f 104/104/59 105/105/59 91/91/59
f 90/90/60 100/100/60 91/91/60
f 101/101/61 102/102/61 91/91/61
f 103/103/62 104/104/62 91/91/62
f 105/105/63 89/89/63 91/91/63
f 92/92/64 98/98/64 89/89/64 105/105/64
f 77/77/65 97/97/65 104/104/65 103/103/65
f 96/96/66 78/78/66 102/102/66 101/101/66
f 95/95/67 94/94/67 100/100/67 90/90/67
f 66/66/68 95/95/68 90/90/68
f 78/78/69 77/77/69 103/103/69 102/102/69
f 94/94/70 96/96/70 101/101/70 100/100/70
f 98/98/71 99/99/71 90/90/71 89/89/71
f 52/52/72 73/73/72 85/85/72 83/83/72
f 71/71/73 70/70/73 79/79/73 64/64/73
f 67/67/74 69/69/74 63/63/74 86/86/74
f 68/68/75 67/67/75 86/86/75 85/85/75
f 53/53/76 52/52/76 83/83/76 82/82/76
f 70/70/77 74/74/77 80/80/77 79/79/77
f 69/69/78 71/71/78 64/64/78 63/63/78
f 46/46/79 45/45/79 38/38/79 61/61/79
f 44/44/80 24/24/80 26/26/80 59/59/80
f 43/43/81 42/42/81 54/54/81 39/39/81
f 26/26/82 25/25/82 106/106/82
f 49/49/83 44/44/83 59/59/83 58/58/83
f 42/42/84 48/48/84 55/55/84 54/54/84
f 45/45/85 47/47/85 39/39/85 38/38/85
f 16/16/86 15/15/86 34/34/86 32/32/86
f 4/4/87 3/3/87 31/31/87 28/28/87
f 23/23/88 18/18/88 27/27/88 6/6/88
f 19/19/89 20/20/89 35/35/89
f 15/15/90 21/21/90 35/35/90 34/34/90
f 2/2/91 22/22/91 31/31/91
f 18/18/92 4/4/92 28/28/92 27/27/92
f 12/12/93 11/11/93 6/6/93 5/5/93
f 85/85/94 86/86/94 63/63/94 64/64/94 79/79/94 80/80/94 82/82/94 83/83/94
f 107/107/95 108/108/95 17/17/95 10/10/95
f 109/109/96 110/110/96 13/13/96 2/2/96
f 111/111/97 112/112/97 19/19/97 14/14/97
f 112/112/98 113/113/98 9/9/98 19/19/98
f 108/108/99 114/114/99 1/1/99 17/17/99
f 110/110/100 111/111/100 14/14/100 13/13/100
f 113/113/101 107/107/101 10/10/101 9/9/101
f 114/114/102 109/109/102 2/2/102 1/1/102
f 55/55/103 115/115/103 49/49/103 58/58/103
f 115/115/104 30/30/104 29/29/104 49/49/104
f 47/47/105 8/8/105 39/39/105
f 8/8/106 43/43/106 39/39/106
f 30/30/107 55/55/107 48/48/107
f 55/55/108 30/30/108 115/115/108
f 73/73/109 62/62/109 85/85/109
f 68/68/110 85/85/110 62/62/110
f 35/35/111 20/20/111 12/12/111 5/5/111
f 35/35/112 21/21/112 19/19/112
f 6/6/113 10/10/113 23/23/113
f 10/10/114 6/6/114 11/11/114
f 31/31/115 22/22/115 16/16/115 32/32/115
f 3/3/116 2/2/116 31/31/116
f 106/106/117 25/25/117 37/37/117 46/46/117
f 26/26/118 106/106/118 46/46/118 61/61/118
f 80/80/119 72/72/119 53/53/119 82/82/119
f 60/60/120 72/72/120 80/80/120
f 80/80/121 74/74/121 60/60/121
f 99/99/122 66/66/122 90/90/122
f 104/104/123 84/84/123 93/93/123
f 104/104/124 93/93/124 92/92/124 105/105/124
f 84/84/125 104/104/125 97/97/125
usemtl Material.001
f 116/116/126 112/117/126 111/118/126 117/119/126
f 117/119/127 111/118/127 110/120/127 118/121/127
f 118/121/128 110/120/128 109/122/128 119/123/128
f 119/123/129 109/122/129 114/124/129 120/125/129
f 120/125/130 114/124/130 108/126/130 121/127/130
f 121/127/131 108/126/131 107/128/131 122/129/131
f 122/129/132 107/128/132 113/130/132 123/131/132
f 123/131/133 113/130/133 112/117/133 116/116/133
f 124/132/134 122/129/134 123/131/134 125/133/134
f 126/134/135 121/127/135 122/129/135 124/132/135
f 127/135/136 120/125/136 121/127/136 126/134/136
f 128/136/137 119/123/137 120/125/137 127/135/137
f 129/137/138 118/121/138 119/123/138 128/136/138
f 130/138/139 117/119/139 118/121/139 129/137/139
f 131/139/140 116/116/140 117/119/140 130/138/140
f 125/133/141 123/131/141 116/116/141 131/139/141
