mtllib LOW_POLY_set.mtl
o lp_conifer5_Cylinder_005
v 25.486315 5.852505 -13.581263
v 27.112148 5.871516 -14.213820
v 27.991779 5.075825 -13.388260
v 25.434912 5.504274 -12.400692
v 23.634193 6.047379 -17.688374
v 22.986464 6.305422 -15.840621
v 24.219090 8.127448 -15.741175
v 24.652782 7.962791 -16.582821
v 23.825302 5.570530 -17.382622
v 23.352489 5.593740 -15.714378
v 22.311335 4.963329 -16.226191
v 23.030174 4.535589 -18.157801
v 27.878601 5.757478 -15.729942
v 27.119164 5.753696 -17.241508
v 27.746916 5.212808 -18.112419
v 29.403887 5.026580 -15.754134
v 23.977470 5.707533 -14.202816
v 22.969444 4.970090 -13.369933
v 25.486492 5.697981 -17.863062
v 25.060047 4.957344 -18.922783
v 25.439739 4.965345 -19.081661
v 28.184437 5.027040 -13.738261
v 22.106516 4.976052 -15.728216
v 28.668558 7.286576 -15.765946
v 26.719753 7.969416 -15.741175
v 27.716747 8.348867 -15.953501
v 23.595522 6.199675 -13.953562
v 25.359173 6.287685 -13.217905
v 25.498791 7.991941 -14.550914
v 24.652782 8.010575 -14.899533
v 27.481758 6.058368 -13.820148
v 28.032511 6.493377 -15.856009
v 26.350872 7.988408 -14.899533
v 27.389509 6.037264 -17.752232
v 25.305719 6.015551 -18.471439
v 25.498791 7.936387 -16.931440
v 26.352066 7.950984 -16.582821
v 25.473675 8.795005 -18.092505
v 23.970514 8.912997 -17.475977
v 24.486813 10.270420 -16.720535
v 25.467295 10.256875 -17.128027
v 22.720142 7.896570 -16.040709
v 23.373230 7.679054 -17.683136
v 27.479635 7.129065 -13.799218
v 25.511229 7.843541 -18.644098
v 27.634102 7.262198 -18.039772
v 23.846657 7.644256 -17.997295
v 23.286211 7.553324 -13.897979
v 25.769838 7.558325 -12.970060
v 26.447773 9.939390 -14.761818
v 26.853903 10.064430 -15.743004
v 27.913622 9.153310 -15.576876
v 26.999321 9.410844 -14.169658
v 23.318802 8.837357 -15.893875
v 24.072809 8.826960 -14.407861
v 24.486813 10.046205 -14.759233
v 24.080687 10.198542 -15.739349
v 25.543892 8.247000 -13.678815
v 27.128918 8.222496 -14.343408
v 25.467295 9.917597 -14.354325
v 27.020056 8.560956 -17.460808
v 26.447773 10.184194 -16.723120
v 24.475163 10.871571 -16.693630
v 24.022852 10.835635 -15.589141
v 24.286678 11.973926 -15.754939
v 24.555449 11.961454 -16.380957
v 25.326105 9.461548 -17.975080
v 27.039660 9.581453 -17.328873
v 23.894928 9.921551 -17.312695
v 23.894928 9.862820 -14.153480
v 23.102444 9.662342 -15.729739
v 25.693338 9.244786 -13.602497
v 27.181946 9.540416 -16.984512
v 25.262732 9.299694 -13.591345
v 25.158701 12.053104 -14.875847
v 25.784517 12.087738 -15.137733
v 26.614202 11.713987 -14.516618
v 25.225822 11.910170 -14.008361
v 24.483280 10.699648 -14.489294
v 25.451918 10.317501 -14.053886
v 24.537378 12.009335 -15.131502
v 26.684088 10.286048 -14.463107
v 27.126635 10.488649 -15.578315
v 26.050543 12.085865 -15.763751
v 26.680868 10.739642 -16.704836
v 25.579704 10.824293 -17.155766
v 25.184164 11.986849 -16.642843
v 25.802725 12.041268 -16.387190
v 24.873785 12.692499 -16.778143
v 24.304472 12.452780 -16.606562
v 24.361343 14.360847 -15.741175
v 26.338825 11.868616 -16.941490
v 27.166086 11.680672 -15.904512
v 23.556227 11.432181 -15.714455
v 24.148510 11.592811 -16.899752
v 24.190510 11.562531 -14.504522
v 27.148947 11.662107 -15.464239
v 25.421249 11.510131 -17.437653
v 24.531713 11.588149 -17.067329
v 23.963802 12.692482 -15.839214
v 24.221849 12.741343 -15.209291
v 24.856773 12.790594 -14.968281
v 25.495275 12.818777 -15.257368
v 25.765150 12.802347 -15.907210
v 25.508272 12.747556 -16.537138
v 28.520618 7.245266 -16.291483
v 25.043909 6.518283 -15.741175
v 25.169136 6.508593 -15.441747
v 25.795233 6.484170 -15.441747
v 25.929504 6.484449 -15.741175
v 25.795012 6.499594 -16.040607
v 25.477459 6.516626 -16.164635
v 25.169098 6.522711 -16.040607
v 25.477631 6.495688 -15.317718
v 23.755413 7.451264 -13.592369
v 25.742876 4.304199 -16.219666
v 26.136301 4.329750 -16.129440
v 26.350611 4.336590 -15.811776
v 26.247715 4.333563 -15.452757
v 25.895737 4.313653 -15.262688
v 25.511736 4.278355 -15.352911
v 25.313421 4.255816 -15.670577
v 25.404856 4.268737 -16.029596
v 25.024765 0.144898 -16.183706
v 24.991453 2.534311 -15.975968
v 25.281780 2.576666 -16.044579
v 25.467293 0.144898 -16.367008
v 24.841461 0.144898 -15.741176
v 24.954277 2.516768 -15.600392
v 25.024765 0.144898 -15.298648
v 25.192034 2.534311 -15.307287
v 25.467293 0.144898 -15.115346
v 25.565443 2.576666 -15.098925
v 25.909824 0.144898 -15.298648
v 25.855772 2.619021 -15.336961
v 26.093124 0.144898 -15.741176
v 25.893147 2.636400 -15.712535
v 25.909824 0.144898 -16.183706
v 25.655191 2.619021 -16.005640
vt 0.955059 0.817585
vt 0.955420 0.817611
vt 0.955631 0.817419
vt 0.955047 0.817499
vt 0.954616 0.817629
vt 0.954461 0.817691
vt 0.954756 0.818143
vt 0.954860 0.818093
vt 0.954661 0.817515
vt 0.954548 0.817520
vt 0.954299 0.817369
vt 0.954471 0.817267
vt 0.955570 0.817610
vt 0.955420 0.817583
vt 0.955576 0.817450
vt 0.955908 0.817458
vt 0.954698 0.817548
vt 0.954457 0.817371
vt 0.955059 0.817545
vt 0.954957 0.817368
vt 0.955048 0.817370
vt 0.955666 0.817417
vt 0.954250 0.817373
vt 0.955779 0.817961
vt 0.955349 0.818113
vt 0.955584 0.818197
vt 0.954606 0.817666
vt 0.955029 0.817696
vt 0.955062 0.818142
vt 0.954860 0.818134
vt 0.955510 0.817655
vt 0.955615 0.817780
vt 0.955265 0.818134
vt 0.955491 0.817646
vt 0.955016 0.817621
vt 0.955062 0.818084
vt 0.955265 0.818093
vt 0.955056 0.818287
vt 0.954696 0.818315
vt 0.954820 0.818647
vt 0.955055 0.818641
vt 0.954397 0.818072
vt 0.954553 0.818020
vt 0.955522 0.817917
vt 0.955065 0.818059
vt 0.955564 0.817928
vt 0.954667 0.818011
vt 0.954532 0.818002
vt 0.955127 0.818032
vt 0.955289 0.818613
vt 0.955387 0.818617
vt 0.955640 0.818388
vt 0.955421 0.818488
vt 0.954540 0.818304
vt 0.954721 0.818337
vt 0.954820 0.818631
vt 0.954723 0.818642
vt 0.955073 0.818217
vt 0.955450 0.818192
vt 0.955055 0.818618
vt 0.955426 0.818231
vt 0.955289 0.818628
vt 0.954819 0.818789
vt 0.954710 0.818792
vt 0.954839 0.819073
vt 0.954901 0.819065
vt 0.955021 0.818447
vt 0.955431 0.818476
vt 0.954678 0.818557
vt 0.954678 0.818583
vt 0.954488 0.818502
vt 0.955109 0.818468
vt 0.955465 0.818468
vt 0.955006 0.818479
vt 0.955051 0.819103
vt 0.955201 0.819108
vt 0.955349 0.819014
vt 0.955029 0.819067
vt 0.954819 0.818782
vt 0.955051 0.818711
vt 0.954901 0.819088
vt 0.955346 0.818693
vt 0.955452 0.818715
vt 0.955263 0.819100
vt 0.955345 0.818758
vt 0.955082 0.818775
vt 0.955051 0.819070
vt 0.955201 0.819085
vt 0.955028 0.819253
vt 0.954872 0.819190
vt 0.955018 0.819685
vt 0.955296 0.819032
vt 0.955478 0.818988
vt 0.954609 0.818927
vt 0.954760 0.818963
vt 0.954768 0.818976
vt 0.955473 0.818988
vt 0.955058 0.818941
vt 0.954854 0.818962
vt 0.954818 0.819255
vt 0.954886 0.819271
vt 0.955042 0.819285
vt 0.955193 0.819290
vt 0.955252 0.819282
vt 0.955183 0.819267
vt 0.955745 0.817949
vt 0.954953 0.817744
vt 0.954983 0.817744
vt 0.955126 0.817744
vt 0.955156 0.817744
vt 0.955126 0.817744
vt 0.955055 0.817744
vt 0.954983 0.817744
vt 0.955055 0.817744
vt 0.954645 0.817984
vt 0.828490 0.447582
vt 0.828398 0.448450
vt 0.828519 0.448450
vt 0.828632 0.447609
vt 0.828569 0.448450
vt 0.828708 0.447622
vt 0.828519 0.448450
vt 0.828672 0.447614
vt 0.828398 0.448450
vt 0.828547 0.447590
vt 0.828278 0.448450
vt 0.828405 0.447563
vt 0.828228 0.448450
vt 0.828330 0.447549
vt 0.828278 0.448450
vt 0.828365 0.447557
vt 0.828220 0.445879
vt 0.828357 0.446882
vt 0.828474 0.446899
vt 0.828398 0.445879
vt 0.828146 0.445879
vt 0.828342 0.446875
vt 0.828220 0.445879
vt 0.828438 0.446882
vt 0.828398 0.445879
vt 0.828589 0.446899
vt 0.828577 0.445879
vt 0.828706 0.446917
vt 0.828651 0.445879
vt 0.828721 0.446924
vt 0.828577 0.445879
vt 0.828625 0.446917
vn -0.2425 -0.8825 -0.4031
vn -0.7316 0.5641 -0.3828
vn 0.5321 -0.8003 0.2764
vn -0.4250 -0.8771 0.2240
vn 0.2869 -0.8981 -0.3333
vn 0.3018 -0.7776 0.5516
vn -0.1311 -0.8623 0.4891
vn -0.4730 -0.8482 -0.2384
vn 0.4670 -0.8705 -0.1553
vn -0.1043 -0.2628 -0.9592
vn -0.3232 0.5898 0.7400
vn 0.7246 0.6104 0.3198
vn 0.2682 0.5946 -0.7580
vn -0.3150 0.6042 -0.7319
vn -0.7596 0.5570 0.3357
vn 0.2884 0.5829 0.7596
vn 0.6951 0.6199 -0.3641
vn -0.2974 0.5359 -0.7902
vn 0.0863 -0.9783 0.1883
vn -0.3641 -0.8982 -0.2462
vn -0.2293 -0.9627 0.1437
vn 0.1087 -0.9888 0.1025
vn 0.1798 -0.9614 -0.2085
vn -0.2876 -0.9128 -0.2901
vn -0.5675 -0.7777 -0.2706
vn -0.8173 0.4038 0.4111
vn 0.3602 0.3587 0.8612
vn 0.8377 0.4485 -0.3116
vn -0.8167 0.4874 -0.3090
vn -0.3079 0.3503 0.8846
vn 0.8418 0.4006 0.3618
vn 0.3783 0.4972 -0.7809
vn 0.3786 0.4972 -0.7807
vn 0.3799 0.5005 -0.7779
vn -0.9111 0.1656 -0.3774
vn -0.2349 -0.7358 0.6352
vn 0.1025 -0.8034 0.5865
vn 0.3618 -0.9197 -0.1523
vn -0.1879 -0.7838 -0.5919
vn -0.6434 -0.7513 0.1471
vn 0.4598 -0.8822 0.1010
vn -0.0368 -0.8529 -0.5207
vn -0.1658 -0.9583 -0.2327
vn -0.2941 0.3953 0.8702
vn 0.7592 0.5351 0.3706
vn 0.3452 0.4551 -0.8208
vn -0.3677 0.2742 -0.8886
vn -0.8919 0.2420 0.3822
vn 0.3017 0.4560 0.8373
vn 0.7972 0.5489 -0.2512
vn -0.4115 0.3866 -0.8253
vn -0.2888 -0.9516 0.1048
vn 0.5595 -0.8043 0.2002
vn 0.3423 -0.8941 -0.2888
vn -0.3240 -0.9367 -0.1329
vn 0.0232 -0.8955 0.4444
vn 0.1828 -0.8411 0.5090
vn 0.5861 -0.7820 -0.2122
vn -0.9126 0.1964 0.3586
vn 0.3389 0.4994 0.7973
vn 0.6822 0.6501 -0.3347
vn -0.8602 0.2317 -0.4543
vn -0.3579 0.3190 0.8776
vn 0.7269 0.6243 0.2861
vn 0.2496 0.5653 -0.7862
vn 0.2277 0.5624 -0.7949
vn 0.5753 0.7766 0.2566
vn -0.4454 0.5175 0.7306
vn -0.8661 0.2639 -0.4245
vn 0.7535 0.0856 -0.6519
vn 0.2984 0.7400 0.6027
vn -0.8716 0.2910 0.3944
vn -0.3604 0.3392 -0.8690
vn 0.8441 0.4593 -0.2765
vn -0.7387 0.5867 0.3317
vn -0.2338 0.5729 -0.7856
vn 0.3130 0.4817 -0.8185
vn 0.7907 0.4497 0.4155
vn -0.1882 0.4538 0.8710
vn -0.7367 0.6185 -0.2733
vn 0.3742 0.5006 -0.7806
vn 0.7172 0.5696 0.4015
vn -0.7978 0.4948 -0.3446
vn 0.2482 -0.1138 0.9620
vn 0.3953 0.6105 0.6864
vn -0.7735 0.5386 0.3339
vn -0.3456 0.4192 -0.8396
vn 0.7026 0.5770 -0.4164
vn 0.3297 0.6156 0.7157
vn -0.7891 0.5427 0.2879
vn 0.9430 -0.0813 -0.3227
vn 0.2844 0.4985 -0.8189
vn -0.5953 -0.3481 0.7242
vn -0.3740 0.5965 0.7102
vn -0.7992 0.4703 -0.3743
vn 0.1144 0.9816 0.1527
vn 0.4621 -0.8755 -0.1411
vn -0.3409 -0.9336 -0.1106
vn -0.1422 -0.8970 0.4186
vn 0.1869 -0.8824 0.4319
vn 0.2126 -0.9096 -0.3570
vn -0.3529 -0.9204 0.1684
vn 0.4715 -0.8688 0.1516
vn -0.1279 -0.9325 -0.3378
vn -0.2228 0.5854 0.7795
vn 0.1301 -0.9460 -0.2970
vn -0.8490 -0.1278 0.5126
vn 0.6639 -0.2004 -0.7204
vn 0.6017 -0.0525 0.7970
vn -0.7724 -0.1824 -0.6083
vn -0.2307 0.1286 -0.9645
vn 0.5507 -0.2572 0.7941
vn -0.3873 0.4218 -0.8198
vn -0.9603 -0.2212 0.1699
vn 0.0780 -0.1351 -0.9878
vn -0.4149 -0.0523 0.9084
vn 0.7007 0.6091 0.3715
vn 0.7126 0.0627 -0.6988
vn -0.3247 -0.9326 0.1578
vn 0.7541 0.5698 -0.3266
vn 0.3074 0.4152 0.8562
vn -0.9757 -0.1542 0.1553
vn 0.9783 -0.0991 0.1820
vn -0.9056 -0.3586 0.2264
vn 0.2178 0.2743 0.9366
vn 0.5967 0.7317 -0.3296
vn 0.2238 -0.1049 -0.9690
vn 0.2870 0.0711 -0.9553
vn 0.8589 0.1695 -0.4832
vn 0.9249 0.1816 0.3341
vn 0.4218 0.0939 0.9018
vn -0.2949 -0.0197 0.9553
vn -0.8800 -0.1034 0.4635
vn -0.9432 -0.1112 -0.3132
vn -0.4352 -0.0400 -0.8994
vn -0.3284 0.0885 -0.9404
vn -0.9651 0.0351 -0.2594
vn -0.8677 0.0373 0.4957
vn -0.4336 0.0224 0.9008
vn 0.4984 -0.0006 0.8669
vn 0.9640 0.0498 0.2611
vn 0.8625 0.0996 -0.4962
vn 0.2550 0.1208 -0.9594
vn -0.3843 0.0361 -0.9225
vn -0.9647 0.2089 -0.1602
vn -0.8066 0.1760 0.5643
vn -0.3750 0.1253 0.9185
vn 0.5572 -0.0495 0.8289
vn 0.9577 -0.2271 0.1766
vn 0.7824 -0.2525 -0.5693
vn 0.1761 -0.1330 -0.9753
usemtl Material
f 1/1/1 2/2/1 3/3/1 4/4/1
f 5/5/2 6/6/2 7/7/2 8/8/2
f 9/9/3 10/10/3 11/11/3 12/12/3
f 13/13/4 14/14/4 15/15/4 16/16/4
f 17/17/5 1/1/5 4/4/5 18/18/5
f 19/19/6 9/9/6 12/12/6 20/20/6
f 14/14/7 19/19/7 21/21/7 15/15/7
f 2/2/8 13/13/8 16/16/8 22/22/8
f 10/10/9 17/17/9 18/18/9 23/23/9
f 24/24/10 25/25/10 26/26/10
f 27/27/11 28/28/11 29/29/11 30/30/11
f 31/31/12 32/32/12 25/25/12 33/33/12
f 34/34/13 35/35/13 36/36/13 37/37/13
f 35/35/14 5/5/14 8/8/14 36/36/14
f 6/6/15 27/27/15 30/30/15 7/7/15
f 28/28/16 31/31/16 33/33/16 29/29/16
f 32/32/17 34/34/17 37/37/17 25/25/17
f 38/38/18 39/39/18 40/40/18 41/41/18
f 8/8/19 7/7/19 42/42/19 43/43/19
f 33/33/20 25/25/20 24/24/20 44/44/20
f 37/37/21 36/36/21 45/45/21 46/46/21
f 36/36/22 8/8/22 47/47/22 45/45/22
f 7/7/23 30/30/23 48/48/23 42/42/23
f 29/29/24 33/33/24 44/44/24 49/49/24
f 50/50/25 51/51/25 52/52/25 53/53/25
f 54/54/26 55/55/26 56/56/26 57/57/26
f 58/58/27 59/59/27 50/50/27 60/60/27
f 26/26/28 61/61/28 62/62/28 51/51/28
f 39/39/29 54/54/29 57/57/29 40/40/29
f 55/55/30 58/58/30 60/60/30 56/56/30
f 59/59/31 26/26/31 51/51/31 50/50/31
f 61/61/32 38/38/33 41/41/34 62/62/34
f 63/63/35 64/64/35 65/65/35 66/66/35
f 62/62/36 41/41/36 67/67/36 68/68/36
f 41/41/37 40/40/37 69/69/37 67/67/37
f 57/57/38 56/56/38 70/70/38 71/71/38
f 60/60/39 50/50/39 53/53/39 72/72/39
f 51/51/40 62/62/40 73/73/40 52/52/40
f 40/40/41 57/57/41 71/71/41 69/69/41
f 56/56/42 60/60/42 74/74/42 70/70/42
f 75/75/43 76/76/43 77/77/43 78/78/43
f 79/79/44 80/80/44 75/75/44 81/81/44
f 82/82/45 83/83/45 84/84/45 76/76/45
f 85/85/46 86/86/46 87/87/46 88/88/46
f 86/86/47 63/63/47 66/66/47 87/87/47
f 64/64/48 79/79/48 81/81/48 65/65/48
f 80/80/49 82/82/49 76/76/49 75/75/49
f 83/83/50 85/85/50 88/88/50 84/84/50
f 89/89/51 90/90/51 91/91/51
f 84/84/52 88/88/52 92/92/52 93/93/52
f 66/66/53 65/65/53 94/94/53 95/95/53
f 81/81/54 75/75/54 78/78/54 96/96/54
f 76/76/55 84/84/55 97/97/55 77/77/55
f 88/88/56 87/87/56 98/98/56 92/92/56
f 87/87/57 66/66/57 99/99/57 98/98/57
f 65/65/58 81/81/58 96/96/58 94/94/58
f 100/100/59 101/101/59 91/91/59
f 102/102/60 103/103/60 91/91/60
f 104/104/61 105/105/61 91/91/61
f 90/90/62 100/100/62 91/91/62
f 101/101/63 102/102/63 91/91/63
f 103/103/64 104/104/64 91/91/64
f 105/105/65 89/89/65 91/91/65
f 92/92/66 98/98/66 89/89/66 105/105/66
f 77/77/67 97/97/67 104/104/67 103/103/67
f 96/96/68 78/78/68 102/102/68 101/101/68
f 95/95/69 94/94/69 100/100/69 90/90/69
f 66/66/70 95/95/70 90/90/70
f 78/78/71 77/77/71 103/103/71 102/102/71
f 94/94/72 96/96/72 101/101/72 100/100/72
f 98/98/73 99/99/73 90/90/73 89/89/73
f 52/52/74 73/73/74 85/85/74 83/83/74
f 71/71/75 70/70/75 79/79/75 64/64/75
f 67/67/76 69/69/76 63/63/76 86/86/76
f 68/68/77 67/67/77 86/86/77 85/85/77
f 53/53/78 52/52/78 83/83/78 82/82/78
f 70/70/79 74/74/79 80/80/79 79/79/79
f 69/69/80 71/71/80 64/64/80 63/63/80
f 46/46/81 45/45/81 38/38/33 61/61/32
f 44/44/82 24/24/82 26/26/82 59/59/82
f 43/43/83 42/42/83 54/54/83 39/39/83
f 26/26/84 25/25/84 106/106/84
f 49/49/85 44/44/85 59/59/85 58/58/85
f 42/42/86 48/48/86 55/55/86 54/54/86
f 45/45/87 47/47/87 39/39/87 38/38/87
f 16/16/88 15/15/88 34/34/88 32/32/88
f 4/4/89 3/3/89 31/31/89 28/28/89
f 23/23/90 18/18/90 27/27/90 6/6/90
f 19/19/91 20/20/91 35/35/91
f 15/15/92 21/21/92 35/35/92 34/34/92
f 2/2/93 22/22/93 31/31/93
f 18/18/94 4/4/94 28/28/94 27/27/94
f 12/12/95 11/11/95 6/6/95 5/5/95
f 85/85/96 86/86/96 63/63/96 64/64/96 79/79/96 80/80/96 82/82/96 83/83/96
f 107/107/97 108/108/97 17/17/97 10/10/97
f 109/109/98 110/110/98 13/13/98 2/2/98
f 111/111/99 112/112/99 19/19/99 14/14/99
f 112/112/100 113/113/100 9/9/100 19/19/100
f 108/108/101 114/114/101 1/1/101 17/17/101
f 110/110/102 111/111/102 14/14/102 13/13/102
f 113/113/103 107/107/103 10/10/103 9/9/103
f 114/114/104 109/109/104 2/2/104 1/1/104
f 55/55/105 115/115/105 49/49/105 58/58/105
f 115/115/106 30/30/106 29/29/106 49/49/106
f 47/47/107 8/8/107 39/39/107
f 8/8/108 43/43/108 39/39/108
f 30/30/109 55/55/109 48/48/109
f 55/55/110 30/30/110 115/115/110
f 73/73/111 62/62/111 85/85/111
f 68/68/112 85/85/112 62/62/112
f 35/35/113 20/20/113 12/12/113 5/5/113
f 35/35/114 21/21/114 19/19/114
f 6/6/115 10/10/115 23/23/115
f 10/10/116 6/6/116 11/11/116
f 31/31/117 22/22/117 16/16/117 32/32/117
f 3/3/118 2/2/118 31/31/118
f 106/106/119 25/25/119 37/37/119 46/46/119
f 26/26/120 106/106/120 46/46/120 61/61/120
f 80/80/121 72/72/121 53/53/121 82/82/121
f 60/60/122 72/72/122 80/80/122
f 80/80/123 74/74/123 60/60/123
f 99/99/124 66/66/124 90/90/124
f 104/104/125 84/84/125 93/93/125
f 104/104/126 93/93/126 92/92/126 105/105/126
f 84/84/127 104/104/127 97/97/127
usemtl Material.001
f 116/116/128 112/117/128 111/118/128 117/119/128
f 117/119/129 111/118/129 110/120/129 118/121/129
f 118/121/130 110/120/130 109/122/130 119/123/130
f 119/123/131 109/122/131 114/124/131 120/125/131
f 120/125/132 114/124/132 108/126/132 121/127/132
f 121/127/133 108/126/133 107/128/133 122/129/133
f 122/129/134 107/128/134 113/130/134 123/131/134
f 123/131/135 113/130/135 112/117/135 116/116/135
f 124/132/136 125/133/136 126/134/136 127/135/136
f 128/136/137 129/137/137 125/133/137 124/132/137
f 130/138/138 131/139/138 129/137/138 128/136/138
f 132/140/139 133/141/139 131/139/139 130/138/139
f 134/142/140 135/143/140 133/141/140 132/140/140
f 136/144/141 137/145/141 135/143/141 134/142/141
f 138/146/142 139/147/142 137/145/142 136/144/142
f 127/135/143 126/134/143 139/147/143 138/146/143
f 125/133/144 123/131/144 116/116/144 126/134/144
f 129/137/145 122/129/145 123/131/145 125/133/145
f 131/139/146 121/127/146 122/129/146 129/137/146
f 133/141/147 120/125/147 121/127/147 131/139/147
f 135/143/148 119/123/148 120/125/148 133/141/148
f 137/145/149 118/121/149 119/123/149 135/143/149
f 139/147/150 117/119/150 118/121/150 137/145/150
f 126/134/151 116/116/151 117/119/151 139/147/151
