mtllib LOW_POLY_set.mtl
o lp_conifer1_Cylinder_003
v 36.449306 3.228546 -13.461111
v 36.926037 3.374833 -15.498793
v 38.441925 2.291266 -15.791619
v 37.372646 3.086198 -12.702591
v 31.013020 3.260267 -14.593553
v 32.452629 4.144356 -12.829898
v 33.167694 5.995993 -13.640028
v 32.567638 5.684122 -14.826633
v 31.265072 2.831311 -14.592404
v 32.638557 2.862669 -12.850970
v 31.327204 2.257149 -12.156375
v 29.641987 1.866991 -14.289083
v 35.824303 3.369567 -17.283739
v 33.789490 3.215835 -17.770363
v 33.091190 2.290806 -19.763760
v 36.857265 2.509342 -18.762794
v 34.673374 3.016399 -12.364350
v 34.779911 2.020122 -10.695198
v 32.013557 3.003690 -16.673599
v 30.595921 2.249062 -17.027073
v 30.716198 2.013712 -17.539616
v 38.187347 2.279185 -16.203346
v 31.689411 2.028177 -11.570580
v 36.495274 4.952113 -18.288719
v 35.207432 5.811430 -16.456465
v 35.676270 6.334745 -17.566845
v 34.653572 3.330298 -11.675190
v 36.267181 4.544288 -13.466660
v 35.575699 5.991474 -14.115112
v 34.482262 5.938739 -13.440016
v 37.442341 3.628760 -15.563254
v 35.750473 4.295250 -17.446545
v 35.876076 5.938739 -15.364567
v 33.577507 3.677833 -18.041084
v 31.576458 3.424082 -16.609869
v 32.868015 5.631388 -16.076090
v 33.961452 5.684122 -16.751190
v 32.093330 7.174704 -16.608147
v 31.409388 6.856063 -14.852253
v 32.422157 8.823374 -15.047994
v 32.915554 8.790679 -16.313332
v 31.939892 5.858864 -12.553789
v 30.614578 5.286054 -14.349546
v 37.729099 4.851035 -16.110199
v 31.223127 5.508275 -17.285393
v 33.411686 4.767400 -18.989468
v 30.644318 5.239042 -15.075696
v 34.470543 5.184626 -11.419525
v 37.349888 5.354047 -13.371771
v 35.966625 8.630650 -15.119914
v 35.421871 8.654401 -16.364187
v 36.704098 7.403829 -17.402275
v 37.001587 7.927761 -15.103582
v 32.575882 7.417482 -13.185570
v 34.573498 7.122824 -12.673579
v 34.230709 8.733337 -13.309391
v 32.966915 8.799623 -13.803721
v 36.518875 6.533878 -13.544456
v 36.690392 6.874432 -15.618070
v 35.473232 8.663347 -13.854577
v 33.575539 6.099566 -18.103582
v 34.158077 8.720687 -16.858517
v 32.241493 9.759740 -15.028996
v 32.635117 9.174046 -13.383740
v 33.414043 11.226560 -14.203624
v 33.035851 11.184757 -14.983295
v 31.584015 7.960073 -17.261942
v 34.124180 7.859789 -17.941278
v 31.508554 8.570734 -15.434133
v 33.858021 8.413942 -12.152573
v 31.948565 8.089277 -12.723631
v 36.366882 7.814249 -13.396558
v 34.567852 7.816813 -17.767223
v 35.995457 7.876119 -12.989600
v 35.005875 11.395704 -14.301451
v 35.287037 11.423962 -15.121641
v 36.407104 10.846066 -15.373255
v 35.548897 11.644131 -13.710756
v 34.255093 9.860680 -13.120603
v 35.736637 9.188640 -13.574071
v 34.230053 11.313936 -13.921196
v 36.130863 9.830556 -14.995466
v 35.815495 9.208365 -16.469692
v 34.908844 11.382157 -15.901313
v 34.381565 9.453108 -17.057251
v 32.702953 9.002678 -16.587866
v 33.317013 11.213015 -15.803486
v 34.092831 11.294781 -16.183744
v 32.973354 11.609219 -16.021667
v 32.715988 11.889500 -15.057874
v 33.847736 14.784012 -15.196105
v 33.900864 10.998513 -17.034767
v 35.537350 10.746828 -16.878918
v 32.766029 10.975813 -13.422489
v 32.038769 10.607714 -14.860724
v 34.620060 11.173931 -12.818886
v 35.941608 10.746685 -16.486059
v 32.583794 10.485587 -16.508844
v 32.211197 10.604464 -15.377136
v 33.264229 12.303997 -14.056869
v 34.232468 12.408343 -13.639275
v 34.892159 13.052868 -14.439469
v 35.538673 12.248302 -15.121286
v 35.112610 12.260870 -15.930652
v 33.995731 13.059662 -15.834844
v 35.791107 4.887218 -18.462446
v 33.879757 4.124118 -14.623234
v 34.283005 4.124118 -14.527071
v 34.732307 4.124118 -15.147458
v 34.515167 4.124118 -15.500599
v 34.111919 4.124118 -15.596762
v 33.758778 4.124118 -15.379621
v 33.662613 4.124118 -14.976374
v 34.636143 4.124118 -14.744211
v 35.193848 5.084798 -11.751815
v 33.757149 2.024334 -15.497376
v 34.119358 2.046398 -15.800757
v 34.591015 2.054766 -15.759288
v 34.895832 2.044536 -15.397258
v 34.855251 2.021699 -14.926744
v 34.493042 1.999637 -14.623363
v 34.021385 1.991270 -14.664833
v 33.716568 2.001499 -15.026863
v 34.062351 1.116998 -14.539210
v 33.749485 1.122113 -14.981177
v 34.596161 1.121182 -14.447413
v 35.038219 1.132213 -14.759561
v 35.129570 1.143632 -15.292801
v 34.816704 1.148747 -15.734769
v 34.282890 1.144563 -15.826566
v 33.840836 1.133531 -15.514418
v 33.407009 0.144900 -14.935489
v 33.549129 0.144900 -15.531455
v 34.071037 0.144900 -15.852370
v 34.667000 0.144900 -15.710250
v 34.987915 0.144900 -15.188344
v 34.845795 0.144900 -14.592377
v 34.323887 0.144900 -14.271462
v 33.727924 0.144900 -14.413583
vt 0.890755 0.809208
vt 0.890851 0.809245
vt 0.891156 0.808966
vt 0.890940 0.809171
vt 0.889661 0.809216
vt 0.889950 0.809443
vt 0.890094 0.809920
vt 0.889974 0.809840
vt 0.889711 0.809105
vt 0.889988 0.809113
vt 0.889724 0.808958
vt 0.889385 0.808857
vt 0.890629 0.809244
vt 0.890220 0.809204
vt 0.890079 0.808966
vt 0.890837 0.809022
vt 0.890397 0.809153
vt 0.890419 0.808897
vt 0.889862 0.809150
vt 0.889577 0.808955
vt 0.889601 0.808895
vt 0.891104 0.808963
vt 0.889797 0.808899
vt 0.890764 0.809651
vt 0.890505 0.809872
vt 0.890599 0.810007
vt 0.890393 0.809234
vt 0.890718 0.809546
vt 0.890579 0.809919
vt 0.890359 0.809905
vt 0.890955 0.809311
vt 0.890614 0.809482
vt 0.890639 0.809905
vt 0.890177 0.809323
vt 0.889774 0.809258
vt 0.890034 0.809826
vt 0.890254 0.809840
vt 0.889878 0.810223
vt 0.889741 0.810141
vt 0.889944 0.810648
vt 0.890044 0.810639
vt 0.889847 0.809885
vt 0.889581 0.809737
vt 0.891012 0.809625
vt 0.889703 0.809794
vt 0.890143 0.809604
vt 0.889587 0.809725
vt 0.890357 0.809711
vt 0.890936 0.809755
vt 0.890658 0.810598
vt 0.890548 0.810604
vt 0.890806 0.810282
vt 0.890866 0.810417
vt 0.889975 0.810286
vt 0.890377 0.810210
vt 0.890308 0.810624
vt 0.890054 0.810641
vt 0.890769 0.810058
vt 0.890803 0.810146
vt 0.890558 0.810606
vt 0.890176 0.809947
vt 0.890294 0.810621
vt 0.889908 0.810889
vt 0.889987 0.810738
vt 0.890144 0.811266
vt 0.890068 0.811255
vt 0.889776 0.810425
vt 0.890287 0.810400
vt 0.889760 0.810583
vt 0.890240 0.810537
vt 0.889849 0.810459
vt 0.890738 0.810388
vt 0.890376 0.810389
vt 0.890663 0.810404
vt 0.890464 0.811310
vt 0.890521 0.811317
vt 0.890746 0.811168
vt 0.890574 0.811374
vt 0.890313 0.810864
vt 0.890611 0.810742
vt 0.890308 0.811289
vt 0.890691 0.810907
vt 0.890627 0.810747
vt 0.890445 0.811306
vt 0.890339 0.810810
vt 0.890001 0.810694
vt 0.890124 0.811263
vt 0.890281 0.811284
vt 0.890055 0.811365
vt 0.890004 0.811437
vt 0.890231 0.812182
vt 0.890242 0.811207
vt 0.890571 0.811143
vt 0.890014 0.811202
vt 0.889867 0.811107
vt 0.890387 0.811253
vt 0.890653 0.811143
vt 0.889977 0.811075
vt 0.889902 0.811106
vt 0.890114 0.811543
vt 0.890309 0.811570
vt 0.890441 0.811736
vt 0.890571 0.811529
vt 0.890486 0.811532
vt 0.890261 0.811738
vt 0.890622 0.809635
vt 0.890238 0.809438
vt 0.890319 0.809438
vt 0.890409 0.809438
vt 0.890366 0.809438
vt 0.890284 0.809438
vt 0.890213 0.809438
vt 0.890194 0.809438
vt 0.890390 0.809438
vt 0.890502 0.809685
vt 0.727058 0.446854
vt 0.727059 0.448307
vt 0.727250 0.448307
vt 0.727254 0.446869
vt 0.727468 0.448307
vt 0.727509 0.446875
vt 0.727585 0.448307
vt 0.727674 0.446868
vt 0.727533 0.448307
vt 0.727652 0.446852
vt 0.727342 0.448307
vt 0.727456 0.446837
vt 0.727124 0.448307
vt 0.727201 0.446831
vt 0.727007 0.448307
vt 0.727036 0.446838
vt 0.727223 0.446226
vt 0.727054 0.446230
vt 0.727512 0.446229
vt 0.727751 0.446237
vt 0.727800 0.446244
vt 0.727631 0.446248
vt 0.727342 0.446245
vt 0.727103 0.446237
vt 0.726868 0.445553
vt 0.726945 0.445553
vt 0.727228 0.445553
vt 0.727550 0.445553
vt 0.727724 0.445553
vt 0.727647 0.445553
vt 0.727364 0.445553
vt 0.727042 0.445553
vn -0.4457 -0.8949 -0.0212
vn -0.7923 0.5044 0.3433
vn 0.4010 -0.8893 -0.2198
vn -0.0588 -0.8901 0.4520
vn -0.0284 -0.9096 -0.4146
vn 0.4899 -0.8687 0.0731
vn 0.3654 -0.8710 0.3284
vn -0.4932 -0.8382 0.2327
vn 0.1543 -0.8586 -0.4889
vn -0.8434 -0.2517 -0.4747
vn 0.4235 0.5281 0.7360
vn 0.7069 0.5339 -0.4641
vn -0.5193 0.5049 -0.6895
vn -0.8286 0.5223 -0.2014
vn -0.1972 0.5081 0.8384
vn 0.8260 0.5219 0.2132
vn 0.0983 0.5439 -0.8334
vn -0.8489 0.4427 -0.2889
vn 0.2297 -0.9635 0.1375
vn -0.3736 -0.9000 0.2246
vn 0.0059 -0.9584 0.2853
vn 0.1651 -0.9861 -0.0198
vn -0.0757 -0.9501 -0.3027
vn -0.4289 -0.9018 0.0526
vn -0.5596 -0.7918 0.2448
vn -0.2343 0.3789 0.8953
vn 0.8928 0.3962 0.2143
vn 0.2471 0.4169 -0.8747
vn -0.8090 0.4351 0.3952
vn 0.4399 0.3703 0.8181
vn 0.8043 0.3827 -0.4545
vn -0.4187 0.4296 -0.8001
vn -0.8169 0.4499 0.3609
vn 0.1488 -0.8068 0.5718
vn 0.2983 -0.9221 0.2466
vn 0.1818 -0.9313 -0.3157
vn -0.5725 -0.7844 -0.2386
vn -0.2592 -0.7516 0.6065
vn 0.3752 -0.9031 -0.2088
vn -0.3285 -0.8385 -0.4347
vn -0.2281 -0.9546 0.1913
vn 0.4092 0.4222 0.8089
vn 0.8217 0.4262 -0.3784
vn -0.3749 0.3767 -0.8471
vn -0.8282 0.4085 -0.3837
vn -0.3296 0.4536 0.8280
vn 0.8235 0.4255 0.3753
vn 0.3540 0.4076 -0.8417
vn -0.8838 0.3297 -0.3319
vn -0.1357 -0.8955 0.4238
vn 0.4284 -0.9024 -0.0467
vn 0.2538 -0.9641 -0.0782
vn -0.4020 -0.8822 0.2450
vn 0.3886 -0.8588 0.3339
vn 0.5335 -0.8176 0.2166
vn 0.1631 -0.9702 -0.1789
vn -0.3931 0.4586 0.7970
vn 0.8233 0.5528 0.1284
vn 0.1753 0.3552 -0.9182
vn -0.8736 0.3573 0.3305
vn 0.3701 0.5504 0.7484
vn 0.7690 0.5011 -0.3970
vn -0.2776 0.3127 -0.9084
vn -0.4959 0.4642 -0.7339
vn 0.7529 0.5417 -0.3737
vn 0.3730 0.5744 0.7286
vn -0.8359 0.4679 0.2870
vn -0.0484 -0.1268 -0.9907
vn 0.8452 0.4934 0.2052
vn -0.3440 0.4747 0.8101
vn -0.8417 0.4243 -0.3339
vn 0.3078 0.4865 -0.8177
vn -0.3434 0.6076 0.7162
vn -0.6148 0.6926 -0.3772
vn -0.2576 0.5878 -0.7669
vn 0.8346 0.4746 -0.2797
vn 0.4270 0.4271 0.7971
vn -0.7990 0.5306 0.2829
vn -0.3943 0.5280 -0.7521
vn 0.7101 0.5458 -0.4448
vn -0.7734 0.4966 0.3940
vn 0.9339 -0.1315 0.3323
vn 0.8643 0.4963 0.0822
vn -0.2004 0.4975 0.8440
vn -0.8538 0.4803 -0.2007
vn 0.0925 0.6981 -0.7100
vn 0.7789 0.6124 0.1351
vn -0.2187 0.5620 0.7977
vn 0.1044 0.2543 -0.9615
vn -0.5000 0.7104 -0.4954
vn 0.2592 -0.2934 0.9202
vn 0.3286 0.6038 0.7263
vn -0.6926 0.6312 0.3491
vn -0.0262 0.9974 -0.0664
vn 0.1693 -0.8601 -0.4812
vn -0.2919 -0.9389 0.1824
vn 0.2999 -0.8905 0.3422
vn 0.4834 -0.8692 0.1041
vn -0.1663 -0.8950 -0.4140
vn -0.0326 -0.9243 0.3803
vn 0.4191 -0.8550 -0.3055
vn -0.3486 -0.9271 -0.1374
vn 0.4847 0.4696 0.7379
vn -0.1764 -0.9091 -0.3773
vn -0.1085 -0.0855 0.9904
vn -0.1914 -0.2101 -0.9588
vn 0.9977 -0.0649 -0.0184
vn -0.9357 -0.1380 0.3246
vn -0.8532 0.1228 -0.5069
vn 0.9549 -0.2463 0.1660
vn -0.7253 0.6709 -0.1545
vn -0.2681 -0.4109 0.8714
vn -0.7667 -0.1008 -0.6340
vn 0.4492 0.0505 0.8920
vn 0.6966 0.6279 -0.3471
vn -0.1507 0.0559 -0.9870
vn -0.0276 -0.9171 0.3976
vn 0.1557 0.5311 -0.8329
vn 0.8411 0.3931 0.3716
vn -0.5617 -0.1526 0.8131
vn 0.8102 -0.0976 -0.5780
vn -0.3848 -0.0773 0.9197
vn 0.7795 -0.1605 0.6055
vn 0.2155 0.5175 -0.8281
vn -0.4555 0.0760 -0.8870
vn -0.5885 0.0613 -0.8062
vn 0.1534 0.1126 -0.9817
vn 0.8029 0.1179 -0.5843
vn 0.9850 0.0740 0.1561
vn 0.5882 0.0064 0.8087
vn -0.1548 -0.0448 0.9869
vn -0.8071 -0.0498 0.5883
vn -0.9879 -0.0061 -0.1548
vn -0.7925 0.0261 0.6093
vn -0.1317 0.1576 0.9787
vn 0.5829 0.2447 0.7748
vn 0.9604 0.2439 0.1346
vn 0.7846 0.1567 -0.5998
vn 0.1310 0.0289 -0.9910
vn -0.6048 -0.0644 -0.7937
vn -0.9889 -0.0673 -0.1323
vn -0.9351 0.2989 -0.1903
vn -0.5435 0.1554 -0.8249
vn 0.2027 -0.0360 -0.9786
vn 0.8251 -0.1550 -0.5433
vn 0.9705 -0.1360 0.1993
vn 0.5487 0.0162 0.8358
vn -0.1990 0.2101 0.9572
vn -0.7907 0.3204 0.5216
usemtl Material.008
f 1/1/1 2/2/1 3/3/1 4/4/1
f 5/5/2 6/6/2 7/7/2 8/8/2
f 9/9/3 10/10/3 11/11/3 12/12/3
f 13/13/4 14/14/4 15/15/4 16/16/4
f 17/17/5 1/1/5 4/4/5 18/18/5
f 19/19/6 9/9/6 12/12/6 20/20/6
f 14/14/7 19/19/7 21/21/7 15/15/7
f 2/2/8 13/13/8 16/16/8 22/22/8
f 10/10/9 17/17/9 18/18/9 23/23/9
f 24/24/10 25/25/10 26/26/10
f 27/27/11 28/28/11 29/29/11 30/30/11
f 31/31/12 32/32/12 25/25/12 33/33/12
f 34/34/13 35/35/13 36/36/13 37/37/13
f 35/35/14 5/5/14 8/8/14 36/36/14
f 6/6/15 27/27/15 30/30/15 7/7/15
f 28/28/16 31/31/16 33/33/16 29/29/16
f 32/32/17 34/34/17 37/37/17 25/25/17
f 38/38/18 39/39/18 40/40/18 41/41/18
f 8/8/19 7/7/19 42/42/19 43/43/19
f 33/33/20 25/25/20 24/24/20 44/44/20
f 37/37/21 36/36/21 45/45/21 46/46/21
f 36/36/22 8/8/22 47/47/22 45/45/22
f 7/7/23 30/30/23 48/48/23 42/42/23
f 29/29/24 33/33/24 44/44/24 49/49/24
f 50/50/25 51/51/25 52/52/25 53/53/25
f 54/54/26 55/55/26 56/56/26 57/57/26
f 58/58/27 59/59/27 50/50/27 60/60/27
f 26/26/28 61/61/28 62/62/28 51/51/28
f 39/39/29 54/54/29 57/57/29 40/40/29
f 55/55/30 58/58/30 60/60/30 56/56/30
f 59/59/31 26/26/31 51/51/31 50/50/31
f 61/61/32 38/38/32 41/41/32 62/62/32
f 63/63/33 64/64/33 65/65/33 66/66/33
f 62/62/34 41/41/34 67/67/34 68/68/34
f 41/41/35 40/40/35 69/69/35 67/67/35
f 57/57/36 56/56/36 70/70/36 71/71/36
f 60/60/37 50/50/37 53/53/37 72/72/37
f 51/51/38 62/62/38 73/73/38 52/52/38
f 40/40/39 57/57/39 71/71/39 69/69/39
f 56/56/40 60/60/40 74/74/40 70/70/40
f 75/75/41 76/76/41 77/77/41 78/78/41
f 79/79/42 80/80/42 75/75/42 81/81/42
f 82/82/43 83/83/43 84/84/43 76/76/43
f 85/85/44 86/86/44 87/87/44 88/88/44
f 86/86/45 63/63/45 66/66/45 87/87/45
f 64/64/46 79/79/46 81/81/46 65/65/46
f 80/80/47 82/82/47 76/76/47 75/75/47
f 83/83/48 85/85/48 88/88/48 84/84/48
f 89/89/49 90/90/49 91/91/49
f 84/84/50 88/88/50 92/92/50 93/93/50
f 66/66/51 65/65/51 94/94/51 95/95/51
f 81/81/52 75/75/52 78/78/52 96/96/52
f 76/76/53 84/84/53 97/97/53 77/77/53
f 88/88/54 87/87/54 98/98/54 92/92/54
f 87/87/55 66/66/55 99/99/55 98/98/55
f 65/65/56 81/81/56 96/96/56 94/94/56
f 100/100/57 101/101/57 91/91/57
f 102/102/58 103/103/58 91/91/58
f 104/104/59 105/105/59 91/91/59
f 90/90/60 100/100/60 91/91/60
f 101/101/61 102/102/61 91/91/61
f 103/103/62 104/104/62 91/91/62
f 105/105/63 89/89/63 91/91/63
f 92/92/64 98/98/64 89/89/64 105/105/64
f 77/77/65 97/97/65 104/104/65 103/103/65
f 96/96/66 78/78/66 102/102/66 101/101/66
f 95/95/67 94/94/67 100/100/67 90/90/67
f 66/66/68 95/95/68 90/90/68
f 78/78/69 77/77/69 103/103/69 102/102/69
f 94/94/70 96/96/70 101/101/70 100/100/70
f 98/98/71 99/99/71 90/90/71 89/89/71
f 52/52/72 73/73/72 85/85/72 83/83/72
f 71/71/73 70/70/73 79/79/73 64/64/73
f 67/67/74 69/69/74 63/63/74 86/86/74
f 68/68/75 67/67/75 86/86/75 85/85/75
f 53/53/76 52/52/76 83/83/76 82/82/76
f 70/70/77 74/74/77 80/80/77 79/79/77
f 69/69/78 71/71/78 64/64/78 63/63/78
f 46/46/79 45/45/79 38/38/79 61/61/79
f 44/44/80 24/24/80 26/26/80 59/59/80
f 43/43/81 42/42/81 54/54/81 39/39/81
f 26/26/82 25/25/82 106/106/82
f 49/49/83 44/44/83 59/59/83 58/58/83
f 42/42/84 48/48/84 55/55/84 54/54/84
f 45/45/85 47/47/85 39/39/85 38/38/85
f 16/16/86 15/15/86 34/34/86 32/32/86
f 4/4/87 3/3/87 31/31/87 28/28/87
f 23/23/88 18/18/88 27/27/88 6/6/88
f 19/19/89 20/20/89 35/35/89
f 15/15/90 21/21/90 35/35/90 34/34/90
f 2/2/91 22/22/91 31/31/91
f 18/18/92 4/4/92 28/28/92 27/27/92
f 12/12/93 11/11/93 6/6/93 5/5/93
f 85/85/94 86/86/94 63/63/94 64/64/94 79/79/94 80/80/94 82/82/94 83/83/94
f 107/107/95 108/108/95 17/17/95 10/10/95
f 109/109/96 110/110/96 13/13/96 2/2/96
f 111/111/97 112/112/97 19/19/97 14/14/97
f 112/112/98 113/113/98 9/9/98 19/19/98
f 108/108/99 114/114/99 1/1/99 17/17/99
f 110/110/100 111/111/100 14/14/100 13/13/100
f 113/113/101 107/107/101 10/10/101 9/9/101
f 114/114/102 109/109/102 2/2/102 1/1/102
f 55/55/103 115/115/103 49/49/103 58/58/103
f 115/115/104 30/30/104 29/29/104 49/49/104
f 47/47/105 8/8/105 39/39/105
f 8/8/106 43/43/106 39/39/106
f 30/30/107 55/55/107 48/48/107
f 55/55/108 30/30/108 115/115/108
f 73/73/109 62/62/109 85/85/109
f 68/68/110 85/85/110 62/62/110
f 35/35/111 20/20/111 12/12/111 5/5/111
f 35/35/112 21/21/112 19/19/112
f 6/6/113 10/10/113 23/23/113
f 10/10/114 6/6/114 11/11/114
f 31/31/115 22/22/115 16/16/115 32/32/115
f 3/3/116 2/2/116 31/31/116
f 106/106/117 25/25/117 37/37/117 46/46/117
f 26/26/118 106/106/118 46/46/118 61/61/118
f 80/80/119 72/72/119 53/53/119 82/82/119
f 60/60/120 72/72/120 80/80/120
f 80/80/121 74/74/121 60/60/121
f 99/99/122 66/66/122 90/90/122
f 104/104/123 84/84/123 93/93/123
f 104/104/124 93/93/124 92/92/124 105/105/124
f 84/84/125 104/104/125 97/97/125
usemtl Material.001
f 116/116/126 112/117/126 111/118/126 117/119/126
f 117/119/127 111/118/127 110/120/127 118/121/127
f 118/121/128 110/120/128 109/122/128 119/123/128
f 119/123/129 109/122/129 114/124/129 120/125/129
f 120/125/130 114/124/130 108/126/130 121/127/130
f 121/127/131 108/126/131 107/128/131 122/129/131
f 122/129/132 107/128/132 113/130/132 123/131/132
f 123/131/133 113/130/133 112/117/133 116/116/133
f 124/132/134 122/129/134 123/131/134 125/133/134
f 126/134/135 121/127/135 122/129/135 124/132/135
f 127/135/136 120/125/136 121/127/136 126/134/136
f 128/136/137 119/123/137 120/125/137 127/135/137
f 129/137/138 118/121/138 119/123/138 128/136/138
f 130/138/139 117/119/139 118/121/139 129/137/139
f 131/139/140 116/116/140 117/119/140 130/138/140
f 125/133/141 123/131/141 116/116/141 131/139/141
f 132/140/142 125/133/142 131/139/142 133/141/142
f 133/141/143 131/139/143 130/138/143 134/142/143
f 134/142/144 130/138/144 129/137/144 135/143/144
f 135/143/145 129/137/145 128/136/145 136/144/145
f 136/144/146 128/136/146 127/135/146 137/145/146
f 137/145/147 127/135/147 126/134/147 138/146/147
f 138/146/148 126/134/148 124/132/148 139/147/148
f 139/147/149 124/132/149 125/133/149 132/140/149
