mtllib LOW_POLY_set.mtl
o lp_conifer6_Cylinder_001
v 7.749809 2.368921 -16.083996
v 7.666415 2.368921 -15.599689
v 6.936208 2.349624 -15.434727
v 7.085128 2.231973 -16.670067
v 10.442722 3.285095 -16.334618
v 9.309409 3.394132 -17.693993
v 8.984701 5.089634 -16.837051
v 9.556925 5.089634 -16.026775
v 8.919030 2.368921 -15.882668
v 8.635539 2.368921 -16.284092
v 9.047874 2.333625 -17.176615
v 9.887476 2.415096 -16.149618
v 7.949906 2.368921 -15.198266
v 8.434212 2.368921 -15.114872
v 8.616380 2.250676 -14.308502
v 7.596407 2.131603 -14.638437
v 8.151233 2.368921 -16.367487
v 7.915715 2.393048 -17.335855
v 8.835636 2.368921 -15.398362
v 9.663027 2.269748 -15.021729
v 9.498314 4.897627 -17.783850
v 10.648588 4.911350 -16.273396
v 8.999899 1.488042 -12.610847
v 10.972405 1.580190 -14.151862
v 9.960732 3.830313 -14.859777
v 8.772986 3.209099 -13.668441
v 7.488295 4.753244 -17.937937
v 8.007126 5.089634 -17.005381
v 7.196850 5.089634 -16.433157
v 6.258951 5.157893 -16.716177
v 9.896031 2.026474 -18.988146
v 7.554276 1.956588 -18.821989
v 7.754227 3.098136 -18.069807
v 6.531787 3.167398 -17.106371
v 5.731776 1.518760 -17.666126
v 5.053439 1.911509 -15.034003
v 5.646382 2.628182 -15.143340
v 11.248511 2.124108 -16.529785
v 6.429571 1.848100 -13.479666
v 7.198720 3.488843 -14.184847
v 7.536047 6.357088 -14.321400
v 8.626625 5.699224 -13.796536
v 8.490263 7.718473 -14.866764
v 7.814100 7.718473 -14.983193
v 7.790243 5.452312 -17.631456
v 7.028522 5.089634 -15.455583
v 5.832397 4.743555 -15.129468
v 6.508445 5.924923 -15.241663
v 8.578320 5.089634 -14.476977
v 9.388595 5.089634 -15.049200
v 10.635823 5.253949 -14.659129
v 8.728522 4.684399 -13.232622
v 9.032131 6.382353 -17.054529
v 5.725870 4.743149 -15.445299
v 7.600745 5.089634 -14.645307
v 7.201295 5.118127 -13.464964
v 9.050709 7.718473 -15.262558
v 9.167137 7.718473 -15.938720
v 10.084723 6.999304 -16.156626
v 9.782846 7.295405 -14.822757
v 10.104675 5.825868 -16.119642
v 8.771343 7.718473 -16.499165
v 6.828783 6.162493 -16.484776
v 7.534738 7.718473 -16.219799
v 8.095181 7.718473 -16.615593
v 7.418310 7.718473 -15.543638
v 9.762447 6.421344 -14.931279
v 7.500350 9.079838 -15.740414
v 7.888021 8.990842 -15.250505
v 8.292723 10.498754 -15.741179
v 7.907908 7.511775 -17.444569
v 9.132561 7.189651 -17.345459
v 6.831324 7.480351 -16.710308
v 7.118713 7.980755 -16.629141
v 8.631923 7.796627 -14.085450
v 7.403249 7.466787 -14.137980
v 7.683301 7.495169 -17.306179
v 7.728419 8.053034 -17.076031
v 6.462607 7.541560 -15.398689
v 9.532619 7.372828 -14.606734
v 8.346507 9.079838 -15.206119
v 8.761967 8.951288 -15.564783
v 8.916708 8.872181 -16.064688
v 8.530886 8.949311 -16.546410
v 7.919310 9.071311 -16.515507
v 7.633434 9.050174 -16.339367
v 7.053036 1.711794 -12.946076
v 9.702950 7.622317 -16.075996
v 8.925985 7.777640 -17.046087
v 7.631398 7.861275 -14.436413
v 8.554686 8.040494 -14.347025
v 6.850710 8.040494 -15.422982
v 9.391330 7.781622 -15.069301
v 6.046374 1.542481 -17.585970
v 5.993653 1.559855 -17.961145
v 9.375577 5.135149 -18.020742
v 7.703166 4.735645 -18.115932
v 6.907626 7.467684 -16.981737
v 11.205577 1.658807 -14.679386
v 9.029686 1.109457 -15.275832
v 8.558703 1.109457 -14.943218
v 7.990476 1.109457 -15.041060
v 7.657862 1.109457 -15.512044
v 7.755706 1.109457 -16.080275
v 8.226690 1.109457 -16.412886
v 8.794918 1.109457 -16.315042
v 9.127529 1.109457 -15.844060
v 9.083466 0.144903 -15.919816
v 8.978177 0.144903 -15.308355
v 8.725547 0.144903 -16.426634
v 8.114085 0.144903 -16.531921
v 7.607268 0.144903 -16.174004
v 7.501980 0.144903 -15.562542
v 7.859900 0.144903 -15.055725
v 8.471359 0.144903 -14.950437
vt 0.857892 0.781894
vt 0.857866 0.781894
vt 0.857630 0.781888
vt 0.857678 0.781850
vt 0.858760 0.782189
vt 0.858395 0.782224
vt 0.858290 0.782771
vt 0.858475 0.782771
vt 0.858269 0.781894
vt 0.858178 0.781894
vt 0.858311 0.781882
vt 0.858581 0.781909
vt 0.857957 0.781894
vt 0.858113 0.781894
vt 0.858172 0.781856
vt 0.857843 0.781817
vt 0.858022 0.781894
vt 0.857946 0.781902
vt 0.858242 0.781894
vt 0.858509 0.781862
vt 0.858456 0.782709
vt 0.858827 0.782713
vt 0.858295 0.781610
vt 0.858931 0.781640
vt 0.858605 0.782365
vt 0.858222 0.782165
vt 0.857808 0.782662
vt 0.857975 0.782771
vt 0.857714 0.782771
vt 0.857412 0.782793
vt 0.858584 0.781783
vt 0.857829 0.781761
vt 0.857894 0.782129
vt 0.857500 0.782151
vt 0.857242 0.781620
vt 0.857023 0.781746
vt 0.857215 0.781977
vt 0.859020 0.781815
vt 0.857467 0.781726
vt 0.857715 0.782255
vt 0.857823 0.783179
vt 0.858175 0.782967
vt 0.858131 0.783618
vt 0.857913 0.783618
vt 0.857905 0.782887
vt 0.857660 0.782771
vt 0.857274 0.782659
vt 0.857492 0.783040
vt 0.858159 0.782771
vt 0.858421 0.782771
vt 0.858822 0.782824
vt 0.858208 0.782640
vt 0.858306 0.783187
vt 0.857240 0.782659
vt 0.857844 0.782771
vt 0.857716 0.782780
vt 0.858312 0.783618
vt 0.858349 0.783618
vt 0.858645 0.783386
vt 0.858548 0.783481
vt 0.858651 0.783008
vt 0.858222 0.783618
vt 0.857596 0.783116
vt 0.857823 0.783618
vt 0.858004 0.783618
vt 0.857786 0.783618
vt 0.858541 0.783200
vt 0.857812 0.784056
vt 0.857937 0.784028
vt 0.858067 0.784514
vt 0.857943 0.783551
vt 0.858338 0.783447
vt 0.857596 0.783541
vt 0.857689 0.783702
vt 0.858177 0.783643
vt 0.857781 0.783537
vt 0.857871 0.783546
vt 0.857885 0.783726
vt 0.857478 0.783561
vt 0.858467 0.783506
vt 0.858085 0.784056
vt 0.858219 0.784015
vt 0.858268 0.783989
vt 0.858144 0.784014
vt 0.857947 0.784054
vt 0.857855 0.784047
vt 0.857668 0.781682
vt 0.858522 0.783587
vt 0.858271 0.783637
vt 0.857854 0.783664
vt 0.858152 0.783722
vt 0.857603 0.783722
vt 0.858421 0.783638
vt 0.857343 0.781627
vt 0.857326 0.781633
vt 0.858416 0.782785
vt 0.857877 0.782656
vt 0.857621 0.783537
vt 0.859006 0.781665
vt 0.852021 0.450907
vt 0.851789 0.452411
vt 0.851310 0.452411
vt 0.851458 0.450907
vt 0.850731 0.452411
vt 0.850780 0.450907
vt 0.850393 0.452411
vt 0.850383 0.450907
vt 0.850492 0.452411
vt 0.850499 0.450907
vt 0.850972 0.452411
vt 0.851062 0.450907
vt 0.851550 0.452411
vt 0.851740 0.450907
vt 0.851889 0.452411
vt 0.852138 0.450907
vt 0.852085 0.449755
vt 0.851959 0.449755
vt 0.851658 0.449755
vt 0.850927 0.449755
vt 0.850322 0.449755
vt 0.850196 0.449755
vt 0.850624 0.449755
vt 0.851354 0.449755
vn 0.0872 -0.9930 0.0797
vn 0.7201 0.4302 -0.5444
vn 0.0336 -0.9990 0.0306
vn 0.1402 -0.9624 -0.2329
vn 0.1280 -0.9918 -0.0021
vn -0.0236 -0.9953 -0.0942
vn -0.0707 -0.9901 -0.1216
vn 0.0730 -0.9695 -0.2340
vn -0.0371 -0.9993 0.0025
vn -0.1434 -0.9833 0.1122
vn 0.5106 0.4772 0.7152
vn -0.0021 -0.9760 0.2178
vn -0.0174 0.6303 -0.7762
vn -0.8100 0.5263 -0.2589
vn 0.6608 0.6162 -0.4284
vn -0.6245 0.5518 0.5527
vn -0.1488 0.4558 0.8775
vn 0.8852 -0.1977 -0.4212
vn -0.2812 0.0700 -0.9571
vn 0.0608 -0.9787 -0.1962
vn -0.0139 -0.9914 0.1301
vn -0.8820 -0.0465 -0.4690
vn 0.1385 -0.9807 -0.1377
vn -0.1424 -0.9758 -0.1662
vn -0.5695 -0.8220 0.0026
vn 0.7244 0.3973 -0.5634
vn -0.5579 0.3926 -0.7312
vn -0.7089 0.4362 0.5542
vn 0.4895 0.4427 0.7513
vn 0.8847 0.4608 0.0705
vn 0.1371 0.3946 -0.9086
vn -0.8912 0.4282 -0.1498
vn -0.6885 0.3848 0.6147
vn -0.1962 -0.9052 0.3771
vn 0.6075 -0.2253 -0.7617
vn 0.1766 -0.9814 -0.0755
vn -0.5176 -0.7966 0.3122
vn 0.8250 0.1572 -0.5429
vn 0.1795 -0.9687 -0.1715
vn -0.3043 -0.9515 -0.0451
vn 0.6754 0.2825 0.6812
vn 0.9219 0.3066 0.2369
vn 0.0484 0.4664 -0.8832
vn -0.8533 0.4758 -0.2131
vn -0.8533 0.4759 -0.2131
vn -0.8531 0.4763 -0.2131
vn -0.1563 0.3433 0.9261
vn 0.7473 0.3932 -0.5356
vn -0.4777 0.5122 -0.7138
vn -0.1234 0.5426 0.8309
vn -0.9278 -0.1591 -0.3374
vn 0.7078 -0.0285 0.7058
vn -0.5372 0.4675 -0.7021
vn 0.7269 0.4619 -0.5082
vn -0.1919 0.6021 0.7750
vn -0.8564 0.4701 -0.2136
vn 0.0964 0.4410 -0.8923
vn 0.8340 0.5231 0.1754
vn 0.6324 0.5648 0.5301
vn -0.6019 0.5524 0.5767
vn -0.2076 0.3459 0.9150
vn 0.5466 0.3719 0.7503
vn -0.5302 0.4448 -0.7218
vn 0.1348 0.4600 -0.8776
vn -0.6757 0.4129 0.6107
vn -0.8732 0.4271 -0.2346
vn 0.2261 0.2130 -0.9505
vn -0.9589 0.2434 0.1460
vn 0.8957 0.4207 0.1440
vn -0.5070 0.5324 -0.6779
vn -0.8291 0.5409 -0.1411
vn 0.9492 0.0180 0.3141
vn 0.8260 0.5577 -0.0820
vn 0.4336 0.4848 0.7596
vn 0.0636 -0.2102 0.9756
vn -0.9551 -0.0773 0.2861
vn 0.6973 0.4871 -0.5258
vn -0.0214 0.5346 0.8448
vn -0.0810 0.5853 -0.8067
vn 0.1343 -0.9814 0.1370
vn -0.7083 0.4966 0.5017
vn 0.1928 -0.9812 -0.0027
vn -0.5988 0.6033 0.5268
vn 0.5831 0.6831 0.4397
vn 0.8092 0.5790 0.0994
vn 0.1782 0.5454 -0.8191
vn -0.7393 -0.1473 0.6570
vn -0.2059 0.6724 0.7110
vn 0.7131 0.5005 -0.4910
vn -0.8220 -0.4806 0.3055
vn -0.4467 0.5077 -0.7367
vn 0.1371 -0.9664 0.2174
vn 0.4809 -0.5789 -0.6585
vn -0.4984 0.0378 0.8661
vn 0.0034 -0.9754 0.2204
vn -0.2921 -0.9314 -0.2172
vn -0.1329 -0.9820 0.1340
vn -0.2336 -0.9043 -0.3574
vn 0.0401 -0.9440 -0.3274
vn 0.1178 -0.9688 -0.2180
vn 0.2846 -0.9357 0.2084
vn 0.3641 -0.9164 0.1663
vn -0.5153 0.4864 -0.7056
vn -0.2372 -0.0554 0.9699
vn 0.5469 -0.0175 -0.8370
vn 0.8457 0.5198 0.1210
vn 0.2251 -0.9706 0.0848
vn -0.8004 0.5540 -0.2290
vn 0.5689 0.1660 0.8055
vn -0.1685 0.1167 0.9788
vn -0.8160 0.0456 0.5763
vn -0.9855 -0.0051 -0.1697
vn -0.5769 -0.0051 -0.8168
vn 0.1695 0.0456 -0.9845
vn 0.8113 0.1167 -0.5729
vn 0.9718 0.1660 0.1673
vn 0.9838 -0.0583 0.1694
vn 0.8168 0.0080 -0.5768
vn 0.1688 0.1013 -0.9804
vn -0.5689 0.1658 -0.8055
vn -0.9719 0.1658 -0.1673
vn -0.8126 0.1013 0.5739
vn -0.1697 0.0080 0.9855
vn 0.5759 -0.0583 0.8155
usemtl Material.007
f 1/1/1 2/2/1 3/3/1 4/4/1
f 5/5/2 6/6/2 7/7/2 8/8/2
f 9/9/3 10/10/3 11/11/3 12/12/3
f 13/13/4 14/14/4 15/15/4 16/16/4
f 17/17/5 1/1/5 4/4/5 18/18/5
f 19/19/6 9/9/6 12/12/6 20/20/6
f 14/14/7 19/19/7 20/20/7 15/15/7
f 2/2/8 13/13/8 16/16/8 3/3/8
f 10/10/9 17/17/9 18/18/9 11/11/9
f 8/8/10 7/7/10 21/21/10 22/22/10
f 23/23/11 24/24/11 25/25/11 26/26/11
f 27/27/12 28/28/12 29/29/12 30/30/12
f 31/31/13 32/32/13 33/33/13 6/6/13
f 34/34/14 35/35/14 36/36/14 37/37/14
f 38/38/15 31/31/15 6/6/15 5/5/15
f 36/36/16 39/39/16 40/40/16 37/37/16
f 41/41/17 42/42/17 43/43/17 44/44/17
f 27/27/18 45/45/18 28/28/18
f 46/46/19 47/47/19 48/48/19
f 49/49/20 50/50/20 51/51/20 52/52/20
f 50/50/21 8/8/21 22/22/21 51/51/21
f 21/21/22 7/7/22 53/53/22
f 29/29/23 46/46/23 54/54/23 30/30/23
f 55/55/24 49/49/24 52/52/24 56/56/24
f 57/57/25 58/58/25 59/59/25 60/60/25
f 61/61/26 53/53/26 62/62/26 58/58/26
f 45/45/27 63/63/27 64/64/27 65/65/27
f 48/48/28 41/41/28 44/44/28 66/66/28
f 42/42/29 67/67/29 57/57/29 43/43/29
f 67/67/30 61/61/30 58/58/30 57/57/30
f 53/53/31 45/45/31 65/65/31 62/62/31
f 63/63/32 48/48/32 66/66/32 64/64/32
f 68/68/33 69/69/33 70/70/33
f 62/62/34 65/65/34 71/71/34 72/72/34
f 64/64/35 73/73/35 74/74/35
f 44/44/36 43/43/36 75/75/36 76/76/36
f 58/58/37 62/62/37 72/72/37 59/59/37
f 65/65/38 77/77/38 78/78/38
f 66/66/39 44/44/39 76/76/39 79/79/39
f 43/43/40 57/57/40 80/80/40 75/75/40
f 81/81/41 82/82/41 70/70/41
f 82/82/42 83/83/42 70/70/42
f 84/84/43 85/85/43 70/70/43
f 86/86/44 68/68/45 70/70/46
f 69/69/47 81/81/47 70/70/47
f 83/83/48 84/84/48 70/70/48
f 85/85/49 86/86/49 70/70/49
f 40/40/50 87/87/50 23/23/50 26/26/50
f 16/16/51 87/87/51 40/40/51
f 39/39/52 16/16/52 40/40/52
f 78/78/53 74/74/53 86/86/53 85/85/53
f 88/88/54 89/89/54 84/84/54 83/83/54
f 90/90/55 91/91/55 81/81/55 69/69/55
f 74/74/56 92/92/56 68/68/45 86/86/44
f 89/89/57 78/78/57 85/85/57 84/84/57
f 93/93/58 88/88/58 83/83/58 82/82/58
f 91/91/59 93/93/59 82/82/59 81/81/59
f 92/92/60 90/90/60 69/69/60 68/68/60
f 26/26/61 49/49/61 55/55/61 40/40/61
f 26/26/62 25/25/62 50/50/62 49/49/62
f 33/33/63 34/34/63 29/29/63 28/28/63
f 6/6/64 33/33/64 28/28/64 7/7/64
f 37/37/65 40/40/65 55/55/65 46/46/65
f 37/37/66 46/46/66 29/29/66 34/34/66
f 35/35/67 34/34/67 94/94/67
f 34/34/68 95/95/68 94/94/68
f 25/25/69 5/5/69 8/8/69 50/50/69
f 32/32/70 95/95/70 34/34/70 33/33/70
f 30/30/71 54/54/71 48/48/71 63/63/71
f 7/7/72 96/96/72 53/53/72
f 51/51/73 22/22/73 61/61/73 67/67/73
f 52/52/74 51/51/74 67/67/74 42/42/74
f 54/54/75 46/46/75 48/48/75
f 97/97/76 28/28/76 45/45/76
f 22/22/77 21/21/77 53/53/77 61/61/77
f 56/56/78 52/52/78 42/42/78 41/41/78
f 53/53/79 96/96/79 97/97/79 45/45/79
f 96/96/80 7/7/80 28/28/80 97/97/80
f 48/48/81 47/47/81 56/56/81 41/41/81
f 47/47/82 46/46/82 55/55/82 56/56/82
f 79/79/83 76/76/83 90/90/83 92/92/83
f 75/75/84 80/80/84 93/93/84 91/91/84
f 60/60/85 59/59/85 88/88/85 93/93/85
f 72/72/86 71/71/86 78/78/86 89/89/86
f 98/98/87 64/64/87 74/74/87
f 76/76/88 75/75/88 91/91/88 90/90/88
f 59/59/89 72/72/89 89/89/89 88/88/89
f 71/71/90 65/65/90 78/78/90
f 78/78/91 77/77/91 98/98/91 74/74/91
f 77/77/92 65/65/92 64/64/92 98/98/92
f 80/80/93 57/57/93 93/93/93
f 57/57/94 60/60/94 93/93/94
f 11/11/95 18/18/95 32/32/95 31/31/95
f 20/20/96 12/12/96 38/38/96 99/99/96
f 12/12/97 11/11/97 31/31/97 38/38/97
f 15/15/98 20/20/98 24/24/98 23/23/98
f 16/16/99 15/15/99 23/23/99 87/87/99
f 3/3/100 16/16/100 39/39/100 36/36/100
f 4/4/101 3/3/101 36/36/101 35/35/101 94/94/101
f 18/18/102 4/4/102 94/94/102 95/95/102 32/32/102
f 45/45/103 27/27/103 30/30/103 63/63/103
f 25/25/104 20/20/104 99/99/104
f 25/25/105 24/24/105 20/20/105
f 25/25/106 99/99/106 38/38/106 5/5/106
f 73/73/107 64/64/107 66/66/107 79/79/107
f 74/74/108 73/73/108 79/79/108 92/92/108
usemtl Material.001
f 100/100/109 19/101/109 14/102/109 101/103/109
f 101/103/110 14/102/110 13/104/110 102/105/110
f 102/105/111 13/104/111 2/106/111 103/107/111
f 103/107/112 2/106/112 1/108/112 104/109/112
f 104/109/113 1/108/113 17/110/113 105/111/113
f 105/111/114 17/110/114 10/112/114 106/113/114
f 106/113/115 10/112/115 9/114/115 107/115/115
f 107/115/116 9/114/116 19/101/116 100/100/116
f 108/116/117 107/115/117 100/100/117 109/117/117
f 110/118/118 106/113/118 107/115/118 108/116/118
f 111/119/119 105/111/119 106/113/119 110/118/119
f 112/120/120 104/109/120 105/111/120 111/119/120
f 113/121/121 103/107/121 104/109/121 112/120/121
f 114/122/122 102/105/122 103/107/122 113/121/122
f 115/123/123 101/103/123 102/105/123 114/122/123
f 109/117/124 100/100/124 101/103/124 115/123/124
