mtllib LOW_POLY_set.mtl
o lp_conifer7_Cylinder_002
v 16.614887 4.176626 -14.977612
v 17.141993 4.193000 -15.201263
v 19.879131 3.362866 -12.443819
v 16.253099 2.923288 -11.101370
v 13.729225 5.775706 -18.414803
v 12.518513 5.524420 -15.504703
v 14.094205 7.506503 -16.184921
v 15.200979 7.542704 -17.072865
v 15.991658 4.181060 -16.281139
v 15.792156 4.171303 -15.741201
v 11.840502 3.347668 -15.251857
v 13.227597 3.666806 -18.783274
v 17.330194 4.195167 -15.741201
v 17.077084 4.189870 -16.281139
v 19.801086 2.900875 -19.038582
v 20.899597 3.226001 -16.386539
v 16.052258 4.165218 -15.201263
v 15.678666 2.968396 -11.194242
v 13.338707 3.535286 -12.443819
v 16.525789 4.186041 -16.504789
v 15.993085 3.049805 -20.404404
v 20.843351 3.438910 -15.551387
v 13.092620 7.236888 -15.637022
v 14.047841 7.312035 -18.208475
v 16.148561 4.759128 -19.032219
v 18.849247 4.618604 -18.067287
v 14.070920 5.083928 -17.912167
v 14.075354 4.528132 -13.115192
v 13.014271 4.758526 -15.363167
v 16.325212 4.085949 -12.044584
v 19.170700 4.704055 -13.204408
v 19.644072 4.712822 -15.514894
v 18.706770 10.728202 -15.851876
v 18.198399 10.599854 -17.256577
v 17.474262 11.987757 -16.662277
v 17.849117 12.006730 -15.741200
v 14.851996 7.389339 -14.333406
v 16.679159 7.540802 -13.566483
v 16.940895 7.251916 -12.248974
v 14.093218 6.825107 -13.186808
v 18.526628 7.736781 -14.333406
v 19.105433 7.073535 -13.466830
v 18.272461 8.689384 -13.957658
v 17.857855 7.597488 -17.072865
v 16.531298 7.569323 -17.624458
v 16.045446 7.356996 -19.633074
v 19.236059 6.990258 -18.208475
v 13.956807 8.375610 -15.580493
v 18.806330 7.069163 -13.092909
v 18.396751 7.662367 -15.741201
v 20.001507 7.340640 -16.078588
v 16.557600 11.948038 -17.043798
v 15.641614 11.909384 -16.662277
v 14.677380 10.850710 -17.620598
v 16.479410 11.181931 -18.108509
v 15.107507 10.618310 -17.256577
v 14.456564 10.571032 -15.657128
v 15.259624 11.891678 -15.741200
v 14.950779 10.435971 -14.196629
v 16.509298 10.597795 -13.597136
v 16.501764 11.943726 -14.438602
v 15.610081 11.899134 -14.820124
v 17.918161 10.766414 -14.269924
v 17.437571 11.993895 -14.820124
v 16.462687 10.668752 -18.010525
v 17.394161 13.669199 -14.840159
v 17.822287 13.418230 -15.949826
v 16.346491 15.631019 -15.392110
v 14.717361 11.551583 -13.946909
v 13.951509 11.093470 -15.528444
v 18.268780 11.738208 -13.946909
v 16.151352 11.506498 -13.203689
v 18.342772 11.709316 -17.535492
v 19.087029 11.414915 -16.060337
v 15.041139 11.534803 -13.778315
v 15.320452 12.373751 -14.012297
v 16.935860 11.309434 -17.968662
v 17.414482 13.416674 -16.824703
v 16.449718 13.020818 -17.023228
v 15.449210 13.183843 -16.787777
v 15.201254 13.022484 -15.647039
v 15.722998 13.433037 -14.711761
v 16.299883 13.506630 -14.428730
v 16.310139 12.315208 -13.609895
v 15.060187 11.751349 -17.214092
v 14.468785 11.949740 -15.506895
v 18.652834 12.245444 -15.940922
v 18.039816 12.481703 -17.144648
v 18.021267 12.489627 -14.216365
v 16.525093 12.038076 -17.612226
v 19.300592 5.413497 -18.535549
v 20.293425 5.499613 -15.622808
v 16.842577 5.502287 -19.456560
v 14.836158 5.834866 -13.917871
v 14.240267 5.186325 -12.608964
v 13.740439 5.272344 -12.828920
v 19.556768 5.567593 -12.898365
v 16.461960 4.979183 -11.612013
v 16.272419 5.522883 -19.670200
v 16.689054 8.377317 -13.078443
v 13.076482 7.360056 -15.311432
v 14.762809 8.475084 -17.650808
v 16.330290 8.519768 -18.701130
v 18.691380 8.296948 -17.650812
v 14.609899 8.059778 -13.803123
v 19.271551 8.558257 -15.991084
v 16.299377 6.061424 -18.033701
v 14.795637 6.219204 -17.272778
v 18.337070 6.097177 -13.964465
v 16.454859 5.669104 -13.182769
v 18.756124 6.097557 -15.595959
v 14.090465 5.986801 -15.516718
v 18.143362 5.999383 -17.353790
v 16.579454 9.791368 -13.809992
v 17.782454 9.986444 -14.445034
v 18.598171 9.587693 -13.552783
v 16.593845 9.258372 -12.513453
v 14.667190 9.771708 -15.644712
v 15.098164 9.589190 -14.341932
v 14.172175 8.946632 -13.397986
v 13.407702 9.282114 -15.561318
v 16.446516 9.887076 -17.892141
v 15.279841 9.838568 -17.142942
v 14.365047 9.349195 -18.018093
v 16.312971 9.402048 -19.228817
v 18.127743 9.763451 -17.142942
v 19.063114 9.188407 -18.018093
v 18.537395 9.934044 -15.918651
v 19.805412 9.435273 -15.972603
v 16.585501 1.783536 -16.720007
v 17.171421 1.783536 -16.477310
v 17.414120 1.783536 -15.891389
v 17.171421 1.783536 -15.305470
v 16.585615 1.783530 -15.062774
v 15.999578 1.783536 -15.305470
v 15.756883 1.783536 -15.891389
v 15.999578 1.783536 -16.477310
v 15.731782 0.144900 -16.513124
v 16.503704 0.144900 -16.832865
v 15.412041 0.144900 -15.741201
v 15.731782 0.144900 -14.969279
v 16.503704 0.144900 -14.649538
v 17.275627 0.144900 -14.969279
v 17.595367 0.144900 -15.741201
v 17.275627 0.144900 -16.513124
vt 0.798022 0.801804
vt 0.798131 0.801807
vt 0.798700 0.801634
vt 0.797946 0.801543
vt 0.797421 0.802136
vt 0.797170 0.802084
vt 0.797497 0.802496
vt 0.797728 0.802504
vt 0.797892 0.801805
vt 0.797850 0.801803
vt 0.797029 0.801631
vt 0.797317 0.801698
vt 0.798170 0.801808
vt 0.798118 0.801806
vt 0.798684 0.801538
vt 0.798913 0.801606
vt 0.797905 0.801801
vt 0.797827 0.801552
vt 0.797340 0.801670
vt 0.798003 0.801806
vt 0.797892 0.801569
vt 0.798901 0.801650
vt 0.797289 0.802440
vt 0.797488 0.802456
vt 0.797925 0.801925
vt 0.798486 0.801896
vt 0.797493 0.801992
vt 0.797493 0.801877
vt 0.797273 0.801925
vt 0.797961 0.801785
vt 0.798553 0.801913
vt 0.798652 0.801915
vt 0.798457 0.803166
vt 0.798351 0.803140
vt 0.798200 0.803428
vt 0.798278 0.803432
vt 0.797655 0.802472
vt 0.798035 0.802503
vt 0.798089 0.802443
vt 0.797497 0.802354
vt 0.798419 0.802544
vt 0.798540 0.802406
vt 0.798366 0.802742
vt 0.798280 0.802515
vt 0.798004 0.802509
vt 0.797903 0.802465
vt 0.798567 0.802389
vt 0.797469 0.802677
vt 0.798477 0.802405
vt 0.798392 0.802529
vt 0.798726 0.802462
vt 0.798010 0.803420
vt 0.797819 0.803412
vt 0.797619 0.803192
vt 0.797993 0.803261
vt 0.797708 0.803143
vt 0.797573 0.803134
vt 0.797740 0.803408
vt 0.797675 0.803105
vt 0.798000 0.803139
vt 0.797998 0.803419
vt 0.797813 0.803410
vt 0.798293 0.803174
vt 0.798193 0.803429
vt 0.797990 0.803154
vt 0.798219 0.803724
vt 0.798304 0.803692
vt 0.797966 0.804186
vt 0.797627 0.803337
vt 0.797468 0.803242
vt 0.798366 0.803376
vt 0.797925 0.803328
vt 0.798381 0.803370
vt 0.798536 0.803309
vt 0.797694 0.803334
vt 0.797752 0.803508
vt 0.798088 0.803287
vt 0.798220 0.803720
vt 0.798013 0.803661
vt 0.797808 0.803706
vt 0.797754 0.803649
vt 0.797869 0.803701
vt 0.797990 0.803699
vt 0.797958 0.803496
vt 0.797698 0.803379
vt 0.797575 0.803420
vt 0.798445 0.803482
vt 0.798318 0.803531
vt 0.798314 0.803533
vt 0.798003 0.803439
vt 0.798580 0.802061
vt 0.798787 0.802079
vt 0.798069 0.802079
vt 0.797652 0.802149
vt 0.797528 0.802014
vt 0.797424 0.802032
vt 0.798633 0.802093
vt 0.797990 0.801971
vt 0.797950 0.802084
vt 0.798037 0.802677
vt 0.797286 0.802466
vt 0.797636 0.802698
vt 0.797962 0.802707
vt 0.798453 0.802661
vt 0.797605 0.802611
vt 0.798574 0.802715
vt 0.797956 0.802196
vt 0.797643 0.802228
vt 0.798380 0.802203
vt 0.797988 0.802114
vt 0.798467 0.802203
vt 0.797497 0.802180
vt 0.798339 0.802183
vt 0.798014 0.802971
vt 0.798264 0.803012
vt 0.798434 0.802929
vt 0.798017 0.802861
vt 0.797616 0.802967
vt 0.797706 0.802929
vt 0.797514 0.802796
vt 0.797355 0.802865
vt 0.797987 0.802991
vt 0.797744 0.802981
vt 0.797554 0.802879
vt 0.797959 0.802890
vt 0.798336 0.802966
vt 0.798531 0.802846
vt 0.798421 0.803001
vt 0.798685 0.802897
vt 0.776207 0.458616
vt 0.776165 0.460328
vt 0.776558 0.460331
vt 0.776625 0.458616
vt 0.776738 0.460335
vt 0.776798 0.458616
vt 0.776604 0.460333
vt 0.776625 0.458616
vt 0.776228 0.460322
vt 0.776208 0.458616
vt 0.775827 0.460314
vt 0.775790 0.458616
vt 0.775642 0.460318
vt 0.775617 0.458616
vt 0.775784 0.460325
vt 0.775790 0.458616
vt 0.775599 0.457448
vt 0.776149 0.457448
vt 0.775371 0.457448
vt 0.775599 0.457448
vt 0.776149 0.457448
vt 0.776699 0.457448
vt 0.776927 0.457448
vt 0.776699 0.457448
vn -0.0073 -0.9548 -0.2973
vn -0.6871 0.6241 -0.3720
vn 0.1962 -0.9806 -0.0028
vn -0.2345 -0.9518 0.1978
vn -0.0363 -0.9566 -0.2891
vn -0.0309 -0.9639 0.2644
vn -0.1401 -0.9443 0.2979
vn -0.2067 -0.9746 -0.0862
vn 0.1909 -0.9805 -0.0471
vn 0.2021 -0.9753 0.0891
vn 0.2963 0.5851 -0.7549
vn -0.2931 0.6174 -0.7300
vn -0.6757 0.6502 0.3475
vn 0.2072 0.5858 0.7835
vn -0.7585 0.6056 -0.2406
vn 0.7608 0.6136 0.2115
vn 0.7720 0.5446 -0.3277
vn 0.2177 -0.9350 -0.2798
vn -0.8795 -0.3582 0.3133
vn -0.1622 -0.9651 0.2055
vn 0.0797 -0.9920 0.0982
vn 0.5196 -0.4309 0.7378
vn -0.1362 -0.9370 -0.3216
vn -0.2041 -0.9599 0.1921
vn 0.2844 -0.7802 0.5572
vn -0.8158 0.4805 -0.3219
vn -0.3585 0.4957 0.7910
vn 0.7894 0.4871 0.3736
vn 0.3378 0.5335 -0.7754
vn -0.3917 0.5457 -0.7407
vn -0.8058 0.5028 0.3127
vn 0.3169 0.4970 0.8078
vn 0.8371 0.5057 0.2086
vn 0.4483 -0.8932 -0.0338
vn -0.0252 -0.9514 -0.3070
vn -0.3532 -0.9338 0.0576
vn 0.5570 -0.7875 0.2636
vn -0.8885 0.1778 -0.4230
vn -0.3662 -0.9290 -0.0534
vn 0.0074 -0.8887 0.4584
vn -0.0422 0.5283 -0.8480
vn -0.1135 0.5233 -0.8446
vn -0.8747 0.3514 0.3337
vn 0.2720 0.3925 0.8786
vn 0.7383 0.5794 -0.3452
vn -0.9018 0.4094 -0.1381
vn -0.4462 0.3777 0.8113
vn 0.6934 0.6529 -0.3048
vn 0.0244 -0.4902 0.8713
vn 0.0749 0.0989 -0.9923
vn -0.3349 0.5664 0.7530
vn -0.8694 0.4191 -0.2617
vn 0.7606 0.5710 -0.3091
vn 0.2257 0.5499 0.8041
vn -0.8015 0.5339 0.2693
vn -0.7991 0.5395 0.2652
vn -0.8018 0.5332 0.2700
vn -0.2467 0.4026 -0.8815
vn 0.0855 0.4521 -0.8879
vn 0.8065 0.5548 0.2046
vn 0.7169 0.6378 -0.2814
vn 0.2823 0.6577 -0.6984
vn -0.8819 -0.1134 -0.4576
vn -0.6858 0.6371 0.3518
vn 0.8078 0.5811 0.0986
vn 0.2270 0.5927 0.7728
vn -0.9949 -0.0185 -0.0988
vn 0.8864 -0.4570 0.0734
vn -0.2657 0.7049 -0.6577
vn -0.2179 0.6607 0.7183
vn 0.3526 0.5624 0.7479
vn -0.6350 0.3709 -0.6777
vn -0.4619 0.6106 -0.6433
vn 0.3957 0.5045 -0.7674
vn 0.9575 0.2810 -0.0647
vn -0.3427 0.5184 0.7835
vn -0.7602 0.5926 -0.2662
vn 0.7922 0.4922 -0.3607
vn -0.6860 0.5922 0.4227
vn 0.1368 -0.9660 -0.2195
vn 0.8016 0.4908 0.3414
vn -0.3846 -0.9156 -0.1172
vn 0.8744 0.4025 0.2708
vn 0.1249 0.4891 -0.8632
vn -0.3134 0.4934 -0.8114
vn -0.7988 0.5401 0.2651
vn 0.2677 0.3957 0.8785
vn 0.8181 0.4780 -0.3198
vn -0.8027 0.4930 -0.3356
vn 0.7032 -0.4736 0.5304
vn -0.3685 0.4202 0.8293
vn 0.1404 -0.9503 -0.2779
vn -0.8762 -0.4812 -0.0261
vn 0.9980 -0.0185 -0.0600
vn 0.0592 -0.9483 0.3119
vn 0.0092 -0.9060 -0.4233
vn -0.3518 -0.9328 -0.0789
vn 0.2721 -0.9382 -0.2139
vn 0.0938 -0.9100 -0.4038
vn -0.1498 -0.9374 0.3143
vn -0.3391 -0.9282 0.1532
vn 0.3130 -0.9493 0.0301
vn -0.7515 0.6193 -0.2273
vn 0.8008 0.5267 -0.2850
vn 0.3046 0.5563 -0.7731
vn -0.2624 0.5924 0.7617
vn -0.6750 0.6325 0.3799
vn 0.8094 0.5575 0.1845
vn 0.2055 0.5603 0.8024
vn -0.3052 0.6042 -0.7361
vn -0.0454 -0.9252 -0.3767
vn 0.3477 -0.9023 -0.2548
vn 0.2211 -0.9268 0.3035
vn -0.2254 -0.9079 0.3534
vn -0.3489 -0.9285 -0.1270
vn 0.2513 -0.8954 -0.3676
vn 0.3722 -0.9208 0.1165
vn -0.3431 -0.9089 0.2369
vn 0.8233 0.4473 -0.3495
vn -0.8467 0.4275 -0.3167
vn -0.3562 0.4085 0.8404
vn 0.8150 0.4330 0.3850
vn 0.3967 0.4376 -0.8069
vn -0.4970 0.4677 -0.7309
vn -0.8345 0.4163 0.3610
vn 0.3627 0.4477 0.8173
vn 0.2809 0.6132 0.7383
vn -0.7354 0.5907 0.3321
vn -0.4046 0.6470 -0.6463
vn 0.3484 0.6156 -0.7069
vn 0.7254 0.6024 0.3331
vn -0.3447 0.5772 0.7403
vn -0.7504 0.5985 -0.2806
vn 0.7115 0.6227 -0.3256
vn -0.0130 0.9979 0.0627
vn 0.6403 0.1923 0.7436
vn -0.3080 0.6144 0.7264
vn -0.8677 0.2500 -0.4295
vn 0.9861 -0.1617 0.0370
vn 0.3776 0.0909 -0.9215
vn 0.9133 0.0627 -0.4025
vn 0.9339 0.0031 0.3574
vn 0.3867 -0.0363 0.9215
vn -0.3757 -0.0303 0.9262
vn -0.9131 -0.0049 0.4077
vn -0.9304 0.0317 -0.3652
vn -0.3840 0.0738 -0.9204
vn -0.3836 0.0735 -0.9206
vn -0.3825 0.0780 -0.9207
vn -0.3814 0.0825 -0.9207
vn -0.9124 0.1574 -0.3779
vn -0.9005 0.2237 0.3730
vn -0.3710 0.2445 0.8959
vn 0.3742 0.2091 0.9034
vn 0.9153 0.1360 0.3791
vn 0.9218 0.0670 -0.3818
vn 0.3823 0.0445 -0.9230
usemtl Material
f 1/1/1 2/2/1 3/3/1 4/4/1
f 5/5/2 6/6/2 7/7/2 8/8/2
f 9/9/3 10/10/3 11/11/3 12/12/3
f 13/13/4 14/14/4 15/15/4 16/16/4
f 17/17/5 1/1/5 18/18/5 19/19/5
f 20/20/6 9/9/6 12/12/6 21/21/6
f 14/14/7 20/20/7 21/21/7 15/15/7
f 2/2/8 13/13/8 22/22/8 3/3/8
f 10/10/9 17/17/9 19/19/9 11/11/9
f 8/8/10 7/7/10 23/23/10 24/24/10
f 15/15/11 21/21/11 25/25/11 26/26/11
f 21/21/12 12/12/12 27/27/12 25/25/12
f 11/11/13 19/19/13 28/28/13 29/29/13
f 30/30/14 4/4/14 3/3/14 31/31/14
f 12/12/15 11/11/15 29/29/15 27/27/15
f 3/3/16 22/22/16 32/32/16 31/31/16
f 33/33/17 34/34/17 35/35/17 36/36/17
f 37/37/18 38/38/18 39/39/18 40/40/18
f 41/41/19 42/42/19 43/43/19
f 44/44/20 45/45/20 46/46/20 47/47/20
f 45/45/21 8/8/21 24/24/21 46/46/21
f 23/23/22 7/7/22 48/48/22
f 38/38/23 41/41/23 49/49/23 39/39/23
f 50/50/24 44/44/24 47/47/24 51/51/24
f 52/52/25 53/53/25 54/54/25 55/55/25
f 56/56/26 57/57/26 58/58/26 53/53/26
f 59/59/27 60/60/27 61/61/27 62/62/27
f 63/63/28 33/33/28 36/36/28 64/64/28
f 34/34/29 65/65/29 52/52/29 35/35/29
f 65/65/30 56/56/30 53/53/30 52/52/30
f 57/57/31 59/59/31 62/62/31 58/58/31
f 60/60/32 63/63/32 64/64/32 61/61/32
f 66/66/33 67/67/33 68/68/33
f 58/58/34 62/62/34 69/69/34 70/70/34
f 61/61/35 64/64/35 71/71/35 72/72/35
f 36/36/36 35/35/36 73/73/36 74/74/36
f 53/53/37 58/58/37 70/70/37 54/54/37
f 62/62/38 75/75/38 76/76/38
f 64/64/39 36/36/39 74/74/39 71/71/39
f 35/35/40 52/52/40 77/77/40 73/73/40
f 78/78/41 79/79/41 68/68/41
f 79/79/42 80/80/42 68/68/42
f 81/81/43 82/82/43 68/68/43
f 83/83/44 66/66/44 68/68/44
f 67/67/45 78/78/45 68/68/45
f 80/80/46 81/81/46 68/68/46
f 82/82/47 83/83/47 68/68/47
f 32/32/48 16/16/48 15/15/48 26/26/48
f 13/13/49 16/16/49 32/32/49
f 22/22/50 13/13/50 32/32/50
f 76/76/51 84/84/51 83/83/51 82/82/51
f 85/85/52 86/86/52 81/81/52 80/80/52
f 87/87/53 88/88/53 78/78/53 67/67/53
f 84/84/54 89/89/54 66/66/54 83/83/54
f 86/86/55 76/76/56 82/82/57 81/81/57
f 90/90/58 85/85/58 80/80/58 79/79/58
f 88/88/59 90/90/59 79/79/59 78/78/59
f 89/89/60 87/87/60 67/67/60 66/66/60
f 91/91/61 44/44/61 50/50/61 92/92/61
f 91/91/62 93/93/62 45/45/62 44/44/62
f 94/94/63 95/95/63 37/37/63
f 6/6/64 96/96/64 37/37/64 7/7/64
f 97/97/65 92/92/65 50/50/65 41/41/65
f 97/97/66 41/41/66 38/38/66 98/98/66
f 4/4/67 30/30/67 1/1/67
f 30/30/68 18/18/68 1/1/68
f 99/99/69 5/5/69 8/8/69 45/45/69
f 19/19/70 18/18/70 30/30/70 28/28/70
f 39/39/71 49/49/71 43/43/71 100/100/71
f 7/7/72 101/101/72 48/48/72
f 46/46/73 24/24/73 102/102/73 103/103/73
f 47/47/74 46/46/74 103/103/74 104/104/74
f 49/49/75 41/41/75 43/43/75
f 40/40/76 39/39/76 100/100/76 105/105/76
f 24/24/77 23/23/77 48/48/77 102/102/77
f 51/51/78 47/47/78 104/104/78 106/106/78
f 48/48/79 101/101/79 40/40/79 105/105/79
f 101/101/80 7/7/80 37/37/80 40/40/80
f 43/43/81 42/42/81 51/51/81 106/106/81
f 42/42/82 41/41/82 50/50/82 51/51/82
f 71/71/83 74/74/83 87/87/83 89/89/83
f 73/73/84 77/77/84 90/90/84 88/88/84
f 55/55/85 54/54/85 85/85/85 90/90/85
f 70/70/86 69/69/86 76/76/56 86/86/55
f 72/72/87 71/71/87 89/89/87 84/84/87
f 74/74/88 73/73/88 88/88/88 87/87/88
f 54/54/89 70/70/89 86/86/89 85/85/89
f 69/69/90 62/62/90 76/76/90
f 76/76/91 75/75/91 72/72/91 84/84/91
f 75/75/92 62/62/92 61/61/92 72/72/92
f 77/77/93 52/52/93 90/90/93
f 52/52/94 55/55/94 90/90/94
f 107/107/95 108/108/95 5/5/95 99/99/95
f 109/109/96 97/97/96 98/98/96 110/110/96
f 109/109/97 111/111/97 92/92/97 97/97/97
f 112/112/98 94/94/98 96/96/98 6/6/98
f 94/94/99 110/110/99 98/98/99 95/95/99
f 113/113/100 107/107/100 93/93/100 91/91/100
f 113/113/101 91/91/101 92/92/101 111/111/101
f 108/108/102 112/112/102 6/6/102 5/5/102
f 27/27/103 29/29/103 112/112/103 108/108/103
f 26/26/104 113/113/104 111/111/104 32/32/104
f 26/26/105 25/25/105 107/107/105 113/113/105
f 28/28/106 30/30/106 110/110/106 94/94/106
f 29/29/107 28/28/107 94/94/107 112/112/107
f 31/31/108 32/32/108 111/111/108 109/109/108
f 31/31/109 109/109/109 110/110/109 30/30/109
f 25/25/110 27/27/110 108/108/110 107/107/110
f 114/114/111 115/115/111 116/116/111 117/117/111
f 118/118/112 119/119/112 120/120/112 121/121/112
f 122/122/113 123/123/113 124/124/113 125/125/113
f 126/126/114 122/122/114 125/125/114 127/127/114
f 115/115/115 128/128/115 129/129/115 116/116/115
f 119/119/116 114/114/116 117/117/116 120/120/116
f 123/123/117 118/118/117 121/121/117 124/124/117
f 128/128/118 126/126/118 127/127/118 129/129/118
f 106/106/119 104/104/119 126/126/119 128/128/119
f 102/102/120 48/48/120 118/118/120 123/123/120
f 105/105/121 100/100/121 114/114/121 119/119/121
f 43/43/122 106/106/122 128/128/122 115/115/122
f 104/104/123 103/103/123 122/122/123 126/126/123
f 103/103/124 102/102/124 123/123/124 122/122/124
f 48/48/125 105/105/125 119/119/125 118/118/125
f 100/100/126 43/43/126 115/115/126 114/114/126
f 117/117/127 116/116/127 63/63/127 60/60/127
f 121/121/128 120/120/128 59/59/128 57/57/128
f 125/125/129 124/124/129 56/56/129 65/65/129
f 127/127/130 125/125/130 65/65/130 34/34/130
f 116/116/131 129/129/131 33/33/131 63/63/131
f 120/120/132 117/117/132 60/60/132 59/59/132
f 124/124/133 121/121/133 57/57/133 56/56/133
f 129/129/134 127/127/134 34/34/134 33/33/134
f 112/112/135 94/94/135 110/110/135 109/109/135 111/111/135 113/113/135 107/107/135 108/108/135
f 96/96/136 94/94/136 37/37/136
f 37/37/137 95/95/137 98/98/137 38/38/137
f 93/93/138 107/107/138 45/45/138
f 99/99/139 45/45/139 107/107/139
usemtl Material.001
f 130/130/140 20/131/140 14/132/140 131/133/140
f 131/133/141 14/132/141 13/134/141 132/135/141
f 132/135/142 13/134/142 2/136/142 133/137/142
f 133/137/143 2/136/143 1/138/143 134/139/143
f 134/139/144 1/138/144 17/140/144 135/141/144
f 135/141/145 17/140/145 10/142/145 136/143/145
f 136/143/146 10/142/146 9/144/146 137/145/146
f 137/145/147 9/144/148 20/131/148 130/130/149
f 138/146/150 137/145/147 130/130/149 139/147/150
f 140/148/151 136/143/151 137/145/151 138/146/151
f 141/149/152 135/141/152 136/143/152 140/148/152
f 142/150/153 134/139/153 135/141/153 141/149/153
f 143/151/154 133/137/154 134/139/154 142/150/154
f 144/152/155 132/135/155 133/137/155 143/151/155
f 145/153/156 131/133/156 132/135/156 144/152/156
f 139/147/157 130/130/157 131/133/157 145/153/157
