mtllib LOW_POLY_set.mtl
o lp_conifer1_Cylinder_002
v -34.745193 3.228546 -14.489663
v -34.372486 3.374833 -16.082720
v -33.187363 2.291266 -16.311651
v -34.023327 3.086198 -13.896652
v -38.995277 3.260267 -15.375005
v -37.869793 4.144356 -13.996181
v -37.310753 5.995993 -14.629539
v -37.779877 5.684122 -15.557227
v -38.798225 2.831311 -15.374107
v -37.724434 2.862669 -14.012655
v -38.749649 2.257150 -13.469622
v -40.067150 1.866991 -15.136971
v -35.233818 3.369567 -17.478191
v -36.824635 3.215835 -17.858633
v -37.370564 2.290806 -19.417068
v -34.426250 2.509342 -18.634514
v -36.133617 3.016399 -13.632215
v -36.050323 2.020122 -12.327274
v -38.213058 3.003690 -17.001183
v -39.321365 2.249062 -17.277529
v -39.227333 2.013712 -17.678234
v -33.386395 2.279185 -16.633539
v -38.466476 2.028177 -13.011646
v -34.709255 4.952113 -18.263882
v -35.716091 5.811430 -16.831429
v -35.349552 6.334745 -17.699522
v -36.149097 3.330299 -13.093431
v -34.887581 4.544289 -14.494001
v -35.428177 5.991474 -15.000960
v -36.283024 5.938739 -14.473170
v -33.968842 3.628760 -16.133116
v -35.291542 4.295250 -17.605473
v -35.193344 5.938739 -15.977783
v -36.990364 3.677833 -18.070282
v -38.554783 3.424082 -16.951359
v -37.545044 5.631388 -16.534050
v -36.690197 5.684122 -17.061844
v -38.150692 7.174704 -16.950012
v -38.685398 6.856063 -15.577256
v -37.893616 8.823374 -15.730287
v -37.507877 8.790679 -16.719526
v -38.270649 5.858864 -13.780319
v -39.306778 5.286054 -15.184240
v -33.744652 4.851035 -16.560719
v -38.831017 5.508275 -17.479483
v -37.120003 4.767400 -18.811726
v -39.283527 5.239042 -15.751944
v -36.292191 5.184626 -12.893553
v -34.041122 5.354047 -14.419817
v -35.122551 8.630650 -15.786513
v -35.548439 8.654401 -16.759285
v -34.545998 7.403829 -17.570862
v -34.313419 7.927761 -15.773746
v -37.773434 7.417482 -14.274244
v -36.211700 7.122824 -13.873971
v -36.479691 8.733337 -14.371048
v -37.467724 8.799623 -14.757515
v -34.690804 6.533878 -14.554822
v -34.556713 6.874432 -16.175972
v -35.508286 8.663347 -14.797274
v -36.991901 6.099566 -18.119143
v -36.536476 8.720687 -17.145752
v -38.034859 9.759740 -15.715434
v -37.727123 9.174046 -14.429174
v -37.118160 11.226560 -15.070158
v -37.413830 11.184757 -15.679705
v -38.548874 7.960073 -17.461149
v -36.562977 7.859789 -17.992252
v -38.607868 8.570734 -16.032169
v -36.771057 8.413942 -13.466649
v -38.263870 8.089277 -13.913101
v -34.809635 7.814250 -14.439196
v -36.216114 7.816813 -17.856178
v -35.100014 7.876119 -14.121036
v -35.873669 11.395704 -15.146640
v -35.653854 11.423962 -15.787864
v -34.778187 10.846066 -15.984575
v -35.449131 11.644131 -14.684835
v -36.460629 9.860680 -14.223454
v -35.302357 9.188640 -14.577974
v -36.480202 11.313936 -14.849357
v -34.994152 9.830556 -15.689220
v -35.240707 9.208365 -16.841770
v -35.949524 11.382157 -16.397411
v -36.361752 9.453108 -17.301123
v -37.674088 9.002678 -16.934158
v -37.194016 11.213015 -16.320929
v -36.587482 11.294781 -16.618216
v -37.462688 11.609219 -16.491503
v -37.663898 11.889500 -15.738010
v -36.779099 14.784012 -15.846080
v -36.737564 10.998513 -17.283545
v -35.458157 10.746828 -17.161701
v -37.624775 10.975813 -14.459468
v -38.193348 10.607714 -15.583879
v -36.175297 11.173931 -13.987572
v -35.142113 10.746685 -16.854565
v -37.767246 10.485587 -16.872377
v -38.058544 10.604464 -15.987609
v -37.235283 12.303997 -14.955425
v -36.478313 12.408343 -14.628950
v -35.962570 13.052868 -15.254542
v -35.457127 12.248302 -15.787586
v -35.790218 12.260870 -16.420347
v -36.663395 13.059662 -16.345444
v -35.259773 4.887218 -18.399702
v -36.754063 4.124118 -15.398210
v -36.438805 4.124118 -15.323030
v -36.087540 4.124118 -15.808047
v -36.257301 4.124118 -16.084133
v -36.572563 4.124118 -16.159313
v -36.848644 4.124118 -15.989552
v -36.923824 4.124118 -15.674294
v -36.162720 4.124118 -15.492789
v -35.726711 5.084798 -13.153337
v -36.849918 2.024334 -16.081614
v -36.566746 2.046398 -16.318796
v -36.198002 2.054766 -16.286375
v -35.959698 2.044536 -16.003340
v -35.991425 2.021699 -15.635494
v -36.274597 1.999637 -15.398311
v -36.643341 1.991270 -15.430732
v -36.881645 2.001499 -15.713766
v -36.611313 1.116998 -15.332520
v -36.855911 1.122113 -15.678050
v -36.193981 1.121182 -15.260753
v -35.848381 1.132213 -15.504789
v -35.776962 1.143632 -15.921677
v -36.021561 1.148747 -16.267206
v -36.438892 1.144563 -16.338974
v -36.784492 1.133531 -16.094936
v -37.123661 0.144900 -15.642329
v -37.012550 0.144900 -16.108255
v -36.604523 0.144900 -16.359148
v -36.138599 0.144900 -16.248037
v -35.887707 0.144900 -15.840013
v -35.998817 0.144900 -15.374085
v -36.406845 0.144900 -15.123195
v -36.872768 0.144900 -15.234304
vt 0.890755 0.809208
vt 0.890851 0.809245
vt 0.891156 0.808966
vt 0.890940 0.809171
vt 0.889661 0.809216
vt 0.889950 0.809443
vt 0.890094 0.809920
vt 0.889974 0.809840
vt 0.889711 0.809105
vt 0.889988 0.809113
vt 0.889724 0.808958
vt 0.889385 0.808857
vt 0.890629 0.809244
vt 0.890220 0.809204
vt 0.890079 0.808966
vt 0.890837 0.809022
vt 0.890397 0.809153
vt 0.890419 0.808897
vt 0.889862 0.809150
vt 0.889577 0.808955
vt 0.889601 0.808895
vt 0.891104 0.808963
vt 0.889797 0.808899
vt 0.890764 0.809651
vt 0.890505 0.809872
vt 0.890599 0.810007
vt 0.890393 0.809234
vt 0.890718 0.809546
vt 0.890579 0.809919
vt 0.890359 0.809905
vt 0.890955 0.809311
vt 0.890614 0.809482
vt 0.890639 0.809905
vt 0.890177 0.809323
vt 0.889774 0.809258
vt 0.890034 0.809826
vt 0.890254 0.809840
vt 0.889878 0.810223
vt 0.889741 0.810141
vt 0.889944 0.810648
vt 0.890044 0.810639
vt 0.889847 0.809885
vt 0.889581 0.809737
vt 0.891012 0.809625
vt 0.889703 0.809794
vt 0.890143 0.809604
vt 0.889587 0.809725
vt 0.890357 0.809711
vt 0.890936 0.809755
vt 0.890658 0.810598
vt 0.890548 0.810604
vt 0.890806 0.810282
vt 0.890866 0.810417
vt 0.889975 0.810286
vt 0.890377 0.810210
vt 0.890308 0.810624
vt 0.890054 0.810641
vt 0.890769 0.810058
vt 0.890803 0.810146
vt 0.890558 0.810606
vt 0.890176 0.809947
vt 0.890294 0.810621
vt 0.889908 0.810889
vt 0.889987 0.810738
vt 0.890144 0.811266
vt 0.890068 0.811255
vt 0.889776 0.810425
vt 0.890287 0.810400
vt 0.889760 0.810583
vt 0.890240 0.810537
vt 0.889849 0.810459
vt 0.890738 0.810388
vt 0.890376 0.810389
vt 0.890663 0.810404
vt 0.890464 0.811310
vt 0.890521 0.811317
vt 0.890746 0.811168
vt 0.890574 0.811374
vt 0.890313 0.810864
vt 0.890611 0.810742
vt 0.890308 0.811289
vt 0.890691 0.810907
vt 0.890627 0.810747
vt 0.890445 0.811306
vt 0.890339 0.810810
vt 0.890001 0.810694
vt 0.890124 0.811263
vt 0.890281 0.811284
vt 0.890055 0.811365
vt 0.890004 0.811437
vt 0.890231 0.812182
vt 0.890242 0.811207
vt 0.890571 0.811143
vt 0.890014 0.811202
vt 0.889867 0.811107
vt 0.890387 0.811253
vt 0.890653 0.811143
vt 0.889977 0.811075
vt 0.889902 0.811106
vt 0.890114 0.811543
vt 0.890309 0.811570
vt 0.890441 0.811736
vt 0.890571 0.811529
vt 0.890486 0.811532
vt 0.890261 0.811738
vt 0.890622 0.809635
vt 0.890238 0.809438
vt 0.890319 0.809438
vt 0.890409 0.809438
vt 0.890366 0.809438
vt 0.890284 0.809438
vt 0.890213 0.809438
vt 0.890194 0.809438
vt 0.890390 0.809438
vt 0.890502 0.809685
vt 0.727058 0.446854
vt 0.727059 0.448307
vt 0.727250 0.448307
vt 0.727254 0.446869
vt 0.727468 0.448307
vt 0.727509 0.446875
vt 0.727585 0.448307
vt 0.727674 0.446868
vt 0.727533 0.448307
vt 0.727652 0.446852
vt 0.727342 0.448307
vt 0.727456 0.446837
vt 0.727124 0.448307
vt 0.727201 0.446831
vt 0.727007 0.448307
vt 0.727036 0.446838
vt 0.727223 0.446226
vt 0.727054 0.446230
vt 0.727512 0.446229
vt 0.727751 0.446237
vt 0.727800 0.446244
vt 0.727631 0.446248
vt 0.727342 0.446245
vt 0.727103 0.446237
vt 0.726868 0.445553
vt 0.726945 0.445553
vt 0.727228 0.445553
vt 0.727550 0.445553
vt 0.727724 0.445553
vt 0.727647 0.445553
vt 0.727364 0.445553
vt 0.727042 0.445553
vn -0.5371 -0.8431 -0.0255
vn -0.8347 0.4154 0.3617
vn 0.4819 -0.8355 -0.2642
vn -0.0707 -0.8366 0.5433
vn -0.0345 -0.8634 -0.5033
vn 0.5828 -0.8080 0.0870
vn 0.4351 -0.8110 0.3911
vn -0.5785 -0.7687 0.2729
vn 0.1827 -0.7947 -0.5788
vn -0.8540 -0.1993 -0.4807
vn 0.4486 0.4372 0.7795
vn 0.7496 0.4426 -0.4921
vn -0.5471 0.4159 -0.7264
vn -0.8764 0.4319 -0.2130
vn -0.2079 0.4188 0.8840
vn 0.8735 0.4315 0.2255
vn 0.1045 0.4520 -0.8859
vn -0.8832 0.3601 -0.3006
vn 0.2873 -0.9423 0.1720
vn -0.4514 -0.8501 0.2713
vn 0.0073 -0.9345 0.3559
vn 0.2093 -0.9775 -0.0250
vn -0.0939 -0.9219 -0.3758
vn -0.5187 -0.8526 0.0636
vn -0.6435 -0.7118 0.2815
vn -0.2411 0.3049 0.9214
vn 0.9214 0.3196 0.2212
vn 0.2559 0.3376 -0.9058
vn -0.8405 0.3534 0.4106
vn 0.4522 0.2975 0.8409
vn 0.8283 0.3081 -0.4680
vn -0.4346 0.3486 -0.8305
vn -0.8511 0.3665 0.3760
vn 0.1722 -0.7298 0.6616
vn 0.3645 -0.8811 0.3014
vn 0.2233 -0.8943 -0.3877
vn -0.6564 -0.7031 -0.2736
vn -0.2935 -0.6652 0.6866
vn 0.4540 -0.8544 -0.2527
vn -0.3854 -0.7690 -0.5099
vn -0.2839 -0.9288 0.2381
vn 0.4241 0.3421 0.8385
vn 0.8523 0.3456 -0.3925
vn -0.3857 0.3030 -0.8715
vn -0.8565 0.3302 -0.3967
vn -0.3436 0.3697 0.8633
vn 0.8541 0.3450 0.3893
vn 0.3660 0.3295 -0.8703
vn -0.9031 0.2634 -0.3391
vn -0.1636 -0.8439 0.5109
vn 0.5182 -0.8534 -0.0565
vn 0.3176 -0.9432 -0.0978
vn -0.4814 -0.8259 0.2934
vn 0.4601 -0.7950 0.3953
vn 0.6201 -0.7430 0.2518
vn 0.2049 -0.9526 -0.2247
vn -0.4103 0.3741 0.8317
vn 0.8771 0.4604 0.1367
vn 0.1797 0.2847 -0.9416
vn -0.8961 0.2866 0.3390
vn 0.3940 0.4581 0.7968
vn 0.8095 0.4124 -0.4179
vn -0.2830 0.2492 -0.9262
vn -0.5181 0.3791 -0.7667
vn 0.8000 0.4499 -0.3970
vn 0.3995 0.4810 0.7804
vn -0.8739 0.3824 0.3000
vn -0.0486 -0.0995 -0.9939
vn 0.8883 0.4054 0.2157
vn -0.3601 0.3886 0.8481
vn -0.8728 0.3440 -0.3462
vn 0.3230 0.3991 -0.8581
vn -0.3710 0.5133 0.7739
vn -0.6817 0.6004 -0.4182
vn -0.2769 0.4939 -0.8242
vn 0.8737 0.3884 -0.2928
vn 0.4430 0.3464 0.8269
vn -0.8467 0.4395 0.2998
vn -0.4176 0.4372 -0.7965
vn 0.7552 0.4538 -0.4730
vn -0.8134 0.4083 0.4143
vn 0.9371 -0.1032 0.3335
vn 0.9089 0.4080 0.0864
vn -0.2108 0.4091 0.8878
vn -0.8949 0.3936 -0.2103
vn 0.1027 0.6062 -0.7886
vn 0.8428 0.5180 0.1462
vn -0.2335 0.4691 0.8517
vn 0.1057 0.2013 -0.9738
vn -0.5577 0.6195 -0.5525
vn 0.2636 -0.2333 0.9360
vn 0.3547 0.5095 0.7839
vn -0.7535 0.5368 0.3797
vn -0.0334 0.9958 -0.0848
vn 0.2005 -0.7967 -0.5702
vn -0.3601 -0.9054 0.2250
vn 0.3606 -0.8371 0.4114
vn 0.5753 -0.8086 0.1238
vn -0.2004 -0.8432 -0.4989
vn -0.0399 -0.8842 0.4654
vn 0.4954 -0.7901 -0.3611
vn -0.4273 -0.8883 -0.1684
vn 0.5070 0.3840 0.7717
vn -0.2141 -0.8628 -0.4580
vn -0.1086 -0.0670 0.9918
vn -0.1930 -0.1657 -0.9671
vn 0.9985 -0.0508 -0.0185
vn -0.9392 -0.1083 0.3258
vn -0.8557 0.0963 -0.5084
vn 0.9663 -0.1949 0.1680
vn -0.7985 0.5774 -0.1700
vn -0.2774 -0.3323 0.9015
vn -0.7682 -0.0790 -0.6353
vn 0.4494 0.0395 0.8925
vn 0.7570 0.5335 -0.3772
vn -0.1508 0.0437 -0.9876
vn -0.0336 -0.8741 0.4847
vn 0.1650 0.4400 -0.8827
vn 0.8676 0.3170 0.3832
vn -0.5643 -0.1198 0.8169
vn 0.8117 -0.0765 -0.5791
vn -0.3853 -0.0605 0.9208
vn 0.7834 -0.1262 0.6085
vn 0.2277 0.4274 -0.8749
vn -0.4560 0.0595 -0.8880
vn -0.5889 0.0479 -0.8068
vn 0.1537 0.0883 -0.9842
vn 0.8051 0.0925 -0.5859
vn 0.9860 0.0579 0.1562
vn 0.5882 0.0050 0.8087
vn -0.1549 -0.0350 0.9873
vn -0.8075 -0.0390 0.5886
vn -0.9879 -0.0047 -0.1548
vn -0.7926 0.0204 0.6094
vn -0.1323 0.1238 0.9834
vn 0.5898 0.1936 0.7840
vn 0.9717 0.1930 0.1361
vn 0.7884 0.1231 -0.6027
vn 0.1310 0.0226 -0.9911
vn -0.6053 -0.0504 -0.7944
vn -0.9898 -0.0526 -0.1324
vn -0.9518 0.2378 -0.1937
vn -0.5461 0.1221 -0.8288
vn 0.2028 -0.0281 -0.9788
vn 0.8290 -0.1218 -0.5459
vn 0.9740 -0.1067 0.2000
vn 0.5488 0.0127 0.8359
vn -0.2007 0.1657 0.9655
vn -0.8070 0.2557 0.5324
usemtl Material.007
f 1/1/1 2/2/1 3/3/1 4/4/1
f 5/5/2 6/6/2 7/7/2 8/8/2
f 9/9/3 10/10/3 11/11/3 12/12/3
f 13/13/4 14/14/4 15/15/4 16/16/4
f 17/17/5 1/1/5 4/4/5 18/18/5
f 19/19/6 9/9/6 12/12/6 20/20/6
f 14/14/7 19/19/7 21/21/7 15/15/7
f 2/2/8 13/13/8 16/16/8 22/22/8
f 10/10/9 17/17/9 18/18/9 23/23/9
f 24/24/10 25/25/10 26/26/10
f 27/27/11 28/28/11 29/29/11 30/30/11
f 31/31/12 32/32/12 25/25/12 33/33/12
f 34/34/13 35/35/13 36/36/13 37/37/13
f 35/35/14 5/5/14 8/8/14 36/36/14
f 6/6/15 27/27/15 30/30/15 7/7/15
f 28/28/16 31/31/16 33/33/16 29/29/16
f 32/32/17 34/34/17 37/37/17 25/25/17
f 38/38/18 39/39/18 40/40/18 41/41/18
f 8/8/19 7/7/19 42/42/19 43/43/19
f 33/33/20 25/25/20 24/24/20 44/44/20
f 37/37/21 36/36/21 45/45/21 46/46/21
f 36/36/22 8/8/22 47/47/22 45/45/22
f 7/7/23 30/30/23 48/48/23 42/42/23
f 29/29/24 33/33/24 44/44/24 49/49/24
f 50/50/25 51/51/25 52/52/25 53/53/25
f 54/54/26 55/55/26 56/56/26 57/57/26
f 58/58/27 59/59/27 50/50/27 60/60/27
f 26/26/28 61/61/28 62/62/28 51/51/28
f 39/39/29 54/54/29 57/57/29 40/40/29
f 55/55/30 58/58/30 60/60/30 56/56/30
f 59/59/31 26/26/31 51/51/31 50/50/31
f 61/61/32 38/38/32 41/41/32 62/62/32
f 63/63/33 64/64/33 65/65/33 66/66/33
f 62/62/34 41/41/34 67/67/34 68/68/34
f 41/41/35 40/40/35 69/69/35 67/67/35
f 57/57/36 56/56/36 70/70/36 71/71/36
f 60/60/37 50/50/37 53/53/37 72/72/37
f 51/51/38 62/62/38 73/73/38 52/52/38
f 40/40/39 57/57/39 71/71/39 69/69/39
f 56/56/40 60/60/40 74/74/40 70/70/40
f 75/75/41 76/76/41 77/77/41 78/78/41
f 79/79/42 80/80/42 75/75/42 81/81/42
f 82/82/43 83/83/43 84/84/43 76/76/43
f 85/85/44 86/86/44 87/87/44 88/88/44
f 86/86/45 63/63/45 66/66/45 87/87/45
f 64/64/46 79/79/46 81/81/46 65/65/46
f 80/80/47 82/82/47 76/76/47 75/75/47
f 83/83/48 85/85/48 88/88/48 84/84/48
f 89/89/49 90/90/49 91/91/49
f 84/84/50 88/88/50 92/92/50 93/93/50
f 66/66/51 65/65/51 94/94/51 95/95/51
f 81/81/52 75/75/52 78/78/52 96/96/52
f 76/76/53 84/84/53 97/97/53 77/77/53
f 88/88/54 87/87/54 98/98/54 92/92/54
f 87/87/55 66/66/55 99/99/55 98/98/55
f 65/65/56 81/81/56 96/96/56 94/94/56
f 100/100/57 101/101/57 91/91/57
f 102/102/58 103/103/58 91/91/58
f 104/104/59 105/105/59 91/91/59
f 90/90/60 100/100/60 91/91/60
f 101/101/61 102/102/61 91/91/61
f 103/103/62 104/104/62 91/91/62
f 105/105/63 89/89/63 91/91/63
f 92/92/64 98/98/64 89/89/64 105/105/64
f 77/77/65 97/97/65 104/104/65 103/103/65
f 96/96/66 78/78/66 102/102/66 101/101/66
f 95/95/67 94/94/67 100/100/67 90/90/67
f 66/66/68 95/95/68 90/90/68
f 78/78/69 77/77/69 103/103/69 102/102/69
f 94/94/70 96/96/70 101/101/70 100/100/70
f 98/98/71 99/99/71 90/90/71 89/89/71
f 52/52/72 73/73/72 85/85/72 83/83/72
f 71/71/73 70/70/73 79/79/73 64/64/73
f 67/67/74 69/69/74 63/63/74 86/86/74
f 68/68/75 67/67/75 86/86/75 85/85/75
f 53/53/76 52/52/76 83/83/76 82/82/76
f 70/70/77 74/74/77 80/80/77 79/79/77
f 69/69/78 71/71/78 64/64/78 63/63/78
f 46/46/79 45/45/79 38/38/79 61/61/79
f 44/44/80 24/24/80 26/26/80 59/59/80
f 43/43/81 42/42/81 54/54/81 39/39/81
f 26/26/82 25/25/82 106/106/82
f 49/49/83 44/44/83 59/59/83 58/58/83
f 42/42/84 48/48/84 55/55/84 54/54/84
f 45/45/85 47/47/85 39/39/85 38/38/85
f 16/16/86 15/15/86 34/34/86 32/32/86
f 4/4/87 3/3/87 31/31/87 28/28/87
f 23/23/88 18/18/88 27/27/88 6/6/88
f 19/19/89 20/20/89 35/35/89
f 15/15/90 21/21/90 35/35/90 34/34/90
f 2/2/91 22/22/91 31/31/91
f 18/18/92 4/4/92 28/28/92 27/27/92
f 12/12/93 11/11/93 6/6/93 5/5/93
f 85/85/94 86/86/94 63/63/94 64/64/94 79/79/94 80/80/94 82/82/94 83/83/94
f 107/107/95 108/108/95 17/17/95 10/10/95
f 109/109/96 110/110/96 13/13/96 2/2/96
f 111/111/97 112/112/97 19/19/97 14/14/97
f 112/112/98 113/113/98 9/9/98 19/19/98
f 108/108/99 114/114/99 1/1/99 17/17/99
f 110/110/100 111/111/100 14/14/100 13/13/100
f 113/113/101 107/107/101 10/10/101 9/9/101
f 114/114/102 109/109/102 2/2/102 1/1/102
f 55/55/103 115/115/103 49/49/103 58/58/103
f 115/115/104 30/30/104 29/29/104 49/49/104
f 47/47/105 8/8/105 39/39/105
f 8/8/106 43/43/106 39/39/106
f 30/30/107 55/55/107 48/48/107
f 55/55/108 30/30/108 115/115/108
f 73/73/109 62/62/109 85/85/109
f 68/68/110 85/85/110 62/62/110
f 35/35/111 20/20/111 12/12/111 5/5/111
f 35/35/112 21/21/112 19/19/112
f 6/6/113 10/10/113 23/23/113
f 10/10/114 6/6/114 11/11/114
f 31/31/115 22/22/115 16/16/115 32/32/115
f 3/3/116 2/2/116 31/31/116
f 106/106/117 25/25/117 37/37/117 46/46/117
f 26/26/118 106/106/118 46/46/118 61/61/118
f 80/80/119 72/72/119 53/53/119 82/82/119
f 60/60/120 72/72/120 80/80/120
f 80/80/121 74/74/121 60/60/121
f 99/99/122 66/66/122 90/90/122
f 104/104/123 84/84/123 93/93/123
f 104/104/124 93/93/124 92/92/124 105/105/124
f 84/84/125 104/104/125 97/97/125
usemtl Material.001
f 116/116/126 112/117/126 111/118/126 117/119/126
f 117/119/127 111/118/127 110/120/127 118/121/127
f 118/121/128 110/120/128 109/122/128 119/123/128
f 119/123/129 109/122/129 114/124/129 120/125/129
f 120/125/130 114/124/130 108/126/130 121/127/130
f 121/127/131 108/126/131 107/128/131 122/129/131
f 122/129/132 107/128/132 113/130/132 123/131/132
f 123/131/133 113/130/133 112/117/133 116/116/133
f 124/132/134 122/129/134 123/131/134 125/133/134
f 126/134/135 121/127/135 122/129/135 124/132/135
f 127/135/136 120/125/136 121/127/136 126/134/136
f 128/136/137 119/123/137 120/125/137 127/135/137
f 129/137/138 118/121/138 119/123/138 128/136/138
f 130/138/139 117/119/139 118/121/139 129/137/139
f 131/139/140 116/116/140 117/119/140 130/138/140
f 125/133/141 123/131/141 116/116/141 131/139/141
f 132/140/142 125/133/142 131/139/142 133/141/142
f 133/141/143 131/139/143 130/138/143 134/142/143
f 134/142/144 130/138/144 129/137/144 135/143/144
f 135/143/145 129/137/145 128/136/145 136/144/145
f 136/144/146 128/136/146 127/135/146 137/145/146
f 137/145/147 127/135/147 126/134/147 138/146/147
f 138/146/148 126/134/148 124/132/148 139/147/148
f 139/147/149 124/132/149 125/133/149 132/140/149
