mtllib LOW_POLY_set.mtl
o lp_conifer2_Cylinder_001
v -26.638346 3.236748 -14.576026
v -26.280687 3.236748 -14.507185
v -26.221579 2.123569 -11.113374
v -28.317188 2.541032 -11.791447
v -29.253765 3.404887 -13.808608
v -27.749521 3.896072 -12.712221
v -27.116823 5.934495 -13.564426
v -27.993206 5.948766 -14.344877
v -25.941910 3.236748 -14.676203
v -23.827396 2.541032 -12.166092
v -25.751419 3.236748 -15.019254
v -22.415876 2.045294 -14.037679
v -25.781971 3.236748 -15.398305
v -23.053953 2.893223 -16.623682
v -26.379555 3.236748 -15.718847
v -26.718332 3.236748 -15.549828
v -28.897398 1.758286 -18.397640
v -26.648815 2.541032 -18.887848
v -26.021896 3.236748 -15.663645
v -24.512152 2.071385 -18.339735
v -26.908825 3.236748 -15.220417
v -30.060921 2.541032 -15.945720
v -26.878271 3.236748 -14.849873
v -29.902567 1.967018 -13.440629
v -25.082129 5.940871 -13.742132
v -24.474630 5.955956 -14.690484
v -23.217354 5.204082 -14.433303
v -23.980198 4.654604 -12.351515
v -24.528358 3.897657 -13.001823
v -23.262325 3.521213 -14.475073
v -24.737259 3.445958 -17.885365
v -26.559271 3.898153 -17.834953
v -26.476398 5.965431 -16.822407
v -25.360603 5.963100 -16.729008
v -29.012686 3.898152 -15.699278
v -28.026602 5.958813 -15.471188
v -26.135851 3.250052 -11.771020
v -26.027826 5.929726 -13.205145
v -23.789179 3.898152 -16.395006
v -24.702641 5.961760 -15.839763
v -28.394728 3.402174 -17.544518
v -27.551224 5.963110 -16.482615
v -25.195951 6.944520 -16.869270
v -26.492413 6.506874 -17.550793
v -26.450262 8.761739 -16.090397
v -25.612242 8.747177 -15.829032
v -26.153675 4.889606 -18.578587
v -24.567822 5.204083 -17.957369
v -29.271727 5.202701 -13.831317
v -30.025955 4.662654 -15.590869
v -26.791063 5.306787 -11.882536
v -22.865816 4.401739 -16.199587
v -28.417732 5.204082 -17.490227
v -28.202888 4.935806 -12.062201
v -26.113768 8.623818 -13.550406
v -25.313704 8.637451 -13.759297
v -24.495859 8.003155 -12.914701
v -26.091612 7.290110 -11.873746
v -28.890858 6.305421 -15.593249
v -28.280552 6.903625 -14.222088
v -27.556074 8.654588 -14.407222
v -27.722458 8.694340 -15.189149
v -26.271017 6.963169 -12.888727
v -24.563343 6.435977 -13.111216
v -23.919699 6.305843 -16.031984
v -24.992334 8.707582 -15.256673
v -27.756123 6.944860 -16.652454
v -27.231588 8.739498 -15.781032
v -27.581785 6.359900 -12.827062
v -26.988884 8.625164 -13.742682
v -24.165279 6.919462 -14.491340
v -24.951145 8.669509 -14.447437
v -24.752903 9.628147 -15.334570
v -25.278811 9.466424 -16.362736
v -25.631525 11.230818 -15.936966
v -25.203796 11.146022 -15.286266
v -24.681362 7.744787 -17.599962
v -23.850920 8.037478 -15.942667
v -28.950710 8.026141 -15.637140
v -28.342785 7.493585 -17.483398
v -27.612104 7.983438 -12.769718
v -23.242405 7.674162 -14.073423
v -26.789295 8.145735 -17.510965
v -29.330482 7.463644 -13.872951
v -27.210009 11.226898 -15.853954
v -27.519224 11.139240 -15.188026
v -28.721725 10.446112 -15.150046
v -27.835239 10.730154 -16.304823
v -27.668331 9.370798 -16.305475
v -27.996323 9.614869 -15.245047
v -27.178556 9.545521 -13.538887
v -26.114689 9.266656 -12.946015
v -26.218079 11.154984 -13.658544
v -26.963449 11.099417 -13.963254
v -24.335571 9.343061 -14.331804
v -25.018478 11.177366 -14.574721
v -26.472931 9.698231 -16.299553
v -26.431698 11.183353 -15.986358
v -28.207491 9.306106 -14.225541
v -27.572515 11.168861 -14.476632
v -25.185940 9.559559 -13.555272
v -25.532438 11.105301 -14.005132
v -27.251692 11.531651 -13.589419
v -26.208874 11.829542 -13.606976
v -26.188160 13.332074 -14.293790
v -26.685926 13.332322 -14.358092
v -25.969236 10.383941 -12.619145
v -27.628004 10.113703 -12.766542
v -23.989874 10.090473 -16.093616
v -24.242521 10.669037 -14.778481
v -26.810570 10.237507 -17.201782
v -28.217043 10.649204 -14.075434
v -24.472485 9.866652 -13.035838
v -25.217493 10.735658 -16.905439
v -25.496962 13.332071 -14.889767
v -25.488922 13.332317 -15.390196
v -24.950825 12.697113 -15.660711
v -24.514332 12.163410 -14.888724
v -24.919193 11.840364 -14.651397
v -24.634151 11.341661 -15.629817
v -26.504187 11.471037 -16.591576
v -27.275290 11.874514 -16.032274
v -26.759691 13.332075 -15.655390
v -26.324245 13.332342 -15.896603
v -27.665022 11.834747 -14.487233
v -26.968571 13.332077 -14.766972
v -25.146086 11.369078 -13.605310
v -25.712454 13.332314 -14.439315
v -25.578276 11.875919 -16.156845
v -25.850187 13.332071 -15.731279
v -27.985804 11.573552 -15.345840
v -27.064034 13.332331 -15.258766
v -26.248766 14.038744 -15.842124
v -26.901659 13.680411 -15.863263
v -26.063633 15.699222 -15.067620
v -27.326052 12.438800 -16.251043
v -26.108257 12.775661 -16.438541
v -27.030424 12.870708 -13.867835
v -28.152210 12.500639 -14.233878
v -25.250570 12.570074 -13.816277
v -25.343739 12.461590 -16.520012
v -27.596823 12.597508 -15.333811
v -26.508188 12.326170 -13.391395
v -27.312065 13.588814 -14.589756
v -26.587564 14.038751 -14.401242
v -25.676014 14.038765 -14.477311
v -25.167109 13.551061 -14.918818
v -25.670832 13.595342 -16.001474
v -26.905514 14.038455 -15.188541
v -26.164461 13.759765 -14.063874
v -25.466623 14.038757 -15.367826
v -26.783377 1.342968 -15.594261
v -26.394392 1.219512 -15.755779
v -25.980860 1.143211 -15.658989
v -25.700731 1.143211 -15.337993
v -25.661011 1.219512 -14.912293
v -25.876865 1.342968 -14.545856
v -26.265850 1.466425 -14.382589
v -26.679382 1.542726 -14.484240
v -26.959511 1.542726 -14.809114
v -26.999231 1.466425 -15.233105
v -27.179850 0.144905 -15.268374
v -26.900143 0.144905 -15.729679
v -27.134989 0.144905 -14.730764
v -26.782698 0.144905 -14.322197
v -26.257536 0.144905 -14.198729
v -25.760099 0.144905 -14.407524
v -25.480392 0.144905 -14.868832
v -25.525251 0.144905 -15.406442
v -25.877544 0.144905 -15.815010
v -26.402706 0.144905 -15.938478
vt 0.862226 0.805349
vt 0.862305 0.805349
vt 0.862318 0.805103
vt 0.861855 0.805195
vt 0.861648 0.805386
vt 0.861980 0.805494
vt 0.862120 0.805944
vt 0.861926 0.805947
vt 0.862379 0.805349
vt 0.862846 0.805195
vt 0.862421 0.805349
vt 0.863158 0.805085
vt 0.862415 0.805349
vt 0.863017 0.805273
vt 0.862283 0.805349
vt 0.862208 0.805349
vt 0.861727 0.805022
vt 0.862223 0.805195
vt 0.862362 0.805349
vt 0.862695 0.805091
vt 0.862166 0.805349
vt 0.861470 0.805195
vt 0.862173 0.805349
vt 0.861505 0.805068
vt 0.862569 0.805945
vt 0.862703 0.805949
vt 0.862981 0.805783
vt 0.862812 0.805661
vt 0.862691 0.805494
vt 0.862971 0.805411
vt 0.862645 0.805395
vt 0.862243 0.805494
vt 0.862261 0.805951
vt 0.862508 0.805950
vt 0.861702 0.805494
vt 0.861919 0.805949
vt 0.862337 0.805351
vt 0.862360 0.805943
vt 0.862854 0.805494
vt 0.862653 0.805950
vt 0.861838 0.805385
vt 0.862024 0.805950
vt 0.862544 0.806167
vt 0.862258 0.806070
vt 0.862267 0.806568
vt 0.862452 0.806565
vt 0.862333 0.805713
vt 0.862683 0.805783
vt 0.861644 0.805782
vt 0.861478 0.805663
vt 0.862192 0.805805
vt 0.863058 0.805606
vt 0.861833 0.805783
vt 0.861880 0.805723
vt 0.862341 0.806538
vt 0.862518 0.806541
vt 0.862699 0.806401
vt 0.862346 0.806243
vt 0.861728 0.806026
vt 0.861863 0.806158
vt 0.862023 0.806544
vt 0.861986 0.806553
vt 0.862307 0.806171
vt 0.862684 0.806055
vt 0.862826 0.806026
vt 0.862589 0.806556
vt 0.861979 0.806167
vt 0.862095 0.806563
vt 0.862017 0.806038
vt 0.862148 0.806538
vt 0.862771 0.806161
vt 0.862598 0.806548
vt 0.862642 0.806759
vt 0.862526 0.806724
vt 0.862448 0.807113
vt 0.862542 0.807094
vt 0.862658 0.806343
vt 0.862841 0.806408
vt 0.861715 0.806406
vt 0.861849 0.806288
vt 0.862011 0.806396
vt 0.862975 0.806328
vt 0.862192 0.806432
vt 0.861631 0.806281
vt 0.862099 0.807112
vt 0.862031 0.807093
vt 0.861766 0.806940
vt 0.861961 0.807003
vt 0.861998 0.806702
vt 0.861926 0.806756
vt 0.862106 0.806741
vt 0.862341 0.806679
vt 0.862318 0.807096
vt 0.862154 0.807084
vt 0.862734 0.806696
vt 0.862583 0.807101
vt 0.862262 0.806775
vt 0.862271 0.807103
vt 0.861879 0.806688
vt 0.862019 0.807099
vt 0.862546 0.806744
vt 0.862470 0.807085
vt 0.862090 0.807180
vt 0.862320 0.807245
vt 0.862325 0.807577
vt 0.862215 0.807577
vt 0.862373 0.806926
vt 0.862007 0.806866
vt 0.862810 0.806861
vt 0.862754 0.806989
vt 0.862188 0.806894
vt 0.861877 0.806985
vt 0.862704 0.806812
vt 0.862539 0.807004
vt 0.862478 0.807577
vt 0.862479 0.807577
vt 0.862598 0.807437
vt 0.862694 0.807319
vt 0.862605 0.807248
vt 0.862668 0.807138
vt 0.862255 0.807166
vt 0.862085 0.807255
vt 0.862199 0.807577
vt 0.862295 0.807577
vt 0.861999 0.807246
vt 0.862153 0.807577
vt 0.862555 0.807144
vt 0.862430 0.807577
vt 0.862460 0.807255
vt 0.862400 0.807577
vt 0.861928 0.807189
vt 0.862132 0.807577
vt 0.862312 0.807733
vt 0.862167 0.807654
vt 0.862352 0.808099
vt 0.862074 0.807380
vt 0.862343 0.807454
vt 0.862139 0.807475
vt 0.861891 0.807393
vt 0.862532 0.807409
vt 0.862511 0.807385
vt 0.862014 0.807415
vt 0.862254 0.807355
vt 0.862077 0.807634
vt 0.862237 0.807733
vt 0.862438 0.807733
vt 0.862550 0.807625
vt 0.862439 0.807635
vt 0.862167 0.807733
vt 0.862330 0.807671
vt 0.862484 0.807733
vt 0.720986 0.431569
vt 0.721045 0.433288
vt 0.721353 0.433288
vt 0.721339 0.431457
vt 0.721677 0.433288
vt 0.721715 0.431388
vt 0.721895 0.433288
vt 0.721969 0.431388
vt 0.721923 0.433288
vt 0.722005 0.431457
vt 0.721750 0.433288
vt 0.721809 0.431569
vt 0.721443 0.433288
vt 0.721456 0.431681
vt 0.721118 0.433288
vt 0.721081 0.431750
vt 0.720900 0.433288
vt 0.720826 0.431750
vt 0.720872 0.433288
vt 0.720790 0.431681
vt 0.720626 0.430482
vt 0.720880 0.430482
vt 0.720667 0.430482
vt 0.720987 0.430482
vt 0.721464 0.430482
vt 0.721915 0.430482
vt 0.722169 0.430482
vt 0.722128 0.430482
vt 0.721808 0.430482
vt 0.721332 0.430482
vn -0.0714 -0.9521 -0.2975
vn -0.6069 0.4494 0.6556
vn 0.0129 -0.9547 -0.2973
vn -0.3173 -0.9482 -0.0173
vn -0.2478 -0.9448 -0.2143
vn 0.3299 -0.9228 0.1992
vn 0.0134 -0.9276 0.3733
vn -0.2370 -0.9391 0.2487
vn 0.1536 -0.9292 0.3363
vn 0.2760 -0.9389 -0.2056
vn 0.3470 -0.9365 -0.0498
vn -0.4548 -0.8156 -0.3576
vn 0.7508 0.4071 0.5201
vn 0.0803 0.4340 -0.8973
vn -0.8984 0.4391 0.0114
vn 0.4459 0.4087 0.7963
vn 0.7016 0.4437 -0.5576
vn -0.8156 0.4307 -0.3863
vn -0.2953 0.4538 0.8408
vn 0.8870 0.4316 -0.1643
vn -0.2613 0.4379 -0.8602
vn 0.2550 0.5242 -0.8125
vn -0.0367 -0.8574 0.5134
vn 0.5297 -0.8481 0.0112
vn -0.2785 -0.8015 -0.5292
vn -0.5512 -0.7961 0.2497
vn 0.5133 -0.8318 0.2115
vn 0.2133 -0.9011 -0.3776
vn -0.5835 -0.7894 0.1909
vn 0.1471 -0.8371 0.5268
vn 0.3397 -0.8709 -0.3552
vn -0.0706 -0.7976 -0.5991
vn -0.8917 0.3961 0.2189
vn 0.2272 0.3439 0.9111
vn 0.6268 0.4852 -0.6097
vn -0.7222 0.4519 -0.5237
vn -0.1627 0.3944 0.9044
vn 0.9109 0.4120 -0.0217
vn -0.3615 0.5027 -0.7852
vn -0.7307 0.3927 0.5584
vn 0.8312 0.3845 0.4015
vn 0.8309 0.2734 -0.4845
vn -0.3364 -0.8859 0.3194
vn 0.3843 -0.8566 0.3444
vn 0.0355 -0.8050 -0.5921
vn -0.5051 -0.8631 -0.0068
vn 0.3068 -0.8734 0.3782
vn 0.4343 -0.8386 -0.3289
vn -0.4391 -0.8643 -0.2453
vn -0.1508 -0.8927 0.4247
vn 0.5168 -0.8418 -0.1558
vn 0.5119 -0.8432 0.1640
vn -0.8863 0.2985 -0.3542
vn -0.3940 0.2997 0.8688
vn 0.9147 0.2932 -0.2781
vn -0.0959 0.2357 -0.9671
vn -0.5844 0.2949 0.7560
vn 0.6785 0.3401 0.6512
vn 0.0139 0.2230 -0.9747
vn -0.9474 0.3056 -0.0955
vn 0.4410 0.3391 0.8310
vn -0.1079 0.4168 0.9025
vn 0.2154 -0.7869 -0.5782
vn -0.5270 -0.8185 0.2288
vn 0.1149 -0.7842 0.6097
vn 0.3335 -0.8071 -0.4872
vn -0.5141 -0.7344 -0.4431
vn 0.1097 -0.8288 0.5487
vn 0.5440 -0.8386 -0.0282
vn -0.3803 -0.7659 -0.5185
vn -0.5441 -0.8122 0.2104
vn -0.7654 -0.6434 -0.0123
vn 0.9234 0.3798 0.0550
vn -0.4303 0.3578 -0.8287
vn -0.7443 0.4436 0.4992
vn 0.8404 0.3939 0.3724
vn 0.2963 0.3130 -0.9023
vn -0.8759 0.4462 0.1838
vn 0.2083 0.4203 0.8831
vn 0.6131 0.3382 -0.7139
vn -0.7209 0.4035 -0.5635
vn -0.2089 0.4324 -0.8771
vn 0.3127 -0.6319 0.7091
vn 0.4294 -0.8152 -0.3887
vn -0.7221 -0.6315 -0.2825
vn -0.2277 -0.7232 0.6520
vn 0.6882 -0.7087 0.1556
vn -0.1523 -0.6526 -0.7422
vn -0.5327 -0.7020 0.4726
vn 0.6885 -0.6199 0.3764
vn 0.0135 -0.6915 -0.7222
vn -0.4772 0.4528 0.7532
vn 0.7842 0.3622 0.5038
vn 0.0686 0.4154 -0.9070
vn -0.8578 0.4526 -0.2438
vn -0.8580 0.4526 -0.2427
vn -0.8577 0.4526 -0.2439
vn 0.4544 0.3907 0.8005
vn 0.7760 0.3712 -0.5099
vn -0.8574 0.4525 -0.2450
vn -0.3617 0.4433 0.8202
vn 0.9074 0.3642 -0.2097
vn -0.3200 0.5521 -0.7699
vn 0.8437 0.5317 -0.0736
vn -0.1902 0.5621 0.8049
vn -0.7124 0.5347 -0.4545
vn 0.6268 0.4380 -0.6444
vn 0.3013 0.5452 0.7823
vn -0.8474 0.5193 0.1101
vn 0.2185 0.4797 -0.8498
vn 0.7063 0.5728 0.4160
vn -0.6574 0.5324 0.5332
vn 0.8009 0.4445 0.4012
vn -0.6713 0.5357 0.5122
vn -0.3503 0.4804 -0.8040
vn 0.8734 0.4845 -0.0498
vn -0.2309 0.5478 0.8041
vn -0.7250 0.5015 -0.4720
vn 0.6938 0.4991 -0.5191
vn 0.2481 0.4462 0.8598
vn -0.8240 0.5430 0.1617
vn 0.2133 0.5641 -0.7977
vn 0.3471 0.4649 0.8145
vn -0.8552 0.5180 -0.0194
vn 0.0786 0.6014 -0.7951
vn 0.6489 0.5149 0.5602
vn -0.5681 0.4800 0.6684
vn -0.2197 0.5996 -0.7696
vn 0.8307 0.5275 -0.1776
vn -0.3027 0.4674 0.8306
vn -0.7559 0.5296 -0.3849
vn 0.6952 0.5634 -0.4464
vn -0.7427 0.4407 -0.5042
vn 0.6341 0.5447 -0.5488
vn 0.3262 0.5186 0.7903
vn -0.8242 0.5187 0.2274
vn 0.0729 0.4967 -0.8648
vn 0.8129 0.4679 0.3469
vn -0.7063 0.4928 0.5081
vn -0.4187 0.4462 -0.7909
vn 0.8756 0.4827 -0.0214
vn -0.1522 0.5334 0.8321
vn 0.8931 0.4019 -0.2022
vn -0.2995 0.4743 0.8279
vn -0.8640 0.4158 -0.2840
vn 0.7598 0.4211 -0.4954
vn 0.2939 0.4059 0.8654
vn -0.8234 0.4724 -0.3143
vn 0.0838 0.4337 -0.8972
vn 0.8086 0.4078 0.4241
vn -0.4525 0.5377 0.7114
vn -0.2205 0.3783 -0.8990
vn -0.4095 0.0273 -0.9119
vn 0.1942 0.0089 -0.9809
vn 0.7481 0.0116 -0.6635
vn 0.9952 0.0379 -0.0905
vn 0.8707 0.0642 0.4875
vn 0.4243 0.0721 0.9026
vn -0.2095 0.0625 0.9758
vn -0.7539 0.0528 0.6549
vn -0.9953 0.0500 0.0832
vn -0.8575 0.0444 -0.5125
vn -0.8397 0.1347 -0.5261
vn -0.9885 0.1307 0.0766
vn -0.7509 0.1306 0.6474
vn -0.2212 0.1307 0.9664
vn 0.3995 0.1358 0.9066
vn 0.8579 0.1515 0.4910
vn 0.9805 0.1696 -0.0995
vn 0.7438 0.1763 -0.6447
vn 0.2381 0.1672 -0.9567
vn -0.3635 0.1487 -0.9197
usemtl Material.007
f 1/1/1 2/2/1 3/3/1 4/4/1
f 5/5/2 6/6/2 7/7/2 8/8/2
f 2/2/3 9/9/3 10/10/3 3/3/3
f 9/9/4 11/11/4 12/12/4 10/10/4
f 11/11/5 13/13/5 14/14/5 12/12/5
f 15/15/6 16/16/6 17/17/6 18/18/6
f 13/13/7 19/19/7 20/20/7 14/14/7
f 19/19/8 15/15/8 18/18/8 20/20/8
f 16/16/9 21/21/9 22/22/9 17/17/9
f 21/21/10 23/23/10 24/24/10 22/22/10
f 23/23/11 1/1/11 4/4/11 24/24/11
f 25/25/12 26/26/12 27/27/12 28/28/12
f 29/29/13 30/30/13 26/26/13 25/25/13
f 31/31/14 32/32/14 33/33/14 34/34/14
f 35/35/15 5/5/15 8/8/15 36/36/15
f 37/37/16 29/29/16 25/25/16 38/38/16
f 39/39/17 31/31/17 34/34/17 40/40/17
f 41/41/18 35/35/18 36/36/18 42/42/18
f 6/6/19 37/37/19 38/38/19 7/7/19
f 30/30/20 39/39/20 40/40/20 26/26/20
f 32/32/21 41/41/21 42/42/21 33/33/21
f 43/43/22 44/44/22 45/45/22 46/46/22
f 34/34/23 33/33/23 47/47/23 48/48/23
f 36/36/24 8/8/24 49/49/24 50/50/24
f 38/38/25 25/25/25 28/28/25 51/51/25
f 40/40/26 34/34/26 48/48/26 52/52/26
f 42/42/27 36/36/27 50/50/27 53/53/27
f 7/7/28 38/38/28 51/51/28 54/54/28
f 26/26/29 40/40/29 52/52/29 27/27/29
f 33/33/30 42/42/30 53/53/30 47/47/30
f 8/8/31 7/7/31 54/54/31 49/49/31
f 55/55/32 56/56/32 57/57/32 58/58/32
f 59/59/33 60/60/33 61/61/33 62/62/33
f 63/63/34 64/64/34 56/56/34 55/55/34
f 65/65/35 43/43/35 46/46/35 66/66/35
f 67/67/36 59/59/36 62/62/36 68/68/36
f 69/69/37 63/63/37 55/55/37 70/70/37
f 71/71/38 65/65/38 66/66/38 72/72/38
f 44/44/39 67/67/39 68/68/39 45/45/39
f 60/60/40 69/69/40 70/70/40 61/61/40
f 64/64/41 71/71/41 72/72/41 56/56/41
f 73/73/42 74/74/42 75/75/42 76/76/42
f 66/66/43 46/46/43 77/77/43 78/78/43
f 68/68/44 62/62/44 79/79/44 80/80/44
f 70/70/45 55/55/45 58/58/45 81/81/45
f 72/72/46 66/66/46 78/78/46 82/82/46
f 45/45/47 68/68/47 80/80/47 83/83/47
f 61/61/48 70/70/48 81/81/48 84/84/48
f 56/56/49 72/72/49 82/82/49 57/57/49
f 46/46/50 45/45/50 83/83/50 77/77/50
f 62/62/51 61/61/51 84/84/51 79/79/51
f 85/85/52 86/86/52 87/87/52 88/88/52
f 89/89/53 90/90/53 86/86/53 85/85/53
f 91/91/54 92/92/54 93/93/54 94/94/54
f 95/95/55 73/73/55 76/76/55 96/96/55
f 97/97/56 89/89/56 85/85/56 98/98/56
f 99/99/57 91/91/57 94/94/57 100/100/57
f 101/101/58 95/95/58 96/96/58 102/102/58
f 74/74/59 97/97/59 98/98/59 75/75/59
f 90/90/60 99/99/60 100/100/60 86/86/60
f 92/92/61 101/101/61 102/102/61 93/93/61
f 103/103/62 104/104/62 105/105/62 106/106/62
f 94/94/63 93/93/63 107/107/63 108/108/63
f 96/96/64 76/76/64 109/109/64 110/110/64
f 98/98/65 85/85/65 88/88/65 111/111/65
f 100/100/66 94/94/66 108/108/66 112/112/66
f 102/102/67 96/96/67 110/110/67 113/113/67
f 75/75/68 98/98/68 111/111/68 114/114/68
f 86/86/69 100/100/69 112/112/69 87/87/69
f 93/93/70 102/102/70 113/113/70 107/107/70
f 76/76/71 75/75/71 114/114/71 109/109/71
f 115/115/72 116/116/72 117/117/72 118/118/72
f 119/119/73 120/120/73 116/116/73 115/115/73
f 121/121/74 122/122/74 123/123/74 124/124/74
f 125/125/75 103/103/75 106/106/75 126/126/75
f 127/127/76 119/119/76 115/115/76 128/128/76
f 129/129/77 121/121/77 124/124/77 130/130/77
f 131/131/78 125/125/78 126/126/78 132/132/78
f 104/104/79 127/127/79 128/128/79 105/105/79
f 120/120/80 129/129/80 130/130/80 116/116/80
f 122/122/81 131/131/81 132/132/81 123/123/81
f 133/133/82 134/134/82 135/135/82
f 124/124/83 123/123/83 136/136/83 137/137/83
f 126/126/84 106/106/84 138/138/84 139/139/84
f 128/128/85 115/115/85 118/118/85 140/140/85
f 130/130/86 124/124/86 137/137/86 141/141/86
f 132/132/87 126/126/87 139/139/87 142/142/87
f 105/105/88 128/128/88 140/140/88 143/143/88
f 116/116/89 130/130/89 141/141/89 117/117/89
f 123/123/90 132/132/90 142/142/90 136/136/90
f 106/106/91 105/105/91 143/143/91 138/138/91
f 144/144/92 145/145/92 135/135/92
f 146/146/93 147/147/93 135/135/93
f 148/148/94 133/133/94 135/135/94
f 149/149/95 144/144/96 135/135/97
f 150/150/98 146/146/98 135/135/98
f 151/151/99 148/148/99 135/135/99
f 134/134/100 149/149/95 135/135/97
f 145/145/101 150/150/101 135/135/101
f 147/147/102 151/151/102 135/135/102
f 18/18/103 17/17/103 41/41/103 32/32/103
f 12/12/104 14/14/104 39/39/104 30/30/104
f 4/4/105 3/3/105 37/37/105 6/6/105
f 17/17/106 22/22/106 35/35/106 41/41/106
f 14/14/107 20/20/107 31/31/107 39/39/107
f 3/3/108 10/10/108 29/29/108 37/37/108
f 22/22/109 24/24/109 5/5/109 35/35/109
f 20/20/110 18/18/110 32/32/110 31/31/110
f 10/10/111 12/12/111 30/30/111 29/29/111
f 24/24/112 4/4/112 6/6/112 5/5/112
f 28/28/113 27/27/113 71/71/113 64/64/113
f 49/49/114 54/54/114 69/69/114 60/60/114
f 47/47/115 53/53/115 67/67/115 44/44/115
f 27/27/116 52/52/116 65/65/116 71/71/116
f 54/54/117 51/51/117 63/63/117 69/69/117
f 53/53/118 50/50/118 59/59/118 67/67/118
f 52/52/119 48/48/119 43/43/119 65/65/119
f 51/51/120 28/28/120 64/64/120 63/63/120
f 50/50/121 49/49/121 60/60/121 59/59/121
f 48/48/122 47/47/122 44/44/122 43/43/122
f 58/58/123 57/57/123 101/101/123 92/92/123
f 79/79/124 84/84/124 99/99/124 90/90/124
f 77/77/125 83/83/125 97/97/125 74/74/125
f 57/57/126 82/82/126 95/95/126 101/101/126
f 84/84/127 81/81/127 91/91/127 99/99/127
f 83/83/128 80/80/128 89/89/128 97/97/128
f 82/82/129 78/78/129 73/73/129 95/95/129
f 81/81/130 58/58/130 92/92/130 91/91/130
f 80/80/131 79/79/131 90/90/131 89/89/131
f 78/78/132 77/77/132 74/74/132 73/73/132
f 88/88/133 87/87/133 131/131/133 122/122/133
f 109/109/134 114/114/134 129/129/134 120/120/134
f 107/107/135 113/113/135 127/127/135 104/104/135
f 87/87/136 112/112/136 125/125/136 131/131/136
f 114/114/137 111/111/137 121/121/137 129/129/137
f 113/113/138 110/110/138 119/119/138 127/127/138
f 112/112/139 108/108/139 103/103/139 125/125/139
f 111/111/140 88/88/140 122/122/140 121/121/140
f 110/110/141 109/109/141 120/120/141 119/119/141
f 108/108/142 107/107/142 104/104/142 103/103/142
f 118/118/143 117/117/143 151/151/143 147/147/143
f 138/138/144 143/143/144 150/150/144 145/145/144
f 136/136/145 142/142/145 149/149/145 134/134/145
f 117/117/146 141/141/146 148/148/146 151/151/146
f 143/143/147 140/140/147 146/146/147 150/150/147
f 142/142/148 139/139/148 144/144/148 149/149/148
f 141/141/149 137/137/149 133/133/149 148/148/149
f 140/140/150 118/118/150 147/147/150 146/146/150
f 139/139/151 138/138/151 145/145/151 144/144/151
f 137/137/152 136/136/152 134/134/152 133/133/152
usemtl Material.001
f 152/152/153 16/153/153 15/154/153 153/155/153
f 153/155/154 15/154/154 19/156/154 154/157/154
f 154/157/155 19/156/155 13/158/155 155/159/155
f 155/159/156 13/158/156 11/160/156 156/161/156
f 156/161/157 11/160/157 9/162/157 157/163/157
f 157/163/158 9/162/158 2/164/158 158/165/158
f 158/165/159 2/164/159 1/166/159 159/167/159
f 159/167/160 1/166/160 23/168/160 160/169/160
f 160/169/161 23/168/161 21/170/161 161/171/161
f 161/171/162 21/170/162 16/153/162 152/152/162
f 162/172/163 161/171/163 152/152/163 163/173/163
f 164/174/164 160/169/164 161/171/164 162/172/164
f 165/175/165 159/167/165 160/169/165 164/174/165
f 166/176/166 158/165/166 159/167/166 165/175/166
f 167/177/167 157/163/167 158/165/167 166/176/167
f 168/178/168 156/161/168 157/163/168 167/177/168
f 169/179/169 155/159/169 156/161/169 168/178/169
f 170/180/170 154/157/170 155/159/170 169/179/170
f 171/181/171 153/155/171 154/157/171 170/180/171
f 163/173/172 152/152/172 153/155/172 171/181/172
