mtllib LOW_POLY_set.mtl
o lp_Plane_015_Plane_024
v 34.644997 0.416969 4.424013
v 34.437984 0.444016 4.401313
v 34.387005 0.409528 4.279107
v 34.400150 0.338786 4.260452
v 34.327583 0.504330 4.354637
v 34.311092 0.455326 4.217071
v 34.289856 0.376751 4.042608
v 34.301823 0.627061 4.306252
v 34.293030 0.552884 4.202527
v 34.401630 0.780904 4.189964
v 34.302406 0.586338 4.093706
v 34.322605 1.353442 3.198742
v 34.384987 1.365921 3.197656
v 34.362919 1.415650 3.141334
v 34.291771 1.385069 3.152943
v 34.439232 1.366297 3.164393
v 34.433620 1.400705 3.111164
v 34.402573 1.410639 3.056520
v 34.340401 1.419853 3.066451
v 34.285946 1.397784 3.090869
v 34.402290 0.478246 3.687139
v 34.486034 0.374852 3.710539
v 34.402020 0.367967 3.796759
v 34.337944 0.454676 3.856334
v 34.596603 0.273320 3.738791
v 34.398529 0.280729 3.834343
v 35.382298 0.665565 4.706912
v 35.315384 0.794554 4.723857
v 35.179935 0.752428 4.633274
v 35.238445 0.619435 4.610834
v 35.308380 0.924818 4.655531
v 35.179489 0.885428 4.569790
v 35.040592 0.841505 4.481075
v 35.033230 0.707683 4.544717
v 35.085587 0.572638 4.522252
v 35.542057 0.668967 4.479521
v 35.476036 0.618656 4.602850
v 35.327213 0.569463 4.503943
v 35.393719 0.619296 4.381673
v 35.175941 0.519733 4.414976
v 35.248169 0.568124 4.292359
v 35.196514 0.839499 4.251721
v 35.252201 0.703201 4.228986
v 35.109550 0.648503 4.137259
v 35.055370 0.795096 4.162025
v 35.098488 0.500002 4.202606
v 34.947556 0.367285 4.056139
v 34.967964 0.605480 4.015186
v 34.882034 0.776044 4.057332
v 35.109493 0.891150 4.358728
v 34.969704 0.849753 4.275266
v 34.893440 0.802266 4.403507
v 34.816952 0.826230 4.218123
v 34.717094 0.797821 4.379008
v 34.872066 0.663899 4.471934
v 34.907200 0.516157 4.449516
v 34.719028 0.643325 4.466694
v 34.672264 0.824787 4.206625
v 34.558090 0.833278 4.314551
v 34.657970 0.814499 4.103909
v 34.780312 0.748849 3.889293
v 34.667412 0.803634 3.976740
v 34.665405 0.765867 3.733471
v 34.556507 0.805002 3.943249
v 34.518673 0.798630 3.733749
v 34.483162 0.798284 3.883700
v 34.406784 0.751198 3.753604
v 34.391174 0.749797 3.941597
v 35.012161 0.453915 4.337411
v 34.869835 0.335567 4.295806
v 34.357567 0.627669 3.736360
v 34.331352 0.609650 3.918760
v 34.685055 0.476286 3.639736
v 34.663498 0.372596 3.693405
v 34.561848 0.395055 3.660552
v 34.534355 0.449632 3.611575
v 34.824661 0.447280 3.824073
v 34.771431 0.360362 3.786490
v 34.798248 0.264292 3.849888
v 35.881275 1.965512 5.171754
v 35.833290 1.970837 5.208882
v 35.885281 1.967242 5.263576
v 35.931522 1.956176 5.204874
v 35.797752 1.942834 5.249651
v 35.830692 1.928797 5.298918
v 35.876965 1.895868 5.320908
v 35.928925 1.914136 5.294910
v 35.960487 1.918547 5.243011
v 34.730434 0.626854 3.664816
v 34.838650 0.605543 3.843593
v 34.136948 1.900345 5.837459
v 34.073006 1.921819 5.807365
v 34.050297 1.931221 5.894124
v 34.132278 1.897738 5.911125
v 34.000034 1.912883 5.800261
v 33.966564 1.912915 5.866102
v 33.961063 1.885630 5.934516
v 34.025837 1.888834 5.969862
v 34.097977 1.873091 5.971714
v 35.374397 0.975128 4.532203
v 35.245579 0.935418 4.447554
v 35.468140 0.928219 4.428141
v 35.333927 0.885603 4.340697
v 35.535053 0.799231 4.411196
v 35.392857 0.752453 4.318224
v 35.824596 0.843373 4.701767
v 35.760372 0.794494 4.824223
v 35.630856 0.682672 4.712283
v 35.696785 0.732934 4.587962
v 35.645439 0.822121 4.907516
v 35.525974 0.722199 4.808156
v 35.544235 0.920143 4.893875
v 35.442009 0.839906 4.811511
v 35.510216 1.026135 4.803080
v 35.422100 0.961638 4.732293
v 35.574436 1.075014 4.680624
v 35.488029 1.011900 4.607971
v 35.689369 1.047387 4.597332
v 35.592911 0.972373 4.512098
v 35.790573 0.949365 4.610972
v 35.676876 0.854667 4.508743
v 34.144253 0.989038 5.788871
v 34.002892 0.960342 5.782493
v 34.055088 0.838079 5.615367
v 34.195282 0.877883 5.633911
v 33.883606 0.998649 5.708710
v 33.931934 0.882694 5.546786
v 33.999500 0.809942 5.355659
v 34.124027 0.761710 5.418546
v 34.260559 0.808421 5.447332
v 33.864170 1.089788 5.603806
v 33.905277 0.996156 5.463734
v 33.942478 1.177323 5.528962
v 33.977371 1.107812 5.413353
v 34.031509 1.063122 5.264722
v 33.966557 0.936817 5.293002
v 34.083839 1.206019 5.535340
v 34.117569 1.147616 5.431898
v 34.203125 1.167713 5.609124
v 34.240723 1.103001 5.500479
v 34.292564 1.061602 5.356395
v 34.168037 1.109833 5.293508
v 34.222561 1.076574 5.714027
v 34.267380 0.989540 5.583531
v 34.325508 0.934727 5.419052
v 34.189621 0.704103 5.235571
v 34.323910 0.753361 5.268583
v 34.065098 0.753551 5.175415
v 34.127037 0.703436 5.006243
v 34.250916 0.654070 5.065701
v 34.384193 0.703436 5.099144
v 34.029594 0.885194 5.121752
v 34.091145 1.016767 5.103028
v 34.152100 0.966719 4.936867
v 34.091354 0.835077 4.954136
v 34.225433 1.066025 5.136040
v 34.349957 1.016577 5.196197
v 34.409256 0.966719 5.029767
v 34.285378 1.016085 4.970309
v 34.385460 0.884933 5.249860
v 34.444942 0.835077 5.081874
v 34.310917 0.605189 4.898665
v 34.443329 0.654077 4.931706
v 34.187916 0.654528 4.839820
v 34.247974 0.605076 4.673660
v 34.369308 0.554144 4.730357
v 34.500484 0.601472 4.761802
v 34.152512 0.785499 4.788136
v 34.212921 0.916346 4.770937
v 34.273479 0.866152 4.605719
v 34.213242 0.736112 4.623049
v 34.345425 0.965352 4.804054
v 34.468521 0.916133 4.862974
v 34.527485 0.864450 4.695065
v 34.405407 0.914431 4.637766
v 34.503830 0.785043 4.914583
v 34.561470 0.732463 4.745074
v 34.421471 0.498969 4.561040
v 34.557835 0.538606 4.590528
v 34.302280 0.554593 4.508811
v 34.270092 0.686214 4.459226
v 34.333435 0.818137 4.435262
v 34.469208 0.865707 4.471294
v 34.593605 0.815480 4.528560
v 34.623001 0.677893 4.578888
v 34.364426 0.582105 3.403380
v 34.468731 0.542149 3.369552
v 34.500877 0.501522 3.502243
v 34.389439 0.542403 3.540801
v 34.577187 0.582105 3.353424
v 34.617538 0.542194 3.489093
v 34.622623 0.688656 3.367657
v 34.664814 0.656815 3.506541
v 34.588272 0.795207 3.400623
v 34.625893 0.770758 3.542977
v 34.483967 0.835164 3.434451
v 34.513290 0.811549 3.575717
v 34.375507 0.795207 3.450579
v 34.400127 0.769300 3.592741
v 34.330074 0.688656 3.436347
v 34.352859 0.656703 3.577593
v 34.310314 0.659188 3.133785
v 34.404488 0.626135 3.098454
v 34.437489 0.580792 3.236817
v 34.337868 0.618577 3.269725
v 34.504490 0.660398 3.086572
v 34.541340 0.618729 3.221747
v 34.548664 0.750381 3.108984
v 34.585129 0.719721 3.236537
v 34.520023 0.839909 3.149101
v 34.552616 0.820656 3.269318
v 34.425850 0.872963 3.184432
v 34.452995 0.858441 3.302227
v 34.325851 0.838699 3.196314
v 34.349144 0.820504 3.317296
v 34.281677 0.748716 3.173902
v 34.305355 0.719513 3.302507
v 34.259502 0.791613 2.905996
v 34.340679 0.780804 2.855587
v 34.369144 0.687784 2.955280
v 34.281639 0.711590 2.998042
v 34.436161 0.799512 2.856373
v 34.466446 0.715452 2.949781
v 34.488365 0.840350 2.915327
v 34.514156 0.784807 2.990415
v 34.474323 0.878225 2.992888
v 34.492565 0.852715 3.049147
v 34.393147 0.889034 3.043296
v 34.405060 0.876521 3.091908
v 34.297661 0.870326 3.042511
v 34.307758 0.848853 3.097407
v 34.245457 0.829488 2.983557
v 34.260048 0.779497 3.056773
v 34.011635 1.804215 5.993612
v 34.111160 1.801467 5.984749
v 33.931213 1.817947 5.935859
v 33.914455 1.697830 5.917555
v 34.003681 1.681226 5.981426
v 34.114235 1.679534 5.971834
v 33.923164 1.840160 5.838734
v 33.982437 1.853766 5.759406
v 33.971321 1.737597 5.721654
v 33.905430 1.721144 5.809427
v 34.082043 1.853451 5.751060
v 34.162380 1.837286 5.808295
v 34.171101 1.719301 5.775932
v 34.081875 1.735905 5.712061
v 34.170517 1.817507 5.905938
v 34.180126 1.695987 5.884060
v 33.995911 1.530638 5.959531
v 34.114841 1.529512 5.949557
v 33.899845 1.548880 5.890974
v 33.884239 1.372709 5.856503
v 33.988144 1.350456 5.929211
v 34.116123 1.354044 5.920869
v 33.890022 1.575331 5.775283
v 33.960819 1.594519 5.681560
v 33.948448 1.441619 5.640372
v 33.872864 1.410664 5.736369
v 34.079750 1.593393 5.671586
v 34.175812 1.575151 5.740143
v 34.180328 1.422955 5.704738
v 34.076427 1.445208 5.632030
v 34.185638 1.548700 5.855834
v 34.191704 1.385000 5.824872
v 33.984798 1.145048 5.880312
v 34.121326 1.159991 5.877358
v 33.872505 1.174888 5.805345
v 33.858170 1.237389 5.687947
v 33.937141 1.294304 5.597555
v 34.073673 1.309247 5.594601
v 34.185963 1.279407 5.669568
v 34.200298 1.216906 5.786965
v 35.925697 1.213890 4.911358
v 35.870590 1.172470 5.018123
v 35.834862 0.974182 4.928897
v 35.895000 1.019694 4.813150
v 35.757576 1.173338 5.074194
v 35.717804 0.987113 4.997575
v 35.648842 1.222120 5.037136
v 35.608696 1.058928 4.969396
v 35.603153 1.286108 4.939014
v 35.566032 1.142961 4.872058
v 35.658260 1.327529 4.832250
v 35.626175 1.188474 4.756311
v 35.771275 1.326661 4.776178
v 35.743229 1.175543 4.687634
v 35.880009 1.277879 4.813237
v 35.852337 1.103727 4.715813
v 35.953491 1.508901 5.051535
v 35.906574 1.473775 5.142743
v 35.891544 1.337175 5.087073
v 35.942245 1.375154 4.988557
v 35.807861 1.469358 5.187359
v 35.785244 1.333160 5.135744
v 35.711498 1.502889 5.150703
v 35.681667 1.370569 5.096882
v 35.669743 1.551249 5.063113
v 35.636967 1.423726 5.002825
v 35.716663 1.586375 4.971904
v 35.687664 1.461704 4.904309
v 35.815372 1.590792 4.927289
v 35.793968 1.465720 4.855638
v 35.911736 1.557261 4.963944
v 35.897545 1.428311 4.894499
v 35.972672 1.748011 5.163735
v 35.932564 1.717984 5.241705
v 35.919914 1.599130 5.193541
v 35.963337 1.631639 5.109128
v 35.848179 1.714208 5.279845
v 35.828556 1.595042 5.234833
v 35.765800 1.742872 5.248510
v 35.739372 1.626075 5.200908
v 35.730110 1.784213 5.173633
v 35.700729 1.670831 5.119844
v 35.770214 1.814240 5.095663
v 35.744152 1.703340 5.035431
v 35.854599 1.818016 5.057523
v 35.835510 1.707428 4.994139
v 35.936977 1.789352 5.088859
v 35.924694 1.676395 5.028064
v 35.941200 1.828036 5.283006
v 35.976730 1.853558 5.213135
v 35.865982 1.823486 5.316430
v 35.792942 1.850163 5.289055
v 35.760941 1.885764 5.221941
v 35.796867 1.913612 5.153167
v 35.871693 1.915836 5.118646
v 35.945126 1.891485 5.147118
v 34.250607 1.037302 2.930537
v 34.324574 1.052642 2.877312
v 34.327450 0.912369 2.840789
v 34.250679 0.908540 2.894216
v 34.417362 1.053683 2.881542
v 34.421574 0.921180 2.844465
v 34.473728 1.037692 2.948962
v 34.476753 0.930194 2.911273
v 34.467560 1.015558 3.034755
v 34.467850 0.934469 2.996737
v 34.393597 1.000219 3.087981
v 34.391083 0.930640 3.050164
v 34.300808 0.999177 3.083751
v 34.296959 0.921829 3.046489
v 34.244442 1.015168 3.016330
v 34.241776 0.912814 2.979681
v 34.256069 1.254097 3.016284
v 34.326572 1.274302 2.965022
v 34.325039 1.171451 2.921582
v 34.253010 1.151541 2.973884
v 34.415916 1.271717 2.969204
v 34.416199 1.169279 2.925836
v 34.471012 1.244633 3.034303
v 34.472305 1.143162 2.992233
v 34.466160 1.210941 3.117056
v 34.467216 1.110393 3.076649
v 34.395660 1.190736 3.168318
v 34.395187 1.090482 3.128951
v 34.306313 1.193321 3.164136
v 34.304028 1.092655 3.124697
v 34.251221 1.220405 3.099038
v 34.247921 1.118772 3.058300
v 34.329567 1.366506 3.009709
v 34.263309 1.346431 3.057491
v 34.413540 1.362990 3.013244
v 34.465374 1.338610 3.074848
v 34.460762 1.305872 3.152199
v 34.394527 1.287935 3.200853
v 34.310532 1.289312 3.196446
v 34.258720 1.315831 3.135713
v 34.799744 0.105429 3.882157
v 34.590115 0.105429 3.770405
v 34.894684 0.105429 4.100685
v 34.796993 0.105429 4.309440
v 34.581463 0.105429 4.391427
v 34.362408 0.105429 4.275289
v 34.267200 0.105429 4.054218
v 34.371887 0.105429 3.850147
vn -0.3279 -0.7125 0.6203
vn -0.6154 -0.6897 0.3815
vn -0.7957 -0.4625 0.3910
vn -0.9740 -0.1436 0.1754
vn -0.9014 0.4247 -0.0838
vn -0.9987 -0.0234 0.0455
vn -0.1706 0.7257 0.6665
vn 0.3516 0.7832 0.5127
vn 0.1875 0.9818 0.0296
vn -0.3348 0.9243 0.1834
vn -0.7334 -0.4783 -0.4830
vn -0.4650 -0.5149 -0.7201
vn -0.8825 -0.2576 -0.3934
vn -0.4466 -0.3383 0.8283
vn -0.5921 0.3473 0.7271
vn -0.5702 0.3653 0.7358
vn -0.4106 -0.3133 0.8563
vn 0.4011 -0.9033 -0.1519
vn 0.0113 -0.9049 0.4254
vn 0.0222 -0.8938 0.4479
vn 0.3937 -0.9083 -0.1413
vn 0.4328 0.3102 -0.8464
vn 0.5964 -0.3579 -0.7185
vn 0.7303 -0.2357 -0.6412
vn 0.4894 0.3816 -0.7841
vn -0.3478 0.9244 0.1568
vn -0.0048 0.8991 -0.4377
vn 0.0438 0.9409 -0.3359
vn -0.1272 0.9757 0.1786
vn -0.3201 -0.2443 0.9153
vn -0.4866 0.4224 0.7647
vn -0.1148 0.4732 0.8734
vn -0.0242 -0.1689 0.9853
vn 0.0770 0.9879 0.1345
vn 0.0780 0.9749 -0.2087
vn -0.1486 0.9763 -0.1575
vn 0.1932 0.9636 -0.1846
vn 0.2060 0.9667 -0.1518
vn -0.0879 0.9961 -0.0034
vn 0.1317 0.9898 -0.0539
vn -0.4443 0.8937 -0.0626
vn -0.3163 0.9482 -0.0304
vn 0.4236 -0.9031 -0.0706
vn 0.0778 -0.8526 0.5167
vn 0.2350 -0.6577 0.7156
vn 0.6080 -0.7872 0.1028
vn -0.9164 0.3916 -0.0829
vn -0.9641 -0.0685 -0.2564
vn -0.9793 0.0745 -0.1880
vn -0.8956 0.4424 -0.0473
vn 0.2080 -0.5267 -0.8242
vn -0.0869 -0.5560 -0.8266
vn -0.4284 -0.6079 -0.6685
vn 0.6818 -0.3229 -0.6564
vn 0.8236 -0.1941 -0.5330
vn 0.4515 -0.5030 -0.7370
vn 0.1466 0.9889 -0.0250
vn -0.3046 0.8664 0.3958
vn 0.1233 0.6127 0.7806
vn 0.5744 0.7352 0.3599
vn 0.8187 -0.0752 -0.5692
vn 0.7445 0.5031 -0.4388
vn 0.7107 0.4725 -0.5212
vn 0.8345 -0.1017 -0.5416
vn 0.3469 0.9377 0.0195
vn -0.1452 0.9828 -0.1142
vn -0.2853 0.8848 0.3683
vn 0.2068 0.8397 0.5021
vn -0.3864 0.9078 0.1629
vn -0.0075 0.9065 -0.4222
vn -0.0129 0.8993 -0.4372
vn -0.3906 0.9076 0.1541
vn 0.4366 0.3351 -0.8349
vn 0.5926 -0.3461 -0.7273
vn 0.5813 -0.3534 -0.7330
vn 0.4292 0.3240 -0.8431
vn 0.6391 -0.7686 0.0283
vn 0.2094 -0.8030 0.5579
vn 0.0522 -0.8967 0.4395
vn 0.4501 -0.8849 -0.1196
vn -0.4266 -0.3260 0.8436
vn -0.7248 0.2937 0.6233
vn -0.6075 0.3520 0.7121
vn -0.4481 -0.3421 0.8259
vn -0.5950 0.8037 0.0090
vn -0.1745 0.8323 -0.5261
vn -0.0271 0.9075 -0.4193
vn -0.3972 0.9044 0.1557
vn 0.4515 0.3484 -0.8215
vn 0.7581 -0.2652 -0.5957
vn 0.6251 -0.3436 -0.7008
vn 0.4403 0.3377 -0.8319
vn 0.1360 -0.7810 0.6096
vn -0.4990 -0.7672 0.4030
vn -0.4306 -0.8828 0.1878
vn 0.2074 -0.8880 0.4104
vn -0.9537 -0.2896 -0.0814
vn -0.8238 0.3341 -0.4580
vn -0.8405 0.3464 -0.4166
vn -0.9161 -0.3479 -0.1992
vn -0.1550 0.8312 -0.5339
vn 0.4694 0.8230 -0.3199
vn 0.3997 0.9100 -0.1103
vn -0.2260 0.9113 -0.3442
vn 0.9393 0.3216 0.1197
vn 0.8160 -0.3090 0.4885
vn 0.8402 -0.3458 0.4178
vn 0.9101 0.3552 0.2136
vn 0.2360 -0.9007 0.3647
vn -0.4175 -0.8991 0.1314
vn -0.4148 -0.9025 0.1158
vn 0.2449 -0.9027 0.3537
vn -0.9110 -0.3437 -0.2278
vn -0.8457 0.3398 -0.4116
vn -0.8465 0.3369 -0.4123
vn -0.9110 -0.3401 -0.2334
vn -0.2426 0.9067 -0.3451
vn 0.4081 0.9068 -0.1061
vn 0.4167 0.9009 -0.1211
vn -0.2427 0.9009 -0.3598
vn 0.9117 0.3431 0.2260
vn 0.8483 -0.3425 0.4038
vn 0.8501 -0.3400 0.4023
vn 0.9143 0.3373 0.2242
vn 0.2456 -0.9029 0.3527
vn -0.4155 -0.9024 0.1140
vn -0.4247 -0.8974 0.1193
vn 0.2414 -0.9017 0.3588
vn -0.9112 -0.3391 -0.2340
vn -0.8465 0.3366 -0.4124
vn -0.8464 0.3369 -0.4124
vn -0.9129 -0.3353 -0.2328
vn -0.2424 0.9000 -0.3622
vn 0.4185 0.8997 -0.1238
vn 0.4225 0.8977 -0.1252
vn -0.2418 0.9001 -0.3625
vn 0.9154 0.3353 0.2228
vn 0.8506 -0.3402 0.4009
vn 0.8519 -0.3441 0.3948
vn 0.9200 0.3262 0.2171
vn 0.2068 -0.9019 0.3791
vn -0.4518 -0.8819 0.1349
vn -0.5115 -0.8329 0.2111
vn -0.0384 -0.8839 0.4662
vn -0.9235 -0.3175 -0.2154
vn -0.8525 0.3395 -0.3974
vn -0.8835 0.3536 -0.3072
vn -0.9633 -0.2536 -0.0885
vn -0.2365 0.9074 -0.3474
vn 0.4154 0.9038 -0.1031
vn 0.2758 0.9606 0.0341
vn -0.1932 0.9513 -0.2403
vn 0.9159 0.3102 0.2549
vn 0.8396 -0.3481 0.4169
vn 0.6992 -0.3204 0.6391
vn 0.7517 0.3459 0.5614
vn -0.3982 -0.8988 -0.1830
vn 0.2766 -0.8973 -0.3440
vn 0.2398 -0.8459 -0.4764
vn -0.3954 -0.8612 -0.3193
vn 0.8812 -0.3195 -0.3484
vn 0.9132 0.3622 -0.1867
vn 0.8679 0.4468 -0.2170
vn 0.8654 -0.2310 -0.4447
vn 0.3669 0.9276 0.0706
vn -0.3100 0.9248 0.2206
vn -0.3535 0.9297 0.1038
vn 0.2745 0.9615 0.0138
vn -0.9080 0.3540 0.2242
vn -0.9419 -0.3269 0.0775
vn -0.9580 -0.2850 -0.0319
vn -0.9263 0.3666 0.0870
vn -0.3963 -0.8975 -0.1937
vn 0.2703 -0.8954 -0.3539
vn 0.2825 -0.9014 -0.3283
vn -0.3986 -0.9016 -0.1677
vn 0.8781 -0.3385 -0.3382
vn 0.9139 0.3629 -0.1816
vn 0.9182 0.3529 -0.1799
vn 0.8825 -0.3329 -0.3321
vn 0.3563 0.9334 0.0430
vn -0.3050 0.9328 0.1922
vn -0.3043 0.9232 0.2346
vn 0.3767 0.9233 0.0755
vn -0.8988 0.3674 0.2389
vn -0.9372 -0.3363 0.0927
vn -0.9381 -0.3327 0.0961
vn -0.9023 0.3534 0.2468
vn -0.4426 -0.7207 -0.5336
vn 0.1526 -0.7048 -0.6928
vn 0.2366 -0.8732 -0.4260
vn -0.3913 -0.8798 -0.2699
vn 0.8153 -0.2825 -0.5054
vn 0.9173 0.3928 -0.0651
vn 0.9027 0.3951 -0.1706
vn 0.8611 -0.3511 -0.3677
vn 0.3206 0.9163 0.2400
vn -0.2115 0.9144 0.3452
vn -0.2869 0.9496 0.1263
vn 0.3009 0.9536 0.0057
vn -0.8296 0.4040 0.3853
vn -0.9551 -0.2956 -0.0203
vn -0.9360 -0.3443 0.0729
vn -0.8791 0.4120 0.2397
vn 0.0643 0.2283 0.9715
vn -0.5036 0.2803 0.8172
vn -0.5871 -0.0417 0.8085
vn 0.0849 -0.1033 0.9910
vn -0.8881 0.4365 0.1442
vn -0.7264 0.5495 -0.4127
vn -0.7954 0.2544 -0.5500
vn -0.9867 0.1207 0.1088
vn -0.0360 0.6073 -0.7937
vn 0.5318 0.5553 -0.6393
vn 0.5942 0.2529 -0.7635
vn -0.0778 0.3144 -0.9461
vn 0.9163 0.3991 0.0336
vn 0.7546 0.2861 0.5905
vn 0.8026 -0.0432 0.5950
vn 0.9938 0.0905 -0.0639
vn 0.0822 -0.1468 0.9857
vn -0.5899 -0.0858 0.8029
vn -0.5880 -0.1072 0.8017
vn 0.0746 -0.1645 0.9835
vn -0.9916 0.0801 0.1013
vn -0.7999 0.2157 -0.5601
vn -0.7998 0.2157 -0.5601
vn -0.9915 0.0719 0.1088
vn -0.0784 0.2739 -0.9586
vn 0.5943 0.2118 -0.7758
vn 0.5920 0.1974 -0.7814
vn -0.0740 0.2619 -0.9623
vn 0.9961 0.0509 -0.0726
vn 0.8038 -0.0835 0.5890
vn 0.7997 -0.0871 0.5940
vn 0.9959 0.0493 -0.0761
vn 0.0573 -0.2248 0.9727
vn -0.5837 -0.1749 0.7929
vn -0.5745 -0.4237 0.7003
vn 0.0609 -0.4576 0.8870
vn -0.9917 0.0375 0.1232
vn -0.7995 0.2235 -0.5576
vn -0.8043 0.2708 -0.5289
vn -0.9917 -0.0985 0.0826
vn -0.0602 0.2748 -0.9596
vn 0.5854 0.2094 -0.7832
vn 0.5723 0.4533 -0.6833
vn -0.0675 0.4974 -0.8649
vn 0.9947 0.0643 -0.0805
vn 0.7894 -0.1059 0.6047
vn 0.7885 -0.1890 0.5853
vn 0.9848 0.1708 -0.0316
vn 0.8880 -0.3118 0.3381
vn 0.4108 -0.4279 0.8050
vn 0.3771 -0.5721 0.7283
vn 0.8377 -0.4888 0.2436
vn -0.4091 -0.2669 0.8726
vn -0.9001 0.0361 0.4342
vn -0.8641 0.1321 0.4856
vn -0.4061 -0.2895 0.8667
vn -0.8758 0.3711 -0.3087
vn -0.3848 0.5142 -0.7665
vn -0.3459 0.6293 -0.6960
vn -0.8225 0.5236 -0.2220
vn 0.4530 0.3827 -0.8052
vn 0.9246 0.0538 -0.3772
vn 0.8962 -0.0719 -0.4379
vn 0.4593 0.3699 -0.8076
vn 0.8970 -0.2478 0.3660
vn 0.3956 -0.3829 0.8348
vn 0.4009 -0.3929 0.8276
vn 0.8951 -0.2640 0.3592
vn -0.4204 -0.2593 0.8695
vn -0.8977 0.0230 0.4401
vn -0.8997 0.0212 0.4361
vn -0.4172 -0.2607 0.8706
vn -0.8762 0.3708 -0.3080
vn -0.3740 0.5081 -0.7759
vn -0.3783 0.5031 -0.7771
vn -0.8785 0.3609 -0.3132
vn 0.4428 0.3871 -0.8087
vn 0.9192 0.1026 -0.3802
vn 0.9214 0.0913 -0.3777
vn 0.4456 0.3864 -0.8075
vn 0.8973 -0.2444 0.3675
vn 0.3949 -0.3808 0.8361
vn -0.4208 -0.2591 0.8693
vn -0.8974 0.0234 0.4407
vn -0.8973 0.0234 0.4407
vn -0.8758 0.3725 -0.3070
vn -0.3733 0.5090 -0.7756
vn -0.8757 0.3726 -0.3070
vn 0.4424 0.3872 -0.8089
vn 0.9189 0.1047 -0.3802
vn 0.9189 0.1047 -0.3803
vn 0.8724 0.0297 0.4880
vn 0.4347 -0.0891 0.8962
vn 0.3985 -0.3492 0.8481
vn 0.9000 -0.2130 0.3804
vn -0.3689 0.0308 0.9289
vn -0.7840 0.2770 0.5556
vn -0.8897 0.0540 0.4534
vn -0.4141 -0.2279 0.8813
vn -0.7627 0.6208 -0.1810
vn -0.3251 0.7397 -0.5892
vn -0.3667 0.5380 -0.7590
vn -0.8681 0.4018 -0.2913
vn 0.4786 0.6198 -0.6220
vn 0.8936 0.3737 -0.2486
vn 0.9215 0.1347 -0.3644
vn 0.4459 0.4167 -0.7922
vn -0.5825 0.2065 -0.7862
vn 0.0271 0.2611 -0.9649
vn 0.0380 -0.1007 -0.9942
vn -0.5484 -0.1369 -0.8249
vn 0.7565 0.2152 -0.6175
vn 0.9962 -0.0170 0.0859
vn 0.9867 0.1224 0.1073
vn 0.7512 0.0434 -0.6586
vn 0.5664 -0.3772 0.7327
vn -0.0137 -0.4545 0.8906
vn -0.0066 -0.1159 0.9932
vn 0.5475 -0.0437 0.8357
vn -0.7550 -0.2258 0.6157
vn -0.9958 0.0376 -0.0837
vn -0.9901 -0.0713 -0.1209
vn -0.7553 -0.0251 0.6549
vn -0.6143 0.3159 -0.7231
vn 0.0532 0.3886 -0.9199
vn 0.0453 0.3532 -0.9345
vn -0.6057 0.2865 -0.7423
vn 0.7869 0.2436 -0.5669
vn 0.9984 -0.0108 0.0551
vn 0.9980 -0.0169 0.0605
vn 0.7791 0.2387 -0.5797
vn 0.6146 -0.2897 0.7337
vn -0.0530 -0.3640 0.9299
vn -0.0446 -0.4058 0.9129
vn 0.6041 -0.3290 0.7258
vn -0.7868 -0.2085 0.5810
vn -0.9981 0.0475 -0.0404
vn -0.9976 0.0468 -0.0508
vn -0.7798 -0.2201 0.5861
vn -0.5466 0.6398 -0.5403
vn 0.0302 0.7034 -0.7102
vn 0.0553 0.4345 -0.8990
vn -0.6144 0.3607 -0.7017
vn 0.7454 0.5564 -0.3672
vn 0.9267 0.3371 0.1663
vn 0.9970 0.0297 0.0713
vn 0.7865 0.2844 -0.5483
vn 0.5535 0.0703 0.8298
vn -0.0232 0.0067 0.9997
vn -0.0542 -0.3170 0.9469
vn 0.6156 -0.2431 0.7496
vn -0.7384 0.1537 0.6567
vn -0.9197 0.3729 0.1232
vn -0.9959 0.0879 -0.0233
vn -0.7853 -0.1668 0.5962
vn 0.4659 -0.1766 -0.8670
vn 0.8704 -0.1893 -0.4546
vn 0.9182 -0.1938 0.3455
vn 0.4066 -0.1340 0.9037
vn -0.5237 0.0697 0.8491
vn -0.8937 0.1295 0.4296
vn -0.8795 0.0682 -0.4710
vn -0.3879 -0.0893 -0.9174
usemtl Material.001
f 1//1 2//1 3//1 4//1
f 5//2 6//2 3//2 2//2
f 7//3 4//3 3//3 6//3
f 5//4 8//4 9//4 6//4
f 10//5 11//5 9//5 8//5
f 7//6 6//6 9//6 11//6
f 12//7 13//7 14//7 15//7
f 13//8 16//8 17//8 14//8
f 14//9 17//9 18//9 19//9
f 15//10 14//10 19//10 20//10
f 21//11 22//11 23//11 24//11
f 25//12 26//12 23//12 22//12
f 7//13 24//13 23//13 26//13
f 27//14 28//14 29//14 30//14
f 28//15 31//15 32//15 29//15
f 29//16 32//16 33//16 34//16
f 30//17 29//17 34//17 35//17
f 36//18 37//18 38//18 39//18
f 37//19 27//19 30//19 38//19
f 38//20 30//20 35//20 40//20
f 39//21 38//21 40//21 41//21
f 42//22 43//22 44//22 45//22
f 43//23 41//23 46//23 44//23
f 44//24 46//24 47//24 48//24
f 45//25 44//25 48//25 49//25
f 33//26 50//26 51//26 52//26
f 50//27 42//27 45//27 51//27
f 51//28 45//28 49//28 53//28
f 52//29 51//29 53//29 54//29
f 35//30 34//30 55//30 56//30
f 34//31 33//31 52//31 55//31
f 55//32 52//32 54//32 57//32
f 56//33 55//33 57//33 1//33
f 54//34 53//34 58//34 59//34
f 49//35 60//35 58//35 53//35
f 10//36 59//36 58//36 60//36
f 49//37 61//37 62//37 60//37
f 63//38 64//38 62//38 61//38
f 10//39 60//39 62//39 64//39
f 63//40 65//40 66//40 64//40
f 67//41 68//41 66//41 65//41
f 10//42 64//42 66//42 68//42
f 41//43 40//43 69//43 46//43
f 40//44 35//44 56//44 69//44
f 69//45 56//45 1//45 70//45
f 46//46 69//46 70//46 47//46
f 67//47 71//47 72//47 68//47
f 71//48 21//48 24//48 72//48
f 72//49 24//49 7//49 11//49
f 68//50 72//50 11//50 10//50
f 73//51 74//51 75//51 76//51
f 25//52 22//52 75//52 74//52
f 21//53 76//53 75//53 22//53
f 73//54 77//54 78//54 74//54
f 47//55 79//55 78//55 77//55
f 25//56 74//56 78//56 79//56
f 80//57 81//57 82//57 83//57
f 81//58 84//58 85//58 82//58
f 82//59 85//59 86//59 87//59
f 83//60 82//60 87//60 88//60
f 73//61 89//61 90//61 77//61
f 89//62 63//62 61//62 90//62
f 90//63 61//63 49//63 48//63
f 77//64 90//64 48//64 47//64
f 91//65 92//65 93//65 94//65
f 92//66 95//66 96//66 93//66
f 93//67 96//67 97//67 98//67
f 94//68 93//68 98//68 99//68
f 31//69 100//69 101//69 32//69
f 100//70 102//70 103//70 101//70
f 101//71 103//71 42//71 50//71
f 32//72 101//72 50//72 33//72
f 102//73 104//73 105//73 103//73
f 104//74 36//74 39//74 105//74
f 105//75 39//75 41//75 43//75
f 103//76 105//76 43//76 42//76
f 106//77 107//77 108//77 109//77
f 107//78 110//78 111//78 108//78
f 108//79 111//79 27//79 37//79
f 109//80 108//80 37//80 36//80
f 110//81 112//81 113//81 111//81
f 112//82 114//82 115//82 113//82
f 113//83 115//83 31//83 28//83
f 111//84 113//84 28//84 27//84
f 114//85 116//85 117//85 115//85
f 116//86 118//86 119//86 117//86
f 117//87 119//87 102//87 100//87
f 115//88 117//88 100//88 31//88
f 118//89 120//89 121//89 119//89
f 120//90 106//90 109//90 121//90
f 121//91 109//91 36//91 104//91
f 119//92 121//92 104//92 102//92
f 122//93 123//93 124//93 125//93
f 123//94 126//94 127//94 124//94
f 124//95 127//95 128//95 129//95
f 125//96 124//96 129//96 130//96
f 126//97 131//97 132//97 127//97
f 131//98 133//98 134//98 132//98
f 132//99 134//99 135//99 136//99
f 127//100 132//100 136//100 128//100
f 133//101 137//101 138//101 134//101
f 137//102 139//102 140//102 138//102
f 138//103 140//103 141//103 142//103
f 134//104 138//104 142//104 135//104
f 139//105 143//105 144//105 140//105
f 143//106 122//106 125//106 144//106
f 144//107 125//107 130//107 145//107
f 140//108 144//108 145//108 141//108
f 130//109 129//109 146//109 147//109
f 129//110 128//110 148//110 146//110
f 146//111 148//111 149//111 150//111
f 147//112 146//112 150//112 151//112
f 128//113 136//113 152//113 148//113
f 136//114 135//114 153//114 152//114
f 152//115 153//115 154//115 155//115
f 148//116 152//116 155//116 149//116
f 135//117 142//117 156//117 153//117
f 142//118 141//118 157//118 156//118
f 156//119 157//119 158//119 159//119
f 153//120 156//120 159//120 154//120
f 141//121 145//121 160//121 157//121
f 145//122 130//122 147//122 160//122
f 160//123 147//123 151//123 161//123
f 157//124 160//124 161//124 158//124
f 151//125 150//125 162//125 163//125
f 150//126 149//126 164//126 162//126
f 162//127 164//127 165//127 166//127
f 163//128 162//128 166//128 167//128
f 149//129 155//129 168//129 164//129
f 155//130 154//130 169//130 168//130
f 168//131 169//131 170//131 171//131
f 164//132 168//132 171//132 165//132
f 154//133 159//133 172//133 169//133
f 159//134 158//134 173//134 172//134
f 172//135 173//135 174//135 175//135
f 169//136 172//136 175//136 170//136
f 158//137 161//137 176//137 173//137
f 161//138 151//138 163//138 176//138
f 176//139 163//139 167//139 177//139
f 173//140 176//140 177//140 174//140
f 167//141 166//141 178//141 179//141
f 166//142 165//142 180//142 178//142
f 178//143 180//143 5//143 2//143
f 179//144 178//144 2//144 1//144
f 165//145 171//145 181//145 180//145
f 171//146 170//146 182//146 181//146
f 181//147 182//147 10//147 8//147
f 180//148 181//148 8//148 5//148
f 170//149 175//149 183//149 182//149
f 175//150 174//150 184//150 183//150
f 183//151 184//151 54//151 59//151
f 182//152 183//152 59//152 10//152
f 174//153 177//153 185//153 184//153
f 177//154 167//154 179//154 185//154
f 185//155 179//155 1//155 57//155
f 184//156 185//156 57//156 54//156
f 186//157 187//157 188//157 189//157
f 187//158 190//158 191//158 188//158
f 188//159 191//159 73//159 76//159
f 189//160 188//160 76//160 21//160
f 190//161 192//161 193//161 191//161
f 192//162 194//162 195//162 193//162
f 193//163 195//163 63//163 89//163
f 191//164 193//164 89//164 73//164
f 194//165 196//165 197//165 195//165
f 196//166 198//166 199//166 197//166
f 197//167 199//167 67//167 65//167
f 195//168 197//168 65//168 63//168
f 198//169 200//169 201//169 199//169
f 200//170 186//170 189//170 201//170
f 201//171 189//171 21//171 71//171
f 199//172 201//172 71//172 67//172
f 202//173 203//173 204//173 205//173
f 203//174 206//174 207//174 204//174
f 204//175 207//175 190//175 187//175
f 205//176 204//176 187//176 186//176
f 206//177 208//177 209//177 207//177
f 208//178 210//178 211//178 209//178
f 209//179 211//179 194//179 192//179
f 207//180 209//180 192//180 190//180
f 210//181 212//181 213//181 211//181
f 212//182 214//182 215//182 213//182
f 213//183 215//183 198//183 196//183
f 211//184 213//184 196//184 194//184
f 214//185 216//185 217//185 215//185
f 216//186 202//186 205//186 217//186
f 217//187 205//187 186//187 200//187
f 215//188 217//188 200//188 198//188
f 218//189 219//189 220//189 221//189
f 219//190 222//190 223//190 220//190
f 220//191 223//191 206//191 203//191
f 221//192 220//192 203//192 202//192
f 222//193 224//193 225//193 223//193
f 224//194 226//194 227//194 225//194
f 225//195 227//195 210//195 208//195
f 223//196 225//196 208//196 206//196
f 226//197 228//197 229//197 227//197
f 228//198 230//198 231//198 229//198
f 229//199 231//199 214//199 212//199
f 227//200 229//200 212//200 210//200
f 230//201 232//201 233//201 231//201
f 232//202 218//202 221//202 233//202
f 233//203 221//203 202//203 216//203
f 231//204 233//204 216//204 214//204
f 99//205 98//205 234//205 235//205
f 98//206 97//206 236//206 234//206
f 234//207 236//207 237//207 238//207
f 235//208 234//208 238//208 239//208
f 97//209 96//209 240//209 236//209
f 96//210 95//210 241//210 240//210
f 240//211 241//211 242//211 243//211
f 236//212 240//212 243//212 237//212
f 95//213 92//213 244//213 241//213
f 92//214 91//214 245//214 244//214
f 244//215 245//215 246//215 247//215
f 241//216 244//216 247//216 242//216
f 91//217 94//217 248//217 245//217
f 94//218 99//218 235//218 248//218
f 248//219 235//219 239//219 249//219
f 245//220 248//220 249//220 246//220
f 239//221 238//221 250//221 251//221
f 238//222 237//222 252//222 250//222
f 250//223 252//223 253//223 254//223
f 251//224 250//224 254//224 255//224
f 237//225 243//225 256//225 252//225
f 243//226 242//226 257//226 256//226
f 256//227 257//227 258//227 259//227
f 252//228 256//228 259//228 253//228
f 242//229 247//229 260//229 257//229
f 247//230 246//230 261//230 260//230
f 260//231 261//231 262//231 263//231
f 257//232 260//232 263//232 258//232
f 246//233 249//233 264//233 261//233
f 249//234 239//234 251//234 264//234
f 264//235 251//235 255//235 265//235
f 261//236 264//236 265//236 262//236
f 255//237 254//237 266//237 267//237
f 254//238 253//238 268//238 266//238
f 266//239 268//239 126//239 123//239
f 267//240 266//240 123//240 122//240
f 253//241 259//241 269//241 268//241
f 259//242 258//242 270//242 269//242
f 269//243 270//243 133//243 131//243
f 268//244 269//244 131//244 126//244
f 258//245 263//245 271//245 270//245
f 263//246 262//246 272//246 271//246
f 271//247 272//247 139//247 137//247
f 270//248 271//248 137//248 133//248
f 262//249 265//249 273//249 272//249
f 265//250 255//250 267//250 273//250
f 273//251 267//251 122//251 143//251
f 272//252 273//252 143//252 139//252
f 274//253 275//253 276//253 277//253
f 275//254 278//254 279//254 276//254
f 276//255 279//255 110//255 107//255
f 277//256 276//256 107//256 106//256
f 278//257 280//257 281//257 279//257
f 280//258 282//258 283//258 281//258
f 281//259 283//259 114//259 112//259
f 279//260 281//260 112//260 110//260
f 282//261 284//261 285//261 283//261
f 284//262 286//262 287//262 285//262
f 285//263 287//263 118//263 116//263
f 283//264 285//264 116//264 114//264
f 286//265 288//265 289//265 287//265
f 288//266 274//266 277//266 289//266
f 289//267 277//267 106//267 120//267
f 287//268 289//268 120//268 118//268
f 290//269 291//269 292//269 293//269
f 291//270 294//270 295//270 292//270
f 292//271 295//271 278//271 275//271
f 293//272 292//272 275//272 274//272
f 294//273 296//273 297//273 295//273
f 296//274 298//274 299//274 297//274
f 297//275 299//275 282//275 280//275
f 295//276 297//276 280//276 278//276
f 298//277 300//277 301//277 299//277
f 300//278 302//278 303//278 301//278
f 301//279 303//279 286//279 284//279
f 299//280 301//280 284//280 282//280
f 302//281 304//281 305//281 303//281
f 304//282 290//282 293//282 305//282
f 305//283 293//283 274//283 288//283
f 303//284 305//284 288//284 286//284
f 306//285 307//285 308//285 309//285
f 307//286 310//286 311//286 308//286
f 308//286 311//286 294//286 291//286
f 309//285 308//285 291//285 290//285
f 310//287 312//287 313//287 311//287
f 312//288 314//288 315//288 313//288
f 313//289 315//289 298//289 296//289
f 311//287 313//287 296//287 294//287
f 314//290 316//290 317//290 315//290
f 316//291 318//291 319//291 317//291
f 317//291 319//291 302//291 300//291
f 315//292 317//292 300//292 298//292
f 318//293 320//293 321//293 319//293
f 320//294 306//294 309//294 321//294
f 321//295 309//295 290//295 304//295
f 319//293 321//293 304//293 302//293
f 88//296 87//296 322//296 323//296
f 87//297 86//297 324//297 322//297
f 322//298 324//298 310//298 307//298
f 323//299 322//299 307//299 306//299
f 86//300 85//300 325//300 324//300
f 85//301 84//301 326//301 325//301
f 325//302 326//302 314//302 312//302
f 324//303 325//303 312//303 310//303
f 84//304 81//304 327//304 326//304
f 81//305 80//305 328//305 327//305
f 327//306 328//306 318//306 316//306
f 326//307 327//307 316//307 314//307
f 80//308 83//308 329//308 328//308
f 83//309 88//309 323//309 329//309
f 329//310 323//310 306//310 320//310
f 328//311 329//311 320//311 318//311
f 330//312 331//312 332//312 333//312
f 331//313 334//313 335//313 332//313
f 332//314 335//314 222//314 219//314
f 333//315 332//315 219//315 218//315
f 334//316 336//316 337//316 335//316
f 336//317 338//317 339//317 337//317
f 337//318 339//318 226//318 224//318
f 335//319 337//319 224//319 222//319
f 338//320 340//320 341//320 339//320
f 340//321 342//321 343//321 341//321
f 341//322 343//322 230//322 228//322
f 339//323 341//323 228//323 226//323
f 342//324 344//324 345//324 343//324
f 344//325 330//325 333//325 345//325
f 345//326 333//326 218//326 232//326
f 343//327 345//327 232//327 230//327
f 346//328 347//328 348//328 349//328
f 347//329 350//329 351//329 348//329
f 348//330 351//330 334//330 331//330
f 349//331 348//331 331//331 330//331
f 350//332 352//332 353//332 351//332
f 352//333 354//333 355//333 353//333
f 353//334 355//334 338//334 336//334
f 351//335 353//335 336//335 334//335
f 354//336 356//336 357//336 355//336
f 356//337 358//337 359//337 357//337
f 357//338 359//338 342//338 340//338
f 355//339 357//339 340//339 338//339
f 358//340 360//340 361//340 359//340
f 360//341 346//341 349//341 361//341
f 361//342 349//342 330//342 344//342
f 359//343 361//343 344//343 342//343
f 20//344 19//344 362//344 363//344
f 19//345 18//345 364//345 362//345
f 362//346 364//346 350//346 347//346
f 363//347 362//347 347//347 346//347
f 18//348 17//348 365//348 364//348
f 17//349 16//349 366//349 365//349
f 365//350 366//350 354//350 352//350
f 364//351 365//351 352//351 350//351
f 16//352 13//352 367//352 366//352
f 13//353 12//353 368//353 367//353
f 367//354 368//354 358//354 356//354
f 366//355 367//355 356//355 354//355
f 12//356 15//356 369//356 368//356
f 15//357 20//357 363//357 369//357
f 369//358 363//358 346//358 360//358
f 368//359 369//359 360//359 358//359
f 25//360 79//360 370//360 371//360
f 79//361 47//361 372//361 370//361
f 47//362 70//362 373//362 372//362
f 70//363 1//363 374//363 373//363
f 1//364 4//364 375//364 374//364
f 4//365 7//365 376//365 375//365
f 7//366 26//366 377//366 376//366
f 26//367 25//367 371//367 377//367
