mtllib LOW_POLY_set.mtl
o lp_Rock_Type3_02_mesh_001_Cube_014
v -21.181938 0.923294 18.845348
v -21.281103 0.679474 18.520439
v -21.039858 -0.018133 17.904980
v -20.609537 0.086406 18.125675
v -21.199520 1.106553 18.159065
v -20.899391 0.421133 17.423019
v -21.100355 1.350373 18.483976
v -20.707809 1.226006 18.411245
v -20.001266 0.747429 17.735798
v -20.431585 0.642890 17.515102
v -20.789392 0.798927 18.772617
v -20.146132 0.294410 18.232847
v -19.631577 0.923294 18.718256
v -19.960934 0.679474 18.635042
v -20.362848 -0.018133 18.110207
v -19.951370 0.086406 17.856104
v -20.227993 1.106553 18.378284
v -20.702646 0.421133 17.740673
v -19.898636 1.350373 18.461496
v -19.757814 1.226006 18.087933
v -19.970366 0.747429 17.133858
v -20.381844 0.642890 17.387960
v -19.490755 0.798927 18.344690
v -19.619930 0.294410 17.514959
v -20.058626 1.167099 14.554753
v -19.976311 0.966521 14.726144
v -19.912470 0.347432 14.853209
v -20.106232 0.347432 14.589767
v -20.274216 1.020176 14.945251
v -20.267639 0.347432 15.114435
v -20.356531 1.220754 14.773862
v -20.495619 1.020176 14.644227
v -20.749939 0.347432 14.657260
v -20.556179 0.347432 14.920701
v -20.197714 0.966521 14.425119
v -20.383650 0.347432 14.387855
v -23.941782 1.519616 14.101612
v -23.707846 1.231443 13.960567
v -23.534794 0.341992 13.851976
v -23.885229 0.341992 14.164936
v -23.353945 1.308530 14.356846
v -23.112865 0.341992 14.324429
v -23.587881 1.596703 14.497890
v -23.754374 1.308530 14.714453
v -23.701141 0.341992 15.076424
v -23.350708 0.341992 14.763463
v -24.108274 1.231443 14.318174
v -24.136282 0.341992 14.589178
v -22.624723 0.190253 17.558865
v -22.469898 2.872005 16.215004
v -23.964769 0.190253 16.212717
v -23.705431 2.872005 16.222919
v -23.880465 2.664773 15.064556
v -24.102226 0.190253 14.607257
v -21.853609 2.664773 14.358847
v -21.597818 0.190253 13.815241
v -21.141825 2.765024 15.250308
v -21.582556 0.190253 16.197454
v -20.344942 0.190253 15.034200
v -23.395859 3.883938 15.282537
v -23.401508 4.137784 14.400666
v -22.757725 3.883938 15.278449
v -22.042818 4.016212 14.645371
v -22.291189 5.068901 15.120943
v -22.702345 5.009325 15.378041
v -22.458643 4.137784 14.070387
v -22.603140 5.129607 14.654959
v -23.046064 5.129607 14.866486
v -23.042772 5.009325 15.380222
v -23.997768 2.650191 19.200325
v -23.407059 2.650191 17.226355
v -23.349754 0.265704 16.617086
v -24.368391 0.265704 19.461185
v -21.729279 1.203393 17.111107
v -21.079060 0.265704 16.825727
v -21.354103 1.205136 19.322645
v -20.658325 0.265704 19.297272
v -23.228138 3.733472 18.658621
v -22.788946 3.733472 17.432373
v -21.628521 3.733472 18.587948
v -21.809925 3.733472 17.522329
v -21.732206 4.585425 17.749264
v -21.673882 4.596699 18.134558
v -22.070971 4.680511 17.705446
v -22.228308 4.758055 18.141230
v -18.703003 1.097848 16.687075
v -20.154247 1.097848 17.502586
v -20.529528 0.317736 17.824467
v -18.341213 0.317736 16.743517
v -21.193895 0.624511 16.627823
v -21.731918 0.317736 16.428692
v -20.170578 0.625082 15.132113
v -20.589138 0.317736 14.756320
v -19.454292 1.452255 16.569866
v -20.397795 1.452255 17.035925
v -20.423496 1.452255 15.713076
v -20.916214 1.452255 16.434128
v -20.833998 1.730981 16.258633
v -20.651627 1.734670 16.002001
v -20.661736 1.762089 16.474243
v -20.325703 1.787459 16.309322
v -24.637714 0.923294 16.285889
v -24.333790 0.679474 16.134130
v -23.686808 -0.018133 16.269791
v -23.832956 0.086406 16.730793
v -23.963886 1.106553 16.154552
v -23.188210 0.421133 16.328249
v -24.267811 1.350373 16.306311
v -24.130884 1.226006 16.681322
v -23.347456 0.747429 17.265852
v -23.201307 0.642890 16.804850
v -24.500788 0.798927 16.660900
v -23.861664 0.294410 17.205564
v -24.254856 0.923294 17.793600
v -24.227509 0.679474 17.454996
v -23.776724 -0.018133 16.971485
v -23.457802 0.086406 17.335037
v -24.018679 1.106553 17.148996
v -23.468769 0.421133 16.575026
v -24.046024 1.350373 17.487600
v -23.654259 1.226006 17.564413
v -22.748747 0.747429 17.196333
v -23.067669 0.642890 16.832781
v -23.863089 0.798927 17.870413
v -23.066341 0.294410 17.605207
vt 0.220280 0.712467
vt 0.256283 0.712467
vt 0.256283 0.748470
vt 0.220280 0.748470
vt 0.220280 0.712467
vt 0.256283 0.712467
vt 0.256283 0.748470
vt 0.220280 0.748470
vt 0.220280 0.712467
vt 0.256283 0.712467
vt 0.256283 0.748470
vt 0.220280 0.748470
vt 0.220280 0.712467
vt 0.256283 0.712467
vt 0.256283 0.748470
vt 0.220280 0.748470
vt 0.220280 0.712467
vt 0.256283 0.712467
vt 0.256283 0.748470
vt 0.220280 0.748470
vt 0.256283 0.712467
vt 0.256283 0.748470
vt 0.220280 0.748470
vt 0.220280 0.712467
vt 0.256283 0.712467
vt 0.256283 0.748470
vt 0.220280 0.712467
vt 0.220280 0.748470
vt 0.220280 0.712467
vt 0.256283 0.712467
vt 0.256283 0.748470
vt 0.220280 0.748470
vt 0.189030 0.204655
vt 0.225033 0.204655
vt 0.225033 0.240658
vt 0.189030 0.240658
vt 0.189030 0.204655
vt 0.225033 0.204655
vt 0.225033 0.240658
vt 0.189030 0.240658
vt 0.189030 0.204655
vt 0.225033 0.204655
vt 0.225033 0.240658
vt 0.189030 0.240658
vt 0.189030 0.204655
vt 0.225033 0.204655
vt 0.225033 0.240658
vt 0.189030 0.240658
vt 0.189030 0.204655
vt 0.225033 0.204655
vt 0.225033 0.240658
vt 0.189030 0.240658
vt 0.225033 0.204655
vt 0.225033 0.240658
vt 0.189030 0.240658
vt 0.189030 0.204655
vt 0.225033 0.204655
vt 0.225033 0.240658
vt 0.189030 0.204655
vt 0.189030 0.240658
vt 0.189030 0.204655
vt 0.225033 0.204655
vt 0.225033 0.240658
vt 0.189030 0.240658
vt 0.220280 0.712467
vt 0.256283 0.712467
vt 0.256283 0.748470
vt 0.220280 0.748470
vt 0.220280 0.712467
vt 0.256283 0.712467
vt 0.256283 0.748470
vt 0.220280 0.748470
vt 0.220280 0.712467
vt 0.256283 0.712467
vt 0.256283 0.748470
vt 0.220280 0.748470
vt 0.220280 0.712467
vt 0.256283 0.712467
vt 0.256283 0.748470
vt 0.220280 0.748470
vt 0.220280 0.712467
vt 0.256283 0.712467
vt 0.256283 0.748470
vt 0.220280 0.748470
vt 0.256283 0.712467
vt 0.256283 0.748470
vt 0.220280 0.748470
vt 0.220280 0.712467
vt 0.256283 0.712467
vt 0.256283 0.748470
vt 0.220280 0.712467
vt 0.220280 0.748470
vt 0.220280 0.712467
vt 0.256283 0.712467
vt 0.256283 0.748470
vt 0.220280 0.748470
vt 0.189030 0.204655
vt 0.225033 0.204655
vt 0.225033 0.240658
vt 0.189030 0.240658
vt 0.189030 0.204655
vt 0.225033 0.204655
vt 0.225033 0.240658
vt 0.189030 0.240658
vt 0.189030 0.204655
vt 0.225033 0.204655
vt 0.225033 0.240658
vt 0.189030 0.240658
vt 0.189030 0.204655
vt 0.225033 0.204655
vt 0.225033 0.240658
vt 0.189030 0.240658
vt 0.189030 0.204655
vt 0.225033 0.204655
vt 0.225033 0.240658
vt 0.189030 0.240658
vt 0.225033 0.204655
vt 0.225033 0.240658
vt 0.189030 0.240658
vt 0.189030 0.204655
vt 0.225033 0.204655
vt 0.225033 0.240658
vt 0.189030 0.204655
vt 0.189030 0.240658
vt 0.189030 0.204655
vt 0.225033 0.204655
vt 0.225033 0.240658
vt 0.189030 0.240658
vt 0.204655 0.743717
vt 0.240658 0.743717
vt 0.240658 0.779720
vt 0.204655 0.743717
vt 0.240658 0.743717
vt 0.240658 0.779720
vt 0.204655 0.779720
vt 0.204655 0.743717
vt 0.240658 0.743717
vt 0.240658 0.779720
vt 0.204655 0.779720
vt 0.204655 0.743717
vt 0.240658 0.779720
vt 0.204655 0.779720
vt 0.222656 0.779720
vt 0.238246 0.770719
vt 0.238246 0.752718
vt 0.222656 0.743717
vt 0.207067 0.752718
vt 0.207067 0.770719
vt 0.240658 0.743717
vt 0.240658 0.779720
vt 0.204655 0.779720
vt 0.204655 0.743717
vt 0.240658 0.743717
vt 0.240658 0.779720
vt 0.204655 0.779720
vt 0.204655 0.743717
vt 0.240658 0.779720
vt 0.204655 0.779720
vt 0.240658 0.779720
vt 0.204655 0.779720
vt 0.204655 0.743717
vt 0.240658 0.743717
vt 0.240658 0.779720
vt 0.204655 0.779720
vt 0.222656 0.779720
vt 0.239777 0.767281
vt 0.233237 0.747155
vt 0.212075 0.747155
vt 0.205536 0.767281
vt 0.204655 0.743717
vt 0.240658 0.743717
vt 0.240658 0.779720
vt 0.204655 0.779720
vt 0.204655 0.743717
vt 0.240658 0.743717
vt 0.240658 0.779720
vt 0.204655 0.779720
vt 0.204655 0.743717
vt 0.240658 0.743717
vt 0.240658 0.779720
vt 0.204655 0.779720
vt 0.204655 0.743717
vt 0.240658 0.779720
vt 0.240658 0.779720
vt 0.204655 0.779720
vt 0.204655 0.743717
vt 0.240658 0.743717
vt 0.240658 0.779720
vt 0.204655 0.779720
vt 0.240658 0.779720
vt 0.204655 0.779720
vt 0.189030 0.204655
vt 0.225033 0.204655
vt 0.225033 0.240658
vt 0.189030 0.240658
vt 0.189030 0.204655
vt 0.225033 0.204655
vt 0.225033 0.240658
vt 0.189030 0.240658
vt 0.189030 0.204655
vt 0.225033 0.204655
vt 0.225033 0.240658
vt 0.189030 0.240658
vt 0.189030 0.204655
vt 0.225033 0.204655
vt 0.225033 0.240658
vt 0.189030 0.240658
vt 0.189030 0.204655
vt 0.225033 0.204655
vt 0.225033 0.240658
vt 0.189030 0.240658
vt 0.189030 0.204655
vt 0.225033 0.204655
vt 0.225033 0.240658
vt 0.189030 0.240658
vt 0.225033 0.240658
vt 0.189030 0.240658
vt 0.225033 0.240658
vt 0.189030 0.240658
vt 0.225033 0.240658
vt 0.189030 0.240658
vt 0.189030 0.204655
vt 0.225033 0.204655
vt 0.225033 0.240658
vt 0.189030 0.240658
vt 0.189030 0.204655
vt 0.225033 0.204655
vt 0.225033 0.240658
vt 0.189030 0.240658
vt 0.189030 0.204655
vt 0.225033 0.204655
vt 0.225033 0.240658
vt 0.189030 0.204655
vt 0.225033 0.204655
vt 0.189030 0.240658
vt 0.700749 0.231999
vt 0.736751 0.231999
vt 0.736751 0.268001
vt 0.700749 0.268001
vt 0.700749 0.231999
vt 0.736751 0.231999
vt 0.736751 0.268001
vt 0.700749 0.268001
vt 0.700749 0.231999
vt 0.736751 0.231999
vt 0.736751 0.268001
vt 0.700749 0.268001
vt 0.700749 0.231999
vt 0.736751 0.231999
vt 0.736751 0.268001
vt 0.700749 0.268001
vt 0.700749 0.231999
vt 0.736751 0.231999
vt 0.736751 0.268001
vt 0.700749 0.268001
vt 0.700749 0.231999
vt 0.736751 0.231999
vt 0.736751 0.268001
vt 0.700749 0.268001
vt 0.736751 0.268001
vt 0.700749 0.268001
vt 0.736751 0.268001
vt 0.700749 0.268001
vt 0.736751 0.268001
vt 0.700749 0.268001
vt 0.700749 0.231999
vt 0.736751 0.231999
vt 0.736751 0.268001
vt 0.700749 0.268001
vt 0.700749 0.231999
vt 0.736751 0.231999
vt 0.736751 0.268001
vt 0.700749 0.268001
vt 0.700749 0.231999
vt 0.736751 0.231999
vt 0.736751 0.268001
vt 0.700749 0.231999
vt 0.736751 0.231999
vt 0.700749 0.268001
vt 0.220280 0.712467
vt 0.256283 0.712467
vt 0.256283 0.748470
vt 0.220280 0.748470
vt 0.220280 0.712467
vt 0.256283 0.712467
vt 0.256283 0.748470
vt 0.220280 0.748470
vt 0.220280 0.712467
vt 0.256283 0.712467
vt 0.256283 0.748470
vt 0.220280 0.748470
vt 0.220280 0.712467
vt 0.256283 0.712467
vt 0.256283 0.748470
vt 0.220280 0.748470
vt 0.220280 0.712467
vt 0.256283 0.712467
vt 0.256283 0.748470
vt 0.220280 0.748470
vt 0.256283 0.712467
vt 0.256283 0.748470
vt 0.220280 0.748470
vt 0.220280 0.712467
vt 0.256283 0.712467
vt 0.256283 0.748470
vt 0.220280 0.712467
vt 0.220280 0.748470
vt 0.220280 0.712467
vt 0.256283 0.712467
vt 0.256283 0.748470
vt 0.220280 0.748470
vt 0.189030 0.204655
vt 0.225033 0.204655
vt 0.225033 0.240658
vt 0.189030 0.240658
vt 0.189030 0.204655
vt 0.225033 0.204655
vt 0.225033 0.240658
vt 0.189030 0.240658
vt 0.189030 0.204655
vt 0.225033 0.204655
vt 0.225033 0.240658
vt 0.189030 0.240658
vt 0.189030 0.204655
vt 0.225033 0.204655
vt 0.225033 0.240658
vt 0.189030 0.240658
vt 0.189030 0.204655
vt 0.225033 0.204655
vt 0.225033 0.240658
vt 0.189030 0.240658
vt 0.225033 0.204655
vt 0.225033 0.240658
vt 0.189030 0.240658
vt 0.189030 0.204655
vt 0.225033 0.204655
vt 0.225033 0.240658
vt 0.189030 0.204655
vt 0.189030 0.240658
vt 0.189030 0.204655
vt 0.225033 0.204655
vt 0.225033 0.240658
vt 0.189030 0.240658
vn -0.2280 -0.7051 0.6714
vn -0.9471 -0.0634 -0.3145
vn 0.1134 0.8484 -0.5171
vn 0.7545 0.3484 0.5562
vn 0.4464 -0.7223 -0.5282
vn -0.9599 0.2638 0.0950
vn 0.3216 0.5751 0.7522
vn -0.1144 0.7365 -0.6667
vn 0.0352 -0.6669 0.7443
vn 0.4567 -0.7051 0.5425
vn -0.7591 -0.0634 0.6479
vn -0.3838 0.8484 -0.3646
vn 0.8663 0.3484 -0.3580
vn -0.2211 -0.7223 -0.6553
vn -0.4152 0.2638 0.8706
vn 0.8101 0.5751 0.1139
vn -0.6298 0.7365 -0.2470
vn 0.6552 -0.6669 0.3549
vn 0.8318 -0.0529 -0.5525
vn 0.5904 0.2109 0.7791
vn -0.7982 0.2890 0.5284
vn -0.5685 0.2087 -0.7958
vn 0.0000 -1.0000 0.0000
vn 0.5147 0.6692 0.5360
vn -0.3583 0.6692 -0.6510
vn -0.6164 0.2309 0.7529
vn 0.6497 -0.1043 -0.7530
vn -0.6288 -0.0529 -0.7758
vn 0.7197 0.2108 -0.6615
vn 0.6017 0.2890 0.7446
vn -0.7384 0.2087 0.6412
vn 0.4848 0.6692 -0.5631
vn -0.6142 0.6692 0.4183
vn 0.8078 0.2309 0.5423
vn -0.8112 -0.1043 -0.5754
vn -0.6593 0.3669 0.6563
vn -0.9909 0.0829 0.1058
vn -0.3083 0.1865 -0.9328
vn 0.6333 0.1694 0.7551
vn -0.9309 0.3538 0.0905
vn 0.6287 -0.1460 0.7638
vn -0.3138 -0.3042 -0.8995
vn 0.0047 0.6800 0.7332
vn 0.4620 0.6521 0.6011
vn 0.0179 0.9832 0.1816
vn -0.9515 0.2957 0.0854
vn -0.3215 0.4696 -0.8223
vn 0.0064 -0.0885 0.9961
vn 0.7687 0.2505 0.5885
vn 0.0064 -0.0044 1.0000
vn 0.7725 0.2334 -0.5906
vn 0.7831 0.3982 -0.4777
vn 0.7034 0.2469 -0.6665
vn -0.9450 0.0851 -0.3157
vn 0.1262 0.2829 -0.9508
vn 0.7945 0.5921 -0.1352
vn 0.0231 0.0729 0.9971
vn -0.8298 0.4901 -0.2670
vn 0.9859 -0.0401 -0.1626
vn 0.0974 0.3197 0.9425
vn 0.0761 0.1569 -0.9847
vn 0.9842 0.0584 -0.1672
vn 0.2780 0.9580 -0.0701
vn -0.7385 0.6071 -0.2934
vn 0.0646 0.4303 0.9004
vn 0.1142 0.2188 -0.9691
vn 0.4521 0.2065 0.8677
vn -0.6331 0.5888 0.5025
vn -0.3986 0.8758 -0.2723
vn 0.6671 0.1776 -0.7235
vn 0.2757 0.8115 0.5153
vn -0.8187 -0.0985 -0.5657
vn 0.4741 0.6402 -0.6045
vn -0.6964 0.3652 0.6178
vn -0.8170 0.1430 -0.5587
vn -0.1043 0.9927 -0.0599
vn 0.1929 0.8836 0.4268
vn 0.4153 0.7622 -0.4966
vn -0.6772 0.4845 0.5538
vn -0.7000 -0.7051 -0.1133
vn 0.1528 -0.0634 -0.9862
vn 0.5287 0.8484 0.0260
vn -0.4232 0.3484 0.8364
vn 0.5950 -0.7223 0.3524
vn -0.2532 0.2638 -0.9308
vn -0.6884 0.5751 0.4421
vn 0.6384 0.7365 -0.2236
vn -0.7281 -0.6669 0.1584
vn -0.4591 -0.7051 0.5405
vn -0.7650 -0.0634 -0.6410
vn 0.2957 0.8484 -0.4391
vn 0.4969 0.3484 0.7948
vn 0.6094 -0.7223 -0.3269
vn -0.9275 0.2638 -0.2648
vn 0.0222 0.5751 0.8178
vn 0.1389 0.7365 -0.6620
vn -0.2411 -0.6669 0.7050
usemtl color3
f 1/1/1 2/2/1 3/3/1 4/4/1
f 2/5/2 5/6/2 6/7/2 3/8/2
f 7/9/3 8/10/3 9/11/3 10/12/3
f 8/13/4 11/14/4 12/15/4 9/16/4
f 4/17/5 3/18/5 6/7/5 10/12/5
f 7/9/6 5/6/6 2/19/6 1/20/6
f 8/13/7 7/21/7 1/22/7 11/23/7
f 12/24/5 4/25/5 10/26/5 9/16/5
f 5/27/8 7/21/8 10/26/8 6/28/8
f 11/29/9 1/30/9 4/31/9 12/32/9
f 13/33/10 14/34/10 15/35/10 16/36/10
f 14/37/11 17/38/11 18/39/11 15/40/11
f 19/41/12 20/42/12 21/43/12 22/44/12
f 20/45/13 23/46/13 24/47/13 21/48/13
f 16/49/14 15/50/14 18/39/14 22/44/14
f 19/41/15 17/38/15 14/51/15 13/52/15
f 20/45/16 19/53/16 13/54/16 23/55/16
f 24/56/14 16/57/14 22/58/14 21/48/14
f 17/59/17 19/53/17 22/58/17 18/60/17
f 23/61/18 13/62/18 16/63/18 24/64/18
f 25/65/19 26/66/19 27/67/19 28/68/19
f 26/69/20 29/70/20 30/71/20 27/72/20
f 31/73/21 32/74/21 33/75/21 34/76/21
f 32/77/22 35/78/22 36/79/22 33/80/22
f 28/81/23 27/82/23 30/71/23 34/76/23
f 31/73/24 29/70/24 26/83/24 25/84/24
f 32/77/25 31/85/25 25/86/25 35/87/25
f 36/88/23 28/89/23 34/90/23 33/80/23
f 29/91/26 31/85/26 34/90/26 30/92/26
f 35/93/27 25/94/27 28/95/27 36/96/27
f 37/97/28 38/98/28 39/99/28 40/100/28
f 38/101/29 41/102/29 42/103/29 39/104/29
f 43/105/30 44/106/30 45/107/30 46/108/30
f 44/109/31 47/110/31 48/111/31 45/112/31
f 40/113/23 39/114/23 42/103/23 46/108/23
f 43/105/32 41/102/32 38/115/32 37/116/32
f 44/109/33 43/117/33 37/118/33 47/119/33
f 48/120/23 40/121/23 46/122/23 45/112/23
f 41/123/34 43/117/34 46/122/34 42/124/34
f 47/125/35 37/126/35 40/127/35 48/128/35
f 49/129/36 50/130/36 51/131/36
f 52/132/37 53/133/37 54/134/37 51/135/37
f 53/136/38 55/137/38 56/138/38 54/139/38
f 57/140/39 50/130/39 58/141/39 59/142/39
f 58/143/23 49/144/23 51/145/23 54/146/23 56/147/23 59/148/23
f 53/136/40 52/149/40 60/150/40 61/151/40
f 62/152/41 63/153/41 64/154/41 65/155/41
f 55/156/42 53/133/42 61/157/42 66/158/42
f 52/132/43 50/130/43 62/159/43 60/160/43
f 50/161/44 57/162/44 63/163/44 62/164/44
f 67/165/45 68/166/45 69/167/45 65/168/45 64/169/45
f 61/170/46 60/171/46 69/172/46 68/173/46
f 66/174/47 61/175/47 68/176/47 67/177/47
f 60/178/48 62/179/48 65/180/48 69/181/48
f 58/182/49 50/130/49 49/183/49
f 50/161/50 52/149/50 51/131/50
f 57/140/51 55/137/51 66/184/51 63/185/51
f 63/186/52 66/187/52 67/188/52 64/189/52
f 55/156/53 57/162/53 59/190/53 56/191/53
f 70/192/54 71/193/54 72/194/54 73/195/54
f 71/196/55 74/197/55 75/198/55 72/199/55
f 74/200/56 76/201/56 77/202/56 75/203/56
f 76/204/57 70/205/57 73/206/57 77/207/57
f 73/208/23 72/209/23 75/198/23 77/207/23
f 71/196/58 70/205/58 78/210/58 79/211/58
f 80/212/59 81/213/59 82/214/59 83/215/59
f 70/192/60 76/201/60 80/216/60 78/217/60
f 74/200/61 71/193/61 79/218/61 81/219/61
f 76/204/62 74/197/62 81/220/62 80/221/62
f 83/222/63 82/223/63 84/224/63 85/225/63
f 79/226/64 78/227/64 85/228/64 84/229/64
f 78/230/65 80/231/65 83/232/65 85/225/65
f 81/233/66 79/234/66 84/224/66 82/235/66
f 86/236/67 87/237/67 88/238/67 89/239/67
f 87/240/68 90/241/68 91/242/68 88/243/68
f 90/244/69 92/245/69 93/246/69 91/247/69
f 92/248/70 86/249/70 89/250/70 93/251/70
f 89/252/23 88/253/23 91/242/23 93/251/23
f 87/240/71 86/249/71 94/254/71 95/255/71
f 96/256/72 97/257/72 98/258/72 99/259/72
f 86/236/73 92/245/73 96/260/73 94/261/73
f 90/244/74 87/237/74 95/262/74 97/263/74
f 92/248/75 90/241/75 97/264/75 96/265/75
f 99/266/76 98/267/76 100/268/76 101/269/76
f 95/270/77 94/271/77 101/272/77 100/273/77
f 94/274/78 96/275/78 99/276/78 101/269/78
f 97/277/79 95/278/79 100/268/79 98/279/79
f 102/280/80 103/281/80 104/282/80 105/283/80
f 103/284/81 106/285/81 107/286/81 104/287/81
f 108/288/82 109/289/82 110/290/82 111/291/82
f 109/292/83 112/293/83 113/294/83 110/295/83
f 105/296/84 104/297/84 107/286/84 111/291/84
f 108/288/85 106/285/85 103/298/85 102/299/85
f 109/292/86 108/300/86 102/301/86 112/302/86
f 113/303/84 105/304/84 111/305/84 110/295/84
f 106/306/87 108/300/87 111/305/87 107/307/87
f 112/308/88 102/309/88 105/310/88 113/311/88
f 114/312/89 115/313/89 116/314/89 117/315/89
f 115/316/90 118/317/90 119/318/90 116/319/90
f 120/320/91 121/321/91 122/322/91 123/323/91
f 121/324/92 124/325/92 125/326/92 122/327/92
f 117/328/93 116/329/93 119/318/93 123/323/93
f 120/320/94 118/317/94 115/330/94 114/331/94
f 121/324/95 120/332/95 114/333/95 124/334/95
f 125/335/93 117/336/93 123/337/93 122/327/93
f 118/338/96 120/332/96 123/337/96 119/339/96
f 124/340/97 114/341/97 117/342/97 125/343/97
