mtllib LOW_POLY_set.mtl
o lp_Rock_Type3_01_mesh_001_Cube_013
v -23.072329 1.139758 35.919785
v -23.232725 0.895938 35.620327
v -23.115641 0.198331 34.969727
v -22.650644 0.302870 35.102619
v -23.222900 1.323018 35.249992
v -23.071480 0.637597 34.469662
v -23.062504 1.566837 35.549446
v -22.691568 1.442470 35.401844
v -22.129704 0.963893 34.602001
v -22.594700 0.859355 34.469112
v -22.701393 1.015391 35.772179
v -22.175247 0.510874 35.117725
v -21.576195 1.139758 35.493923
v -21.915443 0.895938 35.476280
v -22.411661 0.198331 35.039520
v -22.057386 0.302870 34.710323
v -22.227297 1.323018 35.276295
v -22.816774 0.637597 34.743042
v -21.888048 1.566837 35.293938
v -21.822481 1.442470 34.900135
v -22.216331 0.963893 34.005527
v -22.570604 0.859355 34.334728
v -21.510630 1.015391 35.100117
v -21.798534 0.510874 34.311291
v -21.859474 1.383563 33.718990
v -21.776424 1.182985 33.890026
v -21.712038 0.563896 34.016815
v -21.906929 0.563896 33.754208
v -22.073385 1.236640 34.110413
v -22.066084 0.563896 34.279564
v -22.156437 1.437218 33.939377
v -22.296078 1.236640 33.810341
v -22.550341 0.563896 33.824463
v -22.355452 0.563896 34.087070
v -21.999117 1.182985 33.589954
v -22.185211 0.563896 33.553490
v -25.744537 1.736080 33.282516
v -25.511209 1.447907 33.140472
v -25.338625 0.558456 33.031139
v -25.687714 0.558456 33.345600
v -25.155611 1.524994 33.535229
v -24.914673 0.558456 33.501778
v -25.388939 1.813167 33.677273
v -25.554501 1.524994 33.894550
v -25.499718 0.558456 34.256287
v -25.150629 0.558456 33.941826
v -25.910099 1.447907 33.499794
v -25.936943 0.558456 33.770916
v -24.412655 0.406717 36.734089
v -24.263597 3.088469 35.389572
v -25.758465 0.406717 35.393703
v -25.499084 3.088469 35.402794
v -25.679089 2.881238 34.245190
v -25.902811 0.406717 33.788849
v -23.655281 2.881238 33.530788
v -23.401825 0.406717 32.986092
v -22.939678 2.981488 34.419189
v -23.376339 0.406717 35.368217
v -22.143730 0.406717 34.199661
v -25.193552 4.100402 34.461090
v -25.202986 4.354249 33.579250
v -24.555441 4.100402 34.454262
v -23.843258 4.232677 33.818123
v -24.089586 5.285365 34.294758
v -24.499636 5.225790 34.553616
v -24.261547 4.354249 33.244930
v -24.403534 5.346072 33.830116
v -24.845547 5.346072 34.043541
v -24.840050 5.225790 34.557259
v -23.345774 0.402115 35.133858
v -23.436970 2.040639 35.955326
v -22.523621 0.402115 35.952942
v -22.682098 2.040639 35.947365
v -22.572226 1.914022 36.654663
v -22.435574 0.402115 36.933506
v -23.808817 1.914022 37.090969
v -23.963726 0.402115 37.423752
v -24.245960 1.975274 36.548100
v -23.979078 0.402115 35.968296
v -24.732298 0.402115 36.682156
v -22.868862 2.658919 36.522709
v -22.863180 2.814017 37.061504
v -23.258741 2.658919 36.526821
v -23.693937 2.739738 36.915428
v -23.543388 3.382920 36.624233
v -23.292830 3.346519 36.466110
v -23.438419 2.814017 37.265682
v -23.351614 3.420011 36.908154
v -23.081530 3.420011 36.777794
v -23.084839 3.346519 36.463917
vt 0.233891 0.683110
vt 0.266109 0.683110
vt 0.266109 0.715328
vt 0.233891 0.715328
vt 0.233891 0.683110
vt 0.266109 0.683110
vt 0.266109 0.715328
vt 0.233891 0.715328
vt 0.233891 0.683110
vt 0.266109 0.683110
vt 0.266109 0.715328
vt 0.233891 0.715328
vt 0.233891 0.683110
vt 0.266109 0.683110
vt 0.266109 0.715328
vt 0.233891 0.715328
vt 0.233891 0.683110
vt 0.266109 0.683110
vt 0.266109 0.715328
vt 0.233891 0.715328
vt 0.266109 0.683110
vt 0.266109 0.715328
vt 0.233891 0.715328
vt 0.233891 0.683110
vt 0.266109 0.683110
vt 0.266109 0.715328
vt 0.233891 0.683110
vt 0.233891 0.715328
vt 0.233891 0.683110
vt 0.266109 0.683110
vt 0.266109 0.715328
vt 0.233891 0.715328
vt 0.151860 0.722172
vt 0.184078 0.722172
vt 0.184078 0.754390
vt 0.151860 0.754390
vt 0.151860 0.722172
vt 0.184078 0.722172
vt 0.184078 0.754390
vt 0.151860 0.754390
vt 0.151860 0.722172
vt 0.184078 0.722172
vt 0.184078 0.754390
vt 0.151860 0.754390
vt 0.151860 0.722172
vt 0.184078 0.722172
vt 0.184078 0.754390
vt 0.151860 0.754390
vt 0.151860 0.722172
vt 0.184078 0.722172
vt 0.184078 0.754390
vt 0.151860 0.754390
vt 0.184078 0.722172
vt 0.184078 0.754390
vt 0.151860 0.754390
vt 0.151860 0.722172
vt 0.184078 0.722172
vt 0.184078 0.754390
vt 0.151860 0.722172
vt 0.151860 0.754390
vt 0.151860 0.722172
vt 0.184078 0.722172
vt 0.184078 0.754390
vt 0.151860 0.754390
vt 0.675297 0.237797
vt 0.707515 0.237797
vt 0.707515 0.270015
vt 0.675297 0.270015
vt 0.675297 0.237797
vt 0.707515 0.237797
vt 0.707515 0.270015
vt 0.675297 0.270015
vt 0.675297 0.237797
vt 0.707515 0.237797
vt 0.707515 0.270015
vt 0.675297 0.270015
vt 0.675297 0.237797
vt 0.707515 0.237797
vt 0.707515 0.270015
vt 0.675297 0.270015
vt 0.675297 0.237797
vt 0.707515 0.237797
vt 0.707515 0.270015
vt 0.675297 0.270015
vt 0.707515 0.237797
vt 0.707515 0.270015
vt 0.675297 0.270015
vt 0.675297 0.237797
vt 0.707515 0.237797
vt 0.707515 0.270015
vt 0.675297 0.237797
vt 0.675297 0.270015
vt 0.675297 0.237797
vt 0.707515 0.237797
vt 0.707515 0.270015
vt 0.675297 0.270015
vt 0.714360 0.229985
vt 0.746578 0.229985
vt 0.746578 0.262203
vt 0.714360 0.262203
vt 0.714360 0.229985
vt 0.746578 0.229985
vt 0.746578 0.262203
vt 0.714360 0.262203
vt 0.714360 0.229985
vt 0.746578 0.229985
vt 0.746578 0.262203
vt 0.714360 0.262203
vt 0.714360 0.229985
vt 0.746578 0.229985
vt 0.746578 0.262203
vt 0.714360 0.262203
vt 0.714360 0.229985
vt 0.746578 0.229985
vt 0.746578 0.262203
vt 0.714360 0.262203
vt 0.746578 0.229985
vt 0.746578 0.262203
vt 0.714360 0.262203
vt 0.714360 0.229985
vt 0.746578 0.229985
vt 0.746578 0.262203
vt 0.714360 0.229985
vt 0.714360 0.262203
vt 0.714360 0.229985
vt 0.746578 0.229985
vt 0.746578 0.262203
vt 0.714360 0.262203
vt 0.183110 0.229985
vt 0.215328 0.229985
vt 0.215328 0.262203
vt 0.183110 0.229985
vt 0.215328 0.229985
vt 0.215328 0.262203
vt 0.183110 0.262203
vt 0.183110 0.229985
vt 0.215328 0.229985
vt 0.215328 0.262203
vt 0.183110 0.262203
vt 0.183110 0.229985
vt 0.215328 0.262203
vt 0.183110 0.262203
vt 0.199219 0.262203
vt 0.213170 0.254148
vt 0.213170 0.238039
vt 0.199219 0.229985
vt 0.185268 0.238039
vt 0.185268 0.254148
vt 0.215328 0.229985
vt 0.215328 0.262203
vt 0.183110 0.262203
vt 0.183110 0.229985
vt 0.215328 0.229985
vt 0.215328 0.262203
vt 0.183110 0.262203
vt 0.183110 0.229985
vt 0.215328 0.262203
vt 0.183110 0.262203
vt 0.215328 0.262203
vt 0.183110 0.262203
vt 0.183110 0.229985
vt 0.215328 0.229985
vt 0.215328 0.262203
vt 0.183110 0.262203
vt 0.199219 0.262203
vt 0.214539 0.251072
vt 0.208687 0.233061
vt 0.189750 0.233061
vt 0.183898 0.251072
vt 0.183110 0.229985
vt 0.215328 0.229985
vt 0.215328 0.262203
vt 0.183110 0.262203
vt 0.183110 0.229985
vt 0.215328 0.229985
vt 0.215328 0.262203
vt 0.183110 0.262203
vt 0.183110 0.229985
vt 0.215328 0.229985
vt 0.215328 0.262203
vt 0.183110 0.262203
vt 0.183110 0.229985
vt 0.215328 0.262203
vt 0.215328 0.262203
vt 0.183110 0.262203
vt 0.183110 0.229985
vt 0.215328 0.229985
vt 0.215328 0.262203
vt 0.183110 0.262203
vt 0.215328 0.262203
vt 0.183110 0.262203
vt 0.729985 0.265141
vt 0.762203 0.265141
vt 0.762203 0.297359
vt 0.729985 0.265141
vt 0.762203 0.265141
vt 0.762203 0.297359
vt 0.729985 0.297359
vt 0.729985 0.265141
vt 0.762203 0.265141
vt 0.762203 0.297359
vt 0.729985 0.297359
vt 0.729985 0.265141
vt 0.762203 0.297359
vt 0.729985 0.297359
vt 0.746094 0.297359
vt 0.760045 0.289305
vt 0.760045 0.273195
vt 0.746094 0.265141
vt 0.732143 0.273195
vt 0.732143 0.289305
vt 0.762203 0.265141
vt 0.762203 0.297359
vt 0.729985 0.297359
vt 0.729985 0.265141
vt 0.762203 0.265141
vt 0.762203 0.297359
vt 0.729985 0.297359
vt 0.729985 0.265141
vt 0.762203 0.297359
vt 0.729985 0.297359
vt 0.762203 0.297359
vt 0.729985 0.297359
vt 0.729985 0.265141
vt 0.762203 0.265141
vt 0.762203 0.297359
vt 0.729985 0.297359
vt 0.746094 0.297359
vt 0.761414 0.286228
vt 0.755562 0.268218
vt 0.736625 0.268218
vt 0.730773 0.286228
vt 0.729985 0.265141
vt 0.762203 0.265141
vt 0.762203 0.297359
vt 0.729985 0.297359
vt 0.729985 0.265141
vt 0.762203 0.265141
vt 0.762203 0.297359
vt 0.729985 0.297359
vt 0.729985 0.265141
vt 0.762203 0.265141
vt 0.762203 0.297359
vt 0.729985 0.297359
vt 0.729985 0.265141
vt 0.762203 0.297359
vt 0.762203 0.297359
vt 0.729985 0.297359
vt 0.729985 0.265141
vt 0.762203 0.265141
vt 0.762203 0.297359
vt 0.729985 0.297359
vt 0.762203 0.297359
vt 0.729985 0.297359
vn -0.0932 -0.7051 0.7030
vn -0.9902 -0.0634 -0.1245
vn 0.0108 0.8484 -0.5293
vn 0.8482 0.3484 0.3990
vn 0.3353 -0.7223 -0.6049
vn -0.9231 0.2638 0.2797
vn 0.4616 0.5751 0.6754
vn -0.2418 0.7365 -0.6318
vn 0.1791 -0.6669 0.7233
vn 0.5534 -0.7051 0.4434
vn -0.6188 -0.0634 0.7830
vn -0.4473 0.8484 -0.2830
vn 0.7803 0.3484 -0.5194
vn -0.3442 -0.7223 -0.5998
vn -0.2382 0.2638 0.9347
vn 0.8168 0.5751 -0.0456
vn -0.6657 0.7365 -0.1199
vn 0.7117 -0.6669 0.2208
vn 0.8295 -0.0528 -0.5561
vn 0.5937 0.2108 0.7766
vn -0.7960 0.2890 0.5319
vn -0.5719 0.2087 -0.7934
vn 0.0000 -1.0000 -0.0000
vn 0.5170 0.6692 0.5337
vn -0.3611 0.6692 -0.6495
vn -0.6131 0.2309 0.7555
vn 0.6464 -0.1043 -0.7558
vn -0.6321 -0.0529 -0.7731
vn 0.7169 0.2108 -0.6646
vn 0.6048 0.2890 0.7420
vn -0.7357 0.2087 0.6444
vn 0.4824 0.6692 -0.5652
vn -0.6124 0.6692 0.4209
vn 0.8101 0.2309 0.5389
vn -0.8136 -0.1043 -0.5720
vn -0.6565 0.3669 0.6591
vn -0.9905 0.0829 0.1101
vn -0.3123 0.1865 -0.9315
vn 0.6366 0.1694 0.7524
vn -0.9305 0.3538 0.0945
vn 0.6320 -0.1460 0.7611
vn -0.3176 -0.3042 -0.8981
vn 0.0078 0.6800 0.7332
vn 0.4646 0.6521 0.5991
vn 0.0186 0.9832 0.1815
vn -0.9511 0.2957 0.0894
vn -0.3250 0.4696 -0.8209
vn 0.0107 -0.0885 0.9960
vn 0.7712 0.2505 0.5852
vn 0.0107 -0.0044 0.9999
vn 0.7699 0.2334 -0.5939
vn 0.7810 0.3982 -0.4811
vn 0.7005 0.2469 -0.6695
vn 0.6565 0.3669 -0.6590
vn 0.9905 0.0829 -0.1099
vn 0.3122 0.1865 0.9315
vn -0.6365 0.1694 -0.7525
vn 0.9305 0.3538 -0.0944
vn -0.6318 -0.1460 -0.7612
vn 0.3175 -0.3042 0.8981
vn -0.0077 0.6800 -0.7332
vn -0.4645 0.6521 -0.5992
vn -0.0186 0.9832 -0.1815
vn 0.9511 0.2957 -0.0893
vn 0.3249 0.4696 0.8209
vn -0.0105 -0.0885 -0.9960
vn -0.7712 0.2505 -0.5853
vn -0.0105 -0.0044 -0.9999
vn -0.7700 0.2334 0.5938
vn -0.7811 0.3982 0.4810
vn -0.7006 0.2469 0.6694
usemtl color2
f 1/1/1 2/2/1 3/3/1 4/4/1
f 2/5/2 5/6/2 6/7/2 3/8/2
f 7/9/3 8/10/3 9/11/3 10/12/3
f 8/13/4 11/14/4 12/15/4 9/16/4
f 4/17/5 3/18/5 6/7/5 10/12/5
f 7/9/6 5/6/6 2/19/6 1/20/6
f 8/13/7 7/21/7 1/22/7 11/23/7
f 12/24/5 4/25/5 10/26/5 9/16/5
f 5/27/8 7/21/8 10/26/8 6/28/8
f 11/29/9 1/30/9 4/31/9 12/32/9
f 13/33/10 14/34/10 15/35/10 16/36/10
f 14/37/11 17/38/11 18/39/11 15/40/11
f 19/41/12 20/42/12 21/43/12 22/44/12
f 20/45/13 23/46/13 24/47/13 21/48/13
f 16/49/14 15/50/14 18/39/14 22/44/14
f 19/41/15 17/38/15 14/51/15 13/52/15
f 20/45/16 19/53/16 13/54/16 23/55/16
f 24/56/14 16/57/14 22/58/14 21/48/14
f 17/59/17 19/53/17 22/58/17 18/60/17
f 23/61/18 13/62/18 16/63/18 24/64/18
f 25/65/19 26/66/19 27/67/19 28/68/19
f 26/69/20 29/70/20 30/71/20 27/72/20
f 31/73/21 32/74/21 33/75/21 34/76/21
f 32/77/22 35/78/22 36/79/22 33/80/22
f 28/81/23 27/82/23 30/71/23 34/76/23
f 31/73/24 29/70/24 26/83/24 25/84/24
f 32/77/25 31/85/25 25/86/25 35/87/25
f 36/88/23 28/89/23 34/90/23 33/80/23
f 29/91/26 31/85/26 34/90/26 30/92/26
f 35/93/27 25/94/27 28/95/27 36/96/27
f 37/97/28 38/98/28 39/99/28 40/100/28
f 38/101/29 41/102/29 42/103/29 39/104/29
f 43/105/30 44/106/30 45/107/30 46/108/30
f 44/109/31 47/110/31 48/111/31 45/112/31
f 40/113/23 39/114/23 42/103/23 46/108/23
f 43/105/32 41/102/32 38/115/32 37/116/32
f 44/109/33 43/117/33 37/118/33 47/119/33
f 48/120/23 40/121/23 46/122/23 45/112/23
f 41/123/34 43/117/34 46/122/34 42/124/34
f 47/125/35 37/126/35 40/127/35 48/128/35
f 49/129/36 50/130/36 51/131/36
f 52/132/37 53/133/37 54/134/37 51/135/37
f 53/136/38 55/137/38 56/138/38 54/139/38
f 57/140/39 50/130/39 58/141/39 59/142/39
f 58/143/23 49/144/23 51/145/23 54/146/23 56/147/23 59/148/23
f 53/136/40 52/149/40 60/150/40 61/151/40
f 62/152/41 63/153/41 64/154/41 65/155/41
f 55/156/42 53/133/42 61/157/42 66/158/42
f 52/132/43 50/130/43 62/159/43 60/160/43
f 50/161/44 57/162/44 63/163/44 62/164/44
f 67/165/45 68/166/45 69/167/45 65/168/45 64/169/45
f 61/170/46 60/171/46 69/172/46 68/173/46
f 66/174/47 61/175/47 68/176/47 67/177/47
f 60/178/48 62/179/48 65/180/48 69/181/48
f 58/182/49 50/130/49 49/183/49
f 50/161/50 52/149/50 51/131/50
f 57/140/51 55/137/51 66/184/51 63/185/51
f 63/186/52 66/187/52 67/188/52 64/189/52
f 55/156/53 57/162/53 59/190/53 56/191/53
f 70/192/54 71/193/54 72/194/54
f 73/195/55 74/196/55 75/197/55 72/198/55
f 74/199/56 76/200/56 77/201/56 75/202/56
f 78/203/57 71/193/57 79/204/57 80/205/57
f 79/206/23 70/207/23 72/208/23 75/209/23 77/210/23 80/211/23
f 74/199/58 73/212/58 81/213/58 82/214/58
f 83/215/59 84/216/59 85/217/59 86/218/59
f 76/219/60 74/196/60 82/220/60 87/221/60
f 73/195/61 71/193/61 83/222/61 81/223/61
f 71/224/62 78/225/62 84/226/62 83/227/62
f 88/228/63 89/229/63 90/230/63 86/231/63 85/232/63
f 82/233/64 81/234/64 90/235/64 89/236/64
f 87/237/65 82/238/65 89/239/65 88/240/65
f 81/241/66 83/242/66 86/243/66 90/244/66
f 79/245/67 71/193/67 70/246/67
f 71/224/68 73/212/68 72/194/68
f 78/203/69 76/200/69 87/247/69 84/248/69
f 84/249/70 87/250/70 88/251/70 85/252/70
f 76/219/71 78/225/71 80/253/71 77/254/71
