mtllib LOW_POLY_set.mtl
o lp_Rock_Type4_03_mesh_001_Circle_014
v -28.553331 0.251168 15.770820
v -27.802435 0.251168 14.692543
v -26.825893 0.251168 16.300522
v -28.578844 0.251168 13.716023
v -30.088856 0.251168 14.171501
v -30.050407 0.251168 15.212363
v -29.921530 0.251168 16.304983
v -29.733589 0.251168 17.212908
v -28.439089 0.251168 16.956070
v -27.150871 0.251168 17.109985
v -30.892561 0.251168 17.485746
v -31.080502 0.251168 16.577822
v -31.103756 0.251168 15.573391
v -26.806105 0.251168 14.511258
v -26.213865 0.251168 15.486442
v -30.050407 0.695310 15.212363
v -29.886927 1.273450 15.277516
v -29.920670 1.273450 14.364027
v -30.088856 0.695310 14.171501
v -26.825893 0.695310 16.300522
v -27.057007 1.273450 16.232513
v -27.342216 1.273450 16.942919
v -27.150871 0.695310 17.109985
v -28.439089 0.695310 16.956070
v -28.472790 1.273450 16.807840
v -29.608877 1.273450 17.033247
v -29.733589 0.695310 17.212908
v -29.921530 0.695310 16.304983
v -29.773819 1.273450 16.236429
v -28.578844 0.695310 13.716023
v -28.595444 1.273450 13.964288
v -27.914045 1.273450 14.821307
v -27.802435 0.695310 14.692543
v -31.080502 0.695310 16.577822
v -30.892561 0.695310 17.485746
v -30.830200 0.806757 17.327063
v -30.990810 0.806757 16.551168
v -29.839764 0.806757 17.093901
v -26.213865 0.695310 15.486442
v -26.806105 0.695310 14.511258
v -26.831623 0.893773 14.688605
v -26.382008 0.893773 15.428946
v -31.103756 0.695310 15.573391
v -30.000376 0.806757 16.318007
v -30.110512 0.806757 15.384274
v -31.010683 0.806757 15.692801
v -28.573051 1.273450 15.767632
v -27.588018 0.893773 14.826234
v -26.846647 0.893773 16.046978
vt 0.240517 0.263954
vt 0.267296 0.263954
vt 0.267296 0.290733
vt 0.267296 0.263954
vt 0.267296 0.290733
vt 0.267296 0.263954
vt 0.267296 0.290733
vt 0.267296 0.263954
vt 0.267296 0.290733
vt 0.267296 0.263954
vt 0.267296 0.290733
vt 0.267296 0.263954
vt 0.267296 0.290733
vt 0.267296 0.263954
vt 0.267296 0.290733
vt 0.267296 0.263954
vt 0.267296 0.290733
vt 0.267296 0.263954
vt 0.267296 0.290733
vt 0.205360 0.713173
vt 0.232140 0.713173
vt 0.232140 0.739952
vt 0.205360 0.739952
vt 0.205360 0.713173
vt 0.232140 0.713173
vt 0.232140 0.739952
vt 0.205360 0.739952
vt 0.670204 0.232704
vt 0.696983 0.232704
vt 0.696983 0.259483
vt 0.670204 0.259483
vt 0.240517 0.263954
vt 0.267296 0.263954
vt 0.267296 0.290733
vt 0.240517 0.290733
vt 0.240517 0.263954
vt 0.267296 0.263954
vt 0.267296 0.290733
vt 0.240517 0.290733
vt 0.240517 0.263954
vt 0.267296 0.263954
vt 0.267296 0.290733
vt 0.240517 0.290733
vt 0.240517 0.263954
vt 0.267296 0.263954
vt 0.267296 0.290733
vt 0.240517 0.290733
vt 0.240517 0.263954
vt 0.267296 0.263954
vt 0.267296 0.290733
vt 0.240517 0.290733
vt 0.240517 0.263954
vt 0.267296 0.263954
vt 0.267296 0.290733
vt 0.240517 0.290733
vt 0.240517 0.263954
vt 0.267296 0.263954
vt 0.267296 0.290733
vt 0.240517 0.290733
vt 0.240517 0.263954
vt 0.267296 0.263954
vt 0.267296 0.290733
vt 0.240517 0.290733
vt 0.217079 0.736610
vt 0.243858 0.736610
vt 0.243858 0.763389
vt 0.217079 0.763389
vt 0.217079 0.736610
vt 0.243858 0.736610
vt 0.243858 0.763389
vt 0.217079 0.763389
vt 0.670204 0.232704
vt 0.696983 0.232704
vt 0.696983 0.259483
vt 0.670204 0.259483
vt 0.240517 0.263954
vt 0.267296 0.290733
vt 0.670204 0.232704
vt 0.696983 0.259483
vt 0.670204 0.259483
vt 0.670204 0.232704
vt 0.696983 0.232704
vt 0.696983 0.259483
vt 0.670204 0.259483
vt 0.240517 0.263954
vt 0.267296 0.290733
vt 0.670204 0.232704
vt 0.696983 0.232704
vt 0.696983 0.259483
vt 0.670204 0.259483
vt 0.240517 0.263954
vt 0.267296 0.290733
vt 0.217079 0.736610
vt 0.243858 0.736610
vt 0.243858 0.763389
vt 0.217079 0.763389
vt 0.217079 0.736610
vt 0.243858 0.736610
vt 0.243858 0.763389
vt 0.217079 0.763389
vt 0.240517 0.263954
vt 0.267296 0.290733
vt 0.240517 0.263954
vt 0.267296 0.290733
vt 0.217079 0.736610
vt 0.243858 0.736610
vt 0.243858 0.763389
vt 0.217079 0.763389
vt 0.240517 0.263954
vt 0.267296 0.290733
vt 0.217079 0.736610
vt 0.243858 0.736610
vt 0.243858 0.763389
vt 0.217079 0.763389
vt 0.217079 0.736610
vt 0.243858 0.736610
vt 0.243858 0.763389
vt 0.217079 0.736610
vt 0.243858 0.736610
vt 0.243858 0.763389
vt 0.217079 0.736610
vt 0.243858 0.736610
vt 0.217079 0.763389
vt 0.217079 0.736610
vt 0.243858 0.736610
vt 0.243858 0.763389
vt 0.217079 0.763389
vt 0.217079 0.736610
vt 0.243858 0.736610
vt 0.243858 0.763389
vt 0.217079 0.763389
vt 0.217079 0.736610
vt 0.243858 0.736610
vt 0.217079 0.763389
vt 0.240517 0.263954
vt 0.267296 0.263954
vt 0.267296 0.290733
vt 0.670204 0.232704
vt 0.696983 0.232704
vt 0.696983 0.259483
vt 0.670204 0.259483
vt 0.670204 0.232704
vt 0.696983 0.232704
vt 0.670204 0.259483
vt 0.670204 0.232704
vt 0.696983 0.232704
vt 0.696983 0.259483
vt 0.670204 0.259483
vt 0.670204 0.232704
vt 0.696983 0.232704
vt 0.696983 0.259483
vt 0.240517 0.263954
vt 0.240517 0.290733
vn 0.0000 -1.0000 0.0000
vn -0.9627 0.2682 0.0356
vn 0.8572 0.3831 0.3441
vn 0.1882 0.2542 0.9487
vn -0.9594 0.2585 0.1132
vn 0.7518 0.2783 -0.5978
vn -0.2679 0.3737 -0.8880
vn -0.1152 0.2404 0.9638
vn -0.9444 0.2645 0.1955
vn -0.7511 0.6416 0.1555
vn 0.1426 0.7827 0.6058
vn 0.7414 0.4977 -0.4502
vn -0.1186 0.0000 0.9929
vn 0.8547 0.0000 -0.5191
vn 0.7993 0.0000 0.6009
vn 0.9280 0.0000 0.3726
vn -0.1790 0.0000 -0.9838
vn 0.7827 0.0000 -0.6223
vn -0.9997 0.0000 0.0231
vn -0.9792 0.0000 0.2027
vn -0.2888 0.0000 -0.9574
vn 0.1946 0.0000 0.9809
vn 0.2291 0.0000 0.9734
vn -0.9993 0.0000 0.0369
vn -0.3242 0.0000 -0.9460
vn 0.0000 1.0000 0.0000
vn -0.1992 0.7890 -0.5812
vn 0.7960 0.5824 -0.1648
vn 0.8074 0.5823 -0.0952
vn -0.7768 0.6295 0.0180
vn 0.6086 0.6482 0.4576
vn -0.7414 0.4977 0.4502
vn -0.1360 0.6504 -0.7474
vn 0.8229 0.2702 -0.4998
usemtl color3
f 1/1/1 2/2/1 3/3/1
f 1/1/1 4/4/1 2/5/1
f 1/1/1 5/6/1 4/7/1
f 1/1/1 6/8/1 5/9/1
f 1/1/1 7/10/1 6/11/1
f 1/1/1 8/12/1 7/13/1
f 1/1/1 9/14/1 8/15/1
f 1/1/1 10/16/1 9/17/1
f 1/1/1 3/18/1 10/19/1
f 8/20/1 11/21/1 12/22/1 7/23/1
f 7/24/1 12/25/1 13/26/1 6/27/1
f 2/28/1 14/29/1 15/30/1 3/31/1
f 16/32/2 17/33/2 18/34/2 19/35/2
f 20/36/3 21/37/3 22/38/3 23/39/3
f 24/40/4 25/41/4 26/42/4 27/43/4
f 28/44/5 29/45/5 17/46/5 16/47/5
f 30/48/6 31/49/6 32/50/6 33/51/6
f 19/52/7 18/53/7 31/54/7 30/55/7
f 23/56/8 22/57/8 25/58/8 24/59/8
f 27/60/9 26/61/9 29/62/9 28/63/9
f 34/64/10 35/65/10 36/66/10 37/67/10
f 35/68/11 27/69/11 38/70/11 36/71/11
f 39/72/12 40/73/12 41/74/12 42/75/12
f 9/76/13 10/16/13 23/77/13 24/59/13
f 15/78/14 14/29/14 40/79/14 39/80/14
f 3/81/15 15/82/15 39/83/15 20/84/15
f 10/85/16 3/18/16 20/86/16 23/39/16
f 14/87/17 2/88/17 33/89/17 40/90/17
f 2/91/18 4/4/18 30/92/18 33/51/18
f 13/93/19 12/94/19 34/95/19 43/96/19
f 12/97/20 11/98/20 35/99/20 34/100/20
f 4/101/21 5/6/21 19/102/21 30/55/21
f 8/103/22 9/14/22 24/104/22 27/43/22
f 11/105/23 8/106/23 27/107/23 35/108/23
f 5/109/24 6/8/24 16/110/24 19/35/24
f 6/111/25 13/112/25 43/113/25 16/114/25
f 38/115/26 44/116/26 37/117/26 36/71/26
f 44/118/26 45/119/26 46/120/26 37/67/26
f 16/121/27 43/122/27 46/120/27 45/123/27
f 27/124/28 28/125/28 44/126/28 38/127/28
f 28/128/29 16/129/29 45/130/29 44/131/29
f 43/132/30 34/133/30 37/117/30 46/134/30
f 47/135/26 21/37/26 32/50/26
f 47/135/26 32/136/26 31/54/26
f 47/135/26 31/49/26 18/34/26
f 47/135/26 18/53/26 17/46/26
f 47/135/26 17/33/26 29/62/26
f 47/135/26 29/45/26 26/42/26
f 47/135/26 26/61/26 25/58/26
f 47/135/26 25/41/26 22/38/26
f 47/135/26 22/57/26 21/137/26
f 48/138/26 49/139/26 42/140/26 41/141/26
f 20/142/31 39/143/31 42/140/31 49/144/31
f 33/145/32 20/146/32 49/147/32 48/148/32
f 40/149/33 33/150/33 48/151/33 41/141/33
f 33/152/34 32/136/34 21/137/34 20/153/34
