mtllib LOW_POLY_set.mtl
o lp_Rock_Type1_01_mesh_001_Circle_002
v 21.403681 0.212763 17.670750
v 20.061354 0.212763 19.403536
v 19.658430 0.212763 17.222477
v 21.748703 0.212763 20.114330
v 21.409086 0.212763 14.431910
v 22.820217 0.212763 15.689503
v 19.948648 0.212763 14.500874
v 19.658430 0.939493 17.222477
v 19.948648 0.939493 14.500874
v 21.409086 0.939493 14.431910
v 20.061354 0.939493 19.403536
v 22.820217 0.939493 15.689503
v 21.748703 0.939493 20.114330
v 21.029131 0.399715 17.674759
v 21.195316 0.454058 19.090958
v 19.995701 0.223371 19.345913
v 19.888056 0.199601 19.169741
v 20.789612 1.784624 17.677320
v 21.936932 1.982727 17.853233
v 22.027618 2.001643 16.106531
v 21.650068 1.936955 15.777443
v 22.244802 0.609620 17.861151
v 22.413136 1.085394 14.618896
v 19.468655 0.157530 15.611522
v 20.993732 0.798331 13.497204
v 21.106266 0.826287 13.538761
v 22.030293 2.002201 16.055037
v 22.070154 1.932747 16.133928
v 19.309340 0.103109 17.226212
v 20.946453 1.835911 19.013895
v 22.021683 1.899701 17.863537
v 20.972198 1.744139 19.093346
v 22.077023 1.834205 16.117765
v 22.147093 1.390986 16.078402
v 22.207970 1.396821 16.035675
v 22.113792 1.918707 16.093065
v 19.245537 1.447611 15.613909
v 20.774731 1.679838 13.502937
v 19.086222 1.393190 17.228598
v 19.652861 0.159031 19.111748
v 19.429741 1.449112 19.114136
v 22.095802 2.015865 14.793273
v 19.648537 1.584509 19.172304
v 19.712048 1.598534 19.276243
v 19.772583 1.513452 19.348299
v 19.166515 1.504694 17.253994
v 19.509773 1.560574 19.138088
v 20.816174 1.272991 17.422367
v 20.039112 1.392321 18.142532
v 19.615145 1.425606 17.210203
v 21.048397 1.245029 18.599178
v 21.963753 1.115221 17.653439
v 21.796181 1.146920 16.464457
v 20.874720 1.269478 16.241938
v 19.933067 1.397605 16.183281
v 20.840790 2.568739 17.422104
v 20.160587 2.664721 16.467712
v 19.915712 2.686289 17.258688
v 21.068098 2.282062 18.598967
v 20.058813 2.429353 18.142323
v 21.983454 2.152253 17.653229
v 21.815882 2.183953 16.464247
v 20.894421 2.306511 16.241726
v 19.952768 2.434637 16.183071
v 19.634846 2.462638 17.209993
v 20.242268 2.660652 17.976803
v 21.019657 2.547202 18.328529
v 20.885885 2.566034 16.512892
v 21.595629 2.471635 16.684284
v 21.724699 2.447219 17.600084
v 23.052189 1.100951 14.708241
v 21.414335 1.100951 15.183567
v 21.728308 1.100951 15.414833
v 22.846247 1.100951 15.090393
v 22.796312 0.932989 14.285222
v 23.263384 0.932989 14.646950
v 23.263384 0.145806 14.646950
v 22.796312 0.145806 14.285222
v 22.945721 0.932989 15.236418
v 21.898638 0.932989 15.540295
v 21.898638 0.145806 15.540295
v 22.945721 0.145806 15.236418
v 21.414335 0.145806 15.183567
v 21.690413 0.145806 14.337929
v 21.690413 0.932989 14.337929
v 21.634647 1.100951 14.508739
v 22.727343 1.100951 14.456662
v 20.860350 1.100951 14.179935
v 22.487944 1.100951 13.414645
v 22.068758 1.100951 13.197590
v 21.034216 1.100951 13.684028
v 21.378254 0.998171 14.464149
v 21.239471 1.100951 14.387988
v 20.860350 0.145806 14.179935
v 21.378254 0.145806 14.464149
v 21.081896 0.998171 13.548033
v 22.068556 0.998171 13.084109
v 22.068556 0.145806 13.084109
v 21.081896 0.145806 13.548033
v 22.602697 0.145806 13.360688
v 22.462297 0.145806 14.239101
v 22.602697 0.998171 13.360688
v 22.462297 0.998171 14.239101
v 22.369879 1.100951 14.153316
v 22.197327 1.936168 14.621204
v 22.285231 1.026871 16.220758
v 22.204433 1.385234 16.119261
v 22.110271 1.918180 16.157230
v 21.254303 0.873572 13.477973
v 21.038494 1.724346 13.480282
v 20.866728 1.791130 13.542398
v 19.316874 1.556055 15.730089
v 23.198938 0.212763 18.154087
v 23.185410 0.212763 18.150331
v 23.135883 0.925758 18.119663
v 23.137325 0.923019 18.206165
v 23.021894 0.887744 18.141394
v 21.400692 0.939493 17.667208
v 21.840879 1.119766 19.735834
v 21.583538 1.119766 17.926281
v 22.867712 1.107584 18.324820
vt 0.222138 0.259531
vt 0.222138 0.259531
vt 0.222138 0.259531
vt 0.222138 0.259531
vt 0.222138 0.259531
vt 0.222138 0.259531
vt 0.222138 0.259531
vt 0.222138 0.259531
vt 0.222138 0.259531
vt 0.222138 0.259531
vt 0.222138 0.259531
vt 0.222138 0.259531
vt 0.222138 0.259531
vt 0.727161 0.224767
vt 0.727836 0.224767
vt 0.727836 0.225441
vt 0.727161 0.225441
vt 0.744387 0.225245
vt 0.745061 0.225245
vt 0.745061 0.225920
vt 0.744387 0.225920
vt 0.727836 0.224767
vt 0.727836 0.225441
vt 0.727836 0.224767
vt 0.727836 0.225441
vt 0.727836 0.224767
vt 0.727836 0.225441
vt 0.727161 0.225441
vt 0.702997 0.721599
vt 0.724857 0.721599
vt 0.724857 0.743460
vt 0.727836 0.224767
vt 0.727836 0.225441
vt 0.745061 0.225245
vt 0.745061 0.225920
vt 0.727161 0.224767
vt 0.727836 0.225441
vt 0.727161 0.225441
vt 0.702997 0.721599
vt 0.724857 0.721599
vt 0.724857 0.743460
vt 0.702997 0.743460
vt 0.727161 0.224767
vt 0.727836 0.225441
vt 0.727161 0.225441
vt 0.727161 0.224767
vt 0.727836 0.225441
vt 0.727161 0.225441
vt 0.727161 0.224767
vt 0.727836 0.224767
vt 0.727836 0.225441
vt 0.727161 0.225441
vt 0.743309 0.225910
vt 0.743983 0.225910
vt 0.743983 0.226585
vt 0.745061 0.225245
vt 0.745061 0.225920
vt 0.744387 0.225920
vt 0.702997 0.721599
vt 0.724857 0.721599
vt 0.727161 0.224767
vt 0.727836 0.225441
vt 0.727161 0.225441
vt 0.745061 0.225245
vt 0.745061 0.225920
vt 0.744387 0.225920
vt 0.255708 0.745203
vt 0.255708 0.745203
vt 0.255708 0.745203
vt 0.255708 0.745203
vt 0.255708 0.745203
vt 0.255708 0.745203
vt 0.255708 0.745203
vt 0.255708 0.745203
vt 0.255708 0.745203
vt 0.255708 0.745203
vt 0.255708 0.745203
vt 0.255708 0.745203
vt 0.255708 0.745203
vt 0.255708 0.745203
vt 0.255708 0.745203
vt 0.255708 0.745203
vt 0.255708 0.745203
vt 0.255708 0.745203
vt 0.255708 0.745203
vt 0.255708 0.745203
vt 0.255708 0.745203
vt 0.255708 0.745203
vt 0.255708 0.745203
vt 0.255708 0.745203
vt 0.255708 0.745203
vt 0.255708 0.745203
vt 0.255708 0.745203
vt 0.255708 0.745203
vt 0.255708 0.745203
vt 0.255708 0.745203
vt 0.255708 0.745203
vt 0.255708 0.745203
vt 0.255708 0.745203
vt 0.255708 0.745203
vt 0.255708 0.745203
vt 0.255708 0.745203
vt 0.255708 0.745203
vt 0.255708 0.745203
vt 0.255708 0.745203
vt 0.255708 0.745203
vt 0.222138 0.259531
vt 0.222138 0.259531
vt 0.222138 0.259531
vt 0.222138 0.259531
vt 0.222138 0.259531
vt 0.222138 0.259531
vt 0.222138 0.259531
vt 0.222138 0.259531
vt 0.222138 0.259531
vt 0.222138 0.259531
vt 0.222138 0.259531
vt 0.222138 0.259531
vt 0.222138 0.259531
vt 0.222138 0.259531
vt 0.222138 0.259531
vt 0.222138 0.259531
vt 0.222138 0.259531
vt 0.727498 0.225441
vt 0.727715 0.225362
vt 0.727831 0.225163
vt 0.727790 0.224935
vt 0.727614 0.224787
vt 0.727383 0.224787
vt 0.727206 0.224935
vt 0.727166 0.225163
vt 0.727281 0.225362
vt 0.702997 0.721599
vt 0.724857 0.743460
vt 0.727161 0.224767
vt 0.727836 0.224767
vt 0.727836 0.225441
vt 0.727161 0.225441
vt 0.702997 0.721599
vt 0.724857 0.721599
vt 0.702997 0.721599
vt 0.724857 0.743460
vt 0.702997 0.743460
vt 0.727836 0.225441
vt 0.727161 0.224767
vt 0.742451 0.225767
vt 0.743126 0.225767
vt 0.743126 0.226442
vt 0.727836 0.224767
vt 0.727836 0.225441
vt 0.727161 0.225441
vt 0.727836 0.225441
vt 0.727836 0.224767
vt 0.727161 0.225441
vt 0.745061 0.225245
vt 0.745061 0.225920
vt 0.727836 0.224767
vt 0.727836 0.225441
vt 0.727161 0.225441
vt 0.743238 0.225915
vt 0.743913 0.225915
vt 0.743913 0.226590
vt 0.743238 0.226590
vt 0.743238 0.225915
vt 0.743913 0.225915
vt 0.743913 0.226590
vt 0.743238 0.226590
vt 0.743238 0.225915
vt 0.743913 0.225915
vt 0.743913 0.226590
vt 0.743238 0.226590
vt 0.743238 0.225915
vt 0.743913 0.225915
vt 0.743913 0.226590
vt 0.743238 0.226590
vt 0.702997 0.721599
vt 0.724857 0.743460
vt 0.724857 0.721599
vt 0.724857 0.743460
vt 0.743238 0.225915
vt 0.743913 0.225915
vt 0.743913 0.226590
vt 0.743238 0.226590
vt 0.743238 0.225915
vt 0.743913 0.225915
vt 0.743913 0.226590
vt 0.743238 0.226590
vt 0.743238 0.225915
vt 0.743913 0.225915
vt 0.743913 0.226590
vt 0.743238 0.226590
vt 0.745061 0.225245
vt 0.745061 0.225920
vt 0.745061 0.225245
vt 0.745061 0.225920
vt 0.744387 0.225920
vt 0.727836 0.224767
vt 0.727836 0.225441
vt 0.743238 0.225915
vt 0.743913 0.225915
vt 0.743913 0.226590
vt 0.743238 0.226590
vt 0.743238 0.225915
vt 0.743913 0.225915
vt 0.743913 0.226590
vt 0.743238 0.226590
vt 0.222138 0.259531
vt 0.222138 0.259531
vt 0.222138 0.259531
vt 0.727800 0.761904
vt 0.749660 0.761904
vt 0.749660 0.783765
vt 0.222138 0.259531
vt 0.727800 0.761904
vt 0.749660 0.783765
vt 0.222138 0.259531
vt 0.222138 0.259531
vt 0.222138 0.259531
vt 0.749660 0.761904
vt 0.749660 0.783765
vt 0.727800 0.761904
vt 0.222138 0.259531
vn 0.0000 -1.0000 0.0000
vn -0.9944 0.0000 -0.1060
vn -0.0472 0.0000 -0.9989
vn -0.9834 0.0000 0.1817
vn 0.6653 0.0000 -0.7466
vn -0.3882 0.0000 0.9216
vn 0.1919 -0.9813 0.0151
vn -0.1704 0.9854 0.0018
vn 0.1674 -0.9857 0.0182
vn 0.1884 -0.9730 -0.1330
vn 0.2725 -0.9576 -0.0937
vn -0.5763 0.4466 0.6844
vn 0.1740 -0.9846 -0.0160
vn -0.1674 0.9857 -0.0182
vn 0.7464 0.1279 0.6531
vn 0.5604 0.0124 0.8281
vn -0.7846 -0.1575 -0.5997
vn -0.9802 -0.1693 -0.1024
vn -0.9689 -0.1679 0.1815
vn -0.1919 0.9813 -0.0151
vn 0.6446 0.0963 -0.7584
vn 0.2017 0.0331 0.9789
vn -0.1302 -0.9912 0.0238
vn -0.1468 -0.9891 0.0055
vn -0.1369 -0.9906 0.0035
vn -0.1347 -0.9909 -0.0074
vn -0.1310 -0.9914 -0.0035
vn -0.1346 -0.9909 -0.0037
vn -0.1241 -0.9922 -0.0114
vn 0.1241 0.9922 0.0114
vn -0.4112 0.0080 0.9115
vn 0.7176 -0.0135 0.6964
vn 0.9900 -0.0188 -0.1400
vn 0.2342 -0.0046 -0.9722
vn 0.0620 -0.0014 -0.9981
vn -0.9550 0.0181 -0.2961
vn -0.9099 0.0174 0.4144
vn 0.1468 0.9891 -0.0055
vn 0.1346 0.9909 0.0037
vn 0.1310 0.9914 0.0035
vn 0.1347 0.9909 0.0074
vn 0.1369 0.9906 -0.0035
vn 0.0000 1.0000 0.0000
vn 0.6123 0.0000 -0.7906
vn 0.2787 0.0000 0.9604
vn -0.5931 0.0000 0.8052
vn -0.0476 0.0000 -0.9989
vn -0.9506 0.0000 -0.3104
vn -0.4811 0.0000 0.8767
vn -0.4255 0.0000 -0.9050
vn 0.4598 0.0000 -0.8880
vn 0.2033 0.0000 0.9791
vn 0.9875 0.0000 0.1578
vn 0.9770 0.2022 0.0677
vn 0.4761 0.4710 0.7426
vn 0.6747 0.1731 -0.7175
vn 0.5704 -0.1022 -0.8150
vn 0.5738 0.1602 -0.8032
vn 0.2704 -0.9588 -0.0873
vn -0.0763 -0.0145 -0.9970
vn -0.1617 0.9863 -0.0343
vn 0.2677 -0.9589 -0.0939
vn 0.1617 -0.9863 0.0343
vn -0.5490 -0.0965 0.8303
vn -0.1517 0.9884 -0.0013
vn 0.1704 -0.9854 -0.0018
vn -0.6246 0.7170 0.3096
vn -0.2192 0.6768 0.7028
vn 0.6044 0.6203 0.4999
vn 0.7567 0.6477 -0.0894
vn 0.2540 0.7027 -0.6646
vn 0.1401 0.7175 -0.6823
vn -0.5881 0.7828 -0.2034
vn 0.1302 0.9912 -0.0238
vn 0.1971 0.7071 0.6791
vn -0.0337 0.7071 -0.7063
vn 0.6434 0.6825 0.3467
vn 0.4205 0.7269 -0.5430
vn 0.8803 0.0000 0.4744
vn -0.3009 0.7071 -0.6399
vn 0.6914 0.7139 0.1105
vn 0.1437 0.7071 0.6923
vn 0.3285 0.6998 -0.6344
vn -0.9437 0.0000 -0.3309
vn 0.5499 0.6295 0.5489
vn 0.6964 0.7163 0.0439
vn -0.8036 0.5922 -0.0593
vn 0.6791 0.7327 0.0454
vn 0.5263 0.0986 -0.8445
vn 0.6896 0.4137 0.5943
vn -0.5777 0.2477 0.7778
vn 0.0328 0.6594 0.7511
vn -0.8184 0.5592 0.1325
vn -0.1740 0.9846 0.0160
vn -0.1781 0.9840 -0.0018
vn -0.1501 0.4383 -0.8862
vn -0.6090 0.7072 -0.3593
vn 0.1874 0.9161 -0.3543
vn 0.9893 0.0400 -0.1402
vn 0.4622 0.1047 -0.8806
vn 0.8062 0.0131 0.5916
vn 0.1668 0.0623 0.9840
vn -0.7724 0.6256 0.1098
vn 0.0067 1.0000 0.0048
vn 0.2414 0.6043 -0.7593
vn -0.1493 0.7886 0.5965
vn 0.0099 0.9999 -0.0014
vn 0.2098 0.7269 -0.6539
vn 0.6307 0.6297 0.4535
usemtl color1
f 1/1/1 2/2/1 3/3/1
f 1/1/1 4/4/1 2/2/1
f 1/1/1 5/5/1 6/6/1
f 1/1/1 7/7/1 5/5/1
f 1/1/1 3/3/1 7/7/1
f 7/7/2 3/3/2 8/8/2 9/9/2
f 5/5/3 7/7/3 9/9/3 10/10/3
f 3/3/4 2/2/4 11/11/4 8/8/4
f 6/6/5 5/5/5 10/10/5 12/12/5
f 2/2/6 4/4/6 13/13/6 11/11/6
f 14/14/7 15/15/7 16/16/7 17/17/7
f 18/18/8 19/19/8 20/20/8 21/21/8
f 14/14/9 22/22/9 15/23/9
f 14/14/10 23/24/10 22/25/10
f 14/14/11 24/26/11 25/27/11 26/28/11
f 27/29/12 21/30/12 28/31/12
f 14/14/13 29/32/13 24/33/13
f 18/18/14 30/34/14 19/35/14
f 15/36/15 22/22/15 31/37/15 32/38/15
f 33/39/16 34/40/16 35/41/16 36/42/16
f 25/43/17 24/26/17 37/44/17 38/45/17
f 24/46/18 29/32/18 39/47/18 37/48/18
f 29/49/19 40/50/19 41/51/19 39/52/19
f 21/53/8 27/54/8 42/55/8
f 18/18/20 43/56/20 44/57/20 30/58/20
f 21/59/21 20/60/21 28/31/21
f 16/61/22 15/15/22 32/62/22 45/63/22
f 18/18/8 46/64/8 47/65/8 43/66/8
f 48/67/23 49/68/23 50/69/23
f 48/67/24 51/70/24 49/68/24
f 48/67/25 52/71/25 51/70/25
f 48/67/26 53/72/26 52/71/26
f 48/67/27 54/73/27 53/72/27
f 48/67/28 55/74/28 54/73/28
f 48/67/29 50/69/29 55/74/29
f 56/75/30 57/76/30 58/77/30
f 49/68/31 51/70/31 59/78/31 60/79/31
f 51/70/32 52/71/32 61/80/32 59/78/32
f 52/71/33 53/72/33 62/81/33 61/80/33
f 53/72/34 54/73/34 63/82/34 62/81/34
f 54/73/35 55/74/35 64/83/35 63/82/35
f 55/74/36 50/69/36 65/84/36 64/83/36
f 50/69/37 49/68/37 60/79/37 65/84/37
f 56/75/38 66/85/38 67/86/38
f 56/75/39 68/87/39 57/76/39
f 56/75/40 69/88/40 68/87/40
f 56/75/41 70/89/41 69/88/41
f 56/75/42 67/86/42 70/89/42
f 71/90/43 72/91/43 73/92/43 74/93/43
f 75/94/44 76/95/44 77/96/44 78/97/44
f 79/98/45 80/99/45 81/100/45 82/101/45
f 77/96/1 83/102/1 84/103/1 78/97/1
f 80/99/46 73/92/46 72/91/46 83/102/46 81/100/46
f 85/104/47 75/94/47 78/97/47 84/103/47
f 82/101/1 81/100/1 83/102/1 77/96/1
f 72/91/48 86/105/48 85/104/48 84/103/48 83/102/48
f 87/106/43 86/105/43 72/91/43 71/90/43
f 88/107/43 89/108/43 90/109/43 91/110/43
f 92/111/49 93/112/49 88/107/49 94/113/49 95/114/49
f 96/115/50 97/116/50 98/117/50 99/118/50
f 94/113/1 100/119/1 101/120/1 95/114/1
f 97/116/51 102/121/51 100/119/51 98/117/51
f 103/122/52 92/111/52 95/114/52 101/120/52
f 99/118/1 98/117/1 100/119/1 94/113/1
f 102/121/53 103/122/53 101/120/53 100/119/53
f 93/112/43 104/123/43 89/108/43 88/107/43
f 22/124/54 23/125/54 105/126/54 36/127/54 35/128/54 106/129/54 107/130/54 108/131/54 31/132/54
f 35/133/55 34/40/55 106/134/55
f 23/135/56 109/136/56 110/137/56 105/138/56
f 34/139/57 107/140/57 106/134/57
f 108/141/58 107/140/58 34/142/58 33/143/58
f 25/43/59 109/136/59 26/144/59
f 110/145/60 109/136/60 25/27/60 38/45/60
f 47/146/61 44/147/61 43/148/61
f 14/14/62 26/149/62 109/150/62 23/151/62
f 16/61/63 40/50/63 17/152/63
f 16/61/64 45/153/64 41/51/64 40/154/64
f 18/18/65 111/155/65 112/156/65
f 14/14/66 17/157/66 40/158/66 29/159/66
f 66/85/67 58/77/67 65/84/67 60/79/67
f 67/86/68 66/85/68 60/79/68 59/78/68
f 70/89/69 67/86/69 59/78/69 61/80/69
f 69/88/70 70/89/70 61/80/70 62/81/70
f 68/87/71 69/88/71 62/81/71 63/82/71
f 57/76/72 68/87/72 63/82/72 64/83/72
f 58/77/73 57/76/73 64/83/73 65/84/73
f 56/75/74 58/77/74 66/85/74
f 74/93/75 73/92/75 80/99/75 79/98/75
f 86/105/76 87/106/76 75/94/76 85/104/76
f 71/90/77 74/93/77 79/98/77 76/95/77
f 87/106/78 71/90/78 76/95/78 75/94/78
f 76/95/79 79/98/79 82/101/79 77/96/79
f 91/110/80 90/109/80 97/116/80 96/115/80
f 89/108/81 104/123/81 103/122/81 102/121/81
f 104/123/82 93/112/82 92/111/82 103/122/82
f 90/109/83 89/108/83 102/121/83 97/116/83
f 88/107/84 91/110/84 96/115/84 99/118/84 94/113/84
f 19/160/85 30/161/85 32/162/85 31/163/85
f 20/164/86 19/165/86 31/166/86 108/167/86
f 46/168/87 112/169/87 37/170/87 39/171/87
f 42/172/88 27/173/88 36/174/88 105/175/88
f 28/176/89 20/60/89 108/177/89 33/143/89
f 27/29/90 28/178/90 33/179/90 36/42/90
f 41/180/91 45/181/91 44/182/91 47/183/91
f 30/184/92 44/185/92 45/186/92 32/187/92
f 47/188/93 46/189/93 39/190/93 41/191/93
f 18/18/94 112/192/94 46/193/94
f 18/18/95 21/194/95 42/195/95 111/196/95
f 110/145/96 38/197/96 111/198/96
f 112/199/97 111/200/97 38/201/97 37/202/97
f 111/203/98 42/204/98 105/205/98 110/206/98
f 1/1/1 6/6/1 113/207/1 114/208/1
f 113/207/99 6/6/99 12/12/99 115/209/99
f 116/210/100 113/211/100 117/212/100
f 4/4/101 113/207/101 116/213/101 13/13/101
f 117/214/102 113/211/102 115/215/102
f 1/1/1 114/208/1 113/207/1 4/4/1
f 118/216/103 13/13/103 119/217/103 120/218/103
f 118/216/43 8/8/43 11/11/43
f 118/216/104 115/209/104 12/12/104
f 118/216/43 12/12/43 10/10/43
f 118/216/43 10/10/43 9/9/43
f 118/216/43 9/9/43 8/8/43
f 118/216/43 11/11/43 13/13/43
f 117/214/105 118/219/105 116/220/105
f 115/221/106 118/219/106 117/212/106
f 120/218/107 119/217/107 121/222/107
f 116/213/108 118/216/108 120/218/108 121/222/108
f 13/13/109 116/213/109 121/222/109 119/217/109
