mtllib LOW_POLY_set.mtl
o lp_Rock_Type5_04_mesh_001_Cube_026
v 14.664311 1.066765 17.372438
v 14.664311 0.176311 17.372438
v 13.929522 0.176311 17.243402
v 13.765683 1.066765 17.666046
v 14.024786 0.176311 18.143349
v 14.024786 0.703996 18.143349
v 14.513153 1.081283 18.458433
v 14.513153 0.176311 18.458433
v 14.963125 0.176311 18.410799
v 14.963125 1.081283 18.410799
v 15.054295 0.176311 17.601908
v 15.054295 1.066765 17.601908
v 14.757147 0.712330 15.558029
v 15.932811 0.712330 15.780119
v 15.932811 0.281114 15.780119
v 14.757147 0.281114 15.558029
v 15.985187 1.581422 17.312927
v 15.985187 0.281114 17.312927
v 15.239891 2.220829 17.956902
v 14.473487 2.220829 17.983089
v 14.473487 0.281114 17.983089
v 15.239891 0.281114 17.956902
v 13.990743 0.712330 15.584217
v 13.990743 0.281114 15.584217
vt 0.172055 0.734555
vt 0.172055 0.757632
vt 0.195132 0.757632
vt 0.195132 0.734555
vt 0.172055 0.734555
vt 0.172055 0.757632
vt 0.195132 0.757632
vt 0.195132 0.734555
vt 0.172055 0.734555
vt 0.172055 0.757632
vt 0.195132 0.757632
vt 0.195132 0.734555
vt 0.172055 0.734555
vt 0.172055 0.757632
vt 0.195132 0.757632
vt 0.195132 0.734555
vt 0.172055 0.734555
vt 0.195132 0.734555
vt 0.172055 0.757632
vt 0.195132 0.757632
vt 0.172055 0.757632
vt 0.195132 0.757632
vt 0.195132 0.734555
vt 0.172055 0.734555
vt 0.195132 0.757632
vt 0.195132 0.734555
vt 0.172055 0.734555
vt 0.172055 0.757632
vt 0.172055 0.734555
vt 0.172055 0.757632
vt 0.195132 0.757632
vt 0.195132 0.734555
vt 0.230649 0.242368
vt 0.253726 0.242368
vt 0.253726 0.265445
vt 0.230649 0.265445
vt 0.230649 0.242368
vt 0.253726 0.242368
vt 0.253726 0.265445
vt 0.230649 0.265445
vt 0.230649 0.242368
vt 0.253726 0.242368
vt 0.253726 0.265445
vt 0.230649 0.265445
vt 0.230649 0.242368
vt 0.253726 0.242368
vt 0.253726 0.265445
vt 0.230649 0.265445
vt 0.230649 0.242368
vt 0.253726 0.242368
vt 0.253726 0.265445
vt 0.230649 0.265445
vt 0.253726 0.242368
vt 0.253726 0.265445
vt 0.230649 0.265445
vt 0.230649 0.242368
vt 0.253726 0.242368
vt 0.253726 0.265445
vt 0.230649 0.242368
vt 0.230649 0.265445
vt 0.230649 0.242368
vt 0.253726 0.242368
vt 0.253726 0.265445
vt 0.230649 0.265445
vn -0.0978 0.2213 -0.9703
vn -0.9640 -0.1718 0.2028
vn 0.1053 0.0000 0.9944
vn 0.9937 0.0000 0.1120
vn 0.0000 -1.0000 -0.0000
vn -0.2589 0.9388 0.2270
vn 0.0032 0.9999 -0.0149
vn -0.5421 0.0000 0.8403
vn 0.5071 0.0000 -0.8619
vn 0.1856 0.0000 -0.9826
vn 0.9994 0.0000 -0.0341
vn 0.0341 0.0000 0.9994
vn -0.9803 0.0000 0.1973
vn 0.1621 0.8345 -0.5267
vn -0.0181 0.8480 -0.5296
vn 0.6538 0.0000 0.7567
vn -0.0342 0.0000 -0.9994
usemtl color1
f 1/1/1 2/2/1 3/3/1 4/4/1
f 4/5/2 3/6/2 5/7/2 6/8/2
f 7/9/3 8/10/3 9/11/3 10/12/3
f 10/13/4 9/14/4 11/15/4 12/16/4
f 2/17/5 8/10/5 5/7/5 3/18/5
f 7/9/6 1/19/6 4/20/6 6/8/6
f 10/13/7 12/21/7 1/22/7 7/23/7
f 11/24/5 9/14/5 8/25/5 2/26/5
f 6/27/8 5/28/8 8/25/8 7/23/8
f 12/29/9 11/30/9 2/31/9 1/32/9
f 13/33/10 14/34/10 15/35/10 16/36/10
f 14/37/11 17/38/11 18/39/11 15/40/11
f 19/41/12 20/42/12 21/43/12 22/44/12
f 20/45/13 23/46/13 24/47/13 21/48/13
f 16/49/5 15/50/5 18/39/5 22/44/5
f 19/41/14 17/38/14 14/51/14 13/52/14
f 20/45/15 19/53/15 13/54/15 23/55/15
f 24/56/5 16/57/5 22/58/5 21/48/5
f 17/59/16 19/53/16 22/58/16 18/60/16
f 23/61/17 13/62/17 16/63/17 24/64/17
