mtllib LOW_POLY_set.mtl
o lp_Rock_Type6_04_mesh_001_Plane_030
v -35.427364 0.352268 34.411808
v -35.520660 0.352268 35.278412
v -36.682034 0.352268 35.344872
v -36.635517 0.352268 34.701225
v -36.853481 0.352268 33.701317
v -35.692108 0.352268 33.634857
v -35.312534 1.155297 34.395542
v -35.420963 1.155297 35.402733
v -36.970009 1.155297 33.569786
v -35.620224 1.155297 33.492546
v -36.716682 1.155297 34.731911
v -36.770744 1.155297 35.479973
v -36.680340 1.414125 35.342293
v -36.633965 1.414125 34.700638
v -35.429558 1.414125 34.412121
v -35.522564 1.414125 35.276039
v -35.693478 1.414125 33.637577
v -36.851254 1.414125 33.703827
vt 0.265625 0.765087
vt 0.278691 0.757543
vt 0.278691 0.742456
vt 0.265625 0.734913
vt 0.252559 0.742456
vt 0.252559 0.757543
vt 0.250538 0.734913
vt 0.280712 0.734913
vt 0.280712 0.765087
vt 0.250538 0.765087
vt 0.250538 0.734913
vt 0.280712 0.734913
vt 0.280712 0.765087
vt 0.250538 0.765087
vt 0.250538 0.734913
vt 0.280712 0.734913
vt 0.280712 0.765087
vt 0.250538 0.765087
vt 0.250538 0.734913
vt 0.280712 0.734913
vt 0.280712 0.765087
vt 0.250538 0.765087
vt 0.250538 0.734913
vt 0.280712 0.734913
vt 0.280712 0.765087
vt 0.250538 0.765087
vt 0.250538 0.734913
vt 0.280712 0.734913
vt 0.280712 0.765087
vt 0.250538 0.765087
vt 0.250538 0.734913
vt 0.280712 0.734913
vt 0.280712 0.765087
vt 0.250538 0.765087
vt 0.250538 0.734913
vt 0.280712 0.734913
vt 0.280712 0.765087
vt 0.250538 0.765087
vt 0.250538 0.734913
vt 0.280712 0.734913
vt 0.280712 0.765087
vt 0.250538 0.765087
vt 0.250538 0.734913
vt 0.280712 0.734913
vt 0.250538 0.734913
vt 0.280712 0.734913
vt 0.280712 0.765087
vt 0.250538 0.734913
vt 0.280712 0.734913
vt 0.250538 0.765087
vt 0.250538 0.734913
vt 0.280712 0.734913
vt 0.280712 0.765087
vt 0.250538 0.765087
vt 0.250538 0.734913
vt 0.280712 0.734913
vt 0.280712 0.765087
vt 0.250538 0.765087
vn 0.0000 -1.0000 0.0000
vn 0.9847 -0.1387 0.1060
vn -0.0563 -0.1693 -0.9839
vn -0.9527 0.2961 -0.0689
vn 0.9092 0.4048 0.0979
vn -0.9926 -0.0976 -0.0717
vn 0.9372 -0.1405 -0.3193
vn -0.9715 -0.1063 0.2118
vn 0.0564 -0.1596 0.9856
vn 0.0000 1.0000 0.0000
vn 0.8636 0.4093 -0.2943
vn -0.9256 0.3202 0.2018
vn 0.0509 0.4551 0.8890
vn -0.0502 0.4774 -0.8773
usemtl color2
f 1/1/1 2/2/1 3/3/1 4/4/1 5/5/1 6/6/1
f 2/7/2 1/8/2 7/9/2 8/10/2
f 6/11/3 5/12/3 9/13/3 10/14/3
f 11/15/4 12/16/4 13/17/4 14/18/4
f 8/19/5 7/20/5 15/21/5 16/22/5
f 4/23/6 3/24/6 12/25/6 11/26/6
f 1/27/7 6/28/7 10/29/7 7/30/7
f 5/31/8 4/32/8 11/33/8 9/34/8
f 3/35/9 2/36/9 8/37/9 12/38/9
f 17/39/10 18/40/10 14/41/10 15/42/10
f 15/43/10 14/44/10 13/17/10 16/22/10
f 7/45/11 10/46/11 17/47/11 15/42/11
f 9/48/12 11/49/12 14/41/12 18/50/12
f 12/51/13 8/52/13 16/53/13 13/54/13
f 10/55/14 9/56/14 18/57/14 17/58/14
