mtllib LOW_POLY_set.mtl
o lp_Rock_Type4_01_mesh_001_Circle_012
v 36.770283 0.239150 16.473495
v 35.555141 0.239150 16.057739
v 36.062492 0.239150 14.735315
v 34.167778 0.239150 17.639750
v 35.442860 0.239150 18.558954
v 36.840897 0.239150 18.348930
v 37.546551 0.239150 17.218153
v 38.750690 0.239150 16.441906
v 38.227100 0.239150 14.519943
v 37.252697 0.239150 14.999780
v 34.980614 0.239150 15.346070
v 35.194954 0.239150 14.787380
v 38.064983 0.239150 17.749849
v 37.681835 0.239150 18.363825
v 39.036415 0.239150 14.637608
v 39.376640 0.239150 15.886480
v 34.747025 0.239150 19.113787
v 34.160877 0.239150 18.691231
v 34.980614 0.616155 15.346070
v 35.555141 0.616155 16.057739
v 35.677418 1.011820 15.863565
v 35.272488 1.011820 15.361979
v 34.167778 0.616155 17.639750
v 34.414444 0.911150 17.606152
v 35.620369 0.911150 16.231033
v 35.442860 0.616155 18.558954
v 35.522770 0.911150 18.405144
v 36.840897 0.616155 18.348930
v 36.737976 0.911150 18.222586
v 37.546551 0.616155 17.218153
v 37.351345 0.911150 17.239689
v 38.750690 0.616155 16.441906
v 36.770283 0.616155 16.473495
v 36.991066 0.800527 16.530605
v 38.495636 0.800527 16.506605
v 39.376640 0.616155 15.886480
v 39.036415 0.616155 14.637608
v 38.949097 0.977414 14.730906
v 39.252220 0.977414 15.843595
v 38.227100 0.616155 14.519943
v 37.252697 0.616155 14.999780
v 37.359882 0.977414 15.053585
v 38.228031 0.977414 14.626072
v 36.062492 0.616155 14.735315
v 36.035000 1.011820 14.931518
v 36.873859 1.011820 15.117913
v 35.194954 0.616155 14.787380
v 35.423557 1.011820 14.968213
v 37.681835 0.616155 18.363825
v 37.623425 0.854977 18.189049
v 37.113785 0.854977 18.180021
v 34.160877 0.616155 18.691231
v 34.269245 0.854977 18.647236
v 34.274551 0.854977 17.838844
v 34.747025 0.616155 19.113787
v 38.064983 0.616155 17.749849
v 36.930073 0.977414 16.366600
v 38.694527 0.977414 16.338453
v 36.533852 1.011820 16.156591
v 36.676598 0.911150 16.592419
v 37.580818 0.800527 17.096342
v 37.541435 0.854977 17.494732
v 37.855625 0.854977 17.816957
v 35.254852 0.854977 18.545540
v 34.719887 0.854977 18.972101
vt 0.662543 0.225043
vt 0.728082 0.225043
vt 0.728082 0.290582
vt 0.264106 0.232856
vt 0.329644 0.232856
vt 0.329644 0.298394
vt 0.329644 0.232856
vt 0.329644 0.298394
vt 0.329644 0.232856
vt 0.329644 0.298394
vt 0.329644 0.232856
vt 0.329644 0.298394
vt 0.329644 0.232856
vt 0.329644 0.298394
vt 0.182074 0.721137
vt 0.247613 0.721137
vt 0.247613 0.786676
vt 0.247613 0.721137
vt 0.247613 0.786676
vt 0.728082 0.225043
vt 0.728082 0.290582
vt 0.662543 0.225043
vt 0.728082 0.225043
vt 0.728082 0.290582
vt 0.662543 0.290582
vt 0.662543 0.225043
vt 0.728082 0.225043
vt 0.728082 0.290582
vt 0.662543 0.290582
vt 0.182074 0.721137
vt 0.247613 0.721137
vt 0.247613 0.786676
vt 0.182074 0.786676
vt 0.228949 0.725043
vt 0.294488 0.725043
vt 0.294488 0.790582
vt 0.228949 0.790582
vt 0.713324 0.228949
vt 0.778863 0.228949
vt 0.778863 0.294488
vt 0.713324 0.294488
vt 0.264106 0.232856
vt 0.329644 0.232856
vt 0.329644 0.298394
vt 0.264106 0.298394
vt 0.264106 0.232856
vt 0.329644 0.232856
vt 0.329644 0.298394
vt 0.264106 0.298394
vt 0.264106 0.232856
vt 0.329644 0.232856
vt 0.329644 0.298394
vt 0.264106 0.298394
vt 0.264106 0.232856
vt 0.329644 0.232856
vt 0.329644 0.298394
vt 0.264106 0.298394
vt 0.264106 0.232856
vt 0.329644 0.232856
vt 0.329644 0.298394
vt 0.264106 0.298394
vt 0.178168 0.709418
vt 0.243707 0.709418
vt 0.243707 0.774957
vt 0.178168 0.774957
vt 0.178168 0.709418
vt 0.243707 0.709418
vt 0.243707 0.774957
vt 0.178168 0.774957
vt 0.713324 0.228949
vt 0.778863 0.228949
vt 0.778863 0.294488
vt 0.713324 0.294488
vt 0.713324 0.228949
vt 0.778863 0.228949
vt 0.778863 0.294488
vt 0.713324 0.294488
vt 0.713324 0.228949
vt 0.778863 0.228949
vt 0.778863 0.294488
vt 0.713324 0.294488
vt 0.178168 0.709418
vt 0.243707 0.709418
vt 0.243707 0.774957
vt 0.178168 0.774957
vt 0.178168 0.709418
vt 0.243707 0.709418
vt 0.243707 0.774957
vt 0.178168 0.774957
vt 0.178168 0.709418
vt 0.243707 0.709418
vt 0.243707 0.774957
vt 0.178168 0.774957
vt 0.264106 0.232856
vt 0.329644 0.298394
vt 0.264106 0.298394
vt 0.713324 0.228949
vt 0.778863 0.228949
vt 0.778863 0.294488
vt 0.713324 0.294488
vt 0.178168 0.709418
vt 0.243707 0.709418
vt 0.243707 0.774957
vt 0.178168 0.774957
vt 0.713324 0.228949
vt 0.778863 0.228949
vt 0.778863 0.294488
vt 0.713324 0.294488
vt 0.178168 0.709418
vt 0.243707 0.709418
vt 0.243707 0.774957
vt 0.178168 0.774957
vt 0.713324 0.228949
vt 0.778863 0.228949
vt 0.778863 0.294488
vt 0.713324 0.294488
vt 0.178168 0.709418
vt 0.243707 0.709418
vt 0.243707 0.774957
vt 0.178168 0.774957
vt 0.264106 0.232856
vt 0.329644 0.298394
vt 0.264106 0.298394
vt 0.713324 0.228949
vt 0.778863 0.228949
vt 0.778863 0.294488
vt 0.713324 0.294488
vt 0.264106 0.232856
vt 0.329644 0.298394
vt 0.264106 0.298394
vt 0.178168 0.709418
vt 0.243707 0.709418
vt 0.243707 0.774957
vt 0.178168 0.774957
vt 0.713324 0.228949
vt 0.778863 0.228949
vt 0.778863 0.294488
vt 0.713324 0.294488
vt 0.178168 0.709418
vt 0.243707 0.709418
vt 0.243707 0.774957
vt 0.178168 0.774957
vt 0.713324 0.228949
vt 0.778863 0.228949
vt 0.778863 0.294488
vt 0.713324 0.294488
vt 0.178168 0.709418
vt 0.243707 0.709418
vt 0.243707 0.774957
vt 0.178168 0.774957
vt 0.713324 0.228949
vt 0.778863 0.228949
vt 0.778863 0.294488
vt 0.713324 0.294488
vt 0.178168 0.709418
vt 0.243707 0.709418
vt 0.243707 0.709418
vt 0.178168 0.709418
vt 0.243707 0.774957
vt 0.178168 0.709418
vt 0.243707 0.709418
vt 0.243707 0.774957
vt 0.178168 0.774957
vt 0.178168 0.709418
vt 0.243707 0.709418
vt 0.178168 0.774957
vt 0.178168 0.709418
vt 0.243707 0.709418
vt 0.243707 0.774957
vt 0.178168 0.774957
vt 0.713324 0.228949
vt 0.778863 0.228949
vt 0.778863 0.228949
vt 0.713324 0.228949
vt 0.713324 0.228949
vt 0.778863 0.228949
vt 0.778863 0.294488
vt 0.713324 0.294488
vt 0.713324 0.228949
vt 0.778863 0.228949
vt 0.778863 0.294488
vt 0.713324 0.294488
vt 0.713324 0.228949
vt 0.778863 0.228949
vt 0.778863 0.294488
vt 0.713324 0.294488
vt 0.264106 0.232856
vt 0.329644 0.232856
vt 0.329644 0.232856
vt 0.329644 0.232856
vt 0.329644 0.232856
vt 0.264106 0.232856
vt 0.329644 0.232856
vt 0.329644 0.298394
vt 0.264106 0.298394
vt 0.264106 0.232856
vt 0.329644 0.298394
vt 0.264106 0.298394
vt 0.264106 0.232856
vt 0.329644 0.232856
vt 0.329644 0.298394
vt 0.329644 0.232856
vt 0.264106 0.298394
vt 0.329644 0.298394
vt 0.264106 0.298394
vt 0.713324 0.228949
vt 0.778863 0.228949
vt 0.713324 0.294488
vt 0.713324 0.228949
vt 0.778863 0.228949
vt 0.778863 0.294488
vt 0.713324 0.294488
vt 0.713324 0.228949
vt 0.778863 0.228949
vt 0.778863 0.294488
vt 0.713324 0.228949
vt 0.778863 0.228949
vt 0.778863 0.294488
vt 0.713324 0.294488
vt 0.178168 0.709418
vt 0.243707 0.709418
vt 0.178168 0.774957
vt 0.178168 0.709418
vt 0.243707 0.709418
vt 0.243707 0.774957
vt 0.178168 0.709418
vt 0.243707 0.709418
vt 0.243707 0.774957
vt 0.178168 0.774957
vt 0.178168 0.709418
vt 0.243707 0.709418
vt 0.243707 0.774957
vt 0.178168 0.774957
vn 0.0000 -1.0000 0.0000
vn -0.6821 0.4811 0.5507
vn -0.6578 0.4843 -0.5769
vn -0.5056 0.5026 0.7013
vn 0.1342 0.4293 0.8931
vn 0.7518 0.4633 0.4692
vn -0.0152 0.3124 -0.9498
vn 0.9239 0.2883 -0.2517
vn -0.4271 0.2559 -0.8673
vn 0.1941 0.4466 -0.8734
vn -0.0538 0.4406 -0.8961
vn -0.0143 0.5882 0.8086
vn 0.1382 0.2788 -0.9503
vn -0.9110 0.4123 -0.0060
vn 0.6234 0.0000 0.7819
vn 0.1486 0.0000 0.9889
vn -0.0177 0.0000 0.9998
vn -0.4418 0.0000 -0.8971
vn 0.7160 0.0000 -0.6981
vn 0.9648 0.0000 -0.2628
vn 0.2169 0.0000 -0.9762
vn 0.6637 0.0000 0.7480
vn -0.7518 0.0000 -0.6593
vn -0.9336 0.0000 -0.3582
vn 0.5418 0.0000 0.8405
vn 0.1439 0.0000 -0.9896
vn -0.0599 0.0000 -0.9982
vn -0.5848 0.0000 0.8112
vn -0.7781 0.0000 0.6282
vn -1.0000 0.0000 -0.0066
vn 0.8484 0.0000 0.5294
vn 0.0000 1.0000 -0.0000
vn -0.9030 0.3119 -0.2956
vn 0.6326 0.3025 0.7129
vn 0.0153 0.2775 0.9606
vn -0.7637 0.5752 -0.2930
vn 0.7360 0.6327 0.2409
vn -0.2819 0.4915 0.8240
vn 0.2914 0.4358 -0.8516
vn 0.6165 0.4549 -0.6427
vn 0.4932 0.4138 0.7651
vn -0.5922 0.5179 0.6173
vn -0.7291 0.5113 -0.4550
vn 0.5526 0.6358 -0.5388
vn 0.7291 0.5113 0.4550
vn 0.5498 0.4715 0.6895
vn 0.5402 0.3832 -0.7493
vn -0.5402 0.3831 0.7493
usemtl color1
f 1/1/1 2/2/1 3/3/1
f 1/4/1 4/5/1 2/6/1
f 1/4/1 5/7/1 4/8/1
f 1/4/1 6/9/1 5/10/1
f 1/4/1 7/11/1 6/12/1
f 1/4/1 8/13/1 7/14/1
f 1/15/1 9/16/1 8/17/1
f 1/15/1 10/18/1 9/19/1
f 1/1/1 3/20/1 10/21/1
f 2/22/1 11/23/1 12/24/1 3/25/1
f 7/26/1 13/27/1 14/28/1 6/29/1
f 9/30/1 15/31/1 16/32/1 8/33/1
f 5/34/1 17/35/1 18/36/1 4/37/1
f 19/38/2 20/39/2 21/40/2 22/41/2
f 20/42/3 23/43/3 24/44/3 25/45/3
f 23/46/4 26/47/4 27/48/4 24/49/4
f 26/50/5 28/51/5 29/52/5 27/53/5
f 28/54/6 30/55/6 31/56/6 29/57/6
f 32/58/7 33/59/7 34/60/7 35/61/7
f 36/62/8 37/63/8 38/64/8 39/65/8
f 40/66/9 41/67/9 42/68/9 43/69/9
f 41/70/10 44/71/10 45/72/10 46/73/10
f 44/74/11 47/75/11 48/76/11 45/77/11
f 28/78/12 49/79/12 50/80/12 51/81/12
f 37/82/13 40/83/13 43/84/13 38/85/13
f 23/86/14 52/87/14 53/88/14 54/89/14
f 17/90/15 5/91/15 26/92/15 55/93/15
f 5/94/16 6/9/16 28/95/16 26/96/16
f 6/97/17 14/98/17 49/99/17 28/100/17
f 9/101/18 10/102/18 41/103/18 40/104/18
f 13/105/19 7/106/19 30/107/19 56/108/19
f 16/109/20 15/110/20 37/111/20 36/112/20
f 10/113/21 3/114/21 44/115/21 41/116/21
f 8/117/22 16/118/22 36/119/22 32/120/22
f 2/121/23 4/5/23 23/122/23 20/123/23
f 12/124/24 11/125/24 19/126/24 47/127/24
f 7/128/25 8/13/25 32/129/25 30/130/25
f 15/131/26 9/132/26 40/133/26 37/134/26
f 3/135/27 12/136/27 47/137/27 44/138/27
f 18/139/28 17/140/28 55/141/28 52/142/28
f 11/143/29 2/144/29 20/145/29 19/146/29
f 4/147/30 18/148/30 52/149/30 23/150/30
f 14/151/31 13/152/31 56/153/31 49/154/31
f 57/155/32 58/156/32 43/84/32
f 57/155/32 43/157/32 42/68/32
f 43/158/32 58/156/32 39/159/32 38/85/32
f 41/160/33 33/161/33 57/162/33 42/163/33
f 32/164/34 36/165/34 39/159/34 58/166/34
f 33/167/35 32/168/35 58/169/35 57/170/35
f 59/171/32 45/172/32 21/40/32
f 59/171/32 46/173/32 45/72/32
f 21/174/32 45/172/32 48/76/32 22/41/32
f 47/175/36 19/176/36 22/177/36 48/178/36
f 33/179/37 41/180/37 46/181/37 59/182/37
f 20/183/38 33/184/38 59/185/38 21/186/38
f 60/187/32 25/188/32 24/44/32
f 60/187/32 24/189/32 27/48/32
f 60/187/32 27/190/32 29/52/32
f 60/187/32 29/191/32 31/56/32
f 33/192/39 20/193/39 25/194/39 60/195/39
f 30/196/40 33/59/40 60/197/40 31/198/40
f 34/199/32 61/200/32 35/201/32
f 30/196/41 32/202/41 35/201/41 61/203/41
f 33/192/42 30/55/42 61/204/42 34/205/42
f 62/206/32 51/207/32 50/80/32 63/208/32
f 30/209/43 28/210/43 51/211/43 62/212/43
f 56/213/44 30/214/44 62/215/44 63/208/44
f 49/216/45 56/217/45 63/218/45 50/219/45
f 64/220/32 54/221/32 53/88/32 65/222/32
f 55/223/46 26/224/46 64/225/46 65/222/46
f 26/226/47 23/227/47 54/228/47 64/229/47
f 52/230/48 55/231/48 65/232/48 53/233/48
