mtllib LOW_POLY_set.mtl
o lp_Rock_Type5_03_mesh_001_Cube_025
v 12.301694 1.657511 33.638855
v 12.790111 1.979414 34.429859
v 12.556888 1.307949 34.847122
v 11.637759 1.141810 34.258678
v 11.846160 1.992698 35.007305
v 11.556724 1.801937 34.538555
v 11.312401 2.267016 33.981716
v 11.808780 2.594168 34.785618
v 12.057854 2.919654 34.499363
v 11.561475 2.592502 33.695465
v 12.778835 2.444732 34.247456
v 12.290420 2.122829 33.456451
v 12.532771 0.427244 37.153294
v 10.999273 0.427244 37.669788
v 9.922638 0.427244 35.896839
v 10.375184 0.427244 34.643944
v 10.375184 3.908064 34.643944
v 9.922638 3.043302 35.896839
v 10.999273 1.010440 37.669788
v 12.532771 1.010440 37.153294
v 11.261660 3.908064 34.105629
v 13.419247 1.010440 36.614975
v 13.419247 0.427244 36.614975
v 11.261660 0.427244 34.105629
v 13.065815 1.010440 32.311543
v 14.652433 1.010440 32.629387
v 14.652433 0.427244 32.629387
v 13.065815 0.427244 32.311543
v 14.700445 1.636729 34.703079
v 14.700445 0.427244 34.703079
v 13.682950 2.501492 35.562874
v 12.646104 2.501492 35.586880
v 12.646104 0.427244 35.586880
v 13.682950 0.427244 35.562874
v 12.028969 1.010440 32.335548
v 12.028969 0.427244 32.335548
v 13.726274 0.699043 35.922958
v 14.382751 0.744280 35.776100
v 14.350817 1.307411 35.806812
v 13.616231 1.342480 35.629257
v 14.216063 1.145852 35.154694
v 13.827034 1.119045 35.241722
v 13.534044 0.702610 35.115250
v 14.201224 0.748583 34.965992
v 14.240696 0.416429 35.040127
v 13.573517 0.370456 35.189381
v 14.374382 0.429262 35.641663
v 13.717905 0.384025 35.788521
vt 0.167883 0.742101
vt 0.167883 0.773524
vt 0.199305 0.773524
vt 0.199305 0.742101
vt 0.167883 0.742101
vt 0.167883 0.773524
vt 0.199305 0.773524
vt 0.199305 0.742101
vt 0.167883 0.742101
vt 0.167883 0.773524
vt 0.199305 0.773524
vt 0.199305 0.742101
vt 0.167883 0.742101
vt 0.167883 0.773524
vt 0.199305 0.773524
vt 0.199305 0.742101
vt 0.167883 0.742101
vt 0.199305 0.742101
vt 0.167883 0.773524
vt 0.199305 0.773524
vt 0.167883 0.773524
vt 0.199305 0.773524
vt 0.199305 0.742101
vt 0.167883 0.742101
vt 0.199305 0.773524
vt 0.199305 0.742101
vt 0.167883 0.742101
vt 0.167883 0.773524
vt 0.167883 0.742101
vt 0.167883 0.773524
vt 0.199305 0.773524
vt 0.199305 0.742101
vt 0.226476 0.253820
vt 0.257899 0.253820
vt 0.257899 0.285242
vt 0.226476 0.285242
vt 0.226476 0.253820
vt 0.257899 0.253820
vt 0.257899 0.285242
vt 0.226476 0.285242
vt 0.226476 0.253820
vt 0.226476 0.285242
vt 0.226476 0.253820
vt 0.257899 0.253820
vt 0.257899 0.285242
vt 0.226476 0.285242
vt 0.226476 0.253820
vt 0.257899 0.253820
vt 0.257899 0.285242
vt 0.226476 0.285242
vt 0.257899 0.253820
vt 0.257899 0.285242
vt 0.257899 0.285242
vt 0.226476 0.285242
vt 0.226476 0.253820
vt 0.257899 0.253820
vt 0.226476 0.253820
vt 0.257899 0.253820
vt 0.257899 0.285242
vt 0.226476 0.285242
vt 0.226476 0.253820
vt 0.257899 0.253820
vt 0.257899 0.285242
vt 0.226476 0.285242
vt 0.667883 0.253820
vt 0.699305 0.253820
vt 0.699305 0.285242
vt 0.667883 0.285242
vt 0.667883 0.253820
vt 0.699305 0.253820
vt 0.699305 0.285242
vt 0.667883 0.285242
vt 0.667883 0.253820
vt 0.699305 0.253820
vt 0.699305 0.285242
vt 0.667883 0.285242
vt 0.667883 0.253820
vt 0.699305 0.253820
vt 0.699305 0.285242
vt 0.667883 0.285242
vt 0.667883 0.253820
vt 0.699305 0.253820
vt 0.699305 0.285242
vt 0.667883 0.285242
vt 0.699305 0.253820
vt 0.699305 0.285242
vt 0.667883 0.285242
vt 0.667883 0.253820
vt 0.699305 0.253820
vt 0.699305 0.285242
vt 0.667883 0.253820
vt 0.667883 0.285242
vt 0.667883 0.253820
vt 0.699305 0.253820
vt 0.699305 0.285242
vt 0.667883 0.285242
vt 0.167883 0.742101
vt 0.167883 0.773524
vt 0.199305 0.773524
vt 0.199305 0.742101
vt 0.167883 0.742101
vt 0.167883 0.773524
vt 0.199305 0.773524
vt 0.199305 0.742101
vt 0.167883 0.742101
vt 0.167883 0.773524
vt 0.199305 0.773524
vt 0.199305 0.742101
vt 0.167883 0.742101
vt 0.167883 0.773524
vt 0.199305 0.773524
vt 0.199305 0.742101
vt 0.167883 0.742101
vt 0.199305 0.742101
vt 0.167883 0.773524
vt 0.199305 0.773524
vt 0.167883 0.773524
vt 0.199305 0.773524
vt 0.199305 0.742101
vt 0.167883 0.742101
vt 0.199305 0.773524
vt 0.199305 0.742101
vt 0.167883 0.742101
vt 0.167883 0.773524
vt 0.167883 0.742101
vt 0.167883 0.773524
vt 0.199305 0.773524
vt 0.199305 0.742101
vn 0.5858 -0.7371 -0.3370
vn -0.4742 -0.5132 0.7154
vn -0.7108 0.6849 0.1602
vn 0.3329 0.7836 -0.5245
vn 0.4965 0.3272 0.8040
vn -0.7474 -0.3544 -0.5620
vn -0.4837 -0.3340 -0.8090
vn -0.8661 0.1246 0.4841
vn 0.8678 -0.1630 -0.4695
vn 0.0000 -1.0000 0.0000
vn 0.2555 0.7241 0.6407
vn -0.8547 0.0000 0.5190
vn -0.9405 0.0000 -0.3397
vn 0.7583 0.0000 -0.6520
vn -0.5190 0.0000 -0.8547
vn 0.3445 0.7479 0.5674
vn 0.3192 0.0000 0.9477
vn 0.5191 0.0000 0.8547
vn 0.1964 0.0000 -0.9805
vn 0.9997 0.0000 -0.0231
vn 0.0231 0.0000 0.9997
vn -0.9825 0.0000 0.1865
vn 0.2180 0.8972 -0.3840
vn -0.0096 0.9096 -0.4153
vn 0.6454 0.0000 0.7638
vn -0.0231 0.0000 -0.9997
vn -0.0231 0.2103 0.9774
vn 0.0347 0.9380 -0.3448
vn -0.1967 -0.2358 -0.9517
vn 0.0700 -0.9975 0.0057
vn 0.9737 0.0671 -0.2178
vn -0.9856 0.1630 -0.0453
vn -0.9702 -0.0683 0.2326
vn -0.2254 0.4249 -0.8767
vn 0.2266 -0.3874 0.8936
usemtl color4
f 1/1/1 2/2/1 3/3/1 4/4/1
f 4/5/2 3/6/2 5/7/2 6/8/2
f 7/9/3 8/10/3 9/11/3 10/12/3
f 10/13/4 9/14/4 11/15/4 12/16/4
f 2/17/5 8/10/5 5/7/5 3/18/5
f 7/9/6 1/19/6 4/20/6 6/8/6
f 10/13/7 12/21/7 1/22/7 7/23/7
f 11/24/5 9/14/5 8/25/5 2/26/5
f 6/27/8 5/28/8 8/25/8 7/23/8
f 12/29/9 11/30/9 2/31/9 1/32/9
f 13/33/10 14/34/10 15/35/10 16/36/10
f 17/37/11 18/38/11 19/39/11 20/40/11
f 19/41/12 18/38/12 15/35/12 14/42/12
f 18/43/13 17/44/13 16/45/13 15/46/13
f 21/47/14 22/48/14 23/49/14 24/50/14
f 17/37/15 21/51/15 24/52/15 16/36/15
f 21/47/16 17/44/16 20/53/16 22/54/16
f 23/55/10 13/56/10 16/45/10 24/50/10
f 20/57/17 19/58/17 14/59/17 13/60/17
f 22/61/18 20/62/18 13/63/18 23/64/18
f 25/65/19 26/66/19 27/67/19 28/68/19
f 26/69/20 29/70/20 30/71/20 27/72/20
f 31/73/21 32/74/21 33/75/21 34/76/21
f 32/77/22 35/78/22 36/79/22 33/80/22
f 28/81/10 27/82/10 30/71/10 34/76/10
f 31/73/23 29/70/23 26/83/23 25/84/23
f 32/77/24 31/85/24 25/86/24 35/87/24
f 36/88/10 28/89/10 34/90/10 33/80/10
f 29/91/25 31/85/25 34/90/25 30/92/25
f 35/93/26 25/94/26 28/95/26 36/96/26
f 37/97/27 38/98/27 39/99/27 40/100/27
f 40/101/28 39/102/28 41/103/28 42/104/28
f 43/105/29 44/106/29 45/107/29 46/108/29
f 46/109/30 45/110/30 47/111/30 48/112/30
f 38/113/31 44/106/31 41/103/31 39/114/31
f 43/105/32 37/115/32 40/116/32 42/104/32
f 46/109/33 48/117/33 37/118/33 43/119/33
f 47/120/31 45/110/31 44/121/31 38/122/31
f 42/123/34 41/124/34 44/121/34 43/119/34
f 48/125/35 47/126/35 38/127/35 37/128/35
