mtllib LOW_POLY_set.mtl
o lp_Rock_Type3_04_mesh_001_Cube_016
v 27.158678 0.949568 17.327814
v 27.350597 0.705749 17.047516
v 27.982004 0.008142 16.851774
v 28.078226 0.112680 17.325718
v 27.683836 1.132828 16.885658
v 28.446207 0.447408 16.660641
v 27.491917 1.376647 17.165956
v 27.793785 1.252280 17.427217
v 28.762524 0.773704 17.557526
v 28.666302 0.669165 17.083580
v 27.460546 0.825201 17.589073
v 28.283787 0.320684 17.754642
v 28.225796 0.949568 18.459641
v 28.085196 0.705749 18.150396
v 28.244308 0.008142 17.508780
v 28.699688 0.112680 17.671606
v 28.119064 1.132828 17.781481
v 28.320871 0.447408 17.012640
v 28.259663 1.376647 18.090727
v 28.639408 1.252280 17.967537
v 29.252058 0.773703 17.205896
v 28.796679 0.669165 17.043070
v 28.605539 0.825201 18.336452
v 29.173100 0.320684 17.717571
v 27.622086 0.949568 15.821234
v 27.961067 0.705749 15.799064
v 28.504976 0.008141 16.174767
v 28.191650 0.112680 16.543154
v 28.294176 1.132828 15.961188
v 28.941994 0.447408 16.421812
v 27.955193 1.376647 15.983359
v 27.936152 1.252280 16.382130
v 28.431963 0.773704 17.224512
v 28.745287 0.669165 16.856125
v 27.603043 0.825201 16.220005
v 27.981262 0.320684 16.969730
v 30.211805 0.949568 16.154251
v 30.131155 0.705749 16.484245
v 29.609455 0.008141 16.890226
v 29.352163 0.112680 16.480736
v 29.876480 1.132828 16.753292
v 29.242575 0.447408 17.232885
v 29.957130 1.376647 16.423298
v 29.582481 1.252280 16.285383
v 28.630089 0.773704 16.505342
v 28.887381 0.669165 16.914833
v 29.837156 0.825201 16.016336
v 29.008455 0.320684 16.151955
v 29.670759 1.193374 17.390667
v 29.557201 0.992795 17.543161
v 29.474318 0.373706 17.658710
v 29.617643 0.373706 17.364767
v 29.224804 1.046450 17.381086
v 29.078026 0.373706 17.465479
v 29.338364 1.247029 17.228590
v 29.388578 1.046450 17.045208
v 29.258928 0.373706 16.826029
v 29.115602 0.373706 17.119972
v 29.720974 0.992795 17.207285
v 29.667627 0.373706 17.025311
v 28.847668 1.649708 16.437153
v 29.137402 1.319265 16.556185
v 29.355648 0.299351 16.641329
v 28.828001 0.299351 16.532501
v 29.014336 1.407659 17.152859
v 29.208925 0.299351 17.352699
v 28.724600 1.738101 17.033827
v 28.411413 1.407659 17.028503
v 28.114477 0.299351 17.324871
v 28.642126 0.299351 17.433701
v 28.534479 1.319265 16.431829
v 28.265795 0.299351 16.591228
v 28.728016 1.267057 16.000750
v 28.945660 1.036479 15.980639
v 29.108141 0.324794 15.962697
v 28.746695 0.324794 16.066063
v 29.062548 1.098159 16.389370
v 29.247499 0.324794 16.449997
v 28.844904 1.328738 16.409479
v 28.649536 1.098159 16.507483
v 28.561792 0.324794 16.786764
v 28.923239 0.324794 16.683399
v 28.532648 1.036479 16.098751
v 28.418074 0.324794 16.284208
v 28.735960 1.545890 15.284904
v 29.005964 1.257717 15.326333
v 29.208424 0.368266 15.353711
v 28.738859 0.368266 15.369757
v 29.024109 1.334804 15.857327
v 29.230055 0.368266 15.986773
v 28.754103 1.622977 15.815898
v 28.487555 1.334804 15.875660
v 28.296698 0.368266 16.187798
v 28.766262 0.368266 16.171753
v 28.469412 1.257717 15.344667
v 28.274389 0.368266 15.534914
vt 0.225989 0.233801
vt 0.242761 0.233801
vt 0.242761 0.250574
vt 0.225989 0.250574
vt 0.225989 0.233801
vt 0.242761 0.233801
vt 0.242761 0.250574
vt 0.225989 0.250574
vt 0.225989 0.233801
vt 0.242761 0.233801
vt 0.242761 0.250574
vt 0.225989 0.250574
vt 0.225989 0.233801
vt 0.242761 0.233801
vt 0.242761 0.250574
vt 0.225989 0.250574
vt 0.225989 0.233801
vt 0.242761 0.233801
vt 0.242761 0.250574
vt 0.225989 0.250574
vt 0.242761 0.233801
vt 0.242761 0.250574
vt 0.225989 0.250574
vt 0.225989 0.233801
vt 0.242761 0.233801
vt 0.242761 0.250574
vt 0.225989 0.233801
vt 0.225989 0.250574
vt 0.225989 0.233801
vt 0.242761 0.233801
vt 0.242761 0.250574
vt 0.225989 0.250574
vt 0.784582 0.222082
vt 0.801355 0.222082
vt 0.801355 0.238855
vt 0.784582 0.238855
vt 0.784582 0.222082
vt 0.801355 0.222082
vt 0.801355 0.238855
vt 0.784582 0.238855
vt 0.784582 0.222082
vt 0.801355 0.222082
vt 0.801355 0.238855
vt 0.784582 0.238855
vt 0.784582 0.222082
vt 0.801355 0.222082
vt 0.801355 0.238855
vt 0.784582 0.238855
vt 0.784582 0.222082
vt 0.801355 0.222082
vt 0.801355 0.238855
vt 0.784582 0.238855
vt 0.801355 0.222082
vt 0.801355 0.238855
vt 0.784582 0.238855
vt 0.784582 0.222082
vt 0.801355 0.222082
vt 0.801355 0.238855
vt 0.784582 0.222082
vt 0.784582 0.238855
vt 0.784582 0.222082
vt 0.801355 0.222082
vt 0.801355 0.238855
vt 0.784582 0.238855
vt 0.202551 0.733801
vt 0.219324 0.733801
vt 0.219324 0.750574
vt 0.202551 0.750574
vt 0.202551 0.733801
vt 0.219324 0.733801
vt 0.219324 0.750574
vt 0.202551 0.750574
vt 0.202551 0.733801
vt 0.219324 0.733801
vt 0.219324 0.750574
vt 0.202551 0.750574
vt 0.202551 0.733801
vt 0.219324 0.733801
vt 0.219324 0.750574
vt 0.202551 0.750574
vt 0.202551 0.733801
vt 0.219324 0.733801
vt 0.219324 0.750574
vt 0.202551 0.750574
vt 0.219324 0.733801
vt 0.219324 0.750574
vt 0.202551 0.750574
vt 0.202551 0.733801
vt 0.219324 0.733801
vt 0.219324 0.750574
vt 0.202551 0.733801
vt 0.202551 0.750574
vt 0.202551 0.733801
vt 0.219324 0.733801
vt 0.219324 0.750574
vt 0.202551 0.750574
vt 0.202551 0.733801
vt 0.219324 0.733801
vt 0.219324 0.750574
vt 0.202551 0.750574
vt 0.202551 0.733801
vt 0.219324 0.733801
vt 0.219324 0.750574
vt 0.202551 0.750574
vt 0.202551 0.733801
vt 0.219324 0.733801
vt 0.219324 0.750574
vt 0.202551 0.750574
vt 0.202551 0.733801
vt 0.219324 0.733801
vt 0.219324 0.750574
vt 0.202551 0.750574
vt 0.202551 0.733801
vt 0.219324 0.733801
vt 0.219324 0.750574
vt 0.202551 0.750574
vt 0.219324 0.733801
vt 0.219324 0.750574
vt 0.202551 0.750574
vt 0.202551 0.733801
vt 0.219324 0.733801
vt 0.219324 0.750574
vt 0.202551 0.733801
vt 0.202551 0.750574
vt 0.202551 0.733801
vt 0.219324 0.733801
vt 0.219324 0.750574
vt 0.202551 0.750574
vt 0.225989 0.233801
vt 0.242761 0.233801
vt 0.242761 0.250574
vt 0.225989 0.250574
vt 0.225989 0.233801
vt 0.242761 0.233801
vt 0.242761 0.250574
vt 0.225989 0.250574
vt 0.225989 0.233801
vt 0.242761 0.233801
vt 0.242761 0.250574
vt 0.225989 0.250574
vt 0.225989 0.233801
vt 0.242761 0.233801
vt 0.242761 0.250574
vt 0.225989 0.250574
vt 0.225989 0.233801
vt 0.242761 0.233801
vt 0.242761 0.250574
vt 0.225989 0.250574
vt 0.242761 0.233801
vt 0.242761 0.250574
vt 0.225989 0.250574
vt 0.225989 0.233801
vt 0.242761 0.233801
vt 0.242761 0.250574
vt 0.225989 0.233801
vt 0.225989 0.250574
vt 0.225989 0.233801
vt 0.242761 0.233801
vt 0.242761 0.250574
vt 0.225989 0.250574
vt 0.202551 0.733801
vt 0.219324 0.733801
vt 0.219324 0.750574
vt 0.202551 0.750574
vt 0.202551 0.733801
vt 0.219324 0.733801
vt 0.219324 0.750574
vt 0.202551 0.750574
vt 0.202551 0.733801
vt 0.219324 0.733801
vt 0.219324 0.750574
vt 0.202551 0.750574
vt 0.202551 0.733801
vt 0.219324 0.733801
vt 0.219324 0.750574
vt 0.202551 0.750574
vt 0.202551 0.733801
vt 0.219324 0.733801
vt 0.219324 0.750574
vt 0.202551 0.750574
vt 0.219324 0.733801
vt 0.219324 0.750574
vt 0.202551 0.750574
vt 0.202551 0.733801
vt 0.219324 0.733801
vt 0.219324 0.750574
vt 0.202551 0.733801
vt 0.202551 0.750574
vt 0.202551 0.733801
vt 0.219324 0.733801
vt 0.219324 0.750574
vt 0.202551 0.750574
vt 0.225989 0.233801
vt 0.242761 0.233801
vt 0.242761 0.250574
vt 0.225989 0.250574
vt 0.225989 0.233801
vt 0.242761 0.233801
vt 0.242761 0.250574
vt 0.225989 0.250574
vt 0.225989 0.233801
vt 0.242761 0.233801
vt 0.242761 0.250574
vt 0.225989 0.250574
vt 0.225989 0.233801
vt 0.242761 0.233801
vt 0.242761 0.250574
vt 0.225989 0.250574
vt 0.225989 0.233801
vt 0.242761 0.233801
vt 0.242761 0.250574
vt 0.225989 0.250574
vt 0.242761 0.233801
vt 0.242761 0.250574
vt 0.225989 0.250574
vt 0.225989 0.233801
vt 0.242761 0.233801
vt 0.242761 0.250574
vt 0.225989 0.233801
vt 0.225989 0.250574
vt 0.225989 0.233801
vt 0.242761 0.233801
vt 0.242761 0.250574
vt 0.225989 0.250574
vt 0.784582 0.222082
vt 0.801355 0.222082
vt 0.801355 0.238855
vt 0.784582 0.238855
vt 0.784582 0.222082
vt 0.801355 0.222082
vt 0.801355 0.238855
vt 0.784582 0.238855
vt 0.784582 0.222082
vt 0.801355 0.222082
vt 0.801355 0.238855
vt 0.784582 0.238855
vt 0.784582 0.222082
vt 0.801355 0.222082
vt 0.801355 0.238855
vt 0.784582 0.238855
vt 0.784582 0.222082
vt 0.801355 0.222082
vt 0.801355 0.238855
vt 0.784582 0.238855
vt 0.801355 0.222082
vt 0.801355 0.238855
vt 0.784582 0.238855
vt 0.784582 0.222082
vt 0.801355 0.222082
vt 0.801355 0.238855
vt 0.784582 0.222082
vt 0.784582 0.238855
vt 0.784582 0.222082
vt 0.801355 0.222082
vt 0.801355 0.238855
vt 0.784582 0.238855
vn -0.6669 -0.7051 0.2411
vn -0.3456 -0.0634 -0.9363
vn 0.4748 0.8484 -0.2342
vn 0.0365 0.3484 0.9366
vn 0.6913 -0.7223 0.0190
vn -0.6735 0.2638 -0.6906
vn -0.3869 0.5751 0.7208
vn 0.4494 0.7365 -0.5056
vn -0.5595 -0.6669 0.4922
vn -0.1387 -0.7051 0.6954
vn -0.9800 -0.0634 -0.1886
vn 0.0452 0.8484 -0.5274
vn 0.8204 0.3484 0.4533
vn 0.3739 -0.7223 -0.5818
vn -0.9394 0.2638 0.2191
vn 0.4167 0.5751 0.7040
vn -0.2002 0.7365 -0.6462
vn 0.1318 -0.6669 0.7334
vn -0.6014 -0.7051 -0.3756
vn 0.5229 -0.0634 -0.8500
vn 0.4774 0.8484 0.2288
vn -0.7141 0.3484 0.6072
vn 0.4120 -0.7223 0.5554
vn 0.1272 0.2638 -0.9562
vn -0.8059 0.5751 0.1409
vn 0.6752 0.7365 0.0412
vn -0.7326 -0.6669 -0.1361
vn 0.5389 -0.7051 -0.4609
vn 0.6537 -0.0634 0.7541
vn -0.3616 0.8484 0.3867
vn -0.3647 0.3484 -0.8635
vn -0.6535 -0.7223 0.2262
vn 0.8738 0.2638 0.4085
vn 0.1076 0.5751 -0.8110
vn -0.2421 0.7365 0.6317
vn 0.3498 -0.6669 -0.6579
vn 0.8756 -0.0529 0.4801
vn -0.4158 0.2108 0.8847
vn -0.8387 0.2890 -0.4615
vn 0.4408 0.2087 -0.8730
vn -0.0000 -1.0000 0.0000
vn -0.2356 0.6692 0.7047
vn 0.4102 0.6692 -0.6196
vn -0.9530 0.2309 -0.1962
vn 0.9686 -0.1043 0.2256
vn 0.2483 -0.0529 -0.9672
vn 0.9601 0.2108 0.1838
vn -0.2394 0.2890 0.9269
vn -0.9550 0.2087 -0.2108
vn 0.7411 0.6692 0.0537
vn -0.7019 0.6692 -0.2439
vn 0.0459 0.2309 0.9719
vn -0.0213 -0.1043 -0.9943
vn -0.2283 -0.0529 -0.9721
vn 0.9359 0.2108 -0.2822
vn 0.2175 0.2890 0.9323
vn -0.9439 0.2087 0.2558
vn 0.6816 0.6692 -0.2959
vn -0.7350 0.6692 0.1092
vn 0.4912 0.2309 0.8399
vn -0.4797 -0.1043 -0.8712
vn 0.0137 -0.0529 -0.9985
vn 0.9764 0.2108 -0.0473
vn -0.0146 0.2890 0.9572
vn -0.9778 0.2087 0.0198
vn 0.7330 0.6692 -0.1222
vn -0.7396 0.6692 -0.0719
vn 0.2733 0.2309 0.9338
vn -0.2547 -0.1043 -0.9614
usemtl color1
f 1/1/1 2/2/1 3/3/1 4/4/1
f 2/5/2 5/6/2 6/7/2 3/8/2
f 7/9/3 8/10/3 9/11/3 10/12/3
f 8/13/4 11/14/4 12/15/4 9/16/4
f 4/17/5 3/18/5 6/7/5 10/12/5
f 7/9/6 5/6/6 2/19/6 1/20/6
f 8/13/7 7/21/7 1/22/7 11/23/7
f 12/24/5 4/25/5 10/26/5 9/16/5
f 5/27/8 7/21/8 10/26/8 6/28/8
f 11/29/9 1/30/9 4/31/9 12/32/9
f 13/33/10 14/34/10 15/35/10 16/36/10
f 14/37/11 17/38/11 18/39/11 15/40/11
f 19/41/12 20/42/12 21/43/12 22/44/12
f 20/45/13 23/46/13 24/47/13 21/48/13
f 16/49/14 15/50/14 18/39/14 22/44/14
f 19/41/15 17/38/15 14/51/15 13/52/15
f 20/45/16 19/53/16 13/54/16 23/55/16
f 24/56/14 16/57/14 22/58/14 21/48/14
f 17/59/17 19/53/17 22/58/17 18/60/17
f 23/61/18 13/62/18 16/63/18 24/64/18
f 25/65/19 26/66/19 27/67/19 28/68/19
f 26/69/20 29/70/20 30/71/20 27/72/20
f 31/73/21 32/74/21 33/75/21 34/76/21
f 32/77/22 35/78/22 36/79/22 33/80/22
f 28/81/23 27/82/23 30/71/23 34/76/23
f 31/73/24 29/70/24 26/83/24 25/84/24
f 32/77/25 31/85/25 25/86/25 35/87/25
f 36/88/23 28/89/23 34/90/23 33/80/23
f 29/91/26 31/85/26 34/90/26 30/92/26
f 35/93/27 25/94/27 28/95/27 36/96/27
f 37/97/28 38/98/28 39/99/28 40/100/28
f 38/101/29 41/102/29 42/103/29 39/104/29
f 43/105/30 44/106/30 45/107/30 46/108/30
f 44/109/31 47/110/31 48/111/31 45/112/31
f 40/113/32 39/114/32 42/103/32 46/108/32
f 43/105/33 41/102/33 38/115/33 37/116/33
f 44/109/34 43/117/34 37/118/34 47/119/34
f 48/120/32 40/121/32 46/122/32 45/112/32
f 41/123/35 43/117/35 46/122/35 42/124/35
f 47/125/36 37/126/36 40/127/36 48/128/36
f 49/129/37 50/130/37 51/131/37 52/132/37
f 50/133/38 53/134/38 54/135/38 51/136/38
f 55/137/39 56/138/39 57/139/39 58/140/39
f 56/141/40 59/142/40 60/143/40 57/144/40
f 52/145/41 51/146/41 54/135/41 58/140/41
f 55/137/42 53/134/42 50/147/42 49/148/42
f 56/141/43 55/149/43 49/150/43 59/151/43
f 60/152/41 52/153/41 58/154/41 57/144/41
f 53/155/44 55/149/44 58/154/44 54/156/44
f 59/157/45 49/158/45 52/159/45 60/160/45
f 61/161/46 62/162/46 63/163/46 64/164/46
f 62/165/47 65/166/47 66/167/47 63/168/47
f 67/169/48 68/170/48 69/171/48 70/172/48
f 68/173/49 71/174/49 72/175/49 69/176/49
f 64/177/41 63/178/41 66/167/41 70/172/41
f 67/169/50 65/166/50 62/179/50 61/180/50
f 68/173/51 67/181/51 61/182/51 71/183/51
f 72/184/41 64/185/41 70/186/41 69/176/41
f 65/187/52 67/181/52 70/186/52 66/188/52
f 71/189/53 61/190/53 64/191/53 72/192/53
f 73/193/54 74/194/54 75/195/54 76/196/54
f 74/197/55 77/198/55 78/199/55 75/200/55
f 79/201/56 80/202/56 81/203/56 82/204/56
f 80/205/57 83/206/57 84/207/57 81/208/57
f 76/209/41 75/210/41 78/199/41 82/204/41
f 79/201/58 77/198/58 74/211/58 73/212/58
f 80/205/59 79/213/59 73/214/59 83/215/59
f 84/216/41 76/217/41 82/218/41 81/208/41
f 77/219/60 79/213/60 82/218/60 78/220/60
f 83/221/61 73/222/61 76/223/61 84/224/61
f 85/225/62 86/226/62 87/227/62 88/228/62
f 86/229/63 89/230/63 90/231/63 87/232/63
f 91/233/64 92/234/64 93/235/64 94/236/64
f 92/237/65 95/238/65 96/239/65 93/240/65
f 88/241/41 87/242/41 90/231/41 94/236/41
f 91/233/66 89/230/66 86/243/66 85/244/66
f 92/237/67 91/245/67 85/246/67 95/247/67
f 96/248/41 88/249/41 94/250/41 93/240/41
f 89/251/68 91/245/68 94/250/68 90/252/68
f 95/253/69 85/254/69 88/255/69 96/256/69
