mtllib LOW_POLY_set.mtl
o lp_Rock_Type2_02_mesh_001_Cube_007
v 9.498725 0.796011 17.234543
v 9.828163 0.356864 17.059492
v 10.150179 0.250975 17.411348
v 10.075616 0.578678 17.820202
v 10.056994 0.605403 17.833176
v 10.433060 0.186170 17.071836
v 10.818902 0.568527 16.576212
v 11.215887 0.988070 16.792303
v 10.961318 0.749466 17.498850
v 10.734315 0.515576 17.542217
v 10.422594 0.181564 17.245390
v 10.381939 2.026348 16.438540
v 10.447158 1.866508 16.292107
v 10.008941 1.716967 16.389418
v 9.650020 1.895888 16.687521
v 10.203075 2.138718 16.603910
v 9.438642 1.831213 16.924047
v 10.232491 1.151116 17.874491
v 9.852158 2.069691 17.275389
v 10.219920 2.213478 17.091192
v 10.758649 1.970697 17.156807
v 10.766376 1.441428 16.219448
v 10.511288 0.625613 16.273678
v 10.872520 1.280325 17.643463
v 10.986192 1.757291 17.266539
v 11.225750 1.174033 16.735622
v 10.511505 0.542688 16.303188
v 10.235736 0.258576 16.683376
v 8.775344 1.187116 16.364138
v 8.497078 1.722692 16.664545
v 8.809802 1.743534 16.990574
v 9.519959 1.698331 17.632336
v 9.867874 1.587610 17.852350
v 9.954017 1.414447 17.751503
v 9.855273 1.229329 17.458296
v 8.871696 1.136048 16.403324
v 6.795209 0.443943 17.945238
v 6.692878 0.552357 17.982349
v 6.668988 0.588523 17.980078
v 6.628253 0.683470 17.942669
v 7.161093 1.057158 16.804165
v 7.542662 0.752685 16.565256
v 7.636745 0.364000 16.822321
v 9.053572 0.765959 16.654036
v 9.023043 0.414710 16.878897
v 8.140488 0.307236 16.891434
v 6.732420 1.286152 18.528881
v 7.063600 1.066497 19.153440
v 8.142010 1.330134 19.483162
v 7.522551 1.774841 18.256021
v 7.121598 1.755254 17.996899
v 8.976515 0.654858 19.632114
v 8.972176 0.651504 19.632385
v 8.975920 0.649153 19.629580
v 6.681115 0.569039 17.996309
v 8.414679 1.774841 17.862143
v 8.456095 0.658297 19.612907
v 7.434851 0.456320 19.298515
v 7.487250 0.352401 19.168310
v 7.897846 0.307236 19.132895
v 9.051321 0.451183 19.380198
v 8.271880 1.284650 19.526348
v 9.034781 0.788768 19.617130
v 10.031986 1.034375 18.093090
v 9.983485 0.739246 17.991785
v 9.872092 0.797780 17.605097
v 9.845907 0.904117 17.494835
v 9.806507 0.527150 18.157875
v 9.168146 0.434494 17.036978
v 9.795925 1.355915 18.665956
v 8.247953 1.306006 19.517807
v 7.416340 1.715945 16.991442
v 7.203369 0.629704 19.217384
v 9.798561 1.343385 18.676880
v 8.417654 -0.017749 15.610725
v 8.228186 0.486750 15.205630
v 8.628022 0.697081 15.226049
v 9.508229 1.059216 15.337030
v 9.912868 1.126072 15.453251
v 9.969313 0.960702 15.583797
v 9.789477 0.671438 15.702018
v 8.523591 -0.024703 15.657159
v 7.085815 1.815514 16.966627
v 6.996324 1.909716 16.884653
v 6.971444 1.924685 16.852392
v 6.916796 1.928674 16.757149
v 7.038165 0.831122 16.049755
v 7.335209 0.415308 16.234793
v 7.523646 0.515696 16.659555
v 8.792217 0.048747 16.051300
v 8.850821 0.167178 16.448048
v 8.024767 0.412839 16.666901
v 7.178157 2.598584 16.309229
v 7.701888 3.010407 16.631891
v 8.816660 3.061907 16.322342
v 7.816616 2.247017 15.671776
v 7.354819 2.124548 15.677879
v 9.682878 2.763746 16.901434
v 9.679006 2.764371 16.905277
v 9.681746 2.760044 16.906366
v 6.988976 1.930562 16.873564
v 8.533570 1.620444 15.461028
v 9.184342 2.902596 16.959742
v 8.125925 2.864929 17.206539
v 8.138027 2.701772 17.267628
v 8.516901 2.534364 17.249956
v 9.681274 2.455300 17.025530
v 8.955346 3.050126 16.360123
v 9.727411 2.769335 16.761660
v 10.169350 1.145530 16.023159
v 10.103539 0.986541 16.287939
v 9.871181 0.682364 16.150652
v 9.806351 0.618527 16.024664
v 9.998737 1.133126 16.555187
v 9.038101 0.273763 16.449482
v 10.116707 1.827841 15.885437
v 8.929049 3.055317 16.340551
v 7.311572 1.106586 15.430407
v 7.873426 2.907422 17.049482
v 10.123255 1.833606 15.899830
vt 0.736111 0.267417
vt 0.752676 0.255382
vt 0.746349 0.235909
vt 0.725874 0.235909
vt 0.719546 0.255382
vt 0.736111 0.267417
vt 0.751195 0.258709
vt 0.751195 0.241291
vt 0.736111 0.232583
vt 0.721027 0.241291
vt 0.721027 0.258709
vt 0.736111 0.267417
vt 0.752676 0.255382
vt 0.746349 0.235909
vt 0.725874 0.235909
vt 0.719546 0.255382
vt 0.736111 0.267417
vt 0.752676 0.255382
vt 0.746349 0.235909
vt 0.725874 0.235909
vt 0.719546 0.255382
vt 0.718694 0.232583
vt 0.753528 0.232583
vt 0.753528 0.267417
vt 0.718694 0.267417
vt 0.718694 0.232583
vt 0.753528 0.232583
vt 0.753528 0.267417
vt 0.718694 0.267417
vt 0.752676 0.255382
vt 0.746349 0.235909
vt 0.725874 0.235909
vt 0.719546 0.255382
vt 0.736111 0.267417
vt 0.751195 0.258709
vt 0.751195 0.241291
vt 0.736111 0.232583
vt 0.721027 0.241291
vt 0.721027 0.258709
vt 0.736111 0.267417
vt 0.751195 0.258709
vt 0.751195 0.241291
vt 0.736111 0.232583
vt 0.721027 0.241291
vt 0.721027 0.258709
vt 0.748427 0.262316
vt 0.753528 0.250000
vt 0.748427 0.237684
vt 0.736111 0.232583
vt 0.723795 0.237684
vt 0.718694 0.250000
vt 0.723795 0.262316
vt 0.718694 0.232583
vt 0.753528 0.232583
vt 0.753528 0.267417
vt 0.718694 0.267417
vt 0.718694 0.232583
vt 0.753528 0.232583
vt 0.753528 0.267417
vt 0.718694 0.267417
vt 0.736111 0.267417
vt 0.751195 0.258709
vt 0.751195 0.241291
vt 0.736111 0.232583
vt 0.721027 0.241291
vt 0.721027 0.258709
vt 0.752676 0.255382
vt 0.746349 0.235909
vt 0.725874 0.235909
vt 0.719546 0.255382
vt 0.736111 0.267417
vt 0.752676 0.255382
vt 0.746349 0.235909
vt 0.725874 0.235909
vt 0.719546 0.255382
vt 0.751195 0.258709
vt 0.751195 0.241291
vt 0.736111 0.232583
vt 0.721027 0.241291
vt 0.721027 0.258709
vt 0.236111 0.751213
vt 0.248427 0.746112
vt 0.253528 0.733796
vt 0.248427 0.721480
vt 0.236111 0.716379
vt 0.223795 0.721480
vt 0.218694 0.733796
vt 0.223795 0.746112
vt 0.236111 0.751213
vt 0.249728 0.744656
vt 0.253092 0.729921
vt 0.243668 0.718104
vt 0.228554 0.718104
vt 0.219131 0.729921
vt 0.222494 0.744656
vt 0.236111 0.751213
vt 0.249728 0.744656
vt 0.253092 0.729921
vt 0.243668 0.718104
vt 0.228554 0.718104
vt 0.219131 0.729921
vt 0.222494 0.744656
vt 0.236111 0.751213
vt 0.252676 0.739178
vt 0.246349 0.719706
vt 0.225874 0.719706
vt 0.219546 0.739178
vt 0.218694 0.716379
vt 0.253528 0.716379
vt 0.253528 0.751213
vt 0.218694 0.716379
vt 0.253528 0.716379
vt 0.253528 0.751213
vt 0.218694 0.716379
vt 0.253528 0.716379
vt 0.253528 0.751213
vt 0.236111 0.751213
vt 0.249728 0.744656
vt 0.253092 0.729921
vt 0.243668 0.718104
vt 0.228554 0.718104
vt 0.219131 0.729921
vt 0.222494 0.744656
vt 0.236111 0.751213
vt 0.252676 0.739178
vt 0.246349 0.719706
vt 0.225874 0.719706
vt 0.219546 0.739178
vt 0.236111 0.751213
vt 0.251195 0.742505
vt 0.251195 0.725088
vt 0.236111 0.716379
vt 0.221027 0.725088
vt 0.221027 0.742505
vt 0.218694 0.716379
vt 0.253528 0.716379
vt 0.253528 0.751213
vt 0.218694 0.751213
vt 0.236111 0.751213
vt 0.249728 0.744656
vt 0.253092 0.729921
vt 0.243668 0.718104
vt 0.228554 0.718104
vt 0.219131 0.729921
vt 0.222494 0.744656
vt 0.236111 0.751213
vt 0.251195 0.742505
vt 0.251195 0.725088
vt 0.236111 0.716379
vt 0.221027 0.725088
vt 0.221027 0.742505
vt 0.218694 0.716379
vt 0.253528 0.716379
vt 0.253528 0.751213
vt 0.218694 0.751213
vt 0.236111 0.751213
vt 0.252676 0.739178
vt 0.246349 0.719706
vt 0.225874 0.719706
vt 0.219546 0.739178
vt 0.236111 0.751213
vt 0.251195 0.742505
vt 0.251195 0.725088
vt 0.236111 0.716379
vt 0.221027 0.725088
vt 0.221027 0.742505
vt 0.236111 0.751213
vt 0.252676 0.739178
vt 0.246349 0.719706
vt 0.225874 0.719706
vt 0.252676 0.739178
vt 0.246349 0.719706
vt 0.225874 0.719706
vt 0.219546 0.739178
vt 0.236111 0.751213
vt 0.251195 0.742505
vt 0.251195 0.725088
vt 0.236111 0.716379
vt 0.221027 0.725088
vt 0.221027 0.742505
vt 0.236111 0.751213
vt 0.252676 0.739178
vt 0.246349 0.719706
vt 0.225874 0.719706
vt 0.219546 0.739178
vt 0.251195 0.742505
vt 0.251195 0.725088
vt 0.236111 0.716379
vt 0.221027 0.725088
vt 0.221027 0.742505
vt 0.236111 0.751213
vt 0.252676 0.739178
vt 0.246349 0.719706
vt 0.225874 0.719706
vt 0.219546 0.739178
vt 0.248427 0.746112
vt 0.253528 0.733796
vt 0.248427 0.721480
vt 0.236111 0.716379
vt 0.223795 0.721480
vt 0.218694 0.733796
vt 0.223795 0.746112
vt 0.236111 0.751213
vt 0.249728 0.744656
vt 0.253092 0.729921
vt 0.243668 0.718104
vt 0.228554 0.718104
vt 0.219131 0.729921
vt 0.222494 0.744656
vt 0.252676 0.739178
vt 0.246349 0.719706
vt 0.225874 0.719706
vt 0.219907 0.246584
vt 0.232223 0.241482
vt 0.237325 0.229167
vt 0.232223 0.216851
vt 0.219907 0.211750
vt 0.207592 0.216851
vt 0.202490 0.229167
vt 0.207592 0.241482
vt 0.219907 0.246584
vt 0.233525 0.240026
vt 0.236888 0.225291
vt 0.227464 0.213474
vt 0.212350 0.213474
vt 0.202927 0.225291
vt 0.206290 0.240026
vt 0.219907 0.246584
vt 0.233525 0.240026
vt 0.236888 0.225291
vt 0.227464 0.213474
vt 0.212350 0.213474
vt 0.202927 0.225291
vt 0.206290 0.240026
vt 0.219907 0.246584
vt 0.236472 0.234549
vt 0.230145 0.215076
vt 0.209670 0.215076
vt 0.203343 0.234549
vt 0.202490 0.211750
vt 0.237325 0.211750
vt 0.237325 0.246584
vt 0.202490 0.211750
vt 0.237325 0.211750
vt 0.237325 0.246584
vt 0.202490 0.211750
vt 0.237325 0.211750
vt 0.237325 0.246584
vt 0.219907 0.246584
vt 0.233525 0.240026
vt 0.236888 0.225291
vt 0.227464 0.213474
vt 0.212350 0.213474
vt 0.202927 0.225291
vt 0.206290 0.240026
vt 0.219907 0.246584
vt 0.236472 0.234549
vt 0.230145 0.215076
vt 0.209670 0.215076
vt 0.203343 0.234549
vt 0.219907 0.246584
vt 0.234991 0.237875
vt 0.234991 0.220458
vt 0.219907 0.211750
vt 0.204824 0.220458
vt 0.204824 0.237875
vt 0.202490 0.211750
vt 0.237325 0.211750
vt 0.237325 0.246584
vt 0.202490 0.246584
vt 0.219907 0.246584
vt 0.233525 0.240026
vt 0.236888 0.225291
vt 0.227464 0.213474
vt 0.212350 0.213474
vt 0.202927 0.225291
vt 0.206290 0.240026
vt 0.219907 0.246584
vt 0.234991 0.237875
vt 0.234991 0.220458
vt 0.219907 0.211750
vt 0.204824 0.220458
vt 0.204824 0.237875
vt 0.202490 0.211750
vt 0.237325 0.211750
vt 0.237325 0.246584
vt 0.202490 0.246584
vt 0.219907 0.246584
vt 0.236472 0.234549
vt 0.230145 0.215076
vt 0.209670 0.215076
vt 0.203343 0.234549
vt 0.219907 0.246584
vt 0.234991 0.237875
vt 0.234991 0.220458
vt 0.219907 0.211750
vt 0.204824 0.220458
vt 0.204824 0.237875
vt 0.219907 0.246584
vt 0.236472 0.234549
vt 0.230145 0.215076
vt 0.209670 0.215076
vt 0.236472 0.234549
vt 0.230145 0.215076
vt 0.209670 0.215076
vt 0.203343 0.234549
vt 0.219907 0.246584
vt 0.234991 0.237875
vt 0.234991 0.220458
vt 0.219907 0.211750
vt 0.204824 0.220458
vt 0.204824 0.237875
vt 0.219907 0.246584
vt 0.236472 0.234549
vt 0.230145 0.215076
vt 0.209670 0.215076
vt 0.203343 0.234549
vt 0.234991 0.237875
vt 0.234991 0.220458
vt 0.219907 0.211750
vt 0.204824 0.220458
vt 0.204824 0.237875
vt 0.219907 0.246584
vt 0.236472 0.234549
vt 0.230145 0.215076
vt 0.209670 0.215076
vt 0.203343 0.234549
vt 0.232223 0.241482
vt 0.237325 0.229167
vt 0.232223 0.216851
vt 0.219907 0.211750
vt 0.207592 0.216851
vt 0.202490 0.229167
vt 0.207592 0.241482
vt 0.219907 0.246584
vt 0.233525 0.240026
vt 0.236888 0.225291
vt 0.227464 0.213474
vt 0.212350 0.213474
vt 0.202927 0.225291
vt 0.206290 0.240026
vt 0.236472 0.234549
vt 0.230145 0.215076
vt 0.209670 0.215076
vn -0.6496 -0.6467 0.3999
vn 0.7197 -0.6939 0.0250
vn -0.3553 0.5485 -0.7569
vn -0.6931 0.1699 0.7005
vn 0.4214 0.8941 -0.1517
vn -0.2178 0.0032 -0.9760
vn -0.4146 0.9015 -0.1240
vn 0.1677 0.5863 0.7925
vn 0.7255 0.6019 -0.3339
vn -0.6888 -0.2447 -0.6824
vn 0.1963 -0.7473 0.6348
vn 0.3870 -0.8509 -0.3552
vn 0.6544 -0.2520 -0.7129
vn 0.9326 0.0590 0.3560
vn -0.2706 -0.9618 -0.0418
vn 0.3667 -0.1869 0.9114
vn 0.5536 0.6073 -0.5698
vn -0.7097 -0.5000 -0.4963
vn 0.0540 -0.5417 -0.8388
vn -0.3423 0.8147 0.4680
vn 0.3681 -0.4094 0.8348
vn -0.8325 -0.5524 -0.0412
vn 0.0680 0.9977 -0.0050
vn -0.0336 -0.7877 0.6151
vn -0.0357 0.1265 0.9913
vn 0.9568 -0.0595 -0.2846
vn 0.6123 -0.7363 -0.2879
vn 0.1245 0.9513 0.2819
vn -0.0198 0.9988 -0.0449
vn 0.7322 -0.0968 -0.6741
vn 0.6909 -0.4314 -0.5801
vn 0.1211 -0.9926 0.0131
vn -0.8691 0.4138 -0.2710
vn -0.2722 0.3592 -0.8927
vn -0.6371 -0.7067 0.3076
vn -0.1103 -0.9938 -0.0119
vn -0.8911 -0.2277 0.3925
vn 0.9185 0.3514 0.1813
vn 0.8193 -0.3020 0.4874
vn -0.3017 0.0429 0.9524
vn 0.3472 0.6567 0.6694
vn 0.3141 -0.5199 -0.7944
vn -0.8095 -0.3787 0.4486
vn -0.1957 -0.9314 0.3069
vn -0.2080 0.7533 -0.6238
vn 0.6353 0.5405 0.5516
vn -0.7769 0.0595 0.6268
vn 0.0199 0.2485 -0.9684
vn 0.2001 0.3565 0.9126
vn 0.2799 0.9516 0.1272
vn 0.8158 -0.5623 -0.1349
vn 0.5181 -0.6478 0.5585
vn 0.1676 0.4812 -0.8604
vn -0.0761 0.2386 -0.9681
vn 0.4797 -0.8615 -0.1664
vn 0.4852 -0.8549 0.1835
vn 0.1613 -0.2962 0.9414
vn -0.9270 0.1253 -0.3535
vn -0.5603 -0.6363 -0.5303
vn -0.4732 0.2779 0.8360
vn -0.0655 -0.2503 0.9660
vn -0.7067 0.5626 0.4290
vn 0.9120 -0.0124 -0.4100
vn 0.9448 0.1181 0.3057
vn 0.0195 0.9726 0.2319
vn 0.5157 0.6882 -0.5103
usemtl color1
f 1/1/1 2/2/1 3/3/1 4/4/1 5/5/1
f 6/6/2 7/7/2 8/8/2 9/9/2 10/10/2 11/11/2
f 12/12/3 13/13/3 14/14/3 15/15/3 16/16/3
f 17/17/4 1/18/4 5/19/4 18/20/4 19/21/4
f 12/22/5 16/23/5 20/24/5 21/25/5
f 22/26/6 23/27/6 14/28/6 13/29/6
f 17/17/7 19/30/7 20/31/7 16/32/7 15/33/7
f 18/34/8 24/35/8 25/36/8 21/37/8 20/38/8 19/39/8
f 25/40/9 26/41/9 22/42/9 13/43/9 12/44/9 21/45/9
f 1/1/10 17/46/10 15/47/10 14/48/10 23/49/10 27/50/10 28/51/10 2/52/10
f 11/53/11 10/54/11 4/55/11 3/56/11
f 7/57/12 6/58/12 28/59/12 27/60/12
f 26/61/13 8/62/13 7/63/13 27/64/13 23/65/13 22/66/13
f 26/61/14 25/67/14 24/68/14 9/69/14 8/70/14
f 28/71/15 6/72/15 11/73/15 3/74/15 2/75/15
f 18/34/16 5/76/16 4/77/16 10/78/16 9/79/16 24/80/16
f 29/81/17 30/82/17 31/83/17 32/84/17 33/85/17 34/86/17 35/87/17 36/88/17
f 37/89/18 38/90/18 39/91/18 40/92/18 41/93/18 42/94/18 43/95/18
f 43/96/19 42/97/19 29/98/19 36/99/19 44/100/19 45/101/19 46/102/19
f 47/103/20 48/104/20 49/105/20 50/106/20 51/107/20
f 52/108/21 53/109/21 54/110/21
f 39/111/22 38/112/22 55/113/22
f 32/114/23 31/115/23 56/116/23
f 57/117/24 58/118/24 59/119/24 60/120/24 61/121/24 54/122/24 53/123/24
f 62/124/25 57/125/25 53/126/25 52/127/25 63/128/25
f 34/129/26 64/130/26 65/131/26 66/132/26 67/133/26 35/134/26
f 65/135/27 68/136/27 69/137/27 66/138/27
f 70/139/28 33/140/28 32/141/28 56/142/28 50/143/28 49/144/28 71/145/28
f 30/146/29 72/147/29 51/148/29 50/149/29 56/150/29 31/151/29
f 67/152/30 44/153/30 36/154/30 35/155/30
f 66/156/31 69/157/31 45/158/31 44/159/31 67/160/31
f 68/161/32 61/162/32 60/163/32 46/164/32 45/165/32 69/166/32
f 72/167/33 41/168/33 40/169/33 47/170/33 51/107/33
f 29/81/34 42/171/34 41/172/34 72/173/34 30/174/34
f 55/175/35 38/176/35 37/177/35 59/178/35 58/179/35 73/180/35
f 46/181/36 60/182/36 59/183/36 37/184/36 43/185/36
f 47/103/37 40/186/37 39/187/37 55/188/37 73/189/37 48/190/37
f 64/191/38 34/192/38 33/193/38 70/194/38 74/195/38
f 64/191/39 74/196/39 63/197/39 52/198/39 54/199/39 61/200/39 68/201/39 65/202/39
f 48/203/40 73/204/40 58/205/40 57/206/40 62/207/40 71/208/40 49/209/40
f 70/139/41 71/210/41 62/211/41 63/212/41 74/195/41
f 75/213/42 76/214/42 77/215/42 78/216/42 79/217/42 80/218/42 81/219/42 82/220/42
f 83/221/43 84/222/43 85/223/43 86/224/43 87/225/43 88/226/43 89/227/43
f 89/228/44 88/229/44 75/230/44 82/231/44 90/232/44 91/233/44 92/234/44
f 93/235/45 94/236/45 95/237/45 96/238/45 97/239/45
f 98/240/46 99/241/46 100/242/46
f 85/243/47 84/244/47 101/245/47
f 78/246/48 77/247/48 102/248/48
f 103/249/49 104/250/49 105/251/49 106/252/49 107/253/49 100/254/49 99/255/49
f 108/256/50 103/257/50 99/258/50 98/259/50 109/260/50
f 80/261/51 110/262/51 111/263/51 112/264/51 113/265/51 81/266/51
f 111/267/52 114/268/52 115/269/52 112/270/52
f 116/271/53 79/272/53 78/273/53 102/274/53 96/275/53 95/276/53 117/277/53
f 76/278/54 118/279/54 97/280/54 96/281/54 102/282/54 77/283/54
f 113/284/55 90/285/55 82/286/55 81/287/55
f 112/288/56 115/289/56 91/290/56 90/291/56 113/292/56
f 114/293/57 107/294/57 106/295/57 92/296/57 91/297/57 115/298/57
f 118/299/58 87/300/58 86/301/58 93/302/58 97/239/58
f 75/213/59 88/303/59 87/304/59 118/305/59 76/306/59
f 101/307/60 84/308/60 83/309/60 105/310/60 104/311/60 119/312/60
f 92/313/61 106/314/61 105/315/61 83/316/61 89/317/61
f 93/235/62 86/318/62 85/319/62 101/320/62 119/321/62 94/322/62
f 110/323/63 80/324/63 79/325/63 116/326/63 120/327/63
f 110/323/64 120/328/64 109/329/64 98/330/64 100/331/64 107/332/64 114/333/64 111/334/64
f 94/335/65 119/336/65 104/337/65 103/338/65 108/339/65 117/340/65 95/341/65
f 116/271/66 117/342/66 108/343/66 109/344/66 120/327/66
