mtllib LOW_POLY_set.mtl
o lp_Rock_Type2_04_mesh_001_Cube_012
v -1.318208 0.298023 15.807308
v -1.888078 0.253045 15.734866
v -2.058709 0.675614 15.558711
v -1.656913 1.015184 15.500729
v -1.622427 1.020474 15.504203
v -2.404854 0.598093 15.830121
v -2.577438 0.611854 16.544783
v -2.497274 1.145774 16.842793
v -2.248674 1.408413 16.142675
v -2.235254 1.222613 15.871725
v -2.343336 0.712343 15.714302
v -1.367043 0.675613 17.475380
v -1.564945 0.565848 17.480947
v -1.335469 0.308124 17.157242
v -0.876482 0.342206 16.962635
v -1.117444 0.711474 17.383829
v -0.698075 0.353807 16.692736
v -1.367467 1.327285 15.917931
v -0.703630 0.938900 16.787315
v -0.918119 1.088434 17.135866
v -1.420103 1.406786 17.123972
v -2.084724 0.590759 17.350252
v -2.432363 0.218529 16.661663
v -1.790875 1.614032 16.385059
v -1.678040 1.565526 16.991199
v -2.400117 1.168407 17.009949
v -2.477400 0.214383 16.586151
v -2.352595 0.219567 16.051634
vt 0.238426 0.204360
vt 0.212632 0.223101
vt 0.222485 0.253423
vt 0.254367 0.253423
vt 0.264220 0.223101
vt 0.238426 0.204360
vt 0.214938 0.217921
vt 0.214938 0.245042
vt 0.238426 0.258603
vt 0.261914 0.245042
vt 0.261914 0.217921
vt 0.238426 0.204360
vt 0.212632 0.223101
vt 0.222485 0.253423
vt 0.254367 0.253423
vt 0.264220 0.223101
vt 0.238426 0.204360
vt 0.212632 0.223101
vt 0.222485 0.253423
vt 0.254367 0.253423
vt 0.264220 0.223101
vt 0.265547 0.258603
vt 0.211305 0.258603
vt 0.211305 0.204360
vt 0.265547 0.204360
vt 0.265547 0.258603
vt 0.211305 0.258603
vt 0.211305 0.204360
vt 0.265547 0.204360
vt 0.212632 0.223101
vt 0.222485 0.253423
vt 0.254367 0.253423
vt 0.264220 0.223101
vt 0.238426 0.204360
vt 0.214938 0.217921
vt 0.214938 0.245042
vt 0.238426 0.258603
vt 0.261914 0.245042
vt 0.261914 0.217921
vt 0.238426 0.204360
vt 0.214938 0.217921
vt 0.214938 0.245042
vt 0.238426 0.258603
vt 0.261914 0.245042
vt 0.261914 0.217921
vt 0.219248 0.212304
vt 0.211305 0.231481
vt 0.219248 0.250659
vt 0.238426 0.258603
vt 0.257603 0.250659
vt 0.265547 0.231481
vt 0.257603 0.212304
vt 0.265547 0.258603
vt 0.211305 0.258603
vt 0.211305 0.204360
vt 0.265547 0.204360
vt 0.265547 0.258603
vt 0.211305 0.258603
vt 0.211305 0.204360
vt 0.265547 0.204360
vt 0.238426 0.204360
vt 0.214938 0.217921
vt 0.214938 0.245042
vt 0.238426 0.258603
vt 0.261914 0.245042
vt 0.261914 0.217921
vt 0.212632 0.223101
vt 0.222485 0.253423
vt 0.254367 0.253423
vt 0.264220 0.223101
vt 0.238426 0.204360
vt 0.212632 0.223101
vt 0.222485 0.253423
vt 0.254367 0.253423
vt 0.264220 0.223101
vt 0.214938 0.217921
vt 0.214938 0.245042
vt 0.238426 0.258603
vt 0.261914 0.245042
vt 0.261914 0.217921
vn 0.1446 -0.3304 -0.9327
vn -0.9350 0.2693 -0.2310
vn 0.3507 -0.5956 0.7227
vn 0.8119 0.1007 -0.5750
vn 0.2547 0.4338 0.8642
vn -0.1741 -0.8268 0.5349
vn 0.8331 -0.0806 0.5472
vn 0.5358 0.8437 -0.0322
vn -0.2036 0.4121 0.8881
vn 0.0776 -0.9969 0.0085
vn -0.4149 0.3473 -0.8410
vn -0.9398 -0.2596 -0.2220
vn -0.8440 -0.1591 0.5121
vn -0.4728 0.8670 0.1574
vn -0.4653 -0.4940 -0.7345
vn -0.0689 0.8212 -0.5665
usemtl color3
f 1/1/1 2/2/1 3/3/1 4/4/1 5/5/1
f 6/6/2 7/7/2 8/8/2 9/9/2 10/10/2 11/11/2
f 12/12/3 13/13/3 14/14/3 15/15/3 16/16/3
f 17/17/4 1/18/4 5/19/4 18/20/4 19/21/4
f 12/22/5 16/23/5 20/24/5 21/25/5
f 22/26/6 23/27/6 14/28/6 13/29/6
f 17/17/7 19/30/7 20/31/7 16/32/7 15/33/7
f 18/34/8 24/35/8 25/36/8 21/37/8 20/38/8 19/39/8
f 25/40/9 26/41/9 22/42/9 13/43/9 12/44/9 21/45/9
f 1/1/10 17/46/10 15/47/10 14/48/10 23/49/10 27/50/10 28/51/10 2/52/10
f 11/53/11 10/54/11 4/55/11 3/56/11
f 7/57/12 6/58/12 28/59/12 27/60/12
f 26/61/13 8/62/13 7/63/13 27/64/13 23/65/13 22/66/13
f 26/61/14 25/67/14 24/68/14 9/69/14 8/70/14
f 28/71/15 6/72/15 11/73/15 3/74/15 2/75/15
f 18/34/16 5/76/16 4/77/16 10/78/16 9/79/16 24/80/16
