mtllib LOW_POLY_set.mtl
o lp_stone_with_moss_1_001_Cube_017
v 61.577873 1.375668 33.147160
v 61.882149 1.739374 32.988029
v 61.703205 1.771338 32.937019
v 61.483631 1.593278 33.002220
v 61.511349 1.817337 32.679672
v 61.117229 1.593278 32.647717
v 61.834850 2.180225 32.336823
v 61.495480 2.106859 32.062740
v 62.376877 1.787776 33.129051
v 62.679379 1.736969 32.921066
v 62.663208 1.847759 32.924328
v 62.373470 1.892050 33.106068
v 62.717083 2.179047 32.529076
v 62.344788 1.953954 32.008255
v 62.349224 2.036913 32.073158
v 62.700996 2.219313 32.541538
v 62.404804 1.375668 33.442448
v 61.588940 0.745981 33.208828
v 62.437374 0.745981 33.607243
v 63.301552 0.745981 32.383884
v 63.337032 1.007404 32.408276
v 62.960476 2.106859 32.387291
v 61.162754 1.693448 32.218346
v 60.947468 1.532137 32.400120
v 60.633713 1.463831 32.795952
v 61.018051 0.900735 33.716751
v 61.049953 0.745981 33.776932
v 60.207005 1.349593 32.926769
v 61.015457 1.539402 33.590542
v 60.074577 0.993856 32.991730
v 60.042263 0.745981 33.004913
v 62.038780 1.877958 31.819868
v 61.454041 1.782198 31.962242
v 61.321148 1.901020 32.043510
v 62.002213 0.745981 31.560415
v 62.008610 1.117680 31.541319
v 61.186958 0.745981 31.873880
v 61.214787 1.048459 31.858093
v 60.322594 0.745981 31.930082
v 60.322594 1.048459 31.930082
v 60.438454 1.280736 32.060570
v 61.328518 1.191321 31.859451
v 61.206924 1.218418 31.900049
v 61.137730 1.328597 31.887676
v 61.305183 1.263224 31.844391
v 61.534317 1.348244 31.834879
v 61.904091 1.849855 32.967449
v 62.177711 2.066247 32.243530
v 61.715221 1.877720 32.925171
v 60.612003 1.387287 32.053040
v 61.462444 1.368615 31.826571
v 60.443138 1.358085 32.521709
v 60.674965 1.463911 32.071255
v 61.537777 1.917819 32.681252
v 61.401817 1.780351 31.929565
v 61.274231 1.875562 32.012474
v 60.952030 1.669108 32.066643
v 61.120819 1.709236 32.185867
v 61.852333 2.234162 32.360447
v 62.217850 2.134803 32.272018
v 60.917740 1.579978 32.387054
v 60.644444 1.525245 32.700905
v 60.488113 1.440512 32.500965
v 62.305691 2.275874 32.757416
vt 0.950731 0.664529
vt 0.928003 0.664529
vt 0.928003 0.687257
vt 0.950731 0.687257
vt 0.644849 0.946081
vt 0.644849 0.923352
vt 0.598591 0.923352
vt 0.598591 0.946081
vt 0.880143 0.876293
vt 0.833885 0.876293
vt 0.833885 0.922551
vt 0.880143 0.922551
vt 0.438253 0.775174
vt 0.438253 0.752446
vt 0.427289 0.752446
vt 0.427289 0.775174
vt 0.239054 0.928115
vt 0.285312 0.928115
vt 0.285312 0.917151
vt 0.239054 0.917151
vt 0.880143 0.829235
vt 0.833885 0.829235
vt 0.833885 0.875493
vt 0.880143 0.875493
vt 0.833084 0.828434
vt 0.833084 0.735117
vt 0.786826 0.735117
vt 0.786826 0.828434
vt 0.738967 0.875493
vt 0.738967 0.829235
vt 0.645650 0.829235
vt 0.645650 0.875493
vt 0.904874 0.781375
vt 0.927202 0.781375
vt 0.927202 0.735517
vt 0.880143 0.735117
vt 0.833885 0.735117
vt 0.833885 0.781375
vt 0.880143 0.781375
vt 0.880143 0.546882
vt 0.833885 0.546882
vt 0.833885 0.640198
vt 0.880143 0.640198
vt 0.833084 0.728126
vt 0.788797 0.734316
vt 0.762752 0.684746
vt 0.739767 0.640999
vt 0.833084 0.641220
vt 0.833084 0.875493
vt 0.833084 0.829235
vt 0.739767 0.829235
vt 0.739767 0.875493
vt 0.927202 0.593940
vt 0.904473 0.593940
vt 0.904473 0.687257
vt 0.927202 0.687257
vt 0.644849 0.875493
vt 0.644849 0.829235
vt 0.551532 0.829235
vt 0.551532 0.875493
vt 0.927202 0.546882
vt 0.880944 0.546882
vt 0.880944 0.593140
vt 0.927202 0.593140
vt 0.903673 0.593940
vt 0.880944 0.593940
vt 0.880944 0.687257
vt 0.903673 0.687257
vt 0.644849 0.899022
vt 0.644849 0.876293
vt 0.551532 0.876293
vt 0.551532 0.899022
vt 0.903673 0.688058
vt 0.880944 0.688058
vt 0.880944 0.781375
vt 0.903673 0.781375
vt 0.738967 0.899022
vt 0.738967 0.876293
vt 0.645650 0.876293
vt 0.645650 0.899022
vt 0.903673 0.782176
vt 0.880944 0.782176
vt 0.880944 0.875493
vt 0.903673 0.875493
vt 0.438253 0.775975
vt 0.427289 0.775975
vt 0.427289 0.786939
vt 0.438253 0.786939
vt 0.738967 0.735117
vt 0.738967 0.828434
vt 0.646405 0.826915
vt 0.645650 0.806821
vt 0.659201 0.810900
vt 0.682400 0.794014
vt 0.673636 0.742153
vt 0.833084 0.546882
vt 0.739767 0.546882
vt 0.739767 0.640198
vt 0.833084 0.640198
vt 0.644849 0.735117
vt 0.551532 0.735117
vt 0.551532 0.828434
vt 0.644849 0.828434
vt 0.674783 0.674708
vt 0.666961 0.734316
vt 0.578738 0.730535
vt 0.551532 0.650571
vt 0.598379 0.608682
vt 0.632112 0.552811
vt 0.738967 0.546882
vt 0.738967 0.662086
vt 0.597790 0.923753
vt 0.597790 0.946081
vt 0.551933 0.946081
vt 0.191995 0.928115
vt 0.238253 0.928115
vt 0.238253 0.917151
vt 0.191995 0.917151
vt 0.928403 0.569610
vt 0.950731 0.569610
vt 0.950731 0.547282
vt 0.693109 0.922551
vt 0.738967 0.922551
vt 0.738967 0.900223
vt 0.438253 0.787740
vt 0.427289 0.787740
vt 0.427289 0.798704
vt 0.438253 0.798704
vt 0.927202 0.876293
vt 0.880944 0.876293
vt 0.880944 0.922551
vt 0.927202 0.922551
vt 0.414724 0.869292
vt 0.414724 0.823034
vt 0.403760 0.823034
vt 0.403760 0.869292
vt 0.551532 0.915486
vt 0.601110 0.900073
vt 0.644849 0.899823
vt 0.644849 0.922551
vt 0.577093 0.919939
vt 0.927202 0.828434
vt 0.927202 0.782176
vt 0.904473 0.782176
vt 0.904473 0.828434
vt 0.380231 0.928115
vt 0.402959 0.928115
vt 0.402959 0.917151
vt 0.380231 0.917151
vt 0.865041 0.689800
vt 0.857544 0.640999
vt 0.880143 0.645394
vt 0.880143 0.734316
vt 0.833885 0.711903
vt 0.438253 0.657527
vt 0.438253 0.611269
vt 0.427289 0.611269
vt 0.427289 0.657527
vt 0.356701 0.928115
vt 0.379430 0.928115
vt 0.379430 0.917151
vt 0.356701 0.917151
vt 0.739767 0.735117
vt 0.739767 0.828033
vt 0.785625 0.735117
vt 0.438253 0.799504
vt 0.427289 0.799504
vt 0.427289 0.810468
vt 0.438253 0.810468
vt 0.427690 0.704586
vt 0.450018 0.704586
vt 0.450018 0.682258
vt 0.144936 0.939880
vt 0.167665 0.939880
vt 0.167665 0.928916
vt 0.144936 0.928916
vt 0.426489 0.869292
vt 0.426489 0.823034
vt 0.415525 0.823034
vt 0.415525 0.869292
vt 0.144936 0.928115
vt 0.191195 0.928115
vt 0.191195 0.917151
vt 0.144936 0.917151
vt 0.438253 0.751645
vt 0.438253 0.728916
vt 0.427289 0.728916
vt 0.427289 0.751645
vt 0.427289 0.681857
vt 0.427289 0.704185
vt 0.449618 0.681857
vt 0.427289 0.540681
vt 0.449618 0.540681
vt 0.427289 0.563009
vt 0.332371 0.916351
vt 0.292745 0.915596
vt 0.286113 0.898705
vt 0.295250 0.883866
vt 0.332371 0.870093
vt 0.096676 0.917151
vt 0.050819 0.939480
vt 0.050819 0.917151
vt 0.333172 0.928115
vt 0.355900 0.928115
vt 0.355900 0.917151
vt 0.333172 0.917151
vt 0.438253 0.610468
vt 0.438253 0.564210
vt 0.427289 0.564210
vt 0.427289 0.610468
vt 0.286113 0.928115
vt 0.332371 0.928115
vt 0.332371 0.917151
vt 0.286113 0.917151
vt 0.403760 0.928115
vt 0.426489 0.928115
vt 0.426489 0.917151
vt 0.403760 0.917151
vt 0.426489 0.681857
vt 0.403760 0.681857
vt 0.403760 0.728115
vt 0.426489 0.728115
vt 0.285312 0.870493
vt 0.285312 0.916351
vt 0.239455 0.916351
vt 0.285312 0.822233
vt 0.239455 0.822233
vt 0.285312 0.729316
vt 0.379430 0.775975
vt 0.333172 0.775975
vt 0.333172 0.822233
vt 0.379430 0.822233
vt 0.284912 0.870093
vt 0.239054 0.870093
vt 0.239054 0.915950
vt 0.426088 0.728916
vt 0.403760 0.728916
vt 0.403760 0.774774
vt 0.191995 0.915950
vt 0.191995 0.893622
vt 0.237853 0.893622
vt 0.438253 0.728115
vt 0.438253 0.705387
vt 0.427289 0.705387
vt 0.427289 0.728115
vt 0.191195 0.916351
vt 0.164837 0.912399
vt 0.144936 0.912527
vt 0.148063 0.894780
vt 0.191195 0.893622
vn -0.1533 0.5010 0.8518
vn -0.4630 0.7461 0.4785
vn -0.4798 0.7894 0.3828
vn 0.5594 0.1261 0.8193
vn 0.6155 0.4600 -0.6400
vn -0.2764 0.5698 0.7739
vn -0.3782 0.1511 0.9133
vn 0.7864 0.0936 0.6105
vn 0.5384 0.5329 0.6528
vn -0.3732 0.9274 0.0269
vn 0.6795 0.1488 0.7184
vn -0.1894 0.9813 0.0356
vn 0.6430 0.2963 0.7062
vn -0.5980 0.1443 0.7884
vn -0.6128 0.2256 0.7573
vn -0.2730 0.3161 -0.9086
vn 0.5399 -0.0287 -0.8412
vn -0.3634 -0.0297 -0.9311
vn -0.0728 -0.0227 -0.9971
vn -0.9698 0.0512 -0.2385
vn -0.8886 0.4002 -0.2240
vn -0.3558 -0.3135 -0.8804
vn -0.3412 0.2994 -0.8910
vn 0.5300 0.2409 -0.8130
vn 0.7609 0.2719 0.5891
vn 0.0000 -1.0000 -0.0000
vn -0.2906 0.2143 0.9325
vn 0.0288 0.9099 -0.4138
vn -0.2148 0.1772 0.9604
vn 0.1706 0.8785 -0.4463
vn 0.9459 0.1735 0.2743
vn -0.1257 0.3791 -0.9168
vn -0.7645 0.6410 0.0685
vn 0.0371 -0.2092 -0.9772
vn -0.3600 0.9207 -0.1508
vn -0.2980 0.0199 -0.9544
vn -0.7782 0.1746 0.6033
vn 0.4906 0.1516 -0.8581
vn 0.2064 0.7412 -0.6388
vn -0.4554 0.8085 0.3726
vn -0.1010 0.4293 -0.8975
vn -0.8240 0.3116 -0.4733
vn 0.5341 0.6397 0.5527
vn -0.4173 0.7809 0.4649
vn -0.2619 0.3332 -0.9058
vn -0.3462 0.3078 -0.8862
vn -0.2793 0.2436 -0.9288
vn -0.5840 0.7838 -0.2113
vn 0.1653 0.6903 0.7044
vn -0.7956 0.5354 -0.2837
vn 0.3392 0.2994 -0.8918
vn -0.7595 0.5602 0.3306
vn 0.0181 0.9443 -0.3286
vn 0.1806 0.9352 -0.3045
vn -0.4202 0.8174 0.3940
vn 0.4578 0.6278 0.6295
vn -0.2730 0.6200 0.7356
vn -0.1121 0.5224 0.8453
vn -0.4157 0.7993 0.4338
vn -0.5386 0.5513 -0.6372
vn -0.3059 0.9463 0.1043
usemtl STONE_1.002
f 1/1/1 2/2/1 3/3/1 4/4/1
f 4/5/2 3/6/2 5/7/2 6/8/2
f 6/9/3 5/10/3 7/11/3 8/12/3
f 9/13/4 10/14/4 11/15/4 12/16/4
f 13/17/5 14/18/5 15/19/5 16/20/5
f 17/21/6 9/22/6 2/23/6 1/24/6
f 18/25/7 19/26/7 17/27/7 1/28/7
f 20/29/8 21/30/8 17/31/8 19/32/8
f 22/33/9 13/34/9 10/35/9
f 6/36/10 23/37/10 24/38/10 25/39/10
f 18/40/11 1/41/11 26/42/11 27/43/11
f 4/44/12 6/45/12 25/46/12 28/47/12 29/48/12
f 1/49/13 4/50/13 29/51/13 26/52/13
f 27/53/14 26/54/14 30/55/14 31/56/14
f 26/57/15 29/58/15 28/59/15 30/60/15
f 32/61/16 33/62/16 34/63/16 8/64/16
f 21/65/17 20/66/17 35/67/17 36/68/17
f 36/69/18 35/70/18 37/71/18 38/72/18
f 38/73/19 37/74/19 39/75/19 40/76/19
f 40/77/20 39/78/20 31/79/20 30/80/20
f 41/81/21 40/82/21 30/83/21 28/84/21
f 42/85/22 43/86/22 44/87/22 45/88/22
f 32/89/23 36/90/23 38/91/23 43/92/23 42/93/23 46/94/23 33/95/23
f 21/96/24 36/97/24 32/98/24 14/99/24
f 21/100/25 22/101/25 10/102/25 17/103/25
f 18/104/26 27/105/26 31/106/26 39/107/26 37/108/26 35/109/26 20/110/26 19/111/26
f 10/112/9 9/113/9 17/114/9
f 2/115/27 9/116/27 12/117/27 47/118/27
f 48/119/28 14/120/28 32/121/28
f 14/122/28 13/123/28 22/124/28
f 3/125/29 2/126/29 47/127/29 49/128/29
f 7/129/30 48/130/30 32/131/30 8/132/30
f 10/133/31 13/134/31 16/135/31 11/136/31
f 50/137/32 43/138/32 38/139/32 40/140/32 41/141/32
f 34/142/33 23/143/33 6/144/33 8/145/33
f 46/146/34 42/147/34 45/148/34 51/149/34
f 52/150/35 50/151/35 41/152/35 28/153/35 25/154/35
f 43/155/36 50/156/36 53/157/36 44/158/36
f 5/159/37 3/160/37 49/161/37 54/162/37
f 22/163/38 21/164/38 14/165/38
usemtl Material.031
f 34/166/39 33/167/39 55/168/39 56/169/39
f 57/170/40 58/171/40 56/172/40
f 48/173/41 7/174/41 59/175/41 60/176/41
f 7/177/42 5/178/42 54/179/42 59/180/42
f 25/181/43 24/182/43 61/183/43 62/184/43
f 23/185/44 34/186/44 56/187/44 58/188/44
f 57/189/45 44/190/45 53/191/45
f 56/192/46 55/193/46 57/194/46
f 55/195/47 51/196/47 45/197/47 44/198/47 57/199/47
f 63/200/48 57/201/48 53/202/48
f 24/203/49 23/204/49 58/205/49 61/206/49
f 50/207/50 52/208/50 63/209/50 53/210/50
f 33/211/51 46/212/51 51/213/51 55/214/51
f 52/215/52 25/216/52 62/217/52 63/218/52
f 64/219/53 16/220/53 15/221/53 60/222/53
f 64/223/54 60/224/54 59/225/54
f 59/226/55 54/227/55 64/228/55
f 12/229/56 11/230/56 16/231/56 64/232/56
f 47/233/57 12/234/57 64/235/57
f 49/236/58 47/237/58 64/238/58
f 54/239/59 49/240/59 64/241/59
f 14/242/60 48/243/60 60/244/60 15/245/60
f 62/246/61 61/247/61 58/248/61 57/249/61 63/250/61
