mtllib LOW_POLY_set.mtl
o lp_stone_with_moss_3_001_Cube_009
v 73.858627 2.324739 31.437819
v 74.122078 2.906215 31.578062
v 75.467438 2.214362 31.690737
v 75.588303 2.100881 33.111313
v 75.735245 1.845663 33.253479
v 75.843384 1.732986 32.109306
v 75.161865 1.845730 33.262947
v 74.031273 2.385215 33.137020
v 74.466171 1.732986 33.436295
v 76.083458 0.745981 31.765209
v 75.982658 1.271388 31.936939
v 76.725670 0.745981 31.899105
v 75.746574 1.529736 31.309233
v 74.607643 1.271388 33.433960
v 74.195641 1.732986 33.749939
v 74.485497 0.745981 33.855221
v 74.917213 2.469482 32.409546
v 73.953072 2.357822 32.367363
v 73.381577 2.385215 33.204483
v 74.999916 1.673974 31.066536
v 75.773499 0.745981 31.031523
v 75.041344 0.745981 30.643314
v 74.342308 1.383421 30.654856
v 75.531303 1.565390 34.004330
v 76.675827 1.293359 32.064922
v 77.274658 1.433480 33.010300
v 77.423424 1.271388 33.050468
v 74.909958 1.271388 33.267105
v 74.743797 0.745981 33.340015
v 74.604050 0.745981 33.434017
v 75.443596 1.271388 34.193119
v 76.566422 1.271388 33.936138
v 76.585648 1.732986 33.846867
v 76.605469 0.745981 34.020424
v 75.255562 0.745981 34.432274
v 72.319321 1.247127 32.398876
v 72.640129 1.758959 32.849419
v 72.594383 1.893661 32.728748
v 72.348137 1.487681 32.354546
v 74.068047 2.596207 32.505680
v 73.246246 1.732986 33.765614
v 73.033020 1.514345 30.996162
v 73.013519 1.718784 31.086819
v 73.046494 0.745981 30.458439
v 73.688881 1.706235 31.004517
v 73.250145 1.271388 34.001770
v 73.017288 0.745981 34.015423
v 72.120392 0.745981 32.208702
v 73.777214 2.303413 31.331249
v 73.808418 2.380708 32.340851
v 74.846298 2.236381 33.123566
v 77.582932 0.745981 33.027882
v 74.980301 1.844626 31.029165
v 73.666664 1.873720 30.982901
v 75.386414 2.251330 31.523592
v 73.300362 2.478165 33.015209
v 74.791115 2.490009 32.899658
v 74.193375 2.723296 32.468510
v 76.662987 1.818481 33.121132
v 75.309387 2.414627 31.762484
v 74.847275 2.619147 32.282360
v 73.328796 2.332870 31.921473
v 74.236534 2.967785 31.673817
vt 0.765266 0.650731
vt 0.817398 0.650731
vt 0.817398 0.551933
vt 0.604865 0.900731
vt 0.657398 0.900731
vt 0.657398 0.876532
vt 0.604865 0.876532
vt 0.711933 0.800731
vt 0.764065 0.751933
vt 0.764065 0.800731
vt 0.817398 0.800731
vt 0.765266 0.800731
vt 0.817398 0.751933
vt 0.870731 0.925731
vt 0.870731 0.901532
vt 0.818199 0.901532
vt 0.818199 0.925731
vt 0.950731 0.650731
vt 0.950731 0.601532
vt 0.924865 0.601532
vt 0.924865 0.650731
vt 0.818599 0.650731
vt 0.870731 0.650731
vt 0.870731 0.601933
vt 0.924065 0.925731
vt 0.871933 0.925731
vt 0.924065 0.901933
vt 0.817398 0.651532
vt 0.764866 0.651532
vt 0.764866 0.700731
vt 0.817398 0.700731
vt 0.817398 0.925731
vt 0.817398 0.901532
vt 0.764866 0.901532
vt 0.764866 0.925731
vt 0.764065 0.850731
vt 0.711933 0.850731
vt 0.764065 0.801933
vt 0.950731 0.551532
vt 0.924865 0.551532
vt 0.924865 0.600731
vt 0.950731 0.600731
vt 0.950731 0.776532
vt 0.924865 0.776532
vt 0.924865 0.800731
vt 0.950731 0.800731
vt 0.950731 0.751532
vt 0.924865 0.751532
vt 0.924865 0.775731
vt 0.950731 0.775731
vt 0.657398 0.925731
vt 0.657398 0.901532
vt 0.604865 0.901532
vt 0.604865 0.925731
vt 0.924065 0.651532
vt 0.898199 0.651532
vt 0.898199 0.700731
vt 0.924065 0.700731
vt 0.924065 0.900731
vt 0.924065 0.876532
vt 0.871532 0.876532
vt 0.871532 0.900731
vt 0.924065 0.601532
vt 0.898199 0.601532
vt 0.898199 0.650731
vt 0.924065 0.650731
vt 0.870731 0.900731
vt 0.870731 0.876532
vt 0.818199 0.876532
vt 0.818199 0.900731
vt 0.924865 0.801532
vt 0.924865 0.825331
vt 0.950331 0.801532
vt 0.457769 0.726532
vt 0.431903 0.726532
vt 0.431903 0.750731
vt 0.457769 0.750731
vt 0.870731 0.800731
vt 0.856581 0.760214
vt 0.844866 0.726667
vt 0.855341 0.716488
vt 0.870731 0.701532
vt 0.658599 0.800731
vt 0.710731 0.800731
vt 0.710731 0.751933
vt 0.271903 0.825731
vt 0.377769 0.825731
vt 0.377769 0.801532
vt 0.271903 0.801532
vt 0.604065 0.801933
vt 0.551933 0.850731
vt 0.604065 0.850731
vt 0.817398 0.826532
vt 0.764866 0.826532
vt 0.764866 0.875731
vt 0.817398 0.875731
vt 0.897398 0.551532
vt 0.871532 0.551532
vt 0.871532 0.650731
vt 0.897398 0.650731
vt 0.657398 0.875731
vt 0.657398 0.851532
vt 0.551532 0.851532
vt 0.551532 0.875731
vt 0.764866 0.800331
vt 0.764866 0.751532
vt 0.816998 0.751532
vt 0.870731 0.826532
vt 0.818199 0.826532
vt 0.818199 0.875731
vt 0.870731 0.875731
vt 0.711532 0.850331
vt 0.763664 0.801532
vt 0.711532 0.801532
vt 0.924065 0.801933
vt 0.924065 0.850731
vt 0.898599 0.850731
vt 0.897398 0.800731
vt 0.897398 0.751532
vt 0.871532 0.751532
vt 0.871532 0.800731
vt 0.551933 0.800731
vt 0.657398 0.800731
vt 0.657398 0.751933
vt 0.551532 0.751532
vt 0.551532 0.800331
vt 0.656998 0.751532
vt 0.058570 0.950731
vt 0.111102 0.950731
vt 0.111102 0.926532
vt 0.058570 0.926532
vt 0.878265 0.651532
vt 0.897398 0.662102
vt 0.897398 0.704339
vt 0.897398 0.750731
vt 0.871532 0.683167
vt 0.562113 0.729441
vt 0.551532 0.657451
vt 0.565810 0.628913
vt 0.604129 0.613069
vt 0.604940 0.589402
vt 0.659879 0.551532
vt 0.726465 0.579651
vt 0.764065 0.624819
vt 0.707548 0.650190
vt 0.714353 0.654527
vt 0.739482 0.655949
vt 0.764065 0.706977
vt 0.671112 0.750731
vt 0.604065 0.900731
vt 0.604065 0.876532
vt 0.551532 0.876532
vt 0.551532 0.900731
vt 0.897398 0.801532
vt 0.871532 0.801532
vt 0.871532 0.850731
vt 0.897398 0.850731
vt 0.818199 0.650331
vt 0.870331 0.601532
vt 0.818199 0.601532
vt 0.430702 0.801532
vt 0.405237 0.850331
vt 0.405237 0.801532
vt 0.764065 0.851933
vt 0.764065 0.900731
vt 0.711933 0.900731
vt 0.711532 0.900331
vt 0.711532 0.851532
vt 0.763664 0.851532
vt 0.923664 0.901532
vt 0.871532 0.925331
vt 0.871532 0.901532
vt 0.351102 0.800731
vt 0.351102 0.701532
vt 0.325237 0.701532
vt 0.325237 0.800731
vt 0.603664 0.801532
vt 0.551532 0.850331
vt 0.551532 0.801532
vt 0.378570 0.875731
vt 0.431102 0.875731
vt 0.431102 0.851532
vt 0.378570 0.851532
vt 0.431102 0.600731
vt 0.431102 0.551532
vt 0.405237 0.551532
vt 0.405237 0.600731
vt 0.271903 0.551532
vt 0.271903 0.650331
vt 0.324035 0.551532
vt 0.058570 0.925731
vt 0.111102 0.925731
vt 0.111102 0.901532
vt 0.058570 0.901532
vt 0.457769 0.701532
vt 0.431903 0.701532
vt 0.431903 0.725731
vt 0.457769 0.725731
vt 0.431102 0.750731
vt 0.431102 0.701532
vt 0.405237 0.701532
vt 0.405237 0.750731
vt 0.457769 0.700731
vt 0.457769 0.651532
vt 0.431903 0.651532
vt 0.431903 0.700731
vt 0.817398 0.701933
vt 0.765266 0.750731
vt 0.817398 0.750731
vt 0.870731 0.651532
vt 0.818199 0.651532
vt 0.818199 0.700731
vt 0.870731 0.700731
vt 0.711933 0.925731
vt 0.764065 0.901933
vt 0.764065 0.925731
vt 0.710731 0.851532
vt 0.658199 0.851532
vt 0.658199 0.900731
vt 0.710731 0.900731
vt 0.271903 0.900731
vt 0.324436 0.900731
vt 0.324436 0.876532
vt 0.271903 0.876532
vt 0.217369 0.751532
vt 0.165237 0.751532
vt 0.165237 0.800331
vt 0.324035 0.701532
vt 0.271903 0.701532
vt 0.271903 0.750331
vt 0.217769 0.801532
vt 0.165237 0.801532
vt 0.165237 0.850731
vt 0.217769 0.850731
vt 0.164436 0.801532
vt 0.111903 0.801532
vt 0.111903 0.850731
vt 0.164436 0.850731
vt 0.377769 0.551532
vt 0.325237 0.551532
vt 0.325237 0.600731
vt 0.377769 0.600731
vt 0.218570 0.751532
vt 0.270702 0.751532
vt 0.218570 0.800331
vt 0.165237 0.925731
vt 0.217769 0.925731
vt 0.217769 0.901532
vt 0.165237 0.901532
vt 0.431102 0.800731
vt 0.431102 0.751532
vt 0.405237 0.751532
vt 0.405237 0.800731
vt 0.457769 0.826532
vt 0.431903 0.826532
vt 0.431903 0.850731
vt 0.457769 0.850731
vt 0.270702 0.901532
vt 0.218570 0.901532
vt 0.218570 0.925331
vn 0.1640 0.1604 -0.9733
vn 0.8168 0.5769 -0.0039
vn 0.1361 0.4867 0.8629
vn 0.1921 0.3380 -0.9213
vn 0.8796 0.4247 -0.2143
vn 0.7571 0.2678 0.5960
vn 0.4549 0.8899 0.0324
vn -0.0037 0.9994 -0.0352
vn 0.3945 0.3958 -0.8293
vn 0.9214 0.2035 -0.3310
vn 0.0059 0.9363 0.3511
vn 0.7599 0.3136 -0.5694
vn 0.3258 -0.0331 0.9449
vn 0.5081 -0.0223 0.8610
vn -0.7714 0.4099 0.4867
vn 0.1530 0.3221 0.9342
vn 0.2527 0.2517 0.9342
vn -0.8140 0.3996 0.4216
vn 0.1603 0.3406 -0.9265
vn 0.9626 -0.0066 0.2709
vn -0.8855 0.1530 0.4387
vn -0.9150 0.3956 0.0789
vn -0.6898 0.5491 0.4719
vn -0.8915 0.0653 -0.4482
vn 0.3485 0.3237 -0.8797
vn -0.1549 0.5646 -0.8107
vn -0.8425 0.1611 0.5141
vn -0.8473 0.2786 0.4522
vn 0.0916 0.1184 -0.9887
vn 0.1319 0.2527 0.9585
vn 0.0125 0.6506 0.7593
vn 0.1084 -0.0222 0.9939
vn 0.2754 0.6943 0.6649
vn -0.8793 0.2627 -0.3973
vn -0.7815 0.4671 -0.4135
vn 0.0419 0.9973 -0.0595
vn 0.0709 0.4193 0.9051
vn 0.0000 -1.0000 0.0000
vn 0.7045 0.1735 0.6881
vn 0.7380 0.2806 0.6137
vn 0.7693 0.2586 -0.5842
vn 0.0413 0.6228 -0.7813
vn 0.3519 0.5610 -0.7493
vn 0.1753 0.9306 0.3212
vn 0.0463 0.9985 0.0296
vn 0.0488 0.7777 -0.6268
vn -0.6516 0.4589 0.6040
vn 0.0367 -0.1673 -0.9852
vn 0.1049 0.7240 -0.6817
vn 0.8316 -0.1290 -0.5402
vn -0.1161 0.1687 -0.9788
vn 0.3277 0.9316 0.1571
vn -0.3248 0.5749 0.7510
vn 0.4366 0.8077 -0.3963
vn -0.0346 0.9716 0.2341
vn 0.5462 0.8231 0.1552
vn 0.2230 0.9395 -0.2601
vn 0.7373 0.5438 0.4008
vn -0.6037 0.7881 -0.1204
vn -0.2744 0.8211 -0.5005
vn -0.6930 0.6765 -0.2490
vn -0.0072 0.9944 -0.1052
vn 0.2246 0.9380 0.2640
vn 0.4541 0.8893 0.0538
vn 0.3447 0.5459 -0.7637
vn -0.6357 0.7446 0.2039
vn 0.8700 0.4484 0.2051
vn -0.6355 0.5783 -0.5116
usemtl STONE_1.002
f 1/1/1 2/2/1 3/3/1
f 3/4/2 4/5/2 5/6/2 6/7/2
f 7/8/3 8/9/3 9/10/3
f 10/11/4 11/12/4 12/13/4
f 13/14/5 3/15/5 6/16/5 11/17/5
f 14/18/6 9/19/6 15/20/6 16/21/6
f 3/22/7 17/23/7 4/24/7
f 8/25/8 18/26/8 19/27/8
f 20/28/9 21/29/9 22/30/9 23/31/9
f 21/32/10 13/33/10 11/34/10 10/35/10
f 5/36/11 7/37/11 24/38/11
f 12/39/12 25/40/12 26/41/12 27/42/12
f 28/43/13 7/44/13 9/45/13 14/46/13
f 29/47/14 28/48/14 14/49/14 30/50/14
f 7/51/15 28/52/15 31/53/15 24/54/15
f 32/55/16 33/56/16 24/57/16 31/58/16
f 34/59/17 32/60/17 31/61/17 35/62/17
f 28/63/18 29/64/18 35/65/18 31/66/18
f 11/67/19 6/68/19 25/69/19 12/70/19
f 30/71/20 14/72/20 16/73/20
f 36/74/21 37/75/21 38/76/21 39/77/21
f 1/78/22 18/79/22 8/80/22 40/81/22 2/82/22
f 41/83/23 19/84/23 37/85/23
f 42/86/24 36/87/24 39/88/24 43/89/24
f 21/90/25 20/91/25 13/92/25
f 44/93/26 42/94/26 45/95/26 23/96/26
f 46/97/27 41/98/27 37/99/27 36/100/27
f 47/101/28 46/102/28 36/103/28 48/104/28
f 44/105/29 23/106/29 22/107/29
f 16/108/30 15/109/30 41/110/30 46/111/30
f 15/112/31 19/113/31 41/114/31
f 16/115/32 46/116/32 47/117/32
f 9/118/33 8/119/33 19/120/33 15/121/33
f 36/122/34 42/123/34 44/124/34
f 48/125/35 36/126/35 44/127/35
f 18/128/36 1/129/36 49/130/36 50/131/36
f 5/132/37 4/133/37 51/134/37 8/135/37 7/136/37
f 44/137/38 22/138/38 21/139/38 10/140/38 12/141/38 52/142/38 34/143/38 35/144/38 29/145/38 30/146/38 16/147/38 47/148/38 48/149/38
f 32/150/39 34/151/39 52/152/39 27/153/39
f 33/154/40 32/155/40 27/156/40 26/157/40
f 12/158/41 27/159/41 52/160/41
f 49/161/42 53/162/42 54/163/42
f 3/164/43 13/165/43 20/166/43
f 17/167/44 51/168/44 4/169/44
f 51/170/44 40/171/44 8/172/44
f 1/173/45 3/174/45 55/175/45 49/176/45
f 45/177/46 20/178/46 23/179/46
f 37/180/47 19/181/47 56/182/47 38/183/47
f 20/184/48 45/185/48 54/186/48 53/187/48
f 53/188/49 49/189/49 55/190/49
f 3/191/50 20/192/50 53/193/50 55/194/50
f 45/195/51 42/196/51 43/197/51 54/198/51
f 19/199/52 18/200/52 50/201/52 56/202/52
usemtl Material.031
f 40/203/53 51/204/53 57/205/53 58/206/53
f 25/207/54 59/208/54 26/209/54
f 59/210/55 5/211/55 24/212/55 33/213/55
f 33/214/56 26/215/56 59/216/56
f 6/217/57 5/218/57 59/219/57 25/220/57
f 17/221/58 3/222/58 60/223/58 61/224/58
f 38/225/59 56/226/59 62/227/59
f 54/228/60 43/229/60 62/230/60
f 43/231/61 39/232/61 38/233/61 62/234/61
f 56/235/62 50/236/62 49/237/62 62/238/62
f 63/239/63 58/240/63 57/241/63 61/242/63
f 61/243/64 60/244/64 63/245/64
f 3/246/65 2/247/65 63/248/65 60/249/65
f 2/250/66 40/251/66 58/252/66 63/253/66
f 51/254/67 17/255/67 61/256/67 57/257/67
f 62/258/68 49/259/68 54/260/68
