mtllib LOW_POLY_set.mtl
o lp_stone_with_moss_7_001_Cube_002
v 95.148262 0.745981 31.748476
v 95.274590 1.897918 31.759239
v 95.438805 1.825637 30.908035
v 95.208954 0.745981 30.983274
v 97.444267 1.473832 30.893978
v 97.513733 0.745981 30.839355
v 97.420441 0.745981 30.206846
v 97.340317 1.185928 30.246954
v 98.181580 0.745981 31.219759
v 98.085388 1.321655 31.256115
v 98.328552 1.083282 31.918360
v 98.374077 1.767888 32.526558
v 98.610138 0.745981 32.592506
v 97.000526 1.235191 33.513870
v 97.147591 0.745981 33.621559
v 96.831551 1.985480 30.668699
v 95.509354 1.062770 32.388134
v 96.004761 1.626618 33.112068
v 95.974121 2.393885 32.916191
v 95.669891 2.315237 31.728605
v 97.561928 1.756504 32.920887
v 97.304382 2.308021 33.005676
v 96.494659 1.196904 34.472946
v 96.541924 0.745981 34.630489
v 96.551117 3.962731 32.231682
v 96.952019 3.745403 31.511520
v 96.496094 3.822476 31.402811
v 96.435074 3.098412 31.232737
v 95.776459 2.998961 31.815945
v 96.156509 3.883147 31.817438
v 96.753838 4.002403 32.219559
v 97.130959 3.797961 31.542101
v 96.208588 3.305521 32.550400
v 98.197128 1.517933 31.301842
v 98.425873 1.293695 31.924818
v 96.610962 3.266271 32.484062
v 96.810127 3.347240 32.456974
v 97.092232 2.408050 31.072399
v 97.262863 2.539908 31.129019
v 97.704704 1.926997 32.867901
v 97.462433 2.445811 32.947662
v 96.486000 2.509792 30.934361
v 96.185249 1.151831 30.095499
v 96.133980 0.745981 30.014427
v 94.994858 0.745981 34.265533
v 95.716362 0.997443 34.362316
v 95.142891 1.641599 34.038960
v 95.311569 0.745981 32.317284
v 94.636353 1.190532 32.852127
v 94.446991 0.745981 32.810059
v 95.481064 1.828284 33.645241
v 96.347496 1.490090 33.570332
v 95.742271 1.202677 34.358585
v 95.248787 1.756982 34.080330
v 98.468697 1.937706 32.496952
v 97.971085 2.421048 31.290281
v 98.121536 2.638437 32.225208
v 96.757347 3.160150 31.352400
v 96.947838 3.247412 31.392416
v 97.353432 3.294243 32.367401
v 97.522926 3.357584 31.605955
v 97.493095 3.736743 31.628448
v 97.225952 3.664709 32.153645
v 95.539795 1.917627 33.741531
v 96.331261 1.724962 33.676311
v 96.847305 1.407262 33.628487
v 96.412003 1.374316 34.453785
v 95.882416 1.856399 34.052555
vt 0.690358 0.866992
vt 0.644100 0.866992
vt 0.644100 0.913250
vt 0.690358 0.913250
vt 0.925652 0.537580
vt 0.902923 0.537580
vt 0.902923 0.583838
vt 0.925652 0.583838
vt 0.644100 0.764045
vt 0.649341 0.738550
vt 0.693069 0.752990
vt 0.737417 0.725816
vt 0.737416 0.772074
vt 0.784475 0.631698
vt 0.738217 0.631698
vt 0.738217 0.725015
vt 0.784475 0.725015
vt 0.878593 0.585040
vt 0.878593 0.630897
vt 0.832735 0.630897
vt 0.760619 0.537580
vt 0.831534 0.544212
vt 0.831534 0.613518
vt 0.782192 0.630897
vt 0.738217 0.564005
vt 0.878593 0.678757
vt 0.832335 0.678757
vt 0.832335 0.725015
vt 0.878593 0.725015
vt 0.878593 0.631698
vt 0.832335 0.631698
vt 0.832335 0.677956
vt 0.878593 0.677956
vt 0.925652 0.889721
vt 0.925652 0.866992
vt 0.879394 0.866992
vt 0.879394 0.889721
vt 0.785676 0.913250
vt 0.831534 0.890922
vt 0.831534 0.913250
vt 0.831534 0.725816
vt 0.785276 0.725816
vt 0.785276 0.772074
vt 0.831534 0.772074
vt 0.426489 0.866191
vt 0.426489 0.819933
vt 0.403760 0.819933
vt 0.403760 0.866191
vt 0.878593 0.537580
vt 0.832335 0.537580
vt 0.832335 0.583838
vt 0.878593 0.583838
vt 0.191995 0.936780
vt 0.238253 0.936780
vt 0.238253 0.914051
vt 0.191995 0.914051
vt 0.785676 0.936780
vt 0.808005 0.936780
vt 0.808005 0.914451
vt 0.426489 0.819133
vt 0.426489 0.772875
vt 0.403760 0.772875
vt 0.403760 0.819133
vt 0.239054 0.866191
vt 0.332371 0.866191
vt 0.332371 0.843463
vt 0.239054 0.843463
vt 0.285312 0.914051
vt 0.262584 0.914051
vt 0.262584 0.936780
vt 0.285312 0.936780
vt 0.690358 0.819933
vt 0.644100 0.819933
vt 0.644100 0.866191
vt 0.690358 0.866191
vt 0.737417 0.819933
vt 0.691158 0.819933
vt 0.691158 0.866191
vt 0.737417 0.866191
vt 0.831534 0.631698
vt 0.785276 0.631698
vt 0.785276 0.725015
vt 0.831534 0.725015
vt 0.642898 0.725816
vt 0.549982 0.818732
vt 0.549982 0.725816
vt 0.738217 0.842662
vt 0.831534 0.842662
vt 0.831534 0.819933
vt 0.738217 0.819933
vt 0.878593 0.725816
vt 0.832335 0.725816
vt 0.832335 0.772074
vt 0.878593 0.772074
vt 0.925652 0.584639
vt 0.902923 0.584639
vt 0.902923 0.630897
vt 0.925652 0.630897
vt 0.784475 0.819133
vt 0.784475 0.726216
vt 0.738618 0.819133
vt 0.785676 0.819133
vt 0.831534 0.819133
vt 0.831534 0.773275
vt 0.785276 0.912850
vt 0.785276 0.890522
vt 0.831134 0.890522
vt 0.878593 0.819933
vt 0.832335 0.819933
vt 0.832335 0.866191
vt 0.878593 0.866191
vt 0.737417 0.819133
vt 0.737417 0.772875
vt 0.644100 0.772875
vt 0.644100 0.819133
vt 0.902122 0.725816
vt 0.879394 0.725816
vt 0.879394 0.772074
vt 0.902122 0.772074
vt 0.738217 0.725816
vt 0.738217 0.818732
vt 0.784075 0.725816
vt 0.596240 0.866992
vt 0.549982 0.866992
vt 0.549982 0.913250
vt 0.596240 0.913250
vt 0.643299 0.866992
vt 0.597041 0.866992
vt 0.597041 0.913250
vt 0.643299 0.913250
vt 0.239054 0.889721
vt 0.285312 0.889721
vt 0.285312 0.866992
vt 0.239054 0.866992
vt 0.925652 0.631698
vt 0.879394 0.631698
vt 0.879394 0.677956
vt 0.925652 0.677956
vt 0.949181 0.819133
vt 0.949181 0.796804
vt 0.926853 0.819133
vt 0.631578 0.553041
vt 0.670368 0.544493
vt 0.737416 0.571453
vt 0.722023 0.643701
vt 0.737417 0.690374
vt 0.666843 0.725015
vt 0.592313 0.699158
vt 0.605729 0.659770
vt 0.578472 0.648183
vt 0.552124 0.624416
vt 0.549982 0.569579
vt 0.604519 0.537580
vt 0.238253 0.866992
vt 0.191995 0.866992
vt 0.191995 0.913250
vt 0.238253 0.913250
vt 0.949181 0.725015
vt 0.949181 0.678757
vt 0.926453 0.678757
vt 0.926453 0.725015
vt 0.785276 0.889721
vt 0.831534 0.889721
vt 0.831534 0.866992
vt 0.785276 0.866992
vt 0.902122 0.561444
vt 0.902122 0.630897
vt 0.885215 0.603452
vt 0.879394 0.565485
vt 0.889868 0.537580
vt 0.333172 0.889721
vt 0.379430 0.889721
vt 0.379430 0.866992
vt 0.333172 0.866992
vt 0.402959 0.819133
vt 0.402959 0.772875
vt 0.380231 0.772875
vt 0.380231 0.819133
vt 0.239054 0.913250
vt 0.285312 0.913250
vt 0.285312 0.890522
vt 0.239054 0.890522
vt 0.450018 0.772875
vt 0.427289 0.772875
vt 0.427289 0.795603
vt 0.450018 0.795603
vt 0.402959 0.866191
vt 0.402959 0.819933
vt 0.380231 0.819933
vt 0.380231 0.866191
vt 0.333172 0.630497
vt 0.379029 0.584639
vt 0.333172 0.584639
vt 0.333172 0.913250
vt 0.379430 0.913250
vt 0.379430 0.890522
vt 0.333172 0.890522
vt 0.450018 0.749345
vt 0.427289 0.749345
vt 0.427289 0.772074
vt 0.450018 0.772074
vt 0.379430 0.772875
vt 0.333172 0.772875
vt 0.333172 0.819133
vt 0.379430 0.819133
vt 0.331971 0.772875
vt 0.286113 0.772875
vt 0.286113 0.818732
vt 0.426489 0.678757
vt 0.380231 0.678757
vt 0.380231 0.725015
vt 0.426489 0.725015
vt 0.426489 0.772074
vt 0.426489 0.725816
vt 0.403760 0.725816
vt 0.403760 0.772074
vt 0.144136 0.819933
vt 0.097878 0.819933
vt 0.097878 0.866191
vt 0.144136 0.866191
vt 0.098278 0.936780
vt 0.144136 0.936780
vt 0.144136 0.914451
vt 0.450018 0.725816
vt 0.427289 0.725816
vt 0.427289 0.748544
vt 0.450018 0.748544
vt 0.097878 0.936379
vt 0.143735 0.914051
vt 0.097878 0.914051
vt 0.380231 0.913250
vt 0.426489 0.913250
vt 0.426489 0.890522
vt 0.380231 0.890522
vt 0.450018 0.583838
vt 0.450018 0.537580
vt 0.427289 0.537580
vt 0.427289 0.583838
vt 0.596240 0.936780
vt 0.596240 0.914051
vt 0.549982 0.914051
vt 0.549982 0.936780
vt 0.450018 0.632098
vt 0.427690 0.677956
vt 0.450018 0.677956
vt 0.097077 0.820334
vt 0.097077 0.866191
vt 0.051219 0.866191
vt 0.286113 0.914051
vt 0.286113 0.936379
vt 0.308441 0.914051
vt 0.261783 0.914051
vt 0.239054 0.914051
vt 0.239054 0.936780
vt 0.261783 0.936780
vt 0.450018 0.630897
vt 0.450018 0.584639
vt 0.427289 0.584639
vt 0.427289 0.630897
vt 0.144936 0.936780
vt 0.191195 0.936780
vt 0.191195 0.914051
vt 0.144936 0.914051
vt 0.427289 0.677556
vt 0.449618 0.631698
vt 0.427289 0.631698
vt 0.427289 0.818732
vt 0.449618 0.796404
vt 0.427289 0.796404
vt 0.096676 0.819933
vt 0.050819 0.865791
vt 0.050819 0.819933
vn -0.9780 0.1520 -0.1429
vn 0.9735 0.1394 -0.1814
vn 0.9377 0.1917 -0.2898
vn 0.5351 0.2291 0.8131
vn 0.6705 0.6318 -0.3889
vn -0.8683 0.2567 0.4245
vn 0.5205 0.3336 0.7860
vn -0.1187 0.3702 0.9214
vn 0.8269 0.3043 0.4729
vn 0.2048 0.9628 -0.1765
vn -0.6876 0.2609 -0.6777
vn -0.1994 0.9019 -0.3832
vn -0.7883 0.4548 0.4144
vn 0.8226 -0.3671 -0.4342
vn 0.1855 0.3488 0.9186
vn -0.0103 0.3399 0.9404
vn 0.2608 0.0757 -0.9624
vn 0.3354 0.0118 0.9420
vn -0.6879 0.2380 -0.6857
vn 0.0192 0.4325 0.9014
vn -0.6967 0.1346 -0.7046
vn -0.1318 0.9853 -0.1091
vn -0.6226 0.2203 -0.7509
vn 0.5005 0.1234 -0.8569
vn 0.1360 0.1450 -0.9800
vn -0.2003 0.6558 -0.7279
vn 0.0968 0.5119 -0.8536
vn -0.2209 0.2733 0.9362
vn -0.8919 0.1736 0.4175
vn -0.9088 0.2723 0.3162
vn -0.4334 0.3439 -0.8330
vn -0.5516 0.8303 -0.0801
vn 0.3640 0.9314 0.0052
vn -0.1698 0.8400 -0.5153
vn -0.4287 0.0705 0.9007
vn -0.9199 0.2494 0.3025
vn -0.0255 0.9859 -0.1651
vn 0.0000 -1.0000 0.0000
vn 0.9215 0.2822 -0.2670
vn 0.2802 0.1822 -0.9425
vn 0.2573 0.4442 -0.8582
vn 0.4863 0.4055 -0.7741
vn 0.0306 0.3607 -0.9322
vn 0.4361 -0.0869 0.8957
vn 0.8332 -0.3972 0.3847
vn 0.0977 0.2307 -0.9681
vn -0.0589 0.4440 0.8941
vn 0.2289 0.0449 -0.9724
vn 0.9014 0.2746 0.3348
vn 0.2963 0.1265 -0.9467
vn 0.7873 0.6148 -0.0470
vn 0.5602 0.5155 0.6485
vn 0.2564 0.4248 -0.8682
vn 0.4252 0.8958 0.1292
vn 0.5302 0.3759 0.7600
vn 0.9422 0.1854 -0.2792
vn 0.2956 0.4285 0.8538
vn 0.1875 0.5708 0.7994
vn 0.0940 0.5181 -0.8502
vn 0.1838 0.5265 -0.8301
vn -0.2155 0.2876 0.9332
vn 0.5195 0.7978 0.3059
vn -0.2063 0.2861 0.9357
vn -0.1322 0.9348 0.3297
vn -0.6699 0.7017 -0.2426
vn 0.7964 0.4182 0.4368
vn -0.1499 0.0369 0.9880
vn 0.4989 0.8083 0.3127
vn 0.2311 0.9709 -0.0635
vn -0.0591 0.5995 0.7982
usemtl STONE_1.003
f 1/1/1 2/2/1 3/3/1 4/4/1
f 5/5/2 6/6/2 7/7/2 8/8/2
f 9/9/3 10/10/3 11/11/3 12/12/3 13/13/3
f 13/14/4 12/15/4 14/16/4 15/17/4
f 16/18/5 5/19/5 8/20/5
f 2/21/6 17/22/6 18/23/6 19/24/6 20/25/6
f 14/26/7 12/27/7 21/28/7 22/29/7
f 18/30/8 14/31/8 22/32/8 19/33/8
f 15/34/9 14/35/9 23/36/9 24/37/9
f 25/38/10 26/39/10 27/40/10
f 28/41/11 29/42/11 30/43/11 27/44/11
f 26/45/12 25/46/12 31/47/12 32/48/12
f 29/49/13 33/50/13 25/51/13 30/52/13
f 11/53/14 10/54/14 34/55/14 35/56/14
f 33/57/15 36/58/15 25/59/15
f 25/60/16 36/61/16 37/62/16 31/63/16
f 10/64/17 38/65/17 39/66/17 34/67/17
f 22/68/18 21/69/18 40/70/18 41/71/18
f 42/72/19 20/73/19 29/74/19 28/75/19
f 19/76/20 22/77/20 36/78/20 33/79/20
f 4/80/21 3/81/21 43/82/21 44/83/21
f 2/84/22 16/85/22 3/86/22
f 16/87/23 2/88/23 20/89/23 42/90/23
f 6/91/24 5/92/24 10/93/24 9/94/24
f 44/95/25 43/96/25 8/97/25 7/98/25
f 43/99/26 3/100/26 16/101/26
f 16/102/27 8/103/27 43/104/27
f 45/105/28 46/106/28 47/107/28
f 48/108/29 17/109/29 2/110/29 1/111/29
f 45/112/30 47/113/30 49/114/30 50/115/30
f 17/116/31 48/117/31 50/118/31 49/119/31
f 51/120/32 49/121/32 47/122/32
f 14/123/33 18/124/33 51/125/33 52/126/33
f 18/127/34 17/128/34 49/129/34 51/130/34
f 47/131/35 46/132/35 53/133/35 54/134/35
f 20/135/36 19/136/36 33/137/36 29/138/36
f 30/139/37 25/140/37 27/141/37
f 6/142/38 9/143/38 13/144/38 15/145/38 24/146/38 45/147/38 50/148/38 48/149/38 1/150/38 4/151/38 44/152/38 7/153/38
f 55/154/39 34/155/39 56/156/39 57/157/39
f 26/158/40 58/159/40 28/160/40 27/161/40
f 58/162/41 38/163/41 42/164/41 28/165/41
f 38/166/42 10/167/42 5/168/42 16/169/42 42/170/42
f 38/171/43 58/172/43 59/173/43 39/174/43
f 21/175/44 12/176/44 55/177/44 40/178/44
f 12/179/45 11/180/45 35/181/45 55/182/45
f 58/183/46 26/184/46 32/185/46 59/186/46
f 36/187/47 22/188/47 41/189/47 37/190/47
f 34/191/48 39/192/48 56/193/48
f 60/194/49 61/195/49 62/196/49 63/197/49
f 61/198/50 59/199/50 32/200/50 62/201/50
f 57/202/51 56/203/51 61/204/51 60/205/51
f 41/206/52 57/207/52 60/208/52
f 56/209/53 39/210/53 59/211/53 61/212/53
f 32/213/54 31/214/54 63/215/54 62/216/54
f 41/217/55 40/218/55 55/219/55 57/220/55
f 55/221/56 35/222/56 34/223/56
f 31/224/57 37/225/57 60/226/57 63/227/57
f 37/228/58 41/229/58 60/230/58
f 52/231/59 51/232/59 64/233/59 65/234/59
f 14/235/60 52/236/60 65/237/60 66/238/60
f 24/239/61 23/240/61 46/241/61 45/242/61
f 67/243/62 66/244/62 65/245/62
f 54/246/63 53/247/63 67/248/63
f 64/249/64 54/250/64 68/251/64
f 51/252/65 47/253/65 54/254/65 64/255/65
f 23/256/66 14/257/66 66/258/66 67/259/66
f 46/260/67 23/261/67 67/262/67 53/263/67
f 67/264/68 65/265/68 68/266/68
f 65/267/69 64/268/69 68/269/69
f 54/270/70 67/271/70 68/272/70
