mtllib LOW_POLY_set.mtl
o lp_stone_with_moss_2_001_Cube_011
v 66.712791 0.750959 34.050617
v 66.894676 1.358915 33.847767
v 66.933243 1.171638 32.896156
v 68.921165 1.583605 31.154774
v 69.007919 1.171638 31.030165
v 68.056084 0.950761 30.331444
v 68.178673 1.583605 30.624071
v 69.408203 1.907244 31.302074
v 69.547722 1.907244 33.623722
v 69.639610 1.825551 33.712624
v 69.623817 1.765281 32.611649
v 69.738686 1.171638 31.868456
v 69.658661 1.585197 32.386200
v 70.143944 1.621694 32.814693
v 70.231033 1.171638 32.251259
v 69.128998 2.040547 31.633989
v 69.155579 2.040547 33.244316
v 67.093155 1.972859 32.454323
v 67.064407 1.615397 32.804180
v 66.982262 1.659596 32.869080
v 67.014725 2.017931 32.540379
v 67.126526 2.036450 31.281168
v 67.327057 2.060832 33.060246
v 67.417801 2.117961 31.723385
v 67.714249 2.522588 32.102512
v 67.261353 2.143932 33.121639
v 67.632011 2.585596 32.200943
v 69.210335 2.522588 33.115620
v 69.012405 2.522588 31.620220
v 68.917587 3.123516 31.962139
v 69.072090 2.884140 32.987274
v 67.768341 2.522588 31.610186
v 67.946350 2.884140 31.677547
v 67.887321 3.048635 32.556301
v 68.476616 3.123516 32.376854
v 66.865997 1.465739 33.886742
v 66.885323 1.263125 32.938839
v 68.533447 2.990556 32.973518
v 69.735588 0.750959 31.143562
v 69.589989 1.171638 31.213224
v 69.736931 0.750959 31.762020
v 66.706718 0.750959 32.992809
v 68.661713 1.500413 33.759991
v 68.248428 1.852661 33.645172
v 67.815651 1.526313 33.704430
v 68.849220 1.318419 34.426437
v 69.707863 1.042579 34.316975
v 69.722382 1.111583 34.389969
v 68.851257 1.380655 34.453133
v 68.391045 0.750959 33.862762
v 68.482681 1.171638 33.861248
v 70.229279 0.750959 32.144821
v 68.571518 1.334776 33.811005
v 70.482986 0.930662 34.183491
v 70.402596 1.358164 34.105709
v 70.642548 0.750959 34.343613
v 68.814011 1.171638 34.470905
v 68.745285 0.750959 34.563534
v 69.692413 1.817762 32.679436
v 69.708824 1.664063 32.401016
v 65.740509 0.961587 30.776100
v 66.105782 1.270378 30.902882
v 66.098618 0.961587 32.437111
v 65.926308 0.750959 32.627823
v 69.060547 0.750959 30.949810
v 67.044189 1.918550 31.201511
v 65.639816 0.750959 30.722733
v 68.325577 0.750959 30.314430
v 66.324394 1.264098 32.423920
v 67.779892 2.040547 33.459152
v 68.959152 2.522588 33.119766
v 68.821777 2.562356 33.183983
v 67.723091 2.103045 33.547874
v 68.167641 1.881414 33.680607
v 67.795761 1.601575 33.745975
v 67.092224 1.974076 33.712166
v 67.297607 2.153124 33.474449
v 66.965538 1.963341 33.232533
v 66.855347 1.690916 33.428520
v 68.663696 1.586110 33.806641
v 68.585793 1.433817 33.846394
v 68.894905 1.518835 34.330086
v 70.183083 1.691220 32.847828
v 70.418747 1.415769 34.173454
v 70.322685 1.686345 34.168839
v 69.656975 1.544836 34.345314
v 70.047050 1.827144 33.009995
v 69.721985 1.888847 33.743305
v 68.128349 2.625350 33.339466
v 67.822464 3.123300 32.658638
v 68.467850 3.038856 33.046917
v 68.371437 3.165212 32.464111
v 67.797417 3.088917 33.031597
v 67.515137 2.711110 33.348007
v 67.432205 2.701601 32.928452
v 69.160149 1.750973 34.058838
vt 0.553082 0.914444
vt 0.553082 0.889415
vt 0.604340 0.889415
vt 0.945724 0.548432
vt 0.920295 0.548432
vt 0.920295 0.600090
vt 0.945724 0.600090
vt 0.553082 0.809926
vt 0.657200 0.809926
vt 0.657200 0.758268
vt 0.553082 0.758268
vt 0.893265 0.889415
vt 0.867836 0.889415
vt 0.867836 0.914844
vt 0.893265 0.914844
vt 0.788347 0.705008
vt 0.788347 0.600891
vt 0.762918 0.600891
vt 0.762918 0.705008
vt 0.262205 0.941074
vt 0.287634 0.941074
vt 0.287634 0.935317
vt 0.262205 0.935317
vt 0.919495 0.809926
vt 0.919495 0.758268
vt 0.894066 0.758268
vt 0.894066 0.809926
vt 0.262205 0.934516
vt 0.313863 0.934516
vt 0.313863 0.928760
vt 0.262205 0.928760
vt 0.814577 0.705008
vt 0.814577 0.600891
vt 0.789148 0.600891
vt 0.789148 0.705008
vt 0.658000 0.914844
vt 0.709659 0.914844
vt 0.709659 0.889415
vt 0.658000 0.889415
vt 0.840806 0.705008
vt 0.840806 0.600891
vt 0.815377 0.600891
vt 0.815377 0.705008
vt 0.553082 0.862385
vt 0.657200 0.862385
vt 0.657200 0.836956
vt 0.553082 0.836956
vt 0.814577 0.758268
vt 0.762918 0.758268
vt 0.762918 0.809926
vt 0.814577 0.809926
vt 0.867036 0.705809
vt 0.815377 0.705809
vt 0.815377 0.757467
vt 0.867036 0.757467
vt 0.945724 0.705809
vt 0.920295 0.705809
vt 0.920295 0.731238
vt 0.945724 0.731238
vt 0.438453 0.678779
vt 0.438453 0.627120
vt 0.432697 0.627120
vt 0.432697 0.678779
vt 0.841607 0.862385
vt 0.893265 0.862385
vt 0.893265 0.836956
vt 0.841607 0.836956
vt 0.840806 0.888615
vt 0.840806 0.836956
vt 0.815377 0.836956
vt 0.815377 0.888615
vt 0.840806 0.889415
vt 0.815377 0.889415
vt 0.815377 0.914844
vt 0.840806 0.914844
vt 0.919495 0.863586
vt 0.894466 0.914844
vt 0.919495 0.914844
vt 0.762918 0.837701
vt 0.814577 0.836956
vt 0.814577 0.888615
vt 0.800052 0.881020
vt 0.766698 0.863580
vt 0.553082 0.876932
vt 0.627301 0.863186
vt 0.657200 0.864421
vt 0.657200 0.882400
vt 0.574982 0.888615
vt 0.438453 0.914844
vt 0.438453 0.863186
vt 0.432697 0.863186
vt 0.432697 0.914844
vt 0.894066 0.863186
vt 0.919094 0.863186
vt 0.894066 0.914444
vt 0.945724 0.600891
vt 0.920295 0.600891
vt 0.920295 0.626320
vt 0.945724 0.626320
vt 0.762118 0.885458
vt 0.736267 0.887024
vt 0.710020 0.888615
vt 0.663682 0.878792
vt 0.658000 0.867285
vt 0.762118 0.863186
vt 0.894466 0.600090
vt 0.919495 0.600090
vt 0.919495 0.548832
vt 0.893265 0.652549
vt 0.878934 0.645162
vt 0.873780 0.602117
vt 0.867836 0.552478
vt 0.893265 0.548432
vt 0.867036 0.836156
vt 0.867036 0.810727
vt 0.762918 0.810727
vt 0.762918 0.836156
vt 0.867036 0.600891
vt 0.841607 0.600891
vt 0.841607 0.705008
vt 0.867036 0.705008
vt 0.893265 0.888615
vt 0.893265 0.863186
vt 0.841607 0.863186
vt 0.841607 0.888615
vt 0.326978 0.947631
vt 0.326978 0.935317
vt 0.321221 0.935317
vt 0.321221 0.947631
vt 0.762118 0.862385
vt 0.762118 0.836956
vt 0.658000 0.836956
vt 0.658000 0.862385
vt 0.919495 0.600891
vt 0.894066 0.600891
vt 0.894066 0.652549
vt 0.919495 0.652549
vt 0.814577 0.889415
vt 0.789148 0.889415
vt 0.789148 0.914844
vt 0.814577 0.914844
vt 0.658000 0.836156
vt 0.762118 0.836156
vt 0.762118 0.810727
vt 0.658000 0.810727
vt 0.906380 0.653350
vt 0.894066 0.653350
vt 0.894066 0.757467
vt 0.906380 0.757467
vt 0.657200 0.836156
vt 0.657200 0.810727
vt 0.553082 0.810727
vt 0.553082 0.836156
vt 0.919495 0.653350
vt 0.907181 0.653350
vt 0.907181 0.757467
vt 0.919495 0.757467
vt 0.762118 0.914844
vt 0.762118 0.889415
vt 0.710459 0.889415
vt 0.710459 0.914844
vt 0.919495 0.810727
vt 0.894066 0.810727
vt 0.894066 0.862385
vt 0.919495 0.862385
vt 0.646075 0.582443
vt 0.669149 0.548432
vt 0.762118 0.548578
vt 0.762118 0.677499
vt 0.726473 0.707451
vt 0.712333 0.737740
vt 0.682817 0.733392
vt 0.660983 0.753761
vt 0.553082 0.757467
vt 0.556351 0.666884
vt 0.592354 0.655262
vt 0.595564 0.575183
vt 0.762918 0.600090
vt 0.867036 0.600090
vt 0.867036 0.548432
vt 0.762918 0.548432
vt 0.431896 0.941074
vt 0.431896 0.889415
vt 0.426140 0.889415
vt 0.426140 0.941074
vt 0.788347 0.889415
vt 0.762918 0.889415
vt 0.762918 0.914844
vt 0.788347 0.914844
vt 0.867036 0.758268
vt 0.815377 0.758268
vt 0.815377 0.809926
vt 0.867036 0.809926
vt 0.288435 0.941074
vt 0.313863 0.941074
vt 0.313863 0.935317
vt 0.288435 0.935317
vt 0.451568 0.600090
vt 0.451568 0.574661
vt 0.445812 0.574661
vt 0.445812 0.600090
vt 0.893265 0.653350
vt 0.867836 0.653350
vt 0.867836 0.705008
vt 0.893265 0.705008
vt 0.445011 0.678779
vt 0.445011 0.627120
vt 0.439254 0.627120
vt 0.439254 0.678779
vt 0.683429 0.927959
vt 0.683429 0.915645
vt 0.631771 0.915645
vt 0.631771 0.927959
vt 0.392552 0.757467
vt 0.392552 0.705809
vt 0.367123 0.705809
vt 0.367123 0.757467
vt 0.156486 0.914844
vt 0.156486 0.889816
vt 0.105228 0.914844
vt 0.392552 0.836156
vt 0.392552 0.811127
vt 0.367524 0.836156
vt 0.367524 0.809926
vt 0.392552 0.758668
vt 0.392552 0.809926
vt 0.445011 0.837357
vt 0.419983 0.862385
vt 0.445011 0.862385
vt 0.367123 0.934516
vt 0.392552 0.934516
vt 0.392552 0.928760
vt 0.367123 0.928760
vt 0.451568 0.573860
vt 0.451568 0.548432
vt 0.445812 0.548432
vt 0.445812 0.573860
vt 0.156486 0.941074
vt 0.156486 0.928760
vt 0.131058 0.928760
vt 0.131058 0.941074
vt 0.945724 0.941074
vt 0.945724 0.915645
vt 0.939968 0.915645
vt 0.939968 0.941074
vt 0.932609 0.627521
vt 0.932609 0.678779
vt 0.920696 0.678779
vt 0.320421 0.947631
vt 0.320421 0.935317
vt 0.314664 0.935317
vt 0.314664 0.947631
vt 0.157287 0.934516
vt 0.182716 0.934516
vt 0.182716 0.928760
vt 0.157287 0.928760
vt 0.438453 0.941074
vt 0.438453 0.915645
vt 0.432697 0.915645
vt 0.432697 0.941074
vt 0.313863 0.916045
vt 0.313863 0.927959
vt 0.262605 0.927959
vt 0.314664 0.927959
vt 0.366322 0.927959
vt 0.366322 0.915645
vt 0.314664 0.915645
vt 0.431896 0.888615
vt 0.431896 0.863186
vt 0.419582 0.863186
vt 0.419582 0.888615
vt 0.367123 0.927959
vt 0.418781 0.927959
vt 0.418781 0.922202
vt 0.367123 0.922202
vt 0.425339 0.941074
vt 0.425339 0.889415
vt 0.419582 0.889415
vt 0.419582 0.941074
vt 0.367123 0.921402
vt 0.418781 0.921402
vt 0.418781 0.915645
vt 0.367123 0.915645
vt 0.945724 0.810727
vt 0.920295 0.810727
vt 0.920295 0.836156
vt 0.945724 0.836156
vt 0.419582 0.678378
vt 0.431496 0.627120
vt 0.419582 0.627120
vt 0.393353 0.548432
vt 0.393353 0.599690
vt 0.418381 0.548432
vt 0.262205 0.915645
vt 0.262205 0.927558
vt 0.313463 0.915645
vt 0.392151 0.810727
vt 0.367123 0.810727
vt 0.367123 0.835755
vt 0.419582 0.861985
vt 0.419582 0.836956
vt 0.444610 0.836956
vt 0.445011 0.784497
vt 0.419582 0.784497
vt 0.419582 0.809926
vt 0.445011 0.809926
vt 0.445011 0.758268
vt 0.419582 0.758268
vt 0.419582 0.783697
vt 0.445011 0.783697
vt 0.367123 0.809526
vt 0.392151 0.758268
vt 0.367123 0.758268
vt 0.762118 0.758668
vt 0.762118 0.809926
vt 0.658401 0.809926
vt 0.445011 0.914844
vt 0.445011 0.863186
vt 0.439254 0.863186
vt 0.439254 0.914844
vt 0.658000 0.809526
vt 0.761717 0.758268
vt 0.658000 0.758268
vt 0.262605 0.757467
vt 0.313863 0.706209
vt 0.313863 0.757467
vt 0.314664 0.934516
vt 0.366322 0.934516
vt 0.366322 0.928760
vt 0.314664 0.928760
vt 0.451568 0.626320
vt 0.451568 0.600891
vt 0.445812 0.600891
vt 0.445812 0.626320
vt 0.157287 0.941074
vt 0.182716 0.941074
vt 0.182716 0.935317
vt 0.157287 0.935317
vt 0.393353 0.934516
vt 0.418781 0.934516
vt 0.418781 0.928760
vt 0.393353 0.928760
vt 0.077798 0.916045
vt 0.052769 0.941074
vt 0.077798 0.941074
vt 0.052369 0.940673
vt 0.052369 0.915645
vt 0.077397 0.915645
vt 0.445011 0.679579
vt 0.419582 0.679579
vt 0.419582 0.705008
vt 0.445011 0.705008
vt 0.235175 0.941074
vt 0.210146 0.941074
vt 0.235175 0.916045
vt 0.445011 0.732439
vt 0.445011 0.757467
vt 0.419983 0.757467
vt 0.341294 0.914844
vt 0.366322 0.889816
vt 0.366322 0.914844
vt 0.262205 0.705809
vt 0.313463 0.705809
vt 0.262205 0.757067
vt 0.209746 0.940673
vt 0.234774 0.915645
vt 0.209746 0.915645
vt 0.104027 0.916045
vt 0.078999 0.941074
vt 0.104027 0.941074
vt 0.104828 0.914444
vt 0.156086 0.889415
vt 0.104828 0.889415
vt 0.183917 0.941074
vt 0.208945 0.916045
vt 0.208945 0.941074
vt 0.419582 0.757067
vt 0.419582 0.732038
vt 0.444610 0.732038
vt 0.340894 0.889415
vt 0.365922 0.889415
vt 0.340894 0.914444
vt 0.130257 0.941074
vt 0.105228 0.941074
vt 0.130257 0.916045
vt 0.078598 0.940673
vt 0.103627 0.915645
vt 0.078598 0.915645
vt 0.261404 0.915645
vt 0.235976 0.915645
vt 0.235976 0.941074
vt 0.261404 0.941074
vt 0.104828 0.940673
vt 0.104828 0.915645
vt 0.129856 0.915645
vt 0.183517 0.915645
vt 0.183517 0.940673
vt 0.208545 0.915645
vn -0.9620 0.2579 -0.0897
vn 0.5350 0.2974 -0.7908
vn 0.7125 0.7003 -0.0447
vn 0.4114 0.7421 -0.5292
vn 0.3700 0.9289 -0.0156
vn -0.7333 -0.4337 -0.5236
vn -0.3560 0.9341 0.0273
vn -0.8219 -0.3076 -0.4795
vn 0.0452 0.9624 -0.2678
vn 0.9602 0.2569 -0.1099
vn -0.0301 -0.1339 -0.9905
vn 0.9960 0.0532 -0.0720
vn -0.7863 0.6164 -0.0430
vn -0.1812 0.9644 -0.1927
vn -0.8953 0.4276 -0.1252
vn -0.9247 -0.3774 0.0493
vn 0.0808 0.3841 -0.9197
vn 0.1852 0.9628 0.1969
vn 0.9749 0.1907 -0.1148
vn -0.8800 0.4750 0.0051
vn 0.9401 0.3051 -0.1523
vn -0.0431 0.3457 0.9374
vn -0.1071 -0.5928 0.7982
vn 0.1112 -0.0206 0.9936
vn 0.6022 0.1935 -0.7745
vn 0.0210 0.3582 0.9334
vn 0.1954 0.2110 0.9578
vn 0.1555 0.4032 0.9018
vn 0.9605 0.2399 -0.1407
vn 0.9624 0.2467 -0.1138
vn -0.8652 0.2156 0.4527
vn -0.4387 0.7280 -0.5268
vn -0.1749 0.4748 -0.8625
vn -0.4279 0.5842 0.6897
vn 0.2793 0.2319 -0.9318
vn 0.0407 0.4148 -0.9090
vn -0.1671 0.0995 -0.9809
vn -0.7248 0.6761 0.1327
vn -0.8078 0.5711 0.1460
vn 0.5372 0.3958 -0.7448
vn -0.5358 0.3637 0.7620
vn 0.0000 -1.0000 0.0000
vn -0.0417 0.8265 -0.5614
vn 0.4199 -0.4120 0.8087
vn 0.0336 0.3346 0.9418
vn 0.1274 0.2965 0.9465
vn 0.4480 0.8812 -0.1512
vn -0.6251 0.0195 -0.7803
vn 0.0232 0.8840 0.4669
vn 0.1981 -0.3517 0.9149
vn -0.9698 0.2422 0.0274
vn 0.0458 0.6928 0.7197
vn 0.0437 0.1718 0.9842
vn -0.5617 0.8170 0.1301
vn 0.1033 0.2816 0.9539
vn -0.8507 0.4636 0.2476
vn 0.3633 -0.3009 0.8817
vn 0.4221 0.8469 -0.3235
vn -0.7527 0.5322 0.3875
vn -0.8001 0.4437 0.4037
vn 0.1983 0.2403 0.9502
vn -0.8187 0.2917 -0.4946
vn -0.9133 -0.0626 0.4024
vn 0.6703 -0.1699 -0.7224
vn 0.2351 0.0999 0.9668
vn 0.8500 0.5194 -0.0879
vn 0.3596 0.8320 -0.4225
vn -0.2113 0.5419 -0.8135
vn 0.9461 -0.2317 -0.2265
vn 0.4758 -0.7029 0.5287
vn 0.2236 0.2286 -0.9475
vn 0.1080 0.1180 0.9871
vn 0.2398 0.1353 0.9613
vn -0.0377 0.6712 0.7403
vn -0.8435 0.4936 0.2118
vn -0.9973 0.0273 -0.0687
vn -0.5123 0.8582 0.0309
vn -0.9521 0.2045 -0.2274
vn -0.9981 -0.0617 -0.0071
vn -0.5848 0.8064 0.0874
vn -0.5931 0.8043 -0.0364
vn -0.4918 0.8544 0.1678
vn 0.2316 0.2001 0.9520
vn -0.2884 0.6780 -0.6762
vn 0.6017 0.6400 0.4779
vn -0.2917 0.6762 -0.6766
vn 0.5438 0.8317 0.1122
vn 0.2346 0.4257 0.8739
vn -0.0445 0.9951 0.0887
vn -0.9234 0.3598 0.1338
vn 0.0684 0.9773 0.2006
vn -0.7385 0.6615 0.1310
vn -0.0391 0.7777 0.6274
vn 0.2887 0.9562 0.0475
vn -0.0547 0.8695 0.4909
vn -0.2785 0.9573 -0.0776
vn 0.0367 0.9970 -0.0676
vn 0.0694 0.8629 0.5006
vn -0.4348 0.8487 0.3011
vn -0.1331 0.2681 0.9541
vn 0.0292 0.6289 0.7770
vn -0.9390 0.1879 -0.2879
vn -0.7800 0.5918 -0.2033
vn 0.0856 0.5277 0.8451
vn 0.0593 0.3299 0.9421
usemtl STONE_1.002
f 1/1/1 2/2/1 3/3/1
f 4/4/2 5/5/2 6/6/2 7/7/2
f 8/8/3 9/9/3 10/10/3 11/11/3
f 12/12/4 13/13/4 14/14/4 15/15/4
f 9/16/5 8/17/5 16/18/5 17/19/5
f 18/20/6 19/21/6 20/22/6 21/23/6
f 22/24/7 18/25/7 23/26/7 24/27/7
f 25/28/8 23/29/8 26/30/8 27/31/8
f 8/32/9 22/33/9 24/34/9 16/35/9
f 28/36/10 29/37/10 30/38/10 31/39/10
f 16/40/11 24/41/11 32/42/11 29/43/11
f 17/44/12 16/45/12 29/46/12 28/47/12
f 24/48/13 23/49/13 25/50/13 32/51/13
f 30/52/14 33/53/14 34/54/14 35/55/14
f 32/56/15 25/57/15 34/58/15 33/59/15
f 3/60/16 2/61/16 36/62/16 37/63/16
f 29/64/17 32/65/17 33/66/17 30/67/17
f 31/68/18 30/69/18 35/70/18 38/71/18
f 39/72/19 40/73/19 12/74/19 41/75/19
f 1/76/20 3/77/20 42/78/20
f 40/79/21 8/80/21 11/81/21 13/82/21 12/83/21
f 43/84/22 10/85/22 9/86/22 44/87/22 45/88/22
f 46/89/23 47/90/23 48/91/23 49/92/23
f 50/93/24 51/94/24 1/95/24
f 41/96/25 12/97/25 15/98/25 52/99/25
f 51/100/26 53/101/26 43/102/26 45/103/26 2/104/26 1/105/26
f 54/106/27 55/107/27 47/108/27
f 56/109/28 54/110/28 47/111/28 57/112/28 58/113/28
f 52/114/29 15/115/29 54/116/29 56/117/29
f 15/118/30 14/119/30 55/120/30 54/121/30
f 51/122/31 50/123/31 58/124/31 57/125/31
f 13/126/32 11/127/32 59/128/32 60/129/32
f 61/130/33 62/131/33 7/132/33 6/133/33
f 42/134/34 3/135/34 63/136/34 64/137/34
f 65/138/35 5/139/35 40/140/35 39/141/35
f 4/142/36 66/143/36 22/144/36 8/145/36
f 67/146/37 61/147/37 6/148/37 68/149/37
f 63/150/38 69/151/38 62/152/38 61/153/38
f 64/154/39 63/155/39 61/156/39 67/157/39
f 5/158/40 65/159/40 68/160/40 6/161/40
f 3/162/41 19/163/41 69/164/41 63/165/41
f 42/166/42 64/167/42 67/168/42 68/169/42 65/170/42 39/171/42 41/172/42 52/173/42 56/174/42 58/175/42 50/176/42 1/177/42
f 66/178/43 4/179/43 7/180/43 62/181/43
f 70/182/44 71/183/44 72/184/44 73/185/44
f 38/186/45 71/187/45 28/188/45 31/189/45
f 71/190/46 70/191/46 17/192/46 28/193/46
f 44/194/47 70/195/47 73/196/47 74/197/47
f 19/198/48 3/199/48 37/200/48 20/201/48
f 70/202/49 44/203/49 9/204/49 17/205/49
f 2/206/50 45/207/50 75/208/50 36/209/50
f 19/210/51 18/211/51 22/212/51 66/213/51
f 76/214/52 74/215/52 73/216/52 77/217/52
f 75/218/53 74/219/53 76/220/53
f 77/221/54 78/222/54 76/223/54
f 36/224/55 75/225/55 76/226/55
f 36/227/56 76/228/56 79/229/56
f 45/230/57 44/231/57 74/232/57 75/233/57
f 23/234/58 18/235/58 21/236/58 26/237/58
f 80/238/59 81/239/59 49/240/59 82/241/59
f 46/242/60 53/243/60 51/244/60 57/245/60
f 47/246/61 46/247/61 57/248/61
f 43/249/62 53/250/62 81/251/62 80/252/62
f 53/253/63 46/254/63 49/255/63 81/256/63
f 14/257/64 13/258/64 60/259/64 83/260/64
f 84/261/65 85/262/65 86/263/65
f 84/264/66 83/265/66 87/266/66 85/267/66
f 83/268/67 60/269/67 59/270/67 87/271/67
f 10/272/68 43/273/68 80/274/68 88/275/68
f 55/276/69 14/277/69 83/278/69 84/279/69
f 47/280/70 55/281/70 84/282/70 48/283/70
f 5/284/71 4/285/71 8/286/71 40/287/71
f 49/288/72 48/289/72 86/290/72
f 48/291/73 84/292/73 86/293/73
f 82/294/74 49/295/74 86/296/74
f 78/297/75 79/298/75 76/299/75
f 21/300/76 20/301/76 78/302/76
f 26/303/77 21/304/77 78/305/77 77/306/77
f 20/307/78 37/308/78 79/309/78 78/310/78
f 37/311/79 36/312/79 79/313/79
usemtl Material.031
f 66/314/80 62/315/80 69/316/80
f 11/317/81 10/318/81 88/319/81 59/320/81
f 19/321/82 66/322/82 69/323/82
f 73/324/83 72/325/83 89/326/83
f 34/327/84 25/328/84 27/329/84 90/330/84
f 71/331/85 38/332/85 91/333/85 72/334/85
f 35/335/86 34/336/86 90/337/86 92/338/86
f 38/339/87 35/340/87 92/341/87 91/342/87
f 89/343/88 72/344/88 91/345/88
f 92/346/89 90/347/89 93/348/89
f 26/349/90 77/350/90 94/351/90 95/352/90
f 91/353/91 92/354/91 93/355/91
f 93/356/92 95/357/92 94/358/92
f 82/359/93 86/360/93 96/361/93
f 88/362/94 85/363/94 87/364/94
f 85/365/95 88/366/95 86/367/95
f 88/368/96 80/369/96 96/370/96
f 59/371/97 88/372/97 87/373/97
f 86/374/98 88/375/98 96/376/98
f 80/377/99 82/378/99 96/379/99
f 77/380/100 73/381/100 94/382/100
f 93/383/101 94/384/101 91/385/101
f 27/386/102 26/387/102 95/388/102
f 90/389/103 27/390/103 95/391/103 93/392/103
f 94/393/104 89/394/104 91/395/104
f 94/396/105 73/397/105 89/398/105
