mtllib LOW_POLY_set.mtl
o lp_stone_7_001_Cube_018
v 126.916992 0.745981 31.446314
v 127.043320 1.897918 31.457077
v 127.207535 1.825637 30.605873
v 126.977684 0.745981 30.681112
v 129.212997 1.473832 30.591816
v 129.282471 0.745981 30.537193
v 129.189163 0.745981 29.904684
v 129.109039 1.185928 29.944792
v 129.950302 0.745981 30.917597
v 129.854111 1.321655 30.953953
v 130.142807 1.767888 32.224396
v 130.378876 0.745981 32.290344
v 128.769257 1.235191 33.211708
v 128.916321 0.745981 33.319397
v 128.600281 1.985480 30.366537
v 129.613831 2.281697 30.941664
v 129.773758 2.512789 31.935522
v 127.278084 1.062770 32.085972
v 127.773491 1.626618 32.809906
v 127.742851 2.393885 32.614029
v 127.438622 2.315237 31.426443
v 128.254730 2.509792 30.632198
v 129.073120 2.308021 32.703514
v 128.263382 1.196904 34.170784
v 128.310654 0.745981 34.328327
v 128.319855 3.962731 31.929518
v 128.821732 3.603752 31.859447
v 129.105713 3.680325 31.301147
v 128.264816 3.822476 31.100649
v 128.203812 3.098412 30.930574
v 127.545189 2.998961 31.513783
v 127.925240 3.883147 31.515276
v 128.957245 3.209933 32.086681
v 129.137421 3.277266 31.277237
v 127.977318 3.305521 32.248238
v 127.953979 1.151831 29.793337
v 127.902710 0.745981 29.712265
v 126.911621 1.641599 33.736797
v 126.763588 0.745981 33.963371
v 127.080299 0.745981 32.015121
v 126.405083 1.190532 32.549965
v 126.215721 0.745981 32.507896
v 127.249794 1.828284 33.343079
vt 0.953832 0.634480
vt 0.904633 0.634480
vt 0.904633 0.683679
vt 0.953832 0.683679
vt 0.928832 0.834480
vt 0.904633 0.834480
vt 0.904633 0.883679
vt 0.928832 0.883679
vt 0.853832 0.683679
vt 0.853832 0.634480
vt 0.754633 0.634480
vt 0.754633 0.683679
vt 0.803832 0.534480
vt 0.754633 0.534480
vt 0.754633 0.633679
vt 0.803832 0.633679
vt 0.928832 0.784880
vt 0.928832 0.833679
vt 0.905033 0.833679
vt 0.853832 0.834480
vt 0.804633 0.834480
vt 0.804633 0.883679
vt 0.853832 0.883679
vt 0.578447 0.734480
vt 0.653832 0.741529
vt 0.653832 0.815204
vt 0.601379 0.833679
vt 0.554633 0.762570
vt 0.758657 0.733679
vt 0.754633 0.713530
vt 0.792797 0.693349
vt 0.853832 0.684480
vt 0.853832 0.722125
vt 0.853832 0.633679
vt 0.853832 0.534480
vt 0.804633 0.534480
vt 0.804633 0.633679
vt 0.753832 0.834480
vt 0.704633 0.834480
vt 0.704633 0.883679
vt 0.753832 0.883679
vt 0.903832 0.908679
vt 0.903832 0.884480
vt 0.854633 0.884480
vt 0.854633 0.908679
vt 0.653832 0.884480
vt 0.604633 0.884480
vt 0.604633 0.933679
vt 0.653832 0.933679
vt 0.603832 0.834480
vt 0.554633 0.834480
vt 0.554633 0.883679
vt 0.603832 0.883679
vt 0.928832 0.783679
vt 0.928832 0.734480
vt 0.904633 0.734480
vt 0.904633 0.783679
vt 0.703832 0.834480
vt 0.654633 0.834480
vt 0.654633 0.883679
vt 0.703832 0.883679
vt 0.804633 0.908679
vt 0.853832 0.908679
vt 0.853832 0.884480
vt 0.804633 0.884480
vt 0.928832 0.733679
vt 0.928832 0.684480
vt 0.904633 0.684480
vt 0.904633 0.733679
vt 0.903832 0.684480
vt 0.854633 0.684480
vt 0.854633 0.733679
vt 0.903832 0.733679
vt 0.705033 0.933679
vt 0.753832 0.933679
vt 0.753832 0.884880
vt 0.803832 0.834480
vt 0.754633 0.834480
vt 0.754633 0.883679
vt 0.803832 0.883679
vt 0.903832 0.734480
vt 0.854633 0.734480
vt 0.854633 0.783679
vt 0.903832 0.783679
vt 0.903832 0.784480
vt 0.854633 0.784480
vt 0.854633 0.833679
vt 0.903832 0.833679
vt 0.753832 0.783679
vt 0.753832 0.734480
vt 0.654633 0.734480
vt 0.654633 0.783679
vt 0.605033 0.883679
vt 0.653832 0.834880
vt 0.653832 0.883679
vt 0.928832 0.633679
vt 0.928832 0.534480
vt 0.904633 0.534480
vt 0.904633 0.633679
vt 0.903832 0.834480
vt 0.854633 0.834480
vt 0.854633 0.883679
vt 0.903832 0.883679
vt 0.803832 0.908679
vt 0.803832 0.884480
vt 0.754633 0.884480
vt 0.754633 0.908679
vt 0.753832 0.833679
vt 0.655033 0.833679
vt 0.753832 0.784880
vt 0.753431 0.884480
vt 0.704633 0.884480
vt 0.704633 0.933279
vt 0.903832 0.534480
vt 0.854633 0.534480
vt 0.854633 0.633679
vt 0.903832 0.633679
vt 0.703832 0.884480
vt 0.654633 0.884480
vt 0.654633 0.933679
vt 0.703832 0.933679
vt 0.853832 0.833679
vt 0.853832 0.784480
vt 0.754633 0.784480
vt 0.754633 0.833679
vt 0.953832 0.534480
vt 0.929633 0.534480
vt 0.929633 0.583679
vt 0.953832 0.583679
vt 0.654633 0.784480
vt 0.753431 0.784480
vt 0.654633 0.833279
vt 0.604633 0.883279
vt 0.604633 0.834480
vt 0.653431 0.834480
vt 0.603832 0.884480
vt 0.554633 0.884480
vt 0.554633 0.933679
vt 0.603832 0.933679
vt 0.853832 0.783679
vt 0.853832 0.734480
vt 0.754633 0.734480
vt 0.754633 0.783679
vt 0.903832 0.634480
vt 0.854633 0.634480
vt 0.854633 0.683679
vt 0.903832 0.683679
vt 0.904633 0.784480
vt 0.904633 0.833279
vt 0.928431 0.784480
vt 0.641350 0.550911
vt 0.682574 0.541827
vt 0.753832 0.570478
vt 0.737472 0.647262
vt 0.753832 0.696864
vt 0.678829 0.733679
vt 0.599621 0.706200
vt 0.613878 0.664339
vt 0.584911 0.652025
vt 0.556909 0.626765
vt 0.554633 0.568487
vt 0.612592 0.534480
vn -0.9780 0.1520 -0.1429
vn 0.9735 0.1394 -0.1815
vn 0.9389 0.1900 -0.2869
vn 0.5351 0.2291 0.8131
vn 0.6706 0.6318 -0.3889
vn 0.9215 0.2822 -0.2670
vn -0.8683 0.2567 0.4245
vn 0.4169 0.3010 -0.8577
vn 0.5261 0.3573 0.7717
vn -0.1187 0.3702 0.9214
vn 0.8269 0.3044 0.4729
vn 0.3484 0.9372 0.0145
vn -0.6875 0.2609 -0.6777
vn 0.9014 0.2746 0.3348
vn -0.7883 0.4548 0.4144
vn 0.2882 0.1551 -0.9449
vn 0.2610 0.4040 0.8767
vn 0.7873 0.6148 -0.0470
vn 0.5602 0.5155 0.6485
vn 0.2568 0.4315 -0.8648
vn -0.6879 0.2379 -0.6857
vn 0.0645 0.4721 0.8792
vn -0.6967 0.1346 -0.7046
vn -0.1318 0.9853 -0.1091
vn -0.6226 0.2203 -0.7509
vn 0.5005 0.1234 -0.8569
vn 0.1360 0.1450 -0.9800
vn -0.2003 0.6558 -0.7279
vn 0.0968 0.5119 -0.8536
vn -0.2143 0.2827 0.9349
vn -0.8919 0.1736 0.4175
vn -0.9088 0.2723 0.3162
vn -0.4334 0.3439 -0.8330
vn -0.5516 0.8302 -0.0801
vn 0.3640 0.9314 0.0052
vn -0.1698 0.8400 -0.5153
vn 0.2899 0.8983 0.3302
vn -0.9199 0.2495 0.3025
vn -0.0255 0.9859 -0.1651
vn 0.0000 -1.0000 0.0000
usemtl STONE_1.003
f 1/1/1 2/2/1 3/3/1 4/4/1
f 5/5/2 6/6/2 7/7/2 8/8/2
f 9/9/3 10/10/3 11/11/3 12/12/3
f 12/13/4 11/14/4 13/15/4 14/16/4
f 15/17/5 5/18/5 8/19/5
f 11/20/6 10/21/6 16/22/6 17/23/6
f 2/24/7 18/25/7 19/26/7 20/27/7 21/28/7
f 10/29/8 5/30/8 15/31/8 22/32/8 16/33/8
f 13/34/9 11/35/9 17/36/9 23/37/9
f 19/38/10 13/39/10 23/40/10 20/41/10
f 14/42/11 13/43/11 24/44/11 25/45/11
f 26/46/12 27/47/12 28/48/12 29/49/12
f 30/50/13 31/51/13 32/52/13 29/53/13
f 33/54/14 34/55/14 28/56/14 27/57/14
f 31/58/15 35/59/15 26/60/15 32/61/15
f 34/62/16 30/63/16 29/64/16 28/65/16
f 35/66/17 33/67/17 27/68/17 26/69/17
f 17/70/18 16/71/18 34/72/18 33/73/18
f 23/74/19 17/75/19 33/76/19
f 16/77/20 22/78/20 30/79/20 34/80/20
f 22/81/21 21/82/21 31/83/21 30/84/21
f 20/85/22 23/86/22 33/87/22 35/88/22
f 4/89/23 3/90/23 36/91/23 37/92/23
f 2/93/24 15/94/24 3/95/24
f 15/96/25 2/97/25 21/98/25 22/99/25
f 6/100/26 5/101/26 10/102/26 9/103/26
f 37/104/27 36/105/27 8/106/27 7/107/27
f 36/108/28 3/109/28 15/110/28
f 15/111/29 8/112/29 36/113/29
f 25/114/30 24/115/30 38/116/30 39/117/30
f 40/118/31 18/119/31 2/120/31 1/121/31
f 39/122/32 38/123/32 41/124/32 42/125/32
f 18/126/33 40/127/33 42/128/33 41/129/33
f 43/130/34 41/131/34 38/132/34
f 13/133/35 19/134/35 43/135/35
f 19/136/36 18/137/36 41/138/36 43/139/36
f 24/140/37 13/141/37 43/142/37 38/143/37
f 21/144/38 20/145/38 35/146/38 31/147/38
f 32/148/39 26/149/39 29/150/39
f 6/151/40 9/152/40 12/153/40 14/154/40 25/155/40 39/156/40 42/157/40 40/158/40 1/159/40 4/160/40 37/161/40 7/162/40
