mtllib LOW_POLY_set.mtl
o lp_stone_with_moss_6_001_Cube_005
v 89.190689 0.750959 33.153503
v 89.213348 1.016193 32.967888
v 88.455017 0.995959 32.736282
v 88.284912 0.750959 32.792336
v 91.780273 0.750959 31.577942
v 91.716354 1.124782 31.669716
v 91.769936 1.141015 31.826082
v 91.976593 0.750959 32.154259
v 88.146210 0.750959 32.107655
v 88.392281 1.106982 32.026817
v 88.813080 1.057925 31.187531
v 88.762024 0.750959 31.032669
v 89.330795 0.988639 30.955086
v 89.308861 0.750959 30.877069
v 90.538048 0.750959 31.323246
v 90.536018 1.272986 31.422451
v 91.041603 1.209504 31.528364
v 88.425819 1.047624 32.406132
v 90.080467 0.750959 32.796558
v 90.093491 1.108943 32.682182
v 89.780563 1.033833 31.099865
v 89.848755 1.257242 31.227152
v 91.818237 1.162577 31.881481
v 92.000412 0.904689 32.187424
v 88.621727 1.242562 32.567810
v 88.694336 1.359718 32.084969
v 91.670563 1.348128 31.734221
v 90.087173 1.361459 32.603645
v 89.219940 1.218918 32.879002
v 89.467232 1.483349 31.306959
v 90.544624 1.459591 31.537271
v 91.074371 1.146259 33.105400
v 90.637749 1.452422 32.825348
v 89.789314 1.384546 31.145430
v 89.420639 1.511880 31.228462
v 89.214935 1.615276 31.877430
v 89.140999 1.636819 31.788074
v 88.698845 1.399627 31.999811
v 91.028999 0.750959 33.493595
v 91.696289 0.750959 33.447083
v 91.685204 0.886564 33.418949
v 91.057549 0.891096 33.466076
v 92.062782 0.750959 32.407276
v 92.044792 0.927345 32.400055
v 89.224693 1.535056 32.367558
v 89.918671 1.652269 32.196419
v 90.579330 1.641986 32.616772
v 90.595833 1.702246 32.596439
v 89.984940 1.726758 32.189392
v 90.305008 1.666323 31.780655
v 90.376122 1.700599 31.796549
v 88.792709 1.179902 31.112661
v 89.260429 1.115805 30.899370
v 91.681465 1.393850 31.715313
v 90.678635 1.495857 32.811119
v 91.104897 1.343395 31.507298
v 89.556847 0.750959 34.255562
v 89.507263 0.958451 34.182083
v 89.019302 0.937155 34.054985
v 88.962746 0.750959 34.122791
v 89.230263 0.750959 33.334358
v 88.863991 0.750959 33.805576
v 88.904694 0.937155 33.809719
v 89.239799 0.947803 33.383118
v 89.589035 0.750959 33.692513
v 89.489128 0.958451 33.737293
v 89.279289 1.143168 33.493832
v 89.107941 1.206391 33.727245
v 89.392632 1.130397 33.925083
v 89.166977 1.186211 33.853367
v 89.149719 1.241060 33.716057
v 89.285782 1.182294 33.538162
v 89.468849 1.050772 33.731037
v 89.388443 1.177103 33.884495
v 90.446602 0.750959 33.584545
v 90.387619 0.958451 33.543583
v 90.130905 0.928316 33.532608
v 89.888481 0.899859 33.522243
v 89.841881 0.750959 33.572639
v 89.998489 0.750959 33.034695
v 89.701111 0.750959 33.381611
v 89.741859 0.899859 33.379253
v 90.011383 1.007795 33.114296
v 90.401588 0.750959 33.219936
v 90.305878 1.018443 33.310463
v 89.933868 1.025581 33.371605
v 89.970787 1.054302 33.351322
v 90.028824 1.054822 33.158146
v 90.023125 1.023977 33.453930
v 91.213867 1.065204 30.857033
v 91.247116 1.088399 30.826847
v 91.366447 1.068136 30.578659
v 91.345566 1.042840 30.583111
v 91.086128 0.750959 31.345232
v 91.638138 0.750959 31.266262
v 91.624191 0.889740 31.248863
v 91.090996 0.901041 31.321959
v 91.380524 0.750959 30.413097
v 91.026108 0.750959 30.809912
v 91.112251 0.912342 30.843616
v 91.374588 0.912342 30.476439
v 91.223503 1.038898 31.180693
v 91.659393 0.889740 30.985636
v 91.749832 0.750959 30.955507
v 91.541763 1.053086 31.076412
v 91.732727 0.858797 30.916071
v 91.636604 0.932557 30.936617
v 91.431664 0.904104 30.449198
v 90.765503 0.750959 30.710897
v 90.764130 0.863529 30.650776
v 90.699417 0.923491 30.668207
v 90.700874 0.899859 30.713799
v 90.332169 0.750959 30.996138
v 90.759438 0.750959 30.958681
v 90.727386 0.899859 30.930044
v 90.369148 1.007795 30.927027
v 90.317329 0.750959 30.250904
v 90.137390 0.750959 30.556993
v 90.262520 1.018443 30.560728
v 90.337700 0.958451 30.325516
v 90.373764 0.863529 30.266474
v 92.076195 0.750959 31.624493
v 92.159904 0.908991 31.704975
v 92.580399 0.899859 31.713736
v 92.638794 0.750959 31.653427
v 92.504311 0.750959 32.388786
v 92.754951 0.750959 32.122162
v 92.688507 0.883205 32.050186
v 92.484497 0.922364 32.310986
v 92.080025 0.750959 32.072262
v 92.167282 0.933012 31.971455
v 92.234138 1.026211 31.759180
v 92.548424 0.979070 31.771347
v 92.625717 1.006932 32.024303
v 92.470451 1.036210 32.216534
v 92.236855 1.044171 31.958483
v 91.567719 1.300001 33.231712
v 91.088554 1.222779 33.109921
v 90.630630 1.500448 31.577541
v 91.978020 1.330982 32.384953
v 91.805450 1.588557 32.385971
v 91.664680 1.523168 31.846399
v 91.273270 1.603007 33.050072
v 88.433067 1.248114 31.912868
v 89.690987 1.149980 31.032608
v 90.277725 1.120062 33.315117
v 89.190750 1.260460 33.808792
v 90.395828 0.973231 30.318016
v 90.308098 1.110024 30.537443
v 91.255852 1.120565 31.120098
v 91.482368 1.077420 31.022537
v 92.458351 1.086997 32.006012
v 90.346001 0.998583 33.509838
v 90.151749 1.101310 33.346970
v 90.142525 1.044781 33.491379
v 90.052689 1.052962 33.437046
v 89.366646 1.234704 33.732613
v 91.087776 1.804566 32.217995
v 89.295082 1.430565 31.022604
v 88.830528 1.430565 31.232248
v 88.960892 1.567880 31.384392
vt 0.921045 0.881565
vt 0.921045 0.856559
vt 0.869387 0.856559
vt 0.869387 0.881565
vt 0.842356 0.908172
vt 0.816928 0.908172
vt 0.816928 0.933178
vt 0.842356 0.933178
vt 0.816127 0.650107
vt 0.790698 0.650107
vt 0.790698 0.752532
vt 0.816127 0.752532
vt 0.711209 0.933178
vt 0.711209 0.908172
vt 0.659551 0.908172
vt 0.659551 0.933178
vt 0.816127 0.546882
vt 0.816127 0.649307
vt 0.794990 0.640771
vt 0.766782 0.629379
vt 0.764469 0.555010
vt 0.606291 0.933178
vt 0.606291 0.908172
vt 0.554633 0.908172
vt 0.554633 0.933178
vt 0.921045 0.701720
vt 0.895616 0.701720
vt 0.895616 0.752532
vt 0.921045 0.752532
vt 0.816928 0.907371
vt 0.868586 0.907371
vt 0.868586 0.882365
vt 0.816928 0.882365
vt 0.445011 0.804145
vt 0.445011 0.753333
vt 0.439254 0.753333
vt 0.439254 0.804145
vt 0.921045 0.572688
vt 0.895616 0.572688
vt 0.895616 0.597694
vt 0.921045 0.597694
vt 0.869787 0.700920
vt 0.894815 0.650508
vt 0.894815 0.700920
vt 0.843157 0.920274
vt 0.894815 0.920274
vt 0.894815 0.908172
vt 0.843157 0.908172
vt 0.921045 0.700920
vt 0.921045 0.650107
vt 0.895616 0.650107
vt 0.895616 0.700920
vt 0.764469 0.907371
vt 0.816127 0.907371
vt 0.816127 0.882365
vt 0.764469 0.882365
vt 0.907930 0.855758
vt 0.907930 0.804946
vt 0.882501 0.804946
vt 0.882501 0.855758
vt 0.262205 0.946081
vt 0.287634 0.946081
vt 0.287634 0.933978
vt 0.262205 0.933978
vt 0.445011 0.907371
vt 0.445011 0.856559
vt 0.439254 0.856559
vt 0.439254 0.907371
vt 0.104828 0.946081
vt 0.156486 0.946081
vt 0.156486 0.933978
vt 0.104828 0.933978
vt 0.379437 0.855758
vt 0.379437 0.753333
vt 0.367123 0.753333
vt 0.367123 0.855758
vt 0.817328 0.804145
vt 0.868586 0.753734
vt 0.868586 0.804145
vt 0.658750 0.831153
vt 0.607492 0.881565
vt 0.658750 0.881565
vt 0.816127 0.881565
vt 0.816127 0.856559
vt 0.764469 0.856559
vt 0.764469 0.881565
vt 0.438453 0.907371
vt 0.438453 0.856559
vt 0.432697 0.856559
vt 0.432697 0.907371
vt 0.209746 0.939629
vt 0.261404 0.939629
vt 0.261404 0.933978
vt 0.209746 0.933978
vt 0.712410 0.881565
vt 0.763668 0.856959
vt 0.763668 0.881565
vt 0.431896 0.649307
vt 0.431896 0.598494
vt 0.419582 0.598494
vt 0.419582 0.649307
vt 0.606291 0.907371
vt 0.606291 0.856959
vt 0.555033 0.907371
vt 0.934160 0.855758
vt 0.909131 0.855758
vt 0.934160 0.805346
vt 0.842356 0.650508
vt 0.842356 0.675113
vt 0.817328 0.675113
vt 0.817328 0.881565
vt 0.868586 0.856959
vt 0.868586 0.881565
vt 0.658349 0.830753
vt 0.607092 0.830753
vt 0.607092 0.881164
vt 0.340894 0.939629
vt 0.366322 0.939629
vt 0.366322 0.933978
vt 0.340894 0.933978
vt 0.379437 0.597694
vt 0.379437 0.572688
vt 0.373680 0.572688
vt 0.373680 0.597694
vt 0.438453 0.804145
vt 0.438453 0.753333
vt 0.432697 0.753333
vt 0.432697 0.804145
vt 0.763668 0.588698
vt 0.754837 0.658373
vt 0.763668 0.725926
vt 0.716553 0.744415
vt 0.695869 0.752532
vt 0.592367 0.748852
vt 0.571034 0.715236
vt 0.609768 0.656329
vt 0.554633 0.615803
vt 0.564071 0.563989
vt 0.622470 0.546882
vt 0.735553 0.562863
vt 0.816127 0.933178
vt 0.816127 0.921075
vt 0.764469 0.921075
vt 0.764469 0.933178
vt 0.947274 0.752532
vt 0.947274 0.701720
vt 0.934960 0.701720
vt 0.934960 0.752532
vt 0.554633 0.946081
vt 0.606291 0.946081
vt 0.606291 0.933978
vt 0.554633 0.933978
vt 0.817328 0.752532
vt 0.829242 0.752532
vt 0.829242 0.727927
vt 0.842356 0.829952
vt 0.842356 0.804946
vt 0.830042 0.804946
vt 0.830042 0.829952
vt 0.829242 0.829952
vt 0.829242 0.804946
vt 0.816928 0.804946
vt 0.816928 0.829952
vt 0.658750 0.804946
vt 0.633321 0.804946
vt 0.633321 0.829952
vt 0.658750 0.829952
vt 0.632520 0.804946
vt 0.607092 0.804946
vt 0.607092 0.829952
vt 0.632520 0.829952
vt 0.868586 0.829952
vt 0.868586 0.804946
vt 0.856272 0.804946
vt 0.856272 0.829952
vt 0.372880 0.572688
vt 0.367123 0.572688
vt 0.367123 0.597694
vt 0.372880 0.597694
vt 0.392552 0.572688
vt 0.386795 0.572688
vt 0.386795 0.597694
vt 0.392552 0.597694
vt 0.090912 0.779140
vt 0.085156 0.779140
vt 0.085156 0.791242
vt 0.090912 0.791242
vt 0.934160 0.597694
vt 0.921846 0.592697
vt 0.923466 0.571090
vt 0.924995 0.550687
vt 0.934160 0.546882
vt 0.855471 0.829952
vt 0.855471 0.804946
vt 0.843157 0.804946
vt 0.843157 0.829952
vt 0.658750 0.779140
vt 0.633321 0.779140
vt 0.633321 0.804145
vt 0.658750 0.804145
vt 0.632520 0.779140
vt 0.607092 0.779140
vt 0.607092 0.804145
vt 0.632520 0.804145
vt 0.580061 0.766236
vt 0.567747 0.766236
vt 0.567747 0.778339
vt 0.580061 0.778339
vt 0.084355 0.779140
vt 0.078598 0.779140
vt 0.078598 0.791242
vt 0.084355 0.791242
vt 0.573504 0.779540
vt 0.573504 0.791242
vt 0.568148 0.791242
vt 0.842356 0.855758
vt 0.842356 0.830753
vt 0.830042 0.830753
vt 0.830042 0.855758
vt 0.385994 0.572688
vt 0.380238 0.572688
vt 0.380238 0.597694
vt 0.385994 0.597694
vt 0.895616 0.933178
vt 0.947274 0.933178
vt 0.947274 0.921075
vt 0.895616 0.921075
vt 0.947274 0.700920
vt 0.947274 0.650107
vt 0.934960 0.650107
vt 0.934960 0.700920
vt 0.829242 0.830753
vt 0.816928 0.830753
vt 0.816928 0.855758
vt 0.829242 0.855758
vt 0.895616 0.920274
vt 0.947274 0.920274
vt 0.947274 0.908172
vt 0.895616 0.908172
vt 0.868586 0.855758
vt 0.868586 0.830753
vt 0.856272 0.830753
vt 0.856272 0.855758
vt 0.855471 0.830753
vt 0.843157 0.830753
vt 0.843157 0.855758
vt 0.855471 0.855758
vt 0.104027 0.779140
vt 0.098271 0.779140
vt 0.098271 0.791242
vt 0.104027 0.791242
vt 0.830443 0.752532
vt 0.842356 0.752532
vt 0.842356 0.727927
vt 0.737438 0.804946
vt 0.725124 0.804946
vt 0.725124 0.829952
vt 0.737438 0.829952
vt 0.339692 0.650107
vt 0.314664 0.650107
vt 0.314664 0.674713
vt 0.097470 0.779140
vt 0.091713 0.779140
vt 0.091713 0.791242
vt 0.097470 0.791242
vt 0.724324 0.829952
vt 0.724324 0.804946
vt 0.712010 0.804946
vt 0.712010 0.829952
vt 0.711209 0.804946
vt 0.685780 0.804946
vt 0.685780 0.829952
vt 0.711209 0.829952
vt 0.684979 0.804946
vt 0.659551 0.804946
vt 0.659551 0.829952
vt 0.684979 0.829952
vt 0.566947 0.766236
vt 0.554633 0.766236
vt 0.554633 0.778339
vt 0.566947 0.778339
vt 0.445011 0.598494
vt 0.432697 0.598494
vt 0.432697 0.649307
vt 0.445011 0.649307
vt 0.868586 0.650508
vt 0.843558 0.675113
vt 0.868586 0.675113
vt 0.843558 0.752532
vt 0.855471 0.727927
vt 0.855471 0.752532
vt 0.894815 0.933178
vt 0.894815 0.921075
vt 0.843157 0.921075
vt 0.843157 0.933178
vt 0.763668 0.829952
vt 0.763668 0.804946
vt 0.751354 0.804946
vt 0.751354 0.829952
vt 0.750553 0.829952
vt 0.750553 0.804946
vt 0.738239 0.804946
vt 0.738239 0.829952
vt 0.934160 0.752532
vt 0.934160 0.701720
vt 0.921846 0.701720
vt 0.921846 0.752532
vt 0.737438 0.855758
vt 0.737438 0.830753
vt 0.725124 0.830753
vt 0.725124 0.855758
vt 0.222060 0.830753
vt 0.209746 0.830753
vt 0.209746 0.855758
vt 0.222060 0.855758
vt 0.261404 0.830753
vt 0.249090 0.830753
vt 0.249090 0.855758
vt 0.261404 0.855758
vt 0.248290 0.830753
vt 0.235976 0.830753
vt 0.235976 0.855758
vt 0.248290 0.855758
vt 0.868586 0.598494
vt 0.868586 0.638442
vt 0.850611 0.649307
vt 0.816928 0.632594
vt 0.833857 0.604491
vt 0.606291 0.845959
vt 0.588316 0.855758
vt 0.554633 0.836060
vt 0.571562 0.808484
vt 0.606291 0.804946
vt 0.851477 0.546882
vt 0.868586 0.557910
vt 0.868586 0.597694
vt 0.837017 0.596524
vt 0.816928 0.567484
vt 0.816127 0.793351
vt 0.798152 0.804145
vt 0.764469 0.787238
vt 0.781398 0.759170
vt 0.816127 0.753333
vt 0.720599 0.801913
vt 0.712010 0.770833
vt 0.731380 0.753333
vt 0.763668 0.774516
vt 0.763668 0.804145
vt 0.367524 0.752532
vt 0.392552 0.702121
vt 0.392552 0.752532
vt 0.288435 0.939629
vt 0.340093 0.939629
vt 0.340093 0.933978
vt 0.288435 0.933978
vt 0.712010 0.856559
vt 0.712010 0.881164
vt 0.763267 0.856559
vt 0.077798 0.753333
vt 0.065484 0.753333
vt 0.065484 0.765436
vt 0.077798 0.765436
vt 0.935361 0.597694
vt 0.947274 0.547282
vt 0.947274 0.597694
vt 0.566947 0.792443
vt 0.555033 0.804145
vt 0.566947 0.804145
vt 0.431896 0.700920
vt 0.431896 0.650107
vt 0.419582 0.650107
vt 0.419582 0.700920
vt 0.607092 0.778339
vt 0.711209 0.778339
vt 0.711209 0.753333
vt 0.607092 0.753333
vt 0.438453 0.855758
vt 0.438453 0.804946
vt 0.432697 0.804946
vt 0.432697 0.855758
vt 0.405667 0.571887
vt 0.405667 0.546882
vt 0.399910 0.546882
vt 0.399910 0.571887
vt 0.406467 0.804946
vt 0.431496 0.804946
vt 0.406467 0.855358
vt 0.105228 0.907371
vt 0.156486 0.882766
vt 0.156486 0.907371
vt 0.156486 0.929449
vt 0.116070 0.933178
vt 0.104828 0.915683
vt 0.115305 0.908172
vt 0.156486 0.909837
vt 0.287634 0.650107
vt 0.262205 0.650107
vt 0.262205 0.752532
vt 0.287634 0.752532
vt 0.208945 0.779140
vt 0.183517 0.779140
vt 0.183517 0.804145
vt 0.208945 0.804145
vt 0.314664 0.881164
vt 0.365922 0.856559
vt 0.314664 0.856559
vt 0.392151 0.650107
vt 0.367123 0.650107
vt 0.367123 0.700519
vt 0.921045 0.598494
vt 0.869387 0.598494
vt 0.869387 0.649307
vt 0.921045 0.649307
vt 0.340093 0.726726
vt 0.340093 0.701720
vt 0.327779 0.701720
vt 0.327779 0.726726
vt 0.326978 0.726726
vt 0.326978 0.701720
vt 0.314664 0.701720
vt 0.314664 0.726726
vt 0.445011 0.855758
vt 0.445011 0.804946
vt 0.439254 0.804946
vt 0.439254 0.855758
vt 0.262205 0.920274
vt 0.313863 0.920274
vt 0.313863 0.908172
vt 0.262205 0.908172
vt 0.366322 0.726726
vt 0.366322 0.701720
vt 0.354008 0.701720
vt 0.354008 0.726726
vt 0.157287 0.882365
vt 0.157287 0.906971
vt 0.208545 0.882365
vt 0.843157 0.674713
vt 0.868185 0.650107
vt 0.843157 0.650107
vt 0.817328 0.700920
vt 0.842356 0.700920
vt 0.842356 0.676314
vt 0.606291 0.778339
vt 0.606291 0.766637
vt 0.594377 0.778339
vt 0.399109 0.546882
vt 0.393353 0.546882
vt 0.393353 0.571887
vt 0.399109 0.571887
vt 0.843157 0.727527
vt 0.843157 0.752132
vt 0.855071 0.727527
vt 0.451568 0.546882
vt 0.445812 0.546882
vt 0.445812 0.552532
vt 0.451568 0.552532
vt 0.208945 0.939629
vt 0.208945 0.933978
vt 0.157287 0.933978
vt 0.157287 0.939629
vt 0.341294 0.700920
vt 0.366322 0.700920
vt 0.366322 0.676314
vt 0.090912 0.792043
vt 0.085156 0.792043
vt 0.085156 0.804145
vt 0.090912 0.804145
vt 0.418781 0.546882
vt 0.413025 0.546882
vt 0.413025 0.571887
vt 0.418781 0.571887
vt 0.412224 0.546882
vt 0.406467 0.546882
vt 0.406467 0.571887
vt 0.412224 0.571887
vt 0.354008 0.752132
vt 0.354008 0.727527
vt 0.365922 0.727527
vt 0.444610 0.546882
vt 0.432697 0.546882
vt 0.432697 0.597293
vt 0.314664 0.700519
vt 0.314664 0.675914
vt 0.339692 0.675914
vt 0.314664 0.752132
vt 0.314664 0.727527
vt 0.326578 0.727527
vt 0.084355 0.792043
vt 0.078598 0.792043
vt 0.078598 0.804145
vt 0.084355 0.804145
vt 0.379437 0.546882
vt 0.373680 0.546882
vt 0.373680 0.571887
vt 0.379437 0.571887
vt 0.431896 0.856559
vt 0.419582 0.856559
vt 0.419582 0.907371
vt 0.431896 0.907371
vt 0.372880 0.546882
vt 0.367123 0.546882
vt 0.367123 0.571887
vt 0.372880 0.571887
vt 0.353208 0.726726
vt 0.341294 0.726726
vt 0.353208 0.702121
vt 0.090912 0.753734
vt 0.078999 0.765436
vt 0.090912 0.765436
vt 0.104027 0.765436
vt 0.104027 0.753734
vt 0.092114 0.765436
vt 0.392552 0.546882
vt 0.386795 0.546882
vt 0.386795 0.571887
vt 0.392552 0.571887
vt 0.064683 0.753333
vt 0.052369 0.753333
vt 0.052369 0.765436
vt 0.064683 0.765436
vt 0.090912 0.766637
vt 0.090912 0.778339
vt 0.078999 0.778339
vt 0.052369 0.792043
vt 0.064283 0.792043
vt 0.052369 0.803745
vt 0.104027 0.792043
vt 0.098271 0.792043
vt 0.098271 0.804145
vt 0.104027 0.804145
vt 0.451568 0.553333
vt 0.445812 0.553333
vt 0.445812 0.558984
vt 0.451568 0.558984
vt 0.385994 0.546882
vt 0.380238 0.546882
vt 0.380238 0.571887
vt 0.385994 0.571887
vt 0.097470 0.792043
vt 0.091713 0.792043
vt 0.091713 0.804145
vt 0.097470 0.804145
vt 0.077798 0.792443
vt 0.077798 0.804145
vt 0.065884 0.804145
vt 0.065484 0.792043
vt 0.077397 0.792043
vt 0.065484 0.803745
vt 0.065484 0.790842
vt 0.070840 0.779140
vt 0.065484 0.779140
vt 0.078598 0.765035
vt 0.078598 0.753333
vt 0.090512 0.753333
vt 0.064683 0.779140
vt 0.058926 0.779140
vt 0.058926 0.791242
vt 0.064683 0.791242
vt 0.058126 0.779140
vt 0.052369 0.779140
vt 0.052369 0.791242
vt 0.058126 0.791242
vt 0.261004 0.882365
vt 0.209746 0.882365
vt 0.209746 0.906971
vt 0.103627 0.753333
vt 0.091713 0.765035
vt 0.091713 0.753333
vt 0.078598 0.766236
vt 0.078598 0.777938
vt 0.090512 0.766236
vt 0.077798 0.791242
vt 0.077798 0.779540
vt 0.072442 0.791242
vt 0.072041 0.779140
vt 0.077397 0.779140
vt 0.072041 0.790842
vt 0.103627 0.766236
vt 0.091713 0.766236
vt 0.091713 0.777938
vt 0.365922 0.675914
vt 0.340894 0.675914
vt 0.340894 0.700519
vt 0.327779 0.752132
vt 0.339692 0.727527
vt 0.327779 0.727527
vt 0.340894 0.726326
vt 0.352807 0.701720
vt 0.340894 0.701720
vt 0.157687 0.881565
vt 0.208945 0.831153
vt 0.208945 0.881565
vt 0.052369 0.906971
vt 0.103627 0.856559
vt 0.052369 0.856559
vt 0.208945 0.882766
vt 0.208945 0.907371
vt 0.157687 0.907371
vt 0.157287 0.881164
vt 0.157287 0.830753
vt 0.208545 0.830753
vt 0.262605 0.855758
vt 0.313863 0.805346
vt 0.313863 0.855758
vt 0.209746 0.933178
vt 0.261404 0.933178
vt 0.261404 0.908172
vt 0.209746 0.908172
vt 0.262205 0.804946
vt 0.313463 0.804946
vt 0.262205 0.855358
vt 0.431896 0.804145
vt 0.431896 0.753333
vt 0.406467 0.753333
vt 0.406467 0.804145
vt 0.367123 0.907371
vt 0.418781 0.907371
vt 0.418781 0.882365
vt 0.367123 0.882365
vt 0.261404 0.882766
vt 0.210146 0.907371
vt 0.261404 0.907371
vt 0.366322 0.752532
vt 0.366322 0.727927
vt 0.354409 0.752532
vt 0.104828 0.906971
vt 0.156086 0.882365
vt 0.104828 0.882365
vt 0.405667 0.804145
vt 0.405667 0.753333
vt 0.380238 0.753333
vt 0.380238 0.804145
vt 0.182716 0.779140
vt 0.157287 0.779140
vt 0.157287 0.804145
vt 0.182716 0.804145
vt 0.392151 0.701720
vt 0.367123 0.752132
vt 0.367123 0.701720
vt 0.314664 0.803745
vt 0.365922 0.753333
vt 0.314664 0.753333
vn -0.2964 0.4980 0.8150
vn 0.9201 0.2273 -0.3189
vn -0.7987 0.4074 -0.4429
vn -0.2889 0.4088 -0.8657
vn 0.2108 0.2186 -0.9528
vn -0.7936 0.5867 0.1612
vn 0.2940 0.4008 0.8677
vn 0.3119 0.2508 -0.9164
vn 0.8250 -0.0553 -0.5624
vn -0.6917 0.7131 0.1146
vn 0.2323 0.3135 -0.9207
vn 0.2470 0.3343 0.9095
vn 0.1969 0.5581 -0.8061
vn -0.3933 0.2551 0.8833
vn -0.3067 0.5594 0.7701
vn 0.4589 0.7693 0.4445
vn -0.2662 0.8711 0.4126
vn 0.0714 0.1930 0.9786
vn 0.9349 0.1247 0.3322
vn 0.0272 0.8502 0.5258
vn 0.0053 0.8148 0.5797
vn -0.3887 0.6515 0.6515
vn -0.4791 0.4476 0.7551
vn -0.5152 0.6920 -0.5057
vn -0.1529 0.9822 -0.1089
vn -0.4071 -0.5359 -0.7396
vn -0.1252 0.9787 0.1627
vn -0.3866 0.9079 0.1622
vn -0.2325 0.8283 0.5098
vn -0.3842 0.9099 0.1566
vn 0.0425 0.9774 -0.2072
vn 0.6186 -0.1234 -0.7760
vn -0.5373 0.5190 0.6648
vn 0.3526 -0.3397 -0.8719
vn 0.0000 -1.0000 -0.0000
vn -0.2264 0.3326 0.9155
vn -0.7755 0.1851 -0.6036
vn 0.9404 0.3397 0.0131
vn 0.8047 0.1611 -0.5714
vn 0.7221 0.3050 -0.6210
vn -0.8944 0.2916 0.3393
vn -0.7093 0.4056 -0.5766
vn -0.1492 0.7338 0.6628
vn -0.6749 0.6492 0.3508
vn -0.5358 0.6118 -0.5819
vn 0.8018 0.2423 -0.5463
vn 0.9314 0.2522 0.2623
vn -0.0423 0.2467 0.9682
vn -0.7347 0.2193 -0.6420
vn 0.9325 0.3210 -0.1655
vn 0.4473 0.3392 -0.8276
vn -0.7182 0.3200 0.6179
vn -0.7486 0.6146 -0.2488
vn -0.4412 0.7499 0.4929
vn -0.5453 0.8363 0.0570
vn -0.7401 0.5406 -0.4000
vn 0.1388 0.1424 0.9800
vn -0.7268 0.3571 -0.5867
vn -0.7747 0.6320 0.0184
vn -0.9595 0.2790 0.0398
vn 0.9135 0.3329 0.2338
vn 0.1429 0.7025 0.6972
vn 0.6997 0.4904 0.5195
vn 0.8348 0.5391 0.1116
vn -0.7725 0.4051 -0.4889
vn -0.3680 0.3280 -0.8701
vn 0.7507 0.4147 0.5143
vn 0.0745 0.2327 0.9697
vn -0.8398 0.3285 -0.4322
vn -0.8871 0.3162 0.3362
vn 0.9513 0.3053 -0.0419
vn 0.6771 -0.2987 -0.6725
vn 0.2780 0.9591 -0.0530
vn 0.2886 0.9568 -0.0354
vn 0.0387 0.4140 -0.9095
vn 0.6858 0.4692 0.5563
vn -0.8935 0.4491 -0.0011
vn -0.5876 0.4514 0.6715
vn 0.8909 0.3856 -0.2402
vn 0.0619 0.4837 -0.8731
vn 0.7195 0.4847 0.4974
vn -0.6487 0.4523 0.6120
vn -0.2783 0.7149 0.6415
vn -0.4164 0.2616 0.8707
vn 0.1375 0.8176 -0.5591
vn 0.9628 0.0042 -0.2702
vn 0.2373 0.5011 -0.8322
vn 0.8984 0.2816 -0.3371
vn -0.0259 0.1310 -0.9910
vn -0.4356 0.5227 0.7328
vn -0.9744 0.2026 0.0979
vn -0.0832 0.7024 -0.7069
vn 0.0707 0.4281 0.9009
vn 0.7658 0.5115 0.3898
vn 0.8489 0.4168 -0.3251
vn 0.8803 0.2913 0.3745
vn 0.9281 0.1955 -0.3168
vn -0.2786 0.2799 0.9187
vn -0.3912 0.5834 0.7118
vn 0.3210 0.1947 -0.9268
vn -0.5890 0.6601 0.4662
vn 0.3120 -0.2571 -0.9146
vn 0.4044 0.9144 -0.0175
vn -0.8863 -0.2226 -0.4060
vn 0.7570 0.0656 -0.6501
vn 0.5236 0.7505 0.4032
vn -0.7942 0.5857 0.1619
vn -0.7609 0.6275 0.1655
vn -0.1010 0.5616 0.8212
vn 0.4894 0.3022 -0.8180
vn 0.8548 0.5178 -0.0349
vn -0.7230 0.6055 0.3327
vn 0.6745 0.4172 -0.6091
vn 0.4916 0.8136 -0.3106
vn -0.3692 0.3856 -0.8456
vn -0.6933 0.5368 -0.4808
vn -0.0899 0.5362 0.8393
vn 0.5472 0.7901 -0.2762
vn 0.7452 0.5697 -0.3466
vn 0.1391 0.9839 -0.1121
vn 0.4393 0.7558 -0.4857
vn -0.4184 0.4829 -0.7693
vn 0.2687 0.7376 0.6195
vn 0.8251 -0.1147 -0.5532
vn -0.8399 0.5424 0.0199
vn 0.1512 0.9843 -0.0908
vn -0.2338 0.9420 0.2407
vn 0.4063 0.8933 0.1922
vn 0.8533 0.4418 -0.2768
vn -0.8433 0.5365 -0.0301
vn 0.0070 0.8495 0.5275
vn -0.1769 0.9762 -0.1252
vn -0.0430 0.4247 0.9043
vn -0.4285 0.7834 0.4502
vn 0.8995 0.4140 -0.1398
vn -0.3375 0.4302 0.8373
vn 0.8728 0.4845 0.0585
vn 0.0494 0.9590 -0.2790
vn 0.0456 0.9736 -0.2239
vn 0.7819 0.4383 -0.4433
vn -0.0895 0.5830 0.8075
vn 0.7112 0.6935 -0.1154
vn -0.4026 0.3300 0.8538
vn -0.2524 0.9648 -0.0732
vn 0.1739 0.9132 0.3686
vn -0.2384 0.9404 0.2425
vn -0.1299 0.9261 0.3542
vn 0.2671 0.9131 0.3080
vn 0.3477 0.9332 0.0910
vn 0.4403 0.8678 -0.2301
vn -0.0782 0.8940 -0.4412
vn 0.2457 0.9532 0.1761
vn 0.3245 0.9252 -0.1968
vn 0.1932 0.8257 -0.5300
vn 0.1079 0.8660 -0.4883
vn -0.0737 0.9827 0.1698
vn 0.1608 0.7372 -0.6563
vn -0.0664 0.9890 -0.1319
vn -0.1247 0.8839 -0.4507
vn -0.5627 0.8242 -0.0633
vn -0.4533 0.8899 0.0503
vn 0.1952 0.8657 -0.4610
vn -0.8521 0.3245 -0.4106
vn -0.3540 0.4070 -0.8420
vn 0.2559 0.3287 -0.9091
vn 0.0544 0.9800 -0.1916
vn -0.0179 0.9708 0.2392
usemtl STONE_1.002
f 1/1/1 2/2/1 3/3/1 4/4/1
f 5/5/2 6/6/2 7/7/2 8/8/2
f 9/9/3 10/10/3 11/11/3 12/12/3
f 12/13/4 11/14/4 13/15/4 14/16/4
f 15/17/5 16/18/5 17/19/5 6/20/5 5/21/5
f 4/22/6 3/23/6 18/24/6 9/25/6
f 19/26/7 20/27/7 2/28/7 1/29/7
f 15/30/8 21/31/8 22/32/8 16/33/8
f 8/34/9 7/35/9 23/36/9 24/37/9
f 10/38/10 18/39/10 25/40/10 26/41/10
f 6/42/11 17/43/11 27/44/11
f 2/45/12 20/46/12 28/47/12 29/48/12
f 16/49/13 22/50/13 30/51/13 31/52/13
f 20/53/14 32/54/14 33/55/14 28/56/14
f 3/57/15 2/58/15 29/59/15 25/60/15
f 30/61/16 22/62/16 34/63/16 35/64/16
f 26/65/17 36/66/17 37/67/17 38/68/17
f 39/69/18 40/70/18 41/71/18 42/72/18
f 40/73/19 43/74/19 44/75/19 41/76/19
f 29/77/20 28/78/20 45/79/20
f 45/80/21 28/81/21 46/82/21
f 46/83/22 28/84/22 33/85/22 47/86/22
f 46/87/23 47/88/23 48/89/23 49/90/23
f 50/91/24 46/92/24 49/93/24 51/94/24
f 30/95/25 46/96/25 50/97/25
f 13/98/26 11/99/26 52/100/26 53/101/26
f 45/102/27 46/103/27 36/104/27
f 26/105/28 25/106/28 45/107/28
f 25/108/29 29/109/29 45/110/29
f 26/111/30 45/112/30 36/113/30
f 30/114/31 36/115/31 46/116/31
f 7/117/32 27/118/32 54/119/32 23/120/32
f 47/121/33 33/122/33 55/123/33 48/124/33
f 27/125/34 17/126/34 56/127/34 54/128/34
f 14/129/35 15/130/35 5/131/35 8/132/35 43/133/35 40/134/35 39/135/35 19/136/35 1/137/35 4/138/35 9/139/35 12/140/35
f 57/141/36 58/142/36 59/143/36 60/144/36
f 61/145/37 62/146/37 63/147/37 64/148/37
f 57/149/38 65/150/38 66/151/38 58/152/38
f 64/153/39 67/154/39 66/155/39
f 65/156/40 61/157/40 64/158/40 66/159/40
f 59/160/41 63/161/41 62/162/41 60/163/41
f 63/164/42 68/165/42 67/166/42 64/167/42
f 58/168/43 69/169/43 70/170/43 59/171/43
f 59/172/44 70/173/44 68/174/44 63/175/44
f 68/176/45 71/177/45 72/178/45 67/179/45
f 67/180/46 72/181/46 73/182/46 66/183/46
f 66/184/47 73/185/47 74/186/47 69/187/47
f 75/188/48 76/189/48 77/190/48 78/191/48 79/192/48
f 80/193/49 81/194/49 82/195/49 83/196/49
f 75/197/50 84/198/50 85/199/50 76/200/50
f 84/201/51 80/202/51 83/203/51 85/204/51
f 78/205/52 82/206/52 81/207/52 79/208/52
f 86/209/53 87/210/53 88/211/53 83/212/53
f 78/213/54 89/214/54 86/215/54
f 78/216/55 86/217/55 83/218/55 82/219/55
f 90/220/56 91/221/56 92/222/56 93/223/56
f 94/224/57 95/225/57 96/226/57 97/227/57
f 98/228/58 99/229/58 100/230/58 101/231/58
f 97/232/59 102/233/59 90/234/59 100/235/59
f 99/236/60 94/237/60 97/238/60 100/239/60
f 103/240/61 96/241/61 95/242/61 104/243/61
f 96/244/62 105/245/62 102/246/62 97/247/62
f 104/248/63 106/249/63 107/250/63 103/251/63
f 103/252/64 105/253/64 96/254/64
f 100/255/65 90/256/65 93/257/65 101/258/65
f 101/259/66 108/260/66 98/261/66
f 109/262/67 110/263/67 111/264/67 112/265/67
f 113/266/68 114/267/68 115/268/68 116/269/68
f 117/270/69 118/271/69 119/272/69 120/273/69
f 118/274/70 113/275/70 116/276/70 119/277/70
f 112/278/71 115/279/71 114/280/71 109/281/71
f 117/282/72 121/283/72 110/284/72 109/285/72
f 112/286/73 119/287/73 116/288/73
f 112/289/74 116/290/74 115/291/74
f 122/292/75 123/293/75 124/294/75 125/295/75
f 126/296/76 127/297/76 128/298/76 129/299/76
f 122/300/77 130/301/77 131/302/77 123/303/77
f 130/304/78 126/305/78 129/306/78 131/307/78
f 124/308/79 128/309/79 127/310/79 125/311/79
f 123/312/80 132/313/80 133/314/80 124/315/80
f 128/316/81 134/317/81 135/318/81 129/319/81
f 129/320/82 135/321/82 136/322/82 131/323/82
f 57/324/35 60/325/35 62/326/35 61/327/35 65/328/35
f 79/329/35 81/330/35 80/331/35 84/332/35 75/333/35
f 104/334/35 95/335/35 94/336/35 99/337/35 98/338/35
f 109/339/35 114/340/35 113/341/35 118/342/35 117/343/35
f 125/344/35 127/345/35 126/346/35 130/347/35 122/348/35
f 42/349/83 137/350/83 138/351/83
f 33/352/84 32/353/84 138/354/84 55/355/84
f 50/356/85 31/357/85 30/358/85
f 43/359/86 8/360/86 24/361/86 44/362/86
f 31/363/87 17/364/87 16/365/87
f 27/366/88 7/367/88 6/368/88
f 17/369/89 31/370/89 139/371/89 56/372/89
f 32/373/90 20/374/90 19/375/90 39/376/90
f 32/377/91 39/378/91 42/379/91 138/380/91
f 31/381/92 50/382/92 51/383/92 139/384/92
f 41/385/93 137/386/93 42/387/93
f 137/388/94 140/389/94 141/390/94
f 140/391/95 23/392/95 54/393/95 142/394/95 141/395/95
f 44/396/96 140/397/96 137/398/96 41/399/96
f 24/400/97 23/401/97 140/402/97 44/403/97
f 138/404/98 137/405/98 143/406/98
f 48/407/99 55/408/99 143/409/99
f 14/410/100 13/411/100 21/412/100 15/413/100
f 10/414/101 26/415/101 38/416/101 144/417/101
f 21/418/102 13/419/102 53/420/102 145/421/102
f 36/422/103 30/423/103 35/424/103 37/425/103
f 11/426/104 10/427/104 144/428/104 52/429/104
f 22/430/105 21/431/105 145/432/105 34/433/105
f 143/434/106 137/435/106 141/436/106
f 9/437/107 18/438/107 10/439/107
f 25/440/108 18/441/108 3/442/108
f 89/443/109 78/444/109 77/445/109
f 83/446/110 88/447/110 146/448/110 85/449/110
f 69/450/111 58/451/111 66/452/111
f 70/453/112 147/454/112 71/455/112 68/456/112
f 121/457/113 148/458/113 111/459/113 110/460/113
f 148/461/114 149/462/114 111/463/114
f 120/464/115 148/465/115 121/466/115 117/467/115
f 119/468/116 149/469/116 148/470/116 120/471/116
f 112/472/117 111/473/117 149/474/117 119/475/117
f 108/476/118 107/477/118 106/478/118
f 108/479/119 92/480/119 107/481/119
f 91/482/120 150/483/120 151/484/120
f 91/485/121 151/486/121 107/487/121
f 93/488/122 92/489/122 108/490/122 101/491/122
f 105/492/123 151/493/123 150/494/123 102/495/123
f 98/496/124 108/497/124 106/498/124 104/499/124
f 102/500/125 150/501/125 91/502/125 90/503/125
f 132/504/126 136/505/126 133/506/126
f 136/507/127 135/508/127 152/509/127
f 152/510/128 135/511/128 134/512/128
f 124/513/129 133/514/129 134/515/129 128/516/129
f 131/517/130 136/518/130 132/519/130 123/520/130
f 153/521/131 146/522/131 154/523/131
f 154/524/132 146/525/132 88/526/132
f 76/527/133 153/528/133 155/529/133 77/530/133
f 89/531/134 156/532/134 87/533/134 86/534/134
f 85/535/135 146/536/135 153/537/135 76/538/135
f 77/539/136 155/540/136 156/541/136 89/542/136
f 73/543/137 157/544/137 74/545/137
f 157/546/138 72/547/138 71/548/138
f 157/549/139 71/550/139 147/551/139
f 72/552/140 157/553/140 73/554/140
f 69/555/141 74/556/141 147/557/141 70/558/141
f 103/559/142 107/560/142 151/561/142 105/562/142
f 55/563/143 138/564/143 143/565/143
f 154/566/144 88/567/144 87/568/144
f 155/569/145 153/570/145 154/571/145
f 156/572/146 154/573/146 87/574/146
f 156/575/147 155/576/147 154/577/147
f 74/578/148 157/579/148 147/580/148
f 92/581/149 91/582/149 107/583/149
f 133/584/150 152/585/150 134/586/150
f 133/587/151 136/588/151 152/589/151
usemtl Material.031
f 158/590/152 143/591/152 141/592/152
f 158/593/153 141/594/153 142/595/153
f 139/596/154 51/597/154 158/598/154
f 139/599/155 158/600/155 142/601/155
f 158/602/156 49/603/156 48/604/156
f 54/605/157 56/606/157 139/607/157 142/608/157
f 51/609/158 49/610/158 158/611/158
f 159/612/159 160/613/159 161/614/159 35/615/159
f 160/616/160 144/617/160 38/618/160 161/619/160
f 161/620/161 38/621/161 37/622/161
f 35/623/162 34/624/162 159/625/162
f 52/626/163 144/627/163 160/628/163
f 53/629/164 52/630/164 160/631/164 159/632/164
f 34/633/165 145/634/165 53/635/165 159/636/165
f 37/637/166 35/638/166 161/639/166
f 143/640/167 158/641/167 48/642/167
