mtllib LOW_POLY_set.mtl
o lp_stone_with_moss_5_001_Cube_006
v 84.655304 0.750959 32.643139
v 84.643715 0.872123 32.582848
v 84.117538 0.808364 32.396576
v 84.084816 0.750959 32.451225
v 85.090538 0.750959 31.659777
v 84.960472 0.934111 31.716011
v 84.995201 0.934111 32.105217
v 85.065140 0.750959 32.146744
v 84.379562 0.750959 31.446510
v 84.368752 0.802449 31.441002
v 84.999687 0.763709 31.630259
v 84.917770 0.980314 31.688927
v 84.672668 1.077407 31.973759
v 84.629494 1.107478 31.947655
v 84.093460 0.868723 32.368935
v 84.066879 0.788700 32.405609
v 84.088661 0.750959 31.664740
v 85.198013 0.750959 32.642593
v 85.265999 0.985177 32.583435
v 85.901321 0.825668 31.542801
v 85.867294 0.750959 31.483377
v 86.430740 0.847368 31.693008
v 87.017326 0.871412 31.859436
v 87.064560 0.750959 31.776144
v 87.097481 1.105754 32.947582
v 87.140312 0.750959 32.979813
v 86.068001 0.750959 33.292587
v 86.056969 0.862866 33.249714
v 85.446793 1.155578 32.502617
v 86.506836 1.365623 32.464558
v 86.472511 1.418183 32.386307
v 85.569206 1.237110 32.408230
v 86.869881 1.185620 32.102322
v 87.012230 1.294964 32.792599
v 86.135925 1.159459 33.039059
v 85.918526 0.952704 31.600248
v 86.393478 0.971411 31.718719
v 86.574173 1.185620 32.025921
v 84.613266 0.978876 32.259769
v 84.580452 1.020040 32.228310
v 84.077820 0.817781 31.673977
v 86.519981 1.263008 32.016376
v 84.176186 0.980314 31.708324
v 84.394653 0.987588 31.512976
v 85.971275 1.263008 31.887035
vt 0.922631 0.800295
vt 0.910932 0.800295
vt 0.910932 0.851108
vt 0.922631 0.851108
vt 0.897631 0.928527
vt 0.897631 0.903521
vt 0.848432 0.903521
vt 0.848432 0.928527
vt 0.428020 0.747882
vt 0.428020 0.645457
vt 0.416321 0.645457
vt 0.416321 0.747882
vt 0.416321 0.915624
vt 0.440520 0.915624
vt 0.440520 0.903521
vt 0.416321 0.903521
vt 0.897631 0.645457
vt 0.873432 0.645457
vt 0.873432 0.747882
vt 0.897631 0.747882
vt 0.066321 0.941430
vt 0.115520 0.941430
vt 0.115520 0.929328
vt 0.066321 0.929328
vt 0.440520 0.851908
vt 0.428821 0.851908
vt 0.428821 0.864011
vt 0.440520 0.864011
vt 0.847631 0.562828
vt 0.847631 0.633631
vt 0.803586 0.644656
vt 0.748432 0.620816
vt 0.750283 0.563434
vt 0.820426 0.542231
vt 0.872631 0.542231
vt 0.848432 0.542231
vt 0.848432 0.747882
vt 0.872631 0.747882
vt 0.747631 0.876914
vt 0.629870 0.875957
vt 0.591237 0.864800
vt 0.548432 0.852438
vt 0.747631 0.851908
vt 0.897631 0.542231
vt 0.873432 0.542231
vt 0.873432 0.644656
vt 0.897631 0.644656
vt 0.747631 0.928527
vt 0.747631 0.903521
vt 0.648432 0.903521
vt 0.648432 0.928527
vt 0.872631 0.748683
vt 0.848432 0.748683
vt 0.848432 0.851108
vt 0.872631 0.851108
vt 0.698432 0.850707
vt 0.698432 0.800295
vt 0.797231 0.800295
vt 0.266321 0.915624
vt 0.365520 0.915624
vt 0.365520 0.903521
vt 0.266321 0.903521
vt 0.847631 0.748683
vt 0.798432 0.748683
vt 0.798432 0.851108
vt 0.847631 0.851108
vt 0.797631 0.799495
vt 0.797631 0.748683
vt 0.698432 0.748683
vt 0.698432 0.799495
vt 0.747631 0.708706
vt 0.620272 0.747882
vt 0.548432 0.633846
vt 0.631554 0.542231
vt 0.747631 0.556752
vt 0.647631 0.748683
vt 0.548432 0.748683
vt 0.548432 0.851108
vt 0.647631 0.851108
vt 0.697631 0.748683
vt 0.648432 0.748683
vt 0.648432 0.851108
vt 0.697631 0.851108
vt 0.266321 0.941430
vt 0.315520 0.941430
vt 0.315520 0.929328
vt 0.266321 0.929328
vt 0.847631 0.645457
vt 0.798432 0.645457
vt 0.798432 0.747882
vt 0.847631 0.747882
vt 0.166321 0.941430
vt 0.215520 0.941430
vt 0.215520 0.929328
vt 0.166321 0.929328
vt 0.428020 0.902721
vt 0.428020 0.800295
vt 0.416321 0.800295
vt 0.416321 0.902721
vt 0.947631 0.542231
vt 0.898432 0.542231
vt 0.898432 0.593043
vt 0.947631 0.593043
vt 0.216321 0.941430
vt 0.265520 0.941430
vt 0.265520 0.929328
vt 0.216321 0.929328
vt 0.415520 0.851108
vt 0.415520 0.748683
vt 0.391321 0.748683
vt 0.391321 0.851108
vt 0.365520 0.928527
vt 0.365520 0.916425
vt 0.266321 0.916425
vt 0.266321 0.928527
vt 0.440520 0.748683
vt 0.416321 0.748683
vt 0.416321 0.799495
vt 0.440520 0.799495
vt 0.265520 0.902721
vt 0.265520 0.877715
vt 0.166321 0.877715
vt 0.166321 0.902721
vt 0.115520 0.878115
vt 0.115520 0.928527
vt 0.066721 0.928527
vt 0.266321 0.645457
vt 0.266321 0.747481
vt 0.315120 0.645457
vt 0.165520 0.877715
vt 0.116321 0.877715
vt 0.116321 0.928527
vt 0.165520 0.928527
vt 0.440520 0.696269
vt 0.440520 0.645457
vt 0.428821 0.645457
vt 0.428821 0.696269
vt 0.116321 0.941430
vt 0.165520 0.941430
vt 0.165520 0.929328
vt 0.116321 0.929328
vt 0.440520 0.747882
vt 0.440520 0.697070
vt 0.428821 0.697070
vt 0.428821 0.747882
vt 0.698832 0.851108
vt 0.797631 0.800696
vt 0.797631 0.851108
vt 0.947631 0.593844
vt 0.898432 0.593844
vt 0.898432 0.644656
vt 0.947631 0.644656
vt 0.797631 0.747882
vt 0.797631 0.645857
vt 0.748832 0.747882
vt 0.415520 0.851908
vt 0.366321 0.851908
vt 0.366321 0.902721
vt 0.415520 0.902721
vt 0.365520 0.902721
vt 0.365520 0.852309
vt 0.266721 0.902721
vt 0.115120 0.877715
vt 0.066321 0.877715
vt 0.066321 0.928127
vt 0.266321 0.902320
vt 0.365120 0.851908
vt 0.266321 0.851908
vn -0.3021 0.5410 0.7849
vn 0.8775 0.4795 -0.0093
vn 0.2847 -0.0707 -0.9560
vn 0.5130 0.4771 -0.7135
vn 0.7146 0.3865 0.5831
vn 0.5686 0.7929 0.2190
vn -0.0779 0.5748 0.8145
vn 0.0000 -1.0000 0.0000
vn -0.8192 0.2710 -0.5055
vn 0.1953 0.5875 -0.7853
vn 0.9771 0.1944 -0.0864
vn -0.5746 0.3170 0.7546
vn 0.2554 0.1823 0.9495
vn -0.7007 0.5039 -0.5051
vn -0.1454 0.8159 0.5595
vn 0.8770 0.4394 -0.1946
vn -0.4533 0.6396 0.6208
vn -0.1329 0.9571 0.2576
vn 0.1089 0.5987 0.7936
vn 0.2325 0.3225 -0.9176
vn 0.2123 0.9431 -0.2558
vn 0.4819 0.8010 0.3551
vn -0.9627 -0.2701 -0.0145
vn 0.1849 0.6509 -0.7363
vn 0.6741 0.3579 -0.6461
vn -0.7610 0.4221 -0.4927
vn -0.8889 0.4578 -0.0136
vn -0.5800 0.4206 -0.6976
vn 0.2966 0.3325 -0.8953
vn -0.2189 0.9418 0.2551
vn -0.3254 0.9382 0.1177
vn -0.0069 0.9649 -0.2624
vn 0.0655 0.5292 0.8460
vn -0.6119 -0.0873 -0.7861
vn 0.8511 0.5166 -0.0933
vn 0.4184 0.9075 -0.0373
vn 0.2371 0.9171 0.3204
vn -0.2263 0.9183 0.3248
vn 0.1651 0.6613 -0.7317
vn -0.1979 0.9747 -0.1042
vn 0.0885 0.9225 -0.3756
vn -0.6674 0.5634 -0.4869
usemtl STONE_1.002
f 1/1/1 2/2/1 3/3/1 4/4/1
f 5/5/2 6/6/2 7/7/2 8/8/2
f 5/9/3 9/10/3 10/11/3 11/12/3
f 6/13/4 5/14/4 11/15/4 12/16/4
f 8/17/5 7/18/5 2/19/5 1/20/5
f 13/21/6 6/22/6 12/23/6 14/24/6
f 4/25/7 3/26/7 15/27/7 16/28/7
f 9/29/8 5/30/8 8/31/8 1/32/8 4/33/8 17/34/8
f 18/35/9 19/36/9 20/37/9 21/38/9
f 21/39/10 20/40/10 22/41/10 23/42/10 24/43/10
f 24/44/11 23/45/11 25/46/11 26/47/11
f 27/48/12 28/49/12 19/50/12 18/51/12
f 26/52/13 25/53/13 28/54/13 27/55/13
f 19/56/14 29/57/14 20/58/14
f 29/59/15 30/60/15 31/61/15 32/62/15
f 23/63/16 33/64/16 34/65/16 25/66/16
f 28/67/17 35/68/17 29/69/17 19/70/17
f 21/71/8 24/72/8 26/73/8 27/74/8 18/75/8
f 34/76/18 30/77/18 29/78/18 35/79/18
f 25/80/19 34/81/19 35/82/19 28/83/19
f 22/84/20 20/85/20 36/86/20 37/87/20
f 33/88/21 38/89/21 30/90/21 34/91/21
f 39/92/22 13/93/22 14/94/22 40/95/22
f 17/96/23 4/97/23 16/98/23 41/99/23
f 22/100/24 38/101/24 33/102/24 23/103/24
f 38/104/25 22/105/25 37/106/25 42/107/25
f 20/108/26 29/109/26 32/110/26 36/111/26
f 16/112/27 15/113/27 43/114/27 41/115/27
f 41/116/28 43/117/28 44/118/28 10/119/28
f 10/120/29 44/121/29 12/122/29 11/123/29
f 15/124/30 40/125/30 14/126/30
f 43/127/31 15/128/31 14/129/31
f 44/130/32 43/131/32 14/132/32 12/133/32
f 3/134/33 39/135/33 40/136/33 15/137/33
f 9/138/34 17/139/34 41/140/34 10/141/34
f 30/142/35 38/143/35 42/144/35 31/145/35
usemtl Material.031
f 6/146/36 13/147/36 7/148/36
f 13/149/37 39/150/37 2/151/37 7/152/37
f 39/153/38 3/154/38 2/155/38
f 36/156/39 45/157/39 42/158/39 37/159/39
f 45/160/40 32/161/40 31/162/40
f 31/163/41 42/164/41 45/165/41
f 36/166/42 32/167/42 45/168/42
