mtllib LOW_POLY_set.mtl
o lp_stone_with_moss_4_001_Cube_008
v 78.972069 0.750959 31.065504
v 79.091507 0.911146 31.010912
v 79.867928 0.881630 30.592583
v 79.751602 0.750959 30.443922
v 80.435287 0.881630 30.712103
v 80.554359 0.750959 30.570051
v 80.536270 0.915972 31.658182
v 80.591270 0.750959 31.699715
v 79.435135 0.750959 31.961596
v 79.467194 0.864001 31.900343
v 80.447350 0.986966 31.619190
v 79.528435 0.944636 31.819906
v 80.382507 0.958995 30.767984
v 79.241783 0.750959 33.920605
v 79.193657 0.876231 33.900917
v 78.498512 0.997426 33.660480
v 78.465530 0.750959 33.725830
v 78.373611 0.750959 32.694599
v 78.224724 0.750959 33.368423
v 78.265518 0.832706 33.305767
v 78.395477 0.832706 32.717598
v 79.180229 0.903849 33.320766
v 79.680641 0.821729 32.545502
v 79.440178 0.894479 32.600613
v 79.122749 0.966159 33.267639
v 79.833366 0.750959 32.975800
v 79.778488 0.821729 33.022644
v 79.686211 0.750959 32.463303
v 79.541214 0.832706 32.515709
v 82.273903 0.750959 32.598511
v 82.113968 0.837923 32.635448
v 81.351334 0.881630 33.342735
v 81.471428 0.750959 33.434978
v 80.254631 0.881630 33.224148
v 80.145203 0.750959 33.339954
v 80.507133 0.915972 32.290192
v 80.439079 0.750959 32.277103
v 81.449509 0.750959 31.998411
v 81.449158 0.864001 32.067406
v 80.551636 1.022057 32.323048
v 81.403511 0.923315 32.128723
v 78.504501 1.038202 33.560692
v 78.367661 0.942053 33.221958
v 78.472549 0.942053 32.795757
v 80.326469 0.939106 33.107502
v 81.432610 0.981575 32.490955
v 80.689468 0.997305 32.804050
v 81.188568 0.982186 32.898705
v 80.705116 0.946607 32.857624
v 79.186943 0.996618 31.063908
v 79.925789 0.958995 30.673222
v 81.212387 0.929728 33.020344
v 81.530075 0.929046 32.528656
v 78.801888 1.052764 33.021275
v 80.051559 1.070697 31.350088
vt 0.909536 0.694612
vt 0.891289 0.694612
vt 0.891289 0.770002
vt 0.909536 0.770002
vt 0.623821 0.922383
vt 0.623821 0.904136
vt 0.548432 0.904136
vt 0.548432 0.922383
vt 0.928583 0.770802
vt 0.910337 0.770802
vt 0.910337 0.846192
vt 0.928583 0.846192
vt 0.700012 0.941430
vt 0.700012 0.923183
vt 0.624622 0.923183
vt 0.624622 0.941430
vt 0.548432 0.611485
vt 0.580715 0.542231
vt 0.700012 0.561819
vt 0.700012 0.670545
vt 0.595081 0.693811
vt 0.700012 0.865240
vt 0.700012 0.846993
vt 0.548432 0.846993
vt 0.548432 0.865240
vt 0.415023 0.922383
vt 0.415023 0.846993
vt 0.396776 0.846993
vt 0.396776 0.922383
vt 0.282491 0.922383
vt 0.357880 0.922383
vt 0.357880 0.904136
vt 0.282491 0.904136
vt 0.928583 0.618421
vt 0.910337 0.618421
vt 0.910337 0.693811
vt 0.928583 0.693811
vt 0.282491 0.903335
vt 0.357880 0.903335
vt 0.357880 0.885088
vt 0.282491 0.885088
vt 0.415023 0.846192
vt 0.415023 0.770802
vt 0.396776 0.770802
vt 0.396776 0.846192
vt 0.852393 0.884287
vt 0.852393 0.866041
vt 0.700813 0.866041
vt 0.700813 0.884287
vt 0.947631 0.770802
vt 0.929384 0.770802
vt 0.929384 0.808097
vt 0.947631 0.808097
vt 0.584877 0.710678
vt 0.628828 0.694612
vt 0.700012 0.718790
vt 0.700012 0.841056
vt 0.640827 0.846192
vt 0.548432 0.777706
vt 0.453118 0.808898
vt 0.434872 0.808898
vt 0.434872 0.827145
vt 0.453118 0.827145
vt 0.053919 0.903335
vt 0.205499 0.903335
vt 0.205499 0.885088
vt 0.053919 0.885088
vt 0.909536 0.617621
vt 0.872642 0.617621
vt 0.909536 0.542631
vt 0.776202 0.694612
vt 0.700813 0.694612
vt 0.700813 0.770002
vt 0.776202 0.770002
vt 0.871441 0.542231
vt 0.853194 0.542231
vt 0.853194 0.693811
vt 0.871441 0.693811
vt 0.700012 0.884287
vt 0.700012 0.866041
vt 0.548432 0.866041
vt 0.548432 0.884287
vt 0.928583 0.542231
vt 0.910337 0.542231
vt 0.910337 0.617621
vt 0.928583 0.617621
vt 0.776202 0.903335
vt 0.776202 0.885088
vt 0.700813 0.885088
vt 0.700813 0.903335
vt 0.852393 0.596459
vt 0.852393 0.693811
vt 0.737899 0.677911
vt 0.700813 0.605577
vt 0.757962 0.542231
vt 0.700012 0.922383
vt 0.700012 0.904136
vt 0.624622 0.904136
vt 0.624622 0.922383
vt 0.206300 0.922383
vt 0.281690 0.922383
vt 0.281690 0.904136
vt 0.206300 0.904136
vt 0.852393 0.941430
vt 0.852393 0.923584
vt 0.815499 0.941430
vt 0.357480 0.923183
vt 0.320586 0.923183
vt 0.320586 0.941030
vt 0.434071 0.770002
vt 0.434071 0.694612
vt 0.415824 0.694612
vt 0.415824 0.770002
vt 0.357880 0.865240
vt 0.357880 0.846993
vt 0.206300 0.846993
vt 0.206300 0.865240
vt 0.453118 0.618421
vt 0.434872 0.618421
vt 0.434872 0.655716
vt 0.453118 0.655716
vt 0.282491 0.941430
vt 0.319785 0.941430
vt 0.319785 0.923183
vt 0.282491 0.923183
vt 0.053919 0.941430
vt 0.129309 0.941430
vt 0.129309 0.923183
vt 0.053919 0.923183
vt 0.395575 0.808898
vt 0.320586 0.845792
vt 0.320586 0.808898
vt 0.395976 0.922383
vt 0.395976 0.885489
vt 0.359082 0.922383
vt 0.395575 0.885088
vt 0.358681 0.885088
vt 0.358681 0.921982
vt 0.281690 0.846192
vt 0.206701 0.846192
vt 0.281690 0.771203
vt 0.453118 0.770002
vt 0.453118 0.732707
vt 0.434872 0.732707
vt 0.434872 0.770002
vt 0.434071 0.922383
vt 0.434071 0.846993
vt 0.415824 0.846993
vt 0.415824 0.922383
vt 0.453118 0.617621
vt 0.453118 0.542231
vt 0.434872 0.542231
vt 0.434872 0.617621
vt 0.453118 0.693811
vt 0.453118 0.656517
vt 0.434872 0.656517
vt 0.434872 0.693811
vt 0.909536 0.693811
vt 0.909536 0.618421
vt 0.872241 0.618421
vt 0.872241 0.693811
vt 0.395976 0.846192
vt 0.320986 0.846192
vt 0.395976 0.809298
vt 0.395976 0.770002
vt 0.395976 0.695012
vt 0.359082 0.770002
vt 0.453118 0.731906
vt 0.453118 0.694612
vt 0.434872 0.694612
vt 0.434872 0.731906
vt 0.814298 0.846192
vt 0.814298 0.770802
vt 0.777003 0.770802
vt 0.777003 0.846192
vt 0.909135 0.542231
vt 0.872241 0.542231
vt 0.872241 0.617220
vt 0.206300 0.941430
vt 0.243595 0.941430
vt 0.243595 0.923183
vt 0.206300 0.923183
vt 0.357880 0.694612
vt 0.282491 0.694612
vt 0.282491 0.770002
vt 0.357880 0.770002
vt 0.206300 0.770802
vt 0.206300 0.845792
vt 0.281289 0.770802
vt 0.395976 0.808097
vt 0.395976 0.770802
vt 0.320586 0.770802
vt 0.320586 0.808097
vt 0.244395 0.941430
vt 0.281690 0.941430
vt 0.281690 0.923183
vt 0.244395 0.923183
vt 0.358681 0.769601
vt 0.395575 0.694612
vt 0.358681 0.694612
vt 0.395976 0.846993
vt 0.358681 0.846993
vt 0.358681 0.884287
vt 0.395976 0.884287
vn -0.4446 0.5809 -0.6818
vn 0.1189 0.7390 -0.6632
vn 0.8501 0.5226 -0.0651
vn -0.7411 0.5648 0.3630
vn 0.0000 -1.0000 0.0000
vn 0.1987 0.3542 0.9138
vn 0.1406 0.6283 0.7651
vn 0.7151 0.6932 -0.0900
vn -0.2620 0.2051 0.9430
vn -0.9295 0.3064 -0.2054
vn 0.4098 0.9020 0.1362
vn 0.7927 0.3471 0.5011
vn 0.8199 0.5353 -0.2030
vn 0.1799 0.8233 -0.5383
vn -0.1651 0.3078 -0.9370
vn 0.1235 0.9920 -0.0253
vn 0.1570 0.9866 0.0433
vn 0.4827 0.7400 0.4684
vn -0.0689 0.6196 0.7819
vn -0.8676 0.4409 -0.2298
vn 0.4626 0.6751 -0.5747
vn -0.2270 0.3262 -0.9176
vn -0.1586 0.4877 -0.8585
vn -0.8028 0.2509 0.5409
vn -0.6973 0.7123 0.0795
vn 0.3253 0.8312 0.4508
vn -0.1214 0.6758 -0.7270
vn -0.7635 0.6211 -0.1768
vn -0.7694 0.5966 0.2284
vn -0.8439 0.4975 -0.2006
vn 0.0765 0.9834 -0.1643
vn 0.0217 0.9987 0.0452
vn -0.0939 0.9925 0.0780
vn 0.0415 0.9989 0.0233
vn 0.3699 0.7241 0.5822
vn -0.6595 0.6763 0.3282
vn -0.2833 0.7535 -0.5932
vn 0.4156 0.8721 0.2583
vn 0.1379 0.9866 0.0877
vn -0.0353 0.9165 -0.3984
vn 0.2499 0.9682 0.0149
vn -0.1066 0.8461 0.5222
vn -0.0167 0.9878 0.1546
vn 0.1820 0.9687 -0.1685
vn 0.5836 0.7880 -0.1960
vn -0.0727 0.9806 0.1821
vn -0.0327 0.9871 -0.1568
vn 0.1426 0.9839 -0.1077
vn 0.1555 0.6507 -0.7432
vn 0.1712 0.9778 0.1208
vn -0.2919 0.9504 -0.1073
usemtl STONE_1.002
f 1/1/1 2/2/1 3/3/1 4/4/1
f 4/5/2 3/6/2 5/7/2 6/8/2
f 6/9/3 5/10/3 7/11/3 8/12/3
f 9/13/4 10/14/4 2/15/4 1/16/4
f 4/17/5 6/18/5 8/19/5 9/20/5 1/21/5
f 8/22/6 7/23/6 10/24/6 9/25/6
f 10/26/7 7/27/7 11/28/7 12/29/7
f 7/30/8 5/31/8 13/32/8 11/33/8
f 14/34/9 15/35/9 16/36/9 17/37/9
f 18/38/10 19/39/10 20/40/10 21/41/10
f 22/42/11 23/43/11 24/44/11 25/45/11
f 26/46/12 27/47/12 15/48/12 14/49/12
f 28/50/13 23/51/13 27/52/13 26/53/13
f 17/54/5 19/55/5 18/56/5 28/57/5 26/58/5 14/59/5
f 23/60/14 28/61/14 29/62/14 24/63/14
f 28/64/15 18/65/15 21/66/15 29/67/15
f 27/68/16 23/69/16 22/70/16
f 15/71/17 27/72/17 22/73/17 16/74/17
f 30/75/18 31/76/18 32/77/18 33/78/18
f 33/79/19 32/80/19 34/81/19 35/82/19
f 35/83/20 34/84/20 36/85/20 37/86/20
f 38/87/21 39/88/21 31/89/21 30/90/21
f 33/91/5 35/92/5 37/93/5 38/94/5 30/95/5
f 37/96/22 36/97/22 39/98/22 38/99/22
f 39/100/23 36/101/23 40/102/23 41/103/23
f 17/104/24 16/105/24 19/106/24
f 42/107/25 43/108/25 20/109/25
f 16/110/26 22/111/26 25/112/26 42/113/26
f 21/114/27 44/115/27 24/116/27 29/117/27
f 20/118/28 43/119/28 44/120/28 21/121/28
f 19/122/29 16/123/29 42/124/29 20/125/29
f 36/126/30 34/127/30 45/128/30 40/129/30
f 40/130/31 46/131/31 41/132/31
f 47/133/32 48/134/32 40/135/32
f 45/136/33 47/137/33 40/138/33
f 48/139/34 46/140/34 40/141/34
f 34/142/35 49/143/35 47/144/35 45/145/35
f 2/146/36 10/147/36 12/148/36 50/149/36
usemtl Material.031
f 3/150/37 2/151/37 50/152/37 51/153/37
f 52/154/38 53/155/38 46/156/38 48/157/38
f 32/158/39 31/159/39 53/160/39 52/161/39
f 54/162/40 24/163/40 44/164/40
f 25/165/41 24/166/41 54/167/41
f 49/168/42 52/169/42 48/170/42 47/171/42
f 52/172/43 49/173/43 34/174/43 32/175/43
f 39/176/44 53/177/44 31/178/44
f 53/179/45 39/180/45 41/181/45 46/182/45
f 11/183/46 55/184/46 50/185/46 12/186/46
f 51/187/47 50/188/47 55/189/47
f 13/190/48 51/191/48 55/192/48 11/193/48
f 5/194/49 3/195/49 51/196/49 13/197/49
f 42/198/50 25/199/50 54/200/50
f 42/201/51 54/202/51 44/203/51 43/204/51
