mtllib LOW_POLY_set.mtl
o lp_stone_4_001_Cube_023
v 110.824585 0.750959 30.761677
v 110.937721 0.930964 30.707188
v 111.720444 0.881630 30.288755
v 111.604118 0.750959 30.140095
v 112.287804 0.881630 30.408276
v 112.406876 0.750959 30.266224
v 112.388786 0.915972 31.354355
v 112.443787 0.750959 31.395887
v 111.287651 0.750959 31.657768
v 111.319710 0.864001 31.596516
v 111.997871 1.018771 30.805433
v 111.094299 0.750959 33.616776
v 111.046173 0.876231 33.597092
v 110.351028 0.997426 33.356651
v 110.318047 0.750959 33.422005
v 110.147217 0.876231 33.062122
v 110.077240 0.750959 33.064598
v 110.226128 0.750959 32.390770
v 110.247597 0.876231 32.446075
v 111.533157 0.821729 32.241676
v 111.538727 0.750959 32.159477
v 111.685883 0.750959 32.671974
v 111.631004 0.821729 32.718815
v 114.126419 0.750959 32.294685
v 113.966484 0.837923 32.331623
v 113.203850 0.881630 33.038906
v 113.323944 0.750959 33.131153
v 112.107147 0.881630 32.920322
v 111.997719 0.750959 33.036125
v 112.359650 0.915972 31.986364
v 112.291595 0.750959 31.973276
v 113.302025 0.750959 31.694584
v 113.301674 0.864001 31.763578
v 112.807663 1.018771 32.119671
vt 0.955382 0.580215
vt 0.922849 0.580215
vt 0.922849 0.646081
vt 0.955382 0.646081
vt 0.755382 0.946081
vt 0.755382 0.913548
vt 0.689516 0.913548
vt 0.689516 0.946081
vt 0.922049 0.746882
vt 0.889516 0.746882
vt 0.889516 0.812747
vt 0.922049 0.812747
vt 0.888715 0.912747
vt 0.888715 0.880215
vt 0.822849 0.880215
vt 0.822849 0.912747
vt 0.556183 0.607433
vt 0.584409 0.546882
vt 0.688715 0.564008
vt 0.688715 0.659072
vt 0.596970 0.679414
vt 0.822049 0.680215
vt 0.756183 0.680215
vt 0.756183 0.812747
vt 0.822049 0.812747
vt 0.822049 0.912747
vt 0.822049 0.880215
vt 0.689516 0.880215
vt 0.689516 0.912747
vt 0.822049 0.879414
vt 0.689916 0.879414
vt 0.822049 0.813949
vt 0.888715 0.546882
vt 0.822849 0.546882
vt 0.822849 0.612747
vt 0.888715 0.612747
vt 0.922049 0.580215
vt 0.889516 0.580215
vt 0.889516 0.646081
vt 0.922049 0.646081
vt 0.955382 0.680215
vt 0.922849 0.680215
vt 0.922849 0.712747
vt 0.955382 0.712747
vt 0.688715 0.912747
vt 0.688715 0.880215
vt 0.556183 0.880215
vt 0.556183 0.912747
vt 0.855382 0.746882
vt 0.822849 0.746882
vt 0.822849 0.879414
vt 0.855382 0.879414
vt 0.922049 0.880215
vt 0.889516 0.880215
vt 0.889516 0.912747
vt 0.922049 0.912747
vt 0.721382 0.560929
vt 0.759810 0.546882
vt 0.822049 0.568021
vt 0.822049 0.674924
vt 0.770301 0.679414
vt 0.689516 0.619534
vt 0.955382 0.579414
vt 0.955382 0.546882
vt 0.889516 0.546882
vt 0.889516 0.579414
vt 0.755382 0.812747
vt 0.755382 0.680215
vt 0.689516 0.680215
vt 0.689516 0.812747
vt 0.689516 0.813548
vt 0.689516 0.879014
vt 0.821648 0.813548
vt 0.888715 0.679414
vt 0.888715 0.613949
vt 0.823250 0.679414
vt 0.688715 0.946081
vt 0.688715 0.913548
vt 0.556183 0.913548
vt 0.556183 0.946081
vt 0.888715 0.746882
vt 0.856183 0.746882
vt 0.856183 0.879414
vt 0.888715 0.879414
vt 0.955382 0.679414
vt 0.955382 0.646882
vt 0.889516 0.646882
vt 0.889516 0.679414
vt 0.922049 0.680215
vt 0.889516 0.680215
vt 0.889516 0.746081
vt 0.922049 0.746081
vt 0.688715 0.727629
vt 0.688715 0.812747
vt 0.588609 0.798845
vt 0.556183 0.735601
vt 0.606151 0.680215
vt 0.688715 0.879414
vt 0.688715 0.813548
vt 0.556183 0.813548
vt 0.556183 0.879414
vt 0.922049 0.813548
vt 0.889516 0.813548
vt 0.889516 0.879414
vt 0.922049 0.879414
vt 0.822849 0.613548
vt 0.822849 0.679014
vt 0.888315 0.613548
vt 0.888715 0.680215
vt 0.822849 0.680215
vt 0.822849 0.746081
vt 0.888715 0.746081
vn -0.4518 0.5472 -0.7046
vn 0.1189 0.7390 -0.6632
vn 0.8501 0.5226 -0.0651
vn -0.7605 0.5268 0.3797
vn 0.0000 -1.0000 0.0000
vn -0.0550 0.9877 0.1461
vn 0.1987 0.3542 0.9138
vn -0.0596 0.9723 -0.2261
vn 0.2215 0.9602 -0.1699
vn -0.2620 0.2050 0.9430
vn -0.8104 0.3146 0.4942
vn -0.1234 0.5765 -0.8077
vn 0.7927 0.3471 0.5011
vn 0.8199 0.5353 -0.2030
vn -0.9121 0.3700 -0.1763
vn -0.0367 0.9911 -0.1278
vn 0.1235 0.9920 -0.0253
vn 0.1570 0.9866 0.0433
vn 0.4826 0.7401 0.4684
vn -0.0689 0.6196 0.7819
vn -0.8676 0.4410 -0.2298
vn 0.4626 0.6751 -0.5747
vn 0.1047 0.9569 -0.2707
vn -0.2270 0.3262 -0.9176
vn 0.1379 0.9866 0.0877
vn -0.0820 0.9918 0.0981
usemtl STONE_1.003
f 1/1/1 2/2/1 3/3/1 4/4/1
f 4/5/2 3/6/2 5/7/2 6/8/2
f 6/9/3 5/10/3 7/11/3 8/12/3
f 9/13/4 10/14/4 2/15/4 1/16/4
f 4/17/5 6/18/5 8/19/5 9/20/5 1/21/5
f 7/22/6 11/23/6 2/24/6 10/25/6
f 8/26/7 7/27/7 10/28/7 9/29/7
f 3/30/8 2/31/8 11/32/8
f 5/33/9 3/34/9 11/35/9 7/36/9
f 12/37/10 13/38/10 14/39/10 15/40/10
f 15/41/11 14/42/11 16/43/11 17/44/11
f 18/45/12 19/46/12 20/47/12 21/48/12
f 22/49/13 23/50/13 13/51/13 12/52/13
f 21/53/14 20/54/14 23/55/14 22/56/14
f 15/57/5 17/58/5 18/59/5 21/60/5 22/61/5 12/62/5
f 17/63/15 16/64/15 19/65/15 18/66/15
f 14/67/16 20/68/16 19/69/16 16/70/16
f 23/71/17 20/72/17 14/73/17
f 13/74/18 23/75/18 14/76/18
f 24/77/19 25/78/19 26/79/19 27/80/19
f 27/81/20 26/82/20 28/83/20 29/84/20
f 29/85/21 28/86/21 30/87/21 31/88/21
f 32/89/22 33/90/22 25/91/22 24/92/22
f 27/93/5 29/94/5 31/95/5 32/96/5 24/97/5
f 30/98/23 34/99/23 25/100/23 33/101/23
f 31/102/24 30/103/24 33/104/24 32/105/24
f 26/106/25 25/107/25 34/108/25
f 28/109/26 26/110/26 34/111/26 30/112/26
