mtllib LOW_POLY_set.mtl
o lp_tree1_Icosphere_015
v -27.101728 11.240074 -38.712753
v -28.005960 11.128904 -39.675953
v -26.948656 11.387963 -40.175507
v -28.767653 11.550243 -38.727314
v -29.688414 11.663830 -40.149578
v -28.259775 11.177329 -41.021416
v -26.203869 11.982002 -39.240978
v -26.337461 12.309899 -40.550682
v -27.208216 11.826970 -41.522865
v -26.770075 13.078293 -40.820705
v -27.790754 12.862586 -41.776550
v -28.347635 11.741909 -41.992146
v -29.112371 13.037225 -42.016300
v -29.748211 12.055222 -41.404736
v -31.165098 13.548165 -41.307758
v -30.100897 14.451829 -41.656544
v -28.611275 14.304926 -41.389633
v -27.677589 13.969344 -40.656769
v -27.922979 15.101854 -40.637337
v -29.822245 15.278493 -41.188763
v -26.883125 14.110740 -40.081028
v -28.920521 15.574764 -40.327736
v -27.348499 14.951696 -39.679352
v -26.537165 13.784368 -39.254921
v -28.774311 15.196832 -39.160091
v -27.252853 14.022898 -38.053295
v -26.112543 13.085602 -39.939285
v -26.418550 12.784510 -38.217949
v -26.767042 12.004688 -37.788685
v -27.484997 12.950249 -36.934399
v -27.952148 11.985162 -37.374752
v -29.022743 13.311809 -37.465446
v -28.377171 14.191193 -37.708035
v -29.708704 12.502018 -38.261967
v -31.108185 12.406433 -39.421356
v -31.207033 13.390580 -38.914192
v -30.502960 14.385785 -38.892483
v -31.748549 14.327891 -39.721527
v -32.287510 13.519875 -40.169262
v -31.479221 14.578109 -40.810966
v -31.376896 12.607166 -40.576157
v -31.088511 15.101214 -40.133362
vt 0.820191 0.793964
vt 0.819866 0.794231
vt 0.819734 0.793876
vt 0.820166 0.794499
vt 0.819749 0.794813
vt 0.822728 0.795604
vt 0.822424 0.795971
vt 0.822419 0.795558
vt 0.822672 0.795297
vt 0.821763 0.794444
vt 0.821747 0.794094
vt 0.822117 0.794372
vt 0.821987 0.794700
vt 0.822390 0.794747
vt 0.822299 0.795267
vt 0.821939 0.795002
vt 0.821991 0.795367
vt 0.822205 0.795527
vt 0.821897 0.795660
vt 0.822134 0.795847
vt 0.821689 0.796174
vt 0.821457 0.795857
vt 0.821603 0.795497
vt 0.821666 0.795231
vt 0.821444 0.795316
vt 0.821325 0.795668
vt 0.821593 0.795035
vt 0.821289 0.795443
vt 0.821400 0.795131
vt 0.821524 0.794831
vt 0.821145 0.795282
vt 0.821221 0.794787
vt 0.821753 0.794768
vt 0.821469 0.794470
vt 0.821441 0.794263
vt 0.821017 0.794413
vt 0.821174 0.794037
vt 0.820739 0.794834
vt 0.820989 0.794915
vt 0.820634 0.794310
vt 0.820381 0.794892
vt 0.820027 0.795309
vt 0.820362 0.795478
vt 0.820751 0.795519
vt 0.820570 0.795858
vt 0.820878 0.795860
vt 0.820854 0.796060
vt 0.820533 0.796172
vt 0.821072 0.795902
vt 0.821152 0.796168
vt 0.820838 0.796304
vt 0.819684 0.795460
vt 0.821998 0.796305
vt 0.821029 0.795743
vn 0.2026 -0.9762 -0.0775
vn 0.2035 -0.9762 -0.0755
vn 0.2035 -0.9762 -0.0756
vn -0.1782 -0.9444 0.2763
vn -0.3363 -0.9308 0.1434
vn -0.3091 -0.9507 0.0241
vn 0.2044 -0.9761 -0.0737
vn 0.6327 -0.7743 -0.0121
vn 0.7660 -0.6008 -0.2286
vn 0.7157 -0.6117 -0.3372
vn 0.3651 -0.8622 -0.3513
vn 0.6505 0.1855 -0.7365
vn 0.6991 0.1478 -0.6996
vn 0.3816 -0.0118 -0.9243
vn 0.2683 -0.8220 -0.5024
vn 0.1897 0.0938 -0.9774
vn -0.3684 -0.8177 -0.4423
vn -0.4228 -0.2658 -0.8664
vn -0.3229 0.0150 -0.9463
vn 0.1991 0.3699 -0.9075
vn -0.3773 -0.3011 -0.8758
vn 0.2126 0.3642 -0.9067
vn 0.6360 0.5158 -0.5740
vn 0.6435 0.1523 -0.7501
vn 0.2002 0.4305 -0.8801
vn 0.2826 0.5181 -0.8073
vn 0.5653 0.1364 -0.8135
vn 0.2279 0.8222 -0.5216
vn 0.4013 0.9107 -0.0979
vn 0.7376 0.5763 -0.3520
vn 0.8362 0.5300 -0.1408
vn 0.2573 0.9283 0.2683
vn 0.7245 0.6160 0.3092
vn 0.3100 0.8333 0.4577
vn 0.8019 0.5885 -0.1033
vn 0.7911 0.4831 0.3753
vn 0.9145 0.3385 0.2218
vn 0.7696 0.0075 0.6385
vn 0.9103 -0.2107 0.3563
vn 0.9830 0.0329 0.1805
vn 0.7252 0.4156 0.5489
vn 0.2911 -0.5102 0.8093
vn -0.2130 0.4020 0.8905
vn 0.3099 0.6534 0.6907
vn -0.3660 -0.2338 0.9007
vn 0.2140 -0.7893 0.5756
vn -0.1716 -0.9030 0.3938
vn -0.4707 -0.7169 0.5143
vn -0.5024 -0.3514 0.7900
vn -0.4260 -0.7009 0.5720
vn -0.5607 -0.4231 0.7117
vn -0.5315 -0.3208 0.7839
vn -0.5104 0.3439 0.7882
vn -0.5289 0.3574 0.7697
vn -0.7442 0.1338 0.6544
vn -0.7218 -0.3729 0.5830
vn -0.8123 0.5793 -0.0677
vn -0.7085 0.1194 -0.6955
vn -0.6588 -0.3637 -0.6585
vn -0.6988 -0.7143 0.0384
vn -0.4794 -0.8766 -0.0408
vn -0.5213 -0.4476 -0.7266
vn -0.4229 -0.8706 -0.2513
vn -0.4323 0.8171 -0.3815
vn -0.3996 0.5498 -0.7335
vn -0.4889 0.2535 -0.8347
vn -0.7716 0.6346 -0.0450
vn -0.2733 0.7719 0.5740
vn -0.1742 0.9303 0.3229
vn -0.2210 0.9699 -0.1023
vn -0.4273 0.6813 0.5944
vn -0.3868 0.4981 0.7761
vn -0.2632 0.7579 0.5969
vn -0.3838 -0.9065 0.1761
vn 0.2754 0.8239 0.4953
vn 0.7044 -0.6508 0.2833
vn 0.7099 0.4599 -0.5334
vn 0.7784 0.2335 -0.5827
vn 0.9750 -0.1706 -0.1422
vn 0.4192 0.5586 -0.7157
vn 0.4746 0.6016 -0.6425
vn -0.4442 -0.8611 -0.2474
usemtl Material.002
f 1/1/1 2/2/2 3/3/3
f 2/2/4 1/1/4 4/4/4
f 2/2/5 4/4/5 5/5/5
f 2/6/6 5/7/6 6/8/6
f 2/6/2 6/8/7 3/9/3
f 7/10/8 1/11/8 3/12/8
f 7/10/9 3/12/9 8/13/9
f 3/12/10 9/14/10 8/13/10
f 3/9/11 6/8/11 9/15/11
f 10/16/12 9/15/12 11/17/12
f 8/13/13 9/14/13 10/16/13
f 9/15/14 12/18/14 11/17/14
f 6/8/15 12/18/15 9/15/15
f 12/18/16 13/19/16 11/17/16
f 6/8/17 14/20/17 12/18/17
f 12/18/18 14/20/18 13/19/18
f 13/19/19 15/21/19 16/22/19
f 13/19/20 16/22/20 17/23/20
f 13/19/21 14/20/21 15/21/21
f 11/17/22 13/19/22 17/23/22
f 11/17/23 17/23/23 18/24/23
f 18/24/24 17/23/24 19/25/24
f 17/23/25 16/22/25 20/26/25
f 19/25/26 17/23/26 20/26/26
f 21/27/27 18/24/27 19/25/27
f 19/25/28 20/26/28 22/28/28
f 23/29/29 19/25/29 22/28/29
f 23/29/30 21/27/30 19/25/30
f 24/30/31 21/27/31 23/29/31
f 25/31/32 23/29/32 22/28/32
f 26/32/33 24/30/33 23/29/33
f 25/31/34 26/32/34 23/29/34
f 27/33/35 21/27/35 24/30/35
f 28/34/36 24/30/36 26/32/36
f 28/34/37 27/33/37 24/30/37
f 29/35/38 28/34/38 30/36/38
f 29/35/39 7/10/39 28/34/39
f 28/34/40 7/10/40 27/33/40
f 30/36/41 28/34/41 26/32/41
f 31/37/42 29/35/42 30/36/42
f 32/38/43 30/36/43 33/39/43
f 30/36/44 26/32/44 33/39/44
f 32/38/45 31/40/45 30/36/45
f 1/11/46 29/35/46 31/37/46
f 4/4/47 1/1/47 31/40/47
f 4/4/48 31/40/48 34/41/48
f 34/41/49 31/40/49 32/38/49
f 4/4/50 34/41/50 35/42/50
f 35/42/51 34/41/51 36/43/51
f 34/41/52 32/38/52 36/43/52
f 36/43/53 32/38/53 37/44/53
f 36/45/54 37/44/54 38/46/54
f 39/47/55 36/45/55 38/46/55
f 39/47/56 35/48/56 36/45/56
f 39/47/57 38/46/57 40/49/57
f 15/50/58 39/47/58 40/49/58
f 41/51/59 39/47/59 15/50/59
f 41/51/60 35/48/60 39/47/60
f 5/5/61 35/42/61 41/52/61
f 14/20/62 41/53/62 15/21/62
f 5/7/63 41/53/63 14/20/63
f 20/26/64 40/49/64 42/54/64
f 16/22/65 40/49/65 20/26/65
f 15/50/66 40/49/66 16/22/66
f 40/49/67 38/46/67 42/54/67
f 42/54/68 37/44/68 25/31/68
f 42/54/69 25/31/69 22/28/69
f 20/26/70 42/54/70 22/28/70
f 38/46/71 37/44/71 42/54/71
f 32/38/72 33/39/72 37/44/72
f 37/44/73 33/39/73 25/31/73
f 5/5/74 4/4/74 35/42/74
f 33/39/75 26/32/75 25/31/75
f 29/35/76 1/11/76 7/10/76
f 27/33/77 10/16/77 21/27/77
f 8/13/78 10/16/78 27/33/78
f 7/10/79 8/13/79 27/33/79
f 10/16/80 18/24/80 21/27/80
f 10/16/81 11/17/81 18/24/81
f 6/8/82 5/7/82 14/20/82
