mtllib LOW_POLY_set.mtl
o lp_tree5_Cube_014
v 20.460333 9.537851 -37.347687
v 21.291454 9.987176 -36.977440
v 19.661018 9.362823 -36.454983
v 19.357405 8.988560 -36.974121
v 21.383480 9.561796 -38.673630
v 19.099619 9.289278 -36.056782
v 20.806681 10.175064 -35.990696
v 22.163935 10.300111 -37.286816
v 21.902557 9.962847 -38.076328
v 19.163536 9.618302 -35.726036
v 17.151344 9.176044 -36.293461
v 17.114447 8.906574 -36.925766
v 18.207491 8.843558 -36.722733
v 17.706345 9.285130 -35.864971
v 16.722282 9.080297 -36.906113
v 16.751251 9.603166 -36.255333
v 16.464073 9.328445 -36.831455
v 17.445827 9.636211 -35.716293
v 17.955667 10.600711 -35.663971
v 16.989193 10.388638 -36.037586
v 18.370424 9.824915 -35.579971
v 19.149225 10.227427 -35.500294
v 19.923946 10.009863 -35.653126
v 20.357841 10.224089 -35.593864
v 19.888115 10.338752 -35.365753
v 18.926861 10.775898 -35.610676
v 20.576815 10.560097 -35.748810
v 21.026468 10.899117 -36.169022
v 21.115088 10.432983 -36.058990
v 21.458780 10.604860 -36.319538
v 21.413715 11.396269 -36.819687
v 21.922550 11.307022 -37.471783
v 21.640240 12.194350 -37.408192
v 20.793720 12.883297 -37.433857
v 21.181553 12.985616 -37.779694
v 20.172277 11.783050 -36.335926
v 22.161963 10.774426 -37.322807
v 21.765450 12.396794 -38.088108
v 21.980598 10.500645 -38.643192
v 22.175846 10.279493 -38.114044
v 21.477604 11.807307 -39.398304
v 22.008690 11.040050 -40.698502
v 21.879202 10.018838 -39.734093
v 21.488337 12.649915 -41.230793
v 20.938026 12.943422 -39.816082
v 21.766087 9.778591 -40.694504
v 21.959984 10.497906 -41.160240
v 21.859089 11.695271 -41.231022
v 21.611380 10.751650 -41.813911
v 21.437943 9.674660 -41.393692
v 21.101341 10.038993 -42.093361
v 21.446499 11.857361 -41.863907
v 20.648569 9.478683 -42.023540
v 20.803900 9.014141 -40.188118
v 20.526770 9.145665 -41.252247
v 21.294451 9.258801 -40.406075
v 21.800848 9.758222 -39.440285
v 19.862022 9.057240 -37.709587
v 18.680626 8.630888 -39.321644
v 18.762411 8.665934 -37.894691
v 17.200563 9.210383 -38.069553
v 18.809956 8.789366 -40.902351
v 18.921133 9.076283 -42.034649
v 17.880327 8.790414 -40.408100
v 17.735228 8.954500 -38.948391
v 16.871119 9.294144 -41.161018
v 17.895105 9.195202 -41.588223
v 16.874237 9.004229 -40.485046
v 16.514467 9.918820 -41.396675
v 17.797522 10.748269 -42.268742
v 19.065662 9.775566 -42.611412
v 16.131073 9.433633 -40.736767
v 15.503544 10.174822 -39.549545
v 15.353298 10.267210 -40.365902
v 16.005569 9.687853 -39.374153
v 15.611465 10.390841 -40.911964
v 16.508448 9.307679 -39.303963
v 16.501740 9.562914 -37.692310
v 15.697086 10.723162 -38.675640
v 16.102291 10.924754 -37.893887
v 15.016485 11.700213 -39.620239
v 15.920649 12.003987 -38.171810
v 16.533115 10.584471 -36.804436
v 16.720469 13.105328 -38.064034
v 16.114443 13.064201 -38.403992
v 16.016169 13.489841 -38.967236
v 17.503420 11.773680 -36.508308
v 18.859608 12.161667 -36.252506
v 18.546488 13.218094 -37.626888
v 18.167112 13.611639 -38.557106
v 17.111752 13.905685 -38.738258
v 16.079836 13.580191 -39.292728
v 17.804287 13.790651 -38.890762
v 17.338858 13.917940 -39.023685
v 16.473545 13.432969 -39.678745
v 15.671138 12.823931 -39.930038
v 17.786903 13.501078 -39.514133
v 18.022713 13.510172 -39.304066
v 17.339787 13.582546 -40.229942
v 17.999130 13.614967 -40.117271
v 15.775059 12.236091 -40.620625
v 16.401249 12.808308 -40.777706
v 16.938469 13.211486 -40.823463
v 18.239277 12.426240 -41.698505
v 17.823357 11.737567 -42.125076
v 16.766064 11.668282 -41.529602
v 15.558872 11.155293 -40.837196
v 18.890606 10.937531 -43.074493
v 19.050188 12.942119 -41.774086
v 19.532436 12.569815 -42.231697
v 19.958055 11.080108 -42.791660
v 20.006033 10.166382 -42.656216
v 20.911007 11.166978 -42.298267
v 20.696011 12.591393 -41.931049
v 20.986471 13.143893 -41.314682
v 20.176699 13.586809 -41.235485
v 20.622129 13.487335 -40.813732
v 20.079805 13.654298 -40.137348
v 19.621170 13.695017 -40.523922
v 19.696896 13.709690 -39.652367
v 19.145430 13.563529 -39.563828
v 19.942810 13.610556 -39.417084
v 19.543037 13.741739 -39.331924
v 19.936844 13.659581 -39.027454
v 20.538288 13.345365 -39.473778
v 21.030252 13.251786 -38.385456
v 19.634375 13.680220 -38.806759
v 19.199003 13.441287 -37.675877
v 19.337519 13.721508 -38.931549
v 19.139530 13.650043 -39.232533
v 18.999926 13.563226 -38.471138
v 19.260744 12.981483 -36.748676
v 18.508940 13.597547 -39.040661
v 21.218115 12.558071 -39.058243
v 20.930309 13.270925 -40.540764
vt 0.810325 0.809404
vt 0.810408 0.809531
vt 0.810155 0.809451
vt 0.810142 0.809352
vt 0.810559 0.809301
vt 0.810060 0.809460
vt 0.810276 0.809609
vt 0.810545 0.809591
vt 0.810589 0.809449
vt 0.810052 0.809523
vt 0.809795 0.809355
vt 0.809817 0.809251
vt 0.809969 0.809319
vt 0.809863 0.809434
vt 0.809749 0.809241
vt 0.809697 0.809385
vt 0.809685 0.809243
vt 0.809813 0.809473
vt 0.809831 0.809658
vt 0.809674 0.809542
vt 0.809933 0.809543
vt 0.810040 0.809610
vt 0.810148 0.809585
vt 0.810199 0.809615
vt 0.810134 0.809618
vt 0.810001 0.809691
vt 0.810237 0.809659
vt 0.810323 0.809713
vt 0.810319 0.809645
vt 0.810381 0.809662
vt 0.810433 0.809801
vt 0.810581 0.809794
vt 0.810510 0.809959
vt 0.810378 0.810095
vt 0.810460 0.810132
vt 0.810216 0.809868
vt 0.810582 0.809668
vt 0.810700 0.810172
vt 0.810915 0.810051
vt 0.811026 0.810018
vt 0.811075 0.810280
vt 0.811121 0.810171
vt 0.810651 0.809496
vt 0.810809 0.810442
vt 0.810999 0.810673
vt 0.811185 0.810486
vt 0.810714 0.810801
vt 0.810577 0.810556
vt 0.811240 0.810674
vt 0.811095 0.810753
vt 0.810888 0.810776
vt 0.811053 0.810886
vt 0.811267 0.810830
vt 0.811195 0.810987
vt 0.810855 0.810905
vt 0.810163 0.811756
vt 0.810285 0.811756
vt 0.810238 0.811907
vt 0.810002 0.812015
vt 0.810071 0.811851
vt 0.810104 0.812035
vt 0.810234 0.812041
vt 0.810584 0.809018
vt 0.810683 0.809034
vt 0.810696 0.809237
vt 0.810810 0.809057
vt 0.810260 0.809292
vt 0.809642 0.811899
vt 0.810114 0.809182
vt 0.810202 0.808970
vt 0.809876 0.809064
vt 0.809829 0.811738
vt 0.809947 0.811629
vt 0.809684 0.811692
vt 0.809486 0.811808
vt 0.810022 0.808960
vt 0.809671 0.811504
vt 0.809809 0.811569
vt 0.809604 0.811571
vt 0.809669 0.811405
vt 0.809916 0.811354
vt 0.810035 0.811549
vt 0.809571 0.811461
vt 0.809372 0.811412
vt 0.809469 0.811346
vt 0.809393 0.811514
vt 0.809544 0.811316
vt 0.809428 0.811604
vt 0.809186 0.811708
vt 0.809207 0.811421
vt 0.809307 0.811797
vt 0.809725 0.809078
vt 0.809348 0.810063
vt 0.809200 0.810161
vt 0.809198 0.809829
vt 0.809298 0.809689
vt 0.809280 0.811176
vt 0.809450 0.810253
vt 0.809186 0.810456
vt 0.809471 0.809860
vt 0.809684 0.810343
vt 0.809582 0.810410
vt 0.809590 0.810543
vt 0.809569 0.809715
vt 0.809759 0.809941
vt 0.809424 0.809644
vt 0.810013 0.809938
vt 0.810002 0.810236
vt 0.809960 0.810425
vt 0.809790 0.810502
vt 0.809598 0.810614
vt 0.809905 0.810499
vt 0.809830 0.810533
vt 0.809689 0.810693
vt 0.809531 0.810832
vt 0.809375 0.810637
vt 0.809925 0.810622
vt 0.809962 0.810577
vt 0.809870 0.810757
vt 0.809983 0.810725
vt 0.809584 0.810999
vt 0.809715 0.810929
vt 0.809816 0.810882
vt 0.810037 0.811077
vt 0.809959 0.811207
vt 0.809771 0.811160
vt 0.809524 0.811192
vt 0.809332 0.810999
vt 0.810100 0.811406
vt 0.810196 0.811030
vt 0.810263 0.811144
vt 0.810268 0.811447
vt 0.810175 0.811580
vt 0.810412 0.811589
vt 0.810970 0.811046
vt 0.810678 0.810993
vt 0.810491 0.811150
vt 0.810480 0.811442
vt 0.810602 0.810843
vt 0.810424 0.810886
vt 0.810493 0.810776
vt 0.810366 0.810663
vt 0.810291 0.810754
vt 0.810280 0.810583
vt 0.810171 0.810587
vt 0.810323 0.810528
vt 0.810241 0.810527
vt 0.810304 0.810454
vt 0.810450 0.810511
vt 0.810484 0.810266
vt 0.810241 0.810425
vt 0.810123 0.810240
vt 0.810191 0.810460
vt 0.810161 0.810523
vt 0.810110 0.810386
vt 0.810095 0.810077
vt 0.810037 0.810507
vt 0.810614 0.810053
vt 0.810644 0.810391
vt 0.810552 0.810709
vt 0.810763 0.809220
vn 0.4467 -0.8645 0.2305
vn 0.3745 -0.8944 0.2446
vn 0.4441 -0.7520 0.4872
vn 0.4205 -0.8308 0.3648
vn 0.4024 -0.8826 0.2433
vn 0.4028 -0.8823 0.2435
vn 0.4026 -0.8824 0.2434
vn 0.4021 -0.8827 0.2432
vn 0.3383 -0.6990 0.6300
vn -0.0602 -0.8555 0.5144
vn 0.2883 -0.9282 0.2350
vn 0.0657 -0.8865 0.4580
vn -0.3579 -0.8513 0.3837
vn -0.5589 -0.6341 0.5344
vn -0.5032 -0.5321 0.6810
vn -0.4131 -0.5976 0.6872
vn -0.4886 0.0746 0.8693
vn 0.0001 -0.4670 0.8842
vn -0.1511 0.0262 0.9882
vn 0.0850 -0.3445 0.9349
vn -0.1230 0.0416 0.9915
vn -0.1269 -0.3003 0.9454
vn -0.0835 0.1640 0.9829
vn 0.0698 -0.3949 0.9161
vn 0.4558 0.1102 0.8832
vn 0.4566 0.2857 0.8426
vn 0.4410 -0.6822 0.5831
vn 0.7423 -0.1871 0.6434
vn 0.7886 0.1621 0.5932
vn 0.7299 0.2592 0.6325
vn 0.4144 0.5366 0.7350
vn 0.2028 0.6447 0.7371
vn 0.3367 0.4785 0.8110
vn 0.6374 0.5168 0.5715
vn 0.3973 0.5260 0.7520
vn 0.6370 -0.6533 0.4093
vn 0.6270 -0.4847 0.6098
vn 0.8142 0.0473 0.5787
vn 0.9764 0.1974 -0.0875
vn 0.9194 0.3406 -0.1969
vn 0.9999 0.0052 0.0143
vn 0.9369 0.1918 -0.2922
vn 0.9007 0.4171 0.1218
vn 0.9292 0.2984 -0.2181
vn 0.9884 -0.1497 -0.0258
vn 0.8907 0.4110 0.1942
vn 0.9820 -0.1889 -0.0078
vn 0.9169 0.3560 0.1805
vn 0.9797 0.0715 -0.1873
vn 0.7696 -0.3358 -0.5430
vn 0.8686 0.0746 -0.4898
vn 0.8371 -0.4379 -0.3278
vn 0.5985 -0.5556 -0.5772
vn 0.4148 -0.8721 -0.2597
vn 0.4451 -0.8455 -0.2948
vn 0.6653 -0.7177 -0.2056
vn 0.4871 -0.8642 0.1261
vn 0.6578 -0.7519 0.0439
vn 0.3246 -0.9224 0.2093
vn 0.5291 -0.8208 0.2153
vn 0.1154 -0.9817 -0.1514
vn 0.3135 -0.9409 0.1280
vn 0.3136 -0.9409 0.1277
vn 0.3120 -0.9405 0.1349
vn 0.1830 -0.9830 0.0137
vn 0.3135 -0.9410 0.1272
vn 0.5005 -0.8237 0.2665
vn -0.1430 -0.9863 0.0818
vn 0.2132 -0.8474 0.4863
vn 0.1727 -0.9743 -0.1446
vn -0.0565 -0.9930 -0.1042
vn -0.2953 -0.9522 0.0777
vn -0.3090 -0.9502 0.0410
vn -0.2007 -0.9171 -0.3445
vn -0.2135 -0.9730 0.0881
vn -0.1720 -0.9311 -0.3215
vn -0.3388 -0.4240 -0.8399
vn -0.4682 -0.4232 -0.7757
vn -0.2220 -0.9398 -0.2599
vn -0.4931 -0.5391 -0.6828
vn -0.3701 -0.8544 -0.3647
vn -0.7123 -0.6993 0.0600
vn -0.6614 -0.4665 -0.5873
vn -0.5567 -0.8274 0.0739
vn -0.8388 -0.4533 0.3015
vn -0.4906 -0.8610 0.1343
vn -0.5413 -0.8016 -0.2537
vn -0.3878 -0.8301 -0.4008
vn -0.7083 -0.6726 -0.2142
vn -0.9467 -0.2470 0.2069
vn -0.9224 -0.2823 0.2637
vn -0.8559 -0.0530 0.5145
vn -0.9305 -0.0055 0.3662
vn -0.5953 0.3621 0.7172
vn -0.8493 0.2906 0.4408
vn -0.7135 0.4480 0.5387
vn -0.6586 0.3749 0.6524
vn -0.8420 0.1086 0.5285
vn -0.9018 0.0403 0.4303
vn -0.3409 0.4591 0.8204
vn -0.1952 0.7606 0.6191
vn 0.0430 0.6313 0.7743
vn -0.3885 0.6989 0.6005
vn -0.3814 0.9073 0.1772
vn 0.2153 0.9386 0.2695
vn -0.1106 0.9928 -0.0454
vn -0.3426 0.7068 -0.6190
vn -0.8675 0.4963 -0.0324
vn -0.1338 0.8728 -0.4694
vn 0.1023 0.8021 -0.5883
vn -0.0723 0.9849 0.1573
vn -0.5406 0.6920 -0.4784
vn -0.4678 0.8128 -0.3473
vn 0.0620 0.8023 -0.5937
vn 0.1021 0.8110 -0.5761
vn -0.3463 0.4955 -0.7966
vn -0.3847 0.4193 -0.8223
vn -0.4929 0.1376 -0.8591
vn -0.5707 0.0197 -0.8209
vn -0.5430 0.3049 -0.7824
vn -0.4873 0.0184 -0.8730
vn -0.8302 0.3083 -0.4644
vn -0.9112 -0.0077 -0.4119
vn -0.2232 0.6072 -0.7626
vn -0.6028 0.1301 -0.7872
vn -0.5038 -0.3842 -0.7737
vn -0.3735 0.5256 -0.7644
vn 0.1864 0.3919 -0.9009
vn 0.1803 -0.2546 -0.9501
vn 0.1942 -0.5597 -0.8056
vn 0.1556 -0.6475 -0.7460
vn 0.4648 -0.1059 -0.8791
vn 0.4474 -0.0862 -0.8902
vn 0.3788 -0.4095 -0.8299
vn 0.5673 -0.0038 -0.8235
vn 0.3568 0.2833 -0.8902
vn 0.4200 0.2855 -0.8615
vn 0.5373 0.4863 -0.6891
vn 0.2828 0.6442 -0.7107
vn 0.2075 0.5028 -0.8391
vn 0.4426 0.8566 -0.2654
vn 0.2513 0.9672 -0.0373
vn 0.1296 0.9903 -0.0494
vn -0.0884 0.7250 -0.6830
vn -0.2105 0.8770 -0.4320
vn -0.0022 0.9828 0.1848
vn 0.1104 0.9935 -0.0263
vn -0.1021 0.9911 0.0851
vn 0.3038 0.9519 -0.0403
vn -0.2836 0.9311 -0.2293
vn 0.2785 0.9540 0.1109
vn 0.4138 0.9006 0.1334
vn 0.3967 0.9124 -0.1009
vn 0.3969 0.9123 -0.1010
vn 0.4019 0.9094 -0.1073
vn 0.4025 0.9090 -0.1082
vn 0.1754 0.9189 0.3533
vn 0.1346 0.9866 0.0922
vn 0.2745 0.9140 0.2988
vn -0.0723 0.9973 0.0133
vn -0.0687 0.9753 0.2101
vn -0.1186 0.9398 0.3205
vn 0.7195 0.6401 0.2695
vn -0.2602 0.8580 0.4428
vn 0.1213 0.6660 0.7360
vn -0.3216 0.7139 0.6220
vn -0.5234 0.6138 0.5910
vn -0.1239 0.4121 0.9027
vn 0.2023 0.5183 0.8309
vn -0.0410 0.4183 0.9074
vn 0.1833 0.4418 0.8782
vn -0.1582 0.9839 0.0832
vn 0.0569 0.9983 0.0111
vn 0.2641 0.9645 -0.0011
vn 0.1990 0.7595 -0.6193
vn -0.1094 0.9744 -0.1965
vn 0.2957 0.9379 0.1817
vn -0.2723 0.9298 -0.2477
vn -0.0456 0.9989 0.0080
vn 0.0963 0.9199 0.3801
vn 0.7474 0.6290 0.2141
vn 0.7813 0.5305 -0.3288
vn 0.7365 0.6729 0.0699
vn 0.4554 0.8819 0.1219
vn 0.7843 0.5684 0.2485
vn 0.9134 0.3809 -0.1439
vn 0.8343 0.5056 0.2196
vn 0.7055 0.7058 -0.0646
vn 0.6208 0.7795 -0.0829
vn 0.8072 0.4513 -0.3804
vn -0.4772 0.6661 -0.5732
vn 0.5868 0.4862 -0.6475
vn 0.8287 0.3220 -0.4578
vn -0.3071 -0.9438 0.1220
vn -0.3353 -0.9395 0.0696
vn -0.0079 -0.9663 -0.2573
vn 0.2140 -0.9087 -0.3585
vn 0.9469 -0.3201 -0.0314
vn 0.5467 -0.8331 0.0842
vn 0.9139 -0.3923 -0.1042
vn 0.7587 -0.6502 0.0402
vn 0.7583 -0.6513 0.0283
vn 0.7588 -0.6500 0.0409
vn 0.8672 0.2448 0.4336
vn 0.7583 -0.6513 0.0272
vn 0.3475 -0.7735 0.5301
usemtl Material.003
f 1/1/1 2/2/1 3/3/1 4/4/1
f 2/2/2 1/1/2 5/5/2
f 6/6/3 3/3/3 2/2/3
f 7/7/4 6/6/4 2/2/4 8/8/4
f 9/9/5 8/8/6 2/2/7
f 2/2/7 5/5/8 9/9/5
f 6/6/9 7/7/9 10/10/9
f 11/11/10 12/12/10 13/13/10 6/6/10
f 3/3/11 6/6/11 13/13/11
f 6/6/12 10/10/12 14/14/12 11/11/12
f 11/11/13 15/15/13 12/12/13
f 15/15/14 11/11/14 16/16/14 17/17/14
f 11/11/15 18/18/15 16/16/15
f 14/14/16 18/18/16 11/11/16
f 18/18/17 19/19/17 20/20/17 16/16/17
f 14/14/18 10/10/18 21/21/18 18/18/18
f 19/19/19 18/18/19 21/21/19
f 22/22/20 21/21/20 10/10/20 23/23/20
f 21/21/21 22/22/21 19/19/21
f 22/22/22 24/24/22 25/25/22 26/26/22
f 22/22/23 26/26/23 19/19/23
f 22/22/24 23/23/24 24/24/24
f 24/24/25 27/27/25 25/25/25
f 28/28/26 24/24/26 29/29/26 30/30/26
f 7/7/27 29/29/27 24/24/27 23/23/27
f 28/28/28 27/27/28 24/24/28
f 31/31/29 28/28/29 32/32/29
f 31/31/30 33/33/30 28/28/30
f 34/34/31 28/28/31 33/33/31 35/35/31
f 25/25/32 27/27/32 28/28/32
f 28/28/33 36/36/33 25/25/33
f 37/37/34 32/32/34 28/28/34 30/30/34
f 34/34/35 36/36/35 28/28/35
f 29/29/36 7/7/36 30/30/36
f 7/7/37 8/8/37 30/30/37
f 8/8/38 37/37/38 30/30/38
f 38/38/39 32/39/39 37/40/39 39/41/39
f 40/42/40 39/41/40 37/40/40
f 37/37/41 8/8/41 40/43/41
f 41/44/42 38/38/42 39/41/42
f 39/41/43 42/45/43 41/44/43
f 40/42/44 43/46/44 39/41/44
f 43/46/45 42/45/45 39/41/45
f 42/45/46 44/47/46 45/48/46 41/44/46
f 42/45/47 43/46/47 46/49/47 47/50/47
f 44/47/48 42/45/48 48/51/48
f 48/51/49 42/45/49 47/50/49
f 49/52/50 47/50/50 50/53/50 51/54/50
f 52/55/51 48/51/51 47/50/51 49/52/51
f 47/50/52 46/49/52 50/53/52
f 53/56/53 51/57/53 50/58/53
f 54/59/54 55/60/54 50/58/54 56/61/54
f 55/60/55 53/56/55 50/58/55
f 46/62/56 56/61/56 50/58/56
f 54/63/57 56/64/57 5/5/57
f 57/65/58 5/5/58 56/64/58 46/66/58
f 1/1/59 54/63/59 5/5/59
f 58/67/60 54/63/60 1/1/60
f 55/60/61 54/59/61 59/68/61
f 58/67/62 60/69/63 54/63/64
f 54/63/65 60/69/65 59/70/65
f 58/67/62 4/4/66 60/69/63
f 58/67/67 1/1/67 4/4/67
f 4/4/68 13/13/68 61/71/68 60/69/68
f 4/4/69 3/3/69 13/13/69
f 55/60/70 59/68/70 62/72/70 63/73/70
f 59/68/71 64/74/71 62/72/71
f 65/75/72 64/74/72 59/68/72
f 59/70/73 60/69/73 65/76/73
f 66/77/74 67/78/74 64/74/74 68/79/74
f 68/79/75 64/74/75 65/75/75
f 62/72/76 64/74/76 67/78/76
f 69/80/77 70/81/77 67/78/77 66/77/77
f 63/73/78 67/78/78 70/81/78 71/82/78
f 63/73/79 62/72/79 67/78/79
f 69/80/80 66/77/80 72/83/80
f 72/83/81 66/77/81 68/79/81
f 73/84/82 74/85/82 72/83/82 75/86/82
f 76/87/83 69/80/83 72/83/83 74/85/83
f 75/86/84 72/83/84 68/79/84 77/88/84
f 75/86/85 78/89/85 79/90/85 73/84/85
f 61/91/86 78/89/86 75/86/86 77/88/86
f 78/92/87 61/71/87 12/12/87
f 12/12/88 15/15/88 78/92/88
f 15/15/89 17/17/89 78/92/89
f 80/93/90 79/94/90 78/95/90 17/96/90
f 73/84/91 79/90/91 81/97/91 74/85/91
f 82/98/92 81/99/92 79/94/92 80/93/92
f 80/93/93 17/96/93 83/100/93 82/98/93
f 82/98/94 83/100/94 84/101/94 85/102/94
f 85/102/95 86/103/95 81/99/95 82/98/95
f 83/100/96 20/104/96 87/105/96
f 87/105/97 84/101/97 83/100/97
f 83/100/98 16/106/98 20/104/98
f 17/96/99 16/106/99 83/100/99
f 87/105/100 20/104/100 19/19/100 88/107/100
f 84/101/101 87/105/101 89/108/101 90/109/101
f 91/110/102 84/101/102 90/109/102
f 84/101/103 91/110/103 86/103/103 85/102/103
f 92/111/104 86/103/104 91/110/104
f 90/109/105 93/112/105 91/110/105
f 94/113/106 92/111/106 91/110/106 93/112/106
f 95/114/107 96/115/107 92/111/107
f 96/116/108 81/99/108 86/103/108 92/111/108
f 92/111/109 94/113/109 95/114/109
f 97/117/110 95/114/110 94/113/110 98/118/110
f 99/119/111 95/114/111 97/117/111 100/120/111
f 101/121/112 96/115/112 95/114/112 102/122/112
f 102/122/113 95/114/113 99/119/113 103/123/113
f 104/124/114 99/119/114 100/120/114
f 103/123/115 99/119/115 104/124/115
f 105/125/116 106/126/116 103/123/116 104/124/116
f 106/126/117 102/122/117 103/123/117
f 106/126/118 105/125/118 70/81/118
f 106/126/119 70/81/119 69/80/119
f 102/122/120 106/126/120 107/127/120 101/121/120
f 107/127/121 106/126/121 69/80/121 76/87/121
f 107/127/122 81/128/122 96/115/122 101/121/122
f 74/85/123 81/97/123 107/127/123 76/87/123
f 105/125/124 104/124/124 108/129/124
f 70/81/125 105/125/125 108/129/125
f 108/129/126 71/82/126 70/81/126
f 109/130/127 110/131/127 108/129/127 104/124/127
f 108/129/128 110/131/128 111/132/128
f 71/82/129 108/129/129 111/132/129 112/133/129
f 53/56/130 71/82/130 112/133/130
f 63/73/131 71/82/131 53/56/131
f 113/134/132 112/133/132 111/132/132
f 113/134/133 51/57/133 112/133/133
f 53/56/134 112/133/134 51/57/134
f 51/54/135 113/135/135 52/55/135 49/52/135
f 114/136/136 52/55/136 113/135/136
f 111/132/137 114/137/137 113/138/137
f 115/139/138 52/55/138 114/136/138
f 116/140/139 115/139/139 114/136/139
f 110/131/140 116/140/140 114/137/140 111/132/140
f 116/140/141 117/141/141 115/139/141
f 117/141/142 116/140/142 118/142/142
f 118/142/143 116/140/143 119/143/143
f 110/131/144 109/130/144 116/140/144
f 119/143/145 116/140/145 109/130/145 100/120/145
f 97/117/146 119/143/146 100/120/146
f 118/142/147 119/143/147 120/144/147
f 119/143/148 97/117/148 121/145/148 120/144/148
f 122/146/149 120/144/149 123/147/149 124/148/149
f 120/144/150 121/145/150 123/147/150
f 120/144/151 122/146/151 118/142/151
f 118/142/152 122/146/152 125/149/152
f 125/149/153 122/146/154 126/150/155
f 122/146/154 124/148/156 126/150/155
f 127/151/157 34/34/157 126/150/157 124/148/157
f 127/151/158 124/148/158 123/147/158
f 128/152/159 34/34/159 127/151/159
f 129/153/160 127/151/160 123/147/160 130/154/160
f 131/155/161 128/152/161 127/151/161 129/153/161
f 131/155/162 90/109/162 89/108/162 128/152/162
f 128/152/163 132/156/163 36/36/163
f 89/108/164 132/156/164 128/152/164
f 128/152/165 36/36/165 34/34/165
f 87/105/166 88/107/166 89/108/166
f 88/107/167 132/156/167 89/108/167
f 26/26/168 88/107/168 19/19/168
f 88/107/169 25/25/169 36/36/169
f 88/107/170 26/26/170 25/25/170
f 36/36/171 132/156/171 88/107/171
f 130/154/172 133/157/172 131/155/172 129/153/172
f 90/109/173 131/155/173 133/157/173
f 94/113/174 93/112/174 133/157/174
f 98/118/175 94/113/175 133/157/175
f 121/145/176 98/118/176 133/157/176 130/154/176
f 133/157/177 93/112/177 90/109/177
f 121/145/178 130/154/178 123/147/178
f 98/118/179 121/145/179 97/117/179
f 34/34/180 35/35/180 126/150/180
f 35/35/181 33/33/181 38/158/181 126/150/181
f 125/149/182 126/150/182 38/38/182 134/159/182
f 125/149/183 134/159/183 45/48/183
f 117/141/184 118/142/184 125/149/184 135/160/184
f 45/48/185 135/160/185 125/149/185
f 45/48/186 134/159/186 41/44/186
f 44/47/187 135/160/187 45/48/187
f 115/139/188 135/160/188 44/47/188
f 117/141/189 135/160/189 115/139/189
f 134/159/190 38/38/190 41/44/190
f 104/124/191 100/120/191 109/130/191
f 44/47/192 52/55/192 115/139/192
f 48/51/193 52/55/193 44/47/193
f 77/88/194 68/79/194 65/75/194 61/91/194
f 60/69/195 61/71/195 65/76/195
f 13/13/196 12/12/196 61/71/196
f 53/56/197 55/60/197 63/73/197
f 43/161/198 57/65/198 46/66/198
f 57/65/199 9/9/199 5/5/199
f 57/65/200 43/161/200 40/43/200
f 40/43/201 9/9/202 57/65/203
f 33/33/204 31/31/204 32/32/204 38/158/204
f 40/43/201 8/8/205 9/9/202
f 7/7/206 23/23/206 10/10/206
