mtllib LOW_POLY_set.mtl
o lp_tree5_Cube_016
v 19.420694 8.038697 -33.230232
v 20.093893 7.753614 -32.378620
v 18.736103 8.421105 -32.573219
v 18.295238 8.740153 -33.844746
v 19.596462 8.169620 -34.427742
v 20.605740 7.483655 -33.537056
v 20.277327 7.808415 -31.686647
v 19.388500 8.477110 -31.808395
v 21.173876 7.295663 -32.573475
v 21.688713 7.392214 -33.667042
v 22.011917 7.735383 -33.012035
v 21.126789 7.812602 -31.902430
v 22.563948 8.388526 -34.400188
v 22.354492 8.842169 -33.471973
v 21.537596 8.344513 -32.500275
v 21.439823 9.034430 -32.541237
v 22.006815 9.834530 -34.716473
v 21.556849 9.980001 -33.647945
v 20.818813 10.175578 -34.726536
v 20.423286 10.187990 -33.458824
v 20.893463 9.769952 -32.665249
v 20.012125 10.031160 -32.551216
v 20.607756 9.381447 -32.065010
v 19.239754 10.124004 -33.335026
v 19.602219 9.493670 -32.041832
v 19.107136 9.998929 -32.646252
v 18.599667 9.446461 -32.325249
v 18.247990 9.785300 -33.215649
v 18.006186 9.026695 -32.865116
v 18.480516 8.964588 -32.368034
v 19.307974 8.977763 -31.551565
v 20.411995 8.319560 -31.246376
v 19.943602 8.743059 -31.566437
v 20.579231 8.733317 -31.822872
v 17.890951 9.313197 -33.990475
v 18.619513 9.814306 -34.293354
v 18.754564 9.052409 -34.718502
v 19.729279 9.611119 -35.004345
v 19.761013 10.092893 -33.964664
v 19.894583 8.641969 -35.211056
v 21.057718 9.255980 -35.429180
v 21.071009 7.797106 -34.828316
vt 0.822250 0.816614
vt 0.822267 0.817003
vt 0.821880 0.816637
vt 0.822462 0.819597
vt 0.822049 0.819602
vt 0.822199 0.819182
vt 0.822678 0.819222
vt 0.823003 0.819655
vt 0.822677 0.816826
vt 0.822175 0.817222
vt 0.821859 0.817000
vt 0.822599 0.817192
vt 0.822980 0.817070
vt 0.822904 0.817359
vt 0.822412 0.817374
vt 0.823015 0.817602
vt 0.823089 0.817962
vt 0.822875 0.817905
vt 0.823311 0.817733
vt 0.822649 0.817597
vt 0.822545 0.817820
vt 0.822884 0.818252
vt 0.822667 0.818164
vt 0.822724 0.818448
vt 0.822437 0.818324
vt 0.822399 0.818059
vt 0.822191 0.818224
vt 0.822221 0.817913
vt 0.822170 0.818543
vt 0.821952 0.818130
vt 0.822004 0.818428
vt 0.821730 0.818433
vt 0.821905 0.818830
vt 0.821512 0.818742
vt 0.821542 0.818427
vt 0.821721 0.818013
vt 0.821519 0.817916
vt 0.821855 0.817492
vt 0.821871 0.817798
vt 0.822148 0.817669
vt 0.822021 0.817410
vt 0.821286 0.818318
vt 0.822106 0.819057
vt 0.821859 0.819224
vt 0.822266 0.818850
vt 0.822416 0.818990
vt 0.822611 0.818743
vt 0.822402 0.818541
vt 0.822775 0.818942
vt 0.823050 0.818549
vt 0.823437 0.818161
vt 0.823248 0.819153
vt 0.823437 0.819665
vn -0.4468 -0.8930 0.0542
vn -0.5140 -0.8570 -0.0368
vn -0.4545 -0.8758 -0.1625
vn -0.4546 -0.8757 -0.1625
vn -0.4527 -0.8768 -0.1623
vn -0.4564 -0.8748 -0.1626
vn -0.4183 -0.9079 0.0267
vn -0.6055 -0.7646 0.2211
vn -0.3590 -0.9181 0.1679
vn -0.4464 -0.7804 0.4379
vn -0.3830 -0.9226 0.0458
vn -0.0993 -0.9860 -0.1338
vn 0.5277 -0.8312 0.1751
vn 0.1587 -0.7768 0.6095
vn 0.5939 -0.6166 0.5167
vn 0.9406 -0.1687 0.2947
vn 0.7446 -0.6673 -0.0178
vn 0.7816 0.0901 0.6172
vn 0.7552 0.0382 0.6544
vn 0.7205 0.1424 0.6787
vn 0.9304 0.3653 0.0314
vn 0.7750 0.5815 0.2472
vn 0.6534 0.5401 0.5305
vn 0.2760 0.9610 -0.0146
vn 0.1882 0.9809 0.0491
vn 0.6277 0.5578 0.5430
vn 0.2249 0.9107 0.3465
vn 0.2962 0.7313 0.6143
vn 0.5767 0.5328 0.6193
vn 0.3064 0.9050 0.2952
vn -0.0373 0.9874 0.1537
vn 0.0898 0.6482 0.7562
vn -0.0528 0.9843 0.1686
vn -0.0976 0.7228 0.6841
vn -0.2365 0.6414 0.7299
vn -0.3091 0.9444 0.1120
vn -0.4947 0.7292 0.4729
vn -0.7115 0.1144 0.6933
vn -0.7533 0.4582 0.4719
vn -0.6990 0.1101 0.7066
vn -0.2164 0.7346 0.6431
vn -0.6298 -0.4323 0.6453
vn -0.4807 -0.4602 0.7464
vn 0.2948 0.7619 0.5767
vn 0.2375 0.5945 0.7682
vn 0.3595 0.3126 0.8792
vn 0.2582 0.7478 0.6116
vn 0.0815 0.5595 0.8248
vn 0.7574 0.4062 0.5113
vn 0.5603 0.2681 0.7837
vn 0.6074 0.1326 0.7832
vn 0.6296 0.3130 0.7111
vn -0.4748 -0.4992 0.7248
vn 0.1861 -0.6689 0.7197
vn -0.6328 -0.5157 0.5776
vn -0.6509 -0.5162 0.5566
vn -0.9071 0.3763 0.1887
vn -0.6459 -0.7628 0.0325
vn -0.8072 -0.5865 -0.0666
vn -0.6086 0.7706 -0.1891
vn -0.5475 0.3317 -0.7683
vn -0.6221 -0.5742 -0.5322
vn -0.3315 0.9393 -0.0890
vn -0.4513 0.3725 -0.8109
vn -0.1009 0.9039 -0.4158
vn -0.1789 0.9642 -0.1958
vn -0.1092 0.9931 -0.0438
vn -0.3449 0.8556 -0.3860
vn -0.0644 0.9927 -0.1023
vn -0.3506 0.1378 -0.9263
vn -0.2621 0.1583 -0.9520
vn -0.0997 0.5876 -0.8030
vn 0.3834 -0.3487 -0.8552
vn 0.5816 0.0464 -0.8122
vn 0.1863 0.6266 -0.7567
vn 0.0275 -0.3805 -0.9244
vn -0.3439 -0.7405 -0.5774
vn -0.3144 -0.8903 -0.3294
vn -0.1134 -0.9554 -0.2728
vn 0.4390 -0.7499 -0.4950
vn -0.4859 -0.6543 -0.5795
vn -0.5274 -0.6735 -0.5179
usemtl Material.005
f 1/1/1 2/2/1 3/3/1
f 1/4/2 3/5/2 4/6/2
f 1/4/3 5/7/4 6/8/5
f 1/4/3 4/6/6 5/7/4
f 2/2/7 1/1/7 6/9/7
f 2/2/8 7/10/8 8/11/8
f 7/10/9 2/2/9 9/12/9
f 3/3/10 2/2/10 8/11/10
f 9/12/11 2/2/11 6/9/11
f 9/12/12 6/9/12 10/13/12
f 9/12/13 10/13/13 11/14/13
f 7/10/14 9/12/14 12/15/14
f 12/15/15 9/12/15 11/14/15
f 11/16/16 13/17/16 14/18/16
f 10/19/17 13/17/17 11/16/17
f 12/15/18 11/14/18 15/20/18
f 11/16/19 14/18/19 15/20/19
f 15/20/20 14/18/20 16/21/20
f 13/17/21 17/22/21 14/18/21
f 14/18/22 17/22/22 18/23/22
f 16/21/23 14/18/23 18/23/23
f 17/22/24 19/24/24 18/23/24
f 18/23/25 19/24/25 20/25/25
f 16/21/26 18/23/26 21/26/26
f 18/23/27 20/25/27 21/26/27
f 22/27/28 23/28/28 21/26/28
f 23/28/29 16/21/29 21/26/29
f 20/25/30 22/27/30 21/26/30
f 20/25/31 24/29/31 22/27/31
f 22/27/32 25/30/32 23/28/32
f 24/29/33 26/31/33 22/27/33
f 26/31/34 25/30/34 22/27/34
f 27/32/35 25/30/35 26/31/35
f 28/33/36 26/31/36 24/29/36
f 28/33/37 27/32/37 26/31/37
f 29/34/38 30/35/38 27/32/38
f 28/33/39 29/34/39 27/32/39
f 30/35/40 31/36/40 27/32/40
f 27/32/41 31/36/41 25/30/41
f 30/35/42 8/37/42 31/36/42
f 31/36/43 8/37/43 32/38/43
f 31/36/44 32/38/44 33/39/44
f 31/36/45 33/39/45 25/30/45
f 33/39/46 34/40/46 23/28/46
f 32/38/47 34/40/47 33/39/47
f 25/30/48 33/39/48 23/28/48
f 32/41/49 12/15/49 34/40/49
f 23/28/50 34/40/50 16/21/50
f 34/40/51 15/20/51 16/21/51
f 12/15/52 15/20/52 34/40/52
f 8/11/53 7/10/53 32/41/53
f 7/10/54 12/15/54 32/41/54
f 3/42/55 8/37/55 30/35/55
f 3/42/56 30/35/56 29/34/56
f 35/43/57 29/44/57 28/33/57
f 4/6/58 3/5/58 29/44/58
f 4/6/59 29/44/59 35/43/59
f 35/43/60 28/33/60 36/45/60
f 37/46/61 35/43/61 36/45/61
f 4/6/62 35/43/62 37/46/62
f 36/45/63 28/33/63 24/29/63
f 38/47/64 37/46/64 36/45/64
f 38/47/65 36/45/65 39/48/65
f 36/45/66 24/29/66 39/48/66
f 19/24/67 39/48/67 20/25/67
f 38/47/68 39/48/68 19/24/68
f 39/48/69 24/29/69 20/25/69
f 40/49/70 37/46/70 38/47/70
f 40/49/71 38/47/71 41/50/71
f 41/50/72 38/47/72 19/24/72
f 13/17/73 42/51/73 41/50/73
f 13/17/74 41/50/74 17/22/74
f 41/50/75 19/24/75 17/22/75
f 42/52/76 40/49/76 41/50/76
f 5/7/77 40/49/77 42/52/77
f 6/8/78 5/7/78 42/52/78
f 6/8/79 42/52/79 10/53/79
f 10/19/80 42/51/80 13/17/80
f 5/7/81 37/46/81 40/49/81
f 5/7/82 4/6/82 37/46/82
