mtllib LOW_POLY_set.mtl
o lp_tree3_Icosphere_003_tree3_Icosphere_010
v -3.140933 11.690308 -38.068130
v -2.948951 12.006636 -39.533062
v -2.290047 11.017125 -38.760933
v -1.407044 10.256076 -37.691837
v -2.716060 11.148290 -36.362209
v -4.654765 11.822762 -36.869411
v -3.987021 11.929435 -35.526314
v -2.302346 11.693602 -35.039474
v -1.044242 10.390111 -35.755821
v -3.155010 12.568680 -34.525452
v -1.183072 12.021962 -34.480427
v -2.230625 13.194708 -34.550030
v 0.102821 11.166547 -35.728031
v -0.509840 12.741857 -34.868969
v 0.178445 12.848409 -36.382233
v -0.262335 10.395580 -37.093723
v 0.319840 11.614189 -37.740673
v -0.535823 11.348064 -39.184803
v -0.680386 13.105086 -39.846405
v -0.066403 13.367659 -38.085281
v -1.886603 12.580091 -40.894798
v -1.720017 11.409019 -39.717339
v -1.400017 13.935841 -35.482826
v -9.295754 8.305594 -35.038437
v -8.212711 9.049646 -34.154793
v -9.361826 8.644548 -34.041126
v -10.793696 8.500866 -34.123627
v -9.760136 8.918491 -37.655552
v -10.957182 8.429373 -36.570782
v -11.251928 9.535950 -37.625008
v -6.457222 9.248526 -36.674244
v -7.793640 9.029305 -37.352760
v -6.861002 9.698410 -37.678120
v -8.407999 10.103012 -32.690464
v -8.724129 10.789956 -32.745125
v -10.040735 10.175304 -33.347786
v -11.375056 8.951046 -34.280560
v -11.351045 10.649977 -34.493988
v -11.934314 9.579632 -35.497952
v -10.444351 10.433474 -38.080269
v -5.841490 10.053484 -36.349327
v -9.734859 11.863464 -33.651337
v -8.128128 12.021893 -33.119602
v -9.463172 12.560605 -33.736263
v -5.935158 10.047965 -37.116943
v -5.674437 10.837866 -36.215496
v -6.196370 10.518591 -37.184116
v -11.961386 10.650179 -36.798584
v -11.728346 10.943693 -35.389404
v -10.545097 11.113684 -34.045677
v -10.688880 11.952574 -34.323761
v -9.685770 11.017786 -33.196522
v -6.186094 10.281086 -33.896259
v -5.497416 11.571348 -33.528008
v -6.682471 10.773758 -33.115086
v -5.264091 11.381850 -34.757828
v -8.054641 9.456898 -38.215958
v -8.211572 9.898956 -38.271770
v -12.057961 9.065968 -36.740883
v -11.671717 8.689657 -36.864666
v -11.802540 8.517887 -35.686012
v -10.836937 10.045782 -33.749378
v -10.398767 9.192972 -33.647045
v -6.974573 10.226330 -33.012203
v -7.588424 9.727196 -33.127285
v -6.369116 9.697535 -35.216206
v -7.073023 9.099697 -35.744961
v -7.738687 8.975496 -35.001354
v -7.950052 8.636679 -36.403240
v -9.269993 8.454107 -36.694752
v -10.538578 8.116957 -35.437111
v -11.290741 8.280758 -34.917480
v -8.551183 9.222207 -33.415623
v -7.373890 9.441799 -34.091629
v -7.376860 11.411070 -42.638496
v -8.896094 11.471056 -41.983047
v -8.605122 13.624447 -42.545418
v -6.552977 12.110505 -32.802757
v -5.095984 12.395393 -32.473667
v -6.156708 13.185627 -32.175838
v -11.995832 12.006857 -36.863548
v -11.856415 12.936389 -35.831814
v -12.221332 12.631894 -37.205456
v -6.490415 12.738132 -43.169094
v -0.852705 14.495700 -40.060318
v -0.900471 15.729978 -40.168545
v 0.085455 15.341372 -38.929741
v -1.547231 15.066489 -34.463604
v -0.722305 16.027229 -35.034805
v -2.332677 15.751966 -33.587841
v -8.332637 12.995452 -33.080132
v -10.219518 17.902344 -39.954193
v -9.633125 18.127132 -38.854668
v -9.001475 19.737196 -39.026836
v -4.329465 18.947842 -41.240631
v -5.865330 19.355785 -41.538197
v -4.679779 20.122084 -40.096779
v -1.584379 18.576933 -37.087994
v -2.291768 18.986300 -38.612476
v -2.282125 19.465040 -37.069138
v -5.497906 17.798914 -33.578632
v -4.623082 18.670334 -33.744499
v -6.074233 18.958294 -34.292770
v -7.575515 19.587021 -36.456413
v -6.292677 19.889072 -35.833244
v -5.553868 20.873133 -37.253132
v -9.106696 17.569740 -35.435593
v -8.105393 18.274666 -35.229042
v -5.145705 20.271191 -36.133656
v -7.203030 18.828636 -34.884113
v -9.567885 16.676285 -34.153904
v -8.191652 17.391571 -34.206055
v -6.900989 17.825377 -34.092896
v -4.912671 19.500462 -34.669064
v -3.499187 19.795782 -35.960728
v -3.594189 18.981646 -34.646851
v -2.389921 18.939392 -35.935478
v -4.767646 20.971546 -38.032185
v -2.932948 19.945272 -38.106136
v -6.012464 21.056999 -38.160816
v -5.341995 20.956635 -38.941292
v -3.583098 19.107620 -39.876728
v -6.280737 20.565971 -39.873985
v -7.687114 20.361517 -39.379963
v -8.235423 19.252089 -40.899696
v -9.701968 18.622438 -40.488686
v -8.685995 19.824497 -37.980896
v -6.818827 20.523876 -37.467445
v -8.750289 18.801569 -36.913246
v -9.745111 17.613623 -37.481422
v -10.540533 16.749142 -35.569370
v -7.934391 14.331245 -32.816746
v -9.641042 14.287153 -33.093311
v -9.139381 15.845469 -33.353363
v -7.465228 16.115416 -33.463112
v -5.765005 14.813064 -32.414043
v -5.650357 16.016268 -33.294498
v -4.228529 16.911491 -33.251537
v -2.144720 17.182848 -34.051208
v -3.756779 18.055258 -33.888062
v -2.390429 18.205952 -34.887463
v -1.034719 17.531788 -35.213806
v -1.196671 18.102825 -36.229645
v -0.603400 17.922926 -37.687695
v 0.019326 17.086496 -37.865051
v -1.042698 18.244442 -38.696972
v -0.666098 17.382168 -39.287189
v -2.339870 18.507736 -39.724449
v -1.959394 17.317934 -40.574226
v -3.453655 18.017925 -40.881271
v -4.752104 17.205904 -42.379253
v -5.823275 14.874989 -43.372532
v -7.221895 17.472788 -41.904747
v -7.696518 14.860691 -42.513336
v -9.526628 17.079834 -41.933109
v -10.337875 14.061740 -42.229588
v -11.035427 16.344461 -41.130451
v -11.779304 16.055164 -39.769436
v -12.432600 13.671704 -38.465427
v -11.730648 15.916347 -38.253822
v -11.779907 13.718007 -36.626724
v -11.110379 15.802023 -36.265633
v -11.931931 14.184805 -35.009094
v -11.147112 15.400415 -34.304607
v -4.379619 15.557725 -32.545120
v -4.619338 13.851367 -32.120567
v -3.495881 14.866164 -32.656887
v -3.819158 13.115047 -32.870987
v -2.976661 14.275018 -33.432384
v 0.013837 15.636232 -36.479057
v 0.228896 14.885957 -37.660393
v -0.536917 14.058190 -36.666367
v -0.410951 14.010867 -38.017265
v -3.247226 16.096151 -42.570030
v -1.815811 15.295411 -41.715919
v -4.185032 13.797565 -43.527519
v -2.459704 12.834005 -42.653606
v -5.002242 11.647017 -43.270485
v -11.779976 13.827120 -40.703598
v -10.812145 12.231959 -41.597275
v -12.481956 12.545348 -39.432045
v -10.506723 10.515605 -40.094521
v -11.087502 14.200503 -33.694038
v -11.616143 13.054880 -34.644508
v -10.382935 13.112357 -33.657791
v -4.435113 12.124352 -33.232674
v -3.951651 12.245616 -34.382019
v -2.640829 13.983853 -34.410732
v -3.528128 11.037040 -42.468323
v -4.590408 11.126107 -39.714756
v -5.258398 10.646146 -41.102051
v -2.985632 11.637655 -40.849983
v -6.201539 10.618587 -42.098892
v -7.706879 10.294118 -40.898746
v -7.268527 10.550207 -39.443348
v -10.363603 10.454026 -38.819759
v -6.181141 11.566670 -37.807323
v -3.583702 12.061096 -38.659393
v -4.823003 11.862728 -37.920681
v -2.628700 13.529791 -34.808777
v -1.180553 13.673318 -40.070690
v -10.720711 12.418783 -34.647747
v -10.080557 12.436191 -34.146973
v -8.237167 12.481116 -33.438217
v -6.564358 11.458044 -36.515152
v -5.827698 11.580053 -35.736439
v -7.533842 11.203557 -37.356621
v -8.177313 10.712826 -37.884247
v -11.511236 11.429323 -36.886971
v -11.501062 11.856678 -36.007877
v -11.292199 12.108356 -35.390953
v -6.587686 11.775474 -33.270157
vt 0.842643 0.814010
vt 0.842757 0.813678
vt 0.842965 0.813968
vt 0.843108 0.814252
vt 0.842697 0.814446
vt 0.842263 0.814212
vt 0.842823 0.815479
vt 0.842805 0.815064
vt 0.843146 0.815168
vt 0.843091 0.814683
vt 0.842307 0.814523
vt 0.843173 0.815479
vt 0.843422 0.815066
vt 0.843433 0.815451
vt 0.843384 0.814671
vt 0.843658 0.815010
vt 0.843766 0.814611
vt 0.843262 0.814413
vt 0.843514 0.814297
vt 0.843407 0.813909
vt 0.843968 0.813682
vt 0.843997 0.814228
vt 0.843238 0.813057
vt 0.843794 0.813217
vt 0.843313 0.813524
vt 0.843128 0.813746
vt 0.844010 0.815394
vt 0.844127 0.815003
vt 0.844842 0.798372
vt 0.845187 0.798614
vt 0.844854 0.798623
vt 0.844497 0.798620
vt 0.844697 0.797786
vt 0.844448 0.798058
vt 0.844335 0.797678
vt 0.845486 0.797895
vt 0.845156 0.797795
vt 0.845377 0.797638
vt 0.845214 0.799075
vt 0.845122 0.799322
vt 0.844656 0.799132
vt 0.844377 0.798601
vt 0.843996 0.798775
vt 0.844098 0.798392
vt 0.844449 0.797385
vt 0.845753 0.797901
vt 0.844706 0.799710
vt 0.845283 0.799787
vt 0.844770 0.799942
vt 0.845671 0.797667
vt 0.845999 0.797913
vt 0.845820 0.797618
vt 0.845684 0.797506
vt 0.843897 0.797559
vt 0.843817 0.798594
vt 0.843680 0.798198
vt 0.844401 0.799483
vt 0.844339 0.799785
vt 0.844821 0.799413
vt 0.845877 0.798631
vt 0.846300 0.798743
vt 0.845937 0.798970
vt 0.846307 0.798374
vt 0.845117 0.797597
vt 0.845060 0.797525
vt 0.844118 0.798021
vt 0.844269 0.798007
vt 0.844305 0.798278
vt 0.843936 0.799038
vt 0.843668 0.799052
vt 0.844253 0.798922
vt 0.844413 0.799100
vt 0.844525 0.798818
vt 0.845658 0.798987
vt 0.845431 0.798953
vt 0.845700 0.798275
vt 0.845392 0.798155
vt 0.845286 0.798392
vt 0.845121 0.798034
vt 0.844816 0.797985
vt 0.844563 0.798309
vt 0.844431 0.798434
vt 0.845073 0.798846
vt 0.845478 0.798657
vt 0.840154 0.810481
vt 0.840155 0.810526
vt 0.840081 0.810517
vt 0.839365 0.810897
vt 0.839287 0.810829
vt 0.839364 0.810799
vt 0.840022 0.810742
vt 0.839985 0.810766
vt 0.840010 0.810722
vt 0.840120 0.810457
vt 0.840126 0.810280
vt 0.840091 0.810274
vt 0.840118 0.810230
vt 0.839399 0.810242
vt 0.839466 0.810200
vt 0.839423 0.810321
vt 0.839511 0.810891
vt 0.839921 0.810546
vt 0.839881 0.810551
vt 0.839869 0.810501
vt 0.839960 0.810350
vt 0.839942 0.810396
vt 0.839896 0.810337
vt 0.839668 0.810205
vt 0.839783 0.810201
vt 0.839705 0.810259
vt 0.839580 0.810481
vt 0.839602 0.810425
vt 0.839652 0.810478
vt 0.839769 0.810497
vt 0.839731 0.810449
vt 0.839783 0.810398
vt 0.839754 0.810625
vt 0.839723 0.810566
vt 0.839729 0.810401
vt 0.839697 0.810517
vt 0.839701 0.810699
vt 0.839668 0.810613
vt 0.839638 0.810545
vt 0.839652 0.810420
vt 0.839676 0.810334
vt 0.839620 0.810366
vt 0.839646 0.810283
vt 0.839805 0.810365
vt 0.839759 0.810263
vt 0.839809 0.810399
vt 0.839841 0.810384
vt 0.839886 0.810246
vt 0.839945 0.810299
vt 0.839876 0.810403
vt 0.839864 0.810450
vt 0.839922 0.810471
vt 0.839923 0.810518
vt 0.839838 0.810504
vt 0.839796 0.810439
vt 0.839804 0.810543
vt 0.839850 0.810591
vt 0.839818 0.810702
vt 0.839521 0.810788
vt 0.839628 0.810830
vt 0.839639 0.810722
vt 0.839566 0.810648
vt 0.839387 0.810684
vt 0.839390 0.810577
vt 0.839484 0.810546
vt 0.839507 0.810442
vt 0.839511 0.810305
vt 0.839566 0.810396
vt 0.839583 0.810305
vt 0.839548 0.810233
vt 0.839608 0.810213
vt 0.839643 0.810118
vt 0.839621 0.810062
vt 0.839724 0.810112
vt 0.839548 0.809917
vt 0.839718 0.810026
vt 0.839845 0.810154
vt 0.840044 0.810230
vt 0.840028 0.810286
vt 0.839984 0.810268
vt 0.839989 0.810321
vt 0.840018 0.810384
vt 0.840073 0.810433
vt 0.839982 0.810451
vt 0.840057 0.810482
vt 0.839979 0.810516
vt 0.840053 0.810566
vt 0.839978 0.810565
vt 0.839963 0.810604
vt 0.839998 0.810676
vt 0.839938 0.810637
vt 0.839963 0.810733
vt 0.839879 0.810692
vt 0.839841 0.810983
vt 0.839800 0.810891
vt 0.839905 0.810932
vt 0.839885 0.810762
vt 0.839757 0.810810
vt 0.839419 0.810465
vt 0.839286 0.810723
vt 0.839293 0.810515
vt 0.839360 0.810414
vt 0.839211 0.810769
vt 0.839229 0.810441
vt 0.839308 0.810355
vt 0.839473 0.810099
vt 0.839471 0.809994
vt 0.839366 0.810034
vt 0.839391 0.809954
vt 0.840176 0.810231
vt 0.840058 0.810358
vt 0.840087 0.810321
vt 0.840101 0.810403
vt 0.840134 0.810370
vt 0.840141 0.810426
vt 0.840026 0.810615
vt 0.840080 0.810609
vt 0.840030 0.810661
vt 0.840132 0.810585
vt 0.840114 0.810664
vt 0.839712 0.810872
vt 0.839762 0.810957
vt 0.839659 0.810932
vt 0.839224 0.810854
vt 0.839135 0.810890
vt 0.839284 0.810257
vt 0.840159 0.810399
vt 0.840219 0.810399
vt 0.840194 0.810426
vt 0.840182 0.810367
vt 0.840176 0.810449
vt 0.840205 0.810485
vt 0.840245 0.810469
vt 0.840191 0.810621
vt 0.840204 0.810668
vt 0.840108 0.810702
vt 0.840286 0.810424
vt 0.840215 0.810352
vt 0.840256 0.810345
vt 0.840241 0.810360
vt 0.840298 0.810377
vt 0.840275 0.810387
vt 0.843427 0.815581
vt 0.844106 0.813512
vt 0.844148 0.815384
vt 0.844104 0.814584
vt 0.844138 0.814307
vt 0.844148 0.813604
vt 0.844314 0.799921
vt 0.844539 0.799904
vt 0.845170 0.799950
vt 0.846288 0.797643
vt 0.846307 0.797971
vt 0.845679 0.797092
vt 0.845267 0.797166
vt 0.845064 0.797254
vt 0.843935 0.797285
vt 0.843664 0.797126
vt 0.843482 0.798611
vt 0.843504 0.798758
vt 0.843549 0.799043
vt 0.845744 0.799782
vt 0.846304 0.799086
vt 0.840026 0.810776
vt 0.840053 0.810746
vt 0.840017 0.810795
vt 0.839779 0.811045
vt 0.839698 0.811014
vt 0.839637 0.810998
vt 0.839587 0.810960
vt 0.839496 0.810929
vt 0.839357 0.810929
vt 0.839278 0.810922
vt 0.839102 0.810962
vt 0.839207 0.810963
vt 0.839099 0.810857
vt 0.839169 0.810295
vt 0.839249 0.810245
vt 0.839325 0.810152
vt 0.840146 0.810301
vt 0.840162 0.810336
vt 0.839195 0.811054
vt 0.839072 0.811057
vt 0.840200 0.810738
vt 0.840249 0.810724
vt 0.840238 0.810767
vt 0.840298 0.810750
vt 0.840261 0.810790
vt 0.840180 0.810723
vt 0.840105 0.810718
vn -0.7138 -0.6594 -0.2359
vn -0.6228 -0.7770 -0.0918
vn -0.2651 -0.9360 -0.2314
vn -0.2468 -0.8663 0.4343
vn -0.4996 -0.7346 0.4591
vn -0.4519 -0.8801 0.1456
vn -0.3770 -0.8895 0.2581
vn -0.2900 -0.6788 0.6746
vn -0.1916 -0.6292 0.7532
vn -0.0085 0.0517 0.9986
vn -0.2012 -0.6138 0.7634
vn 0.6243 -0.1727 0.7619
vn 0.2444 0.2735 0.9303
vn 0.3581 -0.5559 0.7502
vn 0.9002 0.1221 0.4180
vn 0.5286 -0.7919 0.3057
vn 0.9026 -0.4304 0.0016
vn 0.9943 -0.0033 0.1065
vn 0.7598 -0.5484 -0.3492
vn 0.9288 0.1369 -0.3442
vn 0.9767 0.1995 -0.0796
vn 0.8638 -0.1138 -0.4908
vn 0.3258 -0.8436 -0.4269
vn -0.4187 -0.6728 -0.6099
vn 0.6913 -0.2041 -0.6931
vn 0.0426 -0.8654 -0.4992
vn 0.2959 0.6019 0.7417
vn 0.6580 0.6686 0.3464
vn 0.0944 -0.9942 0.0511
vn 0.3429 -0.8822 0.3226
vn 0.0758 -0.9425 0.3254
vn -0.3024 -0.6985 -0.6486
vn 0.3820 -0.7763 -0.5015
vn 0.3824 -0.7765 -0.5009
vn 0.3824 -0.7766 -0.5007
vn -0.3754 -0.0994 0.9215
vn -0.8927 0.0686 0.4455
vn -0.1562 -0.3314 -0.9305
vn 0.7765 -0.3962 -0.4899
vn -0.3262 0.2386 0.9147
vn 0.9752 -0.1876 -0.1176
vn 0.7707 0.3519 -0.5313
vn 0.3735 -0.9268 -0.0389
vn 0.4743 0.1392 -0.8693
vn -0.6214 0.1714 -0.7645
vn -0.9814 0.1376 0.1337
vn -0.9040 0.1035 0.4149
vn -0.5562 0.1741 0.8126
vn -0.5564 0.1740 0.8125
vn -0.5539 0.1749 0.8140
vn -0.6846 0.1608 0.7110
vn -0.6437 0.3332 0.6890
vn -0.2943 0.4394 0.8487
vn -0.3225 0.4147 0.8509
vn -0.4220 0.0150 0.9065
vn 0.5620 -0.4901 0.6662
vn 0.8279 -0.5091 0.2355
vn 0.4058 0.0287 -0.9135
vn -0.1240 -0.1675 -0.9780
vn 0.3826 -0.7767 -0.5004
vn 0.1229 -0.8684 -0.4805
vn 0.1218 -0.8734 -0.4716
vn 0.1216 -0.8743 -0.4699
vn -0.1930 -0.3447 -0.9186
vn -0.7444 0.0211 -0.6674
vn -0.9953 0.0633 0.0728
vn -0.5851 -0.3618 -0.7258
vn 0.0519 -0.6816 -0.7299
vn -0.2755 -0.9464 -0.1685
vn -0.7154 -0.6757 -0.1779
vn -0.9760 -0.1493 0.1588
vn -0.9258 -0.1743 0.3353
vn -0.5536 0.1750 0.8142
vn -0.6035 0.3620 0.7104
vn -0.4665 0.3526 0.8112
vn -0.7848 0.0882 0.6134
vn -0.5091 -0.1601 0.8457
vn -0.4324 -0.1149 0.8943
vn -0.3751 -0.1423 0.9160
vn 0.1760 0.2074 0.9623
vn 0.1773 0.1589 0.9713
vn 0.2128 0.0696 0.9746
vn 0.7270 -0.2692 0.6317
vn 0.2313 -0.4796 0.8465
vn 0.5234 -0.7408 0.4210
vn 0.9633 -0.1697 -0.2079
vn 0.8101 -0.5694 0.1394
vn 0.7963 -0.5742 0.1904
vn 0.7548 -0.6383 0.1510
vn 0.1804 -0.9829 -0.0378
vn 0.3588 -0.9182 0.1678
vn 0.5824 -0.7806 -0.2268
vn 0.0853 -0.9713 0.2219
vn 0.2030 -0.9162 -0.3454
vn 0.1231 -0.8674 -0.4821
vn 0.3956 -0.9153 -0.0759
vn -0.0182 -0.9038 -0.4276
vn 0.1762 -0.9807 -0.0852
vn -0.0052 -0.9645 -0.2639
vn -0.3059 -0.9407 -0.1463
vn -0.2421 -0.9608 -0.1352
vn 0.0522 -0.9558 0.2895
vn -0.0176 -0.9606 0.2774
vn -0.7957 -0.4668 0.3859
vn -0.6016 -0.5887 0.5399
vn -0.4629 -0.3081 0.8311
vn 0.0100 -0.5710 0.8209
vn -0.0808 -0.6779 0.7307
vn -0.0873 -0.6247 0.7760
vn 0.5301 -0.8189 0.2201
vn 0.5219 -0.8046 0.2833
vn 0.5028 -0.8237 0.2619
vn 0.4486 -0.8555 0.2586
vn 0.3867 -0.8744 0.2931
vn 0.3729 -0.8826 0.2861
vn 0.1097 -0.6423 0.7585
vn 0.3417 -0.8685 0.3592
vn 0.3707 -0.8524 0.3688
vn 0.3561 -0.8715 0.3371
vn 0.5027 -0.7921 0.3463
vn -0.3956 -0.1817 -0.9003
vn -0.1055 -0.4716 0.8755
vn -0.9399 -0.1806 0.2897
vn -0.3361 -0.1474 -0.9302
vn 0.7784 -0.0249 -0.6273
vn 0.6749 -0.1499 0.7226
vn -0.3256 -0.3839 0.8641
vn -0.8482 0.3730 0.3761
vn 0.3110 0.7092 -0.6328
vn 0.7695 0.6086 -0.1936
vn 0.7692 0.6090 -0.1936
vn 0.7650 0.6138 -0.1951
vn -0.2481 0.4156 0.8750
vn -0.3838 0.8404 0.3827
vn -0.5705 0.6720 0.4722
vn -0.1488 0.8473 0.5098
vn -0.4381 0.7020 0.5615
vn -0.5792 0.7603 0.2940
vn -0.3610 0.7746 0.5192
vn -0.5893 0.7467 0.3085
vn -0.3531 0.7227 0.5941
vn -0.5837 0.6383 0.5018
vn -0.2547 0.5504 0.7951
vn -0.4522 0.4644 0.7615
vn -0.3118 0.3811 0.8704
vn -0.2131 0.8226 0.5272
vn 0.2151 0.8907 0.4005
vn -0.1617 0.8625 0.4796
vn 0.2086 0.8788 0.4292
vn -0.1151 0.7209 0.6834
vn 0.2875 0.7557 0.5885
vn 0.3058 0.7993 0.5174
vn 0.5314 0.7023 0.4736
vn 0.5565 0.7323 0.3925
vn 0.7435 0.5769 0.3382
vn 0.2449 0.8999 0.3608
vn 0.3980 0.9019 0.1679
vn 0.0495 0.9835 0.1742
vn 0.0749 0.9952 -0.0636
vn 0.4853 0.8540 0.1876
vn 0.4561 0.8372 -0.3019
vn 0.4605 0.8236 -0.3310
vn 0.7645 0.6143 -0.1953
vn 0.5633 0.6476 -0.5132
vn 0.6376 0.5791 -0.5081
vn 0.6576 0.6171 -0.4321
vn 0.1617 0.8417 -0.5152
vn -0.1488 0.9565 -0.2509
vn -0.2207 0.9462 -0.2366
vn -0.4165 0.9075 0.0544
vn -0.4164 0.9076 0.0537
vn -0.4159 0.9079 0.0520
vn 0.1490 0.8171 -0.5570
vn -0.1975 0.7687 -0.6083
vn -0.2923 0.8196 -0.4928
vn -0.4545 0.7895 -0.4124
vn -0.4781 0.7937 -0.3762
vn -0.8240 0.5654 -0.0363
vn -0.4154 0.9083 0.0495
vn -0.3030 0.8926 0.3339
vn -0.3081 0.8017 0.5122
vn -0.3954 0.8906 0.2249
vn -0.4193 0.6680 0.6148
vn -0.6035 0.7572 0.2500
vn -0.6117 0.6739 0.4143
vn -0.8951 0.3767 0.2385
vn -0.8893 0.4474 0.0948
vn -0.7877 0.4679 0.4009
vn -0.7609 0.6484 -0.0234
vn -0.4653 0.7319 0.4979
vn -0.4866 0.7891 0.3750
vn -0.1545 -0.1466 0.9771
vn -0.2772 0.5887 0.7593
vn -0.1617 0.2128 0.9636
vn 0.0070 0.3390 0.9408
vn -0.0226 0.4934 0.8695
vn -0.2122 0.3986 0.8922
vn -0.3777 -0.0695 0.9233
vn -0.2203 0.1930 0.9561
vn -0.2507 0.3873 0.8872
vn -0.0424 0.5926 0.8044
vn -0.0664 0.3641 0.9290
vn -0.3358 0.1762 0.9253
vn -0.0706 0.2545 0.9645
vn 0.3175 0.2541 0.9136
vn 0.3761 0.3273 0.8669
vn 0.4718 0.5078 0.7207
vn 0.4770 0.5054 0.7190
vn 0.4777 0.5050 0.7189
vn 0.2902 0.3712 0.8821
vn 0.4096 0.6343 0.6557
vn 0.4714 0.5079 0.7210
vn 0.5405 0.6892 0.4826
vn 0.6450 0.1574 0.7478
vn 0.6706 0.2234 0.7073
vn 0.4622 0.6251 0.6290
vn 0.4835 0.7937 0.3691
vn 0.5820 0.6661 0.4665
vn 0.5933 0.7875 0.1670
vn 0.5432 0.8392 -0.0267
vn 0.7788 0.6104 -0.1445
vn 0.8895 0.2620 -0.3742
vn 0.5125 0.8572 0.0500
vn 0.7987 0.5360 -0.2735
vn 0.5605 0.6203 -0.5486
vn 0.4562 0.8101 -0.3684
vn 0.4400 0.8178 -0.3710
vn 0.7963 0.1929 -0.5733
vn 0.6719 0.2721 -0.6888
vn 0.5523 0.5942 -0.5847
vn 0.4239 0.6122 -0.6674
vn 0.3927 0.6481 -0.6525
vn 0.7286 0.5091 -0.4583
vn 0.2872 0.4743 -0.8322
vn -0.1240 0.4367 -0.8910
vn -0.4168 0.0437 -0.9080
vn -0.1499 0.2919 -0.9446
vn -0.2573 0.3600 -0.8968
vn -0.4024 0.2765 -0.8727
vn -0.0275 0.2316 -0.9724
vn -0.0677 0.4612 -0.8847
vn -0.4419 0.5859 -0.6793
vn -0.2088 0.1784 -0.9615
vn -0.1453 0.1323 -0.9805
vn -0.1454 0.1327 -0.9804
vn -0.1463 0.1356 -0.9799
vn -0.5408 0.2250 -0.8105
vn -0.5846 0.5181 -0.6243
vn -0.8440 0.5250 -0.1099
vn -0.7257 0.6384 0.2565
vn -0.9544 0.2930 0.0575
vn -0.9243 0.2036 0.3230
vn -0.7108 0.6980 0.0868
vn -0.6810 0.7024 0.2071
vn -0.9131 0.2556 0.3177
vn -0.9217 0.2439 0.3016
vn -0.6836 0.6847 0.2526
vn -0.8232 0.5607 -0.0890
vn -0.9408 0.2826 0.1873
vn -0.9956 0.0018 -0.0941
vn -0.9265 0.3292 -0.1821
vn -0.8592 0.5042 0.0872
vn -0.8790 0.4702 0.0798
vn -0.5894 0.6776 0.4399
vn -0.1348 0.1672 0.9767
vn -0.2429 0.5878 0.7717
vn -0.1086 0.1695 0.9795
vn -0.3185 0.4662 0.8253
vn -0.0410 0.2467 0.9682
vn 0.2726 0.1961 0.9419
vn 0.4071 0.3864 0.8276
vn 0.3827 0.3817 0.8413
vn 0.0775 -0.2589 0.9628
vn 0.4514 -0.3471 0.8220
vn 0.5646 -0.2021 0.8003
vn 0.7284 -0.2140 0.6509
vn 0.7116 -0.2408 0.6600
vn 0.6444 -0.2034 0.7371
vn 0.6112 0.7766 0.1529
vn 0.7774 0.5931 0.2095
vn 0.8003 0.5409 0.2589
vn 0.9171 0.2292 0.3261
vn 0.8730 0.3352 0.3542
vn 0.9929 0.0870 -0.0810
vn 0.7761 -0.3575 0.5196
vn 0.8263 -0.3415 0.4478
vn 0.7848 -0.6124 0.0946
vn 0.8264 -0.4939 -0.2706
vn 0.8110 -0.5051 -0.2952
vn 0.6264 0.3143 -0.7133
vn 0.4264 0.6225 -0.6562
vn 0.7539 0.3628 -0.5478
vn 0.3814 0.6330 -0.6737
vn 0.1316 0.3350 -0.9330
vn 0.1306 0.3370 -0.9324
vn 0.1305 0.3373 -0.9323
vn 0.6262 0.4165 -0.6591
vn 0.5560 0.1160 -0.8230
vn 0.1319 0.3348 -0.9330
vn -0.1292 -0.0539 -0.9902
vn 0.8620 -0.0111 -0.5068
vn 0.8579 -0.0290 -0.5130
vn 0.5228 0.1806 -0.8331
vn 0.3315 -0.2352 -0.9137
vn -0.1206 -0.0725 -0.9900
vn -0.2296 -0.2252 -0.9469
vn -0.7471 0.6028 -0.2802
vn -0.7308 0.1017 -0.6750
vn -0.2367 -0.2620 -0.9356
vn -0.8784 0.1851 -0.4407
vn -0.9559 0.1138 -0.2708
vn -0.7219 -0.0514 -0.6901
vn -0.7933 -0.1508 -0.5899
vn -0.9320 0.2587 -0.2538
vn -0.9913 -0.0581 0.1183
vn -0.2720 -0.2086 -0.9394
vn -0.3886 -0.6451 -0.6578
vn -0.7052 -0.5340 -0.4665
vn -0.7182 -0.6957 -0.0099
vn -0.9531 -0.2769 0.1223
vn -0.4602 0.4815 0.7460
vn -0.8209 0.2261 0.5244
vn -0.9566 -0.1985 0.2134
vn -0.4635 0.3835 0.7988
vn -0.3830 0.2707 0.8832
vn -0.8396 -0.0605 0.5398
vn -0.5757 -0.3481 0.7398
vn -0.3648 -0.2059 0.9080
vn -0.2754 -0.2695 0.9228
vn 0.5166 -0.5582 0.6492
vn 0.7728 -0.5770 0.2642
vn 0.8223 -0.4026 0.4021
vn 0.6507 -0.6372 0.4130
vn 0.3558 -0.3027 -0.8841
vn 0.3841 -0.9139 0.1312
vn 0.3711 -0.9043 0.2112
vn 0.1342 -0.9859 -0.0999
vn 0.1388 -0.9848 -0.1043
vn 0.1396 -0.9846 -0.1049
vn 0.0315 -0.7669 -0.6410
vn -0.1252 -0.6785 -0.7238
vn -0.2720 -0.7839 -0.5582
vn -0.2720 -0.7839 -0.5581
vn -0.2719 -0.7836 -0.5586
vn 0.1335 -0.9861 -0.0991
vn 0.2263 -0.9490 0.2194
vn -0.2726 -0.7863 -0.5545
vn -0.2304 -0.7750 -0.5885
vn 0.1515 -0.9803 0.1269
vn 0.0618 -0.9860 0.1549
vn -0.0896 -0.9952 -0.0380
vn -0.6642 -0.7466 0.0385
vn 0.2274 -0.8900 0.3952
vn 0.2273 -0.8900 0.3952
vn 0.2312 -0.8878 0.3979
vn -0.4106 -0.8787 -0.2435
vn -0.1172 -0.9728 -0.1997
vn -0.2437 0.3946 0.8859
vn 0.5880 0.2092 -0.7813
vn 0.1457 0.7073 0.6917
vn 0.6642 0.5191 0.5380
vn 0.8650 0.4999 0.0436
vn 0.7855 0.5008 -0.3637
vn -0.5325 0.3965 0.7478
vn -0.5689 0.3143 0.7600
vn -0.1667 0.5351 0.8282
vn 0.5763 0.5239 -0.6273
vn 0.5989 0.6068 -0.5227
vn 0.4080 0.6302 -0.6606
vn 0.3443 0.2637 -0.9011
vn 0.3366 0.4487 -0.8279
vn -0.6009 0.2615 -0.7554
vn -0.8555 0.4695 -0.2183
vn -0.9492 0.3003 0.0944
vn -0.9226 0.3457 0.1713
vn -0.8341 0.3130 0.4541
vn -0.8007 0.3289 0.5007
vn 0.1410 0.3066 0.9413
vn 0.2504 0.1249 0.9600
vn 0.4191 0.3759 -0.8265
vn 0.0252 0.4289 -0.9030
vn 0.8207 0.4197 -0.3877
vn 0.2270 -0.8902 0.3949
vn -0.7223 -0.6186 0.3091
vn 0.3879 -0.8417 0.3757
vn -0.8375 -0.3448 0.4239
vn -0.8567 -0.4666 0.2199
vn -0.4541 -0.6423 0.6174
vn -0.4547 -0.6428 0.6165
vn -0.4557 -0.6415 0.6172
vn -0.4582 -0.6469 0.6096
vn -0.3285 -0.6456 0.6894
vn -0.2453 -0.5582 0.7926
vn -0.3885 -0.6564 0.6468
vn 0.0084 -0.7966 0.6044
vn 0.4914 -0.8426 0.2204
vn 0.2733 -0.8056 0.5256
vn 0.4399 -0.8935 0.0908
vn 0.4012 -0.8860 0.2324
vn 0.4047 -0.8075 0.4291
vn 0.8324 -0.3380 0.4390
vn 0.5431 -0.5287 0.6523
vn 0.7683 -0.3705 0.5220
vn 0.8938 -0.3528 -0.2770
vn 0.8834 -0.3334 -0.3292
vn 0.6436 -0.7415 0.1898
vn 0.6512 -0.7564 0.0624
vn 0.7952 -0.5071 -0.3323
vn 0.4400 -0.8678 0.2309
vn 0.2004 -0.9690 -0.1445
vn 0.2578 -0.9662 -0.0048
vn 0.1831 -0.9828 -0.0249
vn 0.2069 -0.9758 -0.0702
vn 0.3621 -0.8754 0.3201
vn 0.0770 -0.9925 0.0945
vn -0.7513 -0.6492 -0.1185
vn -0.6337 -0.7731 -0.0270
vn -0.4305 -0.7157 -0.5499
vn 0.2793 -0.6608 -0.6967
vn 0.9880 0.1046 0.1134
usemtl Material.004
f 1/1/1 2/2/1 3/3/1
f 1/1/2 4/4/2 5/5/2
f 6/6/3 1/1/3 5/5/3
f 7/7/4 5/8/4 8/9/4
f 5/8/5 9/10/5 8/9/5
f 5/5/6 4/4/6 9/10/6
f 7/11/7 6/6/7 5/5/7
f 7/7/8 8/9/8 10/12/8
f 8/9/9 11/13/9 10/12/9
f 10/12/10 11/13/10 12/14/10
f 8/9/11 9/10/11 11/13/11
f 11/13/12 13/15/12 14/16/12
f 11/13/13 14/16/13 12/14/13
f 11/13/14 9/10/14 13/15/14
f 13/15/15 15/17/15 14/16/15
f 9/10/16 16/18/16 13/15/16
f 16/18/17 17/19/17 13/15/17
f 13/15/18 17/19/18 15/17/18
f 16/18/19 18/20/19 17/19/19
f 17/19/20 19/21/20 20/22/20
f 17/19/21 20/22/21 15/17/21
f 17/19/22 18/20/22 19/21/22
f 4/4/23 18/20/23 16/18/23
f 2/23/24 21/24/24 22/25/24
f 18/20/25 21/24/25 19/21/25
f 4/4/26 3/3/26 22/26/26 18/20/26
f 12/27/27 14/16/27 23/28/27
f 14/16/28 15/17/28 23/28/28
f 4/4/29 16/18/29 9/10/29
f 24/29/30 25/30/30 26/31/30
f 24/29/31 26/31/31 27/32/31
f 28/33/32 29/34/32 30/35/32
f 31/36/33 32/37/34 33/38/35
f 34/39/36 35/40/36 36/41/36
f 37/42/37 38/43/37 39/44/37
f 28/33/38 30/35/38 40/45/38
f 31/36/39 33/38/39 41/46/39
f 42/47/40 43/48/40 44/49/40
f 41/46/41 45/50/41 46/51/41
f 46/51/42 45/50/42 47/52/42
f 41/46/43 33/38/43 45/50/43
f 45/50/44 33/38/44 47/53/44
f 30/35/45 48/54/45 40/45/45
f 39/44/46 49/55/46 48/56/46
f 39/44/47 38/43/47 49/55/47
f 50/57/48 42/47/49 51/58/50
f 36/41/51 52/59/51 50/57/51
f 50/57/52 52/59/52 42/47/52
f 52/59/53 35/40/53 42/47/53
f 35/40/54 43/48/54 42/47/54
f 36/41/55 35/40/55 52/59/55
f 53/60/56 54/61/56 55/62/56
f 53/60/57 56/63/57 54/61/57
f 33/38/58 57/64/58 58/65/58
f 58/65/59 57/64/59 40/45/59
f 33/38/35 32/37/34 57/64/60
f 32/37/61 28/33/62 57/64/63
f 57/64/64 28/33/64 40/45/64
f 30/35/65 59/66/65 48/54/65
f 59/66/66 39/44/66 48/56/66
f 30/35/67 60/67/67 59/66/67
f 30/35/68 29/34/68 60/67/68
f 29/34/69 61/68/69 60/67/69
f 60/67/70 61/68/70 59/66/70
f 59/66/71 61/68/71 39/44/71
f 61/68/72 37/42/72 39/44/72
f 38/43/73 50/69/48 51/70/50
f 38/43/74 62/71/74 50/69/74
f 62/72/75 36/41/75 50/57/75
f 38/43/76 37/42/76 62/71/76
f 37/42/77 63/73/77 62/71/77
f 62/72/78 63/73/78 36/41/78
f 63/73/79 34/39/79 36/41/79
f 35/40/80 55/62/80 43/48/80
f 35/40/81 34/39/81 55/62/81
f 34/39/82 64/74/82 55/62/82
f 64/74/83 53/60/83 55/62/83
f 34/39/84 65/75/84 64/74/84
f 64/74/85 65/75/85 53/60/85
f 56/63/86 41/46/86 46/51/86
f 53/60/87 66/76/87 56/63/87
f 56/63/88 66/76/88 41/46/88
f 66/76/89 31/36/89 41/46/89
f 67/77/90 32/37/90 31/36/90
f 68/78/91 69/79/91 67/77/91
f 67/77/92 69/79/92 32/37/92
f 68/78/93 70/80/93 69/79/93
f 69/79/94 70/80/94 32/37/94
f 70/80/95 28/33/62 32/37/61
f 68/78/96 24/29/96 70/80/96
f 70/80/97 29/34/97 28/33/97
f 24/29/98 71/81/98 70/80/98
f 70/80/99 71/81/99 29/34/99
f 71/81/100 72/82/100 29/34/100
f 29/34/101 72/82/101 61/68/101
f 24/29/102 27/32/102 71/81/102
f 71/81/103 27/32/103 72/82/103
f 72/82/104 37/42/104 61/68/104
f 72/82/105 27/32/105 37/42/105
f 27/32/106 63/73/106 37/42/106
f 27/32/107 26/31/107 63/73/107
f 26/31/108 73/83/108 63/73/108
f 73/83/109 34/39/109 63/73/109
f 66/76/110 67/77/110 31/36/110
f 53/60/111 74/84/111 66/76/111
f 66/76/112 74/84/112 67/77/112
f 74/84/113 68/78/113 67/77/113
f 74/84/114 25/30/114 68/78/114
f 25/30/115 24/29/115 68/78/115
f 73/83/116 65/75/116 34/39/116
f 26/31/117 25/30/117 73/83/117
f 25/30/118 74/84/118 73/83/118
f 73/83/119 74/84/119 65/75/119
f 74/84/120 53/60/120 65/75/120
f 75/85/121 76/86/121 77/87/121
f 78/88/122 79/89/122 80/90/122
f 81/91/123 82/92/123 83/93/123
f 75/85/124 77/87/124 84/94/124
f 85/95/125 86/96/125 87/97/125
f 88/98/126 89/99/126 90/100/126
f 78/88/127 80/90/127 91/101/127
f 92/102/128 93/103/128 94/104/128
f 95/105/129 96/106/129 97/107/129
f 98/108/130 99/109/131 100/110/132
f 101/111/133 102/112/133 103/113/133
f 104/114/134 105/115/134 106/116/134
f 107/117/135 108/118/135 104/114/135
f 106/116/136 105/115/136 109/119/136
f 104/114/137 108/118/137 105/115/137
f 108/118/138 110/120/138 105/115/138
f 110/120/139 103/113/139 105/115/139
f 107/117/140 111/121/140 108/118/140
f 111/121/141 112/122/141 108/118/141
f 108/118/142 112/122/142 110/120/142
f 112/122/143 113/123/143 110/120/143
f 110/120/144 113/123/144 103/113/144
f 113/123/145 101/111/145 103/113/145
f 103/113/146 114/124/146 105/115/146
f 109/119/147 115/125/147 106/116/147
f 105/115/148 114/124/148 109/119/148
f 114/124/149 115/125/149 109/119/149
f 103/113/150 102/112/150 114/124/150
f 102/112/151 116/126/151 114/124/151
f 114/124/152 116/126/152 115/125/152
f 116/126/153 117/127/153 115/125/153
f 115/125/154 117/127/154 100/110/154
f 117/127/155 98/108/155 100/110/155
f 115/125/156 118/128/156 106/116/156
f 100/110/157 119/129/157 115/125/157
f 106/116/158 118/128/158 120/130/158
f 118/128/159 121/131/159 120/130/159
f 115/125/160 119/129/160 118/128/160
f 118/128/161 119/129/161 121/131/161
f 119/129/162 97/107/162 121/131/162
f 100/110/132 99/109/131 119/129/163
f 99/109/164 122/132/164 119/129/164
f 119/129/165 122/132/165 97/107/165
f 122/133/166 95/105/166 97/107/166
f 97/107/167 123/134/167 121/131/167
f 121/131/168 123/134/168 120/130/168
f 123/134/169 124/135/169 120/130/169
f 124/135/170 94/104/171 120/130/172
f 97/107/173 96/106/173 123/134/173
f 96/106/174 125/136/174 123/134/174
f 123/134/175 125/136/175 124/135/175
f 125/136/176 126/137/176 124/135/176
f 124/135/177 126/137/177 94/104/177
f 126/137/178 92/102/178 94/104/178
f 94/104/171 127/138/179 120/130/172
f 120/130/180 128/139/180 106/116/180
f 128/139/181 104/114/181 106/116/181
f 120/130/182 127/138/182 128/139/182
f 127/138/183 129/140/183 128/139/183
f 128/139/184 129/140/184 104/114/184
f 129/140/185 107/117/185 104/114/185
f 94/104/186 93/103/186 127/138/186
f 93/103/187 130/141/187 127/138/187
f 127/138/188 130/141/188 129/140/188
f 130/141/189 131/142/189 129/140/189
f 129/140/190 131/142/190 107/117/190
f 131/142/191 111/121/191 107/117/191
f 91/101/192 132/143/192 133/144/192
f 134/145/193 112/122/193 111/121/193
f 133/144/194 132/143/194 134/145/194
f 132/143/195 135/146/195 134/145/195
f 134/145/196 135/146/196 112/122/196
f 135/146/197 113/123/197 112/122/197
f 91/101/198 80/90/198 132/143/198
f 80/90/199 136/147/199 132/143/199
f 132/143/200 136/147/200 135/146/200
f 136/148/201 137/149/201 135/146/201
f 135/146/202 137/149/202 113/123/202
f 137/149/203 101/111/203 113/123/203
f 138/150/204 102/112/204 101/111/204
f 90/100/205 139/151/205 138/150/205
f 138/150/206 140/152/206 102/112/206
f 140/152/207 116/126/208 102/112/209
f 138/150/210 139/151/210 140/152/210
f 139/151/211 141/153/211 140/152/211
f 140/152/207 141/153/212 116/126/208
f 141/153/213 117/127/213 116/126/213
f 90/100/214 89/99/214 139/151/214
f 89/99/215 142/154/215 139/151/215
f 139/151/216 142/154/216 141/153/216
f 142/154/217 143/155/217 141/153/217
f 141/153/218 143/155/218 117/127/218
f 143/155/219 98/108/219 117/127/219
f 144/156/220 99/109/220 98/108/220
f 145/157/221 146/158/221 144/156/221
f 87/159/222 147/160/222 145/157/222
f 144/156/223 146/158/223 99/109/223
f 145/157/224 147/160/224 146/158/224
f 147/160/225 148/161/225 146/158/225
f 146/158/226 148/161/226 99/109/226
f 148/161/227 122/132/227 99/109/227
f 87/97/228 86/96/228 147/162/228
f 86/96/229 149/163/229 147/162/229
f 147/162/230 149/163/230 148/164/230
f 149/163/231 150/165/231 148/164/231
f 148/164/232 150/165/232 122/133/232
f 150/165/233 95/105/233 122/133/233
f 151/166/234 96/106/234 95/105/234
f 152/167/235 153/168/235 151/166/235
f 84/94/236 154/169/236 152/167/236
f 151/166/237 153/168/237 96/106/237
f 153/168/238 125/136/238 96/106/238
f 152/167/239 154/169/239 153/168/239
f 154/169/240 155/170/240 153/168/240
f 153/168/241 155/170/241 125/136/241
f 155/170/242 126/137/242 125/136/242
f 84/94/243 77/87/243 154/169/243
f 77/87/244 156/171/245 154/169/245
f 154/169/245 156/171/245 155/170/246
f 156/171/247 157/172/247 155/170/247
f 155/170/248 157/172/248 126/137/248
f 157/172/249 92/102/249 126/137/249
f 158/173/250 93/103/250 92/102/250
f 159/174/251 160/175/251 158/173/251
f 83/93/252 161/176/252 159/174/252
f 158/173/253 160/175/253 93/103/253
f 160/175/254 130/141/254 93/103/254
f 159/174/255 161/176/255 160/175/255
f 161/176/256 162/177/256 160/175/256
f 160/175/257 162/177/257 130/141/257
f 162/177/258 131/142/258 130/141/258
f 83/93/259 82/92/259 161/176/259
f 82/178/260 163/179/260 161/180/260
f 161/180/261 163/179/261 162/181/261
f 163/179/262 164/182/262 162/181/262
f 162/181/263 164/182/263 131/142/263
f 164/182/264 111/121/264 131/142/264
f 137/149/265 138/150/265 101/111/265
f 136/148/266 165/183/266 137/149/266
f 80/90/267 166/184/267 136/147/267
f 137/149/268 165/183/268 138/150/268
f 136/148/269 166/185/269 165/183/269
f 166/185/270 167/186/270 165/183/270
f 165/183/271 167/186/271 138/150/271
f 167/186/272 90/100/272 138/150/272
f 80/90/273 79/89/273 166/184/273
f 79/89/274 168/187/274 166/184/274
f 166/185/275 168/188/275 167/186/275
f 168/188/276 169/189/276 167/186/276
f 167/186/277 169/189/277 90/100/277
f 169/189/278 88/98/278 90/100/278
f 143/155/279 144/156/279 98/108/279
f 142/154/280 145/157/280 143/155/280
f 143/155/281 145/157/281 144/156/281
f 142/154/282 89/99/282 145/157/282
f 89/99/283 170/190/283 145/157/283
f 171/191/284 87/159/284 145/157/284
f 88/98/285 172/192/285 89/99/285
f 89/99/286 172/192/286 171/191/286 170/190/286
f 172/192/287 173/193/287 171/191/287
f 171/191/288 173/193/288 87/159/288
f 173/194/289 85/95/289 87/97/289
f 150/165/290 151/166/290 95/105/290
f 149/163/291 174/195/291 150/165/291
f 86/96/292 175/196/292 149/163/292
f 150/165/293 174/195/293 151/166/293
f 174/195/294 152/167/295 151/166/296
f 149/163/297 175/196/297 174/195/297
f 175/196/298 176/197/298 174/195/298
f 174/195/294 176/197/299 152/167/295
f 176/197/300 84/94/300 152/167/300
f 86/96/301 85/95/301 175/196/301
f 85/95/302 177/198/302 175/196/302
f 175/196/303 177/198/303 176/197/303
f 177/198/304 178/199/304 176/197/304
f 176/197/305 178/199/305 84/94/305
f 178/199/306 75/85/306 84/94/306
f 157/172/307 158/173/307 92/102/307
f 156/171/308 179/200/308 157/172/308
f 77/87/309 180/201/309 156/171/309
f 157/172/310 179/200/310 158/173/310
f 179/200/311 159/174/311 158/173/311
f 156/171/312 180/201/312 179/200/312
f 180/201/313 181/202/313 179/200/313
f 179/200/314 181/202/314 159/174/314
f 181/202/315 83/93/315 159/174/315
f 77/87/316 76/203/316 180/201/316
f 76/203/317 182/204/317 180/201/317
f 180/201/318 182/204/318 181/202/318
f 182/204/319 81/91/319 181/202/319
f 181/202/320 81/91/320 83/93/320
f 164/182/321 134/145/321 111/121/321
f 163/179/322 183/205/322 164/182/322
f 82/178/323 184/206/323 163/179/323
f 164/182/324 183/205/324 134/145/324
f 183/205/325 133/144/325 134/145/325
f 163/179/326 184/206/326 183/205/326
f 184/206/327 185/207/327 183/205/327
f 183/205/328 185/207/328 133/144/328
f 185/207/329 91/101/329 133/144/329
f 186/208/330 168/187/330 79/89/330
f 187/209/331 168/187/331 186/208/331
f 168/188/332 188/210/332 169/189/332
f 188/210/333 88/98/333 169/189/333
f 189/211/334 178/199/334 177/198/334
f 190/212/335 191/213/335 192/214/335
f 192/214/336 191/213/336 189/211/336
f 191/213/337 193/215/338 189/211/339
f 189/211/340 193/215/340 178/199/340
f 193/215/341 75/85/341 178/199/341
f 193/215/342 76/86/343 75/85/344
f 191/213/337 194/216/345 193/215/338
f 190/212/346 195/217/346 191/213/346
f 193/215/342 194/216/347 76/86/343
f 194/218/348 182/204/348 76/203/348
f 191/213/349 195/217/349 194/216/349
f 195/219/350 196/220/350 194/218/350
f 194/218/351 196/220/351 182/204/351
f 196/220/352 81/91/352 182/204/352
f 190/212/353 197/221/354 195/217/355
f 2/222/356 1/223/356 198/224/356
f 1/223/357 6/225/357 199/226/357 198/224/357
f 10/12/358 12/14/358 200/227/358
f 19/21/359 21/24/359 201/228/359
f 12/27/360 23/28/360 200/229/360
f 23/28/361 15/17/361 172/230/361
f 172/230/362 15/17/362 20/22/362 173/231/362
f 20/22/363 19/21/363 201/232/363 173/231/363
f 202/233/364 51/58/364 42/47/364 203/234/364
f 203/234/365 42/47/365 44/49/365
f 44/49/366 43/48/366 204/235/366
f 46/51/367 205/236/367 206/237/367
f 46/51/368 47/52/368 205/236/368
f 205/238/369 47/53/369 207/239/369
f 208/240/370 47/53/370 33/38/370
f 47/53/371 208/240/371 207/239/371
f 40/45/372 48/54/372 209/241/372
f 209/241/373 48/54/373 210/242/373
f 210/243/374 48/56/374 49/55/374
f 211/244/375 210/243/375 49/55/375
f 211/244/376 49/55/376 38/43/376
f 38/43/377 51/70/377 202/245/377 211/244/377
f 43/48/378 55/62/378 212/246/378 204/235/378
f 55/62/379 54/61/379 212/247/379
f 33/38/380 58/65/380 208/240/380
f 208/240/381 58/65/381 40/45/381
f 56/63/382 46/51/382 206/237/382
f 199/226/383 197/221/354 190/212/353
f 210/248/384 81/91/384 209/249/384
f 190/212/385 2/222/385 198/224/385 199/226/385
f 210/248/386 211/250/386 82/92/386 81/91/386
f 211/251/387 184/206/387 82/178/387
f 211/251/388 202/252/389 184/206/390
f 203/253/391 185/207/391 184/206/390 202/252/389
f 44/254/392 185/207/392 203/253/392
f 204/255/393 91/101/393 185/207/393 44/254/393
f 204/255/394 212/256/394 78/88/394 91/101/394
f 79/89/395 78/88/395 212/256/395 54/257/395
f 7/258/396 187/209/396 54/257/396 56/259/396
f 186/208/397 79/89/397 54/257/397
f 186/208/398 54/257/398 187/209/398
f 10/260/399 187/209/399 7/258/399
f 10/260/400 168/187/400 187/209/400
f 188/210/401 168/188/401 10/261/401 200/262/401
f 200/262/402 23/263/402 88/98/402 188/210/402
f 172/192/403 88/98/403 23/263/403
f 85/95/404 173/194/404 201/264/404
f 21/265/405 177/198/405 85/95/405 201/264/405
f 192/214/406 21/265/406 2/222/406
f 192/214/407 189/211/407 21/265/407
f 177/198/408 21/265/408 189/211/408
f 2/222/409 190/212/409 192/214/409
f 206/266/410 6/267/410 7/258/410 56/259/410
f 207/268/411 197/269/411 205/270/411
f 205/270/412 197/269/412 6/271/412 206/272/412
f 197/221/413 199/226/413 6/225/413
f 208/273/414 195/219/414 197/269/414 207/268/414
f 208/273/415 40/274/415 196/220/415 195/219/415
f 81/91/416 196/220/416 40/274/416 209/249/416
f 3/3/417 4/4/417 1/1/417
f 22/26/418 3/3/418 2/2/418
f 22/25/419 21/24/419 18/20/419
f 145/157/420 170/190/420 171/191/420
