mtllib LOW_POLY_set.mtl
o lp_tree5_Cube_019
v 44.021423 15.849233 -38.665092
v 44.221157 14.020045 -38.750816
v 44.849216 14.804810 -36.957466
v 43.530663 14.542096 -40.476116
v 43.923080 12.677444 -39.877403
v 44.725113 12.713637 -37.519161
v 45.511829 13.619125 -35.666286
v 45.575890 15.422332 -35.898544
v 45.008739 16.422863 -37.280071
v 46.925495 14.745617 -35.494980
v 46.974552 12.737563 -36.093952
v 45.670322 11.977827 -36.852333
v 44.850479 11.532006 -38.743275
v 46.456532 11.546706 -37.910179
v 45.568874 11.825180 -39.919907
v 44.485218 12.124972 -40.605976
v 45.637749 13.011856 -41.603989
v 46.881924 12.201160 -39.051277
v 46.743198 13.180880 -40.564835
v 46.778507 14.027759 -41.602245
v 47.530067 13.384403 -39.182781
v 47.475491 14.344109 -40.440350
v 45.371712 14.353732 -42.161228
v 46.475494 15.120168 -41.191875
v 44.584431 15.882538 -41.268745
v 45.755623 16.059416 -40.480247
v 47.082794 15.389559 -39.836750
v 46.186092 16.006676 -39.627514
v 47.075596 15.324822 -38.409718
v 47.617210 14.580450 -39.223003
v 47.317989 15.305905 -36.697079
v 47.855392 14.157180 -37.743256
v 46.422657 15.909547 -37.929855
v 46.203465 16.225580 -36.506882
v 47.856136 13.937349 -36.298397
v 47.700073 12.600203 -37.572517
v 45.536751 16.771711 -38.414276
v 44.987698 16.593655 -39.926327
v 44.376297 16.826887 -38.809933
v 43.754402 16.010715 -40.280071
v 43.897858 14.960808 -41.636623
v 44.211189 13.401998 -41.606373
vt 0.793468 0.803383
vt 0.793737 0.803821
vt 0.793136 0.803891
vt 0.794106 0.803388
vt 0.791730 0.801375
vt 0.792052 0.801109
vt 0.792049 0.801500
vt 0.791694 0.801736
vt 0.791322 0.801533
vt 0.791304 0.801931
vt 0.791041 0.801647
vt 0.793003 0.803442
vt 0.792698 0.803858
vt 0.791809 0.803239
vt 0.791338 0.803258
vt 0.791516 0.802761
vt 0.791726 0.803632
vt 0.791694 0.801974
vt 0.791519 0.802258
vt 0.791961 0.801778
vt 0.791903 0.802054
vt 0.792176 0.801801
vt 0.792202 0.801583
vt 0.792568 0.801608
vt 0.792143 0.802097
vt 0.792515 0.801979
vt 0.792879 0.801913
vt 0.792329 0.802308
vt 0.792691 0.802249
vt 0.793352 0.801926
vt 0.793046 0.802232
vt 0.793236 0.801494
vt 0.793558 0.802374
vt 0.793221 0.802554
vt 0.792812 0.802525
vt 0.793022 0.802709
vt 0.792586 0.802818
vt 0.792535 0.802504
vt 0.792200 0.803181
vt 0.792189 0.802696
vt 0.792704 0.803061
vt 0.792116 0.803646
vt 0.792583 0.803494
vt 0.791888 0.802899
vt 0.791883 0.802401
vt 0.793052 0.803116
vt 0.793417 0.802829
vt 0.793332 0.803172
vt 0.793795 0.803058
vt 0.794106 0.802143
vt 0.793864 0.802611
vt 0.793733 0.802120
vt 0.793763 0.801634
vt 0.792380 0.801310
vn -0.9200 -0.1180 0.3738
vn -0.9337 -0.1178 0.3380
vn -0.9336 -0.0847 0.3480
vn -0.9447 -0.0606 0.3222
vn -0.9380 -0.0369 0.3447
vn -0.8462 0.0975 0.5238
vn -0.8569 0.1807 0.4827
vn -0.8348 0.1856 0.5182
vn -0.9086 -0.0572 0.4137
vn 0.1089 -0.2817 0.9533
vn -0.2225 0.1323 0.9659
vn -0.1214 -0.5890 0.7989
vn -0.7215 -0.4500 0.5262
vn -0.1385 -0.9488 0.2838
vn 0.2037 -0.8444 0.4955
vn -0.7240 -0.5319 0.4393
vn 0.1028 -0.9781 -0.1809
vn -0.0818 -0.9542 -0.2877
vn -0.7421 -0.6670 -0.0668
vn -0.8647 -0.4028 0.3002
vn 0.1342 -0.8126 -0.5671
vn 0.4473 -0.8376 -0.3136
vn 0.5258 -0.6913 -0.4956
vn 0.5459 -0.6953 -0.4676
vn 0.5741 -0.6438 -0.5060
vn 0.7985 -0.4613 -0.3867
vn 0.7924 -0.4764 -0.3810
vn 0.8074 -0.4702 -0.3563
vn 0.4175 0.4187 -0.8065
vn 0.2853 -0.3188 -0.9039
vn 0.7294 0.4085 -0.5488
vn 0.2668 0.5847 -0.7661
vn 0.5594 0.7284 -0.3955
vn 0.3134 0.7143 -0.6257
vn 0.7328 0.5251 -0.4328
vn 0.5728 0.8187 0.0400
vn 0.5202 0.8275 -0.2114
vn 0.8790 0.4384 -0.1874
vn 0.8235 0.5666 0.0299
vn 0.8234 0.5667 0.0297
vn 0.8552 0.5052 -0.1155
vn 0.8234 0.5668 0.0296
vn 0.6273 0.7750 -0.0760
vn 0.6309 0.7717 -0.0802
vn 0.6313 0.7713 -0.0808
vn 0.6472 0.7609 -0.0466
vn 0.6030 0.6294 0.4902
vn 0.6269 0.7754 -0.0756
vn 0.9233 0.3798 0.0573
vn 0.7745 0.4376 0.4568
vn 0.5107 -0.2343 0.8272
vn 0.9948 -0.1010 -0.0159
vn 0.7639 -0.4897 0.4203
vn 0.5518 -0.7608 0.3415
vn 0.6635 -0.7285 -0.1705
vn 0.8152 -0.4822 -0.3209
vn 0.9804 -0.1153 -0.1597
vn 0.7100 0.7026 -0.0481
vn 0.7097 0.7029 -0.0468
vn 0.7123 0.6994 -0.0581
vn -0.0250 0.9587 0.2832
vn 0.0472 0.5794 0.8137
vn -0.2945 0.7125 0.6369
vn 0.4771 0.8358 -0.2717
vn 0.0984 0.9835 -0.1516
vn 0.7127 0.6990 -0.0593
vn -0.0475 0.9607 0.2734
vn -0.3140 0.8802 -0.3558
vn -0.9142 0.3595 0.1871
vn -0.8232 0.3634 0.4363
vn -0.9549 0.1773 -0.2382
vn -0.5529 0.6296 -0.5458
vn -0.3074 0.8760 -0.3717
vn -0.9767 0.1256 0.1740
vn -0.1296 0.4493 -0.8839
vn -0.3673 -0.0918 -0.9256
vn -0.9140 -0.1907 -0.3580
vn -0.1077 -0.3994 -0.9104
vn -0.1710 -0.6301 -0.7575
vn -0.9207 -0.2808 -0.2711
vn -0.8422 -0.4327 -0.3217
vn 0.2152 0.8348 -0.5068
vn 0.4689 0.8640 -0.1833
vn 0.9806 -0.0775 -0.1800
vn 0.9920 -0.0757 -0.1008
usemtl Material.003
f 1/1/1 2/2/1 3/3/1
f 2/2/2 1/1/2 4/4/2
f 2/5/3 4/6/3 5/7/3
f 2/5/4 5/7/4 6/8/4
f 2/5/5 6/8/5 3/9/5
f 3/9/6 7/10/6 8/11/6
f 9/12/7 3/3/7 8/13/7
f 9/12/8 1/1/8 3/3/8
f 3/9/9 6/8/9 7/10/9
f 10/14/10 7/15/10 11/16/10
f 8/17/11 7/15/11 10/14/11
f 7/10/12 12/18/12 11/19/12
f 6/8/13 12/18/13 7/10/13
f 12/18/14 13/20/14 14/21/14
f 12/18/15 14/21/15 11/19/15
f 6/8/16 13/20/16 12/18/16
f 14/21/17 13/20/17 15/22/17
f 13/20/18 16/23/18 15/22/18
f 5/7/19 16/23/19 13/20/19
f 6/8/20 5/7/20 13/20/20
f 16/23/21 17/24/21 15/22/21
f 14/21/22 15/22/22 18/25/22
f 15/22/23 19/26/23 18/25/23
f 15/22/24 17/24/24 19/26/24
f 17/24/25 20/27/25 19/26/25
f 21/28/26 19/26/26 22/29/26
f 18/25/27 19/26/27 21/28/27
f 19/26/28 20/27/28 22/29/28
f 23/30/29 24/31/29 20/27/29
f 17/32/30 23/30/30 20/27/30
f 20/27/31 24/31/31 22/29/31
f 23/30/32 25/33/32 24/31/32
f 24/31/33 26/34/33 27/35/33
f 25/33/34 26/34/34 24/31/34
f 22/29/35 24/31/35 27/35/35
f 27/35/36 28/36/36 29/37/36
f 26/34/37 28/36/37 27/35/37
f 22/29/38 27/35/38 30/38/38
f 27/35/39 29/37/40 30/38/40
f 29/37/41 31/39/41 32/40/41
f 29/37/40 32/40/42 30/38/40
f 33/41/43 31/39/44 29/37/45
f 28/36/46 33/41/46 29/37/46
f 34/42/47 10/14/47 31/39/47
f 34/43/48 31/39/44 33/41/43
f 31/39/49 35/44/49 32/40/49
f 10/14/50 35/44/50 31/39/50
f 10/14/51 11/16/51 35/44/51
f 35/44/52 36/45/52 32/40/52
f 11/16/53 36/45/53 35/44/53
f 11/19/54 14/21/54 36/45/54
f 14/21/55 18/25/55 36/45/55
f 36/45/56 18/25/56 21/28/56
f 32/40/57 36/45/57 21/28/57
f 37/46/58 34/43/59 33/41/60
f 37/46/61 9/12/61 34/43/61
f 8/17/62 10/14/62 34/42/62
f 9/12/63 8/13/63 34/43/63
f 38/47/64 37/46/64 28/36/64
f 39/48/65 37/46/65 38/47/65
f 37/46/58 33/41/60 28/36/66
f 39/48/67 9/12/67 37/46/67
f 40/49/68 39/48/68 38/47/68
f 1/1/69 39/48/69 40/49/69
f 39/48/70 1/1/70 9/12/70
f 4/50/71 40/51/71 41/52/71
f 41/52/72 40/51/72 25/33/72
f 25/33/73 40/51/73 38/47/73
f 4/4/74 1/1/74 40/49/74
f 41/52/75 25/33/75 23/30/75
f 42/53/76 41/52/76 23/30/76
f 4/50/77 41/52/77 42/53/77
f 17/32/78 42/53/78 23/30/78
f 16/23/79 42/54/79 17/24/79
f 5/7/80 4/6/80 42/54/80
f 5/7/81 42/54/81 16/23/81
f 25/33/82 38/47/82 26/34/82
f 38/47/83 28/36/83 26/34/83
f 32/40/84 21/28/84 30/38/84
f 21/28/85 22/29/85 30/38/85
