mtllib LOW_POLY_set.mtl
o lp_tree3_Icosphere_005_tree3_Icosphere_011
v -4.573777 9.597836 -38.191975
v -4.783062 9.002612 -37.979649
v -4.928184 8.977524 -38.231636
v -4.698986 9.579601 -38.396721
v -4.529385 9.782599 -38.454464
v -4.400295 9.857411 -38.318813
v -4.414025 9.920095 -38.095741
v -4.634834 9.664242 -37.963654
v -4.869281 9.081634 -37.714172
v -4.524244 10.016559 -37.927921
v -4.840739 9.799788 -37.837120
v -5.115902 9.186357 -37.582767
v -4.595999 10.162963 -37.912590
v -4.815029 10.135019 -37.938660
v -5.092706 10.149205 -38.061691
v -5.159155 9.828651 -37.942322
v -5.404989 9.235031 -37.692894
v -5.379194 8.518412 -37.274673
v -5.127660 8.396236 -37.434158
v -5.669415 8.605893 -37.441044
v -5.930262 8.074196 -37.210735
v -5.658752 7.736356 -36.939457
v -5.325455 7.622046 -37.206497
v -5.024856 8.294604 -37.752724
v -5.211765 7.423358 -37.537655
v -5.382010 7.187703 -37.121471
v -5.291516 6.927428 -37.266869
v -5.558512 6.981444 -36.928993
v -5.419420 6.412334 -37.006908
v -6.036913 7.360662 -36.666271
v -5.910958 6.787417 -36.779686
v -5.826614 6.243456 -36.816219
v -5.237024 6.360312 -37.432110
v -5.325575 5.010001 -36.959705
v -5.192838 5.005008 -37.389515
v -5.239344 6.806059 -37.454941
v -5.733652 4.993043 -36.769070
v -5.690115 2.982189 -36.692581
v -5.208004 2.971085 -36.919830
v -5.056026 2.966218 -37.430588
v -5.475826 6.388253 -37.783340
v -5.388553 5.007435 -37.789879
v -5.283184 2.970991 -37.912601
v -4.947180 0.900192 -37.419453
v -5.240456 0.909095 -38.041649
v -5.143447 0.909093 -36.760197
v -4.878987 0.057693 -37.423046
v -5.208551 0.058534 -38.116234
v -5.100446 0.058534 -36.688148
v -5.765152 0.932344 -36.466743
v -5.793284 0.060777 -36.358124
v -6.423898 0.955595 -36.663269
v -6.527386 0.063018 -36.580132
v -6.200826 2.993433 -36.844566
v -6.163301 4.975257 -36.894703
v -6.346866 4.957612 -37.297562
v -6.427711 2.997205 -37.326611
v -6.717225 0.964498 -37.285458
v -6.275766 2.992986 -37.837078
v -6.220449 4.962802 -37.717728
v -6.520900 0.955595 -37.944717
v -5.794008 2.981987 -38.064339
v -5.899252 0.932344 -38.238171
v -5.821553 4.983320 -37.910324
v -5.943177 0.060777 -38.338200
v -6.635491 0.063018 -38.008213
v -6.857474 0.063859 -37.273277
v -6.252564 5.995333 -37.659966
v -5.919445 6.149516 -37.862690
v -6.364533 5.966256 -37.313114
v -6.385159 6.565104 -37.570896
v -6.040487 6.707877 -37.802338
v -5.635470 6.892172 -37.896351
v -5.395563 7.093296 -37.840199
v -5.303923 6.924256 -37.626549
v -5.369328 7.513712 -37.874577
v -5.767409 7.504590 -37.961685
v -5.521985 8.318877 -38.189816
v -5.192444 8.276323 -38.059818
v -5.205843 9.043427 -38.349972
v -4.934721 9.700597 -38.529560
v -5.472481 9.143252 -38.227753
v -5.232642 9.763711 -38.393669
v -5.792230 8.434923 -38.085705
v -5.870886 8.554367 -37.787472
v -5.558307 9.231852 -37.961876
v -5.307628 9.852351 -38.172485
v -5.214735 10.112414 -38.488659
v -4.994535 10.090341 -38.647049
v -5.257154 10.172894 -38.269547
v -5.280835 10.583276 -38.365643
v -5.090398 10.566577 -38.187195
v -5.267539 10.549641 -38.583557
v -4.704594 10.611972 -38.117706
v -5.038665 11.313545 -38.359276
v -5.271602 11.305183 -38.368980
v -5.436381 11.304029 -38.519497
v -3.975382 11.094535 -37.991447
v -4.102613 11.207900 -38.104767
v -4.432981 10.428186 -37.978004
v -4.099593 11.270492 -38.323040
v -4.596990 10.831840 -38.399826
v -4.897008 11.343707 -38.535969
v -4.891999 11.324730 -38.752419
v -4.552028 10.740141 -38.637524
v -4.011772 11.231747 -38.511238
v -3.865339 11.107289 -38.545929
v -4.355368 10.468067 -38.631344
v -4.828286 10.589146 -38.760979
v -4.681448 10.211214 -38.681950
v -5.059947 11.292812 -38.890633
v -5.148292 12.196452 -38.662186
v -5.140837 12.181547 -38.864552
v -5.285400 12.150269 -38.997551
v -5.280379 11.278591 -38.888794
v -5.486119 12.120698 -38.994637
v -5.091390 10.537485 -38.745537
v -5.503947 12.922958 -39.007160
v -5.375592 12.940321 -38.884266
v -5.681783 12.883061 -39.004696
v -5.807122 12.869667 -38.868225
v -5.625673 12.113252 -38.842369
v -5.813728 12.890823 -38.687115
v -5.633452 12.132553 -38.640228
v -5.430984 11.284184 -38.731361
v -5.488530 12.165141 -38.507019
v -5.686684 12.934385 -38.567364
v -5.507651 12.949425 -38.566589
v -5.287287 12.191111 -38.508865
v -5.383115 12.946367 -38.701004
v -4.575282 9.939394 -38.572803
v -4.236559 10.217479 -38.473755
v -4.178130 10.241709 -38.203960
v -3.751267 10.984446 -38.430344
v -3.738256 10.947618 -38.214642
v -4.273200 10.303654 -38.011135
v -3.828191 10.988870 -38.029987
v -3.575563 11.800339 -37.973042
v -3.444877 11.690155 -38.010723
v -3.359467 11.647712 -38.179310
v -3.286664 12.119905 -37.943222
v -3.406686 12.234864 -37.905880
v -3.195150 12.084940 -38.097214
v -3.507177 12.338604 -37.998432
v -3.681758 11.903605 -38.073910
v -3.500913 12.387510 -38.173855
v -3.686574 11.942659 -38.266415
v -3.396348 12.363213 -38.326145
v -3.598993 11.904731 -38.434509
v -3.254714 12.267735 -38.359627
v -3.465002 11.798250 -38.471828
v -3.176399 12.143981 -38.270699
v -3.363622 11.689558 -38.371655
v -6.040390 7.759918 -37.902756
v -6.198073 7.935525 -37.611629
v -6.815202 8.125398 -37.084045
v -6.479249 8.252164 -37.147961
v -6.474969 7.597568 -37.571957
v -6.231090 7.527771 -37.764748
v -6.235928 8.339910 -36.873444
v -6.141040 8.240836 -36.565014
v -7.208529 9.206594 -36.517128
v -7.048008 9.273439 -36.323593
v -7.014216 9.222891 -36.069412
v -7.153742 9.098286 -35.889881
v -6.449864 8.161566 -36.271759
v -6.764643 8.011786 -36.249565
v -6.389422 7.159180 -36.651321
v -7.356672 8.951607 -35.890705
v -6.268426 6.704331 -36.793522
v -6.631495 7.096231 -36.906395
v -6.510117 6.810914 -37.010254
v -6.942946 7.854590 -36.522518
v -7.022224 7.961946 -36.839169
v -6.608197 7.096361 -37.375893
v -6.489708 6.606788 -37.129128
v -7.523902 8.871162 -36.082771
v -7.569462 8.917552 -36.333805
v -7.429920 9.060305 -36.507915
v -6.243030 6.123730 -36.933701
v -6.471972 6.477312 -37.349792
v -6.183113 7.233273 -37.756744
vt 0.668359 0.439827
vt 0.668377 0.440051
vt 0.668273 0.440055
vt 0.668282 0.439827
vt 0.668306 0.439763
vt 0.668349 0.439747
vt 0.668400 0.439748
vt 0.668435 0.439829
vt 0.668480 0.440054
vt 0.668449 0.439740
vt 0.668522 0.439814
vt 0.668587 0.440046
vt 0.668473 0.439711
vt 0.668527 0.439719
vt 0.668610 0.439696
vt 0.668630 0.439795
vt 0.668696 0.440025
vt 0.668651 0.440314
vt 0.668534 0.440329
vt 0.668770 0.440271
vt 0.668844 0.440493
vt 0.668720 0.440635
vt 0.668565 0.440639
vt 0.668401 0.440331
vt 0.668419 0.440674
vt 0.666761 0.438477
vt 0.666874 0.438431
vt 0.666893 0.438557
vt 0.666831 0.438645
vt 0.666999 0.438397
vt 0.666973 0.438634
vt 0.666926 0.438806
vt 0.667139 0.438517
vt 0.667099 0.438693
vt 0.667076 0.438852
vt 0.666759 0.438806
vt 0.666910 0.439270
vt 0.666754 0.439271
vt 0.666763 0.438672
vt 0.667064 0.439266
vt 0.667111 0.439956
vt 0.666926 0.439975
vt 0.666740 0.439981
vt 0.666607 0.438791
vt 0.666597 0.439262
vt 0.666553 0.439975
vt 0.666751 0.440716
vt 0.666505 0.440710
vt 0.666996 0.440705
vt 0.666754 0.440995
vt 0.666486 0.440993
vt 0.667023 0.440986
vt 0.667237 0.440672
vt 0.667291 0.440958
vt 0.667472 0.440621
vt 0.667555 0.440908
vt 0.667292 0.439927
vt 0.667216 0.439257
vt 0.666130 0.439212
vt 0.665998 0.439883
vt 0.665820 0.439833
vt 0.665984 0.439181
vt 0.665783 0.440577
vt 0.665557 0.440498
vt 0.666181 0.439925
vt 0.666282 0.439236
vt 0.666019 0.440640
vt 0.666367 0.439956
vt 0.666260 0.440683
vt 0.666438 0.439252
vt 0.666218 0.440973
vt 0.665951 0.440935
vt 0.665690 0.440868
vt 0.665438 0.440772
vt 0.666305 0.438900
vt 0.666445 0.438859
vt 0.666179 0.438896
vt 0.666277 0.438709
vt 0.666422 0.438681
vt 0.666565 0.438629
vt 0.666643 0.438564
vt 0.666714 0.438631
vt 0.666653 0.438443
vt 0.666531 0.438435
vt 0.668130 0.440343
vt 0.668265 0.440333
vt 0.668280 0.440639
vt 0.668128 0.440673
vt 0.668160 0.440052
vt 0.668192 0.439799
vt 0.668043 0.440053
vt 0.668076 0.439801
vt 0.668016 0.440343
vt 0.667893 0.440325
vt 0.667932 0.440045
vt 0.667983 0.439784
vt 0.668079 0.439683
vt 0.668166 0.439683
vt 0.667997 0.439672
vt 0.667883 0.439788
vt 0.667905 0.439686
vt 0.667818 0.440031
vt 0.668010 0.439533
vt 0.667923 0.439552
vt 0.668086 0.439538
vt 0.668583 0.439582
vt 0.668481 0.439607
vt 0.668492 0.439368
vt 0.668565 0.439350
vt 0.667969 0.439290
vt 0.668047 0.439278
vt 0.670555 0.439635
vt 0.670624 0.439618
vt 0.670704 0.439908
vt 0.670587 0.439920
vt 0.670698 0.439590
vt 0.670782 0.439807
vt 0.668444 0.439665
vt 0.668413 0.439360
vt 0.668403 0.439549
vt 0.668337 0.439348
vt 0.668333 0.439558
vt 0.670134 0.439612
vt 0.670207 0.439621
vt 0.670148 0.439876
vt 0.670068 0.439835
vt 0.670273 0.439633
vt 0.670249 0.439914
vt 0.668244 0.439558
vt 0.668332 0.439621
vt 0.668256 0.439656
vt 0.668266 0.439324
vt 0.668441 0.439041
vt 0.668369 0.439034
vt 0.668301 0.439020
vt 0.668194 0.439299
vt 0.668231 0.439004
vt 0.668164 0.439549
vt 0.668337 0.438707
vt 0.668404 0.438726
vt 0.668267 0.438699
vt 0.668196 0.438686
vt 0.668159 0.438989
vt 0.668128 0.438672
vt 0.668086 0.438979
vt 0.668121 0.439283
vt 0.668012 0.438974
vt 0.668060 0.438659
vt 0.668544 0.438730
vt 0.668611 0.438722
vt 0.668590 0.439038
vt 0.668516 0.439041
vt 0.668474 0.438735
vt 0.668284 0.439722
vt 0.668350 0.439673
vt 0.668389 0.439687
vt 0.670341 0.439644
vt 0.670417 0.439648
vt 0.670441 0.439937
vt 0.670347 0.439956
vt 0.668421 0.439686
vt 0.670490 0.439646
vt 0.670518 0.439932
vt 0.670527 0.439349
vt 0.670468 0.439370
vt 0.670403 0.439380
vt 0.670467 0.439209
vt 0.670518 0.439181
vt 0.670404 0.439218
vt 0.670574 0.439162
vt 0.670589 0.439330
vt 0.670636 0.439150
vt 0.670657 0.439319
vt 0.670159 0.439168
vt 0.670225 0.439172
vt 0.670226 0.439350
vt 0.670161 0.439341
vt 0.670285 0.439184
vt 0.670281 0.439365
vt 0.670341 0.439208
vt 0.670338 0.439378
vt 0.667743 0.440285
vt 0.667999 0.440622
vt 0.667865 0.440598
vt 0.667685 0.440518
vt 0.669723 0.439719
vt 0.669861 0.439740
vt 0.669905 0.439929
vt 0.669783 0.439979
vt 0.667946 0.440724
vt 0.667836 0.440752
vt 0.669976 0.439672
vt 0.670022 0.439809
vt 0.668982 0.439688
vt 0.669092 0.439719
vt 0.669020 0.439949
vt 0.668902 0.439824
vt 0.669729 0.439222
vt 0.669807 0.439184
vt 0.669117 0.439193
vt 0.669206 0.439199
vt 0.669291 0.439203
vt 0.669231 0.439647
vt 0.669217 0.439976
vt 0.669350 0.439640
vt 0.669354 0.439988
vt 0.669375 0.439215
vt 0.667249 0.438583
vt 0.667213 0.438714
vt 0.665967 0.438549
vt 0.666069 0.438536
vt 0.666101 0.438618
vt 0.666002 0.438674
vt 0.669465 0.439710
vt 0.669473 0.440008
vt 0.669591 0.439696
vt 0.669621 0.440074
vt 0.666212 0.438537
vt 0.666127 0.438689
vt 0.669465 0.439228
vt 0.669552 0.439241
vt 0.669641 0.439239
vt 0.666050 0.438842
vt 0.666201 0.438722
vt 0.666390 0.438508
vt 0.667220 0.438902
vt 0.667826 0.440963
vt 0.667997 0.440821
vn 0.7954 -0.4269 -0.4303
vn 0.6868 -0.6439 -0.3371
vn 0.8253 -0.4919 0.2774
vn 0.9172 -0.2136 0.3365
vn 0.5527 -0.2540 0.7937
vn 0.5393 0.1212 0.8333
vn 0.0368 0.1795 0.9831
vn -0.3143 0.3424 0.8854
vn -0.2435 0.4612 0.8532
vn 0.5478 0.1468 0.8236
vn -0.2855 0.4754 0.8322
vn -0.2863 0.4757 0.8317
vn -0.2864 0.4757 0.8317
vn -0.2872 0.4760 0.8312
vn 0.6117 0.0964 0.7852
vn 0.9130 -0.1979 0.3567
vn 0.9243 -0.1185 0.3628
vn 0.9232 0.0117 0.3843
vn 0.6587 0.0842 0.7477
vn 0.7876 0.0527 0.6139
vn 0.4911 0.0161 0.8710
vn 0.4128 -0.0108 0.9108
vn 0.9380 0.0581 0.3418
vn 0.9324 -0.0156 0.3610
vn 0.4114 0.0613 0.9094
vn 0.4243 0.0429 0.9045
vn 0.9565 0.0557 0.2865
vn 0.9565 0.0557 0.2864
vn 0.9556 0.0595 0.2886
vn 0.8658 0.0350 -0.4991
vn 0.8998 0.0708 -0.4306
vn 0.9039 0.0453 -0.4254
vn 0.9573 0.0520 0.2843
vn 0.9016 0.0730 -0.4264
vn 0.9554 0.0743 0.2858
vn 0.4273 0.0833 0.9003
vn 0.4280 0.0980 0.8984
vn -0.2820 0.1200 0.9519
vn -0.2801 0.1157 0.9530
vn -0.2834 0.1245 0.9509
vn -0.2806 0.1154 0.9529
vn -0.2832 0.0300 0.9586
vn -0.9069 0.0295 0.4202
vn -0.8956 0.1359 0.4235
vn -0.8947 0.1401 0.4241
vn -0.8955 0.1360 0.4239
vn -0.9571 0.0440 -0.2862
vn -0.9500 0.1294 -0.2843
vn -0.9502 0.1297 -0.2834
vn -0.9501 0.1297 -0.2835
vn -0.4222 0.0983 -0.9012
vn -0.4300 0.0650 -0.9005
vn -0.4236 0.1213 -0.8977
vn -0.9477 0.1428 -0.2853
vn -0.8938 0.1441 0.4247
vn 0.2879 0.0946 -0.9530
vn 0.2865 0.0661 -0.9558
vn -0.4777 0.0139 -0.8784
vn -0.9546 -0.0171 -0.2974
vn 0.2117 0.0362 -0.9767
vn 0.2753 0.0748 -0.9584
vn -0.5366 -0.0089 -0.8438
vn 0.0066 -0.0478 -0.9988
vn 0.6333 -0.1336 -0.7623
vn 0.8529 -0.0769 -0.5164
vn 0.8912 -0.0884 -0.4450
vn 0.9982 -0.0492 -0.0340
vn 0.2401 -0.0689 -0.9683
vn 0.2588 -0.3092 -0.9151
vn 0.8381 -0.2985 -0.4566
vn 0.8093 -0.4097 -0.4209
vn 0.3056 -0.3322 -0.8923
vn 0.3005 -0.3610 -0.8828
vn -0.4315 -0.0706 -0.8993
vn -0.3947 -0.0186 -0.9186
vn -0.8740 0.3141 -0.3707
vn -0.8934 0.2374 -0.3814
vn -0.5088 -0.2646 -0.8192
vn -0.9641 0.0225 -0.2647
vn -0.7508 0.3301 0.5721
vn -0.7415 0.4806 0.4681
vn -0.7181 0.1626 0.6767
vn -0.9885 -0.1121 -0.1019
vn -0.2767 0.3408 0.8985
vn -0.1433 0.2316 0.9622
vn -0.6791 0.0121 0.7339
vn -0.3476 0.2921 0.8910
vn -0.6751 0.6963 0.2438
vn -0.1899 0.3696 0.9096
vn 0.6099 0.5080 0.6082
vn 0.8660 0.4994 -0.0264
vn -0.5680 0.7205 -0.3978
vn 0.0642 0.1268 -0.9898
vn 0.2680 0.0153 -0.9633
vn 0.4907 0.0526 -0.8697
vn 0.9595 0.2815 0.0058
vn 0.6439 0.0809 -0.7608
vn 0.0017 -0.1238 -0.9923
vn -0.0094 -0.1883 -0.9821
vn 0.6556 0.1800 -0.7334
vn -0.0113 -0.0159 -0.9998
vn -0.7159 -0.1936 -0.6708
vn -0.9724 -0.2328 -0.0119
vn -0.9727 -0.2320 -0.0105
vn -0.7049 -0.2548 -0.6619
vn -0.9729 -0.2312 -0.0091
vn -0.6716 -0.0514 0.7392
vn -0.6599 -0.1113 0.7430
vn -0.0054 0.0756 0.9971
vn -0.0302 0.1554 0.9874
vn 0.7117 0.2567 0.6539
vn 0.7087 0.3061 0.6356
vn 0.9544 0.2979 0.0209
vn -0.9760 -0.2171 -0.0154
vn -0.6761 -0.2947 -0.6753
vn -0.6197 -0.2663 -0.7383
vn -0.0206 -0.2161 -0.9762
vn 0.0561 -0.3110 -0.9488
vn 0.4115 -0.2676 -0.8712
vn 0.6516 -0.4653 -0.5991
vn 0.2540 -0.4942 -0.8314
vn 0.8644 -0.5028 0.0103
vn 0.8402 -0.5247 -0.1372
vn 0.5090 -0.2784 -0.8145
vn 0.7158 -0.3905 0.5790
vn 0.7407 -0.4608 0.4890
vn 0.2685 0.0575 0.9616
vn 0.1646 -0.0864 0.9826
vn 0.1730 -0.1224 0.9773
vn 0.7622 -0.4332 0.4810
vn 0.1158 -0.1956 0.9738
vn 0.7716 -0.3756 0.5133
vn -0.6150 0.1149 0.7801
vn -0.9277 0.3639 0.0834
vn -0.7339 0.4321 -0.5241
vn -0.0602 0.2561 -0.9648
vn -0.1088 0.1731 -0.9789
vn -0.7321 0.4958 -0.4671
vn 0.6517 -0.1071 -0.7509
vn 0.5504 -0.2345 -0.8013
vn 0.9328 -0.3553 -0.0608
vn 0.8743 -0.4684 -0.1271
vn -0.8503 0.5100 0.1299
vn -0.5052 0.2670 0.8206
vn -0.7792 0.4768 0.4068
vn -0.8495 0.2488 -0.4652
vn -0.7760 0.5217 0.3545
vn -0.4836 0.4736 -0.7361
vn -0.6465 0.3135 -0.6955
vn 0.2260 0.8592 -0.4591
vn 0.7247 0.6865 0.0594
vn 0.4097 0.7002 -0.5847
vn 0.7517 0.6595 0.0034
vn 0.6609 0.2143 0.7192
vn 0.6410 -0.0125 0.7674
vn 0.2262 -0.3330 0.9154
vn 0.1822 -0.2496 0.9511
vn 0.0897 -0.2200 0.9714
vn -0.6520 -0.4228 0.6294
vn -0.5315 -0.5434 0.6497
vn -0.9112 -0.4119 0.0086
vn -0.9564 -0.2906 0.0297
vn -0.4963 -0.5662 0.6581
vn -0.8566 -0.5136 0.0493
vn -0.7412 -0.0739 -0.6671
vn -0.2920 0.3587 -0.8866
vn -0.7988 0.0099 -0.6015
vn -0.7778 -0.2375 0.5819
vn -0.9540 -0.2186 -0.2051
vn -0.9221 -0.2620 0.2847
vn -0.9149 -0.1858 -0.3584
vn -0.9287 -0.0326 0.3695
vn -0.6147 -0.0333 -0.7880
vn -0.2783 0.0145 0.9604
vn -0.1226 -0.1657 0.9785
vn -0.6384 -0.1263 -0.7593
vn -0.2973 -0.0882 -0.9507
vn -0.3929 -0.1453 -0.9080
vn -0.3670 -0.1325 -0.9207
usemtl Material.001
f 1/1/1 2/2/1 3/3/1 4/4/1
f 1/1/2 4/4/2 5/5/2 6/6/2
f 7/7/3 8/8/3 1/1/3 6/6/3
f 8/8/4 9/9/4 2/2/4 1/1/4
f 10/10/5 11/11/5 8/8/5 7/7/5
f 11/11/6 12/12/6 9/9/6 8/8/6
f 11/11/7 10/10/7 13/13/7 14/14/7
f 15/15/8 16/16/8 11/11/8 14/14/8
f 16/16/9 17/17/9 12/12/9 11/11/9
f 12/12/10 18/18/10 19/19/10 9/9/10
f 17/17/11 20/20/12 18/18/13 12/12/11
f 18/18/13 20/20/12 21/21/14 22/22/14
f 19/19/15 18/18/15 22/22/15 23/23/15
f 9/9/16 19/19/16 24/24/16 2/2/16
f 24/24/17 19/19/17 23/23/17 25/25/17
f 25/26/18 23/27/18 26/28/18 27/29/18
f 22/30/19 28/31/19 26/28/19 23/27/19
f 29/32/20 27/29/20 26/28/20 28/31/20
f 30/33/21 31/34/21 28/31/21 22/30/21
f 31/34/22 32/35/22 29/32/22 28/31/22
f 33/36/23 29/32/23 34/37/23 35/38/23
f 29/32/24 33/36/24 36/39/24 27/29/24
f 29/32/25 32/35/25 37/40/25 34/37/25
f 37/40/26 38/41/26 39/42/26 34/37/26
f 39/42/27 40/43/28 35/38/29 34/37/29
f 41/44/30 33/36/30 35/38/30 42/45/30
f 35/38/31 40/43/31 43/46/31 42/45/31
f 43/46/32 40/43/32 44/47/32 45/48/32
f 40/43/28 39/42/27 46/49/33 44/47/33
f 45/48/34 44/47/34 47/50/34 48/51/34
f 44/47/35 46/49/35 49/52/35 47/50/35
f 39/42/36 38/41/36 50/53/36 46/49/36
f 46/49/37 50/53/37 51/54/37 49/52/37
f 50/53/38 52/55/39 53/56/40 51/54/40
f 38/41/41 54/57/41 52/55/39 50/53/38
f 54/57/42 38/41/42 37/40/42 55/58/42
f 56/59/43 57/60/43 54/61/43 55/62/43
f 54/61/44 57/60/44 58/63/45 52/64/46
f 59/65/47 57/60/47 56/59/47 60/66/47
f 57/60/48 59/65/48 61/67/49 58/63/50
f 59/65/51 62/68/51 63/69/51 61/67/51
f 64/70/52 62/68/52 59/65/52 60/66/52
f 61/67/53 63/69/53 65/71/53 66/72/53
f 58/63/50 61/67/49 66/72/54 67/73/54
f 52/64/46 58/63/45 67/73/55 53/74/55
f 63/69/56 45/48/56 48/51/56 65/71/56
f 62/68/57 43/46/57 45/48/57 63/69/57
f 68/75/58 69/76/58 64/70/58 60/66/58
f 70/77/59 68/75/59 60/66/59 56/59/59
f 69/76/60 41/44/60 42/45/60 64/70/60
f 43/46/61 62/68/61 64/70/61 42/45/61
f 68/75/62 71/78/62 72/79/62 69/76/62
f 69/76/63 72/79/63 73/80/63 41/44/63
f 41/44/64 73/80/64 74/81/64 75/82/64
f 41/44/65 75/82/65 36/39/65 33/36/65
f 25/26/66 75/82/66 74/81/66 76/83/66
f 25/26/67 27/29/67 36/39/67 75/82/67
f 77/84/68 76/83/68 74/81/68 73/80/68
f 78/85/69 79/86/69 76/87/69 77/88/69
f 79/86/70 24/24/70 25/25/70 76/87/70
f 2/2/71 24/24/71 79/86/71 3/3/71
f 3/3/72 79/86/72 78/85/72 80/89/72
f 4/4/73 3/3/73 80/89/73 81/90/73
f 80/89/74 82/91/74 83/92/74 81/90/74
f 78/85/75 84/93/75 82/91/75 80/89/75
f 82/91/76 84/93/76 85/94/76 86/95/76
f 83/92/77 82/91/77 86/95/77 87/96/77
f 83/92/78 88/97/78 89/98/78 81/90/78
f 87/96/79 90/99/79 88/97/79 83/92/79
f 90/99/80 87/96/80 16/100/80 15/101/80
f 87/96/81 86/95/81 17/102/81 16/100/81
f 91/103/82 90/99/82 15/101/82 92/104/82
f 90/99/83 91/103/83 93/105/83 88/97/83
f 92/106/84 15/15/84 14/14/84 94/107/84
f 95/108/85 96/109/85 92/106/85 94/107/85
f 96/110/86 97/111/86 91/103/86 92/104/86
f 98/112/87 99/113/87 94/114/87 100/115/87
f 99/113/88 101/116/88 102/117/88 94/114/88
f 94/107/89 14/14/89 13/13/89 100/118/89
f 103/119/90 95/108/90 94/107/90 102/120/90
f 104/121/91 103/119/91 102/120/91 105/122/91
f 101/123/92 106/124/92 105/125/92 102/126/92
f 106/124/93 107/127/93 108/128/93 105/125/93
f 109/129/94 105/122/94 108/130/94 110/131/94
f 111/132/95 104/121/95 105/122/95 109/129/95
f 112/133/96 103/119/96 104/121/96 113/134/96
f 113/134/97 104/121/97 111/132/97 114/135/97
f 114/135/98 111/132/98 115/136/98 116/137/98
f 115/136/99 111/132/99 109/129/99 117/138/99
f 118/139/100 119/140/100 113/134/100 114/135/100
f 120/141/101 118/139/101 114/135/101 116/137/101
f 121/142/102 120/141/102 116/137/102 122/143/102
f 123/144/103 121/142/103 122/143/104 124/145/104
f 116/137/105 115/136/105 125/146/105 122/143/105
f 122/143/104 125/146/106 97/111/106 124/145/104
f 97/111/107 96/110/107 126/147/107 124/145/107
f 127/148/108 123/144/108 124/145/108 126/147/108
f 128/149/109 127/150/109 126/151/109 129/152/109
f 126/151/110 96/109/110 95/108/110 129/152/110
f 130/153/111 128/149/111 129/152/111 112/133/111
f 129/152/112 95/108/112 103/119/112 112/133/112
f 119/140/113 130/153/113 112/133/113 113/134/113
f 97/111/114 125/146/114 93/105/114 91/103/114
f 125/146/115 115/136/115 117/138/115 93/105/115
f 88/97/116 93/105/116 117/138/116 89/98/116
f 117/138/117 109/129/117 110/131/117 89/98/117
f 89/98/118 110/131/118 131/154/118 81/90/118
f 110/131/119 108/130/119 132/155/119 131/154/119
f 132/155/120 6/6/120 5/5/120 131/154/120
f 81/90/121 131/154/121 5/5/121 4/4/121
f 133/156/122 7/7/122 6/6/122 132/155/122
f 134/157/123 135/158/123 133/159/123 132/160/123
f 107/127/124 134/157/124 132/160/124 108/128/124
f 136/161/125 10/10/125 7/7/125 133/156/125
f 135/158/126 137/162/126 136/163/126 133/159/126
f 136/161/127 100/118/127 13/13/127 10/10/127
f 137/162/128 98/112/128 100/115/128 136/163/128
f 138/164/129 98/112/129 137/162/129 139/165/129
f 137/162/130 135/158/130 140/166/130 139/165/130
f 141/167/131 142/168/131 138/164/131 139/165/131
f 143/169/132 141/167/132 139/165/132 140/166/132
f 142/168/133 144/170/133 145/171/133 138/164/133
f 144/170/134 146/172/134 147/173/134 145/171/134
f 146/174/135 148/175/135 149/176/135 147/177/135
f 148/175/136 150/178/136 151/179/136 149/176/136
f 151/179/137 107/127/137 106/124/137 149/176/137
f 106/124/138 101/123/138 147/177/138 149/176/138
f 150/178/139 152/180/139 153/181/139 151/179/139
f 134/157/140 107/127/140 151/179/140 153/181/140
f 152/180/141 143/169/141 140/166/141 153/181/141
f 140/166/142 135/158/142 134/157/142 153/181/142
f 147/173/143 101/116/143 99/113/143 145/171/143
f 99/113/144 98/112/144 138/164/144 145/171/144
f 86/95/145 85/94/145 20/182/145 17/102/145
f 85/94/146 84/93/146 154/183/146 155/184/146
f 20/182/147 85/94/147 155/184/147 21/185/147
f 156/186/148 157/187/148 155/188/148 158/189/148
f 155/184/149 154/183/149 159/190/149 158/191/149
f 157/187/150 160/192/150 21/193/150 155/188/150
f 160/194/151 161/195/151 22/196/151 21/197/151
f 162/198/152 163/199/152 160/192/152 157/187/152
f 163/200/153 164/201/153 161/195/153 160/194/153
f 164/201/154 165/202/154 166/203/154 161/195/154
f 161/195/155 166/203/155 30/204/155 22/196/155
f 166/203/156 167/205/156 168/206/156 30/204/156
f 165/202/157 169/207/157 167/205/157 166/203/157
f 168/208/158 170/209/158 31/34/158 30/33/158
f 168/210/159 171/211/159 172/212/159 170/213/159
f 167/205/160 173/214/160 171/215/160 168/206/160
f 173/214/161 174/216/161 175/217/161 171/215/161
f 175/218/162 176/219/162 172/212/162 171/211/162
f 169/207/163 177/220/163 173/214/163 167/205/163
f 177/220/164 178/221/164 174/216/164 173/214/164
f 178/221/165 179/222/165 156/186/165 174/216/165
f 179/222/166 162/198/166 157/187/166 156/186/166
f 174/216/167 156/186/167 158/189/167 175/217/167
f 180/223/168 170/213/168 172/212/168 176/219/168
f 175/218/169 71/78/169 181/224/169 176/219/169
f 180/223/170 176/219/170 181/224/170 70/77/170
f 68/75/171 70/77/171 181/224/171 71/78/171
f 180/223/172 70/77/172 56/59/172 55/62/172
f 71/78/173 175/218/173 182/225/173 72/79/173
f 32/35/174 180/226/174 55/58/174 37/40/174
f 170/209/175 180/226/175 32/35/175 31/34/175
f 175/227/176 158/191/176 159/190/176 182/228/176
f 72/79/177 182/225/177 77/84/177 73/80/177
f 77/88/178 182/228/178 159/190/178 154/183/178
f 84/93/179 78/85/179 77/88/179 154/183/179
