mtllib LOW_POLY_set.mtl
o lp_tree1_Icosphere_011
v -34.447300 14.867336 -36.893158
v -33.806652 15.834008 -35.540386
v -35.224232 14.418895 -35.022289
v -33.135635 17.117640 -34.718060
v -31.814007 16.779060 -36.287228
v -35.691349 14.234910 -37.436699
v -34.237713 14.629086 -38.981426
v -32.966320 15.661483 -37.656796
v -31.733568 18.102777 -35.145897
v -35.871872 14.916095 -33.802532
v -34.473518 15.831012 -33.824665
v -35.691658 16.756201 -33.444950
v -37.299644 14.425482 -38.201397
v -36.998833 14.383923 -35.524952
v -38.187485 16.309298 -36.648045
v -34.482876 15.358520 -40.607334
v -36.178711 14.962783 -39.400410
v -36.023781 16.588266 -40.241947
v -31.558826 16.533220 -38.096779
v -32.900265 15.858755 -39.740067
v -32.076519 17.461926 -39.185520
v -33.865662 17.905464 -33.857109
v -37.311451 16.018745 -34.422722
v -37.670578 16.525835 -38.732533
v -34.023476 17.091635 -40.514515
v -30.714050 17.739630 -37.066933
v -35.242653 18.885897 -34.037457
v -33.444630 19.484892 -34.878349
v -35.824657 19.813910 -35.517258
v -38.044716 17.893478 -35.865906
v -36.939377 18.507246 -34.622360
v -37.383583 19.251740 -36.417503
v -36.837917 18.055189 -38.491642
v -38.025887 18.059248 -37.573879
v -36.806923 19.324148 -38.034912
v -33.955894 18.905148 -39.129826
v -35.617100 18.727173 -39.059635
v -35.114109 19.913311 -38.401539
v -31.523468 19.120214 -36.005699
v -32.590370 19.194822 -37.719860
v -34.323135 20.156593 -37.245464
v -36.149746 19.968071 -37.274021
vt 0.821327 0.802149
vt 0.820763 0.802195
vt 0.821019 0.801585
vt 0.820255 0.802378
vt 0.820616 0.802895
vt 0.816805 0.802222
vt 0.816952 0.801712
vt 0.817156 0.802247
vt 0.816985 0.802680
vt 0.816502 0.802575
vt 0.820084 0.802853
vt 0.819094 0.801142
vt 0.819484 0.801300
vt 0.819230 0.801588
vt 0.817484 0.802318
vt 0.817414 0.801768
vt 0.818002 0.802029
vt 0.817180 0.803064
vt 0.817423 0.802638
vt 0.817725 0.802997
vt 0.819385 0.804107
vt 0.818782 0.804199
vt 0.819104 0.803817
vt 0.819855 0.802209
vt 0.818802 0.801501
vt 0.817921 0.802509
vt 0.818277 0.804159
vt 0.818050 0.803629
vt 0.818549 0.803770
vt 0.819744 0.803738
vt 0.819349 0.802141
vt 0.819538 0.802625
vt 0.819037 0.802433
vt 0.818517 0.802040
vt 0.818929 0.802062
vt 0.818687 0.802369
vt 0.818281 0.802709
vt 0.818340 0.802390
vt 0.818568 0.802668
vt 0.818819 0.803290
vt 0.818456 0.803055
vt 0.818779 0.802932
vt 0.819805 0.803171
vt 0.819284 0.803260
vt 0.819043 0.802881
vt 0.818786 0.802655
vt 0.818271 0.801647
vt 0.818587 0.801070
vt 0.819677 0.801836
vt 0.820402 0.801752
vt 0.820499 0.803414
vt 0.821070 0.803242
vt 0.816704 0.803053
vt 0.816183 0.802863
vt 0.817075 0.801360
vt 0.821247 0.802720
vt 0.820659 0.801295
vn 0.7246 -0.6749 0.1391
vn 0.5166 -0.6368 0.5725
vn 0.4605 -0.8874 -0.0215
vn 0.3980 -0.9061 0.1433
vn 0.5257 -0.8377 0.1483
vn 0.5736 -0.5546 0.6028
vn 0.1479 -0.2026 0.9680
vn -0.8701 -0.4845 0.0903
vn -0.4812 -0.3664 -0.7963
vn 0.7979 -0.2152 -0.5630
vn 0.5039 -0.3804 0.7754
vn -0.4710 -0.1236 0.8734
vn -0.9386 -0.2307 -0.2567
vn -0.1577 0.0944 -0.9830
vn 0.8409 -0.1432 -0.5220
vn -0.0283 0.8418 0.5391
vn -0.7473 0.5277 0.4038
vn -0.5850 0.2873 -0.7585
vn -0.0910 0.5124 -0.8539
vn 0.4247 0.8766 -0.2262
vn -0.0995 0.9852 -0.1393
vn 0.3513 0.8384 -0.4168
vn 0.3601 0.7816 -0.5093
vn -0.3767 0.8417 -0.3869
vn -0.3576 0.5644 -0.7440
vn -0.5326 0.2981 -0.7921
vn -0.5810 0.7956 -0.1715
vn -0.7413 0.6283 -0.2362
vn -0.8932 0.4484 0.0337
vn -0.4132 0.8973 0.1552
vn -0.5167 0.7380 0.4339
vn -0.3647 0.7175 0.5934
vn -0.1037 0.9889 0.1060
vn 0.0666 0.9661 0.2494
vn 0.2769 0.9465 0.1658
vn 0.6462 0.6657 -0.3732
vn 0.6348 0.6000 -0.4869
vn 0.4781 0.6455 -0.5956
vn -0.0983 0.6062 -0.7892
vn -0.2399 0.5042 -0.8296
vn -0.5728 0.4773 -0.6664
vn -0.5551 0.4157 -0.7204
vn -0.9689 -0.0398 -0.2444
vn -0.9959 0.0908 -0.0022
vn -0.7762 0.1649 0.6086
vn -0.5599 0.1491 0.8150
vn -0.3719 0.3208 0.8711
vn 0.2336 0.4833 0.8437
vn 0.4471 0.3986 0.8008
vn 0.5082 0.4923 0.7067
vn 0.3984 0.5472 -0.7361
vn 0.5643 -0.0044 -0.8255
vn 0.4996 -0.0863 -0.8619
vn -0.6162 0.4385 -0.6542
vn -0.6370 -0.3056 -0.7077
vn -0.6293 -0.2931 -0.7197
vn -0.9306 -0.0911 0.3545
vn -0.8801 -0.3694 0.2982
vn -0.6389 -0.5103 0.5757
vn 0.0563 0.2566 0.9649
vn 0.2554 -0.0598 0.9650
vn 0.6613 -0.1824 0.7276
vn 0.8822 0.1841 0.4334
vn 0.7447 -0.4612 0.4824
vn 0.7192 -0.6677 0.1921
vn 0.5107 -0.8573 -0.0650
vn 0.6605 -0.7492 -0.0500
vn 0.4743 -0.7743 -0.4189
vn -0.0709 -0.9140 -0.3994
vn -0.0914 -0.9409 -0.3261
vn 0.0609 -0.9309 -0.3602
vn -0.1166 -0.9932 -0.0023
vn -0.0020 -0.9971 0.0764
vn -0.0780 -0.9370 0.3405
vn 0.5590 -0.8074 0.1885
vn 0.4921 -0.8298 0.2631
vn 0.5634 -0.7748 0.2869
vn 0.4684 -0.7029 0.5352
vn 0.7275 -0.6256 0.2817
vn 0.7572 -0.5837 0.2933
usemtl Material.004
f 1/1/1 2/2/1 3/3/1
f 4/4/2 2/2/2 5/5/2
f 1/6/3 3/7/3 6/8/3
f 1/6/4 6/8/4 7/9/4
f 1/6/5 7/9/5 8/10/5
f 4/4/6 5/5/6 9/11/6
f 10/12/7 11/13/7 12/14/7
f 13/15/8 14/16/8 15/17/8
f 16/18/9 17/19/9 18/20/9
f 19/21/10 20/22/10 21/23/10
f 4/4/11 9/11/11 22/24/11
f 10/12/12 12/14/12 23/25/12
f 13/15/13 15/17/13 24/26/13
f 16/27/14 18/28/14 25/29/14
f 19/21/15 21/23/15 26/30/15
f 27/31/16 28/32/16 29/33/16
f 30/34/17 31/35/17 32/36/17
f 33/37/18 34/38/18 35/39/18
f 36/40/19 37/41/19 38/42/19
f 39/43/20 40/44/20 41/45/20
f 41/45/21 38/42/21 42/46/21
f 41/45/22 40/44/22 38/42/22
f 40/44/23 36/40/23 38/42/23
f 38/42/24 35/39/24 42/46/24
f 38/42/25 37/41/25 35/39/25
f 37/41/26 33/37/26 35/39/26
f 35/39/27 32/36/27 42/46/27
f 35/39/28 34/38/28 32/36/28
f 34/38/29 30/34/29 32/36/29
f 32/36/30 29/33/30 42/46/30
f 32/36/31 31/35/31 29/33/31
f 31/35/32 27/31/32 29/33/32
f 29/33/33 41/45/33 42/46/33
f 29/33/34 28/32/34 41/45/34
f 28/32/35 39/43/35 41/45/35
f 26/30/36 40/44/36 39/43/36
f 26/30/37 21/23/37 40/44/37
f 21/23/38 36/40/38 40/44/38
f 25/29/39 37/41/39 36/40/39
f 25/29/40 18/28/40 37/41/40
f 18/20/41 33/37/41 37/41/41
f 24/26/42 34/38/42 33/37/42
f 24/26/43 15/17/43 34/38/43
f 15/17/44 30/34/44 34/38/44
f 23/25/45 31/35/45 30/34/45
f 23/25/46 12/14/46 31/35/46
f 12/14/47 27/31/47 31/35/47
f 22/24/48 28/32/48 27/31/48
f 22/24/49 9/11/49 28/32/49
f 9/11/50 39/43/50 28/32/50
f 21/23/51 25/29/51 36/40/51
f 21/23/52 20/22/52 25/29/52
f 20/22/53 16/27/53 25/29/53
f 18/20/54 24/26/54 33/37/54
f 18/20/55 17/19/55 24/26/55
f 17/19/56 13/15/56 24/26/56
f 15/47/57 23/25/57 30/34/57
f 15/47/58 14/48/58 23/25/58
f 14/48/59 10/12/59 23/25/59
f 12/14/60 22/49/60 27/31/60
f 12/14/61 11/13/61 22/49/61
f 11/50/62 4/4/62 22/24/62
f 9/11/63 26/51/63 39/43/63
f 9/11/64 5/5/64 26/51/64
f 5/5/65 19/52/65 26/51/65
f 8/10/66 20/53/66 19/54/66
f 8/10/67 7/9/67 20/53/67
f 7/9/68 16/18/68 20/53/68
f 7/9/69 17/19/69 16/18/69
f 7/9/70 6/8/70 17/19/70
f 6/8/71 13/15/71 17/19/71
f 6/8/72 14/16/72 13/15/72
f 6/8/73 3/7/73 14/16/73
f 3/7/74 10/55/74 14/16/74
f 5/5/75 8/56/75 19/52/75
f 5/5/76 2/2/76 8/56/76
f 2/2/77 1/1/77 8/56/77
f 3/3/78 11/50/78 10/57/78
f 3/3/79 2/2/79 11/50/79
f 2/2/80 4/4/80 11/50/80
