mtllib LOW_POLY_set.mtl
o lp_tree2_Icosphere_004
v -15.584408 7.682567 -38.767975
v -14.889990 7.397085 -37.411644
v -16.448095 7.928455 -38.411346
v -15.095599 7.629815 -36.198750
v -13.872626 7.674031 -36.932991
v -17.021971 7.917594 -39.732742
v -15.344773 7.584864 -39.690559
v -14.073311 7.390577 -38.245499
v -14.896818 7.690359 -40.321438
v -16.545645 7.918921 -40.716919
v -16.136103 8.205629 -40.930992
v -13.233322 7.745052 -38.151413
v -13.672865 7.576856 -39.352455
v -13.044662 8.310309 -38.958363
v -14.061081 8.116096 -40.235443
v -13.441689 8.520443 -37.004532
v -13.854218 9.186945 -37.817715
v -13.640755 8.698598 -39.963478
v -14.511497 9.759572 -39.096073
v -17.624435 8.258054 -40.492245
v -15.847180 7.759477 -36.865002
v -21.500889 8.196974 -34.456993
v -23.263998 8.527806 -36.969086
v -21.032597 8.325253 -36.583149
v -23.010094 8.087548 -33.867954
v -19.883966 8.438858 -34.659554
v -21.323355 8.483212 -33.040760
v -22.674242 9.010036 -32.762493
v -21.301960 8.789215 -32.333801
v -19.825195 8.562515 -32.978878
v -23.824993 8.606472 -33.623821
v -23.285975 10.093610 -33.297848
v -22.010693 9.615504 -32.402096
v -22.362125 10.606420 -33.374405
v -21.128288 10.480371 -32.870228
v -20.323385 9.597034 -32.392017
v -19.022400 9.514410 -33.466106
v -19.791239 10.304337 -33.091045
v -19.077206 8.828536 -34.413643
v -20.783024 8.813391 -37.131371
v -19.787022 8.842431 -36.127483
v -22.299820 9.034217 -37.630726
v -23.802811 8.923194 -37.497292
v -24.283150 8.522558 -35.907970
v -24.302368 9.291898 -36.653564
v -24.280346 9.229974 -34.243725
v -23.646547 10.470222 -35.091763
v -23.176205 10.993056 -34.477001
v -22.334095 11.130707 -34.100136
v -13.944347 8.896259 -36.109718
v -14.446594 9.574252 -37.093636
v -14.659430 9.287798 -40.116432
v -14.464741 8.111540 -36.027897
v -16.841541 8.181082 -38.330513
v -17.524094 8.263021 -39.366806
v -19.661533 10.285954 -33.468166
v -19.122286 9.706642 -33.798092
v -23.537622 10.168129 -36.323578
v -23.407963 9.689472 -37.075199
v -22.387829 9.154040 -37.584652
v -20.582111 9.018591 -36.914776
v -23.267235 9.526025 -37.374226
v -22.809853 11.224860 -34.914043
v -23.224274 10.844578 -35.036053
v -20.621277 10.675800 -33.314354
v -21.517324 10.797451 -33.650314
v -21.746405 10.997189 -33.951572
v -23.539764 10.374754 -35.698177
v -14.493636 9.650320 -37.696285
v -16.710571 8.250750 -40.889557
v -19.700142 8.564436 -34.902584
v -19.570732 8.740896 -35.698261
v -19.904633 8.932356 -38.566048
v -18.645184 8.716722 -37.708565
v -20.085802 8.987761 -37.030884
v -21.355043 8.936556 -38.216152
v -20.442114 8.965982 -39.627132
v -18.504137 8.678084 -39.210861
v -24.738049 11.612305 -37.734154
v -24.140087 11.032202 -36.309711
v -24.327583 12.374443 -36.706074
v -22.034403 10.663082 -42.741917
v -22.929253 10.122030 -41.969898
v -21.891953 12.161552 -42.224480
v -17.254971 8.621235 -42.166153
v -16.336763 8.831569 -42.013439
v -24.328484 12.241617 -38.411678
v -20.600395 11.865170 -42.985878
v -16.165602 12.598176 -34.466953
v -15.387325 12.917093 -35.369957
v -16.850479 14.010808 -34.994564
v -20.555119 13.629584 -35.172401
v -19.611847 13.404425 -34.537605
v -20.252144 14.381347 -35.791492
v -22.053267 14.829716 -39.857121
v -22.450043 14.884999 -38.827160
v -21.241079 15.460329 -39.562168
v -17.225847 13.663716 -41.378803
v -18.119068 14.010764 -40.907860
v -17.277905 14.177867 -40.561989
v -14.187582 12.134542 -38.367748
v -14.312101 11.962440 -39.129303
v -15.303761 13.311716 -38.413509
v -17.646025 15.188150 -38.512890
v -17.874317 15.848204 -39.380997
v -18.337330 15.682463 -38.400173
v -16.565443 14.593552 -38.579559
v -17.222826 15.019940 -39.402596
v -15.935212 13.500404 -39.210258
v -17.678476 15.015005 -39.965858
v -16.544971 13.762780 -40.039989
v -15.087267 12.139064 -39.807796
v -16.440834 12.968198 -40.744793
v -18.873865 16.179537 -38.938171
v -18.523493 15.681334 -39.859074
v -18.307476 14.629577 -40.323551
v -19.971817 16.028477 -39.301132
v -19.447353 15.215303 -40.336349
v -19.204824 14.353620 -41.046989
v -20.699312 14.887872 -40.640377
v -19.314137 15.536510 -37.524391
v -20.340700 16.101698 -37.945049
v -21.579151 15.667492 -38.388695
v -20.008486 15.330782 -36.546764
v -21.107145 15.169479 -37.016846
v -22.142712 14.560123 -37.560040
v -21.340429 14.114975 -36.274055
v -18.291496 14.905376 -37.211441
v -18.810146 14.965804 -36.132721
v -19.134893 14.202771 -35.270439
v -17.559668 14.761774 -35.876476
v -18.006598 14.132710 -34.956264
v -18.624109 12.814077 -34.128132
v -17.459042 12.542791 -34.180119
v -16.905716 14.478073 -37.183617
v -16.410240 13.978761 -36.079216
v -15.579142 13.423518 -37.290012
v -14.677017 12.861206 -36.628300
v -14.362107 12.613423 -37.613968
v -14.384631 10.443004 -39.167595
v -14.627114 10.726363 -40.005608
v -15.254428 9.488993 -40.982132
v -15.806351 11.358675 -40.877056
v -16.615461 10.814483 -42.218407
v -16.955276 12.725877 -41.912155
v -18.099758 13.300306 -41.980110
v -19.251900 12.663273 -42.550461
v -19.181446 13.556946 -41.739147
v -20.592861 12.902333 -42.345982
v -20.518702 13.989618 -41.586750
v -22.116426 12.743694 -41.602646
v -22.108927 14.048120 -40.749176
v -22.911882 14.052119 -39.546101
v -23.612078 13.125623 -39.049458
v -22.888868 13.735267 -38.209141
v -23.660397 12.931684 -37.426468
v -22.409679 13.455873 -36.686596
v -22.917273 12.508551 -35.762783
v -21.459272 13.066198 -35.312027
v -20.434841 12.792812 -34.217171
v -20.612432 11.809752 -33.247162
v -19.613203 12.371152 -33.444958
v -19.604961 10.823067 -33.206226
v -18.468334 11.293658 -33.545746
v -18.060719 10.184260 -33.476551
v -16.898911 11.125315 -33.728096
v -14.822464 11.717950 -34.552692
v -14.132949 9.718393 -34.898869
v -13.892984 11.423577 -35.692421
v -14.327250 8.559668 -34.677666
v -14.014677 10.552117 -37.108856
v -14.254869 10.132641 -38.004158
v -17.813675 12.205315 -42.932396
v -17.466736 10.283179 -42.993362
v -19.119757 11.438519 -43.312130
v -18.663662 9.696582 -42.826340
v -20.539377 10.347574 -42.932083
v -23.210972 13.180010 -40.490627
v -23.297783 11.749213 -41.357479
v -24.195974 12.204934 -39.885643
v -24.059441 9.855900 -40.507328
v -24.577202 10.276381 -39.037125
v -21.730925 11.793365 -34.292881
v -15.812255 10.178986 -33.525864
v -17.360567 9.396059 -33.269485
v -15.057710 8.886574 -33.895699
v -18.942039 8.829111 -34.372654
v -16.728012 8.625360 -33.514584
v -14.857584 7.923133 -34.541473
v -14.566998 7.604984 -35.812935
v -19.079153 8.792858 -40.598587
v -17.936302 8.410500 -41.530235
v -20.169367 9.201170 -42.123390
v -21.349514 8.870398 -40.854507
v -21.878605 9.848906 -42.503983
v -22.517500 8.884288 -40.488914
v -22.069498 8.546640 -39.292969
v -23.670315 8.938396 -39.199673
v -22.992914 9.221557 -37.870640
v -24.212946 10.224957 -37.808327
v -17.773382 8.315346 -38.522629
v -15.548832 7.561718 -36.204601
v -17.358027 8.328860 -36.737957
v -16.858549 8.116478 -37.802959
v -18.810101 8.259722 -34.983868
v -18.578058 8.525671 -35.901493
v -16.341471 7.818982 -34.721489
v -15.440921 8.945264 -40.952576
vt 0.802653 0.806114
vt 0.802438 0.806072
vt 0.802694 0.805980
vt 0.802319 0.805940
vt 0.802298 0.806136
vt 0.802565 0.806563
vt 0.802677 0.806631
vt 0.802577 0.806797
vt 0.802458 0.806615
vt 0.802458 0.806380
vt 0.802370 0.806622
vt 0.802432 0.806820
vt 0.802351 0.806801
vt 0.802347 0.806317
vt 0.802354 0.806462
vt 0.802282 0.806405
vt 0.802306 0.806552
vt 0.802198 0.806205
vt 0.802123 0.806322
vt 0.802253 0.806517
vt 0.802080 0.806502
vt 0.802544 0.806934
vt 0.802454 0.806236
vt 0.802464 0.805910
vt 0.799173 0.802392
vt 0.799427 0.802683
vt 0.799124 0.802666
vt 0.799323 0.802345
vt 0.798957 0.802374
vt 0.799184 0.802235
vt 0.799319 0.802217
vt 0.799198 0.802162
vt 0.799044 0.802165
vt 0.799394 0.802321
vt 0.799442 0.802191
vt 0.799288 0.802131
vt 0.799439 0.802069
vt 0.799266 0.801973
vt 0.799119 0.802041
vt 0.798921 0.802066
vt 0.799061 0.801934
vt 0.798852 0.802247
vt 0.799086 0.802772
vt 0.798916 0.802615
vt 0.799348 0.802832
vt 0.799542 0.802734
vt 0.799482 0.802536
vt 0.799573 0.802606
vt 0.799470 0.802347
vt 0.799653 0.802334
vt 0.799621 0.802174
vt 0.799558 0.802020
vt 0.802103 0.806092
vt 0.802014 0.806247
vt 0.802175 0.806618
vt 0.802211 0.805998
vt 0.802727 0.806673
vt 0.802666 0.806833
vt 0.799003 0.801897
vt 0.798869 0.802036
vt 0.799719 0.802553
vt 0.799659 0.802716
vt 0.799367 0.802851
vt 0.799033 0.802784
vt 0.799574 0.802803
vt 0.799719 0.802110
vt 0.799713 0.802240
vt 0.799224 0.801872
vt 0.799404 0.801922
vt 0.799495 0.801925
vt 0.799714 0.802428
vt 0.802024 0.806334
vt 0.802412 0.806880
vt 0.802727 0.805919
vt 0.798910 0.802399
vt 0.798885 0.802539
vt 0.798073 0.812200
vt 0.797998 0.812094
vt 0.798133 0.812084
vt 0.798198 0.812216
vt 0.797158 0.809361
vt 0.797389 0.809282
vt 0.797264 0.809517
vt 0.796945 0.809505
vt 0.798296 0.809846
vt 0.798517 0.809761
vt 0.798442 0.809941
vt 0.797580 0.809972
vt 0.797657 0.809854
vt 0.797681 0.810105
vt 0.796619 0.810556
vt 0.796840 0.810280
vt 0.796839 0.810459
vt 0.798211 0.809947
vt 0.797530 0.810163
vt 0.797964 0.811351
vt 0.797824 0.811299
vt 0.797978 0.811148
vt 0.798349 0.810883
vt 0.798301 0.811028
vt 0.798235 0.810821
vt 0.797968 0.810346
vt 0.798089 0.810366
vt 0.797950 0.810450
vt 0.797500 0.810600
vt 0.797604 0.810565
vt 0.797583 0.810660
vt 0.797366 0.811155
vt 0.797294 0.811070
vt 0.797541 0.811019
vt 0.797795 0.810785
vt 0.797780 0.810691
vt 0.797858 0.810734
vt 0.797692 0.810864
vt 0.797706 0.810744
vt 0.797531 0.810888
vt 0.797695 0.810673
vt 0.797537 0.810761
vt 0.797303 0.810926
vt 0.797418 0.810712
vt 0.797862 0.810659
vt 0.797779 0.810628
vt 0.797682 0.810596
vt 0.797900 0.810569
vt 0.797781 0.810530
vt 0.797683 0.810483
vt 0.797827 0.810414
vt 0.797984 0.810736
vt 0.798013 0.810622
vt 0.798065 0.810496
vt 0.798112 0.810750
vt 0.798174 0.810624
vt 0.798262 0.810454
vt 0.798328 0.810688
vt 0.797931 0.810851
vt 0.798055 0.810888
vt 0.798171 0.810962
vt 0.797974 0.811004
vt 0.798084 0.811071
vt 0.798254 0.811181
vt 0.798138 0.811290
vt 0.797819 0.810962
vt 0.797857 0.811106
vt 0.797670 0.811103
vt 0.797645 0.811283
vt 0.797492 0.811205
vt 0.797050 0.811136
vt 0.796778 0.810964
vt 0.797071 0.810969
vt 0.796863 0.810746
vt 0.797187 0.810743
vt 0.797147 0.810511
vt 0.797387 0.810565
vt 0.797500 0.810484
vt 0.797506 0.810334
vt 0.797599 0.810420
vt 0.797624 0.810250
vt 0.797719 0.810344
vt 0.797766 0.810142
vt 0.797882 0.810259
vt 0.798041 0.810233
vt 0.798124 0.810098
vt 0.798224 0.810244
vt 0.798353 0.810078
vt 0.798493 0.810294
vt 0.798476 0.810557
vt 0.798660 0.810080
vt 0.798671 0.810665
vt 0.798481 0.810817
vt 0.798440 0.811023
vt 0.798561 0.811156
vt 0.798419 0.811175
vt 0.798541 0.811343
vt 0.798362 0.811376
vt 0.798397 0.811544
vt 0.798176 0.811510
vt 0.797834 0.811453
vt 0.797759 0.811615
vt 0.797701 0.811469
vt 0.797786 0.811701
vt 0.797657 0.811696
vt 0.797557 0.811531
vt 0.797240 0.811472
vt 0.797085 0.811357
vt 0.797363 0.810412
vt 0.797143 0.810333
vt 0.797376 0.810244
vt 0.797150 0.810120
vt 0.797418 0.810032
vt 0.797943 0.810117
vt 0.797816 0.809976
vt 0.798025 0.809961
vt 0.797843 0.809680
vt 0.798092 0.809693
vt 0.798663 0.810972
vt 0.798779 0.809787
vt 0.798038 0.811521
vt 0.798115 0.811640
vt 0.797935 0.811595
vt 0.798035 0.811680
vt 0.797858 0.811678
vt 0.798124 0.811816
vt 0.797969 0.811717
vt 0.797818 0.811742
vt 0.797747 0.811800
vt 0.797080 0.809706
vt 0.796779 0.809569
vt 0.796925 0.809896
vt 0.796854 0.810033
vt 0.797294 0.809893
vt 0.797418 0.809680
vt 0.797529 0.809902
vt 0.797581 0.809617
vt 0.797509 0.809448
vt 0.797759 0.809434
vt 0.798004 0.809456
vt 0.797654 0.809214
vt 0.798257 0.809372
vt 0.798281 0.809634
vt 0.797898 0.812129
vt 0.797942 0.812208
vt 0.797853 0.812188
vt 0.797792 0.811873
vt 0.797923 0.811979
vt 0.797847 0.812043
vt 0.798082 0.811876
vt 0.798043 0.811949
vt 0.797902 0.811801
vt 0.797750 0.811853
vt 0.797702 0.811781
vt 0.796763 0.810702
vt 0.798601 0.811409
vt 0.798675 0.811260
vt 0.797055 0.811562
vt 0.797012 0.811453
vt 0.798827 0.810845
vt 0.798759 0.811060
vt 0.798754 0.811128
vt 0.798176 0.811735
vt 0.796704 0.809851
vt 0.798358 0.809441
vt 0.798421 0.809487
vt 0.798554 0.809592
vt 0.798665 0.809663
vt 0.798317 0.809259
vt 0.797830 0.812085
vt 0.798130 0.811961
vt 0.798161 0.811895
vt 0.798577 0.811538
vt 0.798827 0.809874
vt 0.797543 0.811636
vt 0.798135 0.811825
vt 0.796921 0.811183
vt 0.796830 0.809746
vt 0.796615 0.809883
vt 0.797554 0.809172
vt 0.798176 0.812090
vt 0.798300 0.812196
vt 0.797795 0.811938
vt 0.798136 0.812003
vn -0.2929 -0.9548 -0.0510
vn 0.1624 -0.9636 0.2124
vn -0.2307 -0.9670 0.1081
vn -0.1963 -0.9791 0.0528
vn -0.1956 -0.9793 0.0529
vn -0.2054 -0.9774 0.0503
vn -0.2061 -0.9773 0.0500
vn 0.0839 -0.6704 -0.7373
vn 0.7956 -0.5677 -0.2117
vn 0.2805 -0.3720 -0.8848
vn 0.9785 -0.0370 0.2028
vn 0.7379 0.6703 -0.0791
vn 0.7901 0.6055 0.0954
vn 0.6598 0.7443 -0.1038
vn 0.7698 -0.2900 -0.5686
vn 0.7573 -0.3537 -0.5490
vn 0.4113 -0.6862 -0.5999
vn 0.8260 -0.3858 0.4109
vn 0.3901 -0.9207 -0.0138
vn 0.0269 -0.9873 -0.1564
vn 0.0267 -0.9875 -0.1553
vn 0.0255 -0.9885 -0.1492
vn 0.0251 -0.9887 -0.1475
vn -0.0818 -0.9719 -0.2206
vn -0.1915 -0.9770 -0.0940
vn -0.3261 -0.9319 -0.1591
vn 0.3714 -0.9176 0.1414
vn 0.1778 -0.9672 0.1817
vn -0.1435 -0.9807 -0.1329
vn -0.3393 -0.9402 0.0291
vn -0.2829 -0.9497 0.1343
vn -0.0769 -0.9941 -0.0769
vn 0.0164 -0.9898 -0.1419
vn 0.1445 -0.9891 -0.0279
vn 0.1671 -0.9703 0.1752
vn 0.1405 -0.9737 0.1792
vn -0.2638 -0.8823 0.3899
vn 0.0322 -0.9176 0.3962
vn 0.0498 -0.9962 0.0716
vn -0.1510 -0.7359 0.6600
vn -0.6091 0.0473 0.7917
vn -0.2499 -0.7047 0.6640
vn -0.3212 -0.1990 0.9258
vn -0.5456 0.1029 0.8317
vn -0.2828 0.6188 0.7329
vn -0.2349 0.6371 0.7342
vn -0.0051 0.0780 0.9969
vn -0.0000 0.4761 0.8794
vn 0.3324 -0.3392 0.8801
vn 0.6248 0.2582 0.7369
vn 0.2066 0.6047 0.7692
vn 0.6258 -0.1345 0.7683
vn 0.7985 -0.5086 0.3220
vn 0.4781 -0.7527 -0.4526
vn 0.4397 -0.8730 -0.2110
vn 0.0982 -0.7650 -0.6365
vn -0.8627 -0.3629 -0.3522
vn -0.8847 0.4658 0.0201
vn -0.9998 -0.0165 0.0087
vn -0.3326 -0.8858 -0.3238
vn -0.5039 -0.8536 0.1324
vn -0.8735 -0.4474 0.1917
vn -0.1292 -0.9832 -0.1290
vn -0.8244 0.5391 0.1723
vn -0.7376 0.1217 0.6642
vn -0.7787 0.5317 0.3331
vn -0.3737 0.7539 0.5403
vn -0.3655 0.7606 0.5366
vn -0.3645 0.7612 0.5364
vn -0.3644 0.7615 0.5361
vn -0.1528 0.8039 0.5748
vn 0.0054 -0.7979 -0.6028
vn 0.0270 -0.8124 -0.5825
vn 0.4215 -0.9053 0.0519
vn 0.7084 0.6886 0.1546
vn 0.2762 0.2357 -0.9317
vn 0.3172 0.2548 -0.9135
vn 0.7183 -0.3132 0.6213
vn -0.4630 -0.8584 0.2209
vn 0.7565 0.6271 0.1856
vn -0.5392 0.6651 -0.5166
vn 0.3326 0.5202 -0.7866
vn 0.7083 0.0498 -0.7042
vn -0.5434 0.6022 -0.5849
vn -0.6458 0.7499 -0.1436
vn -0.0189 0.9229 0.3846
vn 0.2262 0.9739 -0.0196
vn -0.6289 0.7433 -0.2278
vn 0.3814 -0.7096 0.5925
vn 0.5006 0.7559 -0.4220
vn 0.5928 0.8035 0.0552
vn 0.5928 0.8035 0.0551
vn -0.1012 -0.4983 -0.8611
vn -0.3340 -0.5603 -0.7579
vn 0.7100 -0.4113 0.5716
vn -0.5401 -0.8400 0.0519
vn -0.5209 -0.8465 0.1099
vn 0.9658 0.1802 -0.1863
vn 0.4590 -0.8818 -0.1085
vn 0.1644 -0.9594 -0.2294
vn -0.1058 0.2883 -0.9517
vn -0.6888 0.6876 -0.2295
vn -0.2698 0.9258 0.2648
vn 0.1952 0.9236 0.3299
vn 0.2805 0.8702 0.4051
vn -0.1751 -0.9845 0.0088
vn -0.1764 -0.9842 0.0116
vn -0.1783 -0.9839 0.0145
vn 0.0060 -0.9993 0.0368
vn -0.0094 -0.9996 -0.0269
vn -0.1569 -0.9864 0.0482
vn -0.9243 -0.0165 0.3813
vn -0.7193 0.2869 -0.6327
vn 0.2719 -0.8104 -0.5190
vn -0.8564 0.5147 -0.0396
vn -0.4215 0.3315 -0.8440
vn 0.5522 0.5131 0.6571
vn -0.2939 0.6754 0.6763
vn -0.5357 0.8067 -0.2497
vn 0.0496 0.8467 -0.5298
vn 0.7064 0.6597 -0.2565
vn 0.7050 0.6582 -0.2640
vn 0.7052 0.6582 -0.2634
vn 0.5764 0.7164 0.3931
vn 0.4842 0.8725 0.0653
vn 0.6804 0.6188 -0.3927
vn 0.7640 0.5944 0.2510
vn 0.6567 0.5305 -0.5359
vn 0.7483 0.5976 -0.2881
vn 0.7344 0.5771 -0.3572
vn 0.6229 0.5940 -0.5091
vn 0.6568 0.6200 -0.4292
vn 0.6516 0.6688 -0.3580
vn 0.5984 0.6039 -0.5265
vn 0.7231 0.6003 -0.3416
vn 0.6772 0.5359 -0.5041
vn 0.6706 0.5395 -0.5092
vn 0.6764 0.5364 -0.5047
vn 0.6693 0.5402 -0.5101
vn 0.7586 0.5721 -0.3117
vn 0.4292 0.8353 0.3437
vn 0.3749 0.5900 -0.7150
vn 0.0812 0.6036 -0.7931
vn 0.0983 0.8905 -0.4443
vn 0.0324 0.8842 -0.4660
vn 0.2308 0.4323 -0.8717
vn 0.2313 0.4324 -0.8715
vn 0.2312 0.4323 -0.8716
vn 0.2320 0.4324 -0.8713
vn -0.0602 0.7699 -0.6353
vn -0.1876 0.7240 -0.6638
vn 0.1469 0.7024 -0.6965
vn 0.3041 0.7013 -0.6447
vn 0.3432 0.6532 -0.6749
vn 0.0194 0.6394 -0.7686
vn -0.1012 0.8567 -0.5057
vn -0.3628 0.7351 -0.5726
vn 0.2977 0.8306 0.4705
vn -0.1088 0.9906 -0.0831
vn -0.3496 0.9002 -0.2596
vn 0.2717 0.8413 0.4673
vn 0.3100 0.8618 0.4015
vn -0.2865 0.9493 -0.1292
vn -0.4327 0.7894 0.4355
vn -0.3360 0.7888 0.5147
vn -0.3811 0.6335 0.6734
vn -0.5514 0.7798 -0.2965
vn -0.7174 0.6129 0.3311
vn -0.6161 0.6483 0.4473
vn -0.6176 0.5396 0.5721
vn -0.4447 0.5795 0.6830
vn -0.4316 0.6707 0.6032
vn 0.3353 0.7944 0.5064
vn 0.1734 0.9317 0.3193
vn -0.2377 0.6413 0.7295
vn 0.4759 0.8607 0.1806
vn 0.1570 0.9874 0.0202
vn -0.0008 0.7490 0.6625
vn -0.1278 0.7661 0.6298
vn 0.0172 0.8215 0.5700
vn 0.1037 0.7969 0.5952
vn -0.1933 0.7237 0.6625
vn 0.0747 0.6497 0.7565
vn -0.1841 0.5831 0.7912
vn 0.1493 0.4748 0.8673
vn 0.0777 0.4588 0.8851
vn 0.1794 0.4194 0.8899
vn 0.5697 0.6978 0.4342
vn 0.2952 0.9536 -0.0593
vn 0.5755 0.7903 0.2102
vn 0.2719 0.9035 0.3312
vn 0.4824 0.8555 0.1883
vn 0.5728 0.8123 0.1103
vn 0.6242 0.7780 0.0717
vn 0.6184 0.7564 0.2133
vn 0.7023 0.7045 0.1020
vn 0.6198 0.7505 0.2294
vn 0.5820 0.7578 0.2949
vn 0.5380 0.8428 -0.0172
vn 0.5472 0.8362 -0.0354
vn 0.5635 0.8242 0.0561
vn 0.7065 0.6599 -0.2557
vn 0.9875 -0.0433 -0.1517
vn 0.9606 -0.0002 -0.2780
vn 0.9564 -0.0383 -0.2897
vn 0.6652 0.3117 -0.6785
vn 0.6645 0.3165 -0.6770
vn 0.6650 0.3117 -0.6787
vn 0.8265 0.0248 -0.5623
vn 0.6558 0.2339 -0.7177
vn 0.6669 0.3121 -0.6766
vn 0.6634 0.3172 -0.6777
vn 0.6831 0.0206 -0.7300
vn 0.7760 0.2613 -0.5741
vn 0.7886 0.2315 -0.5696
vn 0.8236 0.3606 -0.4378
vn 0.7679 0.4694 -0.4359
vn 0.0330 0.8334 -0.5516
vn -0.0042 0.6723 -0.7402
vn 0.0060 0.6719 -0.7406
vn -0.0054 0.6724 -0.7402
vn -0.0361 0.5249 -0.8504
vn 0.0749 0.8319 -0.5499
vn 0.2916 0.6322 -0.7178
vn 0.0068 0.6719 -0.7407
vn 0.0898 0.5661 -0.8194
vn 0.1261 0.6527 -0.7470
vn 0.0765 0.7304 -0.6787
vn -0.3552 0.4927 -0.7944
vn -0.4025 0.5913 -0.6988
vn -0.4138 0.5400 -0.7329
vn -0.3872 0.5064 -0.7705
vn -0.3350 0.6506 -0.6815
vn -0.3760 0.7085 -0.5973
vn -0.6977 0.6489 -0.3036
vn -0.7416 0.6498 0.1668
vn -0.7558 0.6525 0.0555
vn -0.9069 0.4063 0.1119
vn -0.8142 0.4835 0.3214
vn -0.6869 0.7238 0.0660
vn -0.5174 0.7979 0.3093
vn -0.8149 0.4678 0.3423
vn -0.5795 0.5858 0.5666
vn -0.5797 0.5870 0.5651
vn -0.5798 0.5870 0.5649
vn -0.6755 0.7352 -0.0569
vn -0.3289 0.8697 0.3681
vn -0.5530 0.7144 0.4287
vn -0.4404 0.7366 0.5133
vn -0.5796 0.5855 0.5667
vn -0.4842 0.6267 0.6105
vn -0.4820 0.6217 0.6174
vn -0.4824 0.6212 0.6176
vn -0.2691 0.7057 0.6554
vn -0.2636 0.7015 0.6622
vn -0.2710 0.7069 0.6534
vn -0.2629 0.7013 0.6626
vn -0.2629 0.7012 0.6627
vn 0.1477 0.7185 0.6797
vn 0.1090 0.1521 0.9823
vn 0.2279 0.1444 0.9629
vn 0.2258 0.1493 0.9626
vn 0.2256 0.1497 0.9627
vn 0.4144 0.3623 0.8349
vn 0.1264 0.3661 0.9220
vn 0.2281 0.1439 0.9630
vn 0.1262 0.1079 0.9861
vn 0.1452 0.3522 0.9246
vn 0.1867 0.3647 0.9122
vn 0.4575 0.6378 0.6196
vn 0.7848 0.1673 0.5968
vn 0.9659 -0.1180 0.2305
vn 0.6883 0.6010 0.4061
vn 0.6963 0.6177 0.3656
vn 0.9810 -0.0509 0.1873
vn 0.9967 -0.0068 -0.0814
vn 0.9081 0.3173 -0.2733
vn 0.9440 0.2195 0.2464
vn 0.9511 0.0877 -0.2963
vn 0.9752 0.0074 0.2211
vn 0.3156 0.5363 -0.7828
vn 0.6826 0.2324 -0.6929
vn 0.6673 0.0168 -0.7446
vn 0.3712 0.6627 -0.6504
vn 0.0093 0.6576 -0.7533
vn 0.6190 0.1363 -0.7734
vn 0.2383 0.0737 -0.9684
vn -0.0595 0.5225 -0.8505
vn 0.2400 -0.4079 -0.8809
vn 0.0881 -0.4348 -0.8962
vn -0.0024 -0.2692 -0.9631
vn -0.0426 -0.2787 -0.9594
vn -0.2270 -0.0436 -0.9729
vn -0.1345 -0.0405 -0.9901
vn -0.6823 0.5705 -0.4573
vn -0.5328 0.4655 -0.7067
vn -0.5338 0.4635 -0.7073
vn -0.5326 0.4655 -0.7069
vn -0.5564 0.4968 -0.6660
vn -0.6209 0.6641 -0.4166
vn -0.8310 0.5144 -0.2119
vn -0.5352 0.4612 -0.7077
vn -0.7293 0.3864 -0.5647
vn -0.7462 0.6399 -0.1835
vn -0.8037 0.5886 -0.0869
vn -0.5541 0.1804 -0.8127
vn -0.7946 0.0479 -0.6053
vn -0.8366 0.0942 -0.5397
vn -0.9394 0.0357 -0.3410
vn -0.9838 0.1539 -0.0923
vn -0.9122 0.2245 -0.3428
vn -0.4848 0.6268 0.6101
vn -0.4381 0.6170 0.6538
vn -0.5319 0.4194 0.7356
vn -0.5015 0.6034 0.6200
vn -0.5281 0.6429 0.5548
vn -0.8061 0.0612 0.5886
vn 0.2687 0.3217 0.9079
vn 0.0219 0.2329 0.9723
vn 0.2205 0.4393 0.8709
vn 0.6452 0.0912 0.7586
vn 0.0217 0.2720 0.9620
vn 0.2306 -0.1409 0.9628
vn 0.6512 0.1684 0.7400
vn 0.7322 0.0072 0.6810
vn -0.3482 -0.5314 0.7723
vn 0.2376 -0.1118 0.9649
vn 0.2662 -0.4979 0.8254
vn 0.6059 -0.3522 0.7133
vn 0.7611 -0.5666 0.3157
vn 0.9905 -0.0561 -0.1254
vn -0.3779 -0.9224 0.0803
vn -0.3061 -0.7561 -0.5785
vn -0.3199 -0.9474 -0.0036
vn -0.3297 -0.9439 -0.0170
vn -0.0775 -0.7291 -0.6800
vn -0.1655 -0.6036 -0.7799
vn -0.1421 -0.9896 -0.0230
vn -0.0465 -0.9927 0.1117
vn -0.0042 -0.9667 -0.2559
vn -0.2306 -0.8675 -0.4407
vn -0.0412 -0.5848 -0.8101
vn -0.1837 -0.3080 -0.9335
vn -0.4945 -0.3297 -0.8042
vn -0.1563 -0.8707 -0.4664
vn 0.2301 -0.9685 -0.0947
vn -0.4463 -0.7438 -0.4976
vn -0.4604 -0.7399 -0.4904
vn -0.0868 -0.9668 -0.2404
vn -0.2437 -0.9534 -0.1779
vn -0.4849 -0.7772 -0.4010
vn -0.8277 -0.5445 -0.1358
vn 0.2769 -0.9476 0.1594
vn -0.0787 -0.9195 0.3852
vn -0.2096 -0.9291 0.3048
vn -0.5586 -0.7062 0.4351
vn -0.7967 -0.5658 0.2125
vn -0.9005 -0.3543 0.2521
vn -0.9048 -0.3550 0.2352
vn -0.3974 -0.9156 -0.0606
vn -0.3905 -0.9206 0.0004
vn -0.2631 -0.9623 0.0685
vn -0.3476 -0.9335 0.0880
vn -0.4314 -0.9020 -0.0173
vn -0.1747 -0.9846 0.0089
vn -0.3047 -0.7288 0.6132
vn -0.1355 -0.9419 -0.3073
vn -0.2034 -0.8429 0.4980
vn -0.0087 -0.8327 0.5536
vn -0.2266 -0.9694 -0.0941
vn -0.2217 -0.9705 -0.0945
vn -0.2264 -0.9695 -0.0943
vn -0.2213 -0.9706 -0.0944
vn -0.2395 -0.9631 -0.1228
vn -0.3794 -0.9243 -0.0424
vn 0.0452 -0.9799 0.1942
vn -0.0496 -0.9715 0.2317
vn 0.5220 -0.4203 -0.7422
vn 0.6357 -0.6113 -0.4713
vn 0.7555 -0.2910 -0.5869
vn 0.7465 -0.2886 -0.5995
vn -0.0766 -0.1898 0.9788
vn 0.8999 -0.4297 -0.0740
vn -0.5949 0.3265 0.7345
vn -0.6514 0.3078 0.6935
vn -0.3568 -0.0525 0.9327
vn -0.2881 -0.0043 0.9576
vn 0.0263 -0.9570 -0.2889
vn -0.6263 -0.7694 0.1258
vn -0.8050 -0.5642 0.1836
vn -0.2800 -0.8795 0.3847
vn -0.1163 -0.9854 -0.1244
vn -0.1462 -0.9891 0.0181
vn -0.3340 -0.9073 -0.2555
vn 0.6729 -0.6431 -0.3655
vn 0.1467 -0.9538 -0.2624
vn 0.9773 -0.2099 -0.0298
vn -0.0257 -0.4769 0.8786
vn 0.8342 -0.5432 0.0954
vn -0.5845 0.4129 0.6985
vn 0.7284 -0.3310 -0.5999
vn -0.6067 0.4025 0.6855
vn -0.8061 -0.2282 0.5460
vn -0.3207 -0.5641 0.7609
vn 0.9380 -0.3293 -0.1079
vn -0.0629 -0.9900 -0.1265
vn 0.9806 -0.1878 -0.0553
vn -0.0932 -0.9661 -0.2406
vn -0.5812 -0.8118 0.0554
vn -0.1523 -0.9842 0.0899
vn -0.7453 -0.5868 0.3165
vn -0.1007 -0.9874 0.1220
vn 0.1439 -0.9283 -0.3430
vn -0.1838 -0.9681 -0.1703
vn -0.0914 -0.9875 -0.1286
vn -0.2323 -0.9662 -0.1115
vn -0.2393 -0.9679 -0.0766
vn -0.1937 -0.7384 0.6459
vn -0.2640 -0.9065 -0.3295
usemtl Material.003
f 1/1/1 2/2/1 3/3/1
f 4/4/2 2/2/2 5/5/2
f 1/6/3 3/7/3 6/8/3
f 1/6/4 6/8/5 7/9/6
f 1/6/4 7/9/6 8/10/7
f 9/11/8 10/12/8 11/13/8
f 12/14/9 13/15/9 14/16/9
f 9/11/10 11/13/10 15/17/10
f 12/14/11 14/16/11 16/18/11
f 17/19/12 18/20/12 19/21/12
f 16/18/13 14/16/13 17/19/13
f 14/16/14 18/20/14 17/19/14
f 14/16/15 15/17/15 18/20/15
f 14/16/16 13/15/16 15/17/16
f 13/15/17 9/11/17 15/17/17
f 5/5/18 12/14/18 16/18/18
f 8/10/19 13/15/19 12/14/19
f 8/10/20 7/9/21 13/15/22
f 7/9/21 9/11/23 13/15/22
f 7/9/24 10/12/24 9/11/24
f 7/9/25 6/8/25 10/12/25
f 6/8/26 20/22/26 10/12/26
f 5/5/27 8/23/27 12/14/27
f 5/5/28 2/2/28 8/23/28
f 2/2/29 1/1/29 8/23/29
f 3/3/30 2/2/30 21/24/30
f 2/2/31 4/4/31 21/24/31
f 22/25/32 23/26/32 24/27/32
f 22/25/33 25/28/33 23/26/33
f 22/25/34 24/27/34 26/29/34
f 22/25/35 26/29/35 27/30/35
f 25/28/36 22/25/36 27/30/36
f 28/31/37 27/30/37 29/32/37
f 27/30/38 30/33/38 29/32/38
f 27/30/39 26/29/39 30/33/39
f 28/31/40 25/28/40 27/30/40
f 31/34/41 28/31/41 32/35/41
f 31/34/42 25/28/42 28/31/42
f 28/31/43 29/32/43 33/36/43
f 32/35/44 28/31/44 33/36/44
f 32/35/45 33/36/45 34/37/45
f 33/36/46 35/38/46 34/37/46
f 29/32/47 36/39/47 33/36/47
f 33/36/48 36/39/48 35/38/48
f 29/32/49 30/33/49 36/39/49
f 36/39/50 37/40/50 38/41/50
f 36/39/51 38/41/51 35/38/51
f 36/39/52 30/33/52 37/40/52
f 30/33/53 39/42/53 37/40/53
f 24/27/54 40/43/54 41/44/54
f 26/29/55 24/27/55 41/44/55
f 24/27/56 42/45/56 40/43/56
f 43/46/57 44/47/57 45/48/57
f 45/48/58 46/49/58 47/50/58
f 45/48/59 44/47/59 46/49/59
f 23/26/60 44/47/60 43/46/60
f 25/28/61 31/34/61 44/47/61
f 44/47/62 31/34/62 46/49/62
f 23/26/63 25/28/63 44/47/63
f 46/49/64 48/51/64 47/50/64
f 31/34/65 32/35/65 46/49/65
f 46/49/66 32/35/66 48/51/66
f 32/35/67 34/37/68 48/51/69
f 48/51/69 34/37/68 49/52/70
f 34/37/71 35/38/71 49/52/71
f 23/26/72 43/46/72 42/45/72
f 24/27/73 23/26/73 42/45/73
f 26/29/74 39/42/74 30/33/74
f 50/53/75 16/18/75 17/19/75 51/54/75
f 18/20/76 15/17/76 52/55/76
f 15/17/77 11/13/77 52/55/77
f 53/56/78 5/5/78 16/18/78
f 54/57/79 55/58/79 6/8/79 3/7/79
f 56/59/80 38/41/80 37/40/80 57/60/80
f 45/48/81 58/61/81 59/62/81
f 40/43/82 42/45/82 60/63/82 61/64/82
f 41/44/83 40/43/83 61/64/83
f 43/46/84 45/48/84 59/62/84 62/65/84
f 48/51/85 63/66/85 64/67/85
f 35/38/86 65/68/86 66/69/86
f 49/52/87 67/70/87 63/66/87
f 47/50/88 64/67/88 68/71/88
f 5/5/89 53/56/89 4/4/89
f 52/55/90 19/21/90 18/20/90
f 51/54/91 17/19/92 69/72/91
f 69/72/91 17/19/92 19/21/92
f 10/12/93 70/73/93 11/13/93
f 20/22/94 70/73/94 10/12/94
f 50/53/95 53/56/95 16/18/95
f 20/22/96 6/8/96 55/58/96
f 54/74/97 3/3/97 21/24/97
f 39/42/98 57/60/98 37/40/98
f 39/42/99 26/29/99 71/75/99
f 72/76/100 71/75/100 26/29/100 41/44/100
f 43/46/101 62/65/101 60/63/101 42/45/101
f 68/71/102 58/61/102 45/48/102 47/50/102
f 64/67/85 47/50/85 48/51/85
f 63/66/103 48/51/103 49/52/103
f 49/52/104 35/38/104 66/69/104 67/70/104
f 56/59/105 65/68/105 35/38/105 38/41/105
f 73/77/106 74/78/107 75/79/108
f 73/77/109 75/79/109 76/80/109
f 73/81/110 76/82/110 77/83/110
f 73/81/111 77/83/111 78/84/111
f 79/85/112 80/86/112 81/87/112
f 82/88/113 83/89/113 84/90/113
f 11/91/114 85/92/114 86/93/114
f 79/85/115 81/87/115 87/94/115
f 82/88/116 84/90/116 88/95/116
f 89/96/117 90/97/117 91/98/117
f 92/99/118 93/100/118 94/101/118
f 95/102/119 96/103/119 97/104/119
f 98/105/120 99/106/120 100/107/120
f 101/108/121 102/109/122 103/110/123
f 104/111/124 105/112/124 106/113/124
f 107/114/125 108/115/125 104/111/125
f 103/110/126 109/116/126 107/114/126
f 104/111/127 108/115/127 105/112/127
f 108/115/128 110/117/128 105/112/128
f 107/114/129 109/116/129 108/115/129
f 109/116/130 111/118/130 108/115/130
f 108/115/131 111/118/131 110/117/131
f 111/118/132 100/107/132 110/117/132
f 103/110/133 102/109/133 109/116/133
f 102/109/134 112/119/134 109/116/134
f 109/116/135 112/119/135 111/118/135
f 112/119/136 113/120/137 111/118/138
f 111/118/138 113/120/137 100/107/139
f 113/120/140 98/105/140 100/107/140
f 105/112/141 114/121/141 106/113/141
f 110/117/142 115/122/142 105/112/142
f 100/107/143 116/123/143 110/117/143
f 105/112/144 115/122/144 114/121/144
f 115/122/145 117/124/145 114/121/145
f 110/117/146 116/123/147 115/122/148
f 116/123/147 118/125/149 115/122/148
f 115/122/150 118/125/150 117/124/150
f 118/125/151 97/104/151 117/124/151
f 100/107/152 99/106/152 116/123/152
f 99/106/153 119/126/153 116/123/153
f 116/123/154 119/126/154 118/125/154
f 119/126/155 120/127/155 118/125/155
f 118/125/156 120/127/156 97/104/156
f 120/127/157 95/102/157 97/104/157
f 114/121/158 121/128/158 106/113/158
f 117/124/159 122/129/159 114/121/159
f 97/104/160 123/130/160 117/124/160
f 114/121/161 122/129/161 121/128/161
f 122/129/162 124/131/162 121/128/162
f 117/124/163 123/130/163 122/129/163
f 123/130/164 125/132/164 122/129/164
f 122/129/165 125/132/165 124/131/165
f 125/132/166 94/101/166 124/131/166
f 97/104/167 96/103/167 123/130/167
f 96/103/168 126/133/168 123/130/168
f 123/130/169 126/133/169 125/132/169
f 126/133/170 127/134/170 125/132/170
f 125/132/171 127/134/171 94/101/171
f 127/134/172 92/99/172 94/101/172
f 121/128/173 128/135/173 106/113/173
f 124/131/174 129/136/174 121/128/174
f 94/101/175 130/137/175 124/131/175
f 121/128/176 129/136/176 128/135/176
f 129/136/177 131/138/177 128/135/177
f 124/131/178 130/137/178 129/136/178
f 130/137/179 132/139/179 129/136/179
f 129/136/180 132/139/180 131/138/180
f 132/139/181 91/98/181 131/138/181
f 94/101/182 93/100/182 130/137/182
f 93/100/183 133/140/183 130/137/183
f 130/137/184 133/140/184 132/139/184
f 133/140/185 134/141/185 132/139/185
f 132/139/186 134/141/186 91/98/186
f 134/141/187 89/96/187 91/98/187
f 128/135/188 104/111/188 106/113/188
f 131/138/189 135/142/189 128/135/189
f 91/98/190 136/143/190 131/138/190
f 128/135/191 135/142/191 104/111/191
f 135/142/192 107/114/192 104/111/192
f 131/138/193 136/143/193 135/142/193
f 136/143/194 137/144/194 135/142/194
f 135/142/195 137/144/195 107/114/195
f 137/144/196 103/110/196 107/114/196
f 91/98/197 90/97/197 136/143/197
f 90/97/198 138/145/198 136/143/198
f 136/143/199 138/145/199 137/144/199
f 138/145/200 139/146/200 137/144/200
f 137/144/201 139/146/201 103/110/201
f 139/146/202 101/108/121 103/110/123
f 140/147/203 102/109/203 101/108/203
f 52/148/204 141/149/204 140/147/204
f 140/147/205 141/149/205 102/109/205
f 141/149/206 112/119/207 102/109/208
f 52/148/209 142/150/209 141/149/209
f 142/150/210 143/151/210 141/149/210
f 141/149/206 143/151/211 112/119/207
f 143/151/211 113/120/212 112/119/207
f 86/93/213 144/152/213 142/150/213
f 142/150/214 144/152/214 143/151/214
f 144/152/215 145/153/215 143/151/215
f 143/151/216 145/153/216 113/120/216
f 145/153/217 98/105/217 113/120/217
f 146/154/218 99/106/218 98/105/218
f 147/155/219 148/156/220 146/154/221
f 88/95/222 149/157/222 147/155/222
f 146/154/223 148/156/223 99/106/223
f 148/156/224 119/126/224 99/106/224
f 147/155/219 149/157/225 148/156/220
f 149/157/226 150/158/226 148/156/226
f 148/156/227 150/158/227 119/126/227
f 150/158/228 120/127/228 119/126/228
f 88/95/229 84/90/229 149/157/229
f 84/90/230 151/159/230 149/157/230
f 149/157/231 151/159/231 150/158/231
f 151/159/232 152/160/232 150/158/232
f 150/158/233 152/160/233 120/127/233
f 152/160/234 95/102/234 120/127/234
f 153/161/235 96/103/235 95/102/235
f 154/162/236 155/163/236 153/161/236
f 87/94/237 156/164/237 154/162/237
f 153/161/238 155/163/238 96/103/238
f 155/163/239 126/133/239 96/103/239
f 154/162/240 156/164/240 155/163/240
f 156/164/241 157/165/241 155/163/241
f 155/163/242 157/165/242 126/133/242
f 157/166/243 127/134/244 126/133/245
f 87/94/246 81/87/246 156/164/246
f 81/87/247 158/167/247 156/164/247
f 156/164/248 158/167/248 157/165/248
f 158/168/249 159/169/249 157/166/249
f 157/166/243 159/169/250 127/134/244
f 159/169/251 92/99/252 127/134/253
f 160/170/254 93/100/255 92/99/256
f 161/171/257 162/172/258 160/170/254
f 160/170/254 162/172/258 93/100/255
f 162/172/259 133/140/259 93/100/259
f 161/171/260 163/173/260 162/172/260
f 163/173/261 164/174/262 162/172/263
f 162/172/264 164/174/264 133/140/264
f 164/174/265 134/141/265 133/140/265
f 163/173/261 165/175/266 164/174/262
f 165/175/267 166/176/267 164/174/267
f 164/174/268 166/176/268 134/141/268
f 166/176/269 89/96/269 134/141/269
f 167/177/270 90/97/270 89/96/270
f 168/178/271 169/179/271 167/177/271
f 170/180/272 50/181/272 168/178/272
f 167/177/273 169/179/273 90/97/273
f 169/179/274 138/145/274 90/97/274
f 168/178/275 50/181/275 169/179/275
f 50/181/276 171/182/276 169/179/276
f 169/179/277 171/182/277 138/145/277
f 171/183/278 139/146/278 138/145/278
f 171/183/279 172/184/279 139/146/279
f 172/184/280 101/108/280 139/146/280
f 145/153/281 146/154/281 98/105/281
f 144/152/282 173/185/282 145/153/282
f 86/93/283 174/186/283 144/152/283
f 145/153/284 173/185/284 146/154/284
f 173/185/285 147/155/285 146/154/285
f 144/152/286 174/186/286 173/185/286
f 174/186/287 175/187/287 173/185/287
f 173/185/288 175/187/288 147/155/288
f 175/187/222 88/95/222 147/155/222
f 86/93/289 85/92/289 174/186/289
f 85/92/290 176/188/290 174/186/290
f 174/186/291 176/188/291 175/187/291
f 176/188/292 177/189/292 175/187/292
f 175/187/293 177/189/293 88/95/293
f 177/189/294 82/88/294 88/95/294
f 152/160/295 153/161/295 95/102/295
f 151/159/296 178/190/297 152/160/298
f 84/90/299 179/191/299 151/159/299
f 152/160/300 178/190/300 153/161/300
f 178/190/301 154/162/301 153/161/301
f 151/159/296 179/191/302 178/190/297
f 179/191/303 180/192/303 178/190/303
f 178/190/304 180/192/304 154/162/304
f 180/192/305 87/94/305 154/162/305
f 84/90/306 83/89/306 179/191/306
f 83/89/307 181/193/307 179/191/307
f 179/191/308 181/193/308 180/192/308
f 181/193/309 182/194/309 180/192/309
f 180/192/310 182/194/310 87/94/310
f 182/194/311 79/85/311 87/94/311
f 159/169/251 160/170/312 92/99/252
f 158/168/313 183/195/313 159/169/313
f 81/87/314 64/196/314 158/167/314
f 159/169/315 183/195/315 160/170/315
f 183/195/316 161/171/316 160/170/316
f 81/87/317 80/86/317 64/196/317
f 166/197/318 167/177/318 89/96/318
f 165/198/319 184/199/319 166/197/319
f 166/197/320 184/199/320 167/177/320
f 184/199/321 168/178/321 167/177/321
f 165/198/322 185/200/322 184/199/322
f 185/200/323 186/201/323 184/199/323
f 184/199/324 186/201/324 168/178/324
f 186/201/325 170/180/325 168/178/325
f 187/202/326 188/203/326 185/200/326
f 185/200/327 188/203/327 186/201/327
f 188/203/328 189/204/328 186/201/328
f 186/201/329 189/204/329 170/180/329
f 189/204/330 190/205/330 170/180/330
f 172/184/331 140/147/331 101/108/331
f 78/84/332 191/206/332 55/207/332
f 192/208/333 176/188/333 85/209/333
f 55/207/334 191/206/334 192/208/334
f 191/206/335 193/210/335 192/208/335
f 192/208/336 193/210/336 176/188/336
f 193/210/337 177/189/337 176/188/337
f 78/84/338 77/83/338 191/206/338
f 77/83/339 194/211/339 191/206/339
f 191/206/340 194/211/340 193/210/340
f 194/211/341 195/212/341 193/210/341
f 193/210/342 195/212/342 177/189/342
f 195/212/343 82/88/343 177/189/343
f 195/212/344 83/89/344 82/88/344
f 194/211/345 196/213/345 195/212/345
f 77/83/346 197/214/346 194/211/346
f 195/212/347 196/213/347 83/89/347
f 196/213/348 181/193/348 83/89/348
f 194/211/349 197/214/349 196/213/349
f 197/214/350 198/215/350 196/213/350
f 196/213/351 198/215/351 181/193/351
f 198/216/352 182/194/352 181/193/352
f 77/83/353 76/82/353 197/214/353
f 76/82/354 199/217/354 197/214/354
f 197/214/355 199/217/355 198/215/355
f 199/218/356 200/219/356 198/216/356
f 198/216/357 200/219/357 182/194/357
f 200/219/358 79/85/358 182/194/358
f 200/219/359 80/86/359 79/85/359
f 201/220/360 78/221/360 55/222/360
f 202/223/361 203/224/361 204/225/361
f 204/225/362 203/224/362 201/220/362
f 203/224/363 74/78/363 201/220/363
f 201/220/364 74/78/364 78/221/364
f 74/78/107 73/77/106 78/221/365
f 205/226/366 188/203/366 187/202/366
f 206/227/367 207/228/367 205/226/367
f 205/226/368 207/228/368 188/203/368
f 207/228/369 189/204/369 188/203/369
f 75/79/370 74/78/371 206/227/372
f 74/78/371 203/224/373 206/227/372
f 206/227/374 203/224/374 207/228/374
f 203/224/375 202/223/375 207/228/375
f 207/228/376 202/223/376 189/204/376
f 202/223/377 190/205/377 189/204/377
f 190/205/378 4/229/378 53/230/378
f 86/93/379 208/231/379 11/91/379
f 208/231/380 142/150/380 52/148/380
f 142/150/381 208/231/381 86/93/381
f 56/232/382 163/173/382 161/171/382 65/233/382
f 171/183/383 51/234/383 69/235/383 172/184/383
f 183/195/384 63/236/384 67/237/384
f 161/171/385 183/195/385 67/237/385 66/238/385
f 65/233/386 161/171/386 66/238/386
f 165/198/387 57/239/387 185/200/387
f 192/208/388 85/209/388 70/240/388
f 200/219/389 62/241/389 59/242/389
f 80/86/390 58/243/390 68/244/390
f 60/245/391 62/241/391 199/218/391
f 204/225/392 201/220/392 54/246/392
f 55/222/393 54/246/393 201/220/393
f 72/247/394 205/226/394 71/248/394
f 208/231/395 52/148/395 11/91/395
f 4/229/396 190/205/396 202/223/396
f 190/205/397 53/230/397 170/180/397
f 57/249/398 165/175/398 163/173/398 56/232/398
f 170/180/399 53/230/399 50/181/399
f 64/196/400 63/250/400 158/167/400
f 50/181/401 51/251/401 171/182/401
f 63/236/402 183/195/402 158/168/402
f 80/86/403 68/244/403 64/196/403
f 187/202/404 185/200/404 57/239/404 39/252/404
f 140/147/405 172/184/405 69/235/405 19/253/405
f 192/208/406 70/240/406 20/254/406
f 52/148/407 140/147/407 19/253/407
f 11/255/408 70/240/408 85/209/408
f 55/207/409 192/208/409 20/254/409
f 199/218/389 62/241/389 200/219/389
f 76/82/410 60/256/410 199/217/410
f 58/243/411 80/86/411 200/219/411 59/242/411
f 76/80/412 75/79/412 61/257/412 60/258/412
f 21/259/413 4/229/413 202/223/413
f 54/246/414 21/259/414 202/223/414 204/225/414
f 61/257/415 75/79/415 41/260/415
f 206/227/416 72/247/416 41/260/416
f 206/227/417 41/260/417 75/79/417
f 205/226/418 187/202/418 39/252/418 71/248/418
f 72/247/419 206/227/419 205/226/419
