mtllib LOW_POLY_set.mtl
o lp_tree5_Cube_015
v 21.158098 9.084097 -40.974957
v 22.883759 9.510335 -41.458267
v 22.745060 8.833070 -39.522163
v 21.798971 9.942348 -42.995335
v 23.784918 10.112714 -42.867405
v 24.544165 9.321368 -40.630627
v 24.323635 8.719193 -38.518585
v 22.549362 8.695792 -38.117332
v 21.127329 8.961402 -39.184387
v 23.436604 9.598459 -37.200691
v 25.161255 10.236056 -38.206928
v 25.531174 9.753246 -39.782810
v 25.301384 10.297681 -41.806999
v 25.687849 11.062128 -40.213284
v 24.729103 11.538670 -42.151890
v 24.136908 11.060792 -43.226982
v 23.095898 12.466530 -43.000889
v 24.757406 12.007556 -40.602917
v 23.353634 12.693373 -41.513428
v 22.237089 13.245583 -42.006447
v 23.654552 12.458113 -39.956264
v 22.355625 13.058565 -40.632824
v 21.629593 12.432958 -43.176224
v 21.299608 12.629671 -41.564453
v 20.381880 11.092638 -42.543503
v 20.561527 11.521407 -41.198662
v 21.513565 12.261055 -40.116665
v 20.911209 11.353950 -40.324066
v 22.010416 11.403637 -39.087761
v 22.516539 12.409288 -39.579060
v 22.573784 10.565822 -37.683151
v 23.391596 11.756358 -38.468430
v 21.543602 10.529832 -38.957188
v 21.659069 9.462340 -37.947285
v 24.041616 10.912867 -37.467461
v 24.905405 11.715563 -38.897579
v 20.497963 10.019936 -39.597088
v 20.154762 10.518210 -41.098213
v 20.219408 9.335541 -40.577007
v 20.487221 9.826745 -42.280296
v 21.080753 10.881480 -43.504383
v 22.595901 11.295487 -43.753185
vt 0.793468 0.803383
vt 0.793737 0.803821
vt 0.793136 0.803891
vt 0.794106 0.803388
vt 0.791730 0.801375
vt 0.792052 0.801109
vt 0.792049 0.801500
vt 0.791694 0.801736
vt 0.791322 0.801533
vt 0.791304 0.801931
vt 0.791041 0.801647
vt 0.793003 0.803442
vt 0.792698 0.803858
vt 0.791809 0.803239
vt 0.791338 0.803258
vt 0.791516 0.802761
vt 0.791726 0.803632
vt 0.791694 0.801974
vt 0.791519 0.802258
vt 0.791961 0.801778
vt 0.791903 0.802054
vt 0.792176 0.801801
vt 0.792202 0.801583
vt 0.792568 0.801608
vt 0.792143 0.802097
vt 0.792515 0.801979
vt 0.792879 0.801913
vt 0.792329 0.802308
vt 0.792691 0.802249
vt 0.793352 0.801926
vt 0.793046 0.802232
vt 0.793236 0.801494
vt 0.793558 0.802374
vt 0.793221 0.802554
vt 0.792812 0.802525
vt 0.793022 0.802709
vt 0.792586 0.802818
vt 0.792535 0.802504
vt 0.792200 0.803181
vt 0.792189 0.802696
vt 0.792704 0.803061
vt 0.792116 0.803646
vt 0.792583 0.803494
vt 0.791888 0.802899
vt 0.791883 0.802401
vt 0.793052 0.803116
vt 0.793417 0.802829
vt 0.793332 0.803172
vt 0.793795 0.803058
vt 0.794106 0.802143
vt 0.793864 0.802611
vt 0.793733 0.802120
vt 0.793763 0.801634
vt 0.792380 0.801310
vn 0.1426 -0.9374 -0.3177
vn 0.1302 -0.9268 -0.3524
vn 0.1019 -0.9366 -0.3352
vn 0.0702 -0.9327 -0.3538
vn 0.0552 -0.9437 -0.3262
vn -0.0092 -0.9951 -0.0985
vn -0.1016 -0.9886 -0.1108
vn -0.0933 -0.9932 -0.0697
vn 0.0982 -0.9597 -0.2634
vn 0.5682 -0.4547 0.6858
vn 0.1496 -0.7730 0.6165
vn 0.7915 -0.5071 0.3412
vn 0.5218 -0.8332 -0.1831
vn 0.9735 -0.1677 -0.1556
vn 0.9702 -0.0375 0.2392
vn 0.5727 -0.7730 -0.2729
vn 0.8811 0.3061 -0.3605
vn 0.8091 0.2218 -0.5443
vn 0.5444 -0.4665 -0.6971
vn 0.3950 -0.8157 -0.4227
vn 0.6091 0.5439 -0.5773
vn 0.7386 0.6413 -0.2076
vn 0.5514 0.7956 -0.2509
vn 0.5656 0.7950 -0.2192
vn 0.5076 0.8343 -0.2152
vn 0.3915 0.9180 0.0630
vn 0.4070 0.9115 0.0591
vn 0.4100 0.9078 0.0882
vn -0.6055 0.7656 -0.2174
vn 0.0518 0.8074 -0.5878
vn -0.4887 0.8579 0.1590
vn -0.7641 0.6027 -0.2300
vn -0.7605 0.5935 0.2635
vn -0.8398 0.5396 -0.0598
vn -0.5635 0.7769 0.2811
vn -0.7118 0.3310 0.6195
vn -0.8017 0.4398 0.4048
vn -0.3930 0.7548 0.5251
vn -0.4531 0.5649 0.6896
vn -0.4533 0.5650 0.6895
vn -0.4365 0.6848 0.5835
vn -0.4534 0.5650 0.6894
vn -0.7009 0.4491 0.5541
vn -0.6987 0.4548 0.5522
vn -0.6985 0.4556 0.5519
vn -0.6767 0.4488 0.5837
vn -0.3920 0.1062 0.9138
vn -0.7011 0.4485 0.5543
vn -0.2586 0.6494 0.7152
vn -0.2049 0.2844 0.9366
vn 0.5212 -0.0673 0.8508
vn 0.1811 0.8069 0.5623
vn 0.6619 0.4080 0.6288
vn 0.8756 0.3202 0.3617
vn 0.6986 0.7129 0.0614
vn 0.4329 0.8940 0.1155
vn 0.1495 0.8838 0.4433
vn -0.6162 0.5062 0.6034
vn -0.6162 0.5051 0.6043
vn -0.6160 0.5144 0.5966
vn -0.8244 -0.3040 0.4774
vn -0.2962 -0.5215 0.8002
vn -0.5074 -0.7006 0.5018
vn -0.8319 0.4412 0.3366
vn -0.9696 0.0524 0.2391
vn -0.6159 0.5155 0.5957
vn -0.8314 -0.3161 0.4571
vn -0.9715 -0.1380 -0.1925
vn -0.3666 -0.8770 -0.3106
vn -0.2858 -0.9557 -0.0704
vn -0.3275 -0.6314 -0.7029
vn -0.8138 -0.1824 -0.5518
vn -0.9718 -0.1228 -0.2015
vn -0.1545 -0.8908 -0.4274
vn -0.7078 0.3768 -0.5976
vn -0.2292 0.2784 -0.9327
vn -0.0117 -0.4834 -0.8753
vn 0.0906 0.5106 -0.8550
vn 0.3502 0.3959 -0.8489
vn 0.0997 -0.5303 -0.8419
vn 0.2354 -0.4198 -0.8766
vn -0.9266 0.3761 0.0039
vn -0.8324 0.3781 0.4052
vn 0.1075 0.8917 0.4396
vn 0.1310 0.8528 0.5055
usemtl Material.003
f 1/1/1 2/2/1 3/3/1
f 2/2/2 1/1/2 4/4/2
f 2/5/3 4/6/3 5/7/3
f 2/5/4 5/7/4 6/8/4
f 2/5/5 6/8/5 3/9/5
f 3/9/6 7/10/6 8/11/6
f 9/12/7 3/3/7 8/13/7
f 9/12/8 1/1/8 3/3/8
f 3/9/9 6/8/9 7/10/9
f 10/14/10 7/15/10 11/16/10
f 8/17/11 7/15/11 10/14/11
f 7/10/12 12/18/12 11/19/12
f 6/8/13 12/18/13 7/10/13
f 12/18/14 13/20/14 14/21/14
f 12/18/15 14/21/15 11/19/15
f 6/8/16 13/20/16 12/18/16
f 14/21/17 13/20/17 15/22/17
f 13/20/18 16/23/18 15/22/18
f 5/7/19 16/23/19 13/20/19
f 6/8/20 5/7/20 13/20/20
f 16/23/21 17/24/21 15/22/21
f 14/21/22 15/22/22 18/25/22
f 15/22/23 19/26/23 18/25/23
f 15/22/24 17/24/24 19/26/24
f 17/24/25 20/27/25 19/26/25
f 21/28/26 19/26/26 22/29/26
f 18/25/27 19/26/27 21/28/27
f 19/26/28 20/27/28 22/29/28
f 23/30/29 24/31/29 20/27/29
f 17/32/30 23/30/30 20/27/30
f 20/27/31 24/31/31 22/29/31
f 23/30/32 25/33/32 24/31/32
f 24/31/33 26/34/33 27/35/33
f 25/33/34 26/34/34 24/31/34
f 22/29/35 24/31/35 27/35/35
f 27/35/36 28/36/36 29/37/36
f 26/34/37 28/36/37 27/35/37
f 22/29/38 27/35/38 30/38/38
f 27/35/39 29/37/40 30/38/40
f 29/37/41 31/39/41 32/40/41
f 29/37/40 32/40/42 30/38/40
f 33/41/43 31/39/44 29/37/45
f 28/36/46 33/41/46 29/37/46
f 34/42/47 10/14/47 31/39/47
f 34/43/48 31/39/44 33/41/43
f 31/39/49 35/44/49 32/40/49
f 10/14/50 35/44/50 31/39/50
f 10/14/51 11/16/51 35/44/51
f 35/44/52 36/45/52 32/40/52
f 11/16/53 36/45/53 35/44/53
f 11/19/54 14/21/54 36/45/54
f 14/21/55 18/25/55 36/45/55
f 36/45/56 18/25/56 21/28/56
f 32/40/57 36/45/57 21/28/57
f 37/46/58 34/43/59 33/41/60
f 37/46/61 9/12/61 34/43/61
f 8/17/62 10/14/62 34/42/62
f 9/12/63 8/13/63 34/43/63
f 38/47/64 37/46/64 28/36/64
f 39/48/65 37/46/65 38/47/65
f 37/46/58 33/41/60 28/36/66
f 39/48/67 9/12/67 37/46/67
f 40/49/68 39/48/68 38/47/68
f 1/1/69 39/48/69 40/49/69
f 39/48/70 1/1/70 9/12/70
f 4/50/71 40/51/71 41/52/71
f 41/52/72 40/51/72 25/33/72
f 25/33/73 40/51/73 38/47/73
f 4/4/74 1/1/74 40/49/74
f 41/52/75 25/33/75 23/30/75
f 42/53/76 41/52/76 23/30/76
f 4/50/77 41/52/77 42/53/77
f 17/32/78 42/53/78 23/30/78
f 16/23/79 42/54/79 17/24/79
f 5/7/80 4/6/80 42/54/80
f 5/7/81 42/54/81 16/23/81
f 25/33/82 38/47/82 26/34/82
f 38/47/83 28/36/83 26/34/83
f 32/40/84 21/28/84 30/38/84
f 21/28/85 22/29/85 30/38/85
