mtllib LOW_POLY_set.mtl
o lp_tree1_Icosphere_016
v -32.785004 8.147017 -34.244148
v -34.057720 7.961396 -35.420731
v -32.625561 8.311146 -35.926098
v -34.605675 8.115892 -34.171268
v -34.175011 8.139044 -37.111839
v -35.535213 8.217281 -35.880981
v -35.781197 9.065014 -34.444920
v -36.080570 9.222938 -35.929909
v -35.345711 8.864770 -37.455902
v -35.801838 10.328339 -36.708027
v -34.057800 9.057459 -38.375973
v -34.710453 10.294766 -38.115486
v -34.926228 11.265286 -37.121983
v -35.089890 11.310662 -35.657429
v -35.607708 10.347685 -34.601597
v -35.157429 10.440499 -33.612560
v -35.037136 11.314352 -34.367725
v -34.154003 12.370013 -35.011288
v -34.036346 11.675459 -33.663307
v -33.648678 10.385871 -32.918125
v -32.623589 11.353162 -33.258827
v -32.672226 12.080202 -34.182163
v -31.150768 11.215088 -33.795677
v -31.252991 11.727999 -34.877430
v -33.065147 12.379141 -35.356018
v -32.561226 11.962319 -36.215866
v -34.088303 11.957177 -36.280327
v -33.869686 11.464474 -37.526367
v -30.193098 11.313963 -35.595623
v -31.855877 11.311599 -37.003765
v -33.243332 10.409672 -38.193901
v -30.487139 10.469173 -36.649578
v -32.640148 9.197446 -37.568779
v -29.830894 10.424812 -35.063004
v -30.670986 9.465988 -36.015114
v -30.408920 10.344364 -33.864079
v -30.321470 11.154835 -34.303833
v -30.854322 9.079520 -34.775372
v -31.880531 10.192890 -33.079475
v -31.627800 9.095713 -33.559612
v -33.317867 8.703032 -32.994614
v -34.784065 9.008770 -33.282272
vt 0.822464 0.808916
vt 0.822121 0.808761
vt 0.822425 0.808551
vt 0.822107 0.809089
vt 0.824382 0.810951
vt 0.824033 0.810887
vt 0.824327 0.810590
vt 0.824162 0.811246
vt 0.821739 0.808801
vt 0.822010 0.811206
vt 0.821488 0.810821
vt 0.821975 0.810673
vt 0.822284 0.810951
vt 0.823794 0.811093
vt 0.822562 0.811395
vt 0.822684 0.810848
vt 0.823767 0.810786
vt 0.823457 0.810838
vt 0.823105 0.811181
vt 0.823067 0.810678
vt 0.822739 0.810401
vt 0.822294 0.810411
vt 0.822091 0.810121
vt 0.822528 0.810094
vt 0.822898 0.810087
vt 0.822719 0.809847
vt 0.822334 0.809797
vt 0.822602 0.809530
vt 0.822887 0.809582
vt 0.823017 0.809776
vt 0.823180 0.809389
vt 0.823355 0.809635
vt 0.823096 0.810010
vt 0.823304 0.810074
vt 0.823059 0.810307
vt 0.823299 0.810490
vt 0.823741 0.809562
vt 0.823587 0.810114
vt 0.823602 0.810544
vt 0.823958 0.809910
vt 0.823922 0.810524
vt 0.823802 0.809197
vt 0.824218 0.809497
vt 0.824264 0.809080
vt 0.824240 0.810055
vt 0.823515 0.808927
vt 0.823434 0.809270
vt 0.824024 0.808725
vt 0.823201 0.809064
vt 0.822870 0.809279
vt 0.822778 0.809026
vt 0.822923 0.808736
vt 0.822469 0.809196
vt 0.822215 0.809402
vt 0.821595 0.810382
vt 0.824547 0.810104
vn 0.2115 -0.9745 -0.0750
vn 0.0222 -0.9910 0.1323
vn 0.1968 -0.9736 -0.1159
vn -0.1415 -0.9855 -0.0937
vn -0.1830 -0.9823 0.0412
vn -0.6402 -0.7046 0.3063
vn -0.8746 -0.4681 0.1265
vn -0.4000 -0.8298 -0.3893
vn -0.8346 -0.4668 -0.2924
vn -0.9050 -0.0674 -0.4200
vn -0.3000 -0.7583 -0.5788
vn -0.5641 -0.1258 -0.8160
vn -0.7877 0.0674 -0.6124
vn -0.7131 0.4177 -0.5630
vn -0.7492 0.6542 -0.1040
vn -0.8429 0.5331 0.0728
vn -0.9504 0.2994 0.0848
vn -0.9027 0.1704 0.3950
vn -0.8425 0.4139 0.3447
vn -0.8643 0.5019 0.0339
vn -0.9649 0.1563 0.2111
vn -0.7579 0.6518 0.0291
vn -0.5544 0.7192 0.4189
vn -0.6008 0.5685 0.5621
vn -0.1451 0.4620 0.8749
vn 0.0022 0.7857 0.6186
vn -0.3761 0.3762 0.8468
vn -0.0860 0.8826 0.4623
vn 0.2841 0.7605 0.5839
vn 0.3886 0.8462 0.3645
vn 0.3021 0.9431 0.1390
vn 0.0635 0.9720 0.2263
vn 0.3798 0.9000 -0.2137
vn -0.1069 0.9439 -0.3126
vn 0.0151 0.9032 -0.4290
vn 0.0123 0.9306 -0.3658
vn 0.3381 0.8516 -0.4007
vn 0.2909 0.9494 -0.1181
vn 0.1967 0.8351 -0.5137
vn -0.3798 0.6192 -0.6873
vn -0.3143 0.8627 -0.3963
vn -0.0850 0.4963 -0.8640
vn 0.2412 0.6172 -0.7489
vn 0.4452 0.3831 -0.8093
vn -0.0660 0.1721 -0.9829
vn 0.4999 -0.1873 -0.8456
vn 0.4822 -0.1999 -0.8529
vn 0.5220 0.5885 -0.6174
vn 0.9153 0.1486 -0.3744
vn 0.8492 -0.3846 -0.3620
vn 0.5746 -0.5101 -0.6401
vn 0.8879 0.1416 0.4376
vn 0.8838 0.4455 0.1427
vn 0.7858 -0.6139 -0.0752
vn 0.7817 -0.5216 0.3419
vn 0.5050 0.3689 0.7803
vn 0.4256 0.2954 0.8553
vn 0.4751 -0.2586 0.8411
vn 0.6920 -0.5663 0.4478
vn 0.3514 -0.7905 0.5016
vn 0.3646 -0.3015 0.8810
vn 0.4818 -0.8168 0.3174
vn -0.2752 -0.7054 0.6532
vn -0.2089 -0.0854 0.9742
vn 0.0878 -0.0280 0.9957
vn 0.0322 -0.9080 0.4178
vn -0.6126 -0.6158 0.4956
vn -0.7593 -0.0483 0.6489
vn -0.4129 0.1011 0.9051
vn 0.1126 0.2218 0.9686
vn 0.3492 0.3575 0.8661
vn 0.4237 -0.9045 -0.0481
vn 0.4928 -0.8488 -0.1917
vn 0.2996 0.8727 0.3855
vn 0.4478 0.8809 0.1530
vn 0.4451 -0.7864 -0.4283
vn 0.4204 -0.7969 -0.4337
vn 0.3732 -0.7667 -0.5224
vn -0.5790 0.8104 -0.0898
vn -0.6347 0.7246 -0.2686
usemtl Material.004
f 1/1/1 2/2/1 3/3/1
f 2/2/2 1/1/2 4/4/2
f 2/5/3 5/6/3 3/7/3
f 2/5/4 6/8/4 5/6/4
f 2/2/5 4/4/5 6/9/5
f 6/10/6 4/11/6 7/12/6
f 6/10/7 7/12/7 8/13/7
f 5/6/8 6/8/8 9/14/8
f 6/10/9 8/13/9 9/15/9
f 9/15/10 8/13/10 10/16/10
f 5/6/11 9/14/11 11/17/11
f 11/17/12 9/14/12 12/18/12
f 12/19/13 9/15/13 10/16/13
f 12/19/14 10/16/14 13/20/14
f 10/16/15 14/21/15 13/20/15
f 10/16/16 15/22/16 14/21/16
f 8/13/17 15/22/17 10/16/17
f 15/22/18 7/12/18 16/23/18
f 15/22/19 16/23/19 17/24/19
f 15/22/20 17/24/20 14/21/20
f 8/13/21 7/12/21 15/22/21
f 14/21/22 17/24/22 18/25/22
f 17/24/23 19/26/23 18/25/23
f 16/27/24 19/26/24 17/24/24
f 20/28/25 21/29/25 19/26/25
f 19/26/26 21/29/26 22/30/26
f 16/27/27 20/28/27 19/26/27
f 18/25/28 19/26/28 22/30/28
f 21/29/29 23/31/29 22/30/29
f 22/30/30 23/31/30 24/32/30
f 22/30/31 24/32/31 25/33/31
f 18/25/32 22/30/32 25/33/32
f 24/32/33 26/34/33 25/33/33
f 27/35/34 18/25/34 25/33/34
f 26/34/35 27/35/35 25/33/35
f 26/34/36 28/36/36 27/35/36
f 29/37/37 30/38/37 26/34/37
f 24/32/38 29/37/38 26/34/38
f 30/38/39 28/36/39 26/34/39
f 12/18/40 13/20/40 28/36/40
f 28/36/41 13/20/41 27/35/41
f 31/39/42 12/18/42 28/36/42
f 31/39/43 28/36/43 30/38/43
f 32/40/44 31/39/44 30/38/44
f 11/17/45 12/18/45 31/39/45
f 33/41/46 11/17/46 31/39/46
f 32/40/47 33/41/47 31/39/47
f 32/40/48 30/38/48 29/37/48
f 34/42/49 32/43/49 29/37/49
f 35/44/50 32/43/50 34/42/50
f 35/45/51 33/41/51 32/40/51
f 36/46/52 34/42/52 37/47/52
f 34/42/53 29/37/53 37/47/53
f 38/48/54 35/44/54 34/42/54
f 36/46/55 38/48/55 34/42/55
f 36/49/56 37/47/56 23/31/56
f 39/50/57 36/49/57 23/31/57
f 40/51/58 36/49/58 39/50/58
f 40/51/59 38/52/59 36/49/59
f 1/1/60 40/51/60 41/53/60
f 41/53/61 40/51/61 39/50/61
f 40/51/62 1/1/62 38/52/62
f 4/4/63 41/53/63 42/54/63
f 42/54/64 41/53/64 20/28/64
f 20/28/65 41/53/65 39/50/65
f 4/4/66 1/1/66 41/53/66
f 4/11/67 42/55/67 7/12/67
f 7/12/68 42/55/68 16/23/68
f 42/54/69 20/28/69 16/27/69
f 20/28/70 39/50/70 21/29/70
f 39/50/71 23/31/71 21/29/71
f 38/52/72 1/1/72 3/3/72
f 38/56/73 3/7/73 35/45/73
f 23/31/74 37/47/74 24/32/74
f 37/47/75 29/37/75 24/32/75
f 3/7/76 33/41/76 35/45/76
f 3/7/77 5/6/77 33/41/77
f 5/6/78 11/17/78 33/41/78
f 13/20/79 14/21/79 27/35/79
f 27/35/80 14/21/80 18/25/80
