mtllib LOW_POLY_set.mtl
o lp_tree6_Icosphere_008
v -18.780996 2.577932 4.574398
v -20.056721 2.809480 4.397205
v -19.687063 2.730592 3.366186
v -21.096807 1.740459 6.185078
v -21.037466 2.450583 4.881634
v -20.604227 2.856039 3.482133
v -18.439270 2.290586 3.850044
v -19.700632 2.288619 2.366718
v -16.152769 2.611762 4.570092
v -18.154104 1.996598 3.246284
v -17.100805 2.391384 3.720556
v -16.963316 2.563580 3.069385
v -16.153521 2.901677 3.648382
v -15.583577 3.301885 4.359248
v -16.135397 3.451054 3.070368
v -16.892035 3.466874 2.405419
v -16.330925 4.572172 2.365441
v -15.972043 4.993082 2.834456
v -16.554617 5.132855 2.215771
v -17.889496 3.619476 1.847510
v -18.245932 4.436509 1.476603
v -17.998871 5.147030 1.727582
v -17.841593 2.533560 2.638023
v -19.327116 2.880401 1.096250
v -19.068281 3.705883 0.925621
v -19.700901 4.700744 1.038716
v -19.991402 3.537443 0.849695
v -20.294651 2.718584 1.199006
v -20.999823 3.790432 1.212901
v -20.879715 4.576302 1.150098
v -21.410004 3.328049 1.737778
v -22.470751 4.007927 2.163044
v -22.033043 4.581150 1.964816
v -22.328997 3.373450 2.618437
v -22.888231 3.795643 3.014640
v -22.759830 4.530335 2.606928
v -22.879932 3.440240 4.158264
v -23.002407 4.396484 3.559561
v -22.445919 3.007010 3.699685
v -22.482737 1.876138 5.383000
v -22.765839 2.508317 4.671654
v -21.796715 2.837955 3.183001
v -22.940067 2.369627 5.545163
v -22.049992 1.731835 6.242031
v -22.571589 2.175847 6.196585
v -21.884443 1.917692 5.225263
v -21.353243 2.595026 3.964886
v -20.692617 1.552705 7.471174
v -21.665241 2.313415 7.365482
v -19.881655 2.181327 8.176707
v -20.504848 3.195479 8.136541
v -22.969875 4.011298 6.449159
v -23.340611 4.023119 5.097063
v -23.175426 5.140330 6.020088
v -22.558298 4.968049 6.839281
v -21.720018 5.840641 6.637014
v -22.598272 6.046849 6.109009
v -21.139547 6.525770 6.158810
v -22.855694 6.148491 5.474298
v -21.772173 6.749043 5.500854
v -20.367540 7.086424 4.683066
v -19.695002 7.367653 5.226064
v -21.905359 6.653915 4.929998
v -22.694893 6.095570 4.793577
v -21.082952 6.297186 3.703535
v -19.680183 6.544293 2.387951
v -22.445496 5.074590 3.266730
v -22.999933 5.226112 4.265072
v -23.214775 5.214088 5.071743
v -19.337963 7.512536 4.134535
v -20.589779 5.263285 1.488828
v -19.489941 6.300401 2.028916
v -18.432739 6.696870 2.532566
v -18.639635 7.307695 3.512881
v -17.185635 6.578425 3.076569
v -18.710443 6.059628 1.921823
v -16.521572 5.804228 2.529001
v -16.403767 6.132664 3.433048
v -17.619501 7.062413 4.048985
v -16.761759 6.482378 4.965608
v -18.850031 7.601673 4.636620
v -18.060219 7.243502 5.216116
v -15.736553 5.255746 3.891160
v -15.664143 5.311761 5.143775
v -15.903988 5.163069 6.018023
v -17.272949 6.473284 6.254034
v -15.245903 4.220719 4.684380
v -15.213207 3.114284 6.286931
v -15.286665 2.824386 5.553009
v -15.291908 4.338799 5.639009
v -16.077879 2.208199 5.785974
v -15.913408 2.104049 6.989646
v -19.380428 1.456547 6.905635
v -18.013433 2.001895 5.808375
v -18.605366 1.663253 7.859756
v -17.148310 2.163258 8.138303
v -16.037910 2.566962 7.743196
v -18.440649 2.266129 8.457809
v -17.495426 2.510472 8.417390
v -19.151953 5.303344 7.470952
v -17.727104 5.412325 7.379945
v -16.745043 3.387220 7.801795
v -16.646866 5.182464 6.853774
v -18.807589 6.578299 6.485820
v -18.955982 7.228830 5.671159
v -19.464760 7.558732 4.613660
v -23.174412 3.146733 4.974040
v -20.986845 2.617883 2.693247
v -21.433187 2.925208 2.212315
v -20.663643 2.370586 1.741146
v -19.862198 2.257418 1.584873
v -18.964241 2.275035 2.012043
vt 0.801523 0.797198
vt 0.801311 0.797032
vt 0.801478 0.796883
vt 0.800934 0.797305
vt 0.801078 0.797044
vt 0.801294 0.796814
vt 0.799118 0.799725
vt 0.799025 0.799431
vt 0.799226 0.799353
vt 0.798944 0.799235
vt 0.801670 0.797100
vt 0.801988 0.797481
vt 0.799262 0.799687
vt 0.799347 0.799919
vt 0.799376 0.800207
vt 0.799470 0.799846
vt 0.799543 0.800061
vt 0.801177 0.799938
vt 0.801081 0.800234
vt 0.800813 0.800174
vt 0.801400 0.800134
vt 0.799704 0.799967
vt 0.799678 0.799749
vt 0.799953 0.799779
vt 0.800507 0.799801
vt 0.800407 0.799999
vt 0.800245 0.799849
vt 0.799637 0.799529
vt 0.799749 0.799389
vt 0.799897 0.799387
vt 0.800071 0.799673
vt 0.799427 0.799657
vt 0.799457 0.799298
vt 0.799578 0.799288
vt 0.799673 0.799147
vt 0.799504 0.799178
vt 0.799379 0.799191
vt 0.799459 0.799020
vt 0.799582 0.798988
vt 0.799327 0.798980
vt 0.799330 0.798694
vt 0.799509 0.798715
vt 0.799155 0.798771
vt 0.799380 0.798533
vt 0.799293 0.798306
vt 0.799499 0.798315
vt 0.799553 0.798494
vt 0.799640 0.798078
vt 0.799671 0.798326
vt 0.799460 0.798036
vt 0.799777 0.797580
vt 0.799667 0.797824
vt 0.799228 0.798030
vt 0.799871 0.797740
vt 0.800725 0.797040
vt 0.800745 0.797248
vt 0.800607 0.797197
vt 0.800044 0.797631
vt 0.800859 0.797060
vt 0.801098 0.796840
vt 0.799255 0.797767
vt 0.800909 0.797567
vt 0.800665 0.797522
vt 0.800959 0.797794
vt 0.800728 0.797884
vt 0.800100 0.798007
vt 0.800409 0.797652
vt 0.799855 0.798074
vt 0.800071 0.798197
vt 0.800212 0.798151
vt 0.800292 0.798315
vt 0.800150 0.798316
vt 0.800307 0.798461
vt 0.800074 0.798348
vt 0.800175 0.798473
vt 0.800215 0.798710
vt 0.800353 0.798743
vt 0.800102 0.798500
vt 0.800008 0.798398
vt 0.799991 0.798698
vt 0.799992 0.799010
vt 0.799728 0.798508
vt 0.799863 0.798350
vt 0.799956 0.798262
vt 0.800269 0.798889
vt 0.799706 0.798973
vt 0.799951 0.799064
vt 0.800125 0.799160
vt 0.800253 0.799029
vt 0.800314 0.799320
vt 0.799973 0.799193
vt 0.800259 0.799592
vt 0.800473 0.799449
vt 0.800415 0.799126
vt 0.800673 0.799174
vt 0.800367 0.798897
vt 0.800522 0.798937
vt 0.800722 0.799596
vt 0.800940 0.799394
vt 0.801075 0.799232
vt 0.800801 0.798927
vt 0.801072 0.799670
vt 0.801588 0.799558
vt 0.801513 0.799749
vt 0.801210 0.799477
vt 0.801777 0.799904
vt 0.801988 0.799527
vt 0.801171 0.797576
vt 0.801520 0.797517
vt 0.801756 0.797946
vt 0.801219 0.797795
vt 0.801427 0.797996
vt 0.801644 0.798122
vt 0.801962 0.799209
vt 0.801862 0.797715
vt 0.801188 0.797938
vt 0.801340 0.798035
vt 0.800789 0.798408
vt 0.801045 0.798627
vt 0.801445 0.798279
vt 0.801744 0.798914
vt 0.801140 0.798964
vt 0.800637 0.798680
vt 0.800487 0.798779
vt 0.800309 0.798832
vt 0.799790 0.797946
vt 0.799107 0.799120
vt 0.798817 0.799057
vt 0.798994 0.798929
vt 0.799210 0.799008
vt 0.799281 0.799171
vt 0.799328 0.799279
vt 0.799348 0.799432
vn -0.1800 -0.9836 0.0107
vn -0.0761 -0.8357 -0.5439
vn 0.0868 -0.8765 -0.4736
vn 0.2494 -0.9481 -0.1975
vn -0.1319 -0.9909 0.0285
vn -0.4332 -0.8221 0.3694
vn -0.0736 -0.9117 0.4042
vn -0.3874 -0.9049 0.1762
vn 0.0125 -0.9274 0.3738
vn -0.3306 -0.9005 0.2823
vn 0.1118 -0.8716 0.4772
vn 0.0892 -0.9838 0.1557
vn 0.4063 -0.9009 -0.1524
vn 0.4407 -0.8562 -0.2697
vn 0.4620 -0.8767 -0.1343
vn 0.8045 -0.4429 -0.3957
vn 0.7224 -0.6594 -0.2080
vn 0.6203 -0.5781 -0.5300
vn 0.5578 -0.5197 -0.6471
vn 0.6170 -0.3389 -0.7102
vn 0.8495 -0.1666 -0.5006
vn 0.9011 -0.1573 -0.4040
vn 0.7361 0.1156 -0.6670
vn 0.4419 -0.2554 -0.8599
vn 0.4041 0.1765 -0.8975
vn 0.3166 -0.1247 -0.9403
vn 0.4237 -0.2147 -0.8800
vn 0.5854 -0.4601 -0.6675
vn 0.3454 -0.5423 -0.7659
vn 0.5655 -0.3333 -0.7544
vn 0.6093 -0.0918 -0.7876
vn 0.3251 0.3083 -0.8940
vn 0.0544 0.1469 -0.9877
vn 0.1226 -0.2376 -0.9636
vn -0.0343 -0.3814 -0.9238
vn -0.3816 -0.2395 -0.8927
vn -0.1119 0.1865 -0.9761
vn -0.3438 -0.0225 -0.9388
vn -0.5572 -0.3569 -0.7498
vn -0.5416 -0.3741 -0.7528
vn -0.5768 0.0229 -0.8166
vn -0.5275 0.1116 -0.8422
vn -0.5903 -0.5535 -0.5875
vn -0.7193 -0.5039 -0.4782
vn -0.6510 0.2491 -0.7171
vn -0.8834 -0.0997 -0.4579
vn -0.9877 -0.1515 -0.0399
vn -0.9696 0.0352 -0.2420
vn -0.7002 -0.6498 -0.2959
vn -0.7834 -0.5951 -0.1793
vn -0.3924 -0.7595 -0.5188
vn -0.8226 -0.3483 -0.4495
vn -0.5544 -0.6852 -0.4724
vn -0.4740 -0.8171 -0.3282
vn -0.7499 -0.6138 -0.2470
vn -0.6451 -0.7372 0.2011
vn -0.6906 -0.6999 0.1824
vn 0.0219 -0.9841 -0.1763
vn -0.0704 -0.8660 -0.4951
vn 0.1328 -0.9227 -0.3620
vn -0.5593 -0.6423 0.5240
vn 0.0003 -0.9895 -0.1446
vn -0.5787 -0.6263 0.5224
vn -0.0019 -0.9836 -0.1801
vn -0.4173 -0.2215 0.8814
vn -0.5614 0.0152 0.8274
vn -0.4036 -0.4018 0.8220
vn -0.7514 -0.2472 0.6117
vn -0.9618 -0.0751 0.2631
vn -0.9523 -0.1603 0.2597
vn -0.7864 0.0891 0.6112
vn -0.8730 -0.2473 0.4203
vn -0.5810 -0.0803 0.8099
vn -0.2097 0.4075 0.8888
vn -0.2085 0.4080 0.8888
vn -0.2032 0.4105 0.8889
vn -0.3489 0.5164 0.7820
vn -0.6968 0.3842 0.6057
vn -0.2489 0.6872 0.6824
vn -0.7918 0.4653 0.3956
vn -0.4652 0.8251 0.3208
vn -0.2794 0.7950 0.5384
vn -0.2980 0.9468 -0.1213
vn -0.2834 0.9545 -0.0929
vn -0.1925 0.8580 0.4763
vn -0.4839 0.8745 -0.0328
vn -0.5443 0.8166 -0.1921
vn -0.4368 0.7419 -0.5087
vn -0.3080 0.8381 -0.4503
vn -0.5264 0.7377 -0.4227
vn -0.4565 0.8255 -0.3317
vn -0.4565 0.7034 -0.5449
vn -0.5265 0.7262 -0.4420
vn -0.7028 0.5330 -0.4712
vn -0.4408 0.7842 -0.4368
vn -0.7917 0.5995 -0.1174
vn -0.7658 0.4179 -0.4887
vn -0.8687 0.4414 -0.2248
vn -0.9622 0.0962 -0.2548
vn -0.9723 0.1531 -0.1767
vn -0.8675 0.4363 -0.2388
vn -0.9405 0.3334 0.0650
vn -0.9931 0.1060 0.0495
vn -0.5083 0.7915 -0.3392
vn -0.3330 0.6886 -0.6442
vn -0.0336 0.8184 -0.5737
vn -0.4993 0.7065 -0.5015
vn -0.1495 0.8769 -0.4568
vn -0.0413 0.8441 -0.5346
vn 0.2821 0.8399 -0.4638
vn 0.1035 0.6643 -0.7402
vn 0.2782 0.5987 -0.7511
vn 0.3344 0.7183 -0.6101
vn 0.5785 0.7396 -0.3441
vn 0.5445 0.8221 -0.1662
vn 0.3615 0.8890 -0.2812
vn 0.5923 0.8044 -0.0452
vn 0.3198 0.9296 -0.1833
vn 0.4060 0.9138 0.0115
vn 0.5135 0.8559 0.0611
vn 0.7844 0.6188 0.0420
vn 0.7331 0.6763 -0.0726
vn 0.6728 0.6764 0.2996
vn 0.6888 0.6696 0.2780
vn 0.5244 0.8242 0.2139
vn 0.8281 0.4723 -0.3019
vn 0.9338 0.2379 -0.2672
vn 0.9212 0.3827 -0.0704
vn 0.8888 -0.1770 -0.4228
vn 0.9948 -0.0730 -0.0707
vn 0.9958 0.0839 0.0376
vn 0.9205 -0.2254 -0.3191
vn 0.9339 0.3577 0.0008
vn 0.7778 0.3323 0.5335
vn 0.8262 0.4724 0.3070
vn 0.5310 -0.7939 -0.2962
vn 0.5800 -0.8009 -0.1486
vn 0.6340 -0.6506 -0.4179
vn 0.8523 -0.5100 0.1161
vn 0.1837 -0.9521 -0.2443
vn 0.1817 -0.9812 0.0650
vn 0.2526 -0.9136 0.3187
vn 0.4492 -0.7263 0.5204
vn 0.8653 -0.3505 0.3583
vn 0.1043 -0.9895 -0.0999
vn 0.0109 -0.9035 -0.4285
vn 0.0232 -0.9003 -0.4347
vn 0.0968 -0.9428 -0.3189
vn 0.0258 -0.9076 -0.4190
vn 0.0146 -0.9796 0.2004
vn 0.1136 -0.7152 0.6897
vn -0.0986 -0.6846 0.7222
vn -0.1000 -0.6868 0.7199
vn -0.0997 -0.6863 0.7205
vn -0.0983 -0.6842 0.7226
vn -0.1866 -0.0759 0.9795
vn -0.0285 0.2695 0.9626
vn 0.1679 -0.5101 0.8435
vn -0.0178 0.3114 0.9501
vn 0.0341 0.3389 0.9402
vn 0.3249 0.3413 0.8820
vn 0.3945 0.2775 0.8760
vn 0.4115 -0.2845 0.8658
vn 0.7178 0.2940 0.6312
vn 0.4689 0.3923 0.7914
vn 0.5644 0.4365 0.7007
vn 0.6271 0.5571 0.5445
vn 0.4577 0.5475 0.7005
vn 0.0039 0.6108 0.7918
vn 0.1542 0.6873 0.7098
vn 0.1446 0.7859 0.6012
vn -0.1059 0.7675 0.6322
vn -0.1173 0.6317 0.7663
vn -0.1220 0.6273 0.7692
vn -0.1211 0.6281 0.7686
vn -0.0259 0.9413 0.3366
vn -0.1547 0.8406 0.5191
vn 0.2228 0.8561 0.4663
vn 0.1623 0.9229 0.3492
vn -0.2027 0.4108 0.8889
vn -0.1162 0.6328 0.7656
vn 0.7628 0.3302 0.5560
vn -0.1184 -0.9872 -0.1069
vn -0.0771 0.9596 0.2704
vn -0.0650 0.9915 -0.1128
vn 0.0702 0.9682 -0.2401
vn -0.4546 0.8845 0.1050
vn -0.4660 0.8604 -0.2063
vn 0.8406 0.4647 -0.2783
vn 0.0441 0.5216 -0.8520
vn 0.2564 0.3883 -0.8851
vn 0.2879 0.4088 -0.8660
vn 0.2981 0.3915 -0.8706
vn 0.7318 0.2582 -0.6307
vn -0.0890 0.5327 -0.8416
vn -0.4831 0.5427 -0.6871
vn -0.1328 0.4828 -0.8656
vn -0.9188 -0.1216 -0.3754
vn -0.9715 -0.2017 0.1242
vn -0.9183 -0.2878 -0.2719
vn -0.8652 -0.4390 -0.2423
vn -0.8404 -0.3368 -0.4246
vn -0.3218 -0.9404 -0.1096
vn 0.3806 -0.9200 0.0931
vn 0.4262 -0.8595 -0.2822
vn 0.1933 -0.9568 -0.2173
vn -0.3787 -0.8983 -0.2226
vn -0.5783 -0.8156 0.0155
vn -0.2002 -0.9627 0.1821
vn -0.1477 -0.9247 0.3508
vn -0.5258 -0.8068 -0.2695
vn -0.5596 -0.6181 -0.5521
vn -0.6869 -0.5372 -0.4896
vn -0.5759 -0.4513 -0.6817
vn -0.2278 -0.7416 -0.6310
vn -0.1269 -0.9897 0.0657
vn 0.0227 -0.6290 -0.7771
vn 0.3028 -0.7355 -0.6061
vn 0.0007 -0.9992 0.0397
vn 0.4839 -0.6295 -0.6079
vn -0.0949 -0.9826 -0.1594
vn 0.4348 -0.7742 -0.4600
vn 0.3454 -0.8306 -0.4368
vn 0.3171 0.2159 -0.9235
vn 0.2937 -0.7864 -0.5433
vn 0.3786 -0.5674 -0.7313
usemtl Material.007
f 1/1/1 2/2/1 3/3/1
f 2/2/2 1/1/2 4/4/2
f 2/2/3 4/4/3 5/5/3
f 2/2/4 5/5/4 6/6/4
f 2/2/5 6/6/5 3/3/5
f 7/7/6 3/8/6 8/9/6
f 3/8/7 6/10/7 8/9/7
f 7/11/8 1/1/8 3/3/8
f 9/12/9 1/1/9 7/11/9
f 10/13/10 7/7/10 8/9/10
f 11/14/11 7/7/11 10/13/11
f 11/14/12 9/15/12 7/7/12
f 12/16/13 11/14/13 10/13/13
f 13/17/14 9/15/14 11/14/14
f 13/17/15 11/14/15 12/16/15
f 14/18/16 13/19/16 15/20/16
f 14/18/17 9/21/17 13/19/17
f 13/17/18 12/16/18 15/22/18
f 15/22/19 12/16/19 16/23/19
f 15/22/20 16/23/20 17/24/20
f 18/25/21 15/20/21 17/26/21
f 14/18/22 15/20/22 18/25/22
f 18/25/23 17/26/23 19/27/23
f 16/23/24 20/28/24 17/24/24
f 17/24/25 21/29/25 22/30/25
f 17/24/26 22/30/26 19/31/26
f 20/28/27 21/29/27 17/24/27
f 23/32/28 24/33/28 20/28/28
f 16/23/29 23/32/29 20/28/29
f 24/33/30 25/34/30 20/28/30
f 20/28/31 25/34/31 21/29/31
f 25/34/32 26/35/32 21/29/32
f 25/34/33 27/36/33 26/35/33
f 25/34/34 24/33/34 27/36/34
f 24/33/35 28/37/35 27/36/35
f 27/36/36 28/37/36 29/38/36
f 26/35/37 27/36/37 30/39/37
f 27/36/38 29/38/38 30/39/38
f 28/37/39 31/40/39 29/38/39
f 31/40/40 32/41/40 29/38/40
f 29/38/41 33/42/41 30/39/41
f 29/38/42 32/41/42 33/42/42
f 31/40/43 34/43/43 32/41/43
f 32/44/44 34/45/44 35/46/44
f 32/44/45 36/47/45 33/42/45
f 32/44/46 35/46/46 36/47/46
f 35/46/47 37/48/47 38/49/47
f 36/47/48 35/46/48 38/49/48
f 34/45/49 39/50/49 35/46/49
f 35/46/50 39/50/50 37/48/50
f 40/51/51 41/52/51 39/50/51
f 39/50/52 41/52/52 37/48/52
f 42/53/53 40/51/53 39/50/53
f 42/53/54 39/50/54 34/45/54
f 40/51/55 43/54/55 41/52/55
f 40/55/56 44/56/56 45/57/56
f 40/51/57 45/58/57 43/54/57
f 46/59/58 44/56/58 40/55/58
f 47/60/59 46/59/59 40/55/59
f 47/61/60 40/51/60 42/53/60
f 44/56/61 48/62/61 49/63/61
f 4/4/62 48/62/62 44/56/62
f 44/56/63 49/63/63 45/57/63
f 46/59/64 4/4/64 44/56/64
f 49/63/65 50/64/65 51/65/65
f 52/66/66 49/67/66 51/65/66
f 48/62/67 50/64/67 49/63/67
f 45/58/68 49/67/68 52/66/68
f 53/68/69 52/66/69 54/69/69
f 43/54/70 52/66/70 53/68/70
f 52/66/71 55/70/71 54/69/71
f 43/54/72 45/58/72 52/66/72
f 52/66/73 51/65/73 55/70/73
f 55/70/74 51/65/75 56/71/76
f 55/70/77 56/71/77 57/72/77
f 54/69/78 55/70/78 57/72/78
f 57/72/79 56/71/79 58/73/79
f 54/69/80 57/72/80 59/74/80
f 59/74/81 57/72/81 60/75/81
f 60/75/82 57/72/82 58/73/82
f 61/76/83 60/75/83 62/77/83
f 63/78/84 60/75/84 61/76/84
f 60/75/85 58/73/85 62/77/85
f 63/78/86 59/74/86 60/75/86
f 64/79/87 59/74/87 63/78/87
f 65/80/88 64/79/88 63/78/88
f 65/80/89 63/78/89 61/76/89
f 66/81/90 67/82/90 65/80/90
f 66/81/91 65/80/91 61/76/91
f 67/82/92 64/79/92 65/80/92
f 33/42/93 67/82/93 66/81/93
f 67/82/94 68/83/94 64/79/94
f 33/42/95 36/47/95 67/82/95
f 36/47/96 38/49/96 67/82/96
f 67/82/97 38/49/97 68/83/97
f 68/83/98 69/84/98 64/79/98
f 53/68/99 69/84/99 68/83/99
f 38/49/100 53/68/100 68/83/100
f 69/84/101 59/74/101 64/79/101
f 69/84/102 54/69/102 59/74/102
f 53/68/103 54/69/103 69/84/103
f 66/81/104 61/76/104 70/85/104
f 71/86/105 66/81/105 72/87/105
f 73/88/106 72/87/106 66/81/106
f 71/86/107 33/42/107 66/81/107
f 74/89/108 66/81/108 70/85/108
f 74/89/109 73/88/109 66/81/109
f 75/90/110 73/88/110 74/89/110
f 73/88/111 76/91/111 72/87/111
f 77/92/112 76/91/112 73/88/112
f 75/90/113 77/92/113 73/88/113
f 78/93/114 77/92/114 75/90/114
f 79/94/115 78/93/115 75/90/115
f 79/94/116 75/90/116 74/89/116
f 80/95/117 78/93/117 79/94/117
f 81/96/118 79/94/118 74/89/118
f 82/97/119 79/94/119 81/96/119
f 82/97/120 80/95/120 79/94/120
f 83/98/121 78/93/121 80/95/121
f 84/99/122 83/98/122 80/95/122
f 85/100/123 84/99/123 80/95/123
f 85/100/124 80/95/124 86/101/124
f 86/101/125 80/95/125 82/97/125
f 83/98/126 18/25/126 78/93/126
f 87/102/127 18/25/127 83/98/127
f 87/102/128 83/98/128 84/99/128
f 14/18/129 18/25/129 87/102/129
f 88/103/130 89/104/130 87/102/130
f 88/103/131 87/102/131 90/105/131
f 89/104/132 14/18/132 87/102/132
f 90/105/133 87/102/133 84/99/133
f 85/100/134 88/103/134 90/105/134
f 90/105/135 84/99/135 85/100/135
f 91/106/136 9/21/136 89/104/136
f 91/106/137 89/104/137 92/107/137
f 9/21/138 14/18/138 89/104/138
f 92/107/139 89/104/139 88/103/139
f 93/108/140 94/109/140 92/110/140
f 93/108/141 92/110/141 95/111/141
f 95/111/142 92/110/142 96/112/142
f 96/112/143 92/110/143 97/113/143
f 97/114/144 92/107/144 88/103/144
f 94/109/145 91/115/145 92/110/145
f 1/1/146 9/12/146 94/109/146
f 4/4/147 1/1/147 94/109/147
f 94/109/148 9/12/148 91/115/148
f 4/4/149 94/109/149 93/108/149
f 93/108/150 95/111/150 48/62/150
f 95/111/151 96/112/151 98/116/151
f 95/111/152 98/116/153 50/64/154
f 48/62/155 95/111/152 50/64/154
f 51/65/156 50/64/156 98/116/156
f 98/116/157 99/117/157 51/65/157
f 98/116/158 96/112/158 99/117/158
f 51/65/159 99/117/159 100/118/159
f 99/117/160 101/119/160 100/118/160
f 99/117/161 102/120/161 101/119/161
f 99/117/162 97/113/162 102/120/162
f 99/117/163 96/112/163 97/113/163
f 102/121/164 85/100/164 103/122/164
f 102/121/165 103/122/165 101/119/165
f 102/121/166 97/114/166 85/100/166
f 103/122/167 85/100/167 86/101/167
f 101/119/168 103/122/168 86/101/168
f 100/118/169 101/119/169 104/123/169
f 101/119/170 86/101/170 104/123/170
f 104/123/171 86/101/171 105/124/171
f 58/73/172 104/123/172 105/124/172
f 100/118/173 104/123/174 58/73/175
f 62/77/176 105/124/176 81/96/176
f 58/73/177 105/124/177 62/77/177
f 105/124/178 86/101/178 82/97/178
f 105/124/179 82/97/179 81/96/179
f 51/65/75 100/118/180 56/71/76
f 56/71/181 100/118/173 58/73/175
f 97/114/182 88/103/182 85/100/182
f 4/4/183 93/108/183 48/62/183
f 62/77/184 81/96/184 106/125/184
f 106/125/185 81/96/185 70/85/185
f 81/96/186 74/89/186 70/85/186
f 61/76/187 62/77/187 106/125/187
f 70/85/188 61/76/188 106/125/188
f 18/25/189 77/92/189 78/93/189
f 26/35/190 72/87/190 76/91/190
f 22/30/191 26/35/191 76/91/191
f 22/30/192 76/91/192 77/92/192
f 19/31/193 22/30/193 77/92/193
f 18/25/194 19/27/194 77/92/194
f 26/35/195 71/86/195 72/87/195
f 30/39/196 33/42/196 71/86/196
f 26/35/197 30/39/197 71/86/197
f 37/48/198 107/126/198 53/68/198
f 107/126/199 43/54/199 53/68/199
f 38/49/200 37/48/200 53/68/200
f 41/52/201 43/54/201 107/126/201
f 37/48/202 41/52/202 107/126/202
f 108/127/203 47/128/203 42/129/203
f 6/10/204 47/128/204 108/127/204
f 5/5/205 46/59/205 47/60/205
f 6/6/206 5/5/206 47/60/206
f 108/127/207 42/129/207 109/130/207
f 108/127/208 109/130/208 110/131/208
f 8/9/209 108/127/209 110/131/209
f 6/10/210 108/127/210 8/9/210
f 109/130/211 42/129/211 34/43/211
f 109/130/212 34/43/212 31/40/212
f 110/131/213 109/130/213 31/40/213
f 110/131/214 31/40/214 28/37/214
f 111/132/215 110/131/215 28/37/215
f 8/9/216 110/131/216 111/132/216
f 111/132/217 28/37/217 24/33/217
f 112/133/218 111/132/218 24/33/218
f 8/9/219 111/132/219 112/133/219
f 23/32/220 112/133/220 24/33/220
f 10/13/221 8/9/221 112/133/221
f 23/32/222 10/13/222 112/133/222
f 5/5/223 4/4/223 46/59/223
f 21/29/224 26/35/224 22/30/224
f 12/16/225 10/13/225 23/32/225
f 12/16/226 23/32/226 16/23/226
