mtllib LOW_POLY_set.mtl
o lp_tree5_Cube_017
v 21.356392 7.449030 -36.539658
v 22.815020 7.409222 -35.249226
v 20.999933 8.169366 -35.164326
v 23.843697 7.685012 -36.732449
v 21.797190 8.484365 -37.842682
v 20.358532 8.324194 -36.902111
v 19.781212 8.698782 -35.861374
v 19.834381 9.010588 -37.172306
v 20.727392 9.341334 -38.027679
v 19.477188 9.980799 -36.552216
v 19.855463 9.822878 -35.148434
v 20.567600 8.830220 -34.627319
v 21.915974 8.209004 -34.295315
v 21.041117 9.462937 -34.256065
v 23.173229 8.038328 -34.713306
v 22.480350 8.903379 -34.430420
v 24.045750 8.247630 -35.636024
v 23.593895 9.499852 -35.202812
v 22.737242 10.318140 -35.392475
v 23.569258 10.585627 -35.911278
v 24.137440 9.593338 -36.141987
v 21.626484 10.049502 -34.640919
v 21.596647 10.820956 -35.545204
v 22.650110 11.213405 -36.327854
v 23.407858 10.784916 -36.904633
v 21.983990 11.675867 -37.364162
v 21.615545 11.428920 -36.620342
v 24.122816 8.960413 -37.508987
v 22.653290 10.852689 -37.872517
v 21.835529 11.389797 -37.915989
v 22.564535 9.560888 -38.567078
v 23.692312 8.002495 -37.896229
v 21.224190 10.443715 -38.392143
v 21.963736 9.050985 -38.513474
v 24.460764 8.244448 -36.782787
v 20.791138 10.882649 -37.700676
v 20.119598 9.957282 -37.718197
v 20.076033 10.639003 -36.955605
v 21.018045 11.333425 -37.265057
v 20.615547 11.001760 -36.093380
v 20.589075 10.532721 -34.938076
v 19.806398 10.688528 -35.894955
vt 0.812731 0.809493
vt 0.813052 0.809599
vt 0.812737 0.809789
vt 0.813159 0.809262
vt 0.812654 0.809173
vt 0.812467 0.809497
vt 0.813588 0.811740
vt 0.813213 0.811806
vt 0.813460 0.811524
vt 0.813721 0.811333
vt 0.812407 0.809779
vt 0.814043 0.811527
vt 0.813160 0.811366
vt 0.812852 0.811122
vt 0.812422 0.810814
vt 0.812803 0.810643
vt 0.812680 0.810009
vt 0.812558 0.810323
vt 0.812971 0.809844
vt 0.812848 0.810185
vt 0.813156 0.809690
vt 0.813134 0.809909
vt 0.813344 0.809490
vt 0.813503 0.809824
vt 0.813433 0.810168
vt 0.813676 0.810155
vt 0.813846 0.809903
vt 0.813875 0.809428
vt 0.813101 0.810239
vt 0.813303 0.810451
vt 0.813619 0.810419
vt 0.813845 0.810338
vt 0.813692 0.810689
vt 0.813519 0.810642
vt 0.814282 0.809939
vt 0.813996 0.810661
vt 0.813758 0.810774
vt 0.814490 0.810533
vt 0.814177 0.811078
vt 0.814623 0.809827
vt 0.813767 0.811044
vt 0.814063 0.811274
vt 0.814623 0.811489
vt 0.814369 0.809414
vt 0.814229 0.809624
vt 0.813039 0.809039
vt 0.813568 0.810974
vt 0.813509 0.811244
vt 0.813268 0.811069
vt 0.813537 0.810838
vt 0.813240 0.810733
vt 0.813026 0.810517
vt 0.813027 0.810824
vn -0.3453 -0.8652 0.3636
vn 0.0841 -0.9885 -0.1255
vn -0.3518 -0.6713 -0.6524
vn 0.0269 -0.7871 -0.6163
vn -0.6855 -0.7027 0.1904
vn -0.7454 -0.6411 -0.1827
vn -0.4297 -0.5954 -0.6789
vn -0.4357 -0.8964 0.0810
vn -0.3791 -0.6213 -0.6857
vn -0.9532 -0.2832 -0.1060
vn -0.9639 -0.0943 0.2491
vn -0.5551 -0.7122 0.4296
vn -0.7935 -0.2877 0.5363
vn -0.4599 -0.7215 0.5177
vn -0.3454 -0.2691 0.8991
vn -0.6042 -0.0153 0.7967
vn -0.3389 -0.8534 0.3961
vn 0.3069 -0.0647 0.9495
vn 0.1475 0.0720 0.9864
vn 0.1432 -0.6878 0.7116
vn 0.7238 0.0226 0.6896
vn 0.5981 -0.6891 0.4092
vn 0.5147 0.1354 0.8466
vn 0.2969 0.4995 0.8138
vn 0.3241 0.5221 0.7889
vn 0.7982 0.3417 0.4960
vn 0.8521 0.1323 0.5063
vn 0.4200 0.4569 0.7841
vn 0.2434 0.7418 0.6248
vn 0.1869 0.7183 0.6701
vn 0.2261 0.7142 0.6625
vn 0.5188 0.8536 0.0474
vn 0.0934 0.9302 0.3551
vn 0.0419 0.8694 0.4924
vn 0.5368 0.8398 0.0813
vn 0.7172 0.4557 -0.5272
vn 0.8875 0.4145 -0.2014
vn 0.8632 0.5034 -0.0393
vn 0.5755 0.7141 -0.3986
vn 0.4935 0.7108 -0.5012
vn 0.6145 0.3405 -0.7117
vn 0.3271 0.4300 -0.8415
vn 0.5784 0.0687 -0.8129
vn 0.1293 0.3779 -0.9168
vn -0.1117 0.0272 -0.9934
vn 0.1614 -0.2894 -0.9435
vn 0.6323 -0.7226 -0.2794
vn 0.8285 -0.1548 -0.5382
vn -0.2461 -0.9427 -0.2252
vn -0.2024 -0.7228 -0.6608
vn 0.9437 0.2961 -0.1472
vn 0.9385 0.0637 0.3395
vn 0.6625 -0.7090 0.2417
vn -0.4058 -0.6461 -0.6465
vn -0.3884 -0.1267 -0.9127
vn -0.4337 0.6128 -0.6606
vn -0.5005 -0.0600 -0.8636
vn -0.6011 0.4487 -0.6613
vn -0.6964 0.5148 -0.5000
vn -0.6266 0.6812 -0.3786
vn -0.4583 0.7261 -0.5126
vn -0.5873 0.8089 0.0272
vn -0.3160 0.9361 0.1542
vn -0.3168 0.9357 0.1550
vn -0.3444 0.8681 -0.3574
vn -0.3175 0.9354 0.1557
vn -0.0389 0.9262 0.3751
vn -0.1129 0.8658 0.4876
vn -0.2594 0.8969 0.3582
vn -0.3873 0.9111 -0.1410
vn 0.0110 0.5408 0.8411
vn -0.5159 0.2948 0.8043
vn -0.6383 0.4817 0.6005
vn 0.1683 0.7527 0.6365
vn -0.7855 0.5758 -0.2266
vn -0.9438 0.1836 0.2750
vn -0.7819 0.4419 -0.4397
vn -0.6232 -0.2412 -0.7439
vn -0.8759 -0.0142 -0.4823
vn 0.2452 0.3488 0.9046
vn 0.5989 -0.7520 0.2755
usemtl Material.003
f 1/1/1 2/2/1 3/3/1
f 1/1/2 4/4/2 2/2/2
f 5/5/3 1/1/3 6/6/3
f 1/1/4 5/5/4 4/4/4
f 1/1/5 3/3/5 6/6/5
f 6/7/6 7/8/6 8/9/6
f 9/10/7 6/7/7 8/9/7
f 6/6/8 3/3/8 7/11/8
f 9/10/9 5/12/9 6/7/9
f 8/9/10 7/8/10 10/13/10
f 10/14/11 7/15/11 11/16/11
f 3/3/12 12/17/12 7/11/12
f 7/15/13 12/18/13 11/16/13
f 3/3/14 13/19/14 12/17/14
f 12/17/15 13/19/15 14/20/15
f 12/18/16 14/20/16 11/16/16
f 3/3/17 2/2/17 13/19/17
f 13/19/18 15/21/18 16/22/18
f 14/20/19 13/19/19 16/22/19
f 2/2/20 15/21/20 13/19/20
f 15/21/21 17/23/21 18/24/21
f 2/2/22 17/23/22 15/21/22
f 15/21/23 18/24/23 16/22/23
f 16/22/24 18/24/24 19/25/24
f 18/24/25 20/26/25 19/25/25
f 18/24/26 21/27/26 20/26/26
f 18/24/27 17/28/27 21/27/27
f 16/22/28 19/25/28 22/29/28
f 22/29/29 19/25/29 23/30/29
f 19/25/30 20/26/30 24/31/30
f 23/30/31 19/25/31 24/31/31
f 24/31/32 25/32/32 26/33/32
f 24/31/33 26/33/33 27/34/33
f 23/30/34 24/31/34 27/34/34
f 20/26/35 25/32/35 24/31/35
f 28/35/36 29/36/36 25/32/36
f 21/27/37 28/35/37 25/32/37
f 21/27/38 25/32/38 20/26/38
f 25/32/39 29/36/39 26/33/39
f 29/36/40 30/37/40 26/33/40
f 28/35/41 31/38/41 29/36/41
f 31/39/42 30/37/42 29/36/42
f 28/35/43 32/40/43 31/38/43
f 31/39/44 33/41/44 30/37/44
f 34/42/45 33/41/45 31/39/45
f 32/43/46 34/42/46 31/39/46
f 4/44/47 32/40/47 35/45/47
f 35/45/48 32/40/48 28/35/48
f 4/4/49 5/5/49 32/46/49
f 5/12/50 34/42/50 32/43/50
f 35/45/51 28/35/51 21/27/51
f 17/28/52 35/45/52 21/27/52
f 4/44/53 35/45/53 17/28/53
f 34/42/54 5/12/54 9/10/54
f 34/42/55 9/10/55 33/41/55
f 33/41/56 36/47/56 30/37/56
f 33/41/57 9/10/57 37/48/57
f 33/41/58 37/48/58 36/47/58
f 37/48/59 38/49/59 36/47/59
f 36/47/60 38/49/60 39/50/60
f 30/37/61 36/47/61 39/50/61
f 39/50/62 38/49/62 40/51/62
f 26/33/63 39/50/64 27/34/64
f 26/33/65 30/37/65 39/50/65
f 39/50/64 40/51/66 27/34/64
f 40/51/67 41/52/67 23/30/67
f 40/51/68 23/30/68 27/34/68
f 42/53/69 41/52/69 40/51/69
f 38/49/70 42/53/70 40/51/70
f 14/20/71 22/29/71 41/52/71
f 11/16/72 14/20/72 41/52/72
f 11/16/73 41/52/73 42/53/73
f 41/52/74 22/29/74 23/30/74
f 10/14/75 42/53/75 38/49/75
f 10/14/76 11/16/76 42/53/76
f 37/48/77 10/13/77 38/49/77
f 9/10/78 8/9/78 37/48/78
f 8/9/79 10/13/79 37/48/79
f 14/20/80 16/22/80 22/29/80
f 2/2/81 4/4/81 17/23/81
