mtllib LOW_POLY_set.mtl
o lp_tree2_Icosphere_006
v 18.576904 3.213215 2.922700
v 19.281401 3.035429 4.279032
v 17.705868 3.350073 3.279327
v 19.065765 3.202449 5.491925
v 20.280499 3.311496 4.757684
v 17.135387 3.306534 1.957930
v 18.819977 3.152491 2.000117
v 20.094290 3.080439 3.445175
v 19.260672 3.261352 1.369238
v 17.609261 3.336740 0.973753
v 18.003122 3.583103 0.759684
v 20.913219 3.405473 3.539262
v 20.483875 3.248736 2.338218
v 21.074070 3.853281 2.732312
v 20.071983 3.641125 1.455233
v 20.669050 3.991135 4.686143
v 20.226921 4.480251 3.872961
v 20.462519 4.116434 1.727196
v 19.545729 4.881922 2.594602
v 16.519770 3.532383 1.198430
v 18.311794 3.256474 4.825674
v 12.665678 3.247761 7.233682
v 10.895698 3.395077 4.721587
v 13.125522 3.375453 5.107525
v 11.169249 3.070852 7.822721
v 14.262988 3.533499 7.031119
v 12.828718 3.479549 8.649916
v 11.459577 3.803380 8.928183
v 12.835465 3.717025 9.356874
v 14.315588 3.632535 8.711796
v 10.333780 3.421421 8.066852
v 10.799425 4.602177 8.392828
v 12.091024 4.311315 9.288579
v 11.694269 5.054547 8.316269
v 12.927900 5.032854 8.820445
v 13.770741 4.400429 9.298656
v 15.069120 4.416363 8.224566
v 14.266604 4.978907 8.599627
v 15.047183 3.883666 7.277031
v 13.350647 3.767474 4.559305
v 14.340269 3.850904 5.563190
v 11.830971 3.844979 4.059947
v 10.340799 3.667218 4.193382
v 9.881909 3.328591 5.782705
v 9.826229 3.921169 5.037110
v 9.851084 3.874727 7.446950
v 10.422766 4.870746 6.598911
v 10.865902 5.303071 7.213671
v 11.697244 5.460895 7.590539
v 20.151058 4.250386 5.580957
v 19.619114 4.742874 4.597040
v 19.420959 4.508757 1.574243
v 19.670565 3.612878 5.662777
v 17.302391 3.520941 3.360161
v 16.619371 3.542364 2.323870
v 14.396532 4.972666 8.222509
v 14.960601 4.558604 7.892581
v 10.545500 4.644272 5.367096
v 10.697254 4.282801 4.615474
v 11.737710 3.932064 4.106023
v 13.540800 3.938151 4.775899
v 10.845041 4.165277 4.316448
v 11.219400 5.504415 6.776630
v 10.825130 5.185534 6.654622
v 13.423080 5.214743 8.376320
v 12.525750 5.253735 8.040359
v 12.288330 5.393853 7.739103
v 10.533548 4.803608 5.992497
v 19.568693 4.798698 3.994390
v 17.429394 3.582732 0.801118
v 14.439924 3.641678 6.788089
v 14.560298 3.785794 5.992412
v 14.218975 3.913101 3.124625
v 15.482348 3.823837 3.982108
v 14.036081 3.944762 4.659792
v 12.775646 3.827486 3.474521
v 13.682595 3.906126 2.063542
v 15.624523 3.802659 2.479815
v 9.282473 5.685308 3.956521
v 9.904999 5.274232 5.380962
v 9.654661 6.298653 4.984600
v 12.017653 5.118355 -1.051242
v 11.153005 4.645965 -0.279223
v 12.088181 6.283562 -0.533803
v 16.870121 3.835311 -0.475480
v 17.773724 4.053894 -0.322766
v 9.660078 6.196086 3.278997
v 13.387341 6.133946 -1.295202
v 17.765039 6.971347 7.223722
v 18.524256 7.265159 6.320715
v 17.016474 8.019623 6.696110
v 13.348544 7.498448 6.518271
v 14.297781 7.382463 7.153068
v 13.614276 8.097200 5.899182
v 11.800888 8.332897 1.833554
v 11.403477 8.351256 2.863513
v 12.579033 8.869345 2.128506
v 16.659483 7.728750 0.311871
v 15.754253 7.941872 0.782815
v 16.583254 8.122369 1.128687
v 19.755161 6.734705 3.322927
v 19.639446 6.594253 2.561372
v 18.588648 7.574838 3.277164
v 16.168974 8.879527 3.177785
v 15.910463 9.374953 2.309679
v 15.457650 9.218674 3.290501
v 17.272387 8.486831 3.111115
v 16.598042 8.775634 2.288078
v 17.951401 7.681778 2.480416
v 16.144913 8.743910 1.724817
v 17.332233 7.846918 1.650685
v 18.859779 6.683079 1.882879
v 17.473606 7.240059 0.945881
v 14.900188 9.569433 2.752505
v 15.272475 9.206398 1.831599
v 15.537386 8.407912 1.367124
v 13.814926 9.385584 2.389540
v 14.375398 8.790129 1.354326
v 14.657656 8.139962 0.643686
v 13.145283 8.460728 1.050296
v 14.492682 9.046189 4.166282
v 13.444415 9.419497 3.745626
v 12.232813 9.008517 3.301980
v 13.811594 8.844875 5.143910
v 12.726115 8.653080 4.673830
v 11.724703 8.119353 4.130636
v 12.544111 7.824949 5.416617
v 15.540180 8.621747 4.479232
v 15.021262 8.636609 5.557955
v 14.734404 8.027825 6.420234
v 16.275158 8.555752 5.814197
v 15.860365 8.042876 6.734409
v 15.308615 6.987360 7.562541
v 16.480726 6.849364 7.510555
v 16.939308 8.376862 4.507059
v 17.456026 8.021860 5.611457
v 18.309338 7.644253 4.400661
v 19.233654 7.265542 5.062373
v 19.558758 7.093602 4.076706
v 19.639484 5.417149 2.523081
v 19.384752 5.620983 1.685066
v 18.819387 4.627583 0.708544
v 18.181389 6.036742 0.813617
v 17.402199 5.567181 -0.527734
v 16.973261 7.021526 -0.221480
v 15.807227 7.394742 -0.289436
v 14.691140 6.832513 -0.859788
v 14.718775 7.526542 -0.048475
v 13.345551 6.934863 -0.655307
v 13.367672 7.778544 0.103923
v 11.837172 6.719092 0.088027
v 11.782648 7.726273 0.941498
v 10.983534 7.680168 2.144575
v 10.330879 6.922227 2.641217
v 11.021489 7.437040 3.481534
v 10.292019 6.769589 4.264205
v 11.511548 7.250767 5.004077
v 11.051519 6.488553 5.927893
v 12.475702 7.008251 6.378646
v 13.507982 6.860018 7.473504
v 13.377997 6.090437 8.443512
v 14.345532 6.584927 8.245716
v 14.427297 5.390661 8.484447
v 15.535856 5.823483 8.144927
v 15.994143 4.992251 8.214123
v 17.105400 5.789708 7.962580
v 19.143263 6.374296 7.137981
v 19.924335 4.873332 6.791804
v 20.082066 6.204050 5.998253
v 19.786072 3.967155 7.013010
v 20.002396 5.524024 4.581820
v 19.783342 5.185569 3.686516
v 16.143908 6.567183 -1.241723
v 16.580446 5.104983 -1.302688
v 14.880821 5.895376 -1.621454
v 15.417401 4.578936 -1.135666
v 13.520166 4.966443 -1.241409
v 10.727388 6.988774 1.200048
v 10.709002 5.879205 0.333195
v 9.793665 6.175892 1.805032
v 10.041138 4.371334 1.183347
v 9.505994 4.664131 2.653550
v 12.265898 6.009269 7.397794
v 18.231571 5.125927 8.164812
v 16.728235 4.426831 8.421187
v 19.043743 4.174703 7.794977
v 15.181643 3.892390 7.318020
v 17.394239 3.870779 8.176090
v 19.288647 3.443405 7.149200
v 19.592892 3.215668 5.877741
v 15.046940 3.856012 1.092086
v 16.202223 3.630931 0.160440
v 13.942797 4.104347 -0.432717
v 12.784291 3.776766 0.836166
v 12.211357 4.499539 -0.813310
v 11.621509 3.715932 1.201761
v 12.083305 3.482791 2.397704
v 10.471910 3.687068 2.491003
v 11.132453 3.947103 3.820034
v 9.870865 4.646759 3.882347
v 16.368849 3.567475 3.168045
v 18.618042 3.122127 5.486072
v 16.781477 3.603351 4.952718
v 17.288540 3.470039 3.887716
v 15.339977 3.461034 6.706808
v 15.558217 3.680502 5.789182
v 17.817158 3.272117 6.969185
v 18.659668 4.196522 0.738098
vt 0.802653 0.806114
vt 0.802438 0.806072
vt 0.802694 0.805980
vt 0.802319 0.805940
vt 0.802298 0.806136
vt 0.802565 0.806563
vt 0.802677 0.806631
vt 0.802577 0.806797
vt 0.802458 0.806615
vt 0.802458 0.806380
vt 0.802370 0.806622
vt 0.802432 0.806820
vt 0.802351 0.806801
vt 0.802347 0.806317
vt 0.802354 0.806462
vt 0.802282 0.806405
vt 0.802306 0.806552
vt 0.802198 0.806205
vt 0.802123 0.806322
vt 0.802253 0.806517
vt 0.802080 0.806502
vt 0.802544 0.806934
vt 0.802454 0.806236
vt 0.802464 0.805910
vt 0.799173 0.802392
vt 0.799427 0.802683
vt 0.799124 0.802666
vt 0.799323 0.802345
vt 0.798957 0.802374
vt 0.799184 0.802235
vt 0.799319 0.802217
vt 0.799198 0.802162
vt 0.799044 0.802165
vt 0.799394 0.802321
vt 0.799442 0.802191
vt 0.799288 0.802131
vt 0.799439 0.802069
vt 0.799266 0.801973
vt 0.799119 0.802041
vt 0.798921 0.802066
vt 0.799061 0.801934
vt 0.798852 0.802247
vt 0.799086 0.802772
vt 0.798916 0.802615
vt 0.799348 0.802832
vt 0.799542 0.802734
vt 0.799482 0.802536
vt 0.799573 0.802606
vt 0.799470 0.802347
vt 0.799653 0.802334
vt 0.799621 0.802174
vt 0.799558 0.802020
vt 0.802103 0.806092
vt 0.802014 0.806247
vt 0.802175 0.806618
vt 0.802211 0.805998
vt 0.802727 0.806673
vt 0.802666 0.806833
vt 0.799003 0.801897
vt 0.798869 0.802036
vt 0.799719 0.802553
vt 0.799659 0.802716
vt 0.799367 0.802851
vt 0.799033 0.802784
vt 0.799574 0.802803
vt 0.799719 0.802110
vt 0.799713 0.802240
vt 0.799224 0.801872
vt 0.799404 0.801922
vt 0.799495 0.801925
vt 0.799714 0.802428
vt 0.802024 0.806334
vt 0.802412 0.806880
vt 0.802727 0.805919
vt 0.798910 0.802399
vt 0.798885 0.802539
vt 0.798073 0.812200
vt 0.797998 0.812094
vt 0.798133 0.812084
vt 0.798198 0.812216
vt 0.797158 0.809361
vt 0.797389 0.809282
vt 0.797264 0.809517
vt 0.796945 0.809505
vt 0.798296 0.809846
vt 0.798517 0.809761
vt 0.798442 0.809941
vt 0.797580 0.809972
vt 0.797657 0.809854
vt 0.797681 0.810105
vt 0.796619 0.810556
vt 0.796840 0.810280
vt 0.796839 0.810459
vt 0.798211 0.809947
vt 0.797530 0.810163
vt 0.797964 0.811351
vt 0.797824 0.811299
vt 0.797978 0.811148
vt 0.798349 0.810883
vt 0.798301 0.811028
vt 0.798235 0.810821
vt 0.797968 0.810346
vt 0.798089 0.810366
vt 0.797950 0.810450
vt 0.797500 0.810600
vt 0.797604 0.810565
vt 0.797583 0.810660
vt 0.797366 0.811155
vt 0.797294 0.811070
vt 0.797541 0.811019
vt 0.797795 0.810785
vt 0.797780 0.810691
vt 0.797858 0.810734
vt 0.797692 0.810864
vt 0.797706 0.810744
vt 0.797531 0.810888
vt 0.797695 0.810673
vt 0.797537 0.810761
vt 0.797303 0.810926
vt 0.797418 0.810712
vt 0.797862 0.810659
vt 0.797779 0.810628
vt 0.797682 0.810596
vt 0.797900 0.810569
vt 0.797781 0.810530
vt 0.797683 0.810483
vt 0.797827 0.810414
vt 0.797984 0.810736
vt 0.798013 0.810622
vt 0.798065 0.810496
vt 0.798112 0.810750
vt 0.798174 0.810624
vt 0.798262 0.810454
vt 0.798328 0.810688
vt 0.797931 0.810851
vt 0.798055 0.810888
vt 0.798171 0.810962
vt 0.797974 0.811004
vt 0.798084 0.811071
vt 0.798254 0.811181
vt 0.798138 0.811290
vt 0.797819 0.810962
vt 0.797857 0.811106
vt 0.797670 0.811103
vt 0.797645 0.811283
vt 0.797492 0.811205
vt 0.797050 0.811136
vt 0.796778 0.810964
vt 0.797071 0.810969
vt 0.796863 0.810746
vt 0.797187 0.810743
vt 0.797147 0.810511
vt 0.797387 0.810565
vt 0.797500 0.810484
vt 0.797506 0.810334
vt 0.797599 0.810420
vt 0.797624 0.810250
vt 0.797719 0.810344
vt 0.797766 0.810142
vt 0.797882 0.810259
vt 0.798041 0.810233
vt 0.798124 0.810098
vt 0.798224 0.810244
vt 0.798353 0.810078
vt 0.798493 0.810294
vt 0.798476 0.810557
vt 0.798660 0.810080
vt 0.798671 0.810665
vt 0.798481 0.810817
vt 0.798440 0.811023
vt 0.798561 0.811156
vt 0.798419 0.811175
vt 0.798541 0.811343
vt 0.798362 0.811376
vt 0.798397 0.811544
vt 0.798176 0.811510
vt 0.797834 0.811453
vt 0.797759 0.811615
vt 0.797701 0.811469
vt 0.797786 0.811701
vt 0.797657 0.811696
vt 0.797557 0.811531
vt 0.797240 0.811472
vt 0.797085 0.811357
vt 0.797363 0.810412
vt 0.797143 0.810333
vt 0.797376 0.810244
vt 0.797150 0.810120
vt 0.797418 0.810032
vt 0.797943 0.810117
vt 0.797816 0.809976
vt 0.798025 0.809961
vt 0.797843 0.809680
vt 0.798092 0.809693
vt 0.798663 0.810972
vt 0.798779 0.809787
vt 0.798038 0.811521
vt 0.798115 0.811640
vt 0.797935 0.811595
vt 0.798035 0.811680
vt 0.797858 0.811678
vt 0.798124 0.811816
vt 0.797969 0.811717
vt 0.797818 0.811742
vt 0.797747 0.811800
vt 0.797080 0.809706
vt 0.796779 0.809569
vt 0.796925 0.809896
vt 0.796854 0.810033
vt 0.797294 0.809893
vt 0.797418 0.809680
vt 0.797529 0.809902
vt 0.797581 0.809617
vt 0.797509 0.809448
vt 0.797759 0.809434
vt 0.798004 0.809456
vt 0.797654 0.809214
vt 0.798257 0.809372
vt 0.798281 0.809634
vt 0.797898 0.812129
vt 0.797942 0.812208
vt 0.797853 0.812188
vt 0.797792 0.811873
vt 0.797923 0.811979
vt 0.797847 0.812043
vt 0.798082 0.811876
vt 0.798043 0.811949
vt 0.797902 0.811801
vt 0.797750 0.811853
vt 0.797702 0.811781
vt 0.796763 0.810702
vt 0.798601 0.811409
vt 0.798675 0.811260
vt 0.797055 0.811562
vt 0.797012 0.811453
vt 0.798827 0.810845
vt 0.798759 0.811060
vt 0.798754 0.811128
vt 0.798176 0.811735
vt 0.796704 0.809851
vt 0.798358 0.809441
vt 0.798421 0.809487
vt 0.798554 0.809592
vt 0.798665 0.809663
vt 0.798317 0.809259
vt 0.797830 0.812085
vt 0.798130 0.811961
vt 0.798161 0.811895
vt 0.798577 0.811538
vt 0.798827 0.809874
vt 0.797543 0.811636
vt 0.798135 0.811825
vt 0.796921 0.811183
vt 0.796830 0.809746
vt 0.796615 0.809883
vt 0.797554 0.809172
vt 0.798176 0.812090
vt 0.798300 0.812196
vt 0.797795 0.811938
vt 0.798136 0.812003
vn -0.1711 -0.9844 -0.0402
vn 0.1876 -0.9680 0.1667
vn -0.1207 -0.9891 0.0847
vn -0.0914 -0.9949 0.0416
vn -0.0920 -0.9949 0.0412
vn -0.1010 -0.9941 0.0389
vn -0.1004 -0.9942 0.0390
vn 0.1203 -0.7537 -0.6461
vn 0.7618 -0.6188 -0.1916
vn 0.2969 -0.4426 -0.8461
vn 0.9793 0.0125 0.2021
vn 0.6000 0.7970 -0.0693
vn 0.6644 0.7425 0.0853
vn 0.5128 0.8539 -0.0885
vn 0.7709 -0.3175 -0.5522
vn 0.7540 -0.3930 -0.5264
vn 0.4063 -0.7496 -0.5226
vn 0.8162 -0.4254 0.3910
vn 0.3700 -0.9290 -0.0110
vn 0.0819 -0.9892 -0.1216
vn 0.0820 -0.9892 -0.1217
vn 0.0806 -0.9901 -0.1148
vn 0.0806 -0.9901 -0.1146
vn -0.0037 -0.9850 -0.1725
vn -0.0890 -0.9933 -0.0733
vn -0.2005 -0.9715 -0.1264
vn 0.3553 -0.9279 0.1129
vn 0.1997 -0.9695 0.1423
vn -0.0513 -0.9933 -0.1036
vn -0.2098 -0.9775 0.0231
vn -0.1639 -0.9808 0.1059
vn 0.0015 -0.9982 -0.0596
vn 0.0738 -0.9912 -0.1101
vn 0.1734 -0.9846 -0.0216
vn 0.1912 -0.9719 0.1371
vn 0.1704 -0.9754 0.1400
vn -0.1571 -0.9357 0.3158
vn 0.0840 -0.9448 0.3166
vn 0.0999 -0.9935 0.0554
vn -0.0794 -0.8212 0.5650
vn -0.6125 0.0234 0.7901
vn -0.1681 -0.8008 0.5748
vn -0.3017 -0.2730 0.9135
vn -0.5520 0.0987 0.8280
vn -0.2963 0.6966 0.6534
vn -0.2533 0.7159 0.6506
vn -0.0113 0.1002 0.9949
vn -0.0353 0.5724 0.8192
vn 0.3465 -0.4019 0.8476
vn 0.5912 0.3633 0.7200
vn 0.1423 0.7106 0.6890
vn 0.6326 -0.1341 0.7628
vn 0.7739 -0.5596 0.2967
vn 0.4580 -0.8013 -0.3849
vn 0.4142 -0.8939 -0.1715
vn 0.1348 -0.8314 -0.5391
vn -0.7985 -0.4989 -0.3369
vn -0.8602 0.5096 0.0187
vn -0.9965 -0.0827 0.0087
vn -0.2124 -0.9414 -0.2619
vn -0.3575 -0.9276 0.1084
vn -0.7861 -0.5915 0.1795
vn -0.0399 -0.9941 -0.1004
vn -0.7927 0.5889 0.1573
vn -0.7432 0.1109 0.6598
vn -0.7522 0.5842 0.3048
vn -0.3691 0.8079 0.4594
vn -0.3611 0.8140 0.4550
vn -0.3604 0.8143 0.4550
vn -0.3607 0.8144 0.4545
vn -0.1810 0.8584 0.4799
vn 0.0576 -0.8615 -0.5044
vn 0.0762 -0.8713 -0.4847
vn 0.3965 -0.9171 0.0416
vn 0.5693 0.8111 0.1344
vn 0.2531 0.3154 -0.9146
vn 0.2910 0.3409 -0.8939
vn 0.7196 -0.3481 0.6008
vn -0.3232 -0.9290 0.1805
vn 0.6283 0.7603 0.1648
vn -0.5200 0.7240 -0.4532
vn 0.2682 0.6363 -0.7233
vn 0.7035 0.1077 -0.7025
vn -0.5304 0.6664 -0.5240
vn -0.6010 0.7898 -0.1222
vn -0.6010 0.7899 -0.1222
vn -0.0736 0.9490 0.3066
vn 0.1165 0.9931 -0.0153
vn -0.5876 0.7855 -0.1943
vn 0.3787 -0.7711 0.5119
vn 0.3747 0.8550 -0.3585
vn 0.4419 0.8959 0.0460
vn -0.0572 -0.6012 -0.7971
vn -0.2633 -0.6757 -0.6885
vn 0.7036 -0.4609 0.5408
vn -0.3901 -0.9198 0.0427
vn -0.3730 -0.9234 0.0903
vn 0.9398 0.2881 -0.1837
vn 0.4290 -0.8990 -0.0879
vn 0.1893 -0.9652 -0.1803
vn -0.1254 0.3558 -0.9261
vn -0.6476 0.7353 -0.1997
vn -0.2738 0.9384 0.2109
vn 0.0973 0.9599 0.2629
vn 0.1723 0.9283 0.3297
vn -0.0752 -0.9972 0.0062
vn -0.0766 -0.9970 0.0091
vn -0.0781 -0.9969 0.0113
vn 0.0661 -0.9974 0.0284
vn 0.0542 -0.9983 -0.0208
vn -0.0612 -0.9974 0.0375
vn -0.9216 -0.0781 0.3802
vn -0.7221 0.3168 -0.6149
vn 0.2804 -0.8571 -0.4322
vn -0.8261 0.5624 -0.0364
vn -0.4324 0.3877 -0.8141
vn 0.4716 0.6414 0.6052
vn -0.3043 0.7467 0.5915
vn -0.5005 0.8404 -0.2081
vn -0.0144 0.9002 -0.4352
vn 0.5757 0.7862 -0.2246
vn 0.5744 0.7850 -0.2321
vn 0.5744 0.7849 -0.2322
vn 0.4481 0.8273 0.3387
vn 0.3377 0.9398 0.0531
vn 0.5630 0.7488 -0.3498
vn 0.6442 0.7309 0.2253
vn 0.5636 0.6643 -0.4909
vn 0.6292 0.7331 -0.2583
vn 0.6223 0.7133 -0.3224
vn 0.5177 0.7231 -0.4572
vn 0.5417 0.7486 -0.3822
vn 0.5249 0.7913 -0.3136
vn 0.4935 0.7309 -0.4714
vn 0.6060 0.7343 -0.3060
vn 0.5811 0.6707 -0.4610
vn 0.5736 0.6737 -0.4659
vn 0.5807 0.6714 -0.4605
vn 0.5727 0.6745 -0.4659
vn 0.6455 0.7098 -0.2818
vn 0.2996 0.9110 0.2835
vn 0.2956 0.7061 -0.6434
vn 0.0298 0.7028 -0.7108
vn 0.0224 0.9331 -0.3588
vn -0.0306 0.9256 -0.3773
vn 0.1854 0.5393 -0.8214
vn 0.1859 0.5394 -0.8213
vn 0.1858 0.5393 -0.8214
vn 0.1865 0.5395 -0.8211
vn -0.1027 0.8372 -0.5372
vn -0.2110 0.7936 -0.5707
vn 0.0790 0.7934 -0.6035
vn 0.2156 0.8008 -0.5587
vn 0.2571 0.7617 -0.5948
vn -0.0278 0.7320 -0.6807
vn -0.1387 0.8997 -0.4138
vn -0.3611 0.7933 -0.4903
vn 0.1918 0.9011 0.3888
vn -0.1457 0.9872 -0.0645
vn -0.3391 0.9173 -0.2088
vn 0.1689 0.9075 0.3846
vn 0.1975 0.9239 0.3278
vn -0.2859 0.9528 -0.1019
vn -0.4162 0.8326 0.3654
vn -0.3351 0.8373 0.4321
vn -0.3832 0.7045 0.5973
vn -0.5169 0.8188 -0.2496
vn -0.6844 0.6665 0.2955
vn -0.5896 0.7047 0.3946
vn -0.6041 0.6016 0.5227
vn -0.4435 0.6505 0.6166
vn -0.4252 0.7349 0.5283
vn 0.2283 0.8763 0.4242
vn 0.0792 0.9640 0.2537
vn -0.2557 0.7196 0.6456
vn 0.3333 0.9312 0.1475
vn 0.0612 0.9980 0.0157
vn -0.0514 0.8238 0.5645
vn -0.1599 0.8307 0.5333
vn -0.0398 0.8803 0.4727
vn 0.0339 0.8664 0.4982
vn -0.2159 0.7930 0.5697
vn 0.0205 0.7442 0.6676
vn -0.2081 0.6688 0.7138
vn 0.1041 0.5797 0.8082
vn 0.0387 0.5588 0.8284
vn 0.1383 0.5223 0.8415
vn 0.4466 0.8116 0.3766
vn 0.1731 0.9838 -0.0467
vn 0.4305 0.8852 0.1763
vn 0.1611 0.9504 0.2661
vn 0.3395 0.9279 0.1541
vn 0.4233 0.9014 0.0917
vn 0.4743 0.8783 0.0604
vn 0.4747 0.8613 0.1811
vn 0.5598 0.8239 0.0883
vn 0.4773 0.8568 0.1952
vn 0.4435 0.8606 0.2503
vn 0.3878 0.9217 -0.0142
vn 0.3968 0.9174 -0.0292
vn 0.4129 0.9096 0.0465
vn 0.5753 0.7865 -0.2246
vn 0.9885 0.0049 -0.1511
vn 0.9590 0.0588 -0.2772
vn 0.9574 0.0094 -0.2887
vn 0.6204 0.4289 -0.6566
vn 0.6191 0.4336 -0.6548
vn 0.6203 0.4289 -0.6567
vn 0.8237 0.0827 -0.5610
vn 0.6258 0.3358 -0.7040
vn 0.6217 0.4307 -0.6543
vn 0.6177 0.4353 -0.6550
vn 0.6812 0.0685 -0.7288
vn 0.7380 0.3759 -0.5603
vn 0.7563 0.3407 -0.5586
vn 0.7618 0.4941 -0.4190
vn 0.6816 0.6087 -0.4061
vn -0.0274 0.8899 -0.4554
vn -0.0513 0.7596 -0.6483
vn -0.0407 0.7601 -0.6485
vn -0.0515 0.7598 -0.6482
vn -0.0715 0.6203 -0.7811
vn 0.0073 0.8909 -0.4542
vn 0.2146 0.7403 -0.6371
vn -0.0408 0.7599 -0.6487
vn 0.0407 0.6678 -0.7432
vn 0.0655 0.7496 -0.6586
vn 0.0159 0.8129 -0.5822
vn -0.3660 0.5692 -0.7363
vn -0.4048 0.6641 -0.6286
vn -0.4179 0.6137 -0.6698
vn -0.3950 0.5814 -0.7113
vn -0.3415 0.7226 -0.6011
vn -0.3740 0.7704 -0.5163
vn -0.6614 0.7006 -0.2677
vn -0.6999 0.6990 0.1470
vn -0.7119 0.7006 0.0488
vn -0.8900 0.4435 0.1059
vn -0.7921 0.5326 0.2983
vn -0.6402 0.7662 0.0567
vn -0.4862 0.8347 0.2586
vn -0.7950 0.5159 0.3190
vn -0.5644 0.6489 0.5102
vn -0.5647 0.6498 0.5088
vn -0.5646 0.6500 0.5086
vn -0.6286 0.7762 -0.0487
vn -0.3243 0.8972 0.2996
vn -0.5264 0.7657 0.3696
vn -0.4274 0.7902 0.4392
vn -0.5646 0.6486 0.5105
vn -0.4756 0.6921 0.5429
vn -0.4732 0.6886 0.5495
vn -0.4741 0.6876 0.5500
vn -0.2827 0.7739 0.5667
vn -0.2760 0.7706 0.5745
vn -0.2833 0.7748 0.5651
vn -0.2764 0.7706 0.5743
vn -0.2765 0.7705 0.5744
vn 0.0782 0.8069 0.5855
vn 0.0963 0.2014 0.9748
vn 0.2151 0.2004 0.9558
vn 0.2126 0.2037 0.9557
vn 0.2124 0.2055 0.9553
vn 0.3700 0.4725 0.7999
vn 0.0933 0.4600 0.8830
vn 0.2154 0.1984 0.9562
vn 0.1173 0.1464 0.9822
vn 0.1128 0.4454 0.8882
vn 0.1513 0.4620 0.8739
vn 0.3608 0.7541 0.5487
vn 0.7638 0.2614 0.5901
vn 0.9691 -0.0920 0.2288
vn 0.5747 0.7331 0.3638
vn 0.5774 0.7487 0.3257
vn 0.9824 -0.0052 0.1866
vn 0.9953 0.0525 -0.0812
vn 0.8534 0.4495 -0.2638
vn 0.9106 0.3352 0.2419
vn 0.9402 0.1709 -0.2947
vn 0.9729 0.0694 0.2204
vn 0.2502 0.6513 -0.7164
vn 0.6523 0.3355 -0.6797
vn 0.6658 0.0628 -0.7435
vn 0.2802 0.7714 -0.5713
vn -0.0378 0.7476 -0.6631
vn 0.6045 0.2125 -0.7677
vn 0.2322 0.1096 -0.9665
vn -0.0929 0.6166 -0.7818
vn 0.2585 -0.4852 -0.8353
vn 0.1156 -0.5236 -0.8441
vn 0.0185 -0.3395 -0.9404
vn -0.0200 -0.3533 -0.9353
vn -0.2236 -0.0702 -0.9722
vn -0.1314 -0.0605 -0.9895
vn -0.6590 0.6281 -0.4137
vn -0.5326 0.5301 -0.6598
vn -0.5337 0.5279 -0.6607
vn -0.5323 0.5303 -0.6598
vn -0.5521 0.5617 -0.6162
vn -0.5917 0.7185 -0.3655
vn -0.8028 0.5636 -0.1948
vn -0.5350 0.5256 -0.6614
vn -0.7243 0.4319 -0.5375
vn -0.7056 0.6897 -0.1623
vn -0.7656 0.6386 -0.0781
vn -0.5625 0.1963 -0.8032
vn -0.7972 0.0128 -0.6036
vn -0.8408 0.0697 -0.5369
vn -0.9404 -0.0119 -0.3399
vn -0.9864 0.1365 -0.0913
vn -0.9134 0.2292 -0.3363
vn -0.4757 0.6926 0.5423
vn -0.4349 0.6862 0.5831
vn -0.5347 0.4806 0.6951
vn -0.4927 0.6700 0.5553
vn -0.5126 0.7048 0.4904
vn -0.8093 0.0292 0.5867
vn 0.2354 0.4174 0.8777
vn 0.0033 0.2966 0.9550
vn 0.1748 0.5462 0.8192
vn 0.6362 0.1568 0.7555
vn 0.0001 0.3440 0.9390
vn 0.2405 -0.1665 0.9563
vn 0.6318 0.2548 0.7321
vn 0.7313 0.0544 0.6798
vn -0.2808 -0.6483 0.7077
vn 0.2458 -0.1291 0.9607
vn 0.2833 -0.5797 0.7640
vn 0.6091 -0.4005 0.6845
vn 0.7309 -0.6198 0.2859
vn 0.9921 -0.0113 -0.1249
vn -0.2432 -0.9679 0.0640
vn -0.2093 -0.8453 -0.4915
vn -0.1935 -0.9811 -0.0029
vn -0.2017 -0.9794 -0.0135
vn -0.0169 -0.8119 -0.5836
vn -0.1055 -0.7074 -0.6989
vn -0.0494 -0.9986 -0.0178
vn 0.0251 -0.9959 0.0866
vn 0.0569 -0.9780 -0.2005
vn -0.1320 -0.9240 -0.3590
vn 0.0047 -0.6829 -0.7305
vn -0.1546 -0.3964 -0.9050
vn -0.4524 -0.4399 -0.7758
vn -0.0711 -0.9225 -0.3795
vn 0.2407 -0.9678 -0.0742
vn -0.3309 -0.8428 -0.4246
vn -0.3436 -0.8404 -0.4191
vn -0.0079 -0.9821 -0.1884
vn -0.1325 -0.9812 -0.1401
vn -0.3572 -0.8707 -0.3380
vn -0.7159 -0.6871 -0.1237
vn 0.2783 -0.9522 0.1258
vn -0.0046 -0.9515 0.3075
vn -0.1082 -0.9641 0.2424
vn -0.4351 -0.8180 0.3763
vn -0.6817 -0.7059 0.1924
vn -0.8368 -0.4913 0.2415
vn -0.8407 -0.4924 0.2253
vn -0.2599 -0.9644 -0.0484
vn -0.2536 -0.9673 0.0004
vn -0.1467 -0.9877 0.0538
vn -0.2174 -0.9736 0.0698
vn -0.2895 -0.9571 -0.0139
vn -0.0752 -0.9971 0.0069
vn -0.2121 -0.8235 0.5262
vn -0.0481 -0.9688 -0.2432
vn -0.1124 -0.9053 0.4097
vn 0.0475 -0.8881 0.4572
vn -0.1173 -0.9904 -0.0736
vn -0.1127 -0.9909 -0.0740
vn -0.1177 -0.9903 -0.0738
vn -0.1130 -0.9908 -0.0738
vn -0.1281 -0.9871 -0.0963
vn -0.2441 -0.9692 -0.0338
vn 0.0960 -0.9838 0.1513
vn 0.0215 -0.9832 0.1813
vn 0.5253 -0.4822 -0.7011
vn 0.6118 -0.6697 -0.4209
vn 0.7570 -0.3196 -0.5699
vn 0.7485 -0.3172 -0.5824
vn -0.0609 -0.2467 0.9672
vn 0.8800 -0.4698 -0.0697
vn -0.5998 0.3712 0.7088
vn -0.6552 0.3458 0.6716
vn -0.3526 -0.0896 0.9315
vn -0.2880 -0.0234 0.9573
vn 0.0806 -0.9705 -0.2273
vn -0.4782 -0.8718 0.1063
vn -0.6896 -0.7048 0.1664
vn -0.1706 -0.9346 0.3120
vn -0.0297 -0.9949 -0.0968
vn -0.0527 -0.9985 0.0141
vn -0.2104 -0.9559 -0.2050
vn 0.6404 -0.6968 -0.3229
vn 0.1754 -0.9626 -0.2066
vn 0.9779 -0.2071 -0.0293
vn 0.0113 -0.5748 0.8182
vn 0.8009 -0.5925 0.0869
vn -0.5848 0.4702 0.6609
vn 0.7281 -0.3685 -0.5781
vn -0.6066 0.4573 0.6503
vn -0.7740 -0.3377 0.5356
vn -0.2507 -0.6786 0.6904
vn 0.9296 -0.3537 -0.1039
vn 0.0122 -0.9951 -0.0982
vn 0.9823 -0.1794 -0.0545
vn -0.0130 -0.9820 -0.1886
vn -0.4304 -0.9015 0.0461
vn -0.0578 -0.9959 0.0699
vn -0.6295 -0.7229 0.2848
vn -0.0174 -0.9953 0.0948
vn 0.1733 -0.9463 -0.2729
vn -0.0839 -0.9875 -0.1333
vn -0.0101 -0.9949 -0.0999
vn -0.1221 -0.9887 -0.0874
vn -0.1274 -0.9900 -0.0600
vn -0.1157 -0.8255 0.5524
vn -0.1543 -0.9520 -0.2644
usemtl Material.003
f 1/1/1 2/2/1 3/3/1
f 4/4/2 2/2/2 5/5/2
f 1/6/3 3/7/3 6/8/3
f 1/6/4 6/8/5 7/9/6
f 1/6/4 7/9/6 8/10/7
f 9/11/8 10/12/8 11/13/8
f 12/14/9 13/15/9 14/16/9
f 9/11/10 11/13/10 15/17/10
f 12/14/11 14/16/11 16/18/11
f 17/19/12 18/20/12 19/21/12
f 16/18/13 14/16/13 17/19/13
f 14/16/14 18/20/14 17/19/14
f 14/16/15 15/17/15 18/20/15
f 14/16/16 13/15/16 15/17/16
f 13/15/17 9/11/17 15/17/17
f 5/5/18 12/14/18 16/18/18
f 8/10/19 13/15/19 12/14/19
f 8/10/20 7/9/21 13/15/22
f 7/9/21 9/11/23 13/15/22
f 7/9/24 10/12/24 9/11/24
f 7/9/25 6/8/25 10/12/25
f 6/8/26 20/22/26 10/12/26
f 5/5/27 8/23/27 12/14/27
f 5/5/28 2/2/28 8/23/28
f 2/2/29 1/1/29 8/23/29
f 3/3/30 2/2/30 21/24/30
f 2/2/31 4/4/31 21/24/31
f 22/25/32 23/26/32 24/27/32
f 22/25/33 25/28/33 23/26/33
f 22/25/34 24/27/34 26/29/34
f 22/25/35 26/29/35 27/30/35
f 25/28/36 22/25/36 27/30/36
f 28/31/37 27/30/37 29/32/37
f 27/30/38 30/33/38 29/32/38
f 27/30/39 26/29/39 30/33/39
f 28/31/40 25/28/40 27/30/40
f 31/34/41 28/31/41 32/35/41
f 31/34/42 25/28/42 28/31/42
f 28/31/43 29/32/43 33/36/43
f 32/35/44 28/31/44 33/36/44
f 32/35/45 33/36/45 34/37/45
f 33/36/46 35/38/46 34/37/46
f 29/32/47 36/39/47 33/36/47
f 33/36/48 36/39/48 35/38/48
f 29/32/49 30/33/49 36/39/49
f 36/39/50 37/40/50 38/41/50
f 36/39/51 38/41/51 35/38/51
f 36/39/52 30/33/52 37/40/52
f 30/33/53 39/42/53 37/40/53
f 24/27/54 40/43/54 41/44/54
f 26/29/55 24/27/55 41/44/55
f 24/27/56 42/45/56 40/43/56
f 43/46/57 44/47/57 45/48/57
f 45/48/58 46/49/58 47/50/58
f 45/48/59 44/47/59 46/49/59
f 23/26/60 44/47/60 43/46/60
f 25/28/61 31/34/61 44/47/61
f 44/47/62 31/34/62 46/49/62
f 23/26/63 25/28/63 44/47/63
f 46/49/64 48/51/64 47/50/64
f 31/34/65 32/35/65 46/49/65
f 46/49/66 32/35/66 48/51/66
f 32/35/67 34/37/68 48/51/69
f 48/51/69 34/37/68 49/52/70
f 34/37/71 35/38/71 49/52/71
f 23/26/72 43/46/72 42/45/72
f 24/27/73 23/26/73 42/45/73
f 26/29/74 39/42/74 30/33/74
f 50/53/75 16/18/75 17/19/75 51/54/75
f 18/20/76 15/17/76 52/55/76
f 15/17/77 11/13/77 52/55/77
f 53/56/78 5/5/78 16/18/78
f 54/57/79 55/58/79 6/8/79 3/7/79
f 56/59/80 38/41/80 37/40/80 57/60/80
f 45/48/81 58/61/81 59/62/81
f 40/43/82 42/45/82 60/63/82 61/64/82
f 41/44/83 40/43/83 61/64/83
f 43/46/84 45/48/84 59/62/84 62/65/84
f 48/51/85 63/66/86 64/67/85
f 35/38/87 65/68/87 66/69/87
f 49/52/88 67/70/88 63/66/88
f 47/50/89 64/67/89 68/71/89
f 5/5/90 53/56/90 4/4/90
f 52/55/91 19/21/91 18/20/91
f 51/54/92 17/19/92 69/72/92
f 69/72/92 17/19/92 19/21/92
f 10/12/93 70/73/93 11/13/93
f 20/22/94 70/73/94 10/12/94
f 50/53/95 53/56/95 16/18/95
f 20/22/96 6/8/96 55/58/96
f 54/74/97 3/3/97 21/24/97
f 39/42/98 57/60/98 37/40/98
f 39/42/99 26/29/99 71/75/99
f 72/76/100 71/75/100 26/29/100 41/44/100
f 43/46/101 62/65/101 60/63/101 42/45/101
f 68/71/102 58/61/102 45/48/102 47/50/102
f 64/67/85 47/50/85 48/51/85
f 63/66/103 48/51/103 49/52/103
f 49/52/104 35/38/104 66/69/104 67/70/104
f 56/59/105 65/68/105 35/38/105 38/41/105
f 73/77/106 74/78/107 75/79/108
f 73/77/109 75/79/109 76/80/109
f 73/81/110 76/82/110 77/83/110
f 73/81/111 77/83/111 78/84/111
f 79/85/112 80/86/112 81/87/112
f 82/88/113 83/89/113 84/90/113
f 11/91/114 85/92/114 86/93/114
f 79/85/115 81/87/115 87/94/115
f 82/88/116 84/90/116 88/95/116
f 89/96/117 90/97/117 91/98/117
f 92/99/118 93/100/118 94/101/118
f 95/102/119 96/103/119 97/104/119
f 98/105/120 99/106/120 100/107/120
f 101/108/121 102/109/122 103/110/123
f 104/111/124 105/112/124 106/113/124
f 107/114/125 108/115/125 104/111/125
f 103/110/126 109/116/126 107/114/126
f 104/111/127 108/115/127 105/112/127
f 108/115/128 110/117/128 105/112/128
f 107/114/129 109/116/129 108/115/129
f 109/116/130 111/118/130 108/115/130
f 108/115/131 111/118/131 110/117/131
f 111/118/132 100/107/132 110/117/132
f 103/110/133 102/109/133 109/116/133
f 102/109/134 112/119/134 109/116/134
f 109/116/135 112/119/135 111/118/135
f 112/119/136 113/120/137 111/118/138
f 111/118/138 113/120/137 100/107/139
f 113/120/140 98/105/140 100/107/140
f 105/112/141 114/121/141 106/113/141
f 110/117/142 115/122/142 105/112/142
f 100/107/143 116/123/143 110/117/143
f 105/112/144 115/122/144 114/121/144
f 115/122/145 117/124/145 114/121/145
f 110/117/146 116/123/147 115/122/148
f 116/123/147 118/125/149 115/122/148
f 115/122/150 118/125/150 117/124/150
f 118/125/151 97/104/151 117/124/151
f 100/107/152 99/106/152 116/123/152
f 99/106/153 119/126/153 116/123/153
f 116/123/154 119/126/154 118/125/154
f 119/126/155 120/127/155 118/125/155
f 118/125/156 120/127/156 97/104/156
f 120/127/157 95/102/157 97/104/157
f 114/121/158 121/128/158 106/113/158
f 117/124/159 122/129/159 114/121/159
f 97/104/160 123/130/160 117/124/160
f 114/121/161 122/129/161 121/128/161
f 122/129/162 124/131/162 121/128/162
f 117/124/163 123/130/163 122/129/163
f 123/130/164 125/132/164 122/129/164
f 122/129/165 125/132/165 124/131/165
f 125/132/166 94/101/166 124/131/166
f 97/104/167 96/103/167 123/130/167
f 96/103/168 126/133/168 123/130/168
f 123/130/169 126/133/169 125/132/169
f 126/133/170 127/134/170 125/132/170
f 125/132/171 127/134/171 94/101/171
f 127/134/172 92/99/172 94/101/172
f 121/128/173 128/135/173 106/113/173
f 124/131/174 129/136/174 121/128/174
f 94/101/175 130/137/175 124/131/175
f 121/128/176 129/136/176 128/135/176
f 129/136/177 131/138/177 128/135/177
f 124/131/178 130/137/178 129/136/178
f 130/137/179 132/139/179 129/136/179
f 129/136/180 132/139/180 131/138/180
f 132/139/181 91/98/181 131/138/181
f 94/101/182 93/100/182 130/137/182
f 93/100/183 133/140/183 130/137/183
f 130/137/184 133/140/184 132/139/184
f 133/140/185 134/141/185 132/139/185
f 132/139/186 134/141/186 91/98/186
f 134/141/187 89/96/187 91/98/187
f 128/135/188 104/111/188 106/113/188
f 131/138/189 135/142/189 128/135/189
f 91/98/190 136/143/190 131/138/190
f 128/135/191 135/142/191 104/111/191
f 135/142/192 107/114/192 104/111/192
f 131/138/193 136/143/193 135/142/193
f 136/143/194 137/144/194 135/142/194
f 135/142/195 137/144/195 107/114/195
f 137/144/196 103/110/196 107/114/196
f 91/98/197 90/97/197 136/143/197
f 90/97/198 138/145/198 136/143/198
f 136/143/199 138/145/199 137/144/199
f 138/145/200 139/146/200 137/144/200
f 137/144/201 139/146/201 103/110/201
f 139/146/202 101/108/121 103/110/123
f 140/147/203 102/109/203 101/108/203
f 52/148/204 141/149/204 140/147/204
f 140/147/205 141/149/205 102/109/205
f 141/149/206 112/119/207 102/109/208
f 52/148/209 142/150/209 141/149/209
f 142/150/210 143/151/210 141/149/210
f 141/149/206 143/151/211 112/119/207
f 143/151/211 113/120/212 112/119/207
f 86/93/213 144/152/213 142/150/213
f 142/150/214 144/152/214 143/151/214
f 144/152/215 145/153/215 143/151/215
f 143/151/216 145/153/216 113/120/216
f 145/153/217 98/105/217 113/120/217
f 146/154/218 99/106/218 98/105/218
f 147/155/219 148/156/220 146/154/221
f 88/95/222 149/157/222 147/155/222
f 146/154/223 148/156/223 99/106/223
f 148/156/224 119/126/224 99/106/224
f 147/155/219 149/157/225 148/156/220
f 149/157/226 150/158/226 148/156/226
f 148/156/227 150/158/227 119/126/227
f 150/158/228 120/127/228 119/126/228
f 88/95/229 84/90/229 149/157/229
f 84/90/230 151/159/230 149/157/230
f 149/157/231 151/159/231 150/158/231
f 151/159/232 152/160/232 150/158/232
f 150/158/233 152/160/233 120/127/233
f 152/160/234 95/102/234 120/127/234
f 153/161/235 96/103/235 95/102/235
f 154/162/236 155/163/236 153/161/236
f 87/94/237 156/164/237 154/162/237
f 153/161/238 155/163/238 96/103/238
f 155/163/239 126/133/239 96/103/239
f 154/162/240 156/164/240 155/163/240
f 156/164/241 157/165/241 155/163/241
f 155/163/242 157/165/242 126/133/242
f 157/166/243 127/134/244 126/133/245
f 87/94/246 81/87/246 156/164/246
f 81/87/247 158/167/247 156/164/247
f 156/164/248 158/167/248 157/165/248
f 158/168/249 159/169/249 157/166/249
f 157/166/243 159/169/250 127/134/244
f 159/169/251 92/99/252 127/134/253
f 160/170/254 93/100/255 92/99/256
f 161/171/257 162/172/258 160/170/254
f 160/170/254 162/172/258 93/100/255
f 162/172/259 133/140/259 93/100/259
f 161/171/260 163/173/260 162/172/260
f 163/173/261 164/174/262 162/172/263
f 162/172/264 164/174/264 133/140/264
f 164/174/265 134/141/265 133/140/265
f 163/173/261 165/175/266 164/174/262
f 165/175/267 166/176/267 164/174/267
f 164/174/268 166/176/268 134/141/268
f 166/176/269 89/96/269 134/141/269
f 167/177/270 90/97/270 89/96/270
f 168/178/271 169/179/271 167/177/271
f 170/180/272 50/181/272 168/178/272
f 167/177/273 169/179/273 90/97/273
f 169/179/274 138/145/274 90/97/274
f 168/178/275 50/181/275 169/179/275
f 50/181/276 171/182/276 169/179/276
f 169/179/277 171/182/277 138/145/277
f 171/183/278 139/146/278 138/145/278
f 171/183/279 172/184/279 139/146/279
f 172/184/280 101/108/280 139/146/280
f 145/153/281 146/154/281 98/105/281
f 144/152/282 173/185/282 145/153/282
f 86/93/283 174/186/283 144/152/283
f 145/153/284 173/185/284 146/154/284
f 173/185/285 147/155/285 146/154/285
f 144/152/286 174/186/286 173/185/286
f 174/186/287 175/187/287 173/185/287
f 173/185/288 175/187/288 147/155/288
f 175/187/222 88/95/222 147/155/222
f 86/93/289 85/92/289 174/186/289
f 85/92/290 176/188/290 174/186/290
f 174/186/291 176/188/291 175/187/291
f 176/188/292 177/189/292 175/187/292
f 175/187/293 177/189/293 88/95/293
f 177/189/294 82/88/294 88/95/294
f 152/160/295 153/161/295 95/102/295
f 151/159/296 178/190/297 152/160/298
f 84/90/299 179/191/299 151/159/299
f 152/160/300 178/190/300 153/161/300
f 178/190/301 154/162/301 153/161/301
f 151/159/296 179/191/302 178/190/297
f 179/191/303 180/192/303 178/190/303
f 178/190/304 180/192/304 154/162/304
f 180/192/305 87/94/305 154/162/305
f 84/90/306 83/89/306 179/191/306
f 83/89/307 181/193/307 179/191/307
f 179/191/308 181/193/308 180/192/308
f 181/193/309 182/194/309 180/192/309
f 180/192/310 182/194/310 87/94/310
f 182/194/311 79/85/311 87/94/311
f 159/169/251 160/170/312 92/99/252
f 158/168/313 183/195/313 159/169/313
f 81/87/314 64/196/314 158/167/314
f 159/169/315 183/195/315 160/170/315
f 183/195/316 161/171/316 160/170/316
f 81/87/317 80/86/317 64/196/317
f 166/197/318 167/177/318 89/96/318
f 165/198/319 184/199/319 166/197/319
f 166/197/320 184/199/320 167/177/320
f 184/199/321 168/178/321 167/177/321
f 165/198/322 185/200/322 184/199/322
f 185/200/323 186/201/323 184/199/323
f 184/199/324 186/201/324 168/178/324
f 186/201/325 170/180/325 168/178/325
f 187/202/326 188/203/326 185/200/326
f 185/200/327 188/203/327 186/201/327
f 188/203/328 189/204/328 186/201/328
f 186/201/329 189/204/329 170/180/329
f 189/204/330 190/205/330 170/180/330
f 172/184/331 140/147/331 101/108/331
f 78/84/332 191/206/332 55/207/332
f 192/208/333 176/188/333 85/209/333
f 55/207/334 191/206/334 192/208/334
f 191/206/335 193/210/335 192/208/335
f 192/208/336 193/210/336 176/188/336
f 193/210/337 177/189/337 176/188/337
f 78/84/338 77/83/338 191/206/338
f 77/83/339 194/211/339 191/206/339
f 191/206/340 194/211/340 193/210/340
f 194/211/341 195/212/341 193/210/341
f 193/210/342 195/212/342 177/189/342
f 195/212/343 82/88/343 177/189/343
f 195/212/344 83/89/344 82/88/344
f 194/211/345 196/213/345 195/212/345
f 77/83/346 197/214/346 194/211/346
f 195/212/347 196/213/347 83/89/347
f 196/213/348 181/193/348 83/89/348
f 194/211/349 197/214/349 196/213/349
f 197/214/350 198/215/350 196/213/350
f 196/213/351 198/215/351 181/193/351
f 198/216/352 182/194/352 181/193/352
f 77/83/353 76/82/353 197/214/353
f 76/82/354 199/217/354 197/214/354
f 197/214/355 199/217/355 198/215/355
f 199/218/356 200/219/356 198/216/356
f 198/216/357 200/219/357 182/194/357
f 200/219/358 79/85/358 182/194/358
f 200/219/359 80/86/359 79/85/359
f 201/220/360 78/221/360 55/222/360
f 202/223/361 203/224/361 204/225/361
f 204/225/362 203/224/362 201/220/362
f 203/224/363 74/78/363 201/220/363
f 201/220/364 74/78/364 78/221/364
f 74/78/107 73/77/106 78/221/365
f 205/226/366 188/203/366 187/202/366
f 206/227/367 207/228/367 205/226/367
f 205/226/368 207/228/368 188/203/368
f 207/228/369 189/204/369 188/203/369
f 75/79/370 74/78/371 206/227/372
f 74/78/371 203/224/373 206/227/372
f 206/227/374 203/224/374 207/228/374
f 203/224/375 202/223/375 207/228/375
f 207/228/376 202/223/376 189/204/376
f 202/223/377 190/205/377 189/204/377
f 190/205/378 4/229/378 53/230/378
f 86/93/379 208/231/379 11/91/379
f 208/231/380 142/150/380 52/148/380
f 142/150/381 208/231/381 86/93/381
f 56/232/382 163/173/382 161/171/382 65/233/382
f 171/183/383 51/234/383 69/235/383 172/184/383
f 183/195/384 63/236/384 67/237/384
f 161/171/385 183/195/385 67/237/385 66/238/385
f 65/233/386 161/171/386 66/238/386
f 165/198/387 57/239/387 185/200/387
f 192/208/388 85/209/388 70/240/388
f 200/219/389 62/241/389 59/242/389
f 80/86/390 58/243/390 68/244/390
f 60/245/391 62/241/391 199/218/391
f 204/225/392 201/220/392 54/246/392
f 55/222/393 54/246/393 201/220/393
f 72/247/394 205/226/394 71/248/394
f 208/231/395 52/148/395 11/91/395
f 4/229/396 190/205/396 202/223/396
f 190/205/397 53/230/397 170/180/397
f 57/249/398 165/175/398 163/173/398 56/232/398
f 170/180/399 53/230/399 50/181/399
f 64/196/400 63/250/400 158/167/400
f 50/181/401 51/251/401 171/182/401
f 63/236/402 183/195/402 158/168/402
f 80/86/403 68/244/403 64/196/403
f 187/202/404 185/200/404 57/239/404 39/252/404
f 140/147/405 172/184/405 69/235/405 19/253/405
f 192/208/406 70/240/406 20/254/406
f 52/148/407 140/147/407 19/253/407
f 11/255/408 70/240/408 85/209/408
f 55/207/409 192/208/409 20/254/409
f 199/218/389 62/241/389 200/219/389
f 76/82/410 60/256/410 199/217/410
f 58/243/411 80/86/411 200/219/411 59/242/411
f 76/80/412 75/79/412 61/257/412 60/258/412
f 21/259/413 4/229/413 202/223/413
f 54/246/414 21/259/414 202/223/414 204/225/414
f 61/257/415 75/79/415 41/260/415
f 206/227/416 72/247/416 41/260/416
f 206/227/417 41/260/417 75/79/417
f 205/226/418 187/202/418 39/252/418 71/248/418
f 72/247/419 206/227/419 205/226/419
