mtllib LOW_POLY_set.mtl
o lp_tree5_Cube_018
v 45.191959 8.554860 -36.506207
v 46.722549 8.144301 -36.802139
v 45.586704 9.105582 -35.203449
v 43.669846 9.565057 -35.479183
v 43.772537 8.743406 -37.517422
v 45.572617 7.755522 -38.215042
v 47.728832 8.223223 -36.580246
v 46.992519 9.186236 -35.530014
v 47.178051 7.484786 -38.303719
v 46.113182 7.623833 -39.677753
v 47.163368 8.118044 -39.657921
v 48.007019 8.229251 -37.802437
v 45.745377 9.058663 -41.273026
v 46.797798 9.711973 -40.396107
v 47.509315 8.995278 -38.718105
v 47.393002 9.988855 -38.620712
v 44.976406 11.141112 -40.772572
v 46.051552 11.350613 -39.497498
v 44.187840 11.632271 -39.268417
v 45.553715 11.650146 -37.931557
v 46.877388 11.048112 -38.007484
v 46.448036 11.424289 -36.811687
v 47.459839 10.488609 -37.249329
v 44.939564 11.557998 -36.345036
v 46.832996 10.650228 -35.955349
v 45.735397 11.377872 -35.723328
v 45.815311 10.582238 -34.866837
v 44.444962 11.070215 -35.005295
v 44.736164 9.977716 -34.467220
v 45.682701 9.888274 -34.743458
v 47.268982 9.907248 -35.258675
v 48.380814 8.959342 -36.461906
v 47.664944 9.569242 -36.076782
v 47.751431 9.555211 -37.053783
v 43.219177 10.390321 -35.060913
v 43.306835 11.111988 -36.186646
v 42.850334 10.014749 -36.638042
v 43.120541 10.819369 -38.065601
v 44.473248 11.513192 -37.422081
v 42.963646 9.423656 -38.411785
v 43.443634 10.307920 -40.034412
v 44.222107 8.206936 -39.656082
vt 0.822250 0.816614
vt 0.822267 0.817003
vt 0.821880 0.816637
vt 0.822462 0.819597
vt 0.822049 0.819602
vt 0.822199 0.819182
vt 0.822678 0.819222
vt 0.823003 0.819655
vt 0.822677 0.816826
vt 0.822175 0.817222
vt 0.821859 0.817000
vt 0.822599 0.817192
vt 0.822980 0.817070
vt 0.822904 0.817359
vt 0.822412 0.817374
vt 0.823015 0.817602
vt 0.823089 0.817962
vt 0.822875 0.817905
vt 0.823311 0.817733
vt 0.822649 0.817597
vt 0.822545 0.817820
vt 0.822884 0.818252
vt 0.822667 0.818164
vt 0.822724 0.818448
vt 0.822437 0.818324
vt 0.822399 0.818059
vt 0.822191 0.818224
vt 0.822221 0.817913
vt 0.822170 0.818543
vt 0.821952 0.818130
vt 0.822004 0.818428
vt 0.821730 0.818433
vt 0.821905 0.818830
vt 0.821512 0.818742
vt 0.821542 0.818427
vt 0.821721 0.818013
vt 0.821519 0.817916
vt 0.821855 0.817492
vt 0.821871 0.817798
vt 0.822148 0.817669
vt 0.822021 0.817410
vt 0.821286 0.818318
vt 0.822106 0.819057
vt 0.821859 0.819224
vt 0.822266 0.818850
vt 0.822416 0.818990
vt 0.822611 0.818743
vt 0.822402 0.818541
vt 0.822775 0.818942
vt 0.823050 0.818549
vt 0.823437 0.818161
vt 0.823248 0.819153
vt 0.823437 0.819665
vn -0.1571 -0.8917 0.4245
vn -0.2687 -0.8553 0.4430
vn -0.3531 -0.8745 0.3326
vn -0.3532 -0.8744 0.3327
vn -0.3521 -0.8754 0.3311
vn -0.3541 -0.8734 0.3342
vn -0.1685 -0.9067 0.3866
vn -0.0817 -0.7625 0.6418
vn -0.0158 -0.9172 0.3981
vn 0.1839 -0.7792 0.5992
vn -0.1353 -0.9216 0.3637
vn -0.1647 -0.9859 0.0279
vn 0.3977 -0.8295 -0.3922
vn 0.6151 -0.7766 0.1362
vn 0.7310 -0.6150 -0.2955
vn 0.6904 -0.1676 -0.7037
vn 0.3254 -0.6645 -0.6727
vn 0.9046 0.0897 -0.4167
vn 0.9257 0.0381 -0.3763
vn 0.9317 0.1419 -0.3345
vn 0.4531 0.3630 -0.8142
vn 0.5740 0.5790 -0.5791
vn 0.7701 0.5384 -0.3421
vn 0.1139 0.9605 -0.2539
vn 0.1302 0.9806 -0.1462
vn 0.7696 0.5562 -0.3136
vn 0.4116 0.9104 -0.0433
vn 0.6824 0.7308 0.0151
vn 0.8143 0.5315 -0.2334
vn 0.4033 0.9043 -0.1397
vn 0.1196 0.9874 0.1036
vn 0.7140 0.6481 0.2649
vn 0.1257 0.9843 0.1243
vn 0.5637 0.7227 0.3999
vn 0.5402 0.6411 0.5451
vn -0.0426 0.9438 0.3279
vn 0.1927 0.7278 0.6581
vn 0.2882 0.1140 0.9508
vn 0.0728 0.4562 0.8869
vn 0.3059 0.1097 0.9457
vn 0.4724 0.7343 0.4875
vn 0.2834 -0.4311 0.8567
vn 0.4421 -0.4594 0.7704
vn 0.6483 0.7614 -0.0008
vn 0.7923 0.5943 0.1379
vn 0.9467 0.3123 0.0793
vn 0.6626 0.7475 0.0479
vn 0.7712 0.5594 0.3037
vn 0.7999 0.4045 -0.4433
vn 0.9528 0.2675 -0.1439
vn 0.9736 0.1322 -0.1861
vn 0.9196 0.3121 -0.2388
vn 0.4256 -0.4984 0.7553
vn 0.7257 -0.6687 0.1619
vn 0.2220 -0.5141 0.8285
vn 0.1950 -0.5146 0.8349
vn -0.2480 0.3740 0.8936
vn -0.2674 -0.7604 0.5918
vn -0.4287 -0.5836 0.6897
vn -0.4470 0.7685 0.4578
vn -0.9333 0.3309 0.1395
vn -0.7575 -0.5726 0.3135
vn -0.2315 0.9385 0.2562
vn -0.9276 0.3719 0.0341
vn -0.4162 0.9038 -0.0995
vn -0.2564 0.9640 0.0709
vn -0.0892 0.9930 0.0778
vn -0.5016 0.8549 0.1327
vn -0.1207 0.9926 0.0109
vn -0.9845 0.1376 -0.1088
vn -0.9670 0.1583 -0.1998
vn -0.7601 0.5876 -0.2774
vn -0.5837 -0.3484 -0.7334
vn -0.4537 0.0463 -0.8899
vn -0.5873 0.6264 -0.5125
vn -0.8097 -0.3805 -0.4469
vn -0.6713 -0.7398 0.0445
vn -0.4374 -0.8897 0.1312
vn -0.2948 -0.9553 -0.0229
vn -0.2380 -0.7488 -0.6186
vn -0.7378 -0.6531 0.1705
vn -0.7020 -0.6721 0.2356
usemtl Material.005
f 1/1/1 2/2/1 3/3/1
f 1/4/2 3/5/2 4/6/2
f 1/4/3 5/7/4 6/8/5
f 1/4/3 4/6/6 5/7/4
f 2/2/7 1/1/7 6/9/7
f 2/2/8 7/10/8 8/11/8
f 7/10/9 2/2/9 9/12/9
f 3/3/10 2/2/10 8/11/10
f 9/12/11 2/2/11 6/9/11
f 9/12/12 6/9/12 10/13/12
f 9/12/13 10/13/13 11/14/13
f 7/10/14 9/12/14 12/15/14
f 12/15/15 9/12/15 11/14/15
f 11/16/16 13/17/16 14/18/16
f 10/19/17 13/17/17 11/16/17
f 12/15/18 11/14/18 15/20/18
f 11/16/19 14/18/19 15/20/19
f 15/20/20 14/18/20 16/21/20
f 13/17/21 17/22/21 14/18/21
f 14/18/22 17/22/22 18/23/22
f 16/21/23 14/18/23 18/23/23
f 17/22/24 19/24/24 18/23/24
f 18/23/25 19/24/25 20/25/25
f 16/21/26 18/23/26 21/26/26
f 18/23/27 20/25/27 21/26/27
f 22/27/28 23/28/28 21/26/28
f 23/28/29 16/21/29 21/26/29
f 20/25/30 22/27/30 21/26/30
f 20/25/31 24/29/31 22/27/31
f 22/27/32 25/30/32 23/28/32
f 24/29/33 26/31/33 22/27/33
f 26/31/34 25/30/34 22/27/34
f 27/32/35 25/30/35 26/31/35
f 28/33/36 26/31/36 24/29/36
f 28/33/37 27/32/37 26/31/37
f 29/34/38 30/35/38 27/32/38
f 28/33/39 29/34/39 27/32/39
f 30/35/40 31/36/40 27/32/40
f 27/32/41 31/36/41 25/30/41
f 30/35/42 8/37/42 31/36/42
f 31/36/43 8/37/43 32/38/43
f 31/36/44 32/38/44 33/39/44
f 31/36/45 33/39/45 25/30/45
f 33/39/46 34/40/46 23/28/46
f 32/38/47 34/40/47 33/39/47
f 25/30/48 33/39/48 23/28/48
f 32/41/49 12/15/49 34/40/49
f 23/28/50 34/40/50 16/21/50
f 34/40/51 15/20/51 16/21/51
f 12/15/52 15/20/52 34/40/52
f 8/11/53 7/10/53 32/41/53
f 7/10/54 12/15/54 32/41/54
f 3/42/55 8/37/55 30/35/55
f 3/42/56 30/35/56 29/34/56
f 35/43/57 29/44/57 28/33/57
f 4/6/58 3/5/58 29/44/58
f 4/6/59 29/44/59 35/43/59
f 35/43/60 28/33/60 36/45/60
f 37/46/61 35/43/61 36/45/61
f 4/6/62 35/43/62 37/46/62
f 36/45/63 28/33/63 24/29/63
f 38/47/64 37/46/64 36/45/64
f 38/47/65 36/45/65 39/48/65
f 36/45/66 24/29/66 39/48/66
f 19/24/67 39/48/67 20/25/67
f 38/47/68 39/48/68 19/24/68
f 39/48/69 24/29/69 20/25/69
f 40/49/70 37/46/70 38/47/70
f 40/49/71 38/47/71 41/50/71
f 41/50/72 38/47/72 19/24/72
f 13/17/73 42/51/73 41/50/73
f 13/17/74 41/50/74 17/22/74
f 41/50/75 19/24/75 17/22/75
f 42/52/76 40/49/76 41/50/76
f 5/7/77 40/49/77 42/52/77
f 6/8/78 5/7/78 42/52/78
f 6/8/79 42/52/79 10/53/79
f 10/19/80 42/51/80 13/17/80
f 5/7/81 37/46/81 40/49/81
f 5/7/82 4/6/82 37/46/82
