mtllib LOW_POLY_set.mtl
o lp_tree1_Icosphere_021
v 41.973034 0.625047 4.819912
v 40.970379 0.743992 4.383149
v 41.742680 0.695290 3.776085
v 40.943779 0.936883 5.227517
v 40.582512 0.872664 3.388125
v 40.075420 1.166973 4.387604
v 40.378807 1.724015 5.241622
v 39.926468 1.873832 4.406841
v 39.967350 1.523900 3.372672
v 40.113411 2.491317 3.821591
v 40.544220 1.406467 2.556580
v 40.438053 2.272822 2.767698
v 40.687775 2.898592 3.344641
v 40.906475 2.955739 4.247233
v 40.665215 2.467755 5.037038
v 41.143616 2.442077 5.531254
v 41.205200 2.948389 5.005056
v 41.756504 3.426047 4.382689
v 41.984642 2.984891 5.204075
v 42.139587 2.135061 5.648097
v 42.819687 2.533527 5.183239
v 42.724743 2.981784 4.599224
v 43.524994 2.182601 4.578492
v 43.329834 2.511169 3.923542
v 42.307846 3.233820 3.960032
v 42.345291 2.890377 3.372286
v 41.459515 3.164597 3.638071
v 41.240875 2.827105 2.881504
v 43.714481 2.068441 3.309403
v 42.472530 2.368985 2.801318
v 41.278751 2.075832 2.422143
v 43.182808 1.611250 2.790374
v 41.545006 1.233620 2.747108
v 43.879391 1.465260 3.607884
v 43.037693 1.038313 3.265026
v 43.784840 1.521610 4.442168
v 43.882355 1.995578 4.114252
v 43.124397 0.838027 4.063388
v 43.082050 1.697315 5.211627
v 42.938370 0.988282 4.940820
v 42.023914 1.057875 5.637311
v 41.179810 1.508935 5.739385
vt 0.822464 0.808916
vt 0.822121 0.808761
vt 0.822425 0.808551
vt 0.822107 0.809089
vt 0.824382 0.810951
vt 0.824033 0.810887
vt 0.824327 0.810590
vt 0.824162 0.811246
vt 0.821739 0.808801
vt 0.822010 0.811206
vt 0.821488 0.810821
vt 0.821975 0.810673
vt 0.822284 0.810951
vt 0.823794 0.811093
vt 0.822562 0.811395
vt 0.822684 0.810848
vt 0.823767 0.810786
vt 0.823457 0.810838
vt 0.823105 0.811181
vt 0.823067 0.810678
vt 0.822739 0.810401
vt 0.822294 0.810411
vt 0.822091 0.810121
vt 0.822528 0.810094
vt 0.822898 0.810087
vt 0.822719 0.809847
vt 0.822334 0.809797
vt 0.822602 0.809530
vt 0.822887 0.809582
vt 0.823017 0.809776
vt 0.823180 0.809389
vt 0.823355 0.809635
vt 0.823096 0.810010
vt 0.823304 0.810074
vt 0.823059 0.810307
vt 0.823299 0.810490
vt 0.823741 0.809562
vt 0.823587 0.810114
vt 0.823602 0.810544
vt 0.823958 0.809910
vt 0.823922 0.810524
vt 0.823802 0.809197
vt 0.824218 0.809497
vt 0.824264 0.809080
vt 0.824240 0.810055
vt 0.823515 0.808927
vt 0.823434 0.809270
vt 0.824024 0.808725
vt 0.823201 0.809064
vt 0.822870 0.809279
vt 0.822778 0.809026
vt 0.822923 0.808736
vt 0.822469 0.809196
vt 0.822215 0.809402
vt 0.821595 0.810382
vt 0.824547 0.810104
vn -0.0982 -0.9941 -0.0452
vn -0.2056 -0.9554 0.2118
vn -0.1247 -0.9890 -0.0793
vn -0.4266 -0.9031 0.0495
vn -0.4188 -0.8881 0.1897
vn -0.6695 -0.4905 0.5578
vn -0.8764 -0.1966 0.4396
vn -0.7153 -0.6796 -0.1628
vn -0.9779 -0.2069 0.0314
vn -0.9750 0.1959 -0.1048
vn -0.6679 -0.6399 -0.3800
vn -0.8130 0.0419 -0.5807
vn -0.8956 0.2913 -0.3363
vn -0.7167 0.6053 -0.3463
vn -0.5340 0.8421 0.0761
vn -0.5935 0.7531 0.2840
vn -0.7501 0.5602 0.3514
vn -0.6400 0.4229 0.6415
vn -0.5359 0.6388 0.5520
vn -0.6340 0.7294 0.2570
vn -0.7606 0.4273 0.4888
vn -0.4986 0.8423 0.2047
vn -0.1680 0.8483 0.5022
vn -0.2037 0.7173 0.6663
vn 0.2824 0.4842 0.8282
vn 0.4191 0.7519 0.5090
vn 0.0409 0.4685 0.8825
vn 0.3142 0.8700 0.3800
vn 0.6558 0.6466 0.3897
vn 0.7014 0.6986 0.1415
vn 0.5753 0.8162 -0.0534
vn 0.3960 0.9126 0.1015
vn 0.5177 0.7527 -0.4068
vn 0.0569 0.9347 -0.3509
vn 0.1178 0.8606 -0.4954
vn 0.1435 0.8877 -0.4375
vn 0.4052 0.7183 -0.5656
vn 0.4821 0.8256 -0.2932
vn 0.2357 0.7432 -0.6262
vn -0.4015 0.7023 -0.5879
vn -0.1803 0.9166 -0.3568
vn -0.2265 0.4998 -0.8360
vn 0.1392 0.5217 -0.8417
vn 0.2402 0.2388 -0.9409
vn -0.3365 0.1838 -0.9236
vn 0.1228 -0.3232 -0.9383
vn 0.1009 -0.3302 -0.9385
vn 0.4287 0.4134 -0.8033
vn 0.7448 -0.1211 -0.6562
vn 0.5442 -0.6126 -0.5731
vn 0.1702 -0.6539 -0.7372
vn 0.9855 -0.1199 0.1198
vn 0.9673 0.1724 -0.1862
vn 0.5191 -0.8140 -0.2606
vn 0.6777 -0.7245 0.1257
vn 0.8138 0.2080 0.5426
vn 0.7468 0.1605 0.6454
vn 0.6362 -0.3844 0.6689
vn 0.6193 -0.7415 0.2583
vn 0.2681 -0.8582 0.4377
vn 0.5378 -0.3937 0.7455
vn 0.3183 -0.9209 0.2252
vn -0.2255 -0.5963 0.7704
vn 0.1086 -0.0216 0.9938
vn 0.3996 -0.0521 0.9152
vn -0.0800 -0.8788 0.4703
vn -0.5581 -0.4135 0.7194
vn -0.4861 0.1722 0.8567
vn -0.0479 0.2157 0.9753
vn 0.4810 0.1800 0.8580
vn 0.6981 0.2419 0.6739
vn 0.1215 -0.9882 -0.0933
vn 0.1518 -0.9547 -0.2560
vn 0.6350 0.7496 0.1868
vn 0.6947 0.7148 -0.0802
vn 0.0479 -0.8812 -0.4702
vn 0.0208 -0.8842 -0.4666
vn -0.0429 -0.8417 -0.5383
vn -0.3329 0.9427 0.0210
vn -0.4655 0.8766 -0.1221
usemtl Material.004
f 1/1/1 2/2/1 3/3/1
f 2/2/2 1/1/2 4/4/2
f 2/5/3 5/6/3 3/7/3
f 2/5/4 6/8/4 5/6/4
f 2/2/5 4/4/5 6/9/5
f 6/10/6 4/11/6 7/12/6
f 6/10/7 7/12/7 8/13/7
f 5/6/8 6/8/8 9/14/8
f 6/10/9 8/13/9 9/15/9
f 9/15/10 8/13/10 10/16/10
f 5/6/11 9/14/11 11/17/11
f 11/17/12 9/14/12 12/18/12
f 12/19/13 9/15/13 10/16/13
f 12/19/14 10/16/14 13/20/14
f 10/16/15 14/21/15 13/20/15
f 10/16/16 15/22/16 14/21/16
f 8/13/17 15/22/17 10/16/17
f 15/22/18 7/12/18 16/23/18
f 15/22/19 16/23/19 17/24/19
f 15/22/20 17/24/20 14/21/20
f 8/13/21 7/12/21 15/22/21
f 14/21/22 17/24/22 18/25/22
f 17/24/23 19/26/23 18/25/23
f 16/27/24 19/26/24 17/24/24
f 20/28/25 21/29/25 19/26/25
f 19/26/26 21/29/26 22/30/26
f 16/27/27 20/28/27 19/26/27
f 18/25/28 19/26/28 22/30/28
f 21/29/29 23/31/29 22/30/29
f 22/30/30 23/31/30 24/32/30
f 22/30/31 24/32/31 25/33/31
f 18/25/32 22/30/32 25/33/32
f 24/32/33 26/34/33 25/33/33
f 27/35/34 18/25/34 25/33/34
f 26/34/35 27/35/35 25/33/35
f 26/34/36 28/36/36 27/35/36
f 29/37/37 30/38/37 26/34/37
f 24/32/38 29/37/38 26/34/38
f 30/38/39 28/36/39 26/34/39
f 12/18/40 13/20/40 28/36/40
f 28/36/41 13/20/41 27/35/41
f 31/39/42 12/18/42 28/36/42
f 31/39/43 28/36/43 30/38/43
f 32/40/44 31/39/44 30/38/44
f 11/17/45 12/18/45 31/39/45
f 33/41/46 11/17/46 31/39/46
f 32/40/47 33/41/47 31/39/47
f 32/40/48 30/38/48 29/37/48
f 34/42/49 32/43/49 29/37/49
f 35/44/50 32/43/50 34/42/50
f 35/45/51 33/41/51 32/40/51
f 36/46/52 34/42/52 37/47/52
f 34/42/53 29/37/53 37/47/53
f 38/48/54 35/44/54 34/42/54
f 36/46/55 38/48/55 34/42/55
f 36/49/56 37/47/56 23/31/56
f 39/50/57 36/49/57 23/31/57
f 40/51/58 36/49/58 39/50/58
f 40/51/59 38/52/59 36/49/59
f 1/1/60 40/51/60 41/53/60
f 41/53/61 40/51/61 39/50/61
f 40/51/62 1/1/62 38/52/62
f 4/4/63 41/53/63 42/54/63
f 42/54/64 41/53/64 20/28/64
f 20/28/65 41/53/65 39/50/65
f 4/4/66 1/1/66 41/53/66
f 4/11/67 42/55/67 7/12/67
f 7/12/68 42/55/68 16/23/68
f 42/54/69 20/28/69 16/27/69
f 20/28/70 39/50/70 21/29/70
f 39/50/71 23/31/71 21/29/71
f 38/52/72 1/1/72 3/3/72
f 38/56/73 3/7/73 35/45/73
f 23/31/74 37/47/74 24/32/74
f 37/47/75 29/37/75 24/32/75
f 3/7/76 33/41/76 35/45/76
f 3/7/77 5/6/77 33/41/77
f 5/6/78 11/17/78 33/41/78
f 13/20/79 14/21/79 27/35/79
f 27/35/80 14/21/80 18/25/80
