mtllib LOW_POLY_set.mtl
o lp_tree4_Icosphere_002
v 8.436100 9.138141 -40.023319
v 8.355887 9.161013 -38.833290
v 7.005940 9.031342 -40.022255
v 9.756212 8.218042 -39.533882
v 7.607441 9.507486 -41.234818
v 9.402136 9.112896 -41.145729
v 10.793233 8.651592 -40.549122
v 9.995116 9.547937 -42.392513
v 8.364699 9.836443 -42.632851
v 11.029835 8.319442 -38.944065
v 12.153850 9.695849 -39.530930
v 11.469446 10.512184 -41.856804
v 12.566538 11.800561 -40.500641
v 10.158214 11.901738 -42.669453
v 9.177457 10.608655 -43.462971
v 7.199956 11.143366 -42.929226
v 7.810200 11.801148 -43.346622
v 6.753494 12.536505 -42.358971
v 6.918438 10.333757 -42.133175
v 5.927610 10.924450 -42.106117
v 6.083903 9.621654 -41.237469
v 5.383473 10.433279 -40.979031
v 5.597865 11.680851 -41.620464
v 5.988975 9.296251 -40.104507
v 7.084208 9.340260 -38.884056
v 6.236275 10.069728 -39.463123
v 7.697906 10.442064 -38.045372
v 7.171597 11.593664 -38.883606
v 5.862188 11.411897 -40.360718
v 8.369543 9.757764 -37.937801
v 9.797976 8.615558 -38.247742
v 11.205203 9.168404 -38.120270
v 12.202021 11.005129 -38.957466
v 11.618449 12.776206 -40.643635
v 10.390769 10.381862 -34.965630
v 11.340658 10.354131 -36.552601
v 11.661469 10.763682 -34.382744
v 9.919281 10.219191 -33.337738
v 8.816889 10.388103 -34.491501
v 9.720392 10.131376 -36.389893
v 12.548061 11.583143 -34.028229
v 12.634947 11.115422 -36.110680
v 13.133062 12.317432 -35.094017
v 9.403652 10.459332 -32.226063
v 11.110703 10.838024 -32.963432
v 10.036066 11.396187 -32.279961
v 7.537715 10.843924 -34.109386
v 8.183084 10.484709 -32.831879
v 6.997220 11.564923 -33.046608
v 9.095991 10.220984 -37.483112
v 8.043109 10.294662 -35.737617
v 7.569740 10.935571 -36.461628
v 12.125051 12.159970 -33.333511
v 8.070369 11.389662 -31.947517
v 7.280414 12.485594 -32.567684
v 8.707041 12.603703 -32.357185
v 8.260350 13.582804 -33.498188
v 6.936340 12.806503 -34.086155
v 10.807926 12.676340 -33.217861
v 12.614612 13.340927 -34.283237
v 12.802251 12.917361 -36.727531
v 12.631481 11.771250 -37.925045
v 11.071748 12.881450 -39.163986
v 12.100100 12.948679 -37.984280
v 12.001279 10.754637 -37.953121
v 7.168097 13.712394 -33.870819
v 7.734627 14.964046 -32.987526
v 5.982666 13.944329 -33.505524
v 9.055788 16.329292 -33.369450
v 10.761858 16.461203 -34.753208
v 8.700686 18.352171 -35.269131
v 4.727366 16.829569 -36.024216
v 6.600633 16.499336 -34.155300
v 5.137006 17.332811 -36.281456
v 11.943272 16.140684 -37.000492
v 11.520199 16.155523 -39.297707
v 10.794828 17.537844 -37.019436
v 9.196710 18.807741 -37.621880
v 8.091388 18.651291 -38.683594
v 7.698476 18.735718 -37.247467
v 10.482163 17.438665 -38.574577
v 9.096248 18.713617 -38.394470
v 9.187283 17.977684 -39.274044
v 8.784118 17.216309 -40.178276
v 6.128916 17.936571 -38.157715
v 6.649059 17.944410 -39.993130
v 6.483979 18.211203 -39.044621
v 5.793106 17.912632 -39.462082
v 5.257227 17.501019 -38.292889
v 7.555138 16.940956 -40.573868
v 5.608294 17.274593 -40.411415
v 4.159206 17.125822 -39.196007
v 6.225600 17.813005 -36.581226
v 5.782084 17.631445 -37.183815
v 4.521274 17.255806 -37.385399
v 6.630377 17.534586 -35.268929
v 7.183240 18.153143 -36.064327
v 8.041496 17.700314 -34.538532
v 9.020652 18.804876 -36.765961
v 9.478040 18.555548 -35.937889
v 12.448596 14.741177 -38.737461
v 11.674024 13.582035 -39.069935
v 11.723419 13.974995 -40.718201
v 11.906202 14.702185 -39.863602
v 11.090304 14.865906 -41.129955
v 10.930422 13.806146 -41.669704
v 9.087966 15.541561 -41.889236
v 7.404813 14.121972 -42.606651
v 6.881564 16.057724 -41.634792
v 6.071695 14.363673 -42.672966
v 5.300451 15.652510 -41.992104
v 4.923447 13.530059 -42.606575
v 3.673921 15.605213 -40.625496
v 2.750482 13.268117 -37.919548
v 3.284662 15.855925 -38.264481
v 2.686438 14.037632 -36.920994
v 4.008614 16.336452 -36.602322
v 3.060063 14.097206 -35.944988
v 5.241281 15.103189 -33.767891
v 6.574626 15.037193 -33.344055
v 6.280285 15.516438 -33.558300
v 8.258549 15.821573 -32.925842
v 10.612348 14.563543 -32.964828
v 11.597510 13.863090 -34.162849
v 11.627706 14.458220 -34.018997
v 11.270563 14.956764 -33.857567
v 11.905644 15.623744 -35.340210
v 12.276420 15.017694 -36.349270
v 9.351816 14.256831 -42.405277
v 10.039263 13.456194 -42.129810
v 8.634009 13.550539 -42.376106
v 3.348170 13.866552 -40.987560
v 4.178459 12.615723 -41.520294
v 3.293035 12.515941 -39.688221
v 5.156150 12.366950 -41.464260
v 4.041977 15.205418 -34.677734
v 3.689799 13.820279 -34.893543
v 4.658684 13.756279 -33.790905
v 5.474201 12.946214 -34.209763
v 9.538812 14.729726 -32.668209
v 8.870828 14.222988 -32.782722
v 10.558067 14.087128 -32.963699
v 10.535401 13.324594 -33.401947
v 11.718775 14.180365 -36.283646
v 12.331059 14.625908 -37.587849
v 7.385367 13.361532 -34.486397
v 11.459946 13.285267 -38.175091
v 11.715292 13.660228 -36.266773
v 7.105991 12.508246 -35.520298
v 9.370556 13.322452 -33.111839
v 7.276521 11.539325 -37.602757
v 7.850853 11.622458 -37.081989
v 7.417254 12.154928 -36.300449
v 5.368849 9.099310 -36.419121
v 6.399298 9.161673 -37.152962
v 6.564778 9.004560 -35.325386
v 4.659106 8.967029 -37.978642
v 5.038248 9.425241 -35.009819
v 3.704207 9.095354 -36.404869
v 3.023348 9.414810 -37.971619
v 2.257547 9.495691 -36.017689
v 3.307648 9.614546 -34.697788
v 4.144844 9.356051 -39.404213
v 2.942840 10.443913 -39.357838
v 1.672260 10.404104 -37.038151
v 1.908190 11.688529 -38.240181
v 1.860629 11.566513 -35.755657
v 2.012738 10.331794 -34.757996
v 3.930926 10.788046 -33.630062
v 3.103344 11.379397 -33.802673
v 4.686104 12.179994 -33.654999
v 4.818812 10.151598 -33.920868
v 5.612506 10.878163 -33.180744
v 6.259265 9.596088 -33.842896
v 7.006516 10.435370 -33.443813
v 6.226375 11.703252 -33.240177
v 7.340650 9.338589 -34.461983
v 7.454784 9.355825 -36.100315
v 7.758496 10.118865 -35.006893
v 7.572943 10.414950 -37.123108
v 7.105040 9.763728 -37.749783
v 6.635814 10.455780 -38.799362
v 5.675934 9.398899 -38.901604
v 4.702956 10.130445 -40.062351
v 5.440814 11.142228 -39.680523
v 3.534817 11.577364 -39.626644
v 2.511902 12.655299 -37.554039
v 3.372232 12.593184 -34.923977
v 6.821681 11.606933 -33.752007
v 7.334660 10.905545 -34.252697
v 6.758412 12.068120 -34.542236
v 7.668213 10.506063 -35.367527
v 2.762165 12.758617 -37.780174
v 2.999058 13.000745 -36.789604
v 5.365161 11.558257 -40.025837
v 3.682464 12.036574 -39.385681
v 3.815110 13.080479 -35.296917
v 6.192464 12.666712 -34.556019
v 6.995219 11.942151 -35.798790
v 6.887046 12.151541 -36.170208
v 6.702354 12.411099 -35.535965
v 6.422090 11.493105 -38.858601
v 8.256497 11.456356 -37.681778
v 10.563334 10.290615 -37.670784
v 11.363291 10.662377 -38.246914
v 11.834158 11.480982 -38.701900
v 11.042566 13.291947 -40.503098
v 10.245949 13.007557 -41.541187
v 9.309340 12.977748 -41.980560
v 8.448530 12.890678 -42.118286
v 7.618783 13.120381 -42.023254
v 6.690306 13.010522 -41.917343
v 5.989836 12.387415 -41.291069
v 6.090372 11.800640 -40.265759
vt 0.832944 0.803014
vt 0.833067 0.803069
vt 0.832858 0.803197
vt 0.833046 0.802882
vt 0.832770 0.803050
vt 0.832892 0.802865
vt 0.833002 0.802768
vt 0.832813 0.802757
vt 0.832705 0.802893
vt 0.833122 0.802789
vt 0.833141 0.802604
vt 0.832896 0.802552
vt 0.833058 0.802405
vt 0.832743 0.802422
vt 0.832668 0.802772
vt 0.832642 0.802601
vt 0.832537 0.802949
vt 0.832526 0.802857
vt 0.832368 0.802902
vt 0.832610 0.803049
vt 0.832473 0.803139
vt 0.832653 0.803257
vt 0.832518 0.803427
vt 0.832671 0.803405
vt 0.832592 0.803538
vt 0.832354 0.803134
vt 0.832784 0.803293
vt 0.832988 0.803252
vt 0.832864 0.803356
vt 0.833142 0.803402
vt 0.833048 0.803566
vt 0.832757 0.803532
vt 0.833232 0.803327
vt 0.833143 0.802905
vt 0.833194 0.803093
vt 0.833205 0.802770
vt 0.833288 0.802567
vt 0.833183 0.802449
vt 0.833006 0.802329
vt 0.833305 0.798237
vt 0.833214 0.798055
vt 0.833440 0.798129
vt 0.833422 0.798351
vt 0.833269 0.798440
vt 0.833122 0.798245
vt 0.833547 0.798050
vt 0.833370 0.797929
vt 0.833537 0.797920
vt 0.833491 0.798423
vt 0.833513 0.798243
vt 0.833560 0.798360
vt 0.833247 0.798634
vt 0.833442 0.798558
vt 0.833375 0.798783
vt 0.832891 0.798309
vt 0.833087 0.798490
vt 0.832982 0.798567
vt 0.833629 0.798097
vt 0.833548 0.798536
vt 0.833617 0.798607
vt 0.833647 0.798486
vt 0.833769 0.798535
vt 0.833711 0.798701
vt 0.833559 0.798672
vt 0.833699 0.798259
vt 0.833769 0.798000
vt 0.833667 0.797924
vt 0.833472 0.797784
vt 0.833340 0.797767
vt 0.833326 0.797542
vt 0.833424 0.797684
vt 0.833231 0.797782
vt 0.832979 0.798259
vt 0.833128 0.797894
vt 0.827299 0.794478
vt 0.827390 0.794295
vt 0.827435 0.794557
vt 0.827422 0.794104
vt 0.827450 0.793876
vt 0.827657 0.794046
vt 0.827883 0.794462
vt 0.827600 0.794322
vt 0.827878 0.794398
vt 0.827591 0.793690
vt 0.827751 0.793629
vt 0.827653 0.793808
vt 0.827781 0.793935
vt 0.827896 0.793965
vt 0.827831 0.794056
vt 0.827770 0.793756
vt 0.827833 0.793918
vt 0.827911 0.793855
vt 0.828015 0.793808
vt 0.827990 0.794192
vt 0.828119 0.794048
vt 0.828032 0.794104
vt 0.828122 0.794152
vt 0.828045 0.794275
vt 0.828138 0.793891
vt 0.828241 0.794133
vt 0.828197 0.794361
vt 0.827849 0.794245
vt 0.827915 0.794261
vt 0.827997 0.794399
vt 0.827715 0.794248
vt 0.827778 0.794160
vt 0.827611 0.794118
vt 0.827747 0.793974
vt 0.827681 0.793977
vt 0.827668 0.793541
vt 0.827682 0.793407
vt 0.827825 0.793448
vt 0.827757 0.793523
vt 0.827887 0.793503
vt 0.827919 0.793419
vt 0.828089 0.793593
vt 0.828222 0.793620
vt 0.828514 0.793724
vt 0.828317 0.793905
vt 0.828602 0.793879
vt 0.828496 0.794054
vt 0.828770 0.793974
vt 0.828756 0.794348
vt 0.828408 0.794416
vt 0.828512 0.794183
vt 0.828374 0.794874
vt 0.828208 0.794557
vt 0.828239 0.794858
vt 0.827974 0.794534
vt 0.828104 0.794888
vt 0.827568 0.794545
vt 0.827474 0.794418
vt 0.827539 0.794424
vt 0.827424 0.794195
vt 0.827219 0.793997
vt 0.827253 0.793659
vt 0.827279 0.793715
vt 0.827167 0.793831
vt 0.827290 0.793782
vt 0.827466 0.793721
vt 0.827512 0.793623
vt 0.828097 0.793465
vt 0.828337 0.793524
vt 0.828012 0.793372
vt 0.828368 0.793389
vt 0.828471 0.793565
vt 0.828549 0.794520
vt 0.828722 0.794521
vt 0.828585 0.794746
vt 0.828861 0.794543
vt 0.827834 0.794809
vt 0.827721 0.794647
vt 0.827994 0.794966
vt 0.827643 0.794814
vt 0.827524 0.794684
vt 0.827395 0.794700
vt 0.827276 0.794106
vt 0.827272 0.794212
vt 0.827182 0.794016
vt 0.827145 0.793801
vt 0.827085 0.794061
vt 0.827094 0.793698
vt 0.827433 0.793538
vt 0.827584 0.793567
vt 0.827214 0.794478
vt 0.833429 0.797607
vt 0.833581 0.797692
vt 0.833751 0.798272
vt 0.833813 0.798134
vt 0.833785 0.798648
vt 0.833813 0.798772
vt 0.833744 0.798414
vt 0.833747 0.797826
vt 0.828490 0.795413
vt 0.828415 0.795355
vt 0.828472 0.795257
vt 0.827219 0.794327
vt 0.827431 0.793484
vt 0.827593 0.793389
vt 0.827695 0.793299
vt 0.827155 0.794196
vt 0.831303 0.806172
vt 0.831357 0.806023
vt 0.831509 0.806187
vt 0.831146 0.806116
vt 0.831345 0.806317
vt 0.831148 0.806275
vt 0.831001 0.806220
vt 0.831069 0.806369
vt 0.831185 0.806411
vt 0.831037 0.806054
vt 0.830895 0.806084
vt 0.830976 0.806374
vt 0.830845 0.806240
vt 0.830877 0.806386
vt 0.831002 0.806471
vt 0.831085 0.806452
vt 0.831276 0.806539
vt 0.831158 0.806589
vt 0.831408 0.806709
vt 0.831368 0.806448
vt 0.831512 0.806533
vt 0.831550 0.806362
vt 0.831682 0.806454
vt 0.831619 0.806607
vt 0.831688 0.806229
vt 0.831568 0.806038
vt 0.831755 0.806074
vt 0.831907 0.806273
vt 0.831566 0.805840
vt 0.831422 0.805869
vt 0.831225 0.805849
vt 0.831415 0.805806
vt 0.831167 0.805984
vt 0.831033 0.805970
vt 0.831055 0.805846
vt 0.830870 0.805956
vt 0.830741 0.806299
vt 0.830836 0.806480
vt 0.831007 0.806651
vt 0.831199 0.806831
vt 0.833254 0.798800
vt 0.833226 0.798651
vt 0.833219 0.799050
vt 0.833130 0.798899
vt 0.833116 0.798545
vt 0.828398 0.794891
vt 0.828275 0.794950
vt 0.828892 0.794748
vt 0.828636 0.794809
vt 0.828069 0.795054
vt 0.827572 0.794871
vt 0.828450 0.795054
vt 0.828703 0.795069
vt 0.828640 0.795101
vt 0.832948 0.799048
vt 0.832913 0.798942
vt 0.832891 0.798757
vt 0.832869 0.798672
vt 0.832957 0.798723
vt 0.832849 0.798536
vt 0.828505 0.795194
vt 0.828543 0.795261
vt 0.828560 0.795205
vt 0.831751 0.805996
vt 0.831691 0.805854
vt 0.831996 0.806323
vt 0.831832 0.806483
vt 0.831617 0.805679
vt 0.831862 0.805802
vt 0.831328 0.805716
vt 0.831183 0.805761
vt 0.830722 0.806349
vt 0.830816 0.806487
vt 0.830871 0.806556
vt 0.830953 0.806675
vt 0.831249 0.806919
vt 0.831531 0.806802
vt 0.831633 0.806819
vt 0.831736 0.806609
vt 0.831757 0.806727
vt 0.831805 0.806894
vt 0.831835 0.805737
vt 0.831915 0.805753
vt 0.831996 0.805903
vt 0.831025 0.805821
vt 0.833257 0.803542
vt 0.833354 0.803386
vt 0.833284 0.803009
vt 0.833323 0.802829
vt 0.833325 0.802721
vt 0.833354 0.802590
vt 0.833117 0.802242
vt 0.833189 0.802386
vt 0.832994 0.802260
vt 0.832825 0.802296
vt 0.832736 0.802269
vt 0.832428 0.802668
vt 0.832472 0.802584
vt 0.832354 0.802770
vt 0.832302 0.802891
vt 0.832270 0.803031
vt 0.832658 0.803659
vt 0.832786 0.803579
vt 0.833054 0.798078
vt 0.833068 0.797972
vt 0.833152 0.797751
vt 0.833262 0.797698
vt 0.832791 0.798456
vt 0.828702 0.795650
vt 0.828703 0.795811
vt 0.828603 0.795788
vt 0.828618 0.795677
vt 0.827810 0.793357
vt 0.827968 0.793307
vt 0.828696 0.793702
vt 0.828476 0.793445
vt 0.828433 0.793342
vt 0.828538 0.793526
vt 0.828603 0.793630
vt 0.828477 0.795526
vt 0.828358 0.795411
vt 0.828586 0.795525
vt 0.830845 0.805903
vt 0.828821 0.793725
vt 0.828892 0.793818
vn 0.0745 -0.9969 0.0242
vn -0.5661 -0.8240 -0.0223
vn 0.0699 -0.9398 -0.3344
vn -0.2048 -0.9665 -0.1546
vn -0.4399 -0.8227 -0.3601
vn -0.1380 -0.9129 -0.3842
vn -0.1081 -0.9215 -0.3730
vn -0.1882 -0.9284 -0.3204
vn -0.0907 -0.8790 -0.4681
vn 0.6983 -0.6736 -0.2423
vn 0.1803 -0.9576 -0.2247
vn 0.5885 -0.5970 -0.5451
vn 0.7281 -0.5511 -0.4077
vn 0.8625 -0.3412 -0.3736
vn 0.6603 0.1997 -0.7239
vn 0.5222 -0.3720 -0.7674
vn 0.5745 0.0650 -0.8159
vn -0.0250 -0.7196 -0.6939
vn -0.3197 -0.2782 -0.9058
vn 0.2433 0.3666 -0.8980
vn -0.3483 -0.4914 -0.7982
vn -0.6378 0.1078 -0.7626
vn -0.4353 -0.5497 -0.7130
vn -0.3678 -0.5838 -0.7238
vn -0.5553 0.1564 -0.8168
vn -0.3478 -0.5486 -0.7603
vn -0.8818 -0.0868 -0.4635
vn -0.6305 0.2056 -0.7484
vn -0.7149 -0.4453 -0.5392
vn -0.0555 -0.7557 -0.6525
vn -0.2198 -0.9326 -0.2863
vn -0.7716 -0.5913 -0.2345
vn -0.0680 -0.9167 -0.3937
vn -0.2631 -0.9264 0.2695
vn -0.7027 -0.3074 0.6417
vn -0.8773 -0.1074 0.4678
vn -0.7081 0.1744 0.6842
vn -0.7437 0.2158 0.6327
vn -0.8568 0.0995 0.5059
vn -0.6589 -0.1876 0.7285
vn -0.4810 -0.3454 0.8058
vn -0.4757 -0.7286 0.4928
vn -0.0615 -0.9530 0.2966
vn 0.2146 -0.7026 0.6784
vn -0.4367 -0.8554 0.2786
vn 0.7935 -0.5002 0.3466
vn 0.8447 -0.2405 0.4781
vn 0.9785 -0.1120 0.1734
vn 0.5954 0.6482 0.4747
vn 0.5962 0.4856 -0.6393
vn -0.1380 -0.8232 0.5507
vn -0.9224 0.2898 0.2554
vn -0.1450 -0.9523 0.2684
vn -0.4211 -0.8052 -0.4176
vn 0.2211 -0.9638 0.1492
vn 0.2923 -0.9563 -0.0109
vn -0.0371 -0.9932 -0.1100
vn 0.0424 -0.9872 0.1537
vn 0.8652 -0.4803 0.1440
vn 0.4293 -0.2397 0.8708
vn -0.6805 -0.7189 0.1416
vn -0.5648 -0.7655 -0.3084
vn 0.8660 0.0342 0.4989
vn 0.8659 0.0354 0.4989
vn 0.8661 0.0345 0.4986
vn 0.1667 -0.0559 0.9844
vn -0.1594 0.7175 0.6781
vn -0.5769 0.7628 0.2919
vn -0.9542 0.1631 0.2507
vn -0.1660 0.3923 0.9047
vn 0.1612 0.2386 0.9576
vn 0.3317 0.4192 0.8451
vn 0.2779 0.5294 0.8016
vn 0.8654 0.0428 0.4993
vn 0.8884 0.4590 -0.0113
vn 0.7132 0.2898 -0.6382
vn -0.7197 -0.1331 0.6814
vn -0.6255 -0.5838 0.5176
vn -0.3376 -0.6791 0.6518
vn 0.2569 0.4656 0.8469
vn 0.4837 -0.1288 0.8657
vn 0.6657 -0.3224 0.6730
vn 0.9822 0.0444 -0.1826
vn 0.9477 -0.2996 -0.1101
vn 0.8372 -0.5138 -0.1873
vn -0.1051 -0.9942 -0.0214
vn -0.0545 -0.9926 0.1083
vn -0.2636 -0.9358 0.2339
vn -0.3561 -0.9308 -0.0818
vn -0.1512 -0.9885 -0.0002
vn -0.1021 -0.9811 0.1646
vn 0.3438 -0.8722 0.3479
vn 0.4006 -0.8936 0.2023
vn 0.5931 -0.7585 0.2699
vn 0.1457 -0.9838 0.1044
vn 0.6221 -0.7580 0.1962
vn 0.4809 -0.8718 0.0935
vn 0.5086 -0.8610 -0.0063
vn 0.1210 -0.6121 0.7815
vn 0.1225 -0.6087 0.7839
vn 0.1222 -0.6092 0.7836
vn 0.4459 0.6531 0.6121
vn -0.4606 0.6716 0.5803
vn 0.7661 0.6279 -0.1370
vn -0.0670 0.9948 -0.0768
vn 0.6525 0.7366 -0.1782
vn 0.6539 0.7360 -0.1754
vn 0.6527 0.7365 -0.1779
vn -0.0278 0.9927 -0.1173
vn 0.6542 0.7358 -0.1747
vn 0.5493 0.6680 -0.5021
vn 0.1331 0.7669 -0.6279
vn 0.0961 0.7399 -0.6658
vn 0.7100 0.6792 -0.1861
vn 0.5423 0.7003 -0.4642
vn 0.4443 0.5778 -0.6846
vn -0.3747 0.9139 -0.1562
vn 0.2018 0.7516 -0.6280
vn -0.2960 0.9395 0.1724
vn -0.1897 0.9361 -0.2963
vn -0.2203 0.9283 -0.2995
vn -0.4441 0.8906 0.0980
vn -0.4572 0.8835 0.1015
vn -0.4581 0.8817 0.1126
vn -0.4574 0.8834 0.1016
vn 0.1285 0.5811 -0.8036
vn 0.0160 0.5116 -0.8591
vn -0.3291 0.8122 -0.4818
vn -0.8273 0.5275 -0.1935
vn -0.2159 0.9665 -0.1391
vn -0.4894 0.8665 0.0979
vn -0.4891 0.8667 0.0978
vn -0.4961 0.8627 0.0980
vn -0.4881 0.8673 0.0979
vn -0.4581 0.8817 0.1131
vn -0.3526 0.9340 0.0570
vn -0.3994 0.9166 0.0178
vn -0.3205 0.9473 -0.0039
vn -0.2405 0.9684 0.0666
vn -0.6509 0.6908 0.3149
vn -0.3184 0.9026 0.2897
vn -0.4364 0.8679 0.2373
vn -0.2862 0.9031 0.3201
vn -0.4653 0.8258 0.3187
vn -0.3222 0.8427 0.4313
vn -0.3386 0.8329 0.4377
vn -0.4860 0.6465 0.5880
vn -0.3996 0.6767 0.6184
vn -0.2249 0.5306 0.8173
vn 0.1095 0.6906 0.7149
vn -0.1440 0.9553 0.2582
vn -0.0497 0.9987 -0.0069
vn -0.0017 0.9573 0.2892
vn 0.5730 0.8165 -0.0707
vn 0.5883 0.7991 0.1237
vn 0.4080 0.6260 0.6646
vn 0.7261 0.6169 0.3036
vn 0.7349 0.6082 0.3001
vn 0.7305 0.6127 0.3017
vn 0.7350 0.6082 0.2997
vn 0.8529 0.4989 -0.1539
vn 0.8404 -0.5324 -0.1017
vn 0.8280 0.3803 -0.4120
vn 0.8605 0.2822 -0.4242
vn 0.8063 0.3541 -0.4737
vn 0.7958 0.3913 -0.4621
vn 0.4497 0.6771 -0.5825
vn 0.4499 0.6772 -0.5822
vn 0.4254 -0.8831 -0.1978
vn 0.7299 0.2196 -0.6473
vn 0.4340 0.3560 -0.8276
vn 0.4494 0.6770 -0.5828
vn 0.0619 0.7187 -0.6925
vn 0.0020 0.4491 -0.8935
vn 0.0944 0.7348 -0.6717
vn 0.0720 0.7436 -0.6647
vn 0.1291 0.4726 -0.8718
vn 0.0679 0.4975 -0.8648
vn -0.0178 0.6995 -0.7144
vn 0.0280 -0.1177 -0.9927
vn -0.2794 0.3125 -0.9079
vn -0.6153 0.3181 -0.7213
vn -0.4990 0.6515 -0.5714
vn -0.5173 0.6680 -0.5350
vn -0.9681 0.1761 -0.1783
vn -0.8684 0.4574 -0.1917
vn -0.7785 0.6178 0.1113
vn -0.9653 0.1732 -0.1954
vn -0.8555 0.4588 0.2400
vn -0.7897 0.5884 0.1738
vn -0.6943 0.6501 0.3087
vn -0.7970 -0.5020 0.3357
vn -0.8451 0.4450 0.2963
vn -0.4846 0.6379 0.5985
vn -0.2940 0.0181 0.9556
vn -0.3007 0.0221 0.9535
vn -0.3018 0.0227 0.9531
vn -0.3737 0.5675 0.7337
vn -0.2831 0.2411 0.9283
vn -0.3270 0.2109 0.9212
vn -0.3290 0.5662 0.7557
vn -0.1453 0.7705 0.6207
vn -0.2927 0.0173 0.9560
vn -0.2860 0.1062 0.9523
vn 0.4863 0.5787 0.6547
vn 0.6952 -0.2020 0.6898
vn 0.5306 0.5588 0.6373
vn 0.7029 0.2938 0.6477
vn 0.7707 0.3886 0.5050
vn 0.6616 0.5359 0.5245
vn 0.6505 0.7208 0.2392
vn 0.9641 -0.1076 0.2426
vn 0.9519 0.1008 0.2892
vn 0.9274 0.3506 0.1302
vn 0.4788 0.4101 -0.7762
vn 0.0686 0.3840 -0.9208
vn 0.4370 0.0666 -0.8970
vn 0.1562 -0.1987 -0.9675
vn 0.1122 -0.1546 -0.9816
vn -0.6616 0.2697 -0.6997
vn -0.9662 0.2116 -0.1470
vn -0.7228 -0.1978 -0.6622
vn -0.8282 -0.3707 -0.4204
vn -0.9598 -0.1732 -0.2208
vn -0.1405 -0.7079 -0.6922
vn -0.7264 0.4559 0.5143
vn -0.8538 0.4423 0.2747
vn -0.2997 0.8202 0.4872
vn -0.8354 0.1291 0.5343
vn -0.7459 0.0867 0.6604
vn -0.5746 0.2352 0.7839
vn -0.2207 0.0789 0.9721
vn -0.5237 -0.7429 0.4170
vn -0.1041 -0.5375 0.8368
vn 0.1208 -0.6126 0.7811
vn 0.2322 0.4071 0.8833
vn -0.1700 0.0330 0.9849
vn 0.3008 0.5385 0.7871
vn -0.1735 0.0062 0.9848
vn 0.0762 -0.3143 0.9463
vn 0.2622 -0.0276 0.9646
vn 0.7452 -0.0833 0.6616
vn -0.4070 -0.3965 0.8229
vn 0.0526 -0.4988 0.8651
vn 0.6587 -0.3895 0.6437
vn 0.9527 0.3022 0.0337
vn 0.8305 -0.5559 -0.0357
vn 0.9866 -0.1377 0.0871
vn 0.8221 -0.5315 0.2044
vn 0.7472 -0.6521 0.1280
vn 0.8273 -0.5610 0.0283
vn 0.2526 -0.7996 0.5449
vn 0.4876 0.8398 -0.2387
vn 0.3494 0.4303 0.8323
vn -0.7476 0.6598 0.0762
vn -0.0554 0.7469 0.6626
vn 0.2802 0.4877 0.8268
vn 0.4502 0.8909 -0.0607
vn 0.5304 0.8412 -0.1051
vn -0.2703 -0.8588 0.4352
vn -0.3276 -0.5479 0.7698
vn 0.9984 -0.0049 0.0564
vn 0.9644 -0.2645 -0.0068
vn 0.7601 -0.6490 -0.0334
vn -0.2451 -0.8770 0.4134
vn 0.8220 0.3483 -0.4506
vn 0.5156 0.7032 -0.4896
vn -0.0823 -0.3821 0.9205
vn -0.0007 -0.9963 -0.0856
vn 0.0909 -0.9949 0.0430
vn -0.2295 -0.9587 0.1679
vn 0.0043 -0.9741 0.2263
vn 0.0031 -0.9965 0.0831
vn -0.2838 -0.9562 -0.0716
vn -0.1978 -0.9497 0.2429
vn -0.0546 -0.9588 0.2789
vn -0.2635 -0.9612 -0.0815
vn -0.6088 -0.6535 -0.4498
vn -0.2611 -0.9511 -0.1654
vn -0.6748 -0.6994 -0.2355
vn -0.7047 -0.5887 -0.3961
vn -0.8397 -0.2807 -0.4648
vn -0.9852 0.1712 -0.0105
vn -0.8901 -0.4399 0.1190
vn -0.9890 -0.0026 0.1476
vn -0.4526 -0.7810 0.4304
vn -0.4166 -0.3365 0.8445
vn -0.7814 0.3311 0.5289
vn -0.3313 -0.5327 0.7788
vn -0.1391 0.0931 0.9859
vn -0.1819 -0.6072 0.7735
vn -0.1816 -0.6067 0.7739
vn -0.1766 -0.6020 0.7787
vn -0.1760 -0.6015 0.7792
vn -0.2628 0.1596 0.9516
vn -0.2522 -0.5414 0.8020
vn 0.1684 -0.0544 0.9842
vn -0.1924 0.2121 0.9581
vn 0.0262 -0.4482 0.8935
vn -0.3391 -0.8127 0.4738
vn -0.0102 -0.9295 0.3688
vn 0.2821 -0.6052 0.7445
vn -0.1866 -0.9251 0.3307
vn 0.3796 -0.9250 0.0167
vn 0.8963 -0.4396 0.0578
vn 0.8780 -0.1535 0.4535
vn 0.9687 -0.2198 -0.1157
vn 0.8867 -0.3685 -0.2791
vn 0.8611 -0.1519 -0.4851
vn 0.6169 -0.5016 -0.6065
vn 0.5556 -0.0934 -0.8262
vn 0.5443 -0.4243 -0.7237
vn 0.4570 -0.8362 -0.3032
vn 0.4574 -0.8362 -0.3026
vn 0.4571 -0.8362 -0.3031
vn 0.1260 -0.9446 -0.3032
vn 0.2340 -0.7220 -0.6511
vn 0.2091 -0.9538 -0.2159
vn 0.0469 0.3226 -0.9454
vn -0.4010 -0.4081 -0.8202
vn -0.3752 -0.0238 -0.9267
vn -0.6351 0.1521 -0.7573
vn -0.4441 0.6862 -0.5761
vn -0.8512 0.5248 0.0095
vn -0.6287 0.7449 0.2233
vn -0.6581 0.5844 0.4748
vn -0.3969 0.6687 0.6287
vn 0.4566 -0.8362 -0.3036
vn 0.2826 -0.9532 -0.1075
vn 0.0094 -0.8310 0.5562
vn -0.6628 -0.7194 0.2078
vn -0.9673 0.1495 0.2048
vn -0.6403 -0.7328 -0.2301
vn -0.3494 -0.9133 0.2090
vn -0.9778 -0.0584 0.2013
vn -0.3703 -0.8712 -0.3224
vn -0.6157 -0.7125 -0.3364
vn -0.8779 -0.4402 -0.1883
vn -0.8308 -0.3325 0.4464
vn -0.5084 -0.4770 0.7169
vn 0.2261 -0.4735 0.8513
vn -0.9306 0.3129 -0.1899
vn -0.7790 0.3929 -0.4887
vn -0.8352 -0.0319 -0.5490
vn 0.1105 -0.8976 0.4267
vn 0.1969 -0.8859 0.4199
vn 0.2068 -0.9151 0.3463
vn 0.4098 -0.7548 0.5122
vn 0.9907 0.1219 -0.0601
vn 0.9232 0.3543 0.1493
vn 0.9045 0.0870 0.4175
vn 0.9240 0.3807 -0.0360
vn 0.8729 0.0222 -0.4874
vn 0.7338 0.1129 -0.6699
vn -0.6567 0.4799 -0.5818
vn -0.4595 0.8819 -0.1057
vn -0.7032 0.6522 0.2831
vn -0.3229 0.7471 0.5810
vn 0.2049 0.6761 0.7078
vn 0.5923 0.6798 0.4325
vn 0.7107 0.6764 0.1934
vn 0.8672 0.4891 0.0936
vn 0.8692 0.4938 0.0253
vn 0.6684 -0.3993 -0.6275
vn 0.7491 0.2765 0.6020
vn -0.7239 0.1580 0.6715
vn -0.3950 -0.2487 0.8844
vn -0.3863 -0.1153 0.9151
vn -0.2124 -0.4943 0.8429
vn 0.1350 -0.3009 0.9440
vn 0.0752 -0.4018 0.9126
vn 0.6172 0.0014 0.7868
vn 0.6282 0.0694 0.7750
vn 0.8154 0.5193 0.2558
vn 0.6803 0.7048 0.2012
vn 0.4768 0.6832 -0.5531
vn 0.4304 0.6277 -0.6487
vn 0.1474 0.6636 -0.7334
vn -0.0465 0.7041 -0.7086
vn -0.1618 0.6611 -0.7327
vn -0.7350 0.5022 -0.4555
vn -0.8773 0.3864 0.2848
vn -0.7351 0.2808 0.6171
vn 0.2725 -0.9472 -0.1687
vn 0.5987 -0.5040 -0.6225
vn -0.6297 -0.5206 -0.5766
vn 0.6693 0.1226 -0.7328
vn 0.0343 -0.9943 -0.1011
vn 0.1326 -0.9905 -0.0359
vn 0.1230 -0.8568 -0.5008
vn 0.6832 -0.6417 -0.3485
vn 0.1396 -0.5851 -0.7988
vn 0.8046 -0.5409 -0.2450
vn 0.5427 -0.5652 -0.6213
vn 0.2153 -0.5748 -0.7895
vn -0.0070 -0.3622 -0.9321
vn -0.0600 -0.5119 -0.8569
vn -0.0871 -0.9956 -0.0351
vn 0.2102 -0.9293 -0.3036
vn -0.8377 -0.1351 -0.5292
vn -0.0641 -0.9721 0.2258
vn 0.1311 -0.9900 -0.0527
vn 0.1256 -0.9777 -0.1683
vn -0.1688 -0.6475 -0.7431
vn -0.1793 0.5017 -0.8462
vn 0.0937 -0.7128 -0.6951
vn -0.1943 -0.8669 -0.4591
usemtl Material.002
f 1/1/1 2/2/1 3/3/1
f 1/1/2 4/4/2 2/2/2
f 1/1/3 3/3/3 5/5/3
f 1/1/4 5/5/4 6/6/4
f 4/4/5 1/1/5 6/6/5
f 7/7/6 6/6/6 8/8/6
f 6/6/7 9/9/7 8/8/7
f 6/6/8 5/5/8 9/9/8
f 7/7/9 4/4/9 6/6/9
f 10/10/10 7/7/10 11/11/10
f 10/10/11 4/4/11 7/7/11
f 7/7/12 8/8/12 12/12/12
f 11/11/13 7/7/13 12/12/13
f 11/11/14 12/12/14 13/13/14
f 12/12/15 14/14/15 13/13/15
f 8/8/16 15/15/16 12/12/16
f 12/12/17 15/15/17 14/16/17
f 8/8/18 9/9/18 15/15/18
f 15/15/19 16/17/19 17/18/19
f 15/15/20 17/18/20 14/16/20
f 15/15/21 9/9/21 16/17/21
f 16/17/22 18/19/22 17/18/22
f 9/9/23 19/20/23 16/17/23
f 19/20/24 20/21/24 16/17/24
f 16/17/25 20/21/25 18/19/25
f 19/20/26 21/22/26 20/21/26
f 20/23/27 22/24/27 23/25/27
f 20/21/28 23/26/28 18/19/28
f 20/23/29 21/22/29 22/24/29
f 5/5/30 21/22/30 19/20/30
f 3/3/31 24/27/31 21/22/31
f 21/22/32 24/27/32 22/24/32
f 5/5/33 3/3/33 21/22/33
f 3/3/34 25/28/34 24/27/34
f 24/27/35 25/28/35 26/29/35
f 24/27/36 26/29/36 22/24/36
f 26/29/37 27/30/37 28/31/37
f 26/29/38 28/31/38 29/32/38
f 22/24/39 26/29/39 29/32/39
f 26/29/40 25/28/40 27/30/40
f 25/28/41 30/33/41 27/30/41
f 2/2/42 31/34/42 30/35/42
f 4/4/43 10/10/43 31/34/43
f 31/34/44 10/10/44 32/36/44
f 2/2/45 4/4/45 31/34/45
f 10/10/46 11/11/46 32/36/46
f 32/36/47 11/11/47 33/37/47
f 11/11/48 13/13/48 33/38/48
f 33/38/49 13/13/49 34/39/49
f 13/13/50 14/14/50 34/39/50
f 2/2/51 30/35/51 25/28/51
f 22/24/52 29/32/52 23/25/52
f 3/3/53 2/2/53 25/28/53
f 5/5/54 19/20/54 9/9/54
f 35/40/55 36/41/55 37/42/55
f 35/40/56 37/42/56 38/43/56
f 35/40/57 38/43/57 39/44/57
f 35/40/58 39/44/58 40/45/58
f 41/46/59 42/47/59 43/48/59
f 44/49/60 45/50/60 46/51/60
f 47/52/61 48/53/61 49/54/61
f 50/55/62 51/56/62 52/57/62
f 41/46/63 43/48/64 53/58/65
f 44/49/66 46/51/66 54/59/66
f 55/60/67 56/61/67 57/62/67
f 58/63/68 55/60/68 57/62/68
f 49/64/69 55/60/69 58/63/69
f 54/59/70 56/61/70 55/60/70
f 54/59/71 46/51/71 56/61/71
f 46/51/72 59/65/72 56/61/72
f 53/58/73 60/66/73 59/65/73
f 53/58/65 43/48/64 60/67/74
f 43/48/75 61/68/75 60/67/75
f 62/69/76 63/70/76 64/71/76
f 49/64/77 54/59/77 55/60/77
f 49/64/78 48/53/78 54/59/78
f 48/53/79 44/49/79 54/59/79
f 46/51/80 53/58/80 59/65/80
f 46/51/81 45/50/81 53/58/81
f 45/50/82 41/46/82 53/58/82
f 43/48/83 62/69/83 61/68/83
f 43/48/84 42/47/84 62/69/84
f 42/47/85 65/72/85 62/69/85
f 40/45/86 51/56/86 50/73/86
f 40/45/87 39/44/87 51/56/87
f 39/44/88 47/52/88 51/56/88
f 39/44/89 48/53/89 47/52/89
f 39/44/90 38/43/90 48/53/90
f 38/43/91 44/49/91 48/53/91
f 38/43/92 45/50/92 44/49/92
f 38/43/93 37/42/93 45/50/93
f 37/42/94 41/46/94 45/50/94
f 36/41/95 35/40/95 40/45/95
f 37/42/96 42/47/96 41/46/96
f 37/42/97 36/41/97 42/47/97
f 36/41/98 65/74/98 42/47/98
f 66/75/99 67/76/100 68/77/101
f 69/78/102 70/79/102 71/80/102
f 72/81/103 73/82/103 74/83/103
f 75/84/104 76/85/104 77/86/104
f 78/87/105 79/88/105 80/89/105
f 77/86/106 81/90/107 78/87/108
f 78/87/109 82/91/109 79/88/109
f 78/87/108 81/90/107 82/91/110
f 81/90/111 83/92/111 82/91/111
f 82/91/112 83/92/112 79/88/112
f 83/92/113 84/93/113 79/88/113
f 77/86/114 76/85/114 81/90/114
f 81/90/115 76/85/115 83/92/115
f 76/85/116 84/93/116 83/92/116
f 79/88/117 85/94/117 80/89/117
f 84/93/118 86/95/118 79/88/118
f 79/88/119 87/96/119 85/94/119
f 79/88/120 86/95/120 87/96/120
f 86/95/121 88/97/121 87/96/121
f 87/96/122 88/97/122 85/94/122
f 88/97/123 89/98/124 85/94/125
f 84/93/126 90/99/126 86/95/126
f 90/99/127 91/100/127 86/95/127
f 86/95/128 91/100/128 88/97/128
f 88/97/129 91/100/129 89/98/129
f 91/100/130 92/101/130 89/98/130
f 85/94/131 93/102/132 80/89/133
f 85/94/131 94/103/134 93/102/132
f 85/94/125 89/98/124 94/103/135
f 89/98/136 74/83/136 94/103/136
f 94/103/137 74/83/137 93/102/137
f 92/101/138 95/104/138 89/98/138
f 89/98/139 95/104/139 74/83/139
f 95/104/140 72/81/140 74/83/140
f 74/83/141 96/105/141 93/102/141
f 93/102/142 97/106/142 80/89/142
f 97/106/143 71/80/143 80/89/143
f 93/102/144 96/105/144 97/106/144
f 96/105/145 98/107/145 97/106/145
f 97/106/146 98/107/146 71/80/146
f 74/83/147 73/82/147 96/105/147
f 96/105/148 73/82/148 98/107/148
f 73/82/149 69/78/149 98/107/149
f 98/107/150 69/78/150 71/80/150
f 71/80/151 99/108/151 80/89/151
f 80/89/152 99/108/152 78/87/152
f 71/80/153 100/109/153 99/108/153
f 100/109/154 77/86/154 99/108/154
f 99/108/155 77/86/155 78/87/155
f 71/80/156 70/79/156 100/109/156
f 100/109/157 70/79/158 77/86/159
f 70/79/158 75/84/160 77/86/159
f 101/110/161 76/85/161 75/84/161
f 102/111/162 103/112/162 101/110/162
f 101/110/163 104/113/163 76/85/163
f 101/110/164 103/112/164 104/113/164
f 103/112/165 105/114/165 104/113/165
f 104/113/166 105/114/166 76/85/166
f 105/114/167 84/93/167 76/85/168
f 102/111/169 106/115/169 103/112/169
f 103/112/170 106/115/170 105/114/170
f 106/115/171 107/116/171 105/114/171
f 105/114/167 107/116/172 84/93/167
f 107/117/173 90/99/173 84/93/173
f 108/118/174 109/119/174 107/117/174
f 107/117/175 109/119/175 90/99/175
f 109/119/176 91/100/176 90/99/176
f 108/118/177 110/120/177 109/119/177
f 110/120/178 111/121/178 109/119/178
f 109/119/179 111/121/179 91/100/179
f 108/118/180 112/122/180 110/120/180
f 110/120/181 112/122/181 111/121/181
f 112/123/182 113/124/182 111/125/182
f 111/125/183 113/124/183 91/100/183
f 113/124/184 92/101/184 91/100/184
f 114/126/185 115/127/185 113/124/185
f 113/124/186 115/127/186 92/101/186
f 115/127/187 95/104/187 92/101/187
f 114/126/188 116/128/188 115/127/188
f 116/128/189 117/129/189 115/127/189
f 115/127/190 117/129/190 95/104/190
f 117/129/191 72/81/191 95/104/191
f 114/126/192 118/130/192 116/128/192
f 116/128/193 118/130/193 117/129/193
f 119/131/194 73/82/194 72/81/194
f 68/77/195 120/132/196 119/131/197
f 119/131/198 121/133/198 73/82/198
f 119/131/199 120/132/199 121/133/199
f 120/132/200 122/134/200 121/133/200
f 121/133/201 122/134/201 73/82/201
f 122/134/202 69/78/202 73/82/202
f 68/77/195 67/76/203 120/132/196
f 120/132/204 67/76/204 122/134/204
f 123/135/205 70/79/205 69/78/205
f 124/136/206 125/137/206 123/138/206
f 123/138/207 126/139/207 70/79/207
f 123/138/208 125/137/208 126/139/208
f 125/137/209 127/140/209 126/139/209
f 126/139/210 127/140/210 70/79/210
f 127/140/211 75/84/211 70/79/211
f 124/136/212 128/141/212 125/137/212
f 125/137/213 128/141/213 127/140/213
f 127/140/214 128/141/214 75/84/214
f 106/115/215 129/142/215 107/116/215
f 129/143/216 108/118/216 107/117/216
f 106/115/217 130/144/217 129/142/217
f 130/145/218 131/146/218 129/143/218
f 129/143/219 131/146/219 108/118/219
f 112/123/220 132/147/220 113/124/220
f 132/147/221 114/126/221 113/124/221
f 112/123/222 133/148/222 132/147/222
f 133/148/223 134/149/223 132/147/223
f 132/147/224 134/149/224 114/126/224
f 112/123/225 135/150/225 133/148/225
f 117/129/226 119/131/226 72/81/226
f 118/130/227 136/151/227 117/129/227
f 117/129/228 136/152/228 119/131/228
f 118/130/229 137/153/229 136/151/229
f 137/154/230 138/155/230 136/152/230
f 136/152/231 138/155/231 119/131/231
f 138/155/232 68/77/232 119/131/232
f 137/154/233 139/156/233 138/155/233
f 138/155/234 139/156/234 68/77/234
f 139/156/235 66/75/99 68/77/101
f 122/134/236 123/135/236 69/78/236
f 67/76/237 140/157/237 122/134/237
f 122/134/238 140/157/238 123/135/238
f 67/76/239 141/158/239 140/157/239
f 141/158/240 142/159/240 140/157/240
f 140/157/241 142/159/241 123/135/241
f 142/160/242 124/136/242 123/138/242
f 67/76/243 66/75/243 141/158/243
f 141/158/244 143/161/244 142/159/244
f 142/160/245 143/162/245 124/136/245
f 128/141/246 101/110/246 75/84/246
f 124/136/247 144/163/247 128/141/247
f 128/141/248 145/164/248 101/110/248
f 128/141/249 144/163/249 145/164/249
f 144/163/250 102/111/250 145/164/250
f 145/164/251 102/111/251 101/110/251
f 146/165/252 66/75/252 139/156/252
f 147/166/253 148/167/253 61/68/253 64/71/253
f 143/168/254 59/65/254 60/66/254 124/169/254
f 146/170/255 149/171/255 58/63/255 57/62/255
f 57/62/256 56/61/256 150/172/256
f 150/172/257 56/61/257 59/65/257 143/168/257
f 148/167/258 124/173/258 60/67/258
f 60/67/259 61/68/259 148/167/259
f 151/174/260 152/175/260 153/176/260
f 57/177/261 141/158/261 66/75/261
f 148/178/262 144/163/262 124/136/262
f 147/179/263 102/111/263 144/163/263 148/178/263
f 63/180/264 102/111/264 147/179/264
f 57/177/265 66/75/265 146/165/265
f 64/71/266 61/68/266 62/69/266
f 64/71/267 63/70/267 147/166/267
f 150/181/268 143/161/268 141/158/268 57/177/268
f 154/182/269 155/183/269 156/184/269
f 154/182/270 157/185/270 155/183/270
f 154/182/271 156/184/271 158/186/271
f 154/182/272 158/186/272 159/187/272
f 157/185/273 154/182/273 159/187/273
f 160/188/274 159/187/274 161/189/274
f 159/187/275 162/190/275 161/189/275
f 159/187/276 158/186/276 162/190/276
f 160/188/277 157/185/277 159/187/277
f 163/191/278 160/188/278 164/192/278
f 163/191/279 157/185/279 160/188/279
f 160/188/280 161/189/280 165/193/280
f 164/194/281 160/188/281 165/193/281
f 164/194/282 165/193/282 166/195/282
f 165/193/283 167/196/283 166/195/283
f 161/189/284 168/197/284 165/193/284
f 165/193/285 168/197/285 167/196/285
f 161/189/286 162/190/286 168/197/286
f 168/197/287 169/198/287 170/199/287
f 168/197/288 170/199/288 167/196/288
f 168/197/289 162/190/289 169/198/289
f 169/198/290 171/200/290 170/199/290
f 162/190/291 172/201/292 169/198/293
f 172/201/292 173/202/294 169/198/293
f 169/198/295 173/202/295 171/200/295
f 172/201/296 174/203/296 173/202/296
f 173/202/297 175/204/297 176/205/297
f 173/202/298 176/205/298 171/200/298
f 173/202/299 174/203/299 175/204/299
f 158/186/300 174/203/300 172/201/300
f 156/184/301 177/206/301 174/203/301
f 174/203/302 177/206/302 175/204/302
f 158/186/303 156/184/303 174/203/303
f 156/184/304 178/207/304 177/206/304
f 177/206/305 178/207/305 179/208/305
f 177/206/306 179/209/306 175/204/306
f 179/208/307 178/207/307 180/210/307
f 178/207/308 181/211/308 180/210/308
f 181/211/309 182/212/309 180/213/309
f 181/211/310 183/214/310 182/212/310
f 182/212/311 184/215/311 185/216/311
f 182/212/312 183/214/312 184/215/312
f 155/183/313 183/214/314 181/211/315
f 157/185/316 163/191/316 183/214/316
f 183/214/317 163/191/317 184/215/317
f 155/183/318 157/185/318 183/214/318
f 184/215/319 186/217/319 185/216/319
f 163/191/320 164/192/320 184/215/320
f 184/215/321 164/192/321 186/217/321
f 164/194/322 166/195/322 186/218/322
f 186/218/323 166/195/323 187/219/323
f 166/195/324 167/196/324 187/219/324
f 187/219/325 167/196/325 188/220/325
f 167/196/326 170/199/326 188/220/326
f 170/199/327 171/200/327 188/221/327
f 155/183/313 181/211/315 178/207/328
f 156/184/329 155/183/329 178/207/329
f 158/186/330 172/201/330 162/190/330
f 47/52/331 49/54/331 189/222/331 190/223/331
f 49/54/332 58/224/332 191/225/332 189/222/332
f 52/57/333 51/56/333 192/226/333
f 51/56/334 47/52/334 190/223/334 192/226/334
f 118/130/335 114/126/335 193/227/335 194/228/335
f 195/229/336 196/230/336 133/148/336
f 196/230/337 134/149/337 133/148/337
f 114/126/338 134/149/338 196/230/338 193/227/338
f 137/153/339 118/130/339 194/228/339 197/231/339
f 139/156/340 137/154/340 197/232/340
f 146/233/341 139/234/341 198/235/341
f 191/225/342 58/224/342 149/236/342 199/237/342
f 149/238/343 153/239/343 199/240/343
f 199/240/344 153/239/344 152/241/344 52/57/344
f 151/174/345 153/176/345 149/242/345 200/243/345
f 200/243/346 149/242/346 201/244/346
f 149/242/347 198/235/347 201/244/347
f 198/235/348 149/242/348 146/233/348
f 192/245/349 179/208/349 180/210/349 52/246/349
f 179/209/350 192/247/350 190/248/350
f 190/248/351 175/204/351 179/209/351
f 52/246/352 180/210/352 151/249/352 199/250/352
f 151/251/353 180/213/353 182/212/353
f 182/212/354 185/216/354 202/252/354 151/251/354
f 196/253/355 186/218/355 187/219/355 193/254/355
f 193/254/356 187/219/356 194/255/356
f 194/255/357 187/219/357 188/220/357 197/256/357
f 197/257/358 188/221/358 171/200/358 139/258/358
f 171/200/359 176/205/359 198/259/359 139/258/359
f 198/259/360 176/205/360 189/260/360 191/261/360
f 201/262/361 198/259/361 191/261/361
f 199/250/362 200/263/362 201/264/362 191/265/362
f 200/263/363 199/250/363 151/249/363
f 202/252/364 185/216/364 195/266/364
f 176/205/365 175/204/365 190/248/365 189/260/365
f 27/30/366 203/267/366 28/31/366
f 50/268/367 27/30/367 30/33/367
f 203/267/368 27/30/368 50/268/368
f 50/269/369 30/35/369 31/34/369
f 50/269/370 32/36/370 204/270/370
f 31/34/371 32/36/371 50/269/371
f 204/270/372 32/36/372 33/37/372 205/271/372
f 205/271/373 33/37/373 206/272/373
f 33/38/374 34/39/374 63/273/374 206/274/374
f 34/39/375 207/275/375 63/273/375
f 207/275/376 34/39/376 208/276/376
f 208/276/377 34/39/377 14/14/377 209/277/377
f 14/16/378 17/18/378 210/278/378 209/279/378
f 210/278/379 17/18/379 18/19/379 211/280/379
f 212/281/380 211/280/380 18/19/380
f 212/281/381 18/19/381 23/26/381 213/282/381
f 213/283/382 23/25/382 29/32/382 214/284/382
f 29/32/383 28/31/383 214/284/383
f 65/74/384 36/41/384 204/285/384 205/286/384
f 62/69/385 65/72/385 205/287/385 206/288/385
f 50/55/386 52/57/386 203/289/386
f 63/70/387 62/69/387 206/288/387
f 204/285/388 40/45/388 50/73/388
f 204/285/389 36/41/389 40/45/389
f 195/290/390 135/291/390 213/292/390 214/293/390
f 106/115/391 207/294/391 208/295/391
f 212/296/392 112/122/392 108/118/392
f 207/294/393 106/115/393 102/111/393 63/180/393
f 130/144/394 106/115/394 208/295/394
f 209/297/395 131/146/395 130/145/395 208/298/395
f 131/146/396 209/297/396 210/299/396 211/300/396
f 211/300/397 212/296/397 108/118/397 131/146/397
f 151/174/398 28/301/398 203/302/398
f 195/290/399 214/293/399 28/301/399
f 203/289/400 52/57/400 152/241/400
f 203/302/401 152/175/401 151/174/401
f 202/303/402 28/301/402 151/174/402
f 202/303/403 195/290/403 28/301/403
f 186/217/404 195/266/404 185/216/404
f 195/266/405 186/217/405 196/304/405
f 213/305/406 135/306/406 112/122/406 212/296/406
f 133/148/407 135/150/407 195/229/407
