mtllib LOW_POLY_set.mtl
o lp_tree1_Icosphere_017
v -28.957510 13.229380 -35.466934
v -29.975489 12.877559 -34.725262
v -30.004818 13.301367 -36.407394
v -28.418615 13.329068 -34.043205
v -28.608734 13.422343 -36.784786
v -27.919800 13.854049 -35.440033
v -29.812477 13.168736 -33.374062
v -28.660267 14.209129 -33.322502
v -27.542334 14.448540 -34.214993
v -31.123562 13.549171 -34.422668
v -31.467972 14.877955 -33.986179
v -30.177427 15.185281 -33.369278
v -28.759754 15.621459 -33.978180
v -30.283937 17.359468 -34.275391
v -31.347956 16.502806 -34.163750
v -29.264328 17.261627 -34.961037
v -31.393744 16.996655 -35.103081
v -30.414452 17.720650 -35.549786
v -29.669710 17.520670 -36.277977
v -30.547052 17.044775 -37.188076
v -31.175779 16.202387 -36.401371
v -29.621185 17.080767 -37.499146
v -30.466681 15.925997 -38.458961
v -31.911642 16.426725 -37.883884
v -32.601578 15.309549 -37.807693
v -32.265514 16.201773 -36.404503
v -31.843033 14.915554 -38.822414
v -32.637016 15.683049 -36.268723
v -31.715563 14.144937 -38.319355
v -32.269093 14.606057 -36.876225
v -31.356026 13.743376 -35.813648
v -32.201099 14.847739 -35.307384
v -31.154600 13.781611 -37.145454
v -29.880003 13.472929 -37.748428
v -28.558887 13.910206 -37.872765
v -30.290468 14.317791 -38.692528
v -28.538177 15.415953 -38.190098
v -28.037514 14.534824 -36.931080
v -28.509726 16.113890 -36.778717
v -28.042118 15.760947 -35.347027
v -27.607841 14.779431 -35.699440
v -32.185402 16.051825 -35.043053
vt 0.812360 0.805751
vt 0.812252 0.805327
vt 0.812785 0.805566
vt 0.811836 0.805774
vt 0.812695 0.806012
vt 0.812247 0.806123
vt 0.811781 0.805238
vt 0.811781 0.807856
vt 0.811967 0.807791
vt 0.811974 0.808046
vt 0.811830 0.807602
vt 0.811814 0.806312
vt 0.813025 0.808482
vt 0.812775 0.808528
vt 0.812917 0.808254
vt 0.812734 0.808047
vt 0.812426 0.807998
vt 0.812264 0.807815
vt 0.812141 0.807588
vt 0.812524 0.807532
vt 0.812609 0.807740
vt 0.812422 0.807345
vt 0.812722 0.807594
vt 0.812664 0.807424
vt 0.812679 0.807270
vt 0.812900 0.807288
vt 0.812917 0.807484
vt 0.812840 0.807135
vt 0.813140 0.807088
vt 0.813176 0.807398
vt 0.813304 0.807632
vt 0.813000 0.807611
vt 0.813431 0.807164
vt 0.813459 0.807399
vt 0.813039 0.807705
vt 0.813584 0.807076
vt 0.813218 0.807846
vt 0.813509 0.807870
vt 0.813127 0.808130
vt 0.812962 0.807918
vt 0.813357 0.808073
vt 0.813313 0.808344
vt 0.813550 0.808262
vt 0.813145 0.805809
vt 0.812984 0.806229
vt 0.813258 0.806496
vt 0.813517 0.806637
vt 0.813376 0.806871
vt 0.812989 0.806707
vt 0.812660 0.806394
vt 0.812640 0.806863
vt 0.812246 0.806822
vt 0.812298 0.806447
vt 0.812043 0.807343
vt 0.812833 0.807749
vn 0.1532 -0.9576 -0.2439
vn 0.2966 -0.9539 -0.0455
vn 0.0502 -0.9900 -0.1317
vn 0.0502 -0.9901 -0.1312
vn 0.0527 -0.9911 -0.1221
vn 0.5155 -0.8568 0.0110
vn 0.5136 -0.8473 -0.1351
vn 0.1988 -0.9627 0.1835
vn 0.4204 -0.5030 0.7552
vn 0.6248 -0.3848 0.6794
vn 0.7903 -0.6105 0.0528
vn -0.4424 -0.8642 0.2396
vn -0.6421 -0.3843 0.6634
vn -0.4150 -0.0772 0.9066
vn -0.0366 -0.0090 0.9993
vn 0.2449 0.4224 0.8727
vn 0.2630 0.3821 0.8859
vn -0.4526 0.1298 0.8822
vn -0.2014 0.3684 0.9076
vn 0.5008 0.5531 0.6658
vn -0.4828 0.8284 0.2842
vn -0.5452 0.7307 0.4108
vn 0.2514 0.9377 0.2400
vn 0.3328 0.9394 0.0823
vn -0.1152 0.9215 -0.3709
vn -0.6531 0.5922 -0.4720
vn -0.8516 0.5053 -0.1395
vn -0.1504 0.9282 -0.3403
vn -0.2461 0.7197 -0.6492
vn -0.0029 0.7505 -0.6609
vn -0.5354 0.7544 0.3799
vn -0.8480 0.5152 -0.1245
vn -0.0010 0.9887 0.1501
vn -0.1564 0.5160 -0.8422
vn -0.6697 0.3696 -0.6441
vn -0.8220 0.5489 -0.1521
vn -0.7984 -0.4162 -0.4352
vn -0.9326 -0.3551 0.0647
vn -0.8161 -0.5623 -0.1334
vn -0.7573 -0.6397 0.1314
vn -0.6085 -0.7852 -0.1146
vn -0.9238 -0.3704 0.0971
vn -0.5894 -0.8072 0.0318
vn -0.3409 -0.9368 -0.0785
vn -0.2985 -0.9428 -0.1484
vn -0.2987 -0.9427 -0.1488
vn -0.2986 -0.9427 -0.1486
vn -0.2988 -0.9426 -0.1490
vn 0.2570 -0.8862 -0.3856
vn 0.1655 -0.6981 -0.6966
vn -0.0771 -0.7594 -0.6461
vn 0.0529 -0.9911 -0.1219
vn -0.1463 -0.5576 -0.8171
vn 0.1778 0.1605 -0.9709
vn 0.3816 -0.1956 -0.9034
vn 0.1424 0.1575 -0.9772
vn 0.8975 -0.1027 -0.4288
vn 0.9403 0.2972 -0.1659
vn 0.7308 0.6059 -0.3143
vn 0.2488 0.5049 -0.8266
vn 0.7536 0.6518 -0.0854
vn 0.8756 0.4502 -0.1750
vn 0.7159 0.6655 -0.2113
vn 0.8810 0.2989 -0.3667
vn 0.9304 -0.3468 -0.1184
vn 0.9196 0.3902 0.0464
vn 0.8977 -0.3698 -0.2397
vn 0.6719 0.6136 0.4148
vn 0.7477 0.4952 0.4425
vn 0.7574 0.6442 -0.1064
vn 0.8674 -0.4677 -0.1700
vn 0.8387 -0.4674 -0.2796
vn -0.7835 -0.6199 0.0444
vn -0.9294 -0.0675 0.3628
vn -0.8695 -0.0951 0.4847
vn -0.8119 -0.3611 0.4588
vn -0.7937 0.5979 0.1125
vn -0.7578 0.6422 0.1153
vn -0.7499 0.1264 0.6494
vn -0.7048 0.6132 0.3567
vn -0.5114 -0.8587 -0.0344
vn -0.3889 -0.8950 -0.2187
vn 0.0010 0.8531 -0.5217
vn 0.5224 0.3891 0.7588
usemtl Material.003
f 1/1/1 2/2/1 3/3/1
f 1/1/2 4/4/2 2/2/2
f 1/1/3 3/3/4 5/5/5
f 1/1/6 5/5/6 6/6/6
f 4/4/7 1/1/7 6/6/7
f 2/2/8 4/4/8 7/7/8
f 4/8/9 8/9/9 7/10/9
f 8/9/10 4/8/10 9/11/10
f 9/12/11 4/4/11 6/6/11
f 2/13/12 7/14/12 10/15/12
f 10/15/13 7/14/13 11/16/13
f 11/17/14 7/10/14 12/18/14
f 7/10/15 8/9/15 12/18/15
f 8/9/16 13/19/16 12/18/16
f 12/18/17 13/19/17 14/20/17
f 11/17/18 12/18/18 15/21/18
f 12/18/19 14/20/19 15/21/19
f 13/19/20 16/22/20 14/20/20
f 17/23/21 14/20/21 18/24/21
f 15/21/22 14/20/22 17/23/22
f 14/20/23 16/22/23 18/24/23
f 16/22/24 19/25/24 18/24/24
f 18/24/25 19/25/25 20/26/25
f 17/23/26 18/24/26 21/27/26
f 18/24/27 20/26/27 21/27/27
f 19/25/28 22/28/28 20/26/28
f 22/28/29 23/29/29 20/26/29
f 20/26/30 23/29/30 24/30/30
f 20/26/31 24/30/31 21/27/31
f 24/30/32 25/31/32 26/32/32
f 24/30/33 26/32/33 21/27/33
f 23/29/34 27/33/34 24/30/34
f 27/33/35 25/34/35 24/30/35
f 25/31/36 28/35/36 26/32/36
f 29/36/37 25/34/37 27/33/37
f 30/37/38 28/35/38 25/31/38
f 29/38/39 30/37/39 25/31/39
f 30/37/40 31/39/40 32/40/40
f 33/41/41 31/39/41 30/37/41
f 30/37/42 32/40/42 28/35/42
f 33/41/43 30/37/43 29/38/43
f 3/42/44 31/39/44 33/41/44
f 3/42/45 33/41/46 34/43/47
f 34/43/47 33/41/46 29/38/48
f 5/5/49 34/44/49 35/45/49
f 35/46/50 34/47/50 36/48/50
f 36/48/51 34/47/51 29/36/51
f 5/5/5 3/3/4 34/44/52
f 36/48/53 29/36/53 27/33/53
f 37/49/54 36/48/54 23/29/54
f 35/46/55 36/48/55 37/49/55
f 36/48/56 27/33/56 23/29/56
f 38/50/57 35/45/57 37/49/57
f 39/51/58 38/50/58 37/49/58
f 39/51/59 37/49/59 22/28/59
f 37/49/60 23/29/60 22/28/60
f 40/52/61 39/51/61 19/25/61
f 41/53/62 39/51/62 40/52/62
f 39/51/63 22/28/63 19/25/63
f 41/53/64 38/50/64 39/51/64
f 9/12/65 6/6/65 41/53/65
f 9/12/66 41/53/66 40/52/66
f 6/6/67 38/50/67 41/53/67
f 13/19/68 9/11/68 40/54/68
f 13/19/69 40/54/69 16/22/69
f 40/52/70 19/25/70 16/22/70
f 5/5/71 35/45/71 38/50/71
f 6/6/72 5/5/72 38/50/72
f 31/39/73 10/15/73 32/40/73
f 32/40/74 42/55/74 28/35/74
f 32/40/75 11/16/75 42/55/75
f 10/15/76 11/16/76 32/40/76
f 28/35/77 42/55/77 26/32/77
f 26/32/78 42/55/78 17/23/78
f 11/16/79 15/21/79 42/55/79
f 42/55/80 15/21/80 17/23/80
f 2/13/81 10/15/81 31/39/81
f 3/42/82 2/13/82 31/39/82
f 26/32/83 17/23/83 21/27/83
f 8/9/84 9/11/84 13/19/84
