mtllib forest_nature_set_all_in.mtl
o forest_Bush_group_big_Plane_138
v 18.003332 -0.001297 11.330062
v 17.734653 -0.001297 11.146198
v 17.975218 -0.001297 10.853926
v 18.213001 -0.001297 11.063665
v 20.639864 -0.001297 13.264907
v 20.383169 -0.001297 13.065244
v 20.594982 -0.001297 12.816744
v 20.883181 -0.001297 13.015562
v 19.337543 -0.001297 14.307168
v 19.442577 -0.001297 14.027040
v 19.763367 -0.001297 14.213492
v 19.600697 -0.001297 14.460744
v 17.729538 0.464040 10.837484
v 17.554173 0.628601 10.949942
v 17.757343 1.174911 10.617823
v 17.855679 1.115555 10.541088
v 20.856522 0.485820 12.808318
v 20.567062 0.381841 12.656128
v 20.433151 0.584054 12.522643
v 20.650743 0.689145 12.645360
v 19.496792 0.436432 14.534185
v 19.616163 0.445208 14.222251
v 20.012281 1.110177 14.308564
v 19.978207 1.133430 14.477444
v 20.392572 0.363482 12.901287
v 20.683815 0.443082 13.076302
v 19.314213 0.409525 14.086273
v 17.974232 0.476540 10.997696
v 17.794247 0.368121 11.278891
v 19.201418 0.405951 14.362204
v 17.533094 0.354077 11.130705
v 17.809092 0.658031 11.090828
v 16.887014 1.571020 11.353394
v 17.017118 1.579537 11.432147
v 17.703669 0.504082 11.314249
v 17.434153 0.468546 11.185973
v 16.958754 1.491024 11.555774
v 16.818380 1.471865 11.489513
v 17.986410 1.128260 10.618221
v 17.891287 1.198686 10.686344
v 19.324270 0.666160 14.532224
v 19.443468 0.620619 14.322157
v 18.884840 1.635915 14.194244
v 18.793116 1.655616 14.301084
v 19.099752 0.640717 14.382953
v 19.186186 0.574281 14.177999
v 19.669392 1.220300 13.705269
v 19.583214 1.278309 13.796457
v 18.676897 1.625752 14.217257
v 18.743124 1.599595 14.092412
v 19.508219 1.175216 13.643918
v 19.431541 1.225882 13.718872
v 19.909487 1.188524 14.357577
v 19.860020 1.224651 14.469839
v 20.278811 0.555323 12.780015
v 19.970074 1.500683 12.229929
v 20.053085 1.514501 12.097549
v 20.503536 0.638333 12.926815
v 21.316248 1.708295 12.591160
v 21.450424 1.636986 12.673366
v 20.095806 1.553689 12.306016
v 20.192976 1.572178 12.171003
v 21.378731 1.609709 12.822122
v 21.258921 1.680491 12.745928
v 18.206034 0.003160 12.597917
v 17.968428 0.003160 12.403761
v 18.214962 0.003160 12.187014
v 18.476482 0.003160 12.364888
v 18.485922 0.516808 12.272457
v 18.226368 0.438360 12.191895
v 18.120262 0.656195 12.081202
v 18.286753 0.741536 12.269956
v 17.982941 0.391286 12.442080
v 18.234278 0.443819 12.570319
v 17.892414 0.597983 12.355250
v 17.483400 1.500682 12.239737
v 17.579037 1.514501 12.116169
v 18.063339 0.648232 12.488735
v 18.571045 1.708295 12.566832
v 18.696482 1.636986 12.661842
v 17.601036 1.553689 12.327827
v 17.711021 1.572178 12.203032
v 18.610497 1.609709 12.802821
v 18.498766 1.680491 12.715206
v 20.848108 -0.002428 14.085514
v 21.000872 -0.002428 14.345244
v 20.654476 -0.002428 14.475608
v 20.567541 -0.002428 14.193515
v 20.680971 0.392994 14.103755
v 20.910509 0.368599 14.419918
v 20.761827 0.975542 14.727832
v 20.652790 0.998795 14.594446
v 21.116329 0.367503 14.240867
v 20.945625 0.381069 13.966020
v 20.851608 0.598823 13.992889
v 20.980585 0.527145 14.237296
v 21.440208 1.582743 13.869898
v 21.415695 1.602444 13.731236
v 21.033716 0.603378 13.886916
v 21.139891 0.526480 14.088664
v 21.350599 1.086097 14.827340
v 21.334675 1.144106 14.702888
v 21.554192 1.572581 13.694462
v 21.608793 1.546424 13.824812
v 21.500200 1.041013 14.741549
v 21.490814 1.091679 14.634735
v 20.789061 1.053889 14.617256
v 20.733572 1.090016 14.507845
v 19.190140 0.003160 11.471047
v 19.093807 0.003160 11.179941
v 19.416668 0.003160 11.131091
v 19.540670 0.003160 11.422287
v 19.235762 0.586909 10.977491
v 19.130053 1.514817 10.636140
v 19.296497 1.499962 10.610786
v 19.556255 0.532882 10.930437
v 19.680403 0.538141 11.221524
v 19.332901 0.605453 11.267983
v 19.179535 1.519874 10.786034
v 19.360323 1.499166 10.760649
v 21.463350 0.003160 11.086563
v 21.484507 0.003160 11.392676
v 21.157736 0.003160 11.361374
v 21.108341 0.003160 11.048976
v 21.034506 0.516808 11.105377
v 21.153484 0.438360 11.349717
v 21.145447 0.656195 11.502842
v 21.169041 0.741536 11.252262
v 21.502501 0.391286 11.355865
v 21.423899 0.443819 11.084871
v 21.501190 0.597983 11.481295
v 21.697018 1.500682 11.858503
v 21.541475 1.514501 11.873394
v 21.481462 0.648232 11.265320
v 21.190794 1.708295 10.841793
v 21.174168 1.636986 10.685317
v 21.680689 1.553689 11.712450
v 21.514427 1.572178 11.717722
v 21.335793 1.609709 10.651471
v 21.348427 1.680491 10.792894
v 20.583450 -0.002428 10.224692
v 20.683403 -0.002428 9.940428
v 21.006447 -0.002428 10.121058
v 20.846947 -0.002428 10.369440
v 20.705191 0.392994 10.340652
v 20.798750 0.368599 9.961318
v 21.129953 0.975542 9.876339
v 21.098351 0.998795 10.045696
v 20.529169 0.367503 9.919518
v 20.429235 0.381069 10.227243
v 20.510410 0.598823 10.281759
v 20.613995 0.527145 10.025557
v 20.036779 1.582743 9.911285
v 19.946627 1.602444 10.019453
v 20.311968 0.603378 10.210945
v 20.397661 0.526480 9.999682
v 20.826246 1.086097 9.362223
v 20.741411 1.144106 9.454660
v 19.829195 1.572581 9.937334
v 19.893591 1.546424 9.811534
v 20.664194 1.041013 9.303233
v 20.588621 1.091679 9.379299
v 21.027887 1.053889 9.926847
v 20.980066 1.090016 10.039822
v 22.394421 0.003160 10.128731
v 22.540827 0.003160 10.398151
v 22.231739 0.003160 10.503457
v 22.058083 0.003160 10.238853
v 22.437006 0.586909 10.622557
v 22.601549 1.514817 10.939766
v 22.442234 1.499961 10.994222
v 22.129929 0.532882 10.725677
v 21.956150 0.538141 10.461205
v 22.289913 0.605453 10.353885
v 22.526279 1.519874 10.801017
v 22.352854 1.499166 10.858047
v 17.322189 0.953915 10.875643
v 17.491119 0.641577 10.994658
v 17.191479 0.780016 11.319663
v 18.222532 1.530809 12.872743
v 18.044777 0.713801 12.187216
v 18.714231 0.989535 12.823948
v 18.817989 0.848743 12.115186
v 19.361546 1.224265 12.840360
v 18.130693 1.048236 9.974989
v 17.642864 1.112292 9.369688
v 16.991739 1.100223 10.490572
v 18.211260 1.060730 9.028063
v 18.596592 1.143423 10.721498
v 18.282555 1.310004 11.013537
v 18.673246 0.659340 9.598096
v 18.675207 1.680181 13.370921
v 16.977922 1.052264 11.784404
v 16.534576 1.489002 11.254692
v 16.540661 1.277217 10.700764
v 17.584137 0.814176 12.298715
v 17.240440 1.185663 12.307851
v 17.327826 2.268771 12.867407
v 16.809597 1.774806 10.338857
v 16.553598 2.483876 10.421659
v 16.912603 2.150625 9.780514
v 19.835648 0.533925 10.465880
v 20.153694 0.844774 10.968400
v 19.192822 0.742471 11.072039
v 16.445915 1.861073 11.957293
v 18.890461 2.232580 9.278023
v 18.299372 1.851161 9.078966
v 17.891857 3.037470 9.313689
v 20.125109 1.220920 10.637077
v 20.044918 1.631039 9.743677
v 20.379974 1.085429 11.542206
v 20.488762 1.851868 10.870275
v 20.637396 1.559241 11.845830
v 18.194706 2.667625 12.689955
v 17.863829 3.564552 12.582297
v 17.722084 2.499422 12.840452
v 16.868107 2.786899 12.976060
v 17.174234 3.559210 11.975219
v 16.638945 2.830881 12.395108
v 17.582916 3.171582 10.003542
v 17.674248 3.470486 10.362105
v 18.337179 3.712992 9.857652
v 18.514982 3.759090 10.549114
v 19.778648 2.541485 9.648646
v 19.989275 2.946933 9.878647
v 19.116852 3.025764 9.581800
v 20.058680 3.316791 11.665196
v 20.658897 2.472090 11.645189
v 19.874052 3.179151 12.129406
v 19.756092 3.324387 10.840326
v 19.205761 3.515632 11.310831
v 19.279970 3.674181 10.562386
v 20.551266 1.970098 10.124784
v 18.936132 3.822901 10.058122
v 18.279083 3.125178 9.360475
v 18.805136 3.611556 9.600047
v 17.611433 3.858788 10.896561
v 16.930302 3.199129 10.758839
v 17.943256 4.251132 11.282641
v 16.930674 3.730087 11.379683
v 16.730354 2.932832 11.430532
v 18.670984 3.711912 11.585417
v 17.745716 3.857580 11.842051
v 18.528488 3.413620 12.496658
v 19.158400 3.806056 12.146004
v 19.364201 2.852992 12.838951
v 19.139851 2.541667 9.431195
v 17.072727 3.177588 10.144575
v 16.673960 2.817426 10.938610
v 16.848289 3.081843 10.377005
v 16.465693 2.535773 10.700089
v 19.621189 1.785807 12.860914
v 19.237368 2.308146 12.909998
v 18.838123 2.511883 12.984531
v 20.224754 2.167491 12.372488
v 19.225937 0.924326 9.441050
v 19.426826 1.333761 9.688684
v 18.816296 1.600023 9.492945
v 19.607811 1.706075 9.421801
v 17.506178 3.025085 9.578573
v 17.528654 2.576494 9.283184
v 16.708982 2.537928 10.178130
v 20.054567 0.829015 12.243653
v 20.369183 1.636794 12.798022
v 18.913572 1.473502 10.422405
v 18.571630 1.034770 9.275050
v 17.861410 1.546528 8.984099
v 16.888311 1.364124 9.866117
v 19.427706 0.788197 12.059772
v 18.359230 0.870712 11.411118
v 17.118284 0.754313 11.872376
v 19.770464 1.578854 9.642672
v 17.852476 1.070651 12.758261
v 19.301931 0.890584 12.726356
v 19.462782 0.748012 12.907577
v 19.004599 0.858941 13.169035
v 19.753487 1.226215 15.119000
v 19.638103 0.821128 14.060457
v 20.456953 0.969991 14.768401
v 20.640221 0.863430 14.059840
v 21.361567 1.030127 14.933845
v 20.212227 0.873673 12.074347
v 19.912981 1.072610 11.428802
v 19.099714 0.995802 12.350752
v 20.472210 1.035341 11.261353
v 20.409958 0.808488 12.886914
v 20.173544 1.166471 13.088571
v 20.790070 0.439290 11.843875
v 20.628647 1.204430 15.374443
v 18.478270 1.167422 13.634874
v 18.501806 1.534560 13.050369
v 18.756884 1.320148 12.565208
v 18.983633 0.946245 14.160274
v 18.628181 1.380385 14.137625
v 18.816628 1.971322 15.002857
v 19.015781 1.684500 12.204418
v 18.651192 2.376341 12.194780
v 19.193996 2.038877 11.721990
v 21.825306 0.600853 12.844780
v 22.024973 1.006284 13.355631
v 20.995134 0.626906 13.273050
v 18.194866 1.894435 13.715907
v 21.107447 1.998978 11.064743
v 20.528427 1.680513 11.070039
v 20.119003 2.840507 11.338060
v 22.329325 1.337382 13.062114
v 22.475388 1.833668 12.196474
v 22.322958 1.170055 13.938641
v 22.619736 1.957874 13.306608
v 22.552559 1.631133 14.308537
v 20.161486 1.857140 15.085025
v 19.716938 3.069812 14.663053
v 19.377226 1.978776 15.304996
v 18.623541 2.483430 14.895831
v 19.329800 3.286110 13.813428
v 18.474127 2.577216 14.286315
v 19.800127 2.937670 12.028730
v 19.941938 3.102011 12.446931
v 20.429678 3.679622 12.020983
v 20.610531 3.558525 12.735193
v 22.151546 2.559999 11.902717
v 22.363932 2.837442 12.247313
v 21.243975 2.842157 11.659366
v 22.165276 2.980249 13.876894
v 22.452604 2.394134 13.974636
v 21.854662 2.936984 14.356149
v 22.149343 2.839362 13.187505
v 21.421808 3.147584 13.488649
v 21.531300 3.279323 12.935070
v 22.728512 2.131345 12.642879
v 21.119926 3.818833 12.379478
v 20.436125 2.861042 11.425345
v 20.854704 3.389015 11.939520
v 19.812994 3.668144 12.784060
v 19.191795 3.038623 12.605694
v 20.048082 3.912714 13.194219
v 19.281551 3.459691 13.194615
v 18.901400 2.772848 13.232483
v 20.676340 3.351307 13.579167
v 19.842754 3.533894 13.675266
v 20.382595 2.922939 14.841430
v 21.048918 3.411959 14.214411
v 21.441858 2.302139 15.171695
v 21.402742 2.395587 11.244184
v 19.329838 2.975473 12.075075
v 18.932337 2.655169 12.758893
v 19.056938 2.951507 12.231939
v 18.707220 2.396231 12.519804
v 21.646788 1.454894 15.068905
v 21.395350 1.668417 15.181914
v 20.959877 1.688029 15.437889
v 22.193604 2.087122 14.812757
v 21.512039 0.864411 11.710647
v 21.816452 1.371025 11.869737
v 21.091366 1.461572 11.427443
v 21.964214 1.788038 11.709009
v 19.803905 2.798349 11.646099
v 19.777899 2.433975 11.283074
v 18.963964 2.400124 12.061177
v 21.971542 0.844455 14.524543
v 22.161993 1.585779 15.008641
v 20.697088 1.138193 12.666981
v 20.859282 0.892682 11.353517
v 20.170418 1.461731 11.185529
v 19.111193 1.285903 11.760300
v 21.309338 0.793660 14.142127
v 20.155279 0.896572 13.445598
v 18.641180 0.879881 13.722100
v 22.196852 1.734977 11.981624
v 19.252640 1.108107 14.699605
v 21.385807 0.758340 9.437342
v 21.314915 0.649562 9.676435
v 20.969933 0.697794 9.445777
v 19.846384 1.181603 10.612057
v 20.555096 0.802950 10.310003
v 20.172209 0.895485 11.027036
v 20.790766 0.934299 10.956323
v 20.278412 1.023545 11.702067
v 22.343231 1.044873 10.102222
v 22.652510 1.110192 9.636132
v 21.578083 0.970728 9.176600
v 23.161497 1.027145 10.023186
v 21.856127 1.030018 10.571330
v 21.552330 1.138111 10.345331
v 22.763550 0.872495 10.623718
v 19.603296 1.081762 11.293758
v 20.480886 0.912243 9.282700
v 20.825266 1.282756 8.893845
v 21.281380 1.171387 8.948153
v 20.308546 0.774234 9.902781
v 20.103462 0.977379 9.545030
v 19.478317 1.665472 9.752319
v 21.656397 1.503867 9.001476
v 21.584284 2.095237 8.718018
v 22.130234 1.809484 9.104910
v 22.198036 0.870691 11.704853
v 21.772114 1.013018 11.932163
v 21.643990 0.844449 11.117797
v 20.217407 1.580271 8.889927
v 23.281359 1.877342 10.513773
v 23.144550 1.615149 10.033463
v 22.864716 2.537623 9.570427
v 22.031013 1.328507 12.049530
v 22.753063 1.763725 12.002619
v 21.352905 1.056370 12.306066
v 21.884949 1.800220 12.235555
v 21.097971 1.501868 12.546776
v 19.762745 1.685464 10.807896
v 20.030109 2.675764 10.353447
v 19.452591 1.722186 10.235960
v 19.493048 2.148164 9.474417
v 20.603697 2.800772 9.870129
v 19.816759 2.258843 9.092539
v 22.227690 2.540890 9.593761
v 21.993622 2.756019 9.800261
v 22.410616 3.047191 10.100458
v 21.934288 2.972234 10.515041
v 22.843422 2.308355 11.577653
v 22.609699 2.433506 11.756034
v 22.809931 2.434192 10.623594
v 21.332422 2.618137 12.036501
v 21.341753 2.206284 12.449278
v 20.899242 2.555148 11.893425
v 21.902924 2.677880 11.847585
v 21.480618 2.755059 11.387279
v 21.946880 2.780303 11.255771
v 22.468081 1.961648 12.272405
v 22.298988 3.130901 10.707947
v 22.902775 2.542220 9.859732
v 22.537960 2.852149 10.356026
v 21.617819 2.978115 10.008049
v 21.511475 2.638937 9.304726
v 21.406382 3.329909 10.306280
v 21.089756 3.103957 9.576055
v 20.818678 2.406096 9.234837
v 21.234365 2.909297 10.894055
v 20.944927 2.959002 10.288581
v 20.152643 2.505985 10.914423
v 20.797268 2.931122 11.315324
v 20.057348 2.100778 11.877426
v 23.170731 2.155232 10.755394
v 22.041288 2.654231 9.200205
v 21.199636 2.369266 9.038139
v 21.756926 2.467211 9.189747
v 21.307775 2.119021 8.797899
v 20.227024 1.358343 11.989261
v 20.115231 1.534044 11.779534
v 19.805532 1.548878 11.507160
v 20.629688 1.863615 12.271745
v 22.979267 1.089852 11.173018
v 23.010401 1.387350 11.522231
v 23.108879 1.473008 10.700237
v 23.157228 1.752082 11.558973
v 22.433439 2.327043 9.635600
v 22.695972 2.134674 9.422626
v 21.821154 2.131587 8.913838
v 20.758402 0.819367 12.098831
v 20.419025 1.471962 12.390009
v 22.167164 1.412939 10.792039
v 23.066116 1.047763 10.477891
v 22.855400 1.440824 9.831447
v 22.082905 1.197512 9.029048
v 20.881706 0.681888 11.454330
v 21.234167 0.844067 10.467106
v 20.473421 0.645488 9.440690
v 22.899408 1.693647 11.777807
v 19.956913 0.933329 10.211595
vt 0.444156 0.515610
vt 0.442603 0.515610
vt 0.449177 0.515610
vt 0.450018 0.515610
vt 0.462839 0.515610
vt 0.463227 0.515610
vt 0.468960 0.515610
vt 0.468895 0.515610
vt 0.449153 0.515610
vt 0.448894 0.515610
vt 0.455403 0.515610
vt 0.454497 0.515610
vt 0.446036 0.619961
vt 0.442384 0.656968
vt 0.448904 0.779820
vt 0.451107 0.766473
vt 0.471667 0.624859
vt 0.471037 0.601477
vt 0.471669 0.646950
vt 0.472021 0.670582
vt 0.453326 0.613754
vt 0.453077 0.615726
vt 0.460107 0.765262
vt 0.460737 0.770492
vt 0.465722 0.597348
vt 0.466036 0.615249
vt 0.447227 0.607703
vt 0.447533 0.622772
vt 0.441905 0.598392
vt 0.447331 0.606899
vt 0.440048 0.595233
vt 0.444239 0.663586
vt 0.428771 0.868895
vt 0.429639 0.870811
vt 0.440277 0.628966
vt 0.438081 0.620975
vt 0.427446 0.850906
vt 0.426297 0.846597
vt 0.452002 0.769329
vt 0.449941 0.785167
vt 0.450514 0.665413
vt 0.450976 0.655173
vt 0.441019 0.883489
vt 0.440280 0.887919
vt 0.445827 0.659693
vt 0.445793 0.644752
vt 0.450318 0.790027
vt 0.449560 0.803071
vt 0.437807 0.881204
vt 0.438007 0.875321
vt 0.447274 0.779889
vt 0.446556 0.791282
vt 0.458783 0.782881
vt 0.458767 0.791005
vt 0.466374 0.640489
vt 0.471381 0.853078
vt 0.474140 0.856186
vt 0.466444 0.659156
vt 0.479390 0.899765
vt 0.479512 0.883730
vt 0.471509 0.864998
vt 0.474447 0.869156
vt 0.476625 0.877596
vt 0.476557 0.893513
vt 0.462839 0.515610
vt 0.463227 0.515610
vt 0.468960 0.515610
vt 0.468895 0.515610
vt 0.471667 0.624859
vt 0.471037 0.601477
vt 0.471669 0.646950
vt 0.472021 0.670582
vt 0.465722 0.597348
vt 0.466036 0.615249
vt 0.466374 0.640489
vt 0.471381 0.853078
vt 0.474140 0.856186
vt 0.466444 0.659156
vt 0.479390 0.899765
vt 0.479512 0.883730
vt 0.471509 0.864998
vt 0.474447 0.869156
vt 0.476625 0.877596
vt 0.476557 0.893513
vt 0.449153 0.515610
vt 0.448894 0.515610
vt 0.455403 0.515610
vt 0.454497 0.515610
vt 0.453326 0.613754
vt 0.453077 0.615726
vt 0.460107 0.765262
vt 0.460737 0.770492
vt 0.447227 0.607703
vt 0.447331 0.606899
vt 0.450514 0.665413
vt 0.450976 0.655173
vt 0.441019 0.883489
vt 0.440280 0.887919
vt 0.445827 0.659693
vt 0.445793 0.644752
vt 0.450318 0.790027
vt 0.449560 0.803071
vt 0.437807 0.881204
vt 0.438007 0.875321
vt 0.447274 0.779889
vt 0.446556 0.791282
vt 0.458783 0.782881
vt 0.458767 0.791005
vt 0.466002 0.547297
vt 0.465969 0.544184
vt 0.472561 0.535065
vt 0.473131 0.535094
vt 0.470013 0.692097
vt 0.470116 0.933752
vt 0.473515 0.929884
vt 0.476547 0.678027
vt 0.477120 0.679397
vt 0.470065 0.696927
vt 0.470130 0.935069
vt 0.473809 0.929676
vt 0.462839 0.515610
vt 0.463227 0.515610
vt 0.468960 0.515610
vt 0.468895 0.515610
vt 0.471667 0.624859
vt 0.471037 0.601477
vt 0.471669 0.646950
vt 0.472021 0.670582
vt 0.465722 0.597348
vt 0.466036 0.615249
vt 0.466374 0.640489
vt 0.471381 0.853078
vt 0.474140 0.856186
vt 0.466444 0.659156
vt 0.479390 0.899765
vt 0.479512 0.883730
vt 0.471509 0.864998
vt 0.474447 0.869156
vt 0.476625 0.877596
vt 0.476557 0.893513
vt 0.449153 0.515610
vt 0.448894 0.515610
vt 0.455403 0.515610
vt 0.454497 0.515610
vt 0.453326 0.613754
vt 0.453077 0.615726
vt 0.460107 0.765262
vt 0.460737 0.770492
vt 0.447227 0.607703
vt 0.447331 0.606899
vt 0.450514 0.665413
vt 0.450976 0.655173
vt 0.441019 0.883489
vt 0.440280 0.887919
vt 0.445827 0.659693
vt 0.445793 0.644752
vt 0.450318 0.790027
vt 0.449560 0.803071
vt 0.437807 0.881204
vt 0.438007 0.875321
vt 0.447274 0.779889
vt 0.446556 0.791282
vt 0.458783 0.782881
vt 0.458767 0.791005
vt 0.466002 0.547297
vt 0.465969 0.544184
vt 0.472561 0.535065
vt 0.473131 0.535094
vt 0.470013 0.692097
vt 0.470116 0.933752
vt 0.473515 0.929884
vt 0.476547 0.678027
vt 0.477120 0.679397
vt 0.470065 0.696927
vt 0.470130 0.935069
vt 0.473809 0.929676
vt 0.168966 0.561644
vt 0.160800 0.550425
vt 0.158698 0.567351
vt 0.140199 0.721818
vt 0.144468 0.573854
vt 0.133830 0.645888
vt 0.135840 0.587615
vt 0.125736 0.731830
vt 0.165796 0.533869
vt 0.175124 0.530420
vt 0.173639 0.571295
vt 0.171659 0.512370
vt 0.150646 0.520610
vt 0.153367 0.535252
vt 0.162330 0.514474
vt 0.133215 0.749121
vt 0.159085 0.645295
vt 0.163188 0.689374
vt 0.171282 0.633690
vt 0.147961 0.608665
vt 0.155273 0.657982
vt 0.151031 0.749522
vt 0.178061 0.604840
vt 0.178085 0.670787
vt 0.179887 0.629711
vt 0.146014 0.600459
vt 0.137075 0.668295
vt 0.141738 0.562174
vt 0.162834 0.761428
vt 0.169060 0.694983
vt 0.174441 0.591745
vt 0.174847 0.733562
vt 0.138527 0.749459
vt 0.152022 0.710857
vt 0.130123 0.699985
vt 0.138297 0.817865
vt 0.128039 0.779259
vt 0.145029 0.865133
vt 0.153625 0.912203
vt 0.149340 0.845832
vt 0.156615 0.847074
vt 0.162871 0.899268
vt 0.162551 0.814662
vt 0.174322 0.812397
vt 0.171478 0.874602
vt 0.169075 0.881159
vt 0.163922 0.947930
vt 0.162048 0.816159
vt 0.155921 0.832060
vt 0.163963 0.842900
vt 0.141883 0.952637
vt 0.132959 0.857573
vt 0.136049 0.930043
vt 0.148771 0.939006
vt 0.150820 0.966904
vt 0.157375 0.949905
vt 0.148384 0.774175
vt 0.162219 0.938974
vt 0.171527 0.789319
vt 0.167040 0.870182
vt 0.167480 0.919479
vt 0.173341 0.812208
vt 0.161726 0.954470
vt 0.168766 0.871381
vt 0.169791 0.789298
vt 0.154411 0.947931
vt 0.158178 0.934165
vt 0.148185 0.918287
vt 0.143297 0.938403
vt 0.136394 0.902112
vt 0.163287 0.738898
vt 0.176055 0.793766
vt 0.172679 0.743984
vt 0.177152 0.762016
vt 0.175165 0.708542
vt 0.125354 0.827972
vt 0.132061 0.863528
vt 0.136193 0.857518
vt 0.127475 0.841415
vt 0.162538 0.539633
vt 0.162467 0.584891
vt 0.168360 0.589227
vt 0.160777 0.649110
vt 0.177015 0.727964
vt 0.177823 0.637482
vt 0.179694 0.695509
vt 0.126127 0.687068
vt 0.125290 0.783491
vt 0.153034 0.527288
vt 0.167323 0.520464
vt 0.176998 0.541879
vt 0.177400 0.551267
vt 0.129785 0.618146
vt 0.147429 0.526554
vt 0.153162 0.576960
vt 0.154484 0.642797
vt 0.143924 0.657863
vt 0.168966 0.561644
vt 0.160800 0.550425
vt 0.158698 0.567351
vt 0.140199 0.721818
vt 0.144468 0.573854
vt 0.133830 0.645888
vt 0.135840 0.587615
vt 0.125736 0.731830
vt 0.165796 0.533869
vt 0.175124 0.530420
vt 0.173639 0.571295
vt 0.171659 0.512370
vt 0.150646 0.520610
vt 0.153367 0.535252
vt 0.162330 0.514474
vt 0.133215 0.749121
vt 0.159085 0.645295
vt 0.163188 0.689374
vt 0.171282 0.633690
vt 0.147961 0.608665
vt 0.155273 0.657982
vt 0.151031 0.749522
vt 0.178061 0.604840
vt 0.178085 0.670787
vt 0.179887 0.629711
vt 0.146014 0.600459
vt 0.137075 0.668295
vt 0.141738 0.562174
vt 0.162834 0.761428
vt 0.169060 0.694983
vt 0.174441 0.591745
vt 0.174847 0.733562
vt 0.138527 0.749459
vt 0.152022 0.710857
vt 0.130123 0.699985
vt 0.138297 0.817865
vt 0.128039 0.779259
vt 0.145029 0.865133
vt 0.153625 0.912203
vt 0.149340 0.845832
vt 0.156615 0.847074
vt 0.162871 0.899268
vt 0.162551 0.814662
vt 0.174322 0.812397
vt 0.171478 0.874602
vt 0.169075 0.881159
vt 0.163922 0.947930
vt 0.162048 0.816159
vt 0.155921 0.832060
vt 0.163963 0.842900
vt 0.141883 0.952637
vt 0.132959 0.857573
vt 0.136049 0.930043
vt 0.148771 0.939006
vt 0.150820 0.966904
vt 0.157375 0.949905
vt 0.148384 0.774175
vt 0.162219 0.938974
vt 0.171527 0.789319
vt 0.167040 0.870182
vt 0.167480 0.919479
vt 0.173341 0.812208
vt 0.161726 0.954470
vt 0.168766 0.871381
vt 0.169791 0.789298
vt 0.154411 0.947931
vt 0.158178 0.934165
vt 0.148185 0.918287
vt 0.143297 0.938403
vt 0.136394 0.902112
vt 0.163287 0.738898
vt 0.176055 0.793766
vt 0.172679 0.743984
vt 0.177152 0.762016
vt 0.175165 0.708542
vt 0.125354 0.827972
vt 0.132061 0.863528
vt 0.136193 0.857518
vt 0.127475 0.841415
vt 0.162538 0.539633
vt 0.162467 0.584891
vt 0.168360 0.589227
vt 0.160777 0.649110
vt 0.177015 0.727964
vt 0.177823 0.637482
vt 0.179694 0.695509
vt 0.126127 0.687068
vt 0.125290 0.783491
vt 0.153034 0.527288
vt 0.167323 0.520464
vt 0.176998 0.541879
vt 0.177400 0.551267
vt 0.129785 0.618146
vt 0.147429 0.526554
vt 0.153162 0.576960
vt 0.154484 0.642797
vt 0.143924 0.657863
vt 0.168966 0.561644
vt 0.160800 0.550425
vt 0.158698 0.567351
vt 0.140199 0.721818
vt 0.144468 0.573854
vt 0.133830 0.645888
vt 0.135840 0.587615
vt 0.125736 0.731830
vt 0.165796 0.533869
vt 0.175124 0.530420
vt 0.173639 0.571295
vt 0.171659 0.512370
vt 0.150646 0.520610
vt 0.153367 0.535252
vt 0.162330 0.514474
vt 0.133215 0.749121
vt 0.159085 0.645295
vt 0.163188 0.689374
vt 0.171282 0.633690
vt 0.147961 0.608665
vt 0.155273 0.657982
vt 0.151031 0.749522
vt 0.178061 0.604840
vt 0.178085 0.670787
vt 0.179887 0.629711
vt 0.146014 0.600459
vt 0.137075 0.668295
vt 0.141738 0.562174
vt 0.162834 0.761428
vt 0.169060 0.694983
vt 0.174441 0.591745
vt 0.174847 0.733562
vt 0.138527 0.749459
vt 0.152022 0.710857
vt 0.130123 0.699985
vt 0.138297 0.817865
vt 0.128039 0.779259
vt 0.145029 0.865133
vt 0.153625 0.912203
vt 0.149340 0.845832
vt 0.156615 0.847074
vt 0.162871 0.899268
vt 0.162551 0.814662
vt 0.174322 0.812397
vt 0.171478 0.874602
vt 0.169075 0.881159
vt 0.163922 0.947930
vt 0.162048 0.816159
vt 0.155921 0.832060
vt 0.163963 0.842900
vt 0.141883 0.952637
vt 0.132959 0.857573
vt 0.136049 0.930043
vt 0.148771 0.939006
vt 0.150820 0.966904
vt 0.157375 0.949905
vt 0.148384 0.774175
vt 0.162219 0.938974
vt 0.171527 0.789319
vt 0.167040 0.870182
vt 0.167480 0.919479
vt 0.173341 0.812208
vt 0.161726 0.954470
vt 0.168766 0.871381
vt 0.169791 0.789298
vt 0.154411 0.947931
vt 0.158178 0.934165
vt 0.148185 0.918287
vt 0.143297 0.938403
vt 0.136394 0.902112
vt 0.163287 0.738898
vt 0.176055 0.793766
vt 0.172679 0.743984
vt 0.177152 0.762016
vt 0.175165 0.708542
vt 0.125354 0.827972
vt 0.132061 0.863528
vt 0.136193 0.857518
vt 0.127475 0.841415
vt 0.162538 0.539633
vt 0.162467 0.584891
vt 0.168360 0.589227
vt 0.160777 0.649110
vt 0.177015 0.727964
vt 0.177823 0.637482
vt 0.179694 0.695509
vt 0.126127 0.687068
vt 0.125290 0.783491
vt 0.153034 0.527288
vt 0.167323 0.520464
vt 0.176998 0.541879
vt 0.177400 0.551267
vt 0.129785 0.618146
vt 0.147429 0.526554
vt 0.153162 0.576960
vt 0.154484 0.642797
vt 0.143924 0.657863
vn 0.0000 -1.0000 0.0000
vn -0.6616 -0.1976 -0.7233
vn 0.5233 -0.1717 -0.8346
vn 0.8060 -0.5252 0.2730
vn -0.7514 -0.2783 -0.5983
vn -0.5615 0.3614 0.7444
vn 0.4399 0.2106 -0.8730
vn 0.6868 0.4427 0.5764
vn -0.9028 -0.2423 -0.3552
vn 0.7445 0.2494 0.6193
vn 0.5877 0.2342 -0.7744
vn -0.4752 -0.2627 0.8398
vn 0.5342 -0.3005 -0.7901
vn -0.6958 -0.4023 -0.5949
vn 0.8723 0.2065 0.4432
vn -0.5145 -0.2152 0.8301
vn 0.3615 0.5760 -0.7332
vn -0.3484 -0.5407 0.7657
vn -0.7187 -0.3430 -0.6048
vn 0.7277 0.3467 0.5918
vn -0.3239 0.8350 0.4449
vn -0.3320 -0.4535 0.8271
vn -0.7585 -0.2876 -0.5848
vn 0.7029 0.3830 0.5993
vn 0.1712 0.8364 -0.5207
vn -0.4465 0.5793 0.6819
vn 0.5008 -0.4398 -0.7455
vn 0.7126 0.3452 0.6108
vn 0.7684 0.4912 0.4103
vn -0.8605 -0.4095 -0.3030
vn 0.7352 0.3313 0.5913
vn -0.4746 -0.3134 0.8225
vn -0.0741 0.9674 -0.2420
vn -0.8665 -0.4090 -0.2863
vn 0.4953 0.1537 -0.8550
vn -0.5508 -0.0996 0.8287
vn -0.0123 0.8313 -0.5558
vn 0.4091 -0.5287 -0.7437
vn -0.7321 -0.1893 -0.6544
vn -0.4860 0.6121 0.6237
vn 0.6104 0.7920 0.0141
vn -0.2540 0.2694 -0.9289
vn -0.6575 0.5730 -0.4892
vn 0.0378 0.0640 0.9972
vn -0.7073 -0.5127 -0.4867
vn -0.5567 0.1488 0.8173
vn -0.5945 -0.6655 -0.4514
vn 0.3864 -0.3002 -0.8721
vn -0.3296 0.9378 -0.1088
vn 0.6426 0.5997 0.4769
vn 0.5315 -0.1664 -0.8305
vn -0.5876 0.2566 0.7674
vn 0.3175 0.9001 0.2983
vn -0.8045 0.5222 -0.2831
vn -0.3172 0.3795 0.8691
vn 0.8222 -0.3872 0.4172
vn 0.4962 0.1225 -0.8595
vn -0.6917 0.0595 -0.7198
vn -0.5517 0.0177 0.8338
vn 0.7075 0.0606 0.7041
vn 0.4535 -0.0918 -0.8865
vn -0.6769 -0.3937 -0.6220
vn -0.5288 0.0114 0.8487
vn -0.5641 -0.5485 -0.6173
vn 0.4348 0.1866 -0.8810
vn -0.3173 0.9378 -0.1407
vn 0.5721 0.4335 0.6962
vn 0.5426 0.3443 -0.7662
vn -0.5678 -0.1499 0.8094
vn 0.2866 0.9001 0.3281
vn -0.7725 0.4060 -0.4883
vn -0.5080 0.0077 0.8613
vn 0.7808 -0.3425 0.5225
vn -0.7381 -0.4428 0.5090
vn 0.4879 -0.0565 0.8710
vn 0.7911 -0.3687 -0.4881
vn -0.4097 -0.1315 -0.9027
vn -0.7784 0.4569 0.4304
vn -0.7537 0.5037 0.4222
vn 0.6986 -0.5094 -0.5025
vn -0.8894 0.4324 0.1481
vn -0.4778 -0.0986 -0.8729
vn 0.2341 0.9675 0.0961
vn 0.7252 -0.4750 -0.4985
vn 0.5111 0.0326 0.8589
vn -0.4059 0.0128 -0.9138
vn 0.4377 0.8313 0.3427
vn 0.3951 -0.6547 0.6444
vn 0.9098 -0.3455 -0.2298
vn -0.3081 0.7179 -0.6242
vn -0.3977 0.7920 0.4632
vn 0.9313 0.0617 0.3589
vn 0.8231 0.4950 -0.2783
vn -0.7974 0.3465 -0.4940
vn -0.1865 -0.3554 -0.9159
vn 0.8587 -0.3620 -0.3627
vn -0.9032 0.3161 0.2904
vn -0.1652 -0.2985 -0.9400
vn 0.1570 0.2956 0.9423
vn 0.0945 0.9943 -0.0499
vn 0.1962 0.4795 0.8553
vn 0.9132 0.1166 -0.3905
vn -0.9489 0.0076 0.3155
vn -0.9662 0.1225 0.2267
vn -0.0511 0.0595 0.9969
vn 0.9855 0.0177 -0.1687
vn 0.0288 0.0606 -0.9977
vn -0.9567 -0.0918 0.2764
vn 0.0100 -0.3937 0.9192
vn 0.9806 0.0114 -0.1956
vn -0.0637 -0.5485 0.8337
vn -0.9398 0.1866 0.2862
vn 0.1147 0.9379 0.3275
vn 0.1158 0.4335 -0.8937
vn -0.9299 0.3443 0.1291
vn 0.9787 -0.1499 -0.1402
vn 0.0429 0.9001 -0.4335
vn 0.1730 0.4060 0.8974
vn 0.9756 0.0077 -0.2194
vn -0.1538 -0.3425 -0.9268
vn 0.8651 -0.4428 0.2358
vn 0.3509 -0.0565 -0.9347
vn -0.8832 -0.3687 -0.2898
vn -0.4256 -0.1315 0.8953
vn 0.8310 0.4569 0.3173
vn 0.8088 0.5037 0.3037
vn -0.8346 -0.5094 -0.2097
vn 0.6869 0.4324 0.5842
vn -0.3589 -0.0986 0.9282
vn -0.0776 0.9675 -0.2409
vn -0.8487 -0.4750 -0.2327
vn 0.3267 0.0326 -0.9446
vn -0.4366 0.0128 0.8996
vn -0.0204 0.8313 -0.5555
vn 0.2376 -0.6547 -0.7176
vn -0.7625 -0.3455 -0.5470
vn -0.2783 0.7179 0.6381
vn 0.6105 0.7920 0.0052
vn -0.3264 0.0617 -0.9432
vn -0.7436 0.4950 -0.4495
vn 0.1368 0.3466 0.9280
vn 0.3459 -0.3554 0.8683
vn -0.7808 -0.3620 0.5092
vn 0.8374 0.3161 -0.4459
vn 0.3292 -0.2985 0.8958
vn -0.3216 0.2956 -0.8996
vn -0.0842 0.9943 0.0658
vn -0.3447 0.4795 -0.8070
vn -0.8295 0.1166 0.5462
vn 0.8779 0.0076 -0.4787
vn -0.7174 -0.5506 -0.4268
vn -0.4795 -0.5005 0.7208
vn 0.3266 -0.9168 0.2299
vn -0.5940 -0.5463 -0.5905
vn -0.0683 -0.9964 -0.0504
vn -0.1034 -0.9944 -0.0219
vn -0.2428 -0.9317 0.2703
vn -0.6097 -0.7902 -0.0623
vn -0.5338 -0.5433 0.6480
vn -0.8006 -0.5625 0.2063
vn -0.6401 -0.6039 0.4749
vn -0.8610 -0.1769 0.4769
vn -0.8922 -0.2808 -0.3536
vn 0.1426 -0.8796 0.4538
vn -0.7984 -0.5679 0.2000
vn 0.1635 0.2452 -0.9556
vn 0.9958 -0.0051 -0.0917
vn 0.9092 -0.3399 -0.2405
vn 0.2320 0.1998 0.9520
vn -0.6690 0.6732 0.3149
vn -0.5800 0.6923 -0.4294
vn -0.3289 0.9441 0.0216
vn 0.6338 0.1054 -0.7662
vn 0.3307 0.3298 -0.8842
vn 0.6776 0.4944 -0.5445
vn 0.7353 0.5119 0.4442
vn 0.2602 0.9617 -0.0866
vn 0.6839 0.5510 -0.4781
vn 0.1040 0.9708 0.2160
vn 0.9373 0.3323 -0.1052
vn 0.1920 0.9285 -0.3179
vn 0.8394 0.5215 0.1531
vn 0.7996 0.4311 -0.4181
vn -0.1736 0.9846 -0.0210
vn 0.2707 0.1736 -0.9469
vn -0.5334 0.5763 -0.6191
vn -0.1404 0.7931 -0.5927
vn -0.5271 0.6568 -0.5392
vn -0.7119 0.6958 -0.0953
vn 0.0109 0.9623 0.2717
vn -0.5175 0.6504 -0.5560
vn -0.9543 0.2274 -0.1939
vn 0.6093 0.7910 -0.0557
vn -0.4201 0.7761 0.4704
vn 0.2344 0.9161 0.3252
vn 0.2196 0.2021 0.9544
vn 0.2495 0.9081 0.3363
vn 0.1809 0.9321 -0.3139
vn -0.4240 0.8782 0.2212
vn 0.0730 0.5968 0.7991
vn 0.5172 0.5736 0.6353
vn 0.8674 -0.4976 -0.0062
vn 0.6892 -0.6331 -0.3525
vn 0.3079 0.2959 -0.9042
vn 0.3222 -0.0046 -0.9466
vn 0.0852 0.1494 -0.9851
vn -0.3978 0.9091 -0.1241
vn -0.8127 0.5823 0.0219
vn -0.8288 0.5595 0.0062
vn -0.9598 0.2769 0.0451
vn -0.9721 0.2244 -0.0684
vn -0.7061 -0.3466 0.6175
vn 0.2162 0.0673 0.9740
vn 0.2201 0.0756 0.9725
vn 0.2253 0.0742 0.9715
vn 0.6573 0.3837 0.6487
vn 0.8406 -0.0894 -0.5342
vn 0.4116 0.3152 -0.8551
vn 0.0053 -0.5843 -0.8115
vn -0.5144 0.4535 -0.7278
vn -0.0753 0.9468 -0.3128
vn -0.1142 0.1549 -0.9813
vn -0.7233 0.3541 -0.5928
vn -0.6857 0.3138 -0.6568
vn -0.8650 0.4477 0.2266
vn 0.2475 0.1597 0.9556
vn 0.0374 0.0526 0.9979
vn -0.4039 -0.3940 0.8256
vn 0.8356 0.0991 0.5403
vn 0.5619 0.1520 0.8131
vn -0.0406 -0.5546 0.8311
vn 0.8846 0.4135 0.2155
vn 0.6743 -0.7372 0.0433
vn 0.8064 -0.5211 0.2796
vn -0.0097 -0.6663 -0.7456
vn -0.5496 -0.5087 0.6627
vn 0.4639 -0.5023 -0.7297
vn 0.2765 0.2391 -0.9308
vn 0.2659 -0.8375 -0.4773
vn -0.4944 -0.4247 -0.7585
vn -0.4639 -0.8409 -0.2785
vn -0.5935 -0.3464 -0.7265
vn -0.9847 0.0115 -0.1739
vn -0.4998 -0.3163 -0.8063
vn -0.0841 -0.8729 0.4805
vn 0.1054 -0.9944 -0.0041
vn -0.0427 -0.8738 0.4845
vn 0.0375 -0.9065 0.4206
vn -0.2657 -0.8685 -0.4184
vn -0.6654 -0.0949 0.7404
vn -0.8797 -0.4551 -0.1377
vn -0.0267 -0.9984 -0.0500
vn -0.1380 -0.9488 0.2840
vn 0.4648 0.0903 0.8808
vn 0.6408 -0.7614 0.0982
vn 0.1874 -0.9578 0.2177
vn -0.1505 -0.9601 -0.2356
vn -0.3768 -0.8598 0.3448
vn 0.1985 -0.6016 0.7738
vn -0.6747 -0.1594 -0.7206
vn 0.4490 -0.3961 -0.8009
vn 0.0115 0.2823 -0.9593
vn 0.8703 -0.3756 -0.3185
vn -0.8376 0.3837 -0.3888
vn -0.7501 0.0870 0.6555
vn -0.8485 0.0893 -0.5216
vn -0.8671 0.4695 0.1667
vn 0.4863 -0.3317 -0.8084
vn 0.9382 -0.1859 -0.2920
vn 0.8698 -0.3893 -0.3032
vn 0.1653 0.1774 0.9702
vn 0.1201 -0.1060 -0.9871
vn 0.4871 0.8433 0.2269
vn 0.5403 0.8196 -0.1907
vn 0.1040 0.9710 0.2154
vn 0.7925 0.4350 -0.4274
vn -0.0293 0.9108 -0.4118
vn -0.2604 0.6384 -0.7243
vn -0.1597 0.7577 -0.6327
vn 0.2865 0.7331 0.6169
vn -0.3216 0.8241 0.4662
vn -0.3521 0.8497 0.3925
vn 0.3407 0.9401 -0.0085
vn 0.3309 0.8970 -0.2931
vn 0.5984 0.6715 0.4371
vn 0.9840 -0.0601 -0.1679
vn 0.7111 0.3875 0.5867
vn 0.5506 0.1082 -0.8277
vn 0.2644 0.2782 -0.9234
vn -0.1799 0.4196 0.8897
vn -0.1823 0.9467 -0.2657
vn -0.1589 0.7779 -0.6080
vn -0.7374 0.3904 -0.5512
vn -0.5145 0.8445 -0.1489
vn -0.7044 -0.6726 0.2269
vn -0.2497 -0.3567 0.9002
vn 0.1242 -0.0969 0.9875
vn 0.6025 0.2265 -0.7653
vn -0.2798 0.4490 0.8486
vn -0.9958 -0.0845 -0.0358
vn 0.3780 -0.5583 -0.7386
vn 0.3098 -0.5764 -0.7562
vn 0.3785 -0.6537 -0.6553
vn -0.6913 0.3602 -0.6264
vn -0.2232 0.9333 -0.2814
vn -0.6358 0.0186 -0.7716
vn -0.6641 -0.0606 -0.7452
vn -0.8367 0.5467 -0.0323
vn -0.9551 -0.0570 -0.2909
vn -0.2166 -0.9615 -0.1689
vn -0.7020 -0.3632 0.6126
vn -0.1246 -0.1440 0.9817
vn 0.1907 0.6452 0.7399
vn 0.5322 -0.2754 0.8006
vn 0.8138 -0.5542 0.1749
vn 0.8189 -0.5055 0.2718
vn -0.6281 -0.6370 -0.4469
vn 0.0871 -0.6361 -0.7667
vn 0.5502 0.3267 -0.7685
vn 0.4596 0.1392 -0.8771
vn -0.9670 -0.2487 0.0551
vn -0.3766 -0.9259 -0.0286
vn 0.0553 -0.9979 0.0331
vn 0.1583 -0.9783 -0.1337
vn 0.3228 -0.7500 0.5774
vn -0.0925 -0.9934 0.0680
vn 0.4754 -0.5433 -0.6920
vn 0.0891 -0.9827 -0.1626
vn -0.7094 -0.5370 -0.4565
vn -0.6719 -0.7309 0.1194
vn -0.3941 -0.8592 -0.3261
vn -0.1510 -0.9176 0.3676
vn 0.0367 -0.9868 0.1579
vn -0.3065 -0.8612 -0.4055
vn -0.1607 -0.9617 -0.2219
vn -0.1344 -0.9628 -0.2344
vn -0.7868 -0.6003 0.1433
vn -0.6480 -0.6803 -0.3425
vn -0.1367 -0.9102 0.3909
vn -0.8732 -0.3962 -0.2840
vn -0.7043 -0.5535 0.4445
vn -0.8837 -0.2739 0.3795
vn -0.7306 -0.3928 -0.5585
vn 0.2528 -0.8035 0.5389
vn -0.9126 -0.3286 -0.2432
vn -0.1114 0.1862 -0.9762
vn 0.5012 -0.7845 -0.3652
vn 0.9140 -0.3997 -0.0691
vn 0.3047 0.4107 0.8593
vn -0.5298 0.8091 0.2544
vn -0.7625 0.6470 0.0043
vn -0.6209 0.7317 0.2813
vn 0.7998 0.1186 -0.5884
vn 0.3755 0.5951 -0.7105
vn 0.9002 0.4318 -0.0568
vn 0.7326 0.4450 0.5150
vn 0.3121 0.9294 -0.1971
vn 0.6344 0.6762 -0.3746
vn 0.2259 0.9367 0.2676
vn 0.9268 0.3669 0.0808
vn 0.0047 1.0000 -0.0010
vn 0.7832 0.5580 0.2742
vn 0.8828 0.3462 -0.3175
vn -0.3077 0.9222 0.2343
vn 0.2404 0.5727 -0.7837
vn -0.5730 0.4792 -0.6648
vn 0.0182 0.5146 -0.8572
vn -0.2208 0.4614 -0.8593
vn -0.6794 0.7322 -0.0472
vn -0.1569 0.9477 0.2781
vn -0.5891 0.6971 -0.4086
vn -0.8616 0.4658 -0.2017
vn 0.6088 0.7801 0.1441
vn -0.3714 0.8452 0.3844
vn 0.2402 0.8664 0.4377
vn -0.1038 0.5282 0.8428
vn 0.1138 0.9324 0.3429
vn 0.2312 0.9463 -0.2259
vn -0.4605 0.8677 0.1873
vn 0.1746 0.6778 0.7142
vn 0.2834 0.6819 0.6743
vn 0.9000 -0.4346 0.0339
vn 0.8508 -0.5048 -0.1458
vn 0.3798 0.6987 -0.6063
vn 0.6614 -0.0084 -0.7500
vn 0.1984 0.5057 -0.8396
vn -0.1141 0.9826 -0.1466
vn -0.8058 0.5769 0.1339
vn -0.7910 0.5939 0.1470
vn -0.8134 0.5498 -0.1898
vn -0.8164 0.5285 -0.2329
vn -0.9354 -0.1505 0.3198
vn 0.5062 0.1462 0.8499
vn 0.5058 -0.0232 0.8623
vn 0.3996 -0.0145 0.9166
vn 0.4823 0.5560 0.6769
vn 0.8513 -0.4079 -0.3299
vn 0.5165 -0.0418 -0.8553
vn 0.4226 -0.4524 -0.7853
vn -0.6068 0.5823 -0.5410
vn 0.0418 0.9390 -0.3415
vn -0.0785 0.1980 -0.9770
vn -0.7093 0.5223 -0.4734
vn -0.5453 0.3624 -0.7558
vn -0.7385 0.6734 -0.0339
vn 0.2523 -0.1114 0.9612
vn -0.4279 -0.4127 0.8041
vn -0.6787 -0.5292 0.5092
vn 0.8834 0.2801 0.3756
vn 0.4296 -0.0057 0.9030
vn 0.2373 -0.5732 0.7843
vn 0.8613 0.1369 0.4893
vn 0.5995 -0.7961 -0.0828
vn 0.8022 -0.4074 0.4365
vn 0.2470 -0.6774 -0.6929
vn -0.4271 -0.7125 0.5567
vn -0.1038 -0.7229 -0.6831
vn 0.4757 -0.0803 -0.8759
vn 0.4373 -0.8418 -0.3164
vn -0.2894 -0.3624 -0.8859
vn -0.3895 -0.8236 -0.4122
vn -0.4271 -0.2591 -0.8663
vn -0.9540 0.0903 -0.2860
vn -0.6641 -0.2320 -0.7108
vn -0.0948 -0.9521 0.2906
vn 0.3514 -0.9294 -0.1126
vn -0.1346 -0.9470 0.2917
vn -0.0461 -0.9461 0.3206
vn -0.4965 -0.7760 -0.3890
vn -0.7481 -0.2357 0.6204
vn -0.7128 -0.5397 -0.4479
vn -0.0586 -0.9983 -0.0007
vn -0.1435 -0.9557 0.2569
vn 0.3543 -0.4227 0.8341
vn 0.4383 -0.8590 0.2647
vn 0.0417 -0.9864 0.1591
vn -0.1535 -0.9699 -0.1891
vn -0.5796 -0.8113 0.0760
vn -0.0042 -0.9322 0.3618
vn -0.5869 -0.3196 -0.7439
vn 0.1863 -0.6795 -0.7097
vn -0.2942 -0.0229 -0.9555
vn 0.8882 -0.4592 0.0173
vn -0.7341 0.5441 -0.4063
vn -0.2680 0.2237 0.9371
vn -0.3724 0.4981 -0.7831
vn -0.7531 0.6574 -0.0255
vn 0.2905 -0.5413 -0.7891
vn 0.6669 -0.7328 -0.1350
vn 0.9138 -0.4002 -0.0698
vn -0.1968 0.2571 0.9461
vn 0.5152 -0.3272 -0.7922
vn 0.4729 0.8315 0.2914
vn -0.6206 0.7709 -0.1432
vn 0.0820 0.7447 0.6624
vn 0.2895 0.5916 -0.7525
vn 0.2684 0.6032 -0.7511
vn 0.2410 0.5723 -0.7838
vn 0.0814 0.8348 -0.5444
vn 0.2325 0.7134 0.6610
vn -0.2479 0.8097 0.5319
vn -0.3219 0.8720 0.3687
vn 0.2813 0.9368 0.2081
vn 0.3059 0.9343 -0.1832
vn 0.4284 0.8319 0.3527
vn 0.9753 0.1824 0.1249
vn 0.7421 0.5219 0.4205
vn 0.8273 0.1197 -0.5489
vn 0.1158 0.5598 -0.8205
vn -0.1856 0.3557 0.9160
vn -0.0228 0.9885 -0.1496
vn 0.0373 0.9257 -0.3764
vn -0.4918 0.3322 -0.8048
vn -0.1783 0.9706 -0.1619
vn -0.9322 -0.3138 0.1802
vn -0.6349 -0.3256 0.7006
vn -0.4745 0.0051 0.8803
vn 0.6891 0.0197 -0.7244
vn -0.3760 0.1373 0.9164
vn -0.9060 -0.0432 -0.4210
vn 0.6121 -0.5961 -0.5197
vn 0.6813 -0.5714 -0.4575
vn 0.6275 -0.4635 -0.6257
vn -0.5458 0.3653 -0.7541
vn -0.4209 0.8510 -0.3140
vn -0.5365 -0.1330 -0.8334
vn -0.4779 0.0079 -0.8784
vn -0.8466 0.5010 -0.1798
vn -0.9844 -0.0382 0.1720
vn -0.2854 -0.9531 0.1007
vn -0.6889 -0.5239 0.5009
vn -0.4849 -0.4976 0.7192
vn 0.0168 0.3630 0.9317
vn 0.3729 -0.4991 0.7822
vn 0.8142 -0.5514 0.1819
vn 0.7845 -0.4676 0.4074
vn -0.2966 -0.7968 -0.5264
vn 0.3090 -0.7196 -0.6218
vn 0.2273 -0.0123 -0.9737
vn 0.2540 0.0220 -0.9670
vn -0.9865 -0.1388 -0.0874
vn -0.6372 -0.7596 0.1303
vn -0.0422 -0.9783 0.2030
vn 0.0420 -0.9953 -0.0868
vn -0.1037 -0.9292 0.3547
vn -0.1290 -0.9642 0.2317
vn 0.5312 -0.6887 -0.4935
vn 0.0515 -0.9956 -0.0788
vn -0.8622 -0.3819 -0.3328
vn -0.6540 -0.7063 -0.2712
vn 0.1257 -0.9165 -0.3797
vn -0.5196 -0.8374 -0.1694
vn 0.0814 -0.9815 0.1734
vn 0.4387 -0.8599 -0.2611
vn 0.1461 -0.9884 -0.0416
vn -0.0371 -0.9860 -0.1628
vn -0.1798 -0.9594 -0.2171
vn -0.0477 -0.9592 -0.2786
vn -0.4130 -0.8684 -0.2745
vn -0.0810 -0.6848 -0.7242
vn -0.3590 -0.8849 -0.2967
vn -0.5790 -0.2973 -0.7592
vn 0.4110 -0.3528 -0.8406
vn -0.1968 -0.9535 0.2283
vn -0.2716 -0.5651 -0.7790
vn 0.9362 0.1179 -0.3310
vn 0.4011 -0.5899 0.7009
vn 0.4310 -0.2255 0.8737
vn -0.7861 0.4202 0.4533
vn -0.4641 0.8747 -0.1399
vn 0.0200 0.7036 -0.7103
vn -0.3945 0.8700 -0.2959
vn 0.6810 0.3769 0.6278
vn 0.5244 0.8464 0.0932
vn 0.6295 0.5571 0.5416
vn -0.3193 0.6672 0.6730
vn -0.0370 0.9795 0.1981
vn 0.4791 0.8583 0.1841
vn 0.0182 0.9679 0.2505
vn 0.2507 0.3855 0.8880
vn 0.3331 0.9410 0.0595
vn -0.2461 0.7482 0.6162
vn 0.6408 0.3899 0.6614
vn -0.3080 0.9332 -0.1852
vn 0.7677 0.6150 0.1803
vn 0.2852 0.6246 -0.7270
vn 0.3944 0.8881 -0.2359
vn 0.2559 0.8550 -0.4510
vn -0.0085 0.6437 -0.7653
vn -0.2149 0.8353 0.5060
vn 0.5279 0.7310 -0.4324
vn -0.0647 0.4585 -0.8863
vn 0.2639 0.7462 0.6112
vn -0.4153 0.8693 -0.2680
vn -0.2757 0.9383 0.2088
vn -0.8453 0.4841 0.2259
vn -0.3232 0.8839 0.3381
vn 0.2268 0.9561 0.1858
vn -0.3287 0.8621 -0.3857
vn -0.6354 0.7322 0.2452
vn -0.4055 0.7320 0.5476
vn 0.0395 -0.3560 0.9337
vn 0.3654 -0.5233 0.7699
vn 0.5898 0.8031 0.0852
vn 0.9300 0.1175 0.3483
vn 0.9103 0.3943 -0.1260
vn -0.0623 0.9832 -0.1717
vn 0.0677 0.7060 -0.7049
vn 0.0938 0.6430 -0.7601
vn -0.3364 0.5609 -0.7565
vn 0.0849 0.3308 -0.9399
vn -0.6178 -0.4003 -0.6769
vn -0.5788 0.4463 0.6825
vn -0.6532 -0.1932 0.7322
vn -0.9200 -0.1561 0.3596
vn -0.3097 0.5464 0.7781
vn 0.5389 -0.6643 0.5179
vn 0.9726 -0.2126 0.0944
vn 0.9228 -0.3786 0.0711
vn -0.3430 0.4467 -0.8263
vn 0.7269 0.6698 -0.1514
vn 0.7661 -0.0872 -0.6368
vn -0.0289 0.7238 -0.6894
vn 0.6957 0.2735 -0.6642
vn -0.3440 0.5686 -0.7472
vn -0.8439 -0.3102 0.4377
vn -0.8160 -0.5775 0.0243
vn -0.7343 -0.6779 0.0360
vn -0.3437 0.2444 0.9067
vn -0.5691 -0.0062 0.8223
vn -0.6711 -0.5638 0.4814
vn -0.2234 0.3899 0.8933
vn 0.2322 -0.9016 0.3649
vn -0.1245 -0.4177 0.9000
vn 0.7539 -0.6532 0.0708
vn -0.6806 -0.6398 -0.3571
vn 0.5494 -0.8215 0.1525
vn 0.9770 -0.1674 0.1322
vn 0.3898 -0.8984 0.2024
vn 0.6120 0.0886 -0.7858
vn 0.2804 -0.8774 -0.3893
vn 0.7258 -0.0397 -0.6867
vn 0.1432 0.1108 -0.9835
vn 0.4197 -0.3383 -0.8423
vn -0.4587 -0.8829 0.1006
vn 0.2113 -0.9632 0.1661
vn -0.5592 -0.7762 -0.2913
vn -0.2682 -0.9415 0.2042
vn 0.0960 -0.7503 -0.6540
vn -0.9438 -0.1485 -0.2954
vn 0.0625 -0.5099 -0.8580
vn 0.1016 -0.9805 0.1681
vn -0.2074 -0.9590 0.1932
vn -0.6402 -0.3165 0.7000
vn 0.0786 -0.8181 0.5696
vn 0.0811 -0.9821 0.1700
vn 0.4700 -0.8216 -0.3227
vn -0.1569 -0.9684 -0.1936
vn -0.2118 -0.9536 0.2142
vn 0.4271 -0.3479 -0.8346
vn 0.5811 -0.8018 -0.1398
vn 0.6548 -0.2663 -0.7074
vn 0.2928 -0.4613 0.8375
vn 0.1266 0.7559 -0.6424
vn -0.9405 -0.0244 -0.3389
vn 0.6190 0.1349 -0.7737
vn -0.2903 0.7657 -0.5739
vn 0.9127 -0.4068 -0.0379
vn 0.4829 -0.6246 0.6138
vn 0.4204 -0.2172 0.8809
vn -0.8749 0.3762 0.3050
vn 0.9895 -0.0983 0.1057
vn -0.0054 0.9854 0.1701
vn 0.2512 0.3954 0.8835
vn -0.4869 0.8435 0.2268
vn 0.8083 0.5822 0.0878
vn 0.7957 0.6024 0.0632
vn 0.7408 0.6584 0.1334
vn 0.6171 0.6906 -0.3772
vn -0.5961 0.7252 0.3445
vn -0.6166 0.7568 0.2167
vn -0.3012 0.9469 -0.1125
vn 0.0601 0.9608 0.2705
vn 0.2170 0.9440 0.2486
vn -0.2967 0.7758 0.5569
vn 0.3672 0.0017 0.9301
vn -0.4432 0.5570 0.7024
vn 0.7610 0.3613 0.5388
vn 0.7669 0.6400 0.0471
vn -0.9142 0.3930 0.0992
vn 0.0045 0.9999 -0.0165
vn 0.6355 0.7680 -0.0798
vn -0.3390 0.5579 -0.7575
vn -0.1914 0.3424 -0.9199
vn -0.6572 -0.3609 -0.6617
vn -0.8691 -0.4558 -0.1922
vn -0.9986 -0.0001 -0.0531
vn 0.5275 0.7130 0.4619
vn -0.9300 0.3458 0.1245
vn 0.0086 -0.1189 -0.9929
vn 0.6014 -0.5629 0.5670
vn 0.4639 -0.4624 0.7556
vn 0.6531 -0.3315 0.6809
vn 0.7568 0.0388 -0.6525
vn -0.0368 -0.2259 -0.9735
vn 0.5931 -0.3032 -0.7458
vn 0.7153 0.0312 -0.6981
vn -0.2123 0.8001 -0.5610
vn -0.2860 -0.1423 -0.9476
vn 0.0731 -0.9963 -0.0454
vn -0.6407 -0.6624 -0.3883
vn -0.8565 -0.5099 0.0797
vn -0.8204 0.5158 0.2468
vn -0.6596 -0.5451 0.5175
vn -0.0925 -0.5138 0.8529
vn -0.1778 -0.4766 0.8610
vn 0.5127 -0.7304 -0.4512
vn 0.5397 -0.8336 0.1179
vn 0.7665 0.6285 0.1323
vn 0.9582 0.0508 -0.2815
vn -0.1466 -0.2892 -0.9460
vn -0.0240 -0.7664 -0.6420
vn 0.3078 -0.9168 0.2545
vn 0.0145 -0.9809 0.1941
vn -0.2542 -0.9009 0.3518
vn -0.0087 -0.8926 -0.4508
vn 0.7067 -0.6669 0.2362
vn 0.0289 -0.9905 0.1344
vn 0.3076 -0.6287 -0.7142
vn -0.0702 -0.7003 -0.7104
usemtl AllColors_Material
f 1/1/1 2/2/1 3/3/1 4/4/1
f 5/5/1 6/6/1 7/7/1 8/8/1
f 9/9/1 10/10/1 11/11/1 12/12/1
f 13/13/2 14/14/2 15/15/2 16/16/2
f 17/17/3 18/18/3 19/19/3 20/20/3
f 21/21/4 22/22/4 23/23/4 24/24/4
f 7/7/5 6/6/5 25/25/5 18/18/5
f 6/6/6 5/5/6 26/26/6 25/25/6
f 11/11/7 10/10/7 27/27/7 22/22/7
f 1/1/8 4/4/8 28/28/8 29/29/8
f 10/10/9 9/9/9 30/30/9 27/27/9
f 5/5/10 8/8/10 17/17/10 26/26/10
f 4/4/11 3/3/11 13/13/11 28/28/11
f 9/9/12 12/12/12 21/21/12 30/30/12
f 8/8/13 7/7/13 18/18/13 17/17/13
f 3/3/14 2/2/14 31/31/14 13/13/14
f 12/12/15 11/11/15 22/22/15 21/21/15
f 2/2/16 1/1/16 29/29/16 31/31/16
f 32/32/17 14/14/17 33/33/17 34/34/17
f 31/31/18 29/29/18 35/35/18 36/36/18
f 13/13/19 31/31/19 36/36/19 14/14/19
f 29/29/20 28/28/20 32/32/20 35/35/20
f 37/37/21 34/34/21 33/33/21 38/38/21
f 36/36/22 35/35/22 37/37/22 38/38/22
f 14/14/23 36/36/23 38/38/23 33/33/23
f 35/35/24 32/32/24 34/34/24 37/37/24
f 39/39/25 16/16/25 15/15/25 40/40/25
f 14/14/26 32/32/26 40/40/26 15/15/26
f 28/28/27 13/13/27 16/16/27 39/39/27
f 32/32/28 28/28/28 39/39/28 40/40/28
f 41/41/29 42/42/29 43/43/29 44/44/29
f 27/27/30 30/30/30 45/45/30 46/46/30
f 42/42/31 22/22/31 47/47/31 48/48/31
f 30/30/32 21/21/32 41/41/32 45/45/32
f 49/49/33 44/44/33 43/43/33 50/50/33
f 46/46/34 45/45/34 49/49/34 50/50/34
f 42/42/35 46/46/35 50/50/35 43/43/35
f 45/45/36 41/41/36 44/44/36 49/49/36
f 47/47/37 51/51/37 52/52/37 48/48/37
f 22/22/38 27/27/38 51/51/38 47/47/38
f 27/27/39 46/46/39 52/52/39 51/51/39
f 46/46/40 42/42/40 48/48/40 52/52/40
f 24/24/41 23/23/41 53/53/41 54/54/41
f 22/22/42 42/42/42 53/53/42 23/23/42
f 42/42/43 41/41/43 54/54/43 53/53/43
f 41/41/44 21/21/44 24/24/44 54/54/44
f 19/19/45 55/55/45 56/56/45 57/57/45
f 25/25/46 26/26/46 58/58/46 55/55/46
f 18/18/47 25/25/47 55/55/47 19/19/47
f 17/17/48 20/20/48 59/59/48 60/60/48
f 61/61/49 62/62/49 57/57/49 56/56/49
f 58/58/50 20/20/50 62/62/50 61/61/50
f 20/20/51 19/19/51 57/57/51 62/62/51
f 55/55/52 58/58/52 61/61/52 56/56/52
f 63/63/53 60/60/53 59/59/53 64/64/53
f 20/20/54 58/58/54 64/64/54 59/59/54
f 58/58/55 26/26/55 63/63/55 64/64/55
f 26/26/56 17/17/56 60/60/56 63/63/56
f 65/65/1 66/66/1 67/67/1 68/68/1
f 69/69/57 70/70/57 71/71/57 72/72/57
f 67/67/58 66/66/58 73/73/58 70/70/58
f 66/66/59 65/65/59 74/74/59 73/73/59
f 65/65/60 68/68/60 69/69/60 74/74/60
f 68/68/61 67/67/61 70/70/61 69/69/61
f 71/71/62 75/75/62 76/76/62 77/77/62
f 73/73/63 74/74/63 78/78/63 75/75/63
f 70/70/64 73/73/64 75/75/64 71/71/64
f 69/69/65 72/72/65 79/79/65 80/80/65
f 81/81/66 82/82/66 77/77/66 76/76/66
f 78/78/67 72/72/67 82/82/67 81/81/67
f 72/72/68 71/71/68 77/77/68 82/82/68
f 75/75/69 78/78/69 81/81/69 76/76/69
f 83/83/70 80/80/70 79/79/70 84/84/70
f 72/72/71 78/78/71 84/84/71 79/79/71
f 78/78/72 74/74/72 83/83/72 84/84/72
f 74/74/73 69/69/73 80/80/73 83/83/73
f 85/85/1 86/86/1 87/87/1 88/88/1
f 89/89/74 90/90/74 91/91/74 92/92/74
f 87/87/75 86/86/75 93/93/75 90/90/75
f 86/86/76 85/85/76 94/94/76 93/93/76
f 85/85/77 88/88/77 89/89/77 94/94/77
f 88/88/78 87/87/78 90/90/78 89/89/78
f 95/95/79 96/96/79 97/97/79 98/98/79
f 93/93/80 94/94/80 99/99/80 100/100/80
f 96/96/81 90/90/81 101/101/81 102/102/81
f 94/94/82 89/89/82 95/95/82 99/99/82
f 103/103/83 98/98/83 97/97/83 104/104/83
f 100/100/84 99/99/84 103/103/84 104/104/84
f 96/96/85 100/100/85 104/104/85 97/97/85
f 99/99/86 95/95/86 98/98/86 103/103/86
f 101/101/87 105/105/87 106/106/87 102/102/87
f 90/90/88 93/93/88 105/105/88 101/101/88
f 93/93/89 100/100/89 106/106/89 105/105/89
f 100/100/90 96/96/90 102/102/90 106/106/90
f 92/92/91 91/91/91 107/107/91 108/108/91
f 90/90/92 96/96/92 107/107/92 91/91/92
f 96/96/93 95/95/93 108/108/93 107/107/93
f 95/95/94 89/89/94 92/92/94 108/108/94
f 109/109/1 110/110/1 111/111/1 112/112/1
f 113/113/95 114/114/95 115/115/95 116/116/95
f 111/111/96 116/116/96 117/117/96 112/112/96
f 109/109/97 118/118/97 113/113/97 110/110/97
f 110/110/98 113/113/98 116/116/98 111/111/98
f 112/112/99 117/117/99 118/118/99 109/109/99
f 119/119/100 120/120/100 115/115/100 114/114/100
f 117/117/101 120/120/101 119/119/101 118/118/101
f 116/116/102 115/115/102 120/120/102 117/117/102
f 118/118/103 119/119/103 114/114/103 113/113/103
f 121/121/1 122/122/1 123/123/1 124/124/1
f 125/125/104 126/126/104 127/127/104 128/128/104
f 123/123/105 122/122/105 129/129/105 126/126/105
f 122/122/106 121/121/106 130/130/106 129/129/106
f 121/121/107 124/124/107 125/125/107 130/130/107
f 124/124/108 123/123/108 126/126/108 125/125/108
f 127/127/109 131/131/109 132/132/109 133/133/109
f 129/129/110 130/130/110 134/134/110 131/131/110
f 126/126/111 129/129/111 131/131/111 127/127/111
f 125/125/112 128/128/112 135/135/112 136/136/112
f 137/137/113 138/138/113 133/133/113 132/132/113
f 134/134/114 128/128/114 138/138/114 137/137/114
f 128/128/115 127/127/115 133/133/115 138/138/115
f 131/131/116 134/134/116 137/137/116 132/132/116
f 139/139/117 136/136/117 135/135/117 140/140/117
f 128/128/118 134/134/118 140/140/118 135/135/118
f 134/134/119 130/130/119 139/139/119 140/140/119
f 130/130/120 125/125/120 136/136/120 139/139/120
f 141/141/1 142/142/1 143/143/1 144/144/1
f 145/145/121 146/146/121 147/147/121 148/148/121
f 143/143/122 142/142/122 149/149/122 146/146/122
f 142/142/123 141/141/123 150/150/123 149/149/123
f 141/141/124 144/144/124 145/145/124 150/150/124
f 144/144/125 143/143/125 146/146/125 145/145/125
f 151/151/126 152/152/126 153/153/126 154/154/126
f 149/149/127 150/150/127 155/155/127 156/156/127
f 152/152/128 146/146/128 157/157/128 158/158/128
f 150/150/129 145/145/129 151/151/129 155/155/129
f 159/159/130 154/154/130 153/153/130 160/160/130
f 156/156/131 155/155/131 159/159/131 160/160/131
f 152/152/132 156/156/132 160/160/132 153/153/132
f 155/155/133 151/151/133 154/154/133 159/159/133
f 157/157/134 161/161/134 162/162/134 158/158/134
f 146/146/135 149/149/135 161/161/135 157/157/135
f 149/149/136 156/156/136 162/162/136 161/161/136
f 156/156/137 152/152/137 158/158/137 162/162/137
f 148/148/138 147/147/138 163/163/138 164/164/138
f 146/146/139 152/152/139 163/163/139 147/147/139
f 152/152/140 151/151/140 164/164/140 163/163/140
f 151/151/141 145/145/141 148/148/141 164/164/141
f 165/165/1 166/166/1 167/167/1 168/168/1
f 169/169/142 170/170/142 171/171/142 172/172/142
f 167/167/143 172/172/143 173/173/143 168/168/143
f 165/165/144 174/174/144 169/169/144 166/166/144
f 166/166/145 169/169/145 172/172/145 167/167/145
f 168/168/146 173/173/146 174/174/146 165/165/146
f 175/175/147 176/176/147 171/171/147 170/170/147
f 173/173/148 176/176/148 175/175/148 174/174/148
f 172/172/149 171/171/149 176/176/149 173/173/149
f 174/174/150 175/175/150 170/170/150 169/169/150
f 177/177/151 178/178/151 179/179/151
f 180/180/152 181/181/152 182/182/152
f 182/182/153 183/183/153 184/184/153
f 178/178/154 177/177/154 185/185/154
f 186/186/155 185/185/155 187/187/155
f 188/188/156 185/185/156 186/186/156
f 185/185/157 189/189/157 190/190/157
f 191/191/158 185/185/158 188/188/158
f 182/182/159 192/192/159 180/180/159
f 193/193/160 194/194/160 195/195/160
f 196/196/161 197/197/161 193/193/161
f 193/193/162 197/197/162 198/198/162
f 199/199/163 200/200/163 201/201/163
f 202/202/164 203/203/164 204/204/164
f 205/205/165 194/194/165 193/193/165
f 206/206/166 207/207/166 208/208/166
f 209/209/167 203/203/167 210/210/167
f 211/211/168 212/212/168 213/213/168
f 214/214/169 215/215/169 216/216/169
f 217/217/170 218/218/170 219/219/170
f 220/220/171 221/221/171 222/222/171
f 222/222/172 221/221/172 223/223/172
f 224/224/173 225/225/173 210/210/173
f 225/225/174 224/224/174 226/226/174
f 227/227/175 228/228/175 212/212/175
f 228/228/176 227/227/176 229/229/176
f 227/227/177 230/230/177 231/231/177
f 226/226/178 232/232/178 230/230/178
f 231/231/179 232/232/179 223/223/179
f 225/225/180 227/227/180 212/212/180
f 230/230/181 225/225/181 226/226/181
f 233/233/182 225/225/182 212/212/182
f 234/234/183 232/232/183 226/226/183
f 234/234/184 222/222/184 223/223/184
f 235/235/185 236/236/185 226/226/185
f 222/222/186 235/235/186 220/220/186
f 221/221/187 237/237/187 223/223/187
f 237/237/188 221/221/188 238/238/188
f 239/239/189 237/237/189 218/218/189
f 218/218/190 237/237/190 240/240/190
f 238/238/191 240/240/191 237/237/191
f 241/241/192 240/240/192 238/238/192
f 239/239/193 242/242/193 223/223/193
f 215/215/194 218/218/194 217/217/194
f 243/243/195 215/215/195 242/242/195
f 216/216/196 215/215/196 217/217/196
f 215/215/197 244/244/197 242/242/197
f 245/245/198 231/231/198 242/242/198
f 245/245/199 242/242/199 244/244/199
f 246/246/200 245/245/200 244/244/200
f 246/246/201 229/229/201 245/245/201
f 212/212/202 209/209/202 233/233/202
f 210/210/203 233/233/203 209/209/203
f 224/224/204 247/247/204 226/226/204
f 210/210/205 247/247/205 224/224/205
f 208/208/206 235/235/206 206/206/206
f 221/221/207 248/248/207 238/238/207
f 249/249/208 250/250/208 251/251/208
f 249/249/209 238/238/209 250/250/209
f 205/205/210 241/241/210 249/249/210
f 241/241/211 205/205/211 219/219/211
f 198/198/212 219/219/212 193/193/212
f 252/252/213 253/253/213 254/254/213
f 246/246/214 254/254/214 253/253/214
f 252/252/215 246/246/215 253/253/215
f 229/229/216 246/246/216 255/255/216
f 256/256/217 257/257/217 202/202/217
f 257/257/218 256/256/218 258/258/218
f 259/259/219 257/257/219 258/258/219
f 260/260/220 208/208/220 261/261/220
f 260/260/221 248/248/221 220/220/221
f 207/207/222 261/261/222 208/208/222
f 261/261/223 201/201/223 260/260/223
f 260/260/224 201/201/224 262/262/224
f 249/249/225 251/251/225 205/205/225
f 214/214/226 216/216/226 180/180/226
f 180/180/227 216/216/227 198/198/227
f 198/198/228 197/197/228 196/196/228
f 228/228/229 255/255/229 213/213/229
f 246/246/230 252/252/230 255/255/230
f 263/263/231 264/264/231 252/252/231
f 255/255/232 264/264/232 213/213/232
f 211/211/233 263/263/233 203/203/233
f 191/191/234 265/265/234 189/189/234
f 189/189/235 265/265/235 204/204/235
f 202/202/236 265/265/236 191/191/236
f 266/266/237 191/191/237 188/188/237
f 258/258/238 256/256/238 266/266/238
f 191/191/239 256/256/239 202/202/239
f 186/186/240 267/267/240 188/188/240
f 268/268/241 186/186/241 187/187/241
f 267/267/242 186/186/242 268/268/242
f 199/199/243 201/201/243 268/268/243
f 199/199/244 187/187/244 195/195/244
f 184/184/245 269/269/245 263/263/245
f 203/203/246 263/263/246 204/204/246
f 183/183/247 269/269/247 184/184/247
f 179/179/248 178/178/248 270/270/248
f 177/177/249 179/179/249 195/195/249
f 193/193/250 271/271/250 196/196/250
f 193/193/251 179/179/251 271/271/251
f 181/181/252 271/271/252 179/179/252
f 181/181/253 196/196/253 271/271/253
f 184/184/254 252/252/254 254/254/254 192/192/254
f 185/185/255 190/190/255 178/178/255
f 183/183/256 182/182/256 181/181/256
f 185/185/257 177/177/257 187/187/257
f 191/191/258 189/189/258 185/185/258
f 182/182/259 184/184/259 192/192/259
f 199/199/260 195/195/260 200/200/260
f 267/267/261 207/207/261 258/258/261
f 261/261/262 207/207/262 267/267/262
f 210/210/263 203/203/263 202/202/263
f 200/200/264 251/251/264 250/250/264 262/262/264
f 214/214/265 180/180/265 192/192/265
f 200/200/266 262/262/266 201/201/266
f 240/240/267 241/241/267 219/219/267 218/218/267
f 206/206/268 258/258/268 207/207/268
f 209/209/269 211/211/269 203/203/269
f 212/212/270 211/211/270 209/209/270
f 214/214/271 244/244/271 215/215/271
f 247/247/272 259/259/272 258/258/272 206/206/272
f 230/230/273 232/232/273 231/231/273
f 230/230/274 227/227/274 225/225/274
f 223/223/275 232/232/275 234/234/275
f 226/226/276 236/236/276 234/234/276
f 234/234/277 236/236/277 222/222/277
f 235/235/278 222/222/278 236/236/278
f 239/239/279 223/223/279 237/237/279
f 243/243/280 242/242/280 239/239/280
f 239/239/281 218/218/281 243/243/281
f 215/215/282 243/243/282 218/218/282
f 223/223/283 242/242/283 231/231/283
f 227/227/284 231/231/284 245/245/284
f 227/227/285 245/245/285 229/229/285
f 213/213/286 212/212/286 228/228/286
f 255/255/287 228/228/287 229/229/287
f 225/225/288 233/233/288 210/210/288
f 235/235/289 226/226/289 247/247/289 206/206/289
f 254/254/290 246/246/290 244/244/290 214/214/290
f 220/220/291 235/235/291 208/208/291
f 220/220/292 248/248/292 221/221/292
f 262/262/293 250/250/293 248/248/293
f 248/248/294 250/250/294 238/238/294
f 198/198/295 217/217/295 219/219/295
f 193/193/296 219/219/296 205/205/296
f 198/198/297 216/216/297 217/217/297
f 272/272/298 259/259/298 247/247/298 210/210/298
f 192/192/299 254/254/299 214/214/299
f 194/194/300 205/205/300 251/251/300 195/195/300
f 202/202/301 272/272/301 210/210/301
f 202/202/302 257/257/302 272/272/302
f 272/272/303 257/257/303 259/259/303
f 262/262/304 248/248/304 260/260/304
f 220/220/305 208/208/305 260/260/305
f 267/267/306 201/201/306 261/261/306
f 268/268/307 201/201/307 267/267/307
f 238/238/308 249/249/308 241/241/308
f 251/251/309 200/200/309 195/195/309
f 183/183/310 270/270/310 189/189/310 204/204/310
f 273/273/311 198/198/311 196/196/311
f 198/198/312 273/273/312 180/180/312
f 264/264/313 255/255/313 252/252/313
f 184/184/314 263/263/314 252/252/314
f 263/263/315 211/211/315 213/213/315
f 264/264/316 263/263/316 213/213/316
f 202/202/317 204/204/317 265/265/317
f 191/191/318 266/266/318 256/256/318
f 266/266/319 188/188/319 267/267/319
f 266/266/320 267/267/320 258/258/320
f 187/187/321 199/199/321 268/268/321
f 195/195/322 187/187/322 177/177/322
f 204/204/323 263/263/323 269/269/323
f 181/181/324 270/270/324 183/183/324
f 181/181/325 180/180/325 273/273/325 196/196/325
f 204/204/326 269/269/326 183/183/326
f 190/190/327 270/270/327 178/178/327
f 181/181/328 179/179/328 270/270/328
f 189/189/329 270/270/329 190/190/329
f 193/193/330 195/195/330 179/179/330
f 274/274/331 275/275/331 276/276/331
f 277/277/332 278/278/332 279/279/332
f 279/279/333 280/280/333 281/281/333
f 275/275/334 274/274/334 282/282/334
f 283/283/335 282/282/335 284/284/335
f 285/285/336 282/282/336 283/283/336
f 282/282/337 286/286/337 287/287/337
f 288/288/338 282/282/338 285/285/338
f 279/279/339 289/289/339 277/277/339
f 290/290/340 291/291/340 292/292/340
f 293/293/341 294/294/341 290/290/341
f 290/290/342 294/294/342 295/295/342
f 296/296/343 297/297/343 298/298/343
f 299/299/344 300/300/344 301/301/344
f 302/302/345 291/291/345 290/290/345
f 303/303/346 304/304/346 305/305/346
f 306/306/347 300/300/347 307/307/347
f 308/308/348 309/309/348 310/310/348
f 311/311/349 312/312/349 313/313/349
f 314/314/350 315/315/350 316/316/350
f 317/317/351 318/318/351 319/319/351
f 319/319/352 318/318/352 320/320/352
f 321/321/353 322/322/353 307/307/353
f 322/322/354 321/321/354 323/323/354
f 324/324/355 325/325/355 309/309/355
f 325/325/356 324/324/356 326/326/356
f 324/324/357 327/327/357 328/328/357
f 323/323/358 329/329/358 327/327/358
f 328/328/359 329/329/359 320/320/359
f 322/322/360 324/324/360 309/309/360
f 327/327/361 322/322/361 323/323/361
f 330/330/362 322/322/362 309/309/362
f 331/331/363 329/329/363 323/323/363
f 331/331/364 319/319/364 320/320/364
f 332/332/365 333/333/365 323/323/365
f 319/319/366 332/332/366 317/317/366
f 318/318/367 334/334/367 320/320/367
f 334/334/368 318/318/368 335/335/368
f 336/336/369 334/334/369 315/315/369
f 315/315/370 334/334/370 337/337/370
f 335/335/371 337/337/371 334/334/371
f 338/338/372 337/337/372 335/335/372
f 336/336/373 339/339/373 320/320/373
f 312/312/374 315/315/374 314/314/374
f 340/340/375 312/312/375 339/339/375
f 313/313/376 312/312/376 314/314/376
f 312/312/377 341/341/377 339/339/377
f 342/342/378 328/328/378 339/339/378
f 342/342/379 339/339/379 341/341/379
f 343/343/380 342/342/380 341/341/380
f 343/343/381 326/326/381 342/342/381
f 309/309/382 306/306/382 330/330/382
f 307/307/383 330/330/383 306/306/383
f 321/321/384 344/344/384 323/323/384
f 307/307/385 344/344/385 321/321/385
f 305/305/386 332/332/386 303/303/386
f 318/318/387 345/345/387 335/335/387
f 346/346/388 347/347/388 348/348/388
f 346/346/389 335/335/389 347/347/389
f 302/302/390 338/338/390 346/346/390
f 338/338/391 302/302/391 316/316/391
f 295/295/392 316/316/392 290/290/392
f 349/349/393 350/350/393 351/351/393
f 343/343/394 351/351/394 350/350/394
f 349/349/395 343/343/395 350/350/395
f 326/326/396 343/343/396 352/352/396
f 353/353/397 354/354/397 299/299/397
f 354/354/398 353/353/398 355/355/398
f 356/356/399 354/354/399 355/355/399
f 357/357/400 305/305/400 358/358/400
f 357/357/401 345/345/401 317/317/401
f 304/304/402 358/358/402 305/305/402
f 358/358/403 298/298/403 357/357/403
f 357/357/404 298/298/404 359/359/404
f 346/346/405 348/348/405 302/302/405
f 311/311/406 313/313/406 277/277/406
f 277/277/407 313/313/407 295/295/407
f 295/295/408 294/294/408 293/293/408
f 325/325/409 352/352/409 310/310/409
f 343/343/410 349/349/410 352/352/410
f 360/360/411 361/361/411 349/349/411
f 352/352/412 361/361/412 310/310/412
f 308/308/413 360/360/413 300/300/413
f 288/288/414 362/362/414 286/286/414
f 286/286/415 362/362/415 301/301/415
f 299/299/416 362/362/416 288/288/416
f 363/363/417 288/288/417 285/285/417
f 355/355/418 353/353/418 363/363/418
f 288/288/419 353/353/419 299/299/419
f 283/283/420 364/364/420 285/285/420
f 365/365/421 283/283/421 284/284/421
f 364/364/422 283/283/422 365/365/422
f 296/296/423 298/298/423 365/365/423
f 296/296/424 284/284/424 292/292/424
f 281/281/425 366/366/425 360/360/425
f 300/300/426 360/360/426 301/301/426
f 280/280/427 366/366/427 281/281/427
f 276/276/428 275/275/428 367/367/428
f 274/274/429 276/276/429 292/292/429
f 290/290/430 368/368/430 293/293/430
f 290/290/431 276/276/431 368/368/431
f 278/278/432 368/368/432 276/276/432
f 278/278/433 293/293/433 368/368/433
f 281/281/434 349/349/434 351/351/434 289/289/434
f 282/282/435 287/287/435 275/275/435
f 280/280/436 279/279/436 278/278/436
f 282/282/437 274/274/437 284/284/437
f 288/288/438 286/286/438 282/282/438
f 279/279/439 281/281/439 289/289/439
f 296/296/440 292/292/440 297/297/440
f 364/364/441 304/304/441 355/355/441
f 358/358/442 304/304/442 364/364/442
f 307/307/443 300/300/443 299/299/443
f 297/297/444 348/348/444 347/347/444 359/359/444
f 311/311/445 277/277/445 289/289/445
f 297/297/446 359/359/446 298/298/446
f 337/337/447 338/338/447 316/316/447 315/315/447
f 303/303/448 355/355/448 304/304/448
f 306/306/449 308/308/449 300/300/449
f 309/309/450 308/308/450 306/306/450
f 311/311/451 341/341/451 312/312/451
f 344/344/452 356/356/452 355/355/452 303/303/452
f 327/327/453 329/329/453 328/328/453
f 327/327/454 324/324/454 322/322/454
f 320/320/455 329/329/455 331/331/455
f 323/323/456 333/333/456 331/331/456
f 331/331/457 333/333/457 319/319/457
f 332/332/458 319/319/458 333/333/458
f 336/336/459 320/320/459 334/334/459
f 340/340/460 339/339/460 336/336/460
f 336/336/461 315/315/461 340/340/461
f 312/312/462 340/340/462 315/315/462
f 320/320/463 339/339/463 328/328/463
f 324/324/464 328/328/464 342/342/464
f 324/324/465 342/342/465 326/326/465
f 310/310/466 309/309/466 325/325/466
f 352/352/467 325/325/467 326/326/467
f 322/322/468 330/330/468 307/307/468
f 332/332/469 323/323/469 344/344/469 303/303/469
f 351/351/470 343/343/470 341/341/470 311/311/470
f 317/317/471 332/332/471 305/305/471
f 317/317/472 345/345/472 318/318/472
f 359/359/473 347/347/473 345/345/473
f 345/345/474 347/347/474 335/335/474
f 295/295/475 314/314/475 316/316/475
f 290/290/476 316/316/476 302/302/476
f 295/295/477 313/313/477 314/314/477
f 369/369/478 356/356/478 344/344/478 307/307/478
f 289/289/479 351/351/479 311/311/479
f 291/291/480 302/302/480 348/348/480 292/292/480
f 299/299/481 369/369/481 307/307/481
f 299/299/482 354/354/482 369/369/482
f 369/369/483 354/354/483 356/356/483
f 359/359/484 345/345/484 357/357/484
f 317/317/485 305/305/485 357/357/485
f 364/364/486 298/298/486 358/358/486
f 365/365/487 298/298/487 364/364/487
f 335/335/488 346/346/488 338/338/488
f 348/348/489 297/297/489 292/292/489
f 280/280/490 367/367/490 286/286/490 301/301/490
f 370/370/491 295/295/491 293/293/491
f 295/295/492 370/370/492 277/277/492
f 361/361/493 352/352/493 349/349/493
f 281/281/494 360/360/494 349/349/494
f 360/360/495 308/308/495 310/310/495
f 361/361/496 360/360/496 310/310/496
f 299/299/497 301/301/497 362/362/497
f 288/288/498 363/363/498 353/353/498
f 363/363/499 285/285/499 364/364/499
f 363/363/500 364/364/500 355/355/500
f 284/284/501 296/296/501 365/365/501
f 292/292/502 284/284/502 274/274/502
f 301/301/503 360/360/503 366/366/503
f 278/278/504 367/367/504 280/280/504
f 278/278/505 277/277/505 370/370/505 293/293/505
f 301/301/506 366/366/506 280/280/506
f 287/287/507 367/367/507 275/275/507
f 278/278/508 276/276/508 367/367/508
f 286/286/509 367/367/509 287/287/509
f 290/290/510 292/292/510 276/276/510
f 371/371/511 372/372/511 373/373/511
f 374/374/512 375/375/512 376/376/512
f 376/376/513 377/377/513 378/378/513
f 372/372/514 371/371/514 379/379/514
f 380/380/515 379/379/515 381/381/515
f 382/382/516 379/379/516 380/380/516
f 379/379/517 383/383/517 384/384/517
f 385/385/518 379/379/518 382/382/518
f 376/376/519 386/386/519 374/374/519
f 387/387/520 388/388/520 389/389/520
f 390/390/521 391/391/521 387/387/521
f 387/387/522 391/391/522 392/392/522
f 393/393/523 394/394/523 395/395/523
f 396/396/524 397/397/524 398/398/524
f 399/399/525 388/388/525 387/387/525
f 400/400/526 401/401/526 402/402/526
f 403/403/527 397/397/527 404/404/527
f 405/405/528 406/406/528 407/407/528
f 408/408/529 409/409/529 410/410/529
f 411/411/530 412/412/530 413/413/530
f 414/414/531 415/415/531 416/416/531
f 416/416/532 415/415/532 417/417/532
f 418/418/533 419/419/533 404/404/533
f 419/419/534 418/418/534 420/420/534
f 421/421/535 422/422/535 406/406/535
f 422/422/536 421/421/536 423/423/536
f 421/421/537 424/424/537 425/425/537
f 420/420/538 426/426/538 424/424/538
f 425/425/539 426/426/539 417/417/539
f 419/419/540 421/421/540 406/406/540
f 424/424/541 419/419/541 420/420/541
f 427/427/542 419/419/542 406/406/542
f 428/428/543 426/426/543 420/420/543
f 428/428/544 416/416/544 417/417/544
f 429/429/545 430/430/545 420/420/545
f 416/416/546 429/429/546 414/414/546
f 415/415/547 431/431/547 417/417/547
f 431/431/548 415/415/548 432/432/548
f 433/433/549 431/431/549 412/412/549
f 412/412/550 431/431/550 434/434/550
f 432/432/551 434/434/551 431/431/551
f 435/435/552 434/434/552 432/432/552
f 433/433/553 436/436/553 417/417/553
f 409/409/554 412/412/554 411/411/554
f 437/437/555 409/409/555 436/436/555
f 410/410/556 409/409/556 411/411/556
f 409/409/557 438/438/557 436/436/557
f 439/439/558 425/425/558 436/436/558
f 439/439/559 436/436/559 438/438/559
f 440/440/560 439/439/560 438/438/560
f 440/440/561 423/423/561 439/439/561
f 406/406/562 403/403/562 427/427/562
f 404/404/563 427/427/563 403/403/563
f 418/418/564 441/441/564 420/420/564
f 404/404/565 441/441/565 418/418/565
f 402/402/566 429/429/566 400/400/566
f 415/415/567 442/442/567 432/432/567
f 443/443/568 444/444/568 445/445/568
f 443/443/569 432/432/569 444/444/569
f 399/399/570 435/435/570 443/443/570
f 435/435/571 399/399/571 413/413/571
f 392/392/572 413/413/572 387/387/572
f 446/446/573 447/447/573 448/448/573
f 440/440/574 448/448/574 447/447/574
f 446/446/575 440/440/575 447/447/575
f 423/423/576 440/440/576 449/449/576
f 450/450/577 451/451/577 396/396/577
f 451/451/578 450/450/578 452/452/578
f 453/453/579 451/451/579 452/452/579
f 454/454/580 402/402/580 455/455/580
f 454/454/581 442/442/581 414/414/581
f 401/401/582 455/455/582 402/402/582
f 455/455/583 395/395/583 454/454/583
f 454/454/584 395/395/584 456/456/584
f 443/443/585 445/445/585 399/399/585
f 408/408/586 410/410/586 374/374/586
f 374/374/587 410/410/587 392/392/587
f 392/392/588 391/391/588 390/390/588
f 422/422/589 449/449/589 407/407/589
f 440/440/590 446/446/590 449/449/590
f 457/457/591 458/458/591 446/446/591
f 449/449/592 458/458/592 407/407/592
f 405/405/593 457/457/593 397/397/593
f 385/385/594 459/459/594 383/383/594
f 383/383/595 459/459/595 398/398/595
f 396/396/596 459/459/596 385/385/596
f 460/460/597 385/385/597 382/382/597
f 452/452/598 450/450/598 460/460/598
f 385/385/599 450/450/599 396/396/599
f 380/380/600 461/461/600 382/382/600
f 462/462/601 380/380/601 381/381/601
f 461/461/602 380/380/602 462/462/602
f 393/393/603 395/395/603 462/462/603
f 393/393/604 381/381/604 389/389/604
f 378/378/605 463/463/605 457/457/605
f 397/397/606 457/457/606 398/398/606
f 377/377/607 463/463/607 378/378/607
f 373/373/608 372/372/608 464/464/608
f 371/371/609 373/373/609 389/389/609
f 387/387/610 465/465/610 390/390/610
f 387/387/611 373/373/611 465/465/611
f 375/375/612 465/465/612 373/373/612
f 375/375/613 390/390/613 465/465/613
f 378/378/614 446/446/614 448/448/614 386/386/614
f 379/379/615 384/384/615 372/372/615
f 377/377/616 376/376/616 375/375/616
f 379/379/617 371/371/617 381/381/617
f 385/385/618 383/383/618 379/379/618
f 376/376/619 378/378/619 386/386/619
f 393/393/620 389/389/620 394/394/620
f 461/461/621 401/401/621 452/452/621
f 455/455/622 401/401/622 461/461/622
f 404/404/623 397/397/623 396/396/623
f 394/394/624 445/445/624 444/444/624 456/456/624
f 408/408/625 374/374/625 386/386/625
f 394/394/626 456/456/626 395/395/626
f 434/434/627 435/435/627 413/413/627 412/412/627
f 400/400/628 452/452/628 401/401/628
f 403/403/629 405/405/629 397/397/629
f 406/406/630 405/405/630 403/403/630
f 408/408/631 438/438/631 409/409/631
f 441/441/632 453/453/632 452/452/632 400/400/632
f 424/424/633 426/426/633 425/425/633
f 424/424/634 421/421/634 419/419/634
f 417/417/635 426/426/635 428/428/635
f 420/420/636 430/430/636 428/428/636
f 428/428/637 430/430/637 416/416/637
f 429/429/638 416/416/638 430/430/638
f 433/433/639 417/417/639 431/431/639
f 437/437/640 436/436/640 433/433/640
f 433/433/641 412/412/641 437/437/641
f 409/409/642 437/437/642 412/412/642
f 417/417/643 436/436/643 425/425/643
f 421/421/644 425/425/644 439/439/644
f 421/421/645 439/439/645 423/423/645
f 407/407/646 406/406/646 422/422/646
f 449/449/647 422/422/647 423/423/647
f 419/419/648 427/427/648 404/404/648
f 429/429/649 420/420/649 441/441/649 400/400/649
f 448/448/650 440/440/650 438/438/650 408/408/650
f 414/414/651 429/429/651 402/402/651
f 414/414/652 442/442/652 415/415/652
f 456/456/653 444/444/653 442/442/653
f 442/442/654 444/444/654 432/432/654
f 392/392/655 411/411/655 413/413/655
f 387/387/656 413/413/656 399/399/656
f 392/392/657 410/410/657 411/411/657
f 466/466/658 453/453/658 441/441/658 404/404/658
f 386/386/659 448/448/659 408/408/659
f 388/388/660 399/399/660 445/445/660 389/389/660
f 396/396/661 466/466/661 404/404/661
f 396/396/662 451/451/662 466/466/662
f 466/466/663 451/451/663 453/453/663
f 456/456/664 442/442/664 454/454/664
f 414/414/665 402/402/665 454/454/665
f 461/461/666 395/395/666 455/455/666
f 462/462/667 395/395/667 461/461/667
f 432/432/668 443/443/668 435/435/668
f 445/445/669 394/394/669 389/389/669
f 377/377/670 464/464/670 383/383/670 398/398/670
f 467/467/671 392/392/671 390/390/671
f 392/392/672 467/467/672 374/374/672
f 458/458/673 449/449/673 446/446/673
f 378/378/674 457/457/674 446/446/674
f 457/457/675 405/405/675 407/407/675
f 458/458/676 457/457/676 407/407/676
f 396/396/677 398/398/677 459/459/677
f 385/385/678 460/460/678 450/450/678
f 460/460/679 382/382/679 461/461/679
f 460/460/680 461/461/680 452/452/680
f 381/381/681 393/393/681 462/462/681
f 389/389/682 381/381/682 371/371/682
f 398/398/683 457/457/683 463/463/683
f 375/375/684 464/464/684 377/377/684
f 375/375/685 374/374/685 467/467/685 390/390/685
f 398/398/686 463/463/686 377/377/686
f 384/384/687 464/464/687 372/372/687
f 375/375/688 373/373/688 464/464/688
f 383/383/689 464/464/689 384/384/689
f 387/387/690 389/389/690 373/373/690
