mtllib forest_nature_set_all_in.mtl
o forest_Flower_bush_blue_Plane_030
v -22.409613 0.444516 10.255303
v -22.586994 0.366610 10.428269
v -22.734905 0.415505 10.137953
v -22.550207 0.397724 10.432698
v -22.403519 0.460652 10.287262
v -22.359190 0.279032 10.609642
v -22.191816 0.307166 10.413935
v -22.208683 0.294926 10.368606
v -22.411835 0.260794 10.601182
v -22.154737 0.000000 10.617209
v -22.177538 0.000000 10.581601
v -22.208185 0.000000 10.625350
v -22.158875 0.000000 10.627499
v -22.145859 0.000000 10.613811
v -22.184332 0.000000 10.631348
v -22.193933 0.000000 10.625799
v -22.184835 0.000000 10.577286
v -21.950256 0.294926 10.589478
v -22.151783 0.260794 10.355493
v -21.930683 0.366610 10.226418
v -21.784525 0.444516 10.426466
v -21.997515 0.307166 10.599768
v -22.167601 0.279032 10.406412
v -21.940266 0.397724 10.262209
v -21.585455 0.415505 10.187703
v -21.817024 0.460652 10.427981
v -21.942202 0.444516 10.976337
v -21.770565 0.366610 10.797671
v -21.682251 0.415505 11.126999
v -21.807476 0.397724 10.794446
v -21.949337 0.460652 10.944594
v -21.971071 0.279032 10.592747
v -22.131966 0.307166 10.793816
v -22.113628 0.294926 10.838570
v -21.918180 0.260794 10.599483
v -22.196772 0.000000 10.606366
v -22.172823 0.000000 10.641212
v -22.143620 0.000000 10.596484
v -22.192974 0.000000 10.595947
v -22.205515 0.000000 10.613236
v -22.169847 0.000000 10.590531
v -22.173130 0.000000 10.581013
v -22.161846 0.000000 10.644000
v -22.397404 0.294926 10.646788
v -22.165361 0.260794 10.850551
v -22.386618 0.366610 10.986925
v -22.559116 0.444516 10.809090
v -22.352030 0.307166 10.630040
v -22.156763 0.279032 10.797929
v -22.382092 0.397724 10.950150
v -22.616348 0.415505 11.130523
v -22.527142 0.460652 10.803079
v -22.343887 0.538662 10.449688
v -22.356728 0.524963 10.431247
v -22.369759 0.534447 10.452053
v -22.204073 0.173679 10.632180
v -22.153395 0.173547 10.634171
v -22.244814 0.400511 10.528276
v -22.284662 0.395478 10.521619
v -22.175667 0.000000 10.587717
v -22.179955 0.178104 10.593029
v -22.155119 0.000000 10.623308
v -22.265625 0.408064 10.499250
v -22.196215 0.000000 10.623308
v -21.970623 0.546008 10.568461
v -21.991182 0.565963 10.562592
v -21.989336 0.554306 10.589352
v -22.158627 0.174285 10.642060
v -22.127560 0.173983 10.616727
v -22.056673 0.403486 10.619483
v -22.083138 0.399561 10.635654
v -22.174625 0.000000 10.589418
v -22.166643 0.177532 10.602995
v -22.137114 0.000000 10.606206
v -22.092728 0.410635 10.609903
v -22.170408 0.000000 10.630299
v -22.211895 0.524730 10.862304
v -22.232613 0.531103 10.846369
v -22.236809 0.517008 10.868896
v -22.190086 0.173976 10.640120
v -22.151802 0.173855 10.626206
v -22.168509 0.370777 10.712616
v -22.198122 0.366268 10.724342
v -22.182472 0.177707 10.599199
v -22.155386 0.000000 10.612166
v -22.192364 0.377373 10.693635
v -22.237965 0.544394 10.848751
v -22.231615 0.526474 10.879300
v -22.212259 0.534719 10.877989
v -22.198156 0.547368 10.831777
v -22.228235 0.498424 10.888082
v -22.260441 0.508285 10.854843
v -22.254057 0.488837 10.922682
v -22.255880 0.493621 10.925867
v -22.297121 0.460272 10.915070
v -22.248821 0.544717 10.824962
v -22.253347 0.579605 10.798270
v -22.251492 0.574733 10.795027
v -22.245916 0.537092 10.819885
v -22.200407 0.555034 10.837165
v -22.187868 0.592016 10.817093
v -22.186014 0.587143 10.813849
v -22.160049 0.592050 10.834084
v -22.145411 0.550905 10.904260
v -22.120272 0.563982 10.860478
v -22.157835 0.586234 10.830212
v -22.191671 0.528364 10.882223
v -22.188429 0.521642 10.875982
v -22.143194 0.545090 10.900389
v -22.164059 0.525387 10.918806
v -22.166031 0.530564 10.922253
v -22.171528 0.483144 10.952574
v -22.231209 0.506772 10.892033
v -22.227547 0.494742 10.940863
v -22.225576 0.489565 10.937416
v -22.213812 0.590814 10.766658
v -22.263151 0.515810 10.860181
v -22.303059 0.507009 10.878764
v -22.301237 0.502225 10.875580
v -22.313448 0.518967 10.855666
v -22.311367 0.513507 10.852031
v -22.281839 0.566197 10.802810
v -22.279762 0.560736 10.799174
v -22.329155 0.523647 10.801551
v -22.214533 0.548031 10.856694
v -22.246651 0.530379 10.864832
v -22.381495 0.539743 10.424716
v -22.358652 0.558107 10.458097
v -22.338186 0.556289 10.442128
v -22.343218 0.512652 10.398859
v -22.346771 0.548687 10.491325
v -22.399267 0.530035 10.473743
v -22.360559 0.585705 10.529016
v -22.362062 0.592478 10.526319
v -22.408924 0.572585 10.569599
v -22.403990 0.518674 10.415108
v -22.425732 0.514300 10.365306
v -22.424204 0.507403 10.368053
v -22.401596 0.507879 10.419407
v -22.344736 0.523603 10.394464
v -22.344387 0.522385 10.340277
v -22.342857 0.515488 10.343024
v -22.305258 0.531790 10.340064
v -22.252731 0.573970 10.416704
v -22.244106 0.529900 10.370567
v -22.303432 0.523558 10.343343
v -22.311733 0.550720 10.444164
v -22.309576 0.539195 10.446762
v -22.250902 0.565737 10.419983
v -22.264191 0.578418 10.457860
v -22.265818 0.585747 10.454942
v -22.252167 0.588949 10.523335
v -22.349829 0.558797 10.485675
v -22.323345 0.600363 10.523699
v -22.321720 0.593034 10.526618
v -22.395157 0.477388 10.322886
v -22.401314 0.540979 10.469625
v -22.438135 0.566125 10.502542
v -22.436632 0.559353 10.505239
v -22.461596 0.552869 10.480874
v -22.459879 0.545138 10.483953
v -22.454575 0.518863 10.391574
v -22.452860 0.511133 10.394653
v -22.503023 0.504792 10.451808
v -22.351757 0.543376 10.417266
v -22.382614 0.550040 10.451196
v -21.992838 0.577672 10.561072
v -21.970163 0.568709 10.592175
v -21.956741 0.557857 10.576745
v -21.982664 0.542120 10.531034
v -21.971516 0.549518 10.618362
v -22.014740 0.573754 10.602690
v -21.961117 0.573852 10.659095
v -21.957659 0.579426 10.658181
v -22.003798 0.588302 10.694603
v -22.019194 0.580420 10.549994
v -22.031029 0.600280 10.507357
v -22.034550 0.594604 10.508287
v -22.024704 0.571537 10.551451
v -21.976492 0.550575 10.529472
v -21.971907 0.559511 10.482307
v -21.975428 0.553835 10.483238
v -21.941195 0.541122 10.481578
v -21.889072 0.520501 10.552987
v -21.906294 0.496579 10.503874
v -21.945398 0.534347 10.482689
v -21.943510 0.537715 10.575798
v -21.949459 0.528840 10.575652
v -21.893272 0.513725 10.554096
v -21.897518 0.522796 10.590183
v -21.893778 0.528828 10.589195
v -21.889568 0.509858 10.648190
v -21.966721 0.558638 10.615643
v -21.927917 0.560799 10.655095
v -21.931658 0.554768 10.656084
v -22.030228 0.566494 10.461525
v -22.008934 0.582481 10.601398
v -22.020041 0.614652 10.637075
v -22.023497 0.609078 10.637989
v -22.041077 0.624989 10.617153
v -22.045021 0.618627 10.618196
v -22.049068 0.616113 10.532752
v -22.053015 0.609752 10.533795
v -22.094240 0.626441 10.585089
v -21.970968 0.562873 10.553518
v -21.989723 0.579840 10.586082
vt 0.138046 0.892329
vt 0.155742 0.887406
vt 0.114151 0.962366
vt 0.155220 0.893012
vt 0.140399 0.896810
vt 0.173396 0.752976
vt 0.150163 0.763579
vt 0.146367 0.759557
vt 0.174098 0.746462
vt 0.145404 0.570678
vt 0.141340 0.570678
vt 0.177189 0.570678
vt 0.175385 0.570678
vt 0.141340 0.570678
vt 0.145404 0.570678
vt 0.175385 0.570678
vt 0.177189 0.570678
vt 0.146367 0.759557
vt 0.174098 0.746462
vt 0.155742 0.887406
vt 0.138046 0.892329
vt 0.150163 0.763579
vt 0.173396 0.752976
vt 0.155220 0.893012
vt 0.114151 0.962366
vt 0.140399 0.896810
vt 0.138046 0.892329
vt 0.155742 0.887406
vt 0.114151 0.962366
vt 0.155220 0.893012
vt 0.140399 0.896810
vt 0.173396 0.752976
vt 0.150163 0.763579
vt 0.146367 0.759557
vt 0.174098 0.746462
vt 0.145404 0.570678
vt 0.141340 0.570678
vt 0.177189 0.570678
vt 0.175385 0.570678
vt 0.141340 0.570678
vt 0.145404 0.570678
vt 0.175385 0.570678
vt 0.177189 0.570678
vt 0.146367 0.759557
vt 0.174098 0.746462
vt 0.155742 0.887406
vt 0.138046 0.892329
vt 0.150163 0.763579
vt 0.173396 0.752976
vt 0.155220 0.893012
vt 0.114151 0.962366
vt 0.140399 0.896810
vt 0.138844 0.932325
vt 0.135328 0.935493
vt 0.133009 0.928487
vt 0.174055 0.656206
vt 0.183988 0.656147
vt 0.167298 0.809541
vt 0.157757 0.806700
vt 0.179371 0.522043
vt 0.178620 0.658167
vt 0.186577 0.522043
vt 0.161974 0.813804
vt 0.172164 0.522043
vt 0.138844 0.932325
vt 0.135328 0.935493
vt 0.133009 0.928487
vt 0.174055 0.656206
vt 0.183988 0.656147
vt 0.167298 0.809541
vt 0.157757 0.806700
vt 0.179371 0.522043
vt 0.178620 0.658167
vt 0.186577 0.522043
vt 0.161974 0.813804
vt 0.172164 0.522043
vt 0.138844 0.932325
vt 0.135328 0.935493
vt 0.133009 0.928487
vt 0.174055 0.656206
vt 0.183988 0.656147
vt 0.167298 0.809541
vt 0.157757 0.806700
vt 0.179371 0.522043
vt 0.178620 0.658167
vt 0.186577 0.522043
vt 0.161974 0.813804
vt 0.247528 0.469108
vt 0.236819 0.469108
vt 0.258237 0.469108
vt 0.282994 0.025804
vt 0.225608 0.025804
vt 0.212061 0.025804
vt 0.533443 0.147177
vt 0.533443 0.147177
vt 0.519623 0.191509
vt 0.551885 0.359247
vt 0.557158 0.450175
vt 0.557158 0.450175
vt 0.551885 0.359247
vt 0.563255 0.297491
vt 0.573194 0.363081
vt 0.563255 0.297491
vt 0.573194 0.363081
vt 0.576453 0.288099
vt 0.570328 0.147177
vt 0.584147 0.191509
vt 0.576453 0.288099
vt 0.558912 0.197569
vt 0.558912 0.197569
vt 0.570328 0.147177
vt 0.561796 0.100835
vt 0.561796 0.100835
vt 0.551885 0.016281
vt 0.544858 0.197569
vt 0.541975 0.100835
vt 0.544858 0.197569
vt 0.541975 0.100835
vt 0.571824 0.475035
vt 0.540515 0.297491
vt 0.527318 0.288099
vt 0.540515 0.297491
vt 0.527318 0.288099
vt 0.530577 0.363081
vt 0.530577 0.363081
vt 0.546612 0.450175
vt 0.546612 0.450175
vt 0.531946 0.475035
vt 0.264855 0.469108
vt 0.282994 0.254358
vt 0.247528 0.254358
vt 0.269447 0.254358
vt 0.225608 0.254358
vt 0.230200 0.469108
vt 0.212061 0.254358
vt 0.247528 0.025804
vt 0.269447 0.025804
vt 0.247528 0.469108
vt 0.236819 0.469108
vt 0.258237 0.469108
vt 0.282994 0.025804
vt 0.225608 0.025804
vt 0.212061 0.025804
vt 0.533443 0.147177
vt 0.533443 0.147177
vt 0.519623 0.191509
vt 0.551885 0.359247
vt 0.557158 0.450175
vt 0.557158 0.450175
vt 0.551885 0.359247
vt 0.563255 0.297491
vt 0.573194 0.363081
vt 0.563255 0.297491
vt 0.573194 0.363081
vt 0.576453 0.288099
vt 0.570328 0.147177
vt 0.584147 0.191509
vt 0.576453 0.288099
vt 0.558912 0.197569
vt 0.558912 0.197569
vt 0.570328 0.147177
vt 0.561796 0.100835
vt 0.561796 0.100835
vt 0.551885 0.016281
vt 0.544858 0.197569
vt 0.541975 0.100835
vt 0.544858 0.197569
vt 0.541975 0.100835
vt 0.571824 0.475035
vt 0.540515 0.297491
vt 0.527318 0.288099
vt 0.540515 0.297491
vt 0.527318 0.288099
vt 0.530577 0.363081
vt 0.530577 0.363081
vt 0.546612 0.450175
vt 0.546612 0.450175
vt 0.531946 0.475035
vt 0.264855 0.469108
vt 0.282994 0.254358
vt 0.247528 0.254358
vt 0.269447 0.254358
vt 0.225608 0.254358
vt 0.230200 0.469108
vt 0.212061 0.254358
vt 0.247528 0.025804
vt 0.269447 0.025804
vt 0.247528 0.469108
vt 0.236819 0.469108
vt 0.258237 0.469108
vt 0.282994 0.025804
vt 0.225608 0.025804
vt 0.212061 0.025804
vt 0.533443 0.147177
vt 0.533443 0.147177
vt 0.519623 0.191509
vt 0.551885 0.359247
vt 0.557158 0.450175
vt 0.557158 0.450175
vt 0.551885 0.359247
vt 0.563255 0.297491
vt 0.573194 0.363081
vt 0.563255 0.297491
vt 0.573194 0.363081
vt 0.576453 0.288099
vt 0.570328 0.147177
vt 0.584147 0.191509
vt 0.576453 0.288099
vt 0.558912 0.197569
vt 0.558912 0.197569
vt 0.570328 0.147177
vt 0.561796 0.100835
vt 0.561796 0.100835
vt 0.551885 0.016281
vt 0.544858 0.197569
vt 0.541975 0.100835
vt 0.544858 0.197569
vt 0.541975 0.100835
vt 0.571824 0.475035
vt 0.540515 0.297491
vt 0.527318 0.288099
vt 0.540515 0.297491
vt 0.527318 0.288099
vt 0.530577 0.363081
vt 0.530577 0.363081
vt 0.546612 0.450175
vt 0.546612 0.450175
vt 0.531946 0.475035
vt 0.264855 0.469108
vt 0.282994 0.254358
vt 0.247528 0.254358
vt 0.269447 0.254358
vt 0.225608 0.254358
vt 0.230200 0.469108
vt 0.212061 0.254358
vt 0.247528 0.025804
vt 0.269447 0.025804
vn 0.1750 -0.9524 -0.2495
vn -0.2178 0.9565 0.1942
vn 0.0881 0.8823 -0.4623
vn 0.2408 0.8594 0.4511
vn 0.6832 0.5961 -0.4218
vn -0.3978 0.5243 0.7529
vn -0.6139 0.6654 0.4248
vn 0.8935 -0.1824 -0.4103
vn -0.1035 -0.0000 0.9946
vn -0.6222 -0.5146 -0.5900
vn 0.6387 0.4842 0.5979
vn -0.2347 -0.8579 -0.4572
vn 0.0000 -1.0000 0.0000
vn 0.4651 -0.8729 -0.1473
vn -0.6826 0.4830 0.5484
vn 0.6727 -0.5130 -0.5333
vn -0.9703 -0.0800 -0.2285
vn 0.2944 -0.0987 0.9506
vn -0.1772 0.7188 -0.6723
vn -0.6140 0.5951 -0.5186
vn 0.3050 0.5275 0.7929
vn -0.4619 0.8731 0.1559
vn 0.4390 0.8596 0.2616
vn -0.1071 0.9533 -0.2823
vn 0.1634 -0.9538 0.2521
vn -0.2232 -0.9537 0.2015
vn 0.2637 0.9528 -0.1502
vn -0.1809 0.8597 0.4777
vn -0.2415 0.8683 -0.4333
vn -0.7633 0.4801 0.4323
vn 0.4137 0.6178 -0.6688
vn 0.6333 0.7226 -0.2771
vn -0.8848 -0.1076 0.4535
vn 0.0617 -0.0515 -0.9968
vn 0.6337 -0.5283 0.5651
vn -0.6507 0.4983 -0.5730
vn 0.2336 -0.8681 0.4381
vn -0.4315 -0.8799 0.1991
vn 0.6050 0.4565 -0.6523
vn -0.6005 -0.4856 0.6353
vn 0.9997 -0.0049 -0.0240
vn -0.4146 -0.1486 -0.8978
vn 0.5043 0.6276 0.5931
vn 0.6155 0.6482 0.4482
vn -0.3990 0.4442 -0.8022
vn 0.4283 0.8793 -0.2085
vn -0.4504 0.8928 0.0004
vn 0.2203 0.9564 0.1919
vn -0.2872 -0.9481 -0.1367
vn -0.1836 0.8460 -0.5006
vn -0.1086 0.3978 0.9110
vn 0.8526 0.0302 -0.5217
vn -0.1164 0.4070 0.9060
vn 0.7759 0.2442 -0.5817
vn -0.0217 -0.0571 0.9981
vn -0.6380 -0.4998 -0.5858
vn 0.8325 0.0833 -0.5477
vn -0.8581 -0.0089 -0.5133
vn -0.5813 -0.6578 -0.4790
vn 0.6285 0.7280 0.2738
vn 0.5829 -0.1812 0.7921
vn 0.3716 0.0450 -0.9273
vn 0.6222 -0.1234 0.7731
vn 0.0821 -0.3586 -0.9299
vn 0.6065 -0.0877 0.7903
vn -0.9039 0.2943 0.3105
vn 0.2865 -0.0697 -0.9555
vn -0.9872 0.0444 0.1529
vn -0.7145 0.5718 0.4032
vn -0.1293 0.8513 0.5086
vn 0.3501 -0.3573 0.8659
vn 0.7689 0.0708 -0.6354
vn 0.3729 -0.5906 0.7156
vn 0.5781 0.6465 -0.4979
vn 0.3005 -0.0926 0.9493
vn -0.9837 0.0353 -0.1763
vn 0.6418 0.3534 -0.6806
vn -0.9383 0.0258 -0.3450
vn -0.9770 -0.0512 -0.2069
vn -0.3022 0.7935 0.5282
vn 0.3023 -0.7935 -0.5283
vn 0.1794 -0.4969 0.8490
vn -0.9532 -0.2517 -0.1673
vn -0.3199 0.5415 0.7775
vn 0.8760 -0.0439 0.4803
vn 0.3179 -0.4791 -0.8182
vn 0.3111 0.8467 0.4316
vn -0.4314 0.4093 -0.8040
vn -0.5621 0.6579 0.5012
vn -0.0639 -0.6433 0.7630
vn 0.5937 -0.6331 -0.4966
vn 0.9280 0.1184 0.3533
vn 0.6415 0.6334 -0.4327
vn -0.4284 0.8718 0.2377
vn -0.9411 -0.3379 -0.0113
vn 0.4534 -0.8726 -0.1814
vn -0.2089 0.9743 0.0842
vn 0.8083 -0.0243 0.5883
vn -0.0569 0.9439 0.3252
vn -0.4606 0.3843 -0.8001
vn -0.0029 -0.9613 -0.2753
vn 0.6946 0.5627 -0.4482
vn -0.1068 -0.5916 0.7991
vn 0.0123 0.7533 0.6576
vn 0.6803 0.5677 -0.4636
vn -0.0645 -0.7374 -0.6724
vn 0.7408 0.5440 -0.3940
vn -0.0627 0.5428 0.8375
vn -0.8593 -0.4668 0.2090
vn 0.8673 -0.0007 0.4978
vn -0.5561 0.4647 0.6891
vn 0.2414 -0.9461 -0.2158
vn -0.2809 -0.6037 0.7461
vn -0.6510 0.7164 0.2509
vn -0.1250 -0.8671 -0.4823
vn -0.9532 -0.2515 -0.1676
vn 0.1383 -0.6332 -0.7615
vn -0.3558 0.4204 -0.8347
vn 0.4940 -0.5697 -0.6568
vn 0.5525 -0.7579 -0.3469
vn -0.6468 0.2365 -0.7251
vn -0.2278 0.9628 0.1456
vn 0.1965 0.8539 0.4819
vn -0.0867 0.4936 0.8654
vn -0.5698 0.4325 0.6988
vn -0.6594 0.6953 0.2859
vn -0.3023 0.7935 0.5282
vn -0.3023 0.7934 0.5284
vn 0.3022 -0.7935 -0.5283
vn 0.3023 -0.7935 -0.5282
vn -0.2019 0.9099 -0.3624
vn 0.2019 -0.9099 0.3624
vn 0.5168 0.4135 0.7496
vn -0.9143 -0.0421 0.4029
vn -0.1025 0.9942 -0.0324
vn 0.9851 0.1718 0.0089
vn 0.0792 -0.9961 -0.0384
vn 0.3307 0.7126 -0.6188
vn -0.7256 -0.3606 -0.5860
vn -0.4365 0.8800 -0.1872
vn 0.2789 0.3251 0.9036
vn 0.4645 -0.8711 0.1593
vn 0.9704 0.1355 -0.2000
vn 0.3728 -0.1908 -0.9081
vn -0.4278 0.7374 -0.5227
vn -0.8394 0.0411 0.5420
vn 0.4703 -0.6969 0.5414
vn -0.2878 0.6100 -0.7383
vn 0.9561 0.2872 0.0584
vn -0.0607 0.7594 -0.6478
vn -0.7484 -0.3633 -0.5548
vn 0.0240 -0.7127 0.7010
vn 0.4257 -0.2518 -0.8691
vn 0.2448 0.3912 0.8872
vn 0.1402 0.9234 -0.3573
vn 0.4067 -0.2587 -0.8762
vn -0.1959 -0.9154 0.3515
vn 0.4895 -0.2270 -0.8420
vn 0.1574 0.9845 -0.0775
vn -0.6724 0.1402 0.7268
vn 0.9776 0.2098 -0.0179
vn -0.3432 0.9374 0.0592
vn 0.2700 -0.7128 0.6473
vn 0.0659 0.3818 0.9219
vn -0.6115 0.7223 -0.3231
vn -0.1718 -0.8086 0.5628
vn -0.9145 -0.0425 0.4024
vn -0.0499 -0.9846 0.1675
vn -0.6669 -0.3987 -0.6295
vn 0.3093 -0.9489 0.0619
vn 0.4922 -0.7999 0.3433
vn -0.8783 -0.3316 -0.3444
vn -0.2832 0.6597 -0.6961
vn 0.2399 0.7849 -0.5713
vn 0.1507 0.9884 -0.0166
vn -0.3487 0.9324 0.0948
vn -0.6048 0.7427 -0.2874
vn -0.2019 0.9099 -0.3623
vn -0.2020 0.9099 -0.3624
vn 0.5220 0.8417 -0.1379
vn -0.5220 -0.8417 0.1379
vn 0.5758 -0.2282 0.7851
vn -0.7262 0.5236 0.4455
vn 0.6163 0.7630 0.1949
vn 0.8228 -0.5679 -0.0211
vn -0.6269 -0.7335 -0.2625
vn 0.7942 0.3882 -0.4676
vn -0.7063 0.3759 -0.5999
vn 0.3149 0.9482 0.0420
vn 0.3283 -0.1555 0.9317
vn -0.2858 -0.9558 -0.0691
vn 0.8096 -0.5394 -0.2314
vn 0.2313 -0.2040 -0.9513
vn 0.2583 0.9128 -0.3165
vn -0.6299 0.5004 0.5940
vn -0.2019 -0.9183 0.3407
vn 0.2934 0.7719 -0.5640
vn 0.8763 -0.4787 0.0546
vn 0.5494 0.6985 -0.4586
vn -0.7278 0.3836 -0.5685
vn -0.5492 -0.6517 0.5232
vn 0.2229 -0.2910 -0.9304
vn 0.3513 -0.0827 0.9326
vn 0.7757 0.6122 -0.1536
vn 0.2052 -0.2811 -0.9375
vn -0.8094 -0.5668 0.1535
vn 0.2830 -0.3233 -0.9030
vn 0.8005 0.5848 0.1310
vn -0.4616 0.4147 0.7842
vn 0.8464 -0.5312 -0.0382
vn 0.3951 0.8723 0.2880
vn -0.3674 -0.8117 0.4540
vn 0.2132 0.0279 0.9766
vn 0.0952 0.9890 -0.1130
vn -0.7408 -0.5533 0.3810
vn -0.7266 0.5234 0.4450
vn -0.7331 -0.6782 -0.0508
vn -0.6858 0.3178 -0.6547
vn -0.4402 -0.8816 -0.1704
vn -0.2363 -0.9638 0.1237
vn -0.8211 0.4525 -0.3478
vn 0.3264 0.7944 -0.5123
vn 0.7741 0.4914 -0.3991
vn 0.7920 0.5797 0.1915
vn 0.3840 0.8654 0.3219
vn 0.1103 0.9911 -0.0742
vn 0.5221 0.8417 -0.1380
vn -0.5220 -0.8417 0.1380
usemtl AllColors_Material
f 1/1/1 2/2/1 3/3/1
f 4/4/2 5/5/2 3/3/2
f 5/5/3 1/1/3 3/3/3
f 6/6/4 7/7/4 5/5/4 4/4/4
f 7/7/5 8/8/5 1/1/5 5/5/5
f 9/9/6 6/6/6 4/4/6 2/2/6
f 2/2/7 4/4/7 3/3/7
f 10/10/8 11/11/8 8/8/8 7/7/8
f 12/12/9 13/13/9 6/6/9 9/9/9
f 11/11/10 12/12/10 9/9/10 8/8/10
f 13/13/11 10/10/11 7/7/11 6/6/11
f 8/8/12 9/9/12 2/2/12 1/1/12
f 11/11/13 10/10/13 13/13/13 12/12/13
f 14/14/13 15/15/13 16/16/13 17/17/13
f 18/18/14 19/19/14 20/20/14 21/21/14
f 16/16/15 15/15/15 22/22/15 23/23/15
f 14/14/16 17/17/16 19/19/16 18/18/16
f 17/17/17 16/16/17 23/23/17 19/19/17
f 15/15/18 14/14/18 18/18/18 22/22/18
f 20/20/19 24/24/19 25/25/19
f 19/19/20 23/23/20 24/24/20 20/20/20
f 22/22/21 18/18/21 21/21/21 26/26/21
f 23/23/22 22/22/22 26/26/22 24/24/22
f 26/26/23 21/21/23 25/25/23
f 24/24/24 26/26/24 25/25/24
f 21/21/25 20/20/25 25/25/25
f 27/27/26 28/28/26 29/29/26
f 30/30/27 31/31/27 29/29/27
f 31/31/28 27/27/28 29/29/28
f 32/32/29 33/33/29 31/31/29 30/30/29
f 33/33/30 34/34/30 27/27/30 31/31/30
f 35/35/31 32/32/31 30/30/31 28/28/31
f 28/28/32 30/30/32 29/29/32
f 36/36/33 37/37/33 34/34/33 33/33/33
f 38/38/34 39/39/34 32/32/34 35/35/34
f 37/37/35 38/38/35 35/35/35 34/34/35
f 39/39/36 36/36/36 33/33/36 32/32/36
f 34/34/37 35/35/37 28/28/37 27/27/37
f 37/37/13 36/36/13 39/39/13 38/38/13
f 40/40/13 41/41/13 42/42/13 43/43/13
f 44/44/38 45/45/38 46/46/38 47/47/38
f 42/42/39 41/41/39 48/48/39 49/49/39
f 40/40/40 43/43/40 45/45/40 44/44/40
f 43/43/41 42/42/41 49/49/41 45/45/41
f 41/41/42 40/40/42 44/44/42 48/48/42
f 46/46/43 50/50/43 51/51/43
f 45/45/44 49/49/44 50/50/44 46/46/44
f 48/48/45 44/44/45 47/47/45 52/52/45
f 49/49/46 48/48/46 52/52/46 50/50/46
f 52/52/47 47/47/47 51/51/47
f 50/50/48 52/52/48 51/51/48
f 47/47/49 46/46/49 51/51/49
f 53/53/50 54/54/50 55/55/50
f 56/56/51 57/57/51 58/58/51 59/59/51
f 60/60/52 61/61/52 57/57/52 62/62/52
f 59/59/53 58/58/53 53/53/53 55/55/53
f 58/58/54 63/63/54 54/54/54 53/53/54
f 62/62/55 57/57/55 56/56/55 64/64/55
f 61/61/56 56/56/56 59/59/56 63/63/56
f 57/57/57 61/61/57 63/63/57 58/58/57
f 64/64/58 56/56/58 61/61/58 60/60/58
f 60/60/13 62/62/13 64/64/13
f 63/63/59 59/59/59 55/55/59 54/54/59
f 65/65/60 66/66/60 67/67/60
f 68/68/61 69/69/61 70/70/61 71/71/61
f 72/72/62 73/73/62 69/69/62 74/74/62
f 71/71/63 70/70/63 65/65/63 67/67/63
f 70/70/64 75/75/64 66/66/64 65/65/64
f 74/74/65 69/69/65 68/68/65 76/76/65
f 73/73/66 68/68/66 71/71/66 75/75/66
f 69/69/67 73/73/67 75/75/67 70/70/67
f 76/76/68 68/68/68 73/73/68 72/72/68
f 72/72/13 74/74/13 76/76/13
f 75/75/69 71/71/69 67/67/69 66/66/69
f 77/77/70 78/78/70 79/79/70
f 80/80/71 81/81/71 82/82/71 83/83/71
f 42/84/72 84/85/72 81/81/72 85/86/72
f 83/83/73 82/82/73 77/77/73 79/79/73
f 82/82/74 86/87/74 78/78/74 77/77/74
f 85/86/75 81/81/75 80/80/75 64/64/75
f 84/85/76 80/80/76 83/83/76 86/87/76
f 81/81/77 84/85/77 86/87/77 82/82/77
f 64/64/78 80/80/78 84/85/78 42/84/78
f 42/84/13 85/86/13 64/64/13
f 86/87/79 83/83/79 79/79/79 78/78/79
f 87/88/80 88/89/80 89/90/80
f 90/91/81 91/92/81 92/93/81
f 93/94/82 94/95/82 95/96/82
f 96/97/83 97/98/83 98/99/83 99/100/83
f 100/101/84 101/102/84 97/98/84 96/97/84
f 90/103/85 102/104/85 101/102/85 100/101/85
f 99/100/86 98/99/86 102/104/86 90/103/86
f 103/105/87 104/106/87 105/107/87
f 100/101/88 103/105/88 106/108/88 90/103/88
f 107/109/89 104/106/89 103/105/89 100/101/89
f 108/110/90 109/111/90 104/106/90 107/109/90
f 90/103/91 106/108/91 109/111/91 108/110/91
f 110/112/92 111/113/92 112/114/92
f 107/109/93 111/113/93 110/112/93 108/110/93
f 113/115/94 114/116/94 111/113/94 107/109/94
f 91/117/95 115/118/95 114/116/95 113/115/95
f 108/110/96 110/112/96 115/118/96 91/117/96
f 97/98/97 101/102/97 116/119/97
f 113/115/98 94/95/98 93/94/98 91/117/98
f 117/120/99 118/121/99 94/95/99 113/115/99
f 92/122/100 119/123/100 118/121/100 117/120/100
f 91/117/101 93/94/101 119/123/101 92/122/101
f 106/108/102 103/105/102 105/107/102
f 117/120/103 120/124/103 121/125/103 92/122/103
f 96/97/104 122/126/104 120/124/104 117/120/104
f 99/100/105 123/127/105 122/126/105 96/97/105
f 92/122/106 121/125/106 123/127/106 99/100/106
f 101/102/107 102/104/107 116/119/107
f 111/113/108 114/116/108 112/114/108
f 121/125/109 120/124/109 124/128/109
f 104/106/110 109/111/110 105/107/110
f 94/95/111 118/121/111 95/96/111
f 102/104/112 98/99/112 116/119/112
f 114/116/113 115/118/113 112/114/113
f 120/124/114 122/126/114 124/128/114
f 109/111/115 106/108/115 105/107/115
f 118/121/116 119/123/116 95/96/116
f 115/118/117 110/112/117 112/114/117
f 122/126/118 123/127/118 124/128/118
f 119/123/119 93/94/119 95/96/119
f 123/127/120 121/125/120 124/128/120
f 98/99/121 97/98/121 116/119/121
f 87/88/122 125/129/122 100/130/122 96/131/122
f 125/129/123 89/90/123 107/132/123 100/130/123
f 89/90/124 88/89/124 113/133/124 107/132/124
f 88/89/125 126/134/125 117/135/125 113/133/125
f 126/134/126 87/88/126 96/131/126 117/135/126
f 89/90/127 125/129/127 87/88/127
f 87/88/128 126/134/128 88/89/128
f 92/93/129 99/136/129 90/91/129
f 90/91/130 108/137/130 91/92/130
f 127/138/131 128/139/131 129/140/131
f 130/141/132 131/142/132 132/143/132
f 133/144/133 134/145/133 135/146/133
f 136/147/134 137/148/134 138/149/134 139/150/134
f 140/151/135 141/152/135 137/148/135 136/147/135
f 130/153/136 142/154/136 141/152/136 140/151/136
f 139/150/137 138/149/137 142/154/137 130/153/137
f 143/155/138 144/156/138 145/157/138
f 140/151/139 143/155/139 146/158/139 130/153/139
f 147/159/140 144/156/140 143/155/140 140/151/140
f 148/160/141 149/161/141 144/156/141 147/159/141
f 130/153/142 146/158/142 149/161/142 148/160/142
f 150/162/143 151/163/143 152/164/143
f 147/159/144 151/163/144 150/162/144 148/160/144
f 153/165/145 154/166/145 151/163/145 147/159/145
f 131/167/146 155/168/146 154/166/146 153/165/146
f 148/160/147 150/162/147 155/168/147 131/167/147
f 137/148/148 141/152/148 156/169/148
f 153/165/149 134/145/149 133/144/149 131/167/149
f 157/170/150 158/171/150 134/145/150 153/165/150
f 132/172/151 159/173/151 158/171/151 157/170/151
f 131/167/152 133/144/152 159/173/152 132/172/152
f 146/158/153 143/155/153 145/157/153
f 157/170/154 160/174/154 161/175/154 132/172/154
f 136/147/155 162/176/155 160/174/155 157/170/155
f 139/150/156 163/177/156 162/176/156 136/147/156
f 132/172/157 161/175/157 163/177/157 139/150/157
f 141/152/158 142/154/158 156/169/158
f 151/163/159 154/166/159 152/164/159
f 161/175/160 160/174/160 164/178/160
f 144/156/161 149/161/161 145/157/161
f 134/145/162 158/171/162 135/146/162
f 142/154/163 138/149/163 156/169/163
f 154/166/164 155/168/164 152/164/164
f 160/174/165 162/176/165 164/178/165
f 149/161/166 146/158/166 145/157/166
f 158/171/167 159/173/167 135/146/167
f 155/168/168 150/162/168 152/164/168
f 162/176/169 163/177/169 164/178/169
f 159/173/170 133/144/170 135/146/170
f 163/177/171 161/175/171 164/178/171
f 138/149/172 137/148/172 156/169/172
f 127/138/173 165/179/173 140/180/173 136/181/173
f 165/179/174 129/140/174 147/182/174 140/180/174
f 129/140/175 128/139/175 153/183/175 147/182/175
f 128/139/176 166/184/176 157/185/176 153/183/176
f 166/184/177 127/138/177 136/181/177 157/185/177
f 129/140/178 165/179/178 127/138/178
f 127/138/179 166/184/179 128/139/179
f 132/143/132 139/186/132 130/141/132
f 130/141/132 148/187/132 131/142/132
f 167/188/180 168/189/180 169/190/180
f 170/191/181 171/192/181 172/193/181
f 173/194/182 174/195/182 175/196/182
f 176/197/183 177/198/183 178/199/183 179/200/183
f 180/201/184 181/202/184 177/198/184 176/197/184
f 170/203/185 182/204/185 181/202/185 180/201/185
f 179/200/186 178/199/186 182/204/186 170/203/186
f 183/205/187 184/206/187 185/207/187
f 180/201/188 183/205/188 186/208/188 170/203/188
f 187/209/189 184/206/189 183/205/189 180/201/189
f 188/210/190 189/211/190 184/206/190 187/209/190
f 170/203/191 186/208/191 189/211/191 188/210/191
f 190/212/192 191/213/192 192/214/192
f 187/209/193 191/213/193 190/212/193 188/210/193
f 193/215/194 194/216/194 191/213/194 187/209/194
f 171/217/195 195/218/195 194/216/195 193/215/195
f 188/210/196 190/212/196 195/218/196 171/217/196
f 177/198/197 181/202/197 196/219/197
f 193/215/198 174/195/198 173/194/198 171/217/198
f 197/220/199 198/221/199 174/195/199 193/215/199
f 172/222/200 199/223/200 198/221/200 197/220/200
f 171/217/201 173/194/201 199/223/201 172/222/201
f 186/208/202 183/205/202 185/207/202
f 197/220/203 200/224/203 201/225/203 172/222/203
f 176/197/204 202/226/204 200/224/204 197/220/204
f 179/200/205 203/227/205 202/226/205 176/197/205
f 172/222/206 201/225/206 203/227/206 179/200/206
f 181/202/207 182/204/207 196/219/207
f 191/213/208 194/216/208 192/214/208
f 201/225/209 200/224/209 204/228/209
f 184/206/210 189/211/210 185/207/210
f 174/195/211 198/221/211 175/196/211
f 182/204/212 178/199/212 196/219/212
f 194/216/213 195/218/213 192/214/213
f 200/224/214 202/226/214 204/228/214
f 189/211/215 186/208/215 185/207/215
f 198/221/216 199/223/216 175/196/216
f 195/218/217 190/212/217 192/214/217
f 202/226/218 203/227/218 204/228/218
f 199/223/219 173/194/219 175/196/219
f 203/227/220 201/225/220 204/228/220
f 178/199/221 177/198/221 196/219/221
f 167/188/222 205/229/222 180/230/222 176/231/222
f 205/229/223 169/190/223 187/232/223 180/230/223
f 169/190/224 168/189/224 193/233/224 187/232/224
f 168/189/225 206/234/225 197/235/225 193/233/225
f 206/234/226 167/188/226 176/231/226 197/235/226
f 169/190/180 205/229/180 167/188/180
f 167/188/227 206/234/227 168/189/227
f 172/193/181 179/236/181 170/191/181
f 170/191/228 188/237/228 171/192/228
