mtllib forest_nature_set_all_in.mtl
o forest_Branch_average_leaves_Cylinder_025
v -14.794533 0.330545 5.600100
v -14.807582 0.590094 5.347786
v -15.976795 0.487096 5.395163
v -15.947942 0.260589 5.613459
v -14.907623 0.459228 5.062384
v -16.022970 0.372890 5.120862
v -14.868147 0.077083 5.091814
v -16.014839 0.039392 5.145224
v -17.021568 0.151975 5.468419
v -17.345425 0.187879 5.562408
v -17.348602 0.440382 5.543224
v -17.024792 0.424062 5.447717
v -14.743505 0.036859 5.407822
v -15.969930 0.004289 5.447105
v -17.296227 0.360382 5.889625
v -18.687279 0.126592 5.921393
v -18.682013 0.004585 5.841688
v -17.311304 0.161301 5.768404
v -16.986959 0.123335 5.690714
v -17.318439 0.503702 5.699435
v -16.987648 0.511177 5.651688
v -16.965450 0.356626 5.856720
v -17.198780 0.777024 6.069031
v -17.228844 0.719532 6.217727
v -20.072247 0.270288 5.539503
v -18.673361 0.021295 5.710693
v -18.672554 0.180050 5.698494
v -18.680370 0.234417 5.816802
v -16.251631 0.289252 5.686063
v -16.273476 0.039820 5.519813
v -16.278498 0.494284 5.471726
v -16.303572 0.388163 5.266084
v -16.295752 0.072994 5.289059
v -17.410145 0.741922 6.027549
v -17.898500 1.005175 6.221930
v -17.773617 1.086624 6.276092
v -17.435551 0.689088 6.166056
v -18.537121 0.989015 6.361527
v -17.838678 1.051926 6.359378
v -17.961349 0.969445 6.300726
v -16.574612 0.007230 4.652488
v -16.586773 0.235405 4.639804
v -16.717772 0.245854 4.811761
v -17.509598 0.428891 4.599351
v -17.497738 0.271755 4.601751
v -16.706209 0.030220 4.823678
v -17.501686 0.421276 4.442023
v -18.384514 0.192613 4.773931
v -17.489151 0.255002 4.444637
v -17.936647 -0.039075 4.546163
v -17.666256 0.078696 4.722279
v -17.797457 -0.034629 4.883552
v -18.019464 0.019159 4.824541
v -17.455832 0.114723 4.841780
v -17.725010 0.038548 5.024111
v -18.062481 0.093985 5.035414
v -17.562201 0.056160 4.556101
v -17.427116 0.137834 4.562707
v -17.688972 0.060233 4.381280
v -17.473598 0.080541 4.252721
v -18.205242 0.084551 4.733698
v -18.237648 -0.000897 4.537483
v -18.293926 0.107801 4.807388
v -18.470184 0.089902 4.531465
v -18.203682 0.086693 4.339158
v -18.026657 0.042376 4.263099
v -18.269653 0.122176 4.275835
v -18.064240 0.101388 4.057372
v -17.825731 0.035800 4.222980
v -17.764515 0.075586 4.095675
v -17.254410 0.149822 4.557717
v -17.273006 0.229226 4.732452
v -17.355413 0.254742 4.408346
v -17.281046 0.408819 4.554980
v -17.691057 0.191124 5.018196
v -17.850569 0.244646 5.089859
v -17.462654 0.223975 5.043993
v -17.641296 0.413221 5.031703
v -18.378094 0.209818 4.883936
v -18.422199 0.302385 4.708401
v -18.170889 0.276400 4.938818
v -18.270073 0.513020 4.851346
v -18.346369 0.216096 4.198126
v -18.252987 0.308601 4.001088
v -18.414194 0.310484 4.354724
v -18.248617 0.527496 4.226460
v -17.718771 0.199280 4.041390
v -17.543386 0.269272 4.118835
v -17.868473 0.277095 4.034589
v -17.695446 0.421758 4.146855
v -17.352966 0.292270 4.875364
v -17.372000 0.445516 4.846389
v -18.015514 0.329544 5.044086
v -17.965494 0.477550 4.993371
v -18.439312 0.402739 4.531403
v -18.322922 0.560905 4.533632
v -18.010788 0.362077 4.047493
v -17.964056 0.528674 4.085124
v -17.300766 0.332265 4.166656
v -17.410065 0.468165 4.270961
v -17.477877 0.577035 4.755166
v -17.670801 0.639307 4.843824
v -17.431063 0.659113 4.551570
v -17.765289 0.712962 4.540747
v -17.897795 0.629666 4.883129
v -18.015947 0.592835 4.687078
v -18.141968 0.657556 4.535003
v -18.017181 0.646455 4.370636
v -17.902534 0.753013 4.154971
v -17.679907 0.675167 4.249419
v -17.448755 0.666597 4.319807
v -18.791615 -0.034084 5.647081
v -18.064791 0.017236 5.865448
v -18.456211 0.061979 6.065376
v -19.031126 0.161592 5.917974
v -17.722330 0.304971 6.117543
v -18.251205 0.252498 6.226007
v -19.129126 0.352283 6.218854
v -17.802898 0.056109 5.645243
v -17.522526 0.169996 5.722878
v -18.017633 -0.053316 5.446706
v -17.635065 0.268836 5.378905
v -19.613121 0.075348 5.889654
v -19.667944 0.050866 5.646796
v -19.894630 0.273008 5.927233
v -20.173502 0.231084 5.567385
v -19.523167 0.098979 5.410028
v -18.955910 0.026344 5.327814
v -19.753778 0.156093 5.299157
v -18.946238 0.167878 5.101679
v -18.366909 0.058659 5.304701
v -18.108910 0.058101 5.124708
v -17.432251 0.467412 5.859803
v -17.529121 0.653505 6.171643
v -17.594521 0.693414 5.724487
v -17.527618 0.995857 6.092176
v -18.136595 0.489546 6.464656
v -18.526339 0.645469 6.570366
v -17.837833 0.676364 6.535861
v -18.023750 1.018074 6.601282
v -19.988001 0.501392 5.924243
v -20.078537 0.572626 5.617456
v -19.555166 0.698701 6.205154
v -19.488850 0.954778 5.837932
v -19.805876 0.298448 5.089082
v -19.280888 0.433952 4.968864
v -20.037151 0.470740 5.247461
v -19.328299 0.749947 5.191392
v -17.896271 0.248949 5.057938
v -17.609646 0.471264 5.257965
v -18.269732 0.412936 5.100290
v -17.807989 0.723476 5.270535
v -17.663595 0.856678 6.372603
v -17.651127 1.114621 6.402604
v -18.964567 0.823694 6.445007
v -18.703745 1.004860 6.466610
v -20.035179 0.669763 5.390663
v -19.602385 0.973858 5.389062
v -18.677643 0.560908 4.945702
v -18.434889 0.750600 5.148955
v -17.408787 0.654005 5.427357
v -17.563736 0.953264 5.621285
v -17.710283 1.275413 6.279346
v -17.941130 1.282559 6.338102
v -17.630354 1.308310 6.069309
v -17.963634 1.363337 5.914391
v -18.373684 1.189566 6.357053
v -18.688957 1.224140 6.048316
v -19.004747 1.211902 5.549287
v -18.566643 1.094026 5.486489
v -18.211790 0.987355 5.386494
v -17.849701 1.113806 5.591543
v -17.657904 1.185402 5.781723
vt 0.538966 0.524827
vt 0.547669 0.524043
vt 0.549555 0.625912
vt 0.541972 0.625065
vt 0.557771 0.530561
vt 0.559114 0.627837
vt 0.556642 0.527356
vt 0.558252 0.627316
vt 0.550179 0.717174
vt 0.547924 0.746005
vt 0.548592 0.746134
vt 0.550899 0.717296
vt 0.545415 0.518936
vt 0.547751 0.625710
vt 0.122174 0.243231
vt 0.142166 0.022290
vt 0.178083 0.340038
vt 0.148409 0.438488
vt 0.536539 0.744218
vt 0.539628 0.865229
vt 0.542349 0.864166
vt 0.540748 0.744607
vt 0.542441 0.715857
vt 0.543137 0.744702
vt 0.543783 0.715622
vt 0.536676 0.715251
vt 0.530086 0.737121
vt 0.525070 0.740860
vt 0.556903 0.982568
vt 0.546821 0.862420
vt 0.547238 0.862257
vt 0.543199 0.863834
vt 0.540392 0.651983
vt 0.546166 0.652616
vt 0.175023 0.052551
vt 0.547832 0.652687
vt 0.554970 0.653302
vt 0.554157 0.652798
vt 0.532146 0.755157
vt 0.526938 0.799031
vt 0.524702 0.788601
vt 0.527466 0.758414
vt 0.524062 0.855535
vt 0.522038 0.794881
vt 0.524421 0.805086
vt 0.576855 0.672172
vt 0.577327 0.673132
vt 0.571815 0.685811
vt 0.581488 0.752943
vt 0.581370 0.751931
vt 0.571371 0.684898
vt 0.586867 0.751061
vt 0.578122 0.830227
vt 0.586740 0.749992
vt 0.151850 0.514711
vt 0.164312 0.593118
vt 0.157382 0.604668
vt 0.147069 0.593118
vt 0.172931 0.666686
vt 0.159537 0.653108
vt 0.143798 0.666686
vt 0.170120 0.602141
vt 0.177386 0.650734
vt 0.166055 0.577579
vt 0.180260 0.640445
vt 0.136912 0.602140
vt 0.134292 0.577579
vt 0.130978 0.650734
vt 0.116734 0.640445
vt 0.136912 0.602140
vt 0.147094 0.592828
vt 0.130921 0.650734
vt 0.143798 0.666686
vt 0.157751 0.602140
vt 0.160143 0.650734
vt 0.181639 0.710120
vt 0.180434 0.744250
vt 0.183613 0.742167
vt 0.186966 0.843889
vt 0.160800 0.710120
vt 0.151850 0.742167
vt 0.169037 0.742167
vt 0.159902 0.817648
vt 0.128149 0.709339
vt 0.123266 0.740085
vt 0.134663 0.742167
vt 0.130769 0.817648
vt 0.127593 0.710120
vt 0.134026 0.744250
vt 0.120088 0.742167
vt 0.123441 0.843889
vt 0.161019 0.709339
vt 0.169675 0.740085
vt 0.151850 0.742167
vt 0.159902 0.817648
vt 0.180434 0.744250
vt 0.175552 0.774996
vt 0.172723 0.833600
vt 0.142900 0.774214
vt 0.144164 0.831227
vt 0.122062 0.774214
vt 0.126314 0.833600
vt 0.134026 0.744250
vt 0.142682 0.774996
vt 0.143557 0.833600
vt 0.176107 0.774214
vt 0.172779 0.833600
vt 0.166788 0.882193
vt 0.156631 0.891217
vt 0.169408 0.906756
vt 0.151850 0.969622
vt 0.146319 0.879666
vt 0.139389 0.891217
vt 0.133581 0.882193
vt 0.137646 0.906756
vt 0.145950 0.882193
vt 0.156607 0.891507
vt 0.166788 0.882193
vt 0.151850 0.514711
vt 0.164312 0.593118
vt 0.157382 0.604668
vt 0.147069 0.593118
vt 0.172931 0.666686
vt 0.159537 0.653108
vt 0.143798 0.666686
vt 0.170120 0.602141
vt 0.177386 0.650734
vt 0.166055 0.577579
vt 0.180260 0.640445
vt 0.136912 0.602140
vt 0.134292 0.577579
vt 0.130978 0.650734
vt 0.116734 0.640445
vt 0.136912 0.602140
vt 0.147094 0.592828
vt 0.130921 0.650734
vt 0.143798 0.666686
vt 0.157751 0.602140
vt 0.160143 0.650734
vt 0.181639 0.710120
vt 0.180434 0.744250
vt 0.183613 0.742167
vt 0.186966 0.843889
vt 0.160800 0.710120
vt 0.151850 0.742167
vt 0.169037 0.742167
vt 0.159902 0.817648
vt 0.128149 0.709339
vt 0.123266 0.740085
vt 0.134663 0.742167
vt 0.130769 0.817648
vt 0.127593 0.710120
vt 0.134026 0.744250
vt 0.120088 0.742167
vt 0.123441 0.843889
vt 0.161019 0.709339
vt 0.169675 0.740085
vt 0.151850 0.742167
vt 0.159902 0.817648
vt 0.180434 0.744250
vt 0.175552 0.774996
vt 0.172723 0.833600
vt 0.142900 0.774214
vt 0.144164 0.831227
vt 0.122062 0.774214
vt 0.126314 0.833600
vt 0.134026 0.744250
vt 0.142682 0.774996
vt 0.143557 0.833600
vt 0.176107 0.774214
vt 0.172779 0.833600
vt 0.166788 0.882193
vt 0.156631 0.891217
vt 0.169408 0.906756
vt 0.151850 0.969622
vt 0.146319 0.879666
vt 0.139389 0.891217
vt 0.133581 0.882193
vt 0.137646 0.906756
vt 0.145950 0.882193
vt 0.156607 0.891507
vt 0.166788 0.882193
vn -0.0328 0.6938 0.7195
vn -0.0939 0.9208 -0.3787
vn -0.0450 -0.0779 -0.9959
vn -0.2856 -0.0761 -0.9553
vn 0.0244 -0.9915 -0.1276
vn 0.0420 -0.5442 0.8379
vn 0.9786 0.0934 -0.1835
vn 0.1069 -0.5298 0.8414
vn -0.1399 -0.9846 -0.1045
vn -0.0692 0.9251 -0.3734
vn 0.1037 -0.5564 0.8244
vn 0.8950 0.3736 0.2438
vn -0.1576 -0.9782 -0.1352
vn -0.1013 -0.0763 -0.9919
vn -0.1028 0.7545 0.6482
vn 0.1070 -0.9851 -0.1346
vn -0.2157 0.9037 -0.3699
vn 0.1337 -0.5700 0.8107
vn 0.1049 0.9062 -0.4095
vn -0.2758 -0.5340 0.7992
vn 0.1076 -0.0767 -0.9912
vn -0.1232 0.6950 0.7084
vn 0.9310 0.0686 -0.3585
vn 0.1986 0.7554 0.6245
vn -0.0719 0.9062 -0.4166
vn -0.1394 -0.9833 -0.1167
vn -0.2471 -0.0765 -0.9660
vn 0.0202 0.5987 -0.8007
vn -0.9610 -0.2332 -0.1485
vn 0.0078 -0.6752 0.7375
vn -0.0705 0.8128 -0.5783
vn -0.0838 0.9414 0.3267
vn 0.5223 0.6971 0.4912
vn -0.5297 -0.6883 -0.4957
vn -0.0918 -0.5458 0.8329
vn -0.1555 -0.9821 -0.1063
vn -0.0789 -0.8827 -0.4632
vn 0.0596 -0.6359 0.7695
vn -0.1673 0.7108 -0.6832
vn 0.6570 -0.0260 -0.7535
vn -0.1173 0.9090 -0.3999
vn 0.2086 0.7057 0.6771
vn 0.1383 -0.5525 0.8219
vn -0.2593 0.0208 0.9656
vn -0.0908 0.9762 -0.1970
vn -0.7461 0.0165 0.6657
vn -0.0433 -0.9917 0.1214
vn -0.2714 0.9606 -0.0601
vn 0.2108 -0.0247 -0.9772
vn 0.2037 0.9785 0.0323
vn -0.2754 -0.9613 -0.0012
vn 0.1098 -0.9877 0.1113
vn 0.1880 0.0292 0.9817
vn -0.3424 -0.0406 -0.9387
vn 0.1520 -0.9871 -0.0497
vn 0.3955 -0.9173 -0.0450
vn -0.2084 -0.8950 0.3944
vn 0.2930 -0.9522 0.0861
vn 0.2454 -0.9687 0.0361
vn 0.2810 -0.9597 0.0049
vn -0.2510 -0.9335 0.2560
vn -0.3125 -0.9333 0.1770
vn -0.2582 -0.9136 0.3141
vn -0.2034 -0.9310 -0.3032
vn -0.2844 -0.8805 -0.3794
vn -0.3151 -0.9268 -0.2042
vn 0.1167 -0.9756 -0.1860
vn -0.0628 -0.9556 -0.2879
vn 0.1329 -0.9872 -0.0882
vn 0.3744 -0.9146 0.1525
vn 0.6151 -0.7392 -0.2741
vn 0.9664 0.0969 -0.2381
vn 0.1080 -0.2419 0.9643
vn 0.3573 -0.5837 0.7292
vn 0.1125 -0.0854 0.9900
vn -0.8535 -0.3829 0.3533
vn -0.4967 -0.2783 0.8221
vn -0.6274 0.3007 0.7182
vn -0.5282 -0.6874 -0.4985
vn -0.7892 -0.4169 -0.4510
vn -0.8652 0.3076 -0.3960
vn 0.4596 -0.4320 -0.7760
vn 0.0332 -0.2742 -0.9611
vn 0.2393 0.3953 -0.8868
vn 0.7381 -0.5110 0.4407
vn 0.9172 0.2613 0.3009
vn 0.5617 0.4107 0.7182
vn -0.4218 0.0508 0.9053
vn -0.0499 0.3611 0.9312
vn -0.4663 0.2457 0.8498
vn -0.9950 0.0982 -0.0203
vn -0.8261 0.4969 0.2657
vn -0.8085 0.5075 -0.2979
vn 0.0822 -0.0546 -0.9951
vn -0.2026 0.5701 -0.7962
vn 0.2404 0.2781 -0.9300
vn 0.6539 -0.6045 -0.4549
vn 0.1617 0.5289 -0.8332
vn 0.9771 0.1937 -0.0878
vn 0.4174 0.6520 0.6329
vn 0.7686 0.5813 0.2672
vn 0.2445 0.9331 0.2638
vn -0.3060 0.8733 0.3791
vn 0.0623 0.6140 0.7869
vn -0.2016 0.9668 0.1572
vn -0.3800 0.8920 -0.2447
vn -0.2528 0.9146 0.3155
vn -0.1460 0.9753 0.1658
vn 0.3798 0.2592 -0.8880
vn -0.5566 0.7264 -0.4032
vn -0.0421 0.9921 0.1180
vn 0.8951 0.3970 -0.2032
vn 0.3140 0.3161 -0.8953
vn 0.1157 0.9924 -0.0425
vn -0.1234 -0.9410 0.3151
vn 0.2102 -0.7655 0.6082
vn -0.1708 -0.7399 0.6507
vn 0.3434 -0.8538 0.3913
vn 0.0898 -0.9804 0.1753
vn 0.5269 -0.7943 -0.3024
vn -0.0069 -0.9200 0.3918
vn -0.0826 -0.6994 0.7099
vn -0.4231 -0.8449 0.3273
vn -0.1171 -0.9755 -0.1863
vn -0.2459 -0.9429 -0.2247
vn -0.1288 -0.8889 -0.4396
vn -0.0415 -0.9502 -0.3089
vn -0.0507 -0.9327 -0.3572
vn 0.2906 -0.8758 -0.3854
vn 0.7189 -0.4676 0.5144
vn 0.8948 0.1244 -0.4287
vn 0.9662 0.2276 -0.1210
vn -0.0830 -0.6890 0.7200
vn 0.2358 -0.7128 0.6605
vn 0.0600 -0.2618 0.9632
vn -0.8748 -0.0375 0.4831
vn -0.3555 -0.2955 0.8868
vn -0.5887 0.7186 0.3701
vn -0.0945 -0.6911 -0.7166
vn -0.5827 -0.6125 -0.5341
vn -0.2814 0.4852 -0.8279
vn 0.6324 -0.6104 -0.4769
vn -0.0350 -0.0844 -0.9958
vn 0.1842 0.3731 -0.9093
vn 0.7006 -0.3595 0.6164
vn 0.8966 0.0156 0.4425
vn 0.5434 0.0236 0.8391
vn -0.3322 -0.3112 0.8904
vn -0.1974 0.1807 0.9635
vn -0.4262 0.7354 0.5269
vn -0.9573 0.2329 -0.1712
vn -0.5751 0.7942 0.1963
vn -0.2880 0.4818 -0.8276
vn 0.1076 -0.4294 -0.8967
vn -0.0890 0.6614 -0.7447
vn 0.2910 0.2744 -0.9165
vn 0.8292 -0.5146 0.2182
vn 0.3883 0.5308 -0.7533
vn 0.9800 -0.0386 0.1950
vn 0.2145 0.6503 0.7287
vn 0.8787 0.3869 0.2796
vn 0.0769 0.9801 0.1828
vn -0.3703 0.8280 0.4210
vn -0.1396 0.7051 0.6952
vn -0.1627 0.9604 0.2263
vn 0.0036 0.6109 -0.7917
vn -0.3771 0.9090 0.1774
vn -0.0579 0.9697 -0.2372
vn 0.1884 0.6222 -0.7598
vn -0.0227 0.6963 -0.7174
vn 0.0658 0.7979 -0.5992
vn 0.9152 0.3708 -0.1577
vn 0.4136 0.6118 -0.6743
vn 0.2826 0.8361 -0.4701
usemtl AllColors_Material
f 1/1/1 2/2/1 3/3/1 4/4/1
f 2/2/2 5/5/2 6/6/2 3/3/2
f 5/5/3 7/7/3 8/8/3 6/6/3
f 9/9/4 10/10/4 11/11/4 12/12/4
f 7/7/5 13/13/5 14/14/5 8/8/5
f 13/13/6 1/1/6 4/4/6 14/14/6
f 1/15/7 13/16/7 5/17/7 2/18/7
f 15/19/8 16/20/8 17/21/8 18/22/8
f 19/23/9 18/22/9 10/10/9 9/9/9
f 12/12/10 11/11/10 20/24/10 21/25/10
f 22/26/11 15/19/11 18/22/11 19/23/11
f 21/25/12 23/27/12 24/28/12 22/26/12
f 17/21/13 25/29/13 26/30/13
f 10/10/14 26/30/14 27/31/14 11/11/14
f 20/24/15 28/32/15 16/20/15 15/19/15
f 18/22/16 17/21/16 26/30/16 10/10/16
f 11/11/17 27/31/17 28/32/17 20/24/17
f 29/33/18 22/26/18 19/23/18 30/34/18
f 27/31/19 25/29/19 28/32/19
f 16/20/20 25/29/20 17/21/20
f 26/30/21 25/29/21 27/31/21
f 28/32/22 25/29/22 16/20/22
f 13/16/23 7/35/23 5/17/23
f 31/36/24 21/25/24 22/26/24 29/33/24
f 32/37/25 12/12/25 21/25/25 31/36/25
f 30/34/26 19/23/26 9/9/26 33/38/26
f 33/38/27 9/9/27 12/12/27 32/37/27
f 34/39/28 35/40/28 36/41/28 23/27/28
f 15/19/29 37/42/29 34/39/29 20/24/29
f 22/26/30 24/28/30 37/42/30 15/19/30
f 20/24/31 34/39/31 23/27/31 21/25/31
f 36/41/32 38/43/32 39/44/32
f 23/27/33 36/41/33 39/44/33 24/28/33
f 37/42/34 40/45/34 35/40/34 34/39/34
f 24/28/35 39/44/35 40/45/35 37/42/35
f 14/14/36 30/34/36 33/38/36 8/8/36
f 40/45/37 38/43/37 35/40/37
f 39/44/38 38/43/38 40/45/38
f 35/40/39 38/43/39 36/41/39
f 8/8/40 41/46/40 42/47/40 6/6/40
f 6/6/41 32/37/41 31/36/41 3/3/41
f 3/3/42 31/36/42 29/33/42 4/4/42
f 4/4/43 29/33/43 30/34/43 14/14/43
f 43/48/44 44/49/44 45/50/44 46/51/44
f 6/6/45 42/47/45 43/48/45 32/37/45
f 32/37/46 43/48/46 46/51/46 33/38/46
f 33/38/47 46/51/47 41/46/47 8/8/47
f 47/52/48 48/53/48 44/49/48
f 41/46/49 49/54/49 47/52/49 42/47/49
f 42/47/50 47/52/50 44/49/50 43/48/50
f 46/51/51 45/50/51 49/54/51 41/46/51
f 45/50/52 48/53/52 49/54/52
f 44/49/53 48/53/53 45/50/53
f 49/54/54 48/53/54 47/52/54
f 50/55/55 51/56/55 52/57/55 53/58/55
f 54/59/56 55/60/56 52/57/56 51/56/56
f 56/61/57 53/58/57 52/57/57 55/60/57
f 54/59/58 51/56/58 57/62/58 58/63/58
f 50/55/59 59/64/59 57/62/59 51/56/59
f 60/65/60 58/63/60 57/62/60 59/64/60
f 50/55/61 53/58/61 61/66/61 62/67/61
f 56/61/62 63/68/62 61/66/62 53/58/62
f 64/69/63 62/67/63 61/66/63 63/68/63
f 50/55/64 62/67/64 65/70/64 66/71/64
f 64/69/65 67/72/65 65/70/65 62/67/65
f 68/73/66 66/71/66 65/70/66 67/72/66
f 50/55/67 66/71/67 69/74/67 59/64/67
f 68/73/68 70/75/68 69/74/68 66/71/68
f 60/65/69 59/64/69 69/74/69 70/75/69
f 54/59/70 58/63/70 71/76/70 72/77/70
f 60/65/71 73/78/71 71/76/71 58/63/71
f 74/79/72 72/77/72 71/76/72 73/78/72
f 56/61/73 55/60/73 75/80/73 76/81/73
f 54/59/74 77/82/74 75/80/74 55/60/74
f 78/83/75 76/81/75 75/80/75 77/82/75
f 64/69/76 63/68/76 79/84/76 80/85/76
f 56/61/77 81/86/77 79/84/77 63/68/77
f 82/87/78 80/85/78 79/84/78 81/86/78
f 68/73/79 67/72/79 83/88/79 84/89/79
f 64/69/80 85/90/80 83/88/80 67/72/80
f 86/91/81 84/89/81 83/88/81 85/90/81
f 60/65/82 70/75/82 87/92/82 88/93/82
f 68/73/83 89/94/83 87/92/83 70/75/83
f 90/95/84 88/93/84 87/92/84 89/94/84
f 54/59/85 72/96/85 91/97/85 77/82/85
f 74/79/86 92/98/86 91/97/86 72/96/86
f 78/83/87 77/82/87 91/97/87 92/98/87
f 56/61/88 76/81/88 93/99/88 81/86/88
f 78/83/89 94/100/89 93/99/89 76/81/89
f 82/87/90 81/86/90 93/99/90 94/100/90
f 64/69/91 80/85/91 95/101/91 85/90/91
f 82/87/92 96/102/92 95/101/92 80/85/92
f 86/91/93 85/90/93 95/101/93 96/102/93
f 68/73/94 84/103/94 97/104/94 89/94/94
f 86/91/95 98/105/95 97/104/95 84/103/95
f 90/95/96 89/94/96 97/104/96 98/105/96
f 60/65/97 88/93/97 99/106/97 73/78/97
f 90/95/98 100/107/98 99/106/98 88/93/98
f 74/79/99 73/78/99 99/106/99 100/107/99
f 78/83/100 92/98/100 101/108/100 102/109/100
f 74/79/101 103/110/101 101/108/101 92/98/101
f 104/111/102 102/109/102 101/108/102 103/110/102
f 82/87/103 94/100/103 105/112/103 106/113/103
f 78/83/104 102/109/104 105/112/104 94/100/104
f 104/111/105 106/113/105 105/112/105 102/109/105
f 86/91/106 96/102/106 107/114/106 108/115/106
f 82/87/107 106/113/107 107/114/107 96/102/107
f 104/111/108 108/115/108 107/114/108 106/113/108
f 90/95/109 98/105/109 109/116/109 110/117/109
f 86/91/110 108/115/110 109/116/110 98/105/110
f 104/111/111 110/117/111 109/116/111 108/115/111
f 74/79/112 100/107/112 111/118/112 103/110/112
f 90/95/113 110/117/113 111/118/113 100/107/113
f 104/111/114 103/110/114 111/118/114 110/117/114
f 112/119/115 113/120/115 114/121/115 115/122/115
f 116/123/116 117/124/116 114/121/116 113/120/116
f 118/125/117 115/122/117 114/121/117 117/124/117
f 116/123/118 113/120/118 119/126/118 120/127/118
f 112/119/119 121/128/119 119/126/119 113/120/119
f 122/129/120 120/127/120 119/126/120 121/128/120
f 112/119/121 115/122/121 123/130/121 124/131/121
f 118/125/122 125/132/122 123/130/122 115/122/122
f 126/133/123 124/131/123 123/130/123 125/132/123
f 112/119/124 124/131/124 127/134/124 128/135/124
f 126/133/125 129/136/125 127/134/125 124/131/125
f 130/137/126 128/135/126 127/134/126 129/136/126
f 112/119/127 128/135/127 131/138/127 121/128/127
f 130/137/128 132/139/128 131/138/128 128/135/128
f 122/129/129 121/128/129 131/138/129 132/139/129
f 116/123/130 120/127/130 133/140/130 134/141/130
f 122/129/131 135/142/131 133/140/131 120/127/131
f 136/143/132 134/141/132 133/140/132 135/142/132
f 118/125/133 117/124/133 137/144/133 138/145/133
f 116/123/134 139/146/134 137/144/134 117/124/134
f 140/147/135 138/145/135 137/144/135 139/146/135
f 126/133/136 125/132/136 141/148/136 142/149/136
f 118/125/137 143/150/137 141/148/137 125/132/137
f 144/151/138 142/149/138 141/148/138 143/150/138
f 130/137/139 129/136/139 145/152/139 146/153/139
f 126/133/140 147/154/140 145/152/140 129/136/140
f 148/155/141 146/153/141 145/152/141 147/154/141
f 122/129/142 132/139/142 149/156/142 150/157/142
f 130/137/143 151/158/143 149/156/143 132/139/143
f 152/159/144 150/157/144 149/156/144 151/158/144
f 116/123/145 134/160/145 153/161/145 139/146/145
f 136/143/146 154/162/146 153/161/146 134/160/146
f 140/147/147 139/146/147 153/161/147 154/162/147
f 118/125/148 138/145/148 155/163/148 143/150/148
f 140/147/149 156/164/149 155/163/149 138/145/149
f 144/151/150 143/150/150 155/163/150 156/164/150
f 126/133/151 142/149/151 157/165/151 147/154/151
f 144/151/152 158/166/152 157/165/152 142/149/152
f 148/155/153 147/154/153 157/165/153 158/166/153
f 130/137/154 146/167/154 159/168/154 151/158/154
f 148/155/155 160/169/155 159/168/155 146/167/155
f 152/159/156 151/158/156 159/168/156 160/169/156
f 122/129/157 150/157/157 161/170/157 135/142/157
f 152/159/158 162/171/158 161/170/158 150/157/158
f 136/143/159 135/142/159 161/170/159 162/171/159
f 140/147/160 154/162/160 163/172/160 164/173/160
f 136/143/161 165/174/161 163/172/161 154/162/161
f 166/175/162 164/173/162 163/172/162 165/174/162
f 144/151/163 156/164/163 167/176/163 168/177/163
f 140/147/164 164/173/164 167/176/164 156/164/164
f 166/175/165 168/177/165 167/176/165 164/173/165
f 148/155/166 158/166/166 169/178/166 170/179/166
f 144/151/167 168/177/167 169/178/167 158/166/167
f 166/175/168 170/179/168 169/178/168 168/177/168
f 152/159/169 160/169/169 171/180/169 172/181/169
f 148/155/170 170/179/170 171/180/170 160/169/170
f 166/175/171 172/181/171 171/180/171 170/179/171
f 136/143/172 162/171/172 173/182/172 165/174/172
f 152/159/173 172/181/173 173/182/173 162/171/173
f 166/175/174 165/174/174 173/182/174 172/181/174
