mtllib forest_nature_set_all_in.mtl
o forest_Tree_small_bare_Cube_007
v -27.663193 0.000000 -10.794829
v -27.345245 1.704075 -10.913030
v -27.346972 1.676668 -11.113162
v -27.597553 0.000000 -11.196870
v -27.137014 1.653155 -11.151837
v -27.150181 0.000000 -11.263665
v -27.168282 1.642912 -10.924917
v -27.184643 0.000000 -10.794339
v -27.384514 3.197258 -10.964499
v -27.392570 3.189548 -11.120993
v -27.415411 3.293065 -10.937453
v -27.305777 3.309435 -10.974140
v -27.539101 3.842562 -10.894928
v -27.612177 3.847101 -10.898703
v -27.275581 3.200344 -11.002563
v -27.251055 3.198460 -11.158998
v -27.581594 3.960156 -10.828904
v -27.654049 3.944915 -10.854418
v -27.267769 3.314946 -11.171186
v -27.413605 3.289887 -11.128527
v -27.612911 3.893663 -10.957502
v -27.565659 3.908012 -10.956846
v -26.922869 3.756817 -11.124746
v -26.918276 3.771943 -11.236835
v -26.850391 3.717929 -11.118389
v -26.774471 4.274366 -11.067286
v -26.844915 3.734915 -11.244786
v -27.570433 3.968920 -10.922256
v -27.725351 4.297804 -11.191483
v -27.729334 4.441538 -10.660296
v -27.622690 3.955621 -10.942500
vt 0.548104 0.523350
vt 0.552123 0.733175
vt 0.552094 0.730274
vt 0.548998 0.523350
vt 0.555629 0.728902
vt 0.555087 0.523350
vt 0.555103 0.727890
vt 0.554618 0.523350
vt 0.551702 0.897317
vt 0.551565 0.896194
vt 0.551477 0.908498
vt 0.552969 0.910413
vt 0.552046 0.975696
vt 0.550828 0.974775
vt 0.553549 0.897767
vt 0.553965 0.897493
vt 0.552046 0.975696
vt 0.550828 0.974775
vt 0.553487 0.911057
vt 0.551502 0.908127
vt 0.550856 0.973630
vt 0.552235 0.976608
vt 0.558034 0.961380
vt 0.558113 0.963101
vt 0.558975 0.956174
vt 0.558034 0.961380
vt 0.559068 0.958103
vt 0.552235 0.976608
vt 0.552235 0.976608
vt 0.550828 0.974775
vt 0.559068 0.958103
vt 0.558113 0.963101
vt 0.550856 0.973630
vt 0.550856 0.973630
vt 0.552235 0.976608
vt 0.550856 0.973630
vt 0.558975 0.956174
vt 0.552046 0.975696
vn -0.9802 0.1637 -0.1115
vn -0.1556 0.0702 -0.9853
vn 0.9955 -0.0084 0.0939
vn 0.0240 0.0717 0.9971
vn 0.0000 -1.0000 0.0000
vn -0.9992 -0.0276 0.0301
vn 0.1794 -0.0357 0.9831
vn 0.1818 0.0503 0.9820
vn -0.2138 -0.0159 -0.9768
vn 0.9866 0.0743 0.1452
vn -0.1366 -0.4934 0.8590
vn -0.2474 0.2023 -0.9476
vn 0.9088 0.3903 0.1471
vn -0.9477 -0.3136 -0.0585
vn -0.9658 -0.2582 0.0255
vn -0.7831 0.6183 -0.0666
vn -0.2535 -0.1313 -0.9584
vn 0.3320 -0.1530 0.9308
vn -0.1263 -0.0736 0.9893
vn -0.0920 -0.0813 -0.9924
vn 0.7889 -0.6124 0.0510
vn 0.2673 0.0419 0.9627
vn 0.9376 0.2243 -0.2655
vn -0.2336 -0.3845 0.8931
vn 0.1527 -0.4630 -0.8731
vn 0.0515 0.3061 -0.9506
vn -0.9612 0.2758 -0.0022
vn -0.4198 0.4483 0.7892
vn -0.9718 -0.1879 0.1425
vn 0.1885 0.5238 -0.8307
vn -0.9416 -0.0112 -0.3366
vn -0.9401 -0.2019 -0.2747
vn 0.9693 0.2449 0.0209
vn 0.9902 -0.1374 0.0244
vn 0.9594 0.2462 0.1378
usemtl AllColors_Material
f 1/1/1 2/2/1 3/3/1 4/4/1
f 4/4/2 3/3/2 5/5/2 6/6/2
f 6/6/3 5/5/3 7/7/3 8/8/3
f 8/8/4 7/7/4 2/2/4 1/1/4
f 4/4/5 6/6/5 8/8/5 1/1/5
f 3/3/6 2/2/6 9/9/6 10/10/6
f 11/11/7 12/12/7 13/13/7 14/14/7
f 2/2/8 7/7/8 15/15/8 9/9/8
f 5/5/9 3/3/9 10/10/9 16/16/9
f 7/7/10 5/5/10 16/16/10 15/15/10
f 14/14/11 13/13/11 17/17/11 18/18/11
f 19/19/12 20/20/12 21/21/12 22/22/12
f 12/12/13 19/19/13 22/22/13 13/13/13
f 20/20/14 11/11/14 14/14/14 21/21/14
f 10/10/15 9/9/15 11/11/15 20/20/15
f 19/19/16 12/12/16 23/23/16 24/24/16
f 16/16/17 10/10/17 20/20/17 19/19/17
f 9/9/18 15/15/18 12/12/18 11/11/18
f 23/23/19 25/25/19 26/26/19
f 16/16/20 19/19/20 24/24/20 27/27/20
f 15/15/21 16/16/21 27/27/21 25/25/21
f 12/12/22 15/15/22 25/25/22 23/23/22
f 28/28/23 22/22/23 29/29/23
f 18/18/24 17/17/24 30/30/24
f 22/22/25 21/21/25 29/29/25
f 27/27/26 24/24/26 26/31/26
f 24/24/27 23/23/27 26/32/27
f 31/33/28 28/28/28 29/34/28
f 21/21/29 31/33/29 29/34/29
f 28/28/30 31/33/30 30/35/30
f 31/33/31 18/18/31 30/36/31
f 21/21/32 14/14/32 18/18/32 31/33/32
f 13/13/33 22/22/33 28/28/33 17/17/33
f 25/25/34 27/27/34 26/37/34
f 17/17/35 28/28/35 30/38/35
