mtllib forest_nature_set_all_in.mtl
o forest_Grass_bush_high_01_Plane_002
v -23.507219 0.000000 8.719769
v -23.505632 0.000000 8.683677
v -23.335281 0.000000 8.620164
v -23.301888 0.000000 8.645923
v -23.398508 0.500285 8.866028
v -23.227604 0.465800 8.824325
v -23.084093 0.820762 9.048977
v -23.199471 0.833726 9.067515
v -23.391499 0.510876 8.839383
v -23.249352 0.482954 8.803118
v -23.097076 0.835526 9.037279
v -22.990541 1.031465 9.510697
v -23.193142 0.845529 9.053535
v -23.386932 0.000000 8.645627
v -23.396446 0.000000 8.604787
v -23.225895 0.000000 8.480504
v -23.180510 0.000000 8.498852
v -23.268499 0.574280 8.726604
v -23.090506 0.534252 8.626527
v -22.828281 0.934233 8.816590
v -22.951452 0.949282 8.873405
v -23.268997 0.586573 8.694627
v -23.121449 0.554163 8.609625
v -22.846455 0.951371 8.807576
v -22.635275 1.197281 9.243210
v -22.948751 0.962981 8.855798
v -23.628124 0.000000 8.589337
v -23.600853 0.000000 8.557482
v -23.399698 0.000000 8.621288
v -23.387600 0.000000 8.668723
v -23.594398 0.577351 8.759155
v -23.408339 0.537323 8.843293
v -23.531492 0.968148 9.105092
v -23.650223 0.983197 9.039499
v -23.568928 0.589645 8.739813
v -23.413046 0.557234 8.808352
v -23.534994 0.985286 9.085110
v -23.810543 1.197281 9.447076
v -23.634438 0.996897 9.031247
v -23.542534 0.000000 8.432075
v -23.489458 0.000000 8.457667
v -23.438013 0.000000 8.616031
v -23.465736 0.000000 8.651356
v -23.580061 0.536316 8.542021
v -23.537180 0.499599 8.724360
v -23.894518 0.900395 8.771607
v -23.913229 0.914199 8.648597
v -23.551752 0.547593 8.549723
v -23.514406 0.517863 8.701394
v -23.881947 0.916116 8.757887
v -24.276430 1.098272 8.909519
v -23.898399 0.926766 8.655458
v -23.435907 0.000000 8.392956
v -23.408134 0.000000 8.424375
v -23.499176 0.000000 8.614758
v -23.547829 0.000000 8.620173
v -23.597878 0.620967 8.416146
v -23.706964 0.580940 8.588764
v -23.967148 0.936588 8.420987
v -23.885750 0.951636 8.312481
v -23.582249 0.633261 8.444048
v -23.671707 0.600850 8.588940
v -23.946873 0.953726 8.420285
v -24.336313 1.197281 8.114129
v -23.879763 0.965336 8.329257
v -23.362562 0.000000 8.349061
v -23.357035 0.000000 8.391564
v -23.543121 0.000000 8.500642
v -23.587416 0.000000 8.477371
v -23.445845 0.613093 8.262872
v -23.637039 0.572180 8.346576
v -23.822578 0.992408 8.034337
v -23.691534 1.007790 7.989067
v -23.448586 0.625659 8.295445
v -23.607286 0.592531 8.366909
v -23.805012 1.009926 8.045351
v -23.902563 1.223762 7.586917
v -23.696070 1.021793 8.006700
v -23.261911 0.000000 8.527111
v -23.302406 0.000000 8.538005
v -23.432400 0.000000 8.371765
v -23.415602 0.000000 8.325784
v -23.229778 0.628353 8.339447
v -23.335835 0.588325 8.164949
v -23.041426 0.961592 7.961370
v -22.980469 0.976641 8.082543
v -23.261721 0.640646 8.341029
v -23.351677 0.608235 8.196446
v -23.049818 0.978730 7.979838
v -22.684908 1.197281 7.655786
v -22.998158 0.990341 8.080441
v -23.518900 0.000000 8.576957
v -23.384003 0.000000 8.632113
v -23.410963 0.000000 8.446709
v -23.377758 0.000000 8.418668
v -23.207767 0.489013 8.568666
v -23.212639 0.453477 8.387444
v -22.910688 0.845810 8.387755
v -22.917088 0.859170 8.508009
v -23.233086 0.499927 8.555814
v -23.238726 0.471153 8.404741
v -22.925295 0.861025 8.398293
v -22.493959 1.062943 8.251421
v -22.929794 0.871333 8.498597
v -23.457422 0.000000 8.443003
v -23.325071 0.000000 8.564664
v -23.332802 0.000000 8.605643
v -23.504471 0.489129 8.627957
v -23.391092 0.455030 8.759884
v -23.577293 0.842483 8.869839
v -23.645359 0.855303 8.776464
v -23.477844 0.499601 8.622190
v -23.382153 0.471991 8.731211
v -23.572805 0.857083 8.853150
v -23.888405 1.068658 9.070009
v -23.630201 0.866974 8.775773
v -23.279106 0.000000 8.458241
v -23.261166 0.000000 8.488564
v -23.368294 0.000000 8.632932
v -23.409857 0.000000 8.629537
v -23.425417 0.491831 8.437894
v -23.544741 0.457732 8.564468
v -23.718573 0.826229 8.396895
v -23.632843 0.839049 8.319422
v -23.416891 0.502303 8.463770
v -23.515287 0.474693 8.570356
v -23.701508 0.840829 8.399611
v -23.882826 1.077833 8.131987
v -23.630568 0.850720 8.334424
v -23.366896 0.000000 8.703988
v -23.400385 0.000000 8.714932
v -23.505793 0.000000 8.539229
v -23.287697 0.495470 8.602293
v -23.385412 0.461371 8.458380
v -23.171700 0.832019 8.324168
v -23.114641 0.844839 8.424649
v -23.314806 0.505942 8.605010
v -23.397541 0.478332 8.485856
v -23.178047 0.846618 8.340241
v -22.851030 1.063821 8.201233
v -23.129780 0.856509 8.423619
vt 0.149393 0.524670
vt 0.149449 0.524670
vt 0.155483 0.524670
vt 0.156666 0.524670
vt 0.153244 0.711149
vt 0.159297 0.698295
vt 0.164380 0.830605
vt 0.160293 0.835437
vt 0.153492 0.715097
vt 0.158527 0.704689
vt 0.163920 0.836108
vt 0.167694 0.909143
vt 0.160518 0.839837
vt 0.153654 0.524670
vt 0.153317 0.524670
vt 0.159357 0.524670
vt 0.160965 0.524670
vt 0.157848 0.738730
vt 0.164153 0.723810
vt 0.173441 0.872900
vt 0.169078 0.878510
vt 0.157831 0.743312
vt 0.163057 0.731231
vt 0.172797 0.879289
vt 0.180277 0.970950
vt 0.169174 0.883616
vt 0.145111 0.524670
vt 0.146077 0.524670
vt 0.153201 0.524670
vt 0.153630 0.524670
vt 0.146305 0.739875
vt 0.152895 0.724955
vt 0.148533 0.885542
vt 0.144328 0.891152
vt 0.147207 0.744457
vt 0.152729 0.732376
vt 0.148409 0.891930
vt 0.138649 0.970950
vt 0.144887 0.896258
vt 0.148142 0.524670
vt 0.150022 0.524670
vt 0.151844 0.524670
vt 0.150862 0.524670
vt 0.146813 0.724579
vt 0.148332 0.710893
vt 0.135675 0.860288
vt 0.135012 0.865433
vt 0.147816 0.728783
vt 0.149139 0.717701
vt 0.136120 0.866148
vt 0.122148 0.934045
vt 0.135538 0.870117
vt 0.151919 0.524670
vt 0.152903 0.524670
vt 0.149678 0.524670
vt 0.147955 0.524670
vt 0.146182 0.756133
vt 0.142318 0.741212
vt 0.133103 0.873778
vt 0.135986 0.879388
vt 0.146736 0.760715
vt 0.143567 0.748634
vt 0.133821 0.880166
vt 0.120027 0.970950
vt 0.136198 0.884494
vt 0.154517 0.524670
vt 0.154713 0.524670
vt 0.148122 0.524670
vt 0.146553 0.524670
vt 0.151567 0.753198
vt 0.144795 0.737947
vt 0.138223 0.894585
vt 0.142865 0.900319
vt 0.151470 0.757881
vt 0.145849 0.745533
vt 0.138845 0.901114
vt 0.135390 0.980821
vt 0.142704 0.905538
vt 0.158082 0.524670
vt 0.156648 0.524670
vt 0.152043 0.524670
vt 0.152638 0.524670
vt 0.159220 0.758885
vt 0.155464 0.743965
vt 0.165891 0.883099
vt 0.168050 0.888708
vt 0.158089 0.763467
vt 0.154902 0.751387
vt 0.165594 0.889486
vt 0.178519 0.970950
vt 0.167424 0.893815
vt 0.148979 0.524670
vt 0.153757 0.524670
vt 0.152802 0.524670
vt 0.153979 0.524670
vt 0.160000 0.706947
vt 0.159827 0.693701
vt 0.170522 0.839941
vt 0.170295 0.844921
vt 0.159103 0.711015
vt 0.158903 0.700290
vt 0.170005 0.845613
vt 0.185282 0.920877
vt 0.169845 0.849455
vt 0.151157 0.524670
vt 0.155845 0.524670
vt 0.155571 0.524670
vt 0.149490 0.706990
vt 0.153506 0.694280
vt 0.146911 0.838701
vt 0.144500 0.843480
vt 0.150434 0.710894
vt 0.153823 0.700603
vt 0.147070 0.844143
vt 0.135892 0.923007
vt 0.145037 0.847830
vt 0.157473 0.524670
vt 0.158108 0.524670
vt 0.154314 0.524670
vt 0.152842 0.524670
vt 0.152291 0.707998
vt 0.148064 0.695288
vt 0.141907 0.832643
vt 0.144944 0.837421
vt 0.152592 0.711901
vt 0.149107 0.701610
vt 0.142512 0.838085
vt 0.136089 0.926427
vt 0.145024 0.841771
vt 0.154363 0.524670
vt 0.153177 0.524670
vt 0.149444 0.524670
vt 0.157168 0.709354
vt 0.153707 0.696644
vt 0.161277 0.834801
vt 0.163298 0.839579
vt 0.156208 0.713257
vt 0.153278 0.702966
vt 0.161052 0.840243
vt 0.172635 0.921204
vt 0.162762 0.843929
vn 0.0000 -1.0000 0.0000
vn 0.0825 -0.5539 0.8285
vn -0.2549 0.3575 -0.8985
vn 0.2455 -0.3503 0.9039
vn 0.6687 0.1634 -0.7254
vn -0.9663 0.2404 -0.0918
vn 0.8233 0.4346 -0.3652
vn 0.7390 0.1209 -0.6628
vn -0.8594 0.5114 -0.0003
vn -0.0877 0.5753 -0.8132
vn -0.8070 0.5777 0.1226
vn 0.0302 0.9211 -0.3880
vn -0.0343 -0.9066 0.4207
vn 0.3000 -0.5599 0.7723
vn -0.5118 0.2611 -0.8184
vn 0.5045 -0.2504 0.8263
vn 0.4434 0.1300 -0.8868
vn -0.9697 0.1813 0.1639
vn 0.6928 0.4303 -0.5787
vn 0.5088 0.0746 -0.8577
vn -0.7864 0.5608 0.2590
vn -0.3004 0.5820 -0.7557
vn -0.7820 0.5444 0.3036
vn -0.1102 0.8875 -0.4475
vn 0.1165 -0.8681 0.4825
vn -0.4459 -0.5520 0.7046
vn 0.3559 0.2813 -0.8912
vn -0.3666 -0.2707 0.8901
vn 0.9799 0.0894 -0.1783
vn -0.7043 0.2411 -0.6677
vn 0.7990 0.5184 0.3046
vn 0.9659 0.2573 0.0292
vn -0.6648 0.3608 -0.6541
vn 0.4328 0.5714 -0.6973
vn -0.6970 0.4845 -0.5287
vn 0.2784 0.9060 -0.3187
vn -0.3039 -0.8874 0.3466
vn -0.7437 -0.6673 0.0396
vn 0.9520 0.1667 -0.2567
vn -0.9515 -0.1478 0.2700
vn 0.7546 0.0075 0.6561
vn 0.3466 0.2026 -0.9159
vn 0.4693 0.3370 0.8162
vn 0.4951 0.3456 0.7972
vn 0.1130 0.3610 -0.9257
vn 0.7308 0.6810 -0.0465
vn -0.2039 0.6435 -0.7378
vn 0.4271 0.9038 0.0254
vn -0.4678 -0.8834 -0.0280
vn -0.5631 -0.6510 -0.5091
vn 0.8450 0.2397 0.4781
vn -0.8422 -0.2283 -0.4884
vn 0.0476 0.0616 0.9970
vn 0.7635 0.2253 -0.6053
vn -0.3566 0.4552 0.8158
vn -0.1910 0.2995 0.9348
vn 0.6951 0.4221 -0.5819
vn 0.5557 0.6689 0.4936
vn 0.5664 0.5277 -0.6330
vn 0.2974 0.8946 0.3334
vn -0.3190 -0.8764 -0.3608
vn -0.1879 -0.6370 -0.7476
vn 0.4358 0.2204 0.8727
vn -0.4276 -0.2090 -0.8795
vn -0.5305 0.1381 0.8364
vn 0.9896 0.1310 -0.0587
vn -0.7606 0.5112 0.4002
vn -0.6610 0.2364 0.7122
vn 0.8781 0.4636 -0.1181
vn 0.1913 0.6539 0.7320
vn 0.8486 0.4983 -0.1776
vn 0.0478 0.9091 0.4139
vn -0.0514 -0.8908 -0.4514
vn 0.6843 -0.6814 -0.2596
vn -0.8040 0.2403 0.5439
vn 0.8121 -0.2285 -0.5369
vn -0.9202 0.0135 -0.3912
vn 0.2081 0.2728 0.9393
vn -0.7280 0.3051 -0.6140
vn -0.7631 0.2838 -0.5806
vn 0.2334 0.4627 0.8553
vn -0.6679 0.6971 0.2606
vn 0.4270 0.6480 0.6307
vn -0.4310 0.8946 0.1181
vn 0.4688 -0.8741 -0.1273
vn 0.0000 1.0000 0.0000
vn 0.7893 -0.6054 0.1022
vn -0.9445 0.3221 0.0640
vn 0.8330 -0.4051 0.3768
vn -0.5733 0.1453 -0.8064
vn 0.3703 -0.2495 -0.8948
vn -0.4064 0.2235 -0.8859
vn -0.3726 0.2862 -0.8828
vn -0.2901 0.3725 0.8815
vn -0.7774 0.6220 -0.0932
vn 0.1128 0.6790 0.7254
vn -0.4521 0.8850 -0.1112
vn 0.4897 -0.8633 0.1220
vn -0.7284 -0.4828 0.4861
vn 0.6979 0.2889 -0.6553
vn -0.7080 -0.2781 0.6492
vn 0.9698 0.0372 0.2412
vn -0.3610 0.2992 -0.8832
vn 0.6901 0.4425 0.5727
vn 0.8497 0.2804 0.4466
vn -0.2834 0.2661 -0.9213
vn 0.7146 0.5036 -0.4856
vn -0.4335 0.5194 -0.7364
vn 0.4384 0.8730 -0.2136
vn -0.4725 -0.8514 0.2276
vn -0.5271 -0.5423 -0.6543
vn 0.7270 0.2813 0.6264
vn -0.7217 -0.2710 -0.6369
vn -0.1501 0.0894 0.9846
vn 0.8600 0.2409 -0.4499
vn -0.5023 0.4497 0.7386
vn -0.3384 0.2517 0.9067
vn 0.8362 0.3584 -0.4151
vn 0.5244 0.5621 0.6396
vn 0.7689 0.4429 -0.4612
vn 0.3352 0.8065 0.4871
vn -0.3533 -0.7779 -0.5197
vn 0.7452 -0.5583 -0.3647
vn -0.7705 0.2790 0.5731
vn 0.7783 -0.2704 -0.5667
vn -0.9056 0.1611 -0.3924
vn 0.2435 0.1620 0.9563
vn -0.5902 0.4677 -0.6579
vn -0.8018 0.2678 -0.5342
vn 0.2214 0.3531 0.9090
vn -0.7303 0.5772 0.3655
vn 0.3078 0.4723 0.8260
vn -0.4892 0.8530 0.1820
vn 0.5253 -0.8288 -0.1926
usemtl AllColors_Material
f 1/1/1 2/2/1 3/3/1 4/4/1
f 5/5/2 6/6/2 7/7/2 8/8/2
f 3/3/3 2/2/3 9/9/3 10/10/3
f 1/1/4 4/4/4 6/6/4 5/5/4
f 4/4/5 3/3/5 10/10/5 6/6/5
f 2/2/6 1/1/6 5/5/6 9/9/6
f 7/7/7 11/11/7 12/12/7
f 6/6/8 10/10/8 11/11/8 7/7/8
f 9/9/9 5/5/9 8/8/9 13/13/9
f 10/10/10 9/9/10 13/13/10 11/11/10
f 13/13/11 8/8/11 12/12/11
f 11/11/12 13/13/12 12/12/12
f 8/8/13 7/7/13 12/12/13
f 14/14/1 15/15/1 16/16/1 17/17/1
f 18/18/14 19/19/14 20/20/14 21/21/14
f 16/16/15 15/15/15 22/22/15 23/23/15
f 14/14/16 17/17/16 19/19/16 18/18/16
f 17/17/17 16/16/17 23/23/17 19/19/17
f 15/15/18 14/14/18 18/18/18 22/22/18
f 20/20/19 24/24/19 25/25/19
f 19/19/20 23/23/20 24/24/20 20/20/20
f 22/22/21 18/18/21 21/21/21 26/26/21
f 23/23/22 22/22/22 26/26/22 24/24/22
f 26/26/23 21/21/23 25/25/23
f 24/24/24 26/26/24 25/25/24
f 21/21/25 20/20/25 25/25/25
f 27/27/1 28/28/1 29/29/1 30/30/1
f 31/31/26 32/32/26 33/33/26 34/34/26
f 29/29/27 28/28/27 35/35/27 36/36/27
f 27/27/28 30/30/28 32/32/28 31/31/28
f 30/30/29 29/29/29 36/36/29 32/32/29
f 28/28/30 27/27/30 31/31/30 35/35/30
f 33/33/31 37/37/31 38/38/31
f 32/32/32 36/36/32 37/37/32 33/33/32
f 35/35/33 31/31/33 34/34/33 39/39/33
f 36/36/34 35/35/34 39/39/34 37/37/34
f 39/39/35 34/34/35 38/38/35
f 37/37/36 39/39/36 38/38/36
f 34/34/37 33/33/37 38/38/37
f 40/40/1 41/41/1 42/42/1 43/43/1
f 44/44/38 45/45/38 46/46/38 47/47/38
f 42/42/39 41/41/39 48/48/39 49/49/39
f 40/40/40 43/43/40 45/45/40 44/44/40
f 43/43/41 42/42/41 49/49/41 45/45/41
f 41/41/42 40/40/42 44/44/42 48/48/42
f 46/46/43 50/50/43 51/51/43
f 45/45/44 49/49/44 50/50/44 46/46/44
f 48/48/45 44/44/45 47/47/45 52/52/45
f 49/49/46 48/48/46 52/52/46 50/50/46
f 52/52/47 47/47/47 51/51/47
f 50/50/48 52/52/48 51/51/48
f 47/47/49 46/46/49 51/51/49
f 53/53/1 54/54/1 55/55/1 56/56/1
f 57/57/50 58/58/50 59/59/50 60/60/50
f 55/55/51 54/54/51 61/61/51 62/62/51
f 53/53/52 56/56/52 58/58/52 57/57/52
f 56/56/53 55/55/53 62/62/53 58/58/53
f 54/54/54 53/53/54 57/57/54 61/61/54
f 59/59/55 63/63/55 64/64/55
f 58/58/56 62/62/56 63/63/56 59/59/56
f 61/61/57 57/57/57 60/60/57 65/65/57
f 62/62/58 61/61/58 65/65/58 63/63/58
f 65/65/59 60/60/59 64/64/59
f 63/63/60 65/65/60 64/64/60
f 60/60/61 59/59/61 64/64/61
f 66/66/1 67/67/1 68/68/1 69/69/1
f 70/70/62 71/71/62 72/72/62 73/73/62
f 68/68/63 67/67/63 74/74/63 75/75/63
f 66/66/64 69/69/64 71/71/64 70/70/64
f 69/69/65 68/68/65 75/75/65 71/71/65
f 67/67/66 66/66/66 70/70/66 74/74/66
f 72/72/67 76/76/67 77/77/67
f 71/71/68 75/75/68 76/76/68 72/72/68
f 74/74/69 70/70/69 73/73/69 78/78/69
f 75/75/70 74/74/70 78/78/70 76/76/70
f 78/78/71 73/73/71 77/77/71
f 76/76/72 78/78/72 77/77/72
f 73/73/73 72/72/73 77/77/73
f 79/79/1 80/80/1 81/81/1 82/82/1
f 83/83/74 84/84/74 85/85/74 86/86/74
f 81/81/75 80/80/75 87/87/75 88/88/75
f 79/79/76 82/82/76 84/84/76 83/83/76
f 82/82/77 81/81/77 88/88/77 84/84/77
f 80/80/78 79/79/78 83/83/78 87/87/78
f 85/85/79 89/89/79 90/90/79
f 84/84/80 88/88/80 89/89/80 85/85/80
f 87/87/81 83/83/81 86/86/81 91/91/81
f 88/88/82 87/87/82 91/91/82 89/89/82
f 91/91/83 86/86/83 90/90/83
f 89/89/84 91/91/84 90/90/84
f 86/86/85 85/85/85 90/90/85
f 92/92/86 93/93/86 94/94/86 95/95/86
f 96/96/87 97/97/87 98/98/87 99/99/87
f 94/94/88 93/93/88 100/100/88 101/101/88
f 92/92/89 95/95/89 97/97/89 96/96/89
f 95/95/90 94/94/90 101/101/90 97/97/90
f 93/93/91 92/92/91 96/96/91 100/100/91
f 98/98/92 102/102/92 103/103/92
f 97/97/93 101/101/93 102/102/93 98/98/93
f 100/100/94 96/96/94 99/99/94 104/104/94
f 101/101/95 100/100/95 104/104/95 102/102/95
f 104/104/96 99/99/96 103/103/96
f 102/102/97 104/104/97 103/103/97
f 99/99/98 98/98/98 103/103/98
f 41/41/1 105/105/1 106/106/1 107/107/1
f 108/108/99 109/109/99 110/110/99 111/111/99
f 106/106/100 105/105/100 112/112/100 113/113/100
f 41/41/101 107/107/101 109/109/101 108/108/101
f 107/107/102 106/106/102 113/113/102 109/109/102
f 105/105/103 41/41/103 108/108/103 112/112/103
f 110/110/104 114/114/104 115/115/104
f 109/109/105 113/113/105 114/114/105 110/110/105
f 112/112/106 108/108/106 111/111/106 116/116/106
f 113/113/107 112/112/107 116/116/107 114/114/107
f 116/116/108 111/111/108 115/115/108
f 114/114/109 116/116/109 115/115/109
f 111/111/110 110/110/110 115/115/110
f 117/117/1 118/118/1 119/119/1 120/120/1
f 121/121/111 122/122/111 123/123/111 124/124/111
f 119/119/112 118/118/112 125/125/112 126/126/112
f 117/117/113 120/120/113 122/122/113 121/121/113
f 120/120/114 119/119/114 126/126/114 122/122/114
f 118/118/115 117/117/115 121/121/115 125/125/115
f 123/123/116 127/127/116 128/128/116
f 122/122/117 126/126/117 127/127/117 123/123/117
f 125/125/118 121/121/118 124/124/118 129/129/118
f 126/126/119 125/125/119 129/129/119 127/127/119
f 129/129/120 124/124/120 128/128/120
f 127/127/121 129/129/121 128/128/121
f 124/124/122 123/123/122 128/128/122
f 130/130/1 131/131/1 92/92/1 132/132/1
f 133/133/123 134/134/123 135/135/123 136/136/123
f 92/92/124 131/131/124 137/137/124 138/138/124
f 130/130/125 132/132/125 134/134/125 133/133/125
f 132/132/126 92/92/126 138/138/126 134/134/126
f 131/131/127 130/130/127 133/133/127 137/137/127
f 135/135/128 139/139/128 140/140/128
f 134/134/129 138/138/129 139/139/129 135/135/129
f 137/137/130 133/133/130 136/136/130 141/141/130
f 138/138/131 137/137/131 141/141/131 139/139/131
f 141/141/132 136/136/132 140/140/132
f 139/139/133 141/141/133 140/140/133
f 136/136/134 135/135/134 140/140/134
