mtllib forest_nature_set_all_in.mtl
o forest_Mushroom_flat_white_Cylinder_029
v -22.504871 0.275215 12.669727
v -22.505465 0.294876 12.669727
v -22.375368 0.298810 12.723639
v -22.374773 0.279149 12.723639
v -22.321480 0.300440 12.853796
v -22.320887 0.280779 12.853796
v -22.375368 0.298810 12.983953
v -22.374773 0.279149 12.983953
v -22.505465 0.294876 13.037865
v -22.504871 0.275215 13.037865
v -22.635563 0.290941 12.983953
v -22.634968 0.271280 12.983953
v -22.689449 0.289311 12.853796
v -22.688856 0.269650 12.853796
v -22.503166 0.273601 12.853796
v -22.635563 0.290941 12.723639
v -22.634968 0.271280 12.723639
v -22.418251 0.242428 12.939385
v -22.382814 0.243500 12.853796
v -22.589352 0.237253 12.768207
v -22.503801 0.239840 12.732755
v -22.503235 0.221152 12.822173
v -22.525585 0.220476 12.831435
v -22.624786 0.236181 12.853796
v -22.589352 0.237253 12.939385
v -22.503801 0.239840 12.974837
v -22.418251 0.242428 12.768207
v -22.471626 0.222108 12.853796
v -22.480885 0.221828 12.876157
v -22.472298 0.185845 12.880001
v -22.461458 0.186416 12.853796
v -22.534843 0.220196 12.853796
v -22.525585 0.220476 12.876157
v -22.503235 0.221152 12.885419
v -22.480885 0.221828 12.831435
v -22.535473 0.182518 12.853796
v -22.524633 0.183089 12.827591
v -22.530159 0.134326 12.818992
v -22.544565 0.133796 12.853796
v -22.472298 0.185845 12.827591
v -22.498466 0.184467 12.816737
v -22.524633 0.183089 12.880001
v -22.498466 0.184467 12.890855
v -22.460596 0.136881 12.888600
v -22.495378 0.135604 12.903017
v -22.495119 0.116390 12.888882
v -22.470335 0.117477 12.878606
v -22.530159 0.134326 12.888600
v -22.446190 0.137411 12.853796
v -22.460596 0.136881 12.818992
v -22.495378 0.135604 12.804575
v -22.519905 0.115303 12.828986
v -22.495119 0.116390 12.818710
v -22.498985 0.057528 12.818710
v -22.523794 0.057528 12.828986
v -22.460068 0.117928 12.853796
v -22.470335 0.117477 12.828986
v -22.530172 0.114853 12.853796
v -22.519905 0.115303 12.878606
v -22.498985 0.057528 12.888882
v -22.523794 0.057528 12.878606
v -22.529524 0.000000 12.878606
v -22.504715 0.000000 12.888882
v -22.534071 0.057528 12.853796
v -22.474174 0.057528 12.878606
v -22.463898 0.057528 12.853796
v -22.474174 0.057528 12.828986
v -22.504715 0.000000 12.818710
v -22.504715 0.000000 12.853796
v -22.539801 0.000000 12.853796
v -22.529524 0.000000 12.828986
v -22.479906 0.000000 12.878606
v -22.469629 0.000000 12.853796
v -22.479906 0.000000 12.828986
vt 0.851760 0.818937
vt 0.851994 0.901479
vt 0.871970 0.859120
vt 0.871736 0.776579
vt 0.880244 0.841575
vt 0.880010 0.759034
vt 0.871970 0.859120
vt 0.871736 0.776579
vt 0.851994 0.901479
vt 0.851760 0.818937
vt 0.832018 0.943837
vt 0.831784 0.861296
vt 0.823744 0.961382
vt 0.823510 0.878843
vt 0.851994 0.811414
vt 0.832018 0.943837
vt 0.831784 0.861296
vt 0.879679 0.643423
vt 0.871324 0.661139
vt 0.863993 0.525828
vt 0.869487 0.514178
vt 0.727684 0.961155
vt 0.751553 0.949389
vt 0.751149 0.916245
vt 0.744913 0.919319
vt 0.830984 0.746680
vt 0.822630 0.764395
vt 0.831971 0.593728
vt 0.837465 0.582078
vt 0.851154 0.703910
vt 0.850729 0.553952
vt 0.830984 0.746680
vt 0.837465 0.582078
vt 0.871324 0.661139
vt 0.863993 0.525828
vt 0.851154 0.703910
vt 0.850729 0.553952
vt 0.759968 0.911898
vt 0.757385 0.913171
vt 0.757941 0.856772
vt 0.760964 0.854922
vt 0.727684 0.961156
vt 0.717797 0.966030
vt 0.742330 0.920593
vt 0.744913 0.919319
vt 0.775423 0.937623
vt 0.751553 0.949389
vt 0.751149 0.916245
vt 0.775423 0.937623
vt 0.785310 0.932748
vt 0.757385 0.913171
vt 0.740327 0.867559
vt 0.743349 0.865709
vt 0.739362 0.772088
vt 0.735348 0.774541
vt 0.757941 0.856772
vt 0.750645 0.861241
vt 0.743349 0.865709
vt 0.750645 0.861241
vt 0.758744 0.760239
vt 0.749053 0.766163
vt 0.748655 0.734500
vt 0.755569 0.730656
vt 0.739362 0.772088
vt 0.762758 0.757785
vt 0.758744 0.760239
vt 0.749053 0.766163
vt 0.741742 0.738343
vt 0.748655 0.734499
vt 0.749319 0.636683
vt 0.742379 0.636683
vt 0.758432 0.729064
vt 0.755569 0.730656
vt 0.738878 0.739935
vt 0.741742 0.738343
vt 0.749319 0.636683
vt 0.742379 0.636683
vt 0.745032 0.522838
vt 0.751972 0.522838
vt 0.739504 0.636683
vt 0.756258 0.636683
vt 0.759133 0.636683
vt 0.756258 0.636683
vt 0.751972 0.522838
vt 0.751972 0.522838
vt 0.742158 0.522838
vt 0.745032 0.522838
vt 0.758912 0.522838
vt 0.761786 0.522838
vt 0.758912 0.522838
vn 0.3825 0.0115 -0.9239
vn 0.9235 0.0279 -0.3827
vn 0.9235 0.0279 0.3827
vn 0.3825 0.0115 0.9239
vn -0.3825 -0.0116 0.9239
vn -0.9235 -0.0280 0.3827
vn -0.1119 0.9903 0.0819
vn -0.9235 -0.0280 -0.3827
vn -0.3825 -0.0116 -0.9239
vn 0.5055 -0.8396 0.1988
vn -0.0549 -0.9774 -0.2039
vn -0.4538 -0.8687 0.1988
vn 0.2245 -0.8481 0.4798
vn -0.4538 -0.8687 -0.1988
vn 0.5055 -0.8396 -0.1988
vn -0.1728 -0.8602 0.4798
vn -0.1728 -0.8602 -0.4798
vn 0.2245 -0.8481 -0.4798
vn 0.8922 0.2535 0.3737
vn -0.1744 -0.9811 0.0845
vn 0.1139 -0.9723 0.2039
vn 0.2333 -0.9687 -0.0845
vn -0.1744 -0.9811 -0.0845
vn -0.0549 -0.9774 0.2039
vn 0.2333 -0.9687 0.0845
vn 0.1139 -0.9723 -0.2039
vn -0.9117 0.1697 -0.3742
vn 0.3698 0.1843 -0.9107
vn -0.3847 0.0854 -0.9191
vn -0.9240 0.0156 0.3821
vn 0.3698 0.1842 0.9107
vn 0.8922 0.2535 -0.3737
vn -0.9240 0.0156 -0.3821
vn -0.3847 0.0854 0.9191
vn 0.3368 -0.5570 0.7591
vn -0.3826 0.2013 0.9017
vn 0.8862 0.2766 0.3717
vn 0.3621 0.2456 -0.8992
vn -0.3827 0.2013 -0.9017
vn -0.9117 0.1697 0.3742
vn 0.3621 0.2456 0.8992
vn 0.8862 0.2766 -0.3717
vn -0.3832 0.0255 -0.9233
vn 0.7745 -0.5505 -0.3115
vn -0.7535 -0.5736 -0.3213
vn -0.2962 -0.5667 0.7689
vn 0.7745 -0.5505 0.3115
vn 0.3368 -0.5570 -0.7591
vn -0.2962 -0.5666 -0.7689
vn -0.7535 -0.5736 0.3213
vn -0.3824 0.0381 0.9232
vn -0.9223 0.0624 0.3813
vn 0.3832 -0.0248 0.9234
vn 0.9225 -0.0588 -0.3814
vn -0.9223 0.0624 -0.3813
vn -0.3832 0.0255 0.9233
vn 0.9225 -0.0588 0.3814
vn 0.3832 -0.0248 -0.9234
vn 0.0000 -1.0000 0.0000
vn 0.9200 -0.0916 0.3811
vn 0.3824 -0.0381 -0.9232
vn -0.3824 0.0381 -0.9232
vn -0.9200 0.0916 0.3811
vn 0.3824 -0.0381 0.9232
vn 0.9200 -0.0916 -0.3811
vn -0.9200 0.0916 -0.3811
vn -0.1119 0.9903 -0.0819
vn 0.0508 0.9954 -0.0809
vn 0.0508 0.9954 0.0809
usemtl AllColors_Material
f 1/1/1 2/2/1 3/3/1 4/4/1
f 4/4/2 3/3/2 5/5/2 6/6/2
f 6/6/3 5/5/3 7/7/3 8/8/3
f 8/8/4 7/7/4 9/9/4 10/10/4
f 10/10/5 9/9/5 11/11/5 12/12/5
f 12/12/6 11/11/6 13/13/6 14/14/6
f 3/3/7 2/2/7 15/15/7 5/5/7
f 14/14/8 13/13/8 16/16/8 17/17/8
f 17/17/9 16/16/9 2/2/9 1/1/9
f 6/18/10 8/19/10 18/20/10 19/21/10
f 20/22/11 21/23/11 22/24/11 23/25/11
f 12/26/12 14/27/12 24/28/12 25/29/12
f 8/19/13 10/30/13 26/31/13 18/20/13
f 14/27/14 17/32/14 20/33/14 24/28/14
f 4/34/15 6/18/15 19/21/15 27/35/15
f 10/30/16 12/26/16 25/29/16 26/31/16
f 17/32/17 1/36/17 21/37/17 20/33/17
f 1/36/18 4/34/18 27/35/18 21/37/18
f 28/38/19 29/39/19 30/40/19 31/41/19
f 25/42/20 24/43/20 32/44/20 33/45/20
f 18/46/21 26/47/21 34/48/21 29/39/21
f 27/49/22 19/50/22 28/38/22 35/51/22
f 24/43/23 20/22/23 23/25/23 32/44/23
f 26/47/24 25/42/24 33/45/24 34/48/24
f 19/50/25 18/46/25 29/39/25 28/38/25
f 21/23/26 27/49/26 35/51/26 22/24/26
f 36/52/27 37/53/27 38/54/27 39/55/27
f 22/24/28 35/51/28 40/56/28 41/57/28
f 23/25/29 22/24/29 41/57/29 37/53/29
f 33/45/30 32/44/30 36/52/30 42/58/30
f 29/39/31 34/48/31 43/59/31 30/40/31
f 35/51/32 28/38/32 31/41/32 40/56/32
f 32/44/33 23/25/33 37/53/33 36/52/33
f 34/48/34 33/45/34 42/58/34 43/59/34
f 44/60/35 45/61/35 46/62/35 47/63/35
f 43/59/36 42/58/36 48/64/36 45/61/36
f 31/41/37 30/40/37 44/60/37 49/65/37
f 41/57/38 40/56/38 50/66/38 51/67/38
f 37/53/39 41/57/39 51/67/39 38/54/39
f 42/58/40 36/52/40 39/55/40 48/64/40
f 30/40/41 43/59/41 45/61/41 44/60/41
f 40/56/42 31/41/42 49/65/42 50/66/42
f 52/68/43 53/69/43 54/70/43 55/71/43
f 50/66/44 49/65/44 56/72/44 57/73/44
f 39/55/45 38/54/45 52/68/45 58/74/45
f 45/61/46 48/64/46 59/75/46 46/62/46
f 49/65/47 44/60/47 47/63/47 56/72/47
f 51/67/48 50/66/48 57/73/48 53/69/48
f 38/54/49 51/67/49 53/69/49 52/68/49
f 48/64/50 39/55/50 58/74/50 59/75/50
f 60/76/51 61/77/51 62/78/51 63/79/51
f 59/75/52 58/74/52 64/80/52 61/77/52
f 47/63/53 46/62/53 60/76/53 65/81/53
f 57/73/54 56/72/54 66/82/54 67/83/54
f 58/74/55 52/68/55 55/71/55 64/80/55
f 46/62/56 59/75/56 61/77/56 60/76/56
f 56/72/57 47/63/57 65/81/57 66/82/57
f 53/69/58 57/73/58 67/83/58 54/70/58
f 68/84/59 69/85/59 70/86/59 71/87/59
f 66/82/60 65/81/60 72/88/60 73/89/60
f 54/70/61 67/83/61 74/90/61 68/84/61
f 55/71/62 54/70/62 68/84/62 71/87/62
f 61/77/63 64/80/63 70/86/63 62/78/63
f 65/81/64 60/76/64 63/79/64 72/88/64
f 67/83/65 66/82/65 73/89/65 74/90/65
f 64/80/66 55/71/66 71/87/66 70/86/66
f 5/5/67 15/15/67 9/9/67 7/7/67
f 9/9/68 15/15/68 13/13/68 11/11/68
f 15/15/69 2/2/69 16/16/69 13/13/69
f 70/86/59 69/85/59 63/79/59 62/78/59
f 69/85/59 68/84/59 74/90/59 73/89/59
f 63/79/59 69/85/59 73/89/59 72/88/59
