mtllib forest_nature_set_all_in.mtl
o forest_Stone_average_01_mossy_Icosphere_009
v -16.154812 -0.000000 12.955462
v -15.258012 -0.000000 12.395111
v -15.205941 -0.000000 13.356241
v -15.936186 -0.000000 12.329351
v -15.329645 -0.000000 11.359621
v -14.756178 -0.000000 11.964400
v -15.764355 -0.000000 11.264771
v -15.051480 0.769734 12.155849
v -15.231901 0.899344 12.224301
v -14.800982 0.670837 12.430711
v -15.981216 0.587148 11.566157
v -15.607517 0.684183 11.534892
v -15.626204 0.489129 11.330542
v -15.672448 0.853427 11.956166
v -15.512215 0.857104 12.416317
v -16.099566 0.587957 12.578252
v -15.522983 0.456947 13.406911
v -15.980563 -0.000000 11.346489
v -15.985577 -0.001636 11.334003
v -15.765598 -0.002059 11.251432
v -15.190989 0.872285 12.562573
v -14.953612 0.702583 12.890078
v -14.945941 0.712638 12.894952
v -15.186597 0.885070 12.563549
v -15.304915 0.561408 13.268106
v -15.116486 0.378517 11.604063
v -15.489998 0.259677 11.264276
v -15.485747 0.261696 11.251565
v -15.107648 0.384550 11.595745
v -15.089028 0.139520 11.552202
v -15.079403 0.137508 11.542873
v -15.299432 0.568382 13.278353
v -15.322942 -0.000721 11.347863
v -14.699975 0.342451 12.186802
v -14.547106 0.175668 12.417171
v -14.745143 0.002278 11.956867
v -14.534872 0.180560 12.413993
v -16.361797 -0.000000 12.275690
v -16.166666 -0.001003 12.961958
v -16.371826 -0.008593 12.278744
v -15.523438 0.464886 13.417888
v -16.349464 0.261811 12.296444
v -16.321907 0.294096 11.937657
v -16.315063 0.072648 12.633630
v -16.252542 0.373456 12.675297
v -14.584679 0.270825 12.780666
v -14.572729 0.276889 12.782701
v -16.107937 0.598262 12.580983
v -15.603401 0.694743 11.527459
v -15.621894 0.495804 11.319562
v -16.263266 0.381044 12.678636
v -16.361366 0.268283 12.296867
v -16.160221 0.420927 11.634104
v -16.188162 0.124122 11.555246
v -16.200323 0.126702 11.549847
v -16.172207 0.425339 11.629563
v -14.805142 0.440016 13.050683
v -14.791682 -0.000000 13.181201
v -15.515270 0.870263 12.417425
v -14.631903 -0.000000 12.968928
v -14.522901 -0.000000 12.545584
v -15.796025 0.265761 11.237567
v -15.797102 0.265287 11.224064
v -16.223888 -0.000000 11.718587
v -15.981538 0.138707 13.267929
v -15.661893 -0.000000 13.455141
v -15.674076 0.866779 11.954494
v -15.393843 0.305639 13.470768
v -15.390786 0.308112 13.483739
v -14.786436 -0.001427 13.193617
v -15.201441 -0.001954 13.368876
v -14.796772 0.447966 13.057784
v -16.169054 0.604458 12.129895
v -16.333780 0.300191 11.935287
v -15.665098 -0.003249 13.467903
v -15.228569 0.587708 11.636703
v -15.221521 0.596097 11.628724
v -15.230290 0.912782 12.223572
v -15.991256 0.136826 13.277188
v -14.688780 0.347568 12.181128
v -14.791362 0.680270 12.429237
v -15.995118 0.269384 11.322152
v -16.325565 0.064810 12.637091
v -16.178724 0.613941 12.130373
v -16.000132 0.267748 11.309668
v -16.052513 0.417308 13.047049
v -15.803053 0.411883 13.360550
v -14.704281 0.571967 12.674459
v -15.635115 0.213639 13.512125
vt 0.927341 0.515579
vt 0.954879 0.515579
vt 0.956478 0.515579
vt 0.934054 0.515579
vt 0.952680 0.515578
vt 0.970289 0.515579
vt 0.939331 0.515578
vt 0.961221 0.903481
vt 0.955681 0.968797
vt 0.968913 0.853643
vt 0.932672 0.811468
vt 0.944147 0.860368
vt 0.943573 0.762071
vt 0.942153 0.945658
vt 0.947073 0.947511
vt 0.929037 0.811876
vt 0.946743 0.745855
vt 0.240797 0.528424
vt 0.233435 0.528424
vt 0.233264 0.527638
vt 0.240754 0.527434
vt 0.260320 0.947590
vt 0.268403 0.866041
vt 0.268664 0.870873
vt 0.260470 0.953733
vt 0.964226 0.869641
vt 0.956937 0.955161
vt 0.953439 0.798496
vt 0.262857 0.710315
vt 0.250139 0.653208
vt 0.250283 0.654179
vt 0.263158 0.713214
vt 0.263792 0.595468
vt 0.264120 0.594501
vt 0.256441 0.798201
vt 0.256628 0.801553
vt 0.255599 0.528424
vt 0.255827 0.528077
vt 0.960068 0.585889
vt 0.959225 0.706329
vt 0.972015 0.688155
vt 0.282245 0.612839
vt 0.275126 0.528424
vt 0.275501 0.529518
vt 0.282661 0.615189
vt 0.220453 0.528424
vt 0.227501 0.528424
vt 0.227098 0.527941
vt 0.220112 0.524294
vt 0.249015 0.748004
vt 0.249000 0.751819
vt 0.920985 0.515579
vt 0.921364 0.647516
vt 0.922210 0.663787
vt 0.922420 0.552189
vt 0.924340 0.703779
vt 0.280965 0.658566
vt 0.281372 0.661479
vt 0.229383 0.810960
vt 0.229098 0.815911
vt 0.245501 0.763468
vt 0.246137 0.857199
vt 0.246277 0.862274
vt 0.245648 0.766677
vt 0.220873 0.654234
vt 0.224174 0.707883
vt 0.223809 0.711529
vt 0.220468 0.657344
vt 0.227317 0.730695
vt 0.226366 0.588069
vt 0.225952 0.589308
vt 0.226909 0.732815
vt 0.968786 0.737322
vt 0.969199 0.515579
vt 0.975555 0.652058
vt 0.249382 0.940295
vt 0.249278 0.946618
vt 0.974105 0.515579
vt 0.977452 0.515579
vt 0.976709 0.604105
vt 0.947756 0.646440
vt 0.239718 0.656132
vt 0.239682 0.655904
vt 0.925220 0.515578
vt 0.926317 0.578129
vt 0.932692 0.515578
vt 0.932662 0.585479
vt 0.942477 0.515579
vt 0.243926 0.938528
vt 0.243871 0.944944
vt 0.273917 0.528424
vt 0.253413 0.675295
vt 0.253517 0.676483
vt 0.274095 0.527738
vt 0.259811 0.528424
vt 0.259964 0.527484
vt 0.273458 0.739868
vt 0.273743 0.743688
vt 0.927175 0.727702
vt 0.926904 0.820192
vt 0.221812 0.669748
vt 0.221407 0.672677
vt 0.244286 0.528424
vt 0.244176 0.526863
vt 0.955783 0.811751
vt 0.258927 0.960592
vt 0.259040 0.810839
vt 0.259280 0.814870
vt 0.258982 0.967050
vt 0.233401 0.595078
vt 0.233071 0.594174
vt 0.277039 0.692984
vt 0.277420 0.695443
vt 0.273600 0.850787
vt 0.273928 0.855319
vt 0.938358 0.649507
vt 0.932245 0.651332
vt 0.222045 0.563333
vt 0.221687 0.559567
vt 0.227017 0.818889
vt 0.226687 0.823446
vt 0.232939 0.657872
vt 0.232768 0.657086
vt 0.950708 0.669603
vt 0.230985 0.728956
vt 0.239479 0.726349
vt 0.276893 0.803276
vt 0.245197 0.631085
vn 0.0000 -1.0000 0.0000
vn 0.5273 0.8300 -0.1819
vn -0.2403 0.7131 -0.6587
vn -0.2617 0.8809 -0.3943
vn -0.3074 0.8835 0.3535
vn 0.0480 -0.9903 0.1301
vn -0.7313 0.2210 0.6453
vn 0.0794 0.9074 0.4127
vn 0.3911 -0.9142 -0.1067
vn 0.2023 0.9710 0.1277
vn -0.6133 0.7336 -0.2927
vn -0.0215 -0.9942 0.1055
vn 0.8010 0.2134 -0.5593
vn 0.3664 -0.9117 0.1858
vn 0.3610 -0.9267 -0.1040
vn -0.5769 0.7263 -0.3737
vn -0.9960 0.0526 -0.0718
vn -0.9652 0.1735 0.1958
vn 0.4079 -0.8722 0.2701
vn 0.6872 0.6187 -0.3808
vn -0.9455 0.2738 -0.1764
vn -0.4495 -0.8189 0.3568
vn 0.4213 0.1962 -0.8855
vn 0.8151 0.1875 0.5481
vn 0.2757 -0.0230 0.9610
vn 0.9684 0.0045 0.2493
vn 0.9828 0.1760 0.0555
vn 0.6124 0.2342 -0.7551
vn -0.8040 0.5930 0.0440
vn -0.9607 -0.1430 -0.2378
vn -0.9523 -0.1036 -0.2870
vn -0.7547 -0.4322 -0.4935
vn -0.8837 0.1211 0.4521
vn -0.9844 0.0369 -0.1722
vn 0.9185 -0.1429 -0.3687
vn 0.3848 0.9084 -0.1632
vn -0.0480 -0.9922 -0.1152
vn 0.2205 -0.7365 0.6395
vn -0.7082 0.6579 -0.2562
vn -0.4923 0.8494 -0.1901
vn -0.4570 -0.8822 -0.1136
vn -0.0413 -0.9792 -0.1985
vn 0.7015 0.5631 -0.4367
vn 0.4167 0.8041 -0.4241
vn 0.9373 -0.3036 0.1709
vn -0.2064 0.9077 0.3653
vn 0.3820 -0.8911 0.2452
vn 0.1216 -0.9850 -0.1224
vn -0.3732 -0.9071 -0.1946
vn -0.2537 0.9549 -0.1544
vn 0.3087 -0.2402 -0.9203
vn -0.3267 0.5770 -0.7485
vn -0.7347 -0.1003 -0.6710
vn -0.6613 0.4748 -0.5807
vn -0.8142 0.2195 -0.5375
vn -0.6311 0.7298 0.2629
vn -0.9918 0.0370 0.1220
vn -0.4077 -0.0522 0.9116
vn -0.3796 0.9198 0.0993
vn -0.2468 -0.1720 -0.9537
vn 0.7696 0.2685 0.5793
vn -0.6373 0.7671 -0.0737
vn -0.4001 -0.8804 0.2546
vn 0.5550 0.7821 -0.2835
vn 0.3108 -0.9086 -0.2791
vn -0.0174 0.9969 -0.0768
vn -0.9271 -0.0163 0.3744
vn 0.0444 -0.9982 -0.0397
vn 0.5217 0.2572 0.8134
vn 0.3321 0.8346 -0.4394
vn 0.8592 0.4485 -0.2462
vn 0.7117 0.5476 -0.4400
vn 0.7314 0.4706 -0.4936
vn 0.1185 0.9277 -0.3541
vn -0.7735 0.6174 0.1430
vn -0.6904 0.6428 0.3317
vn -0.2385 0.9193 0.3130
vn 0.6951 0.6179 0.3676
vn 0.8827 0.4565 -0.1118
vn 0.7923 0.2361 -0.5626
vn 0.8722 0.1583 -0.4629
vn 0.0869 0.3242 -0.9420
vn 0.5397 0.4055 -0.7377
vn 0.4564 0.4825 -0.7476
vn -0.2595 0.4382 0.8606
vn -0.5662 0.1413 0.8121
vn -0.0324 0.3636 0.9310
vn 0.4470 0.4522 0.7718
vn 0.2469 0.5454 0.8010
vn -0.4001 0.9095 0.1127
vn 0.6937 -0.2958 -0.6567
vn 0.3871 -0.1031 0.9163
vn -0.7299 -0.6450 0.2263
vn 0.4326 0.6366 0.6384
vn -0.8171 0.5359 -0.2125
vn 0.3472 0.6620 -0.6643
vn -0.0855 0.9921 0.0919
vn -0.1241 0.9917 0.0351
vn -0.4466 0.8149 0.3695
vn 0.4753 0.8777 0.0603
vn 0.1594 -0.1686 -0.9727
vn 0.5910 0.7943 0.1409
vn -0.3675 -0.1204 -0.9222
vn -0.8775 0.4786 0.0312
vn 0.2021 -0.2265 0.9528
vn -0.7373 0.3250 0.5923
vn -0.5333 -0.0976 0.8403
vn 0.9149 0.4036 -0.0115
vn 0.8009 0.4856 0.3503
vn 0.5963 0.0767 -0.7991
vn -0.8980 0.1904 -0.3966
vn -0.8868 0.0933 0.4527
vn -0.8589 0.1994 0.4717
vn -0.5828 -0.5739 0.5753
usemtl AllColors_Material
f 1/1/1 2/2/1 3/3/1
f 2/2/1 1/1/1 4/4/1
f 5/5/1 6/6/1 7/7/1
f 8/8/2 9/9/2 10/10/2
f 11/11/3 12/12/3 13/13/3
f 12/12/4 11/11/4 14/14/4
f 15/15/5 16/16/5 17/17/5
f 7/18/6 18/19/6 19/20/6 20/21/6
f 21/22/7 22/23/7 23/24/7 24/25/7
f 22/26/8 21/27/8 25/28/8
f 26/29/9 27/30/9 28/31/9 29/32/9
f 27/30/10 30/33/10 31/34/10 28/31/10
f 22/23/11 25/35/11 32/36/11 23/24/11
f 5/37/12 7/18/12 20/21/12 33/38/12
f 30/39/13 26/40/13 34/41/13
f 35/42/14 6/43/14 36/44/14 37/45/14
f 38/46/15 1/47/15 39/48/15 40/49/15
f 25/35/16 17/50/16 41/51/16 32/36/16
f 38/52/17 42/53/17 43/54/17
f 42/53/18 44/55/18 45/56/18
f 46/57/19 35/42/19 37/45/19 47/58/19
f 17/50/20 16/59/20 48/60/20 41/51/20
f 13/61/21 12/62/21 49/63/21 50/64/21
f 42/65/22 45/66/22 51/67/22 52/68/22
f 53/69/23 54/70/23 55/71/23 56/72/23
f 57/73/24 58/74/24 46/75/24
f 16/59/25 15/76/25 59/77/25 48/60/25
f 46/75/26 60/78/26 61/79/26
f 35/80/27 46/75/27 61/79/27
f 26/40/28 30/39/28 27/81/28
f 62/82/29 13/61/29 50/64/29 63/83/29
f 43/54/30 64/84/30 38/52/30
f 43/54/31 54/85/31 64/84/31
f 64/84/32 54/85/32 18/86/32
f 65/87/33 45/56/33 44/55/33
f 3/3/1 66/88/1 1/1/1
f 12/62/34 14/89/34 67/90/34 49/63/34
f 35/80/35 61/79/35 6/6/35
f 4/4/1 1/1/1 38/52/1
f 7/7/1 6/6/1 60/78/1
f 2/2/1 7/7/1 60/78/1
f 58/91/36 68/92/36 69/93/36 70/94/36
f 64/84/1 18/86/1 7/7/1
f 3/95/37 58/91/37 70/94/37 71/96/37
f 57/97/38 46/57/38 47/58/38 72/98/38
f 53/99/39 73/100/39 11/11/39
f 14/14/40 11/11/40 73/100/40
f 43/101/41 42/65/41 52/68/41 74/102/41
f 66/103/42 3/95/42 71/96/42 75/104/42
f 10/10/43 76/105/43 8/8/43
f 9/9/44 8/8/44 76/105/44
f 9/106/45 76/107/45 77/108/45 78/109/45
f 15/15/46 17/17/46 25/28/46 21/27/46
f 68/92/47 57/97/47 72/98/47 69/93/47
f 1/47/48 66/103/48 75/104/48 39/48/48
f 45/66/49 65/110/49 79/111/49 51/67/49
f 30/33/50 34/112/50 80/113/50 31/34/50
f 10/114/51 9/106/51 78/109/51 81/115/51
f 11/11/52 13/13/52 62/116/52 82/117/52
f 18/86/53 54/85/53 82/117/53
f 11/11/54 82/117/54 53/99/54
f 53/99/55 82/117/55 54/85/55
f 76/107/56 10/114/56 81/115/56 77/108/56
f 44/55/57 42/53/57 38/52/57
f 15/76/58 21/22/58 24/25/58 59/77/58
f 65/110/59 44/118/59 83/119/59 79/111/59
f 14/89/60 73/120/60 84/121/60 67/90/60
f 46/75/61 58/74/61 60/78/61
f 44/118/62 38/46/62 40/49/62 83/119/62
f 54/70/63 43/101/63 74/102/63 55/71/63
f 73/120/64 53/69/64 56/72/64 84/121/64
f 34/112/65 26/29/65 29/32/65 80/113/65
f 82/122/66 62/82/66 63/83/66 85/123/66
f 18/19/67 82/122/67 85/123/67 19/20/67
f 6/43/68 5/37/68 33/38/68 36/44/68
f 57/73/69 68/124/69 58/74/69
f 58/74/1 3/3/1 60/78/1
f 60/78/1 6/6/1 61/79/1
f 4/4/1 7/7/1 2/2/1
f 64/84/1 7/7/1 4/4/1
f 38/52/1 64/84/1 4/4/1
f 60/78/1 3/3/1 2/2/1
f 77/108/70 49/63/70 78/109/70
f 80/113/71 81/115/71 37/45/71
f 80/113/72 77/108/72 81/115/72
f 29/32/73 77/108/73 80/113/73
f 49/63/74 67/90/74 78/109/74
f 51/67/75 48/60/75 84/121/75
f 86/125/76 48/60/76 51/67/76
f 41/51/77 48/60/77 87/126/77
f 88/127/78 23/24/78 72/98/78
f 81/115/79 88/127/79 37/45/79
f 31/34/80 80/113/80 36/44/80
f 36/44/81 80/113/81 37/45/81
f 50/64/82 28/31/82 63/83/82
f 28/31/83 77/108/83 29/32/83
f 28/31/84 50/64/84 77/108/84
f 87/126/85 89/128/85 41/51/85
f 89/128/86 87/126/86 79/111/86
f 41/51/87 89/128/87 69/93/87
f 32/36/88 69/93/88 72/98/88
f 41/51/89 69/93/89 32/36/89
f 59/77/90 67/90/90 84/121/90 48/60/90
f 33/38/91 31/34/91 36/44/91
f 70/94/92 69/93/92 71/96/92
f 83/119/93 40/49/93 39/48/93
f 72/98/94 23/24/94 32/36/94
f 74/102/95 84/121/95 56/72/95
f 77/108/96 50/64/96 49/63/96
f 59/77/97 24/25/97 78/109/97
f 78/109/98 67/90/98 59/77/98
f 86/125/99 87/126/99 48/60/99
f 23/24/100 81/115/100 78/109/100 24/25/100
f 28/31/101 33/38/101 20/21/101 63/83/101
f 23/24/102 88/127/102 81/115/102
f 20/21/103 19/20/103 85/123/103 63/83/103
f 52/68/104 51/67/104 84/121/104 74/102/104
f 75/104/105 71/96/105 69/93/105 89/128/105
f 79/111/106 87/126/106 86/125/106
f 75/104/107 89/128/107 79/111/107
f 88/127/108 47/58/108 37/45/108
f 72/98/109 47/58/109 88/127/109
f 33/38/110 28/31/110 31/34/110
f 56/72/111 55/71/111 74/102/111
f 39/48/112 79/111/112 83/119/112
f 86/125/113 51/67/113 79/111/113
f 79/111/114 39/48/114 75/104/114
