mtllib forest_nature_set_all_in.mtl
o forest_Bush_average_bare_Plane_016
v -3.113779 0.002453 12.421804
v -3.296693 0.002453 12.290440
v -3.126008 0.002453 12.120412
v -2.926321 0.002453 12.238759
v -2.923628 0.379296 12.170622
v -3.117430 0.321721 12.123466
v -3.200209 0.481595 12.047230
v -3.069633 0.544227 12.177887
v -3.284313 0.287172 12.317845
v -3.094352 0.325727 12.400299
v -3.354590 0.438872 12.258377
v -3.667472 1.109545 12.190588
v -3.615714 1.138945 12.074574
v -3.223289 0.475750 12.348348
v -2.826864 1.268070 12.363289
v -2.735309 1.214285 12.424242
v -3.751317 1.212088 12.161662
v -3.675123 1.252844 12.217393
v -3.925795 1.515380 12.145039
v -3.981699 1.485331 12.103169
v -3.513177 1.189852 12.108521
v -3.584474 1.157792 12.244199
v -2.797507 1.334322 12.513220
v -2.714558 1.288971 12.565926
v -2.393764 1.656877 12.641622
v -2.465523 1.690784 12.605473
v -2.888782 1.237914 12.493552
v -2.802187 1.188663 12.551902
v -3.749051 0.000000 11.892048
v -3.811527 0.000000 11.669319
v -3.547147 0.000000 11.619858
v -3.513306 0.000000 11.842587
v -2.652778 0.000000 12.083114
v -2.637159 0.000000 11.852574
v -2.406620 0.000000 11.878607
v -2.409223 0.000000 12.127368
v -3.480475 0.000000 13.064156
v -3.490888 0.000000 12.851839
v -3.229111 0.000000 12.883078
v -3.265556 0.000000 13.090187
v -3.673476 0.329715 11.498820
v -3.820306 0.446640 11.480076
v -3.557184 0.837749 11.391935
v -3.469944 0.792970 11.394960
v -2.297739 0.345190 12.029319
v -2.323108 0.271306 11.798335
v -2.298612 0.408882 11.661946
v -2.284282 0.488002 11.841774
v -3.312638 0.310098 13.167366
v -3.322661 0.316334 12.930264
v -3.038302 0.773866 12.924643
v -2.998615 0.811848 13.101868
v -2.536844 0.258265 11.792968
v -2.524216 0.314824 12.034064
v -3.557930 0.290979 12.926645
v -3.613274 0.338596 11.697723
v -3.839601 0.261562 11.768786
v -3.553761 0.288334 13.138988
v -3.914253 0.251583 11.568926
v -3.745718 0.467551 11.673117
v -4.368464 1.128856 11.328610
v -4.336999 1.143237 11.424711
v -3.905072 0.358166 11.746725
v -3.993363 0.332916 11.553894
v -4.466250 1.234470 11.319551
v -4.542531 1.174430 11.406385
v -4.790933 1.630117 11.515549
v -4.702067 1.698449 11.484841
v -4.428250 1.064757 11.506241
v -4.473127 1.050475 11.413563
v -3.260152 1.755846 11.607944
v -3.182013 1.730818 11.607319
v -3.514928 0.854307 11.490166
v -3.433577 0.801867 11.496473
v -3.425724 0.470863 13.227818
v -3.407159 0.439373 13.052755
v -3.800493 1.144646 13.284792
v -3.834263 1.145807 13.427599
v -3.614230 0.450668 13.204384
v -3.615596 0.404868 13.039669
v -3.426817 0.906789 12.554426
v -3.458001 0.938645 12.634196
v -3.963041 1.221891 13.352308
v -3.871507 1.259350 13.363708
v -4.059426 2.097663 13.309233
v -4.126583 2.076785 13.297731
v -3.929919 1.106956 13.415062
v -3.916614 1.099814 13.261404
v -3.389196 1.331676 12.352471
v -3.356650 1.313897 12.291254
v -3.335724 1.415565 12.225095
v -3.368673 1.428497 12.281048
v -3.542177 0.878811 12.553065
v -3.573027 0.904022 12.623031
v -3.092002 0.946332 13.064022
v -3.000863 0.898180 13.045816
v -2.920927 1.457471 12.785218
v -3.000548 1.504476 12.809121
v -3.096524 0.824636 12.997114
v -3.091125 0.861234 13.120314
v -2.511185 0.391821 11.675642
v -2.417566 0.943513 10.987283
v -2.259615 0.946219 11.074320
v -2.508116 0.453324 11.868100
v -1.813159 1.168150 12.210285
v -1.816273 1.117344 12.321919
v -2.267230 1.086288 11.096361
v -2.282243 1.049843 11.015369
v -2.283567 1.876374 10.665817
v -2.257099 1.904624 10.750725
v -2.246181 0.989225 11.172061
v -2.399897 0.976951 11.086798
v -1.928791 1.166503 12.238223
v -1.933987 1.116405 12.339961
v -1.608015 1.828536 12.382707
v -1.594575 1.877075 12.281857
v -1.537152 1.929892 12.365832
v -1.546329 1.979959 12.254132
v -1.810345 2.827620 12.251812
v -1.465617 1.871341 12.254132
v -1.456374 1.821285 12.365832
v -1.210917 2.390052 12.240663
v -1.638706 1.960509 12.382707
v -1.625203 2.009031 12.281857
v -2.405412 1.049392 10.932923
v -2.386443 1.078083 11.022690
v -2.369580 1.947513 10.736317
v -2.394784 1.925560 10.664532
v -2.231859 2.012784 10.725826
v -2.255120 1.991362 10.640134
v -2.100740 2.517842 10.943200
v -2.091671 2.502424 11.036046
v -2.186014 2.542423 10.935061
v -2.182568 2.526301 11.022441
v -2.281612 2.954014 11.251055
v -2.341508 2.029226 10.641692
v -2.319352 2.047164 10.721169
v -2.701794 2.334320 10.566139
v -2.676349 2.338615 10.635349
v -2.896929 1.271207 10.730904
v -2.832056 1.333362 10.726131
v -2.745214 2.288395 10.652043
v -2.956172 2.775600 10.567816
v -3.018967 2.759495 10.578033
v -2.771903 2.282488 10.579588
v -2.976526 2.779422 10.517433
v -2.949312 3.359972 10.764748
v -3.039750 2.763596 10.525989
v -2.867374 1.281533 10.815775
v -3.137960 1.878241 10.829486
v -2.802385 1.335709 10.806629
v -3.158668 1.746490 11.686840
v -3.193323 1.838800 11.687530
v -3.214762 1.823753 11.614414
v -3.343447 2.395371 11.421359
v -3.331100 2.409966 11.473557
v -3.231105 1.772613 11.683083
v -3.572260 2.765898 11.494625
v -3.274653 1.851200 11.612539
v -3.247830 1.867701 11.682875
v -3.392419 2.427570 11.469093
v -3.405303 2.410615 11.421415
v -2.932138 2.035241 11.499489
v -4.500051 1.189411 11.493687
v -4.436117 1.249012 11.412931
v -4.673511 1.706112 11.571074
v -4.751348 1.638003 11.604742
v -4.799520 1.738530 11.606082
v -4.741566 1.789835 11.573195
v -5.064499 2.183268 11.569818
v -5.132724 2.151157 11.598164
v -5.117695 2.683038 11.548769
v -4.769449 1.783287 11.488694
v -5.089184 2.183059 11.497208
v -4.838023 1.733453 11.523195
v -5.166085 2.147582 11.528458
v -5.139282 1.541864 11.572969
v -5.172326 1.551009 11.494436
v -4.163899 1.709350 11.028860
v -4.155780 1.734462 11.101090
v -5.168514 1.649907 11.501671
v -5.474335 1.830613 11.494953
v -5.136972 1.639327 11.576178
v -4.295555 1.771616 11.048644
v -4.307755 1.752699 10.983391
v -4.315318 1.890704 10.928117
v -4.233861 1.856088 10.974922
v -4.224319 2.348717 10.762408
v -4.333590 2.337337 10.762581
v -4.309128 2.403240 10.709991
v -4.384778 2.403219 10.734332
v -4.512061 2.653367 10.834629
v -4.434176 2.693202 10.834547
v -4.238371 1.831920 10.909399
v -4.225124 2.327229 10.693616
v -4.322752 1.871943 10.872309
v -4.342351 2.319582 10.692539
v -4.434904 2.711541 10.898034
v -4.718642 2.898544 10.911425
v -4.379022 2.419327 10.798447
v -4.513563 2.670628 10.892894
v -4.310212 2.421708 10.779182
v -3.955713 2.731632 10.716748
v -4.040914 2.754734 10.717045
v -3.706782 2.081840 11.289044
v -3.712449 2.097654 11.326982
v -3.949872 2.721004 10.669396
v -4.032376 2.744432 10.673077
v -3.835972 3.142072 10.863155
v -3.782806 2.141684 11.310614
v -3.777561 2.127397 11.266163
v -3.599908 2.419330 11.419685
v -2.789569 2.276541 12.215383
v -2.817698 2.275217 12.248261
v -3.462248 1.318840 12.281347
v -3.416389 1.417251 12.215178
v -3.817338 1.804501 12.306139
v -3.765516 1.883733 12.261286
v -3.488294 1.338114 12.334608
v -3.442870 1.432202 12.261950
v -2.560821 2.638474 12.270392
v -2.843395 2.283010 12.190518
v -2.875578 2.275163 12.217525
v -3.830046 1.838813 12.342893
v -3.777725 1.902642 12.294274
v -3.900227 2.346785 12.315917
v -3.853975 1.264317 13.321609
v -4.043303 2.111893 13.236769
v -4.096772 2.455641 13.048433
v -3.964238 1.220940 13.299471
v -4.119765 2.087111 13.222664
v -3.800108 1.606058 12.828117
v -3.848775 1.661604 12.898664
v -4.039654 1.514810 13.684607
v -4.085735 1.489206 13.690792
v -3.914470 2.027921 12.565187
v -3.923503 1.617685 12.884155
v -3.878936 1.561434 12.807303
v -4.060658 1.539108 13.623119
v -4.140488 1.961627 13.792721
v -4.104769 1.514674 13.629202
v -3.080411 0.926847 12.984898
v -3.000104 1.471211 12.734501
v -2.756100 2.067397 12.748515
v -2.755915 2.044644 12.686649
v -3.022994 0.878025 12.908049
v -2.946698 1.423782 12.682577
v -2.572218 2.454433 12.654005
v -2.715043 2.005167 12.643670
v -2.695055 2.024713 12.728804
v -2.815238 1.226241 13.506329
v -2.905689 1.261557 13.511065
v -2.809818 1.368785 13.475239
v -2.883648 1.397812 13.475332
v -2.736189 1.754098 13.660084
v -2.672903 1.738330 13.661007
v -2.921089 1.307349 13.428421
v -2.833911 1.273615 13.424295
v -2.717138 1.748201 13.726629
v -2.652798 1.732037 13.727835
v -2.641682 2.247915 13.555910
v -2.867509 1.360099 13.554714
v -2.791084 1.329700 13.554258
v -2.499369 1.349327 13.384535
v -2.484178 1.296825 13.345724
v -2.483367 1.325067 13.430784
v -2.233078 1.573615 13.386492
v -2.466177 1.267766 13.393221
v -2.371603 1.648202 12.551880
v -2.451671 1.682117 12.514299
v -2.033887 2.026474 12.287867
v -1.955968 2.005150 12.328070
v -2.757890 1.353848 12.415277
v -2.669777 1.304985 12.470432
v -2.036172 2.044707 12.374496
v -1.965993 2.025722 12.411070
v -1.659410 2.446920 12.570773
v -2.469707 1.477822 12.103552
v -2.425481 1.557988 12.169648
v -2.499483 1.602317 12.126060
v -2.173852 1.999687 11.933560
v -2.545665 1.532752 12.053435
v -3.710639 1.234477 12.100009
v -3.945544 1.512566 12.041062
v -4.089226 1.932587 11.934239
v -4.139516 1.938226 11.891014
v -3.619010 1.278730 12.134657
v -3.884694 1.548608 12.080900
v -4.095071 1.961710 11.846975
v -3.988590 2.639028 11.854794
v -4.038290 1.958997 11.890515
v -3.854880 1.488332 11.637074
v -3.805246 1.446465 11.588308
v -3.797760 1.519081 11.645334
v -4.016900 1.809132 11.334839
v -3.743005 1.480601 11.596298
vt 0.461899 0.513408
vt 0.462403 0.513408
vt 0.469848 0.513408
vt 0.469764 0.513408
vt 0.473363 0.636001
vt 0.472544 0.609763
vt 0.473365 0.660790
vt 0.473823 0.687309
vt 0.465643 0.605130
vt 0.466050 0.625217
vt 0.466490 0.653540
vt 0.472992 0.892097
vt 0.476575 0.895584
vt 0.466581 0.674488
vt 0.483393 0.944487
vt 0.483550 0.926493
vt 0.472992 0.892098
vt 0.473158 0.905473
vt 0.473158 0.905473
vt 0.472992 0.892097
vt 0.476973 0.910138
vt 0.473158 0.905473
vt 0.479713 0.937471
vt 0.479801 0.919609
vt 0.479801 0.919609
vt 0.479713 0.937471
vt 0.479713 0.937471
vt 0.479801 0.919609
vt 0.437638 0.513408
vt 0.435621 0.513408
vt 0.444158 0.513408
vt 0.445250 0.513408
vt 0.461899 0.513408
vt 0.462403 0.513408
vt 0.469848 0.513408
vt 0.469764 0.513408
vt 0.444126 0.513408
vt 0.443790 0.513408
vt 0.452243 0.513408
vt 0.451067 0.513408
vt 0.440078 0.630505
vt 0.435337 0.672032
vt 0.443803 0.809890
vt 0.446664 0.794912
vt 0.473363 0.636001
vt 0.472544 0.609763
vt 0.473365 0.660790
vt 0.473823 0.687309
vt 0.449546 0.623539
vt 0.449223 0.625753
vt 0.458351 0.793554
vt 0.459170 0.799423
vt 0.465643 0.605130
vt 0.466050 0.625217
vt 0.441625 0.616749
vt 0.442022 0.633659
vt 0.434714 0.606301
vt 0.441760 0.615848
vt 0.432303 0.602757
vt 0.437746 0.679458
vt 0.417658 0.909846
vt 0.418787 0.911995
vt 0.432600 0.640610
vt 0.429749 0.631643
vt 0.417658 0.909846
vt 0.414446 0.884825
vt 0.414446 0.884824
vt 0.417658 0.909846
vt 0.415939 0.889660
vt 0.414446 0.884824
vt 0.443803 0.809890
vt 0.446664 0.794912
vt 0.445150 0.815890
vt 0.447827 0.798118
vt 0.445894 0.681509
vt 0.446494 0.670017
vt 0.433564 0.926222
vt 0.432604 0.931193
vt 0.439807 0.675089
vt 0.439763 0.658324
vt 0.445640 0.821344
vt 0.444655 0.835982
vt 0.429393 0.923657
vt 0.432604 0.931193
vt 0.432604 0.931193
vt 0.429393 0.923658
vt 0.429393 0.923658
vt 0.429652 0.917057
vt 0.444655 0.835982
vt 0.445640 0.821344
vt 0.445640 0.821344
vt 0.444655 0.835982
vt 0.441687 0.809967
vt 0.440754 0.822752
vt 0.456611 0.822442
vt 0.459170 0.799423
vt 0.459170 0.799423
vt 0.456611 0.822442
vt 0.456632 0.813325
vt 0.456611 0.822442
vt 0.466490 0.653540
vt 0.472992 0.892097
vt 0.476575 0.895584
vt 0.466581 0.674488
vt 0.483393 0.944487
vt 0.483550 0.926493
vt 0.476973 0.910138
vt 0.476575 0.895584
vt 0.476575 0.895584
vt 0.476973 0.910138
vt 0.476973 0.910138
vt 0.473158 0.905473
vt 0.479713 0.937471
vt 0.479801 0.919609
vt 0.479801 0.919609
vt 0.479713 0.937471
vt 0.483550 0.926493
vt 0.483393 0.944487
vt 0.483550 0.926493
vt 0.483393 0.944487
vt 0.483550 0.926493
vt 0.483550 0.926493
vt 0.479801 0.919610
vt 0.479801 0.919609
vt 0.479713 0.937471
vt 0.479713 0.937471
vt 0.483393 0.944487
vt 0.472992 0.892097
vt 0.473158 0.905473
vt 0.473158 0.905473
vt 0.472992 0.892097
vt 0.483393 0.944487
vt 0.476972 0.910138
vt 0.476575 0.895584
vt 0.476575 0.895584
vt 0.476973 0.910138
vt 0.472992 0.892097
vt 0.473158 0.905473
vt 0.472992 0.892097
vt 0.472992 0.892097
vt 0.473158 0.905473
vt 0.476973 0.910138
vt 0.473158 0.905473
vt 0.476575 0.895584
vt 0.472992 0.892097
vt 0.473158 0.905473
vt 0.472992 0.892097
vt 0.472992 0.892097
vt 0.473158 0.905473
vt 0.473158 0.905473
vt 0.473158 0.905473
vt 0.472992 0.892097
vt 0.472992 0.892097
vt 0.473158 0.905473
vt 0.472992 0.892097
vt 0.473158 0.905473
vt 0.472992 0.892097
vt 0.472992 0.892097
vt 0.473158 0.905473
vt 0.447827 0.798118
vt 0.473158 0.905473
vt 0.447827 0.798118
vt 0.446664 0.794912
vt 0.446664 0.794912
vt 0.447827 0.798118
vt 0.445150 0.815890
vt 0.447827 0.798118
vt 0.443803 0.809891
vt 0.445150 0.815890
vt 0.445150 0.815890
vt 0.443803 0.809890
vt 0.446664 0.794912
vt 0.443803 0.809890
vt 0.445150 0.815890
vt 0.447827 0.798118
vt 0.415939 0.889661
vt 0.418787 0.911996
vt 0.418787 0.911995
vt 0.415939 0.889660
vt 0.446664 0.794912
vt 0.415939 0.889660
vt 0.418787 0.911995
vt 0.418787 0.911995
vt 0.415939 0.889660
vt 0.415939 0.889660
vt 0.417658 0.909847
vt 0.417658 0.909846
vt 0.414446 0.884824
vt 0.414446 0.884824
vt 0.415939 0.889660
vt 0.414446 0.884824
vt 0.417658 0.909846
vt 0.414446 0.884824
vt 0.418787 0.911995
vt 0.417658 0.909846
vt 0.418787 0.911995
vt 0.414446 0.884824
vt 0.414446 0.884824
vt 0.415939 0.889660
vt 0.418787 0.911996
vt 0.417658 0.909846
vt 0.415939 0.889660
vt 0.418787 0.911995
vt 0.418787 0.911996
vt 0.418787 0.911995
vt 0.418787 0.911996
vt 0.417658 0.909847
vt 0.417658 0.909846
vt 0.417658 0.909846
vt 0.417658 0.909846
vt 0.417658 0.909846
vt 0.417658 0.909846
vt 0.417658 0.909846
vt 0.417658 0.909846
vt 0.418787 0.911995
vt 0.418787 0.911995
vt 0.418787 0.911996
vt 0.418787 0.911996
vt 0.418787 0.911995
vt 0.418787 0.911995
vt 0.418787 0.911995
vt 0.417658 0.909846
vt 0.417658 0.909846
vt 0.418787 0.911995
vt 0.417658 0.909846
vt 0.417658 0.909847
vt 0.417658 0.909846
vt 0.418787 0.911996
vt 0.417658 0.909846
vt 0.418787 0.911995
vt 0.417658 0.909846
vt 0.418787 0.911995
vt 0.445640 0.821344
vt 0.444655 0.835982
vt 0.441687 0.809967
vt 0.441687 0.809967
vt 0.441687 0.809967
vt 0.441687 0.809967
vt 0.440754 0.822752
vt 0.440754 0.822752
vt 0.444655 0.835982
vt 0.441687 0.809967
vt 0.440754 0.822752
vt 0.445640 0.821344
vt 0.441687 0.809967
vt 0.440754 0.822752
vt 0.440754 0.822752
vt 0.440754 0.822752
vt 0.440754 0.822752
vt 0.433564 0.926222
vt 0.433564 0.926222
vt 0.441687 0.809967
vt 0.429393 0.923658
vt 0.429652 0.917057
vt 0.429652 0.917057
vt 0.433564 0.926222
vt 0.429652 0.917057
vt 0.432604 0.931193
vt 0.433564 0.926222
vt 0.433564 0.926222
vt 0.432604 0.931193
vt 0.429393 0.923658
vt 0.433564 0.926222
vt 0.429652 0.917057
vt 0.429652 0.917057
vt 0.432604 0.931193
vt 0.429652 0.917057
vt 0.429393 0.923658
vt 0.429393 0.923657
vt 0.456632 0.813326
vt 0.456632 0.813325
vt 0.432604 0.931193
vt 0.456611 0.822442
vt 0.456632 0.813325
vt 0.458351 0.793554
vt 0.458351 0.793554
vt 0.456632 0.813325
vt 0.458351 0.793554
vt 0.459170 0.799423
vt 0.456611 0.822442
vt 0.459170 0.799423
vt 0.458351 0.793554
vt 0.459170 0.799423
vt 0.456611 0.822442
vt 0.459170 0.799423
vt 0.456611 0.822442
vt 0.456611 0.822442
vt 0.459170 0.799423
vt 0.456611 0.822442
vt 0.459170 0.799423
vt 0.456611 0.822442
vt 0.459170 0.799423
vt 0.456611 0.822442
vt 0.456612 0.822443
vt 0.459170 0.799424
vt 0.459170 0.799423
vt 0.459170 0.799423
vt 0.459170 0.799423
vt 0.459170 0.799424
vt 0.459170 0.799423
vt 0.459170 0.799423
vt 0.483550 0.926493
vt 0.483393 0.944487
vt 0.483393 0.944487
vt 0.483550 0.926493
vt 0.483393 0.944487
vt 0.483550 0.926493
vt 0.479713 0.937471
vt 0.479801 0.919609
vt 0.479713 0.937471
vt 0.483550 0.926493
vt 0.483550 0.926493
vt 0.483393 0.944487
vt 0.483550 0.926493
vt 0.479801 0.919609
vt 0.483393 0.944487
vt 0.483393 0.944487
vt 0.483393 0.944487
vt 0.476575 0.895584
vt 0.476575 0.895584
vt 0.483550 0.926493
vt 0.473158 0.905473
vt 0.472992 0.892097
vt 0.476973 0.910138
vt 0.476973 0.910138
vt 0.476575 0.895584
vt 0.476575 0.895584
vt 0.476973 0.910138
vt 0.472992 0.892097
vt 0.476973 0.910138
vt 0.473158 0.905473
vt 0.476575 0.895584
vt 0.476575 0.895584
vt 0.476973 0.910138
vt 0.476575 0.895584
vt 0.476973 0.910138
vt 0.476973 0.910138
vn 0.0000 -1.0000 -0.0000
vn 0.4418 0.1225 -0.8887
vn -0.7351 0.0596 -0.6753
vn -0.4987 0.0177 0.8666
vn 0.7499 0.0606 0.6587
vn 0.3975 -0.0918 -0.9130
vn -0.7258 -0.4148 -0.5488
vn -0.4749 0.0114 0.8799
vn -0.6014 -0.5485 -0.5809
vn 0.3561 0.1608 -0.9205
vn -0.4919 -0.2371 0.8378
vn 0.6337 0.4649 0.6183
vn 0.4608 0.2766 -0.8433
vn -0.5099 -0.1463 0.8477
vn -0.4219 0.1739 0.8898
vn -0.8000 0.4085 -0.4395
vn -0.4484 0.0097 0.8938
vn 0.8157 -0.3422 0.4665
vn -0.0443 -0.1960 -0.9796
vn 0.9849 -0.1701 -0.0318
vn 0.8449 -0.5315 -0.0606
vn 0.0758 -0.2792 -0.9572
vn -0.9307 0.3624 -0.0494
vn 0.0576 0.2112 -0.9757
vn 0.1562 0.4438 0.8824
vn -0.9695 -0.2430 0.0318
vn -0.0971 0.2500 0.9634
vn 0.9477 0.2348 -0.2163
vn -0.1018 -0.2641 0.9591
vn 0.9535 -0.3013 0.0011
vn -0.1512 -0.4034 -0.9025
vn 0.9764 0.2071 0.0610
vn -0.9272 -0.2159 0.3060
vn 0.7662 0.5408 -0.3471
vn -0.7587 -0.5407 0.3633
vn -0.1627 -0.3430 -0.9251
vn 0.1779 0.3467 0.9210
vn -0.5558 -0.0449 -0.8301
vn -0.7886 -0.4407 0.4288
vn -0.2532 -0.3721 -0.8930
vn 0.1912 0.4607 0.8667
vn 0.0964 0.1949 -0.9761
vn -0.7801 0.5784 0.2385
vn 0.8624 -0.4394 -0.2512
vn 0.1570 0.3428 0.9262
vn 0.8734 0.4778 0.0947
vn -0.9026 -0.4261 0.0620
vn 0.9065 0.3253 0.2693
vn -0.0718 -0.3953 0.9158
vn -0.1541 0.0316 0.9875
vn -0.9046 -0.4246 0.0367
vn 0.0280 0.3207 -0.9468
vn -0.0531 -0.3205 0.9458
vn 0.8796 0.1330 0.4568
vn 0.0925 -0.5294 -0.8433
vn -0.9321 -0.1789 -0.3149
vn -0.1909 0.6289 0.7537
vn 0.3968 0.3336 0.8551
vn -0.5763 0.3533 -0.7369
vn -0.7748 0.6081 -0.1730
vn 0.3163 -0.0462 0.9475
vn 0.1652 -0.7586 -0.6303
vn -0.9891 0.1473 -0.0043
vn 0.0343 -0.6862 -0.7266
vn 0.8581 -0.4515 -0.2446
vn 0.9739 -0.0928 -0.2073
vn -0.1874 0.8111 0.5540
vn 0.9910 -0.1263 -0.0436
vn -0.9811 0.1934 0.0068
vn -0.9035 0.4121 0.1175
vn -0.1888 0.5673 -0.8016
vn -0.8159 0.5013 0.2883
vn 0.0974 -0.4110 0.9064
vn 0.9533 0.2971 0.0548
vn -0.2163 0.1639 -0.9625
vn 0.8775 -0.4276 -0.2172
vn 0.1248 -0.1207 0.9848
vn 0.1823 0.1356 0.9738
vn 0.2157 0.1874 0.9583
vn -0.9464 -0.2226 -0.2338
vn -0.3675 -0.1170 -0.9227
vn -0.2756 -0.1275 -0.9528
vn -0.9474 -0.2201 -0.2325
vn 0.1415 0.0655 0.9878
vn 0.8630 -0.4306 -0.2644
vn -0.9675 0.0903 0.2362
vn -0.0210 -0.0156 -0.9997
vn -0.7253 0.6040 0.3303
vn 0.9692 -0.1787 -0.1695
vn 0.2556 -0.3310 -0.9083
vn -0.2893 0.3397 0.8949
vn -0.9746 -0.2241 -0.0029
vn -0.9693 0.1976 0.1466
vn -0.2400 -0.4682 0.8504
vn 0.1949 0.4437 -0.8747
vn -0.0180 0.1955 0.9805
vn 0.9174 0.3972 -0.0237
vn -0.2554 -0.5011 0.8268
vn 0.2508 0.6255 -0.7388
vn -0.0833 -0.1861 -0.9790
vn 0.6481 0.6950 -0.3114
vn 0.9424 -0.2711 -0.1958
vn -0.4638 0.4987 0.7322
vn 0.4766 -0.3997 -0.7830
vn 0.1873 -0.4014 -0.8965
vn 0.9777 0.0835 -0.1927
vn 0.0938 0.2089 0.9734
vn -0.6755 -0.6398 0.3666
vn 0.0046 -0.2307 -0.9730
vn -0.0282 0.2291 0.9730
vn 0.9243 0.1121 -0.3649
vn -0.0827 -0.1571 -0.9841
vn 0.8213 0.4747 -0.3164
vn -0.8397 -0.4339 0.3265
vn -0.6443 -0.6905 0.3289
vn -0.9289 -0.0074 0.3703
vn 0.2303 -0.3132 0.9214
vn -0.2189 0.3911 -0.8940
vn -0.1630 0.0948 -0.9821
vn -0.1631 0.4871 0.8580
vn 0.6191 0.7222 -0.3085
vn 0.9349 -0.2199 -0.2785
vn -0.8519 -0.3942 0.3446
vn 0.1152 0.0294 0.9929
vn 0.8025 0.5095 -0.3106
vn 0.9510 0.1203 -0.2849
vn -0.1445 -0.1577 0.9769
vn -0.9170 0.2153 0.3358
vn 0.7710 0.5422 -0.3340
vn -0.9332 -0.1051 0.3438
vn 0.0753 0.3691 0.9263
vn -0.1058 -0.3415 -0.9339
vn -0.0762 -0.0235 0.9968
vn 0.0549 0.2262 -0.9725
vn -0.8047 -0.4564 0.3797
vn -0.1098 -0.1327 0.9851
vn 0.0360 0.0709 -0.9968
vn -0.9092 -0.1580 0.3853
vn 0.7532 -0.6512 -0.0928
vn 0.5844 0.0752 0.8080
vn 0.4848 0.1756 0.8568
vn -0.3441 -0.0497 -0.9376
vn -0.5965 0.8025 0.0098
vn 0.2865 0.2462 0.9259
vn 0.7910 0.5197 -0.3227
vn -0.7496 -0.5154 0.4153
vn 0.3515 0.0767 0.9330
vn 0.7460 0.6062 -0.2757
vn -0.7248 -0.5785 0.3742
vn -0.2932 -0.2176 -0.9310
vn 0.2278 -0.9679 -0.1059
vn -0.4035 0.0711 -0.9122
vn -0.9014 0.0652 0.4281
vn 0.9431 0.0869 -0.3209
vn -0.2989 -0.1240 -0.9462
vn 0.7397 0.6048 -0.2949
vn 0.3051 0.1749 0.9361
vn -0.7909 -0.4134 0.4511
vn 0.9195 -0.3714 -0.1291
vn 0.4518 0.4183 0.7880
vn -0.4588 -0.3906 -0.7980
vn 0.0635 0.0704 -0.9955
vn 0.0409 0.0820 -0.9958
vn -0.0739 -0.0400 0.9965
vn -0.2718 0.9499 0.1542
vn -0.9129 0.3733 0.1649
vn -0.6660 -0.7197 0.1964
vn 0.5080 0.8563 -0.0935
vn -0.2479 -0.0260 0.9684
vn -0.1787 0.3659 0.9133
vn -0.0953 -0.4749 -0.8749
vn 0.0736 0.5086 0.8579
vn -0.2222 0.2844 -0.9326
vn 0.9990 -0.0350 -0.0276
vn -0.9920 0.0066 0.1258
vn 0.1119 -0.3838 -0.9166
vn 0.5279 0.8175 -0.2301
vn -0.8457 -0.5066 0.1675
vn 0.8960 0.4310 -0.1073
vn 0.1746 -0.2875 0.9417
vn 0.1284 0.0527 0.9903
vn -0.0156 -0.0950 0.9954
vn -0.1094 0.2120 -0.9711
vn -0.7241 -0.6661 0.1787
vn 0.1228 -0.2243 0.9668
vn -0.8138 -0.5365 0.2235
vn -0.1257 0.2502 -0.9600
vn 0.0113 -0.6878 -0.7258
vn -0.9875 0.0089 0.1574
vn 0.5066 -0.8118 0.2903
vn -0.0956 0.6932 0.7143
vn 0.0730 0.4006 -0.9134
vn -0.1166 0.0050 -0.9932
vn -0.7739 0.5949 -0.2171
vn 0.8124 -0.5520 0.1879
vn -0.3294 0.8906 -0.3136
vn -0.0817 -0.3136 0.9460
vn 0.9224 -0.3366 0.1893
vn -0.8010 0.5293 -0.2796
vn -0.7467 0.6025 -0.2818
vn 0.6153 -0.1270 -0.7780
vn -0.5983 0.1423 0.7885
vn 0.4200 0.2089 -0.8832
vn 0.8730 -0.3899 0.2929
vn -0.3168 -0.1586 0.9351
vn 0.7107 -0.4430 0.5465
vn 0.0673 -0.5659 -0.8217
vn -0.4583 -0.2760 -0.8449
vn -0.1276 0.6252 0.7700
vn 0.6660 -0.5045 0.5495
vn 0.2368 -0.1725 -0.9561
vn -0.6847 0.4332 -0.5861
vn -0.3343 0.2626 0.9052
vn -0.9157 -0.0799 -0.3939
vn 0.4047 -0.1180 -0.9068
vn -0.5967 0.5953 -0.5381
vn -0.4520 0.2678 0.8508
vn -0.1840 0.5808 0.7930
vn 0.0992 -0.5438 -0.8334
vn 0.9194 0.0995 0.3806
vn 0.5901 0.1239 0.7977
vn 0.4978 0.3130 0.8088
vn -0.8168 -0.5768 -0.0083
vn 0.8048 0.5753 0.1462
vn 0.9221 0.2319 0.3098
vn 0.9458 0.2508 0.2063
vn -0.9690 -0.1445 -0.2002
vn -0.5848 -0.0748 -0.8077
vn -0.3025 0.5404 0.7851
vn -0.9809 -0.1862 -0.0568
vn 0.2080 -0.0503 -0.9768
vn -0.9440 -0.3273 -0.0425
vn 0.2952 -0.4234 -0.8565
vn -0.9959 0.0207 -0.0876
vn 0.9217 0.2866 0.2614
vn 0.8905 0.3227 0.3207
vn 0.8908 0.3761 0.2549
vn 0.1918 -0.5047 0.8417
vn 0.8693 0.4088 0.2778
vn -0.4343 0.6657 0.6068
vn -0.9074 -0.2553 -0.3339
vn 0.4371 -0.6408 -0.6311
vn 0.8826 0.4603 0.0960
vn -0.9057 -0.2476 -0.3440
vn -0.4593 0.5515 0.6963
vn 0.4345 -0.3886 -0.8125
vn 0.2284 -0.1800 0.9568
vn -0.2377 0.5873 -0.7737
vn -0.9254 -0.3771 -0.0376
vn -0.9884 0.1024 -0.1125
vn -0.9598 -0.1609 0.2301
vn 0.9398 0.2645 -0.2165
vn -0.2950 0.3074 -0.9047
vn -0.9124 0.3772 -0.1590
vn -0.7998 -0.1399 -0.5837
vn 0.9682 -0.2019 -0.1477
vn -0.9068 0.3947 -0.1479
vn -0.6036 0.1906 -0.7742
vn 0.9192 -0.3759 -0.1174
vn 0.2848 -0.0193 0.9584
vn -0.7800 0.0315 -0.6250
vn 0.3467 0.0638 0.9358
vn 0.9427 -0.2962 -0.1533
vn -0.6049 0.2100 -0.7681
vn 0.9771 -0.1309 -0.1676
vn -0.9968 0.0635 -0.0481
vn -0.2002 -0.6364 0.7449
vn 0.1383 0.4068 -0.9030
vn -0.9465 0.1722 0.2731
vn 0.9490 -0.1421 -0.2813
vn 0.2051 0.6469 -0.7345
vn 0.0612 0.3144 0.9473
vn -0.1237 -0.3591 0.9250
vn 0.9326 -0.1894 -0.3073
vn -0.9279 0.2310 0.2928
vn -0.2154 0.5166 -0.8287
vn 0.9476 -0.1192 -0.2963
vn -0.9279 0.2381 0.2868
vn -0.0355 -0.1998 -0.9792
vn -0.9269 0.2281 0.2980
vn -0.1206 -0.3788 0.9176
vn 0.1420 0.4244 -0.8943
vn -0.5488 0.6470 0.5293
vn 0.3243 -0.4551 0.8293
vn 0.1753 0.8973 0.4051
vn -0.0557 -0.8667 -0.4957
vn 0.6532 -0.5101 -0.5596
vn 0.5008 -0.3644 0.7851
vn -0.3911 0.4712 -0.7906
vn 0.1415 -0.6484 -0.7480
vn -0.7000 0.6965 -0.1579
vn 0.4239 -0.1411 -0.8947
vn 0.7085 -0.6674 0.2296
vn -0.4621 0.0001 0.8868
vn 0.7048 -0.6661 0.2441
vn -0.1425 0.6472 0.7489
vn -0.6798 0.7135 -0.1696
vn 0.7861 -0.6007 0.1457
vn -0.6770 0.7164 -0.1686
vn 0.4851 0.1478 -0.8619
vn 0.7373 -0.6296 0.2451
vn 0.7196 -0.6522 0.2384
vn -0.7074 0.6872 -0.1651
vn -0.4322 0.2444 0.8680
vn -0.1658 0.5367 0.8273
vn 0.0282 0.7497 0.6612
vn -0.0443 -0.7465 -0.6639
vn -0.7500 0.6508 -0.1181
vn -0.5556 -0.5930 -0.5827
vn -0.7897 0.6082 -0.0804
vn 0.8715 -0.4903 0.0116
vn 0.2602 -0.4293 -0.8649
vn -0.6382 0.1330 0.7583
vn 0.5061 0.6303 0.5887
vn 0.3696 0.1490 -0.9172
vn -0.7305 0.1226 -0.6718
vn 0.5988 -0.1414 -0.7883
vn -0.5646 -0.4911 -0.6634
vn 0.4821 0.5248 0.7015
vn 0.5872 0.6291 0.5094
vn -0.6304 0.1749 0.7563
vn 0.6037 -0.0858 -0.7926
vn 0.6537 -0.0080 0.7567
vn -0.7202 -0.6779 -0.1477
vn -0.6376 -0.5843 -0.5021
vn -0.4836 -0.1858 0.8553
vn -0.3897 0.5196 0.7604
vn -0.4990 0.6884 0.5265
vn 0.6527 0.7465 0.1296
vn 0.4837 -0.6462 -0.5903
vn 0.3307 -0.4033 -0.8532
vn 0.6734 0.7140 0.1917
vn -0.7539 -0.6102 -0.2435
usemtl AllColors_Material
f 1/1/1 2/2/1 3/3/1 4/4/1
f 5/5/2 6/6/2 7/7/2 8/8/2
f 3/3/3 2/2/3 9/9/3 6/6/3
f 2/2/4 1/1/4 10/10/4 9/9/4
f 1/1/5 4/4/5 5/5/5 10/10/5
f 4/4/6 3/3/6 6/6/6 5/5/6
f 7/7/7 11/11/7 12/12/7 13/13/7
f 9/9/8 10/10/8 14/14/8 11/11/8
f 6/6/9 9/9/9 11/11/9 7/7/9
f 5/5/10 8/8/10 15/15/10 16/16/10
f 17/17/11 18/18/11 19/19/11 20/20/11
f 14/14/12 8/8/12 21/21/12 22/22/12
f 8/8/13 7/7/13 13/13/13 21/21/13
f 11/11/14 14/14/14 22/22/14 12/12/14
f 23/23/15 24/24/15 25/25/15 26/26/15
f 8/8/16 14/14/16 27/27/16 15/15/16
f 14/14/17 10/10/17 28/28/17 27/27/17
f 10/10/18 5/5/18 16/16/18 28/28/18
f 29/29/1 30/30/1 31/31/1 32/32/1
f 33/33/1 34/34/1 35/35/1 36/36/1
f 37/37/1 38/38/1 39/39/1 40/40/1
f 41/41/19 42/42/19 43/43/19 44/44/19
f 45/45/20 46/46/20 47/47/20 48/48/20
f 49/49/21 50/50/21 51/51/21 52/52/21
f 35/35/22 34/34/22 53/53/22 46/46/22
f 34/34/23 33/33/23 54/54/23 53/53/23
f 39/39/24 38/38/24 55/55/24 50/50/24
f 29/29/25 32/32/25 56/56/25 57/57/25
f 38/38/26 37/37/26 58/58/26 55/55/26
f 33/33/27 36/36/27 45/45/27 54/54/27
f 32/32/28 31/31/28 41/41/28 56/56/28
f 37/37/29 40/40/29 49/49/29 58/58/29
f 36/36/30 35/35/30 46/46/30 45/45/30
f 31/31/31 30/30/31 59/59/31 41/41/31
f 40/40/32 39/39/32 50/50/32 49/49/32
f 30/30/33 29/29/33 57/57/33 59/59/33
f 60/60/34 42/42/34 61/61/34 62/62/34
f 59/59/35 57/57/35 63/63/35 64/64/35
f 41/41/36 59/59/36 64/64/36 42/42/36
f 57/57/37 56/56/37 60/60/37 63/63/37
f 65/65/38 66/66/38 67/67/38 68/68/38
f 64/64/39 63/63/39 69/69/39 70/70/39
f 42/42/40 64/64/40 70/70/40 61/61/40
f 63/63/41 60/60/41 62/62/41 69/69/41
f 44/44/42 43/43/42 71/71/42 72/72/42
f 42/42/43 60/60/43 73/73/43 43/43/43
f 56/56/44 41/41/44 44/44/44 74/74/44
f 60/60/45 56/56/45 74/74/45 73/73/45
f 75/75/46 76/76/46 77/77/46 78/78/46
f 55/55/47 58/58/47 79/79/47 80/80/47
f 76/76/48 50/50/48 81/81/48 82/82/48
f 58/58/49 49/49/49 75/75/49 79/79/49
f 83/83/50 84/84/50 85/85/50 86/86/50
f 80/80/51 79/79/51 87/87/51 88/88/51
f 76/76/52 80/80/52 88/88/52 77/77/52
f 79/79/53 75/75/53 78/78/53 87/87/53
f 89/89/54 90/90/54 91/91/54 92/92/54
f 50/50/55 55/55/55 93/93/55 81/81/55
f 55/55/56 80/80/56 94/94/56 93/93/56
f 80/80/57 76/76/57 82/82/57 94/94/57
f 95/95/58 96/96/58 97/97/58 98/98/58
f 50/50/59 76/76/59 99/99/59 51/51/59
f 76/76/60 75/75/60 100/100/60 99/99/60
f 75/75/61 49/49/61 52/52/61 100/100/61
f 47/47/62 101/101/62 102/102/62 103/103/62
f 53/53/63 54/54/63 104/104/63 101/101/63
f 46/46/64 53/53/64 101/101/64 47/47/64
f 45/45/65 48/48/65 105/105/65 106/106/65
f 107/107/66 108/108/66 109/109/66 110/110/66
f 104/104/67 48/48/67 111/111/67 112/112/67
f 48/48/68 47/47/68 103/103/68 111/111/68
f 101/101/69 104/104/69 112/112/69 102/102/69
f 113/113/70 114/114/70 115/115/70 116/116/70
f 48/48/71 104/104/71 113/113/71 105/105/71
f 104/104/72 54/54/72 114/114/72 113/113/72
f 54/54/73 45/45/73 106/106/73 114/114/73
f 117/117/74 118/118/74 119/119/74
f 105/105/75 113/113/75 116/116/75 120/120/75
f 106/106/76 105/105/76 120/120/76 121/121/76
f 114/114/77 106/106/77 121/121/77 115/115/77
f 117/117/78 121/121/78 122/122/78
f 123/123/79 117/117/79 119/124/79
f 124/125/80 123/123/80 119/126/80
f 118/118/81 124/125/81 119/127/81
f 120/120/82 116/116/82 124/125/82 118/118/82
f 116/116/83 115/115/83 123/123/83 124/125/83
f 115/115/84 121/121/84 117/117/84 123/123/84
f 121/121/85 120/120/85 122/122/85
f 125/128/86 126/129/86 127/130/86 128/131/86
f 120/120/87 118/118/87 122/132/87
f 118/118/88 117/117/88 122/132/88
f 129/133/89 130/134/89 131/135/89 132/136/89
f 108/108/90 125/128/90 128/131/90 109/109/90
f 126/129/91 107/107/91 110/110/91 127/130/91
f 133/137/92 134/138/92 135/139/92
f 136/140/93 137/141/93 134/138/93 133/137/93
f 137/141/94 129/133/94 132/136/94 134/138/94
f 130/134/95 136/140/95 133/137/95 131/135/95
f 127/130/96 110/110/96 129/133/96 137/141/96
f 132/136/97 131/135/97 135/142/97
f 134/138/98 132/136/98 135/143/98
f 131/135/99 133/137/99 135/144/99
f 109/109/100 128/131/100 136/140/100 130/134/100
f 137/141/101 136/140/101 138/145/101 139/146/101
f 110/110/102 109/109/102 130/134/102 129/133/102
f 112/112/103 111/111/103 107/107/103 126/129/103
f 103/103/104 102/102/104 125/128/104 108/108/104
f 125/128/105 102/102/105 140/147/105 141/148/105
f 111/111/106 103/103/106 108/108/106 107/107/106
f 142/149/107 139/146/107 143/150/107 144/151/107
f 128/131/108 127/130/108 142/149/108 145/152/108
f 136/140/109 128/131/109 145/152/109 138/145/109
f 127/130/110 137/141/110 139/146/110 142/149/110
f 143/150/111 146/153/111 147/154/111
f 138/145/112 145/152/112 148/155/112 146/153/112
f 139/146/113 138/145/113 146/153/113 143/150/113
f 145/152/114 142/149/114 144/151/114 148/155/114
f 102/102/115 112/112/115 149/156/115 140/147/115
f 148/155/116 144/151/116 147/157/116
f 144/151/117 143/150/117 147/154/117
f 146/153/118 148/155/118 147/157/118
f 141/148/119 140/147/119 150/158/119
f 112/112/120 126/129/120 151/159/120 149/156/120
f 126/129/121 125/128/121 141/148/121 151/159/121
f 74/74/122 44/44/122 72/72/122 152/160/122
f 140/147/123 149/156/123 150/158/123
f 149/156/124 151/159/124 150/161/124
f 151/159/125 141/148/125 150/161/125
f 153/162/126 154/163/126 155/164/126 156/165/126
f 73/73/127 74/74/127 152/160/127 157/166/127
f 43/43/128 73/73/128 157/166/128 71/71/128
f 156/165/129 155/164/129 158/167/129
f 159/168/130 160/169/130 161/170/130 162/171/130
f 160/169/131 153/162/131 156/165/131 161/170/131
f 154/163/132 159/168/132 162/171/132 155/164/132
f 157/166/133 152/160/133 153/162/133 160/169/133
f 155/164/134 162/171/134 158/172/134
f 162/171/135 161/170/135 158/173/135
f 161/170/136 156/165/136 158/174/136
f 72/72/137 71/71/137 159/168/137 154/163/137
f 71/71/138 157/166/138 160/169/138 159/168/138
f 152/160/139 72/72/139 163/175/139
f 164/176/140 165/177/140 166/178/140 167/179/140
f 153/162/141 152/160/141 163/175/141
f 72/72/142 154/163/142 163/180/142
f 154/163/143 153/162/143 163/180/143
f 168/181/144 169/182/144 170/183/144 171/184/144
f 165/177/145 65/65/145 68/68/145 166/178/145
f 66/66/146 164/176/146 167/179/146 67/67/146
f 171/184/147 170/183/147 172/185/147
f 169/182/148 173/186/148 174/187/148 170/183/148
f 175/188/149 168/181/149 171/184/149 176/189/149
f 173/186/150 175/188/150 176/189/150 174/187/150
f 67/67/151 167/179/151 177/190/151 178/191/151
f 174/187/152 176/189/152 172/192/152
f 176/189/153 171/184/153 172/193/153
f 170/183/154 174/187/154 172/194/154
f 68/68/155 67/67/155 175/188/155 173/186/155
f 166/178/156 68/68/156 173/186/156 169/182/156
f 167/179/157 166/178/157 169/182/157 168/181/157
f 70/70/158 69/69/158 164/176/158 66/66/158
f 62/62/159 61/61/159 179/195/159 180/196/159
f 69/69/160 62/62/160 165/177/160 164/176/160
f 61/61/161 70/70/161 66/66/161 65/65/161
f 181/197/162 178/191/162 182/198/162
f 175/188/163 67/67/163 178/191/163 181/197/163
f 167/179/164 168/181/164 183/199/164 177/190/164
f 168/181/165 175/188/165 181/197/165 183/199/165
f 65/65/166 165/177/166 184/200/166 185/201/166
f 178/191/167 177/190/167 182/198/167
f 183/199/168 181/197/168 182/202/168
f 177/190/169 183/199/169 182/202/169
f 186/203/170 187/204/170 188/205/170 189/206/170
f 61/61/171 65/65/171 185/201/171 179/195/171
f 165/177/172 62/62/172 180/196/172 184/200/172
f 190/207/173 191/208/173 192/209/173 193/210/173
f 187/204/174 194/211/174 195/212/174 188/205/174
f 196/213/175 186/203/175 189/206/175 197/214/175
f 194/211/176 196/213/176 197/214/176 195/212/176
f 198/215/177 193/210/177 199/216/177
f 191/208/178 200/217/178 201/218/178 192/209/178
f 202/219/179 190/207/179 193/210/179 198/215/179
f 200/217/180 202/219/180 198/215/180 201/218/180
f 202/219/181 188/205/181 203/220/181 204/221/181
f 201/218/182 198/215/182 199/216/182
f 193/210/183 192/209/183 199/222/183
f 192/209/184 201/218/184 199/222/184
f 189/206/185 188/205/185 202/219/185 200/217/185
f 197/214/186 189/206/186 200/217/186 191/208/186
f 195/212/187 197/214/187 191/208/187 190/207/187
f 179/195/188 185/201/188 196/213/188 194/211/188
f 185/201/189 184/200/189 186/203/189 196/213/189
f 180/196/190 179/195/190 205/223/190 206/224/190
f 184/200/191 180/196/191 187/204/191 186/203/191
f 207/225/192 208/226/192 209/227/192
f 195/212/193 190/207/193 208/226/193 207/225/193
f 190/207/194 202/219/194 204/221/194 208/226/194
f 188/205/195 195/212/195 207/225/195 203/220/195
f 194/211/196 187/204/196 210/228/196 211/229/196
f 204/221/197 203/220/197 209/230/197
f 203/220/198 207/225/198 209/230/198
f 208/226/199 204/221/199 209/227/199
f 211/229/200 210/228/200 212/231/200
f 179/195/201 194/211/201 211/229/201 205/223/201
f 187/204/202 180/196/202 206/224/202 210/228/202
f 205/223/203 211/229/203 212/231/203
f 206/224/204 205/223/204 212/232/204
f 210/228/205 206/224/205 212/232/205
f 92/92/206 91/91/206 213/233/206 214/234/206
f 90/90/207 215/235/207 216/236/207 91/91/207
f 216/236/208 215/235/208 217/237/208 218/238/208
f 219/239/209 89/89/209 92/92/209 220/240/209
f 214/234/210 213/233/210 221/241/210
f 91/91/211 216/236/211 222/242/211 213/233/211
f 216/236/212 220/240/212 223/243/212 222/242/212
f 220/240/213 92/92/213 214/234/213 223/243/213
f 93/93/214 94/94/214 219/239/214 215/235/214
f 213/233/215 222/242/215 221/244/215
f 222/242/216 223/243/216 221/245/216
f 223/243/217 214/234/217 221/246/217
f 94/94/218 82/82/218 89/89/218 219/239/218
f 81/81/219 93/93/219 215/235/219 90/90/219
f 82/82/220 81/81/220 90/90/220 89/89/220
f 224/247/221 225/248/221 226/249/221
f 219/239/222 220/240/222 225/248/222 224/247/222
f 215/235/223 219/239/223 224/247/223 217/237/223
f 220/240/224 216/236/224 218/238/224 225/248/224
f 84/84/225 227/250/225 228/251/225 85/85/225
f 225/248/226 218/238/226 226/249/226
f 217/237/227 224/247/227 226/252/227
f 218/238/228 217/237/228 226/252/228
f 86/86/229 85/85/229 229/253/229
f 230/254/230 83/83/230 86/86/230 231/255/230
f 227/250/231 230/254/231 231/255/231 228/251/231
f 88/88/232 87/87/232 83/83/232 230/254/232
f 228/251/233 231/255/233 229/256/233
f 231/255/234 86/86/234 229/257/234
f 85/85/235 228/251/235 229/258/235
f 227/250/236 77/77/236 232/259/236 233/260/236
f 78/78/237 77/77/237 227/250/237 84/84/237
f 87/87/238 78/78/238 234/261/238 235/262/238
f 233/260/239 232/259/239 236/263/239
f 230/254/240 227/250/240 233/260/240 237/264/240
f 88/88/241 230/254/241 237/264/241 238/265/241
f 77/77/242 88/88/242 238/265/242 232/259/242
f 78/78/243 84/84/243 239/266/243 234/261/243
f 238/265/244 237/264/244 236/267/244
f 237/264/245 233/260/245 236/267/245
f 232/259/246 238/265/246 236/263/246
f 235/262/247 234/261/247 240/268/247
f 84/84/248 83/83/248 241/269/248 239/266/248
f 83/83/249 87/87/249 235/262/249 241/269/249
f 242/270/250 95/95/250 98/98/250 243/271/250
f 241/269/251 235/262/251 240/268/251
f 234/261/252 239/266/252 240/272/252
f 239/266/253 241/269/253 240/272/253
f 243/271/254 98/98/254 244/273/254 245/274/254
f 246/275/255 242/270/255 243/271/255 247/276/255
f 96/96/256 246/275/256 247/276/256 97/97/256
f 245/274/257 244/273/257 248/277/257
f 247/276/258 243/271/258 245/274/258 249/278/258
f 97/97/259 247/276/259 249/278/259 250/279/259
f 98/98/260 97/97/260 250/279/260 244/273/260
f 51/51/261 99/99/261 242/270/261 246/275/261
f 244/273/262 250/279/262 248/280/262
f 250/279/263 249/278/263 248/281/263
f 249/278/264 245/274/264 248/282/264
f 52/52/265 51/51/265 246/275/265 96/96/265
f 99/99/266 100/100/266 95/95/266 242/270/266
f 100/100/267 52/52/267 251/283/267 252/284/267
f 253/285/268 254/286/268 255/287/268 256/288/268
f 95/95/269 100/100/269 252/284/269 257/289/269
f 52/52/270 96/96/270 258/290/270 251/283/270
f 96/96/271 95/95/271 257/289/271 258/290/271
f 259/291/272 260/292/272 261/293/272
f 262/294/273 263/295/273 260/292/273 259/291/273
f 263/295/274 253/285/274 256/288/274 260/292/274
f 254/286/275 262/294/275 259/291/275 255/287/275
f 258/290/276 253/285/276 264/296/276 265/297/276
f 260/292/277 256/288/277 261/298/277
f 255/287/278 259/291/278 261/293/278
f 256/288/279 255/287/279 261/298/279
f 257/289/280 252/284/280 262/294/280 254/286/280
f 252/284/281 251/283/281 263/295/281 262/294/281
f 258/290/282 257/289/282 254/286/282 253/285/282
f 264/296/283 266/299/283 267/300/283
f 263/295/284 251/283/284 268/301/284 266/299/284
f 253/285/285 263/295/285 266/299/285 264/296/285
f 251/283/286 258/290/286 265/297/286 268/301/286
f 268/301/287 265/297/287 267/300/287
f 266/299/288 268/301/288 267/300/288
f 265/297/289 264/296/289 267/300/289
f 269/302/290 270/303/290 271/304/290 272/305/290
f 273/306/291 23/23/291 26/26/291 270/303/291
f 274/307/292 273/306/292 270/303/292 269/302/292
f 24/24/293 274/307/293 269/302/293 25/25/293
f 275/308/294 276/309/294 277/310/294
f 25/25/295 269/302/295 272/305/295 276/309/295
f 26/26/296 25/25/296 276/309/296 275/308/296
f 270/303/297 26/26/297 275/308/297 271/304/297
f 274/307/298 16/16/298 278/311/298 279/312/298
f 271/304/299 275/308/299 277/313/299
f 272/305/300 271/304/300 277/314/300
f 276/309/301 272/305/301 277/315/301
f 28/28/302 16/16/302 274/307/302 24/24/302
f 15/15/303 27/27/303 23/23/303 273/306/303
f 27/27/304 28/28/304 24/24/304 23/23/304
f 280/316/305 279/312/305 281/317/305
f 273/306/306 274/307/306 279/312/306 280/316/306
f 16/16/307 15/15/307 282/318/307 278/311/307
f 15/15/308 273/306/308 280/316/308 282/318/308
f 283/319/309 17/17/309 20/20/309 284/320/309
f 282/318/310 280/316/310 281/317/310
f 279/312/311 278/311/311 281/321/311
f 278/311/312 282/318/312 281/321/312
f 20/20/313 19/19/313 285/322/313 286/323/313
f 18/18/314 287/324/314 288/325/314 19/19/314
f 287/324/315 283/319/315 284/320/315 288/325/315
f 289/326/316 286/323/316 290/327/316
f 288/325/317 284/320/317 289/326/317 291/328/317
f 284/320/318 20/20/318 286/323/318 289/326/318
f 19/19/319 288/325/319 291/328/319 285/322/319
f 22/22/320 21/21/320 287/324/320 18/18/320
f 286/323/321 285/322/321 290/329/321
f 291/328/322 289/326/322 290/330/322
f 285/322/323 291/328/323 290/331/323
f 13/13/324 283/319/324 292/332/324 293/333/324
f 13/13/325 12/12/325 17/17/325 283/319/325
f 12/12/326 22/22/326 18/18/326 17/17/326
f 292/332/327 294/334/327 295/335/327
f 283/319/328 287/324/328 294/334/328 292/332/328
f 287/324/329 21/21/329 296/336/329 294/334/329
f 21/21/330 13/13/330 293/333/330 296/336/330
f 296/336/331 293/333/331 295/337/331
f 294/334/332 296/336/332 295/337/332
f 293/333/333 292/332/333 295/335/333
