mtllib forest_nature_set_all_in.mtl
o forest_Mushroom_big_brown_Icosphere_019
v -24.239000 0.094229 12.946448
v -24.292606 0.094229 12.929030
v -24.269451 0.000000 12.901177
v -24.236080 0.000000 12.912020
v -24.152264 0.094229 12.827065
v -24.152264 0.094229 12.883430
v -24.182087 0.000000 12.872791
v -24.182087 0.000000 12.837704
v -24.325737 0.094229 12.827065
v -24.292606 0.094229 12.781465
v -24.269451 0.000000 12.809318
v -24.290075 0.000000 12.837704
v -24.185394 0.094229 12.781465
v -24.202711 0.000000 12.809318
v -24.325737 0.094229 12.883430
v -24.290075 0.000000 12.872791
v -24.185394 0.094229 12.929030
v -24.202711 0.000000 12.901177
v -24.239000 0.094229 12.764047
v -24.236080 0.000000 12.798475
v -24.151604 0.199708 12.827385
v -24.151604 0.199708 12.883110
v -24.184359 0.199708 12.928194
v -24.323112 0.199708 12.883110
v -24.323112 0.199708 12.827385
v -24.184359 0.199708 12.782301
v -24.290358 0.199708 12.782301
v -24.170553 0.390927 13.035621
v -24.081814 0.403365 12.960670
v -24.190639 0.478253 12.960669
v -24.384043 0.401429 12.966168
v -24.284855 0.413353 13.026720
v -24.316124 0.484426 12.919847
v -24.384043 0.401429 12.741424
v -24.410339 0.419526 12.853796
v -24.316124 0.484426 12.787745
v -24.170553 0.390927 12.671971
v -24.284855 0.413353 12.680872
v -24.190639 0.478253 12.746923
v -24.038609 0.384436 12.853796
v -24.081814 0.403365 12.746922
v -24.113085 0.474437 12.853796
v -24.223753 0.511843 12.853796
v -24.031216 0.288365 12.787745
v -24.108770 0.292180 12.680870
v -24.234257 0.298353 12.640048
v -24.359741 0.304526 12.680870
v -24.437298 0.308341 12.787745
v -24.437298 0.308341 12.919847
v -24.359741 0.304526 13.026722
v -24.234257 0.298353 13.067544
v -24.108770 0.292180 13.026722
v -24.031216 0.288365 12.919847
v -24.237358 0.199708 12.945415
v -24.290358 0.199708 12.928194
v -24.237358 0.199708 12.765080
v -24.228781 0.273252 12.778323
v -24.183565 0.273252 12.793015
v -24.301941 0.273252 12.879018
v -24.301941 0.273252 12.831477
v -24.155621 0.273252 12.831477
v -24.155621 0.273252 12.879018
v -24.273996 0.273252 12.793015
v -24.228781 0.273252 12.932173
v -24.273996 0.273252 12.917481
v -24.183565 0.273252 12.917481
v -24.219397 0.000000 12.860669
v -24.253178 0.000000 12.849692
vt 0.849791 0.647477
vt 0.842560 0.647477
vt 0.845684 0.518834
vt 0.850185 0.518834
vt 0.861491 0.647477
vt 0.861491 0.647477
vt 0.857468 0.518834
vt 0.857468 0.518834
vt 0.838091 0.647477
vt 0.842560 0.647477
vt 0.845684 0.518834
vt 0.842902 0.518834
vt 0.857022 0.647477
vt 0.854686 0.518834
vt 0.838091 0.647477
vt 0.842902 0.518834
vt 0.857022 0.647477
vt 0.854686 0.518834
vt 0.849791 0.647477
vt 0.850048 0.518834
vt 0.850185 0.518834
vt 0.861580 0.791479
vt 0.861580 0.791479
vt 0.857162 0.791479
vt 0.838445 0.791479
vt 0.838445 0.791479
vt 0.857162 0.791479
vt 0.842863 0.791479
vt 0.652435 0.725137
vt 0.664081 0.760802
vt 0.649213 0.908386
vt 0.624156 0.725137
vt 0.637185 0.760802
vt 0.632591 0.908386
vt 0.624156 0.725137
vt 0.620563 0.760802
vt 0.632591 0.908386
vt 0.652435 0.725137
vt 0.637185 0.760802
vt 0.649213 0.908386
vt 0.669913 0.725135
vt 0.664081 0.760802
vt 0.659486 0.908385
vt 0.644619 0.976223
vt 0.671514 0.522000
vt 0.661241 0.522000
vt 0.644619 0.522000
vt 0.627997 0.522000
vt 0.617723 0.522000
vt 0.617723 0.522000
vt 0.627997 0.522000
vt 0.644619 0.522000
vt 0.661241 0.522000
vt 0.671514 0.522000
vt 0.850012 0.791479
vt 0.842863 0.791479
vt 0.850012 0.791479
vt 0.851169 0.891881
vt 0.857269 0.891881
vt 0.841301 0.891881
vt 0.841301 0.891881
vt 0.861038 0.891881
vt 0.861038 0.891881
vt 0.845070 0.891881
vt 0.851169 0.891881
vt 0.845070 0.891881
vt 0.857269 0.891881
vt 0.850148 0.930304
vt 0.867096 0.930304
vt 0.822727 0.930304
vt 0.833201 0.930304
vt 0.877570 0.930304
vt 0.833201 0.930304
vt 0.822727 0.930304
vt 0.867096 0.930304
vt 0.850148 0.930304
vt 0.877570 0.930304
vt 0.852435 0.518834
vt 0.847879 0.518834
vn -0.2910 -0.3363 0.8957
vn 0.9534 -0.3017 0.0000
vn -0.7581 -0.3491 -0.5508
vn 0.7700 -0.3069 -0.5594
vn -0.9353 -0.3539 0.0000
vn -0.7581 -0.3491 0.5508
vn 0.7700 -0.3069 0.5594
vn 0.2928 -0.3202 0.9010
vn -0.2910 -0.3363 -0.8957
vn 0.2928 -0.3201 -0.9010
vn 1.0000 -0.0063 0.0000
vn 0.8090 -0.0033 0.5878
vn -0.9997 0.0249 0.0000
vn 0.8090 -0.0033 -0.5878
vn -0.8088 0.0219 -0.5876
vn 0.4410 0.6408 0.6284
vn -0.4382 0.6841 0.5831
vn -0.6669 0.6953 -0.2680
vn 0.0710 0.6590 -0.7488
vn 0.7557 0.6253 -0.1947
vn 0.3141 0.9292 -0.1947
vn 0.5296 0.7696 -0.3568
vn 0.4410 0.6408 -0.6284
vn -0.0559 0.9474 -0.3151
vn -0.1483 0.8029 -0.5774
vn -0.4382 0.6841 -0.5831
vn -0.2846 0.9587 0.0000
vn -0.5673 0.8235 0.0000
vn -0.6669 0.6953 0.2680
vn -0.0559 0.9474 0.3151
vn -0.1483 0.8029 0.5774
vn 0.0710 0.6590 0.7488
vn 0.3141 0.9292 0.1947
vn 0.5296 0.7696 0.3568
vn 0.7557 0.6253 0.1947
vn 0.9049 0.2862 -0.3151
vn 0.8029 0.1483 -0.5773
vn 0.5901 0.3017 -0.7488
vn -0.0085 0.3312 -0.9435
vn -0.2940 0.2023 -0.9342
vn -0.5177 0.3562 -0.7779
vn -0.8876 0.3745 -0.2680
vn -0.9718 0.2356 0.0000
vn -0.8876 0.3745 0.2680
vn -0.5177 0.3562 0.7779
vn -0.2939 0.2023 0.9342
vn -0.0085 0.3312 0.9435
vn 0.5901 0.3017 0.7488
vn 0.8029 0.1483 0.5773
vn 0.9049 0.2862 0.3151
vn 0.3124 0.1104 -0.9435
vn 0.3090 0.0045 0.9510
vn -0.3090 0.0141 0.9510
vn -0.7955 0.1649 -0.5831
vn 0.3090 0.0045 -0.9510
vn -0.3090 0.0141 -0.9510
vn -0.7955 0.1649 0.5831
vn -0.8088 0.0219 0.5876
vn 0.3062 0.1340 -0.9425
vn 0.3124 0.1104 0.9435
vn -0.9610 0.2767 0.0000
vn 0.9985 0.0545 0.0000
vn 0.9971 0.0767 0.0000
vn -0.7819 0.2567 -0.5681
vn -0.3026 0.2030 0.9313
vn 0.8066 0.0767 -0.5861
vn -0.7819 0.2567 0.5681
vn 0.8066 0.0767 0.5860
vn -0.3026 0.2030 -0.9313
vn 0.3062 0.1340 0.9425
vn 0.0190 -0.9856 -0.1680
vn -0.2047 -0.9711 -0.1231
vn 0.0950 -0.9909 -0.0950
vn -0.2067 -0.9704 0.1246
vn -0.0956 -0.9780 -0.1853
vn -0.2509 -0.9680 0.0000
vn 0.0202 -0.9850 0.1716
vn -0.0968 -0.9772 0.1891
vn 0.1206 -0.9927 0.0000
vn 0.0968 -0.9906 0.0963
vn 0.0000 -1.0000 0.0000
usemtl AllColors_Material
f 1/1/1 2/2/1 3/3/1 4/4/1
f 5/5/2 6/6/2 7/7/2 8/8/2
f 9/9/3 10/10/3 11/11/3 12/12/3
f 13/13/4 5/5/4 8/8/4 14/14/4
f 15/15/5 9/9/5 12/12/5 16/16/5
f 2/2/6 15/15/6 16/16/6 3/3/6
f 6/6/7 17/17/7 18/18/7 7/7/7
f 17/17/8 1/1/8 4/4/8 18/18/8
f 10/10/9 19/19/9 20/20/9 11/11/9
f 19/19/10 13/13/10 14/14/10 20/21/10
f 21/22/11 22/23/11 6/6/11 5/5/11
f 22/23/12 23/24/12 17/17/12 6/6/12
f 24/25/13 25/26/13 9/9/13 15/15/13
f 26/27/14 21/22/14 5/5/14 13/13/14
f 25/26/15 27/28/15 10/10/15 9/9/15
f 28/29/16 29/30/16 30/31/16
f 31/32/17 32/33/17 33/34/17
f 34/35/18 35/36/18 36/37/18
f 37/38/19 38/39/19 39/40/19
f 40/41/20 41/42/20 42/43/20
f 42/43/21 39/40/21 43/44/21
f 42/43/22 41/42/22 39/40/22
f 41/42/23 37/38/23 39/40/23
f 39/40/24 36/37/24 43/44/24
f 39/40/25 38/39/25 36/37/25
f 38/39/26 34/35/26 36/37/26
f 36/37/27 33/34/27 43/44/27
f 36/37/28 35/36/28 33/34/28
f 35/36/29 31/32/29 33/34/29
f 33/34/30 30/31/30 43/44/30
f 33/34/31 32/33/31 30/31/31
f 32/33/32 28/29/32 30/31/32
f 30/31/33 42/43/33 43/44/33
f 30/31/34 29/30/34 42/43/34
f 29/30/35 40/41/35 42/43/35
f 44/45/36 41/42/36 40/41/36
f 44/45/37 45/46/37 41/42/37
f 45/46/38 37/38/38 41/42/38
f 46/47/39 38/39/39 37/38/39
f 46/47/40 47/48/40 38/39/40
f 47/48/41 34/35/41 38/39/41
f 48/49/42 35/36/42 34/35/42
f 48/49/43 49/50/43 35/36/43
f 49/50/44 31/32/44 35/36/44
f 50/51/45 32/33/45 31/32/45
f 50/51/46 51/52/46 32/33/46
f 51/52/47 28/29/47 32/33/47
f 52/53/48 29/30/48 28/29/48
f 52/53/49 53/54/49 29/30/49
f 53/54/50 40/41/50 29/30/50
f 45/46/51 46/47/51 37/38/51
f 23/24/52 54/55/52 1/1/52 17/17/52
f 54/55/53 55/56/53 2/2/53 1/1/53
f 47/48/54 48/49/54 34/35/54
f 56/57/55 26/27/55 13/13/55 19/19/55
f 27/28/56 56/57/56 19/19/56 10/10/56
f 49/50/57 50/51/57 31/32/57
f 55/56/58 24/25/58 15/15/58 2/2/58
f 57/58/59 58/59/59 26/27/59 56/57/59
f 51/52/60 52/53/60 28/29/60
f 59/60/61 60/61/61 25/26/61 24/25/61
f 61/62/62 62/63/62 22/23/62 21/22/62
f 53/54/63 44/45/63 40/41/63
f 60/61/64 63/64/64 27/28/64 25/26/64
f 64/65/65 65/66/65 55/56/65 54/55/65
f 58/59/66 61/62/66 21/22/66 26/27/66
f 65/66/67 59/60/67 24/25/67 55/56/67
f 62/63/68 66/67/68 23/24/68 22/23/68
f 63/64/69 57/58/69 56/57/69 27/28/69
f 66/67/70 64/65/70 54/55/70 23/24/70
f 46/68/71 45/69/71 58/59/71 57/58/71
f 48/70/72 47/71/72 63/64/72 60/61/72
f 45/69/73 44/72/73 61/62/73 58/59/73
f 50/73/74 49/74/74 59/60/74 65/66/74
f 47/71/75 46/68/75 57/58/75 63/64/75
f 49/74/76 48/70/76 60/61/76 59/60/76
f 52/75/77 51/76/77 64/65/77 66/67/77
f 51/76/78 50/73/78 65/66/78 64/65/78
f 44/72/79 53/77/79 62/63/79 61/62/79
f 53/77/80 52/75/80 66/67/80 62/63/80
f 7/7/81 18/18/81 4/4/81 67/78/81
f 12/12/81 11/11/81 20/20/81 68/79/81
f 67/78/81 4/4/81 3/3/81 68/79/81
f 67/78/81 14/14/81 8/8/81 7/7/81
f 68/79/81 20/21/81 14/14/81 67/78/81
f 68/79/81 3/3/81 16/16/81 12/12/81
