mtllib forest_nature_set_all_in.mtl
o forest_Stump_average_low_Cube_014
v -22.055105 0.017424 0.431154
v -21.916077 0.305998 0.432316
v -21.807468 0.311666 0.058530
v -22.205790 0.000000 -0.340324
v -20.949224 0.000000 -0.688558
v -20.863661 0.407201 -0.101321
v -20.531435 0.390443 0.056176
v -20.426250 0.000000 -0.045318
v -20.206442 0.010338 0.889264
v -20.281181 0.364294 0.868642
v -20.393757 0.402262 1.239529
v -20.156677 0.000000 1.711654
v -21.659239 0.000000 2.042460
v -21.444691 0.268684 1.521583
v -21.860561 0.307909 1.380219
v -21.991976 0.000000 1.392182
v -20.844755 0.000000 1.004520
v -20.881813 0.003561 1.606291
v -21.396339 0.411715 0.066364
v -21.312616 0.641778 0.155494
v -20.882248 0.641778 0.036577
v -20.421320 0.641778 0.838764
v -20.492668 0.641778 1.150731
v -20.941179 0.333902 1.493650
v -20.958321 0.641778 1.345962
v -22.603807 0.000000 1.072560
v -21.358269 0.000000 1.061406
v -21.395992 0.007506 -0.025830
v -20.728350 0.000000 0.433575
v -21.248989 0.000000 0.515996
v -20.401377 0.354816 0.363095
v -20.522131 0.641778 0.435246
v -21.325951 0.641778 1.370673
v -21.667206 0.641778 1.223818
v -21.689810 0.641778 0.215913
v -21.891981 0.408049 0.805960
v -21.749144 0.641778 0.802915
v -21.766432 0.641778 0.463856
v -20.611868 0.641778 0.175914
v -19.723518 0.000000 0.158026
v -21.292364 0.859139 1.335594
v -21.600485 0.910293 1.207402
v -20.576807 1.054226 0.463850
v -20.487801 0.973255 0.820112
v -20.550793 0.910293 1.095545
v -20.962717 0.859139 1.271936
v -20.656034 1.052309 0.234887
v -21.200720 0.875636 0.209402
v -20.867626 0.910293 0.112700
v -21.691328 1.073576 0.848095
v -21.654688 1.073576 0.500598
v -21.553612 0.910293 0.236112
v -21.573217 1.073576 0.522517
v -21.485350 0.910293 0.298454
v -20.873114 0.910293 0.188259
v -20.712833 1.052309 0.281390
v -20.558622 0.973255 0.820820
v -20.610126 0.910293 1.046022
v -21.287096 0.859139 1.269421
v -21.540960 0.910293 1.161792
v -21.166397 0.875636 0.276987
v -20.983727 0.859139 1.206001
v -21.617107 1.073576 0.852290
v -20.642897 1.054226 0.483498
v -21.541288 0.838159 1.160922
v -21.617323 0.838159 0.851321
v -20.870943 0.838159 0.187643
v -20.713047 0.838159 0.280421
v -20.643112 0.838159 0.482529
v -20.558838 0.838159 0.819851
v -21.477968 0.838159 0.298610
v -21.161472 0.838159 0.276779
v -20.983942 0.838159 1.205032
v -21.287365 0.838159 1.268724
v -21.573433 0.838159 0.521548
v -21.068331 0.812897 0.733445
v -21.200205 0.826651 0.437652
v -21.050632 0.850577 1.042978
v -20.610342 0.838159 1.045053
vt 0.534891 0.519246
vt 0.532391 0.622105
vt 0.536420 0.622836
vt 0.523418 0.516851
vt 0.557741 0.516849
vt 0.554089 0.635164
vt 0.559903 0.633002
vt 0.565136 0.516851
vt 0.566008 0.518272
vt 0.564934 0.629627
vt 0.562681 0.634527
vt 0.570739 0.516851
vt 0.540951 0.516851
vt 0.541619 0.617290
vt 0.533070 0.622351
vt 0.529582 0.516851
vt 0.553966 0.516851
vt 0.553287 0.517339
vt 0.546230 0.635745
vt 0.547231 0.736463
vt 0.553236 0.736463
vt 0.561064 0.736463
vt 0.559747 0.736463
vt 0.551530 0.625705
vt 0.551140 0.736464
vt 0.514756 0.516851
vt 0.542961 0.516851
vt 0.544981 0.517883
vt 0.556460 0.516851
vt 0.545303 0.516851
vt 0.562518 0.628404
vt 0.559204 0.736463
vt 0.544268 0.736464
vt 0.538113 0.736464
vt 0.540444 0.736463
vt 0.532051 0.635273
vt 0.536408 0.736463
vt 0.537653 0.736463
vt 0.557548 0.736463
vt 0.584556 0.516851
vt 0.543152 0.962441
vt 0.538582 0.962441
vt 0.554242 0.962441
vt 0.555622 0.962441
vt 0.554645 0.962441
vt 0.548255 0.962441
vt 0.553013 0.962441
vt 0.545352 0.962441
vt 0.549810 0.962441
vt 0.537316 0.962441
vt 0.538240 0.962441
vt 0.540313 0.962441
vt 0.539271 0.962442
vt 0.541005 0.962441
vt 0.549686 0.962441
vt 0.552131 0.962442
vt 0.554524 0.962442
vt 0.553725 0.962443
vt 0.543243 0.962441
vt 0.539496 0.962441
vt 0.545552 0.962441
vt 0.547929 0.962441
vt 0.538404 0.962440
vt 0.553217 0.962442
vt 0.539496 0.962441
vt 0.538404 0.962440
vt 0.549686 0.962441
vt 0.552131 0.962442
vt 0.553217 0.962442
vt 0.554524 0.962442
vt 0.541005 0.962441
vt 0.545552 0.962441
vt 0.547929 0.962441
vt 0.543243 0.962441
vt 0.539271 0.962442
vt 0.114581 0.326231
vt 0.110892 0.182193
vt 0.145872 0.239708
vt 0.137304 0.363754
vt 0.169342 0.429412
vt 0.158929 0.468246
vt 0.141327 0.431371
vt 0.179529 0.203525
vt 0.147041 0.110090
vt 0.151447 0.042229
vt 0.176126 0.109221
vt 0.173962 0.344779
vt 0.121966 0.424821
vt 0.115543 0.054905
vt 0.131496 0.014966
vt 0.553725 0.962443
vn -0.7518 0.6591 0.0209
vn 0.5808 0.5401 -0.6090
vn 0.9146 0.4024 0.0388
vn -0.4751 0.7338 0.4856
vn 0.0049 -1.0000 -0.0048
vn -0.2523 0.4531 -0.8550
vn 0.8685 0.4495 0.2089
vn 0.3409 0.4328 0.8345
vn 0.0000 -1.0000 0.0000
vn 0.0039 -1.0000 0.0031
vn 0.0574 0.6369 0.7688
vn 0.2163 0.6824 0.6982
vn 0.1831 0.4849 -0.8552
vn -0.5232 0.5787 -0.6255
vn -0.0096 -1.0000 -0.0024
vn -0.0085 -0.9999 0.0095
vn -0.0078 -0.9998 -0.0190
vn 0.8795 0.4229 -0.2182
vn -0.2888 0.4860 0.8248
vn -0.1147 0.4344 -0.8934
vn -0.8892 0.4574 -0.0139
vn 0.8519 0.4267 -0.3038
vn -0.8320 0.5345 0.1486
vn 0.0092 -0.9999 0.0122
vn 0.4050 0.6779 -0.6136
vn 0.6974 0.6901 0.1935
vn -0.4929 0.7513 0.4389
vn -0.6530 0.6483 -0.3915
vn -0.3725 0.1735 0.9117
vn 0.9616 0.1596 -0.2232
vn 0.3600 0.2828 0.8891
vn 0.9442 0.2256 0.2401
vn 0.9346 0.1467 -0.3240
vn -0.2717 0.3047 -0.9129
vn 0.4229 0.1945 -0.8850
vn -0.9804 0.1951 -0.0276
vn -0.1070 0.1966 -0.9746
vn 0.3957 0.4919 -0.7756
vn -0.8700 0.4217 -0.2554
vn 0.0256 0.3982 0.9169
vn -0.9562 0.1600 0.2452
vn -0.8523 0.3345 -0.4021
vn 0.1222 0.2339 0.9646
vn 0.2614 0.8461 -0.4645
vn -0.4916 0.8339 -0.2509
vn -0.0843 0.9707 0.2249
vn 0.1444 0.9860 0.0837
vn 0.0969 0.9924 -0.0765
vn -0.1038 0.9944 0.0209
vn -0.0996 0.9926 0.0693
vn 0.0000 1.0000 -0.0000
vn 0.1268 0.9035 0.4095
vn -0.0040 1.0000 -0.0075
vn 0.0326 0.9751 0.2195
vn 0.9711 -0.0003 -0.2388
vn -0.5017 -0.0082 0.8650
vn -0.9702 -0.0001 0.2424
vn 0.0684 0.0072 0.9976
vn -0.2049 0.0412 -0.9779
vn 0.9276 0.0207 0.3729
vn -0.9450 -0.0005 0.3270
vn 0.3916 0.0130 -0.9200
vn 0.0433 0.9989 0.0159
vn -0.0004 0.9990 0.0455
vn 0.0280 0.9991 0.0309
vn -0.0407 0.9978 -0.0517
vn 0.0225 0.9990 0.0378
vn -0.0040 0.9987 0.0507
vn -0.0236 0.9990 0.0372
vn -0.0014 0.9982 -0.0605
vn 0.2908 0.0116 0.9567
vn -0.9749 0.0041 -0.2224
vn 0.9913 -0.0015 0.1319
vn -0.3948 0.0209 -0.9185
usemtl AllColors_Material
f 1/1/1 2/2/1 3/3/1 4/4/1
f 5/5/2 6/6/2 7/7/2 8/8/2
f 9/9/3 10/10/3 11/11/3 12/12/3
f 13/13/4 14/14/4 15/15/4 16/16/4
f 17/17/5 9/9/5 12/12/5 18/18/5
f 6/6/6 19/19/6 20/20/6 21/21/6
f 11/11/7 10/10/7 22/22/7 23/23/7
f 24/24/8 11/11/8 23/23/8 25/25/8
f 26/26/9 27/27/9 13/13/9 16/16/9
f 27/27/10 17/17/10 18/18/10 13/13/10
f 12/12/11 11/11/11 24/24/11 18/18/11
f 18/18/12 24/24/12 14/14/12 13/13/12
f 4/4/13 3/3/13 19/19/13 28/28/13
f 28/28/14 19/19/14 6/6/14 5/5/14
f 28/28/15 5/5/15 29/29/15 30/30/15
f 30/30/9 29/29/9 17/17/9 27/27/9
f 4/4/16 28/28/16 30/30/16 1/1/16
f 1/1/17 30/30/17 27/27/17 26/26/17
f 10/10/18 31/31/18 32/32/18 22/22/18
f 15/15/19 14/14/19 33/33/19 34/34/19
f 19/19/20 3/3/20 35/35/20 20/20/20
f 2/2/21 36/36/21 37/37/21 38/38/21
f 31/31/22 7/7/22 39/39/22 32/32/22
f 36/36/23 15/15/23 34/34/23 37/37/23
f 5/5/9 8/8/9 40/40/9 29/29/9
f 29/29/24 40/40/24 9/9/24 17/17/24
f 8/8/25 7/7/25 31/31/25 40/40/25
f 40/40/26 31/31/26 10/10/26 9/9/26
f 16/16/27 15/15/27 36/36/27 26/26/27
f 26/26/28 36/36/28 2/2/28 1/1/28
f 34/34/29 33/33/29 41/41/29 42/42/29
f 22/22/30 32/32/30 43/43/30 44/44/30
f 25/25/31 23/23/31 45/45/31 46/46/31
f 23/23/32 22/22/32 44/44/32 45/45/32
f 32/32/33 39/39/33 47/47/33 43/43/33
f 21/21/34 20/20/34 48/48/34 49/49/34
f 39/39/35 21/21/35 49/49/35 47/47/35
f 38/38/36 37/37/36 50/50/36 51/51/36
f 20/20/37 35/35/37 52/52/37 48/48/37
f 7/7/38 6/6/38 21/21/38 39/39/38
f 3/3/39 2/2/39 38/38/39 35/35/39
f 14/14/40 24/24/40 25/25/40 33/33/40
f 37/37/41 34/34/41 42/42/41 50/50/41
f 35/35/42 38/38/42 51/51/42 52/52/42
f 33/33/43 25/25/43 46/46/43 41/41/43
f 53/53/44 54/54/44 52/52/44 51/51/44
f 55/55/45 56/56/45 47/47/45 49/49/45
f 57/57/46 58/58/46 45/45/46 44/44/46
f 59/59/47 60/60/47 42/42/47 41/41/47
f 54/54/48 61/61/48 48/48/48 52/52/48
f 61/61/49 55/55/49 49/49/49 48/48/49
f 58/58/50 62/62/50 46/46/50 45/45/50
f 62/62/51 59/59/51 41/41/51 46/46/51
f 60/60/52 63/63/52 50/50/52 42/42/52
f 63/63/51 53/53/51 51/51/51 50/50/51
f 56/56/53 64/64/53 43/43/53 47/47/53
f 64/64/54 57/57/54 44/44/54 43/43/54
f 63/63/55 60/60/55 65/65/55 66/66/55
f 56/56/56 55/55/56 67/67/56 68/68/56
f 57/57/57 64/64/57 69/69/57 70/70/57
f 61/61/58 54/54/58 71/71/58 72/72/58
f 59/59/59 62/62/59 73/73/59 74/74/59
f 54/54/60 53/53/60 75/75/60 71/71/60
f 64/64/61 56/56/61 68/68/61 69/69/61
f 60/60/62 59/59/62 74/74/62 65/65/62
f 75/76/63 66/77/63 76/78/63 77/79/63
f 68/80/64 67/81/64 72/82/64 77/79/64
f 70/83/65 78/84/65 73/85/65 79/86/65
f 69/87/66 76/78/66 78/84/66 70/83/66
f 77/79/67 72/82/67 71/88/67 75/76/67
f 73/85/68 78/84/68 65/89/68 74/90/68
f 77/79/69 76/78/69 69/87/69 68/80/69
f 78/84/70 76/78/70 66/77/70 65/89/70
f 55/55/71 61/61/71 72/72/71 67/67/71
f 58/58/72 57/57/72 70/70/72 79/91/72
f 53/53/73 63/63/73 66/66/73 75/75/73
f 62/62/74 58/58/74 79/91/74 73/73/74
