mtllib LOW_POLY_set.mtl
o lp_conifer3_Cylinder_001
v -16.195944 2.349869 -14.882062
v -15.972434 2.349017 -14.586692
v -18.454355 1.514517 -11.998959
v -19.433548 1.859580 -13.876633
v -18.721027 2.567142 -16.012653
v -18.336159 2.888022 -14.213905
v -17.220600 4.422752 -14.539091
v -17.376213 4.487386 -15.653975
v -15.610026 2.345819 -14.473649
v -15.727482 1.869920 -11.238010
v -15.255313 2.337602 -14.586905
v -13.033828 1.868769 -11.787151
v -15.055215 2.323535 -14.882235
v -11.915105 2.272918 -13.876287
v -15.295016 2.315042 -15.543708
v -15.646230 2.322339 -15.657068
v -16.041456 1.463981 -19.258448
v -13.427134 1.770622 -18.159294
v -15.069216 2.315021 -15.248056
v -12.164427 1.891031 -16.317169
v -15.993482 2.333432 -15.543723
v -17.931280 1.845488 -18.159279
v -16.199745 2.344009 -15.248029
v -19.238813 1.733016 -16.159338
v -15.475786 4.297613 -13.333407
v -14.392129 4.268725 -13.576572
v -13.476867 3.806523 -12.495275
v -15.275327 3.351774 -11.494877
v -15.715308 2.836661 -12.321435
v -13.554026 2.870398 -12.515803
v -12.726645 2.429876 -16.050417
v -14.065096 2.729959 -17.287106
v -14.581419 4.297349 -16.496178
v -13.822762 4.380428 -15.653898
v -17.303648 2.839168 -17.287119
v -16.647526 4.362439 -16.496225
v -17.869846 2.354861 -12.444554
v -16.603838 4.333123 -13.576621
v -12.945536 3.032516 -14.213853
v -13.878856 4.329563 -14.539018
v -15.633677 2.403035 -18.280203
v -15.619569 4.228006 -16.941404
v -13.501559 5.130771 -15.759764
v -14.100778 4.694298 -17.091520
v -14.711264 6.194127 -16.256084
v -14.228259 6.255138 -15.517089
v -13.337498 3.208198 -17.817194
v -12.502840 3.817860 -16.030243
v -18.698797 4.019686 -16.053858
v -18.006836 3.315300 -17.763895
v -17.660652 3.920224 -12.495275
v -12.370583 3.014323 -13.540991
v -15.231605 3.613396 -18.261105
v -19.254896 3.974169 -14.037272
v -16.281418 6.166649 -13.979084
v -15.454153 6.142674 -13.655511
v -15.843097 5.660295 -12.239509
v -17.674017 5.274400 -12.416862
v -17.229439 4.665147 -17.142365
v -17.677299 5.234964 -15.759812
v -16.852245 6.269225 -15.516778
v -16.405834 6.203449 -16.255882
v -16.761669 5.009852 -13.317797
v -15.372964 4.652994 -12.538435
v -13.147820 4.571887 -14.186911
v -14.136129 6.220156 -14.647482
v -15.603699 4.895063 -17.273706
v -15.559230 6.125996 -16.469221
v -18.068737 4.790626 -14.286893
v -16.877638 6.240500 -14.647204
v -14.181423 4.933078 -13.317762
v -14.659987 6.148487 -13.979269
v -13.696356 6.845368 -14.491494
v -13.400903 6.790745 -15.787359
v -14.369683 7.884559 -15.483589
v -14.468921 7.833794 -14.693142
v -12.542351 5.881406 -16.067837
v -12.787434 5.821507 -14.191733
v -17.310276 5.868991 -17.426603
v -15.502210 5.226588 -18.521626
v -18.302183 5.929741 -14.191499
v -13.583000 5.355962 -12.504139
v -13.900692 5.789388 -17.426733
v -18.934938 5.712049 -16.225153
v -15.652162 7.847217 -16.416161
v -16.359909 7.817073 -16.060385
v -17.137779 7.269175 -16.912531
v -15.410554 7.438223 -17.190256
v -15.691209 6.498344 -17.422426
v -16.715630 6.843150 -16.651058
v -17.365032 6.877679 -14.491251
v -16.852901 6.608240 -13.241871
v -16.396307 7.879433 -13.988495
v -16.777643 7.831800 -14.700098
v -14.351000 6.527588 -13.247797
v -14.821378 7.877001 -13.983999
v -14.448514 6.820685 -16.651007
v -14.933590 7.817068 -16.055744
v -17.771341 6.803414 -15.811630
v -16.916546 7.880003 -15.491559
v -15.720177 6.757894 -13.174491
v -15.600028 7.840610 -13.855842
v -17.307070 8.132050 -14.559087
v -16.518930 8.344360 -13.899452
v -16.305923 9.382036 -14.430304
v -16.637182 9.368487 -14.806204
v -17.102190 7.545831 -13.018332
v -18.177902 7.373283 -14.385362
v -13.102819 7.244476 -14.386727
v -14.308786 7.515619 -13.371385
v -14.274348 7.180045 -17.088579
v -17.612101 7.611597 -15.732704
v -15.489927 7.001638 -12.426554
v -13.321730 7.610386 -15.786736
v -15.395007 9.409021 -14.421134
v -15.061665 9.414986 -14.789856
v -14.339499 8.967360 -14.613691
v -14.406521 8.587551 -13.775176
v -14.822334 8.356960 -13.892151
v -13.865607 7.985333 -14.528309
v -14.645570 8.024143 -16.514606
v -15.699133 8.323629 -16.510244
v -15.846843 9.384544 -15.828959
v -15.359529 9.399757 -15.721107
v -17.066448 8.325278 -15.517653
v -16.586094 9.365604 -15.300533
v -15.605579 8.035881 -13.261566
v -15.847999 9.397711 -14.224648
v -14.323638 8.346733 -15.504746
v -15.114837 9.409960 -15.284815
v -16.686232 8.128971 -16.423706
v -16.332739 9.370355 -15.731504
v -15.448353 9.901765 -15.675413
v -15.853193 9.628342 -16.093540
v -16.035324 11.482074 -15.216877
v -16.032621 8.673475 -16.649672
v -14.960623 9.073194 -16.181114
v -17.113811 9.036566 -14.631782
v -17.602247 9.047851 -15.563437
v -15.526337 8.710994 -13.420282
v -14.014798 8.780039 -15.543606
v -16.802216 8.814236 -16.107828
v -16.791067 8.707761 -13.783575
v -16.783951 9.911650 -15.400485
v -16.647923 9.865225 -14.820658
v -15.912848 9.895764 -14.273921
v -15.142254 9.570999 -14.230931
v -14.821692 9.604021 -15.377425
v -16.373211 9.868462 -15.622242
v -16.492540 9.677549 -14.262781
v -15.171789 9.917826 -14.802365
v -15.795077 1.008473 -15.753233
v -15.394969 0.917250 -15.620876
v -15.141726 0.863799 -15.275054
v -15.129763 0.871126 -14.847014
v -15.361450 0.935873 -14.501300
v -15.773250 1.025089 -14.368783
v -16.191296 1.110499 -14.501010
v -16.439518 1.166134 -14.846580
v -16.434032 1.163774 -15.274588
v -16.193472 1.102741 -15.620541
v -16.180210 0.144801 -15.767734
v -15.666719 0.140724 -15.934599
v -16.494562 0.148424 -15.331758
v -16.498594 0.149436 -14.792755
v -16.182848 0.148007 -14.357347
v -15.653621 0.150412 -14.190981
v -15.130339 0.150719 -14.357658
v -14.825867 0.141875 -14.793085
v -14.833510 0.137115 -15.331981
v -15.153817 0.137551 -15.767823
vt 0.929731 0.805301
vt 0.929795 0.805301
vt 0.929079 0.805060
vt 0.928796 0.805159
vt 0.929002 0.805364
vt 0.929113 0.805456
vt 0.929435 0.805899
vt 0.929390 0.805918
vt 0.929900 0.805300
vt 0.929866 0.805162
vt 0.930002 0.805297
vt 0.930644 0.805162
vt 0.930060 0.805293
vt 0.930967 0.805279
vt 0.929991 0.805291
vt 0.929890 0.805293
vt 0.929775 0.805045
vt 0.930530 0.805134
vt 0.930056 0.805291
vt 0.930895 0.805168
vt 0.929789 0.805296
vt 0.929230 0.805155
vt 0.929730 0.805299
vt 0.928852 0.805123
vt 0.929939 0.805863
vt 0.930252 0.805855
vt 0.930516 0.805721
vt 0.929997 0.805590
vt 0.929870 0.805441
vt 0.930494 0.805451
vt 0.930732 0.805324
vt 0.930346 0.805411
vt 0.930197 0.805863
vt 0.930416 0.805887
vt 0.929411 0.805442
vt 0.929601 0.805882
vt 0.929248 0.805302
vt 0.929613 0.805873
vt 0.930669 0.805498
vt 0.930400 0.805872
vt 0.929893 0.805316
vt 0.929897 0.805843
vt 0.930509 0.806104
vt 0.930336 0.805978
vt 0.930159 0.806411
vt 0.930299 0.806428
vt 0.930556 0.805549
vt 0.930797 0.805725
vt 0.929008 0.805783
vt 0.929208 0.805580
vt 0.929308 0.805754
vt 0.930835 0.805493
vt 0.930009 0.805666
vt 0.928848 0.805770
vt 0.929706 0.806403
vt 0.929945 0.806396
vt 0.929833 0.806256
vt 0.929304 0.806145
vt 0.929433 0.805969
vt 0.929303 0.806134
vt 0.929541 0.806432
vt 0.929670 0.806413
vt 0.929568 0.806069
vt 0.929968 0.805966
vt 0.930611 0.805942
vt 0.930325 0.806418
vt 0.929902 0.806036
vt 0.929915 0.806391
vt 0.929190 0.806005
vt 0.929534 0.806424
vt 0.930312 0.806047
vt 0.930174 0.806397
vt 0.930452 0.806599
vt 0.930538 0.806583
vt 0.930258 0.806899
vt 0.930229 0.806884
vt 0.930786 0.806320
vt 0.930715 0.806303
vt 0.929409 0.806317
vt 0.929931 0.806131
vt 0.929123 0.806334
vt 0.930485 0.806169
vt 0.930393 0.806294
vt 0.928940 0.806271
vt 0.929888 0.806888
vt 0.929684 0.806879
vt 0.929459 0.806721
vt 0.929958 0.806770
vt 0.929877 0.806498
vt 0.929581 0.806598
vt 0.929393 0.806608
vt 0.929541 0.806530
vt 0.929673 0.806897
vt 0.929563 0.806883
vt 0.930263 0.806507
vt 0.930128 0.806896
vt 0.930235 0.806591
vt 0.930095 0.806879
vt 0.929276 0.806586
vt 0.929523 0.806897
vt 0.929868 0.806573
vt 0.929903 0.806886
vt 0.929410 0.806970
vt 0.929638 0.807031
vt 0.929699 0.807331
vt 0.929604 0.807327
vt 0.929469 0.806801
vt 0.929159 0.806751
vt 0.930624 0.806714
vt 0.930276 0.806792
vt 0.930286 0.806695
vt 0.929322 0.806820
vt 0.929935 0.806644
vt 0.930561 0.806819
vt 0.929962 0.807339
vt 0.930058 0.807340
vt 0.930267 0.807211
vt 0.930247 0.807101
vt 0.930127 0.807035
vt 0.930404 0.806928
vt 0.930178 0.806939
vt 0.929874 0.807025
vt 0.929832 0.807332
vt 0.929972 0.807336
vt 0.929480 0.807026
vt 0.929618 0.807326
vt 0.929901 0.806942
vt 0.929831 0.807335
vt 0.930271 0.807032
vt 0.930043 0.807339
vt 0.929589 0.806969
vt 0.929691 0.807327
vt 0.929947 0.807481
vt 0.929830 0.807402
vt 0.929777 0.807937
vt 0.929778 0.807126
vt 0.930088 0.807242
vt 0.929466 0.807231
vt 0.929325 0.807234
vt 0.929924 0.807137
vt 0.930360 0.807157
vt 0.929556 0.807167
vt 0.929559 0.807136
vt 0.929561 0.807484
vt 0.929600 0.807470
vt 0.929813 0.807479
vt 0.930035 0.807385
vt 0.930128 0.807395
vt 0.929680 0.807471
vt 0.929645 0.807416
vt 0.930027 0.807485
vt 0.715796 0.427348
vt 0.715975 0.428929
vt 0.716398 0.428920
vt 0.716277 0.427238
vt 0.716669 0.428920
vt 0.716582 0.427173
vt 0.716686 0.428930
vt 0.716596 0.427182
vt 0.716445 0.428947
vt 0.716318 0.427260
vt 0.716018 0.428957
vt 0.715822 0.427368
vt 0.715582 0.428961
vt 0.715319 0.427470
vt 0.715313 0.428962
vt 0.715020 0.427537
vt 0.715309 0.428955
vt 0.715027 0.427534
vt 0.715557 0.428942
vt 0.715316 0.427461
vt 0.715332 0.426308
vt 0.715950 0.426303
vt 0.714954 0.426313
vt 0.714949 0.426314
vt 0.715329 0.426312
vt 0.715966 0.426315
vt 0.716596 0.426315
vt 0.716962 0.426305
vt 0.716953 0.426299
vt 0.716567 0.426299
vn 0.0951 -0.9736 -0.2076
vn -0.8110 0.5765 0.0997
vn 0.1540 -0.9765 -0.1510
vn -0.0341 -0.9891 -0.1429
vn 0.0136 -0.9880 -0.1541
vn 0.0077 -0.9751 0.2218
vn -0.0760 -0.9866 0.1444
vn -0.1023 -0.9866 0.1268
vn -0.0470 -0.9725 0.2282
vn 0.1690 -0.9833 0.0678
vn 0.1712 -0.9831 0.0647
vn 0.1713 -0.9831 0.0646
vn 0.1734 -0.9829 0.0616
vn -0.0469 -0.9066 -0.4193
vn 0.1062 0.5981 0.7944
vn 0.6380 0.4923 -0.5922
vn -0.6071 0.5456 -0.5776
vn -0.1675 0.5733 0.8020
vn 0.8477 0.5302 -0.0201
vn -0.2973 0.5541 -0.7775
vn -0.6688 0.6222 0.4070
vn 0.6930 0.6329 0.3452
vn 0.3443 0.5352 -0.7714
vn 0.6807 0.5470 -0.4872
vn -0.2907 -0.8670 0.4046
vn 0.2365 -0.8777 0.4168
vn -0.0059 -0.9060 -0.4233
vn -0.5144 -0.8368 -0.1875
vn 0.1585 -0.8568 0.4908
vn 0.1657 -0.9653 -0.2017
vn -0.5224 -0.8451 -0.1135
vn -0.2289 -0.8763 0.4239
vn 0.2633 -0.9647 -0.0003
vn 0.1864 -0.9297 -0.3176
vn -0.6450 0.6134 -0.4557
vn -0.2884 0.5636 0.7740
vn 0.8511 0.5243 -0.0279
vn -0.1485 0.5489 -0.8226
vn -0.5534 0.5866 0.5913
vn 0.6395 0.5414 0.5459
vn 0.1695 0.5330 -0.8290
vn -0.7767 0.6298 -0.0110
vn 0.3370 0.5649 0.7532
vn 0.7627 0.6308 0.1431
vn -0.2478 -0.9677 -0.0472
vn -0.0676 -0.9257 0.3722
vn 0.1452 -0.9257 -0.3491
vn -0.1982 -0.9257 -0.3221
vn 0.0335 -0.9233 0.3826
vn 0.2393 -0.9709 0.0131
vn -0.1601 -0.9167 -0.3661
vn -0.1573 -0.9653 0.2085
vn 0.1902 -0.9690 0.1575
vn 0.1887 -0.8723 0.4511
vn -0.3740 0.5677 -0.7333
vn -0.7508 0.5246 0.4014
vn 0.7064 0.5529 0.4420
vn 0.3438 0.5733 -0.7437
vn -0.8039 0.5599 0.2006
vn 0.1260 0.5130 0.8491
vn 0.5163 0.6153 -0.5956
vn -0.5286 0.5852 -0.6149
vn -0.1175 0.5360 0.8360
vn -0.6513 0.4595 0.6039
vn 0.2933 -0.9502 -0.1050
vn -0.3757 -0.9103 -0.1736
vn -0.2365 -0.8874 0.3958
vn 0.3251 -0.9437 -0.0615
vn -0.0304 -0.8657 -0.4996
vn -0.1805 -0.9045 0.3863
vn 0.2405 -0.9048 0.3515
vn -0.0785 -0.8878 -0.4534
vn -0.3323 -0.9297 -0.1587
vn -0.4149 -0.8177 -0.3989
vn 0.5920 0.5951 0.5435
vn 0.1568 0.5514 -0.8194
vn -0.8868 0.4464 -0.1196
vn 0.3425 0.5749 0.7430
vn 0.6913 0.5962 -0.4081
vn -0.7768 0.4567 -0.4335
vn -0.3806 0.4854 0.7871
vn 0.7772 0.6176 -0.1205
vn -0.1778 0.5158 -0.8380
vn 0.5075 0.4086 -0.7586
vn -0.0245 -0.7787 0.6269
vn 0.4021 -0.9065 -0.1287
vn -0.2570 -0.7765 -0.5753
vn -0.4323 -0.8661 0.2510
vn 0.2750 -0.8266 0.4910
vn 0.2237 -0.7234 -0.6532
vn -0.5083 -0.8610 0.0194
vn 0.2502 -0.7301 0.6359
vn 0.4436 -0.7817 -0.4383
vn -0.8870 0.3948 0.2397
vn 0.1694 0.5132 0.8414
vn 0.5438 0.4138 -0.7301
vn -0.4278 0.3035 -0.8514
vn -0.1695 0.4939 0.8528
vn 0.8274 0.5157 0.2223
vn -0.5558 0.3101 -0.7713
vn -0.8353 0.4071 0.3696
vn 0.8096 0.5194 0.2734
vn 0.2359 0.6928 -0.6814
vn 0.5740 0.7300 0.3710
vn -0.5902 0.6998 0.4024
vn -0.2118 0.7327 -0.6468
vn 0.6264 0.7586 -0.1791
vn -0.2420 0.6721 0.6998
vn -0.6257 0.6404 -0.4455
vn 0.5350 0.7394 -0.4088
vn 0.1053 0.6881 0.7179
vn -0.7568 0.6526 -0.0363
vn 0.2699 0.6413 0.7183
vn -0.6741 0.7343 -0.0800
vn 0.2466 0.5812 -0.7755
vn 0.6877 0.6018 0.4061
vn -0.4509 0.7582 0.4710
vn -0.1820 0.5332 -0.8262
vn 0.8433 0.5319 0.0775
vn -0.1920 0.6430 0.7414
vn -0.6265 0.6117 -0.4830
vn 0.6466 0.5824 -0.4927
vn -0.1753 0.6210 0.7639
vn -0.4623 0.7039 -0.5393
vn 0.4979 0.6643 -0.5575
vn 0.1625 0.6162 0.7706
vn -0.6926 0.7049 0.1532
vn 0.2589 0.6583 -0.7068
vn 0.5822 0.6662 0.4661
vn -0.5988 0.6744 0.4320
vn -0.2495 0.6467 -0.7208
vn 0.7315 0.6701 0.1258
vn -0.1834 0.5588 -0.8088
vn 0.6434 0.7638 0.0505
vn -0.1118 0.6943 0.7110
vn -0.6632 0.6126 -0.4299
vn 0.4978 0.7056 -0.5043
vn 0.3108 0.6231 0.7178
vn -0.7137 0.6900 -0.1205
vn 0.1924 0.6231 -0.7581
vn 0.5689 0.6628 0.4870
vn -0.5476 0.7553 0.3602
vn 0.6641 0.6572 0.3564
vn -0.7586 0.4843 0.4359
vn -0.4304 0.5148 -0.7414
vn 0.7300 0.6757 0.1023
vn -0.2200 0.5067 0.8336
vn -0.3754 0.5066 -0.7762
vn 0.5545 0.6471 -0.5233
vn 0.2663 0.5955 0.7579
vn -0.7492 0.5735 0.3314
vn 0.2479 0.5269 -0.8130
vn 0.3145 0.0318 -0.9487
vn 0.7999 -0.0265 -0.5996
vn 0.9982 -0.0506 -0.0316
vn 0.8274 -0.0286 0.5608
vn 0.3093 0.0359 0.9503
vn -0.2861 0.1136 0.9514
vn -0.7847 0.1795 0.5933
vn -0.9802 0.1981 -0.0041
vn -0.7999 0.1688 -0.5759
vn -0.2981 0.1054 -0.9487
vn -0.2943 0.1471 -0.9443
vn -0.8098 0.0796 -0.5813
vn -0.9982 0.0588 -0.0100
vn -0.8054 0.0792 0.5874
vn -0.2858 0.1458 0.9471
vn 0.3165 0.2444 0.9166
vn 0.7887 0.3450 0.5088
vn 0.9216 0.3875 -0.0235
vn 0.7660 0.3521 -0.5378
vn 0.3248 0.2544 -0.9109
usemtl Material.007
f 1/1/1 2/2/1 3/3/1 4/4/1
f 5/5/2 6/6/2 7/7/2 8/8/2
f 2/2/3 9/9/3 10/10/3 3/3/3
f 9/9/4 11/11/4 12/12/4 10/10/4
f 11/11/5 13/13/5 14/14/5 12/12/5
f 15/15/6 16/16/6 17/17/6 18/18/6
f 13/13/7 19/19/7 20/20/7 14/14/7
f 19/19/8 15/15/8 18/18/8 20/20/8
f 16/16/9 21/21/9 22/22/9 17/17/9
f 21/21/10 23/23/11 24/24/12 22/22/10
f 23/23/11 1/1/13 4/4/13 24/24/12
f 25/25/14 26/26/14 27/27/14 28/28/14
f 29/29/15 30/30/15 26/26/15 25/25/15
f 31/31/16 32/32/16 33/33/16 34/34/16
f 35/35/17 5/5/17 8/8/17 36/36/17
f 37/37/18 29/29/18 25/25/18 38/38/18
f 39/39/19 31/31/19 34/34/19 40/40/19
f 41/41/20 35/35/20 36/36/20 42/42/20
f 6/6/21 37/37/21 38/38/21 7/7/21
f 30/30/22 39/39/22 40/40/22 26/26/22
f 32/32/23 41/41/23 42/42/23 33/33/23
f 43/43/24 44/44/24 45/45/24 46/46/24
f 34/34/25 33/33/25 47/47/25 48/48/25
f 36/36/26 8/8/26 49/49/26 50/50/26
f 38/38/27 25/25/27 28/28/27 51/51/27
f 40/40/28 34/34/28 48/48/28 52/52/28
f 42/42/29 36/36/29 50/50/29 53/53/29
f 7/7/30 38/38/30 51/51/30 54/54/30
f 26/26/31 40/40/31 52/52/31 27/27/31
f 33/33/32 42/42/32 53/53/32 47/47/32
f 8/8/33 7/7/33 54/54/33 49/49/33
f 55/55/34 56/56/34 57/57/34 58/58/34
f 59/59/35 60/60/35 61/61/35 62/62/35
f 63/63/36 64/64/36 56/56/36 55/55/36
f 65/65/37 43/43/37 46/46/37 66/66/37
f 67/67/38 59/59/38 62/62/38 68/68/38
f 69/69/39 63/63/39 55/55/39 70/70/39
f 71/71/40 65/65/40 66/66/40 72/72/40
f 44/44/41 67/67/41 68/68/41 45/45/41
f 60/60/42 69/69/42 70/70/42 61/61/42
f 64/64/43 71/71/43 72/72/43 56/56/43
f 73/73/44 74/74/44 75/75/44 76/76/44
f 66/66/45 46/46/45 77/77/45 78/78/45
f 68/68/46 62/62/46 79/79/46 80/80/46
f 70/70/47 55/55/47 58/58/47 81/81/47
f 72/72/48 66/66/48 78/78/48 82/82/48
f 45/45/49 68/68/49 80/80/49 83/83/49
f 61/61/50 70/70/50 81/81/50 84/84/50
f 56/56/51 72/72/51 82/82/51 57/57/51
f 46/46/52 45/45/52 83/83/52 77/77/52
f 62/62/53 61/61/53 84/84/53 79/79/53
f 85/85/54 86/86/54 87/87/54 88/88/54
f 89/89/55 90/90/55 86/86/55 85/85/55
f 91/91/56 92/92/56 93/93/56 94/94/56
f 95/95/57 73/73/57 76/76/57 96/96/57
f 97/97/58 89/89/58 85/85/58 98/98/58
f 99/99/59 91/91/59 94/94/59 100/100/59
f 101/101/60 95/95/60 96/96/60 102/102/60
f 74/74/61 97/97/61 98/98/61 75/75/61
f 90/90/62 99/99/62 100/100/62 86/86/62
f 92/92/63 101/101/63 102/102/63 93/93/63
f 103/103/64 104/104/64 105/105/64 106/106/64
f 94/94/65 93/93/65 107/107/65 108/108/65
f 96/96/66 76/76/66 109/109/66 110/110/66
f 98/98/67 85/85/67 88/88/67 111/111/67
f 100/100/68 94/94/68 108/108/68 112/112/68
f 102/102/69 96/96/69 110/110/69 113/113/69
f 75/75/70 98/98/70 111/111/70 114/114/70
f 86/86/71 100/100/71 112/112/71 87/87/71
f 93/93/72 102/102/72 113/113/72 107/107/72
f 76/76/73 75/75/73 114/114/73 109/109/73
f 115/115/74 116/116/74 117/117/74 118/118/74
f 119/119/75 120/120/75 116/116/75 115/115/75
f 121/121/76 122/122/76 123/123/76 124/124/76
f 125/125/77 103/103/77 106/106/77 126/126/77
f 127/127/78 119/119/78 115/115/78 128/128/78
f 129/129/79 121/121/79 124/124/79 130/130/79
f 131/131/80 125/125/80 126/126/80 132/132/80
f 104/104/81 127/127/81 128/128/81 105/105/81
f 120/120/82 129/129/82 130/130/82 116/116/82
f 122/122/83 131/131/83 132/132/83 123/123/83
f 133/133/84 134/134/84 135/135/84
f 124/124/85 123/123/85 136/136/85 137/137/85
f 126/126/86 106/106/86 138/138/86 139/139/86
f 128/128/87 115/115/87 118/118/87 140/140/87
f 130/130/88 124/124/88 137/137/88 141/141/88
f 132/132/89 126/126/89 139/139/89 142/142/89
f 105/105/90 128/128/90 140/140/90 143/143/90
f 116/116/91 130/130/91 141/141/91 117/117/91
f 123/123/92 132/132/92 142/142/92 136/136/92
f 106/106/93 105/105/93 143/143/93 138/138/93
f 144/144/94 145/145/94 135/135/94
f 146/146/95 147/147/95 135/135/95
f 148/148/96 133/133/96 135/135/96
f 149/149/97 144/144/97 135/135/97
f 150/150/98 146/146/98 135/135/98
f 151/151/99 148/148/99 135/135/99
f 134/134/100 149/149/100 135/135/100
f 145/145/101 150/150/101 135/135/101
f 147/147/102 151/151/102 135/135/102
f 18/18/103 17/17/103 41/41/103 32/32/103
f 12/12/104 14/14/104 39/39/104 30/30/104
f 4/4/105 3/3/105 37/37/105 6/6/105
f 17/17/106 22/22/106 35/35/106 41/41/106
f 14/14/107 20/20/107 31/31/107 39/39/107
f 3/3/108 10/10/108 29/29/108 37/37/108
f 22/22/109 24/24/109 5/5/109 35/35/109
f 20/20/110 18/18/110 32/32/110 31/31/110
f 10/10/111 12/12/111 30/30/111 29/29/111
f 24/24/112 4/4/112 6/6/112 5/5/112
f 28/28/113 27/27/113 71/71/113 64/64/113
f 49/49/114 54/54/114 69/69/114 60/60/114
f 47/47/115 53/53/115 67/67/115 44/44/115
f 27/27/116 52/52/116 65/65/116 71/71/116
f 54/54/117 51/51/117 63/63/117 69/69/117
f 53/53/118 50/50/118 59/59/118 67/67/118
f 52/52/119 48/48/119 43/43/119 65/65/119
f 51/51/120 28/28/120 64/64/120 63/63/120
f 50/50/121 49/49/121 60/60/121 59/59/121
f 48/48/122 47/47/122 44/44/122 43/43/122
f 58/58/123 57/57/123 101/101/123 92/92/123
f 79/79/124 84/84/124 99/99/124 90/90/124
f 77/77/125 83/83/125 97/97/125 74/74/125
f 57/57/126 82/82/126 95/95/126 101/101/126
f 84/84/127 81/81/127 91/91/127 99/99/127
f 83/83/128 80/80/128 89/89/128 97/97/128
f 82/82/129 78/78/129 73/73/129 95/95/129
f 81/81/130 58/58/130 92/92/130 91/91/130
f 80/80/131 79/79/131 90/90/131 89/89/131
f 78/78/132 77/77/132 74/74/132 73/73/132
f 88/88/133 87/87/133 131/131/133 122/122/133
f 109/109/134 114/114/134 129/129/134 120/120/134
f 107/107/135 113/113/135 127/127/135 104/104/135
f 87/87/136 112/112/136 125/125/136 131/131/136
f 114/114/137 111/111/137 121/121/137 129/129/137
f 113/113/138 110/110/138 119/119/138 127/127/138
f 112/112/139 108/108/139 103/103/139 125/125/139
f 111/111/140 88/88/140 122/122/140 121/121/140
f 110/110/141 109/109/141 120/120/141 119/119/141
f 108/108/142 107/107/142 104/104/142 103/103/142
f 118/118/143 117/117/143 151/151/143 147/147/143
f 138/138/144 143/143/144 150/150/144 145/145/144
f 136/136/145 142/142/145 149/149/145 134/134/145
f 117/117/146 141/141/146 148/148/146 151/151/146
f 143/143/147 140/140/147 146/146/147 150/150/147
f 142/142/148 139/139/148 144/144/148 149/149/148
f 141/141/149 137/137/149 133/133/149 148/148/149
f 140/140/150 118/118/150 147/147/150 146/146/150
f 139/139/151 138/138/151 145/145/151 144/144/151
f 137/137/152 136/136/152 134/134/152 133/133/152
usemtl Material.001
f 152/152/153 16/153/153 15/154/153 153/155/153
f 153/155/154 15/154/154 19/156/154 154/157/154
f 154/157/155 19/156/155 13/158/155 155/159/155
f 155/159/156 13/158/156 11/160/156 156/161/156
f 156/161/157 11/160/157 9/162/157 157/163/157
f 157/163/158 9/162/158 2/164/158 158/165/158
f 158/165/159 2/164/159 1/166/159 159/167/159
f 159/167/160 1/166/160 23/168/160 160/169/160
f 160/169/161 23/168/161 21/170/161 161/171/161
f 161/171/162 21/170/162 16/153/162 152/152/162
f 162/172/163 161/171/163 152/152/163 163/173/163
f 164/174/164 160/169/164 161/171/164 162/172/164
f 165/175/165 159/167/165 160/169/165 164/174/165
f 166/176/166 158/165/166 159/167/166 165/175/166
f 167/177/167 157/163/167 158/165/167 166/176/167
f 168/178/168 156/161/168 157/163/168 167/177/168
f 169/179/169 155/159/169 156/161/169 168/178/169
f 170/180/170 154/157/170 155/159/170 169/179/170
f 171/181/171 153/155/171 154/157/171 170/180/171
f 163/173/172 152/152/172 153/155/172 171/181/172
