mtllib LOW_POLY_set.mtl
o lp_conifer5_Cylinder_004
v 0.220625 5.864567 -13.581263
v 1.729468 5.972848 -14.213820
v 2.610019 5.170797 -13.388260
v 0.169220 5.504280 -12.400692
v -1.631498 6.047385 -17.688374
v -2.279228 6.305428 -15.840621
v -1.046602 8.193890 -15.741175
v -0.612908 7.983638 -16.582821
v -1.440389 5.570536 -17.382622
v -1.913202 5.593746 -15.714378
v -2.954356 4.963335 -16.226191
v -2.235518 4.535595 -18.157801
v 2.354451 5.968950 -15.729942
v 1.729468 5.855159 -17.241508
v 2.377306 5.297839 -18.112419
v 3.764648 5.332216 -15.754134
v -1.288220 5.707539 -14.202816
v -2.296246 4.970096 -13.369933
v 0.220625 5.698131 -17.863062
v -0.205643 4.957350 -18.922783
v 0.174048 4.965352 -19.081661
v 2.753978 5.161854 -13.738261
v -3.159175 4.976058 -15.728216
v 3.225591 7.431879 -15.765946
v 1.429535 8.069465 -15.741175
v 2.411160 8.418856 -15.953501
v -1.670170 6.202254 -13.953562
v 0.093482 6.326014 -13.217905
v 0.233100 8.190843 -14.550914
v -0.612908 8.155292 -14.899533
v 2.104821 6.157269 -13.820148
v 2.543197 6.676348 -15.856009
v 1.079108 8.155292 -14.899533
v 2.023340 6.119479 -17.752232
v 0.040028 6.015557 -18.471439
v 0.233100 7.948087 -16.931440
v 1.079108 7.983638 -16.582821
v 0.207983 8.795011 -18.092505
v -1.295176 8.913004 -17.475977
v -0.778878 10.297375 -16.720535
v 0.201604 10.273171 -17.128027
v -2.545549 7.896578 -16.040709
v -1.892460 7.679060 -17.683136
v 2.154477 7.248443 -13.799218
v 0.245538 7.843546 -18.644098
v 2.328138 7.295154 -18.039772
v -1.419034 7.644261 -17.997295
v -1.979480 7.603983 -13.897979
v 0.504148 7.729388 -12.970060
v 1.182082 10.154718 -14.761818
v 1.588211 10.172299 -15.743004
v 2.645334 9.216657 -15.576876
v 1.733630 9.634442 -14.169658
v -1.946888 8.868083 -15.893875
v -1.192881 9.002190 -14.407861
v -0.778878 10.230730 -14.759233
v -1.185005 10.279793 -15.739349
v 0.278201 8.503922 -13.678815
v 1.851579 8.397999 -14.343408
v 0.201604 10.178921 -14.354325
v 1.754327 8.560992 -17.460808
v 1.182082 10.221363 -16.723120
v -0.782411 10.891564 -16.693630
v -1.237546 10.904146 -15.589141
v -0.698148 12.076201 -15.754939
v -0.439172 12.045261 -16.380957
v 0.060415 9.461554 -17.975080
v 1.773969 9.584131 -17.328873
v -1.370763 9.921702 -17.312695
v -1.370763 10.032526 -14.153480
v -2.163246 9.694058 -15.729739
v 0.427648 9.550423 -13.602497
v 1.916255 9.552320 -16.984512
v -0.002959 9.596217 -13.591345
v 0.186050 12.201403 -14.875847
v 0.811272 12.222319 -15.137733
v 1.430553 11.830768 -14.516618
v 0.096138 12.052381 -14.008361
v -0.782411 10.863681 -14.489294
v 0.186226 10.567741 -14.053886
v -0.439172 12.140877 -15.131502
v 1.418397 10.490647 -14.463107
v 1.860943 10.582340 -15.578315
v 1.070248 12.191375 -15.763751
v 1.415178 10.763497 -16.704836
v 0.316384 10.833306 -17.155766
v 0.186050 12.066177 -16.642843
v 0.811272 12.126700 -16.387190
v 0.089106 12.829937 -16.778143
v -0.561792 12.566908 -16.606562
v 0.046501 14.632524 -15.741175
v 1.208686 11.907403 -16.941490
v 1.967892 11.721107 -15.904512
v -1.660203 11.466516 -15.714455
v -1.028818 11.618134 -16.899752
v -0.996241 11.672714 -14.504522
v 1.948427 11.721002 -15.464239
v 0.217156 11.527737 -17.437653
v -0.637553 11.615727 -17.067329
v -0.786700 12.839743 -15.839214
v -0.500514 12.902994 -15.209291
v 0.148441 12.962185 -14.968281
v 0.780020 12.982640 -15.257368
v 1.024249 12.952379 -15.907210
v 0.738064 12.889128 -16.537138
v 3.085566 7.383842 -16.291483
v -0.221855 6.527467 -15.741175
v -0.097826 6.527467 -15.441747
v 0.501032 6.527467 -15.441747
v 0.625061 6.527467 -15.741175
v 0.501032 6.527467 -16.040607
v 0.201602 6.527467 -16.164635
v -0.097826 6.527467 -16.040607
v 0.201602 6.527467 -15.317718
v -1.510278 7.530091 -13.592369
v 0.429046 4.372807 -16.219666
v 0.781339 4.439572 -16.129440
v 0.968588 4.472548 -15.811776
v 0.881104 4.452416 -15.452757
v 0.570133 4.390968 -15.262688
v 0.217840 4.324202 -15.352911
v 0.030590 4.291226 -15.670577
v 0.118076 4.311360 -16.029596
v -0.240927 0.144904 -16.183706
v 0.099309 2.636194 -15.975968
v 0.389637 2.678548 -16.044579
v 0.201602 0.144904 -16.367008
v -0.424229 0.144904 -15.741176
v 0.062134 2.618650 -15.600392
v -0.240927 0.144904 -15.298648
v 0.299890 2.636194 -15.307287
v 0.201602 0.144904 -15.115346
v 0.673301 2.678548 -15.098925
v 0.644133 0.144904 -15.298648
v 0.963629 2.720903 -15.336961
v 0.827433 0.144904 -15.741176
v 1.000803 2.738446 -15.712535
v 0.644133 0.144904 -16.183706
v 0.763048 2.720903 -16.005640
vt 0.955059 0.817585
vt 0.955420 0.817611
vt 0.955631 0.817419
vt 0.955047 0.817499
vt 0.954616 0.817629
vt 0.954461 0.817691
vt 0.954756 0.818143
vt 0.954860 0.818093
vt 0.954661 0.817515
vt 0.954548 0.817520
vt 0.954299 0.817369
vt 0.954471 0.817267
vt 0.955570 0.817610
vt 0.955420 0.817583
vt 0.955576 0.817450
vt 0.955908 0.817458
vt 0.954698 0.817548
vt 0.954457 0.817371
vt 0.955059 0.817545
vt 0.954957 0.817368
vt 0.955048 0.817370
vt 0.955666 0.817417
vt 0.954250 0.817373
vt 0.955779 0.817961
vt 0.955349 0.818113
vt 0.955584 0.818197
vt 0.954606 0.817666
vt 0.955029 0.817696
vt 0.955062 0.818142
vt 0.954860 0.818134
vt 0.955510 0.817655
vt 0.955615 0.817780
vt 0.955265 0.818134
vt 0.955491 0.817646
vt 0.955016 0.817621
vt 0.955062 0.818084
vt 0.955265 0.818093
vt 0.955056 0.818287
vt 0.954696 0.818315
vt 0.954820 0.818647
vt 0.955055 0.818641
vt 0.954397 0.818072
vt 0.954553 0.818020
vt 0.955522 0.817917
vt 0.955065 0.818059
vt 0.955564 0.817928
vt 0.954667 0.818011
vt 0.954532 0.818002
vt 0.955127 0.818032
vt 0.955289 0.818613
vt 0.955387 0.818617
vt 0.955640 0.818388
vt 0.955421 0.818488
vt 0.954540 0.818304
vt 0.954721 0.818337
vt 0.954820 0.818631
vt 0.954723 0.818642
vt 0.955073 0.818217
vt 0.955450 0.818192
vt 0.955055 0.818618
vt 0.955426 0.818231
vt 0.955289 0.818628
vt 0.954819 0.818789
vt 0.954710 0.818792
vt 0.954839 0.819073
vt 0.954901 0.819065
vt 0.955021 0.818447
vt 0.955431 0.818476
vt 0.954678 0.818557
vt 0.954678 0.818583
vt 0.954488 0.818502
vt 0.955109 0.818468
vt 0.955465 0.818468
vt 0.955006 0.818479
vt 0.955051 0.819103
vt 0.955201 0.819108
vt 0.955349 0.819014
vt 0.955029 0.819067
vt 0.954819 0.818782
vt 0.955051 0.818711
vt 0.954901 0.819088
vt 0.955346 0.818693
vt 0.955452 0.818715
vt 0.955263 0.819100
vt 0.955345 0.818758
vt 0.955082 0.818775
vt 0.955051 0.819070
vt 0.955201 0.819085
vt 0.955028 0.819253
vt 0.954872 0.819190
vt 0.955018 0.819685
vt 0.955296 0.819032
vt 0.955478 0.818988
vt 0.954609 0.818927
vt 0.954760 0.818963
vt 0.954768 0.818976
vt 0.955473 0.818988
vt 0.955058 0.818941
vt 0.954854 0.818962
vt 0.954818 0.819255
vt 0.954886 0.819271
vt 0.955042 0.819285
vt 0.955193 0.819290
vt 0.955252 0.819282
vt 0.955183 0.819267
vt 0.955745 0.817949
vt 0.954953 0.817744
vt 0.954983 0.817744
vt 0.955126 0.817744
vt 0.955156 0.817744
vt 0.955126 0.817744
vt 0.955055 0.817744
vt 0.954983 0.817744
vt 0.955055 0.817744
vt 0.954645 0.817984
vt 0.828490 0.447582
vt 0.828398 0.448450
vt 0.828519 0.448450
vt 0.828632 0.447609
vt 0.828569 0.448450
vt 0.828708 0.447622
vt 0.828519 0.448450
vt 0.828672 0.447614
vt 0.828398 0.448450
vt 0.828547 0.447590
vt 0.828278 0.448450
vt 0.828405 0.447563
vt 0.828228 0.448450
vt 0.828330 0.447549
vt 0.828278 0.448450
vt 0.828365 0.447557
vt 0.828220 0.445879
vt 0.828357 0.446882
vt 0.828474 0.446899
vt 0.828398 0.445879
vt 0.828146 0.445879
vt 0.828342 0.446875
vt 0.828220 0.445879
vt 0.828438 0.446882
vt 0.828398 0.445879
vt 0.828589 0.446899
vt 0.828577 0.445879
vt 0.828706 0.446917
vt 0.828651 0.445879
vt 0.828721 0.446924
vt 0.828577 0.445879
vt 0.828625 0.446917
vn -0.2219 -0.8807 -0.4185
vn -0.7337 0.5552 -0.3917
vn 0.5321 -0.8003 0.2764
vn -0.4049 -0.8811 0.2443
vn 0.2903 -0.8961 -0.3358
vn 0.3019 -0.7776 0.5516
vn -0.1015 -0.8593 0.5013
vn -0.4594 -0.8515 -0.2529
vn 0.4670 -0.8705 -0.1553
vn -0.1098 -0.2723 -0.9559
vn -0.3471 0.5585 0.7534
vn 0.7676 0.5685 0.2960
vn 0.2581 0.5945 -0.7615
vn -0.3143 0.6010 -0.7349
vn -0.7789 0.5360 0.3255
vn 0.2983 0.5539 0.7773
vn 0.7143 0.5959 -0.3669
vn -0.2971 0.5301 -0.7942
vn 0.1034 -0.9717 0.2126
vn -0.3929 -0.8904 -0.2298
vn -0.2188 -0.9635 0.1540
vn 0.1090 -0.9876 0.1125
vn 0.2370 -0.9537 -0.1852
vn -0.3252 -0.8984 -0.2952
vn -0.6069 -0.7675 -0.2063
vn -0.8346 0.3999 0.3788
vn 0.3772 0.3547 0.8555
vn 0.8401 0.4338 -0.3257
vn -0.8157 0.4786 -0.3249
vn -0.3279 0.3486 0.8780
vn 0.8625 0.3861 0.3272
vn 0.3769 0.4949 -0.7829
vn 0.3771 0.4945 -0.7831
vn 0.3772 0.4943 -0.7832
vn -0.8626 0.3504 -0.3648
vn -0.2342 -0.7237 0.6491
vn 0.1068 -0.7930 0.5998
vn 0.4156 -0.9049 -0.0924
vn -0.2172 -0.8005 -0.5586
vn -0.6536 -0.7319 0.1928
vn 0.4785 -0.8667 0.1408
vn 0.0191 -0.8732 -0.4871
vn -0.2025 -0.9414 -0.2699
vn -0.2962 0.4568 0.8388
vn 0.8290 0.4368 0.3492
vn 0.3534 0.3742 -0.8574
vn -0.3589 0.3336 -0.8717
vn -0.8419 0.4166 0.3430
vn 0.3179 0.4326 0.8437
vn 0.8534 0.4145 -0.3161
vn -0.3935 0.4514 -0.8009
vn -0.3893 -0.9048 0.1724
vn 0.5038 -0.8423 0.1915
vn 0.3355 -0.9131 -0.2318
vn -0.4316 -0.8922 -0.1333
vn 0.0084 -0.8707 0.4917
vn 0.1856 -0.8320 0.5228
vn 0.5300 -0.8358 -0.1433
vn -0.8563 0.3788 0.3510
vn 0.3689 0.4088 0.8348
vn 0.7740 0.4901 -0.4009
vn -0.8279 0.4059 -0.3870
vn -0.3526 0.3752 0.8573
vn 0.8385 0.4589 0.2938
vn 0.2651 0.4855 -0.8331
vn 0.2574 0.4626 -0.8483
vn 0.7252 0.6239 0.2913
vn -0.4332 0.6199 0.6543
vn -0.7902 0.4835 -0.3765
vn 0.7075 -0.1338 -0.6939
vn 0.3406 0.6551 0.6744
vn -0.7878 0.5197 0.3307
vn -0.3507 0.4104 -0.8418
vn 0.8410 0.4517 -0.2978
vn -0.7561 0.5882 0.2870
vn -0.2340 0.5687 -0.7885
vn 0.3116 0.4774 -0.8216
vn 0.8095 0.4506 0.3764
vn -0.2169 0.4720 0.8545
vn -0.7348 0.6121 -0.2921
vn 0.3739 0.5010 -0.7805
vn 0.7613 0.5273 0.3772
vn -0.7990 0.4894 -0.3495
vn 0.2579 -0.1439 0.9554
vn 0.4282 0.5728 0.6990
vn -0.7983 0.5146 0.3129
vn -0.3456 0.4192 -0.8396
vn 0.7175 0.5697 -0.4008
vn 0.3273 0.6060 0.7250
vn -0.7894 0.5423 0.2877
vn 0.9431 -0.0814 -0.3224
vn 0.2791 0.4983 -0.8208
vn -0.6003 -0.3316 0.7278
vn -0.3794 0.5886 0.7139
vn -0.7992 0.4703 -0.3743
vn 0.1071 0.9911 0.0793
vn 0.4694 -0.8719 -0.1394
vn -0.3039 -0.9447 -0.1233
vn -0.0969 -0.9002 0.4246
vn 0.1911 -0.8804 0.4340
vn 0.2274 -0.9043 -0.3612
vn -0.3121 -0.9313 0.1876
vn 0.4737 -0.8672 0.1539
vn -0.0889 -0.9339 -0.3462
vn -0.2607 0.5493 0.7939
vn 0.1823 -0.9326 -0.3114
vn -0.8480 -0.1285 0.5141
vn 0.6658 -0.2017 -0.7184
vn 0.6032 -0.0491 0.7961
vn -0.7715 -0.1729 -0.6123
vn -0.2257 0.1296 -0.9655
vn 0.5402 -0.2593 0.8006
vn -0.3873 0.4218 -0.8198
vn -0.9604 -0.2212 0.1697
vn 0.0780 -0.1351 -0.9878
vn -0.4149 -0.0523 0.9084
vn 0.7154 0.6001 0.3580
vn 0.7094 0.0557 -0.7025
vn -0.3067 -0.9318 0.1940
vn 0.7706 0.5478 -0.3257
vn 0.3230 0.4309 0.8426
vn -0.9742 -0.1609 0.1584
vn 0.9776 -0.1031 0.1834
vn -0.9427 -0.0817 0.3236
vn 0.2503 0.1939 0.9485
vn 0.7294 0.5419 -0.4175
vn 0.2375 -0.1661 -0.9571
vn 0.3052 0.0687 -0.9498
vn 0.8795 0.1498 -0.4517
vn 0.9386 0.1584 0.3064
vn 0.4486 0.0890 0.8893
vn -0.3106 -0.0175 0.9504
vn -0.8865 -0.0972 0.4524
vn -0.9459 -0.1051 -0.3071
vn -0.4543 -0.0371 -0.8901
vn -0.3291 0.1332 -0.9349
vn -0.9514 0.1761 -0.2526
vn -0.8578 0.1645 0.4870
vn -0.4348 0.0862 0.8964
vn 0.5003 -0.0738 0.8627
vn 0.9620 -0.0912 0.2573
vn 0.8678 -0.0292 -0.4960
vn 0.2582 0.0788 -0.9629
vn -0.3864 -0.0558 -0.9206
vn -0.9858 -0.0100 -0.1678
vn -0.8205 -0.0080 0.5716
vn -0.3849 0.0358 0.9223
vn 0.5661 0.0970 0.8186
vn 0.9846 0.0431 0.1693
vn 0.8217 -0.0334 -0.5690
vn 0.1875 -0.0888 -0.9782
usemtl Material.007
f 1/1/1 2/2/1 3/3/1 4/4/1
f 5/5/2 6/6/2 7/7/2 8/8/2
f 9/9/3 10/10/3 11/11/3 12/12/3
f 13/13/4 14/14/4 15/15/4 16/16/4
f 17/17/5 1/1/5 4/4/5 18/18/5
f 19/19/6 9/9/6 12/12/6 20/20/6
f 14/14/7 19/19/7 21/21/7 15/15/7
f 2/2/8 13/13/8 16/16/8 22/22/8
f 10/10/9 17/17/9 18/18/9 23/23/9
f 24/24/10 25/25/10 26/26/10
f 27/27/11 28/28/11 29/29/11 30/30/11
f 31/31/12 32/32/12 25/25/12 33/33/12
f 34/34/13 35/35/13 36/36/13 37/37/13
f 35/35/14 5/5/14 8/8/14 36/36/14
f 6/6/15 27/27/15 30/30/15 7/7/15
f 28/28/16 31/31/16 33/33/16 29/29/16
f 32/32/17 34/34/17 37/37/17 25/25/17
f 38/38/18 39/39/18 40/40/18 41/41/18
f 8/8/19 7/7/19 42/42/19 43/43/19
f 33/33/20 25/25/20 24/24/20 44/44/20
f 37/37/21 36/36/21 45/45/21 46/46/21
f 36/36/22 8/8/22 47/47/22 45/45/22
f 7/7/23 30/30/23 48/48/23 42/42/23
f 29/29/24 33/33/24 44/44/24 49/49/24
f 50/50/25 51/51/25 52/52/25 53/53/25
f 54/54/26 55/55/26 56/56/26 57/57/26
f 58/58/27 59/59/27 50/50/27 60/60/27
f 26/26/28 61/61/28 62/62/28 51/51/28
f 39/39/29 54/54/29 57/57/29 40/40/29
f 55/55/30 58/58/30 60/60/30 56/56/30
f 59/59/31 26/26/31 51/51/31 50/50/31
f 61/61/32 38/38/33 41/41/34 62/62/34
f 63/63/35 64/64/35 65/65/35 66/66/35
f 62/62/36 41/41/36 67/67/36 68/68/36
f 41/41/37 40/40/37 69/69/37 67/67/37
f 57/57/38 56/56/38 70/70/38 71/71/38
f 60/60/39 50/50/39 53/53/39 72/72/39
f 51/51/40 62/62/40 73/73/40 52/52/40
f 40/40/41 57/57/41 71/71/41 69/69/41
f 56/56/42 60/60/42 74/74/42 70/70/42
f 75/75/43 76/76/43 77/77/43 78/78/43
f 79/79/44 80/80/44 75/75/44 81/81/44
f 82/82/45 83/83/45 84/84/45 76/76/45
f 85/85/46 86/86/46 87/87/46 88/88/46
f 86/86/47 63/63/47 66/66/47 87/87/47
f 64/64/48 79/79/48 81/81/48 65/65/48
f 80/80/49 82/82/49 76/76/49 75/75/49
f 83/83/50 85/85/50 88/88/50 84/84/50
f 89/89/51 90/90/51 91/91/51
f 84/84/52 88/88/52 92/92/52 93/93/52
f 66/66/53 65/65/53 94/94/53 95/95/53
f 81/81/54 75/75/54 78/78/54 96/96/54
f 76/76/55 84/84/55 97/97/55 77/77/55
f 88/88/56 87/87/56 98/98/56 92/92/56
f 87/87/57 66/66/57 99/99/57 98/98/57
f 65/65/58 81/81/58 96/96/58 94/94/58
f 100/100/59 101/101/59 91/91/59
f 102/102/60 103/103/60 91/91/60
f 104/104/61 105/105/61 91/91/61
f 90/90/62 100/100/62 91/91/62
f 101/101/63 102/102/63 91/91/63
f 103/103/64 104/104/64 91/91/64
f 105/105/65 89/89/65 91/91/65
f 92/92/66 98/98/66 89/89/66 105/105/66
f 77/77/67 97/97/67 104/104/67 103/103/67
f 96/96/68 78/78/68 102/102/68 101/101/68
f 95/95/69 94/94/69 100/100/69 90/90/69
f 66/66/70 95/95/70 90/90/70
f 78/78/71 77/77/71 103/103/71 102/102/71
f 94/94/72 96/96/72 101/101/72 100/100/72
f 98/98/73 99/99/73 90/90/73 89/89/73
f 52/52/74 73/73/74 85/85/74 83/83/74
f 71/71/75 70/70/75 79/79/75 64/64/75
f 67/67/76 69/69/76 63/63/76 86/86/76
f 68/68/77 67/67/77 86/86/77 85/85/77
f 53/53/78 52/52/78 83/83/78 82/82/78
f 70/70/79 74/74/79 80/80/79 79/79/79
f 69/69/80 71/71/80 64/64/80 63/63/80
f 46/46/81 45/45/81 38/38/33 61/61/32
f 44/44/82 24/24/82 26/26/82 59/59/82
f 43/43/83 42/42/83 54/54/83 39/39/83
f 26/26/84 25/25/84 106/106/84
f 49/49/85 44/44/85 59/59/85 58/58/85
f 42/42/86 48/48/86 55/55/86 54/54/86
f 45/45/87 47/47/87 39/39/87 38/38/87
f 16/16/88 15/15/88 34/34/88 32/32/88
f 4/4/89 3/3/89 31/31/89 28/28/89
f 23/23/90 18/18/90 27/27/90 6/6/90
f 19/19/91 20/20/91 35/35/91
f 15/15/92 21/21/92 35/35/92 34/34/92
f 2/2/93 22/22/93 31/31/93
f 18/18/94 4/4/94 28/28/94 27/27/94
f 12/12/95 11/11/95 6/6/95 5/5/95
f 85/85/96 86/86/96 63/63/96 64/64/96 79/79/96 80/80/96 82/82/96 83/83/96
f 107/107/97 108/108/97 17/17/97 10/10/97
f 109/109/98 110/110/98 13/13/98 2/2/98
f 111/111/99 112/112/99 19/19/99 14/14/99
f 112/112/100 113/113/100 9/9/100 19/19/100
f 108/108/101 114/114/101 1/1/101 17/17/101
f 110/110/102 111/111/102 14/14/102 13/13/102
f 113/113/103 107/107/103 10/10/103 9/9/103
f 114/114/104 109/109/104 2/2/104 1/1/104
f 55/55/105 115/115/105 49/49/105 58/58/105
f 115/115/106 30/30/106 29/29/106 49/49/106
f 47/47/107 8/8/107 39/39/107
f 8/8/108 43/43/108 39/39/108
f 30/30/109 55/55/109 48/48/109
f 55/55/110 30/30/110 115/115/110
f 73/73/111 62/62/111 85/85/111
f 68/68/112 85/85/112 62/62/112
f 35/35/113 20/20/113 12/12/113 5/5/113
f 35/35/114 21/21/114 19/19/114
f 6/6/115 10/10/115 23/23/115
f 10/10/116 6/6/116 11/11/116
f 31/31/117 22/22/117 16/16/117 32/32/117
f 3/3/118 2/2/118 31/31/118
f 106/106/119 25/25/119 37/37/119 46/46/119
f 26/26/120 106/106/120 46/46/120 61/61/120
f 80/80/121 72/72/121 53/53/121 82/82/121
f 60/60/122 72/72/122 80/80/122
f 80/80/123 74/74/123 60/60/123
f 99/99/124 66/66/124 90/90/124
f 104/104/125 84/84/125 93/93/125
f 104/104/126 93/93/126 92/92/126 105/105/126
f 84/84/127 104/104/127 97/97/127
usemtl Material.001
f 116/116/128 112/117/128 111/118/128 117/119/128
f 117/119/129 111/118/129 110/120/129 118/121/129
f 118/121/130 110/120/130 109/122/130 119/123/130
f 119/123/131 109/122/131 114/124/131 120/125/131
f 120/125/132 114/124/132 108/126/132 121/127/132
f 121/127/133 108/126/133 107/128/133 122/129/133
f 122/129/134 107/128/134 113/130/134 123/131/134
f 123/131/135 113/130/135 112/117/135 116/116/135
f 124/132/136 125/133/136 126/134/136 127/135/136
f 128/136/137 129/137/137 125/133/137 124/132/137
f 130/138/138 131/139/138 129/137/138 128/136/138
f 132/140/139 133/141/139 131/139/139 130/138/139
f 134/142/140 135/143/140 133/141/140 132/140/140
f 136/144/141 137/145/141 135/143/141 134/142/141
f 138/146/142 139/147/142 137/145/142 136/144/142
f 127/135/143 126/134/143 139/147/143 138/146/143
f 125/133/144 123/131/144 116/116/144 126/134/144
f 129/137/145 122/129/145 123/131/145 125/133/145
f 131/139/146 121/127/146 122/129/146 129/137/146
f 133/141/147 120/125/147 121/127/147 131/139/147
f 135/143/148 119/123/148 120/125/148 133/141/148
f 137/145/149 118/121/149 119/123/149 135/143/149
f 139/147/150 117/119/150 118/121/150 137/145/150
f 126/134/151 116/116/151 117/119/151 139/147/151
