mtllib LOW_POLY_set.mtl
o lp_Plane_011_Plane_020
v 3.361351 2.095329 4.136423
v 3.417634 1.988537 4.111333
v 3.293109 1.938590 4.059411
v 3.235029 2.045904 4.086660
v 3.440913 1.882003 4.166553
v 3.317069 1.828495 4.114083
v 3.209847 1.766232 4.038134
v 3.187877 1.914206 3.990683
v 3.134429 2.021722 4.027501
v 3.620234 2.204931 4.236216
v 3.675616 2.097133 4.211470
v 3.546188 2.042599 4.161164
v 3.490946 2.149779 4.185840
v 3.698953 1.989335 4.267460
v 3.569411 1.935452 4.216803
v 2.604421 2.000267 4.141530
v 2.582357 1.808969 4.029200
v 2.547392 1.783381 4.118991
v 2.528105 1.886168 4.199610
v 2.562044 1.479409 3.982209
v 2.560028 1.674898 4.155161
v 2.534835 1.785898 4.262780
v 3.271543 2.096359 4.351315
v 3.301192 2.135907 4.238358
v 3.167236 2.087418 4.191405
v 3.125934 2.049634 4.308604
v 3.061322 2.063131 4.132386
v 2.917350 2.040612 4.275841
v 3.082675 1.732269 4.319651
v 2.917132 1.750171 4.384037
v 2.880491 1.664675 4.386621
v 2.949345 1.610567 4.356533
v 2.763972 1.773001 4.419843
v 2.769725 1.632383 4.372556
v 2.805652 1.395599 4.382286
v 3.534781 2.204931 4.451512
v 3.562747 2.245355 4.338006
v 3.433388 2.190037 4.287183
v 3.405339 2.149908 4.400102
v 3.613500 1.989335 4.482757
v 3.558118 2.097133 4.507503
v 3.428787 2.042717 4.455648
v 3.484254 1.935495 4.430881
v 3.296619 1.989482 4.405800
v 3.354699 1.882346 4.379975
v 3.180459 1.395478 4.148643
v 3.123793 1.607474 4.239911
v 3.032765 1.553206 4.306565
v 3.032847 1.328526 4.335808
v 3.025423 1.888055 4.346972
v 2.930235 1.845331 4.373507
v 2.840303 1.904328 4.407576
v 3.670987 1.948910 4.380967
v 3.541587 1.895279 4.329630
v 3.413060 1.842111 4.278775
v 2.828955 2.090127 4.057838
v 2.749113 2.074918 4.092200
v 2.725277 2.075200 4.217463
v 2.774699 2.102472 3.859882
v 2.689443 2.031885 3.993504
v 3.159286 1.938102 4.362688
v 3.224694 1.825965 4.334713
v 3.289687 1.787673 4.229881
v 3.199246 1.723452 4.190228
v 2.785709 1.864162 3.682301
v 2.846924 1.685861 3.711223
v 2.745236 1.615030 3.771948
v 2.677501 1.727308 3.823019
v 2.948760 1.420485 3.731076
v 2.715513 1.354173 3.773301
v 3.178310 1.631430 4.060613
v 3.175179 1.654720 4.168185
v 3.016304 2.104486 3.867821
v 3.074008 2.040873 3.954566
v 3.114066 1.943024 3.890787
v 3.068856 2.009773 3.773520
v 3.126717 1.805547 3.875961
v 3.042620 1.877871 3.711406
v 2.601157 1.348352 4.237445
v 2.640047 1.620538 4.272000
v 2.618584 1.745945 4.353516
v 2.513465 3.504157 2.476482
v 2.546432 3.546454 2.471348
v 2.521122 3.547622 2.409720
v 2.489449 3.492503 2.429688
v 2.589431 3.567307 2.446480
v 2.581899 3.569357 2.393176
v 2.571751 3.541795 2.348014
v 2.524916 3.515406 2.351516
v 2.495785 3.478644 2.378016
v 3.030493 2.069736 4.050622
v 2.970412 2.088062 4.050867
v 2.898475 2.142489 3.860970
v 2.900475 2.106336 3.998247
v 3.117639 1.642693 3.893591
v 3.015293 1.693806 3.748463
v 3.142176 1.349747 3.895758
v 2.928265 1.754001 3.688783
v 2.920459 1.867342 3.642785
v 2.732274 1.996321 3.753151
v 2.657822 1.895044 3.895909
v 4.543752 3.346926 5.028615
v 4.508539 3.347564 5.066342
v 4.559661 3.347016 5.104874
v 4.590808 3.341796 5.049186
v 4.486299 3.320818 5.104470
v 4.521445 3.310278 5.140765
v 4.565132 3.285156 5.151905
v 4.603713 3.304510 5.123610
v 4.622585 3.311263 5.076049
v 1.906770 3.242010 5.587999
v 1.828573 3.284575 5.512961
v 1.755258 3.311281 5.635346
v 1.867720 3.243947 5.697674
v 1.720988 3.273425 5.469851
v 1.639552 3.282529 5.552570
v 1.598956 3.238678 5.652502
v 1.678699 3.241901 5.737284
v 1.784737 3.207264 5.770650
v 3.249359 0.448450 4.165302
v 3.044039 0.448450 4.371501
v 3.044039 0.105381 4.371501
v 3.249359 0.105381 4.165302
v 2.555909 0.448450 4.238501
v 2.483648 0.448450 3.956670
v 2.483648 0.105381 3.956670
v 2.555909 0.105381 4.238501
v 2.688909 0.448450 3.750370
v 2.970819 0.448450 3.678131
v 2.970819 0.105381 3.678131
v 2.688909 0.105381 3.750370
v 3.177040 0.448450 3.883370
v 3.177040 0.105381 3.883370
v 3.960461 2.098109 4.369724
v 3.932151 2.057188 4.484625
v 3.801206 2.002899 4.432652
v 3.829344 2.043571 4.318450
v 3.873959 2.098109 4.587666
v 3.743367 2.043571 4.535065
v 3.817896 2.207232 4.612716
v 3.687646 2.152029 4.559963
v 3.794272 2.316354 4.556037
v 3.664166 2.260488 4.503630
v 3.822582 2.357275 4.441136
v 3.692304 2.301159 4.389428
v 3.880775 2.316354 4.338096
v 3.750142 2.260488 4.287014
v 3.936837 2.207232 4.313046
v 3.805863 2.152029 4.262117
v 4.233490 2.214640 4.477812
v 4.204283 2.172807 4.593825
v 4.064779 2.112525 4.537415
v 4.093331 2.153747 4.421848
v 4.140237 2.210392 4.695362
v 4.005589 2.153216 4.640739
v 4.076298 2.315485 4.716850
v 3.948285 2.262335 4.665459
v 4.047329 2.422171 4.656757
v 3.923884 2.371653 4.608095
v 4.076536 2.464003 4.540744
v 3.952436 2.412875 4.492528
v 4.140582 2.426419 4.439208
v 4.011627 2.372184 4.389203
v 4.204521 2.321326 4.417719
v 4.068931 2.263065 4.364484
v 4.499776 2.398134 4.615612
v 4.468764 2.354984 4.728084
v 4.349395 2.246226 4.656864
v 4.379782 2.289027 4.541206
v 4.383966 2.372342 4.814573
v 4.274775 2.275715 4.752847
v 4.290539 2.448184 4.817235
v 4.196107 2.369606 4.766295
v 4.240539 2.533698 4.745287
v 4.156817 2.468489 4.700378
v 4.271550 2.576848 4.632816
v 4.187203 2.511291 4.584720
v 4.356348 2.559489 4.546327
v 4.261824 2.481802 4.488738
v 4.449777 2.483648 4.543664
v 4.340492 2.387910 4.475289
v 1.809733 2.531993 5.593171
v 1.689901 2.513507 5.552097
v 1.774743 2.386349 5.428387
v 1.885959 2.416085 5.477635
v 1.611377 2.547360 5.455040
v 1.696101 2.423349 5.336686
v 1.802314 2.334843 5.201848
v 1.882072 2.295610 5.290346
v 1.987284 2.332594 5.346577
v 1.629263 2.620025 5.354496
v 1.703935 2.513691 5.253654
v 1.721532 2.686929 5.305751
v 1.782966 2.601309 5.223479
v 1.870191 2.538088 5.115802
v 1.801571 2.436888 5.131688
v 1.841364 2.705414 5.346826
v 1.894182 2.631045 5.272727
v 1.919888 2.671562 5.443883
v 1.972824 2.594045 5.364428
v 2.055161 2.535838 5.260531
v 1.975403 2.575072 5.172033
v 1.902002 2.598896 5.544427
v 1.964990 2.503703 5.447459
v 2.055905 2.433794 5.330691
v 1.984620 2.221395 5.161669
v 2.087106 2.261143 5.220700
v 1.904529 2.261424 5.074662
v 2.001362 2.194343 4.954816
v 2.081155 2.154373 5.041236
v 2.182811 2.194343 5.100410
v 1.900154 2.367848 5.009977
v 1.964246 2.474167 5.000057
v 2.059660 2.407519 4.882160
v 1.996489 2.300931 4.891190
v 2.066731 2.513915 5.059088
v 2.146823 2.473886 5.146095
v 2.241110 2.407519 5.027754
v 2.161316 2.447489 4.941334
v 2.151198 2.367461 5.210779
v 2.245982 2.300931 5.091382
v 2.176096 2.088958 4.922915
v 2.277241 2.128727 4.981791
v 2.096703 2.128727 4.836928
v 2.191438 2.063529 4.719790
v 2.270433 2.023959 4.805346
v 2.371071 2.063529 4.863927
v 2.091856 2.234780 4.773621
v 2.154709 2.340832 4.764637
v 2.249154 2.274571 4.647862
v 2.186615 2.169050 4.656801
v 2.255855 2.380602 4.823514
v 2.335248 2.340833 4.909500
v 2.428786 2.274570 4.791998
v 2.349792 2.314141 4.706443
v 2.340096 2.234780 4.972807
v 2.433610 2.169050 4.854988
v 2.364315 1.959288 4.688367
v 2.464644 1.998622 4.746575
v 2.285688 1.998665 4.603253
v 2.379526 1.934084 4.487225
v 2.457954 1.894867 4.571831
v 2.559158 1.933741 4.629183
v 2.280917 2.103651 4.540567
v 2.343338 2.208605 4.531593
v 2.438460 2.142670 4.415280
v 2.374975 2.038506 4.424773
v 2.443892 2.247897 4.589708
v 2.522744 2.208477 4.674731
v 2.621686 2.141640 4.555768
v 2.541460 2.181201 4.471896
v 2.527291 2.103533 4.737508
v 2.624439 2.037561 4.618955
v 2.548680 1.828007 4.457334
v 2.655993 1.865611 4.514785
v 2.469092 1.867281 4.372427
v 2.464818 1.971155 4.309644
v 2.531484 2.076174 4.295234
v 2.642892 2.116781 4.350203
v 2.734666 2.077295 4.432183
v 2.728958 1.970949 4.501260
v 2.835538 2.101947 3.443939
v 2.937177 2.071705 3.433093
v 2.925146 1.978191 3.547679
v 2.817769 2.006896 3.561002
v 3.033925 2.101947 3.466080
v 3.026633 2.008437 3.583873
v 3.064599 2.182591 3.528676
v 3.057678 2.095090 3.649262
v 3.020879 2.263236 3.582968
v 3.012156 2.179644 3.707890
v 2.919240 2.293478 3.593814
v 2.906368 2.211007 3.718334
v 2.822493 2.263236 3.560827
v 2.804566 2.179269 3.686666
v 2.791818 2.182591 3.498231
v 2.772002 2.093499 3.619418
v 2.865421 2.272312 3.220606
v 2.962044 2.243562 3.210295
v 2.949821 2.159085 3.319813
v 2.850732 2.188568 3.330386
v 3.054016 2.272312 3.241654
v 3.044140 2.188568 3.351972
v 3.083176 2.348976 3.301161
v 3.074044 2.267189 3.412997
v 3.041614 2.425641 3.352774
v 3.031421 2.345810 3.465927
v 2.944991 2.454390 3.363084
v 2.932333 2.375293 3.476501
v 2.853019 2.425641 3.331725
v 2.838014 2.345810 3.444341
v 2.823858 2.348976 3.272219
v 2.808109 2.267189 3.383317
v 2.893688 2.433470 3.009341
v 2.985566 2.406133 2.999537
v 2.973940 2.325784 3.103703
v 2.879717 2.353819 3.113757
v 3.073021 2.433470 3.029356
v 3.063628 2.353819 3.134283
v 3.100750 2.506370 3.085940
v 3.092064 2.428579 3.192311
v 3.061228 2.579269 3.135018
v 3.051534 2.503340 3.242642
v 2.969351 2.606607 3.144823
v 2.957311 2.531375 3.252696
v 2.881895 2.579269 3.115004
v 2.867623 2.503340 3.222116
v 2.854167 2.506370 3.058420
v 2.839187 2.428579 3.164088
v 2.920842 2.588282 2.806398
v 3.008162 2.562300 2.797080
v 2.996963 2.484904 2.897418
v 2.907385 2.511557 2.906976
v 3.091278 2.588282 2.825420
v 3.082230 2.511557 2.926490
v 3.117631 2.657564 2.879196
v 3.109265 2.582633 2.981658
v 3.080070 2.726847 2.925839
v 3.070732 2.653708 3.029508
v 2.992751 2.752828 2.935157
v 2.981154 2.680361 3.039067
v 2.909635 2.726847 2.906818
v 2.895887 2.653708 3.009994
v 2.883282 2.657564 2.853041
v 2.868852 2.582633 2.954826
v 2.947204 2.737957 2.610077
v 3.029227 2.718282 2.596445
v 3.019082 2.639076 2.697745
v 2.934097 2.663771 2.707424
v 3.107710 2.745387 2.621015
v 3.100028 2.664700 2.725071
v 3.133085 2.809153 2.674002
v 3.125754 2.731966 2.777719
v 3.098270 2.870132 2.722887
v 3.089256 2.798885 2.823750
v 3.016248 2.889807 2.736518
v 3.004271 2.823581 2.833429
v 2.937765 2.862703 2.711948
v 2.923325 2.797956 2.806103
v 2.912390 2.798937 2.658962
v 2.897599 2.730690 2.753455
v 2.945351 2.886699 2.448494
v 3.016397 2.893432 2.414217
v 3.034445 2.802915 2.494705
v 2.956741 2.811317 2.517922
v 3.087657 2.931651 2.427193
v 3.109833 2.834581 2.513793
v 3.114626 2.982060 2.486204
v 3.135449 2.892367 2.569426
v 3.088230 3.015613 2.553203
v 3.103656 2.941429 2.626607
v 3.017184 3.008881 2.587481
v 3.025952 2.949831 2.649824
v 2.945924 2.970662 2.574505
v 2.950564 2.918165 2.630736
v 2.918955 2.920253 2.515494
v 2.924948 2.860379 2.575103
v 2.762187 0.448450 4.443842
v 3.074300 0.843436 4.422494
v 2.757461 0.855514 4.471437
v 3.276087 0.855604 4.172759
v 3.227934 0.846287 3.853625
v 2.977961 0.858480 3.650113
v 2.660652 0.847651 3.698598
v 2.458147 0.862853 3.950257
v 2.506629 0.846785 4.269775
v 1.645086 3.095056 5.751241
v 1.788577 3.082095 5.781489
v 1.558420 3.120607 5.634905
v 1.556434 2.925042 5.590783
v 1.642164 2.896214 5.703994
v 1.782701 2.890033 5.736403
v 1.590473 3.152789 5.495004
v 1.709292 3.165913 5.409499
v 1.702588 2.985434 5.375310
v 1.587086 2.961802 5.455743
v 1.852935 3.157465 5.440708
v 1.939449 3.127401 5.556083
v 1.928855 2.950426 5.520930
v 1.843125 2.979253 5.407719
v 1.907548 3.099732 5.696945
v 1.898203 2.913665 5.655970
v 1.651247 2.690746 5.639960
v 1.781171 2.695752 5.675138
v 1.570154 2.721439 5.535345
v 1.595699 2.773855 5.416551
v 1.700375 2.816639 5.350179
v 1.830300 2.821646 5.385357
v 1.911393 2.790952 5.489972
v 1.885848 2.738537 5.608767
v 4.592031 2.719432 4.783749
v 4.563803 2.679696 4.879775
v 4.534647 2.512081 4.806165
v 4.564744 2.554060 4.701105
v 4.477452 2.672416 4.942166
v 4.446326 2.515599 4.880164
v 4.378472 2.706876 4.927022
v 4.346489 2.569052 4.872323
v 4.322460 2.758965 4.852471
v 4.291059 2.636927 4.797335
v 4.350688 2.798701 4.756445
v 4.321156 2.678907 4.692275
v 4.437038 2.805981 4.694054
v 4.409477 2.675388 4.618276
v 4.536018 2.771521 4.709198
v 4.509313 2.621935 4.626117
v 4.616055 2.968214 4.905310
v 4.591739 2.933794 4.986950
v 4.580150 2.818482 4.938664
v 4.606384 2.855590 4.850425
v 4.515877 2.922693 5.037575
v 4.498515 2.807205 4.993737
v 4.428366 2.945249 5.021020
v 4.404424 2.832575 4.976385
v 4.378420 2.984875 4.954866
v 4.350784 2.876090 4.905291
v 4.402737 3.019295 4.873226
v 4.377019 2.913198 4.817052
v 4.478599 3.030397 4.822601
v 4.458652 2.924475 4.761980
v 4.566110 3.007841 4.839156
v 4.552744 2.899105 4.779332
v 4.632513 3.169450 5.003277
v 4.611727 3.140026 5.073068
v 4.601999 3.039655 5.031155
v 4.624503 3.071510 4.955598
v 4.546875 3.130535 5.116344
v 4.531789 3.029380 5.078008
v 4.472066 3.149817 5.102192
v 4.450797 3.050256 5.062686
v 4.429370 3.183692 5.045640
v 4.404573 3.086930 5.001461
v 4.450157 3.213116 4.975850
v 4.427077 3.118785 4.925903
v 4.515007 3.222607 4.932573
v 4.497287 3.129060 4.879051
v 4.589818 3.203325 4.946725
v 4.578279 3.108184 4.894372
v 4.617715 3.232817 5.109540
v 4.636088 3.257987 5.047015
v 4.559903 3.223368 5.147603
v 4.493550 3.241523 5.135433
v 4.455367 3.270658 5.084702
v 4.474072 3.297799 5.023108
v 4.531552 3.305277 4.984115
v 4.598237 3.289093 4.997215
v 2.833728 3.047181 2.404800
v 2.887506 3.080394 2.358500
v 2.961263 2.988280 2.373535
v 2.899355 2.966282 2.415681
v 2.949053 3.130316 2.364564
v 3.027362 3.033284 2.382101
v 2.981034 3.168183 2.426837
v 3.056952 3.076521 2.443421
v 2.969768 3.174873 2.504200
v 3.038540 3.094633 2.517334
v 2.915990 3.141660 2.550499
v 2.976632 3.072634 2.559480
v 2.854444 3.091738 2.544436
v 2.910532 3.027631 2.550914
v 2.822463 3.053871 2.482162
v 2.880942 2.984393 2.489594
v 2.701609 3.202970 2.390633
v 2.750275 3.240579 2.343658
v 2.816662 3.163572 2.350228
v 2.766793 3.126076 2.397663
v 2.808249 3.291618 2.348517
v 2.875753 3.215063 2.355294
v 2.840652 3.326147 2.409732
v 2.908480 3.250408 2.417350
v 2.833067 3.327433 2.486741
v 2.900346 3.252384 2.495295
v 2.784401 3.289823 2.533715
v 2.850478 3.214889 2.542729
v 2.726428 3.238783 2.528857
v 2.791387 3.163397 2.537664
v 2.694024 3.204255 2.467642
v 2.758660 3.128052 2.475607
v 2.574228 3.353253 2.376869
v 2.621419 3.389722 2.331318
v 2.685437 3.315625 2.337449
v 2.637514 3.278589 2.383708
v 2.677635 3.439215 2.336030
v 2.742526 3.365886 2.342234
v 2.709057 3.472696 2.395389
v 2.774436 3.399888 2.402515
v 2.701701 3.473943 2.470063
v 2.766966 3.401154 2.478349
v 2.654510 3.437473 2.515615
v 2.719042 3.364118 2.524608
v 2.598294 3.387981 2.510903
v 2.661953 3.313857 2.519823
v 2.566873 3.354499 2.451544
v 2.630044 3.279855 2.459542
v 2.561997 3.460256 2.329325
v 2.518135 3.425052 2.372455
v 2.615763 3.506210 2.333898
v 2.644779 3.538633 2.389846
v 2.638484 3.538998 2.460441
v 2.593254 3.505362 2.503411
v 2.540856 3.457840 2.498999
v 2.510472 3.426985 2.442889
v 2.762187 0.105381 4.443842
vn 0.2315 0.3459 -0.9092
vn 0.4759 -0.3131 -0.8219
vn 0.6055 -0.1973 -0.7710
vn 0.3947 0.4447 -0.8041
vn 0.2202 0.3248 -0.9198
vn 0.4594 -0.3290 -0.8251
vn 0.4588 -0.3285 -0.8256
vn 0.2164 0.3267 -0.9200
vn -0.8746 0.2717 -0.4015
vn -0.9880 0.0211 -0.1527
vn -0.9877 -0.1316 -0.0840
vn -0.3708 0.9088 0.1911
vn -0.1632 0.8781 -0.4498
vn -0.0056 0.9286 -0.3711
vn -0.1410 0.9818 0.1269
vn 0.3440 -0.1045 0.9331
vn 0.0876 -0.2047 0.9749
vn 0.0840 -0.0394 0.9957
vn -0.4497 0.8708 0.1986
vn -0.1934 0.8693 -0.4548
vn -0.1897 0.8697 -0.4557
vn -0.4300 0.8803 0.2007
vn -0.2296 -0.3293 0.9159
vn -0.4660 0.3255 0.8228
vn -0.4416 0.3289 0.8347
vn -0.2182 -0.3322 0.9176
vn 0.7291 -0.0025 0.6844
vn 0.5408 -0.2102 0.8145
vn 0.3037 0.0199 0.9525
vn 0.3297 -0.0052 0.9441
vn 0.3140 0.4412 0.8407
vn 0.2729 -0.0109 0.9620
vn 0.4424 -0.8738 -0.2021
vn 0.1832 -0.8737 0.4506
vn 0.1820 -0.8737 0.4512
vn 0.4419 -0.8741 -0.2016
vn 0.0590 0.9896 0.1308
vn -0.4091 0.9103 0.0629
vn -0.4811 0.8719 -0.0917
vn -0.1754 -0.3266 0.9287
vn -0.3768 0.3295 0.8657
vn -0.1886 0.3364 0.9226
vn -0.0032 -0.2035 0.9791
vn 0.4587 -0.8668 -0.1957
vn 0.2094 -0.8654 0.4552
vn 0.4143 -0.7751 0.4770
vn 0.5969 -0.7860 -0.1607
vn -0.5729 -0.1935 -0.7965
vn -0.2648 -0.0750 -0.9614
vn -0.7571 0.0099 -0.6532
vn 0.9568 -0.0024 0.2906
vn 0.9642 -0.2633 0.0312
vn 0.7668 -0.2446 0.5935
vn 0.8571 0.5032 -0.1108
vn 0.7315 0.5382 -0.4187
vn 0.8623 0.0470 -0.5042
vn 0.9187 0.0649 -0.3895
vn -0.9581 -0.0496 0.2821
vn -0.5874 -0.0360 0.8085
vn -0.4232 -0.4295 0.7977
vn -0.7827 -0.4756 0.4014
vn -0.7612 0.5799 0.2902
vn -0.3348 0.9344 0.1218
vn -0.4341 0.7912 -0.4309
vn -0.8605 0.4367 -0.2625
vn 0.4021 0.9116 -0.0854
vn 0.5041 0.8548 0.1234
vn 0.1067 0.9779 0.1801
vn 0.2269 0.9556 0.1879
vn -0.2232 0.9587 0.1762
vn 0.0255 0.9731 0.2289
vn 0.8118 -0.1731 -0.5577
vn 0.8915 -0.1778 -0.4167
vn 0.9731 0.0099 -0.2301
vn 0.7161 -0.0344 -0.6971
vn 0.4570 -0.2669 -0.8485
vn 0.2196 -0.1094 -0.9694
vn -0.1765 -0.2839 -0.9425
vn -0.8656 0.4494 -0.2208
vn -0.8548 0.0396 -0.5175
vn -0.8852 0.1101 -0.4521
vn -0.8669 0.3615 -0.3433
vn 0.0668 0.9977 -0.0151
vn -0.2994 0.8312 0.4684
vn 0.2031 0.6039 0.7707
vn 0.5693 0.7703 0.2872
vn 0.4400 0.8921 0.1030
vn -0.0549 0.9758 -0.2118
vn -0.3801 0.8832 0.2748
vn 0.1149 0.7995 0.5896
vn 0.7086 0.0000 0.7056
vn -0.9687 0.0000 0.2484
vn -0.2482 0.0000 -0.9687
vn 0.9686 0.0000 -0.2485
vn 0.4425 -0.8737 -0.2021
vn 0.1834 -0.8737 0.4506
vn -0.2314 -0.3290 0.9155
vn -0.4700 0.3246 0.8208
vn -0.4530 0.8693 0.1980
vn -0.1939 0.8693 -0.4547
vn 0.2208 0.3246 -0.9197
vn 0.4595 -0.3290 -0.8250
vn 0.4555 -0.8680 -0.1977
vn 0.1921 -0.8727 0.4490
vn 0.1846 -0.8735 0.4505
vn 0.4444 -0.8729 -0.2014
vn -0.2316 -0.3286 0.9157
vn -0.4637 0.3321 0.8214
vn -0.4691 0.3255 0.8210
vn -0.2314 -0.3290 0.9156
vn -0.4392 0.8749 0.2042
vn -0.1899 0.8736 -0.4480
vn -0.1933 0.8698 -0.4539
vn -0.4511 0.8700 0.1988
vn 0.2213 0.3237 -0.9199
vn 0.4675 -0.3304 -0.8200
vn 0.4606 -0.3291 -0.8243
vn 0.2209 0.3245 -0.9197
vn 0.6973 -0.7122 -0.0807
vn 0.3784 -0.7616 0.5261
vn 0.2310 -0.8603 0.4543
vn 0.5056 -0.8442 -0.1783
vn -0.2313 -0.3216 0.9182
vn -0.6124 0.2613 0.7461
vn -0.4774 0.3385 0.8109
vn -0.2317 -0.3269 0.9162
vn -0.6475 0.7541 0.1099
vn -0.3405 0.7953 -0.5016
vn -0.2079 0.8725 -0.4422
vn -0.4502 0.8698 0.2020
vn 0.2597 0.3488 -0.9005
vn 0.6521 -0.2254 -0.7238
vn 0.5045 -0.3232 -0.8006
vn 0.2282 0.3247 -0.9179
vn -0.1094 -0.7331 0.6712
vn -0.6512 -0.7066 0.2770
vn -0.5408 -0.8321 0.1234
vn -0.0044 -0.8410 0.5411
vn -0.8912 -0.2699 -0.3645
vn -0.6013 0.2855 -0.7462
vn -0.6318 0.3221 -0.7050
vn -0.8313 -0.3271 -0.4493
vn 0.1091 0.7336 -0.6708
vn 0.6435 0.7175 -0.2665
vn 0.5031 0.8607 -0.0781
vn -0.0182 0.8615 -0.5075
vn 0.9033 0.2501 0.3487
vn 0.6176 -0.3171 0.7197
vn 0.6372 -0.3281 0.6974
vn 0.8259 0.3323 0.4555
vn 0.0308 -0.8568 0.5148
vn -0.5135 -0.8542 0.0819
vn -0.5071 -0.8589 0.0713
vn 0.0403 -0.8593 0.5099
vn -0.8182 -0.3263 -0.4734
vn -0.6390 0.3218 -0.6986
vn -0.6396 0.3201 -0.6988
vn -0.8161 -0.3238 -0.4788
vn -0.0392 0.8629 -0.5038
vn 0.4999 0.8636 -0.0653
vn 0.5096 0.8572 -0.0744
vn -0.0371 0.8570 -0.5139
vn 0.8179 0.3265 0.4737
vn 0.6434 -0.3253 0.6930
vn 0.6447 -0.3237 0.6925
vn 0.8205 0.3207 0.4733
vn 0.0418 -0.8598 0.5089
vn -0.5059 -0.8598 0.0694
vn -0.8157 -0.3236 -0.4796
vn -0.6397 0.3199 -0.6989
vn -0.0366 0.8562 -0.5154
vn 0.5111 0.8562 -0.0759
vn 0.8209 0.3199 0.4731
vn 0.6449 -0.3236 0.6924
vn -0.5058 -0.8598 0.0694
vn -0.5055 -0.8600 0.0695
vn 0.0419 -0.8598 0.5089
vn -0.8156 -0.3235 -0.4796
vn -0.6393 0.3201 -0.6991
vn -0.6369 0.3216 -0.7007
vn -0.8155 -0.3232 -0.4801
vn 0.5098 0.8570 -0.0749
vn 0.5019 0.8621 -0.0696
vn -0.0369 0.8562 -0.5154
vn 0.8194 0.3205 0.4753
vn 0.6439 -0.3237 0.6932
vn 0.6372 -0.3260 0.6984
vn 0.8105 0.3228 0.4887
vn 0.0247 -0.8521 0.5228
vn -0.5179 -0.8508 0.0888
vn -0.6000 -0.7720 0.2098
vn -0.0957 -0.7886 0.6074
vn -0.8287 -0.3138 -0.4635
vn -0.6482 0.3246 -0.6888
vn -0.7582 0.3038 -0.5770
vn -0.9056 -0.2569 -0.3373
vn -0.0529 0.8597 -0.5081
vn 0.4634 0.8842 -0.0591
vn 0.2621 0.9648 -0.0209
vn -0.1780 0.8728 -0.4545
vn 0.7835 0.3228 0.5310
vn 0.6136 -0.3237 0.7202
vn 0.5254 -0.2425 0.8156
vn 0.6765 0.3187 0.6639
vn -0.2777 -0.7272 -0.6277
vn 0.4134 -0.7258 -0.5498
vn 0.4261 -0.6024 -0.6749
vn -0.2296 -0.6123 -0.7565
vn 0.9586 -0.2514 -0.1337
vn 0.9121 0.3068 0.2719
vn 0.9168 0.3670 0.1578
vn 0.9682 -0.1285 -0.2147
vn 0.2894 0.7850 0.5477
vn -0.3992 0.7854 0.4730
vn -0.3299 0.8720 0.3617
vn 0.2756 0.8670 0.4151
vn -0.9493 0.3064 0.0696
vn -0.9051 -0.2552 -0.3400
vn -0.8976 -0.1657 -0.4085
vn -0.9304 0.3665 -0.0032
vn -0.2857 -0.7431 -0.6051
vn 0.4121 -0.7431 -0.5272
vn 0.9553 -0.2704 -0.1197
vn 0.9094 0.2969 0.2914
vn 0.2897 0.7696 0.5690
vn -0.4080 0.7696 0.4912
vn -0.9512 0.2969 0.0837
vn -0.9054 -0.2704 -0.3274
vn 0.9553 -0.2704 -0.1198
vn -0.2821 -0.7431 -0.6068
vn 0.4172 -0.7343 -0.5355
vn 0.4127 -0.7419 -0.5285
vn -0.2853 -0.7431 -0.6053
vn 0.9550 -0.2654 -0.1327
vn 0.9113 0.2952 0.2870
vn 0.9096 0.2967 0.2908
vn 0.9553 -0.2696 -0.1216
vn 0.2845 0.7728 0.5674
vn -0.4119 0.7772 0.4758
vn -0.4084 0.7707 0.4892
vn 0.2892 0.7700 0.5688
vn -0.9476 0.3111 0.0725
vn -0.9075 -0.2631 -0.3273
vn -0.9056 -0.2696 -0.3275
vn -0.9508 0.2986 0.0821
vn -0.2738 -0.6711 -0.6889
vn 0.4204 -0.5516 -0.7204
vn 0.4293 -0.7017 -0.5686
vn -0.2724 -0.7357 -0.6202
vn 0.9356 -0.0941 -0.3403
vn 0.9106 0.3724 0.1789
vn 0.9166 0.2990 0.2654
vn 0.9540 -0.2421 -0.1769
vn 0.2601 0.7119 0.6523
vn -0.4398 0.6288 0.6412
vn -0.4283 0.7703 0.4724
vn 0.2686 0.7719 0.5762
vn -0.9475 0.1816 0.2632
vn -0.9210 -0.3243 -0.2158
vn -0.9157 -0.2551 -0.3104
vn -0.9432 0.3216 0.0829
vn 0.1955 -0.1018 0.9754
vn 0.7434 -0.1010 0.6611
vn 0.7545 0.1695 0.6341
vn 0.1936 0.1646 0.9672
vn 0.9759 -0.0995 -0.1941
vn 0.6624 -0.1007 -0.7423
vn 0.6481 0.1560 -0.7454
vn 0.9715 0.1717 -0.1633
vn -0.1947 -0.1013 -0.9756
vn -0.7450 -0.0964 -0.6601
vn -0.7548 0.1669 -0.6343
vn -0.1807 0.1460 -0.9726
vn -0.9764 -0.0958 0.1935
vn -0.6607 -0.0987 0.7441
vn -0.6098 0.1737 0.7733
vn -0.9664 0.1716 0.1912
vn -0.2252 0.1129 0.9678
vn -0.7440 0.1995 0.6377
vn -0.8073 -0.1236 0.5770
vn -0.2242 -0.2192 0.9496
vn -0.9126 0.3776 -0.1567
vn -0.5706 0.4781 -0.6678
vn -0.5871 0.1723 -0.7909
vn -0.9764 0.0584 -0.2080
vn 0.2429 0.4872 -0.8388
vn 0.7633 0.3991 -0.5080
vn 0.8051 0.0668 -0.5894
vn 0.2236 0.1695 -0.9598
vn 0.9313 0.2247 0.2868
vn 0.5890 0.1254 0.7984
vn 0.5871 -0.2020 0.7839
vn 0.9754 -0.0953 0.1989
vn -0.2329 -0.2949 0.9267
vn -0.8032 -0.2078 0.5583
vn -0.7750 -0.4074 0.4830
vn -0.2172 -0.4691 0.8560
vn -0.9761 -0.0032 -0.2172
vn -0.5775 0.1348 -0.8052
vn -0.5720 0.1893 -0.7981
vn -0.9613 -0.1095 -0.2528
vn 0.2409 0.1289 -0.9619
vn 0.7970 0.0254 -0.6034
vn 0.7958 0.2621 -0.5459
vn 0.2455 0.3386 -0.9084
vn 0.9769 -0.1271 0.1716
vn 0.5881 -0.2481 0.7698
vn 0.5950 -0.2763 0.7547
vn 0.9800 0.0085 0.1989
vn 0.9533 -0.2447 0.1771
vn 0.5681 -0.4050 0.7164
vn 0.5365 -0.5395 0.6489
vn 0.9019 -0.4229 0.0879
vn -0.2439 -0.3115 0.9184
vn -0.8174 -0.0434 0.5744
vn -0.7754 0.0683 0.6277
vn -0.2352 -0.3148 0.9196
vn -0.9396 0.3092 -0.1469
vn -0.5392 0.5012 -0.6768
vn -0.4993 0.6077 -0.6176
vn -0.8824 0.4660 -0.0655
vn 0.2888 0.4293 -0.8558
vn 0.8423 0.1307 -0.5229
vn 0.8090 -0.0069 -0.5877
vn 0.2905 0.3994 -0.8695
vn 0.9606 -0.1839 0.2084
vn 0.5537 -0.3677 0.7472
vn 0.5587 -0.3751 0.7397
vn 0.9593 -0.1988 0.2007
vn -0.2529 -0.3097 0.9166
vn -0.8132 -0.0570 0.5792
vn -0.8159 -0.0596 0.5751
vn -0.2505 -0.3102 0.9171
vn -0.9397 0.3073 -0.1503
vn -0.5319 0.4936 -0.6881
vn -0.5353 0.4898 -0.6882
vn -0.9421 0.2978 -0.1542
vn 0.2753 0.4376 -0.8560
vn 0.8348 0.1824 -0.5195
vn 0.8377 0.1704 -0.5188
vn 0.2792 0.4364 -0.8553
vn 0.9608 -0.1808 0.2100
vn 0.5530 -0.3661 0.7484
vn -0.2532 -0.3096 0.9165
vn -0.8128 -0.0564 0.5798
vn -0.9393 0.3089 -0.1495
vn -0.5314 0.4943 -0.6880
vn -0.9393 0.3090 -0.1495
vn 0.2748 0.4378 -0.8561
vn 0.8344 0.1846 -0.5194
vn 0.9356 0.0880 0.3420
vn 0.5803 -0.0735 0.8111
vn 0.5561 -0.3346 0.7608
vn 0.9632 -0.1496 0.2233
vn -0.2139 -0.0178 0.9767
vn -0.7013 0.2027 0.6834
vn -0.8054 -0.0256 0.5922
vn -0.2469 -0.2783 0.9282
vn -0.8259 0.5627 -0.0351
vn -0.4707 0.7241 -0.5041
vn -0.5243 0.5233 -0.6717
vn -0.9314 0.3384 -0.1343
vn 0.3235 0.6684 -0.6697
vn 0.8110 0.4479 -0.3764
vn 0.8372 0.2144 -0.5031
vn 0.2787 0.4670 -0.8392
vn -0.4012 -0.4433 -0.8015
vn 0.1500 -0.0495 -0.9875
vn 0.2884 -0.2357 -0.9280
vn -0.3363 -0.5245 -0.7822
vn 0.6626 0.4308 -0.6127
vn 0.7607 0.6477 0.0430
vn 0.8350 0.5463 0.0652
vn 0.7986 0.2315 -0.5555
vn 0.3917 0.4578 0.7981
vn -0.1207 0.0094 0.9926
vn -0.2810 0.2222 0.9336
vn 0.3240 0.5494 0.7702
vn -0.6256 -0.4718 0.6213
vn -0.7677 -0.6392 -0.0458
vn -0.8469 -0.5262 -0.0764
vn -0.7883 -0.2476 0.5632
vn -0.4273 -0.4354 -0.7924
vn 0.0909 -0.0073 -0.9958
vn 0.1040 -0.0146 -0.9945
vn -0.4225 -0.4348 -0.7952
vn 0.6210 0.4943 -0.6083
vn 0.7401 0.6697 0.0610
vn 0.7431 0.6669 0.0556
vn 0.6291 0.4810 -0.6106
vn 0.4092 0.4564 0.7901
vn -0.1063 0.0252 0.9940
vn -0.1006 0.0105 0.9949
vn 0.4080 0.4529 0.7928
vn -0.6363 -0.4768 0.6065
vn -0.7581 -0.6490 -0.0632
vn -0.7566 -0.6513 -0.0582
vn -0.6239 -0.4868 0.6114
vn -0.4280 -0.4353 -0.7920
vn 0.0886 -0.0058 -0.9960
vn 0.6194 0.4967 -0.6080
vn 0.7396 0.6702 0.0617
vn 0.4093 0.4569 0.7898
vn -0.1074 0.0274 0.9938
vn -0.6381 -0.4751 0.6058
vn -0.7584 -0.6487 -0.0639
vn -0.6381 -0.4752 0.6058
vn -0.6111 -0.1349 -0.7800
vn -0.1615 0.2388 -0.9575
vn 0.0624 0.0251 -0.9977
vn -0.4545 -0.4046 -0.7936
vn 0.3613 0.7338 -0.5753
vn 0.4659 0.8848 0.0074
vn 0.7119 0.6998 0.0591
vn 0.5916 0.5262 -0.6108
vn 0.1405 0.6746 0.7246
vn -0.3090 0.3010 0.9022
vn -0.1343 0.0574 0.9893
vn 0.3825 0.4871 0.7851
vn -0.8319 -0.1941 0.5199
vn -0.9365 -0.3450 -0.0627
vn -0.7838 -0.6173 -0.0676
vn -0.6636 -0.4437 0.6024
vn 0.7054 0.0000 -0.7088
vn 0.2486 0.0000 0.9686
vn -0.7089 0.0000 -0.7053
vn -0.7055 0.0000 0.7087
usemtl Material.001
f 1//1 2//1 3//1 4//1
f 2//2 5//2 6//2 3//2
f 3//3 6//3 7//3 8//3
f 4//4 3//4 8//4 9//4
f 10//5 11//5 12//5 13//5
f 11//6 14//6 15//6 12//6
f 12//7 15//7 5//7 2//7
f 13//8 12//8 2//8 1//8
f 16//9 17//9 18//9 19//9
f 20//10 21//10 18//10 17//10
f 22//11 19//11 18//11 21//11
f 23//12 24//12 25//12 26//12
f 24//13 1//13 4//13 25//13
f 25//14 4//14 9//14 27//14
f 26//15 25//15 27//15 28//15
f 29//16 30//16 31//16 32//16
f 33//17 34//17 31//17 30//17
f 35//18 32//18 31//18 34//18
f 36//19 37//19 38//19 39//19
f 37//20 10//20 13//20 38//20
f 38//21 13//21 1//21 24//21
f 39//22 38//22 24//22 23//22
f 40//23 41//23 42//23 43//23
f 41//24 36//24 39//24 42//24
f 42//25 39//25 23//25 44//25
f 43//26 42//26 44//26 45//26
f 46//27 47//27 48//27 49//27
f 29//28 32//28 48//28 47//28
f 35//29 49//29 48//29 32//29
f 29//30 50//30 51//30 30//30
f 28//31 52//31 51//31 50//31
f 33//32 30//32 51//32 52//32
f 14//33 53//33 54//33 15//33
f 53//34 40//34 43//34 54//34
f 54//35 43//35 45//35 55//35
f 15//36 54//36 55//36 5//36
f 28//37 56//37 57//37 58//37
f 59//38 60//38 57//38 56//38
f 16//39 58//39 57//39 60//39
f 45//40 44//40 61//40 62//40
f 44//41 23//41 26//41 61//41
f 61//42 26//42 28//42 50//42
f 62//43 61//43 50//43 29//43
f 5//44 55//44 63//44 6//44
f 55//45 45//45 62//45 63//45
f 63//46 62//46 29//46 64//46
f 6//47 63//47 64//47 7//47
f 65//48 66//48 67//48 68//48
f 69//49 70//49 67//49 66//49
f 20//50 68//50 67//50 70//50
f 46//51 71//51 72//51 47//51
f 7//52 64//52 72//52 71//52
f 29//53 47//53 72//53 64//53
f 73//54 74//54 75//54 76//54
f 74//55 9//55 8//55 75//55
f 75//56 8//56 7//56 77//56
f 76//57 75//57 77//57 78//57
f 20//58 79//58 80//58 21//58
f 79//59 35//59 34//59 80//59
f 80//60 34//60 33//60 81//60
f 21//61 80//61 81//61 22//61
f 82//62 83//62 84//62 85//62
f 83//63 86//63 87//63 84//63
f 84//64 87//64 88//64 89//64
f 85//65 84//65 89//65 90//65
f 9//66 74//66 91//66 27//66
f 73//67 92//67 91//67 74//67
f 28//68 27//68 91//68 92//68
f 73//69 93//69 94//69 92//69
f 59//70 56//70 94//70 93//70
f 28//71 92//71 94//71 56//71
f 78//72 77//72 95//72 96//72
f 77//73 7//73 71//73 95//73
f 95//74 71//74 46//74 97//74
f 96//75 95//75 97//75 69//75
f 78//76 96//76 98//76 99//76
f 69//77 66//77 98//77 96//77
f 65//78 99//78 98//78 66//78
f 59//79 100//79 101//79 60//79
f 100//80 65//80 68//80 101//80
f 101//81 68//81 20//81 17//81
f 60//82 101//82 17//82 16//82
f 102//83 103//83 104//83 105//83
f 103//84 106//84 107//84 104//84
f 104//85 107//85 108//85 109//85
f 105//86 104//86 109//86 110//86
f 111//87 112//87 113//87 114//87
f 112//88 115//88 116//88 113//88
f 113//89 116//89 117//89 118//89
f 114//90 113//90 118//90 119//90
f 120//91 121//91 122//91 123//91
f 124//92 125//92 126//92 127//92
f 128//93 129//93 130//93 131//93
f 132//94 120//94 123//94 133//94
f 134//95 135//95 136//95 137//95
f 135//96 138//96 139//96 136//96
f 136//96 139//96 40//96 53//96
f 137//95 136//95 53//95 14//95
f 138//97 140//97 141//97 139//97
f 140//98 142//98 143//98 141//98
f 141//98 143//98 36//98 41//98
f 139//97 141//97 41//97 40//97
f 142//99 144//99 145//99 143//99
f 144//100 146//100 147//100 145//100
f 145//100 147//100 10//100 37//100
f 143//99 145//99 37//99 36//99
f 146//101 148//101 149//101 147//101
f 148//102 134//102 137//102 149//102
f 149//102 137//102 14//102 11//102
f 147//101 149//101 11//101 10//101
f 150//103 151//103 152//103 153//103
f 151//104 154//104 155//104 152//104
f 152//105 155//105 138//105 135//105
f 153//106 152//106 135//106 134//106
f 154//107 156//107 157//107 155//107
f 156//108 158//108 159//108 157//108
f 157//109 159//109 142//109 140//109
f 155//110 157//110 140//110 138//110
f 158//111 160//111 161//111 159//111
f 160//112 162//112 163//112 161//112
f 161//113 163//113 146//113 144//113
f 159//114 161//114 144//114 142//114
f 162//115 164//115 165//115 163//115
f 164//116 150//116 153//116 165//116
f 165//117 153//117 134//117 148//117
f 163//118 165//118 148//118 146//118
f 166//119 167//119 168//119 169//119
f 167//120 170//120 171//120 168//120
f 168//121 171//121 154//121 151//121
f 169//122 168//122 151//122 150//122
f 170//123 172//123 173//123 171//123
f 172//124 174//124 175//124 173//124
f 173//125 175//125 158//125 156//125
f 171//126 173//126 156//126 154//126
f 174//127 176//127 177//127 175//127
f 176//128 178//128 179//128 177//128
f 177//129 179//129 162//129 160//129
f 175//130 177//130 160//130 158//130
f 178//131 180//131 181//131 179//131
f 180//132 166//132 169//132 181//132
f 181//133 169//133 150//133 164//133
f 179//134 181//134 164//134 162//134
f 182//135 183//135 184//135 185//135
f 183//136 186//136 187//136 184//136
f 184//137 187//137 188//137 189//137
f 185//138 184//138 189//138 190//138
f 186//139 191//139 192//139 187//139
f 191//140 193//140 194//140 192//140
f 192//141 194//141 195//141 196//141
f 187//142 192//142 196//142 188//142
f 193//143 197//143 198//143 194//143
f 197//144 199//144 200//144 198//144
f 198//145 200//145 201//145 202//145
f 194//146 198//146 202//146 195//146
f 199//147 203//147 204//147 200//147
f 203//148 182//148 185//148 204//148
f 204//149 185//149 190//149 205//149
f 200//150 204//150 205//150 201//150
f 190//151 189//151 206//151 207//151
f 189//152 188//152 208//152 206//152
f 206//153 208//153 209//153 210//153
f 207//154 206//154 210//154 211//154
f 188//155 196//155 212//155 208//155
f 196//156 195//156 213//156 212//156
f 212//157 213//157 214//157 215//157
f 208//158 212//158 215//158 209//158
f 195//159 202//159 216//159 213//159
f 202//160 201//160 217//160 216//160
f 216//161 217//161 218//161 219//161
f 213//162 216//162 219//162 214//162
f 201//163 205//163 220//163 217//163
f 205//164 190//164 207//164 220//164
f 220//165 207//165 211//165 221//165
f 217//166 220//166 221//166 218//166
f 211//167 210//167 222//167 223//167
f 210//168 209//168 224//168 222//168
f 222//168 224//168 225//168 226//168
f 223//167 222//167 226//167 227//167
f 209//169 215//169 228//169 224//169
f 215//170 214//170 229//170 228//170
f 228//170 229//170 230//170 231//170
f 224//169 228//169 231//169 225//169
f 214//171 219//171 232//171 229//171
f 219//172 218//172 233//172 232//172
f 232//172 233//172 234//172 235//172
f 229//171 232//171 235//171 230//171
f 218//173 221//173 236//173 233//173
f 221//174 211//174 223//174 236//174
f 236//174 223//174 227//174 237//174
f 233//173 236//173 237//173 234//173
f 227//167 226//167 238//167 239//167
f 226//175 225//175 240//175 238//175
f 238//176 240//176 241//176 242//176
f 239//177 238//177 242//177 243//177
f 225//178 231//178 244//178 240//178
f 231//179 230//179 245//179 244//179
f 244//180 245//180 246//180 247//180
f 240//181 244//181 247//181 241//181
f 230//171 235//171 248//171 245//171
f 235//182 234//182 249//182 248//182
f 248//183 249//183 250//183 251//183
f 245//184 248//184 251//184 246//184
f 234//185 237//185 252//185 249//185
f 237//186 227//186 239//186 252//186
f 252//187 239//187 243//187 253//187
f 249//188 252//188 253//188 250//188
f 243//189 242//189 254//189 255//189
f 242//190 241//190 256//190 254//190
f 254//191 256//191 22//191 81//191
f 255//192 254//192 81//192 33//192
f 241//193 247//193 257//193 256//193
f 247//194 246//194 258//194 257//194
f 257//195 258//195 16//195 19//195
f 256//196 257//196 19//196 22//196
f 246//197 251//197 259//197 258//197
f 251//198 250//198 260//198 259//198
f 259//199 260//199 28//199 58//199
f 258//200 259//200 58//200 16//200
f 250//201 253//201 261//201 260//201
f 253//202 243//202 255//202 261//202
f 261//203 255//203 33//203 52//203
f 260//204 261//204 52//204 28//204
f 262//205 263//205 264//205 265//205
f 263//206 266//206 267//206 264//206
f 264//207 267//207 78//207 99//207
f 265//208 264//208 99//208 65//208
f 266//209 268//209 269//209 267//209
f 268//210 270//210 271//210 269//210
f 269//211 271//211 73//211 76//211
f 267//212 269//212 76//212 78//212
f 270//213 272//213 273//213 271//213
f 272//214 274//214 275//214 273//214
f 273//215 275//215 59//215 93//215
f 271//216 273//216 93//216 73//216
f 274//217 276//217 277//217 275//217
f 276//218 262//218 265//218 277//218
f 277//219 265//219 65//219 100//219
f 275//220 277//220 100//220 59//220
f 278//221 279//221 280//221 281//221
f 279//222 282//222 283//222 280//222
f 280//222 283//222 266//222 263//222
f 281//221 280//221 263//221 262//221
f 282//223 284//223 285//223 283//223
f 284//224 286//224 287//224 285//224
f 285//224 287//224 270//224 268//224
f 283//223 285//223 268//223 266//223
f 286//225 288//225 289//225 287//225
f 288//226 290//226 291//226 289//226
f 289//226 291//226 274//226 272//226
f 287//225 289//225 272//225 270//225
f 290//227 292//227 293//227 291//227
f 292//228 278//228 281//228 293//228
f 293//228 281//228 262//228 276//228
f 291//227 293//227 276//227 274//227
f 294//221 295//221 296//221 297//221
f 295//222 298//222 299//222 296//222
f 296//222 299//222 282//222 279//222
f 297//221 296//221 279//221 278//221
f 298//223 300//223 301//223 299//223
f 300//224 302//224 303//224 301//224
f 301//224 303//224 286//224 284//224
f 299//223 301//223 284//223 282//223
f 302//225 304//225 305//225 303//225
f 304//226 306//226 307//226 305//226
f 305//226 307//226 290//226 288//226
f 303//225 305//225 288//225 286//225
f 306//227 308//227 309//227 307//227
f 308//228 294//228 297//228 309//228
f 309//228 297//228 278//228 292//228
f 307//227 309//227 292//227 290//227
f 310//221 311//221 312//221 313//221
f 311//222 314//222 315//222 312//222
f 312//222 315//222 298//222 295//222
f 313//221 312//221 295//221 294//221
f 314//223 316//223 317//223 315//223
f 316//224 318//224 319//224 317//224
f 317//224 319//224 302//224 300//224
f 315//229 317//229 300//229 298//229
f 318//225 320//225 321//225 319//225
f 320//226 322//226 323//226 321//226
f 321//226 323//226 306//226 304//226
f 319//225 321//225 304//225 302//225
f 322//227 324//227 325//227 323//227
f 324//228 310//228 313//228 325//228
f 325//228 313//228 294//228 308//228
f 323//227 325//227 308//227 306//227
f 326//230 327//230 328//230 329//230
f 327//231 330//231 331//231 328//231
f 328//232 331//232 314//232 311//232
f 329//233 328//233 311//233 310//233
f 330//234 332//234 333//234 331//234
f 332//235 334//235 335//235 333//235
f 333//236 335//236 318//236 316//236
f 331//237 333//237 316//237 314//237
f 334//238 336//238 337//238 335//238
f 336//239 338//239 339//239 337//239
f 337//240 339//240 322//240 320//240
f 335//241 337//241 320//241 318//241
f 338//242 340//242 341//242 339//242
f 340//243 326//243 329//243 341//243
f 341//244 329//244 310//244 324//244
f 339//245 341//245 324//245 322//245
f 342//246 343//246 344//246 345//246
f 343//247 346//247 347//247 344//247
f 344//248 347//248 330//248 327//248
f 345//249 344//249 327//249 326//249
f 346//250 348//250 349//250 347//250
f 348//251 350//251 351//251 349//251
f 349//252 351//252 334//252 332//252
f 347//253 349//253 332//253 330//253
f 350//254 352//254 353//254 351//254
f 352//255 354//255 355//255 353//255
f 353//256 355//256 338//256 336//256
f 351//257 353//257 336//257 334//257
f 354//258 356//258 357//258 355//258
f 356//259 342//259 345//259 357//259
f 357//260 345//260 326//260 340//260
f 355//261 357//261 340//261 338//261
f 358//262 121//262 359//262 360//262
f 121//263 120//263 361//263 359//263
f 359//264 361//264 46//264 49//264
f 360//265 359//265 49//265 35//265
f 120//266 132//266 362//266 361//266
f 132//267 129//267 363//267 362//267
f 362//268 363//268 69//268 97//268
f 361//269 362//269 97//269 46//269
f 129//270 128//270 364//270 363//270
f 128//271 125//271 365//271 364//271
f 364//272 365//272 20//272 70//272
f 363//273 364//273 70//273 69//273
f 125//274 124//274 366//274 365//274
f 124//275 358//275 360//275 366//275
f 366//276 360//276 35//276 79//276
f 365//277 366//277 79//277 20//277
f 119//278 118//278 367//278 368//278
f 118//279 117//279 369//279 367//279
f 367//280 369//280 370//280 371//280
f 368//281 367//281 371//281 372//281
f 117//282 116//282 373//282 369//282
f 116//283 115//283 374//283 373//283
f 373//284 374//284 375//284 376//284
f 369//285 373//285 376//285 370//285
f 115//286 112//286 377//286 374//286
f 112//287 111//287 378//287 377//287
f 377//288 378//288 379//288 380//288
f 374//289 377//289 380//289 375//289
f 111//290 114//290 381//290 378//290
f 114//291 119//291 368//291 381//291
f 381//292 368//292 372//292 382//292
f 378//293 381//293 382//293 379//293
f 372//294 371//294 383//294 384//294
f 371//295 370//295 385//295 383//295
f 383//296 385//296 186//296 183//296
f 384//297 383//297 183//297 182//297
f 370//298 376//298 386//298 385//298
f 376//299 375//299 387//299 386//299
f 386//300 387//300 193//300 191//300
f 385//301 386//301 191//301 186//301
f 375//302 380//302 388//302 387//302
f 380//303 379//303 389//303 388//303
f 388//304 389//304 199//304 197//304
f 387//305 388//305 197//305 193//305
f 379//306 382//306 390//306 389//306
f 382//307 372//307 384//307 390//307
f 390//308 384//308 182//308 203//308
f 389//309 390//309 203//309 199//309
f 391//310 392//310 393//310 394//310
f 392//311 395//311 396//311 393//311
f 393//312 396//312 170//312 167//312
f 394//313 393//313 167//313 166//313
f 395//314 397//314 398//314 396//314
f 397//315 399//315 400//315 398//315
f 398//316 400//316 174//316 172//316
f 396//317 398//317 172//317 170//317
f 399//318 401//318 402//318 400//318
f 401//319 403//319 404//319 402//319
f 402//320 404//320 178//320 176//320
f 400//321 402//321 176//321 174//321
f 403//322 405//322 406//322 404//322
f 405//323 391//323 394//323 406//323
f 406//324 394//324 166//324 180//324
f 404//325 406//325 180//325 178//325
f 407//326 408//326 409//326 410//326
f 408//327 411//327 412//327 409//327
f 409//328 412//328 395//328 392//328
f 410//329 409//329 392//329 391//329
f 411//330 413//330 414//330 412//330
f 413//331 415//331 416//331 414//331
f 414//332 416//332 399//332 397//332
f 412//333 414//333 397//333 395//333
f 415//334 417//334 418//334 416//334
f 417//335 419//335 420//335 418//335
f 418//336 420//336 403//336 401//336
f 416//337 418//337 401//337 399//337
f 419//338 421//338 422//338 420//338
f 421//339 407//339 410//339 422//339
f 422//340 410//340 391//340 405//340
f 420//341 422//341 405//341 403//341
f 423//342 424//342 425//342 426//342
f 424//343 427//343 428//343 425//343
f 425//343 428//343 411//343 408//343
f 426//342 425//342 408//342 407//342
f 427//344 429//344 430//344 428//344
f 429//345 431//345 432//345 430//345
f 430//345 432//345 415//345 413//345
f 428//344 430//344 413//344 411//344
f 431//346 433//346 434//346 432//346
f 433//347 435//347 436//347 434//347
f 434//347 436//347 419//347 417//347
f 432//348 434//348 417//348 415//348
f 435//349 437//349 438//349 436//349
f 437//350 423//350 426//350 438//350
f 438//350 426//350 407//350 421//350
f 436//349 438//349 421//349 419//349
f 110//351 109//351 439//351 440//351
f 109//352 108//352 441//352 439//352
f 439//353 441//353 427//353 424//353
f 440//354 439//354 424//354 423//354
f 108//355 107//355 442//355 441//355
f 107//356 106//356 443//356 442//356
f 442//357 443//357 431//357 429//357
f 441//358 442//358 429//358 427//358
f 106//359 103//359 444//359 443//359
f 103//360 102//360 445//360 444//360
f 444//361 445//361 435//361 433//361
f 443//362 444//362 433//362 431//362
f 102//363 105//363 446//363 445//363
f 105//364 110//364 440//364 446//364
f 446//365 440//365 423//365 437//365
f 445//366 446//366 437//366 435//366
f 447//367 448//367 449//367 450//367
f 448//368 451//368 452//368 449//368
f 449//369 452//369 346//369 343//369
f 450//370 449//370 343//370 342//370
f 451//371 453//371 454//371 452//371
f 453//372 455//372 456//372 454//372
f 454//373 456//373 350//373 348//373
f 452//374 454//374 348//374 346//374
f 455//375 457//375 458//375 456//375
f 457//376 459//376 460//376 458//376
f 458//377 460//377 354//377 352//377
f 456//378 458//378 352//378 350//378
f 459//379 461//379 462//379 460//379
f 461//380 447//380 450//380 462//380
f 462//381 450//381 342//381 356//381
f 460//382 462//382 356//382 354//382
f 463//383 464//383 465//383 466//383
f 464//384 467//384 468//384 465//384
f 465//385 468//385 451//385 448//385
f 466//386 465//386 448//386 447//386
f 467//387 469//387 470//387 468//387
f 469//388 471//388 472//388 470//388
f 470//389 472//389 455//389 453//389
f 468//390 470//390 453//390 451//390
f 471//391 473//391 474//391 472//391
f 473//392 475//392 476//392 474//392
f 474//393 476//393 459//393 457//393
f 472//394 474//394 457//394 455//394
f 475//395 477//395 478//395 476//395
f 477//396 463//396 466//396 478//396
f 478//397 466//397 447//397 461//397
f 476//398 478//398 461//398 459//398
f 479//399 480//399 481//399 482//399
f 480//400 483//400 484//400 481//400
f 481//400 484//400 467//400 464//400
f 482//399 481//399 464//399 463//399
f 483//401 485//401 486//401 484//401
f 485//402 487//402 488//402 486//402
f 486//402 488//402 471//402 469//402
f 484//401 486//401 469//401 467//401
f 487//403 489//403 490//403 488//403
f 489//404 491//404 492//404 490//404
f 490//404 492//404 475//404 473//404
f 488//403 490//403 473//403 471//403
f 491//405 493//405 494//405 492//405
f 493//406 479//406 482//406 494//406
f 494//406 482//406 463//406 477//406
f 492//407 494//407 477//407 475//407
f 90//408 89//408 495//408 496//408
f 89//409 88//409 497//409 495//409
f 495//410 497//410 483//410 480//410
f 496//411 495//411 480//411 479//411
f 88//412 87//412 498//412 497//412
f 87//413 86//413 499//413 498//413
f 498//414 499//414 487//414 485//414
f 497//415 498//415 485//415 483//415
f 86//416 83//416 500//416 499//416
f 83//417 82//417 501//417 500//417
f 500//418 501//418 491//418 489//418
f 499//419 500//419 489//419 487//419
f 82//420 85//420 502//420 501//420
f 85//421 90//421 496//421 502//421
f 502//422 496//422 479//422 493//422
f 501//423 502//423 493//423 491//423
f 129//424 132//424 133//424 130//424
f 121//425 358//425 503//425 122//425
f 125//426 128//426 131//426 126//426
f 358//427 124//427 127//427 503//427
