mtllib LOW_POLY_set.mtl
o lp_Plane_016_Plane_025
v 41.681572 0.304128 4.063778
v 41.700943 0.320535 3.938942
v 41.776386 0.299615 3.911361
v 41.787334 0.256702 3.919835
v 41.732224 0.357122 3.873303
v 41.816036 0.327396 3.867041
v 41.922340 0.279732 3.858902
v 41.762245 0.431573 3.859005
v 41.825340 0.386576 3.856489
v 41.830009 0.524897 3.922642
v 41.891033 0.406870 3.865123
v 42.432842 0.872206 3.901632
v 42.431808 0.879776 3.939467
v 42.466537 0.909943 3.927620
v 42.461433 0.891392 3.884188
v 42.450493 0.880005 3.973240
v 42.482903 0.900877 3.971283
v 42.516861 0.906903 3.953949
v 42.512527 0.912492 3.916004
v 42.499207 0.899105 3.882342
v 42.134708 0.341300 3.936677
v 42.118256 0.278579 3.986794
v 42.068283 0.274403 3.933541
v 42.033920 0.327002 3.893096
v 42.098137 0.216989 4.053033
v 42.045601 0.221483 3.930407
v 41.490139 0.454930 4.502917
v 41.481686 0.533177 4.461906
v 41.540253 0.507623 4.382279
v 41.552265 0.426947 4.418347
v 41.523281 0.612197 4.459515
v 41.578735 0.588302 4.383732
v 41.636265 0.561658 4.301965
v 41.597897 0.480479 4.295777
v 41.610092 0.398559 4.328115
v 41.623608 0.456994 4.605898
v 41.550659 0.426475 4.562545
v 41.614635 0.396633 4.475039
v 41.686928 0.426863 4.518657
v 41.672653 0.366467 4.385778
v 41.744999 0.395821 4.432876
v 41.771027 0.560441 4.402674
v 41.783295 0.477761 4.437038
v 41.842751 0.444580 4.353076
v 41.829212 0.533506 4.319571
v 41.803452 0.354497 4.344601
v 41.896305 0.273989 4.257107
v 41.920567 0.418482 4.270585
v 41.897358 0.521948 4.217368
v 41.708542 0.591773 4.347036
v 41.762909 0.566661 4.264587
v 41.687263 0.537855 4.214891
v 41.801682 0.552392 4.173567
v 41.706894 0.535159 4.108691
v 41.646378 0.453920 4.200085
v 41.659008 0.364297 4.221982
v 41.653702 0.441439 4.107483
v 41.812572 0.551516 4.086196
v 41.750267 0.556668 4.014080
v 41.875206 0.545276 4.080321
v 42.001949 0.505452 4.160281
v 41.952019 0.538685 4.089491
v 42.099495 0.515775 4.094871
v 41.975319 0.539514 4.023189
v 42.103306 0.535649 4.005943
v 42.013397 0.535439 3.980356
v 42.094307 0.506876 3.937598
v 41.980804 0.506026 3.923041
v 41.724098 0.326540 4.288631
v 41.753170 0.254749 4.203509
v 42.106091 0.431942 3.908240
v 41.996265 0.421011 3.887408
v 42.155766 0.340111 4.109322
v 42.123825 0.277211 4.094801
v 42.146492 0.290835 4.034091
v 42.176918 0.323942 4.018761
v 42.040272 0.322515 4.188924
v 42.064487 0.269789 4.157686
v 42.025341 0.211512 4.172217
v 41.194912 1.243497 4.792694
v 41.173714 1.246727 4.762609
v 41.139156 1.244547 4.792631
v 41.173477 1.237834 4.822248
v 41.149971 1.229740 4.739968
v 41.119221 1.221225 4.758592
v 41.104641 1.201250 4.786039
v 41.118984 1.212332 4.818231
v 41.149582 1.215007 4.838765
v 42.139336 0.431448 4.136142
v 42.028061 0.418520 4.196872
v 40.838791 1.203965 3.717566
v 40.858761 1.216993 3.679633
v 40.806801 1.222696 3.663518
v 40.794277 1.202384 3.712739
v 40.865047 1.211572 3.635604
v 40.826054 1.211591 3.613536
v 40.784744 1.195040 3.608346
v 40.761566 1.196983 3.646641
v 40.758488 1.187433 3.690308
v 41.596230 0.642716 4.502867
v 41.651020 0.618627 4.427096
v 41.656750 0.614260 4.562496
v 41.713383 0.588408 4.483535
v 41.665203 0.536014 4.603506
v 41.725403 0.507638 4.519856
v 41.481262 0.562791 4.771091
v 41.408798 0.533140 4.728851
v 41.480145 0.465308 4.653399
v 41.553696 0.495798 4.696724
v 41.361439 0.549899 4.656943
v 41.424889 0.489285 4.587239
v 41.372448 0.609361 4.595982
v 41.425133 0.560688 4.536265
v 41.428394 0.673657 4.577826
v 41.473679 0.634532 4.526349
v 41.500862 0.703308 4.620067
v 41.547234 0.665022 4.569674
v 41.548222 0.686549 4.691976
v 41.602489 0.641045 4.635833
v 41.537209 0.627087 4.752936
v 41.602245 0.569642 4.686807
v 40.868038 0.651154 3.723310
v 40.875736 0.633746 3.637816
v 40.975601 0.559580 3.673981
v 40.960560 0.583725 3.758437
v 40.923683 0.656984 3.567529
v 41.020500 0.586644 3.601208
v 41.134495 0.542511 3.647337
v 41.093006 0.513253 3.721096
v 41.071861 0.541589 3.803054
v 40.987785 0.712270 3.558597
v 41.071556 0.655471 3.587305
v 41.031017 0.765370 3.608082
v 41.100132 0.723204 3.632363
v 41.188736 0.696094 3.669199
v 41.173359 0.619475 3.629071
v 41.023319 0.782778 3.693575
v 41.085091 0.747349 3.716819
v 40.975368 0.759540 3.763862
v 41.040192 0.720285 3.789592
v 41.126099 0.695172 3.824916
v 41.167587 0.724430 3.751157
v 40.911270 0.704254 3.772794
v 40.989136 0.651458 3.803495
v 41.087234 0.618208 3.843182
v 41.202110 0.478308 3.765808
v 41.178463 0.508188 3.846293
v 41.241943 0.508304 3.691978
v 41.342785 0.477903 3.734101
v 41.303391 0.447957 3.807560
v 41.279510 0.477903 3.887420
v 41.275429 0.588161 3.671917
v 41.285103 0.667975 3.709724
v 41.384148 0.637615 3.751171
v 41.375328 0.557759 3.713889
v 41.261456 0.697855 3.790210
v 41.221626 0.667859 3.864040
v 41.320873 0.637615 3.904490
v 41.360268 0.667561 3.831031
v 41.188141 0.588002 3.884101
v 41.288330 0.557759 3.924702
v 41.402992 0.418305 3.848450
v 41.379375 0.447962 3.927797
v 41.441986 0.448235 3.775506
v 41.541054 0.418237 3.816408
v 41.503403 0.387341 3.888400
v 41.480789 0.416051 3.967043
v 41.474266 0.527684 3.755452
v 41.483051 0.607057 3.792528
v 41.581535 0.576609 3.833708
v 41.572666 0.497725 3.796732
v 41.459389 0.636786 3.871929
v 41.420345 0.606928 3.944927
v 41.520500 0.575576 3.985214
v 41.558537 0.605896 3.912786
v 41.388111 0.527407 3.964927
v 41.489273 0.495512 4.004454
v 41.604595 0.353871 3.924602
v 41.583027 0.377915 4.006441
v 41.639481 0.387613 3.853790
v 41.670403 0.467456 3.835627
v 41.683205 0.547483 3.874662
v 41.657688 0.576339 3.955966
v 41.619610 0.545871 4.029799
v 41.588314 0.462409 4.046248
v 42.307693 0.404302 3.921427
v 42.325367 0.380064 3.985553
v 42.244083 0.355419 4.001436
v 42.223740 0.380218 3.932859
v 42.332199 0.404302 4.051717
v 42.248886 0.380091 4.072491
v 42.322342 0.468938 4.078865
v 42.237030 0.449622 4.100667
v 42.303295 0.533573 4.057153
v 42.216007 0.518742 4.076092
v 42.285622 0.557811 3.993028
v 42.199219 0.543486 4.006968
v 42.278790 0.533573 3.926863
v 42.191971 0.517857 3.937928
v 42.288647 0.468938 3.899716
v 42.202435 0.449555 3.909694
v 42.472538 0.451062 3.895947
v 42.491394 0.431011 3.953975
v 42.406651 0.403506 3.970221
v 42.389412 0.426427 3.908957
v 42.495884 0.451796 4.014897
v 42.412968 0.426519 4.033564
v 42.481106 0.506381 4.041059
v 42.402817 0.487782 4.059700
v 42.457569 0.560690 4.022615
v 42.383835 0.549010 4.039107
v 42.438713 0.580741 3.964587
v 42.366592 0.571932 3.977843
v 42.434223 0.559956 3.903665
v 42.360275 0.548919 3.914500
v 42.449005 0.505371 3.877503
v 42.370426 0.487656 3.888365
v 42.611958 0.531393 3.871330
v 42.640305 0.524836 3.921890
v 42.579117 0.468409 3.936438
v 42.555576 0.482850 3.882250
v 42.637241 0.536185 3.979734
v 42.579811 0.485192 3.995552
v 42.600098 0.560957 4.009771
v 42.553894 0.527264 4.023363
v 42.553474 0.583933 3.999157
v 42.518887 0.568458 4.008686
v 42.525127 0.590490 3.948597
v 42.495346 0.582899 3.954497
v 42.528194 0.579141 3.890753
v 42.494652 0.566115 3.895384
v 42.565338 0.554368 3.860716
v 42.520573 0.524043 3.867573
v 40.747559 1.145652 3.637390
v 40.750233 1.143985 3.697944
v 40.784740 1.153982 3.590221
v 40.796288 1.081117 3.580561
v 40.755161 1.071045 3.632901
v 40.757977 1.070019 3.700157
v 40.843815 1.167457 3.587976
v 40.890282 1.175710 3.626047
v 40.913464 1.105240 3.620336
v 40.862057 1.095260 3.578024
v 40.892639 1.175519 3.686636
v 40.855774 1.165713 3.733770
v 40.875153 1.094142 3.739931
v 40.916275 1.104214 3.687591
v 40.796383 1.153715 3.736051
v 40.809380 1.079999 3.742468
v 40.768639 0.979696 3.628786
v 40.771458 0.979013 3.701128
v 40.812790 0.990762 3.572429
v 40.834103 0.883894 3.563907
v 40.787224 0.870395 3.624901
v 40.788811 0.872572 3.702684
v 40.883167 1.006808 3.569612
v 40.938046 1.018447 3.615058
v 40.963341 0.925696 3.608677
v 40.907215 0.906918 3.560271
v 40.940865 1.017764 3.687400
v 40.896713 1.006698 3.743757
v 40.918045 0.914374 3.747455
v 40.964924 0.927873 3.686460
v 40.826336 0.990653 3.746574
v 40.844933 0.891350 3.751090
v 40.816948 0.745792 3.624199
v 40.815037 0.754856 3.707017
v 40.865425 0.763893 3.558182
v 40.936958 0.801807 3.552679
v 40.989594 0.836333 3.602988
v 40.987682 0.845397 3.685807
v 40.939205 0.827296 3.751823
v 40.867672 0.789382 3.757327
v 41.351509 0.787552 4.826676
v 41.288303 0.762426 4.790385
v 41.343342 0.642142 4.771152
v 41.411858 0.669750 4.810737
v 41.257389 0.762953 4.720377
v 41.304897 0.649986 4.698355
v 41.282795 0.792544 4.655489
v 41.324932 0.693550 4.632998
v 41.343494 0.831361 4.630463
v 41.385078 0.744526 4.609783
v 41.406700 0.856487 4.666754
v 41.453590 0.772134 4.649367
v 41.437614 0.855960 4.736762
v 41.492035 0.764290 4.722166
v 41.412209 0.826369 4.801650
v 41.472000 0.720726 4.787523
v 41.265808 0.966510 4.839718
v 41.211807 0.945202 4.808812
v 41.245949 0.862339 4.801216
v 41.304276 0.885377 4.834612
v 41.187447 0.942523 4.747783
v 41.219337 0.859903 4.735475
v 41.212273 0.962863 4.690379
v 41.245697 0.882596 4.673760
v 41.266483 0.992199 4.667452
v 41.303909 0.914842 4.649222
v 41.320484 1.013507 4.698358
v 41.362236 0.937880 4.682619
v 41.344845 1.016186 4.759387
v 41.388847 0.940316 4.748359
v 41.320019 0.995846 4.816791
v 41.362488 0.917623 4.810074
v 41.197292 1.111558 4.848298
v 41.151131 1.093343 4.821878
v 41.180660 1.021244 4.815519
v 41.230637 1.040964 4.844122
v 41.130306 1.091052 4.769707
v 41.158115 1.018764 4.759037
v 41.151527 1.108440 4.720635
v 41.181091 1.037589 4.705910
v 41.197872 1.133518 4.701035
v 41.231266 1.064739 4.684690
v 41.244034 1.151733 4.727456
v 41.281242 1.084460 4.713294
v 41.264858 1.154024 4.779627
v 41.303787 1.086939 4.769776
v 41.243637 1.136636 4.828699
v 41.280811 1.068115 4.822903
v 41.125866 1.160102 4.825993
v 41.167244 1.175584 4.849420
v 41.107651 1.157342 4.779503
v 41.126221 1.173524 4.735983
v 41.167763 1.195121 4.718411
v 41.208466 1.212014 4.742046
v 41.227356 1.213363 4.788328
v 41.208111 1.198591 4.832056
v 42.597328 0.680432 3.865275
v 42.627579 0.689736 3.911542
v 42.649632 0.604645 3.914275
v 42.619335 0.602323 3.866303
v 42.622498 0.690368 3.967658
v 42.644852 0.609990 3.971215
v 42.580112 0.680668 3.999988
v 42.602867 0.615458 4.002844
v 42.528286 0.667241 3.993924
v 42.551319 0.618051 3.995131
v 42.498039 0.657936 3.947657
v 42.521023 0.615729 3.947159
v 42.503117 0.657304 3.891541
v 42.525803 0.610384 3.890218
v 42.545502 0.667005 3.859211
v 42.567787 0.604915 3.858589
v 42.545216 0.811942 3.866258
v 42.574371 0.824199 3.910374
v 42.600735 0.761808 3.910624
v 42.570995 0.749730 3.865556
v 42.569412 0.822631 3.964404
v 42.595688 0.760490 3.965752
v 42.528469 0.806201 3.996027
v 42.553928 0.744647 3.997953
v 42.478451 0.785763 3.990844
v 42.502907 0.724769 3.992580
v 42.449295 0.773507 3.946729
v 42.473167 0.712691 3.947512
v 42.454254 0.775075 3.892698
v 42.478214 0.714009 3.892383
v 42.495197 0.791504 3.861076
v 42.519974 0.729852 3.860183
v 42.547207 0.880131 3.910979
v 42.520050 0.867953 3.869530
v 42.542789 0.877998 3.961771
v 42.504051 0.863209 3.991512
v 42.457298 0.843350 3.986620
v 42.429611 0.832469 3.945160
v 42.434559 0.833304 3.894379
v 42.472771 0.849391 3.864628
v 42.005745 0.093619 4.172249
v 42.079155 0.093619 4.048243
v 41.870743 0.093619 4.223859
v 41.746883 0.093619 4.158995
v 41.703045 0.093619 4.026158
v 41.779366 0.093619 3.896559
v 41.915916 0.093619 3.844858
v 42.036747 0.093619 3.913832
vn -0.6051 -0.7125 -0.3553
vn -0.3536 -0.6897 -0.6319
vn -0.3550 -0.4626 -0.8124
vn -0.1317 -0.1436 -0.9808
vn 0.1241 0.4247 -0.8968
vn -0.0008 -0.0233 -0.9997
vn -0.6583 0.7257 -0.2003
vn -0.5279 0.7832 0.3283
vn -0.0380 0.9818 0.1860
vn -0.1683 0.9243 -0.3427
vn 0.5153 -0.4783 -0.7111
vn 0.7402 -0.5149 -0.4324
vn 0.4325 -0.2576 -0.8640
vn -0.8075 -0.3383 -0.4832
vn -0.7000 0.3473 -0.6240
vn -0.7096 0.3653 -0.6025
vn -0.8371 -0.3133 -0.4485
vn 0.1338 -0.9033 0.4075
vn -0.4255 -0.9049 -0.0077
vn -0.4484 -0.8938 0.0021
vn 0.1236 -0.9083 0.3996
vn 0.8262 0.3102 0.4702
vn 0.6911 -0.3579 0.6279
vn 0.6079 -0.2357 0.7582
vn 0.7615 0.3816 0.5240
vn -0.1411 0.9244 -0.3544
vn 0.4375 0.8991 0.0148
vn 0.3336 0.9409 0.0588
vn -0.1728 0.9757 -0.1351
vn -0.9001 -0.2443 -0.3607
vn -0.7422 0.4224 -0.5204
vn -0.8674 0.4732 -0.1537
vn -0.9833 -0.1689 -0.0682
vn -0.1378 0.9879 0.0709
vn 0.2050 0.9749 0.0872
vn 0.1640 0.9763 -0.1414
vn 0.1758 0.9636 0.2013
vn 0.1424 0.9667 0.2125
vn 0.0073 0.9961 -0.0877
vn 0.0479 0.9898 0.1339
vn 0.0824 0.8937 -0.4411
vn 0.0445 0.9482 -0.3146
vn 0.0516 -0.9031 0.4263
vn -0.5197 -0.8526 0.0546
vn -0.7254 -0.6577 0.2028
vn -0.1299 -0.7872 0.6028
vn 0.1238 0.3916 -0.9118
vn 0.2993 -0.0685 -0.9517
vn 0.2316 0.0745 -0.9700
vn 0.0873 0.4424 -0.8926
vn 0.8140 -0.5268 0.2447
vn 0.8297 -0.5560 -0.0498
vn 0.6870 -0.6079 -0.3980
vn 0.6252 -0.3229 0.7105
vn 0.4956 -0.1941 0.8466
vn 0.7160 -0.5030 0.4840
vn 0.0185 0.9889 0.1475
vn -0.3817 0.8664 -0.3220
vn -0.7854 0.6126 0.0883
vn -0.3852 0.7352 0.5578
vn 0.5320 -0.0752 0.8434
vn 0.4051 0.5031 0.7634
vn 0.4889 0.4725 0.7333
vn 0.5037 -0.1017 0.8579
vn -0.0350 0.9377 0.3456
vn 0.1206 0.9828 -0.1400
vn -0.3552 0.8848 -0.3015
vn -0.5108 0.8397 0.1842
vn -0.1455 0.9078 -0.3933
vn 0.4221 0.9065 0.0114
vn 0.4374 0.8993 0.0067
vn -0.1365 0.9076 -0.3971
vn 0.8146 0.3351 0.4735
vn 0.7001 -0.3462 0.6245
vn 0.7062 -0.3534 0.6135
vn 0.8231 0.3240 0.4665
vn -0.0568 -0.7686 0.6372
vn -0.5667 -0.8030 0.1843
vn -0.4414 -0.8967 0.0325
vn 0.0994 -0.8850 0.4550
vn -0.8237 -0.3260 -0.4639
vn -0.5902 0.2937 -0.7519
vn -0.6842 0.3521 -0.6387
vn -0.8051 -0.3421 -0.4846
vn 0.0176 0.8036 -0.5948
vn 0.5333 0.8323 -0.1508
vn 0.4201 0.9074 -0.0084
vn -0.1378 0.9044 -0.4038
vn 0.8005 0.3483 0.4878
vn 0.5612 -0.2652 0.7840
vn 0.6722 -0.3436 0.6558
vn 0.8114 0.3377 0.4770
vn -0.6151 -0.7809 0.1087
vn -0.3802 -0.7672 -0.5165
vn -0.1684 -0.8828 -0.4386
vn -0.4192 -0.8880 0.1889
vn 0.1240 -0.2896 -0.9491
vn 0.4944 0.3341 -0.8025
vn 0.4537 0.3464 -0.8211
vn 0.2399 -0.3480 -0.9063
vn 0.5403 0.8312 -0.1309
vn 0.2986 0.8230 0.4832
vn 0.0923 0.9100 0.4042
vn 0.3540 0.9113 -0.2104
vn -0.1616 0.3216 0.9330
vn -0.5245 -0.3090 0.7933
vn -0.4549 -0.3458 0.8207
vn -0.2541 0.3552 0.8996
vn -0.3749 -0.9007 0.2194
vn -0.1126 -0.8991 -0.4230
vn -0.0972 -0.9025 -0.4196
vn -0.3643 -0.9027 0.2288
vn 0.2683 -0.3437 -0.8999
vn 0.4490 0.3398 -0.8264
vn 0.4497 0.3369 -0.8272
vn 0.2739 -0.3401 -0.8996
vn 0.3556 0.9067 -0.2269
vn 0.0878 0.9068 0.4124
vn 0.1023 0.9009 0.4217
vn 0.3703 0.9009 -0.2264
vn -0.2665 0.3431 0.9007
vn -0.4414 -0.3425 0.8294
vn -0.4398 -0.3400 0.8312
vn -0.2648 0.3373 0.9034
vn -0.3633 -0.9029 0.2296
vn -0.0954 -0.9024 -0.4201
vn -0.1002 -0.8974 -0.4296
vn -0.3692 -0.9017 0.2251
vn 0.2745 -0.3391 -0.8998
vn 0.4499 0.3366 -0.8272
vn 0.4498 0.3369 -0.8272
vn 0.2734 -0.3353 -0.9016
vn 0.3726 0.9000 -0.2260
vn 0.1050 0.8997 0.4236
vn 0.1062 0.8977 0.4277
vn 0.3729 0.9001 -0.2254
vn -0.2635 0.3353 0.9045
vn -0.4386 -0.3403 0.8318
vn -0.4325 -0.3441 0.8334
vn -0.2580 0.3262 0.9094
vn -0.3880 -0.9020 0.1897
vn -0.1146 -0.8819 -0.4574
vn -0.1880 -0.8329 -0.5205
vn -0.4640 -0.8838 -0.0593
vn 0.2564 -0.3175 -0.9129
vn 0.4351 0.3396 -0.8339
vn 0.3464 0.3536 -0.8689
vn 0.1315 -0.2536 -0.9583
vn 0.3576 0.9074 -0.2208
vn 0.0844 0.9038 0.4196
vn -0.0464 0.9606 0.2740
vn 0.2487 0.9513 -0.1823
vn -0.2956 0.3102 0.9036
vn -0.4540 -0.3481 0.8202
vn -0.6697 -0.3204 0.6699
vn -0.5945 0.3459 0.7259
vn 0.2007 -0.8988 -0.3896
vn 0.3313 -0.8973 0.2917
vn 0.4653 -0.8459 0.2608
vn 0.3366 -0.8612 -0.3807
vn 0.3087 -0.3195 0.8959
vn 0.1456 0.3622 0.9206
vn 0.1780 0.4468 0.8768
vn 0.4055 -0.2310 0.8844
vn -0.0869 0.9276 0.3634
vn -0.2065 0.9248 -0.3196
vn -0.0879 0.9297 -0.3577
vn -0.0260 0.9615 0.2736
vn -0.1833 0.3540 -0.9171
vn -0.0353 -0.3270 -0.9444
vn 0.0747 -0.2849 -0.9556
vn -0.0455 0.3666 -0.9293
vn 0.2113 -0.8975 -0.3872
vn 0.3414 -0.8954 0.2859
vn 0.3153 -0.9014 0.2968
vn 0.1854 -0.9016 -0.3907
vn 0.2986 -0.3386 0.8923
vn 0.1406 0.3630 0.9211
vn 0.1387 0.3529 0.9253
vn 0.2923 -0.3330 0.8965
vn -0.0589 0.9334 0.3540
vn -0.1784 0.9328 -0.3132
vn -0.2208 0.9233 -0.3144
vn -0.0922 0.9233 0.3729
vn -0.1985 0.3675 -0.9086
vn -0.0507 -0.3364 -0.9404
vn -0.0540 -0.3328 -0.9415
vn -0.2063 0.3534 -0.9125
vn 0.5529 -0.7207 -0.4183
vn 0.6852 -0.7048 0.1834
vn 0.4150 -0.8732 0.2554
vn 0.2871 -0.8798 -0.3789
vn 0.4684 -0.2825 0.8371
vn 0.0240 0.3929 0.9193
vn 0.1300 0.3951 0.9094
vn 0.3288 -0.3511 0.8767
vn -0.2542 0.9163 0.3096
vn -0.3354 0.9144 -0.2267
vn -0.1133 0.9496 -0.2923
vn -0.0191 0.9536 0.3003
vn -0.3478 0.4041 -0.8460
vn 0.0630 -0.2956 -0.9532
vn -0.0310 -0.3444 -0.9383
vn -0.2002 0.4121 -0.8889
vn -0.9734 0.2283 0.0208
vn -0.7938 0.2803 -0.5397
vn -0.7814 -0.0417 -0.6226
vn -0.9938 -0.1033 0.0405
vn -0.1043 0.4365 -0.8936
vn 0.4448 0.5495 -0.7073
vn 0.5851 0.2544 -0.7701
vn -0.0646 0.1206 -0.9906
vn 0.7944 0.6073 -0.0005
vn 0.6150 0.5553 0.5599
vn 0.7362 0.2529 0.6277
vn 0.9486 0.3145 -0.0354
vn -0.0746 0.3991 0.9139
vn -0.6236 0.2860 0.7275
vn -0.6303 -0.0432 0.7752
vn 0.0194 0.0905 0.9957
vn -0.9884 -0.1468 0.0381
vn -0.7757 -0.0858 -0.6253
vn -0.7746 -0.1072 -0.6233
vn -0.9859 -0.1645 0.0306
vn -0.0569 0.0801 -0.9952
vn 0.5952 0.2157 -0.7741
vn 0.5953 0.2157 -0.7740
vn -0.0643 0.0719 -0.9953
vn 0.9611 0.2739 -0.0354
vn 0.7485 0.2118 0.6284
vn 0.7542 0.1973 0.6263
vn 0.9646 0.2620 -0.0309
vn 0.0280 0.0509 0.9983
vn -0.6243 -0.0835 0.7767
vn -0.6292 -0.0871 0.7724
vn 0.0315 0.0493 0.9983
vn -0.9743 -0.2248 0.0138
vn -0.7660 -0.1749 -0.6186
vn -0.6739 -0.4237 -0.6052
vn -0.8889 -0.4576 0.0212
vn -0.0788 0.0376 -0.9962
vn 0.5927 0.2235 -0.7738
vn 0.5643 0.2708 -0.7799
vn -0.0382 -0.0985 -0.9944
vn 0.9613 0.2748 -0.0173
vn 0.7562 0.2095 0.6199
vn 0.6570 0.4534 0.6023
vn 0.8671 0.4974 -0.0287
vn 0.0359 0.0643 0.9973
vn -0.6394 -0.1059 0.7616
vn -0.6199 -0.1891 0.7615
vn -0.0125 0.1708 0.9852
vn -0.3775 -0.3118 0.8720
vn -0.8226 -0.4279 0.3745
vn -0.7445 -0.5721 0.3442
vn -0.2809 -0.4888 0.8260
vn -0.8534 -0.2669 -0.4477
vn -0.3935 0.0361 -0.9186
vn -0.4465 0.1321 -0.8850
vn -0.8477 -0.2895 -0.4445
vn 0.3475 0.3711 -0.8611
vn 0.7829 0.5142 -0.3501
vn 0.7107 0.6293 -0.3144
vn 0.2585 0.5236 -0.8118
vn 0.7841 0.3827 0.4886
vn 0.3355 0.0538 0.9405
vn 0.3974 -0.0719 0.9148
vn 0.7863 0.3699 0.4949
vn -0.4058 -0.2478 0.8797
vn -0.8517 -0.3829 0.3579
vn -0.8447 -0.3929 0.3635
vn -0.3989 -0.2641 0.8782
vn -0.8498 -0.2593 -0.4588
vn -0.3995 0.0230 -0.9164
vn -0.3954 0.0212 -0.9183
vn -0.8511 -0.2607 -0.4557
vn 0.3468 0.3708 -0.8615
vn 0.7918 0.5081 -0.3389
vn 0.7932 0.5031 -0.3432
vn 0.3522 0.3609 -0.8636
vn 0.7881 0.3872 0.4785
vn 0.3387 0.1026 0.9353
vn 0.3362 0.0913 0.9374
vn 0.7868 0.3864 0.4813
vn -0.4072 -0.2444 0.8800
vn -0.8529 -0.3809 0.3571
vn -0.8497 -0.2591 -0.4593
vn -0.4001 0.0234 -0.9162
vn 0.3459 0.3726 -0.8611
vn 0.7915 0.5090 -0.3383
vn 0.3459 0.3725 -0.8612
vn 0.7883 0.3872 0.4781
vn 0.3388 0.1047 0.9350
vn 0.3388 0.1048 0.9350
vn -0.5265 0.0298 0.8497
vn -0.9147 -0.0892 0.3942
vn -0.8651 -0.3492 0.3602
vn -0.4202 -0.2131 0.8820
vn -0.9115 0.0308 -0.4101
vn -0.5199 0.2770 -0.8081
vn -0.4132 0.0541 -0.9090
vn -0.8619 -0.2279 -0.4530
vn 0.2149 0.6209 -0.7539
vn 0.6031 0.7398 -0.2984
vn 0.7747 0.5380 -0.3324
vn 0.3299 0.4018 -0.8543
vn 0.6000 0.6198 0.5059
vn 0.2084 0.3737 0.9039
vn 0.3228 0.1347 0.9368
vn 0.7715 0.4167 0.4808
vn 0.8114 0.2065 -0.5468
vn 0.9628 0.2610 0.0702
vn 0.9915 -0.1007 0.0824
vn 0.8486 -0.1370 -0.5110
vn 0.5831 0.2152 0.7834
vn -0.1303 -0.0170 0.9913
vn -0.1513 0.1223 0.9809
vn 0.6244 0.0433 0.7799
vn -0.7573 -0.3772 0.5331
vn -0.8891 -0.4545 -0.0535
vn -0.9920 -0.1159 -0.0510
vn -0.8593 -0.0436 0.5096
vn -0.5813 -0.2259 -0.7817
vn 0.1281 0.0376 -0.9910
vn 0.1651 -0.0713 -0.9837
vn -0.6204 -0.0251 -0.7838
vn 0.7498 0.3159 -0.5814
vn 0.9166 0.3886 0.0943
vn 0.9315 0.3532 0.0870
vn 0.7686 0.2866 -0.5719
vn 0.5312 0.2436 0.8115
vn -0.0996 -0.0108 0.9950
vn -0.1051 -0.0169 0.9943
vn 0.5443 0.2387 0.8042
vn -0.7604 -0.2897 0.5812
vn -0.9266 -0.3640 -0.0946
vn -0.9100 -0.4058 -0.0853
vn -0.7521 -0.3290 0.5710
vn -0.5452 -0.2085 -0.8119
vn 0.0850 0.0475 -0.9952
vn 0.0954 0.0469 -0.9943
vn -0.5507 -0.2201 -0.8052
vn 0.5642 0.6398 -0.5218
vn 0.7081 0.7034 0.0619
vn 0.8956 0.4345 0.0955
vn 0.7285 0.3607 -0.5824
vn 0.3335 0.5565 0.7610
vn -0.2075 0.3372 0.9183
vn -0.1157 0.0297 0.9928
vn 0.5125 0.2843 0.8102
vn -0.8538 0.0703 0.5159
vn -0.9977 0.0070 -0.0679
vn -0.9435 -0.3170 -0.0964
vn -0.7764 -0.2431 0.5815
vn -0.6230 0.1536 -0.7670
vn -0.0820 0.3729 -0.9242
vn 0.0678 0.0879 -0.9938
vn -0.5605 -0.1667 -0.8112
vn 0.8493 -0.1458 0.5073
vn 0.4223 -0.1632 0.8916
vn -0.3894 -0.1698 0.9053
vn -0.9218 -0.1192 0.3688
vn -0.8259 0.0615 -0.5604
vn -0.3889 0.1137 -0.9143
vn 0.5085 0.0590 -0.8590
vn 0.9351 -0.0741 -0.3467
usemtl Material.001
f 1//1 2//1 3//1 4//1
f 5//2 6//2 3//2 2//2
f 7//3 4//3 3//3 6//3
f 5//4 8//4 9//4 6//4
f 10//5 11//5 9//5 8//5
f 7//6 6//6 9//6 11//6
f 12//7 13//7 14//7 15//7
f 13//8 16//8 17//8 14//8
f 14//9 17//9 18//9 19//9
f 15//10 14//10 19//10 20//10
f 21//11 22//11 23//11 24//11
f 25//12 26//12 23//12 22//12
f 7//13 24//13 23//13 26//13
f 27//14 28//14 29//14 30//14
f 28//15 31//15 32//15 29//15
f 29//16 32//16 33//16 34//16
f 30//17 29//17 34//17 35//17
f 36//18 37//18 38//18 39//18
f 37//19 27//19 30//19 38//19
f 38//20 30//20 35//20 40//20
f 39//21 38//21 40//21 41//21
f 42//22 43//22 44//22 45//22
f 43//23 41//23 46//23 44//23
f 44//24 46//24 47//24 48//24
f 45//25 44//25 48//25 49//25
f 33//26 50//26 51//26 52//26
f 50//27 42//27 45//27 51//27
f 51//28 45//28 49//28 53//28
f 52//29 51//29 53//29 54//29
f 35//30 34//30 55//30 56//30
f 34//31 33//31 52//31 55//31
f 55//32 52//32 54//32 57//32
f 56//33 55//33 57//33 1//33
f 54//34 53//34 58//34 59//34
f 49//35 60//35 58//35 53//35
f 10//36 59//36 58//36 60//36
f 49//37 61//37 62//37 60//37
f 63//38 64//38 62//38 61//38
f 10//39 60//39 62//39 64//39
f 63//40 65//40 66//40 64//40
f 67//41 68//41 66//41 65//41
f 10//42 64//42 66//42 68//42
f 41//43 40//43 69//43 46//43
f 40//44 35//44 56//44 69//44
f 69//45 56//45 1//45 70//45
f 46//46 69//46 70//46 47//46
f 67//47 71//47 72//47 68//47
f 71//48 21//48 24//48 72//48
f 72//49 24//49 7//49 11//49
f 68//50 72//50 11//50 10//50
f 73//51 74//51 75//51 76//51
f 25//52 22//52 75//52 74//52
f 21//53 76//53 75//53 22//53
f 73//54 77//54 78//54 74//54
f 47//55 79//55 78//55 77//55
f 25//56 74//56 78//56 79//56
f 80//57 81//57 82//57 83//57
f 81//58 84//58 85//58 82//58
f 82//59 85//59 86//59 87//59
f 83//60 82//60 87//60 88//60
f 73//61 89//61 90//61 77//61
f 89//62 63//62 61//62 90//62
f 90//63 61//63 49//63 48//63
f 77//64 90//64 48//64 47//64
f 91//65 92//65 93//65 94//65
f 92//66 95//66 96//66 93//66
f 93//67 96//67 97//67 98//67
f 94//68 93//68 98//68 99//68
f 31//69 100//69 101//69 32//69
f 100//70 102//70 103//70 101//70
f 101//71 103//71 42//71 50//71
f 32//72 101//72 50//72 33//72
f 102//73 104//73 105//73 103//73
f 104//74 36//74 39//74 105//74
f 105//75 39//75 41//75 43//75
f 103//76 105//76 43//76 42//76
f 106//77 107//77 108//77 109//77
f 107//78 110//78 111//78 108//78
f 108//79 111//79 27//79 37//79
f 109//80 108//80 37//80 36//80
f 110//81 112//81 113//81 111//81
f 112//82 114//82 115//82 113//82
f 113//83 115//83 31//83 28//83
f 111//84 113//84 28//84 27//84
f 114//85 116//85 117//85 115//85
f 116//86 118//86 119//86 117//86
f 117//87 119//87 102//87 100//87
f 115//88 117//88 100//88 31//88
f 118//89 120//89 121//89 119//89
f 120//90 106//90 109//90 121//90
f 121//91 109//91 36//91 104//91
f 119//92 121//92 104//92 102//92
f 122//93 123//93 124//93 125//93
f 123//94 126//94 127//94 124//94
f 124//95 127//95 128//95 129//95
f 125//96 124//96 129//96 130//96
f 126//97 131//97 132//97 127//97
f 131//98 133//98 134//98 132//98
f 132//99 134//99 135//99 136//99
f 127//100 132//100 136//100 128//100
f 133//101 137//101 138//101 134//101
f 137//102 139//102 140//102 138//102
f 138//103 140//103 141//103 142//103
f 134//104 138//104 142//104 135//104
f 139//105 143//105 144//105 140//105
f 143//106 122//106 125//106 144//106
f 144//107 125//107 130//107 145//107
f 140//108 144//108 145//108 141//108
f 130//109 129//109 146//109 147//109
f 129//110 128//110 148//110 146//110
f 146//111 148//111 149//111 150//111
f 147//112 146//112 150//112 151//112
f 128//113 136//113 152//113 148//113
f 136//114 135//114 153//114 152//114
f 152//115 153//115 154//115 155//115
f 148//116 152//116 155//116 149//116
f 135//117 142//117 156//117 153//117
f 142//118 141//118 157//118 156//118
f 156//119 157//119 158//119 159//119
f 153//120 156//120 159//120 154//120
f 141//121 145//121 160//121 157//121
f 145//122 130//122 147//122 160//122
f 160//123 147//123 151//123 161//123
f 157//124 160//124 161//124 158//124
f 151//125 150//125 162//125 163//125
f 150//126 149//126 164//126 162//126
f 162//127 164//127 165//127 166//127
f 163//128 162//128 166//128 167//128
f 149//129 155//129 168//129 164//129
f 155//130 154//130 169//130 168//130
f 168//131 169//131 170//131 171//131
f 164//132 168//132 171//132 165//132
f 154//133 159//133 172//133 169//133
f 159//134 158//134 173//134 172//134
f 172//135 173//135 174//135 175//135
f 169//136 172//136 175//136 170//136
f 158//137 161//137 176//137 173//137
f 161//138 151//138 163//138 176//138
f 176//139 163//139 167//139 177//139
f 173//140 176//140 177//140 174//140
f 167//141 166//141 178//141 179//141
f 166//142 165//142 180//142 178//142
f 178//143 180//143 5//143 2//143
f 179//144 178//144 2//144 1//144
f 165//145 171//145 181//145 180//145
f 171//146 170//146 182//146 181//146
f 181//147 182//147 10//147 8//147
f 180//148 181//148 8//148 5//148
f 170//149 175//149 183//149 182//149
f 175//150 174//150 184//150 183//150
f 183//151 184//151 54//151 59//151
f 182//152 183//152 59//152 10//152
f 174//153 177//153 185//153 184//153
f 177//154 167//154 179//154 185//154
f 185//155 179//155 1//155 57//155
f 184//156 185//156 57//156 54//156
f 186//157 187//157 188//157 189//157
f 187//158 190//158 191//158 188//158
f 188//159 191//159 73//159 76//159
f 189//160 188//160 76//160 21//160
f 190//161 192//161 193//161 191//161
f 192//162 194//162 195//162 193//162
f 193//163 195//163 63//163 89//163
f 191//164 193//164 89//164 73//164
f 194//165 196//165 197//165 195//165
f 196//166 198//166 199//166 197//166
f 197//167 199//167 67//167 65//167
f 195//168 197//168 65//168 63//168
f 198//169 200//169 201//169 199//169
f 200//170 186//170 189//170 201//170
f 201//171 189//171 21//171 71//171
f 199//172 201//172 71//172 67//172
f 202//173 203//173 204//173 205//173
f 203//174 206//174 207//174 204//174
f 204//175 207//175 190//175 187//175
f 205//176 204//176 187//176 186//176
f 206//177 208//177 209//177 207//177
f 208//178 210//178 211//178 209//178
f 209//179 211//179 194//179 192//179
f 207//180 209//180 192//180 190//180
f 210//181 212//181 213//181 211//181
f 212//182 214//182 215//182 213//182
f 213//183 215//183 198//183 196//183
f 211//184 213//184 196//184 194//184
f 214//185 216//185 217//185 215//185
f 216//186 202//186 205//186 217//186
f 217//187 205//187 186//187 200//187
f 215//188 217//188 200//188 198//188
f 218//189 219//189 220//189 221//189
f 219//190 222//190 223//190 220//190
f 220//191 223//191 206//191 203//191
f 221//192 220//192 203//192 202//192
f 222//193 224//193 225//193 223//193
f 224//194 226//194 227//194 225//194
f 225//195 227//195 210//195 208//195
f 223//196 225//196 208//196 206//196
f 226//197 228//197 229//197 227//197
f 228//198 230//198 231//198 229//198
f 229//199 231//199 214//199 212//199
f 227//200 229//200 212//200 210//200
f 230//201 232//201 233//201 231//201
f 232//202 218//202 221//202 233//202
f 233//203 221//203 202//203 216//203
f 231//204 233//204 216//204 214//204
f 99//205 98//205 234//205 235//205
f 98//206 97//206 236//206 234//206
f 234//207 236//207 237//207 238//207
f 235//208 234//208 238//208 239//208
f 97//209 96//209 240//209 236//209
f 96//210 95//210 241//210 240//210
f 240//211 241//211 242//211 243//211
f 236//212 240//212 243//212 237//212
f 95//213 92//213 244//213 241//213
f 92//214 91//214 245//214 244//214
f 244//215 245//215 246//215 247//215
f 241//216 244//216 247//216 242//216
f 91//217 94//217 248//217 245//217
f 94//218 99//218 235//218 248//218
f 248//219 235//219 239//219 249//219
f 245//220 248//220 249//220 246//220
f 239//221 238//221 250//221 251//221
f 238//222 237//222 252//222 250//222
f 250//223 252//223 253//223 254//223
f 251//224 250//224 254//224 255//224
f 237//225 243//225 256//225 252//225
f 243//226 242//226 257//226 256//226
f 256//227 257//227 258//227 259//227
f 252//228 256//228 259//228 253//228
f 242//229 247//229 260//229 257//229
f 247//230 246//230 261//230 260//230
f 260//231 261//231 262//231 263//231
f 257//232 260//232 263//232 258//232
f 246//233 249//233 264//233 261//233
f 249//234 239//234 251//234 264//234
f 264//235 251//235 255//235 265//235
f 261//236 264//236 265//236 262//236
f 255//237 254//237 266//237 267//237
f 254//238 253//238 268//238 266//238
f 266//239 268//239 126//239 123//239
f 267//240 266//240 123//240 122//240
f 253//241 259//241 269//241 268//241
f 259//242 258//242 270//242 269//242
f 269//243 270//243 133//243 131//243
f 268//244 269//244 131//244 126//244
f 258//245 263//245 271//245 270//245
f 263//246 262//246 272//246 271//246
f 271//247 272//247 139//247 137//247
f 270//248 271//248 137//248 133//248
f 262//249 265//249 273//249 272//249
f 265//250 255//250 267//250 273//250
f 273//251 267//251 122//251 143//251
f 272//252 273//252 143//252 139//252
f 274//253 275//253 276//253 277//253
f 275//254 278//254 279//254 276//254
f 276//255 279//255 110//255 107//255
f 277//256 276//256 107//256 106//256
f 278//257 280//257 281//257 279//257
f 280//258 282//258 283//258 281//258
f 281//259 283//259 114//259 112//259
f 279//260 281//260 112//260 110//260
f 282//261 284//261 285//261 283//261
f 284//262 286//262 287//262 285//262
f 285//263 287//263 118//263 116//263
f 283//264 285//264 116//264 114//264
f 286//265 288//265 289//265 287//265
f 288//266 274//266 277//266 289//266
f 289//267 277//267 106//267 120//267
f 287//268 289//268 120//268 118//268
f 290//269 291//269 292//269 293//269
f 291//270 294//270 295//270 292//270
f 292//271 295//271 278//271 275//271
f 293//272 292//272 275//272 274//272
f 294//273 296//273 297//273 295//273
f 296//274 298//274 299//274 297//274
f 297//275 299//275 282//275 280//275
f 295//276 297//276 280//276 278//276
f 298//277 300//277 301//277 299//277
f 300//278 302//278 303//278 301//278
f 301//279 303//279 286//279 284//279
f 299//280 301//280 284//280 282//280
f 302//281 304//281 305//281 303//281
f 304//282 290//282 293//282 305//282
f 305//283 293//283 274//283 288//283
f 303//284 305//284 288//284 286//284
f 306//285 307//285 308//285 309//285
f 307//286 310//286 311//286 308//286
f 308//286 311//286 294//286 291//286
f 309//285 308//285 291//285 290//285
f 310//287 312//287 313//287 311//287
f 312//288 314//288 315//288 313//288
f 313//288 315//288 298//288 296//288
f 311//287 313//287 296//287 294//287
f 314//289 316//289 317//289 315//289
f 316//290 318//290 319//290 317//290
f 317//290 319//290 302//290 300//290
f 315//291 317//291 300//291 298//291
f 318//292 320//292 321//292 319//292
f 320//293 306//293 309//293 321//293
f 321//294 309//294 290//294 304//294
f 319//292 321//292 304//292 302//292
f 88//295 87//295 322//295 323//295
f 87//296 86//296 324//296 322//296
f 322//297 324//297 310//297 307//297
f 323//298 322//298 307//298 306//298
f 86//299 85//299 325//299 324//299
f 85//300 84//300 326//300 325//300
f 325//301 326//301 314//301 312//301
f 324//302 325//302 312//302 310//302
f 84//303 81//303 327//303 326//303
f 81//304 80//304 328//304 327//304
f 327//305 328//305 318//305 316//305
f 326//306 327//306 316//306 314//306
f 80//307 83//307 329//307 328//307
f 83//308 88//308 323//308 329//308
f 329//309 323//309 306//309 320//309
f 328//310 329//310 320//310 318//310
f 330//311 331//311 332//311 333//311
f 331//312 334//312 335//312 332//312
f 332//313 335//313 222//313 219//313
f 333//314 332//314 219//314 218//314
f 334//315 336//315 337//315 335//315
f 336//316 338//316 339//316 337//316
f 337//317 339//317 226//317 224//317
f 335//318 337//318 224//318 222//318
f 338//319 340//319 341//319 339//319
f 340//320 342//320 343//320 341//320
f 341//321 343//321 230//321 228//321
f 339//322 341//322 228//322 226//322
f 342//323 344//323 345//323 343//323
f 344//324 330//324 333//324 345//324
f 345//325 333//325 218//325 232//325
f 343//326 345//326 232//326 230//326
f 346//327 347//327 348//327 349//327
f 347//328 350//328 351//328 348//328
f 348//329 351//329 334//329 331//329
f 349//330 348//330 331//330 330//330
f 350//331 352//331 353//331 351//331
f 352//332 354//332 355//332 353//332
f 353//333 355//333 338//333 336//333
f 351//334 353//334 336//334 334//334
f 354//335 356//335 357//335 355//335
f 356//336 358//336 359//336 357//336
f 357//337 359//337 342//337 340//337
f 355//338 357//338 340//338 338//338
f 358//339 360//339 361//339 359//339
f 360//340 346//340 349//340 361//340
f 361//341 349//341 330//341 344//341
f 359//342 361//342 344//342 342//342
f 20//343 19//343 362//343 363//343
f 19//344 18//344 364//344 362//344
f 362//345 364//345 350//345 347//345
f 363//346 362//346 347//346 346//346
f 18//347 17//347 365//347 364//347
f 17//348 16//348 366//348 365//348
f 365//349 366//349 354//349 352//349
f 364//350 365//350 352//350 350//350
f 16//351 13//351 367//351 366//351
f 13//352 12//352 368//352 367//352
f 367//353 368//353 358//353 356//353
f 366//354 367//354 356//354 354//354
f 12//355 15//355 369//355 368//355
f 15//356 20//356 363//356 369//356
f 369//357 363//357 346//357 360//357
f 368//358 369//358 360//358 358//358
f 25//359 79//359 370//359 371//359
f 79//360 47//360 372//360 370//360
f 47//361 70//361 373//361 372//361
f 70//362 1//362 374//362 373//362
f 1//363 4//363 375//363 374//363
f 4//364 7//364 376//364 375//364
f 7//365 26//365 377//365 376//365
f 26//366 25//366 371//366 377//366
