mtllib LOW_POLY_set.mtl
o lp_Rock_Type2_01_mesh_001_Cube_004
v 21.233347 0.410586 33.646652
v 20.460869 0.591476 33.793434
v 20.341312 1.233242 33.588791
v 20.964855 1.520571 33.309788
v 21.012260 1.513085 33.299442
v 19.986988 1.265543 34.103130
v 20.080400 1.332340 35.126354
v 20.528034 2.002049 35.437439
v 20.650171 2.272155 34.374615
v 20.475031 2.027385 34.026196
v 20.061977 1.396266 33.911816
v 22.041561 0.879786 35.852642
v 21.748043 0.815821 35.953789
v 21.795010 0.386289 35.451569
v 22.307732 0.246165 34.996521
v 22.333584 0.826255 35.622509
v 22.422972 0.195977 34.560978
v 21.638603 1.802393 33.713715
v 22.695427 0.976709 34.631924
v 22.633963 1.254622 35.171577
v 22.121956 1.890407 35.334927
v 21.042650 1.071044 35.995098
v 20.154028 0.742313 35.259861
v 21.418999 2.347094 34.485485
v 21.802526 2.214856 35.250572
v 20.732292 1.986037 35.617210
v 20.062782 0.758145 35.178532
v 19.993813 0.730650 34.413509
v 20.836744 0.897341 35.771240
v 21.118505 0.435752 35.970158
v 20.906609 0.287990 36.384857
v 20.498774 0.606697 36.495350
v 20.479979 0.634574 36.485401
v 21.325306 0.208986 36.518791
v 21.927246 0.570768 36.736732
v 21.869587 0.943573 37.224583
v 21.118536 0.705178 37.218605
v 20.995852 0.492134 37.000256
v 21.159685 0.199300 36.571018
v 21.899345 2.066950 36.427227
v 22.059278 1.906947 36.419151
v 21.810089 1.795667 36.032642
v 21.402658 1.996771 35.824654
v 21.680651 2.189669 36.331936
v 21.105679 1.943871 35.707119
v 20.505426 1.159728 36.717510
v 20.927679 2.130232 36.240875
v 21.232433 2.245410 36.530205
v 21.365583 1.951230 37.029408
v 22.241880 1.456721 36.646801
v 22.098303 0.666897 36.348259
v 20.952179 1.236615 37.241158
v 21.345224 1.713793 37.258686
v 21.926203 1.129674 37.231903
v 22.070774 0.583331 36.350796
v 21.616343 0.313069 36.203281
v 21.111301 0.339450 35.450420
v 20.977631 1.056870 36.260590
v 20.153526 0.912982 36.654209
v 19.694183 0.153900 36.189629
v 19.697655 0.108373 36.141491
v 20.122967 1.756218 36.702835
v 19.933863 2.869130 35.889271
v 18.940729 2.918242 35.278446
v 18.648027 1.611044 35.933487
v 19.032309 1.330978 36.334785
v 19.951988 1.484343 36.774796
v 20.172974 2.313245 33.061619
v 20.296196 2.636605 33.314117
v 20.906036 2.020263 33.537399
v 21.051340 1.132061 33.247345
v 20.218115 1.841101 32.880657
v 21.136728 0.548462 33.412964
v 19.177631 0.145641 35.187038
v 20.042210 0.446201 33.190327
v 19.634663 1.114200 32.930481
v 18.849411 1.671568 33.512264
v 20.061203 3.185956 34.134983
v 20.701744 2.964170 35.607162
v 18.418116 1.195761 34.991718
v 18.471718 1.804003 33.993313
v 18.915287 2.980595 34.916294
v 20.701567 2.935238 35.771194
v 20.812744 2.102792 36.382442
vt 0.238426 0.773466
vt 0.251937 0.763649
vt 0.246776 0.747766
vt 0.230075 0.747766
vt 0.224915 0.763649
vt 0.238426 0.773466
vt 0.250729 0.766363
vt 0.250729 0.752156
vt 0.238426 0.745053
vt 0.226123 0.752156
vt 0.226123 0.766363
vt 0.238426 0.773466
vt 0.251937 0.763649
vt 0.246776 0.747766
vt 0.230075 0.747766
vt 0.224915 0.763649
vt 0.238426 0.773466
vt 0.251937 0.763649
vt 0.246776 0.747766
vt 0.230075 0.747766
vt 0.224915 0.763649
vt 0.224219 0.745053
vt 0.252632 0.745053
vt 0.252632 0.773466
vt 0.224219 0.773466
vt 0.224219 0.745053
vt 0.252632 0.745053
vt 0.252632 0.773466
vt 0.224219 0.773466
vt 0.251937 0.763649
vt 0.246776 0.747766
vt 0.230075 0.747766
vt 0.224915 0.763649
vt 0.238426 0.773466
vt 0.250729 0.766363
vt 0.250729 0.752156
vt 0.238426 0.745053
vt 0.226123 0.752156
vt 0.226123 0.766363
vt 0.238426 0.773466
vt 0.250729 0.766363
vt 0.250729 0.752156
vt 0.238426 0.745053
vt 0.226123 0.752156
vt 0.226123 0.766363
vt 0.248471 0.769305
vt 0.252632 0.759259
vt 0.248471 0.749214
vt 0.238426 0.745053
vt 0.228380 0.749214
vt 0.224219 0.759259
vt 0.228380 0.769305
vt 0.224219 0.745053
vt 0.252632 0.745053
vt 0.252632 0.773466
vt 0.224219 0.773466
vt 0.224219 0.745053
vt 0.252632 0.745053
vt 0.252632 0.773466
vt 0.224219 0.773466
vt 0.238426 0.773466
vt 0.250729 0.766363
vt 0.250729 0.752156
vt 0.238426 0.745053
vt 0.226123 0.752156
vt 0.226123 0.766363
vt 0.251937 0.763649
vt 0.246776 0.747766
vt 0.230075 0.747766
vt 0.224915 0.763649
vt 0.238426 0.773466
vt 0.251937 0.763649
vt 0.246776 0.747766
vt 0.230075 0.747766
vt 0.224915 0.763649
vt 0.250729 0.766363
vt 0.250729 0.752156
vt 0.238426 0.745053
vt 0.226123 0.752156
vt 0.226123 0.766363
vt 0.763889 0.259577
vt 0.777400 0.249760
vt 0.772239 0.233877
vt 0.755538 0.233877
vt 0.750378 0.249760
vt 0.763889 0.259577
vt 0.776192 0.252474
vt 0.776192 0.238267
vt 0.763889 0.231164
vt 0.751586 0.238267
vt 0.751586 0.252474
vt 0.763889 0.259577
vt 0.777400 0.249760
vt 0.772239 0.233877
vt 0.755538 0.233877
vt 0.750378 0.249760
vt 0.763889 0.259577
vt 0.777400 0.249760
vt 0.772239 0.233877
vt 0.755538 0.233877
vt 0.750378 0.249760
vt 0.749682 0.231164
vt 0.778095 0.231164
vt 0.778095 0.259577
vt 0.749682 0.259577
vt 0.749682 0.231164
vt 0.778095 0.231164
vt 0.778095 0.259577
vt 0.749682 0.259577
vt 0.777400 0.249760
vt 0.772239 0.233877
vt 0.755538 0.233877
vt 0.750378 0.249760
vt 0.763889 0.259577
vt 0.776192 0.252474
vt 0.776192 0.238267
vt 0.763889 0.231164
vt 0.751586 0.238267
vt 0.751586 0.252474
vt 0.763889 0.259577
vt 0.776192 0.252474
vt 0.776192 0.238267
vt 0.763889 0.231164
vt 0.751586 0.238267
vt 0.751586 0.252474
vt 0.773934 0.255416
vt 0.778095 0.245370
vt 0.773934 0.235325
vt 0.763889 0.231164
vt 0.753843 0.235325
vt 0.749682 0.245370
vt 0.753843 0.255416
vt 0.749682 0.231164
vt 0.778095 0.231164
vt 0.778095 0.259577
vt 0.749682 0.259577
vt 0.749682 0.231164
vt 0.778095 0.231164
vt 0.778095 0.259577
vt 0.749682 0.259577
vt 0.763889 0.259577
vt 0.776192 0.252474
vt 0.776192 0.238267
vt 0.763889 0.231164
vt 0.751586 0.238267
vt 0.751586 0.252474
vt 0.777400 0.249760
vt 0.772239 0.233877
vt 0.755538 0.233877
vt 0.750378 0.249760
vt 0.763889 0.259577
vt 0.777400 0.249760
vt 0.772239 0.233877
vt 0.755538 0.233877
vt 0.750378 0.249760
vt 0.776192 0.252474
vt 0.776192 0.238267
vt 0.763889 0.231164
vt 0.751586 0.238267
vt 0.751586 0.252474
vt 0.222222 0.250318
vt 0.235734 0.240501
vt 0.230573 0.224618
vt 0.213872 0.224618
vt 0.208711 0.240501
vt 0.222222 0.250318
vt 0.234526 0.243214
vt 0.234526 0.229008
vt 0.222222 0.221904
vt 0.209919 0.229008
vt 0.209919 0.243214
vt 0.222222 0.250318
vt 0.235734 0.240501
vt 0.230573 0.224618
vt 0.213872 0.224618
vt 0.208711 0.240501
vt 0.222222 0.250318
vt 0.235734 0.240501
vt 0.230573 0.224618
vt 0.213872 0.224618
vt 0.208711 0.240501
vt 0.208016 0.221904
vt 0.236429 0.221904
vt 0.236429 0.250318
vt 0.208016 0.250318
vt 0.208016 0.221904
vt 0.236429 0.221904
vt 0.236429 0.250318
vt 0.208016 0.250318
vt 0.235734 0.240501
vt 0.230573 0.224618
vt 0.213872 0.224618
vt 0.208711 0.240501
vt 0.222222 0.250318
vt 0.234526 0.243214
vt 0.234526 0.229008
vt 0.222222 0.221904
vt 0.209919 0.229008
vt 0.209919 0.243214
vt 0.222222 0.250318
vt 0.234526 0.243214
vt 0.234526 0.229008
vt 0.222222 0.221904
vt 0.209919 0.229008
vt 0.209919 0.243214
vt 0.232268 0.246157
vt 0.236429 0.236111
vt 0.232268 0.226066
vt 0.222222 0.221904
vt 0.212177 0.226066
vt 0.208016 0.236111
vt 0.212177 0.246157
vt 0.208016 0.221904
vt 0.236429 0.221904
vt 0.236429 0.250318
vt 0.208016 0.250318
vt 0.208016 0.221904
vt 0.236429 0.221904
vt 0.236429 0.250318
vt 0.208016 0.250318
vt 0.222222 0.250318
vt 0.234526 0.243214
vt 0.234526 0.229008
vt 0.222222 0.221904
vt 0.209919 0.229008
vt 0.209919 0.243214
vt 0.235734 0.240501
vt 0.230573 0.224618
vt 0.213872 0.224618
vt 0.208711 0.240501
vt 0.222222 0.250318
vt 0.235734 0.240501
vt 0.230573 0.224618
vt 0.213872 0.224618
vt 0.208711 0.240501
vt 0.234526 0.243214
vt 0.234526 0.229008
vt 0.222222 0.221904
vt 0.209919 0.229008
vt 0.209919 0.243214
vn -0.2512 -0.3362 -0.9077
vn -0.8394 0.5419 0.0413
vn 0.3656 -0.6902 0.6245
vn 0.5888 -0.1330 -0.7973
vn 0.6222 0.3172 0.7157
vn -0.2349 -0.7494 0.6190
vn 0.8991 -0.3389 0.2770
vn 0.7217 0.6454 -0.2502
vn 0.2080 0.4328 0.8772
vn -0.2178 -0.9745 0.0547
vn -0.5324 0.4754 -0.7004
vn -0.9953 0.0386 0.0883
vn -0.6542 0.0883 0.7512
vn -0.1273 0.9647 0.2305
vn -0.7908 -0.3147 -0.5250
vn 0.0034 0.8175 -0.5760
vn -0.6082 -0.5968 -0.5234
vn 0.2359 -0.7585 0.6075
vn 0.5781 0.6055 -0.5470
vn -0.9034 0.2092 -0.3743
vn 0.2947 0.8556 0.4256
vn 0.8314 0.0578 -0.5527
vn -0.0332 0.9401 -0.3393
vn -0.6778 0.5400 0.4990
vn 0.5740 0.5428 0.6131
vn 0.3873 -0.1552 -0.9088
vn -0.5218 -0.7842 0.3358
vn 0.4701 -0.8704 0.1465
vn 0.9009 -0.2869 0.3257
vn 0.0050 -0.0408 0.9992
vn -0.0597 -0.9303 -0.3620
vn -0.7176 -0.2522 0.6492
vn 0.4182 -0.6447 0.6399
vn -0.4426 0.4790 0.7581
vn 0.6035 0.3350 -0.7236
vn 0.1127 -0.9886 -0.1000
vn -0.4305 0.2869 -0.8558
vn 0.7321 0.6442 -0.2215
vn 0.2149 -0.2374 -0.9473
vn -0.7081 -0.5855 -0.3947
vn -0.5071 0.6422 -0.5749
vn 0.9879 0.1525 0.0280
vn -0.3666 -0.3141 0.8757
vn 0.0716 0.5965 0.7994
vn -0.0580 0.9832 0.1733
vn -0.9558 0.2711 0.1138
vn 0.4358 -0.0361 0.8993
vn -0.7754 -0.4858 0.4035
usemtl color4
f 1/1/1 2/2/1 3/3/1 4/4/1 5/5/1
f 6/6/2 7/7/2 8/8/2 9/9/2 10/10/2 11/11/2
f 12/12/3 13/13/3 14/14/3 15/15/3 16/16/3
f 17/17/4 1/18/4 5/19/4 18/20/4 19/21/4
f 12/22/5 16/23/5 20/24/5 21/25/5
f 22/26/6 23/27/6 14/28/6 13/29/6
f 17/17/7 19/30/7 20/31/7 16/32/7 15/33/7
f 18/34/8 24/35/8 25/36/8 21/37/8 20/38/8 19/39/8
f 25/40/9 26/41/9 22/42/9 13/43/9 12/44/9 21/45/9
f 1/1/10 17/46/10 15/47/10 14/48/10 23/49/10 27/50/10 28/51/10 2/52/10
f 11/53/11 10/54/11 4/55/11 3/56/11
f 7/57/12 6/58/12 28/59/12 27/60/12
f 26/61/13 8/62/13 7/63/13 27/64/13 23/65/13 22/66/13
f 26/61/14 25/67/14 24/68/14 9/69/14 8/70/14
f 28/71/15 6/72/15 11/73/15 3/74/15 2/75/15
f 18/34/16 5/76/16 4/77/16 10/78/16 9/79/16 24/80/16
f 29/81/17 30/82/17 31/83/17 32/84/17 33/85/17
f 34/86/18 35/87/18 36/88/18 37/89/18 38/90/18 39/91/18
f 40/92/19 41/93/19 42/94/19 43/95/19 44/96/19
f 45/97/20 29/98/20 33/99/20 46/100/20 47/101/20
f 40/102/21 44/103/21 48/104/21 49/105/21
f 50/106/22 51/107/22 42/108/22 41/109/22
f 45/97/23 47/110/23 48/111/23 44/112/23 43/113/23
f 46/114/24 52/115/24 53/116/24 49/117/24 48/118/24 47/119/24
f 53/120/25 54/121/25 50/122/25 41/123/25 40/124/25 49/125/25
f 29/81/26 45/126/26 43/127/26 42/128/26 51/129/26 55/130/26 56/131/26 30/132/26
f 39/133/27 38/134/27 32/135/27 31/136/27
f 35/137/28 34/138/28 56/139/28 55/140/28
f 54/141/29 36/142/29 35/143/29 55/144/29 51/145/29 50/146/29
f 54/141/30 53/147/30 52/148/30 37/149/30 36/150/30
f 56/151/31 34/152/31 39/153/31 31/154/31 30/155/31
f 46/114/32 33/156/32 32/157/32 38/158/32 37/159/32 52/160/32
f 57/161/33 58/162/33 59/163/33 60/164/33 61/165/33
f 62/166/34 63/167/34 64/168/34 65/169/34 66/170/34 67/171/34
f 68/172/35 69/173/35 70/174/35 71/175/35 72/176/35
f 73/177/36 57/178/36 61/179/36 74/180/36 75/181/36
f 68/182/37 72/183/37 76/184/37 77/185/37
f 78/186/38 79/187/38 70/188/38 69/189/38
f 73/177/39 75/190/39 76/191/39 72/192/39 71/193/39
f 74/194/40 80/195/40 81/196/40 77/197/40 76/198/40 75/199/40
f 81/200/41 82/201/41 78/202/41 69/203/41 68/204/41 77/205/41
f 57/161/42 73/206/42 71/207/42 70/208/42 79/209/42 83/210/42 84/211/42 58/212/42
f 67/213/43 66/214/43 60/215/43 59/216/43
f 63/217/44 62/218/44 84/219/44 83/220/44
f 82/221/45 64/222/45 63/223/45 83/224/45 79/225/45 78/226/45
f 82/221/46 81/227/46 80/228/46 65/229/46 64/230/46
f 84/231/47 62/232/47 67/233/47 59/234/47 58/235/47
f 74/194/48 61/236/48 60/237/48 66/238/48 65/239/48 80/240/48
