mtllib LOW_POLY_set.mtl
o lp_Rock_Type2_03_mesh_001_Cube_010
v -31.201096 1.007240 36.042053
v -30.927898 1.398783 35.737026
v -31.246035 1.414020 35.416279
v -31.966837 1.380973 34.786499
v -32.318386 1.300029 34.572338
v -32.402828 1.173435 34.674610
v -32.299191 1.038100 34.966125
v -31.298090 0.969906 36.004486
v -29.247707 0.463929 34.428024
v -29.146011 0.543187 34.389202
v -29.122086 0.569627 34.391075
v -29.080730 0.639039 34.427795
v -29.594437 0.912231 35.575062
v -29.971952 0.689641 35.820324
v -30.070326 0.405485 35.564873
v -31.484137 0.699345 35.756851
v -31.457376 0.442557 35.531513
v -30.575155 0.363986 35.504200
v -29.194698 1.079642 33.843410
v -29.536285 0.919059 33.224483
v -30.620066 1.111796 32.912861
v -29.980148 1.436908 34.129459
v -29.574915 1.422589 34.381836
v -31.456947 0.618122 32.777901
v -31.452612 0.615670 32.777557
v -31.456310 0.613952 32.780426
v -29.134483 0.555383 34.375050
v -30.865559 1.436908 34.538219
v -30.936277 0.620637 32.788391
v -29.909914 0.472977 33.085644
v -29.960127 0.397005 33.216709
v -30.370071 0.363987 33.258991
v -31.527525 0.469222 33.031033
v -30.750641 1.078544 32.871857
v -31.514956 0.716020 32.793858
v -32.486504 0.895576 34.334377
v -32.436317 0.679816 34.434856
v -32.318466 0.722608 34.819626
v -32.290440 0.800348 34.929436
v -32.262142 0.524759 34.265827
v -31.605106 0.457021 35.375881
v -32.260067 1.130644 33.757641
v -30.726574 1.094157 32.879993
v -29.852783 1.393850 35.392082
v -29.677107 0.599733 33.162888
v -32.262886 1.121484 33.746761
vt 0.206019 0.781888
vt 0.213835 0.778650
vt 0.217073 0.770833
vt 0.213835 0.763017
vt 0.206019 0.759779
vt 0.198202 0.763017
vt 0.194964 0.770833
vt 0.198202 0.778650
vt 0.206019 0.781888
vt 0.214661 0.777726
vt 0.216796 0.768373
vt 0.210815 0.760874
vt 0.201222 0.760874
vt 0.195241 0.768373
vt 0.197376 0.777726
vt 0.206019 0.781888
vt 0.214661 0.777726
vt 0.216796 0.768373
vt 0.210815 0.760874
vt 0.201222 0.760874
vt 0.195241 0.768373
vt 0.197376 0.777726
vt 0.206019 0.781888
vt 0.216532 0.774249
vt 0.212516 0.761890
vt 0.199521 0.761890
vt 0.195505 0.774249
vt 0.194964 0.759779
vt 0.217073 0.759779
vt 0.217073 0.781888
vt 0.194964 0.759779
vt 0.217073 0.759779
vt 0.217073 0.781888
vt 0.194964 0.759779
vt 0.217073 0.759779
vt 0.217073 0.781888
vt 0.206019 0.781888
vt 0.214661 0.777726
vt 0.216796 0.768373
vt 0.210815 0.760874
vt 0.201222 0.760874
vt 0.195241 0.768373
vt 0.197376 0.777726
vt 0.206019 0.781888
vt 0.216532 0.774249
vt 0.212516 0.761890
vt 0.199521 0.761890
vt 0.195505 0.774249
vt 0.206019 0.781888
vt 0.215592 0.776361
vt 0.215592 0.765306
vt 0.206019 0.759779
vt 0.196445 0.765306
vt 0.196445 0.776361
vt 0.194964 0.759779
vt 0.217073 0.759779
vt 0.217073 0.781888
vt 0.194964 0.781888
vt 0.206019 0.781888
vt 0.214661 0.777726
vt 0.216796 0.768373
vt 0.210815 0.760874
vt 0.201222 0.760874
vt 0.195241 0.768373
vt 0.197376 0.777726
vt 0.206019 0.781888
vt 0.215592 0.776361
vt 0.215592 0.765306
vt 0.206019 0.759779
vt 0.196445 0.765306
vt 0.196445 0.776361
vt 0.194964 0.759779
vt 0.217073 0.759779
vt 0.217073 0.781888
vt 0.194964 0.781888
vt 0.206019 0.781888
vt 0.216532 0.774249
vt 0.212516 0.761890
vt 0.199521 0.761890
vt 0.195505 0.774249
vt 0.206019 0.781888
vt 0.215592 0.776361
vt 0.215592 0.765306
vt 0.206019 0.759779
vt 0.196445 0.765306
vt 0.196445 0.776361
vt 0.206019 0.781888
vt 0.216532 0.774249
vt 0.212516 0.761890
vt 0.199521 0.761890
vt 0.216532 0.774249
vt 0.212516 0.761890
vt 0.199521 0.761890
vt 0.195505 0.774249
vt 0.206019 0.781888
vt 0.215592 0.776361
vt 0.215592 0.765306
vt 0.206019 0.759779
vt 0.196445 0.765306
vt 0.196445 0.776361
vt 0.206019 0.781888
vt 0.216532 0.774249
vt 0.212516 0.761890
vt 0.199521 0.761890
vt 0.195505 0.774249
vt 0.215592 0.776361
vt 0.215592 0.765306
vt 0.206019 0.759779
vt 0.196445 0.765306
vt 0.196445 0.776361
vt 0.206019 0.781888
vt 0.216532 0.774249
vt 0.212516 0.761890
vt 0.199521 0.761890
vt 0.195505 0.774249
vt 0.213835 0.778650
vt 0.217073 0.770833
vt 0.213835 0.763017
vt 0.206019 0.759779
vt 0.198202 0.763017
vt 0.194964 0.770833
vt 0.198202 0.778650
vt 0.206019 0.781888
vt 0.214661 0.777726
vt 0.216796 0.768373
vt 0.210815 0.760874
vt 0.201222 0.760874
vt 0.195241 0.768373
vt 0.197376 0.777726
vt 0.216532 0.774249
vt 0.212516 0.761890
vt 0.199521 0.761890
vn -0.4733 0.7227 0.5038
vn 0.6506 -0.6198 0.4389
vn -0.0357 -0.6613 0.7493
vn 0.2662 0.8871 -0.3771
vn -0.3576 -0.5233 -0.7735
vn 0.7403 -0.6719 0.0242
vn -0.0497 0.9988 0.0045
vn 0.0188 -0.8681 -0.4960
vn 0.0190 0.1718 -0.9849
vn -0.9504 -0.0813 0.3001
vn -0.5006 -0.8301 0.2456
vn -0.0966 0.9731 -0.2092
vn 0.0150 0.9994 0.0326
vn -0.7179 -0.1319 0.6835
vn -0.6318 -0.5474 0.5488
vn -0.0890 -0.9960 -0.0081
vn 0.8149 0.5280 0.2392
vn 0.2723 0.4659 0.8419
vn 0.5275 -0.8070 -0.2657
vn 0.0810 -0.9967 0.0074
vn 0.8651 -0.3047 -0.3984
vn -0.8756 0.4567 -0.1576
vn -0.7963 -0.3975 -0.4559
vn 0.2855 0.0586 -0.9566
vn -0.3055 0.7659 -0.5657
usemtl color2
f 1/1/1 2/2/1 3/3/1 4/4/1 5/5/1 6/6/1 7/7/1 8/8/1
f 9/9/2 10/10/2 11/11/2 12/12/2 13/13/2 14/14/2 15/15/2
f 15/16/3 14/17/3 1/18/3 8/19/3 16/20/3 17/21/3 18/22/3
f 19/23/4 20/24/4 21/25/4 22/26/4 23/27/4
f 24/28/5 25/29/5 26/30/5
f 11/31/6 10/32/6 27/33/6
f 4/34/7 3/35/7 28/36/7
f 29/37/8 30/38/8 31/39/8 32/40/8 33/41/8 26/42/8 25/43/8
f 34/44/9 29/45/9 25/46/9 24/47/9 35/48/9
f 6/49/10 36/50/10 37/51/10 38/52/10 39/53/10 7/54/10
f 37/55/11 40/56/11 41/57/11 38/58/11
f 42/59/12 5/60/12 4/61/12 28/62/12 22/63/12 21/64/12 43/65/12
f 2/66/13 44/67/13 23/68/13 22/69/13 28/70/13 3/71/13
f 39/72/14 16/73/14 8/74/14 7/75/14
f 38/76/15 41/77/15 17/78/15 16/79/15 39/80/15
f 40/81/16 33/82/16 32/83/16 18/84/16 17/85/16 41/86/16
f 44/87/17 13/88/17 12/89/17 19/90/17 23/27/17
f 1/1/18 14/91/18 13/92/18 44/93/18 2/94/18
f 27/95/19 10/96/19 9/97/19 31/98/19 30/99/19 45/100/19
f 18/101/20 32/102/20 31/103/20 9/104/20 15/105/20
f 19/23/21 12/106/21 11/107/21 27/108/21 45/109/21 20/110/21
f 36/111/22 6/112/22 5/113/22 42/114/22 46/115/22
f 36/111/23 46/116/23 35/117/23 24/118/23 26/119/23 33/120/23 40/121/23 37/122/23
f 20/123/24 45/124/24 30/125/24 29/126/24 34/127/24 43/128/24 21/129/24
f 42/59/25 43/130/25 34/131/25 35/132/25 46/115/25
