mtllib LOW_POLY_set.mtl
o lp_Rock_Type5_01_mesh_001_Cube_021
v -10.190070 1.269562 36.817181
v -10.190070 0.375368 36.817181
v -10.151720 0.375368 37.565365
v -9.701290 1.269562 37.631031
v -9.292133 0.375368 37.270443
v -9.292133 0.905270 37.270443
v -9.093143 1.284141 36.721786
v -9.093143 0.375368 36.721786
v -9.240602 0.375368 36.291992
v -9.240602 1.284141 36.291992
v -10.052840 0.375368 36.384010
v -10.052840 1.269562 36.384010
v -10.473868 1.169404 36.187832
v -10.473868 0.478846 36.187832
v -11.050860 0.478846 36.145306
v -11.144474 1.169404 36.484142
v -10.907494 0.478846 36.832321
v -10.907494 0.888072 36.832321
v -10.506203 1.180663 37.037537
v -10.506203 0.478846 37.037537
v -10.162693 0.478846 36.965855
v -10.162693 1.180663 36.965855
v -10.155136 0.478846 36.334621
v -10.155136 1.169404 36.334621
v -8.426129 1.169404 35.297092
v -8.426129 0.478846 35.297092
v -8.307403 0.478846 35.863335
v -7.955892 1.169404 35.859577
v -7.686843 0.478846 35.535534
v -7.686843 0.888072 35.535534
v -7.600631 1.180663 35.093140
v -7.600631 0.478846 35.093140
v -7.764531 0.478846 34.782860
v -7.764531 1.180663 34.782860
v -8.373228 0.478846 34.950195
v -8.373228 1.169404 34.950195
v -7.795094 0.940999 35.021259
v -7.795094 0.476600 35.021259
v -6.449615 0.476600 34.812126
v -6.449615 0.940999 34.812126
v -7.143419 0.476600 33.313179
v -7.143419 1.439714 33.313179
v -8.172525 2.128326 33.055943
v -8.172525 0.476600 33.055943
v -8.921997 0.476600 33.402843
v -8.921997 2.128326 33.402843
v -8.603865 0.476600 34.854099
v -8.603865 0.940999 34.854099
v -9.390079 1.097928 36.397240
v -11.097731 1.097928 36.032978
v -11.097731 0.468625 36.032978
v -9.390079 0.468625 36.397240
v -11.121677 1.773732 33.794868
v -11.121677 0.468625 33.794868
v -10.012274 2.706862 32.880840
v -8.893220 2.706862 32.868870
v -8.893220 0.468625 32.868870
v -10.012274 0.468625 32.880840
v -8.271025 1.097928 36.385269
v -8.271025 0.468625 36.385269
vt 0.639240 0.213459
vt 0.639240 0.255291
vt 0.681072 0.255291
vt 0.681072 0.213459
vt 0.639240 0.213459
vt 0.639240 0.255291
vt 0.681072 0.255291
vt 0.681072 0.213459
vt 0.639240 0.213459
vt 0.639240 0.255291
vt 0.681072 0.255291
vt 0.681072 0.213459
vt 0.639240 0.213459
vt 0.639240 0.255291
vt 0.681072 0.255291
vt 0.681072 0.213459
vt 0.639240 0.213459
vt 0.681072 0.213459
vt 0.639240 0.255291
vt 0.681072 0.255291
vt 0.639240 0.255291
vt 0.681072 0.255291
vt 0.681072 0.213459
vt 0.639240 0.213459
vt 0.681072 0.255291
vt 0.681072 0.213459
vt 0.639240 0.213459
vt 0.639240 0.255291
vt 0.639240 0.213459
vt 0.639240 0.255291
vt 0.681072 0.255291
vt 0.681072 0.213459
vt 0.214766 0.755937
vt 0.214766 0.754967
vt 0.213796 0.754967
vt 0.213796 0.755937
vt 0.214766 0.755937
vt 0.214766 0.754967
vt 0.213796 0.754967
vt 0.213796 0.755937
vt 0.214766 0.755937
vt 0.214766 0.754967
vt 0.213796 0.754967
vt 0.213796 0.755937
vt 0.214766 0.755937
vt 0.214766 0.754967
vt 0.213796 0.754967
vt 0.213796 0.755937
vt 0.214766 0.755937
vt 0.213796 0.755937
vt 0.214766 0.754967
vt 0.213796 0.754967
vt 0.214766 0.754967
vt 0.213796 0.754967
vt 0.213796 0.755937
vt 0.214766 0.755937
vt 0.213796 0.754967
vt 0.213796 0.755937
vt 0.214766 0.755937
vt 0.214766 0.754967
vt 0.214766 0.755937
vt 0.214766 0.754967
vt 0.213796 0.754967
vt 0.213796 0.755937
vt 0.182209 0.248615
vt 0.182209 0.290447
vt 0.224041 0.290447
vt 0.224041 0.248615
vt 0.182209 0.248615
vt 0.182209 0.290447
vt 0.224041 0.290447
vt 0.224041 0.248615
vt 0.182209 0.248615
vt 0.182209 0.290447
vt 0.224041 0.290447
vt 0.224041 0.248615
vt 0.182209 0.248615
vt 0.182209 0.290447
vt 0.224041 0.290447
vt 0.224041 0.248615
vt 0.182209 0.248615
vt 0.224041 0.248615
vt 0.182209 0.290447
vt 0.224041 0.290447
vt 0.182209 0.290447
vt 0.224041 0.290447
vt 0.224041 0.248615
vt 0.182209 0.248615
vt 0.224041 0.290447
vt 0.224041 0.248615
vt 0.182209 0.248615
vt 0.182209 0.290447
vt 0.182209 0.248615
vt 0.182209 0.290447
vt 0.224041 0.290447
vt 0.224041 0.248615
vt 0.754954 0.198158
vt 0.754954 0.197188
vt 0.753984 0.197188
vt 0.753984 0.198158
vt 0.754954 0.198158
vt 0.754954 0.197188
vt 0.753984 0.197188
vt 0.753984 0.198158
vt 0.754954 0.198158
vt 0.754954 0.197188
vt 0.753984 0.197188
vt 0.753984 0.198158
vt 0.754954 0.198158
vt 0.754954 0.197188
vt 0.753984 0.197188
vt 0.753984 0.198158
vt 0.754954 0.198158
vt 0.753984 0.198158
vt 0.754954 0.197188
vt 0.753984 0.197188
vt 0.754954 0.197188
vt 0.753984 0.197188
vt 0.753984 0.198158
vt 0.754954 0.198158
vt 0.753984 0.197188
vt 0.753984 0.198158
vt 0.754954 0.198158
vt 0.754954 0.197188
vt 0.754954 0.198158
vt 0.754954 0.197188
vt 0.753984 0.197188
vt 0.753984 0.198158
vt 0.182209 0.248615
vt 0.224041 0.248615
vt 0.224041 0.290447
vt 0.182209 0.290447
vt 0.182209 0.248615
vt 0.224041 0.248615
vt 0.224041 0.290447
vt 0.182209 0.290447
vt 0.182209 0.248615
vt 0.224041 0.248615
vt 0.224041 0.290447
vt 0.182209 0.290447
vt 0.182209 0.248615
vt 0.224041 0.248615
vt 0.224041 0.290447
vt 0.182209 0.290447
vt 0.182209 0.248615
vt 0.224041 0.248615
vt 0.224041 0.290447
vt 0.182209 0.290447
vt 0.224041 0.248615
vt 0.224041 0.290447
vt 0.182209 0.290447
vt 0.182209 0.248615
vt 0.224041 0.248615
vt 0.224041 0.290447
vt 0.182209 0.248615
vt 0.182209 0.290447
vt 0.182209 0.248615
vt 0.224041 0.248615
vt 0.224041 0.290447
vt 0.182209 0.290447
vn -0.9240 0.2213 0.3118
vn 0.4128 -0.1718 0.8945
vn 0.9459 0.0000 -0.3245
vn -0.1126 0.0000 -0.9936
vn 0.0000 -1.0000 0.0000
vn 0.2791 0.9388 0.2017
vn -0.0153 0.9999 0.0002
vn 0.9401 0.0000 0.3410
vn -0.9533 0.0000 -0.3020
vn -0.1944 0.2213 -0.9556
vn -0.9389 -0.1718 0.2983
vn 0.2043 0.0000 0.9789
vn 0.9999 0.0000 0.0120
vn -0.2349 0.9388 0.2518
vn 0.0017 0.9999 -0.0152
vn -0.4553 0.0000 0.8903
vn 0.4183 0.0000 -0.9083
vn -0.8646 0.2213 0.4511
vn 0.5463 -0.1718 0.8198
vn 0.8842 0.0000 -0.4671
vn -0.2651 0.0000 -0.9642
vn 0.3069 0.9388 0.1561
vn -0.0150 0.9999 0.0025
vn 0.9815 0.0000 0.1913
vn -0.9886 0.0000 -0.1508
vn 0.1536 0.0000 0.9881
vn 0.9075 0.0000 -0.4200
vn -0.4200 0.0000 -0.9075
vn -0.9768 0.0000 0.2141
vn 0.2532 0.8984 0.3589
vn 0.0647 0.8255 0.5606
vn 0.2425 0.0000 -0.9702
vn -0.2024 0.0000 0.9793
vn -0.2086 0.0000 0.9780
vn -0.9999 0.0000 0.0107
vn -0.0107 0.0000 -0.9999
vn 0.9847 0.0000 -0.1742
vn -0.2228 0.8972 0.3812
vn 0.0044 0.9096 0.4154
vn -0.6359 0.0000 -0.7718
vn 0.0107 0.0000 0.9999
usemtl color2
f 1/1/1 2/2/1 3/3/1 4/4/1
f 4/5/2 3/6/2 5/7/2 6/8/2
f 7/9/3 8/10/3 9/11/3 10/12/3
f 10/13/4 9/14/4 11/15/4 12/16/4
f 2/17/5 8/10/5 5/7/5 3/18/5
f 7/9/6 1/19/6 4/20/6 6/8/6
f 10/13/7 12/21/7 1/22/7 7/23/7
f 11/24/5 9/14/5 8/25/5 2/26/5
f 6/27/8 5/28/8 8/25/8 7/23/8
f 12/29/9 11/30/9 2/31/9 1/32/9
f 13/33/10 14/34/10 15/35/10 16/36/10
f 16/37/11 15/38/11 17/39/11 18/40/11
f 19/41/12 20/42/12 21/43/12 22/44/12
f 22/45/13 21/46/13 23/47/13 24/48/13
f 14/49/5 20/42/5 17/39/5 15/50/5
f 19/41/14 13/51/14 16/52/14 18/40/14
f 22/45/15 24/53/15 13/54/15 19/55/15
f 23/56/5 21/46/5 20/57/5 14/58/5
f 18/59/16 17/60/16 20/57/16 19/55/16
f 24/61/17 23/62/17 14/63/17 13/64/17
f 25/65/18 26/66/18 27/67/18 28/68/18
f 28/69/19 27/70/19 29/71/19 30/72/19
f 31/73/20 32/74/20 33/75/20 34/76/20
f 34/77/21 33/78/21 35/79/21 36/80/21
f 26/81/5 32/74/5 29/71/5 27/82/5
f 31/73/22 25/83/22 28/84/22 30/72/22
f 34/77/23 36/85/23 25/86/23 31/87/23
f 35/88/5 33/78/5 32/89/5 26/90/5
f 30/91/24 29/92/24 32/89/24 31/87/24
f 36/93/25 35/94/25 26/95/25 25/96/25
f 37/97/26 38/98/26 39/99/26 40/100/26
f 40/101/27 39/102/27 41/103/27 42/104/27
f 43/105/28 44/106/28 45/107/28 46/108/28
f 46/109/29 45/110/29 47/111/29 48/112/29
f 38/113/5 44/106/5 41/103/5 39/114/5
f 43/105/30 37/115/30 40/116/30 42/104/30
f 46/109/31 48/117/31 37/118/31 43/119/31
f 47/120/5 45/110/5 44/121/5 38/122/5
f 42/123/32 41/124/32 44/121/32 43/119/32
f 48/125/33 47/126/33 38/127/33 37/128/33
f 49/129/34 50/130/34 51/131/34 52/132/34
f 50/133/35 53/134/35 54/135/35 51/136/35
f 55/137/36 56/138/36 57/139/36 58/140/36
f 56/141/37 59/142/37 60/143/37 57/144/37
f 52/145/5 51/146/5 54/135/5 58/140/5
f 55/137/38 53/134/38 50/147/38 49/148/38
f 56/141/39 55/149/39 49/150/39 59/151/39
f 60/152/5 52/153/5 58/154/5 57/144/5
f 53/155/40 55/149/40 58/154/40 54/156/40
f 59/157/41 49/158/41 52/159/41 60/160/41
