mtllib LOW_POLY_set.mtl
o lp_Rock_Type3_03_mesh_001_Cube_015
v 25.522463 1.132135 33.978718
v 25.827684 0.888316 33.829582
v 26.473473 0.190709 33.970810
v 26.323359 0.295248 34.430538
v 26.197397 1.315395 33.853191
v 26.971548 0.629975 34.033562
v 25.892178 1.559214 34.002327
v 26.025867 1.434847 34.378502
v 26.804232 0.956271 34.969757
v 26.954346 0.851732 34.510033
v 25.656155 1.007768 34.354893
v 26.290562 0.503252 34.905045
v 27.280340 0.394493 35.931591
v 27.361303 2.033016 35.109051
v 26.448055 0.394493 35.122807
v 26.606588 2.033016 35.126408
v 26.487919 1.906400 34.420532
v 26.347807 0.394493 34.143414
v 27.718983 1.906400 33.968864
v 27.869738 0.394493 33.634182
v 28.162853 1.967652 34.506248
v 27.903208 0.394493 35.089333
v 28.647482 0.394493 34.366150
v 26.786177 2.651297 34.548786
v 26.773787 2.806395 34.010105
v 27.175974 2.651297 34.539822
v 27.606298 2.732115 34.145824
v 27.459387 3.375298 34.438869
v 27.210815 3.338897 34.600101
v 27.346439 2.806395 33.798779
v 27.264091 3.412389 34.157360
v 26.995651 3.412389 34.291073
v 27.002869 3.338897 34.604885
vt 0.156895 0.719394
vt 0.202481 0.719394
vt 0.202481 0.764980
vt 0.156895 0.764980
vt 0.156895 0.719394
vt 0.202481 0.719394
vt 0.202481 0.764980
vt 0.156895 0.764980
vt 0.156895 0.719394
vt 0.202481 0.719394
vt 0.202481 0.764980
vt 0.156895 0.764980
vt 0.156895 0.719394
vt 0.202481 0.719394
vt 0.202481 0.764980
vt 0.156895 0.764980
vt 0.156895 0.719394
vt 0.202481 0.719394
vt 0.202481 0.764980
vt 0.156895 0.764980
vt 0.202481 0.719394
vt 0.202481 0.764980
vt 0.156895 0.764980
vt 0.156895 0.719394
vt 0.202481 0.719394
vt 0.202481 0.764980
vt 0.156895 0.719394
vt 0.156895 0.764980
vt 0.156895 0.719394
vt 0.202481 0.719394
vt 0.202481 0.764980
vt 0.156895 0.764980
vt 0.192051 0.192051
vt 0.237637 0.192051
vt 0.237637 0.237637
vt 0.192051 0.192051
vt 0.237637 0.192051
vt 0.237637 0.237637
vt 0.192051 0.237637
vt 0.192051 0.192051
vt 0.237637 0.192051
vt 0.237637 0.237637
vt 0.192051 0.237637
vt 0.192051 0.192051
vt 0.237637 0.237637
vt 0.192051 0.237637
vt 0.214844 0.237637
vt 0.234583 0.226240
vt 0.234583 0.203447
vt 0.214844 0.192051
vt 0.195104 0.203447
vt 0.195104 0.226240
vt 0.237637 0.192051
vt 0.237637 0.237637
vt 0.192051 0.237637
vt 0.192051 0.192051
vt 0.237637 0.192051
vt 0.237637 0.237637
vt 0.192051 0.237637
vt 0.192051 0.192051
vt 0.237637 0.237637
vt 0.192051 0.237637
vt 0.237637 0.237637
vt 0.192051 0.237637
vt 0.192051 0.192051
vt 0.237637 0.192051
vt 0.237637 0.237637
vt 0.192051 0.237637
vt 0.214844 0.237637
vt 0.236521 0.221887
vt 0.228241 0.196404
vt 0.201446 0.196404
vt 0.193166 0.221887
vt 0.192051 0.192051
vt 0.237637 0.192051
vt 0.237637 0.237637
vt 0.192051 0.237637
vt 0.192051 0.192051
vt 0.237637 0.192051
vt 0.237637 0.237637
vt 0.192051 0.237637
vt 0.192051 0.192051
vt 0.237637 0.192051
vt 0.237637 0.237637
vt 0.192051 0.237637
vt 0.192051 0.192051
vt 0.237637 0.237637
vt 0.237637 0.237637
vt 0.192051 0.237637
vt 0.192051 0.192051
vt 0.237637 0.192051
vt 0.237637 0.237637
vt 0.192051 0.237637
vt 0.237637 0.237637
vt 0.192051 0.237637
vn -0.6990 -0.7051 -0.1193
vn 0.1613 -0.0634 -0.9849
vn 0.5285 0.8484 0.0305
vn -0.4303 0.3484 0.8327
vn 0.5920 -0.7223 0.3575
vn -0.2451 0.2638 -0.9329
vn -0.6922 0.5751 0.4361
vn 0.6404 0.7365 -0.2181
vn -0.7295 -0.6669 0.1521
vn -0.6483 0.3669 0.6671
vn -0.9890 0.0829 0.1223
vn -0.3238 0.1865 -0.9276
vn 0.6458 0.1694 0.7445
vn 0.0000 -1.0000 0.0000
vn -0.9293 0.3538 0.1060
vn 0.6413 -0.1460 0.7533
vn -0.3287 -0.3042 -0.8941
vn 0.0169 0.6800 0.7331
vn 0.4719 0.6521 0.5933
vn 0.0209 0.9832 0.1813
vn -0.9499 0.2957 0.1011
vn -0.3351 0.4696 -0.8168
vn 0.0229 -0.0885 0.9958
vn 0.7784 0.2505 0.5756
vn 0.0230 -0.0044 0.9997
vn 0.7626 0.2334 -0.6033
vn 0.7750 0.3982 -0.4907
vn 0.6922 0.2469 -0.6781
usemtl color4
f 1/1/1 2/2/1 3/3/1 4/4/1
f 2/5/2 5/6/2 6/7/2 3/8/2
f 7/9/3 8/10/3 9/11/3 10/12/3
f 8/13/4 11/14/4 12/15/4 9/16/4
f 4/17/5 3/18/5 6/7/5 10/12/5
f 7/9/6 5/6/6 2/19/6 1/20/6
f 8/13/7 7/21/7 1/22/7 11/23/7
f 12/24/5 4/25/5 10/26/5 9/16/5
f 5/27/8 7/21/8 10/26/8 6/28/8
f 11/29/9 1/30/9 4/31/9 12/32/9
f 13/33/10 14/34/10 15/35/10
f 16/36/11 17/37/11 18/38/11 15/39/11
f 17/40/12 19/41/12 20/42/12 18/43/12
f 21/44/13 14/34/13 22/45/13 23/46/13
f 22/47/14 13/48/14 15/49/14 18/50/14 20/51/14 23/52/14
f 17/40/15 16/53/15 24/54/15 25/55/15
f 26/56/16 27/57/16 28/58/16 29/59/16
f 19/60/17 17/37/17 25/61/17 30/62/17
f 16/36/18 14/34/18 26/63/18 24/64/18
f 14/65/19 21/66/19 27/67/19 26/68/19
f 31/69/20 32/70/20 33/71/20 29/72/20 28/73/20
f 25/74/21 24/75/21 33/76/21 32/77/21
f 30/78/22 25/79/22 32/80/22 31/81/22
f 24/82/23 26/83/23 29/84/23 33/85/23
f 22/86/24 14/34/24 13/87/24
f 14/65/25 16/53/25 15/35/25
f 21/44/26 19/41/26 30/88/26 27/89/26
f 27/90/27 30/91/27 31/92/27 28/93/27
f 19/60/28 21/66/28 23/94/28 20/95/28
