mtllib LOW_POLY_set.mtl
o lp_Rock_Type5_02_mesh_001_Cube_022
v -5.864111 0.942961 18.629034
v -5.864111 0.191758 18.629034
v -5.237372 0.191758 18.686481
v -5.128982 0.942961 18.319761
v -5.379978 0.191758 17.936466
v -5.379978 0.636923 17.936466
v -5.812460 0.955208 17.705482
v -5.812460 0.191758 17.705482
v -6.187467 0.191758 17.776785
v -6.187467 0.955208 17.776785
v -6.207931 0.191758 18.463198
v -6.207931 0.942961 18.463198
v -9.714257 0.234431 16.114050
v -9.428255 0.234431 14.521383
v -7.355942 0.234431 14.431841
v -6.475940 0.234431 15.431911
v -6.475940 3.715253 15.431911
v -7.355942 2.850490 14.431841
v -9.428255 0.817627 14.521383
v -9.714257 0.817627 16.114050
v -6.431169 3.715253 16.468067
v -9.669487 0.817627 17.150206
v -9.669487 0.234431 17.150206
v -6.431169 0.234431 16.468067
v -6.844889 0.817627 19.799683
v -8.425963 0.817627 19.455318
v -8.425963 0.234431 19.455318
v -6.844889 0.234431 19.799683
v -8.439253 1.443917 17.381113
v -8.439253 0.234431 17.381113
v -7.407506 2.308680 16.538475
v -6.370404 2.308680 16.531830
v -6.370404 0.234431 16.531830
v -7.407506 0.234431 16.538475
v -5.807786 0.817627 19.793039
v -5.807786 0.234431 19.793039
v -5.498884 0.234431 14.536548
v -3.952178 0.234431 15.012028
v -4.112527 0.234431 17.080067
v -5.211177 0.234431 17.833401
v -5.211177 1.382534 17.833401
v -4.112527 0.517771 17.080067
v -3.952178 0.817627 15.012028
v -5.498884 0.817627 14.536548
v -6.245197 1.382534 17.753225
v -6.532904 0.817627 14.456372
v -6.532904 0.234431 14.456372
v -6.245197 0.234431 17.753225
v -7.117305 0.849622 14.350939
v -7.117305 0.274121 14.350939
v -7.505342 0.274121 14.637131
v -7.380694 0.849622 14.902250
v -7.041867 0.274121 14.993892
v -7.041867 0.615164 14.993892
v -6.676686 0.859005 14.905943
v -6.676686 0.274121 14.905943
v -6.498305 0.274121 14.674206
v -6.498305 0.859005 14.674206
v -6.836048 0.274121 14.270834
v -6.836048 0.849622 14.270834
v -6.650469 2.028214 15.907956
v -6.650469 0.766105 15.907956
v -7.501460 0.766105 16.535593
v -7.228097 2.028214 17.117016
v -6.485029 0.766105 17.317993
v -6.485029 1.514034 17.317993
v -5.684163 2.048792 17.125116
v -5.684163 0.766105 17.125116
v -5.292963 0.766105 16.616901
v -5.292963 2.048792 16.616901
v -6.033655 0.766105 15.732283
v -6.033655 2.028214 15.732283
v -6.459384 1.523470 16.100420
v -6.459384 0.732752 16.100420
v -5.873304 0.732752 15.791585
v -5.988016 1.523470 15.405760
v -6.429411 0.732752 15.211471
v -6.429411 1.201334 15.211471
v -6.943604 1.536362 15.255714
v -6.943604 0.732752 15.255714
v -7.233661 0.732752 15.533769
v -7.233661 1.536362 15.533769
v -6.857955 0.732752 16.151299
v -6.857955 1.523470 16.151299
vt 0.233680 0.272742
vt 0.233680 0.242883
vt 0.203820 0.242883
vt 0.203820 0.272742
vt 0.233680 0.272742
vt 0.233680 0.242883
vt 0.203820 0.242883
vt 0.203820 0.272742
vt 0.233680 0.272742
vt 0.233680 0.242883
vt 0.203820 0.242883
vt 0.203820 0.272742
vt 0.233680 0.272742
vt 0.233680 0.242883
vt 0.203820 0.242883
vt 0.203820 0.272742
vt 0.233680 0.272742
vt 0.203820 0.272742
vt 0.233680 0.242883
vt 0.203820 0.242883
vt 0.233680 0.242883
vt 0.203820 0.242883
vt 0.203820 0.272742
vt 0.233680 0.272742
vt 0.203820 0.242883
vt 0.203820 0.272742
vt 0.233680 0.272742
vt 0.233680 0.242883
vt 0.233680 0.272742
vt 0.233680 0.242883
vt 0.203820 0.242883
vt 0.203820 0.272742
vt 0.339148 0.690711
vt 0.309289 0.690711
vt 0.309289 0.660851
vt 0.339148 0.660851
vt 0.339148 0.690711
vt 0.309289 0.690711
vt 0.309289 0.660851
vt 0.339148 0.660851
vt 0.339148 0.690711
vt 0.339148 0.660851
vt 0.339148 0.690711
vt 0.309289 0.690711
vt 0.309289 0.660851
vt 0.339148 0.660851
vt 0.339148 0.690711
vt 0.309289 0.690711
vt 0.309289 0.660851
vt 0.339148 0.660851
vt 0.309289 0.690711
vt 0.309289 0.660851
vt 0.309289 0.660851
vt 0.339148 0.660851
vt 0.339148 0.690711
vt 0.309289 0.690711
vt 0.339148 0.690711
vt 0.309289 0.690711
vt 0.309289 0.660851
vt 0.339148 0.660851
vt 0.339148 0.690711
vt 0.309289 0.690711
vt 0.309289 0.660851
vt 0.339148 0.660851
vt 0.753211 0.272742
vt 0.723351 0.272742
vt 0.723351 0.242883
vt 0.753211 0.242883
vt 0.753211 0.272742
vt 0.723351 0.272742
vt 0.723351 0.242883
vt 0.753211 0.242883
vt 0.753211 0.272742
vt 0.723351 0.272742
vt 0.723351 0.242883
vt 0.753211 0.242883
vt 0.753211 0.272742
vt 0.723351 0.272742
vt 0.723351 0.242883
vt 0.753211 0.242883
vt 0.753211 0.272742
vt 0.723351 0.272742
vt 0.723351 0.242883
vt 0.753211 0.242883
vt 0.723351 0.272742
vt 0.723351 0.242883
vt 0.753211 0.242883
vt 0.753211 0.272742
vt 0.723351 0.272742
vt 0.723351 0.242883
vt 0.753211 0.272742
vt 0.753211 0.242883
vt 0.753211 0.272742
vt 0.723351 0.272742
vt 0.723351 0.242883
vt 0.753211 0.242883
vt 0.339148 0.690711
vt 0.309289 0.690711
vt 0.309289 0.660851
vt 0.339148 0.660851
vt 0.339148 0.690711
vt 0.309289 0.690711
vt 0.309289 0.660851
vt 0.339148 0.660851
vt 0.339148 0.690711
vt 0.339148 0.660851
vt 0.339148 0.690711
vt 0.309289 0.690711
vt 0.309289 0.660851
vt 0.339148 0.660851
vt 0.339148 0.690711
vt 0.309289 0.690711
vt 0.309289 0.660851
vt 0.339148 0.660851
vt 0.309289 0.690711
vt 0.309289 0.660851
vt 0.309289 0.660851
vt 0.339148 0.660851
vt 0.339148 0.690711
vt 0.309289 0.690711
vt 0.339148 0.690711
vt 0.309289 0.690711
vt 0.309289 0.660851
vt 0.339148 0.660851
vt 0.339148 0.690711
vt 0.309289 0.690711
vt 0.309289 0.660851
vt 0.339148 0.660851
vt 0.753211 0.272742
vt 0.753211 0.242883
vt 0.723351 0.242883
vt 0.723351 0.272742
vt 0.753211 0.272742
vt 0.753211 0.242883
vt 0.723351 0.242883
vt 0.723351 0.272742
vt 0.753211 0.272742
vt 0.753211 0.242883
vt 0.723351 0.242883
vt 0.723351 0.272742
vt 0.753211 0.272742
vt 0.753211 0.242883
vt 0.723351 0.242883
vt 0.723351 0.272742
vt 0.753211 0.272742
vt 0.723351 0.272742
vt 0.753211 0.242883
vt 0.723351 0.242883
vt 0.753211 0.242883
vt 0.723351 0.242883
vt 0.723351 0.272742
vt 0.753211 0.272742
vt 0.723351 0.242883
vt 0.723351 0.272742
vt 0.753211 0.272742
vt 0.753211 0.242883
vt 0.753211 0.272742
vt 0.753211 0.242883
vt 0.723351 0.242883
vt 0.723351 0.272742
vt 0.233680 0.272742
vt 0.233680 0.242883
vt 0.203820 0.242883
vt 0.203820 0.272742
vt 0.233680 0.272742
vt 0.233680 0.242883
vt 0.203820 0.242883
vt 0.203820 0.272742
vt 0.233680 0.272742
vt 0.233680 0.242883
vt 0.203820 0.242883
vt 0.203820 0.272742
vt 0.233680 0.272742
vt 0.233680 0.242883
vt 0.203820 0.242883
vt 0.203820 0.272742
vt 0.233680 0.272742
vt 0.203820 0.272742
vt 0.233680 0.242883
vt 0.203820 0.242883
vt 0.233680 0.242883
vt 0.203820 0.242883
vt 0.203820 0.272742
vt 0.233680 0.272742
vt 0.203820 0.242883
vt 0.203820 0.272742
vt 0.233680 0.272742
vt 0.233680 0.242883
vt 0.233680 0.272742
vt 0.233680 0.242883
vt 0.203820 0.242883
vt 0.203820 0.272742
vt 0.233680 0.272742
vt 0.233680 0.242883
vt 0.203820 0.242883
vt 0.203820 0.272742
vt 0.233680 0.272742
vt 0.233680 0.242883
vt 0.203820 0.242883
vt 0.203820 0.272742
vt 0.233680 0.272742
vt 0.233680 0.242883
vt 0.203820 0.242883
vt 0.203820 0.272742
vt 0.233680 0.272742
vt 0.233680 0.242883
vt 0.203820 0.242883
vt 0.203820 0.272742
vt 0.233680 0.272742
vt 0.203820 0.272742
vt 0.233680 0.242883
vt 0.203820 0.242883
vt 0.233680 0.242883
vt 0.203820 0.242883
vt 0.203820 0.272742
vt 0.233680 0.272742
vt 0.203820 0.242883
vt 0.203820 0.272742
vt 0.233680 0.272742
vt 0.233680 0.242883
vt 0.233680 0.272742
vt 0.233680 0.242883
vt 0.203820 0.242883
vt 0.203820 0.272742
vn 0.1773 0.2213 0.9590
vn 0.9441 -0.1718 -0.2815
vn -0.1868 0.0000 -0.9824
vn -0.9996 0.0000 -0.0298
vn 0.0000 -1.0000 -0.0000
vn 0.2393 0.9388 -0.2476
vn -0.0020 0.9999 0.0151
vn 0.4711 0.0000 -0.8821
vn -0.4344 0.0000 0.9007
vn -0.6845 0.7241 -0.0847
vn -0.0432 0.0000 -0.9991
vn 0.7507 0.0000 -0.6606
vn 0.2061 0.0000 0.9785
vn 0.9991 0.0000 -0.0432
vn -0.6632 0.7479 0.0287
vn -0.9843 0.0000 -0.1767
vn -0.9991 0.0000 0.0432
vn -0.2128 0.0000 0.9771
vn -1.0000 0.0000 0.0064
vn -0.0064 0.0000 -1.0000
vn 0.9854 0.0000 -0.1700
vn -0.2244 0.8972 0.3803
vn 0.0027 0.9096 0.4154
vn -0.6326 0.0000 -0.7745
vn 0.0064 0.0000 1.0000
vn 0.3051 0.9508 -0.0542
vn 0.9970 0.0000 0.0773
vn 0.5655 0.0000 0.8247
vn -0.9962 0.0000 0.0869
vn -0.0773 0.0000 0.9970
vn 0.0132 0.9854 -0.1700
vn 0.2938 0.0000 -0.9559
vn 0.0773 0.0000 -0.9970
vn -0.7698 0.2213 -0.5987
vn -0.5184 -0.1718 0.8377
vn 0.7924 0.0000 0.6100
vn 0.7667 0.0000 -0.6420
vn -0.0143 0.9388 0.3440
vn -0.0086 0.9999 -0.0126
vn 0.2341 0.0000 0.9722
vn -0.2739 0.0000 -0.9618
vn 0.6713 0.2213 0.7074
vn 0.6381 -0.1718 -0.7505
vn -0.6920 0.0000 -0.7219
vn -0.8543 0.0000 0.5198
vn 0.0657 0.9388 -0.3380
vn 0.0066 0.9999 0.0138
vn -0.0857 0.0000 -0.9963
vn 0.1266 0.0000 0.9920
usemtl color3
f 1/1/1 2/2/1 3/3/1 4/4/1
f 4/5/2 3/6/2 5/7/2 6/8/2
f 7/9/3 8/10/3 9/11/3 10/12/3
f 10/13/4 9/14/4 11/15/4 12/16/4
f 2/17/5 8/10/5 5/7/5 3/18/5
f 7/9/6 1/19/6 4/20/6 6/8/6
f 10/13/7 12/21/7 1/22/7 7/23/7
f 11/24/5 9/14/5 8/25/5 2/26/5
f 6/27/8 5/28/8 8/25/8 7/23/8
f 12/29/9 11/30/9 2/31/9 1/32/9
f 13/33/5 14/34/5 15/35/5 16/36/5
f 17/37/10 18/38/10 19/39/10 20/40/10
f 19/41/11 18/38/11 15/35/11 14/42/11
f 18/43/12 17/44/12 16/45/12 15/46/12
f 21/47/13 22/48/13 23/49/13 24/50/13
f 17/37/14 21/51/14 24/52/14 16/36/14
f 21/47/15 17/44/15 20/53/15 22/54/15
f 23/55/5 13/56/5 16/45/5 24/50/5
f 20/57/16 19/58/16 14/59/16 13/60/16
f 22/61/17 20/62/17 13/63/17 23/64/17
f 25/65/18 26/66/18 27/67/18 28/68/18
f 26/69/19 29/70/19 30/71/19 27/72/19
f 31/73/20 32/74/20 33/75/20 34/76/20
f 32/77/21 35/78/21 36/79/21 33/80/21
f 28/81/5 27/82/5 30/71/5 34/76/5
f 31/73/22 29/70/22 26/83/22 25/84/22
f 32/77/23 31/85/23 25/86/23 35/87/23
f 36/88/5 28/89/5 34/90/5 33/80/5
f 29/91/24 31/85/24 34/90/24 30/92/24
f 35/93/25 25/94/25 28/95/25 36/96/25
f 37/97/5 38/98/5 39/99/5 40/100/5
f 41/101/26 42/102/26 43/103/26 44/104/26
f 43/105/27 42/102/27 39/99/27 38/106/27
f 42/107/28 41/108/28 40/109/28 39/110/28
f 45/111/29 46/112/29 47/113/29 48/114/29
f 41/101/30 45/115/30 48/116/30 40/100/30
f 45/111/31 41/108/31 44/117/31 46/118/31
f 47/119/5 37/120/5 40/109/5 48/114/5
f 44/121/32 43/122/32 38/123/32 37/124/32
f 46/125/33 44/126/33 37/127/33 47/128/33
f 49/129/34 50/130/34 51/131/34 52/132/34
f 52/133/35 51/134/35 53/135/35 54/136/35
f 55/137/36 56/138/36 57/139/36 58/140/36
f 58/141/37 57/142/37 59/143/37 60/144/37
f 50/145/5 56/138/5 53/135/5 51/146/5
f 55/137/38 49/147/38 52/148/38 54/136/38
f 58/141/39 60/149/39 49/150/39 55/151/39
f 59/152/5 57/142/5 56/153/5 50/154/5
f 54/155/40 53/156/40 56/153/40 55/151/40
f 60/157/41 59/158/41 50/159/41 49/160/41
f 61/161/34 62/162/34 63/163/34 64/164/34
f 64/165/35 63/166/35 65/167/35 66/168/35
f 67/169/36 68/170/36 69/171/36 70/172/36
f 70/173/37 69/174/37 71/175/37 72/176/37
f 62/177/5 68/170/5 65/167/5 63/178/5
f 67/169/38 61/179/38 64/180/38 66/168/38
f 70/173/39 72/181/39 61/182/39 67/183/39
f 71/184/5 69/174/5 68/185/5 62/186/5
f 66/187/40 65/188/40 68/185/40 67/183/40
f 72/189/41 71/190/41 62/191/41 61/192/41
f 73/193/42 74/194/42 75/195/42 76/196/42
f 76/197/43 75/198/43 77/199/43 78/200/43
f 79/201/44 80/202/44 81/203/44 82/204/44
f 82/205/45 81/206/45 83/207/45 84/208/45
f 74/209/5 80/202/5 77/199/5 75/210/5
f 79/201/46 73/211/46 76/212/46 78/200/46
f 82/205/47 84/213/47 73/214/47 79/215/47
f 83/216/5 81/206/5 80/217/5 74/218/5
f 78/219/48 77/220/48 80/217/48 79/215/48
f 84/221/49 83/222/49 74/223/49 73/224/49
