mtllib LOW_POLY_set.mtl
o lp_Rock_Type1_02_mesh_001_Circle_009
v -1.056522 1.357237 35.269581
v 0.696651 1.357237 35.670971
v 0.500548 1.357237 35.241585
v -0.613815 1.357237 34.986450
v -0.824130 1.245482 35.812717
v -0.886404 1.357237 35.667175
v -1.056522 0.318696 35.269581
v -0.824130 0.318696 35.812717
v -0.492409 1.245482 34.908806
v 0.570377 1.245482 35.152134
v 0.570377 0.318696 35.152134
v -0.492409 0.318696 34.908806
v 0.820258 0.318696 35.699272
v 0.167988 0.318696 36.304138
v 0.820258 1.245482 35.699272
v 0.167988 1.245482 36.304138
v 0.148147 1.357237 36.179615
v -2.391781 0.390538 36.543732
v -4.897240 0.390538 36.112598
v -4.990994 0.390538 35.750523
v -3.716546 0.390538 34.725910
v -2.236730 0.390538 38.402489
v -3.846897 0.390538 37.889839
v -0.179209 0.390538 37.591839
v -0.868343 0.390538 35.823139
v -2.124426 0.390538 34.381020
v -2.391781 1.393588 36.543732
v -3.560186 1.393588 34.940464
v -4.918070 1.393588 36.032154
v -4.897240 1.393588 36.112598
v -4.933309 1.393588 36.174049
v -2.236730 1.174094 38.402489
v -3.846897 1.174094 37.889839
v -0.179209 1.174094 37.591839
v -1.205102 1.174094 37.996037
v -1.405586 0.564119 38.075024
v -1.278997 1.174094 38.025150
v -0.868343 1.174094 35.823139
v -2.124426 1.174094 34.381020
v -3.716546 1.174094 34.725910
v -3.675152 1.393588 37.730961
v -3.670535 1.390510 37.864307
v -3.530153 1.569921 37.734440
v -4.990994 1.174094 35.750523
v -5.059587 0.390538 36.389194
v -2.155981 1.393588 34.636280
v -1.048152 1.393588 35.908188
v -0.440354 1.393588 37.468132
v -5.059587 1.174094 36.389194
v -2.030419 1.334461 35.405296
v -1.752403 1.334461 37.031796
v -3.726643 1.334461 37.234783
v 0.373213 1.334461 35.803631
v -0.294243 1.334461 34.337982
v -1.841063 1.334461 34.015270
v -3.039714 1.334461 34.474846
v -3.900236 1.334461 35.503666
v -2.030419 2.169428 35.405296
v -3.795433 2.169428 35.498154
v -3.631571 2.169428 37.132240
v 0.373213 2.070474 35.803631
v -1.752403 2.070474 37.031796
v -0.294243 2.070474 34.337982
v -1.841063 2.070474 34.015270
v -3.039714 2.070474 34.474846
v -3.900236 2.070474 35.503666
v -3.726643 2.070474 37.234783
v -0.391555 2.169428 34.397804
v -1.844703 2.397480 35.456932
v -0.365332 2.397480 34.547489
v -2.983144 2.169428 34.526997
v -1.851676 2.169428 34.093182
v -0.277490 2.308155 34.493488
v 0.325010 2.308155 35.816502
v -3.038650 2.131866 35.858612
v -4.568999 2.131866 36.294228
v -4.693548 2.131866 36.146687
v -4.245637 2.131866 35.209694
v -1.547101 2.131866 35.850655
v -1.638879 2.131866 36.621353
v -1.991715 2.131866 36.758648
v -1.547101 3.293130 35.850655
v -1.638879 3.293130 36.621353
v -2.715352 2.131866 35.459839
v -2.392054 2.131866 35.061069
v -3.304476 2.131866 34.934734
v -3.316454 2.131866 34.893105
v -4.693548 3.293130 36.146687
v -4.245637 3.293130 35.209694
v -4.245637 2.733404 35.209694
v -3.038650 3.293130 35.858612
v -4.568999 3.293130 36.294228
v -1.991715 3.293130 36.758648
v -2.392054 3.293130 35.061069
v -2.715352 3.293130 35.459839
v -3.316454 3.293130 34.893105
v -3.304476 3.293130 34.934734
v -3.887808 2.134299 35.088024
v -3.851830 2.134299 35.107254
v -3.847744 2.134299 35.074375
v -4.582733 3.293130 36.459221
v -3.482746 3.293130 36.981655
v -3.798116 2.727800 35.057106
v -3.482746 2.131866 36.981655
v -4.582733 2.131866 36.459221
v -3.316454 2.721160 34.893105
v -2.088908 2.131866 37.012230
v -2.088908 3.293130 37.012230
v -2.979416 3.216840 35.864967
v -3.827322 3.216840 36.253548
v -4.007797 3.216840 35.748749
v -2.889908 3.216840 36.874882
v -2.143771 3.216840 36.657898
v -2.192647 3.216840 35.766079
v -2.618119 3.216840 35.178284
v -3.271248 3.216840 35.097137
v -2.979416 4.113709 35.864967
v -3.226671 4.113709 35.214424
v -3.850711 4.113709 35.766502
v -2.889908 3.982886 36.874882
v -3.827322 3.982886 36.253548
v -2.143771 3.982886 36.657898
v -2.192647 3.982886 35.766079
v -2.618119 3.982886 35.178284
v -3.271248 3.982886 35.097137
v -4.007797 3.982886 35.748749
v -3.697805 4.113709 36.194195
v -2.903581 4.113709 36.720615
v -2.673307 4.113709 35.283173
v -2.312826 4.113709 35.781185
v -2.271416 4.113709 36.536777
v -1.400362 1.357237 33.693527
v -0.795388 1.357237 35.051224
v -0.608994 1.357237 34.708511
v -0.993532 1.357237 33.845524
v -1.643906 1.245482 34.116676
v -1.578643 1.357237 34.003284
v -1.400362 0.318696 33.693527
v -1.643906 0.318696 34.116676
v -0.881965 1.245482 33.887207
v -0.515226 1.245482 34.710251
v -0.515226 0.318696 34.710251
v -0.881965 0.318696 33.887207
v -0.752734 0.318696 35.146946
v -1.476181 0.318696 35.016171
v -0.752734 1.245482 35.146946
v -1.476181 1.245482 35.016171
v -1.403745 1.357237 34.941250
v -2.376730 2.577996 34.366001
v -0.695148 2.577996 35.003979
v -0.830526 2.577996 34.551758
v -1.899384 2.577996 34.146244
v -2.221002 2.517361 34.935871
v -2.262732 2.577996 34.783165
v -2.376730 2.014512 34.366001
v -2.221002 2.014512 34.935871
v -1.768479 2.517361 34.085979
v -0.749092 2.517361 34.472725
v -0.749092 2.014512 34.472725
v -1.768479 2.014512 34.085979
v -0.576588 2.014512 35.048958
v -1.305631 2.014512 35.558681
v -0.576588 2.517361 35.048958
v -1.305631 2.517361 35.558681
v -1.308211 2.577996 35.432610
v -1.767985 2.169428 36.940632
v -1.593743 2.308155 36.925144
v -1.607809 2.397480 36.842850
v -1.551752 1.393588 37.420918
v -1.457307 1.393588 37.868805
v -1.471782 1.365783 37.768818
v -4.445341 2.139712 35.390114
v -3.840367 2.139712 36.747810
v -3.653974 2.139712 36.405098
v -4.038511 2.139712 35.542110
v -4.688885 2.027957 35.813263
v -4.623622 2.139712 35.699871
v -4.445341 1.101171 35.390114
v -4.688885 1.101171 35.813263
v -3.926944 2.027957 35.583794
v -3.560205 2.027957 36.406841
v -3.560205 1.101171 36.406841
v -3.926944 1.101171 35.583794
v -3.797713 1.101171 36.843536
v -4.521160 1.101171 36.712761
v -3.797713 2.027957 36.843536
v -4.521160 2.027957 36.712761
v -4.448724 2.139712 36.637840
v -2.255031 1.393588 38.183105
v -2.481139 1.569921 36.764011
v -2.369361 1.569921 38.104019
v -1.389097 1.393588 37.841930
v -1.294398 1.146290 37.925526
v -2.354403 1.390510 38.283344
v 0.203398 2.397480 35.796349
v -3.758053 2.727265 35.043457
v -3.762139 2.722662 35.076336
v -3.781045 3.293130 35.051399
v -3.785131 3.293130 35.084278
v -3.821109 3.293130 35.065048
vt 0.668809 0.196587
vt 0.710821 0.196587
vt 0.710821 0.238598
vt 0.668809 0.238598
vt 0.689815 0.238598
vt 0.709792 0.224084
vt 0.702162 0.200599
vt 0.677468 0.200599
vt 0.669837 0.224084
vt 0.668809 0.196587
vt 0.710821 0.196587
vt 0.710821 0.238598
vt 0.668809 0.238598
vt 0.668809 0.196587
vt 0.710821 0.196587
vt 0.710821 0.238598
vt 0.668809 0.238598
vt 0.668809 0.196587
vt 0.710821 0.196587
vt 0.710821 0.238598
vt 0.668809 0.238598
vt 0.668809 0.196587
vt 0.710821 0.196587
vt 0.710821 0.238598
vt 0.668809 0.238598
vt 0.668809 0.196587
vt 0.710821 0.196587
vt 0.668809 0.238598
vt 0.668809 0.196587
vt 0.710821 0.196587
vt 0.668809 0.238598
vt 0.668809 0.196587
vt 0.710821 0.196587
vt 0.710821 0.238598
vt 0.668809 0.238598
vt 0.668809 0.196587
vt 0.710821 0.196587
vt 0.710821 0.238598
vt 0.668809 0.238598
vt 0.668809 0.196587
vt 0.710821 0.238598
vt 0.668809 0.238598
vt 0.668809 0.196587
vt 0.710821 0.196587
vt 0.710821 0.238598
vt 0.668809 0.238598
vt 0.668809 0.196587
vt 0.710821 0.238598
vt 0.668809 0.238598
vt 0.689815 0.238598
vt 0.709792 0.224084
vt 0.702162 0.200599
vt 0.677468 0.200599
vt 0.669837 0.224084
vt 0.187328 0.228994
vt 0.229339 0.228994
vt 0.229339 0.271006
vt 0.187328 0.271006
vt 0.229339 0.228994
vt 0.229339 0.271006
vt 0.229339 0.228994
vt 0.229339 0.271006
vt 0.229339 0.228994
vt 0.229339 0.271006
vt 0.229339 0.228994
vt 0.229339 0.271006
vt 0.229339 0.228994
vt 0.229339 0.271006
vt 0.187328 0.228994
vt 0.229339 0.228994
vt 0.229339 0.271006
vt 0.187328 0.271006
vt 0.187328 0.228994
vt 0.229339 0.228994
vt 0.229339 0.271006
vt 0.187328 0.228994
vt 0.229339 0.271006
vt 0.187328 0.271006
vt 0.208333 0.271006
vt 0.224756 0.263097
vt 0.228812 0.245326
vt 0.217447 0.231075
vt 0.199219 0.231075
vt 0.187854 0.245326
vt 0.191910 0.263097
vt 0.187328 0.228994
vt 0.229339 0.271006
vt 0.187328 0.271006
vt 0.187328 0.228994
vt 0.229339 0.271006
vt 0.187328 0.271006
vt 0.187328 0.228994
vt 0.229339 0.271006
vt 0.187328 0.271006
vt 0.187328 0.228994
vt 0.229339 0.228994
vt 0.229339 0.271006
vt 0.187328 0.271006
vt 0.187328 0.228994
vt 0.229339 0.228994
vt 0.229339 0.271006
vt 0.187328 0.271006
vt 0.229339 0.228994
vt 0.229339 0.271006
vt 0.187328 0.271006
vt 0.229339 0.228994
vt 0.229339 0.271006
vt 0.229339 0.228994
vt 0.229339 0.271006
vt 0.229339 0.228994
vt 0.229339 0.271006
vt 0.187328 0.228994
vt 0.229339 0.271006
vt 0.187328 0.271006
vt 0.196587 0.752142
vt 0.238598 0.752142
vt 0.238598 0.794154
vt 0.238598 0.752142
vt 0.238598 0.794154
vt 0.238598 0.752142
vt 0.238598 0.794154
vt 0.238598 0.752142
vt 0.238598 0.794154
vt 0.238598 0.752142
vt 0.238598 0.794154
vt 0.238598 0.752142
vt 0.238598 0.794154
vt 0.238598 0.752142
vt 0.238598 0.794154
vt 0.196587 0.752142
vt 0.238598 0.752142
vt 0.238598 0.794154
vt 0.196587 0.752142
vt 0.238598 0.794154
vt 0.196587 0.794154
vt 0.196587 0.752142
vt 0.238598 0.794154
vt 0.196587 0.794154
vt 0.196587 0.752142
vt 0.238598 0.794154
vt 0.196587 0.794154
vt 0.196587 0.752142
vt 0.238598 0.794154
vt 0.196587 0.794154
vt 0.196587 0.752142
vt 0.238598 0.794154
vt 0.196587 0.794154
vt 0.196587 0.752142
vt 0.238598 0.794154
vt 0.196587 0.794154
vt 0.196587 0.752142
vt 0.238598 0.794154
vt 0.196587 0.794154
vt 0.196587 0.752142
vt 0.238598 0.752142
vt 0.238598 0.794154
vt 0.196587 0.794154
vt 0.238598 0.752142
vt 0.238598 0.794154
vt 0.238598 0.752142
vt 0.238598 0.794154
vt 0.238598 0.752142
vt 0.238598 0.794154
vt 0.196587 0.752142
vt 0.238598 0.752142
vt 0.238598 0.794154
vt 0.196587 0.794154
vt 0.187328 0.228994
vt 0.229339 0.228994
vt 0.229339 0.271006
vt 0.187328 0.271006
vt 0.229339 0.228994
vt 0.229339 0.271006
vt 0.187328 0.271006
vt 0.187328 0.228994
vt 0.229339 0.271006
vt 0.187328 0.271006
vt 0.229339 0.228994
vt 0.229339 0.271006
vt 0.187328 0.271006
vt 0.187328 0.228994
vt 0.229339 0.228994
vt 0.229339 0.271006
vt 0.187328 0.271006
vt 0.208333 0.271006
vt 0.228311 0.256491
vt 0.220680 0.233006
vt 0.195987 0.233006
vt 0.188356 0.256491
vt 0.187328 0.228994
vt 0.229339 0.228994
vt 0.229339 0.271006
vt 0.187328 0.271006
vt 0.229339 0.228994
vt 0.229339 0.271006
vt 0.187328 0.271006
vt 0.229339 0.228994
vt 0.229339 0.271006
vt 0.187328 0.271006
vt 0.187328 0.228994
vt 0.229339 0.228994
vt 0.229339 0.271006
vt 0.187328 0.271006
vt 0.208333 0.271006
vt 0.224756 0.263097
vt 0.228812 0.245326
vt 0.217447 0.231075
vt 0.199219 0.231075
vt 0.187854 0.245326
vt 0.191910 0.263097
vt 0.229339 0.228994
vt 0.229339 0.271006
vt 0.187328 0.271006
vt 0.187328 0.228994
vt 0.229339 0.228994
vt 0.229339 0.271006
vt 0.187328 0.271006
vt 0.229339 0.228994
vt 0.229339 0.271006
vt 0.187328 0.271006
vt 0.208333 0.271006
vt 0.228311 0.256491
vt 0.220680 0.233006
vt 0.195987 0.233006
vt 0.188356 0.256491
vt 0.187328 0.228994
vt 0.229339 0.228994
vt 0.187328 0.228994
vt 0.229339 0.228994
vt 0.229339 0.271006
vt 0.229339 0.228994
vt 0.187328 0.271006
vt 0.196587 0.752142
vt 0.238598 0.752142
vt 0.238598 0.794154
vt 0.238598 0.752142
vt 0.238598 0.794154
vt 0.238598 0.752142
vt 0.238598 0.794154
vt 0.238598 0.752142
vt 0.238598 0.794154
vt 0.238598 0.752142
vt 0.238598 0.794154
vt 0.238598 0.752142
vt 0.238598 0.794154
vt 0.238598 0.752142
vt 0.238598 0.794154
vt 0.196587 0.752142
vt 0.238598 0.752142
vt 0.238598 0.794154
vt 0.196587 0.752142
vt 0.238598 0.794154
vt 0.196587 0.794154
vt 0.196587 0.752142
vt 0.238598 0.794154
vt 0.196587 0.794154
vt 0.196587 0.752142
vt 0.238598 0.794154
vt 0.196587 0.794154
vt 0.196587 0.752142
vt 0.238598 0.794154
vt 0.196587 0.794154
vt 0.196587 0.752142
vt 0.238598 0.794154
vt 0.196587 0.794154
vt 0.196587 0.752142
vt 0.238598 0.794154
vt 0.196587 0.794154
vt 0.196587 0.752142
vt 0.238598 0.794154
vt 0.196587 0.794154
vt 0.238598 0.752142
vt 0.238598 0.794154
vt 0.238598 0.752142
vt 0.238598 0.794154
vt 0.238598 0.752142
vt 0.238598 0.794154
vt 0.238598 0.752142
vt 0.238598 0.794154
vt 0.238598 0.752142
vt 0.238598 0.794154
vt 0.187328 0.228994
vt 0.229339 0.228994
vt 0.229339 0.271006
vt 0.187328 0.271006
vt 0.208333 0.271006
vt 0.228311 0.256491
vt 0.220680 0.233006
vt 0.195987 0.233006
vt 0.188356 0.256491
vt 0.187328 0.228994
vt 0.229339 0.228994
vt 0.229339 0.271006
vt 0.187328 0.271006
vt 0.187328 0.228994
vt 0.229339 0.228994
vt 0.229339 0.271006
vt 0.187328 0.271006
vt 0.187328 0.228994
vt 0.229339 0.228994
vt 0.229339 0.271006
vt 0.187328 0.271006
vt 0.187328 0.228994
vt 0.229339 0.228994
vt 0.229339 0.271006
vt 0.187328 0.271006
vt 0.187328 0.228994
vt 0.229339 0.228994
vt 0.187328 0.271006
vt 0.187328 0.228994
vt 0.229339 0.228994
vt 0.187328 0.271006
vt 0.187328 0.228994
vt 0.229339 0.228994
vt 0.229339 0.271006
vt 0.187328 0.271006
vt 0.187328 0.228994
vt 0.229339 0.228994
vt 0.229339 0.271006
vt 0.187328 0.271006
vt 0.187328 0.228994
vt 0.229339 0.271006
vt 0.187328 0.271006
vt 0.187328 0.228994
vt 0.229339 0.228994
vt 0.229339 0.271006
vt 0.187328 0.271006
vt 0.187328 0.228994
vt 0.229339 0.271006
vt 0.187328 0.271006
vt 0.208333 0.271006
vt 0.228311 0.256491
vt 0.220680 0.233006
vt 0.195987 0.233006
vt 0.188356 0.256491
vt 0.668809 0.196587
vt 0.710821 0.196587
vt 0.710821 0.238598
vt 0.668809 0.238598
vt 0.689815 0.238598
vt 0.709792 0.224084
vt 0.702162 0.200599
vt 0.677468 0.200599
vt 0.669837 0.224084
vt 0.668809 0.196587
vt 0.710821 0.196587
vt 0.710821 0.238598
vt 0.668809 0.238598
vt 0.668809 0.196587
vt 0.710821 0.196587
vt 0.710821 0.238598
vt 0.668809 0.238598
vt 0.668809 0.196587
vt 0.710821 0.196587
vt 0.710821 0.238598
vt 0.668809 0.238598
vt 0.668809 0.196587
vt 0.710821 0.196587
vt 0.710821 0.238598
vt 0.668809 0.238598
vt 0.668809 0.196587
vt 0.710821 0.196587
vt 0.668809 0.238598
vt 0.668809 0.196587
vt 0.710821 0.196587
vt 0.668809 0.238598
vt 0.668809 0.196587
vt 0.710821 0.196587
vt 0.710821 0.238598
vt 0.668809 0.238598
vt 0.668809 0.196587
vt 0.710821 0.196587
vt 0.710821 0.238598
vt 0.668809 0.238598
vt 0.668809 0.196587
vt 0.710821 0.238598
vt 0.668809 0.238598
vt 0.668809 0.196587
vt 0.710821 0.196587
vt 0.710821 0.238598
vt 0.668809 0.238598
vt 0.668809 0.196587
vt 0.710821 0.238598
vt 0.668809 0.238598
vt 0.689815 0.238598
vt 0.709792 0.224084
vt 0.702162 0.200599
vt 0.677468 0.200599
vt 0.669837 0.224084
vt 0.196587 0.752142
vt 0.238598 0.752142
vt 0.238598 0.752142
vt 0.238598 0.794154
vt 0.196587 0.794154
vt 0.196587 0.752142
vt 0.238598 0.752142
vt 0.238598 0.794154
vt 0.196587 0.794154
vt 0.196587 0.752142
vt 0.196587 0.752142
vt 0.196587 0.752142
vt 0.196587 0.752142
vt 0.238598 0.794154
vt 0.196587 0.752142
vt 0.238598 0.752142
vt 0.196587 0.752142
vt 0.196587 0.752142
vt 0.196587 0.752142
vt 0.196587 0.752142
vt 0.196587 0.752142
vt 0.196587 0.752142
vt 0.238598 0.794154
vt 0.229339 0.271006
vt 0.187328 0.228994
vt 0.229339 0.228994
vt 0.229339 0.271006
vt 0.229339 0.228994
vt 0.229339 0.271006
vt 0.187328 0.271006
vt 0.229339 0.271006
vt 0.229339 0.228994
vt 0.187328 0.271006
vt 0.710476 0.747513
vt 0.752487 0.747513
vt 0.752487 0.789524
vt 0.668809 0.196587
vt 0.710821 0.196587
vt 0.710821 0.238598
vt 0.668809 0.238598
vt 0.689815 0.238598
vt 0.709792 0.224084
vt 0.702162 0.200599
vt 0.677468 0.200599
vt 0.669837 0.224084
vt 0.668809 0.196587
vt 0.710821 0.196587
vt 0.710821 0.238598
vt 0.668809 0.238598
vt 0.668809 0.196587
vt 0.710821 0.196587
vt 0.710821 0.238598
vt 0.668809 0.238598
vt 0.668809 0.196587
vt 0.710821 0.196587
vt 0.710821 0.238598
vt 0.668809 0.238598
vt 0.668809 0.196587
vt 0.710821 0.196587
vt 0.710821 0.238598
vt 0.668809 0.238598
vt 0.668809 0.196587
vt 0.710821 0.196587
vt 0.668809 0.238598
vt 0.668809 0.196587
vt 0.710821 0.196587
vt 0.668809 0.238598
vt 0.668809 0.196587
vt 0.710821 0.196587
vt 0.710821 0.238598
vt 0.668809 0.238598
vt 0.668809 0.196587
vt 0.710821 0.196587
vt 0.710821 0.238598
vt 0.668809 0.238598
vt 0.668809 0.196587
vt 0.710821 0.238598
vt 0.668809 0.238598
vt 0.668809 0.196587
vt 0.710821 0.196587
vt 0.710821 0.238598
vt 0.668809 0.238598
vt 0.668809 0.196587
vt 0.710821 0.238598
vt 0.668809 0.238598
vt 0.689815 0.238598
vt 0.709792 0.224084
vt 0.702162 0.200599
vt 0.677468 0.200599
vt 0.669837 0.224084
vt 0.187328 0.228994
vt 0.229339 0.228994
vt 0.229339 0.271006
vt 0.187328 0.228994
vt 0.229339 0.228994
vt 0.229339 0.271006
vt 0.187328 0.271006
vt 0.229339 0.271006
vt 0.187328 0.271006
vt 0.187328 0.228994
vt 0.229339 0.228994
vt 0.229339 0.271006
vt 0.187328 0.271006
vt 0.187328 0.228994
vt 0.229339 0.228994
vt 0.229339 0.271006
vt 0.187328 0.271006
vt 0.187328 0.228994
vt 0.229339 0.271006
vt 0.187328 0.228994
vt 0.187328 0.228994
vt 0.187328 0.228994
vt 0.229339 0.271006
vt 0.187328 0.271006
vt 0.229339 0.271006
vt 0.187328 0.271006
vt 0.229339 0.228994
vt 0.187328 0.271006
vt 0.187328 0.228994
vt 0.229339 0.228994
vt 0.229339 0.271006
vt 0.710476 0.747513
vt 0.752487 0.789524
vt 0.710476 0.789524
vt 0.710476 0.747513
vt 0.752487 0.747513
vt 0.208333 0.271006
vt 0.226525 0.260503
vt 0.226525 0.239497
vt 0.208333 0.228994
vt 0.190142 0.239497
vt 0.190142 0.260503
vt 0.710476 0.747513
vt 0.752487 0.747513
vt 0.752487 0.789524
vt 0.710476 0.747513
vt 0.752487 0.747513
vt 0.752487 0.747513
vt 0.710476 0.789524
vt 0.187328 0.228994
vt 0.229339 0.228994
vt 0.229339 0.271006
vt 0.187328 0.228994
vt 0.187328 0.271006
vt 0.229339 0.228994
vt 0.229339 0.271006
vt 0.187328 0.271006
vt 0.187328 0.228994
vt 0.229339 0.228994
vt 0.187328 0.228994
vt 0.229339 0.228994
vt 0.229339 0.271006
vt 0.187328 0.271006
vt 0.196587 0.752142
vt 0.238598 0.752142
vt 0.238598 0.794154
vt 0.238598 0.752142
vt 0.238598 0.794154
vt 0.196587 0.752142
vt 0.196587 0.752142
vt 0.196587 0.794154
vt 0.196587 0.752142
vt 0.238598 0.752142
vt 0.238598 0.794154
vt 0.196587 0.794154
vt 0.187328 0.228994
vt 0.229339 0.228994
vt 0.229339 0.271006
vt 0.187328 0.271006
vt 0.682698 0.687328
vt 0.724709 0.687328
vt 0.724709 0.729339
vt 0.682698 0.729339
vt 0.631772 0.715105
vt 0.673783 0.715105
vt 0.673783 0.757117
vt 0.631772 0.757117
vt 0.229339 0.228994
vt 0.229339 0.271006
vt 0.208333 0.271006
vt 0.224756 0.263097
vt 0.228812 0.245326
vt 0.217447 0.231075
vt 0.199219 0.231075
vt 0.187854 0.245326
vt 0.191910 0.263097
vt 0.229339 0.271006
vt 0.631772 0.715105
vt 0.673783 0.715105
vt 0.673783 0.757117
vt 0.631772 0.757117
vt 0.187328 0.228994
vt 0.229339 0.228994
vt 0.229339 0.271006
vt 0.187328 0.271006
vt 0.187328 0.228994
vt 0.229339 0.228994
vt 0.229339 0.271006
vt 0.187328 0.271006
vt 0.682698 0.687328
vt 0.724709 0.687328
vt 0.724709 0.729339
vt 0.682698 0.729339
vn 0.0000 1.0000 -0.0000
vn -0.9194 -0.0000 0.3934
vn 0.2232 0.0000 -0.9748
vn 0.0000 -1.0000 0.0000
vn 0.9096 0.0000 -0.4154
vn -0.4439 0.0000 0.8961
vn 0.6800 0.0000 0.7332
vn 0.1643 0.6769 -0.7175
vn 0.4960 0.6840 0.5349
vn -0.3267 0.6769 0.6596
vn 0.6758 0.6693 -0.3087
vn -0.5388 0.0000 -0.8424
vn -0.3034 0.0000 0.9529
vn 0.3666 -0.0000 0.9304
vn 0.9318 0.0000 -0.3630
vn 0.7541 0.0000 -0.6568
vn -0.2117 0.0000 -0.9773
vn -0.7721 0.6341 0.0414
vn -0.6266 0.0000 -0.7794
vn -0.7778 0.0000 0.6285
vn 0.5003 0.0000 0.8659
vn 0.9101 0.0000 -0.4144
vn 0.2042 0.0000 -0.9789
vn -0.3580 0.0000 -0.9337
vn -0.7671 0.0000 -0.6416
vn -0.9950 0.0000 0.0998
vn 0.1023 0.0000 0.9948
vn -0.4452 0.5266 -0.7242
vn 0.8912 0.2027 -0.4058
vn 0.9930 0.0000 0.1182
vn -0.9022 0.0000 -0.4313
vn -0.0008 -1.0000 -0.0024
vn -0.3224 -0.0003 -0.9466
vn 0.1788 0.0000 -0.9839
vn 0.6828 0.0000 -0.7306
vn -0.0219 0.0000 0.9998
vn -0.5525 0.0000 0.8335
vn 0.2792 0.0000 0.9602
vn 0.9985 0.0000 -0.0547
vn 0.8101 0.0000 -0.5864
vn 0.1233 0.0000 -0.9924
vn -0.6626 0.0000 -0.7490
vn -0.9416 0.0000 0.3366
vn -0.8667 -0.0000 -0.4988
vn 0.9134 0.0000 -0.4070
vn 0.8785 0.0000 0.4778
vn -0.9831 0.0000 0.1833
vn -0.1779 0.0000 0.9841
vn 0.7272 0.6051 -0.3240
vn -0.1406 0.6126 0.7778
vn -0.7826 0.6051 0.1459
vn 0.7046 0.5972 0.3832
vn 0.3500 -0.0000 -0.9368
vn -0.9646 -0.0000 0.2636
vn 0.3547 0.0000 -0.9350
vn 0.9580 0.0000 -0.2868
vn -0.5625 0.0000 0.8268
vn 0.5730 0.0000 0.8196
vn 0.1802 0.8613 -0.4751
vn 0.2870 0.8656 0.4104
vn -0.2858 0.8613 0.4201
vn 0.4942 0.8566 -0.1480
vn -0.4182 -0.0000 -0.9084
vn 0.0748 0.6820 0.7275
vn -0.4031 0.5849 0.7038
vn 0.4995 0.0545 0.8646
vn 0.1601 0.6212 -0.7672
vn -0.2937 0.5717 -0.7661
vn -0.6058 0.6134 -0.5067
vn -0.6830 0.7272 0.0685
vn -0.6382 0.7353 0.2282
vn -0.4055 0.6791 0.6119
vn 0.1822 0.7578 0.6265
vn 0.7335 0.6785 -0.0402
vn 0.6289 0.6303 -0.4552
vn 0.0941 0.6466 -0.7570
vn -0.4932 0.6678 -0.5575
vn 0.6557 0.0000 0.7550
vn -0.9943 0.0000 -0.1068
vn 0.9530 0.2265 -0.2010
vn -0.9425 0.0000 0.3342
vn -0.4290 0.0000 0.9033
vn 0.8512 0.5200 -0.0710
vn 0.2644 0.6927 0.6710
vn 0.6912 0.6706 -0.2693
vn 0.5683 0.6573 -0.4950
vn -0.1420 0.7418 -0.6554
vn -0.9008 0.4234 -0.0967
vn -0.5328 0.7285 0.4306
vn -0.3995 0.7704 -0.4969
vn 0.8326 0.4887 -0.2607
vn -0.4480 0.8771 0.1731
vn 0.9735 -0.2096 -0.0920
vn -0.6469 0.3032 0.6997
vn -0.6433 0.0124 0.7655
vn -0.2225 0.6799 0.6988
vn -0.5892 0.4971 -0.6369
vn 0.5522 0.6120 0.5662
vn -0.2855 0.3384 0.8966
vn 0.3762 0.6591 0.6511
vn 0.5985 0.7533 -0.2726
vn 0.0395 0.5451 -0.8374
vn -0.7831 0.6074 0.1338
vn -0.3226 -0.0003 -0.9465
vn 0.4618 -0.1161 -0.8794
vn -0.9833 0.1434 -0.1121
vn -0.9913 -0.0384 -0.1259
vn -0.3224 0.0001 -0.9466
vn -0.3226 0.0001 -0.9465
vn 0.4729 0.0315 -0.8806
usemtl color2
f 1/1/1 2/2/1 3/3/1 4/4/1
f 5/5/2 6/6/2 1/7/2 7/8/2 8/9/2
f 9/10/3 10/11/3 11/12/3 12/13/3
f 7/14/4 13/15/4 14/16/4 8/17/4
f 10/18/5 15/19/5 13/20/5 11/21/5
f 16/22/6 5/23/6 8/24/6 14/25/6
f 12/26/4 11/27/4 13/20/4 7/28/4
f 15/29/7 16/30/7 14/16/7 13/31/7
f 6/32/1 17/33/1 2/34/1 1/35/1
f 4/36/8 3/37/8 10/38/8 9/39/8
f 2/40/9 17/33/9 16/41/9 15/42/9
f 17/43/10 6/44/10 5/45/10 16/46/10
f 3/47/11 2/2/11 15/48/11 10/49/11
f 1/50/12 4/51/12 9/52/12 12/53/12 7/54/12
f 18/55/4 19/56/4 20/57/4 21/58/4
f 18/55/4 22/59/4 23/60/4
f 18/55/4 24/61/4 22/62/4
f 18/55/4 25/63/4 24/64/4
f 18/55/4 26/65/4 25/66/4
f 18/55/4 21/67/4 26/68/4
f 27/69/1 28/70/1 29/71/1 30/72/1
f 29/73/1 31/74/1 30/75/1
f 23/76/13 22/59/13 32/77/13 33/78/13
f 22/79/14 24/80/14 34/81/14 35/82/14 36/83/14 37/84/14 32/85/14
f 24/86/15 25/63/15 38/87/15 34/88/15
f 25/89/16 26/65/16 39/90/16 38/91/16
f 26/92/17 21/67/17 40/93/17 39/94/17
f 41/95/18 33/96/18 42/97/18 43/98/18
f 21/99/19 20/100/19 44/101/19 40/102/19
f 18/55/4 23/103/4 45/104/4 19/105/4
f 27/69/1 46/106/1 28/107/1
f 27/69/1 47/108/1 46/109/1
f 27/69/1 48/110/1 47/111/1
f 45/112/20 23/103/20 33/113/20 49/114/20
f 50/115/4 51/116/4 52/117/4
f 50/115/4 53/118/4 51/119/4
f 50/115/4 54/120/4 53/121/4
f 50/115/4 55/122/4 54/123/4
f 50/115/4 56/124/4 55/125/4
f 50/115/4 57/126/4 56/127/4
f 50/115/4 52/128/4 57/129/4
f 58/130/1 59/131/1 60/132/1
f 51/133/21 53/118/21 61/134/21 62/135/21
f 53/136/22 54/120/22 63/137/22 61/138/22
f 54/139/23 55/122/23 64/140/23 63/141/23
f 55/142/24 56/124/24 65/143/24 64/144/24
f 56/145/25 57/126/25 66/146/25 65/147/25
f 57/148/26 52/128/26 67/149/26 66/150/26
f 52/151/27 51/116/27 62/152/27 67/153/27
f 68/154/28 58/155/28 69/156/28 70/157/28
f 58/130/1 71/158/1 59/159/1
f 58/130/1 72/160/1 71/161/1
f 58/130/1 68/162/1 72/163/1
f 61/164/29 63/165/29 73/166/29 74/167/29
f 75/168/4 76/169/4 77/170/4 78/171/4
f 75/168/4 79/172/4 80/173/4 81/174/4
f 80/175/30 79/172/30 82/176/30 83/177/30
f 75/168/4 84/178/4 85/179/4 79/180/4
f 84/181/4 86/182/4 87/183/4 85/184/4
f 78/185/31 77/186/31 88/187/31 89/188/31 90/189/31
f 91/190/1 89/191/1 88/192/1 92/193/1
f 91/190/1 93/194/1 83/195/1 82/196/1
f 91/190/1 82/197/1 94/198/1 95/199/1
f 95/200/1 94/201/1 96/202/1 97/203/1
f 75/204/32 78/205/32 98/206/32 99/207/32 100/208/32 87/209/32 86/210/32
f 91/190/1 92/211/1 101/212/1 102/213/1
f 98/214/33 78/215/33 90/216/33 103/217/33
f 75/168/4 104/218/4 105/219/4 76/220/4
f 85/221/34 87/222/34 106/223/34 96/224/34 94/225/34
f 79/226/35 85/227/35 94/198/35 82/196/35
f 104/228/36 107/229/36 108/230/36 102/213/36
f 91/190/1 102/231/1 108/230/1 93/232/1
f 109/233/4 110/234/4 111/235/4
f 109/233/4 112/236/4 110/237/4
f 109/233/4 113/238/4 112/239/4
f 109/233/4 114/240/4 113/241/4
f 109/233/4 115/242/4 114/243/4
f 109/233/4 116/244/4 115/245/4
f 109/233/4 111/246/4 116/247/4
f 117/248/1 118/249/1 119/250/1
f 110/251/37 112/236/37 120/252/37 121/253/37
f 112/254/38 113/238/38 122/255/38 120/256/38
f 113/257/39 114/240/39 123/258/39 122/259/39
f 114/260/40 115/242/40 124/261/40 123/262/40
f 115/263/41 116/244/41 125/264/41 124/265/41
f 116/266/42 111/246/42 126/267/42 125/268/42
f 111/269/43 110/234/43 121/270/43 126/271/43
f 117/248/1 127/272/1 128/273/1
f 117/248/1 129/274/1 118/275/1
f 117/248/1 130/276/1 129/277/1
f 117/248/1 131/278/1 130/279/1
f 117/248/1 128/280/1 131/281/1
f 132/282/1 133/283/1 134/284/1 135/285/1
f 136/286/44 137/287/44 132/288/44 138/289/44 139/290/44
f 140/291/45 141/292/45 142/293/45 143/294/45
f 138/295/4 144/296/4 145/297/4 139/298/4
f 141/299/46 146/300/46 144/301/46 142/302/46
f 147/303/47 136/304/47 139/305/47 145/306/47
f 143/307/4 142/308/4 144/301/4 138/309/4
f 146/310/48 147/311/48 145/297/48 144/312/48
f 137/313/1 148/314/1 133/315/1 132/316/1
f 135/317/49 134/318/49 141/319/49 140/320/49
f 133/321/50 148/314/50 147/322/50 146/323/50
f 148/324/51 137/325/51 136/326/51 147/327/51
f 134/328/52 133/283/52 146/329/52 141/330/52
f 132/331/53 135/332/53 140/333/53 143/334/53 138/335/53
f 149/336/1 150/337/1 151/338/1 152/339/1
f 153/340/54 154/341/54 149/342/54 155/343/54 156/344/54
f 157/345/55 158/346/55 159/347/55 160/348/55
f 155/349/4 161/350/4 162/351/4 156/352/4
f 158/353/56 163/354/56 161/355/56 159/356/56
f 164/357/57 153/358/57 156/359/57 162/360/57
f 160/361/4 159/362/4 161/355/4 155/363/4
f 163/364/58 164/365/58 162/351/58 161/366/58
f 154/367/1 165/368/1 150/369/1 149/370/1
f 152/371/59 151/372/59 158/373/59 157/374/59
f 150/375/60 165/368/60 164/376/60 163/377/60
f 165/378/61 154/379/61 153/380/61 164/381/61
f 151/382/62 150/337/62 163/383/62 158/384/62
f 149/385/63 152/386/63 157/387/63 160/388/63 155/389/63
f 166/390/64 60/391/64 67/149/64 62/135/64
f 166/390/65 62/392/65 167/393/65 168/394/65
f 62/395/66 61/396/66 74/397/66 167/398/66
f 72/399/67 68/162/67 63/137/67 64/144/67
f 71/400/68 72/160/68 64/140/68 65/147/68
f 59/401/69 71/158/69 65/143/69 66/150/69
f 60/402/70 59/131/70 66/146/70 67/153/70
f 58/130/1 60/391/1 166/403/1
f 127/404/71 119/405/71 126/267/71 121/253/71
f 128/406/72 127/272/72 121/270/72 120/256/72
f 131/407/73 128/280/73 120/252/73 122/259/73
f 130/408/74 131/278/74 122/255/74 123/262/74
f 129/409/75 130/276/75 123/258/75 124/265/75
f 118/410/76 129/274/76 124/261/76 125/268/76
f 119/411/77 118/249/77 125/264/77 126/271/77
f 117/248/1 119/405/1 127/412/1
f 80/175/4 107/229/4 81/413/4
f 108/414/1 83/415/1 93/416/1
f 108/414/78 107/229/78 80/173/78 83/177/78
f 75/168/4 81/417/4 107/418/4 104/419/4
f 45/112/4 20/100/4 19/420/4
f 45/112/79 49/421/79 44/101/79 20/422/79
f 169/423/80 170/424/80 171/425/80
f 172/426/1 173/427/1 174/428/1 175/429/1
f 176/430/44 177/431/44 172/432/44 178/433/44 179/434/44
f 180/435/45 181/436/45 182/437/45 183/438/45
f 178/439/4 184/440/4 185/441/4 179/442/4
f 181/443/46 186/444/46 184/445/46 182/446/46
f 187/447/47 176/448/47 179/449/47 185/450/47
f 183/451/4 182/452/4 184/445/4 178/453/4
f 186/454/48 187/455/48 185/441/48 184/456/48
f 177/457/1 188/458/1 173/459/1 172/460/1
f 175/461/49 174/462/49 181/463/49 180/464/49
f 173/465/50 188/458/50 187/466/50 186/467/50
f 188/468/51 177/469/51 176/470/51 187/471/51
f 174/472/52 173/427/52 186/473/52 181/474/52
f 172/475/53 175/476/53 180/477/53 183/478/53 178/479/53
f 105/480/4 77/481/4 76/482/4
f 88/483/1 101/484/1 92/485/1
f 105/480/81 101/484/81 88/192/81 77/486/81
f 105/480/82 104/218/82 102/487/82 101/488/82
f 189/489/83 27/490/83 190/491/83 191/492/83
f 37/493/84 170/494/84 189/495/84 32/496/84
f 47/497/85 48/110/85 34/498/85 38/91/85
f 46/499/86 47/108/86 38/87/86 39/94/86
f 28/500/87 46/106/87 39/90/87 40/102/87
f 44/501/88 49/421/88 31/502/88 29/503/88
f 41/95/89 31/74/89 49/504/89 33/78/89
f 29/73/90 28/70/90 40/93/90 44/505/90
f 27/69/1 30/506/1 31/502/1 41/507/1
f 48/508/84 192/509/84 35/510/84 34/88/84
f 171/511/91 170/424/91 37/512/91 193/513/91
f 192/514/92 169/515/92 171/425/92
f 27/516/1 189/517/1 170/518/1 169/519/1 192/520/1 48/521/1
f 37/522/93 36/523/93 193/524/93
f 36/525/94 35/526/94 193/524/94
f 192/514/95 171/527/95 193/524/95 35/528/95
f 190/529/1 43/530/1 191/531/1
f 191/532/96 43/530/96 42/97/96 194/533/96
f 27/69/97 41/534/97 43/535/97 190/536/97
f 32/537/98 189/538/98 191/531/98 194/533/98
f 33/539/99 32/540/99 194/541/99 42/542/99
f 69/543/1 168/544/1 195/545/1
f 69/543/1 195/546/1 70/547/1
f 195/548/100 168/544/100 167/393/100 74/167/100
f 70/549/101 195/546/101 74/397/101 73/550/101
f 63/551/102 68/162/102 70/547/102 73/550/102
f 58/130/103 166/552/103 168/553/103 69/554/103
f 87/555/104 100/556/104 196/557/104 106/558/104
f 99/559/105 98/560/105 103/561/105 197/562/105
f 100/563/106 99/564/106 197/565/106 196/566/106
f 91/190/1 95/567/1 97/568/1
f 91/569/1 97/570/1 96/571/1 198/572/1 199/573/1 200/574/1 89/575/1
f 75/168/4 86/182/4 84/576/4
f 196/577/107 197/578/107 199/579/107 198/580/107
f 106/581/108 196/582/108 198/583/108 96/584/108
f 103/585/109 90/586/109 89/587/109 200/588/109
f 197/589/110 103/590/110 200/591/110 199/592/110
