mtllib LOW_POLY_set.mtl
o lp_Rock_Type6_02_mesh_001_Plane_028
v 32.679245 0.399898 33.927891
v 34.115044 0.399898 33.898888
v 33.956329 0.399898 36.066654
v 32.173656 0.399898 35.899342
v 35.510284 0.399898 34.514362
v 35.004696 0.399898 36.485813
v 35.448437 1.763661 34.538185
v 34.107002 1.370820 33.946445
v 34.123573 2.570009 33.848442
v 35.575886 2.570009 34.489094
v 32.726574 1.370820 33.974331
v 32.240482 1.370820 35.869755
v 32.102772 2.570009 35.930721
v 32.629044 2.570009 33.878632
v 34.962345 1.763661 36.433609
v 35.610497 1.477905 37.908760
v 36.460384 1.477905 34.594791
v 33.954411 1.763661 36.030617
v 36.568516 1.013706 34.553135
v 35.684540 1.013706 38.000031
v 33.958366 2.570009 36.104877
v 35.049614 2.570009 36.541183
v 34.887012 2.904036 36.340752
v 33.950996 2.904036 35.966507
v 34.092701 2.904036 34.031048
v 35.338421 2.904036 34.580566
v 32.810768 2.904036 34.056946
v 32.359360 2.904036 35.817127
v 35.601017 1.260776 34.564522
v 35.152813 1.263887 34.612774
v 35.222141 0.408668 34.592232
v 35.517178 0.406620 34.560471
v 35.104465 1.230100 34.165848
v 35.190315 0.386427 34.298038
v 35.552670 1.226989 34.117592
v 35.485352 0.384379 34.266273
v 35.134102 1.490690 34.433655
v 35.101315 1.467776 34.130562
v 35.405273 1.465666 34.097839
v 35.438061 1.488580 34.400932
v 32.459019 0.343192 36.694969
v 32.576321 0.343192 35.831287
v 33.739090 0.343192 35.797077
v 33.674732 0.343192 36.439186
v 33.864872 0.343192 37.444756
v 32.702103 0.343192 37.478966
v 32.343781 1.146221 36.708046
v 32.480114 1.146221 35.704247
v 33.977703 1.146221 37.579468
v 32.626301 1.146221 37.619228
v 33.756721 1.146221 36.410767
v 33.831520 1.146221 35.664486
v 33.737328 1.405049 35.799610
v 33.673168 1.405049 36.439728
v 32.461220 1.405049 36.694717
v 32.578159 1.405049 35.833714
v 32.703548 1.405049 37.476288
v 33.862717 1.405049 37.442184
v 33.851574 1.013706 37.267166
v 33.848217 1.477905 37.204159
v 35.125919 1.296677 34.302437
v 34.752155 1.206804 34.066967
v 34.761726 0.457426 34.485260
v 35.007759 0.516586 34.640263
v 34.998962 0.990932 33.757595
v 34.924191 0.315326 34.281616
v 35.372730 1.080805 33.993069
v 35.170223 0.374486 34.436615
v 34.867500 1.333649 33.833557
v 35.034878 1.187251 33.623753
v 35.288353 1.248200 33.783443
v 35.120975 1.394598 33.993248
v 36.044441 1.031824 36.473488
v 35.596237 1.034935 36.521740
v 35.665565 0.179716 36.501198
v 35.960598 0.177668 36.469433
v 35.547886 1.001148 36.074810
v 35.633736 0.157475 36.207001
v 35.996090 0.998036 36.026558
v 35.928772 0.155427 36.175240
v 35.577526 1.261738 36.342621
v 35.544735 1.238824 36.039528
v 35.848694 1.236714 36.006802
v 35.881485 1.259628 36.309895
v 35.824455 0.959648 37.626892
v 34.878136 0.962759 37.728767
v 35.024513 0.107540 37.685394
v 35.647434 0.105492 37.618332
v 34.776051 0.928972 36.785145
v 34.957314 0.085299 37.064243
v 35.722370 0.925860 36.683266
v 35.580235 0.083251 36.997181
v 34.838631 1.189562 37.350582
v 34.769402 1.166648 36.710648
v 35.411163 1.164538 36.641556
v 35.480392 1.187452 37.281494
v 33.756546 1.770007 36.408665
v 33.338062 1.648421 36.524036
v 33.476269 0.973102 36.012695
v 33.751743 1.053137 35.936749
v 33.178017 1.846080 36.151825
v 33.370922 1.103213 35.767685
v 33.596504 1.967666 36.036453
v 33.646393 1.183248 35.691738
v 33.252937 1.924909 36.510548
v 33.144402 2.058955 36.258125
v 33.428207 2.141411 36.179882
v 33.536743 2.007365 36.432304
vt 0.211649 0.215555
vt 0.249289 0.215555
vt 0.249289 0.253195
vt 0.211649 0.253195
vt 0.211649 0.215555
vt 0.249289 0.215555
vt 0.249289 0.253195
vt 0.211649 0.253195
vt 0.211649 0.215555
vt 0.249289 0.215555
vt 0.249289 0.253195
vt 0.211649 0.253195
vt 0.211649 0.215555
vt 0.249289 0.215555
vt 0.249289 0.253195
vt 0.211649 0.253195
vt 0.211649 0.215555
vt 0.249289 0.253195
vt 0.211649 0.253195
vt 0.692117 0.203836
vt 0.729758 0.203836
vt 0.729758 0.241476
vt 0.692117 0.241476
vt 0.249289 0.215555
vt 0.249289 0.253195
vt 0.211649 0.253195
vt 0.211649 0.215555
vt 0.249289 0.215555
vt 0.249289 0.253195
vt 0.211649 0.253195
vt 0.692117 0.203836
vt 0.729758 0.203836
vt 0.729758 0.241476
vt 0.692117 0.241476
vt 0.249289 0.215555
vt 0.249289 0.253195
vt 0.211649 0.253195
vt 0.211649 0.215555
vt 0.249289 0.215555
vt 0.249289 0.253195
vt 0.211649 0.253195
vt 0.211649 0.215555
vt 0.249289 0.215555
vt 0.249289 0.253195
vt 0.211649 0.253195
vt 0.211649 0.215555
vt 0.249289 0.215555
vt 0.249289 0.253195
vt 0.211649 0.253195
vt 0.211649 0.215555
vt 0.249289 0.215555
vt 0.249289 0.253195
vt 0.211649 0.253195
vt 0.211649 0.215555
vt 0.249289 0.215555
vt 0.249289 0.253195
vt 0.211649 0.253195
vt 0.211649 0.215555
vt 0.249289 0.215555
vt 0.249289 0.253195
vt 0.211649 0.253195
vt 0.211649 0.215555
vt 0.249289 0.215555
vt 0.249289 0.253195
vt 0.211649 0.253195
vt 0.211649 0.215555
vt 0.249289 0.215555
vt 0.211649 0.215555
vt 0.249289 0.215555
vt 0.249289 0.253195
vt 0.211649 0.215555
vt 0.249289 0.215555
vt 0.211649 0.253195
vt 0.211649 0.215555
vt 0.249289 0.215555
vt 0.249289 0.253195
vt 0.211649 0.253195
vt 0.211649 0.215555
vt 0.249289 0.215555
vt 0.249289 0.253195
vt 0.211649 0.253195
vt 0.254617 0.680399
vt 0.292258 0.680399
vt 0.292258 0.718039
vt 0.254617 0.718039
vt 0.254617 0.680399
vt 0.292258 0.680399
vt 0.292258 0.718039
vt 0.254617 0.718039
vt 0.254617 0.680399
vt 0.292258 0.680399
vt 0.292258 0.718039
vt 0.254617 0.718039
vt 0.254617 0.680399
vt 0.292258 0.680399
vt 0.292258 0.718039
vt 0.254617 0.718039
vt 0.254617 0.680399
vt 0.292258 0.680399
vt 0.292258 0.718039
vt 0.254617 0.718039
vt 0.254617 0.680399
vt 0.292258 0.680399
vt 0.254617 0.718039
vt 0.292258 0.718039
vt 0.254617 0.718039
vt 0.292258 0.718039
vt 0.254617 0.718039
vt 0.292258 0.718039
vt 0.789062 0.253195
vt 0.805361 0.243785
vt 0.805361 0.224965
vt 0.789062 0.215555
vt 0.772764 0.224965
vt 0.772764 0.243785
vt 0.770242 0.215555
vt 0.807883 0.215555
vt 0.807883 0.253195
vt 0.770242 0.253195
vt 0.770242 0.215555
vt 0.807883 0.215555
vt 0.807883 0.253195
vt 0.770242 0.253195
vt 0.770242 0.215555
vt 0.807883 0.215555
vt 0.807883 0.253195
vt 0.770242 0.253195
vt 0.770242 0.215555
vt 0.807883 0.215555
vt 0.807883 0.253195
vt 0.770242 0.253195
vt 0.770242 0.215555
vt 0.807883 0.215555
vt 0.807883 0.253195
vt 0.770242 0.253195
vt 0.770242 0.215555
vt 0.807883 0.215555
vt 0.807883 0.253195
vt 0.770242 0.253195
vt 0.770242 0.215555
vt 0.807883 0.215555
vt 0.807883 0.253195
vt 0.770242 0.253195
vt 0.770242 0.215555
vt 0.807883 0.215555
vt 0.807883 0.253195
vt 0.770242 0.253195
vt 0.770242 0.215555
vt 0.807883 0.215555
vt 0.807883 0.253195
vt 0.770242 0.253195
vt 0.770242 0.215555
vt 0.807883 0.215555
vt 0.770242 0.215555
vt 0.807883 0.215555
vt 0.807883 0.253195
vt 0.770242 0.215555
vt 0.807883 0.215555
vt 0.770242 0.253195
vt 0.770242 0.215555
vt 0.807883 0.215555
vt 0.807883 0.253195
vt 0.770242 0.253195
vt 0.770242 0.215555
vt 0.807883 0.215555
vt 0.807883 0.253195
vt 0.770242 0.253195
vt 0.692117 0.203836
vt 0.729758 0.203836
vt 0.692117 0.241476
vt 0.692117 0.203836
vt 0.729758 0.203836
vt 0.729758 0.241476
vt 0.692117 0.241476
vt 0.692117 0.203836
vt 0.729758 0.203836
vt 0.729758 0.241476
vt 0.692117 0.203836
vt 0.729758 0.203836
vt 0.692117 0.241476
vt 0.692117 0.203836
vt 0.729758 0.203836
vt 0.729758 0.241476
vt 0.692117 0.241476
vt 0.692117 0.203836
vt 0.729758 0.203836
vt 0.729758 0.241476
vt 0.254617 0.680399
vt 0.292258 0.680399
vt 0.292258 0.718039
vt 0.254617 0.718039
vt 0.254617 0.680399
vt 0.292258 0.680399
vt 0.292258 0.718039
vt 0.254617 0.718039
vt 0.254617 0.680399
vt 0.292258 0.680399
vt 0.292258 0.718039
vt 0.254617 0.718039
vt 0.254617 0.680399
vt 0.292258 0.680399
vt 0.292258 0.718039
vt 0.254617 0.718039
vt 0.254617 0.680399
vt 0.292258 0.680399
vt 0.292258 0.718039
vt 0.254617 0.718039
vt 0.254617 0.680399
vt 0.292258 0.680399
vt 0.254617 0.718039
vt 0.292258 0.718039
vt 0.254617 0.718039
vt 0.292258 0.718039
vt 0.254617 0.718039
vt 0.292258 0.718039
vt 0.215555 0.703836
vt 0.253195 0.703836
vt 0.253195 0.741476
vt 0.215555 0.741476
vt 0.215555 0.703836
vt 0.253195 0.703836
vt 0.253195 0.741476
vt 0.215555 0.741476
vt 0.215555 0.703836
vt 0.253195 0.703836
vt 0.253195 0.741476
vt 0.215555 0.741476
vt 0.215555 0.703836
vt 0.253195 0.703836
vt 0.253195 0.741476
vt 0.215555 0.741476
vt 0.215555 0.703836
vt 0.253195 0.703836
vt 0.253195 0.741476
vt 0.215555 0.741476
vt 0.215555 0.703836
vt 0.253195 0.703836
vt 0.215555 0.741476
vt 0.253195 0.741476
vt 0.215555 0.741476
vt 0.253195 0.741476
vt 0.215555 0.741476
vt 0.253195 0.741476
vt 0.215555 0.703836
vt 0.253195 0.703836
vt 0.253195 0.741476
vt 0.215555 0.741476
vt 0.215555 0.703836
vt 0.253195 0.703836
vt 0.253195 0.741476
vt 0.215555 0.741476
vt 0.215555 0.703836
vt 0.253195 0.703836
vt 0.253195 0.741476
vt 0.215555 0.741476
vt 0.215555 0.703836
vt 0.253195 0.703836
vt 0.253195 0.741476
vt 0.215555 0.741476
vt 0.215555 0.703836
vt 0.253195 0.703836
vt 0.253195 0.741476
vt 0.215555 0.741476
vt 0.215555 0.703836
vt 0.253195 0.703836
vt 0.215555 0.741476
vt 0.253195 0.741476
vt 0.215555 0.741476
vt 0.253195 0.741476
vt 0.215555 0.741476
vt 0.253195 0.741476
vt 0.215555 0.703836
vt 0.253195 0.703836
vt 0.253195 0.741476
vt 0.215555 0.741476
vt 0.215555 0.703836
vt 0.253195 0.703836
vt 0.253195 0.741476
vt 0.215555 0.741476
vt 0.215555 0.703836
vt 0.253195 0.703836
vt 0.253195 0.741476
vt 0.215555 0.741476
vt 0.215555 0.703836
vt 0.253195 0.703836
vt 0.253195 0.741476
vt 0.215555 0.741476
vt 0.215555 0.703836
vt 0.253195 0.703836
vt 0.253195 0.741476
vt 0.215555 0.741476
vt 0.215555 0.703836
vt 0.253195 0.703836
vt 0.215555 0.741476
vt 0.253195 0.741476
vt 0.215555 0.741476
vt 0.253195 0.741476
vt 0.215555 0.741476
vt 0.253195 0.741476
vn 0.0000 -1.0000 -0.0000
vn 0.4130 -0.0961 -0.9056
vn -0.9640 -0.0981 -0.2472
vn 0.3985 0.0399 -0.9163
vn 0.2676 0.9611 0.0686
vn -0.0202 0.0487 -0.9986
vn -0.0968 0.0307 0.9948
vn 0.4942 -0.8601 0.1267
vn -0.9670 0.0590 -0.2480
vn -0.3474 0.3523 0.8690
vn 0.3555 0.4734 -0.8059
vn -0.3700 -0.0834 0.9253
vn -0.0201 -0.0812 -0.9965
vn -0.0853 -0.0727 0.9937
vn 0.9596 -0.1367 0.2461
vn 0.0000 1.0000 0.0000
vn -0.0177 0.4783 -0.8780
vn -0.0864 0.3796 0.9211
vn 0.8230 0.5273 0.2111
vn -0.8086 0.5506 -0.2074
vn 0.1069 -0.0152 0.9942
vn -0.9901 -0.0830 0.1134
vn -0.1067 -0.1645 -0.9806
vn 0.9903 -0.0967 -0.0998
vn 0.0012 -0.9972 0.0753
vn -0.9942 0.0027 0.1073
vn -0.0012 0.9972 -0.0753
vn -0.1069 -0.1474 -0.9833
vn 0.0881 0.6218 0.7782
vn 0.8483 0.5131 -0.1306
vn -0.9813 -0.1387 -0.1333
vn 0.0290 -0.1693 0.9851
vn 0.9504 0.2961 0.0953
vn -0.9061 0.4048 -0.1231
vn 0.9903 -0.0976 0.0993
vn -0.9457 -0.1405 0.2932
vn 0.9770 -0.1063 -0.1847
vn -0.0290 -0.1596 -0.9868
vn -0.8715 0.4093 0.2702
vn 0.9309 0.3202 -0.1760
vn -0.0262 0.4551 -0.8900
vn 0.0258 0.4774 0.8783
vn -0.3685 0.1224 0.9215
vn 0.9492 0.1993 0.2434
vn -0.9961 -0.0076 -0.0875
vn 0.0397 0.0395 -0.9984
vn -0.1744 -0.8828 0.4362
vn -0.0911 0.9694 0.2278
vn -0.5555 0.3999 0.7291
vn -0.8359 -0.2756 -0.4746
vn 0.5350 -0.5540 -0.6379
vn 0.8155 0.1215 0.5658
vn -0.1133 -0.8550 0.5062
vn -0.8296 -0.2029 -0.5202
vn 0.1133 0.8550 -0.5062
vn 0.5378 -0.5399 -0.6476
vn -0.3894 0.8763 0.2837
vn 0.7669 0.6152 0.1826
vn -0.9942 0.0028 0.1074
vn 0.8484 0.5131 -0.1306
vn 0.1069 -0.0321 0.9938
vn -0.9785 -0.1732 0.1121
vn -0.1020 -0.3321 -0.9377
vn 0.9747 -0.2010 -0.0982
vn 0.0006 -0.9994 0.0357
vn -0.9942 0.0058 0.1073
vn -0.0006 0.9994 -0.0357
vn -0.1031 -0.3001 -0.9483
vn 0.0576 0.8588 0.5090
vn 0.6138 0.7838 -0.0945
vn 0.3635 -0.5139 0.7770
vn -0.9146 -0.3459 0.2096
vn -0.3436 0.3594 -0.8676
vn 0.9345 0.1913 -0.3002
vn 0.1105 -0.8573 -0.5028
vn -0.9278 -0.2733 0.2538
vn -0.1105 0.8573 0.5028
vn -0.3460 0.3748 -0.8601
vn 0.2318 0.1185 0.9655
vn 0.7352 0.6765 0.0431
usemtl color4
f 1/1/1 2/2/1 3/3/1 4/4/1
f 2/5/1 5/6/1 6/7/1 3/8/1
f 7/9/2 8/10/2 9/11/2 10/12/2
f 11/13/3 12/14/3 13/15/3 14/16/3
f 5/17/4 2/2/4 8/18/4 7/19/4
f 7/20/5 15/21/5 16/22/5 17/23/5
f 2/5/6 1/24/6 11/25/6 8/26/6
f 4/27/7 3/28/7 18/29/7 12/30/7
f 6/31/8 5/32/8 19/33/8 20/34/8
f 1/1/9 4/35/9 12/36/9 11/37/9
f 21/38/10 22/39/10 23/40/10 24/41/10
f 10/42/11 9/43/11 25/44/11 26/45/11
f 18/46/12 15/47/12 22/48/12 21/49/12
f 8/50/13 11/51/13 14/52/13 9/53/13
f 12/54/14 18/55/14 21/56/14 13/57/14
f 15/58/15 7/59/15 10/60/15 22/61/15
f 27/62/16 28/63/16 24/64/16 25/65/16
f 25/66/16 24/67/16 23/40/16 26/45/16
f 9/68/17 14/69/17 27/70/17 25/65/17
f 13/71/18 21/72/18 24/64/18 28/73/18
f 22/74/19 10/75/19 26/76/19 23/77/19
f 14/78/20 13/79/20 28/80/20 27/81/20
f 29/82/21 30/83/21 31/84/21 32/85/21
f 30/86/22 33/87/22 34/88/22 31/89/22
f 33/90/23 35/91/23 36/92/23 34/93/23
f 35/94/24 29/95/24 32/96/24 36/97/24
f 32/98/25 31/99/25 34/88/25 36/97/25
f 33/90/26 30/83/26 37/100/26 38/101/26
f 39/102/27 38/103/27 37/100/27 40/104/27
f 35/94/28 33/87/28 38/105/28 39/106/28
f 30/86/29 29/95/29 40/107/29 37/108/29
f 29/82/30 35/91/30 39/109/30 40/104/30
f 41/110/1 42/111/1 43/112/1 44/113/1 45/114/1 46/115/1
f 42/116/31 41/117/31 47/118/31 48/119/31
f 46/120/32 45/121/32 49/122/32 50/123/32
f 51/124/33 52/125/33 53/126/33 54/127/33
f 48/128/34 47/129/34 55/130/34 56/131/34
f 44/132/35 43/133/35 52/134/35 51/135/35
f 41/136/36 46/137/36 50/138/36 47/139/36
f 45/140/37 44/141/37 51/142/37 49/143/37
f 43/144/38 42/145/38 48/146/38 52/147/38
f 57/148/16 58/149/16 54/150/16 55/151/16
f 55/152/16 54/153/16 53/126/16 56/131/16
f 47/154/39 50/155/39 57/156/39 55/151/39
f 49/157/40 51/158/40 54/150/40 58/159/40
f 52/160/41 48/161/41 56/162/41 53/163/41
f 50/164/42 49/165/42 58/166/42 57/167/42
f 59/168/43 20/169/43 16/22/43 60/170/43
f 20/171/44 19/172/44 17/173/44 16/174/44
f 18/175/45 3/176/45 59/177/45 60/170/45
f 5/178/46 7/179/46 17/173/46 19/180/46
f 3/181/47 6/182/47 20/183/47 59/184/47
f 15/185/48 18/186/48 60/187/48 16/174/48
f 61/188/49 62/189/49 63/190/49 64/191/49
f 62/192/50 65/193/50 66/194/50 63/195/50
f 65/196/51 67/197/51 68/198/51 66/199/51
f 67/200/52 61/201/52 64/202/52 68/203/52
f 64/204/53 63/205/53 66/194/53 68/203/53
f 65/196/54 62/189/54 69/206/54 70/207/54
f 71/208/55 70/209/55 69/206/55 72/210/55
f 67/200/56 65/193/56 70/211/56 71/212/56
f 62/192/57 61/201/57 72/213/57 69/214/57
f 61/188/58 67/197/58 71/215/58 72/210/58
f 73/216/21 74/217/21 75/218/21 76/219/21
f 74/220/22 77/221/22 78/222/22 75/223/22
f 77/224/23 79/225/23 80/226/23 78/227/23
f 79/228/24 73/229/24 76/230/24 80/231/24
f 76/232/25 75/233/25 78/222/25 80/231/25
f 77/224/59 74/217/59 81/234/59 82/235/59
f 83/236/27 82/237/27 81/234/27 84/238/27
f 79/228/28 77/221/28 82/239/28 83/240/28
f 74/220/29 73/229/29 84/241/29 81/242/29
f 73/216/60 79/225/60 83/243/60 84/238/60
f 85/244/61 86/245/61 87/246/61 88/247/61
f 86/248/62 89/249/62 90/250/62 87/251/62
f 89/252/63 91/253/63 92/254/63 90/255/63
f 91/256/64 85/257/64 88/258/64 92/259/64
f 88/260/65 87/261/65 90/250/65 92/259/65
f 89/252/66 86/245/66 93/262/66 94/263/66
f 95/264/67 94/265/67 93/262/67 96/266/67
f 91/256/68 89/249/68 94/267/68 95/268/68
f 86/248/69 85/257/69 96/269/69 93/270/69
f 85/244/70 91/253/70 95/271/70 96/266/70
f 97/272/71 98/273/71 99/274/71 100/275/71
f 98/276/72 101/277/72 102/278/72 99/279/72
f 101/280/73 103/281/73 104/282/73 102/283/73
f 103/284/74 97/285/74 100/286/74 104/287/74
f 100/288/75 99/289/75 102/278/75 104/287/75
f 101/280/76 98/273/76 105/290/76 106/291/76
f 107/292/77 106/293/77 105/290/77 108/294/77
f 103/284/78 101/277/78 106/295/78 107/296/78
f 98/276/79 97/285/79 108/297/79 105/298/79
f 97/272/80 103/281/80 107/299/80 108/294/80
