mtllib LOW_POLY_set.mtl
o lp_Rock_Type1_03_mesh_001_Circle_010
v -37.362370 1.502377 14.734562
v -35.564377 1.502377 14.778713
v -35.842075 1.502377 14.396989
v -36.984928 1.502377 14.368925
v -37.026455 1.456037 15.220528
v -37.116470 1.502377 15.090304
v -37.362370 1.071738 14.734562
v -37.026455 1.071738 15.220528
v -36.881420 1.456037 14.268655
v -35.791462 1.456037 14.295421
v -35.791462 1.071738 14.295421
v -36.881420 1.071738 14.268655
v -35.437611 1.071738 14.781826
v -35.956333 1.071738 15.504493
v -35.437611 1.456037 14.781826
v -35.956333 1.456037 15.504493
v -36.000580 1.502377 15.386415
v -34.335270 1.187793 14.903568
v -34.075882 1.085012 14.765800
v -34.319096 1.168190 14.691208
v -34.520733 1.248088 14.798303
v -37.509167 1.085013 14.925775
v -37.379135 1.187793 14.537234
v -37.023918 1.187793 13.475833
v -37.023918 0.232648 13.475833
v -37.509167 0.232648 14.925775
v -35.312515 1.085013 13.748964
v -34.075882 0.232648 14.765800
v -35.312515 0.232648 13.748964
v -34.318958 0.232648 16.197502
v -36.241985 0.232648 17.064133
v -34.318958 1.085012 16.197502
v -36.241985 1.085012 17.064133
v -36.843513 1.085013 16.049053
v -36.910908 0.441850 15.935330
v -36.892445 1.085013 15.966483
v -36.708183 1.187793 15.751963
v -36.659973 1.110930 15.821128
v -36.043537 1.187793 15.865564
v -35.680836 1.187793 13.690183
v -36.610775 1.248088 13.688440
v -35.566719 1.248088 13.855066
v -34.581249 1.187793 16.000242
v -36.157536 1.187793 16.748892
v -34.674034 1.981300 14.123901
v -34.212704 1.981300 16.443817
v -33.802876 1.981300 15.977502
v -34.096107 1.981300 14.502902
v -35.200855 1.795728 14.694955
v -35.059681 1.981300 14.541930
v -34.674034 0.256776 14.123901
v -35.200855 0.256776 14.694955
v -33.937622 1.795728 14.606837
v -33.657959 1.795728 16.013187
v -33.657959 0.256776 16.013187
v -33.937622 0.256776 14.606837
v -34.180176 0.256776 16.607382
v -35.256947 0.256776 16.149948
v -34.180176 1.795728 16.607382
v -35.256947 1.795728 16.149948
v -35.118176 1.981300 16.059155
v -36.646137 1.187793 15.864298
v -36.866650 1.008150 15.992619
v -34.711948 1.248088 15.650813
v -35.280403 1.168190 13.900761
vt 0.689186 0.230852
vt 0.736740 0.230852
vt 0.736740 0.278407
vt 0.689186 0.278407
vt 0.712963 0.278407
vt 0.735577 0.261977
vt 0.726939 0.235393
vt 0.698987 0.235393
vt 0.690349 0.261977
vt 0.689186 0.230852
vt 0.736740 0.230852
vt 0.736740 0.278407
vt 0.689186 0.278407
vt 0.689186 0.230852
vt 0.736740 0.230852
vt 0.736740 0.278407
vt 0.689186 0.278407
vt 0.689186 0.230852
vt 0.736740 0.230852
vt 0.736740 0.278407
vt 0.689186 0.278407
vt 0.689186 0.230852
vt 0.736740 0.230852
vt 0.736740 0.278407
vt 0.689186 0.278407
vt 0.689186 0.230852
vt 0.736740 0.230852
vt 0.689186 0.278407
vt 0.689186 0.230852
vt 0.736740 0.230852
vt 0.689186 0.278407
vt 0.689186 0.230852
vt 0.736740 0.230852
vt 0.736740 0.278407
vt 0.689186 0.278407
vt 0.689186 0.230852
vt 0.736740 0.230852
vt 0.736740 0.278407
vt 0.689186 0.278407
vt 0.689186 0.230852
vt 0.736740 0.278407
vt 0.689186 0.278407
vt 0.689186 0.230852
vt 0.736740 0.230852
vt 0.736740 0.278407
vt 0.689186 0.278407
vt 0.689186 0.230852
vt 0.736740 0.278407
vt 0.689186 0.278407
vt 0.712963 0.278407
vt 0.735577 0.261977
vt 0.726939 0.235393
vt 0.698987 0.235393
vt 0.690349 0.261977
vt 0.212334 0.189186
vt 0.259888 0.189186
vt 0.259888 0.236740
vt 0.212334 0.236740
vt 0.236111 0.236740
vt 0.258725 0.220311
vt 0.250087 0.193727
vt 0.222135 0.193727
vt 0.213498 0.220311
vt 0.212334 0.189186
vt 0.259888 0.236740
vt 0.212334 0.236740
vt 0.212334 0.189186
vt 0.259888 0.189186
vt 0.259888 0.236740
vt 0.212334 0.236740
vt 0.212334 0.189186
vt 0.259888 0.189186
vt 0.259888 0.236740
vt 0.212334 0.236740
vt 0.236111 0.236740
vt 0.254701 0.227788
vt 0.259292 0.207672
vt 0.246428 0.191540
vt 0.225794 0.191540
vt 0.212930 0.207672
vt 0.217521 0.227788
vt 0.212334 0.189186
vt 0.259888 0.189186
vt 0.212334 0.236740
vt 0.212334 0.189186
vt 0.259888 0.189186
vt 0.212334 0.236740
vt 0.740112 0.763260
vt 0.787666 0.763260
vt 0.787666 0.810814
vt 0.212334 0.189186
vt 0.259888 0.189186
vt 0.259888 0.236740
vt 0.212334 0.236740
vt 0.212334 0.189186
vt 0.259888 0.189186
vt 0.259888 0.236740
vt 0.212334 0.236740
vt 0.212334 0.189186
vt 0.259888 0.189186
vt 0.259888 0.236740
vt 0.212334 0.236740
vt 0.259888 0.189186
vt 0.259888 0.236740
vt 0.212334 0.236740
vt 0.236111 0.236740
vt 0.258725 0.220311
vt 0.250087 0.193727
vt 0.222135 0.193727
vt 0.213498 0.220311
vt 0.240112 0.749371
vt 0.287666 0.749371
vt 0.287666 0.796925
vt 0.240112 0.796925
vt 0.263889 0.796925
vt 0.286502 0.780496
vt 0.277865 0.753912
vt 0.249913 0.753912
vt 0.241275 0.780496
vt 0.240112 0.749371
vt 0.287666 0.749371
vt 0.287666 0.796925
vt 0.240112 0.796925
vt 0.240112 0.749371
vt 0.287666 0.749371
vt 0.287666 0.796925
vt 0.240112 0.796925
vt 0.240112 0.749371
vt 0.287666 0.749371
vt 0.287666 0.796925
vt 0.240112 0.796925
vt 0.240112 0.749371
vt 0.287666 0.749371
vt 0.287666 0.796925
vt 0.240112 0.796925
vt 0.240112 0.749371
vt 0.287666 0.749371
vt 0.240112 0.796925
vt 0.240112 0.749371
vt 0.287666 0.749371
vt 0.240112 0.796925
vt 0.240112 0.749371
vt 0.287666 0.749371
vt 0.287666 0.796925
vt 0.240112 0.796925
vt 0.240112 0.749371
vt 0.287666 0.749371
vt 0.287666 0.796925
vt 0.240112 0.796925
vt 0.240112 0.749371
vt 0.287666 0.796925
vt 0.240112 0.796925
vt 0.240112 0.749371
vt 0.287666 0.749371
vt 0.287666 0.796925
vt 0.240112 0.796925
vt 0.240112 0.749371
vt 0.287666 0.796925
vt 0.240112 0.796925
vt 0.263889 0.796925
vt 0.286502 0.780496
vt 0.277865 0.753912
vt 0.249913 0.753912
vt 0.241275 0.780496
vt 0.212334 0.189186
vt 0.259888 0.189186
vt 0.259888 0.236740
vt 0.212334 0.236740
vt 0.740112 0.763260
vt 0.787666 0.763260
vt 0.787666 0.810814
vt 0.740112 0.810814
vt 0.787666 0.763260
vt 0.236111 0.236740
vt 0.254701 0.227788
vt 0.259292 0.207672
vt 0.246428 0.191540
vt 0.225794 0.191540
vt 0.212930 0.207672
vt 0.217521 0.227788
vt 0.740112 0.763260
vt 0.787666 0.763260
vt 0.787666 0.810814
vt 0.740112 0.763260
vt 0.787666 0.763260
vt 0.740112 0.763260
vt 0.787666 0.810814
vt 0.740112 0.810814
vt 0.212334 0.189186
vt 0.259888 0.189186
vt 0.259888 0.236740
vt 0.212334 0.189186
vt 0.259888 0.189186
vt 0.212334 0.236740
vt 0.259888 0.189186
vt 0.259888 0.236740
vt 0.259888 0.189186
vt 0.212334 0.236740
vt 0.212334 0.189186
vt 0.259888 0.236740
vt 0.212334 0.236740
vt 0.259888 0.189186
vt 0.259888 0.236740
vt 0.212334 0.236740
vn 0.0000 1.0000 0.0000
vn -0.8226 0.0000 0.5686
vn 0.0245 0.0000 -0.9997
vn 0.0000 -1.0000 -0.0000
vn 0.8087 0.0000 -0.5883
vn -0.2565 0.0000 0.9665
vn 0.8124 0.0000 0.5831
vn 0.0101 0.9116 -0.4109
vn 0.3285 0.9146 0.2358
vn -0.1054 0.9116 0.3973
vn 0.3381 0.9084 -0.2460
vn -0.6958 0.0000 -0.7182
vn 0.3396 0.9386 -0.0608
vn -0.9483 -0.0000 -0.3174
vn 0.6351 0.0000 -0.7724
vn 0.9859 0.0000 0.1674
vn -0.8603 0.0000 0.5098
vn 0.4109 0.0000 0.9117
vn -0.1328 0.6157 0.7767
vn 0.0606 0.9232 -0.3795
vn 0.1491 0.9345 0.3231
vn -0.2937 0.9411 0.1677
vn 0.3589 0.9308 0.0694
vn 0.1576 0.0000 -0.9875
vn -0.7350 0.0000 -0.6781
vn 0.9808 0.0000 -0.1950
vn 0.7511 0.0000 0.6601
vn -0.9993 0.0000 -0.0385
vn -0.3910 0.0000 0.9204
vn 0.7928 0.5888 -0.1576
vn -0.3139 0.5962 0.7389
vn -0.8077 0.5888 -0.0311
vn 0.6114 0.5808 0.5374
vn 0.5484 0.0000 -0.8362
vn -0.3336 0.9231 0.1914
vn 0.3693 0.6116 0.6997
vn 0.0018 0.4894 -0.8720
vn -0.7294 -0.0122 0.6840
vn -0.9425 0.0401 0.3318
vn -0.7020 0.4984 -0.5086
vn 0.2619 0.9162 -0.3032
vn 0.3058 0.8062 -0.5065
vn 0.2766 0.9590 0.0620
vn -0.2695 0.9270 0.2608
vn 0.4138 0.7586 -0.5032
usemtl color3
f 1/1/1 2/2/1 3/3/1 4/4/1
f 5/5/2 6/6/2 1/7/2 7/8/2 8/9/2
f 9/10/3 10/11/3 11/12/3 12/13/3
f 7/14/4 13/15/4 14/16/4 8/17/4
f 10/18/5 15/19/5 13/20/5 11/21/5
f 16/22/6 5/23/6 8/24/6 14/25/6
f 12/26/4 11/27/4 13/20/4 7/28/4
f 15/29/7 16/30/7 14/16/7 13/31/7
f 6/32/1 17/33/1 2/34/1 1/35/1
f 4/36/8 3/37/8 10/38/8 9/39/8
f 2/40/9 17/33/9 16/41/9 15/42/9
f 17/43/10 6/44/10 5/45/10 16/46/10
f 3/47/11 2/2/11 15/48/11 10/49/11
f 1/50/12 4/51/12 9/52/12 12/53/12 7/54/12
f 18/55/13 19/56/13 20/57/13 21/58/13
f 22/59/14 23/60/14 24/61/14 25/62/14 26/63/14
f 27/64/15 19/56/15 28/65/15 29/66/15
f 25/67/4 30/68/4 31/69/4 26/70/4
f 19/71/16 32/72/16 30/73/16 28/74/16
f 33/75/17 34/76/17 35/77/17 36/78/17 22/79/17 26/80/17 31/81/17
f 29/82/4 28/83/4 30/73/4 25/84/4
f 32/85/18 33/86/18 31/69/18 30/87/18
f 37/88/19 38/89/19 39/90/19
f 40/91/20 24/92/20 41/93/20 42/94/20
f 43/95/21 44/96/21 33/97/21 32/98/21
f 36/99/22 37/100/22 23/101/22 22/102/22
f 18/55/23 43/103/23 32/104/23 19/105/23
f 24/106/24 40/107/24 27/108/24 29/109/24 25/110/24
f 45/111/1 46/112/1 47/113/1 48/114/1
f 49/115/25 50/116/25 45/117/25 51/118/25 52/119/25
f 53/120/26 54/121/26 55/122/26 56/123/26
f 51/124/4 57/125/4 58/126/4 52/127/4
f 54/128/27 59/129/27 57/130/27 55/131/27
f 60/132/28 49/133/28 52/134/28 58/135/28
f 56/136/4 55/137/4 57/130/4 51/138/4
f 59/139/29 60/140/29 58/126/29 57/141/29
f 50/142/1 61/143/1 46/144/1 45/145/1
f 48/146/30 47/147/30 54/148/30 53/149/30
f 46/150/31 61/143/31 60/151/31 59/152/31
f 61/153/32 50/154/32 49/155/32 60/156/32
f 47/157/33 46/112/33 59/158/33 54/159/33
f 45/160/34 48/161/34 53/162/34 56/163/34 51/164/34
f 44/165/35 62/166/35 34/167/35 33/168/35
f 38/169/36 37/170/36 36/171/36 63/172/36
f 38/169/37 62/173/37 39/90/37
f 23/174/1 37/175/1 39/176/1 62/177/1 44/178/1 43/179/1 24/180/1
f 63/181/38 36/182/38 35/183/38
f 34/184/39 63/185/39 35/183/39
f 62/186/40 38/89/40 63/187/40 34/188/40
f 41/189/1 64/190/1 21/191/1 42/94/1
f 42/192/41 21/193/41 20/57/41 65/194/41
f 27/64/42 40/195/42 42/196/42 65/194/42
f 43/95/43 18/197/43 21/191/43 64/198/43
f 24/199/44 43/103/44 64/200/44 41/201/44
f 19/71/45 27/202/45 65/203/45 20/204/45
