mtllib LOW_POLY_set.mtl
o lp_stone_3_001_Cube_024
v 106.232079 2.324739 31.123346
v 106.495529 2.906215 31.263590
v 107.840889 2.214362 31.376265
v 107.961754 2.100881 32.796841
v 108.108696 1.845663 32.939011
v 108.216835 1.732986 31.794834
v 107.535309 1.845730 32.948475
v 106.404724 2.385215 32.822548
v 106.839622 1.732986 33.121822
v 108.456909 0.745981 31.450737
v 108.356110 1.271388 31.622467
v 109.099121 0.745981 31.584633
v 108.120026 1.529736 30.994761
v 106.981094 1.271388 33.119488
v 106.569092 1.732986 33.435467
v 106.858948 0.745981 33.540749
v 105.397346 2.034760 31.045893
v 105.755028 2.385215 32.890011
v 107.373367 1.673974 30.752064
v 108.146950 0.745981 30.717051
v 107.414795 0.745981 30.328842
v 106.715759 1.383421 30.340384
v 107.904755 1.565390 33.689857
v 109.049278 1.293359 31.750450
v 109.648109 1.433480 32.695827
v 109.796875 1.271388 32.735996
v 107.283409 1.271388 32.952633
v 107.117249 0.745981 33.025543
v 106.977501 0.745981 33.119545
v 107.817047 1.271388 33.878647
v 109.036438 1.818481 32.806660
v 108.939873 1.271388 33.621666
v 108.959099 1.732986 33.532394
v 108.978920 0.745981 33.705952
v 107.629013 0.745981 34.117802
v 105.619698 1.732986 33.451141
v 105.013580 1.758959 32.534946
v 105.419945 0.745981 30.143967
v 105.623596 1.271388 33.687298
v 104.692772 1.247127 32.084404
v 105.390739 0.745981 33.700951
v 104.493843 0.745981 31.894230
v 109.956383 0.745981 32.713409
vt 0.870731 0.886198
vt 0.870731 0.911663
vt 0.818599 0.911663
vt 0.950731 0.591663
vt 0.950731 0.539131
vt 0.924865 0.539131
vt 0.924865 0.591663
vt 0.605266 0.911663
vt 0.657398 0.859531
vt 0.657398 0.911663
vt 0.764866 0.644596
vt 0.764866 0.539131
vt 0.870331 0.539131
vt 0.737398 0.938330
vt 0.711933 0.938330
vt 0.737398 0.912864
vt 0.657398 0.938330
vt 0.657398 0.912464
vt 0.604865 0.912464
vt 0.604865 0.938330
vt 0.950731 0.698330
vt 0.950731 0.645797
vt 0.924865 0.645797
vt 0.924865 0.698330
vt 0.657398 0.858330
vt 0.657398 0.752864
vt 0.551933 0.858330
vt 0.658199 0.804996
vt 0.764065 0.804996
vt 0.764065 0.752464
vt 0.658199 0.752464
vt 0.897398 0.752464
vt 0.844866 0.752464
vt 0.844866 0.804996
vt 0.897398 0.804996
vt 0.950731 0.592464
vt 0.924865 0.592464
vt 0.924865 0.644997
vt 0.950731 0.644997
vt 0.818199 0.885797
vt 0.818199 0.911263
vt 0.870331 0.885797
vt 0.604065 0.938330
vt 0.604065 0.912464
vt 0.551532 0.912464
vt 0.551532 0.938330
vt 0.684065 0.912464
vt 0.658199 0.912464
vt 0.658199 0.938330
vt 0.684065 0.938330
vt 0.710731 0.912464
vt 0.684865 0.912464
vt 0.684865 0.938330
vt 0.710731 0.938330
vt 0.897398 0.859131
vt 0.871532 0.859131
vt 0.871532 0.911663
vt 0.897398 0.911663
vt 0.604065 0.859531
vt 0.551933 0.911663
vt 0.604065 0.911663
vt 0.764065 0.911663
vt 0.764065 0.885797
vt 0.711532 0.885797
vt 0.711532 0.911663
vt 0.924065 0.752464
vt 0.898199 0.752464
vt 0.898199 0.804996
vt 0.924065 0.804996
vt 0.870731 0.884997
vt 0.870731 0.859131
vt 0.818199 0.859131
vt 0.818199 0.884997
vt 0.924065 0.539131
vt 0.871532 0.539131
vt 0.871532 0.591663
vt 0.924065 0.591663
vt 0.924065 0.645797
vt 0.898199 0.645797
vt 0.898199 0.698330
vt 0.924065 0.698330
vt 0.711532 0.912464
vt 0.711532 0.937929
vt 0.736998 0.912464
vt 0.658199 0.858330
vt 0.764065 0.858330
vt 0.764065 0.805797
vt 0.658199 0.805797
vt 0.765266 0.858330
vt 0.790731 0.752864
vt 0.790731 0.858330
vt 0.791933 0.804996
vt 0.844065 0.804996
vt 0.844065 0.752864
vt 0.710731 0.859131
vt 0.658199 0.859131
vt 0.658199 0.911663
vt 0.710731 0.911663
vt 0.551532 0.911263
vt 0.603664 0.859131
vt 0.551532 0.859131
vt 0.551532 0.752464
vt 0.551532 0.857929
vt 0.656998 0.752464
vt 0.897398 0.645797
vt 0.871532 0.645797
vt 0.871532 0.751663
vt 0.897398 0.751663
vt 0.817398 0.884997
vt 0.817398 0.859131
vt 0.711532 0.859131
vt 0.711532 0.884997
vt 0.765266 0.751663
vt 0.870731 0.751663
vt 0.870731 0.699531
vt 0.924065 0.592464
vt 0.871532 0.592464
vt 0.871532 0.644997
vt 0.924065 0.644997
vt 0.791532 0.804596
vt 0.843664 0.752464
vt 0.791532 0.752464
vt 0.924065 0.859531
vt 0.924065 0.911663
vt 0.898599 0.911663
vt 0.924065 0.751663
vt 0.924065 0.699131
vt 0.898199 0.699131
vt 0.898199 0.751663
vt 0.870731 0.698330
vt 0.870731 0.645797
vt 0.764866 0.645797
vt 0.764866 0.698330
vt 0.764866 0.752464
vt 0.790331 0.752464
vt 0.764866 0.857929
vt 0.764866 0.699131
vt 0.764866 0.751263
vt 0.870331 0.699131
vt 0.897398 0.805797
vt 0.844866 0.805797
vt 0.844866 0.858330
vt 0.897398 0.858330
vt 0.562113 0.728948
vt 0.551532 0.652139
vt 0.565810 0.621691
vt 0.604129 0.604787
vt 0.604940 0.579535
vt 0.659879 0.539131
vt 0.726465 0.569131
vt 0.764065 0.617322
vt 0.707548 0.644392
vt 0.714353 0.649019
vt 0.739482 0.650537
vt 0.764065 0.704980
vt 0.671112 0.751663
vt 0.604865 0.911263
vt 0.656998 0.859131
vt 0.604865 0.859131
vt 0.924065 0.805797
vt 0.898199 0.805797
vt 0.898199 0.858330
vt 0.924065 0.858330
vt 0.817398 0.911663
vt 0.817398 0.885797
vt 0.764866 0.885797
vt 0.764866 0.911663
vt 0.898199 0.911263
vt 0.923664 0.859131
vt 0.898199 0.859131
vt 0.844065 0.805797
vt 0.791532 0.805797
vt 0.791532 0.858330
vt 0.844065 0.858330
vn 0.1640 0.1604 -0.9733
vn 0.8168 0.5769 -0.0039
vn 0.1361 0.4867 0.8629
vn 0.1753 0.9306 0.3212
vn 0.1921 0.3380 -0.9213
vn 0.8796 0.4247 -0.2143
vn 0.7571 0.2678 0.5960
vn 0.4549 0.8899 0.0324
vn -0.1905 0.9780 -0.0849
vn 0.3945 0.3958 -0.8293
vn 0.9214 0.2035 -0.3310
vn 0.0059 0.9363 0.3511
vn 0.7599 0.3136 -0.5694
vn 0.3258 -0.0331 0.9449
vn 0.5081 -0.0223 0.8610
vn -0.7714 0.4098 0.4867
vn 0.4366 0.8077 -0.3963
vn 0.1530 0.3221 0.9342
vn 0.2527 0.2517 0.9342
vn -0.8140 0.3996 0.4216
vn -0.0346 0.9716 0.2341
vn 0.1603 0.3406 -0.9265
vn 0.9626 -0.0065 0.2709
vn 0.0027 0.6403 -0.7681
vn -0.9151 0.3955 0.0789
vn -0.6898 0.5491 0.4719
vn 0.2233 0.6480 -0.7282
vn 0.3485 0.3237 -0.8797
vn -0.1549 0.5646 -0.8107
vn -0.8425 0.1610 0.5141
vn -0.8473 0.2786 0.4522
vn 0.0916 0.1184 -0.9887
vn 0.1319 0.2527 0.9585
vn 0.0125 0.6506 0.7593
vn 0.1084 -0.0222 0.9939
vn 0.2754 0.6943 0.6649
vn -0.8740 0.3760 -0.3078
vn -0.7815 0.4671 -0.4135
vn -0.6389 0.7690 -0.0222
vn 0.0709 0.4193 0.9051
vn 0.0000 -1.0000 0.0000
vn 0.5462 0.8231 0.1552
vn 0.7045 0.1735 0.6881
vn 0.7380 0.2806 0.6137
vn 0.7693 0.2587 -0.5842
vn 0.2230 0.9395 -0.2601
usemtl STONE_1.003
f 1/1/1 2/2/1 3/3/1
f 3/4/2 4/5/2 5/6/2 6/7/2
f 7/8/3 8/9/3 9/10/3
f 2/11/4 8/12/4 4/13/4
f 10/14/5 11/15/5 12/16/5
f 13/17/6 3/18/6 6/19/6 11/20/6
f 14/21/7 9/22/7 15/23/7 16/24/7
f 3/25/8 2/26/8 4/27/8
f 8/28/9 1/29/9 17/30/9 18/31/9
f 19/32/10 20/33/10 21/34/10 22/35/10
f 20/36/11 13/37/11 11/38/11 10/39/11
f 5/40/12 7/41/12 23/42/12
f 12/43/13 24/44/13 25/45/13 26/46/13
f 27/47/14 7/48/14 9/49/14 14/50/14
f 28/51/15 27/52/15 14/53/15 29/54/15
f 7/55/16 27/56/16 30/57/16 23/58/16
f 24/59/17 31/60/17 25/61/17
f 32/62/18 33/63/18 23/64/18 30/65/18
f 34/66/19 32/67/19 30/68/19 35/69/19
f 27/70/20 28/71/20 35/72/20 30/73/20
f 31/74/21 5/75/21 23/76/21 33/77/21
f 11/78/22 6/79/22 24/80/22 12/81/22
f 29/82/23 14/83/23 16/84/23
f 1/85/24 19/86/24 22/87/24 17/88/24
f 1/89/25 8/90/25 2/91/25
f 36/92/26 18/93/26 37/94/26
f 19/95/27 1/96/27 3/97/27 13/98/27
f 20/99/28 19/100/28 13/101/28
f 38/102/29 17/103/29 22/104/29
f 39/105/30 36/106/30 37/107/30 40/108/30
f 41/109/31 39/110/31 40/111/31 42/112/31
f 38/113/32 22/114/32 21/115/32
f 16/116/33 15/117/33 36/118/33 39/119/33
f 15/120/34 18/121/34 36/122/34
f 16/123/35 39/124/35 41/125/35
f 9/126/36 8/127/36 18/128/36 15/129/36
f 40/130/37 37/131/37 17/132/37 38/133/37
f 42/134/38 40/135/38 38/136/38
f 37/137/39 18/138/39 17/139/39
f 5/140/40 4/141/40 8/142/40 7/143/40
f 38/144/41 21/145/41 20/146/41 10/147/41 12/148/41 43/149/41 34/150/41 35/151/41 28/152/41 29/153/41 16/154/41 41/155/41 42/156/41
f 33/157/42 25/158/42 31/159/42
f 32/160/43 34/161/43 43/162/43 26/163/43
f 33/164/44 32/165/44 26/166/44 25/167/44
f 12/168/45 26/169/45 43/170/45
f 6/171/46 5/172/46 31/173/46 24/174/46
