mtllib LOW_POLY_set.mtl
o lp_stone_6_001_Cube_019
v 122.024063 0.750959 32.829666
v 122.046722 1.016193 32.644051
v 121.288391 0.995959 32.412445
v 121.118286 0.750959 32.468498
v 124.613647 0.750959 31.254107
v 124.549728 1.124782 31.345881
v 124.786545 1.196524 32.036968
v 124.896156 0.750959 32.083439
v 120.979584 0.750959 31.783817
v 121.225655 1.106982 31.702982
v 121.690697 1.246251 30.997868
v 121.595398 0.750959 30.708834
v 122.202339 1.246251 30.766975
v 122.142235 0.750959 30.553234
v 123.862373 0.750959 33.169758
v 124.419090 1.164129 32.983562
v 122.926865 1.108943 32.358345
v 122.913841 0.750959 32.472725
v 123.371422 0.750959 30.999411
v 123.369392 1.272986 31.098616
v 124.529663 0.750959 33.123245
v 124.606102 1.551723 32.038033
v 124.204918 1.573655 32.796989
v 121.455101 1.242562 32.243973
v 121.527710 1.359718 31.761131
v 123.377998 1.459591 31.213436
v 124.458908 1.483349 31.473831
v 122.920547 1.361459 32.279812
v 122.053314 1.218918 32.555164
v 122.300606 1.483349 30.983124
v 121.834267 1.483349 31.165434
v 123.855675 1.775036 31.862391
v 122.058067 1.535056 32.043724
v 122.752045 1.652269 31.872585
v 122.048309 1.615276 31.553595
v 122.390221 0.750959 33.931728
v 122.340637 0.958451 33.858246
v 121.852676 0.937155 33.731152
v 121.796120 0.750959 33.798958
v 122.063637 0.750959 33.010521
v 121.697365 0.750959 33.481743
v 121.738068 0.937155 33.485886
v 122.073174 0.947803 33.059280
v 122.422409 0.750959 33.368679
v 122.322502 0.958451 33.413460
v 122.113182 1.196944 33.171463
v 122.257103 1.163346 33.345573
v 121.941315 1.206391 33.403412
v 122.226006 1.150668 33.601246
v 122.000351 1.186211 33.529530
v 123.279976 0.750959 33.260712
v 123.220993 0.958451 33.219749
v 122.721855 0.899859 33.198410
v 122.675255 0.750959 33.248802
v 122.831863 0.750959 32.710861
v 122.534485 0.750959 33.057777
v 122.575233 0.899859 33.055420
v 122.844757 1.007795 32.790462
v 123.234962 0.750959 32.896099
v 123.139252 1.018443 32.986626
v 124.213898 0.750959 30.089262
v 124.207962 0.912342 30.152603
v 124.518654 0.889740 30.639734
v 124.583206 0.750959 30.631672
v 123.919502 0.750959 31.021397
v 124.471512 0.750959 30.942427
v 124.457565 0.889740 30.925030
v 123.924370 0.901041 30.998123
v 123.859482 0.750959 30.486076
v 123.945625 0.912342 30.519781
v 124.056877 1.038898 30.856857
v 124.047241 1.065204 30.533197
v 124.375137 1.053086 30.752577
v 124.178940 1.042840 30.259275
v 124.423515 1.017818 30.669163
v 123.150703 0.750959 29.927069
v 123.171074 0.958451 30.001680
v 123.534248 0.899859 30.389963
v 123.598877 0.750959 30.387062
v 123.165543 0.750959 30.672302
v 123.592812 0.750959 30.634846
v 123.560760 0.899859 30.606209
v 123.202522 1.007795 30.603191
v 122.970764 0.750959 30.233158
v 123.095894 1.018443 30.236893
v 124.909569 0.750959 31.300657
v 124.993279 0.908991 31.381140
v 125.413773 0.899859 31.389900
v 125.472168 0.750959 31.329592
v 125.337685 0.750959 32.064949
v 125.588326 0.750959 31.798325
v 125.521881 0.883205 31.726353
v 125.317871 0.922364 31.987148
v 124.913399 0.750959 31.748426
v 125.000656 0.933012 31.647619
vt 0.949600 0.542649
vt 0.925400 0.542649
vt 0.925400 0.591849
vt 0.949600 0.591849
vt 0.649600 0.916849
vt 0.649600 0.892649
vt 0.600400 0.892649
vt 0.600400 0.916849
vt 0.799600 0.542649
vt 0.750400 0.542649
vt 0.750400 0.641849
vt 0.799600 0.641849
vt 0.849600 0.692649
vt 0.800400 0.692649
vt 0.800400 0.741849
vt 0.849600 0.741849
vt 0.849600 0.691849
vt 0.849600 0.642649
vt 0.750400 0.642649
vt 0.750400 0.691849
vt 0.824600 0.542649
vt 0.800400 0.542649
vt 0.800400 0.641849
vt 0.824600 0.641849
vt 0.599600 0.916849
vt 0.599600 0.892649
vt 0.550400 0.892649
vt 0.550400 0.916849
vt 0.924600 0.642649
vt 0.900400 0.642649
vt 0.900400 0.691849
vt 0.924600 0.691849
vt 0.899600 0.791849
vt 0.875801 0.791849
vt 0.899600 0.743050
vt 0.749600 0.841849
vt 0.749600 0.792649
vt 0.650400 0.792649
vt 0.650400 0.841849
vt 0.924600 0.591849
vt 0.924600 0.542649
vt 0.900400 0.542649
vt 0.900400 0.591849
vt 0.850400 0.866849
vt 0.899600 0.866849
vt 0.899600 0.842649
vt 0.850400 0.842649
vt 0.849600 0.641849
vt 0.849600 0.542649
vt 0.825400 0.542649
vt 0.825400 0.641849
vt 0.800400 0.891849
vt 0.849600 0.891849
vt 0.849600 0.867649
vt 0.800400 0.867649
vt 0.874600 0.641849
vt 0.874600 0.542649
vt 0.850400 0.542649
vt 0.850400 0.641849
vt 0.550400 0.866849
vt 0.649600 0.866849
vt 0.649600 0.842649
vt 0.550400 0.842649
vt 0.899600 0.841849
vt 0.899600 0.792649
vt 0.875400 0.792649
vt 0.875400 0.841849
vt 0.600400 0.891849
vt 0.649600 0.891849
vt 0.649600 0.867649
vt 0.600400 0.867649
vt 0.899600 0.641849
vt 0.899600 0.592649
vt 0.875400 0.592649
vt 0.875400 0.641849
vt 0.650400 0.916849
vt 0.699600 0.916849
vt 0.699600 0.892649
vt 0.650400 0.892649
vt 0.750801 0.841849
vt 0.799600 0.793050
vt 0.799600 0.841849
vt 0.700801 0.891849
vt 0.749600 0.843050
vt 0.749600 0.891849
vt 0.699600 0.843050
vt 0.650801 0.891849
vt 0.699600 0.891849
vt 0.749600 0.743050
vt 0.749600 0.791849
vt 0.650801 0.791849
vt 0.700400 0.891448
vt 0.749199 0.842649
vt 0.700400 0.842649
vt 0.650400 0.742649
vt 0.749199 0.742649
vt 0.650400 0.791448
vt 0.550801 0.841849
vt 0.649600 0.841849
vt 0.649600 0.743050
vt 0.699199 0.842649
vt 0.650400 0.891448
vt 0.650400 0.842649
vt 0.875400 0.742649
vt 0.875400 0.791448
vt 0.899199 0.742649
vt 0.849600 0.841849
vt 0.800801 0.841849
vt 0.849600 0.793050
vt 0.800400 0.841448
vt 0.800400 0.792649
vt 0.849199 0.792649
vt 0.850801 0.891849
vt 0.899600 0.868050
vt 0.899600 0.891849
vt 0.899600 0.692649
vt 0.850400 0.692649
vt 0.850400 0.741849
vt 0.899600 0.741849
vt 0.750400 0.841448
vt 0.750400 0.792649
vt 0.799199 0.792649
vt 0.874600 0.742649
vt 0.850400 0.742649
vt 0.850400 0.841849
vt 0.874600 0.841849
vt 0.550400 0.742649
vt 0.550400 0.841448
vt 0.649199 0.742649
vt 0.749600 0.583154
vt 0.741184 0.650643
vt 0.749600 0.716077
vt 0.684991 0.741849
vt 0.586360 0.738284
vt 0.566030 0.705722
vt 0.602942 0.648663
vt 0.550400 0.609409
vt 0.559395 0.559220
vt 0.615046 0.542649
vt 0.722808 0.558129
vt 0.849600 0.866849
vt 0.849600 0.842649
vt 0.800400 0.842649
vt 0.800400 0.866849
vt 0.899600 0.591849
vt 0.899600 0.542649
vt 0.875400 0.542649
vt 0.875400 0.591849
vt 0.550400 0.891849
vt 0.599600 0.891849
vt 0.599600 0.867649
vt 0.550400 0.867649
vt 0.949600 0.892649
vt 0.925400 0.892649
vt 0.925400 0.916849
vt 0.949600 0.916849
vt 0.924600 0.917649
vt 0.900400 0.917649
vt 0.900400 0.941849
vt 0.924600 0.941849
vt 0.949600 0.867649
vt 0.925400 0.867649
vt 0.925400 0.891849
vt 0.949600 0.891849
vt 0.899600 0.917649
vt 0.875400 0.917649
vt 0.875400 0.941849
vt 0.899600 0.941849
vt 0.874600 0.917649
vt 0.850400 0.917649
vt 0.850400 0.941849
vt 0.874600 0.941849
vt 0.949600 0.842649
vt 0.925400 0.842649
vt 0.925400 0.866849
vt 0.949600 0.866849
vt 0.949600 0.767649
vt 0.925400 0.767649
vt 0.925400 0.791849
vt 0.949600 0.791849
vt 0.825801 0.941849
vt 0.849600 0.941849
vt 0.849600 0.918050
vt 0.774600 0.917649
vt 0.750400 0.917649
vt 0.750400 0.941849
vt 0.774600 0.941849
vt 0.924600 0.592649
vt 0.900400 0.592649
vt 0.900400 0.641849
vt 0.924600 0.641849
vt 0.949600 0.742649
vt 0.925400 0.742649
vt 0.925400 0.766849
vt 0.949600 0.766849
vt 0.949600 0.717649
vt 0.925400 0.717649
vt 0.925400 0.741849
vt 0.949600 0.741849
vt 0.749600 0.917649
vt 0.725400 0.917649
vt 0.725400 0.941849
vt 0.749600 0.941849
vt 0.949600 0.692649
vt 0.925400 0.692649
vt 0.925400 0.716849
vt 0.949600 0.716849
vt 0.925801 0.816849
vt 0.949600 0.816849
vt 0.949600 0.793050
vt 0.799600 0.918050
vt 0.775801 0.941849
vt 0.799600 0.941849
vt 0.800801 0.941849
vt 0.824600 0.918050
vt 0.824600 0.941849
vt 0.749600 0.916849
vt 0.749600 0.892649
vt 0.700400 0.892649
vt 0.700400 0.916849
vt 0.924600 0.741849
vt 0.924600 0.692649
vt 0.900400 0.692649
vt 0.900400 0.741849
vt 0.750400 0.916849
vt 0.799600 0.916849
vt 0.799600 0.892649
vt 0.750400 0.892649
vt 0.699600 0.917649
vt 0.675400 0.917649
vt 0.675400 0.941849
vt 0.699600 0.941849
vt 0.924600 0.841849
vt 0.924600 0.792649
vt 0.900400 0.792649
vt 0.900400 0.841849
vt 0.949600 0.642649
vt 0.925400 0.642649
vt 0.925400 0.666849
vt 0.949600 0.666849
vt 0.599600 0.917649
vt 0.575400 0.917649
vt 0.575400 0.941849
vt 0.599600 0.941849
vt 0.899600 0.916849
vt 0.899600 0.892649
vt 0.850400 0.892649
vt 0.850400 0.916849
vt 0.949600 0.917649
vt 0.925400 0.917649
vt 0.925400 0.941849
vt 0.949600 0.941849
vt 0.924600 0.892649
vt 0.900400 0.892649
vt 0.900400 0.916849
vt 0.924600 0.916849
vt 0.925801 0.841849
vt 0.949600 0.841849
vt 0.949600 0.818050
vt 0.574600 0.917649
vt 0.550400 0.917649
vt 0.550400 0.941849
vt 0.574600 0.941849
vt 0.924600 0.842649
vt 0.900400 0.842649
vt 0.900400 0.891849
vt 0.924600 0.891849
vt 0.624600 0.917649
vt 0.600400 0.917649
vt 0.600400 0.941849
vt 0.624600 0.941849
vt 0.949600 0.592649
vt 0.925400 0.592649
vt 0.925400 0.616849
vt 0.949600 0.616849
vt 0.649600 0.917649
vt 0.625400 0.917649
vt 0.625400 0.941849
vt 0.649600 0.941849
vt 0.949600 0.617649
vt 0.925400 0.617649
vt 0.925400 0.641849
vt 0.949600 0.641849
vt 0.849199 0.917649
vt 0.825400 0.917649
vt 0.825400 0.941448
vt 0.925400 0.841448
vt 0.949199 0.817649
vt 0.925400 0.817649
vt 0.824199 0.917649
vt 0.800400 0.941448
vt 0.800400 0.917649
vt 0.849600 0.916849
vt 0.849600 0.892649
vt 0.800400 0.892649
vt 0.800400 0.916849
vt 0.674600 0.917649
vt 0.650400 0.917649
vt 0.650400 0.941849
vt 0.674600 0.941849
vt 0.949600 0.667649
vt 0.925400 0.667649
vt 0.925400 0.691849
vt 0.949600 0.691849
vt 0.924600 0.791849
vt 0.924600 0.742649
vt 0.900400 0.742649
vt 0.900400 0.791849
vt 0.724600 0.917649
vt 0.700400 0.917649
vt 0.700400 0.941849
vt 0.724600 0.941849
vt 0.925400 0.792649
vt 0.949199 0.792649
vt 0.925400 0.816448
vt 0.899199 0.867649
vt 0.850400 0.867649
vt 0.850400 0.891448
vt 0.775400 0.941448
vt 0.799199 0.917649
vt 0.775400 0.917649
vt 0.799600 0.842649
vt 0.799600 0.881329
vt 0.782480 0.891849
vt 0.750400 0.875667
vt 0.766524 0.848456
vt 0.849600 0.782361
vt 0.832480 0.791849
vt 0.800400 0.772776
vt 0.816524 0.746075
vt 0.849600 0.742649
vt 0.783305 0.692649
vt 0.799600 0.703327
vt 0.799600 0.741849
vt 0.769533 0.740716
vt 0.750400 0.712598
vt 0.799600 0.781397
vt 0.782480 0.791849
vt 0.750400 0.775478
vt 0.766524 0.748301
vt 0.799600 0.742649
vt 0.858581 0.689687
vt 0.850400 0.659594
vt 0.868849 0.642649
vt 0.899600 0.663160
vt 0.899600 0.691849
vn -0.2964 0.4980 0.8150
vn 0.9215 0.2131 -0.3248
vn -0.7881 0.4249 -0.4453
vn -0.3030 0.4687 -0.8298
vn -0.4000 0.5740 0.7145
vn 0.2108 0.2186 -0.9528
vn -0.7938 0.5864 0.1614
vn 0.2940 0.4008 0.8677
vn 0.0655 0.3353 0.9398
vn 0.2950 0.2655 -0.9179
vn 0.7909 0.4953 0.3595
vn -0.7090 0.6937 0.1269
vn 0.2205 0.4243 -0.8782
vn 0.2470 0.3343 0.9095
vn 0.1986 0.5717 -0.7961
vn -0.3892 0.2278 0.8926
vn -0.3067 0.5594 0.7701
vn -0.2830 0.6864 -0.6699
vn -0.6577 0.7118 -0.2463
vn 0.8691 0.3862 -0.3090
vn 0.2598 0.9594 0.1096
vn 0.0272 0.8502 0.5258
vn 0.0053 0.8148 0.5797
vn -0.3682 0.6778 0.6364
vn 0.3216 0.9263 -0.1962
vn 0.1274 0.8520 -0.5079
vn -0.1108 0.9852 -0.1309
vn -0.4562 0.8884 -0.0504
vn -0.1252 0.9787 0.1627
vn -0.3866 0.9079 0.1622
vn -0.2325 0.8283 0.5098
vn -0.3842 0.9099 0.1566
vn -0.0043 0.9739 -0.2271
vn 0.0999 0.8640 -0.4935
vn 0.8928 0.3015 0.3348
vn -0.1049 0.9634 0.2468
vn 0.0000 -1.0000 -0.0000
vn -0.2264 0.3326 0.9155
vn -0.7755 0.1851 -0.6036
vn 0.9405 0.3397 0.0131
vn 0.8001 0.1024 -0.5911
vn 0.7220 0.3051 -0.6209
vn -0.8944 0.2916 0.3393
vn -0.7343 0.3769 -0.5646
vn -0.1741 0.7158 0.6762
vn -0.6748 0.6492 0.3508
vn 0.9028 0.4293 0.0245
vn 0.1471 0.9867 0.0688
vn 0.1414 0.9871 0.0746
vn -0.0423 0.2467 0.9682
vn -0.7347 0.2194 -0.6420
vn 0.9325 0.3210 -0.1655
vn 0.4473 0.3392 -0.8276
vn -0.7182 0.3201 0.6179
vn -0.1238 0.9497 0.2878
vn -0.1705 0.9641 0.2037
vn -0.1918 0.9615 0.1966
vn 0.7963 0.3105 -0.5191
vn 0.1388 0.1423 0.9800
vn -0.7268 0.3570 -0.5867
vn -0.7747 0.6320 0.0184
vn -0.9595 0.2790 0.0398
vn 0.9246 0.2705 0.2680
vn 0.1429 0.7024 0.6973
vn 0.7164 0.5618 -0.4137
vn 0.7976 0.5752 0.1818
vn -0.7725 0.4052 -0.4889
vn -0.0177 0.9965 0.0815
vn 0.1535 0.9848 -0.0815
vn 0.7108 0.2326 -0.6638
vn 0.0745 0.2327 0.9697
vn -0.8398 0.3286 -0.4322
vn -0.8871 0.3162 0.3362
vn 0.9514 0.3052 -0.0419
vn 0.3046 0.9417 -0.1428
vn 0.2780 0.9591 -0.0530
vn 0.2886 0.9568 -0.0354
vn 0.0387 0.4140 -0.9095
vn 0.6858 0.4692 0.5563
vn -0.8935 0.4491 -0.0011
vn -0.5876 0.4514 0.6715
vn 0.8909 0.3856 -0.2402
vn 0.0235 0.9956 -0.0904
vn 0.0629 0.9976 -0.0275
vn 0.1780 0.9840 -0.0085
usemtl STONE_1.003
f 1/1/1 2/2/1 3/3/1 4/4/1
f 5/5/2 6/6/2 7/7/2 8/8/2
f 9/9/3 10/10/3 11/11/3 12/12/3
f 12/13/4 11/14/4 13/15/4 14/16/4
f 15/17/5 16/18/5 17/19/5 18/20/5
f 19/21/6 20/22/6 6/23/6 5/24/6
f 4/25/7 3/26/7 10/27/7 9/28/7
f 18/29/8 17/30/8 2/31/8 1/32/8
f 21/33/9 16/34/9 15/35/9
f 14/36/10 13/37/10 20/38/10 19/39/10
f 16/40/11 7/41/11 22/42/11 23/43/11
f 10/44/12 3/45/12 24/46/12 25/47/12
f 6/48/13 20/49/13 26/50/13 27/51/13
f 2/52/14 17/53/14 28/54/14 29/55/14
f 20/56/15 13/57/15 30/58/15 26/59/15
f 17/60/16 16/61/16 23/62/16 28/63/16
f 3/64/17 2/65/17 29/66/17 24/67/17
f 13/68/18 11/69/18 31/70/18 30/71/18
f 11/72/19 10/73/19 25/74/19 31/75/19
f 7/76/20 6/77/20 27/78/20 22/79/20
f 32/80/21 23/81/21 22/82/21
f 29/83/22 28/84/22 33/85/22
f 33/86/23 28/87/23 34/88/23
f 34/89/24 28/90/24 23/91/24
f 32/92/25 22/93/25 27/94/25
f 26/95/26 30/96/26 32/97/26
f 30/98/27 34/99/27 32/100/27
f 31/101/28 25/102/28 35/103/28
f 33/104/29 34/105/29 35/106/29
f 25/107/30 24/108/30 33/109/30
f 24/110/31 29/111/31 33/112/31
f 25/113/32 33/114/32 35/115/32
f 30/116/33 31/117/33 35/118/33 34/119/33
f 26/120/34 32/121/34 27/122/34
f 8/123/35 7/124/35 16/125/35 21/126/35
f 32/127/36 34/128/36 23/129/36
f 14/130/37 19/131/37 5/132/37 8/133/37 21/134/37 15/135/37 18/136/37 1/137/37 4/138/37 9/139/37 12/140/37
f 36/141/38 37/142/38 38/143/38 39/144/38
f 40/145/39 41/146/39 42/147/39 43/148/39
f 36/149/40 44/150/40 45/151/40 37/152/40
f 43/153/41 46/154/41 47/155/41 45/156/41
f 44/157/42 40/158/42 43/159/42 45/160/42
f 38/161/43 42/162/43 41/163/43 39/164/43
f 42/165/44 48/166/44 46/167/44 43/168/44
f 37/169/45 49/170/45 50/171/45 38/172/45
f 38/173/46 50/174/46 48/175/46 42/176/46
f 45/177/47 47/178/47 49/179/47 37/180/47
f 47/181/48 46/182/48 48/183/48
f 49/184/49 47/185/49 48/186/49 50/187/49
f 51/188/50 52/189/50 53/190/50 54/191/50
f 55/192/51 56/193/51 57/194/51 58/195/51
f 51/196/52 59/197/52 60/198/52 52/199/52
f 59/200/53 55/201/53 58/202/53 60/203/53
f 53/204/54 57/205/54 56/206/54 54/207/54
f 52/208/55 60/209/55 53/210/55
f 53/211/56 60/212/56 58/213/56
f 53/214/57 58/215/57 57/216/57
f 61/217/58 62/218/58 63/219/58 64/220/58
f 65/221/59 66/222/59 67/223/59 68/224/59
f 61/225/60 69/226/60 70/227/60 62/228/60
f 68/229/61 71/230/61 72/231/61 70/232/61
f 69/233/62 65/234/62 68/235/62 70/236/62
f 63/237/63 67/238/63 66/239/63 64/240/63
f 67/241/64 73/242/64 71/243/64 68/244/64
f 62/245/65 74/246/65 75/247/65 63/248/65
f 63/249/66 75/250/66 73/251/66 67/252/66
f 70/253/67 72/254/67 74/255/67 62/256/67
f 72/257/68 71/258/68 73/259/68
f 74/260/69 72/261/69 73/262/69 75/263/69
f 76/264/70 77/265/70 78/266/70 79/267/70
f 80/268/71 81/269/71 82/270/71 83/271/71
f 76/272/72 84/273/72 85/274/72 77/275/72
f 84/276/73 80/277/73 83/278/73 85/279/73
f 78/280/74 82/281/74 81/282/74 79/283/74
f 77/284/75 85/285/75 78/286/75
f 78/287/76 85/288/76 83/289/76
f 78/290/77 83/291/77 82/292/77
f 86/293/78 87/294/78 88/295/78 89/296/78
f 90/297/79 91/298/79 92/299/79 93/300/79
f 86/301/80 94/302/80 95/303/80 87/304/80
f 94/305/81 90/306/81 93/307/81 95/308/81
f 88/309/82 92/310/82 91/311/82 89/312/82
f 87/313/83 95/314/83 88/315/83
f 88/316/84 95/317/84 93/318/84
f 88/319/85 93/320/85 92/321/85
f 36/322/37 39/323/37 41/324/37 40/325/37 44/326/37
f 54/327/37 56/328/37 55/329/37 59/330/37 51/331/37
f 64/332/37 66/333/37 65/334/37 69/335/37 61/336/37
f 79/337/37 81/338/37 80/339/37 84/340/37 76/341/37
f 89/342/37 91/343/37 90/344/37 94/345/37 86/346/37
