mtllib LOW_POLY_set.mtl
o lp_tree1_Icosphere_014
v -33.528206 8.636365 -41.962093
v -34.394527 8.816169 -40.191315
v -35.118786 8.592492 -41.558258
v -31.228176 9.245110 -40.771957
v -33.794548 8.766020 -43.467358
v -32.068905 9.170605 -42.552505
v -32.814411 9.925053 -43.761440
v -30.436779 10.348271 -41.271099
v -31.594574 10.442303 -42.655663
v -34.104237 9.915350 -44.158028
v -33.466473 11.235829 -43.078056
v -32.190380 11.346795 -42.790043
v -35.592663 9.486594 -42.909081
v -35.132248 10.817164 -42.930027
v -36.666710 10.409056 -41.790226
v -35.522915 11.819613 -41.453945
v -34.041100 12.173353 -42.418823
v -34.428528 12.843890 -41.486271
v -32.889153 12.043875 -42.727337
v -33.191799 12.669048 -42.297405
v -33.582420 12.870713 -41.338833
v -36.098854 12.174065 -40.633835
v -34.523903 12.710522 -40.416264
v -36.602127 10.149673 -40.118519
v -35.930141 11.999472 -39.676392
v -35.922596 8.531199 -40.208321
v -35.641380 10.618820 -38.395554
v -36.245781 9.209017 -41.269131
v -34.777203 9.514997 -38.877209
v -33.453239 10.997832 -38.899513
v -34.316902 11.817100 -39.268536
v -31.920872 9.784258 -39.627174
v -30.366631 10.553459 -40.269909
v -30.769711 11.202878 -39.614311
v -32.675987 12.193314 -39.562603
v -30.051596 11.307566 -40.618183
v -31.720324 12.674102 -40.404469
v -31.014793 11.594812 -41.966915
v -31.415056 12.466017 -41.410522
v -32.088089 12.285420 -42.339390
v -32.576271 12.814694 -41.496605
v -33.250843 12.658445 -40.360714
vt 0.809850 0.797954
vt 0.810184 0.797947
vt 0.810012 0.798164
vt 0.809804 0.797510
vt 0.809713 0.798078
vt 0.809609 0.797813
vt 0.809525 0.798058
vt 0.808444 0.797679
vt 0.808415 0.797200
vt 0.809066 0.797225
vt 0.809027 0.797705
vt 0.809328 0.797856
vt 0.809611 0.798184
vt 0.809385 0.798275
vt 0.809186 0.798075
vt 0.809809 0.798321
vt 0.809616 0.798420
vt 0.809902 0.798644
vt 0.809535 0.798720
vt 0.809328 0.798496
vt 0.809280 0.798689
vt 0.809203 0.798325
vt 0.809167 0.798476
vt 0.809140 0.798655
vt 0.809526 0.798905
vt 0.809243 0.798860
vt 0.809950 0.798990
vt 0.809501 0.799100
vt 0.810353 0.799041
vt 0.809829 0.799405
vt 0.810203 0.798779
vt 0.810286 0.798225
vt 0.810092 0.798404
vt 0.810178 0.799451
vt 0.809327 0.799527
vt 0.808886 0.799278
vt 0.809130 0.799132
vt 0.809008 0.799714
vt 0.808721 0.799927
vt 0.808428 0.799399
vt 0.808975 0.800175
vt 0.808113 0.799492
vt 0.808144 0.799091
vt 0.808358 0.799013
vt 0.808826 0.798940
vt 0.808146 0.798851
vt 0.808665 0.798664
vt 0.808113 0.797699
vt 0.808204 0.798025
vt 0.808754 0.798075
vt 0.808760 0.798386
vt 0.809019 0.798308
vt 0.808988 0.798538
vt 0.809005 0.798802
vn 0.0603 -0.9897 0.1300
vn 0.1642 -0.9701 0.1788
vn 0.2927 -0.9469 -0.1333
vn 0.0054 -0.9962 -0.0868
vn 0.3045 -0.9468 -0.1042
vn 0.4841 -0.5764 -0.6583
vn 0.7030 -0.6424 -0.3051
vn 0.7167 -0.3177 -0.6209
vn 0.7073 -0.3151 -0.6328
vn 0.2435 0.5409 -0.8051
vn 0.1462 0.5135 -0.8455
vn 0.2666 -0.4427 -0.8561
vn 0.5817 0.2691 -0.7676
vn -0.4402 -0.5467 -0.7123
vn -0.6634 0.2183 -0.7157
vn -0.2328 0.6806 -0.6947
vn -0.6181 0.2019 -0.7598
vn -0.5741 0.5987 -0.5585
vn -0.5223 0.6348 -0.5694
vn -0.1967 0.4804 -0.8547
vn -0.5420 0.5593 -0.6273
vn -0.5422 0.5596 -0.6268
vn -0.5433 0.5608 -0.6248
vn -0.1728 0.4935 -0.8524
vn -0.1712 0.5005 -0.8487
vn -0.1712 0.5004 -0.8487
vn -0.1710 0.5008 -0.8485
vn -0.3186 0.7019 -0.6370
vn 0.0045 0.9789 -0.2041
vn -0.3320 0.9392 0.0875
vn -0.0522 0.9915 0.1189
vn -0.5436 0.5611 -0.6242
vn -0.9330 0.2871 0.2168
vn -0.3419 0.9120 0.2266
vn -0.9628 0.2590 0.0774
vn -0.5295 0.5775 -0.6214
vn -0.7727 -0.3537 0.5272
vn -0.9209 -0.3884 0.0324
vn -0.8766 0.2157 0.4301
vn -0.9413 -0.3371 -0.0159
vn -0.5171 -0.7842 -0.3431
vn -0.5170 -0.7840 -0.3435
vn -0.5170 -0.7859 -0.3391
vn -0.7998 -0.4521 -0.3950
vn -0.5170 -0.7861 -0.3389
vn -0.3443 -0.5887 0.7314
vn 0.1104 0.5026 0.8574
vn 0.2541 -0.2127 0.9435
vn -0.1121 0.6631 0.7401
vn 0.2082 -0.8318 0.5146
vn 0.2109 -0.8350 0.5083
vn 0.2117 -0.8360 0.5062
vn 0.2672 -0.2245 0.9371
vn 0.2669 -0.2248 0.9371
vn 0.2671 -0.2246 0.9371
vn 0.1536 -0.8532 0.4984
vn 0.5400 -0.5870 0.6032
vn 0.2073 -0.8307 0.5167
vn 0.5179 -0.4269 0.7413
vn 0.2668 -0.2250 0.9371
vn 0.2137 0.3639 0.9066
vn 0.5894 0.6433 0.4887
vn 0.3335 0.6042 0.7237
vn 0.8147 -0.0748 0.5750
vn 0.9248 -0.3803 0.0131
vn 0.8183 0.0604 -0.5715
vn 0.6358 0.7711 0.0334
vn 0.7173 0.5780 -0.3891
vn 0.5800 0.6107 -0.5390
vn 0.2916 0.8770 -0.3818
vn 0.2910 0.8770 -0.3822
vn 0.2909 0.8771 -0.3823
vn 0.2932 0.9500 -0.1075
vn -0.0063 0.9912 0.1326
vn 0.0834 0.9793 0.1843
vn 0.2903 0.8771 -0.3827
vn 0.0238 0.9802 -0.1965
vn 0.0055 0.8657 0.5006
vn -0.0918 0.8302 0.5499
vn 0.0055 0.7896 0.6136
vn 0.0312 0.9789 0.2019
vn 0.1850 0.6161 -0.7656
vn 0.3057 0.3848 -0.8709
vn 0.4929 0.3324 -0.8041
vn 0.7670 -0.0025 -0.6416
vn 0.5266 0.2250 -0.8198
vn 0.0543 0.4571 0.8878
vn 0.8234 -0.5645 0.0580
vn -0.0686 0.7812 0.6205
vn 0.1823 -0.9812 0.0640
vn 0.1890 0.2742 -0.9429
vn -0.4434 -0.8111 -0.3813
usemtl Material.004
f 1/1/1 2/2/1 3/3/1
f 1/1/2 4/4/2 2/2/2
f 1/1/3 5/5/3 6/6/3
f 1/1/4 3/3/4 5/5/4
f 4/4/5 1/1/5 6/6/5
f 6/6/6 5/5/6 7/7/6
f 8/8/7 4/9/7 6/10/7
f 8/8/8 6/10/8 9/11/8
f 6/6/9 7/7/9 9/12/9
f 7/7/10 10/13/10 11/14/10
f 12/15/11 7/7/11 11/14/11
f 5/5/12 10/13/12 7/7/12
f 9/12/13 7/7/13 12/15/13
f 5/5/14 13/16/14 10/13/14
f 10/13/15 13/16/15 14/17/15
f 10/13/16 14/17/16 11/14/16
f 14/17/17 13/16/17 15/18/17
f 14/17/18 15/18/18 16/19/18
f 14/17/19 16/19/19 17/20/19
f 11/14/20 14/17/20 17/20/20
f 17/20/21 16/19/22 18/21/23
f 11/14/24 17/20/25 19/22/26
f 19/22/26 17/20/25 20/23/27
f 20/23/28 17/20/28 18/21/28
f 20/23/29 18/21/29 21/24/29
f 18/21/30 22/25/30 23/26/30
f 18/21/31 23/26/31 21/24/31
f 16/19/22 22/25/32 18/21/23
f 24/27/33 25/28/33 22/25/33
f 22/25/34 25/28/34 23/26/34
f 15/18/35 24/27/35 22/25/35
f 15/18/36 22/25/36 16/19/36
f 24/27/37 26/29/37 27/30/37
f 28/31/38 26/29/38 24/27/38
f 24/27/39 27/30/39 25/28/39
f 28/31/40 24/27/40 15/18/40
f 3/3/41 26/32/42 28/33/43
f 13/16/44 28/33/44 15/18/44
f 3/3/41 28/33/43 13/16/45
f 26/29/46 29/34/46 27/30/46
f 27/35/47 30/36/47 31/37/47
f 29/38/48 30/36/48 27/35/48
f 27/35/49 31/37/49 25/28/49
f 2/39/50 32/40/51 29/38/52
f 29/38/53 32/40/54 30/36/55
f 2/39/56 29/38/56 26/41/56
f 4/42/57 33/43/57 32/40/57
f 2/39/50 4/42/58 32/40/51
f 32/40/59 33/43/59 34/44/59
f 30/36/55 32/40/54 34/44/60
f 30/36/61 34/44/61 35/45/61
f 34/44/62 36/46/62 37/47/62
f 34/44/63 37/47/63 35/45/63
f 33/43/64 36/46/64 34/44/64
f 33/48/65 8/8/65 36/49/65
f 36/49/66 8/8/66 38/50/66
f 36/49/67 39/51/67 37/47/67
f 36/49/68 38/50/68 39/51/68
f 38/50/69 40/52/69 39/51/69
f 39/51/70 40/52/71 41/53/72
f 37/47/73 39/51/73 41/53/73
f 42/54/74 37/47/74 41/53/74
f 42/54/75 41/53/75 21/24/75
f 41/53/72 40/52/71 20/23/76
f 41/53/77 20/23/77 21/24/77
f 35/45/78 37/47/78 42/54/78
f 31/37/79 35/45/79 42/54/79
f 23/26/80 31/37/80 42/54/80
f 23/26/81 42/54/81 21/24/81
f 40/52/82 19/22/82 20/23/82
f 12/15/83 19/22/83 40/52/83
f 38/50/84 12/15/84 40/52/84
f 8/8/85 9/11/85 38/50/85
f 9/11/86 12/15/86 38/50/86
f 30/36/87 35/45/87 31/37/87
f 33/48/88 4/9/88 8/8/88
f 25/28/89 31/37/89 23/26/89
f 3/3/90 2/2/90 26/32/90
f 12/15/91 11/14/91 19/22/91
f 5/5/92 3/3/92 13/16/92
