mtllib LOW_POLY_set.mtl
o lp_tree3_Icosphere_007_tree3_Icosphere_013
v -31.021282 2.676856 1.949431
v -31.302711 3.008399 0.668484
v -30.643253 2.332627 1.171929
v -29.715864 1.750309 1.834869
v -30.212406 2.192006 3.226142
v -31.812534 2.301436 3.414254
v -30.930838 2.319483 4.219611
v -29.378527 2.619339 4.102793
v -28.841261 1.777119 3.281177
v -29.911518 3.170456 4.668538
v -28.370983 2.993663 4.245212
v -29.178894 3.810906 4.373335
v -27.908264 2.329360 3.014615
v -28.029043 3.517374 3.785259
v -28.027575 3.574311 2.480814
v -28.644077 1.782867 2.033020
v -28.294624 2.679558 1.363506
v -29.353004 2.536522 0.392951
v -29.583122 3.856924 -0.141941
v -28.743704 3.980020 1.195183
v -30.778513 3.421779 -0.738897
v -30.428043 2.588760 0.229110
v -29.019802 4.327647 3.490033
v -35.706879 2.354165 5.902016
v -34.721275 2.621920 6.388870
v -35.418270 2.439121 6.620473
v -36.283966 2.486567 6.742973
v -36.723957 2.588309 4.025453
v -37.069527 2.335848 4.940243
v -37.571770 2.992945 4.170206
v -34.457932 2.834640 4.537999
v -35.572056 2.927769 4.210757
v -34.873791 3.007660 3.836967
v -34.285938 3.071131 7.431666
v -34.458839 3.642878 7.418157
v -35.539532 3.552576 7.199160
v -36.610737 2.935585 6.691007
v -36.654404 4.093668 6.525461
v -37.261578 3.368713 5.854156
v -37.119091 3.543338 3.710357
v -33.544281 2.809849 4.493026
v -35.302025 4.647254 6.868749
v -34.004974 4.403730 6.955887
v -35.068020 5.058411 6.717678
v -33.825535 2.786045 3.992071
v -33.093674 2.980738 4.418981
v -33.989124 3.167427 3.967416
v -37.737556 3.923541 4.881506
v -37.161461 4.257947 5.910091
v -35.994755 4.305336 6.731253
v -36.123486 4.848487 6.524541
v -35.218433 4.042657 7.235650
v -32.912262 2.635247 6.139665
v -31.972221 3.098410 6.123461
v -33.015682 3.037220 6.764066
v -32.105938 2.768118 5.212654
v -35.736534 2.811672 3.493967
v -35.783264 3.079504 3.438606
v -37.794113 2.785444 4.953541
v -37.619072 2.467094 4.810081
v -37.277035 2.525213 5.704193
v -36.140301 3.624495 7.013627
v -35.885468 2.940863 7.039178
v -33.288021 2.776349 6.926234
v -33.858509 2.665953 6.982368
v -33.704178 2.789336 5.377384
v -34.617199 2.912997 5.237403
v -34.760311 2.766270 5.777593
v -35.456188 2.811280 4.901997
v -36.221340 2.503225 4.732337
v -36.507366 2.201484 5.733044
v -36.782562 2.373652 6.210820
v -34.681011 2.604906 6.953043
v -34.077000 2.665199 6.293409
v -35.654800 3.334595 -0.853867
v -36.667362 3.561677 0.055480
v -36.467831 5.097439 -0.616848
v -32.662888 3.989073 6.850473
v -31.294863 3.805524 6.728066
v -32.084999 4.719477 7.139104
v -37.749290 4.832198 4.808965
v -37.300495 5.522446 5.550785
v -37.961941 5.243525 4.562955
v -35.002682 4.245870 -1.580258
v -29.820707 4.895529 -0.303143
v -29.993546 5.792878 -0.427501
v -29.110870 5.402012 0.525242
v -29.041325 5.162356 4.244059
v -28.913481 5.761298 3.754847
v -29.444590 5.736537 4.980824
v -34.042648 5.106838 6.951741
v -36.348919 7.951847 1.904478
v -35.738747 7.926918 2.601853
v -35.162949 8.755792 2.292067
v -32.169857 7.961437 -0.529751
v -33.189468 8.305377 -0.364132
v -32.130672 8.385308 0.529806
v -30.379774 7.411631 2.277959
v -31.050474 7.733521 0.986342
v -30.527954 8.063465 2.237171
v -31.850574 7.579146 5.408394
v -31.232071 7.942945 5.065582
v -32.331787 8.431609 4.958107
v -33.683807 8.723730 3.858556
v -32.651031 8.660300 3.994206
v -32.181301 8.714765 3.068100
v -34.765545 8.142649 4.982533
v -33.971558 8.392521 4.837865
v -31.880716 8.526129 3.584102
v -33.229202 8.568672 4.830172
v -34.825256 7.833127 6.137694
v -33.867378 8.008125 5.671234
v -32.937466 7.961390 5.363421
v -31.570444 8.397615 4.444850
v -30.894054 8.252432 3.292540
v -30.764208 7.860882 4.221996
v -30.403170 7.698745 3.147363
v -31.818689 8.621393 2.249694
v -31.032204 8.309492 1.528316
v -32.584740 8.669147 2.546039
v -32.285145 8.599539 1.715207
v -31.668785 7.799202 0.329120
v -33.071430 8.578228 1.143013
v -34.121815 8.702534 1.785189
v -34.893845 8.401598 0.673917
v -35.986092 8.315810 1.346089
v -34.750263 8.851468 3.008113
v -33.140900 8.733356 3.126282
v -34.714066 8.479311 3.789766
v -35.640244 7.895900 3.641588
v -35.855186 7.900922 5.291054
v -33.557323 5.943016 6.950332
v -34.846127 6.237442 7.139144
v -34.407688 7.231939 6.706791
v -33.262924 7.034753 6.152455
v -31.760824 5.781555 6.705421
v -31.901192 6.465474 5.842146
v -30.851318 6.720339 5.482572
v -29.668663 6.646116 4.518948
v -30.725592 7.319110 4.825992
v -30.170164 7.250792 3.904396
v -29.440096 6.771325 3.637892
v -29.971527 7.082980 2.980589
v -30.034729 6.992376 1.779156
v -29.554155 6.435547 1.617427
v -30.490469 7.347234 0.748595
v -30.186346 6.843891 0.221586
v -31.103022 7.579996 0.089525
v -30.804054 6.934523 -0.664107
v -31.705153 7.320577 -0.534761
v -32.857197 7.086807 -1.364015
v -34.261482 5.743471 -1.948836
v -34.601135 7.321606 -0.394095
v -35.651199 5.805549 -0.843010
v -36.387329 7.496964 0.129594
v -37.547485 5.695150 0.065907
v -37.423561 7.285748 1.142217
v -37.745632 7.275423 2.388499
v -38.311619 5.891113 3.579825
v -37.428165 7.267103 3.556016
v -37.368267 5.975106 4.892450
v -36.532745 7.287602 4.939582
v -37.012127 6.429501 6.158453
v -36.056805 7.223677 6.484547
v -30.696716 5.974185 6.214780
v -30.753902 4.872274 6.767862
v -29.968885 5.346357 6.003213
v -30.202774 4.031581 6.053121
v -29.661995 4.744235 5.328125
v -28.844791 5.423184 2.714295
v -28.712929 4.994607 1.614549
v -28.843624 4.413130 2.465957
v -29.098337 4.424114 1.354445
v -31.887899 6.345190 -1.883649
v -30.740812 5.638032 -1.505792
v -33.038467 4.842110 -2.394697
v -31.562450 3.854557 -2.044229
v -33.850388 3.295536 -1.936197
v -38.287216 5.783019 1.651019
v -37.965225 4.471956 0.746888
v -38.713470 5.047874 2.843633
v -37.589088 3.242111 2.032064
v -36.026207 6.389799 7.002296
v -36.796860 5.638257 6.417016
v -35.636639 5.547541 6.928399
v -30.865267 3.203252 6.018045
v -30.637272 2.741676 5.037678
v -29.586979 4.388902 4.525571
v -32.540249 2.586219 -1.592717
v -32.707592 2.556965 1.041493
v -33.639347 2.425693 0.031090
v -31.717329 2.725096 -0.415857
v -34.632465 2.575809 -0.610993
v -35.510361 2.350732 0.891500
v -34.819096 2.458742 2.238446
v -37.230309 3.392324 3.097001
v -33.621403 3.293627 3.265173
v -31.508532 2.944528 1.573816
v -32.275723 2.704347 2.620884
v -29.612162 4.006502 4.249659
v -30.032579 4.284798 -0.230685
v -36.194328 5.144424 6.268221
v -35.614796 5.081507 6.530684
v -34.124996 4.762047 6.706264
v -33.939655 3.877072 4.375963
v -32.940464 3.420417 4.681745
v -34.992924 4.021415 3.981978
v -35.608604 3.720762 3.694226
v -37.432655 4.422070 4.731613
v -37.158752 4.783844 5.388764
v -36.825493 4.971749 5.815293
v -32.860687 3.748913 6.549262
vt 0.842643 0.814010
vt 0.842757 0.813678
vt 0.842965 0.813968
vt 0.843108 0.814252
vt 0.842697 0.814446
vt 0.842263 0.814212
vt 0.842823 0.815479
vt 0.842805 0.815064
vt 0.843146 0.815168
vt 0.843091 0.814683
vt 0.842307 0.814523
vt 0.843173 0.815479
vt 0.843422 0.815066
vt 0.843433 0.815451
vt 0.843384 0.814671
vt 0.843658 0.815010
vt 0.843766 0.814611
vt 0.843262 0.814413
vt 0.843514 0.814297
vt 0.843407 0.813909
vt 0.843968 0.813682
vt 0.843997 0.814228
vt 0.843238 0.813057
vt 0.843794 0.813217
vt 0.843313 0.813524
vt 0.843128 0.813746
vt 0.844010 0.815394
vt 0.844127 0.815003
vt 0.844842 0.798372
vt 0.845187 0.798614
vt 0.844854 0.798623
vt 0.844497 0.798620
vt 0.844697 0.797786
vt 0.844448 0.798058
vt 0.844335 0.797678
vt 0.845486 0.797895
vt 0.845156 0.797795
vt 0.845377 0.797638
vt 0.845214 0.799075
vt 0.845122 0.799322
vt 0.844656 0.799132
vt 0.844377 0.798601
vt 0.843996 0.798775
vt 0.844098 0.798392
vt 0.844449 0.797385
vt 0.845753 0.797901
vt 0.844706 0.799710
vt 0.845283 0.799787
vt 0.844770 0.799942
vt 0.845671 0.797667
vt 0.845999 0.797913
vt 0.845820 0.797618
vt 0.845684 0.797506
vt 0.843897 0.797559
vt 0.843817 0.798594
vt 0.843680 0.798198
vt 0.844401 0.799483
vt 0.844339 0.799785
vt 0.844821 0.799413
vt 0.845877 0.798631
vt 0.846300 0.798743
vt 0.845937 0.798970
vt 0.846307 0.798374
vt 0.845117 0.797597
vt 0.845060 0.797525
vt 0.844118 0.798021
vt 0.844269 0.798007
vt 0.844305 0.798278
vt 0.843936 0.799038
vt 0.843668 0.799052
vt 0.844253 0.798922
vt 0.844413 0.799100
vt 0.844525 0.798818
vt 0.845658 0.798987
vt 0.845431 0.798953
vt 0.845700 0.798275
vt 0.845392 0.798155
vt 0.845286 0.798392
vt 0.845121 0.798034
vt 0.844816 0.797985
vt 0.844563 0.798309
vt 0.844431 0.798434
vt 0.845073 0.798846
vt 0.845478 0.798657
vt 0.840154 0.810481
vt 0.840155 0.810526
vt 0.840081 0.810517
vt 0.839365 0.810897
vt 0.839287 0.810829
vt 0.839364 0.810799
vt 0.840022 0.810742
vt 0.839985 0.810766
vt 0.840010 0.810722
vt 0.840120 0.810457
vt 0.840126 0.810280
vt 0.840091 0.810274
vt 0.840118 0.810230
vt 0.839399 0.810242
vt 0.839466 0.810200
vt 0.839423 0.810321
vt 0.839511 0.810891
vt 0.839921 0.810546
vt 0.839881 0.810551
vt 0.839869 0.810501
vt 0.839960 0.810350
vt 0.839942 0.810396
vt 0.839896 0.810337
vt 0.839668 0.810205
vt 0.839783 0.810201
vt 0.839705 0.810259
vt 0.839580 0.810481
vt 0.839602 0.810425
vt 0.839652 0.810478
vt 0.839769 0.810497
vt 0.839731 0.810449
vt 0.839783 0.810398
vt 0.839754 0.810625
vt 0.839723 0.810566
vt 0.839729 0.810401
vt 0.839697 0.810517
vt 0.839701 0.810699
vt 0.839668 0.810613
vt 0.839638 0.810545
vt 0.839652 0.810420
vt 0.839676 0.810334
vt 0.839620 0.810366
vt 0.839646 0.810283
vt 0.839805 0.810365
vt 0.839759 0.810263
vt 0.839809 0.810399
vt 0.839841 0.810384
vt 0.839886 0.810246
vt 0.839945 0.810299
vt 0.839876 0.810403
vt 0.839864 0.810450
vt 0.839922 0.810471
vt 0.839923 0.810518
vt 0.839838 0.810504
vt 0.839796 0.810439
vt 0.839804 0.810543
vt 0.839850 0.810591
vt 0.839818 0.810702
vt 0.839521 0.810788
vt 0.839628 0.810830
vt 0.839639 0.810722
vt 0.839566 0.810648
vt 0.839387 0.810684
vt 0.839390 0.810577
vt 0.839484 0.810546
vt 0.839507 0.810442
vt 0.839511 0.810305
vt 0.839566 0.810396
vt 0.839583 0.810305
vt 0.839548 0.810233
vt 0.839608 0.810213
vt 0.839643 0.810118
vt 0.839621 0.810062
vt 0.839724 0.810112
vt 0.839548 0.809917
vt 0.839718 0.810026
vt 0.839845 0.810154
vt 0.840044 0.810230
vt 0.840028 0.810286
vt 0.839984 0.810268
vt 0.839989 0.810321
vt 0.840018 0.810384
vt 0.840073 0.810433
vt 0.839982 0.810451
vt 0.840057 0.810482
vt 0.839979 0.810516
vt 0.840053 0.810566
vt 0.839978 0.810565
vt 0.839963 0.810604
vt 0.839998 0.810676
vt 0.839938 0.810637
vt 0.839963 0.810733
vt 0.839879 0.810692
vt 0.839841 0.810983
vt 0.839800 0.810891
vt 0.839905 0.810932
vt 0.839885 0.810762
vt 0.839757 0.810810
vt 0.839419 0.810465
vt 0.839286 0.810723
vt 0.839293 0.810515
vt 0.839360 0.810414
vt 0.839211 0.810769
vt 0.839229 0.810441
vt 0.839308 0.810355
vt 0.839473 0.810099
vt 0.839471 0.809994
vt 0.839366 0.810034
vt 0.839391 0.809954
vt 0.840176 0.810231
vt 0.840058 0.810358
vt 0.840087 0.810321
vt 0.840101 0.810403
vt 0.840134 0.810370
vt 0.840141 0.810426
vt 0.840026 0.810615
vt 0.840080 0.810609
vt 0.840030 0.810661
vt 0.840132 0.810585
vt 0.840114 0.810664
vt 0.839712 0.810872
vt 0.839762 0.810957
vt 0.839659 0.810932
vt 0.839224 0.810854
vt 0.839135 0.810890
vt 0.839284 0.810257
vt 0.840159 0.810399
vt 0.840219 0.810399
vt 0.840194 0.810426
vt 0.840182 0.810367
vt 0.840176 0.810449
vt 0.840205 0.810485
vt 0.840245 0.810469
vt 0.840191 0.810621
vt 0.840204 0.810668
vt 0.840108 0.810702
vt 0.840286 0.810424
vt 0.840215 0.810352
vt 0.840256 0.810345
vt 0.840241 0.810360
vt 0.840298 0.810377
vt 0.840275 0.810387
vt 0.843427 0.815581
vt 0.844106 0.813512
vt 0.844148 0.815384
vt 0.844104 0.814584
vt 0.844138 0.814307
vt 0.844148 0.813604
vt 0.844314 0.799921
vt 0.844539 0.799904
vt 0.845170 0.799950
vt 0.846288 0.797643
vt 0.846307 0.797971
vt 0.845679 0.797092
vt 0.845267 0.797166
vt 0.845064 0.797254
vt 0.843935 0.797285
vt 0.843664 0.797126
vt 0.843482 0.798611
vt 0.843504 0.798758
vt 0.843549 0.799043
vt 0.845744 0.799782
vt 0.846304 0.799086
vt 0.840026 0.810776
vt 0.840053 0.810746
vt 0.840017 0.810795
vt 0.839779 0.811045
vt 0.839698 0.811014
vt 0.839637 0.810998
vt 0.839587 0.810960
vt 0.839496 0.810929
vt 0.839357 0.810929
vt 0.839278 0.810922
vt 0.839102 0.810962
vt 0.839207 0.810963
vt 0.839099 0.810857
vt 0.839169 0.810295
vt 0.839249 0.810245
vt 0.839325 0.810152
vt 0.840146 0.810301
vt 0.840162 0.810336
vt 0.839195 0.811054
vt 0.839072 0.811057
vt 0.840200 0.810738
vt 0.840249 0.810724
vt 0.840238 0.810767
vt 0.840298 0.810750
vt 0.840261 0.810790
vt 0.840180 0.810723
vt 0.840105 0.810718
vn -0.7046 -0.7090 -0.0287
vn -0.5748 -0.8165 0.0541
vn -0.0999 -0.9495 -0.2973
vn 0.2021 -0.9422 0.2671
vn -0.2523 -0.7534 0.6073
vn -0.2912 -0.9369 0.1935
vn -0.0579 -0.9946 0.0857
vn 0.1768 -0.6165 0.7672
vn 0.1330 -0.6444 0.7530
vn 0.2761 0.1235 0.9532
vn 0.1342 -0.6468 0.7508
vn 0.8797 -0.1926 0.4347
vn 0.4961 0.3671 0.7868
vn 0.5364 -0.6417 0.5481
vn 0.9952 0.0977 0.0054
vn 0.5244 -0.8478 0.0789
vn 0.7927 -0.5316 -0.2983
vn 0.9735 -0.0048 -0.2288
vn 0.5733 -0.6218 -0.5336
vn 0.8184 0.2136 -0.5335
vn 0.8773 0.2499 -0.4098
vn 0.6784 -0.1712 -0.7145
vn 0.1108 -0.8840 -0.4541
vn -0.5550 -0.7192 -0.4180
vn 0.5035 -0.2476 -0.8278
vn -0.1117 -0.9003 -0.4206
vn 0.4483 0.7340 0.5102
vn 0.6265 0.7787 0.0347
vn 0.0303 -0.9995 0.0002
vn 0.2571 -0.9663 0.0110
vn -0.0357 -0.9907 0.1315
vn -0.4499 -0.8027 -0.3915
vn -0.0131 -0.9726 -0.2323
vn 0.1064 -0.9942 -0.0137
vn 0.0544 -0.9924 -0.1106
vn -0.1956 -0.0360 0.9800
vn -0.7723 0.0613 0.6323
vn -0.3436 -0.4194 -0.8403
vn -0.0372 -0.9751 -0.2186
vn 0.0015 0.3441 0.9389
vn 0.3307 -0.9331 -0.1413
vn 0.4695 0.1451 -0.8710
vn -0.2282 -0.9580 0.1737
vn 0.1461 -0.0013 -0.9893
vn -0.8217 0.2464 -0.5139
vn -0.8798 0.0695 0.4702
vn -0.7649 0.0457 0.6425
vn -0.3408 0.2631 0.9026
vn -0.3146 0.2716 0.9095
vn -0.3352 0.2644 0.9043
vn -0.4689 0.2440 0.8488
vn -0.3792 0.4412 0.8134
vn 0.0724 0.5247 0.8482
vn 0.0364 0.5029 0.8636
vn -0.2031 0.0603 0.9773
vn 0.3782 -0.7486 0.5446
vn 0.4313 -0.8666 0.2509
vn 0.3903 -0.1206 -0.9128
vn -0.2729 -0.2402 -0.9316
vn 0.1751 -0.9774 0.1181
vn 0.2942 -0.9517 -0.0877
vn 0.3024 -0.9416 -0.1481
vn 0.2675 -0.9590 0.0939
vn -0.3539 -0.4218 -0.8348
vn -0.9637 0.0311 -0.2653
vn -0.8786 0.0735 0.4719
vn -0.8807 -0.3320 -0.3379
vn -0.0335 -0.7709 -0.6360
vn -0.2656 -0.9501 0.1634
vn -0.7583 -0.5642 0.3267
vn -0.8338 -0.0818 0.5460
vn -0.8080 -0.0887 0.5825
vn -0.3617 0.2555 0.8966
vn -0.3907 0.4227 0.8177
vn -0.2231 0.4138 0.8826
vn -0.6446 0.0843 0.7599
vn -0.4286 -0.1263 0.8946
vn -0.3026 -0.0773 0.9500
vn -0.2269 -0.1243 0.9660
vn 0.4798 0.2285 0.8471
vn 0.4625 0.1605 0.8719
vn 0.4656 0.0627 0.8828
vn 0.7434 -0.4996 0.4447
vn 0.1957 -0.6284 0.7529
vn 0.2084 -0.9405 0.2683
vn 0.2307 -0.8291 -0.5093
vn -0.0304 -0.9854 -0.1676
vn -0.0160 -0.9995 -0.0261
vn -0.0285 -0.9992 -0.0283
vn -0.1081 -0.9904 0.0863
vn 0.1990 -0.9578 -0.2074
vn 0.1944 -0.9614 -0.1946
vn 0.4165 -0.8288 -0.3736
vn 0.4057 -0.8877 -0.2176
vn 0.3154 -0.8893 -0.3313
vn 0.3543 -0.8953 -0.2699
vn 0.1382 -0.9669 -0.2146
vn 0.2275 -0.9484 -0.2209
vn 0.1273 -0.9591 -0.2528
vn -0.3787 -0.9186 0.1129
vn -0.3988 -0.9095 0.1171
vn 0.1322 -0.9612 0.2421
vn -0.0933 -0.9526 0.2895
vn -0.7255 -0.3052 0.6168
vn -0.6325 -0.3823 0.6737
vn -0.4224 -0.2052 0.8829
vn 0.0808 -0.5932 0.8010
vn -0.1495 -0.7119 0.6862
vn -0.1294 -0.6548 0.7446
vn -0.1455 -0.9863 0.0774
vn -0.0455 -0.9873 -0.1523
vn -0.1056 -0.9788 -0.1756
vn 0.0460 -0.9670 -0.2505
vn 0.0310 -0.9723 -0.2316
vn 0.3616 -0.9019 -0.2361
vn 0.0296 -0.7281 0.6848
vn 0.2390 -0.9699 -0.0463
vn 0.0619 -0.9975 -0.0345
vn 0.0748 -0.9969 -0.0226
vn -0.0245 -0.9997 0.0089
vn -0.6787 -0.2188 -0.7011
vn 0.0304 -0.3880 0.9211
vn -0.8174 -0.0815 0.5703
vn -0.6108 -0.1779 -0.7716
vn 0.7429 0.0506 -0.6675
vn 0.9089 0.1297 0.3964
vn -0.1434 -0.2635 0.9539
vn -0.5868 0.6077 0.5352
vn 0.2430 0.8975 -0.3680
vn 0.8909 0.1763 -0.4187
vn 0.8502 0.2989 -0.4333
vn 0.8713 0.2394 -0.4284
vn 0.1528 0.5276 0.8356
vn 0.0501 0.9952 0.0839
vn -0.2506 0.9370 0.2433
vn 0.2660 0.9450 0.1905
vn 0.0155 0.9458 0.3244
vn -0.2311 0.9715 -0.0533
vn 0.1216 0.9741 0.1908
vn -0.2518 0.9380 0.2383
vn 0.0359 0.9092 0.4149
vn -0.2041 0.8790 0.4310
vn 0.2547 0.7043 0.6627
vn -0.0069 0.6579 0.7530
vn 0.1507 0.5269 0.8365
vn 0.1624 0.9708 0.1766
vn 0.3082 0.9372 0.1631
vn 0.2076 0.9756 0.0708
vn 0.2788 0.9594 0.0428
vn 0.3301 0.8382 0.4341
vn 0.5834 0.7733 0.2484
vn 0.5833 0.7745 0.2448
vn 0.7591 0.6311 0.1598
vn 0.7590 0.6336 0.1498
vn 0.9747 0.2187 -0.0460
vn 0.3317 0.9426 0.0394
vn 0.4452 0.8954 -0.0059
vn 0.0218 0.9944 -0.1038
vn 0.0347 0.9969 -0.0710
vn 0.3695 0.9292 0.0011
vn 0.1914 0.9596 -0.2063
vn 0.2019 0.9681 -0.1486
vn 0.8091 0.3889 -0.4406
vn 0.6519 0.5086 -0.5625
vn 0.5491 0.6233 -0.5567
vn 0.7023 0.6516 -0.2866
vn 0.0936 0.9818 -0.1652
vn 0.0267 0.9969 -0.0739
vn 0.0646 0.9941 -0.0868
vn 0.0365 0.9989 -0.0299
vn 0.0443 0.9929 -0.1101
vn 0.0423 0.9950 -0.0903
vn 0.0811 0.9796 -0.1837
vn -0.0505 0.9834 -0.1741
vn -0.0322 0.9701 -0.2404
vn -0.1674 0.9748 -0.1477
vn -0.1152 0.9352 -0.3348
vn -0.5864 0.7980 0.1391
vn 0.0489 0.9859 -0.1599
vn 0.0134 0.9952 -0.0973
vn 0.0211 0.9994 0.0288
vn 0.0759 0.9964 -0.0375
vn 0.0348 0.9030 0.4283
vn -0.2188 0.9643 -0.1495
vn -0.2393 0.9371 0.2542
vn -0.7137 0.6186 0.3287
vn -0.6994 0.7094 0.0874
vn -0.5354 0.7527 0.3832
vn -0.5235 0.8491 -0.0708
vn -0.1372 0.9548 0.2636
vn -0.1419 0.9580 0.2493
vn 0.1283 -0.0728 0.9891
vn 0.1807 0.7394 0.6485
vn 0.2071 0.3118 0.9273
vn 0.4513 0.4440 0.7741
vn 0.4299 0.6004 0.6743
vn 0.2854 0.5613 0.7769
vn -0.0851 0.0511 0.9951
vn 0.1566 0.3320 0.9302
vn 0.1611 0.5536 0.8170
vn 0.4277 0.7411 0.5175
vn 0.3891 0.5142 0.7643
vn 0.0875 0.3581 0.9296
vn 0.2644 0.3841 0.8846
vn 0.5724 0.4790 0.6656
vn 0.7505 0.4104 0.5180
vn 0.7668 0.5017 0.4004
vn 0.7666 0.5016 0.4009
vn 0.7830 0.4871 0.3869
vn 0.5414 0.5670 0.6208
vn 0.5725 0.7676 0.2881
vn 0.7504 0.5151 0.4141
vn 0.7467 0.6473 0.1532
vn 0.8398 0.3957 0.3718
vn 0.8364 0.4690 0.2836
vn 0.5948 0.7599 0.2623
vn 0.5391 0.8414 -0.0369
vn 0.8261 0.5584 0.0762
vn 0.7831 0.5966 -0.1759
vn 0.6603 0.7338 -0.1600
vn 0.7393 0.6663 -0.0975
vn 0.8050 0.5580 -0.2013
vn 0.5754 0.8175 0.0270
vn 0.7611 0.6283 -0.1609
vn 0.6203 0.7142 -0.3242
vn 0.5080 0.8436 -0.1742
vn 0.2891 0.9406 -0.1780
vn 0.7403 0.4463 -0.5028
vn 0.7579 0.4378 -0.4837
vn 0.6155 0.7024 -0.3574
vn 0.2533 0.7821 -0.5693
vn 0.1299 0.8650 -0.4847
vn 0.7604 0.5540 -0.3390
vn 0.0953 0.6468 -0.7566
vn -0.3096 0.6327 -0.7098
vn -0.6156 0.1127 -0.7800
vn -0.3553 0.5332 -0.7678
vn -0.3957 0.5893 -0.7044
vn -0.5058 0.5477 -0.6664
vn -0.2186 0.4132 -0.8840
vn -0.1456 0.6754 -0.7229
vn -0.3393 0.8284 -0.4457
vn -0.4387 0.2284 -0.8691
vn -0.4321 0.2189 -0.8749
vn -0.4285 0.2748 -0.8608
vn -0.4288 0.2703 -0.8620
vn -0.4261 0.3044 -0.8519
vn -0.6690 0.4516 -0.5904
vn -0.5097 0.7822 -0.3584
vn -0.5897 0.7961 0.1357
vn -0.3232 0.8925 0.3147
vn -0.8179 0.5290 0.2262
vn -0.7617 0.3826 0.5229
vn -0.3163 0.9441 0.0927
vn -0.3337 0.9408 0.0597
vn -0.7283 0.4761 0.4929
vn -0.7487 0.4595 0.4778
vn -0.3335 0.9208 0.2022
vn -0.6436 0.7605 -0.0862
vn -0.7916 0.4624 0.3995
vn -0.9634 0.1642 0.2121
vn -0.8434 0.5353 0.0451
vn -0.6675 0.7066 0.2349
vn -0.7177 0.6507 0.2480
vn -0.2993 0.8507 0.4322
vn 0.2283 0.3443 0.9107
vn 0.1349 0.7872 0.6017
vn 0.2223 0.3097 0.9245
vn 0.0700 0.7060 0.7047
vn 0.3190 0.4119 0.8536
vn 0.5317 0.3577 0.7677
vn 0.6509 0.5961 0.4701
vn 0.6040 0.5907 0.5351
vn 0.2833 -0.1788 0.9422
vn 0.5455 -0.3058 0.7803
vn 0.7253 -0.1032 0.6806
vn 0.8525 -0.1325 0.5057
vn 0.8953 -0.0409 0.4435
vn 0.8708 -0.0188 0.4913
vn 0.7139 0.6945 -0.0899
vn 0.6398 0.7515 -0.1610
vn 0.7411 0.6655 -0.0892
vn 0.8857 0.4474 -0.1243
vn 0.8637 0.4933 -0.1033
vn 0.8566 0.5004 -0.1258
vn 0.9850 -0.0899 0.1474
vn 0.9945 -0.0239 0.1017
vn 0.8518 -0.4843 -0.2000
vn 0.8254 -0.3589 -0.4358
vn 0.8044 -0.3782 -0.4581
vn 0.4942 0.3645 -0.7893
vn 0.2451 0.7696 -0.5897
vn 0.7258 0.3991 -0.5603
vn 0.2685 0.7630 -0.5881
vn -0.0854 0.4334 -0.8971
vn -0.0799 0.4131 -0.9072
vn -0.0982 0.4818 -0.8708
vn 0.5272 0.4807 -0.7008
vn 0.3433 0.0560 -0.9375
vn -0.0676 0.3672 -0.9277
vn -0.3710 -0.0446 -0.9275
vn 0.8143 0.0771 -0.5754
vn 0.7412 -0.1435 -0.6557
vn 0.3154 0.1382 -0.9389
vn 0.0276 -0.2974 -0.9543
vn -0.3589 -0.0871 -0.9293
vn -0.4961 -0.2957 -0.8164
vn -0.4645 0.8784 -0.1128
vn -0.8431 0.3449 -0.4126
vn -0.6053 -0.2193 -0.7652
vn -0.8759 0.4280 -0.2228
vn -0.9344 0.3548 -0.0317
vn -0.9023 0.0715 -0.4251
vn -0.9418 0.0006 -0.3362
vn -0.8893 0.4559 -0.0368
vn -0.9160 0.0966 0.3894
vn -0.5892 -0.2586 -0.7655
vn -0.6600 -0.6298 -0.4096
vn -0.8694 -0.4585 -0.1843
vn -0.7438 -0.5977 0.2993
vn -0.8864 -0.2121 0.4116
vn -0.1053 0.6441 0.7577
vn -0.5825 0.4132 0.7000
vn -0.8586 -0.0675 0.5082
vn -0.1166 0.5208 0.8457
vn -0.0514 0.4171 0.9074
vn -0.6469 0.0721 0.7592
vn -0.4062 -0.2646 0.8746
vn -0.1327 -0.1474 0.9801
vn -0.0733 -0.2136 0.9742
vn 0.5341 -0.4573 0.7111
vn 0.6953 -0.5744 0.4321
vn 0.8780 -0.4018 0.2600
vn 0.8286 -0.4792 0.2896
vn 0.0455 -0.3660 -0.9295
vn 0.1514 -0.9884 -0.0112
vn 0.1557 -0.9878 0.0077
vn -0.0538 -0.9877 -0.1470
vn -0.0453 -0.9859 -0.1612
vn -0.0600 -0.9886 -0.1383
vn -0.2668 -0.7721 -0.5768
vn -0.3775 -0.7019 -0.6040
vn -0.5020 -0.7706 -0.3928
vn -0.5019 -0.7707 -0.3926
vn -0.4996 -0.7882 -0.3595
vn -0.0388 -0.9846 -0.1702
vn 0.0785 -0.9953 0.0569
vn -0.5028 -0.7621 -0.4080
vn -0.5303 -0.7625 -0.3706
vn 0.0621 -0.9969 0.0481
vn -0.2831 -0.9335 0.2201
vn -0.2770 -0.9341 0.2251
vn -0.6979 -0.6381 0.3251
vn -0.0181 -0.9512 0.3081
vn 0.0458 -0.9426 0.3309
vn 0.2677 -0.8764 0.4003
vn -0.3837 -0.9110 -0.1515
vn -0.2090 -0.9119 -0.3532
vn -0.0452 0.4604 0.8866
vn 0.3756 0.2072 -0.9033
vn 0.2228 0.8234 0.5218
vn 0.7037 0.6877 0.1785
vn 0.7177 0.6744 -0.1734
vn 0.6402 0.6263 -0.4448
vn -0.2517 0.5280 0.8111
vn -0.2692 0.4634 0.8443
vn 0.1992 0.6042 0.7715
vn 0.4179 0.3543 -0.8365
vn 0.4773 0.4132 -0.7756
vn 0.3666 0.4449 -0.8171
vn 0.1529 -0.0401 -0.9874
vn 0.2646 0.3265 -0.9074
vn -0.7885 0.3253 -0.5220
vn -0.8438 0.5335 0.0580
vn -0.8581 0.3637 0.3624
vn -0.7934 0.4306 0.4302
vn -0.6550 0.3939 0.6449
vn -0.6037 0.4289 0.6720
vn 0.4802 0.3360 0.8103
vn 0.5116 0.1442 0.8470
vn 0.4053 0.2411 -0.8818
vn -0.0548 0.3826 -0.9223
vn 0.6394 0.2179 -0.7374
vn -0.3233 -0.9299 0.1752
vn -0.5994 -0.5689 0.5630
vn 0.3059 -0.9521 0.0042
vn -0.6878 -0.2790 0.6701
vn -0.7605 -0.4168 0.4979
vn -0.3363 -0.6231 0.7062
vn -0.3500 -0.6242 0.6985
vn -0.3465 -0.6224 0.7019
vn -0.3620 -0.6278 0.6891
vn -0.2746 -0.6316 0.7250
vn -0.1621 -0.5447 0.8228
vn -0.3601 -0.5391 0.7614
vn -0.0617 -0.6594 0.7492
vn 0.0302 -0.9192 0.3926
vn 0.1331 -0.7146 0.6867
vn 0.1264 -0.8858 0.4465
vn 0.5728 -0.7938 0.2041
vn 0.6148 -0.6052 0.5057
vn 0.9280 -0.2112 0.3069
vn 0.7971 -0.3914 0.4597
vn 0.9802 -0.1181 0.1588
vn 0.8231 -0.3395 -0.4553
vn 0.7591 -0.3270 -0.5628
vn 0.5923 -0.8056 -0.0160
vn 0.5147 -0.8158 -0.2636
vn 0.5600 -0.6252 -0.5436
vn 0.3320 -0.9359 0.1176
vn -0.4468 -0.8810 0.1557
vn -0.2659 -0.8827 0.3875
vn -0.4753 -0.8262 0.3024
vn -0.4629 -0.8697 -0.1714
vn -0.0163 -0.7454 0.6664
vn -0.0363 -0.8308 0.5554
vn -0.7364 -0.6098 0.2930
vn -0.5719 -0.8161 0.0832
vn -0.5386 -0.7739 -0.3332
vn 0.0651 -0.7446 -0.6643
vn 0.8598 0.5021 -0.0926
usemtl Material.004
f 1/1/1 2/2/1 3/3/1
f 1/1/2 4/4/2 5/5/2
f 6/6/3 1/1/3 5/5/3
f 7/7/4 5/8/4 8/9/4
f 5/8/5 9/10/5 8/9/5
f 5/5/6 4/4/6 9/10/6
f 7/11/7 6/6/7 5/5/7
f 7/7/8 8/9/8 10/12/8
f 8/9/9 11/13/9 10/12/9
f 10/12/10 11/13/10 12/14/10
f 8/9/11 9/10/11 11/13/11
f 11/13/12 13/15/12 14/16/12
f 11/13/13 14/16/13 12/14/13
f 11/13/14 9/10/14 13/15/14
f 13/15/15 15/17/15 14/16/15
f 9/10/16 16/18/16 13/15/16
f 16/18/17 17/19/17 13/15/17
f 13/15/18 17/19/18 15/17/18
f 16/18/19 18/20/19 17/19/19
f 17/19/20 19/21/20 20/22/20
f 17/19/21 20/22/21 15/17/21
f 17/19/22 18/20/22 19/21/22
f 4/4/23 18/20/23 16/18/23
f 2/23/24 21/24/24 22/25/24
f 18/20/25 21/24/25 19/21/25
f 4/4/26 3/3/26 22/26/26 18/20/26
f 12/27/27 14/16/27 23/28/27
f 14/16/28 15/17/28 23/28/28
f 4/4/29 16/18/29 9/10/29
f 24/29/30 25/30/30 26/31/30
f 24/29/31 26/31/31 27/32/31
f 28/33/32 29/34/32 30/35/32
f 31/36/33 32/37/34 33/38/35
f 34/39/36 35/40/36 36/41/36
f 37/42/37 38/43/37 39/44/37
f 28/33/38 30/35/38 40/45/38
f 31/36/39 33/38/39 41/46/39
f 42/47/40 43/48/40 44/49/40
f 41/46/41 45/50/41 46/51/41
f 46/51/42 45/50/42 47/52/42
f 41/46/43 33/38/43 45/50/43
f 45/50/44 33/38/44 47/53/44
f 30/35/45 48/54/45 40/45/45
f 39/44/46 49/55/46 48/56/46
f 39/44/47 38/43/47 49/55/47
f 50/57/48 42/47/49 51/58/50
f 36/41/51 52/59/51 50/57/51
f 50/57/52 52/59/52 42/47/52
f 52/59/53 35/40/53 42/47/53
f 35/40/54 43/48/54 42/47/54
f 36/41/55 35/40/55 52/59/55
f 53/60/56 54/61/56 55/62/56
f 53/60/57 56/63/57 54/61/57
f 33/38/58 57/64/58 58/65/58
f 58/65/59 57/64/59 40/45/59
f 33/38/35 32/37/34 57/64/60
f 32/37/61 28/33/62 57/64/63
f 57/64/64 28/33/64 40/45/64
f 30/35/65 59/66/65 48/54/65
f 59/66/66 39/44/66 48/56/66
f 30/35/67 60/67/67 59/66/67
f 30/35/68 29/34/68 60/67/68
f 29/34/69 61/68/69 60/67/69
f 60/67/70 61/68/70 59/66/70
f 59/66/71 61/68/71 39/44/71
f 61/68/72 37/42/72 39/44/72
f 38/43/73 50/69/48 51/70/50
f 38/43/74 62/71/74 50/69/74
f 62/72/75 36/41/75 50/57/75
f 38/43/76 37/42/76 62/71/76
f 37/42/77 63/73/77 62/71/77
f 62/72/78 63/73/78 36/41/78
f 63/73/79 34/39/79 36/41/79
f 35/40/80 55/62/80 43/48/80
f 35/40/81 34/39/81 55/62/81
f 34/39/82 64/74/82 55/62/82
f 64/74/83 53/60/83 55/62/83
f 34/39/84 65/75/84 64/74/84
f 64/74/85 65/75/85 53/60/85
f 56/63/86 41/46/86 46/51/86
f 53/60/87 66/76/87 56/63/87
f 56/63/88 66/76/88 41/46/88
f 66/76/89 31/36/89 41/46/89
f 67/77/90 32/37/90 31/36/90
f 68/78/91 69/79/91 67/77/91
f 67/77/92 69/79/92 32/37/92
f 68/78/93 70/80/93 69/79/93
f 69/79/94 70/80/94 32/37/94
f 70/80/95 28/33/62 32/37/61
f 68/78/96 24/29/96 70/80/96
f 70/80/97 29/34/97 28/33/97
f 24/29/98 71/81/98 70/80/98
f 70/80/99 71/81/99 29/34/99
f 71/81/100 72/82/100 29/34/100
f 29/34/101 72/82/101 61/68/101
f 24/29/102 27/32/102 71/81/102
f 71/81/103 27/32/103 72/82/103
f 72/82/104 37/42/104 61/68/104
f 72/82/105 27/32/105 37/42/105
f 27/32/106 63/73/106 37/42/106
f 27/32/107 26/31/107 63/73/107
f 26/31/108 73/83/108 63/73/108
f 73/83/109 34/39/109 63/73/109
f 66/76/110 67/77/110 31/36/110
f 53/60/111 74/84/111 66/76/111
f 66/76/112 74/84/112 67/77/112
f 74/84/113 68/78/113 67/77/113
f 74/84/114 25/30/114 68/78/114
f 25/30/115 24/29/115 68/78/115
f 73/83/116 65/75/116 34/39/116
f 26/31/117 25/30/117 73/83/117
f 25/30/118 74/84/118 73/83/118
f 73/83/119 74/84/119 65/75/119
f 74/84/120 53/60/120 65/75/120
f 75/85/121 76/86/121 77/87/121
f 78/88/122 79/89/122 80/90/122
f 81/91/123 82/92/123 83/93/123
f 75/85/124 77/87/124 84/94/124
f 85/95/125 86/96/125 87/97/125
f 88/98/126 89/99/126 90/100/126
f 78/88/127 80/90/127 91/101/127
f 92/102/128 93/103/128 94/104/128
f 95/105/129 96/106/129 97/107/129
f 98/108/130 99/109/131 100/110/132
f 101/111/133 102/112/133 103/113/133
f 104/114/134 105/115/134 106/116/134
f 107/117/135 108/118/135 104/114/135
f 106/116/136 105/115/136 109/119/136
f 104/114/137 108/118/137 105/115/137
f 108/118/138 110/120/138 105/115/138
f 110/120/139 103/113/139 105/115/139
f 107/117/140 111/121/140 108/118/140
f 111/121/141 112/122/141 108/118/141
f 108/118/142 112/122/142 110/120/142
f 112/122/143 113/123/143 110/120/143
f 110/120/144 113/123/144 103/113/144
f 113/123/145 101/111/145 103/113/145
f 103/113/146 114/124/146 105/115/146
f 109/119/147 115/125/147 106/116/147
f 105/115/148 114/124/148 109/119/148
f 114/124/149 115/125/149 109/119/149
f 103/113/150 102/112/150 114/124/150
f 102/112/151 116/126/151 114/124/151
f 114/124/152 116/126/152 115/125/152
f 116/126/153 117/127/153 115/125/153
f 115/125/154 117/127/154 100/110/154
f 117/127/155 98/108/155 100/110/155
f 115/125/156 118/128/156 106/116/156
f 100/110/157 119/129/157 115/125/157
f 106/116/158 118/128/158 120/130/158
f 118/128/159 121/131/159 120/130/159
f 115/125/160 119/129/160 118/128/160
f 118/128/161 119/129/161 121/131/161
f 119/129/162 97/107/162 121/131/162
f 100/110/132 99/109/131 119/129/163
f 99/109/164 122/132/164 119/129/164
f 119/129/165 122/132/165 97/107/165
f 122/133/166 95/105/166 97/107/166
f 97/107/167 123/134/167 121/131/167
f 121/131/168 123/134/168 120/130/168
f 123/134/169 124/135/169 120/130/169
f 124/135/170 94/104/171 120/130/172
f 97/107/173 96/106/173 123/134/173
f 96/106/174 125/136/174 123/134/174
f 123/134/175 125/136/175 124/135/175
f 125/136/176 126/137/176 124/135/176
f 124/135/177 126/137/177 94/104/177
f 126/137/178 92/102/178 94/104/178
f 94/104/171 127/138/179 120/130/172
f 120/130/180 128/139/180 106/116/180
f 128/139/181 104/114/181 106/116/181
f 120/130/182 127/138/182 128/139/182
f 127/138/183 129/140/183 128/139/183
f 128/139/184 129/140/184 104/114/184
f 129/140/185 107/117/185 104/114/185
f 94/104/186 93/103/186 127/138/186
f 93/103/187 130/141/187 127/138/187
f 127/138/188 130/141/188 129/140/188
f 130/141/189 131/142/189 129/140/189
f 129/140/190 131/142/190 107/117/190
f 131/142/191 111/121/191 107/117/191
f 91/101/192 132/143/192 133/144/192
f 134/145/193 112/122/193 111/121/193
f 133/144/194 132/143/194 134/145/194
f 132/143/195 135/146/195 134/145/195
f 134/145/196 135/146/196 112/122/196
f 135/146/197 113/123/197 112/122/197
f 91/101/198 80/90/198 132/143/198
f 80/90/199 136/147/199 132/143/199
f 132/143/200 136/147/200 135/146/200
f 136/148/201 137/149/201 135/146/201
f 135/146/202 137/149/202 113/123/202
f 137/149/203 101/111/203 113/123/203
f 138/150/204 102/112/204 101/111/204
f 90/100/205 139/151/205 138/150/205
f 138/150/206 140/152/206 102/112/206
f 140/152/207 116/126/208 102/112/209
f 138/150/210 139/151/210 140/152/210
f 139/151/211 141/153/211 140/152/211
f 140/152/207 141/153/212 116/126/208
f 141/153/213 117/127/213 116/126/213
f 90/100/214 89/99/214 139/151/214
f 89/99/215 142/154/215 139/151/215
f 139/151/216 142/154/216 141/153/216
f 142/154/217 143/155/217 141/153/217
f 141/153/218 143/155/218 117/127/218
f 143/155/219 98/108/219 117/127/219
f 144/156/220 99/109/220 98/108/220
f 145/157/221 146/158/221 144/156/221
f 87/159/222 147/160/222 145/157/222
f 144/156/223 146/158/223 99/109/223
f 145/157/224 147/160/224 146/158/224
f 147/160/225 148/161/225 146/158/225
f 146/158/226 148/161/226 99/109/226
f 148/161/227 122/132/227 99/109/227
f 87/97/228 86/96/228 147/162/228
f 86/96/229 149/163/229 147/162/229
f 147/162/230 149/163/230 148/164/230
f 149/163/231 150/165/231 148/164/231
f 148/164/232 150/165/232 122/133/232
f 150/165/233 95/105/233 122/133/233
f 151/166/234 96/106/234 95/105/234
f 152/167/235 153/168/235 151/166/235
f 84/94/236 154/169/236 152/167/236
f 151/166/237 153/168/237 96/106/237
f 153/168/238 125/136/238 96/106/238
f 152/167/239 154/169/239 153/168/239
f 154/169/240 155/170/240 153/168/240
f 153/168/241 155/170/241 125/136/241
f 155/170/242 126/137/242 125/136/242
f 84/94/243 77/87/243 154/169/243
f 77/87/244 156/171/245 154/169/246
f 154/169/246 156/171/245 155/170/247
f 156/171/248 157/172/248 155/170/248
f 155/170/249 157/172/249 126/137/249
f 157/172/250 92/102/250 126/137/250
f 158/173/251 93/103/251 92/102/251
f 159/174/252 160/175/252 158/173/252
f 83/93/253 161/176/253 159/174/253
f 158/173/254 160/175/254 93/103/254
f 160/175/255 130/141/255 93/103/255
f 159/174/256 161/176/256 160/175/256
f 161/176/257 162/177/257 160/175/257
f 160/175/258 162/177/258 130/141/258
f 162/177/259 131/142/259 130/141/259
f 83/93/260 82/92/260 161/176/260
f 82/178/261 163/179/261 161/180/261
f 161/180/262 163/179/262 162/181/262
f 163/179/263 164/182/263 162/181/263
f 162/181/264 164/182/264 131/142/264
f 164/182/265 111/121/265 131/142/265
f 137/149/266 138/150/266 101/111/266
f 136/148/267 165/183/267 137/149/267
f 80/90/268 166/184/268 136/147/268
f 137/149/269 165/183/269 138/150/269
f 136/148/270 166/185/270 165/183/270
f 166/185/271 167/186/271 165/183/271
f 165/183/272 167/186/272 138/150/272
f 167/186/273 90/100/273 138/150/273
f 80/90/274 79/89/274 166/184/274
f 79/89/275 168/187/275 166/184/275
f 166/185/276 168/188/276 167/186/276
f 168/188/277 169/189/277 167/186/277
f 167/186/278 169/189/278 90/100/278
f 169/189/279 88/98/279 90/100/279
f 143/155/280 144/156/280 98/108/280
f 142/154/281 145/157/281 143/155/281
f 143/155/282 145/157/282 144/156/282
f 142/154/283 89/99/283 145/157/283
f 89/99/284 170/190/284 145/157/284
f 171/191/285 87/159/285 145/157/285
f 88/98/286 172/192/286 89/99/286
f 89/99/287 172/192/287 171/191/287 170/190/287
f 172/192/288 173/193/288 171/191/288
f 171/191/289 173/193/289 87/159/289
f 173/194/290 85/95/290 87/97/290
f 150/165/291 151/166/291 95/105/291
f 149/163/292 174/195/292 150/165/292
f 86/96/293 175/196/293 149/163/293
f 150/165/294 174/195/294 151/166/294
f 174/195/295 152/167/296 151/166/297
f 149/163/298 175/196/298 174/195/298
f 175/196/299 176/197/299 174/195/299
f 174/195/295 176/197/300 152/167/296
f 176/197/301 84/94/301 152/167/301
f 86/96/302 85/95/302 175/196/302
f 85/95/303 177/198/303 175/196/303
f 175/196/304 177/198/304 176/197/304
f 177/198/305 178/199/305 176/197/305
f 176/197/306 178/199/306 84/94/306
f 178/199/307 75/85/307 84/94/307
f 157/172/308 158/173/308 92/102/308
f 156/171/309 179/200/309 157/172/309
f 77/87/310 180/201/310 156/171/310
f 157/172/311 179/200/311 158/173/311
f 179/200/312 159/174/312 158/173/312
f 156/171/313 180/201/313 179/200/313
f 180/201/314 181/202/314 179/200/314
f 179/200/315 181/202/315 159/174/315
f 181/202/316 83/93/316 159/174/316
f 77/87/317 76/203/317 180/201/317
f 76/203/318 182/204/318 180/201/318
f 180/201/319 182/204/319 181/202/319
f 182/204/320 81/91/320 181/202/320
f 181/202/321 81/91/321 83/93/321
f 164/182/322 134/145/322 111/121/322
f 163/179/323 183/205/323 164/182/323
f 82/178/324 184/206/324 163/179/324
f 164/182/325 183/205/325 134/145/325
f 183/205/326 133/144/326 134/145/326
f 163/179/327 184/206/327 183/205/327
f 184/206/328 185/207/328 183/205/328
f 183/205/329 185/207/329 133/144/329
f 185/207/330 91/101/330 133/144/330
f 186/208/331 168/187/331 79/89/331
f 187/209/332 168/187/332 186/208/332
f 168/188/333 188/210/333 169/189/333
f 188/210/334 88/98/334 169/189/334
f 189/211/335 178/199/335 177/198/335
f 190/212/336 191/213/336 192/214/336
f 192/214/337 191/213/337 189/211/337
f 191/213/338 193/215/339 189/211/340
f 189/211/341 193/215/341 178/199/341
f 193/215/342 75/85/342 178/199/342
f 193/215/343 76/86/344 75/85/345
f 191/213/338 194/216/346 193/215/339
f 190/212/347 195/217/347 191/213/347
f 193/215/343 194/216/348 76/86/344
f 194/218/349 182/204/349 76/203/349
f 191/213/350 195/217/350 194/216/350
f 195/219/351 196/220/351 194/218/351
f 194/218/352 196/220/352 182/204/352
f 196/220/353 81/91/353 182/204/353
f 190/212/354 197/221/355 195/217/356
f 2/222/357 1/223/357 198/224/357
f 1/223/358 6/225/358 199/226/358 198/224/358
f 10/12/359 12/14/359 200/227/359
f 19/21/360 21/24/360 201/228/360
f 12/27/361 23/28/361 200/229/361
f 23/28/362 15/17/362 172/230/362
f 172/230/363 15/17/363 20/22/363 173/231/363
f 20/22/364 19/21/364 201/232/364 173/231/364
f 202/233/365 51/58/365 42/47/365 203/234/365
f 203/234/366 42/47/366 44/49/366
f 44/49/367 43/48/367 204/235/367
f 46/51/368 205/236/368 206/237/368
f 46/51/369 47/52/369 205/236/369
f 205/238/370 47/53/370 207/239/370
f 208/240/371 47/53/371 33/38/371
f 47/53/372 208/240/372 207/239/372
f 40/45/373 48/54/373 209/241/373
f 209/241/374 48/54/374 210/242/374
f 210/243/375 48/56/375 49/55/375
f 211/244/376 210/243/376 49/55/376
f 211/244/377 49/55/377 38/43/377
f 38/43/378 51/70/378 202/245/378 211/244/378
f 43/48/379 55/62/379 212/246/379 204/235/379
f 55/62/380 54/61/380 212/247/380
f 33/38/381 58/65/381 208/240/381
f 208/240/382 58/65/382 40/45/382
f 56/63/383 46/51/383 206/237/383
f 199/226/384 197/221/355 190/212/354
f 210/248/385 81/91/385 209/249/385
f 190/212/386 2/222/386 198/224/386 199/226/386
f 210/248/387 211/250/387 82/92/387 81/91/387
f 211/251/388 184/206/388 82/178/388
f 211/251/389 202/252/390 184/206/391
f 203/253/392 185/207/392 184/206/391 202/252/390
f 44/254/393 185/207/393 203/253/393
f 204/255/394 91/101/394 185/207/394 44/254/394
f 204/255/395 212/256/395 78/88/395 91/101/395
f 79/89/396 78/88/396 212/256/396 54/257/396
f 7/258/397 187/209/397 54/257/397 56/259/397
f 186/208/398 79/89/398 54/257/398
f 186/208/399 54/257/399 187/209/399
f 10/260/400 187/209/400 7/258/400
f 10/260/401 168/187/401 187/209/401
f 188/210/402 168/188/402 10/261/402 200/262/402
f 200/262/403 23/263/403 88/98/403 188/210/403
f 172/192/404 88/98/404 23/263/404
f 85/95/405 173/194/405 201/264/405
f 21/265/406 177/198/406 85/95/406 201/264/406
f 192/214/407 21/265/407 2/222/407
f 192/214/408 189/211/408 21/265/408
f 177/198/409 21/265/409 189/211/409
f 2/222/410 190/212/410 192/214/410
f 206/266/411 6/267/411 7/258/411 56/259/411
f 207/268/412 197/269/412 205/270/412
f 205/270/413 197/269/413 6/271/413 206/272/413
f 197/221/414 199/226/414 6/225/414
f 208/273/415 195/219/415 197/269/415 207/268/415
f 208/273/416 40/274/416 196/220/416 195/219/416
f 81/91/417 196/220/417 40/274/417 209/249/417
f 3/3/418 4/4/418 1/1/418
f 22/26/419 3/3/419 2/2/419
f 22/25/420 21/24/420 18/20/420
f 145/157/421 170/190/421 171/191/421
