mtllib LOW_POLY_set.mtl
o lp_tree4_Icosphere_003
v 7.967719 7.188986 -37.660103
v 8.501642 8.138020 -38.054737
v 8.683394 8.021456 -38.085556
v 8.178337 7.047590 -37.701065
v 8.906961 9.153050 -38.249409
v 9.064360 9.056038 -38.271816
v 7.841689 7.334030 -37.485359
v 8.398890 8.255848 -37.904865
v 8.821905 9.249082 -38.121624
v 9.189705 10.188011 -38.338562
v 9.302591 10.118774 -38.354939
v 9.130113 10.257201 -38.236477
v 8.868548 9.286376 -37.954910
v 9.166880 10.286375 -38.107174
v 9.005406 9.249751 -37.841694
v 9.269205 10.259653 -38.024086
v 8.448097 8.300945 -37.711899
v 8.602937 8.251539 -37.586163
v 7.899885 7.389024 -37.270031
v 8.067496 7.319231 -37.125687
v 8.285695 7.176029 -37.179585
v 8.786620 8.134025 -37.618908
v 9.160963 9.154129 -37.860992
v 8.890405 8.022893 -37.770409
v 9.248807 9.057075 -37.990368
v 8.408510 7.053973 -37.355976
v 7.785602 7.034897 -36.869625
v 8.122295 6.800734 -37.032597
v 8.273704 6.693700 -37.236263
v 8.358168 7.009935 -37.567986
v 8.841596 7.981234 -37.962315
v 8.232925 6.631696 -37.437401
v 8.010960 6.595367 -37.579967
v 8.138350 5.806758 -37.247475
v 7.951355 5.715620 -37.471004
v 8.199875 6.262551 -37.178619
v 8.052320 5.759279 -36.943329
v 8.043725 5.180110 -36.939659
v 8.129442 5.199423 -37.227955
v 7.968306 5.195927 -37.477364
v 8.058617 6.281038 -36.964062
v 7.794362 5.722854 -36.757744
v 7.787238 5.158028 -36.777313
v 7.802831 6.307028 -36.772209
v 8.134703 3.860577 -36.991138
v 8.227853 3.880483 -37.306850
v 7.854490 3.840762 -36.818073
v 8.256452 2.178842 -36.989285
v 8.371157 2.179176 -37.377953
v 7.911677 2.178508 -36.776371
v 7.538559 3.832445 -36.911674
v 7.522897 2.178393 -36.891247
v 7.500596 5.141214 -36.855457
v 7.344360 5.146542 -37.105614
v 7.365112 3.840176 -37.191586
v 7.309765 2.178508 -37.236103
v 7.047750 0.174295 -37.166656
v 7.352670 0.174333 -36.668373
v 7.913620 0.174295 -36.505322
v 7.424453 2.178842 -37.624748
v 7.210620 0.174189 -37.727295
v 7.769245 2.179176 -37.837685
v 7.708804 0.174082 -38.032150
v 7.457874 3.860400 -37.507034
v 7.737864 3.880563 -37.680256
v 8.158008 2.179291 -37.722786
v 8.269600 0.174043 -37.868889
v 8.054126 3.887662 -37.586906
v 7.424048 5.173252 -37.388065
v 7.677064 5.201552 -37.554413
v 7.626585 5.802376 -37.495106
v 7.378556 5.702846 -37.278297
v 7.327166 5.657703 -37.015160
v 7.489408 5.700840 -36.767250
v 7.288490 6.169805 -36.853886
v 7.254647 6.237424 -37.078796
v 7.492999 6.277421 -36.687492
v 7.263573 6.711291 -36.671947
v 7.114541 6.740585 -36.866783
v 7.490297 6.891254 -36.656902
v 7.122526 7.178480 -36.557129
v 6.970200 7.150468 -36.708775
v 7.327411 7.288074 -36.572453
v 6.718552 8.117579 -36.294453
v 6.592289 8.085405 -36.422604
v 6.880697 8.206426 -36.301319
v 7.476460 7.393783 -36.731880
v 6.985326 8.296242 -36.425026
v 6.585849 9.266112 -36.329643
v 6.501504 9.193137 -36.230415
v 6.371195 9.119982 -36.224812
v 6.149018 10.615437 -36.342228
v 6.090874 10.567054 -36.268494
v 5.997490 10.514012 -36.261555
v 6.269901 9.092750 -36.327557
v 5.919153 10.492092 -36.333569
v 6.250535 9.121222 -36.470566
v 6.567576 8.120959 -36.600136
v 5.900311 10.508821 -36.438992
v 6.335118 9.195061 -36.570156
v 5.958484 10.561197 -36.515079
v 6.465678 9.267698 -36.575592
v 6.054535 10.612155 -36.521732
v 6.567012 9.295038 -36.472641
v 6.131664 10.634426 -36.447010
v 6.960072 8.332442 -36.602654
v 6.833501 8.299638 -36.730484
v 7.438303 7.450496 -36.944355
v 7.285298 7.406769 -37.094814
v 6.671680 8.210762 -36.723568
v 7.081416 7.296723 -37.071835
v 7.663420 7.256547 -37.096817
v 7.542161 7.156817 -37.312172
v 7.285304 6.961416 -37.248337
v 7.750500 6.890286 -37.526505
v 7.532466 6.603551 -37.437305
v 7.355548 6.352469 -37.300255
v 7.126014 6.812695 -37.089508
v 6.948656 7.192716 -36.919018
v 7.775645 6.269157 -37.554047
v 8.574674 0.174082 -37.370815
v 8.411651 0.174189 -36.809967
v 9.203720 9.019838 -38.160511
v 9.407499 10.094674 -38.270863
v 9.444157 10.121034 -38.141613
v 9.383869 10.191522 -38.042107
vt 0.588341 0.423268
vt 0.588308 0.423793
vt 0.588215 0.423799
vt 0.588224 0.423282
vt 0.588297 0.424246
vt 0.588214 0.424241
vt 0.588453 0.423262
vt 0.588397 0.423797
vt 0.588372 0.424262
vt 0.588271 0.424742
vt 0.588210 0.424734
vt 0.588328 0.424759
vt 0.588447 0.424285
vt 0.588385 0.424779
vt 0.587817 0.424296
vt 0.587904 0.424294
vt 0.587966 0.424781
vt 0.587903 0.424786
vt 0.587760 0.423827
vt 0.587857 0.423825
vt 0.588483 0.423813
vt 0.588547 0.423287
vt 0.587683 0.423300
vt 0.587789 0.423287
vt 0.587910 0.423298
vt 0.587958 0.423826
vt 0.587987 0.424282
vt 0.588046 0.423823
vt 0.588060 0.424265
vt 0.588017 0.423306
vt 0.587726 0.423115
vt 0.587913 0.423142
vt 0.588021 0.423165
vt 0.588116 0.423301
vt 0.588126 0.423813
vt 0.588105 0.423170
vt 0.588210 0.423115
vt 0.587027 0.422474
vt 0.587026 0.422830
vt 0.586888 0.422871
vt 0.586917 0.422496
vt 0.587104 0.422481
vt 0.587084 0.422639
vt 0.587151 0.422852
vt 0.587146 0.423052
vt 0.587021 0.423041
vt 0.586884 0.423045
vt 0.587184 0.422668
vt 0.587279 0.422893
vt 0.587278 0.423065
vt 0.587304 0.422697
vt 0.587154 0.423576
vt 0.587018 0.423580
vt 0.587304 0.423572
vt 0.587228 0.424231
vt 0.587060 0.424256
vt 0.587411 0.424199
vt 0.586270 0.423557
vt 0.586129 0.424202
vt 0.585948 0.424124
vt 0.586118 0.423515
vt 0.586197 0.423013
vt 0.586333 0.423035
vt 0.586461 0.423051
vt 0.586413 0.423588
vt 0.586305 0.424261
vt 0.586077 0.425173
vt 0.585822 0.425071
vt 0.585557 0.424924
vt 0.586480 0.424287
vt 0.586333 0.425209
vt 0.586676 0.424291
vt 0.586624 0.425205
vt 0.586552 0.423599
vt 0.586709 0.423597
vt 0.586879 0.424277
vt 0.586927 0.425174
vt 0.586872 0.423588
vt 0.586586 0.423054
vt 0.586731 0.423049
vt 0.586724 0.422828
vt 0.586564 0.422860
vt 0.586449 0.422868
vt 0.586317 0.422839
vt 0.586397 0.422665
vt 0.586487 0.422637
vt 0.586271 0.422628
vt 0.586317 0.422470
vt 0.586413 0.422445
vt 0.586207 0.422417
vt 0.589306 0.423352
vt 0.589203 0.423343
vt 0.589196 0.423186
vt 0.589307 0.423170
vt 0.589423 0.423363
vt 0.589438 0.423220
vt 0.589253 0.423774
vt 0.589173 0.423766
vt 0.589337 0.423789
vt 0.589533 0.423371
vt 0.589608 0.423208
vt 0.589415 0.423806
vt 0.589341 0.424197
vt 0.589278 0.424173
vt 0.589207 0.424155
vt 0.589237 0.424825
vt 0.589193 0.424807
vt 0.589143 0.424792
vt 0.589139 0.424149
vt 0.589091 0.424788
vt 0.589079 0.424155
vt 0.589101 0.423763
vt 0.589045 0.424792
vt 0.589012 0.424167
vt 0.588998 0.424804
vt 0.588937 0.424177
vt 0.588944 0.424811
vt 0.588867 0.424177
vt 0.588892 0.424811
vt 0.589400 0.424219
vt 0.589279 0.424843
vt 0.588840 0.423775
vt 0.588927 0.423770
vt 0.589487 0.423826
vt 0.588791 0.423330
vt 0.588894 0.423314
vt 0.589621 0.423401
vt 0.589019 0.423766
vt 0.589010 0.423320
vt 0.588741 0.423231
vt 0.588838 0.423170
vt 0.588989 0.423172
vt 0.588362 0.423127
vt 0.588517 0.423122
vt 0.588600 0.423194
vt 0.586697 0.422513
vt 0.586583 0.422379
vt 0.586700 0.422306
vt 0.586805 0.422407
vt 0.586590 0.422603
vt 0.586490 0.422424
vt 0.589113 0.423332
vt 0.589104 0.423176
vt 0.586814 0.422645
vt 0.587624 0.423203
vt 0.589685 0.423314
vt 0.587201 0.422480
vt 0.587363 0.422448
vt 0.586131 0.422644
vt 0.586058 0.422396
vt 0.586178 0.422838
vt 0.587198 0.425137
vt 0.587451 0.425093
vt 0.587730 0.425030
vt 0.588132 0.424249
vt 0.588144 0.424740
vt 0.588084 0.424751
vt 0.588028 0.424768
vn -0.3077 -0.2098 -0.9281
vn -0.2145 -0.0983 -0.9718
vn -0.7455 0.1524 -0.6488
vn -0.7468 0.1767 -0.6412
vn -0.1658 -0.0397 -0.9854
vn -0.7774 0.1642 -0.6072
vn -0.9318 0.3072 0.1936
vn -0.5614 0.2863 0.7764
vn -0.5064 0.4018 0.7629
vn -0.8978 0.4162 0.1439
vn -0.8348 0.5438 0.0863
vn -0.3873 0.5787 0.7177
vn 0.3503 0.2390 0.9056
vn 0.2384 0.1450 0.9603
vn 0.7695 -0.1341 0.6244
vn 0.7747 -0.1201 0.6208
vn 0.4735 0.2039 0.8569
vn 0.7803 -0.0921 0.6185
vn 0.8703 -0.4796 -0.1119
vn 0.9251 -0.3633 -0.1108
vn 0.4383 -0.5171 -0.7352
vn 0.5151 -0.4097 -0.7529
vn 0.6869 -0.1853 -0.7028
vn 0.9850 -0.1492 -0.0871
vn 0.9607 -0.0087 0.2775
vn 0.8054 -0.0012 -0.5927
vn 0.9145 -0.0829 0.3961
vn 0.5616 -0.0192 0.8272
vn 0.5917 0.0177 0.8059
vn 0.9564 0.0545 0.2868
vn 0.5299 0.0021 0.8481
vn 0.9563 0.0691 0.2842
vn 0.5241 0.0391 0.8507
vn -0.2838 0.0144 0.9588
vn -0.2720 -0.0464 0.9612
vn -0.8487 -0.0477 0.5267
vn -0.8502 0.0144 0.5263
vn -0.8449 0.1290 0.5191
vn -0.2785 0.1290 0.9517
vn -0.9534 0.1155 -0.2787
vn -0.5209 0.0984 -0.8479
vn -0.9588 0.0391 -0.2814
vn -0.5261 0.0693 -0.8476
vn 0.2806 0.0890 -0.9557
vn 0.2801 0.0848 -0.9562
vn 0.2812 0.0933 -0.9551
vn -0.5402 0.0586 -0.8395
vn 0.2685 0.1007 -0.9580
vn 0.1716 0.0679 -0.9828
vn -0.6166 0.0650 -0.7846
vn -0.9718 -0.0133 -0.2352
vn -0.9609 0.0017 -0.2770
vn -0.8333 -0.1124 0.5413
vn -0.9892 -0.1310 -0.0658
vn -0.7048 -0.1749 0.6875
vn -0.9043 -0.2681 0.3321
vn -0.2769 -0.1802 0.9438
vn -0.6889 -0.4101 0.5977
vn 0.1226 -0.1819 0.9756
vn -0.5858 -0.4431 0.6786
vn 0.1670 -0.2009 0.9653
vn 0.5906 0.1350 0.7956
vn 0.6918 0.1309 0.7102
vn 0.6677 0.2049 0.7156
vn 0.0678 -0.0457 0.9967
vn 0.6705 0.2218 0.7080
vn 0.0352 0.0370 0.9987
vn -0.6651 -0.1613 0.7291
vn -0.6487 -0.2743 0.7099
vn -0.9484 -0.3097 0.0685
vn -0.9643 -0.2435 0.1040
vn -0.7045 -0.1642 -0.6905
vn -0.0648 0.0213 -0.9977
vn 0.6545 0.2278 -0.7210
vn 0.9481 0.3079 -0.0789
vn 0.6201 0.3481 -0.7031
vn 0.9221 0.3839 -0.0488
vn 0.5171 0.5363 -0.6670
vn 0.8743 0.4847 -0.0267
vn -0.1066 0.1175 -0.9873
vn -0.2208 0.2649 -0.9387
vn 0.3086 0.7839 -0.5388
vn -0.3667 0.3032 -0.8795
vn -0.6293 0.1990 -0.7513
vn -0.5363 0.8404 -0.0785
vn -0.4798 0.2015 -0.8539
vn -0.6533 -0.0108 -0.7570
vn -0.7127 -0.0401 -0.7004
vn -0.9338 -0.3508 -0.0709
vn -0.9224 -0.2123 -0.3228
vn -0.7327 -0.0694 -0.6770
vn -0.9219 -0.3861 0.0325
vn -0.7062 -0.1334 -0.6953
vn -0.5169 0.0010 -0.8560
vn -0.7696 -0.0488 -0.6366
vn -0.2851 0.0309 -0.9580
vn 0.0531 -0.1317 -0.9899
vn -0.3258 -0.1498 -0.9335
vn -0.0711 0.7572 0.6494
vn 0.7475 0.6496 0.1387
vn 0.5408 0.0911 0.8362
vn 0.4287 0.0513 0.9020
vn 0.1260 -0.0570 0.9904
vn -0.1398 -0.0950 0.9856
vn 0.8415 0.0971 -0.5315
vn 0.8443 0.0951 -0.5274
vn 0.8475 0.0932 -0.5226
vn 0.8474 0.0932 -0.5226
vn 0.8488 0.0848 -0.5218
vn 0.9551 0.0984 0.2794
vn 0.5198 0.1155 0.8465
vn 0.8129 -0.0405 0.5810
vn 0.9215 -0.3530 -0.1621
vn 0.5290 -0.3343 -0.7800
vn 0.5836 -0.1921 -0.7890
vn 0.9544 -0.2047 -0.2171
vn 0.8131 -0.0705 0.5778
vn 0.2084 0.1227 0.9703
usemtl Material.001
f 1/1/1 2/2/1 3/3/1 4/4/1
f 2/2/2 5/5/2 6/6/2 3/3/2
f 2/2/3 1/1/3 7/7/3 8/8/3
f 5/5/4 2/2/4 8/8/4 9/9/4
f 6/6/5 5/5/5 10/10/5 11/11/5
f 5/5/6 9/9/6 12/12/6 10/10/6
f 9/9/7 13/13/7 14/14/7 12/12/7
f 13/15/8 15/16/8 16/17/8 14/18/8
f 13/15/9 17/19/9 18/20/9 15/16/9
f 9/9/10 8/8/10 17/21/10 13/13/10
f 8/8/11 7/7/11 19/22/11 17/21/11
f 17/19/12 19/23/12 20/24/12 18/20/12
f 18/20/13 20/24/13 21/25/13 22/26/13
f 15/16/14 18/20/14 22/26/14 23/27/14
f 23/27/15 22/26/15 24/28/15 25/29/15
f 22/26/16 21/25/16 26/30/16 24/28/16
f 21/25/17 20/24/17 27/31/17 28/32/17
f 26/30/18 21/25/18 28/32/18 29/33/18
f 24/28/19 26/30/19 30/34/19 31/35/19
f 30/34/20 26/30/20 29/33/20 32/36/20
f 31/35/21 30/34/21 4/4/21 3/3/21
f 4/4/22 30/34/22 32/36/22 33/37/22
f 32/38/23 34/39/23 35/40/23 33/41/23
f 29/42/24 36/43/24 34/39/24 32/38/24
f 34/39/25 37/44/25 38/45/25 39/46/25
f 35/40/26 34/39/26 39/46/26 40/47/26
f 41/48/27 37/44/27 34/39/27 36/43/27
f 37/44/28 42/49/28 43/50/28 38/45/28
f 44/51/29 42/49/29 37/44/29 41/48/29
f 39/46/30 38/45/30 45/52/30 46/53/30
f 38/45/31 43/50/31 47/54/31 45/52/31
f 45/52/32 48/55/32 49/56/32 46/53/32
f 47/54/33 50/57/33 48/55/33 45/52/33
f 51/58/34 52/59/34 50/60/34 47/61/34
f 43/62/35 53/63/35 51/58/35 47/61/35
f 53/63/36 54/64/36 55/65/36 51/58/36
f 55/65/37 56/66/37 52/59/37 51/58/37
f 52/59/38 56/66/38 57/67/38 58/68/38
f 50/60/39 52/59/39 58/68/39 59/69/39
f 56/66/40 60/70/40 61/71/40 57/67/40
f 60/70/41 62/72/41 63/73/41 61/71/41
f 64/74/42 60/70/42 56/66/42 55/65/42
f 65/75/43 62/72/43 60/70/43 64/74/43
f 62/72/44 66/76/44 67/77/45 63/73/45
f 68/78/46 66/76/44 62/72/44 65/75/46
f 69/79/47 70/80/47 65/75/47 64/74/47
f 70/80/48 40/47/48 68/78/48 65/75/48
f 71/81/49 35/40/49 40/47/49 70/80/49
f 72/82/50 71/81/50 70/80/50 69/79/50
f 73/83/51 72/82/51 69/79/51 54/64/51
f 54/64/52 69/79/52 64/74/52 55/65/52
f 53/63/53 74/84/53 73/83/53 54/64/53
f 72/82/54 73/83/54 75/85/54 76/86/54
f 73/83/55 74/84/55 77/87/55 75/85/55
f 76/86/56 75/85/56 78/88/56 79/89/56
f 80/90/57 78/88/57 75/85/57 77/87/57
f 81/91/58 82/92/58 79/93/58 78/94/58
f 83/95/59 81/91/59 78/94/59 80/96/59
f 84/97/60 85/98/60 82/92/60 81/91/60
f 86/99/61 84/97/61 81/91/61 83/95/61
f 87/100/62 83/95/62 80/96/62 27/101/62
f 88/102/63 86/99/63 83/95/63 87/100/63
f 89/103/64 90/104/64 86/99/64 88/102/64
f 90/104/65 91/105/65 84/97/65 86/99/65
f 90/104/66 89/103/66 92/106/66 93/107/66
f 91/105/67 90/104/67 93/107/67 94/108/67
f 95/109/68 91/105/68 94/108/68 96/110/68
f 91/105/69 95/109/69 85/98/69 84/97/69
f 95/109/70 97/111/70 98/112/70 85/98/70
f 97/111/71 95/109/71 96/110/71 99/113/71
f 100/114/72 97/111/72 99/113/72 101/115/72
f 102/116/73 100/114/73 101/115/73 103/117/73
f 104/118/74 102/116/74 103/117/74 105/119/74
f 89/103/75 104/120/75 105/121/75 92/106/75
f 102/116/76 104/118/76 106/122/76 107/123/76
f 104/120/77 89/103/77 88/102/77 106/124/77
f 107/123/78 106/122/78 108/125/78 109/126/78
f 106/124/79 88/102/79 87/100/79 108/127/79
f 100/114/80 102/116/80 107/123/80 110/128/80
f 110/128/81 107/123/81 109/126/81 111/129/81
f 109/126/82 108/125/82 112/130/82 113/131/82
f 111/129/83 109/126/83 113/131/83 114/132/83
f 7/7/84 1/1/84 115/133/84 113/134/84
f 19/22/85 7/7/85 113/134/85 112/135/85
f 116/136/86 114/137/86 113/138/86 115/139/86
f 117/140/87 118/141/87 114/137/87 116/136/87
f 119/142/88 111/129/88 114/132/88 118/143/88
f 82/92/89 119/142/89 118/143/89 79/93/89
f 117/140/90 76/86/90 79/89/90 118/141/90
f 98/112/91 110/128/91 111/129/91 119/142/91
f 85/98/92 98/112/92 119/142/92 82/92/92
f 97/111/93 100/114/93 110/128/93 98/112/93
f 71/81/94 117/140/94 116/136/94 120/144/94
f 71/81/95 72/82/95 76/86/95 117/140/95
f 120/144/96 116/136/96 115/139/96 33/41/96
f 33/41/97 35/40/97 71/81/97 120/144/97
f 1/1/98 4/4/98 33/37/98 115/133/98
f 20/24/99 19/23/99 112/145/99 27/31/99
f 108/127/100 87/100/100 27/101/100 112/146/100
f 41/48/101 28/147/101 27/148/101 44/51/101
f 80/90/102 77/87/102 44/149/102 27/150/102
f 44/149/103 77/87/103 74/84/103 42/151/103
f 42/151/104 74/84/104 53/63/104 43/62/104
f 40/47/105 39/46/105 46/53/106 68/78/106
f 46/53/106 49/56/107 66/76/108 68/78/106
f 66/76/108 49/56/107 121/152/109 67/77/109
f 49/56/110 48/55/110 122/153/110 121/152/110
f 48/55/111 50/57/111 59/154/111 122/153/111
f 36/43/112 29/42/112 28/147/112 41/48/112
f 25/29/113 24/28/113 31/35/113 123/155/113
f 123/155/114 31/35/114 3/3/114 6/6/114
f 123/155/115 6/6/115 11/11/115 124/156/115
f 25/29/116 123/155/116 124/156/116 125/157/116
f 23/27/117 25/29/117 125/157/117 126/158/117
f 15/16/118 23/27/118 126/158/118 16/17/118
