mtllib LOW_POLY_set.mtl
o lp_tree1_Icosphere_020
v 35.868801 0.946001 3.888331
v 35.223412 1.142082 5.571729
v 34.166756 1.061797 4.344608
v 36.615913 1.460061 5.553310
v 33.613342 1.354196 6.283819
v 35.296703 1.839363 7.045263
v 36.680779 2.757643 6.482697
v 35.339359 3.004616 7.289145
v 33.633228 2.427754 7.298033
v 34.361767 4.022536 7.024408
v 32.246742 2.234167 6.408155
v 32.602242 3.662349 6.567439
v 33.533974 4.693925 6.113668
v 35.004288 4.788132 5.686991
v 36.322754 3.983693 6.026104
v 37.101395 3.941364 5.201829
v 36.230293 4.776015 5.139189
v 35.164719 5.563432 4.277139
v 36.500603 4.836188 3.840897
v 37.220421 3.435249 3.553008
v 36.404755 4.092118 2.467249
v 35.449966 4.831067 2.666645
v 35.356850 3.513619 1.350280
v 34.292629 4.055261 1.719946
v 34.428040 5.246546 3.400309
v 33.457352 4.680383 3.381958
v 33.960335 5.132433 4.821112
v 32.730499 4.576080 5.236932
v 33.252892 3.325427 1.131749
v 32.507679 3.820871 3.214491
v 31.971212 3.337611 5.208408
v 32.437313 2.571751 2.045584
v 32.486759 1.949230 4.745978
v 33.732292 2.331086 0.838171
v 33.229687 1.627268 2.249587
v 35.113197 2.423980 0.932400
v 34.565983 3.205312 0.795978
v 34.538074 1.297097 2.047965
v 36.432167 2.713628 2.033083
v 35.996780 1.544793 2.289659
v 37.211182 1.659515 3.744301
v 37.441486 2.403085 5.126885
vt 0.822464 0.808916
vt 0.822121 0.808761
vt 0.822425 0.808551
vt 0.822107 0.809089
vt 0.824382 0.810951
vt 0.824033 0.810887
vt 0.824327 0.810590
vt 0.824162 0.811246
vt 0.821739 0.808801
vt 0.822010 0.811206
vt 0.821488 0.810821
vt 0.821975 0.810673
vt 0.822284 0.810951
vt 0.823794 0.811093
vt 0.822562 0.811395
vt 0.822684 0.810848
vt 0.823767 0.810786
vt 0.823457 0.810838
vt 0.823105 0.811181
vt 0.823067 0.810678
vt 0.822739 0.810401
vt 0.822294 0.810411
vt 0.822091 0.810121
vt 0.822528 0.810094
vt 0.822898 0.810087
vt 0.822719 0.809847
vt 0.822334 0.809797
vt 0.822602 0.809530
vt 0.822887 0.809582
vt 0.823017 0.809776
vt 0.823180 0.809389
vt 0.823355 0.809635
vt 0.823096 0.810010
vt 0.823304 0.810074
vt 0.823059 0.810307
vt 0.823299 0.810490
vt 0.823741 0.809562
vt 0.823587 0.810114
vt 0.823602 0.810544
vt 0.823958 0.809910
vt 0.823922 0.810524
vt 0.823802 0.809197
vt 0.824218 0.809497
vt 0.824264 0.809080
vt 0.824240 0.810055
vt 0.823515 0.808927
vt 0.823434 0.809270
vt 0.824024 0.808725
vt 0.823201 0.809064
vt 0.822870 0.809279
vt 0.822778 0.809026
vt 0.822923 0.808736
vt 0.822469 0.809196
vt 0.822215 0.809402
vt 0.821595 0.810382
vt 0.824547 0.810104
vn -0.0408 -0.9941 0.1002
vn 0.2208 -0.9554 0.1959
vn -0.0736 -0.9890 0.1281
vn 0.0685 -0.9031 0.4239
vn 0.2082 -0.8881 0.4099
vn 0.5872 -0.4905 0.6439
vn 0.4783 -0.1966 0.8559
vn -0.1307 -0.6796 0.7219
vn 0.0750 -0.2069 0.9755
vn -0.0611 0.1958 0.9787
vn -0.3498 -0.6399 0.6842
vn -0.5438 0.0419 0.8382
vn -0.2959 0.2913 0.9097
vn -0.3139 0.6053 0.7315
vn 0.0999 0.8421 0.5300
vn 0.3103 0.7531 0.5802
vn 0.3846 0.5602 0.7337
vn 0.6695 0.4229 0.6107
vn 0.5754 0.6388 0.5107
vn 0.2851 0.7294 0.6219
vn 0.5223 0.4273 0.7379
vn 0.2268 0.8423 0.4890
vn 0.5092 0.8483 0.1453
vn 0.6748 0.7173 0.1737
vn 0.8147 0.4842 -0.3191
vn 0.4897 0.7519 -0.4414
vn 0.8798 0.4685 -0.0803
vn 0.3656 0.8700 -0.3309
vn 0.3600 0.6466 -0.6726
vn 0.1100 0.6986 -0.7070
vn -0.0790 0.8162 -0.5723
vn 0.0837 0.9126 -0.4002
vn -0.4296 0.7527 -0.4990
vn -0.3531 0.9347 -0.0412
vn -0.5002 0.8606 -0.0955
vn -0.4435 0.8877 -0.1238
vn -0.5832 0.7183 -0.3795
vn -0.3144 0.8256 -0.4686
vn -0.6361 0.7432 -0.2074
vn -0.5694 0.7023 0.4274
vn -0.3484 0.9166 0.1961
vn -0.8251 0.4998 0.2637
vn -0.8471 0.5217 -0.1015
vn -0.9507 0.2388 -0.1979
vn -0.9076 0.1838 0.3775
vn -0.9429 -0.3232 -0.0807
vn -0.9421 -0.3302 -0.0589
vn -0.8217 0.4134 -0.3923
vn -0.6889 -0.1211 -0.7147
vn -0.5969 -0.6127 -0.5181
vn -0.7441 -0.6539 -0.1371
vn 0.0756 -0.1199 -0.9899
vn -0.2292 0.1723 -0.9580
vn -0.2835 -0.8140 -0.5069
vn 0.0953 -0.7245 -0.6827
vn 0.5057 0.2080 -0.8372
vn 0.6114 0.1605 -0.7749
vn 0.6398 -0.3844 -0.6655
vn 0.2303 -0.7415 -0.6302
vn 0.4253 -0.8582 -0.2874
vn 0.7207 -0.3937 -0.5706
vn 0.2107 -0.9209 -0.3280
vn 0.7797 -0.5963 0.1908
vn 0.9880 -0.0216 -0.1530
vn 0.8964 -0.0521 -0.4402
vn 0.4734 -0.8788 0.0589
vn 0.7437 -0.4135 0.5254
vn 0.8776 0.1722 0.4474
vn 0.9765 0.2157 0.0043
vn 0.8357 0.1800 -0.5189
vn 0.6420 0.2419 -0.7276
vn -0.0986 -0.9882 -0.1172
vn -0.2625 -0.9547 -0.1403
vn 0.1583 0.7496 -0.6427
vn -0.1112 0.7148 -0.6904
vn -0.4719 -0.8812 -0.0268
vn -0.4671 -0.8842 0.0000
vn -0.5359 -0.8416 0.0669
vn 0.0358 0.9427 0.3316
vn -0.1012 0.8766 0.4705
usemtl Material.004
f 1/1/1 2/2/1 3/3/1
f 2/2/2 1/1/2 4/4/2
f 2/5/3 5/6/3 3/7/3
f 2/5/4 6/8/4 5/6/4
f 2/2/5 4/4/5 6/9/5
f 6/10/6 4/11/6 7/12/6
f 6/10/7 7/12/7 8/13/7
f 5/6/8 6/8/8 9/14/8
f 6/10/9 8/13/9 9/15/9
f 9/15/10 8/13/10 10/16/10
f 5/6/11 9/14/11 11/17/11
f 11/17/12 9/14/12 12/18/12
f 12/19/13 9/15/13 10/16/13
f 12/19/14 10/16/14 13/20/14
f 10/16/15 14/21/15 13/20/15
f 10/16/16 15/22/16 14/21/16
f 8/13/17 15/22/17 10/16/17
f 15/22/18 7/12/18 16/23/18
f 15/22/19 16/23/19 17/24/19
f 15/22/20 17/24/20 14/21/20
f 8/13/21 7/12/21 15/22/21
f 14/21/22 17/24/22 18/25/22
f 17/24/23 19/26/23 18/25/23
f 16/27/24 19/26/24 17/24/24
f 20/28/25 21/29/25 19/26/25
f 19/26/26 21/29/26 22/30/26
f 16/27/27 20/28/27 19/26/27
f 18/25/28 19/26/28 22/30/28
f 21/29/29 23/31/29 22/30/29
f 22/30/30 23/31/30 24/32/30
f 22/30/31 24/32/31 25/33/31
f 18/25/32 22/30/32 25/33/32
f 24/32/33 26/34/33 25/33/33
f 27/35/34 18/25/34 25/33/34
f 26/34/35 27/35/35 25/33/35
f 26/34/36 28/36/36 27/35/36
f 29/37/37 30/38/37 26/34/37
f 24/32/38 29/37/38 26/34/38
f 30/38/39 28/36/39 26/34/39
f 12/18/40 13/20/40 28/36/40
f 28/36/41 13/20/41 27/35/41
f 31/39/42 12/18/42 28/36/42
f 31/39/43 28/36/43 30/38/43
f 32/40/44 31/39/44 30/38/44
f 11/17/45 12/18/45 31/39/45
f 33/41/46 11/17/46 31/39/46
f 32/40/47 33/41/47 31/39/47
f 32/40/48 30/38/48 29/37/48
f 34/42/49 32/43/49 29/37/49
f 35/44/50 32/43/50 34/42/50
f 35/45/51 33/41/51 32/40/51
f 36/46/52 34/42/52 37/47/52
f 34/42/53 29/37/53 37/47/53
f 38/48/54 35/44/54 34/42/54
f 36/46/55 38/48/55 34/42/55
f 36/49/56 37/47/56 23/31/56
f 39/50/57 36/49/57 23/31/57
f 40/51/58 36/49/58 39/50/58
f 40/51/59 38/52/59 36/49/59
f 1/1/60 40/51/60 41/53/60
f 41/53/61 40/51/61 39/50/61
f 40/51/62 1/1/62 38/52/62
f 4/4/63 41/53/63 42/54/63
f 42/54/64 41/53/64 20/28/64
f 20/28/65 41/53/65 39/50/65
f 4/4/66 1/1/66 41/53/66
f 4/11/67 42/55/67 7/12/67
f 7/12/68 42/55/68 16/23/68
f 42/54/69 20/28/69 16/27/69
f 20/28/70 39/50/70 21/29/70
f 39/50/71 23/31/71 21/29/71
f 38/52/72 1/1/72 3/3/72
f 38/56/73 3/7/73 35/45/73
f 23/31/74 37/47/74 24/32/74
f 37/47/75 29/37/75 24/32/75
f 3/7/76 33/41/76 35/45/76
f 3/7/77 5/6/77 33/41/77
f 5/6/78 11/17/78 33/41/78
f 13/20/79 14/21/79 27/35/79
f 27/35/80 14/21/80 18/25/80
