mtllib LOW_POLY_set.mtl
o lp_tree6_Icosphere_005
v 34.534744 5.781466 -35.368183
v 32.005207 6.075890 -35.277245
v 31.393751 6.143261 -36.250847
v 33.525658 6.139919 -37.635651
v 34.775734 5.942909 -35.942940
v 34.948601 6.247639 -35.594112
v 31.134830 6.509882 -35.623932
v 32.298923 6.773865 -38.284664
v 31.626614 7.148514 -38.106720
v 34.862843 6.408381 -36.568645
v 33.983711 6.987204 -37.679829
v 34.362659 6.334528 -34.879135
v 31.114752 6.592276 -36.579849
v 32.818871 7.649633 -38.479687
v 33.759838 7.014864 -34.767708
v 34.551769 7.082113 -35.448601
v 33.463444 7.650387 -35.500069
v 33.377041 8.042399 -37.939320
v 32.330025 8.038449 -37.962635
v 33.263260 8.209590 -37.148911
v 34.823101 7.129824 -36.261250
v 34.219578 7.680303 -37.152973
v 34.080414 7.868294 -36.401546
v 31.645996 7.335325 -35.342598
v 31.161907 7.258257 -36.453400
v 32.537273 7.233787 -34.857132
v 31.889990 6.668313 -34.923725
v 33.132610 6.421976 -34.470657
v 33.836494 6.005995 -34.818890
vt 0.815314 0.785720
vt 0.814387 0.786043
vt 0.814025 0.785792
vt 0.815510 0.787885
vt 0.814864 0.788657
vt 0.814768 0.787912
vt 0.815366 0.787720
vt 0.815478 0.786768
vt 0.815510 0.787045
vt 0.815344 0.786977
vt 0.813997 0.786115
vt 0.813438 0.787495
vt 0.813481 0.786633
vt 0.813655 0.787338
vt 0.815149 0.787558
vt 0.814689 0.787674
vt 0.815206 0.786694
vt 0.813754 0.786453
vt 0.813640 0.786784
vt 0.813745 0.787820
vt 0.814903 0.786650
vt 0.815034 0.786966
vt 0.814663 0.786866
vt 0.814366 0.787566
vt 0.814007 0.787532
vt 0.814390 0.787344
vt 0.815051 0.787277
vt 0.814683 0.787428
vt 0.814705 0.787208
vt 0.814139 0.786514
vt 0.813852 0.786828
vt 0.814517 0.786516
vt 0.814213 0.787799
vt 0.814355 0.786283
vt 0.814879 0.786302
vt 0.814367 0.788124
vt 0.815236 0.786462
vt 0.815359 0.787345
vt 0.815117 0.786027
vn -0.1155 -0.9933 0.0038
vn -0.0800 -0.9894 -0.1208
vn 0.1374 -0.9671 -0.2140
vn 0.7746 -0.6138 0.1524
vn -0.5129 -0.8164 0.2656
vn -0.5223 -0.7207 -0.4559
vn 0.6233 -0.3728 -0.6874
vn 0.7104 -0.3291 0.6221
vn -0.8393 -0.5429 -0.0292
vn -0.2801 -0.0472 -0.9588
vn 0.3775 0.7696 0.5150
vn 0.0009 0.9784 -0.2068
vn 0.7086 0.7042 -0.0449
vn 0.4798 0.8679 -0.1283
vn 0.4806 0.8692 -0.1164
vn 0.4799 0.8681 -0.1265
vn 0.4807 0.8694 -0.1147
vn -0.3173 0.9334 0.1676
vn -0.4326 0.8926 0.1266
vn -0.1330 0.9336 0.3328
vn -0.1210 0.9035 0.4111
vn 0.0917 0.7702 0.6312
vn 0.1143 0.9450 0.3066
vn 0.3934 0.7952 0.4614
vn 0.6556 0.7088 0.2605
vn 0.8661 0.2355 -0.4408
vn 0.8121 0.1519 -0.5634
vn 0.7159 0.2514 -0.6513
vn 0.0102 0.8038 -0.5948
vn -0.4374 0.4698 -0.7668
vn -0.7397 0.6250 -0.2494
vn -0.9975 0.0656 0.0266
vn -0.8469 0.4083 0.3407
vn -0.4109 0.3723 0.8322
vn -0.2936 0.2268 0.9286
vn 0.0125 0.4373 0.8992
vn 0.5790 0.3963 0.7125
vn 0.7622 0.2590 0.5932
vn 0.8774 0.3625 0.3142
vn 0.6215 0.1692 -0.7649
vn 0.4313 -0.2779 -0.8583
vn 0.2812 -0.3646 -0.8877
vn -0.9536 0.1199 -0.2760
vn -0.5787 -0.6845 -0.4434
vn -0.6887 0.1878 0.7003
vn -0.5254 -0.5090 0.6818
vn -0.3814 -0.5273 0.7593
vn 0.3208 0.1306 0.9381
vn 0.2836 -0.2863 0.9152
vn 0.4141 -0.5272 0.7420
vn 0.9936 0.0860 -0.0733
vn 0.9216 -0.3617 -0.1408
vn 0.5151 -0.7205 -0.4643
vn -0.2531 -0.8865 -0.3875
vn -0.1770 -0.7904 0.5865
vn -0.1023 -0.9596 0.2622
usemtl Material.004
f 1/1/1 2/2/1 3/3/1
f 1/4/2 3/5/2 4/6/2
f 1/4/3 4/6/3 5/7/3
f 1/8/4 5/9/4 6/10/4
f 3/3/5 2/2/5 7/11/5
f 8/12/6 3/13/6 9/14/6
f 10/15/7 4/6/7 11/16/7
f 1/8/8 6/10/8 12/17/8
f 3/13/9 7/18/9 13/19/9
f 8/12/10 9/14/10 14/20/10
f 15/21/11 16/22/11 17/23/11
f 18/24/12 19/25/12 20/26/12
f 21/27/13 22/28/13 23/29/13
f 23/29/14 22/28/15 20/26/16
f 22/28/15 18/24/17 20/26/16
f 19/25/18 24/30/18 20/26/18
f 19/25/19 25/31/19 24/30/19
f 24/30/20 17/23/20 20/26/20
f 24/30/21 26/32/21 17/23/21
f 26/32/22 15/21/22 17/23/22
f 17/23/23 23/29/23 20/26/23
f 17/23/24 16/22/24 23/29/24
f 16/22/25 21/27/25 23/29/25
f 10/15/26 22/28/26 21/27/26
f 10/15/27 11/16/27 22/28/27
f 11/16/28 18/24/28 22/28/28
f 14/33/29 19/25/29 18/24/29
f 14/20/30 9/14/30 19/25/30
f 9/14/31 25/31/31 19/25/31
f 13/19/32 7/18/32 25/31/32
f 7/18/33 24/30/33 25/31/33
f 27/34/34 26/32/34 24/30/34
f 27/34/35 28/35/35 26/32/35
f 28/35/36 15/21/36 26/32/36
f 12/17/37 16/22/37 15/21/37
f 12/17/38 6/10/38 16/22/38
f 6/10/39 21/27/39 16/22/39
f 11/16/40 14/33/40 18/24/40
f 11/16/41 4/6/41 14/33/41
f 4/6/42 8/36/42 14/33/42
f 9/14/43 13/19/43 25/31/43
f 9/14/44 3/13/44 13/19/44
f 7/11/45 27/34/45 24/30/45
f 7/11/46 2/2/46 27/34/46
f 2/2/47 28/35/47 27/34/47
f 28/35/48 12/17/48 15/21/48
f 28/35/49 29/37/49 12/17/49
f 29/37/50 1/8/50 12/17/50
f 6/10/51 10/38/51 21/27/51
f 6/10/52 5/9/52 10/38/52
f 5/7/53 4/6/53 10/15/53
f 4/6/54 3/5/54 8/36/54
f 2/2/55 29/39/55 28/35/55
f 2/2/56 1/1/56 29/39/56
