mtllib LOW_POLY_set.mtl
o lp_tree5_Cube_011
v 16.043024 8.554264 -35.722298
v 17.681631 8.947865 -36.432510
v 17.440025 8.607969 -34.807026
v 16.975616 9.347951 -38.442730
v 18.337111 9.160111 -37.941559
v 19.449837 8.928234 -35.886002
v 15.594328 8.890383 -34.432991
v 16.826927 8.866096 -33.900330
v 19.057734 8.445833 -34.223866
v 17.694546 9.770249 -33.192028
v 20.114481 10.272354 -33.635983
v 20.429892 9.594710 -35.043072
v 19.864731 9.866909 -36.768711
v 20.673248 10.974360 -35.117382
v 20.056723 11.614753 -35.184574
v 20.236475 11.659312 -33.845451
v 19.465931 10.893673 -36.847652
v 18.141037 12.071079 -36.015965
v 18.825201 11.835277 -34.642338
v 16.697308 12.462220 -35.650223
v 16.857384 11.908640 -34.663349
v 18.345278 11.238763 -33.771847
v 16.117390 11.142560 -34.250084
v 15.479367 11.873802 -35.013958
v 15.853584 12.113889 -36.622463
v 14.978157 11.042099 -35.728828
v 14.972036 11.163810 -34.950016
v 14.613155 9.596085 -35.672325
v 14.852099 9.831009 -34.488972
v 15.629881 10.334918 -34.183243
v 15.857044 9.532154 -33.758133
v 16.928112 10.407109 -33.543289
v 18.773617 10.868579 -33.111649
v 14.991072 8.788247 -35.291565
v 15.554872 9.098076 -37.483475
v 15.700050 10.647319 -37.840691
v 16.623068 10.236717 -38.985905
v 17.066111 11.882324 -38.233845
v 18.052299 11.812860 -37.672863
v 16.949621 12.750545 -36.958618
v 17.761930 10.332557 -38.797939
v 18.737175 10.115464 -37.996773
vt 0.825178 0.807650
vt 0.825536 0.807397
vt 0.825565 0.807799
vt 0.825314 0.806927
vt 0.825613 0.807053
vt 0.825957 0.807417
vt 0.827218 0.805626
vt 0.827565 0.805442
vt 0.827665 0.805914
vt 0.827353 0.805958
vt 0.825995 0.807841
vt 0.827830 0.806387
vt 0.827308 0.806784
vt 0.827237 0.807237
vt 0.826866 0.807013
vt 0.827214 0.806336
vt 0.826815 0.807327
vt 0.826314 0.807452
vt 0.826021 0.807134
vt 0.826540 0.807154
vt 0.826483 0.806934
vt 0.826685 0.806902
vt 0.826080 0.806909
vt 0.826249 0.806536
vt 0.826558 0.806664
vt 0.826287 0.806214
vt 0.826526 0.806218
vt 0.826797 0.806570
vt 0.826688 0.806001
vt 0.826408 0.805909
vt 0.826082 0.806047
vt 0.826220 0.805689
vt 0.826468 0.805674
vt 0.826053 0.805303
vt 0.826403 0.805191
vt 0.826893 0.805526
vt 0.826839 0.805807
vt 0.827077 0.805829
vt 0.826971 0.806175
vt 0.826968 0.806714
vt 0.827237 0.805331
vt 0.825984 0.805041
vt 0.825633 0.805001
vt 0.825575 0.805502
vt 0.825690 0.805869
vt 0.825178 0.805707
vt 0.825322 0.806005
vt 0.825710 0.806348
vt 0.825897 0.806554
vt 0.826043 0.806286
vt 0.825552 0.806746
vt 0.825312 0.806630
vt 0.825756 0.806911
vn 0.1553 -0.9713 -0.1800
vn 0.1287 -0.9630 -0.2368
vn -0.0730 -0.9827 -0.1699
vn 0.0283 -0.9915 -0.1272
vn 0.0501 -0.9791 -0.1973
vn -0.1072 -0.9727 0.2056
vn -0.1046 -0.9706 0.2166
vn -0.1075 -0.9730 0.2045
vn -0.1075 -0.9730 0.2043
vn 0.0039 -0.9606 -0.2779
vn -0.1586 -0.9727 0.1696
vn 0.2478 -0.4238 0.8712
vn -0.0017 -0.6157 0.7880
vn 0.7167 -0.5519 0.4264
vn 0.6093 -0.7884 -0.0851
vn 0.7083 -0.6238 -0.3304
vn 0.9258 -0.1812 -0.3318
vn 0.9464 -0.1516 0.2851
vn 0.7215 0.6820 -0.1195
vn 0.9400 -0.0314 0.3397
vn 0.7857 0.2621 -0.5604
vn 0.6552 0.5799 -0.4842
vn 0.3949 0.7834 -0.4799
vn 0.2040 0.9767 0.0661
vn 0.1532 0.9868 -0.0534
vn 0.2688 0.9627 0.0314
vn 0.0274 0.8737 0.4857
vn -0.1708 0.8542 0.4911
vn 0.0244 0.8183 0.5742
vn -0.1922 0.6032 0.7741
vn -0.1493 0.8519 0.5021
vn -0.2093 0.6131 0.7618
vn -0.8106 0.5766 -0.1025
vn -0.8136 0.5734 -0.0965
vn -0.8135 0.5735 -0.0966
vn -0.8139 0.5730 -0.0959
vn -0.4185 0.9074 0.0381
vn -0.4708 0.4069 0.7828
vn -0.9750 0.1458 0.1679
vn -0.9690 0.2428 -0.0456
vn -0.5192 0.3208 0.7922
vn -0.4822 0.3573 0.7999
vn -0.4328 0.3232 0.8416
vn -0.4324 0.3268 0.8404
vn -0.4316 0.3301 0.8395
vn -0.4320 0.3302 0.8392
vn -0.5059 0.2875 0.8133
vn -0.3086 0.1470 0.9398
vn -0.2018 -0.4766 0.8556
vn -0.3213 -0.6206 0.7153
vn -0.6098 -0.4421 0.6578
vn -0.2695 0.1958 0.9429
vn -0.3236 0.7201 0.6137
vn -0.1972 0.5576 0.8064
vn 0.2313 -0.2951 0.9271
vn 0.4014 0.1022 0.9102
vn -0.1591 0.8135 0.5594
vn -0.6779 -0.5030 0.5361
vn -0.9172 -0.3125 0.2472
vn -0.1308 -0.9695 0.2072
vn -0.2925 -0.9336 -0.2072
vn -0.8116 -0.5122 -0.2811
vn -0.8895 -0.0219 -0.4565
vn -0.3794 -0.5874 -0.7149
vn -0.7885 -0.0671 -0.6114
vn -0.0263 -0.9572 -0.2883
vn -0.6034 0.4601 -0.6513
vn -0.9108 0.2162 -0.3517
vn -0.6394 0.5298 -0.5572
vn -0.8468 0.3896 -0.3623
vn 0.3439 0.7905 -0.5068
vn -0.5440 0.6696 -0.5056
vn 0.1185 0.3862 -0.9148
vn 0.4594 0.4786 -0.7483
vn 0.2398 -0.4932 -0.8362
vn 0.5703 -0.2834 -0.7710
vn 0.1821 -0.4591 -0.8695
vn 0.6373 0.3846 -0.6678
vn 0.6356 0.3842 -0.6696
vn 0.6358 0.3841 -0.6694
vn 0.6655 -0.3177 -0.6754
vn 0.6390 0.3849 -0.6659
vn 0.7389 0.2385 -0.6302
vn 0.5794 0.8000 -0.1557
vn 0.6004 0.7847 -0.1544
vn 0.3136 0.9128 0.2616
vn -0.4765 0.8734 0.1006
vn 0.6239 -0.6637 -0.4126
usemtl Material.004
f 1/1/1 2/2/1 3/3/1
f 2/2/2 1/1/2 4/4/2
f 2/2/3 4/4/3 5/5/3
f 2/2/4 5/5/4 6/6/4
f 2/2/5 6/6/5 3/3/5
f 7/7/6 1/8/7 3/9/8
f 7/7/6 3/9/8 8/10/9
f 3/3/10 6/6/10 9/11/10
f 3/9/11 9/12/11 8/10/11
f 10/13/12 9/14/12 11/15/12
f 8/10/13 9/12/13 10/16/13
f 9/14/14 12/17/14 11/15/14
f 6/6/15 12/18/15 9/11/15
f 6/6/16 13/19/16 12/18/16
f 12/18/17 13/19/17 14/20/17
f 12/17/18 14/20/18 11/15/18
f 14/20/19 15/21/19 16/22/19
f 11/15/20 14/20/20 16/22/20
f 14/20/21 13/19/21 17/23/21
f 14/20/22 17/23/22 15/21/22
f 17/23/23 18/24/23 15/21/23
f 15/21/24 18/24/24 19/25/24
f 16/22/25 15/21/25 19/25/25
f 19/25/26 18/24/26 20/26/26
f 19/25/27 20/26/27 21/27/27
f 22/28/28 16/22/28 19/25/28
f 22/28/29 19/25/29 21/27/29
f 23/29/30 22/28/30 21/27/30
f 20/26/31 24/30/31 21/27/31
f 24/30/32 23/29/32 21/27/32
f 25/31/33 26/32/34 24/30/35
f 26/32/34 27/33/36 24/30/35
f 20/26/37 25/31/37 24/30/37
f 24/30/38 27/33/38 23/29/38
f 28/34/39 29/35/39 27/33/39
f 28/34/40 27/33/40 26/32/40
f 29/36/41 30/37/41 27/33/41
f 27/33/42 30/37/42 23/29/42
f 31/38/43 32/39/44 30/37/45
f 30/37/45 32/39/44 23/29/46
f 29/36/47 31/38/47 30/37/47
f 31/38/48 10/16/48 32/39/48
f 8/10/49 10/16/49 31/38/49
f 7/7/50 8/10/50 31/38/50
f 29/36/51 7/7/51 31/38/51
f 10/16/52 33/40/52 32/39/52
f 32/39/53 33/40/53 22/28/53
f 23/29/54 32/39/54 22/28/54
f 10/13/55 11/15/55 33/40/55
f 11/15/56 16/22/56 33/40/56
f 33/40/57 16/22/57 22/28/57
f 34/41/58 7/7/58 29/36/58
f 34/42/59 29/35/59 28/34/59
f 34/41/60 1/8/60 7/7/60
f 1/43/61 34/42/61 35/44/61
f 35/44/62 34/42/62 28/34/62
f 36/45/63 35/44/63 28/34/63
f 4/46/64 35/44/64 37/47/64
f 37/47/65 35/44/65 36/45/65
f 4/46/66 1/43/66 35/44/66
f 37/47/67 36/45/67 38/48/67
f 36/45/68 28/34/68 26/32/68
f 38/48/69 36/45/69 25/31/69
f 36/45/70 26/32/70 25/31/70
f 39/49/71 38/48/71 40/50/71
f 38/48/72 25/31/72 40/50/72
f 41/51/73 37/52/73 38/48/73
f 39/49/74 41/51/74 38/48/74
f 5/5/75 4/4/75 41/51/75
f 5/5/76 41/51/76 42/53/76
f 4/4/77 37/52/77 41/51/77
f 42/53/78 41/51/79 39/49/80
f 5/5/81 42/53/81 13/19/81
f 42/53/78 39/49/80 17/23/82
f 13/19/83 42/53/83 17/23/83
f 39/49/84 40/50/84 18/24/84
f 17/23/85 39/49/85 18/24/85
f 18/24/86 40/50/86 20/26/86
f 40/50/87 25/31/87 20/26/87
f 6/6/88 5/5/88 13/19/88
