mtllib LOW_POLY_set.mtl
o lp_tree5_Cube_012
v 15.590549 8.401810 -39.349182
v 14.784892 8.757257 -40.545082
v 16.272421 8.717484 -40.229031
v 17.506376 8.749957 -38.599636
v 15.655807 8.500950 -37.916138
v 14.265518 8.509238 -39.376526
v 13.908245 8.943764 -37.934742
v 13.498828 9.398092 -39.339832
v 13.517305 9.276983 -40.582085
v 15.055485 8.979413 -36.937916
v 13.886530 9.721451 -38.749569
v 14.363672 9.603065 -37.335304
v 17.812340 9.109660 -37.316185
v 16.857430 9.760571 -37.325787
v 18.759813 9.711493 -38.145390
v 18.486530 10.092718 -37.774887
v 18.319466 10.484619 -38.837780
v 17.989931 9.836446 -39.507336
v 17.371178 10.540669 -39.930374
v 16.913185 9.972420 -40.646809
v 16.352150 10.366225 -40.665218
v 15.709226 9.650442 -41.184135
v 16.648355 11.031578 -39.973755
v 15.843399 10.741093 -40.438305
v 15.227450 10.158143 -40.961002
v 17.412634 11.057704 -39.323189
v 16.590210 11.452443 -39.207062
v 15.773207 11.277744 -39.847145
v 17.708344 11.092992 -38.508984
v 16.387251 11.339182 -38.411716
v 15.636856 11.462527 -39.108707
v 14.964358 11.116467 -38.627193
v 14.749716 11.086627 -39.629620
v 14.016823 10.390445 -40.194298
v 14.055025 10.470929 -39.330311
v 14.873334 10.638186 -40.439671
v 13.996921 9.923569 -40.814690
v 13.533457 9.874831 -39.995098
v 14.409916 9.614332 -41.271774
v 14.259995 10.279600 -38.206898
v 15.857677 10.702849 -37.765732
v 17.489992 10.750586 -37.841732
vt 0.817658 0.817133
vt 0.817314 0.817151
vt 0.817556 0.816886
vt 0.818032 0.816830
vt 0.817949 0.817279
vt 0.817499 0.817397
vt 0.817306 0.818159
vt 0.817367 0.817947
vt 0.817455 0.818132
vt 0.817453 0.818261
vt 0.817324 0.818329
vt 0.817760 0.817650
vt 0.818099 0.817523
vt 0.817664 0.817906
vt 0.817985 0.817735
vt 0.817518 0.818033
vt 0.818340 0.816918
vt 0.818483 0.817613
vt 0.818618 0.818145
vt 0.818205 0.817603
vt 0.818923 0.818251
vt 0.818114 0.819280
vt 0.818449 0.819123
vt 0.818383 0.819430
vt 0.818923 0.818675
vt 0.818789 0.818570
vt 0.818593 0.818825
vt 0.818148 0.818959
vt 0.818353 0.818875
vt 0.818046 0.818776
vt 0.817702 0.819095
vt 0.817859 0.818831
vt 0.817802 0.818717
vt 0.817577 0.818796
vt 0.817971 0.818626
vt 0.817784 0.818585
vt 0.817563 0.818614
vt 0.818171 0.818672
vt 0.818084 0.818507
vt 0.817887 0.818474
vt 0.818379 0.818635
vt 0.818181 0.818370
vt 0.817975 0.818362
vt 0.817937 0.818195
vt 0.817770 0.818307
vt 0.817580 0.818277
vt 0.817657 0.818142
vt 0.817631 0.818428
vt 0.817502 0.818315
vt 0.817509 0.818480
vt 0.817513 0.818219
vt 0.817454 0.818364
vt 0.817398 0.818505
vt 0.817857 0.817961
vt 0.818228 0.818127
vt 0.818493 0.818456
vt 0.817367 0.819039
vn 0.0404 -0.9500 -0.3096
vn 0.2368 -0.9582 -0.1603
vn 0.1553 -0.9860 0.0611
vn -0.0736 -0.9684 -0.2383
vn -0.0821 -0.9940 0.0725
vn -0.7570 -0.6533 0.0093
vn -0.7551 -0.6535 0.0525
vn -0.3482 -0.8735 -0.3402
vn -0.2416 -0.9440 0.2246
vn -0.2369 -0.9222 0.3057
vn -0.8901 0.3176 0.3269
vn -0.8580 0.3599 0.3664
vn -0.6337 -0.2329 0.7377
vn 0.1080 -0.8653 0.4895
vn -0.0354 0.5088 0.8602
vn 0.1242 0.1965 0.9726
vn 0.2086 -0.9535 0.2175
vn 0.5866 -0.8053 0.0858
vn 0.7064 -0.1631 0.6888
vn 0.1959 0.3011 0.9332
vn 0.8403 0.5380 0.0663
vn 0.8713 0.0601 -0.4870
vn 0.6431 -0.6389 -0.4222
vn 0.7339 0.2705 -0.6231
vn 0.6125 -0.6493 -0.4509
vn 0.5938 -0.5103 -0.6220
vn 0.7196 0.2411 -0.6512
vn 0.4182 0.5624 -0.7134
vn 0.4210 0.5570 -0.7159
vn 0.4185 0.5618 -0.7136
vn 0.4613 -0.4833 -0.7441
vn 0.2922 0.3752 -0.8797
vn 0.4211 0.5567 -0.7161
vn 0.1734 0.6715 -0.7204
vn 0.0952 0.6069 -0.7891
vn 0.1322 0.5012 -0.8552
vn 0.4783 0.6523 -0.5881
vn 0.3397 0.8351 -0.4326
vn 0.1133 0.7423 -0.6604
vn 0.1772 0.8683 -0.4632
vn 0.4038 0.8959 -0.1855
vn 0.1932 0.9633 0.1865
vn 0.0257 0.9888 0.1474
vn -0.0151 0.9693 -0.2453
vn -0.1984 0.9060 0.3740
vn -0.4206 0.9051 0.0631
vn -0.2328 0.9324 -0.2763
vn -0.6722 0.7394 -0.0392
vn -0.3691 0.7881 -0.4926
vn -0.6315 0.7672 0.1124
vn -0.2603 0.8273 -0.4977
vn -0.3736 0.7469 -0.5501
vn -0.2102 0.6439 -0.7357
vn -0.0741 0.7080 -0.7023
vn -0.0769 0.7337 -0.6751
vn -0.7425 0.5464 -0.3874
vn -0.7939 0.4367 -0.4230
vn -0.2149 0.7077 -0.6730
vn -0.6469 0.2168 -0.7311
vn 0.0483 0.4399 -0.8967
vn 0.0698 -0.6272 -0.7757
vn -0.2625 -0.6883 -0.6763
vn -0.8576 0.4214 0.2950
vn -0.7351 0.6773 -0.0306
vn -0.8352 0.4647 0.2940
vn -0.9988 0.0460 -0.0193
vn -0.8971 0.3784 0.2281
vn -0.6791 0.6931 0.2419
vn -0.3555 0.7174 0.5991
vn -0.9010 0.2842 0.3278
vn -0.3574 0.6416 0.6787
vn 0.0285 0.4476 0.8938
vn -0.0286 0.3978 0.9170
vn 0.0122 0.7073 0.7068
vn -0.2114 0.7774 0.5925
vn 0.1782 0.3628 0.9147
vn 0.4461 0.7285 0.5198
vn 0.1942 0.8455 0.4974
vn 0.7339 0.6667 0.1305
vn 0.6102 0.7504 -0.2541
vn 0.6375 0.5646 -0.5243
vn 0.1378 -0.6667 -0.7325
usemtl Material.004
f 1/1/1 2/2/1 3/3/1
f 1/1/2 3/3/2 4/4/2
f 1/1/3 4/4/3 5/5/3
f 2/2/4 1/1/4 6/6/4
f 1/1/5 5/5/5 6/6/5
f 6/7/6 7/8/6 8/9/6
f 9/10/7 6/7/7 8/9/7
f 9/10/8 2/11/8 6/7/8
f 6/6/9 5/5/9 7/12/9
f 5/5/10 10/13/10 7/12/10
f 11/14/11 7/12/11 12/15/11
f 8/9/12 7/8/12 11/16/12
f 7/12/13 10/13/13 12/15/13
f 5/5/14 13/17/14 10/13/14
f 10/18/15 14/19/15 12/20/15
f 10/18/16 13/21/16 14/19/16
f 5/5/17 4/4/17 13/17/17
f 4/22/18 15/23/18 13/24/18
f 13/21/19 15/25/19 16/26/19
f 14/19/20 13/21/20 16/26/20
f 15/25/21 17/27/21 16/26/21
f 15/23/22 18/28/22 17/29/22
f 4/22/23 18/28/23 15/23/23
f 17/29/24 18/28/24 19/30/24
f 4/22/25 3/31/25 18/28/25
f 3/31/26 20/32/26 18/28/26
f 18/28/27 20/32/27 19/30/27
f 20/32/28 21/33/29 19/30/30
f 3/31/31 22/34/31 20/32/31
f 20/32/32 22/34/32 21/33/32
f 19/30/30 21/33/29 23/35/33
f 21/33/34 24/36/34 23/35/34
f 21/33/35 25/37/35 24/36/35
f 21/33/36 22/34/36 25/37/36
f 19/30/37 23/35/37 26/38/37
f 26/38/38 23/35/38 27/39/38
f 23/35/39 24/36/39 28/40/39
f 27/39/40 23/35/40 28/40/40
f 29/41/41 26/38/41 27/39/41
f 30/42/42 29/41/42 27/39/42
f 30/42/43 27/39/43 31/43/43
f 27/39/44 28/40/44 31/43/44
f 32/44/45 30/42/45 31/43/45
f 33/45/46 32/44/46 31/43/46
f 28/40/47 33/45/47 31/43/47
f 34/46/48 35/47/48 33/45/48
f 36/48/49 34/46/49 33/45/49
f 33/45/50 35/47/50 32/44/50
f 28/40/51 36/48/51 33/45/51
f 37/49/52 34/46/52 36/48/52
f 25/50/53 37/49/53 36/48/53
f 25/37/54 36/48/54 24/36/54
f 24/36/55 36/48/55 28/40/55
f 37/49/56 38/51/56 34/46/56
f 37/49/57 9/10/57 38/51/57
f 39/52/58 37/49/58 25/50/58
f 39/52/59 9/10/59 37/49/59
f 22/53/60 39/52/60 25/50/60
f 2/11/61 39/52/61 22/53/61
f 39/52/62 2/11/62 9/10/62
f 38/51/63 11/16/63 35/47/63
f 38/51/64 35/47/64 34/46/64
f 8/9/65 11/16/65 38/51/65
f 9/10/66 8/9/66 38/51/66
f 11/14/67 40/54/67 35/47/67
f 35/47/68 40/54/68 32/44/68
f 12/15/69 41/55/69 40/54/69
f 11/14/70 12/15/70 40/54/70
f 40/54/71 41/55/71 32/44/71
f 14/19/72 42/56/72 41/55/72
f 12/20/73 14/19/73 41/55/73
f 41/55/74 42/56/74 30/42/74
f 32/44/75 41/55/75 30/42/75
f 14/19/76 16/26/76 42/56/76
f 16/26/77 29/41/77 42/56/77
f 42/56/78 29/41/78 30/42/78
f 16/26/79 17/27/79 29/41/79
f 17/29/80 26/38/80 29/41/80
f 17/29/81 19/30/81 26/38/81
f 3/31/82 2/57/82 22/34/82
