# Blender v2.77 (sub 0) OBJ File: 'Lowpoly tropical plant set.blend'
# www.blender.org
mtllib Lowpoly tropical plant set.mtl
o Plant_alpha_1
v -0.186166 -0.011648 3.228736
v 0.437721 -0.011648 3.228736
v -0.186166 0.748566 2.033472
v 0.437721 0.748566 2.033472
v -0.186166 0.963870 2.420600
v -0.186166 0.908779 2.873660
v -0.186166 0.589961 3.142416
v 0.437721 0.589961 3.142416
v 0.437721 0.908779 2.873660
v 0.437721 0.963870 2.420600
v 0.195945 0.010578 3.240382
v -0.343170 0.010578 3.287548
v 0.286308 0.776105 4.309889
v -0.252807 0.776105 4.357056
v 0.257041 0.873729 3.975362
v 0.222789 0.757882 3.583862
v 0.202471 0.549391 3.351624
v -0.336644 0.549391 3.398790
v -0.316326 0.757882 3.631029
v -0.282074 0.873729 4.022529
v 0.085964 0.008490 3.093666
v -0.099129 0.008490 3.602204
v 1.106881 0.686969 3.483956
v 0.921788 0.686969 3.992494
v 0.791328 0.873729 3.369104
v 0.422033 0.825942 3.234692
v 0.202966 0.549391 3.154958
v 0.017874 0.549391 3.663496
v 0.236940 0.825942 3.743230
v 0.606235 0.873729 3.877642
v -0.045068 -0.001293 3.366787
v 0.086361 -0.001293 2.971629
v -0.828010 0.519199 3.103792
v -0.696581 0.519199 2.708634
v -0.582810 0.662913 3.185345
v -0.295850 0.626140 3.280787
v -0.125625 0.413331 3.337403
v 0.005803 0.413331 2.942245
v -0.164422 0.626140 2.885628
v -0.451382 0.662913 2.790186
v 0.042906 -0.011648 3.483368
v 0.042906 -0.011648 2.859481
v -0.950868 1.316210 3.419671
v -0.950868 1.316210 2.923178
v -0.578253 1.211084 3.419671
v -0.193929 0.894911 3.419671
v -0.043414 0.589961 3.427312
v -0.043414 0.589961 2.912724
v -0.193928 0.894911 2.923178
v -0.578253 1.211084 2.923178
v -0.022248 0.033957 3.098232
v 0.319130 0.033957 3.538208
v 0.713434 1.219205 2.599380
v 0.985105 1.219205 2.949516
v 0.450659 1.125368 2.803267
v 0.179626 0.843152 3.013561
v 0.069299 0.570954 3.090531
v 0.350871 0.570954 3.453429
v 0.451296 0.843152 3.363698
v 0.722329 1.125368 3.153404
v 0.239337 0.033957 3.142671
v -0.219046 0.033957 3.458905
v 0.696258 1.219205 3.905103
v 0.331475 1.219205 4.156764
v 0.507388 1.125368 3.631335
v 0.312583 0.843152 3.348964
v 0.241904 0.570954 3.234505
v -0.136174 0.570954 3.495338
v -0.052200 0.843152 3.600625
v 0.142605 1.125368 3.882996
v -0.028494 0.013027 3.170634
v 0.173719 0.013027 3.499288
v 0.624520 0.495322 2.771523
v 0.826734 0.495322 3.100178
v 0.420587 0.628490 2.896999
v 0.181921 0.594416 3.043844
v 0.040344 0.397223 3.130953
v 0.242558 0.397223 3.459607
v 0.384134 0.594416 3.372499
v 0.622800 0.628490 3.225653
v 0.108746 0.013027 3.207877
v -0.201034 0.013027 3.437965
v 0.563252 0.435293 3.823622
v 0.253472 0.435293 4.053710
v 0.420480 0.568461 3.631400
v 0.253392 0.552816 3.406441
v 0.154276 0.397223 3.272995
v -0.155504 0.397223 3.503083
v -0.056388 0.552816 3.636529
v 0.110700 0.568461 3.861488
v 0.154351 -0.001293 3.356941
v -0.246490 -0.001293 3.244025
v -0.071960 0.356190 4.151263
v -0.472801 0.356190 4.038348
v -0.001895 0.572722 3.902537
v 0.080103 0.581171 3.611450
v 0.128744 0.413331 3.438777
v -0.272097 0.413331 3.325862
v -0.320738 0.581171 3.498535
v -0.402736 0.572722 3.789622
v 0.089263 0.015748 3.419808
v -0.200077 0.015748 3.075991
v -0.753505 0.741950 3.883027
v -1.042845 0.741950 3.539211
v -0.490365 0.834559 3.737466
v -0.182409 0.724663 3.567114
v 0.000271 0.526883 3.466061
v -0.289069 0.526883 3.122245
v -0.471749 0.724663 3.223298
v -0.779705 0.834559 3.393650
v -0.123137 0.003535 3.226563
v 0.262066 0.008724 3.248832
v -0.075515 0.241422 2.386821
v 0.309687 0.246611 2.409089
v -0.089703 0.425363 2.589382
v -0.106308 0.473614 2.865363
v -0.116157 0.359742 3.062283
v 0.269045 0.364931 3.084551
v 0.278895 0.478803 2.887631
v 0.295499 0.430552 2.611650
vt 0.0000 0.7500
vt 1.0000 0.7500
vt 1.0000 1.0000
vt 0.0000 1.0000
vt 0.0000 0.0000
vt 1.0000 0.0000
vt 1.0000 0.2500
vt 0.0000 0.2500
vt 1.0000 0.5000
vt 0.0000 0.5000
vt 0.0000 0.7500
vt 1.0000 0.7500
vt 1.0000 1.0000
vt 0.0000 1.0000
vt 0.0000 0.0000
vt 1.0000 0.0000
vt 1.0000 0.2500
vt 0.0000 0.2500
vt 1.0000 0.5000
vt 0.0000 0.5000
vt 0.0000 0.7500
vt 1.0000 0.7500
vt 1.0000 1.0000
vt 0.0000 1.0000
vt 0.0000 0.0000
vt 1.0000 0.0000
vt 1.0000 0.2500
vt 0.0000 0.2500
vt 1.0000 0.5000
vt 0.0000 0.5000
vt 0.0000 0.7500
vt 1.0000 0.7500
vt 1.0000 1.0000
vt 0.0000 1.0000
vt 0.0000 0.0000
vt 1.0000 0.0000
vt 1.0000 0.2500
vt 0.0000 0.2500
vt 1.0000 0.5000
vt 0.0000 0.5000
vt 0.0000 0.7500
vt 1.0000 0.7500
vt 1.0000 1.0000
vt 0.0000 1.0000
vt 0.0000 0.0000
vt 1.0000 0.0000
vt 1.0000 0.2500
vt 0.0000 0.2500
vt 1.0000 0.5000
vt 0.0000 0.5000
vt 0.0000 0.7500
vt 1.0000 0.7500
vt 1.0000 1.0000
vt 0.0000 1.0000
vt 0.0000 0.0000
vt 1.0000 0.0000
vt 1.0000 0.2500
vt 0.0000 0.2500
vt 1.0000 0.5000
vt 0.0000 0.5000
vt 0.0000 0.7500
vt 1.0000 0.7500
vt 1.0000 1.0000
vt 0.0000 1.0000
vt 0.0000 0.0000
vt 1.0000 0.0000
vt 1.0000 0.2500
vt 0.0000 0.2500
vt 1.0000 0.5000
vt 0.0000 0.5000
vt 0.0000 0.7500
vt 1.0000 0.7500
vt 1.0000 1.0000
vt 0.0000 1.0000
vt 0.0000 0.0000
vt 1.0000 0.0000
vt 1.0000 0.2500
vt 0.0000 0.2500
vt 1.0000 0.5000
vt 0.0000 0.5000
vt 0.0000 0.7500
vt 1.0000 0.7500
vt 1.0000 1.0000
vt 0.0000 1.0000
vt 0.0000 0.0000
vt 1.0000 0.0000
vt 1.0000 0.2500
vt 0.0000 0.2500
vt 1.0000 0.5000
vt 0.0000 0.5000
vt 0.0000 0.7500
vt 1.0000 0.7500
vt 1.0000 1.0000
vt 0.0000 1.0000
vt 0.0000 0.0000
vt 1.0000 0.0000
vt 1.0000 0.2500
vt 0.0000 0.2500
vt 1.0000 0.5000
vt 0.0000 0.5000
vt 0.0000 0.7500
vt 1.0000 0.7500
vt 1.0000 1.0000
vt 0.0000 1.0000
vt 0.0000 0.0000
vt 1.0000 0.0000
vt 1.0000 0.2500
vt 0.0000 0.2500
vt 1.0000 0.5000
vt 0.0000 0.5000
vt 0.0000 0.7500
vt 1.0000 0.7500
vt 1.0000 1.0000
vt 0.0000 1.0000
vt 0.0000 0.0000
vt 1.0000 0.0000
vt 1.0000 0.2500
vt 0.0000 0.2500
vt 1.0000 0.5000
vt 0.0000 0.5000
vn 0.0000 0.9814 -0.1921
vn 0.0000 0.8739 -0.4860
vn 0.0000 0.1420 0.9898
vn 0.0000 0.4091 0.9125
vn 0.0000 0.8796 0.4756
vn -0.0002 1.0000 -0.0019
vn 0.0243 0.9602 0.2781
vn -0.0853 0.2024 -0.9756
vn -0.0755 0.4996 -0.8630
vn -0.0755 0.4985 -0.8636
vn -0.0424 0.8736 -0.4847
vn 0.1805 0.9814 0.0657
vn 0.4567 0.8739 0.1662
vn -0.9133 0.2352 -0.3324
vn -0.8372 0.4541 -0.3047
vn -0.8392 0.4498 -0.3055
vn -0.4469 0.8796 -0.1627
vn -0.1823 0.9814 -0.0606
vn -0.4612 0.8739 -0.1534
vn 0.9292 0.2024 0.3091
vn 0.8533 0.4373 0.2838
vn 0.8537 0.4364 0.2839
vn 0.4513 0.8796 0.1501
vn 0.4633 0.8862 0.0000
vn 0.2715 0.9624 0.0000
vn 0.9898 0.1420 0.0000
vn 0.9569 0.2904 0.0000
vn 0.9568 0.2906 0.0000
vn 0.7848 0.6197 0.0000
vn 0.7845 0.6201 0.0000
vn -0.3660 0.8862 0.2840
vn -0.2145 0.9624 0.1664
vn -0.7820 0.1420 0.6068
vn -0.7560 0.2904 0.5866
vn -0.7560 0.2906 0.5865
vn -0.6201 0.6197 0.4811
vn -0.6198 0.6201 0.4809
vn -0.2631 0.8862 -0.3813
vn -0.1542 0.9624 -0.2235
vn -0.5621 0.1420 -0.8148
vn -0.5434 0.2904 -0.7877
vn -0.5434 0.2906 -0.7876
vn -0.4457 0.6197 -0.6460
vn -0.4455 0.6201 -0.6457
vn 0.1636 0.9814 -0.1007
vn 0.4140 0.8739 -0.2547
vn -0.8340 0.2024 0.5132
vn -0.7659 0.4373 0.4713
vn -0.7663 0.4364 0.4715
vn -0.4051 0.8796 0.2492
vn 0.1335 0.9746 0.1798
vn 0.2898 0.8739 0.3902
vn -0.5839 0.2024 -0.7862
vn -0.5199 0.4897 -0.6999
vn -0.5202 0.4887 -0.7004
vn -0.2344 0.9195 -0.3156
vn -0.0962 0.9349 0.3415
vn -0.1741 0.7665 0.6182
vn 0.2655 0.2024 -0.9426
vn 0.2364 0.4898 -0.8392
vn 0.2365 0.4888 -0.8397
vn 0.0960 0.9351 -0.3410
vn 0.0300 0.9992 -0.0253
vn -0.0270 0.9994 0.0227
vn -0.2291 0.9541 0.1928
vn 0.7515 0.1881 -0.6324
vn 0.6663 0.4916 -0.5607
vn 0.6797 0.4591 -0.5720
vn 0.3762 0.8708 -0.3166
vn 0.4081 0.8459 -0.3434
vn 0.0132 0.8984 -0.4389
vn 0.0288 0.7410 -0.6709
vn -0.0580 0.4190 0.9061
vn -0.0516 0.6744 0.7365
vn -0.0517 0.6736 0.7373
vn -0.0233 0.9845 0.1735
usemtl Plant_alpha_1
s 1
f 5/1/1 10/2/1 4/3/2 3/4/2
f 1/5/3 2/6/3 8/7/4 7/8/4
f 7/8/4 8/7/4 9/9/5 6/10/5
f 6/10/5 9/9/5 10/2/1 5/1/1
f 15/11/6 20/12/6 14/13/7 13/14/7
f 11/15/8 12/16/8 18/17/9 17/18/10
f 17/18/10 18/17/9 19/19/11 16/20/11
f 16/20/11 19/19/11 20/12/6 15/11/6
f 25/21/12 30/22/12 24/23/13 23/24/13
f 21/25/14 22/26/14 28/27/15 27/28/16
f 27/28/16 28/27/15 29/29/17 26/30/17
f 26/30/17 29/29/17 30/22/12 25/21/12
f 35/31/18 40/32/18 34/33/19 33/34/19
f 31/35/20 32/36/20 38/37/21 37/38/22
f 37/38/22 38/37/21 39/39/23 36/40/23
f 36/40/23 39/39/23 40/32/18 35/31/18
f 45/41/24 50/42/24 44/43/25 43/44/25
f 41/45/26 42/46/26 48/47/27 47/48/28
f 47/48/28 48/47/27 49/49/29 46/50/30
f 46/50/30 49/49/29 50/42/24 45/41/24
f 55/51/31 60/52/31 54/53/32 53/54/32
f 51/55/33 52/56/33 58/57/34 57/58/35
f 57/58/35 58/57/34 59/59/36 56/60/37
f 56/60/37 59/59/36 60/52/31 55/51/31
f 65/61/38 70/62/38 64/63/39 63/64/39
f 61/65/40 62/66/40 68/67/41 67/68/42
f 67/68/42 68/67/41 69/69/43 66/70/44
f 66/70/44 69/69/43 70/62/38 65/61/38
f 75/71/45 80/72/45 74/73/46 73/74/46
f 71/75/47 72/76/47 78/77/48 77/78/49
f 77/78/49 78/77/48 79/79/50 76/80/50
f 76/80/50 79/79/50 80/72/45 75/71/45
f 85/81/51 90/82/51 84/83/52 83/84/52
f 81/85/53 82/86/53 88/87/54 87/88/55
f 87/88/55 88/87/54 89/89/56 86/90/56
f 86/90/56 89/89/56 90/82/51 85/81/51
f 95/91/57 100/92/57 94/93/58 93/94/58
f 91/95/59 92/96/59 98/97/60 97/98/61
f 97/98/61 98/97/60 99/99/62 96/100/62
f 96/100/62 99/99/62 100/92/57 95/91/57
f 105/101/63 110/102/64 104/103/65 103/104/65
f 101/105/66 102/106/66 108/107/67 107/108/68
f 107/108/68 108/107/67 109/109/69 106/110/70
f 106/110/70 109/109/69 110/102/64 105/101/63
f 115/111/71 120/112/71 114/113/72 113/114/72
f 111/115/73 112/116/73 118/117/74 117/118/75
f 117/118/75 118/117/74 119/119/76 116/120/76
f 116/120/76 119/119/76 120/112/71 115/111/71
o Plant_alpha_2
v -1.029329 -0.352516 -1.395839
v 1.085406 -0.352516 -1.395839
v -1.029329 1.081221 0.496787
v 1.085406 1.081221 0.496787
v -1.029329 1.080675 -0.253117
v 1.085406 1.080675 -0.253117
v -1.029329 0.839833 -0.797474
v 1.085406 0.839833 -0.797474
v 0.855337 -0.246966 -1.486728
v -0.672776 -0.287688 -0.749205
v -0.070512 1.112936 -3.197560
v -1.598474 1.072218 -2.460110
v 0.409955 0.895960 -2.280321
v -1.118158 0.855238 -1.542799
v 0.555632 0.656493 -1.947020
v -0.972481 0.615771 -1.209498
v 0.076418 -0.386891 -0.357635
v -0.400521 -0.148074 -2.074676
v 1.834996 0.571720 -0.584419
v 1.358056 0.810537 -2.301459
v 1.131688 0.629662 -0.554970
v 0.654749 0.868479 -2.272011
v 0.688751 0.463103 -0.477122
v 0.211812 0.701920 -2.194162
v -0.515000 -0.318589 -1.518095
v 0.788106 -0.119596 -1.333754
v -0.755843 0.297595 -0.290076
v 0.516016 0.424930 0.081175
v -0.754598 0.456637 -0.641926
v 0.548508 0.655629 -0.457586
v -0.707991 0.431911 -1.026939
v 0.595115 0.630904 -0.842598
v 0.813894 -0.280358 -1.477825
v -0.802052 -0.471151 -1.066719
v 0.187347 1.897260 -2.181405
v -1.433317 1.706467 -1.793077
v 0.605239 1.224129 -1.619688
v -1.010707 1.033336 -1.208582
v 0.718195 0.764567 -1.489393
v -0.897751 0.573774 -1.078287
v 0.715444 0.054870 -1.683058
v -0.280845 -0.690377 -0.807575
v -0.358479 0.513419 -2.545508
v -1.354768 0.401154 -1.670026
v -0.026256 0.518699 -2.187772
v -1.022546 0.406434 -1.312290
v 0.234966 0.408660 -1.921930
v -0.761323 0.296395 -1.046448
v -0.832134 -0.247683 -1.183791
v 0.896272 -0.422997 -1.528558
v -0.240980 2.150645 0.067755
v 1.490277 1.971360 -0.250190
v -0.626803 1.468086 -0.702838
v 1.101602 1.292772 -1.047605
v -0.733062 0.962063 -0.981075
v 0.995343 0.786750 -1.325842
v 1.295940 1.689816 -0.690862
v -0.433891 1.867115 -0.359506
v 0.246005 -0.312634 -2.142910
v 0.358389 -0.037559 -0.369135
v -1.873403 0.154882 -2.224946
v -1.761020 0.429958 -0.451171
v -1.160478 0.391437 -2.131819
v -1.048095 0.666512 -0.358043
v -0.643866 0.346951 -2.131570
v -0.531483 0.622027 -0.357794
v -0.442248 -0.111205 -0.824031
v 0.468179 -0.228290 -1.754040
v 0.579350 0.585497 0.088468
v 1.489777 0.468413 -0.841541
v 0.266146 0.621180 -0.276841
v 1.176573 0.504095 -1.206850
v 0.021603 0.535945 -0.514950
v 0.932031 0.418860 -1.444959
vt 0.0000 0.5000
vt 0.0000 1.0000
vt 1.0000 1.0000
vt 1.0000 0.5000
vt 0.0000 0.2500
vt 1.0000 0.2500
vt 0.0000 0.0000
vt 1.0000 0.0000
vt 0.0000 0.5000
vt 0.0000 1.0000
vt 1.0000 1.0000
vt 1.0000 0.5000
vt 0.0000 0.2500
vt 1.0000 0.2500
vt 0.0000 0.0000
vt 1.0000 0.0000
vt 0.0000 0.5000
vt 0.0000 1.0000
vt 1.0000 1.0000
vt 1.0000 0.5000
vt 0.0000 0.2500
vt 1.0000 0.2500
vt 0.0000 0.0000
vt 1.0000 0.0000
vt 0.0000 0.5000
vt 0.0000 1.0000
vt 1.0000 1.0000
vt 1.0000 0.5000
vt 0.0000 0.2500
vt 1.0000 0.2500
vt 0.0000 0.0000
vt 1.0000 0.0000
vt 0.0000 0.5000
vt 0.0000 1.0000
vt 1.0000 1.0000
vt 1.0000 0.5000
vt 0.0000 0.2500
vt 1.0000 0.2500
vt 0.0000 0.0000
vt 1.0000 0.0000
vt 0.0000 0.5000
vt 0.0000 1.0000
vt 1.0000 1.0000
vt 1.0000 0.5000
vt 0.0000 0.2500
vt 1.0000 0.2500
vt 0.0000 0.0000
vt 1.0000 0.0000
vt 0.0000 0.7500
vt 0.0000 1.0000
vt 1.0000 1.0000
vt 1.0000 0.7500
vt 0.0000 0.2500
vt 0.0000 0.5000
vt 1.0000 0.5000
vt 1.0000 0.2500
vt 0.0000 0.0000
vt 1.0000 0.0000
vt 0.0000 0.5000
vt 0.0000 1.0000
vt 1.0000 1.0000
vt 1.0000 0.5000
vt 0.0000 0.2500
vt 1.0000 0.2500
vt 0.0000 0.0000
vt 1.0000 0.0000
vt 0.0000 0.5000
vt 0.0000 1.0000
vt 1.0000 1.0000
vt 1.0000 0.5000
vt 0.0000 0.2500
vt 1.0000 0.2500
vt 0.0000 0.0000
vt 1.0000 0.0000
vn 0.0000 0.9783 -0.2071
vn 0.0000 1.0000 -0.0007
vn 0.0000 0.7241 -0.6897
vn 0.0000 0.4485 -0.8938
vn 0.1467 0.9233 0.3549
vn 0.0683 0.9783 0.1956
vn 0.1476 0.9225 0.3567
vn 0.2984 0.6926 0.6566
vn 0.2984 0.6927 0.6565
vn 0.3612 0.5156 0.7769
vn -0.0974 0.9817 0.1636
vn 0.0863 0.9897 0.1137
vn -0.1339 0.9758 0.1729
vn -0.5573 0.7871 0.2643
vn -0.5547 0.7891 0.2638
vn -0.7562 0.5857 0.2915
vn -0.1726 0.9734 0.1508
vn -0.1976 0.9008 0.3867
vn -0.1739 0.9715 0.1611
vn -0.0585 0.8573 -0.5115
vn -0.0598 0.8603 -0.5062
vn 0.0332 0.5532 -0.8323
vn 0.1570 0.4928 0.8558
vn 0.0992 0.6802 0.7262
vn 0.1491 0.5220 0.8398
vn 0.2235 0.1734 0.9591
vn 0.2232 0.1754 0.9588
vn 0.2427 0.0330 0.9695
vn 0.0320 0.9861 0.1628
vn -0.0689 0.9964 0.0493
vn 0.0283 0.9869 0.1588
vn 0.2961 0.7795 0.5519
vn 0.2767 0.8084 0.5195
vn 0.4048 0.5504 0.7302
vn -0.0474 0.7583 -0.6502
vn -0.0148 0.8409 -0.5409
vn -0.0419 0.7736 -0.6323
vn -0.1498 0.3450 -0.9266
vn -0.0990 0.5875 -0.8031
vn -0.0969 0.5958 -0.7972
vn -0.1507 0.3396 -0.9284
vn -0.1753 0.1766 -0.9685
vn -0.1246 0.9816 -0.1443
vn -0.2972 0.9462 -0.1279
vn -0.0898 0.9850 -0.1470
vn 0.3485 0.9226 -0.1651
vn 0.3482 0.9227 -0.1651
vn 0.5864 0.7939 -0.1603
vn 0.0082 0.9931 -0.1169
vn 0.1209 0.9926 -0.0067
vn 0.0008 0.9922 -0.1241
vn -0.3279 0.8427 -0.4270
vn -0.3234 0.8464 -0.4231
vn -0.5075 0.6395 -0.5774
usemtl Plant_alpha_2
s 1
f 125/121/77 123/122/78 124/123/78 126/124/77
f 127/125/79 125/121/77 126/124/77 128/126/79
f 121/127/80 127/125/79 128/126/79 122/128/80
f 133/129/81 131/130/82 132/131/82 134/132/83
f 135/133/84 133/129/81 134/132/83 136/134/85
f 129/135/86 135/133/84 136/134/85 130/136/86
f 141/137/87 139/138/88 140/139/88 142/140/89
f 143/141/90 141/137/87 142/140/89 144/142/91
f 137/143/92 143/141/90 144/142/91 138/144/92
f 149/145/93 147/146/94 148/147/94 150/148/95
f 151/149/96 149/145/93 150/148/95 152/150/97
f 145/151/98 151/149/96 152/150/97 146/152/98
f 157/153/99 155/154/100 156/155/100 158/156/101
f 159/157/102 157/153/99 158/156/101 160/158/103
f 153/159/104 159/157/102 160/158/103 154/160/104
f 165/161/105 163/162/106 164/163/106 166/164/107
f 167/165/108 165/161/105 166/164/107 168/166/109
f 161/167/110 167/165/108 168/166/109 162/168/110
f 178/169/111 171/170/112 172/171/112 177/172/113
f 175/173/114 173/174/115 174/175/116 176/176/117
f 169/177/118 175/173/114 176/176/117 170/178/118
f 173/174/115 178/169/111 177/172/113 174/175/116
f 183/179/119 181/180/120 182/181/120 184/182/121
f 185/183/122 183/179/119 184/182/121 186/184/123
f 179/185/124 185/183/122 186/184/123 180/186/124
f 191/187/125 189/188/126 190/189/126 192/190/127
f 193/191/128 191/187/125 192/190/127 194/192/129
f 187/193/130 193/191/128 194/192/129 188/194/130
o Plant_alpha_3
v 0.080277 -0.003790 5.172344
v -0.522631 0.943338 5.613513
v -0.106459 -0.003781 4.917075
v -0.711165 0.941255 5.359578
v 0.006755 0.015787 5.030190
v -0.612202 0.973210 5.482804
v -0.014356 0.442420 5.241575
v -0.218664 0.796648 5.390532
v -0.405914 0.796010 5.135640
v -0.202333 0.440568 4.987215
v -0.302737 0.826235 5.256040
v -0.089643 0.470646 5.100713
v -0.103005 -0.003893 4.824149
v 0.399807 0.834776 4.456301
v 0.135064 -0.003893 5.149565
v 0.637876 0.834776 4.781718
v -0.004341 0.010679 5.001760
v 0.499798 0.851882 4.632941
v -0.035925 0.348103 4.775074
v 0.148782 0.632417 4.639946
v 0.386851 0.632416 4.965363
v 0.202144 0.348103 5.100492
v 0.248773 0.649523 4.816586
v 0.062739 0.362675 4.952685
v -0.095077 0.640671 5.300373
v -0.282689 0.639428 5.045746
v -0.174730 0.669604 5.162676
v 0.146841 -0.004073 5.003107
v 0.514356 0.794365 5.610103
v -0.077874 -0.004065 5.139125
v 0.290753 0.792608 5.747933
v 0.022388 0.012431 5.051136
v 0.399428 0.819547 5.674250
v 0.204513 0.372086 5.098380
v 0.328585 0.670703 5.304001
v 0.104184 0.670165 5.440537
v -0.019445 0.370525 5.235648
v 0.210513 0.695645 5.362645
v 0.081137 0.395881 5.148186
v 0.253487 0.539214 5.179612
v 0.029306 0.538166 5.316513
v 0.132746 0.563605 5.233810
v -0.123003 -0.004073 5.099513
v -0.676536 0.677774 4.551679
v 0.058851 -0.004065 4.909969
v -0.494997 0.663733 4.362350
v -0.015222 0.012431 5.020910
v -0.585608 0.697369 4.455214
v -0.203369 0.372086 5.022414
v -0.406065 0.731740 4.815405
v -0.223637 0.719263 4.626825
v -0.022570 0.370525 4.831858
v -0.310764 0.752725 4.723320
v -0.097087 0.395881 4.942372
v -0.291219 0.604096 4.929942
v -0.109012 0.591017 4.741185
v -0.192209 0.625871 4.841435
v -0.098214 0.006753 4.903290
v 0.291813 0.240810 4.451694
v 0.092948 0.006757 5.068435
v 0.484135 0.240066 4.615478
v -0.015472 0.013743 5.000725
v 0.384991 0.251476 4.537341
v -0.036992 0.166073 4.832418
v 0.117449 0.292550 4.630975
v 0.308944 0.292322 4.795734
v 0.154973 0.165411 4.996634
v 0.207028 0.303114 4.720553
v 0.046891 0.176151 4.928532
v 0.015275 0.254750 4.772165
v 0.207004 0.254306 4.936653
v 0.101988 0.265081 4.865031
v 0.097269 0.004434 5.137798
v -0.135933 0.312220 5.710231
v -0.153578 0.004438 5.056785
v -0.387467 0.311241 5.630937
v -0.020476 0.013626 5.078450
v -0.260023 0.326245 5.665925
v 0.060659 0.213940 5.227637
v -0.023691 0.380258 5.475471
v -0.274737 0.379958 5.394948
v -0.190668 0.213070 5.147803
v -0.145545 0.394149 5.426103
v -0.057770 0.227192 5.169966
v 0.029314 0.330551 5.304101
v -0.221871 0.329967 5.223921
v -0.090817 0.344136 5.250556
v -0.007432 -0.008826 5.169391
v -0.117225 0.960304 5.230935
v -0.037677 -0.008826 4.902005
v -0.147470 0.960304 4.963549
v -0.007479 -0.004009 5.027247
v -0.117272 0.965121 5.088791
v 0.014780 0.333006 5.156940
v -0.016815 0.657648 5.174650
v -0.047059 0.657648 4.907264
v -0.015465 0.333006 4.889554
v -0.016862 0.662464 5.032506
v 0.014733 0.337822 5.014797
v 0.040500 0.042980 4.953077
v 0.171842 0.808705 4.850138
v 0.048103 0.042980 5.109116
v 0.179444 0.808705 5.006176
v 0.033832 0.046786 5.039697
v 0.165174 0.812511 4.936757
v 0.025075 0.313067 4.965748
v 0.062332 0.569572 4.936520
v 0.069934 0.569571 5.092559
v 0.032677 0.313067 5.121787
v 0.055664 0.573377 5.023139
v 0.018407 0.316872 5.052368
v -0.111196 0.000367 5.111084
v -0.603976 0.308153 4.783853
v 0.033695 0.000371 4.890871
v -0.460558 0.307175 4.562520
v -0.022635 0.009559 5.013396
v -0.528222 0.322179 4.676044
v -0.188042 0.209873 5.051871
v -0.404462 0.376191 4.904565
v -0.259989 0.375891 4.684030
v -0.044159 0.209003 4.830881
v -0.324425 0.390083 4.800259
v -0.100914 0.223125 4.953077
v -0.253397 0.326485 5.001295
v -0.109218 0.325901 4.780533
v -0.169792 0.340069 4.899762
v -0.541300 0.751689 4.683542
v -0.359317 0.738430 4.494587
v -0.448186 0.771979 4.589267
vt 0.6667 0.5000
vt 0.6667 1.0000
vt 1.0000 1.0000
vt 1.0000 0.5000
vt 0.6667 0.0000
vt 1.0000 0.0000
vt 0.0000 0.0000
vt 0.0000 0.5000
vt 0.3333 0.5000
vt 0.3333 0.0000
vt 0.5000 0.0000
vt 0.5000 0.5000
vt 0.0000 1.0000
vt 0.3333 1.0000
vt 0.5000 1.0000
vt 0.6667 0.5000
vt 0.6667 1.0000
vt 1.0000 1.0000
vt 1.0000 0.5000
vt 0.6667 0.0000
vt 1.0000 0.0000
vt 0.0000 0.0000
vt 0.0000 0.5000
vt 0.3333 0.5000
vt 0.3333 0.0000
vt 0.0000 1.0000
vt 0.3333 1.0000
vt 0.6667 0.5000
vt 0.6667 1.0000
vt 1.0000 1.0000
vt 1.0000 0.5000
vt 0.6667 0.0000
vt 1.0000 0.0000
vt 0.0000 0.0000
vt 0.0000 0.5000
vt 0.3333 0.5000
vt 0.3333 0.0000
vt 0.5000 0.0000
vt 0.5000 0.5000
vt 0.0000 1.0000
vt 0.3333 1.0000
vt 0.5000 1.0000
vt 0.8333 0.5000
vt 0.8333 1.0000
vt 1.0000 1.0000
vt 1.0000 0.5000
vt 0.8333 0.0000
vt 1.0000 0.0000
vt 0.0000 0.0000
vt 0.0000 0.5000
vt 0.3333 0.5000
vt 0.3333 0.0000
vt 0.5000 0.0000
vt 0.5000 0.5000
vt 0.6667 0.5000
vt 0.6667 0.0000
vt 0.0000 1.0000
vt 0.3333 1.0000
vt 0.5000 1.0000
vt 0.6667 1.0000
vt 0.6667 0.5000
vt 0.6667 1.0000
vt 1.0000 1.0000
vt 1.0000 0.5000
vt 0.6667 0.0000
vt 1.0000 0.0000
vt 0.0000 0.0000
vt 0.0000 0.5000
vt 0.3333 0.5000
vt 0.3333 0.0000
vt 0.5000 0.0000
vt 0.5000 0.5000
vt 0.0000 1.0000
vt 0.3333 1.0000
vt 0.5000 1.0000
vt 0.6667 0.5000
vt 0.6667 1.0000
vt 1.0000 1.0000
vt 1.0000 0.5000
vt 0.6667 0.0000
vt 1.0000 0.0000
vt 0.0000 0.0000
vt 0.0000 0.5000
vt 0.3333 0.5000
vt 0.3333 0.0000
vt 0.5000 0.0000
vt 0.5000 0.5000
vt 0.0000 1.0000
vt 0.3333 1.0000
vt 0.5000 1.0000
vt 0.6667 0.5000
vt 0.6667 1.0000
vt 1.0000 1.0000
vt 1.0000 0.5000
vt 0.6667 0.0000
vt 1.0000 0.0000
vt 0.0000 0.0000
vt 0.0000 0.5000
vt 0.3333 0.5000
vt 0.3333 0.0000
vt 0.0000 1.0000
vt 0.3333 1.0000
vt 0.6667 0.5000
vt 0.6667 1.0000
vt 1.0000 1.0000
vt 1.0000 0.5000
vt 0.6667 0.0000
vt 1.0000 0.0000
vt 0.0000 0.0000
vt 0.0000 0.5000
vt 0.3333 0.5000
vt 0.3333 0.0000
vt 0.0000 1.0000
vt 0.3333 1.0000
vt 0.6667 0.5000
vt 0.6667 1.0000
vt 1.0000 1.0000
vt 1.0000 0.5000
vt 0.6667 0.0000
vt 1.0000 0.0000
vt 0.0000 0.0000
vt 0.0000 0.5000
vt 0.3333 0.5000
vt 0.3333 0.0000
vt 0.5000 0.0000
vt 0.5000 0.5000
vt 0.0000 1.0000
vt 0.3333 1.0000
vt 0.5000 1.0000
vn 0.4343 0.8405 -0.3238
vn 0.3142 0.8173 -0.4830
vn 0.1639 0.9147 -0.3695
vn 0.2862 0.9333 -0.2169
vn 0.5509 0.8187 -0.1617
vn 0.3979 0.9157 -0.0552
vn 0.8737 0.2499 -0.4172
vn 0.7786 0.2551 -0.5734
vn 0.7485 0.3662 -0.5529
vn 0.8520 0.3451 -0.3936
vn 0.7573 0.5718 -0.3153
vn 0.6458 0.5951 -0.4782
vn 0.6573 0.2517 -0.7103
vn 0.6271 0.3443 -0.6987
vn 0.5239 0.5691 -0.6337
vn -0.5430 0.7398 0.3973
vn -0.4518 0.7365 0.5035
vn -0.3572 0.8307 0.4270
vn -0.4401 0.8382 0.3220
vn -0.6166 0.7365 0.2781
vn -0.5151 0.8307 0.2112
vn -0.8590 0.2276 0.4585
vn -0.7855 0.2298 0.5746
vn -0.7246 0.4403 0.5301
vn -0.8026 0.4333 0.4099
vn -0.6971 0.2276 0.6799
vn -0.6336 0.4333 0.6409
vn -0.2643 0.8648 -0.4268
vn -0.4393 0.8421 -0.3127
vn -0.3402 0.9262 -0.1622
vn -0.1728 0.9463 -0.2731
vn -0.0825 0.8438 -0.5303
vn 0.0027 0.9276 -0.3734
vn -0.3133 0.2779 -0.9081
vn -0.4993 0.2849 -0.8182
vn -0.4779 0.4033 -0.7803
vn -0.2890 0.3807 -0.8783
vn -0.2143 0.6137 -0.7598
vn -0.4035 0.6371 -0.6567
vn -0.6640 0.2797 -0.6934
vn -0.6512 0.3798 -0.6570
vn -0.5824 0.6108 -0.5364
vn -0.0594 0.9904 -0.1244
vn 0.0728 0.9588 -0.2745
vn -0.0925 0.9060 -0.4131
vn -0.2259 0.9303 -0.2889
vn -0.2039 0.9789 0.0132
vn -0.3558 0.9224 -0.1504
vn 0.5376 0.2779 0.7960
vn 0.6941 0.2849 0.6611
vn 0.6659 0.4031 0.6278
vn 0.5161 0.3809 0.7672
vn 0.4153 0.6418 0.6447
vn 0.5551 0.6683 0.4952
vn 0.2925 0.9304 0.2208
vn 0.1530 0.9145 0.3746
vn 0.8209 0.2797 0.4979
vn 0.7973 0.3805 0.4685
vn 0.6950 0.6272 0.3514
vn 0.4405 0.8945 0.0759
vn -0.0118 0.9999 0.0095
vn 0.0708 0.9960 0.0550
vn 0.1844 0.9777 -0.1003
vn 0.1344 0.9796 -0.1491
vn -0.0625 0.9962 -0.0605
vn 0.0795 0.9763 -0.2012
vn -0.6776 0.5000 0.5392
vn -0.5610 0.5082 0.6534
vn -0.5228 0.5950 0.6104
vn -0.6343 0.5898 0.4997
vn -0.4098 0.8680 0.2804
vn -0.3256 0.8631 0.3860
vn -0.4294 0.5028 0.7502
vn -0.3960 0.5899 0.7036
vn -0.2161 0.8635 0.4556
vn 0.0080 0.9998 -0.0162
vn -0.1091 0.9937 -0.0258
vn -0.1615 0.9663 0.2003
vn -0.0862 0.9678 0.2364
vn 0.1044 0.9939 0.0349
vn 0.0036 0.9609 0.2769
vn 0.4349 0.4179 -0.7976
vn 0.2812 0.4206 -0.8625
vn 0.2637 0.5065 -0.8209
vn 0.4180 0.5010 -0.7578
vn 0.3139 0.8161 -0.4852
vn 0.1715 0.8182 -0.5487
vn 0.1130 0.4110 -0.9046
vn 0.1016 0.4943 -0.8633
vn 0.0243 0.8158 -0.5778
vn 0.9682 0.2199 -0.1194
vn 0.9464 0.2199 -0.2366
vn 0.9094 0.3449 -0.2325
vn 0.9384 0.3302 -0.1013
vn 0.9773 0.2116 0.0068
vn 0.9496 0.3131 0.0103
vn 0.9979 -0.0649 -0.0025
vn 0.9909 -0.0686 -0.1158
vn 0.9925 0.0189 -0.1209
vn 0.9999 0.0147 0.0002
vn 0.9703 -0.0714 -0.2312
vn 0.9719 0.0153 -0.2349
vn -0.9517 0.2988 0.0703
vn -0.9315 0.2986 0.2078
vn -0.8606 0.4672 0.2025
vn -0.9044 0.4254 0.0311
vn -0.9566 0.2783 -0.0858
vn -0.9173 0.3884 -0.0877
vn -0.9958 -0.0534 -0.0743
vn -0.9965 -0.0597 0.0590
vn -0.9963 0.0488 0.0698
vn -0.9961 0.0401 -0.0784
vn -0.9781 -0.0651 0.1975
vn -0.9781 0.0438 0.2034
vn 0.0060 1.0000 0.0020
vn 0.0464 0.9936 -0.1028
vn -0.1847 0.9561 -0.2277
vn -0.2321 0.9608 -0.1516
vn -0.0773 0.9938 0.0794
vn -0.2763 0.9580 -0.0768
vn 0.6530 0.4179 0.6316
vn 0.7565 0.4206 0.5007
vn 0.7210 0.5065 0.4728
vn 0.6191 0.5010 0.6047
vn 0.3840 0.8161 0.4318
vn 0.4832 0.8182 0.3114
vn 0.8418 0.4110 0.3498
vn 0.8051 0.4943 0.3278
vn 0.5505 0.8158 0.1773
usemtl Plant_alpha_3
s 1
f 205/195/131 203/196/132 198/197/133 200/198/134
f 202/199/135 205/195/131 200/198/134 196/200/136
f 195/201/137 199/202/138 206/203/139 201/204/140
f 219/205/141 221/206/142 205/195/131 202/199/135
f 199/202/138 197/207/143 204/208/144 206/203/139
f 221/206/142 220/209/145 203/196/132 205/195/131
f 217/210/146 215/211/147 210/212/148 212/213/149
f 214/214/150 217/210/146 212/213/149 208/215/151
f 207/216/152 211/217/153 218/218/154 213/219/155
f 213/219/155 218/218/154 217/210/146 214/214/150
f 211/217/153 209/220/156 216/221/157 218/218/154
f 218/218/154 216/221/157 215/211/147 217/210/146
f 206/203/139 204/208/144 220/209/145 221/206/142
f 201/204/140 206/203/139 221/206/142 219/205/141
f 232/222/158 230/223/159 225/224/160 227/225/161
f 229/226/162 232/222/158 227/225/161 223/227/163
f 222/228/164 226/229/165 233/230/166 228/231/167
f 234/232/168 236/233/169 232/222/158 229/226/162
f 226/229/165 224/234/170 231/235/171 233/230/166
f 236/233/169 235/236/172 230/223/159 232/222/158
f 233/230/166 231/235/171 235/236/172 236/233/169
f 228/231/167 233/230/166 236/233/169 234/232/168
f 323/237/173 322/238/174 240/239/175 242/240/176
f 321/241/177 323/237/173 242/240/176 238/242/178
f 237/243/179 241/244/180 248/245/181 243/246/182
f 249/247/183 251/248/184 247/249/185 244/250/186
f 241/244/180 239/251/187 246/252/188 248/245/181
f 251/248/184 250/253/189 245/254/190 247/249/185
f 248/245/181 246/252/188 250/253/189 251/248/184
f 243/246/182 248/245/181 251/248/184 249/247/183
f 262/255/191 260/256/192 255/257/193 257/258/194
f 259/259/195 262/255/191 257/258/194 253/260/196
f 252/261/197 256/262/198 263/263/199 258/264/200
f 264/265/201 266/266/202 262/255/191 259/259/195
f 256/262/198 254/267/203 261/268/204 263/263/199
f 266/266/202 265/269/205 260/256/192 262/255/191
f 263/263/199 261/268/204 265/269/205 266/266/202
f 258/264/200 263/263/199 266/266/202 264/265/201
f 277/270/206 275/271/207 270/272/208 272/273/209
f 274/274/210 277/270/206 272/273/209 268/275/211
f 267/276/212 271/277/213 278/278/214 273/279/215
f 279/280/216 281/281/217 277/270/206 274/274/210
f 271/277/213 269/282/218 276/283/219 278/278/214
f 281/281/217 280/284/220 275/271/207 277/270/206
f 278/278/214 276/283/219 280/284/220 281/281/217
f 273/279/215 278/278/214 281/281/217 279/280/216
f 292/285/221 290/286/222 285/287/223 287/288/224
f 289/289/225 292/285/221 287/288/224 283/290/226
f 282/291/227 286/292/228 293/293/229 288/294/230
f 288/294/230 293/293/229 292/285/221 289/289/225
f 286/292/228 284/295/231 291/296/232 293/293/229
f 293/293/229 291/296/232 290/286/222 292/285/221
f 304/297/233 302/298/234 297/299/235 299/300/236
f 301/301/237 304/297/233 299/300/236 295/302/238
f 294/303/239 298/304/240 305/305/241 300/306/242
f 300/306/242 305/305/241 304/297/233 301/301/237
f 298/304/240 296/307/243 303/308/244 305/305/241
f 305/305/241 303/308/244 302/298/234 304/297/233
f 316/309/245 314/310/246 309/311/247 311/312/248
f 313/313/249 316/309/245 311/312/248 307/314/250
f 306/315/251 310/316/252 317/317/253 312/318/254
f 318/319/255 320/320/256 316/309/245 313/313/249
f 310/316/252 308/321/257 315/322/258 317/317/253
f 320/320/256 319/323/259 314/310/246 316/309/245
f 317/317/253 315/322/258 319/323/259 320/320/256
f 312/318/254 317/317/253 320/320/256 318/319/255
f 244/250/186 247/249/185 323/237/173 321/241/177
f 247/249/185 245/254/190 322/238/174 323/237/173
o Plant_alpha_4
v 0.032938 -0.065795 -3.017390
v 1.190669 0.398482 -3.017390
v 0.032938 -0.065795 -3.579725
v 1.190669 0.398482 -3.579725
v 0.559477 0.464191 -3.017390
v 0.559477 0.464191 -3.579725
v 0.890171 0.489924 -3.017390
v 0.890171 0.489924 -3.579725
v 0.245205 0.290424 -3.579725
v 0.245205 0.290424 -3.017390
v 0.030747 0.038883 -3.068982
v -0.587821 1.037484 -3.068982
v 0.030747 0.038883 -3.508647
v -0.587821 1.037484 -3.508647
v -0.119827 0.580710 -3.068982
v -0.119827 0.580710 -3.508647
v -0.283849 0.827846 -3.068982
v -0.283849 0.827846 -3.508647
v -0.047481 0.309009 -3.508647
v -0.047481 0.309009 -3.068982
v -0.163845 -0.000536 -3.391753
v -0.751399 0.463741 -2.552640
v 0.296793 -0.000536 -3.069211
v -0.290761 0.463741 -2.230097
v -0.431066 0.529450 -3.010122
v 0.029572 0.529450 -2.687580
v -0.598895 0.555184 -2.770438
v -0.138257 0.555184 -2.447896
v 0.189066 0.355683 -2.915361
v -0.271572 0.355683 -3.237904
v 0.309392 -0.108811 -3.442788
v -0.172658 0.355466 -4.277724
v -0.455784 -0.108811 -3.001013
v -0.937835 0.355466 -3.835949
v 0.090155 0.421175 -3.822519
v -0.675022 0.421175 -3.380744
v -0.047538 0.446909 -4.061010
v -0.812715 0.446909 -3.619235
v -0.544167 0.247408 -3.154097
v 0.221010 0.247408 -3.595872
v 0.032938 0.024290 -3.298557
v 1.190669 0.488567 -3.298557
v 0.559477 0.554276 -3.298557
v 0.890171 0.580009 -3.298557
v 0.245205 0.380508 -3.298557
v -0.182642 0.723001 -3.508647
v -0.182642 0.723001 -3.068982
v -0.076932 0.032365 -3.419178
v 0.396917 1.095922 -3.574556
v 0.122077 0.000790 -3.028404
v 0.595926 1.064346 -3.183782
v 0.015759 0.587028 -3.421564
v 0.214768 0.555452 -3.030790
v 0.142746 0.851564 -3.464859
v 0.341755 0.819989 -3.074085
v 0.171095 0.277697 -3.030992
v -0.027914 0.309272 -3.421767
v 0.259787 0.703933 -3.041719
v 0.060778 0.735509 -3.432493
v -0.232524 -0.000536 -3.071514
v 0.155995 0.463741 -2.236578
v 0.384187 -0.000536 -3.513289
v 0.772706 0.463741 -2.678353
v -0.055824 0.529450 -2.691783
v 0.560886 0.529450 -3.133558
v 0.055152 0.555184 -2.453292
v 0.671863 0.555184 -2.895067
v 0.455421 0.355683 -3.360205
v -0.161290 0.355683 -2.918430
v 0.207577 -0.000536 -3.136178
v 0.706513 0.672559 -4.038745
v -0.281477 -0.000536 -3.413751
v 0.222247 0.579946 -4.309172
v 0.448745 0.573890 -3.543355
v -0.035521 0.534355 -3.813781
v 0.570287 0.666866 -3.792849
v 0.086021 0.574253 -4.063275
v -0.188770 0.355683 -3.577091
v 0.300285 0.355683 -3.299519
v -0.073196 0.029925 -3.221901
v -0.555246 0.494202 -4.056837
v -0.292434 0.559911 -3.601632
v -0.430126 0.585644 -3.840122
v -0.161579 0.386143 -3.374985
v 0.074335 0.034023 -3.088464
v -0.686329 0.706528 -2.835050
v -0.146451 -0.049991 -3.528233
v -0.907114 0.622513 -3.274819
v -0.228291 0.457300 -3.017395
v -0.449077 0.373285 -3.457164
v -0.423049 0.620283 -2.950753
v -0.643835 0.536268 -3.390522
v -0.299204 0.160034 -3.491668
v -0.078418 0.244049 -3.051899
v -0.542397 0.477101 -3.430146
v -0.321611 0.561116 -2.990377
v -0.213754 0.012860 -3.241010
v -0.278440 0.361354 -2.568680
v 0.342567 0.012237 -3.292752
v 0.277881 0.360731 -2.620421
v -0.232236 0.347492 -2.899923
v 0.324085 0.346869 -2.951664
v -0.254379 0.387989 -2.719715
v 0.301941 0.387366 -2.771457
v 0.340007 0.225896 -3.139458
v -0.216314 0.226519 -3.087717
v 0.245850 0.012860 -3.305935
v 0.247083 0.361354 -3.981369
v -0.303149 0.012237 -3.202155
v -0.301916 0.360731 -3.877589
v 0.232204 0.347492 -3.647251
v -0.316795 0.346869 -3.543471
v 0.237319 0.387989 -3.828741
v -0.311680 0.387366 -3.724961
v -0.315003 0.225896 -3.355011
v 0.233996 0.226519 -3.458791
vt 0.7500 0.5000
vt 1.0000 0.5000
vt 1.0000 1.0000
vt 0.7500 1.0000
vt 0.2500 0.5000
vt 0.5000 0.5000
vt 0.5000 1.0000
vt 0.2500 1.0000
vt 0.0000 0.5000
vt 0.0000 1.0000
vt 0.7500 0.0000
vt 0.7500 1.0000
vt 1.0000 1.0000
vt 1.0000 0.0000
vt 0.2500 0.0000
vt 0.2500 1.0000
vt 0.5000 1.0000
vt 0.5000 0.0000
vt 0.6250 0.0000
vt 0.6250 1.0000
vt 0.0000 0.0000
vt 0.0000 1.0000
vt 0.7500 0.0000
vt 1.0000 0.0000
vt 1.0000 1.0000
vt 0.7500 1.0000
vt 0.2500 0.0000
vt 0.5000 0.0000
vt 0.5000 1.0000
vt 0.2500 1.0000
vt 0.0000 0.0000
vt 0.0000 1.0000
vt 0.7500 0.5000
vt 1.0000 0.5000
vt 1.0000 1.0000
vt 0.7500 1.0000
vt 0.2500 0.5000
vt 0.5000 0.5000
vt 0.5000 1.0000
vt 0.2500 1.0000
vt 0.0000 0.5000
vt 0.0000 1.0000
vt 0.0000 0.0000
vt 0.2500 0.0000
vt 0.5000 0.0000
vt 0.7500 0.0000
vt 1.0000 0.0000
vt 0.7500 0.0000
vt 0.7500 1.0000
vt 1.0000 1.0000
vt 1.0000 0.0000
vt 0.2500 0.0000
vt 0.2500 1.0000
vt 0.5000 1.0000
vt 0.5000 0.0000
vt 0.6250 0.0000
vt 0.6250 1.0000
vt 0.0000 0.0000
vt 0.0000 1.0000
vt 0.7500 0.0000
vt 1.0000 0.0000
vt 1.0000 1.0000
vt 0.7500 1.0000
vt 0.2500 0.0000
vt 0.5000 0.0000
vt 0.5000 1.0000
vt 0.2500 1.0000
vt 0.0000 0.0000
vt 0.0000 1.0000
vt 0.7500 0.0000
vt 1.0000 0.0000
vt 1.0000 1.0000
vt 0.7500 1.0000
vt 0.2500 0.0000
vt 0.5000 0.0000
vt 0.5000 1.0000
vt 0.2500 1.0000
vt 0.0000 0.0000
vt 0.0000 1.0000
vt 0.0000 0.0000
vt 0.2500 0.0000
vt 0.5000 0.0000
vt 0.7500 0.0000
vt 1.0000 0.0000
vt 0.7500 0.0000
vt 0.7500 1.0000
vt 1.0000 1.0000
vt 1.0000 0.0000
vt 0.2500 0.0000
vt 0.2500 1.0000
vt 0.5000 1.0000
vt 0.5000 0.0000
vt 0.6250 0.0000
vt 0.6250 1.0000
vt 0.0000 0.0000
vt 0.0000 1.0000
vt 0.7500 0.0000
vt 1.0000 0.0000
vt 1.0000 1.0000
vt 0.7500 1.0000
vt 0.2500 0.0000
vt 0.5000 0.0000
vt 0.5000 1.0000
vt 0.2500 1.0000
vt 0.0000 0.0000
vt 0.0000 1.0000
vt 0.7500 0.0000
vt 1.0000 0.0000
vt 1.0000 1.0000
vt 0.7500 1.0000
vt 0.2500 0.0000
vt 0.5000 0.0000
vt 0.5000 1.0000
vt 0.2500 1.0000
vt 0.0000 0.0000
vt 0.0000 1.0000
vn 0.1050 0.9945 0.0000
vn 0.2911 0.9567 0.0000
vn 0.2783 0.9147 -0.2930
vn 0.1074 0.9468 -0.3033
vn -0.6710 0.7414 0.0000
vn -0.2765 0.9610 0.0000
vn -0.2862 0.9125 -0.2923
vn -0.7049 0.6754 -0.2164
vn -0.8590 0.5119 0.0000
vn -0.8477 0.5051 -0.1618
vn 0.6468 0.7626 0.0000
vn 0.5677 0.8232 0.0000
vn 0.9635 0.2677 0.0000
vn 0.9434 0.3316 0.0000
vn 0.8300 0.5578 0.0000
vn 0.9605 0.2781 0.0000
vn -0.0696 0.9926 0.0995
vn -0.1865 0.9456 0.2664
vn 0.4201 0.6807 -0.6001
vn 0.1821 0.9482 -0.2601
vn 0.5074 0.4664 -0.7246
vn -0.0616 0.9924 -0.1067
vn -0.1716 0.9392 -0.2972
vn -0.4096 0.9009 -0.1436
vn -0.3213 0.9462 0.0378
vn 0.3630 0.6876 0.6287
vn 0.1597 0.9476 0.2766
vn -0.0772 0.8991 0.4309
vn 0.2119 0.6193 0.7560
vn 0.4479 0.4445 0.7757
vn 0.3238 0.4402 0.8374
vn -0.8477 0.5051 0.1618
vn -0.7049 0.6754 0.2164
vn -0.2862 0.9125 0.2923
vn 0.1074 0.9468 0.3033
vn 0.2783 0.9147 0.2930
vn -0.6325 0.6767 0.3768
vn -0.5668 0.7462 0.3489
vn -0.8763 0.1484 0.4583
vn -0.8633 0.2140 0.4570
vn -0.7797 0.4517 0.4336
vn -0.8745 0.1591 0.4582
vn 0.0948 0.9867 0.1323
vn 0.2112 0.9319 0.2949
vn 0.0632 0.9941 0.0882
vn -0.4398 0.6554 -0.6140
vn -0.1883 0.9463 -0.2629
vn -0.2193 0.9264 -0.3061
vn -0.4545 0.6253 -0.6344
vn -0.5279 0.4222 -0.7369
vn -0.1861 0.9815 0.0448
vn -0.1538 0.9861 -0.0623
vn -0.1858 0.9816 0.0438
vn -0.3816 0.6630 0.6440
vn -0.2652 0.9090 0.3214
vn -0.2665 0.9069 0.3262
vn -0.3832 0.6587 0.6475
vn -0.4366 0.4664 0.7693
vn 0.5633 0.4402 0.6992
vn 0.5488 0.6193 0.5614
vn 0.4118 0.8991 0.1486
vn 0.1934 0.9462 -0.2593
vn 0.0804 0.9009 -0.4265
vn 0.2790 0.9077 -0.3135
vn 0.1882 0.9429 -0.2746
vn 0.6872 0.5675 -0.4534
vn 0.6532 0.6125 -0.4450
vn 0.4957 0.7727 -0.3965
vn 0.6820 0.5748 -0.4522
vn 0.0017 1.0000 0.0061
vn 0.0175 0.9842 0.1763
vn -0.0038 0.9986 -0.0529
vn -0.0624 0.7304 -0.6802
vn -0.0334 0.9283 -0.3703
vn -0.0369 0.9123 -0.4077
vn -0.0642 0.7125 -0.6987
vn -0.0747 0.5807 -0.8106
vn -0.0023 1.0000 -0.0059
vn -0.0340 0.9842 -0.1739
vn 0.0087 0.9986 0.0523
vn 0.1260 0.7304 0.6713
vn 0.0680 0.9283 0.3655
vn 0.0750 0.9123 0.4024
vn 0.1295 0.7125 0.6896
vn 0.1506 0.5807 0.8000
usemtl Plant_alpha_4
s 1
f 367/324/260 365/325/261 327/326/262 331/327/263
f 368/328/264 366/329/265 329/330/266 332/331/267
f 366/329/265 367/324/260 331/327/263 329/330/266
f 364/332/268 368/328/264 332/331/267 326/333/269
f 340/334/270 341/335/270 337/336/271 335/337/271
f 343/338/272 342/339/272 339/340/273 338/341/273
f 370/342/274 369/343/274 341/335/270 340/334/270
f 334/344/275 336/345/275 342/339/272 343/338/272
f 350/346/276 345/347/277 347/348/277 351/349/276
f 353/350/278 348/351/279 349/352/279 352/353/278
f 348/351/279 350/346/276 351/349/276 349/352/279
f 344/354/280 353/350/278 352/353/278 346/355/280
f 406/356/281 404/357/282 357/358/283 361/359/284
f 407/360/285 405/361/286 359/362/287 362/363/288
f 405/361/286 406/356/281 361/359/284 359/362/287
f 403/364/289 407/360/285 362/363/288 356/365/290
f 324/366/291 333/367/292 368/328/264 364/332/268
f 328/368/293 330/369/294 367/324/260 366/329/265
f 333/367/292 328/368/293 366/329/265 368/328/264
f 330/369/294 325/370/295 365/325/261 367/324/260
f 338/341/273 339/340/273 369/343/274 370/342/274
f 377/371/296 378/372/296 374/373/297 372/374/297
f 380/375/298 379/376/298 376/377/299 375/378/299
f 382/379/300 381/380/300 378/372/296 377/371/296
f 371/381/301 373/382/301 379/376/298 380/375/298
f 375/378/299 376/377/299 381/380/300 382/379/300
f 389/383/302 384/384/303 386/385/303 390/386/304
f 392/387/305 387/388/306 388/389/307 391/390/308
f 387/388/306 389/383/302 390/386/304 388/389/307
f 383/391/309 392/387/305 391/390/308 385/392/309
f 399/393/310 394/394/311 396/395/311 400/396/312
f 402/397/313 397/398/314 398/399/315 401/400/316
f 397/398/314 399/393/310 400/396/312 398/399/315
f 393/401/317 402/397/313 401/400/316 395/402/317
f 354/403/318 363/404/319 407/360/285 403/364/289
f 358/405/320 360/406/321 406/356/281 405/361/286
f 363/404/319 358/405/320 405/361/286 407/360/285
f 360/406/321 355/407/322 404/357/282 406/356/281
f 414/408/323 415/409/323 411/410/324 409/411/324
f 417/412/325 416/413/325 413/414/326 412/415/326
f 419/416/327 418/417/327 415/409/323 414/408/323
f 408/418/328 410/419/328 416/413/325 417/412/325
f 412/415/326 413/414/326 418/417/327 419/416/327
f 426/420/329 421/421/330 423/422/330 427/423/331
f 429/424/332 424/425/333 425/426/334 428/427/335
f 424/425/333 426/420/329 427/423/331 425/426/334
f 420/428/336 429/424/332 428/427/335 422/429/336
f 436/430/337 431/431/338 433/432/338 437/433/339
f 439/434/340 434/435/341 435/436/342 438/437/343
f 434/435/341 436/430/337 437/433/339 435/436/342
f 430/438/344 439/434/340 438/437/343 432/439/344
o Plant_alpha_6
v 0.955482 0.927218 2.236852
v 1.317233 0.927218 1.768707
v -0.104224 0.015269 1.267672
v 0.184802 0.015269 0.893641
v 1.136358 0.980053 2.002779
v 0.003927 0.015269 1.127714
v 0.010155 0.608372 1.445063
v 0.284195 0.911540 1.718127
v 0.625051 1.002092 1.981517
v 0.986802 1.002092 1.513371
v 0.645946 0.911540 1.249981
v 0.312584 0.608372 1.053686
v 0.805926 1.054927 1.747444
v 0.465070 0.964375 1.484054
v 0.161370 0.661207 1.249375
v -0.815715 0.927218 0.019140
v -1.275557 0.927218 0.614226
v 0.108499 0.015269 0.863577
v -0.225289 0.015269 1.295535
v -1.045636 0.980053 0.316683
v -0.058395 0.015269 1.079556
v -0.016050 0.608372 0.714994
v -0.230494 0.911540 0.471359
v -0.527649 1.002092 0.241738
v -0.987490 1.002092 0.836825
v -0.690336 0.911540 1.066445
v -0.400485 0.608372 1.212495
v -0.757570 1.054927 0.539281
v -0.460415 0.964375 0.768902
v -0.208268 0.661207 0.963744
v 1.306126 0.867929 0.265140
v 0.907910 0.867929 -0.172408
v 0.186822 0.005229 1.285412
v -0.190301 0.005229 0.864163
v 1.107018 0.920764 0.046366
v -0.001740 0.005229 1.074788
v 0.443189 0.598332 1.031949
v 0.688361 0.901500 0.823669
v 0.997291 0.992053 0.546213
v 0.599075 0.992053 0.108666
v 0.290145 0.901500 0.386121
v 0.044973 0.598332 0.594401
v 0.798184 1.044888 0.327439
v 0.489253 0.954336 0.604895
v 0.244081 0.651167 0.813175
v -1.155326 0.870911 2.229418
v -0.661739 0.870911 2.555600
v -0.242772 0.008211 0.994470
v 0.103733 0.008211 1.206996
v -0.908533 0.923747 2.392509
v -0.069519 0.008211 1.100733
v -0.507461 0.601314 1.273946
v -0.693884 0.904483 1.536121
v -0.925096 0.995035 1.881028
v -0.431509 0.995035 2.207211
v -0.200297 0.904483 1.862304
v -0.013874 0.601314 1.600128
v -0.678303 1.047870 2.044119
v -0.447090 0.957318 1.699212
v -0.260668 0.654149 1.437037
v -0.567876 1.694753 0.921645
v -0.567653 1.673609 1.419584
v -0.089764 0.037626 0.922574
v -0.080128 0.016482 1.264211
v -0.542282 1.720689 1.172149
v -0.084946 0.027054 1.093392
v -0.065559 0.632745 0.891490
v -0.141398 0.997750 0.897720
v -0.272748 1.260765 0.913388
v -0.272526 1.239622 1.411326
v -0.141176 0.976606 1.395659
v -0.065336 0.611602 1.389429
v -0.247154 1.286701 1.163892
v -0.115804 1.023686 1.148224
v -0.039965 0.658681 1.141994
v 0.774742 1.491194 1.435161
v 0.896948 1.474661 0.952271
v -0.042183 0.028326 1.235793
v -0.025129 0.007182 0.915491
v 0.818942 1.523752 1.188045
v -0.004714 0.017754 1.069065
v -0.032561 0.632745 1.251382
v 0.190355 1.068521 1.279758
v 0.410845 1.316609 1.345023
v 0.533051 1.300076 0.862133
v 0.312561 1.051988 0.796868
v 0.032172 0.611602 0.781931
v 0.455045 1.349167 1.097907
v 0.234555 1.101079 1.032642
v 0.004431 0.658681 1.002306
v -0.111195 0.243372 0.121531
v -0.571716 0.243372 0.310522
v 0.148344 0.008584 1.003906
v -0.185937 0.008584 1.141090
v -0.341455 0.267667 0.216027
v -0.018796 0.008584 1.072498
v 0.116982 0.263712 0.785044
v 0.074663 0.391206 0.574418
v -0.019709 0.379639 0.344458
v -0.480230 0.379639 0.533449
v -0.385859 0.391206 0.763409
v -0.268021 0.263712 0.943043
v -0.249970 0.403934 0.438954
v -0.155598 0.415501 0.668913
v -0.075520 0.288007 0.864044
v 0.937191 0.243372 1.475961
v 0.991047 0.243372 0.981090
v -0.006172 0.008584 1.274721
v 0.032921 0.008584 0.915507
v 0.964119 0.267667 1.228525
v 0.013375 0.008584 1.095114
v 0.245255 0.263712 1.359601
v 0.450524 0.391206 1.422997
v 0.697636 0.379639 1.449890
v 0.751493 0.379639 0.955020
v 0.504380 0.391206 0.928127
v 0.290280 0.263712 0.945882
v 0.724564 0.403934 1.202455
v 0.477452 0.415501 1.175562
v 0.267768 0.288007 1.152742
v 0.002518 0.207952 2.077802
v 0.443713 0.207952 1.983688
v -0.232849 0.017640 1.204254
v 0.087404 0.017640 1.135939
v 0.223115 0.227645 2.030745
v -0.072722 0.017640 1.170097
v -0.196514 0.224438 1.445959
v -0.161864 0.327781 1.641612
v -0.078397 0.318405 1.863093
v 0.362799 0.318405 1.768980
v 0.279332 0.327781 1.547498
v 0.172332 0.224438 1.367278
v 0.142201 0.338098 1.816037
v 0.058734 0.347474 1.594555
v -0.012091 0.244131 1.406619
v -1.038752 0.243372 0.779137
v -1.053331 0.243372 1.276716
v -0.082437 0.008584 0.905193
v -0.093018 0.008584 1.266373
v -1.046041 0.267667 1.027926
v -0.087727 0.008584 1.085783
v -0.339785 0.263712 0.840448
v -0.549422 0.391206 0.793473
v -0.797887 0.379639 0.786194
v -0.812465 0.379639 1.283773
v -0.564000 0.391206 1.291052
v -0.351973 0.263712 1.256431
v -0.805176 0.403934 1.034983
v -0.556711 0.415501 1.042263
v -0.345879 0.288007 1.048440
vt 0.5000 0.7500
vt 1.0000 0.7500
vt 1.0000 1.0000
vt 0.5000 1.0000
vt 0.0000 0.7500
vt 0.0000 1.0000
vt 0.0000 0.0000
vt 0.5000 0.0000
vt 0.5000 0.2500
vt 0.0000 0.2500
vt 0.5000 0.5000
vt 0.0000 0.5000
vt 1.0000 0.0000
vt 1.0000 0.2500
vt 1.0000 0.5000
vt 0.5000 0.7500
vt 1.0000 0.7500
vt 1.0000 1.0000
vt 0.5000 1.0000
vt 0.0000 0.7500
vt 0.0000 1.0000
vt 0.0000 0.0000
vt 0.5000 0.0000
vt 0.5000 0.2500
vt 0.0000 0.2500
vt 0.5000 0.5000
vt 0.0000 0.5000
vt 1.0000 0.0000
vt 1.0000 0.2500
vt 1.0000 0.5000
vt 0.5000 0.7500
vt 1.0000 0.7500
vt 1.0000 1.0000
vt 0.5000 1.0000
vt 0.0000 0.7500
vt 0.0000 1.0000
vt 0.0000 0.0000
vt 0.5000 0.0000
vt 0.5000 0.2500
vt 0.0000 0.2500
vt 0.5000 0.5000
vt 0.0000 0.5000
vt 1.0000 0.0000
vt 1.0000 0.2500
vt 1.0000 0.5000
vt 0.5000 0.7500
vt 1.0000 0.7500
vt 1.0000 1.0000
vt 0.5000 1.0000
vt 0.0000 0.7500
vt 0.0000 1.0000
vt 0.0000 0.0000
vt 0.5000 0.0000
vt 0.5000 0.2500
vt 0.0000 0.2500
vt 0.5000 0.5000
vt 0.0000 0.5000
vt 1.0000 0.0000
vt 1.0000 0.2500
vt 1.0000 0.5000
vt 0.5000 0.7500
vt 1.0000 0.7500
vt 1.0000 1.0000
vt 0.5000 1.0000
vt 0.0000 0.7500
vt 0.0000 1.0000
vt 0.0000 0.0000
vt 0.5000 0.0000
vt 0.5000 0.2500
vt 0.0000 0.2500
vt 0.5000 0.5000
vt 0.0000 0.5000
vt 1.0000 0.0000
vt 1.0000 0.2500
vt 1.0000 0.5000
vt 0.5000 0.7500
vt 1.0000 0.7500
vt 1.0000 1.0000
vt 0.5000 1.0000
vt 0.0000 0.7500
vt 0.0000 1.0000
vt 0.0000 0.0000
vt 0.5000 0.0000
vt 0.5000 0.2500
vt 0.0000 0.2500
vt 0.5000 0.5000
vt 0.0000 0.5000
vt 1.0000 0.0000
vt 1.0000 0.2500
vt 1.0000 0.5000
vt 0.5000 0.7500
vt 1.0000 0.7500
vt 1.0000 1.0000
vt 0.5000 1.0000
vt 0.0000 0.7500
vt 0.0000 1.0000
vt 0.0000 0.0000
vt 0.5000 0.0000
vt 0.5000 0.2500
vt 0.0000 0.2500
vt 0.5000 0.5000
vt 0.0000 0.5000
vt 1.0000 0.0000
vt 1.0000 0.2500
vt 1.0000 0.5000
vt 0.5000 0.7500
vt 1.0000 0.7500
vt 1.0000 1.0000
vt 0.5000 1.0000
vt 0.0000 0.7500
vt 0.0000 1.0000
vt 0.0000 0.0000
vt 0.5000 0.0000
vt 0.5000 0.2500
vt 0.0000 0.2500
vt 0.5000 0.5000
vt 0.0000 0.5000
vt 1.0000 0.0000
vt 1.0000 0.2500
vt 1.0000 0.5000
vt 0.5000 0.7500
vt 1.0000 0.7500
vt 1.0000 1.0000
vt 0.5000 1.0000
vt 0.0000 0.7500
vt 0.0000 1.0000
vt 0.0000 0.0000
vt 0.5000 0.0000
vt 0.5000 0.2500
vt 0.0000 0.2500
vt 0.5000 0.5000
vt 0.0000 0.5000
vt 1.0000 0.0000
vt 1.0000 0.2500
vt 1.0000 0.5000
vt 0.5000 0.7500
vt 1.0000 0.7500
vt 1.0000 1.0000
vt 0.5000 1.0000
vt 0.0000 0.7500
vt 0.0000 1.0000
vt 0.0000 0.0000
vt 0.5000 0.0000
vt 0.5000 0.2500
vt 0.0000 0.2500
vt 0.5000 0.5000
vt 0.0000 0.5000
vt 1.0000 0.0000
vt 1.0000 0.2500
vt 1.0000 0.5000
vn -0.6390 0.5918 -0.4914
vn -0.6077 0.5411 -0.5812
vn -0.7345 0.3067 -0.6053
vn -0.7559 0.3053 -0.5791
vn -0.7137 0.5528 -0.4301
vn -0.7765 0.3036 -0.5522
vn 0.0316 0.9694 0.2433
vn 0.1396 0.9843 0.1079
vn -0.0115 0.9999 -0.0089
vn -0.1193 0.9843 0.1299
vn -0.3304 0.9086 -0.2553
vn -0.4375 0.8899 -0.1291
vn 0.2434 0.9694 -0.0307
vn 0.0956 0.9843 -0.1483
vn -0.2353 0.8899 -0.3908
vn 0.6655 0.5408 0.5143
vn 0.6335 0.5155 0.5770
vn 0.7406 0.2915 0.6054
vn 0.7569 0.2915 0.5849
vn 0.7181 0.5155 0.4675
vn 0.7727 0.2915 0.5639
vn -0.0745 0.9703 -0.2299
vn -0.1594 0.9795 -0.1232
vn 0.0131 0.9998 0.0101
vn 0.0985 0.9901 -0.0996
vn 0.3734 0.8816 0.2886
vn 0.4552 0.8695 0.1915
vn -0.2413 0.9703 -0.0141
vn -0.0716 0.9901 0.1205
vn 0.3001 0.8695 0.3922
vn -0.5766 0.6299 0.5203
vn -0.6419 0.6084 0.4667
vn -0.6738 0.4964 0.5473
vn -0.6419 0.4998 0.5815
vn -0.5281 0.6083 0.5925
vn -0.6103 0.5021 0.6128
vn 0.3213 0.9448 -0.0642
vn 0.2107 0.9585 -0.1917
vn 0.0269 0.9993 -0.0240
vn 0.1460 0.9837 0.1047
vn -0.3359 0.8907 0.3063
vn -0.2457 0.8672 0.4331
vn 0.0941 0.9448 -0.3138
vn -0.0904 0.9837 -0.1552
vn -0.4546 0.8669 0.2044
vn 0.4204 0.6407 -0.6424
vn 0.4982 0.6274 -0.5984
vn 0.5045 0.5279 -0.6832
vn 0.4588 0.5260 -0.7161
vn 0.3475 0.6216 -0.7020
vn 0.4127 0.5226 -0.7460
vn -0.2956 0.9448 0.1412
vn -0.1571 0.9585 0.2377
vn -0.0202 0.9993 0.0299
vn -0.1673 0.9837 -0.0656
vn 0.2502 0.8907 -0.3796
vn 0.1317 0.8672 -0.4802
vn -0.0140 0.9448 0.3273
vn 0.1258 0.9837 0.1282
vn 0.3904 0.8669 -0.3099
vn 0.9963 0.0858 -0.0002
vn 0.9938 0.0675 0.0882
vn 0.9977 -0.0545 0.0415
vn 0.9984 -0.0549 -0.0148
vn 0.9931 0.0686 -0.0947
vn 0.9960 -0.0551 -0.0699
vn 0.8173 0.5585 -0.1413
vn 0.8269 0.5619 0.0215
vn 0.8613 0.5076 0.0229
vn 0.8534 0.5024 -0.1392
vn 0.9420 0.3352 0.0121
vn 0.9380 0.3216 -0.1291
vn 0.8138 0.5498 0.1881
vn 0.8533 0.4891 0.1805
vn 0.9379 0.3102 0.1552
vn -0.9462 0.2832 -0.1564
vn -0.9491 0.2708 -0.1611
vn -0.9984 0.0489 -0.0271
vn -0.9942 0.0278 -0.1036
vn -0.9637 0.2278 -0.1394
vn -0.9843 0.0076 -0.1760
vn -0.4401 0.8970 0.0395
vn -0.4021 0.9061 -0.1317
vn -0.5610 0.8106 -0.1677
vn -0.6026 0.7981 -0.0026
vn -0.7819 0.5894 -0.2029
vn -0.8220 0.5654 -0.0688
vn -0.3509 0.8868 -0.3007
vn -0.5159 0.7884 -0.3348
vn -0.7459 0.5810 -0.3255
vn 0.2499 0.7547 0.6066
vn 0.1894 0.7491 0.6348
vn 0.2593 0.6264 0.7351
vn 0.2946 0.6246 0.7232
vn 0.3106 0.7528 0.5803
vn 0.3330 0.6216 0.7090
vn -0.1079 0.8673 -0.4859
vn -0.1869 0.8704 -0.4554
vn -0.1037 0.9619 -0.2527
vn -0.0198 0.9556 -0.2940
vn 0.0931 0.9694 0.2270
vn 0.1807 0.9665 0.1820
vn -0.2645 0.8673 -0.4216
vn -0.1924 0.9556 -0.2232
vn -0.0007 0.9665 0.2565
vn -0.6184 0.7830 -0.0663
vn -0.6123 0.7791 -0.1345
vn -0.7070 0.6968 -0.1207
vn -0.7144 0.6951 -0.0801
vn -0.6245 0.7810 0.0010
vn -0.7212 0.6918 -0.0350
vn 0.4784 0.8673 0.1372
vn 0.4893 0.8704 0.0533
vn 0.2716 0.9619 0.0295
vn 0.2678 0.9556 0.1230
vn -0.2439 0.9694 -0.0265
vn -0.2462 0.9665 0.0718
vn 0.4967 0.8673 -0.0311
vn 0.2880 0.9556 -0.0625
vn -0.2250 0.9665 -0.1231
vn -0.1216 0.8240 -0.5533
vn -0.0550 0.8214 -0.5676
vn -0.0981 0.7452 -0.6596
vn -0.1396 0.7467 -0.6503
vn -0.1799 0.8222 -0.5401
vn -0.1793 0.7468 -0.6403
vn 0.0169 0.8917 0.4523
vn 0.0980 0.8995 0.4258
vn 0.0513 0.9705 0.2357
vn -0.0326 0.9672 0.2518
vn -0.0464 0.9759 -0.2133
vn -0.1330 0.9709 -0.1990
vn 0.1659 0.9009 0.4009
vn 0.1350 0.9639 0.2296
vn 0.0450 0.9762 -0.2120
vn 0.6217 0.7830 0.0172
vn 0.6210 0.7791 0.0857
vn 0.7144 0.6968 0.0645
vn 0.7186 0.6951 0.0233
vn 0.6225 0.7810 -0.0504
vn 0.7217 0.6918 -0.0221
vn -0.4878 0.8673 -0.0990
vn -0.4920 0.8704 -0.0144
vn -0.2730 0.9619 -0.0080
vn -0.2767 0.9556 -0.1014
vn 0.2452 0.9694 0.0072
vn 0.2398 0.9665 -0.0911
vn -0.4927 0.8673 0.0703
vn -0.2822 0.9556 0.0850
vn 0.2340 0.9665 0.1050
usemtl Plant_alpha_6
s 1
f 454/440/345 451/441/346 443/442/347 445/443/348
f 446/444/349 454/440/345 445/443/348 442/445/350
f 440/446/351 444/447/352 452/448/353 448/449/354
f 448/449/354 452/448/353 453/450/355 447/451/356
f 447/451/356 453/450/355 454/440/345 446/444/349
f 444/447/352 441/452/357 449/453/358 452/448/353
f 452/448/353 449/453/358 450/454/359 453/450/355
f 453/450/355 450/454/359 451/441/346 454/440/345
f 469/455/360 466/456/361 458/457/362 460/458/363
f 461/459/364 469/455/360 460/458/363 457/460/365
f 455/461/366 459/462/367 467/463/368 463/464/369
f 463/464/369 467/463/368 468/465/370 462/466/371
f 462/466/371 468/465/370 469/455/360 461/459/364
f 459/462/367 456/467/372 464/468/373 467/463/368
f 467/463/368 464/468/373 465/469/374 468/465/370
f 468/465/370 465/469/374 466/456/361 469/455/360
f 484/470/375 481/471/376 473/472/377 475/473/378
f 476/474/379 484/470/375 475/473/378 472/475/380
f 470/476/381 474/477/382 482/478/383 478/479/384
f 478/479/384 482/478/383 483/480/385 477/481/386
f 477/481/386 483/480/385 484/470/375 476/474/379
f 474/477/382 471/482/387 479/483/388 482/478/383
f 482/478/383 479/483/388 480/484/389 483/480/385
f 483/480/385 480/484/389 481/471/376 484/470/375
f 499/485/390 496/486/391 488/487/392 490/488/393
f 491/489/394 499/485/390 490/488/393 487/490/395
f 485/491/396 489/492/397 497/493/398 493/494/399
f 493/494/399 497/493/398 498/495/400 492/496/401
f 492/496/401 498/495/400 499/485/390 491/489/394
f 489/492/397 486/497/402 494/498/403 497/493/398
f 497/493/398 494/498/403 495/499/404 498/495/400
f 498/495/400 495/499/404 496/486/391 499/485/390
f 514/500/405 511/501/406 503/502/407 505/503/408
f 506/504/409 514/500/405 505/503/408 502/505/410
f 500/506/411 504/507/412 512/508/413 508/509/414
f 508/509/414 512/508/413 513/510/415 507/511/416
f 507/511/416 513/510/415 514/500/405 506/504/409
f 504/507/412 501/512/417 509/513/418 512/508/413
f 512/508/413 509/513/418 510/514/419 513/510/415
f 513/510/415 510/514/419 511/501/406 514/500/405
f 529/515/420 526/516/421 518/517/422 520/518/423
f 521/519/424 529/515/420 520/518/423 517/520/425
f 515/521/426 519/522/427 527/523/428 523/524/429
f 523/524/429 527/523/428 528/525/430 522/526/431
f 522/526/431 528/525/430 529/515/420 521/519/424
f 519/522/427 516/527/432 524/528/433 527/523/428
f 527/523/428 524/528/433 525/529/434 528/525/430
f 528/525/430 525/529/434 526/516/421 529/515/420
f 544/530/435 541/531/436 533/532/437 535/533/438
f 536/534/439 544/530/435 535/533/438 532/535/440
f 530/536/441 534/537/442 542/538/443 538/539/444
f 538/539/444 542/538/443 543/540/445 537/541/446
f 537/541/446 543/540/445 544/530/435 536/534/439
f 534/537/442 531/542/447 539/543/448 542/538/443
f 542/538/443 539/543/448 540/544/449 543/540/445
f 543/540/445 540/544/449 541/531/436 544/530/435
f 559/545/450 556/546/451 548/547/452 550/548/453
f 551/549/454 559/545/450 550/548/453 547/550/455
f 545/551/456 549/552/457 557/553/458 553/554/459
f 553/554/459 557/553/458 558/555/460 552/556/461
f 552/556/461 558/555/460 559/545/450 551/549/454
f 549/552/457 546/557/462 554/558/463 557/553/458
f 557/553/458 554/558/463 555/559/464 558/555/460
f 558/555/460 555/559/464 556/546/451 559/545/450
f 574/560/465 571/561/466 563/562/467 565/563/468
f 566/564/469 574/560/465 565/563/468 562/565/470
f 560/566/471 564/567/472 572/568/473 568/569/474
f 568/569/474 572/568/473 573/570/475 567/571/476
f 567/571/476 573/570/475 574/560/465 566/564/469
f 564/567/472 561/572/477 569/573/478 572/568/473
f 572/568/473 569/573/478 570/574/479 573/570/475
f 573/570/475 570/574/479 571/561/466 574/560/465
f 589/575/480 586/576/481 578/577/482 580/578/483
f 581/579/484 589/575/480 580/578/483 577/580/485
f 575/581/486 579/582/487 587/583/488 583/584/489
f 583/584/489 587/583/488 588/585/490 582/586/491
f 582/586/491 588/585/490 589/575/480 581/579/484
f 579/582/487 576/587/492 584/588/493 587/583/488
f 587/583/488 584/588/493 585/589/494 588/585/490
f 588/585/490 585/589/494 586/576/481 589/575/480
o Plant_alpha_5
v 0.078270 -0.075297 -4.484550
v 0.914414 0.176448 -4.484550
v 0.033806 -0.075297 -5.202141
v 0.914414 0.176448 -5.202141
v -0.000773 -0.015404 -4.843345
v 0.879835 0.236341 -4.843345
v 0.393314 0.248906 -4.484550
v 0.393314 0.268877 -5.202141
v 0.358734 0.328771 -4.843345
v 0.623643 0.320009 -4.484550
v 0.623643 0.320009 -5.202141
v 0.589063 0.379902 -4.843345
v 0.201558 0.117578 -5.202141
v 0.166979 0.177471 -4.843345
v 0.246022 0.117578 -4.484550
v -0.288267 -0.075297 -5.055014
v -0.967980 0.323967 -4.495018
v 0.098550 -0.079670 -4.633092
v -0.508930 0.323967 -4.073096
v -0.032589 -0.015404 -4.864676
v -0.712303 0.383860 -4.304679
v -0.560160 0.268877 -4.840612
v -0.101110 0.268877 -4.418691
v -0.304483 0.314444 -4.650274
v -0.725902 0.324980 -4.709917
v -0.266852 0.324980 -4.287995
v -0.470225 0.384873 -4.519578
v -0.028320 0.113205 -4.533049
v -0.159459 0.177471 -4.764632
v -0.415137 0.117578 -4.954970
v 0.337766 -0.075874 -5.035129
v 0.001891 0.253822 -5.879704
v -0.326772 -0.060329 -4.764784
v -0.662647 0.269367 -5.609359
v 0.015690 -0.003105 -4.878637
v -0.320185 0.326591 -5.723212
v 0.187266 0.200164 -5.420946
v -0.477271 0.215709 -5.150601
v -0.134809 0.272933 -5.264454
v 0.100403 0.264133 -5.638143
v -0.564134 0.279678 -5.367797
v -0.221672 0.336902 -5.481651
v -0.398484 0.100249 -4.950293
v -0.056022 0.157473 -5.064146
v 0.266054 0.084704 -5.220637
v 0.131559 -0.049273 -4.621636
v 0.622685 0.312874 -4.869729
v -0.091292 -0.049273 -5.062792
v 0.399834 0.312874 -5.310885
v -0.003148 -0.009415 -4.830453
v 0.506707 0.360234 -5.088007
v 0.319143 0.302654 -4.716394
v 0.096292 0.302654 -5.157551
v 0.196341 0.348838 -4.931225
v 0.466557 0.349285 -4.790861
v 0.243706 0.349285 -5.232017
v 0.347341 0.396161 -5.007504
v -0.027821 0.176237 -5.094854
v 0.067140 0.221455 -4.865960
v 0.195030 0.155759 -4.653698
v -0.150602 -0.051977 -4.675013
v 0.049838 0.328583 -4.164598
v 0.170598 -0.051977 -4.831484
v 0.371038 0.328583 -4.321069
v 0.000496 -0.012119 -4.777444
v 0.208580 0.357530 -4.247565
v -0.074044 0.318363 -4.480061
v 0.239678 0.318363 -4.636532
v 0.081912 0.346134 -4.570121
v -0.013881 0.364994 -4.326858
v 0.307318 0.364994 -4.483329
v 0.143539 0.393458 -4.413190
v 0.185379 0.198228 -4.762216
v 0.029183 0.218751 -4.704395
v -0.113575 0.198228 -4.612353
v -0.029958 -0.054816 -5.046119
v -0.404520 0.481996 -5.176740
v -0.099245 -0.046741 -4.695709
v -0.473807 0.490071 -4.826331
v -0.028096 -0.021502 -4.862276
v -0.425175 0.511751 -4.998952
v -0.100162 0.362867 -5.086504
v -0.165112 0.369724 -4.742063
v -0.114280 0.389051 -4.906727
v -0.234478 0.460105 -5.128566
v -0.303765 0.468180 -4.778156
v -0.252007 0.488236 -4.949831
v -0.078572 0.211757 -4.714960
v -0.024575 0.222057 -4.873517
v -0.017245 0.205438 -5.043643
v 0.767975 0.290881 -4.484550
v 0.767975 0.290881 -5.202141
v 0.733395 0.350775 -4.843345
vt 0.8750 0.5000
vt 1.0000 0.5000
vt 1.0000 1.0000
vt 0.8750 1.0000
vt 0.8750 0.0000
vt 1.0000 0.0000
vt 0.2500 0.0000
vt 0.5000 0.0000
vt 0.5000 0.5000
vt 0.2500 0.5000
vt 0.5000 1.0000
vt 0.2500 1.0000
vt 0.7500 0.0000
vt 0.7500 0.5000
vt 0.7500 1.0000
vt 0.0000 0.5000
vt 0.0000 1.0000
vt 0.0000 0.0000
vt 0.7500 0.5000
vt 1.0000 0.5000
vt 1.0000 1.0000
vt 0.7500 1.0000
vt 0.7500 0.0000
vt 1.0000 0.0000
vt 0.2500 0.0000
vt 0.5000 0.0000
vt 0.5000 0.5000
vt 0.2500 0.5000
vt 0.5000 1.0000
vt 0.2500 1.0000
vt 0.0000 0.5000
vt 0.0000 1.0000
vt 0.0000 0.0000
vt 0.7500 0.5000
vt 1.0000 0.5000
vt 1.0000 1.0000
vt 0.7500 1.0000
vt 0.7500 0.0000
vt 1.0000 0.0000
vt 0.2500 0.0000
vt 0.5000 0.0000
vt 0.5000 0.5000
vt 0.2500 0.5000
vt 0.5000 1.0000
vt 0.2500 1.0000
vt 0.0000 0.5000
vt 0.0000 1.0000
vt 0.0000 0.0000
vt 0.7500 0.5000
vt 1.0000 0.5000
vt 1.0000 1.0000
vt 0.7500 1.0000
vt 0.7500 0.0000
vt 1.0000 0.0000
vt 0.2500 0.0000
vt 0.5000 0.0000
vt 0.5000 0.5000
vt 0.2500 0.5000
vt 0.5000 1.0000
vt 0.2500 1.0000
vt 0.0000 0.5000
vt 0.0000 1.0000
vt 0.0000 0.0000
vt 0.7500 0.5000
vt 1.0000 0.5000
vt 1.0000 1.0000
vt 0.7500 1.0000
vt 0.7500 0.0000
vt 1.0000 0.0000
vt 0.2500 0.0000
vt 0.5000 0.0000
vt 0.5000 0.5000
vt 0.2500 0.5000
vt 0.5000 1.0000
vt 0.2500 1.0000
vt 0.0000 0.5000
vt 0.0000 1.0000
vt 0.0000 0.0000
vt 0.7500 0.5000
vt 1.0000 0.5000
vt 1.0000 1.0000
vt 0.7500 1.0000
vt 0.7500 0.0000
vt 1.0000 0.0000
vt 0.2500 0.0000
vt 0.5000 0.0000
vt 0.5000 0.5000
vt 0.2500 0.5000
vt 0.5000 1.0000
vt 0.2500 1.0000
vt 0.0000 0.5000
vt 0.0000 1.0000
vt 0.0000 0.0000
vn 0.3977 0.9175 0.0000
vn 0.6157 0.7879 0.0000
vn 0.6141 0.7859 -0.0720
vn 0.4364 0.8933 -0.1070
vn 0.4364 0.8933 0.1070
vn 0.6141 0.7859 0.0720
vn -0.6751 0.6922 0.2552
vn -0.4488 0.8631 0.2313
vn -0.4439 0.8958 0.0211
vn -0.6941 0.7190 0.0362
vn -0.4191 0.8881 -0.1886
vn -0.6801 0.7096 -0.1840
vn -0.0163 0.9838 0.1786
vn -0.0320 0.9995 0.0075
vn 0.0030 0.9864 -0.1643
vn -0.7540 0.6558 0.0387
vn -0.7423 0.6456 -0.1793
vn -0.7274 0.6326 0.2658
vn 0.1021 0.9883 -0.1136
vn -0.0089 0.9999 -0.0052
vn 0.1243 0.9816 0.1447
vn 0.2242 0.9737 0.0397
vn -0.0399 0.9708 -0.2364
vn -0.1270 0.9822 -0.1384
vn 0.3306 0.6881 -0.6459
vn 0.1713 0.8658 -0.4700
vn 0.3445 0.8743 -0.3420
vn 0.5322 0.6989 -0.4777
vn 0.4924 0.8508 -0.1835
vn 0.6941 0.6659 -0.2734
vn 0.5921 0.6420 -0.4870
vn 0.7444 0.6192 -0.2497
vn 0.3765 0.6095 -0.6976
vn 0.0642 0.9928 0.1008
vn 0.0052 0.9990 -0.0447
vn -0.1576 0.9872 0.0221
vn -0.1104 0.9808 0.1607
vn 0.2305 0.9728 0.0220
vn 0.1678 0.9796 -0.1102
vn 0.3924 0.8133 0.4295
vn 0.3308 0.9075 0.2588
vn 0.1581 0.9287 0.3354
vn 0.2243 0.8344 0.5034
vn -0.0196 0.9157 0.4013
vn 0.0516 0.8213 0.5682
vn 0.2524 0.7777 0.5756
vn 0.0822 0.7690 0.6339
vn 0.4143 0.7613 0.4988
vn -0.0357 0.9992 0.0180
vn 0.1790 0.9797 -0.0904
vn 0.0957 0.9640 -0.2481
vn -0.1129 0.9815 -0.1546
vn 0.0574 0.9815 0.1827
vn 0.2565 0.9640 0.0702
vn -0.6725 0.5050 0.5410
vn -0.3497 0.8457 0.4030
vn -0.4287 0.8752 0.2238
vn -0.7346 0.5601 0.3829
vn -0.5114 0.8580 0.0479
vn -0.8190 0.5245 0.2327
vn -0.8426 0.3185 0.4341
vn -0.9021 0.3090 0.3011
vn -0.7653 0.3213 0.5578
vn -0.0187 0.9991 -0.0383
vn 0.0815 0.9795 0.1841
vn 0.2250 0.9663 0.1248
vn 0.1341 0.9865 -0.0941
vn -0.1573 0.9866 0.0433
vn -0.0509 0.9709 0.2342
vn -0.5205 0.5314 -0.6683
vn -0.3588 0.8645 -0.3519
vn -0.2097 0.8783 -0.4297
vn -0.3674 0.5493 -0.7505
vn -0.0577 0.8661 -0.4965
vn -0.2130 0.5260 -0.8233
vn -0.4184 0.2993 -0.8575
vn -0.2604 0.2954 -0.9192
vn -0.5687 0.2943 -0.7680
vn 0.3630 0.9304 0.0503
vn 0.1323 0.9912 -0.0042
vn 0.0891 0.9853 0.1454
vn 0.3121 0.9276 0.2053
vn 0.3783 0.9191 -0.1099
vn 0.1688 0.9756 -0.1403
vn 0.9735 0.2282 0.0085
vn 0.7512 0.6590 -0.0384
vn 0.7273 0.6743 0.1280
vn 0.9520 0.2469 0.1808
vn 0.6851 0.6687 0.2889
vn 0.9094 0.2294 0.3469
vn 0.9806 -0.0279 0.1939
vn 0.9338 -0.0233 0.3569
vn 0.9993 -0.0318 0.0199
usemtl Plant_alpha_5
s 1
f 682/590/495 595/591/496 593/592/497 681/593/498
f 680/594/499 591/595/500 595/591/496 682/590/495
f 604/596/501 596/597/502 598/598/503 603/599/504
f 603/599/504 598/598/503 597/600/505 602/601/506
f 596/597/502 599/602/507 601/603/508 598/598/503
f 598/598/503 601/603/508 600/604/509 597/600/505
f 594/605/510 603/599/504 602/601/506 592/606/511
f 590/607/512 604/596/501 603/599/504 594/605/510
f 616/608/513 610/609/514 608/610/515 615/611/516
f 614/612/517 606/613/518 610/609/514 616/608/513
f 619/614/519 611/615/520 613/616/521 618/617/522
f 618/617/522 613/616/521 612/618/523 617/619/524
f 611/615/520 614/612/517 616/608/513 613/616/521
f 613/616/521 616/608/513 615/611/516 612/618/523
f 609/620/525 618/617/522 617/619/524 607/621/526
f 605/622/527 619/614/519 618/617/522 609/620/525
f 631/623/528 625/624/529 623/625/530 630/626/531
f 629/627/532 621/628/533 625/624/529 631/623/528
f 634/629/534 626/630/535 628/631/536 633/632/537
f 633/632/537 628/631/536 627/633/538 632/634/539
f 626/630/535 629/627/532 631/623/528 628/631/536
f 628/631/536 631/623/528 630/626/531 627/633/538
f 624/635/540 633/632/537 632/634/539 622/636/541
f 620/637/542 634/629/534 633/632/537 624/635/540
f 646/638/543 640/639/544 638/640/545 645/641/546
f 644/642/547 636/643/548 640/639/544 646/638/543
f 649/644/549 641/645/550 643/646/551 648/647/552
f 648/647/552 643/646/551 642/648/553 647/649/554
f 641/645/550 644/642/547 646/638/543 643/646/551
f 643/646/551 646/638/543 645/641/546 642/648/553
f 639/650/555 648/647/552 647/649/554 637/651/556
f 635/652/557 649/644/549 648/647/552 639/650/555
f 661/653/558 655/654/559 653/655/560 660/656/561
f 659/657/562 651/658/563 655/654/559 661/653/558
f 664/659/564 656/660/565 658/661/566 663/662/567
f 663/662/567 658/661/566 657/663/568 662/664/569
f 656/660/565 659/657/562 661/653/558 658/661/566
f 658/661/566 661/653/558 660/656/561 657/663/568
f 654/665/570 663/662/567 662/664/569 652/666/571
f 650/667/572 664/659/564 663/662/567 654/665/570
f 676/668/573 670/669/574 668/670/575 675/671/576
f 674/672/577 666/673/578 670/669/574 676/668/573
f 679/674/579 671/675/580 673/676/581 678/677/582
f 678/677/582 673/676/581 672/678/583 677/679/584
f 671/675/580 674/672/577 676/668/573 673/676/581
f 673/676/581 676/668/573 675/671/576 672/678/583
f 669/680/585 678/677/582 677/679/584 667/681/586
f 665/682/587 679/674/579 678/677/582 669/680/585
f 599/602/507 680/594/499 682/590/495 601/603/508
f 601/603/508 682/590/495 681/593/498 600/604/509
